<?xml version="1.0" encoding="utf-8"?>
<!-- Generator: Adobe Illustrator 16.0.0, SVG Export Plug-In . SVG Version: 6.00 Build 0)  -->
<!DOCTYPE svg PUBLIC "-//W3C//DTD SVG 1.1//EN" "http://www.w3.org/Graphics/SVG/1.1/DTD/svg11.dtd">
<svg version="1.1" id="Calque_1" xmlns="http://www.w3.org/2000/svg" xmlns:xlink="http://www.w3.org/1999/xlink" x="0px" y="0px"
	 width="96.326px" height="109px" viewBox="0 0 96.326 109" enable-background="new 0 0 96.326 109" xml:space="preserve">
<g>
	<path fill="#A46922" d="M477.123,13.229c-0.805,8.07-6.871,17.152-14.133,18.162c-5.348,0.743-7.289,6.232-11.098,8.507
		l-0.334-1.347h0.002l-0.189-0.76l-0.262-1.047c-0.057-0.227-1.393-5.564-2.402-7.966c-0.111-0.269-0.164-0.423-0.191-0.51
		c0.129-0.234,0.471-0.704,0.777-1.123c0.574-0.788,1.357-1.862,2.369-3.469c2.133-3.372,1.783-6.076,1.111-7.751
		c-0.309-0.775-0.717-1.402-1.098-1.875c0.299-2.596-1.695-5.1-2.973-6.412l0.664-2.738l0.225-0.936L449.02,3.19l-2.709-3.666
		l-0.551-0.74l1.09-1.935h11.504C458.354-3.15,477.932,5.157,477.123,13.229z"/>
	<path fill="#A46922" d="M411.529,3.19l-0.57,0.775l0.225,0.936l0.666,2.738c-1.277,1.313-3.271,3.816-2.975,6.412
		c-0.381,0.473-0.789,1.1-1.098,1.875c-0.672,1.675-1.023,4.379,1.111,7.751c1.014,1.606,1.799,2.681,2.367,3.469
		c0.309,0.419,0.648,0.889,0.781,1.123c-0.029,0.087-0.082,0.241-0.193,0.506c-1.008,2.405-2.348,7.743-2.402,7.97l-0.18,0.709
		l-0.004,0.023l-0.273,1.088l0.006,0.002l-0.324,1.334c-3.814-2.271-5.758-7.767-11.107-8.51
		c-7.258-1.01-13.324-10.092-14.131-18.162c-0.807-8.072,18.766-16.38,18.766-16.38h11.508l1.09,1.935l-0.549,0.74L411.529,3.19z"/>
	<path fill="#E5E5E5" d="M419.354,42.22c-4.547,11.439-10.402,15.613-10.898,16.064c-2.293,2.089-9.385,4.742-10.295,4.035
		c-0.906-0.705-0.592-1.658,0.742-2.422c1.498-0.857,4.271-2.557,7.6-7.604c1.672-2.53,3.508-7.816,5.043-12.828l4.654,1.644
		L419.354,42.22z"/>
	<path fill="#E5E5E5" d="M462.389,62.319c-0.906,0.707-8-1.946-10.289-4.035c-0.498-0.448-6.33-4.605-10.871-15.992l3.174-1.152
		l4.605-1.664c1.535,5.01,3.371,10.291,5.041,12.818c3.33,5.047,6.104,6.746,7.6,7.604
		C462.984,60.661,463.299,61.614,462.389,62.319z"/>
	<path fill="#70573A" d="M440.021,39.79c0,0.144-0.01,0.289-0.027,0.43v-0.541L440.021,39.79z"/>
	<path fill="#70573A" d="M429.656,20.915c0,0,0.537,0.717,1.254,1.941c0.727,1.223,5.26,1.564,6.133,3.602
		c0.885,2.039-0.107,5.781,0.615,8.244c0.732,2.461,0.209,5.24,0.738,7.707c0.518,2.453,0.309,4.632,0.705,6.379
		c0.193,0.865,0.367,1.521,0.357,1.926c0.006,0.381-0.279,0.705,0.018,1.121c0.291,0.383,1.045,0.59,1.807,0.623
		c0.773,0.055,1.553-0.037,2.229-0.107c0.332-0.047,0.639-0.09,0.918-0.122c0.277-0.042,0.516-0.077,0.707-0.106
		c0.406-0.054,0.623-0.081,0.623-0.081s-0.033,0.218-0.127,0.614c-0.086,0.402-0.252,0.969-0.545,1.664
		c-0.305,0.695-0.727,1.523-1.479,2.398c-0.752,0.859-1.842,1.835-3.682,2.381c-0.924,0.248-2.021,0.354-3.16,0.174
		c-1.127-0.178-2.238-0.6-3.199-1.154c-1.92-1.129-3.258-2.619-4.316-4.094c-2.082-2.98-3.842-6.018-4.52-9.104
		c-1.297-6.183-4.592-11.572-3.199-16.003c0.678-2.216,6.17-4.777,6.869-6.037C429.096,21.618,429.656,20.915,429.656,20.915z"/>
	<path fill="#70573A" d="M449.916,22.581c-3.227,5.111-4.068,4.705-3.109,6.995c0.961,2.282,2.305,7.667,2.305,7.667l-0.691,0.258
		l-4.624,1.699L442,39.879v-0.294l-0.132-0.208l-0.896-3.955L440.678,34h-20.807l-0.252,1.422l-0.702,3.78L419,39.585v0.228
		l-1.974-0.649l-4.819-1.669l-0.735-0.251c0,0,1.335-5.385,2.286-7.667c0.967-2.29,0.111-1.884-3.117-6.995
		c-3.227-5.109,0.535-7.939,0.535-7.939c-1.344-2.695,2.961-6.322,2.961-6.322l-0.947-3.906l2.708-3.663l2.269-3.058
		c0,0,0.016-0.016,0.051-0.045c0.016-0.015,0.037-0.021,0.061-0.036c0.051-0.036,0.117-0.075,0.199-0.104
		c0.045-0.014,0.088-0.029,0.133-0.036c0.102-0.03,0.223-0.044,0.346-0.044c0.305,0,0.68,0.08,1.146,0.339
		c0.074,0.044,0.154,0.097,0.234,0.148c0.084,0.051,0.164,0.11,0.252,0.177c0.287,0.214,0.525,0.303,0.752,0.303
		c0.066,0,0.127,0,0.195-0.016c0.029-0.006,0.057-0.014,0.094-0.021c0.125-0.029,0.268-0.081,0.414-0.154
		c0.039-0.016,0.074-0.029,0.119-0.046c0.961-0.442,2.541-1.307,6.566-1.307c0.479,0,0.996,0.015,1.549,0.037
		c0.547-0.022,1.064-0.037,1.545-0.037c4.025,0,5.613,0.864,6.566,1.307c0.045,0.017,0.08,0.03,0.117,0.046
		c0.148,0.073,0.289,0.125,0.414,0.154c0.035,0.008,0.066,0.016,0.096,0.021c0.066,0.016,0.125,0.016,0.191,0.016
		c0.236,0,0.465-0.089,0.754-0.303c0.088-0.066,0.17-0.126,0.25-0.177c0.09-0.052,0.164-0.104,0.244-0.148
		c0.459-0.259,0.844-0.339,1.137-0.339c0.135,0,0.244,0.014,0.35,0.044c0.051,0.007,0.094,0.022,0.133,0.036
		c0.08,0.029,0.146,0.068,0.199,0.104c0.021,0.015,0.043,0.021,0.059,0.036c0.035,0.029,0.053,0.045,0.053,0.045l2.266,3.058
		l2.711,3.663l-0.938,3.906c0,0,4.305,3.627,2.961,6.322C449.385,14.642,453.154,17.472,449.916,22.581z"/>
	<path fill="#8CC63F" d="M447.25-9.269c-0.061-0.366-0.131-0.684-0.215-0.938c-0.887-2.662-3.424-6.211-6.721-7.732
		c-2.219-1.025-4.436-1.646-5.646-1.943c0.027-0.048,0.051-0.104,0.057-0.172c0.045-0.467-0.57-0.574-1.34-0.646
		c-0.773-0.07-1.41-0.08-1.453,0.39c-0.012,0.112,0.018,0.199,0.076,0.273c-2.904,0.134-8.691,0.571-10.836,1.972
		c-2.918,1.902-3.678,3.676-4.693,6.086c-0.859,2.044-2.723,8.648-3.268,10.604l-0.154-0.02c0,0,0.053,0.028,0.139,0.069
		c-0.088,0.316-0.139,0.502-0.139,0.502s0.031,0.016,0.082,0.041l-2.631,2.285c-0.047-0.004-0.074-0.004-0.074-0.004l0.07,0.008
		l-0.797,0.694l-0.037-0.002c0.008,0.002,0.02-0.313,0.029-0.309L408.055,3h-0.084c0.02,0,0.039,0.332,0.059,0.34l-1.951,1.179
		L406.043,4c0.01,0,0.023,0,0.035,0l-1.223,1.74c-0.01,0.002-0.021,0.341-0.029,0.341l0.029,0.169l-1.27,1.188l-0.199,0.264
		c0,0,0.049,0.002,0.109-0.018c-0.129,0.08-0.17,0.186-0.057,0.31c0.064,0.066,0.143,0.131,0.232,0.182l-0.164,0.184
		c0,0,0.041-0.012,0.094-0.031c-0.121,0.078-0.148,0.174-0.039,0.293c0.541,0.584,2.18,0.535,2.947,0.725
		c0.967,0.236,1.9,0.572,2.807,0.951c3.494,2.211,9.148,5.608,12.277,5.424c4.438-0.263,6.295-1.135,8.529-2.666
		c1.787-1.225,6.238-4.916,8.213-7.02c0.35,0.013,0.689,0.018,1.018,0.009l0.008,0.028c0,0,0-0.01,0.004-0.028
		c0.145-0.001,0.289-0.007,0.43-0.014l0.01,0.042c0,0,0.002-0.016,0.006-0.044c0.488-0.024,0.951-0.071,1.389-0.146
		c3.676-0.634,5.705-0.887,5.959-2.029C447.402,2.752,448-6.234,447.25-9.269z"/>
	<g>
		
			<ellipse transform="matrix(0.9873 0.1591 -0.1591 0.9873 7.3493 -66.1171)" fill="#8CC63F" cx="416.488" cy="12.828" rx="1.688" ry="2.626"/>
		
			<ellipse transform="matrix(-0.9873 0.1591 -0.1591 -0.9873 883.3661 -45.0846)" fill="#8CC63F" cx="443.488" cy="12.828" rx="1.688" ry="2.626"/>
	</g>
</g>
<g>
	<path fill="#A46922" d="M94.849,37.775c-0.807,8.07-6.871,17.152-14.133,18.162c-5.35,0.742-7.291,6.232-11.1,8.506l-0.334-1.346
		h0.004l-0.191-0.761l-0.26-1.046c-0.057-0.228-1.393-5.564-2.402-7.967c-0.113-0.268-0.164-0.423-0.195-0.51
		c0.133-0.234,0.475-0.703,0.779-1.123c0.574-0.787,1.355-1.862,2.371-3.468c2.133-3.373,1.783-6.076,1.111-7.753
		c-0.311-0.774-0.717-1.402-1.098-1.873c0.297-2.598-1.699-5.1-2.973-6.412l0.666-2.739l0.223-0.937l-0.572-0.774l-2.711-3.665
		l-0.549-0.74l1.09-1.935h11.506C76.081,21.396,95.653,29.702,94.849,37.775z"/>
	<path fill="#A46922" d="M29.255,27.735l-0.572,0.774l0.223,0.937l0.668,2.739c-1.276,1.313-3.271,3.814-2.976,6.412
		c-0.379,0.471-0.789,1.099-1.097,1.873c-0.671,1.677-1.022,4.38,1.111,7.753c1.016,1.605,1.798,2.681,2.37,3.468
		c0.306,0.42,0.646,0.889,0.777,1.123c-0.027,0.087-0.08,0.242-0.191,0.507c-1.008,2.405-2.347,7.742-2.403,7.97L26.988,62
		l-0.005,0.023l-0.272,1.088l0.004,0.002l-0.326,1.332c-3.813-2.27-5.755-7.766-11.105-8.508C8.024,54.928,1.96,45.846,1.153,37.775
		c-0.807-8.073,18.767-16.38,18.767-16.38h11.505l1.092,1.935l-0.55,0.74L29.255,27.735z"/>
	<path fill="#70573A" d="M57.745,64.334c0,0.145-0.008,0.289-0.025,0.431v-0.54L57.745,64.334z"/>
	<path fill="#70573A" d="M67.642,47.127c-3.227,5.111-4.07,4.705-3.109,6.994c0.961,2.283,2.305,7.667,2.305,7.667l-0.693,0.259
		l-4.485,1.699L60,64.424V64.13l-0.271-0.207l-0.963-3.729L58.401,59H37.596l-0.25,1.194l-0.567,3.666L37,64.13v0.229l-2.114-0.65
		l-4.884-1.67l-0.771-0.251c0,0,1.316-5.384,2.271-7.667c0.965-2.289,0.1-1.883-3.129-6.994c-3.227-5.11,0.531-7.939,0.531-7.939
		c-1.344-2.695,2.959-6.322,2.959-6.322l-0.948-3.906l2.708-3.663l2.266-3.06c0,0,0.014-0.014,0.052-0.043
		c0.016-0.016,0.038-0.021,0.06-0.037c0.051-0.036,0.117-0.074,0.2-0.104c0.043-0.015,0.087-0.029,0.134-0.037
		c0.102-0.029,0.219-0.043,0.346-0.043c0.302,0,0.679,0.08,1.145,0.339c0.073,0.044,0.155,0.097,0.236,0.147
		c0.081,0.052,0.162,0.111,0.25,0.177c0.289,0.214,0.525,0.304,0.754,0.304c0.067,0,0.126,0,0.192-0.016
		c0.028-0.006,0.059-0.015,0.095-0.021c0.126-0.029,0.268-0.082,0.415-0.155c0.036-0.015,0.074-0.029,0.116-0.045
		c0.962-0.442,2.542-1.307,6.566-1.307c0.481,0,0.999,0.015,1.553,0.037c0.546-0.022,1.063-0.037,1.542-0.037
		c4.026,0,5.616,0.864,6.567,1.307c0.043,0.016,0.082,0.03,0.119,0.045c0.148,0.073,0.287,0.126,0.414,0.155
		c0.035,0.007,0.066,0.016,0.096,0.021c0.066,0.016,0.125,0.016,0.191,0.016c0.236,0,0.465-0.09,0.752-0.304
		c0.092-0.065,0.17-0.125,0.252-0.177c0.09-0.051,0.164-0.104,0.244-0.147c0.457-0.259,0.84-0.339,1.137-0.339
		c0.133,0,0.244,0.014,0.348,0.043c0.051,0.008,0.096,0.022,0.133,0.037c0.082,0.029,0.148,0.067,0.199,0.104
		c0.023,0.016,0.045,0.021,0.061,0.037c0.037,0.029,0.051,0.043,0.051,0.043l2.268,3.06l2.711,3.663l-0.938,3.906
		c0,0,4.305,3.627,2.961,6.322C67.11,39.188,70.878,42.017,67.642,47.127z"/>
	<path fill="#E5E5E5" d="M37.079,66.766c-4.547,11.439-10.404,15.612-10.9,16.064c-2.291,2.089-9.384,4.74-10.291,4.035
		c-0.91-0.706-0.593-1.659,0.741-2.422c1.496-0.857,4.271-2.557,7.599-7.604c1.671-2.531,3.51-7.816,5.044-12.828l4.654,1.644
		L37.079,66.766z"/>
	<path fill="#E5E5E5" d="M80.114,86.865c-0.91,0.705-8-1.946-10.293-4.035c-0.494-0.449-6.326-4.606-10.867-15.994l3.176-1.15
		l4.604-1.665c1.535,5.01,3.367,10.29,5.039,12.819c3.33,5.047,6.104,6.746,7.6,7.604C80.71,85.206,81.024,86.159,80.114,86.865z"/>
	<path fill="#70573A" d="M47.381,45.461c0,0,0.538,0.717,1.255,1.941c0.725,1.223,5.259,1.563,6.13,3.602
		c0.883,2.037-0.107,5.78,0.615,8.244c0.734,2.461,0.209,5.24,0.738,7.707c0.516,2.452,0.311,4.632,0.705,6.379
		c0.195,0.864,0.369,1.52,0.359,1.925c0.004,0.381-0.283,0.705,0.016,1.122c0.293,0.383,1.047,0.59,1.809,0.623
		c0.773,0.055,1.553-0.037,2.225-0.107c0.334-0.047,0.643-0.09,0.92-0.121c0.279-0.043,0.518-0.078,0.709-0.109
		c0.406-0.053,0.623-0.08,0.623-0.08s-0.035,0.219-0.127,0.615c-0.088,0.402-0.254,0.967-0.545,1.664
		c-0.303,0.694-0.727,1.523-1.48,2.398c-0.75,0.857-1.84,1.834-3.682,2.381c-0.92,0.248-2.02,0.354-3.158,0.174
		c-1.129-0.178-2.238-0.6-3.198-1.154c-1.921-1.13-3.26-2.619-4.319-4.096c-2.081-2.979-3.841-6.016-4.519-9.104
		c-1.297-6.182-4.592-11.572-3.2-16.003c0.679-2.216,6.17-4.776,6.871-6.037C46.82,46.164,47.381,45.461,47.381,45.461z"/>
	<g>
		
			<ellipse transform="matrix(0.9873 0.1591 -0.1591 0.9873 6.7364 -4.9884)" fill="#8CC63F" cx="34.514" cy="39.565" rx="1.688" ry="2.626"/>
		
			<ellipse transform="matrix(-0.9873 0.1591 -0.1591 -0.9873 128.5418 68.8371)" fill="#8CC63F" cx="61.515" cy="39.565" rx="1.688" ry="2.626"/>
	</g>
	<g>
		<g>
			<g>
				<path fill="#8CC63F" d="M50.732,87.416l0.02,0.023l0.012,0.015c0,0.022-0.002,0.04-0.002,0.052s0,0.019,0,0.019h-0.018h-0.018
					C50.727,87.523,50.727,87.482,50.732,87.416z"/>
				<path fill="#3E5D84" d="M50.732,87.416c-0.006,0.066-0.006,0.107-0.006,0.108h0.018h0.018c0,0,0-0.007,0-0.019
					c0.047,0.049,0.1,0.1,0.164,0.15c0.18,0.112,0.455,0.277,0.756,0.42c0.309,0.129,0.612,0.226,0.817,0.285
					c0.084,0.014,0.166,0.021,0.238,0.021l-0.016,0.021H52.72l0.023,0.027c0,0,0.01-0.008,0.025-0.023l-0.002,0.006
					c-0.002,0.013-0.008,0.028-0.016,0.048c-0.131,0.298-1.128,1.391-1.544,1.779c-0.166,0.161-0.213,0.174-0.24,0.161
					c-0.029-0.014-0.064-0.027-0.104-0.043c-0.004-0.002-0.008-0.004-0.008-0.004l-0.021-0.008
					c-0.037-0.014-0.078-0.031-0.123-0.052c-0.049-0.021-0.09-0.04-0.123-0.06l-0.018-0.008c-0.004-0.003-0.008-0.005-0.012-0.006
					c-0.037-0.02-0.072-0.035-0.102-0.049c-0.025-0.012-0.049-0.055-0.043-0.288c0.008-0.571,0.137-2.052,0.268-2.352
					c0.008-0.019,0.018-0.032,0.025-0.043l0.008-0.01l0.012-0.071L50.732,87.416z"/>
				<path fill="#8CC63F" d="M52.813,88.344L52.769,88.4v0.006c-0.016,0.016-0.023,0.021-0.023,0.021l-0.025-0.025h0.002
					c0,0,0.025-0.025,0.055-0.057L52.813,88.344z"/>
			</g>
		</g>
		<path fill="#8CC63F" d="M57.228,72.561l2.129,0.953c-0.4,0.922-4.068,9.348-4.375,9.966c-0.332,0.672-1.676,3.79-1.781,4.21
			c-0.018,0.066-0.041,0.13-0.068,0.189c-0.115,0.264-0.301,0.463-0.363,0.527V88.4l0.045-0.057l-0.037,0.002h-0.004
			c-0.078,0.004-0.17-0.002-0.268-0.02c-0.199-0.058-0.503-0.154-0.81-0.282c-0.299-0.142-0.572-0.306-0.748-0.416
			c-0.074-0.058-0.135-0.114-0.184-0.174l-0.012-0.015l-0.02-0.023c0.016-0.161,0.064-0.473,0.232-0.728
			c0.234-0.362,1.62-3.462,1.888-4.162C53.101,81.881,56.821,73.48,57.228,72.561z"/>
		<path fill="#8CC63F" d="M64.534,58.818c0.441,0.197,0.641,0.719,0.445,1.163l-0.326,0.739l-0.004-0.008l-1.586-0.711l-0.004,0.002
			l0.324-0.737C63.577,58.822,64.095,58.621,64.534,58.818z"/>
		<polygon fill="#8CC63F" points="64.634,60.768 64.653,60.721 64.808,61.091 62.681,60.137 63.06,60.004 63.04,60.047 
			63.062,60.041 64.624,60.74 		"/>
		<polygon fill="#3E5D84" points="62.606,60.163 62.618,60.196 62.62,60.195 62.679,60.176 64.782,61.117 64.804,61.176 
			64.806,61.178 64.839,61.162 64.808,61.091 64.87,61.117 59.417,73.541 57.167,72.532 62.62,60.109 62.681,60.137 		"/>
		<path fill="#8CC63F" d="M50.852,90.353c0,0,0.008,0.003,0.012,0.005l-0.156,0.359c-0.037,0.084-0.137,0.123-0.221,0.084
			c-0.043-0.018-0.072-0.053-0.088-0.092c-0.016-0.041-0.016-0.088,0.002-0.131l0.158-0.357c0.004,0.001,0.008,0.003,0.012,0.006
			l0.018,0.008c0.033,0.02,0.074,0.039,0.123,0.06c0.045,0.021,0.086,0.038,0.123,0.052L50.852,90.353z"/>
	</g>
	<path fill="#8CC63F" d="M37.708,92.862c-0.089,0-0.182-0.005-0.279-0.016c-1.018-0.117-1.129-1.29-1.196-1.99
		c-0.016-0.164-0.029-0.316-0.052-0.441c-0.064-0.341-0.459-0.688-0.511-1.035C35.584,88.8,35,88.199,35,87.645
		c0-0.003,0-0.006,0-0.008c0,0.043,0.306,0.083,0.293,0.112l0.119,0.125c-0.197,0.442-0.26,0.905-0.417,1.394
		c-0.076,0.236-0.108,0.473-0.189,0.707c-0.338,1.082-0.616,1.722-1.142,1.82c-0.263,0.056-0.512-0.057-0.701-0.292
		c-0.123-0.155-0.174-0.376-0.25-0.986c-0.119-0.738-0.094-1.466-0.072-2.17l0.017-0.95c0-1.188,0-2.986,1.037-3.791l0.613,0.789
		c-0.649,0.505-0.649,2.008-0.648,3.002l-0.016,0.981c-0.02,0.642-0.04,1.306,0.051,1.895c0.051-0.138,0.109-0.306,0.174-0.513
		l0.036-0.112c0.079-0.228,0.152-0.456,0.225-0.685c0.158-0.493,0.321-1.003,0.541-1.496l0.045-0.104
		c0.152-0.362,0.435-1.035,1.111-1.06l0.217-0.008l0.154,0.153c0.278,0.277,0.437,0.621,0.47,1.021
		c0.152,0.522,0.246,1.153,0.337,1.764c0.05,0.334,0.1,0.668,0.161,0.997c0.028,0.15,0.047,0.334,0.065,0.531
		c0.036,0.373,0.102,1.066,0.314,1.091c0.852,0.102,1.187-0.647,1.632-1.887c0.133-0.371,0.259-0.721,0.417-1.027l0.17-0.332
		l0.366,0.068c0.294,0.055,0.519,0.233,0.645,0.51c0.419,0.432,0.833,0.878,1.233,1.328c0.579,0.65,1.002,0.967,1.843,1.001
		c0.749,0.038,1.365-0.188,2.067-0.441c0.209-0.075,0.423-0.153,0.649-0.227l0.176-0.061c0.669-0.232,1.791-0.619,2.445,0.024
		l-0.701,0.713c-0.213-0.212-1.119,0.104-1.417,0.208l-0.192,0.065c-0.215,0.07-0.42,0.145-0.62,0.217
		c-0.768,0.278-1.5,0.527-2.45,0.501c-1.18-0.05-1.828-0.527-2.547-1.337c-0.341-0.383-0.692-0.764-1.048-1.134
		c-0.031,0.085-0.063,0.172-0.095,0.261C39.725,91.394,39.196,92.862,37.708,92.862z"/>
	<path fill="#8CC63F" d="M87.835,28c0,0.81-0.66,2-1.469,2H27.206C27.036,29,26,27.83,26,26.83v-5.89C26,12.25,33.965,5,42.656,5H45
		V4c0-0.55,0.786-1,1.335-1h3C49.885,3,50,3.45,50,4v1h2.476C61.155,5,68,12.25,68,20.94V26h18.366
		C87.175,26,87.835,27.18,87.835,28z"/>
</g>
<g>
	<g>
		<ellipse fill="#8CC63F" cx="301.66" cy="109.356" rx="15.697" ry="13.415"/>
		<circle fill="#8CC63F" cx="301.661" cy="98.895" r="6.751"/>
	</g>
	<path fill="#A46922" d="M348.168,125.775c-0.809,8.07-6.873,17.152-14.131,18.162c-5.35,0.743-7.291,6.232-11.102,8.507
		l-0.334-1.347h0.004l-0.189-0.76l-0.262-1.047c-0.057-0.227-1.395-5.564-2.402-7.966c-0.111-0.269-0.164-0.423-0.193-0.51
		c0.133-0.234,0.473-0.704,0.779-1.123c0.572-0.788,1.355-1.862,2.369-3.469c2.133-3.372,1.781-6.076,1.111-7.751
		c-0.309-0.775-0.719-1.402-1.098-1.875c0.297-2.596-1.699-5.1-2.973-6.412l0.666-2.738l0.223-0.936l-0.574-0.775l-2.709-3.666
		l-0.549-0.74l1.09-1.935H329.4C329.4,109.396,348.975,117.703,348.168,125.775z"/>
	<path fill="#A46922" d="M282.576,115.736l-0.572,0.775l0.223,0.936l0.666,2.738c-1.277,1.313-3.27,3.816-2.975,6.412
		c-0.379,0.473-0.789,1.1-1.098,1.875c-0.67,1.675-1.021,4.379,1.113,7.751c1.014,1.606,1.797,2.681,2.369,3.469
		c0.305,0.419,0.646,0.889,0.779,1.123c-0.029,0.087-0.082,0.241-0.195,0.506c-1.008,2.405-2.344,7.743-2.402,7.97L280.309,150
		l-0.008,0.023l-0.271,1.088l0.004,0.002l-0.324,1.334c-3.814-2.271-5.754-7.767-11.105-8.51
		c-7.26-1.01-13.324-10.092-14.131-18.162c-0.807-8.072,18.768-16.38,18.768-16.38h11.506l1.09,1.935l-0.549,0.74L282.576,115.736z"
		/>
	<path fill="#E5E5E5" d="M290.396,154.766c-4.545,11.439-10.4,15.613-10.898,16.064c-2.291,2.089-9.385,4.742-10.291,4.035
		c-0.91-0.705-0.596-1.658,0.74-2.422c1.498-0.857,4.27-2.557,7.6-7.604c1.67-2.53,3.508-7.816,5.043-12.828l4.656,1.644
		L290.396,154.766z"/>
	<path fill="#E5E5E5" d="M333.434,174.865c-0.908,0.707-8.002-1.946-10.291-4.035c-0.496-0.448-6.328-4.605-10.869-15.992
		l3.174-1.152l4.605-1.664c1.533,5.01,3.369,10.291,5.039,12.818c3.33,5.047,6.104,6.746,7.602,7.604
		C334.027,173.207,334.344,174.16,333.434,174.865z"/>
	<path fill="#70573A" d="M311.063,152.336c0,0.144-0.006,0.289-0.023,0.43v-0.541L311.063,152.336z"/>
	<path fill="#70573A" d="M300.701,133.461c0,0,0.537,0.717,1.256,1.941c0.723,1.223,5.258,1.564,6.131,3.602
		c0.883,2.039-0.107,5.781,0.613,8.244c0.732,2.461,0.209,5.24,0.738,7.707c0.518,2.453,0.311,4.632,0.705,6.379
		c0.193,0.865,0.369,1.521,0.359,1.926c0.004,0.381-0.281,0.705,0.016,1.121c0.291,0.383,1.049,0.59,1.811,0.623
		c0.771,0.055,1.551-0.037,2.225-0.107c0.332-0.047,0.639-0.09,0.92-0.122c0.277-0.042,0.516-0.077,0.707-0.106
		c0.406-0.054,0.623-0.081,0.623-0.081s-0.035,0.218-0.127,0.614c-0.086,0.402-0.252,0.969-0.545,1.664
		c-0.303,0.695-0.729,1.523-1.48,2.398c-0.75,0.859-1.84,1.835-3.68,2.381c-0.924,0.248-2.023,0.354-3.16,0.174
		c-1.129-0.178-2.236-0.6-3.199-1.154c-1.92-1.129-3.258-2.619-4.318-4.094c-2.08-2.98-3.84-6.018-4.518-9.104
		c-1.299-6.183-4.592-11.572-3.201-16.003c0.678-2.216,6.172-4.777,6.871-6.037C300.141,134.164,300.701,133.461,300.701,133.461z"
		/>
	<path fill="#70573A" d="M320.961,135.127c-3.227,5.111-4.07,4.705-3.109,6.995c0.961,2.282,2.305,7.667,2.305,7.667l-0.695,0.258
		l-4.644,1.699L313,152.425v-0.294l-0.11-0.208l-0.884-3.728L311.721,147h-20.805l-0.25,1.195l-1.229,3.666l-0.438,0.27v0.228
		l-1.453-0.649l-4.557-1.669l-0.605-0.251c0,0,1.399-5.385,2.353-7.667c0.969-2.29,0.144-1.884-3.085-6.995
		c-3.227-5.109,0.551-7.939,0.551-7.939c-1.344-2.695,2.969-6.322,2.969-6.322l-0.941-3.906l2.711-3.663l2.269-3.058
		c0,0,0.015-0.016,0.052-0.045c0.015-0.015,0.037-0.021,0.059-0.036c0.053-0.036,0.119-0.075,0.199-0.104
		c0.045-0.014,0.09-0.029,0.133-0.036c0.104-0.03,0.223-0.044,0.348-0.044c0.303,0,0.68,0.08,1.146,0.339
		c0.072,0.044,0.154,0.097,0.236,0.148c0.08,0.051,0.162,0.11,0.25,0.177c0.287,0.214,0.523,0.303,0.754,0.303
		c0.066,0,0.125,0,0.191-0.016c0.029-0.006,0.059-0.014,0.096-0.021c0.125-0.029,0.266-0.081,0.414-0.154
		c0.035-0.016,0.072-0.029,0.119-0.046c0.959-0.442,2.541-1.307,6.564-1.307c0.48,0,0.998,0.015,1.551,0.037
		c0.547-0.022,1.064-0.037,1.543-0.037c4.025,0,5.613,0.864,6.566,1.307c0.045,0.017,0.082,0.03,0.119,0.046
		c0.146,0.073,0.287,0.125,0.414,0.154c0.035,0.008,0.064,0.016,0.096,0.021c0.066,0.016,0.125,0.016,0.191,0.016
		c0.236,0,0.467-0.089,0.754-0.303c0.088-0.066,0.168-0.126,0.25-0.177c0.09-0.052,0.162-0.104,0.244-0.148
		c0.459-0.259,0.842-0.339,1.139-0.339c0.131,0,0.242,0.014,0.346,0.044c0.053,0.007,0.098,0.022,0.133,0.036
		c0.082,0.029,0.148,0.068,0.199,0.104c0.023,0.015,0.045,0.021,0.061,0.036c0.037,0.029,0.051,0.045,0.051,0.045l2.268,3.058
		l2.711,3.663l-0.939,3.906c0,0,4.307,3.627,2.963,6.322C320.43,127.188,324.195,130.018,320.961,135.127z"/>
	<g>
		
			<ellipse transform="matrix(0.9873 0.1591 -0.1591 0.9873 23.6163 -44.1566)" fill="#8CC63F" cx="287.508" cy="125.374" rx="1.688" ry="2.626"/>
		
			<ellipse transform="matrix(-0.9873 0.1591 -0.1591 -0.9873 644.9597 199.099)" fill="#8CC63F" cx="314.508" cy="125.374" rx="1.688" ry="2.626"/>
	</g>
	<g>
		<path fill="#8CC63F" d="M311.98,174.474c-0.623,1.534-2.375,2.272-3.908,1.649l-12.043-4.896c-1.535-0.624-2.273-2.375-1.65-3.909
			l11.301-27.791c0.623-1.534,2.375-2.272,3.908-1.648l12.043,4.896c1.535,0.624,2.273,2.374,1.648,3.908L311.98,174.474z"/>
		<path fill="#70573A" d="M309.594,152.224c0.539-1.713,0.971-3.463,2.479-4.732c-0.006,0.164-0.01,0.253-0.012,0.32
			c0.393-0.211,0.777-0.417,1.162-0.626c0.023,0.03,0.053,0.063,0.076,0.092c-0.074,0.125-0.145,0.25-0.25,0.429
			c0.227-0.078,0.406-0.171,0.596-0.196c0.189-0.028,0.391,0.01,0.586,0.02c-0.135,0.145-0.248,0.331-0.414,0.428
			c-0.273,0.155-0.58,0.253-0.865,0.436c0.076,0.008,0.15,0.019,0.223,0.017c1.719-0.04,3.336,0.98,4.008,2.571
			c0.141,0.342,0.34,0.461,0.658,0.394c0.568-0.121,1.127-0.278,1.711-0.427c-0.305,0.743-0.982,1.045-1.715,1.275
			c0.006,0.043,0.014,0.088,0.023,0.132c0.631-0.023,1.262-0.047,1.873-0.069c-0.25,0.409-0.906,0.83-1.59,0.926
			c-0.371,0.053-0.492,0.208-0.561,0.565c-0.348,1.721-1.311,3.095-2.658,4.144c-3.406,2.646-7.18,3.341-11.277,1.827
			c-0.971-0.356-1.797-0.954-2.621-1.689c2.619,1.159,4.9,0.842,6.977-1.251c-0.605-0.027-1.156,0.043-1.424-0.521
			c-0.129-0.271-0.016-0.469,0.475-0.979c-0.967,0.156-1.775-0.039-2.43-0.877c0.355-0.209,0.688-0.4,1.057-0.614
			c-0.959-0.134-1.781-0.462-2.141-1.497c0.32-0.107,0.619-0.207,1.008-0.339c-0.973-0.401-1.637-0.974-1.824-2.058
			C305.098,150.543,307.5,150.859,309.594,152.224z"/>
	</g>
</g>
</svg>
