<?xml version="1.0" encoding="utf-8"?>
<!-- Generator: Adobe Illustrator 16.0.0, SVG Export Plug-In . SVG Version: 6.00 Build 0)  -->
<!DOCTYPE svg PUBLIC "-//W3C//DTD SVG 1.1//EN" "http://www.w3.org/Graphics/SVG/1.1/DTD/svg11.dtd">
<svg version="1.1" id="Calque_1" xmlns="http://www.w3.org/2000/svg" xmlns:xlink="http://www.w3.org/1999/xlink" x="0px" y="0px"
	 width="96.326px" height="109px" viewBox="0 0 96.326 109" enable-background="new 0 0 96.326 109" xml:space="preserve">
<g>
	<path fill="#A46922" d="M477.123,13.229c-0.805,8.07-6.871,17.152-14.133,18.162c-5.348,0.743-7.289,6.232-11.098,8.507
		l-0.334-1.347h0.002l-0.189-0.76l-0.262-1.047c-0.057-0.227-1.393-5.564-2.402-7.966c-0.111-0.269-0.164-0.423-0.191-0.51
		c0.129-0.234,0.471-0.704,0.777-1.123c0.574-0.788,1.357-1.862,2.369-3.469c2.133-3.372,1.783-6.076,1.111-7.751
		c-0.309-0.775-0.717-1.402-1.098-1.875c0.299-2.596-1.695-5.1-2.973-6.412l0.664-2.738l0.225-0.936L449.02,3.19l-2.709-3.666
		l-0.551-0.74l1.09-1.935h11.504C458.354-3.15,477.932,5.157,477.123,13.229z"/>
	<path fill="#A46922" d="M411.529,3.19l-0.57,0.775l0.225,0.936l0.666,2.738c-1.277,1.313-3.271,3.816-2.975,6.412
		c-0.381,0.473-0.789,1.1-1.098,1.875c-0.672,1.675-1.023,4.379,1.111,7.751c1.014,1.606,1.799,2.681,2.367,3.469
		c0.309,0.419,0.648,0.889,0.781,1.123c-0.029,0.087-0.082,0.241-0.193,0.506c-1.008,2.405-2.348,7.743-2.402,7.97l-0.18,0.709
		l-0.004,0.023l-0.273,1.088l0.006,0.002l-0.324,1.334c-3.814-2.271-5.758-7.767-11.107-8.51
		c-7.258-1.01-13.324-10.092-14.131-18.162c-0.807-8.072,18.766-16.38,18.766-16.38h11.508l1.09,1.935l-0.549,0.74L411.529,3.19z"/>
	<path fill="#E5E5E5" d="M419.354,42.22c-4.547,11.439-10.402,15.613-10.898,16.064c-2.293,2.089-9.385,4.742-10.295,4.035
		c-0.906-0.705-0.592-1.658,0.742-2.422c1.498-0.857,4.271-2.557,7.6-7.604c1.672-2.53,3.508-7.816,5.043-12.828l4.654,1.644
		L419.354,42.22z"/>
	<path fill="#E5E5E5" d="M462.389,62.319c-0.906,0.707-8-1.946-10.289-4.035c-0.498-0.448-6.33-4.605-10.871-15.992l3.174-1.152
		l4.605-1.664c1.535,5.01,3.371,10.291,5.041,12.818c3.33,5.047,6.104,6.746,7.6,7.604
		C462.984,60.661,463.299,61.614,462.389,62.319z"/>
	<path fill="#70573A" d="M440.021,39.79c0,0.144-0.01,0.289-0.027,0.43v-0.541L440.021,39.79z"/>
	<path fill="#70573A" d="M429.656,20.915c0,0,0.537,0.717,1.254,1.941c0.727,1.223,5.26,1.564,6.133,3.602
		c0.885,2.039-0.107,5.781,0.615,8.244c0.732,2.461,0.209,5.24,0.738,7.707c0.518,2.453,0.309,4.632,0.705,6.379
		c0.193,0.865,0.367,1.521,0.357,1.926c0.006,0.381-0.279,0.705,0.018,1.121c0.291,0.383,1.045,0.59,1.807,0.623
		c0.773,0.055,1.553-0.037,2.229-0.107c0.332-0.047,0.639-0.09,0.918-0.122c0.277-0.042,0.516-0.077,0.707-0.106
		c0.406-0.054,0.623-0.081,0.623-0.081s-0.033,0.218-0.127,0.614c-0.086,0.402-0.252,0.969-0.545,1.664
		c-0.305,0.695-0.727,1.523-1.479,2.398c-0.752,0.859-1.842,1.835-3.682,2.381c-0.924,0.248-2.021,0.354-3.16,0.174
		c-1.127-0.178-2.238-0.6-3.199-1.154c-1.92-1.129-3.258-2.619-4.316-4.094c-2.082-2.98-3.842-6.018-4.52-9.104
		c-1.297-6.183-4.592-11.572-3.199-16.003c0.678-2.216,6.17-4.777,6.869-6.037C429.096,21.618,429.656,20.915,429.656,20.915z"/>
	<path fill="#70573A" d="M449.916,22.581c-3.227,5.111-4.068,4.705-3.109,6.995c0.961,2.282,2.305,7.667,2.305,7.667l-0.691,0.258
		l-4.624,1.699L442,39.879v-0.294l-0.132-0.208l-0.896-3.955L440.678,34h-20.807l-0.252,1.422l-0.702,3.78L419,39.585v0.228
		l-1.974-0.649l-4.819-1.669l-0.735-0.251c0,0,1.335-5.385,2.286-7.667c0.967-2.29,0.111-1.884-3.117-6.995
		c-3.227-5.109,0.535-7.939,0.535-7.939c-1.344-2.695,2.961-6.322,2.961-6.322l-0.947-3.906l2.708-3.663l2.269-3.058
		c0,0,0.016-0.016,0.051-0.045c0.016-0.015,0.037-0.021,0.061-0.036c0.051-0.036,0.117-0.075,0.199-0.104
		c0.045-0.014,0.088-0.029,0.133-0.036c0.102-0.03,0.223-0.044,0.346-0.044c0.305,0,0.68,0.08,1.146,0.339
		c0.074,0.044,0.154,0.097,0.234,0.148c0.084,0.051,0.164,0.11,0.252,0.177c0.287,0.214,0.525,0.303,0.752,0.303
		c0.066,0,0.127,0,0.195-0.016c0.029-0.006,0.057-0.014,0.094-0.021c0.125-0.029,0.268-0.081,0.414-0.154
		c0.039-0.016,0.074-0.029,0.119-0.046c0.961-0.442,2.541-1.307,6.566-1.307c0.479,0,0.996,0.015,1.549,0.037
		c0.547-0.022,1.064-0.037,1.545-0.037c4.025,0,5.613,0.864,6.566,1.307c0.045,0.017,0.08,0.03,0.117,0.046
		c0.148,0.073,0.289,0.125,0.414,0.154c0.035,0.008,0.066,0.016,0.096,0.021c0.066,0.016,0.125,0.016,0.191,0.016
		c0.236,0,0.465-0.089,0.754-0.303c0.088-0.066,0.17-0.126,0.25-0.177c0.09-0.052,0.164-0.104,0.244-0.148
		c0.459-0.259,0.844-0.339,1.137-0.339c0.135,0,0.244,0.014,0.35,0.044c0.051,0.007,0.094,0.022,0.133,0.036
		c0.08,0.029,0.146,0.068,0.199,0.104c0.021,0.015,0.043,0.021,0.059,0.036c0.035,0.029,0.053,0.045,0.053,0.045l2.266,3.058
		l2.711,3.663l-0.938,3.906c0,0,4.305,3.627,2.961,6.322C449.385,14.642,453.154,17.472,449.916,22.581z"/>
	<path fill="#8CC63F" d="M447.25-9.269c-0.061-0.366-0.131-0.684-0.215-0.938c-0.887-2.662-3.424-6.211-6.721-7.732
		c-2.219-1.025-4.436-1.646-5.646-1.943c0.027-0.048,0.051-0.104,0.057-0.172c0.045-0.467-0.57-0.574-1.34-0.646
		c-0.773-0.07-1.41-0.08-1.453,0.39c-0.012,0.112,0.018,0.199,0.076,0.273c-2.904,0.134-8.691,0.571-10.836,1.972
		c-2.918,1.902-3.678,3.676-4.693,6.086c-0.859,2.044-2.723,8.648-3.268,10.604l-0.154-0.02c0,0,0.053,0.028,0.139,0.069
		c-0.088,0.316-0.139,0.502-0.139,0.502s0.031,0.016,0.082,0.041l-2.631,2.285c-0.047-0.004-0.074-0.004-0.074-0.004l0.07,0.008
		l-0.797,0.694l-0.037-0.002c0.008,0.002,0.02-0.313,0.029-0.309L408.055,3h-0.084c0.02,0,0.039,0.332,0.059,0.34l-1.951,1.179
		L406.043,4c0.01,0,0.023,0,0.035,0l-1.223,1.74c-0.01,0.002-0.021,0.341-0.029,0.341l0.029,0.169l-1.27,1.188l-0.199,0.264
		c0,0,0.049,0.002,0.109-0.018c-0.129,0.08-0.17,0.186-0.057,0.31c0.064,0.066,0.143,0.131,0.232,0.182l-0.164,0.184
		c0,0,0.041-0.012,0.094-0.031c-0.121,0.078-0.148,0.174-0.039,0.293c0.541,0.584,2.18,0.535,2.947,0.725
		c0.967,0.236,1.9,0.572,2.807,0.951c3.494,2.211,9.148,5.608,12.277,5.424c4.438-0.263,6.295-1.135,8.529-2.666
		c1.787-1.225,6.238-4.916,8.213-7.02c0.35,0.013,0.689,0.018,1.018,0.009l0.008,0.028c0,0,0-0.01,0.004-0.028
		c0.145-0.001,0.289-0.007,0.43-0.014l0.01,0.042c0,0,0.002-0.016,0.006-0.044c0.488-0.024,0.951-0.071,1.389-0.146
		c3.676-0.634,5.705-0.887,5.959-2.029C447.402,2.752,448-6.234,447.25-9.269z"/>
	<g>
		
			<ellipse transform="matrix(0.9873 0.1591 -0.1591 0.9873 7.3493 -66.1171)" fill="#8CC63F" cx="416.488" cy="12.828" rx="1.688" ry="2.626"/>
		
			<ellipse transform="matrix(-0.9873 0.1591 -0.1591 -0.9873 883.3661 -45.0846)" fill="#8CC63F" cx="443.488" cy="12.828" rx="1.688" ry="2.626"/>
	</g>
</g>
<g>
	<g>
		<ellipse fill="#8CC63F" cx="48.66" cy="21.356" rx="15.697" ry="13.415"/>
		<circle fill="#8CC63F" cx="48.661" cy="10.895" r="6.751"/>
	</g>
	<path fill="#A46922" d="M94.849,37.775c-0.809,8.07-6.873,17.152-14.131,18.162c-5.35,0.743-7.291,6.232-11.102,8.507l-0.334-1.347
		h0.004l-0.189-0.76l-0.262-1.047c-0.057-0.227-1.395-5.564-2.402-7.966c-0.111-0.269-0.164-0.423-0.193-0.51
		c0.133-0.234,0.473-0.704,0.779-1.123c0.572-0.788,1.355-1.862,2.369-3.469c2.133-3.372,1.781-6.076,1.111-7.751
		c-0.309-0.775-0.719-1.402-1.098-1.875c0.297-2.596-1.699-5.1-2.973-6.412l0.666-2.738l0.223-0.936l-0.574-0.775l-2.709-3.666
		l-0.549-0.74l1.09-1.935h11.506C76.081,21.396,95.655,29.703,94.849,37.775z"/>
	<path fill="#A46922" d="M29.257,27.736l-0.572,0.775l0.223,0.936l0.666,2.738c-1.277,1.313-3.27,3.816-2.975,6.412
		c-0.379,0.473-0.789,1.1-1.098,1.875c-0.67,1.675-1.021,4.379,1.113,7.751c1.014,1.606,1.797,2.681,2.369,3.469
		c0.305,0.419,0.646,0.889,0.779,1.123c-0.029,0.087-0.082,0.241-0.195,0.506c-1.008,2.405-2.344,7.743-2.402,7.97L26.989,62
		l-0.008,0.023l-0.271,1.088l0.004,0.002l-0.324,1.334c-3.814-2.271-5.754-7.767-11.105-8.51C8.024,54.928,1.96,45.846,1.153,37.775
		c-0.807-8.072,18.768-16.38,18.768-16.38h11.506l1.09,1.935l-0.549,0.74L29.257,27.736z"/>
	<path fill="#E5E5E5" d="M37.077,66.766c-4.545,11.439-10.4,15.613-10.898,16.064c-2.291,2.089-9.385,4.742-10.291,4.035
		c-0.91-0.705-0.596-1.658,0.74-2.422c1.498-0.857,4.27-2.557,7.6-7.604c1.67-2.53,3.508-7.816,5.043-12.828l4.656,1.644
		L37.077,66.766z"/>
	<path fill="#E5E5E5" d="M80.114,86.865c-0.908,0.707-8.002-1.946-10.291-4.035c-0.496-0.448-6.328-4.605-10.869-15.992l3.174-1.152
		l4.605-1.664c1.533,5.01,3.369,10.291,5.039,12.818c3.33,5.047,6.104,6.746,7.602,7.604C80.708,85.207,81.024,86.16,80.114,86.865z
		"/>
	<path fill="#70573A" d="M57.743,64.336c0,0.144-0.006,0.289-0.023,0.43v-0.541L57.743,64.336z"/>
	<path fill="#70573A" d="M47.701,45.461c0,0,0.537,0.717,1.256,1.941c0.723,1.223,5.258,1.564,6.131,3.602
		c0.883,2.039-0.107,5.781,0.613,8.244c0.732,2.461,0.209,5.24,0.738,7.707c0.518,2.453,0.311,4.632,0.705,6.379
		c0.193,0.865,0.369,1.521,0.359,1.926c0.004,0.381-0.281,0.705,0.016,1.121c0.291,0.383,1.049,0.59,1.811,0.623
		c0.771,0.055,1.551-0.037,2.225-0.107c0.332-0.047,0.639-0.09,0.92-0.122c0.277-0.042,0.516-0.077,0.707-0.106
		c0.406-0.054,0.623-0.081,0.623-0.081s-0.035,0.218-0.127,0.614c-0.086,0.402-0.252,0.969-0.545,1.664
		c-0.303,0.695-0.729,1.523-1.48,2.398c-0.75,0.859-1.84,1.835-3.68,2.381c-0.924,0.248-2.023,0.354-3.16,0.174
		c-1.129-0.178-2.236-0.6-3.199-1.154c-1.92-1.129-3.258-2.619-4.318-4.094c-2.08-2.98-3.84-6.018-4.518-9.104
		c-1.299-6.183-4.592-11.572-3.201-16.003c0.678-2.216,6.172-4.777,6.871-6.037C47.141,46.164,47.701,45.461,47.701,45.461z"/>
	<path fill="#70573A" d="M67.961,47.127c-3.227,5.111-4.07,4.705-3.109,6.995c0.961,2.282,2.305,7.667,2.305,7.667l-0.695,0.258
		l-4.644,1.699L60,64.425v-0.294l-0.11-0.208l-0.884-3.728L58.721,59H37.916l-0.25,1.195l-1.229,3.666L36,64.131v0.228l-1.453-0.649
		L29.99,62.04l-0.605-0.251c0,0,1.399-5.385,2.353-7.667c0.969-2.29,0.144-1.884-3.085-6.995c-3.227-5.109,0.551-7.939,0.551-7.939
		c-1.344-2.695,2.969-6.322,2.969-6.322l-0.941-3.906l2.711-3.663l2.269-3.058c0,0,0.015-0.016,0.052-0.045
		c0.015-0.015,0.037-0.021,0.059-0.036c0.053-0.036,0.119-0.075,0.199-0.104c0.045-0.014,0.09-0.029,0.133-0.036
		c0.104-0.03,0.223-0.044,0.348-0.044c0.303,0,0.68,0.08,1.146,0.339c0.072,0.044,0.154,0.097,0.236,0.148
		c0.08,0.051,0.162,0.11,0.25,0.177c0.287,0.214,0.523,0.303,0.754,0.303c0.066,0,0.125,0,0.191-0.016
		c0.029-0.006,0.059-0.014,0.096-0.021c0.125-0.029,0.266-0.081,0.414-0.154c0.035-0.016,0.072-0.029,0.119-0.046
		c0.959-0.442,2.541-1.307,6.564-1.307c0.48,0,0.998,0.015,1.551,0.037c0.547-0.022,1.064-0.037,1.543-0.037
		c4.025,0,5.613,0.864,6.566,1.307c0.045,0.017,0.082,0.03,0.119,0.046c0.146,0.073,0.287,0.125,0.414,0.154
		c0.035,0.008,0.064,0.016,0.096,0.021c0.066,0.016,0.125,0.016,0.191,0.016c0.236,0,0.467-0.089,0.754-0.303
		c0.088-0.066,0.168-0.126,0.25-0.177c0.09-0.052,0.162-0.104,0.244-0.148c0.459-0.259,0.842-0.339,1.139-0.339
		c0.131,0,0.242,0.014,0.346,0.044c0.053,0.007,0.098,0.022,0.133,0.036c0.082,0.029,0.148,0.068,0.199,0.104
		c0.023,0.015,0.045,0.021,0.061,0.036c0.037,0.029,0.051,0.045,0.051,0.045l2.268,3.058l2.711,3.663l-0.939,3.906
		c0,0,4.307,3.627,2.963,6.322C67.43,39.188,71.195,42.018,67.961,47.127z"/>
	<g>
		
			<ellipse transform="matrix(0.9873 0.1591 -0.1591 0.9873 6.3875 -5.0153)" fill="#8CC63F" cx="34.508" cy="37.374" rx="1.688" ry="2.626"/>
		
			<ellipse transform="matrix(-0.9873 0.1591 -0.1591 -0.9873 128.1795 64.4833)" fill="#8CC63F" cx="61.508" cy="37.374" rx="1.688" ry="2.626"/>
	</g>
	<g>
		<path fill="#8CC63F" d="M58.98,86.474c-0.623,1.534-2.375,2.272-3.908,1.649l-12.043-4.896c-1.535-0.624-2.273-2.375-1.65-3.909
			L52.68,51.526c0.623-1.534,2.375-2.272,3.908-1.648l12.043,4.896c1.535,0.624,2.273,2.374,1.648,3.908L58.98,86.474z"/>
		<path fill="#70573A" d="M56.274,64.224c0.539-1.713,0.971-3.463,2.479-4.732c-0.006,0.164-0.01,0.253-0.012,0.32
			c0.393-0.211,0.777-0.417,1.162-0.626c0.023,0.03,0.053,0.063,0.076,0.092c-0.074,0.125-0.145,0.25-0.25,0.429
			c0.227-0.078,0.406-0.171,0.596-0.196c0.189-0.028,0.391,0.01,0.586,0.02c-0.135,0.145-0.248,0.331-0.414,0.428
			c-0.273,0.155-0.58,0.253-0.865,0.436c0.076,0.008,0.15,0.019,0.223,0.017c1.719-0.04,3.336,0.98,4.008,2.571
			c0.141,0.342,0.34,0.461,0.658,0.394c0.568-0.121,1.127-0.278,1.711-0.427c-0.305,0.743-0.982,1.045-1.715,1.275
			c0.006,0.043,0.014,0.088,0.023,0.132c0.631-0.023,1.262-0.047,1.873-0.069c-0.25,0.409-0.906,0.83-1.59,0.926
			c-0.371,0.053-0.492,0.208-0.561,0.565c-0.348,1.721-1.311,3.095-2.658,4.144c-3.406,2.646-7.18,3.341-11.277,1.827
			c-0.971-0.356-1.797-0.954-2.621-1.689c2.619,1.159,4.9,0.842,6.977-1.251c-0.605-0.027-1.156,0.043-1.424-0.521
			c-0.129-0.271-0.016-0.469,0.475-0.979c-0.967,0.156-1.775-0.039-2.43-0.877c0.355-0.209,0.688-0.4,1.057-0.614
			c-0.959-0.134-1.781-0.462-2.141-1.497c0.32-0.107,0.619-0.207,1.008-0.339c-0.973-0.401-1.637-0.974-1.824-2.058
			C51.778,62.543,54.181,62.859,56.274,64.224z"/>
	</g>
</g>
</svg>
