<?xml version="1.0" encoding="utf-8"?>
<!-- Generator: Adobe Illustrator 16.0.0, SVG Export Plug-In . SVG Version: 6.00 Build 0)  -->
<!DOCTYPE svg PUBLIC "-//W3C//DTD SVG 1.1//EN" "http://www.w3.org/Graphics/SVG/1.1/DTD/svg11.dtd">
<svg version="1.1" id="Calque_1" xmlns="http://www.w3.org/2000/svg" xmlns:xlink="http://www.w3.org/1999/xlink" x="0px" y="0px"
	 width="96.326px" height="109px" viewBox="0 0 96.326 109" enable-background="new 0 0 96.326 109" xml:space="preserve">
<g>
	<path fill="#A46922" d="M94.848,37.775c-0.807,8.07-6.873,17.152-14.131,18.162c-5.35,0.743-7.293,6.232-11.102,8.507l-0.334-1.347
		h0.002l-0.188-0.76l-0.264-1.047c-0.055-0.227-1.393-5.564-2.4-7.966c-0.113-0.269-0.164-0.423-0.195-0.51
		c0.133-0.234,0.475-0.704,0.781-1.123c0.57-0.788,1.355-1.862,2.367-3.469c2.135-3.372,1.783-6.076,1.113-7.751
		c-0.309-0.775-0.719-1.402-1.1-1.875c0.299-2.596-1.695-5.1-2.971-6.412l0.664-2.738l0.225-0.936l-0.574-0.775l-2.711-3.666
		l-0.549-0.74l1.092-1.935H76.08C76.08,21.396,95.652,29.703,94.848,37.775z"/>
	<path fill="#A46922" d="M29.254,27.736l-0.57,0.775l0.223,0.936l0.664,2.738c-1.275,1.313-3.27,3.816-2.971,6.412
		c-0.383,0.473-0.791,1.1-1.1,1.875c-0.67,1.675-1.021,4.379,1.113,7.751c1.014,1.606,1.797,2.681,2.369,3.469
		c0.305,0.419,0.646,0.889,0.777,1.123c-0.027,0.087-0.08,0.241-0.193,0.506c-1.008,2.405-2.346,7.743-2.402,7.97L26.986,62
		l-0.006,0.023l-0.271,1.088l0.004,0.002l-0.326,1.334c-3.813-2.271-5.754-7.767-11.104-8.51
		c-7.26-1.01-13.324-10.092-14.131-18.162c-0.807-8.072,18.768-16.38,18.768-16.38h11.504l1.092,1.935l-0.551,0.74L29.254,27.736z"
		/>
	<path fill="#70573A" d="M57.744,64.336c0,0.144-0.01,0.289-0.027,0.43v-0.541L57.744,64.336z"/>
	<g>
		<g>
			<circle fill="#8CC63F" cx="32.455" cy="82.643" r="4.076"/>
			<circle fill="#8CC63F" cx="63.56" cy="82.643" r="4.077"/>
		</g>
		<g>
			<circle fill="#8CC63F" cx="37.933" cy="92.56" r="4.077"/>
			<circle fill="#8CC63F" cx="58.083" cy="92.56" r="4.077"/>
		</g>
		<circle fill="#8CC63F" cx="48.007" cy="99.037" r="4.077"/>
	</g>
	<path fill="#70573A" d="M67.641,47.127c-3.227,5.111-4.07,4.705-3.109,6.995c0.961,2.282,2.305,7.667,2.305,7.667l-0.693,0.258
		l-3.985,1.699L61,64.425v-0.294l-0.771-0.208l-1.214-3.728L58.4,59H37.596l0.472,1.195L38,63.861v0.27v0.228l-2.614-0.649
		L30.25,62.04l-0.897-0.251c0,0,1.255-5.385,2.208-7.667c0.967-2.29,0.072-1.884-3.157-6.995c-3.229-5.109,0.514-7.939,0.514-7.939
		c-1.342-2.695,2.952-6.322,2.952-6.322l-0.952-3.906l2.707-3.663l2.264-3.058c0,0,0.012-0.016,0.051-0.045
		c0.016-0.015,0.037-0.021,0.059-0.036c0.053-0.036,0.119-0.075,0.199-0.104c0.045-0.014,0.088-0.029,0.133-0.036
		c0.104-0.03,0.221-0.044,0.348-0.044c0.303,0,0.68,0.08,1.146,0.339c0.072,0.044,0.154,0.097,0.236,0.148
		c0.08,0.051,0.162,0.11,0.25,0.177c0.289,0.214,0.523,0.303,0.754,0.303c0.066,0,0.125,0,0.191-0.016
		c0.029-0.006,0.059-0.014,0.096-0.021c0.125-0.029,0.266-0.081,0.414-0.154c0.035-0.016,0.072-0.029,0.117-0.046
		c0.961-0.442,2.541-1.307,6.566-1.307c0.48,0,0.998,0.015,1.549,0.037c0.549-0.022,1.066-0.037,1.545-0.037
		c4.025,0,5.613,0.864,6.566,1.307c0.043,0.017,0.082,0.03,0.119,0.046c0.146,0.073,0.287,0.125,0.414,0.154
		c0.035,0.008,0.064,0.016,0.096,0.021c0.064,0.016,0.125,0.016,0.191,0.016c0.236,0,0.467-0.089,0.754-0.303
		c0.088-0.066,0.168-0.126,0.25-0.177c0.09-0.052,0.162-0.104,0.244-0.148c0.457-0.259,0.84-0.339,1.139-0.339
		c0.131,0,0.242,0.014,0.346,0.044c0.053,0.007,0.096,0.022,0.133,0.036c0.082,0.029,0.148,0.068,0.199,0.104
		c0.023,0.015,0.045,0.021,0.059,0.036c0.039,0.029,0.053,0.045,0.053,0.045l2.268,3.058l2.709,3.663l-0.938,3.906
		c0,0,4.305,3.627,2.963,6.322C67.109,39.188,70.877,42.018,67.641,47.127z"/>
	<g>
		
			<ellipse transform="matrix(0.9873 0.1591 -0.1591 0.9873 6.7323 -4.938)" fill="#8CC63F" cx="34.197" cy="39.565" rx="1.688" ry="2.626"/>
		
			<ellipse transform="matrix(-0.9873 0.1591 -0.1591 -0.9873 127.9111 68.8876)" fill="#8CC63F" cx="61.197" cy="39.565" rx="1.688" ry="2.626"/>
	</g>
	<path fill="#70573A" d="M47.381,45.461c0,0,0.535,0.717,1.256,1.941c0.723,1.223,5.258,1.564,6.131,3.602
		c0.883,2.039-0.107,5.781,0.613,8.244c0.732,2.461,0.207,5.24,0.738,7.707c0.518,2.453,0.311,4.632,0.705,6.379
		c0.193,0.865,0.369,1.521,0.359,1.926c0.002,0.381-0.281,0.705,0.016,1.121c0.291,0.383,1.049,0.59,1.809,0.623
		c0.773,0.055,1.553-0.037,2.227-0.107c0.332-0.047,0.639-0.09,0.918-0.122c0.281-0.042,0.516-0.077,0.709-0.106
		c0.406-0.054,0.621-0.081,0.621-0.081s-0.033,0.218-0.125,0.614c-0.088,0.402-0.254,0.969-0.545,1.664
		c-0.305,0.695-0.729,1.523-1.48,2.398c-0.75,0.859-1.84,1.835-3.682,2.381c-0.922,0.248-2.021,0.354-3.158,0.174
		c-1.129-0.178-2.238-0.6-3.199-1.154c-1.922-1.129-3.258-2.619-4.318-4.094c-2.08-2.98-3.842-6.018-4.518-9.104
		c-1.299-6.183-4.592-11.572-3.203-16.003c0.68-2.216,6.172-4.777,6.873-6.037C46.818,46.164,47.381,45.461,47.381,45.461z"/>
	<path fill="#E5E5E5" d="M37.076,66.766C32.531,78.205,26.674,82.379,26.178,82.83c-2.293,2.089-9.385,4.742-10.293,4.035
		c-0.908-0.705-0.594-1.658,0.742-2.422c1.498-0.857,4.27-2.557,7.6-7.604c1.67-2.53,3.508-7.816,5.043-12.828l4.656,1.644
		L37.076,66.766z"/>
	<path fill="#E5E5E5" d="M80.113,86.865c-0.908,0.707-8.002-1.946-10.293-4.035c-0.494-0.448-6.326-4.605-10.869-15.992l3.176-1.152
		l4.605-1.664c1.533,5.01,3.369,10.291,5.037,12.818c3.332,5.047,6.105,6.746,7.602,7.604C80.709,85.207,81.021,86.16,80.113,86.865
		z"/>
</g>
</svg>
