<?xml version="1.0" encoding="utf-8"?>
<!-- Generator: Adobe Illustrator 16.0.0, SVG Export Plug-In . SVG Version: 6.00 Build 0)  -->
<!DOCTYPE svg PUBLIC "-//W3C//DTD SVG 1.1//EN" "http://www.w3.org/Graphics/SVG/1.1/DTD/svg11.dtd">
<svg version="1.1" id="Calque_1" xmlns="http://www.w3.org/2000/svg" xmlns:xlink="http://www.w3.org/1999/xlink" x="0px" y="0px"
	 width="96.326px" height="109px" viewBox="0 0 96.326 109" enable-background="new 0 0 96.326 109" xml:space="preserve">
<g>
	<path fill="#A46922" d="M95.111,37.419c-0.805,8.072-6.871,17.153-14.131,18.165c-5.35,0.741-7.293,6.231-11.1,8.505l-0.334-1.347
		h0.004l-0.191-0.76l-0.262-1.046c-0.057-0.227-1.393-5.564-2.4-7.967c-0.113-0.268-0.164-0.422-0.193-0.51
		c0.131-0.234,0.471-0.703,0.777-1.123c0.572-0.787,1.357-1.863,2.369-3.468c2.135-3.373,1.783-6.078,1.111-7.753
		c-0.309-0.775-0.717-1.402-1.096-1.873c0.297-2.599-1.697-5.101-2.975-6.412l0.666-2.74l0.223-0.936l-0.57-0.775l-2.713-3.664
		l-0.549-0.74l1.09-1.935h11.506C76.344,21.041,95.92,29.347,95.111,37.419z"/>
	<path fill="#A46922" d="M29.519,27.38l-0.572,0.775l0.225,0.936l0.666,2.74c-1.277,1.312-3.271,3.813-2.975,6.412
		c-0.379,0.471-0.789,1.098-1.098,1.873c-0.672,1.675-1.023,4.38,1.111,7.753c1.014,1.604,1.799,2.681,2.369,3.468
		c0.307,0.42,0.648,0.889,0.777,1.123c-0.027,0.088-0.08,0.242-0.191,0.507c-1.008,2.405-2.346,7.743-2.402,7.97l-0.178,0.709
		l-0.006,0.023l-0.271,1.087l0.004,0.003l-0.324,1.332c-3.816-2.27-5.758-7.766-11.107-8.507
		C8.288,54.572,2.222,45.491,1.415,37.419s18.768-16.378,18.768-16.378h11.506l1.09,1.935l-0.549,0.74L29.519,27.38z"/>
	<path fill="#E5E5E5" d="M37.343,66.41c-4.547,11.44-10.404,15.614-10.902,16.065c-2.289,2.089-9.383,4.74-10.291,4.033
		c-0.908-0.705-0.594-1.658,0.74-2.42c1.498-0.859,4.271-2.557,7.6-7.604c1.672-2.53,3.51-7.816,5.045-12.827l4.654,1.644
		L37.343,66.41z"/>
	<path fill="#E5E5E5" d="M80.377,86.509c-0.908,0.707-8-1.944-10.291-4.033c-0.494-0.449-6.326-4.605-10.867-15.993l3.174-1.151
		l4.605-1.663c1.533,5.008,3.367,10.288,5.039,12.816c3.33,5.048,6.104,6.745,7.6,7.604C80.975,84.851,81.287,85.804,80.377,86.509z
		"/>
	<path fill="#70573A" d="M58.01,63.979c0,0.148-0.008,0.291-0.025,0.433v-0.542L58.01,63.979z"/>
	<path fill="#70573A" d="M67.904,46.772c-3.227,5.111-4.068,4.705-3.109,6.993c0.961,2.283,2.305,7.667,2.305,7.667l-0.693,0.259
		l-5.118,1.699L59,64.07v-0.296l0.36-0.207l-0.644-3.552L58.666,59H37.859l-0.25,1.016l-1.199,3.579L36,63.774v0.229l-1.48-0.65
		l-4.571-1.668l-0.612-0.252c0,0,1.396-5.384,2.35-7.667c0.967-2.288,0.14-1.882-3.088-6.993c-3.227-5.111,0.552-7.938,0.552-7.938
		c-1.346-2.698,2.968-6.323,2.968-6.323l-0.945-3.906l2.712-3.664l2.271-3.059c0,0,0.014-0.015,0.051-0.044
		c0.014-0.016,0.035-0.022,0.059-0.036c0.051-0.037,0.119-0.074,0.199-0.104c0.047-0.015,0.088-0.028,0.133-0.036
		c0.104-0.03,0.221-0.045,0.348-0.045c0.303,0,0.678,0.081,1.145,0.34c0.074,0.046,0.154,0.096,0.236,0.148
		c0.08,0.051,0.162,0.111,0.25,0.178c0.289,0.213,0.525,0.304,0.754,0.304c0.066,0,0.125,0,0.193-0.017
		c0.029-0.008,0.057-0.016,0.094-0.022c0.127-0.028,0.268-0.081,0.416-0.155c0.037-0.015,0.072-0.029,0.117-0.044
		c0.961-0.442,2.541-1.307,6.566-1.307c0.479,0,0.996,0.015,1.551,0.035c0.547-0.021,1.063-0.035,1.543-0.035
		c4.025,0,5.615,0.864,6.566,1.307c0.043,0.015,0.08,0.029,0.119,0.044c0.146,0.074,0.287,0.127,0.412,0.155
		c0.037,0.007,0.066,0.015,0.096,0.022c0.066,0.017,0.127,0.017,0.191,0.017c0.236,0,0.467-0.091,0.754-0.304
		c0.09-0.066,0.17-0.127,0.252-0.178c0.088-0.053,0.162-0.103,0.244-0.148c0.457-0.259,0.842-0.34,1.137-0.34
		c0.133,0,0.244,0.015,0.348,0.045c0.051,0.008,0.094,0.021,0.133,0.036c0.08,0.03,0.146,0.067,0.199,0.104
		c0.021,0.014,0.043,0.021,0.059,0.036c0.037,0.029,0.053,0.044,0.053,0.044l2.266,3.059l2.711,3.664l-0.938,3.906
		c0,0,4.307,3.625,2.961,6.323C67.373,38.834,71.141,41.661,67.904,46.772z"/>
	<path fill="#70573A" d="M63.746,76.23c0,0-0.031,0.22-0.121,0.619c-0.09,0.4-0.25,0.96-0.549,1.66c-0.301,0.7-0.73,1.521-1.48,2.4
		c-0.75,0.859-1.84,1.83-3.68,2.38c-0.92,0.25-2.021,0.35-3.16,0.17c-1.131-0.17-2.24-0.6-3.201-1.15
		c-0.029-0.02-0.059-0.029-0.08-0.05c-1.879-1.12-3.2-2.59-4.229-4.05c-2.09-2.979-3.852-6.01-4.521-9.1
		c-1.299-6.181-4.6-11.57-3.199-16c0.67-2.221,6.17-4.78,6.869-6.04c0.691-1.261,1.25-1.96,1.25-1.96s0.541,0.71,1.25,1.939
		c0.731,1.22,5.262,1.561,6.141,3.601c0.881,2.04-0.109,5.779,0.609,8.239c0.73,2.46,0.211,5.24,0.74,7.71
		c0.521,2.45,0.311,4.631,0.711,6.381c0.189,0.859,0.359,1.52,0.35,1.92c0.01,0.38-0.279,0.71,0.02,1.119
		c0.291,0.391,1.051,0.601,1.811,0.631c0.77,0.05,1.551-0.04,2.221-0.11c0.34-0.05,0.639-0.09,0.92-0.12
		c0.279-0.04,0.52-0.08,0.709-0.11C63.535,76.26,63.746,76.23,63.746,76.23z"/>
	<g>
		
			<ellipse transform="matrix(0.9873 0.1591 -0.1591 0.9873 6.7292 -5.0301)" fill="#8CC63F" cx="34.771" cy="39.5" rx="1.688" ry="2.626"/>
		
			<ellipse transform="matrix(-0.9873 0.1591 -0.1591 -0.9873 129.0418 68.6662)" fill="#8CC63F" cx="61.771" cy="39.5" rx="1.688" ry="2.626"/>
	</g>
	<path fill="#8CC63F" d="M-5.135,37c0.109,0,0.211-0.01,0.311-0.02V37H-5.135z"/>
	<g>
		<g>
			<path fill="#8CC63F" d="M14.99,36.531v0.009c-0.043-0.005-0.088-0.009-0.137-0.009H14.99z"/>
			<rect x="8" y="35" fill="#8CC63F" width="1" height="7"/>
			<path fill="#8CC63F" d="M14,36.229v4.541c0,0.507,0.115,1.041-0.381,1.111C13.576,41.886,14.027,42,13.98,42H10v-7h3.98
				c0.047,0-0.404,0.115-0.361,0.119C14.115,35.188,14,35.723,14,36.229z"/>
			<path fill="#8CC63F" d="M19,35.852v5.301c0,0.866-1.824,1.417-3.328,1.417c-0.75,0-1.672-0.135-1.672-0.376v-7.388
				c0-0.243,0.922-0.376,1.672-0.376C17.176,34.43,19,34.981,19,35.852z"/>
		</g>
		<g>
			<path fill="#8CC63F" d="M81.553,36.531v0.009c0.045-0.005,0.088-0.009,0.137-0.009H81.553z"/>
			<rect x="85" y="35" fill="#8CC63F" width="1" height="7"/>
			<path fill="#8CC63F" d="M80,36.229v4.541c0,0.507,1.157,1.041,1.651,1.111C81.694,41.886,82.516,42,82.563,42H84v-7h-1.438
				c-0.047,0-0.868,0.115-0.911,0.119C81.157,35.188,80,35.723,80,36.229z"/>
			<path fill="#8CC63F" d="M75,35.852v5.301c0,0.866,1.824,1.417,3.328,1.417c0.75,0,1.672-0.135,1.672-0.376v-7.388
				c0-0.243-0.922-0.376-1.672-0.376C76.824,34.43,75,34.981,75,35.852z"/>
		</g>
	</g>
	<path fill="#8CC63F" d="M44.398,87.743c-2.648,0-5.604-0.996-8.654-2.957C27.925,79.761,19.8,68.313,20.306,58.582
		c0.449-8.637-3.945-11.572-7.477-13.932c-1.904-1.271-3.313-0.888-3.654-2.65h2c0.223,1.147,0.795,0.273,2.488,1.403
		c3.645,2.435,8.635,5.768,8.141,15.257c-0.479,9.194,7.285,20.065,14.75,24.864c4.334,2.783,8.369,3.456,11.371,1.894l0.693,1.33
		C47.341,87.413,45.919,87.743,44.398,87.743z"/>
	<path fill="#8CC63F" d="M51.961,87.743c-1.523,0-2.943-0.33-4.221-0.995l-0.107-0.068c-0.049-0.037-1.178-0.917-1.252-2.612
		c-0.076-1.81,1.051-3.785,3.354-5.873l1.008,1.111c-2.438,2.21-2.901,3.774-2.862,4.697c0.035,0.845,0.492,1.328,0.625,1.452
		c2.995,1.514,7.002,0.829,11.299-1.931c7.465-4.799,15.229-15.67,14.75-24.864c-0.494-9.489,4.496-12.822,8.141-15.257
		c1.693-1.13,2.258-0.256,2.48-1.403h2c-0.344,1.763-1.742,1.379-3.646,2.65c-3.531,2.359-7.926,5.295-7.477,13.932
		c0.506,9.731-7.619,21.179-15.438,26.204C57.564,86.746,54.609,87.743,51.961,87.743z"/>
	<g>
		<path fill="#8CC63F" d="M57.182,81.639c-0.563,0.952-1.789,1.269-2.74,0.707l-5.168-3.048c-0.952-0.561-1.268-1.787-0.708-2.738
			l6.604-11.198c0.563-0.951,1.787-1.268,2.738-0.706l5.17,3.047c0.951,0.562,1.268,1.787,0.707,2.739L57.182,81.639z"/>
		<path fill="#E5E5E5" d="M60.891,73.378c-0.281,0.477-0.893,0.635-1.369,0.354l-5.168-3.047c-0.477-0.281-0.635-0.894-0.354-1.37
			l1.523-2.584c0.281-0.476,0.895-0.634,1.369-0.353l5.17,3.047c0.475,0.281,0.633,0.894,0.352,1.369L60.891,73.378z"/>
	</g>
	<path fill="#70573A" d="M63.746,76.23c0,0-0.031,0.22-0.121,0.619c-0.09,0.4-0.25,0.96-0.549,1.66c-0.301,0.7-0.73,1.521-1.48,2.4
		c-0.75,0.859-1.84,1.83-3.68,2.38c-0.92,0.25-2.021,0.35-3.16,0.17c-1.131-0.17-2.24-0.6-3.201-1.15
		c-0.029-0.02-0.059-0.029-0.08-0.05l0.021-1.35c4.139,1.35,4.711-3.04,5.68-4.92c0.012,0.38-0.01-0.38,0.289,0.029
		c0.291,0.391,1.051,0.601,1.811,0.631c0.77,0.05,1.551-0.04,2.221-0.11c0.34-0.05,0.639-0.09,0.92-0.12
		c0.279-0.04,0.52-0.08,0.709-0.11C63.535,76.26,63.746,76.23,63.746,76.23z"/>
</g>
<g>
	<path fill="#A46922" d="M477.123,13.229c-0.805,8.07-6.871,17.152-14.133,18.162c-5.348,0.743-7.289,6.232-11.098,8.507
		l-0.334-1.347h0.002l-0.189-0.76l-0.262-1.047c-0.057-0.227-1.393-5.564-2.402-7.966c-0.111-0.269-0.164-0.423-0.191-0.51
		c0.129-0.234,0.471-0.704,0.777-1.123c0.574-0.788,1.357-1.862,2.369-3.469c2.133-3.372,1.783-6.076,1.111-7.751
		c-0.309-0.775-0.717-1.402-1.098-1.875c0.299-2.596-1.695-5.1-2.973-6.412l0.664-2.738l0.225-0.936L449.02,3.19l-2.709-3.666
		l-0.551-0.74l1.09-1.935h11.504C458.354-3.15,477.932,5.157,477.123,13.229z"/>
	<path fill="#A46922" d="M411.529,3.19l-0.57,0.775l0.225,0.936l0.666,2.738c-1.277,1.313-3.271,3.816-2.975,6.412
		c-0.381,0.473-0.789,1.1-1.098,1.875c-0.672,1.675-1.023,4.379,1.111,7.751c1.014,1.606,1.799,2.681,2.367,3.469
		c0.309,0.419,0.648,0.889,0.781,1.123c-0.029,0.087-0.082,0.241-0.193,0.506c-1.008,2.405-2.348,7.743-2.402,7.97l-0.18,0.709
		l-0.004,0.023l-0.273,1.088l0.006,0.002l-0.324,1.334c-3.814-2.271-5.758-7.767-11.107-8.51
		c-7.258-1.01-13.324-10.092-14.131-18.162c-0.807-8.072,18.766-16.38,18.766-16.38h11.508l1.09,1.935l-0.549,0.74L411.529,3.19z"/>
	<path fill="#E5E5E5" d="M419.354,42.22c-4.547,11.439-10.402,15.613-10.898,16.064c-2.293,2.089-9.385,4.742-10.295,4.035
		c-0.906-0.705-0.592-1.658,0.742-2.422c1.498-0.857,4.271-2.557,7.6-7.604c1.672-2.53,3.508-7.816,5.043-12.828l4.654,1.644
		L419.354,42.22z"/>
	<path fill="#E5E5E5" d="M462.389,62.319c-0.906,0.707-8-1.946-10.289-4.035c-0.498-0.448-6.33-4.605-10.871-15.992l3.174-1.152
		l4.605-1.664c1.535,5.01,3.371,10.291,5.041,12.818c3.33,5.047,6.104,6.746,7.6,7.604
		C462.984,60.661,463.299,61.614,462.389,62.319z"/>
	<path fill="#70573A" d="M440.021,39.79c0,0.144-0.01,0.289-0.027,0.43v-0.541L440.021,39.79z"/>
	<path fill="#70573A" d="M429.656,20.915c0,0,0.537,0.717,1.254,1.941c0.727,1.223,5.26,1.564,6.133,3.602
		c0.885,2.039-0.107,5.781,0.615,8.244c0.732,2.461,0.209,5.24,0.738,7.707c0.518,2.453,0.309,4.632,0.705,6.379
		c0.193,0.865,0.367,1.521,0.357,1.926c0.006,0.381-0.279,0.705,0.018,1.121c0.291,0.383,1.045,0.59,1.807,0.623
		c0.773,0.055,1.553-0.037,2.229-0.107c0.332-0.047,0.639-0.09,0.918-0.122c0.277-0.042,0.516-0.077,0.707-0.106
		c0.406-0.054,0.623-0.081,0.623-0.081s-0.033,0.218-0.127,0.614c-0.086,0.402-0.252,0.969-0.545,1.664
		c-0.305,0.695-0.727,1.523-1.479,2.398c-0.752,0.859-1.842,1.835-3.682,2.381c-0.924,0.248-2.021,0.354-3.16,0.174
		c-1.127-0.178-2.238-0.6-3.199-1.154c-1.92-1.129-3.258-2.619-4.316-4.094c-2.082-2.98-3.842-6.018-4.52-9.104
		c-1.297-6.183-4.592-11.572-3.199-16.003c0.678-2.216,6.17-4.777,6.869-6.037C429.096,21.618,429.656,20.915,429.656,20.915z"/>
	<path fill="#70573A" d="M449.916,22.581c-3.227,5.111-4.068,4.705-3.109,6.995c0.961,2.282,2.305,7.667,2.305,7.667l-0.691,0.258
		l-4.624,1.699L442,39.879v-0.294l-0.132-0.208l-0.896-3.955L440.678,34h-20.807l-0.252,1.422l-0.702,3.78L419,39.585v0.228
		l-1.974-0.649l-4.819-1.669l-0.735-0.251c0,0,1.335-5.385,2.286-7.667c0.967-2.29,0.111-1.884-3.117-6.995
		c-3.227-5.109,0.535-7.939,0.535-7.939c-1.344-2.695,2.961-6.322,2.961-6.322l-0.947-3.906l2.708-3.663l2.269-3.058
		c0,0,0.016-0.016,0.051-0.045c0.016-0.015,0.037-0.021,0.061-0.036c0.051-0.036,0.117-0.075,0.199-0.104
		c0.045-0.014,0.088-0.029,0.133-0.036c0.102-0.03,0.223-0.044,0.346-0.044c0.305,0,0.68,0.08,1.146,0.339
		c0.074,0.044,0.154,0.097,0.234,0.148c0.084,0.051,0.164,0.11,0.252,0.177c0.287,0.214,0.525,0.303,0.752,0.303
		c0.066,0,0.127,0,0.195-0.016c0.029-0.006,0.057-0.014,0.094-0.021c0.125-0.029,0.268-0.081,0.414-0.154
		c0.039-0.016,0.074-0.029,0.119-0.046c0.961-0.442,2.541-1.307,6.566-1.307c0.479,0,0.996,0.015,1.549,0.037
		c0.547-0.022,1.064-0.037,1.545-0.037c4.025,0,5.613,0.864,6.566,1.307c0.045,0.017,0.08,0.03,0.117,0.046
		c0.148,0.073,0.289,0.125,0.414,0.154c0.035,0.008,0.066,0.016,0.096,0.021c0.066,0.016,0.125,0.016,0.191,0.016
		c0.236,0,0.465-0.089,0.754-0.303c0.088-0.066,0.17-0.126,0.25-0.177c0.09-0.052,0.164-0.104,0.244-0.148
		c0.459-0.259,0.844-0.339,1.137-0.339c0.135,0,0.244,0.014,0.35,0.044c0.051,0.007,0.094,0.022,0.133,0.036
		c0.08,0.029,0.146,0.068,0.199,0.104c0.021,0.015,0.043,0.021,0.059,0.036c0.035,0.029,0.053,0.045,0.053,0.045l2.266,3.058
		l2.711,3.663l-0.938,3.906c0,0,4.305,3.627,2.961,6.322C449.385,14.642,453.154,17.472,449.916,22.581z"/>
	<path fill="#8CC63F" d="M447.25-9.269c-0.061-0.366-0.131-0.684-0.215-0.938c-0.887-2.662-3.424-6.211-6.721-7.732
		c-2.219-1.025-4.436-1.646-5.646-1.943c0.027-0.048,0.051-0.104,0.057-0.172c0.045-0.467-0.57-0.574-1.34-0.646
		c-0.773-0.07-1.41-0.08-1.453,0.39c-0.012,0.112,0.018,0.199,0.076,0.273c-2.904,0.134-8.691,0.571-10.836,1.972
		c-2.918,1.902-3.678,3.676-4.693,6.086c-0.859,2.044-2.723,8.648-3.268,10.604l-0.154-0.02c0,0,0.053,0.028,0.139,0.069
		c-0.088,0.316-0.139,0.502-0.139,0.502s0.031,0.016,0.082,0.041l-2.631,2.285c-0.047-0.004-0.074-0.004-0.074-0.004l0.07,0.008
		l-0.797,0.694l-0.037-0.002c0.008,0.002,0.02-0.313,0.029-0.309L408.055,3h-0.084c0.02,0,0.039,0.332,0.059,0.34l-1.951,1.179
		L406.043,4c0.01,0,0.023,0,0.035,0l-1.223,1.74c-0.01,0.002-0.021,0.341-0.029,0.341l0.029,0.169l-1.27,1.188l-0.199,0.264
		c0,0,0.049,0.002,0.109-0.018c-0.129,0.08-0.17,0.186-0.057,0.31c0.064,0.066,0.143,0.131,0.232,0.182l-0.164,0.184
		c0,0,0.041-0.012,0.094-0.031c-0.121,0.078-0.148,0.174-0.039,0.293c0.541,0.584,2.18,0.535,2.947,0.725
		c0.967,0.236,1.9,0.572,2.807,0.951c3.494,2.211,9.148,5.608,12.277,5.424c4.438-0.263,6.295-1.135,8.529-2.666
		c1.787-1.225,6.238-4.916,8.213-7.02c0.35,0.013,0.689,0.018,1.018,0.009l0.008,0.028c0,0,0-0.01,0.004-0.028
		c0.145-0.001,0.289-0.007,0.43-0.014l0.01,0.042c0,0,0.002-0.016,0.006-0.044c0.488-0.024,0.951-0.071,1.389-0.146
		c3.676-0.634,5.705-0.887,5.959-2.029C447.402,2.752,448-6.234,447.25-9.269z"/>
	<g>
		
			<ellipse transform="matrix(0.9873 0.1591 -0.1591 0.9873 7.3493 -66.1171)" fill="#8CC63F" cx="416.488" cy="12.828" rx="1.688" ry="2.626"/>
		
			<ellipse transform="matrix(-0.9873 0.1591 -0.1591 -0.9873 883.3661 -45.0846)" fill="#8CC63F" cx="443.488" cy="12.828" rx="1.688" ry="2.626"/>
	</g>
</g>
<g>
	<path fill="#A46922" d="M-143.178,98.775c-0.807,8.07-6.871,17.152-14.132,18.162c-5.35,0.742-7.292,6.232-11.101,8.506
		l-0.333-1.346h0.003l-0.19-0.761l-0.26-1.046c-0.058-0.228-1.394-5.564-2.403-7.967c-0.112-0.268-0.163-0.423-0.194-0.51
		c0.133-0.234,0.475-0.703,0.779-1.123c0.573-0.787,1.355-1.862,2.37-3.468c2.133-3.373,1.784-6.076,1.111-7.753
		c-0.31-0.774-0.717-1.402-1.098-1.873c0.297-2.598-1.698-5.1-2.973-6.412l0.666-2.739l0.223-0.937l-0.572-0.774l-2.711-3.665
		l-0.549-0.74l1.09-1.935h11.506C-161.946,82.396-142.373,90.702-143.178,98.775z"/>
	<path fill="#A46922" d="M-208.771,88.735l-0.572,0.774l0.223,0.937l0.668,2.739c-1.276,1.313-3.271,3.814-2.976,6.412
		c-0.379,0.471-0.789,1.099-1.097,1.873c-0.671,1.677-1.022,4.38,1.111,7.753c1.016,1.605,1.798,2.681,2.37,3.468
		c0.306,0.42,0.646,0.889,0.777,1.123c-0.027,0.087-0.08,0.242-0.191,0.507c-1.008,2.405-2.347,7.742-2.403,7.97l-0.178,0.709
		l-0.005,0.023l-0.272,1.088l0.004,0.002l-0.326,1.332c-3.813-2.27-5.755-7.766-11.105-8.508
		c-7.259-1.01-13.322-10.092-14.13-18.162c-0.807-8.073,18.767-16.38,18.767-16.38h11.505l1.092,1.935l-0.55,0.74L-208.771,88.735z"
		/>
	<path fill="#70573A" d="M-180.282,125.334c0,0.145-0.008,0.289-0.024,0.431v-0.54L-180.282,125.334z"/>
	<path fill="#70573A" d="M-170.385,108.127c-3.227,5.111-4.069,4.705-3.109,6.994c0.961,2.283,2.306,7.667,2.306,7.667l-0.694,0.259
		l-4.472,1.699l-1.645,0.678v-0.294l-0.285-0.207l-0.969-3.729l-0.37-1.194h-20.806l-0.25,1.194l-0.554,3.666l0.234,0.27v0.229
		l-2.127-0.65l-4.891-1.67l-0.774-0.251c0,0,1.314-5.384,2.27-7.667c0.965-2.289,0.099-1.883-3.129-6.994
		c-3.227-5.11,0.53-7.939,0.53-7.939c-1.344-2.695,2.958-6.322,2.958-6.322l-0.948-3.906l2.708-3.663l2.266-3.06
		c0,0,0.014-0.014,0.052-0.043c0.016-0.016,0.038-0.021,0.06-0.037c0.051-0.036,0.117-0.074,0.2-0.104
		c0.043-0.015,0.087-0.029,0.134-0.037c0.102-0.029,0.219-0.043,0.346-0.043c0.302,0,0.679,0.08,1.145,0.339
		c0.073,0.044,0.155,0.097,0.236,0.147c0.081,0.052,0.162,0.111,0.25,0.177c0.289,0.214,0.525,0.304,0.754,0.304
		c0.067,0,0.126,0,0.192-0.016c0.028-0.006,0.059-0.015,0.095-0.021c0.126-0.029,0.268-0.082,0.415-0.155
		c0.036-0.015,0.074-0.029,0.116-0.045c0.962-0.442,2.542-1.307,6.566-1.307c0.481,0,0.999,0.015,1.553,0.037
		c0.546-0.022,1.063-0.037,1.542-0.037c4.026,0,5.615,0.864,6.566,1.307c0.044,0.016,0.082,0.03,0.119,0.045
		c0.148,0.073,0.288,0.126,0.414,0.155c0.036,0.007,0.067,0.016,0.096,0.021c0.066,0.016,0.125,0.016,0.191,0.016
		c0.237,0,0.466-0.09,0.753-0.304c0.091-0.065,0.17-0.125,0.252-0.177c0.089-0.051,0.163-0.104,0.243-0.147
		c0.458-0.259,0.841-0.339,1.138-0.339c0.132,0,0.243,0.014,0.348,0.043c0.051,0.008,0.095,0.022,0.133,0.037
		c0.081,0.029,0.147,0.067,0.199,0.104c0.022,0.016,0.044,0.021,0.06,0.037c0.037,0.029,0.052,0.043,0.052,0.043l2.267,3.06
		l2.712,3.663l-0.938,3.906c0,0,4.306,3.627,2.961,6.322C-170.917,100.188-167.148,103.017-170.385,108.127z"/>
	<path fill="#E5E5E5" d="M-200.948,127.766c-4.547,11.439-10.404,15.612-10.9,16.064c-2.291,2.089-9.384,4.74-10.291,4.035
		c-0.91-0.706-0.593-1.659,0.741-2.422c1.496-0.857,4.271-2.557,7.599-7.604c1.671-2.531,3.51-7.816,5.044-12.828l4.654,1.644
		L-200.948,127.766z"/>
	<path fill="#E5E5E5" d="M-157.913,147.865c-0.909,0.705-8-1.946-10.292-4.035c-0.495-0.449-6.327-4.606-10.868-15.994l3.176-1.15
		l4.604-1.665c1.534,5.01,3.367,10.29,5.039,12.819c3.33,5.047,6.104,6.746,7.6,7.604
		C-157.316,146.206-157.002,147.159-157.913,147.865z"/>
	<path fill="#70573A" d="M-190.645,106.461c0,0,0.538,0.717,1.255,1.941c0.725,1.223,5.259,1.563,6.131,3.602
		c0.883,2.037-0.107,5.78,0.615,8.244c0.733,2.461,0.209,5.24,0.738,7.707c0.516,2.452,0.31,4.632,0.705,6.379
		c0.194,0.864,0.368,1.52,0.358,1.925c0.005,0.381-0.282,0.705,0.016,1.122c0.293,0.383,1.048,0.59,1.809,0.623
		c0.773,0.055,1.553-0.037,2.226-0.107c0.334-0.047,0.642-0.09,0.92-0.121c0.279-0.043,0.518-0.078,0.708-0.109
		c0.406-0.053,0.623-0.08,0.623-0.08s-0.034,0.219-0.127,0.615c-0.087,0.402-0.253,0.967-0.545,1.664
		c-0.303,0.694-0.726,1.523-1.48,2.398c-0.75,0.857-1.84,1.834-3.681,2.381c-0.921,0.248-2.021,0.354-3.159,0.174
		c-1.129-0.178-2.237-0.6-3.198-1.154c-1.921-1.13-3.26-2.619-4.318-4.096c-2.081-2.979-3.841-6.016-4.519-9.104
		c-1.297-6.182-4.592-11.572-3.2-16.003c0.679-2.216,6.17-4.776,6.871-6.037C-191.207,107.164-190.645,106.461-190.645,106.461z"/>
	<g>
		
			<ellipse transform="matrix(0.9873 0.1591 -0.1591 0.9873 13.4105 33.6689)" fill="#8CC63F" cx="-203.512" cy="100.565" rx="1.688" ry="2.626"/>
		
			<ellipse transform="matrix(-0.9873 0.1591 -0.1591 -0.9873 -334.7708 227.9396)" fill="#8CC63F" cx="-176.512" cy="100.565" rx="1.688" ry="2.626"/>
	</g>
	<g>
		<g>
			<g>
				<path fill="#8CC63F" d="M-187.294,148.416l0.02,0.023l0.012,0.015c0,0.022-0.001,0.04-0.002,0.052c0,0.012,0,0.019,0,0.019
					h-0.018h-0.018C-187.3,148.523-187.3,148.482-187.294,148.416z"/>
				<path fill="#3E5D84" d="M-187.294,148.416c-0.006,0.066-0.006,0.107-0.006,0.108h0.018h0.018c0,0,0-0.007,0-0.019
					c0.047,0.049,0.101,0.1,0.165,0.15c0.179,0.112,0.454,0.277,0.755,0.42c0.309,0.129,0.613,0.226,0.818,0.285
					c0.084,0.014,0.165,0.021,0.238,0.021l-0.016,0.021h-0.002l0.023,0.027c0,0,0.01-0.008,0.024-0.023l-0.002,0.006
					c-0.001,0.013-0.007,0.028-0.015,0.048c-0.131,0.298-1.129,1.391-1.545,1.779c-0.166,0.161-0.213,0.174-0.239,0.161
					c-0.03-0.014-0.065-0.027-0.104-0.043c-0.005-0.002-0.009-0.004-0.009-0.004l-0.021-0.008c-0.037-0.014-0.078-0.031-0.123-0.052
					c-0.049-0.021-0.09-0.04-0.123-0.06l-0.018-0.008c-0.004-0.003-0.008-0.005-0.012-0.006c-0.037-0.02-0.072-0.035-0.101-0.049
					c-0.026-0.012-0.05-0.055-0.043-0.288c0.007-0.571,0.137-2.052,0.268-2.352c0.007-0.019,0.017-0.032,0.025-0.043l0.007-0.01
					l0.013-0.071L-187.294,148.416z"/>
				<path fill="#8CC63F" d="M-185.212,149.344l-0.045,0.057l-0.001,0.006c-0.015,0.016-0.022,0.021-0.022,0.021l-0.025-0.025h0.002
					c0,0,0.025-0.025,0.055-0.057L-185.212,149.344z"/>
			</g>
		</g>
		<path fill="#8CC63F" d="M-180.798,133.561l2.129,0.953c-0.4,0.922-4.068,9.348-4.375,9.966c-0.332,0.672-1.676,3.79-1.782,4.21
			c-0.018,0.066-0.04,0.13-0.067,0.189c-0.115,0.264-0.301,0.463-0.364,0.527l0.001-0.006l0.045-0.057l-0.037,0.002h-0.004
			c-0.078,0.004-0.17-0.002-0.268-0.02c-0.199-0.058-0.504-0.154-0.81-0.282c-0.3-0.142-0.573-0.306-0.749-0.416
			c-0.074-0.058-0.134-0.114-0.184-0.174l-0.012-0.015l-0.02-0.023c0.016-0.161,0.064-0.473,0.232-0.728
			c0.234-0.362,1.621-3.462,1.889-4.162C-184.925,142.881-181.206,134.48-180.798,133.561z"/>
		<path fill="#8CC63F" d="M-173.492,119.818c0.44,0.197,0.64,0.719,0.445,1.163l-0.326,0.739l-0.004-0.008l-1.586-0.711
			l-0.004,0.002l0.324-0.737C-174.449,119.822-173.931,119.621-173.492,119.818z"/>
		<polygon fill="#8CC63F" points="-173.392,121.768 -173.373,121.721 -173.218,122.091 -175.345,121.137 -174.966,121.004 
			-174.986,121.047 -174.964,121.041 -173.402,121.74 		"/>
		<polygon fill="#3E5D84" points="-175.419,121.163 -175.408,121.196 -175.406,121.195 -175.347,121.176 -173.244,122.117 
			-173.222,122.176 -173.22,122.178 -173.187,122.162 -173.218,122.091 -173.156,122.117 -178.609,134.541 -180.859,133.532 
			-175.406,121.109 -175.345,121.137 		"/>
		<path fill="#8CC63F" d="M-187.175,151.353c0,0,0.008,0.003,0.013,0.005l-0.157,0.359c-0.037,0.084-0.137,0.123-0.221,0.084
			c-0.043-0.018-0.072-0.053-0.088-0.092c-0.016-0.041-0.016-0.088,0.002-0.131l0.158-0.357c0.004,0.001,0.008,0.003,0.012,0.006
			l0.018,0.008c0.033,0.02,0.074,0.039,0.123,0.06c0.045,0.021,0.086,0.038,0.123,0.052L-187.175,151.353z"/>
	</g>
	<path fill="#8CC63F" d="M-200.318,153.862c-0.089,0-0.182-0.005-0.279-0.016c-1.018-0.117-1.129-1.29-1.196-1.99
		c-0.016-0.164-0.029-0.316-0.052-0.441c-0.064-0.341-0.446-0.688-0.498-1.035c-0.086-0.58-0.657-1.181-0.657-1.735
		c0-0.003,0-0.006,0-0.008c0,0.043,0.293,0.083,0.28,0.112l0.112,0.125c-0.197,0.442-0.263,0.905-0.419,1.394
		c-0.076,0.236-0.11,0.473-0.191,0.707c-0.338,1.082-0.616,1.722-1.143,1.82c-0.263,0.056-0.513-0.057-0.701-0.292
		c-0.123-0.155-0.175-0.376-0.25-0.986c-0.119-0.738-0.094-1.466-0.072-2.17l0.017-0.95c0-1.188,0-2.986,1.037-3.791l0.613,0.789
		c-0.649,0.505-0.649,2.008-0.648,3.002l-0.016,0.981c-0.02,0.642-0.04,1.306,0.051,1.895c0.051-0.138,0.109-0.306,0.174-0.513
		l0.036-0.112c0.079-0.228,0.152-0.456,0.225-0.685c0.158-0.493,0.321-1.003,0.541-1.496l0.045-0.104
		c0.152-0.362,0.435-1.035,1.111-1.06l0.217-0.008l0.154,0.153c0.278,0.277,0.437,0.621,0.47,1.021
		c0.152,0.522,0.246,1.153,0.337,1.764c0.05,0.334,0.1,0.668,0.161,0.997c0.028,0.15,0.047,0.334,0.065,0.531
		c0.036,0.373,0.102,1.066,0.314,1.091c0.852,0.102,1.187-0.647,1.632-1.887c0.133-0.371,0.259-0.721,0.417-1.027l0.17-0.332
		l0.366,0.068c0.294,0.055,0.519,0.233,0.645,0.51c0.419,0.432,0.833,0.878,1.233,1.328c0.579,0.65,1.002,0.967,1.843,1.001
		c0.749,0.038,1.365-0.188,2.067-0.441c0.209-0.075,0.423-0.153,0.649-0.227l0.176-0.061c0.669-0.232,1.791-0.619,2.445,0.024
		l-0.701,0.713c-0.213-0.212-1.119,0.104-1.417,0.208l-0.192,0.065c-0.215,0.07-0.42,0.145-0.62,0.217
		c-0.768,0.278-1.5,0.527-2.45,0.501c-1.18-0.05-1.828-0.527-2.547-1.337c-0.341-0.383-0.692-0.764-1.048-1.134
		c-0.031,0.085-0.063,0.172-0.095,0.261C-198.302,152.394-198.83,153.862-200.318,153.862z"/>
	<path fill="#8CC63F" d="M-150.191,89c0,0.81-0.66,2-1.47,2h-59.16c-0.17-1-1.179-2.17-1.179-3.17v-5.89
		c0-8.69,7.939-15.94,16.629-15.94H-193v-1c0-0.55,0.759-1,1.309-1h3c0.55,0,0.691,0.45,0.691,1v1h2.449
		C-176.871,66-170,73.25-170,81.94V87h18.339C-150.851,87-150.191,88.18-150.191,89z"/>
</g>
<g>
	<g>
		<ellipse fill="#8CC63F" cx="301.66" cy="109.356" rx="15.697" ry="13.415"/>
		<circle fill="#8CC63F" cx="301.661" cy="98.895" r="6.751"/>
	</g>
	<path fill="#A46922" d="M348.168,125.775c-0.809,8.07-6.873,17.152-14.131,18.162c-5.35,0.743-7.291,6.232-11.102,8.507
		l-0.334-1.347h0.004l-0.189-0.76l-0.262-1.047c-0.057-0.227-1.395-5.564-2.402-7.966c-0.111-0.269-0.164-0.423-0.193-0.51
		c0.133-0.234,0.473-0.704,0.779-1.123c0.572-0.788,1.355-1.862,2.369-3.469c2.133-3.372,1.781-6.076,1.111-7.751
		c-0.309-0.775-0.719-1.402-1.098-1.875c0.297-2.596-1.699-5.1-2.973-6.412l0.666-2.738l0.223-0.936l-0.574-0.775l-2.709-3.666
		l-0.549-0.74l1.09-1.935H329.4C329.4,109.396,348.975,117.703,348.168,125.775z"/>
	<path fill="#A46922" d="M282.576,115.736l-0.572,0.775l0.223,0.936l0.666,2.738c-1.277,1.313-3.27,3.816-2.975,6.412
		c-0.379,0.473-0.789,1.1-1.098,1.875c-0.67,1.675-1.021,4.379,1.113,7.751c1.014,1.606,1.797,2.681,2.369,3.469
		c0.305,0.419,0.646,0.889,0.779,1.123c-0.029,0.087-0.082,0.241-0.195,0.506c-1.008,2.405-2.344,7.743-2.402,7.97L280.309,150
		l-0.008,0.023l-0.271,1.088l0.004,0.002l-0.324,1.334c-3.814-2.271-5.754-7.767-11.105-8.51
		c-7.26-1.01-13.324-10.092-14.131-18.162c-0.807-8.072,18.768-16.38,18.768-16.38h11.506l1.09,1.935l-0.549,0.74L282.576,115.736z"
		/>
	<path fill="#E5E5E5" d="M290.396,154.766c-4.545,11.439-10.4,15.613-10.898,16.064c-2.291,2.089-9.385,4.742-10.291,4.035
		c-0.91-0.705-0.596-1.658,0.74-2.422c1.498-0.857,4.27-2.557,7.6-7.604c1.67-2.53,3.508-7.816,5.043-12.828l4.656,1.644
		L290.396,154.766z"/>
	<path fill="#E5E5E5" d="M333.434,174.865c-0.908,0.707-8.002-1.946-10.291-4.035c-0.496-0.448-6.328-4.605-10.869-15.992
		l3.174-1.152l4.605-1.664c1.533,5.01,3.369,10.291,5.039,12.818c3.33,5.047,6.104,6.746,7.602,7.604
		C334.027,173.207,334.344,174.16,333.434,174.865z"/>
	<path fill="#70573A" d="M311.063,152.336c0,0.144-0.006,0.289-0.023,0.43v-0.541L311.063,152.336z"/>
	<path fill="#70573A" d="M300.701,133.461c0,0,0.537,0.717,1.256,1.941c0.723,1.223,5.258,1.564,6.131,3.602
		c0.883,2.039-0.107,5.781,0.613,8.244c0.732,2.461,0.209,5.24,0.738,7.707c0.518,2.453,0.311,4.632,0.705,6.379
		c0.193,0.865,0.369,1.521,0.359,1.926c0.004,0.381-0.281,0.705,0.016,1.121c0.291,0.383,1.049,0.59,1.811,0.623
		c0.771,0.055,1.551-0.037,2.225-0.107c0.332-0.047,0.639-0.09,0.92-0.122c0.277-0.042,0.516-0.077,0.707-0.106
		c0.406-0.054,0.623-0.081,0.623-0.081s-0.035,0.218-0.127,0.614c-0.086,0.402-0.252,0.969-0.545,1.664
		c-0.303,0.695-0.729,1.523-1.48,2.398c-0.75,0.859-1.84,1.835-3.68,2.381c-0.924,0.248-2.023,0.354-3.16,0.174
		c-1.129-0.178-2.236-0.6-3.199-1.154c-1.92-1.129-3.258-2.619-4.318-4.094c-2.08-2.98-3.84-6.018-4.518-9.104
		c-1.299-6.183-4.592-11.572-3.201-16.003c0.678-2.216,6.172-4.777,6.871-6.037C300.141,134.164,300.701,133.461,300.701,133.461z"
		/>
	<path fill="#70573A" d="M320.961,135.127c-3.227,5.111-4.07,4.705-3.109,6.995c0.961,2.282,2.305,7.667,2.305,7.667l-0.695,0.258
		l-4.644,1.699L313,152.425v-0.294l-0.11-0.208l-0.884-3.728L311.721,147h-20.805l-0.25,1.195l-1.229,3.666l-0.438,0.27v0.228
		l-1.453-0.649l-4.557-1.669l-0.605-0.251c0,0,1.399-5.385,2.353-7.667c0.969-2.29,0.144-1.884-3.085-6.995
		c-3.227-5.109,0.551-7.939,0.551-7.939c-1.344-2.695,2.969-6.322,2.969-6.322l-0.941-3.906l2.711-3.663l2.269-3.058
		c0,0,0.015-0.016,0.052-0.045c0.015-0.015,0.037-0.021,0.059-0.036c0.053-0.036,0.119-0.075,0.199-0.104
		c0.045-0.014,0.09-0.029,0.133-0.036c0.104-0.03,0.223-0.044,0.348-0.044c0.303,0,0.68,0.08,1.146,0.339
		c0.072,0.044,0.154,0.097,0.236,0.148c0.08,0.051,0.162,0.11,0.25,0.177c0.287,0.214,0.523,0.303,0.754,0.303
		c0.066,0,0.125,0,0.191-0.016c0.029-0.006,0.059-0.014,0.096-0.021c0.125-0.029,0.266-0.081,0.414-0.154
		c0.035-0.016,0.072-0.029,0.119-0.046c0.959-0.442,2.541-1.307,6.564-1.307c0.48,0,0.998,0.015,1.551,0.037
		c0.547-0.022,1.064-0.037,1.543-0.037c4.025,0,5.613,0.864,6.566,1.307c0.045,0.017,0.082,0.03,0.119,0.046
		c0.146,0.073,0.287,0.125,0.414,0.154c0.035,0.008,0.064,0.016,0.096,0.021c0.066,0.016,0.125,0.016,0.191,0.016
		c0.236,0,0.467-0.089,0.754-0.303c0.088-0.066,0.168-0.126,0.25-0.177c0.09-0.052,0.162-0.104,0.244-0.148
		c0.459-0.259,0.842-0.339,1.139-0.339c0.131,0,0.242,0.014,0.346,0.044c0.053,0.007,0.098,0.022,0.133,0.036
		c0.082,0.029,0.148,0.068,0.199,0.104c0.023,0.015,0.045,0.021,0.061,0.036c0.037,0.029,0.051,0.045,0.051,0.045l2.268,3.058
		l2.711,3.663l-0.939,3.906c0,0,4.307,3.627,2.963,6.322C320.43,127.188,324.195,130.018,320.961,135.127z"/>
	<g>
		
			<ellipse transform="matrix(0.9873 0.1591 -0.1591 0.9873 23.6163 -44.1566)" fill="#8CC63F" cx="287.508" cy="125.374" rx="1.688" ry="2.626"/>
		
			<ellipse transform="matrix(-0.9873 0.1591 -0.1591 -0.9873 644.9597 199.099)" fill="#8CC63F" cx="314.508" cy="125.374" rx="1.688" ry="2.626"/>
	</g>
	<g>
		<path fill="#8CC63F" d="M311.98,174.474c-0.623,1.534-2.375,2.272-3.908,1.649l-12.043-4.896c-1.535-0.624-2.273-2.375-1.65-3.909
			l11.301-27.791c0.623-1.534,2.375-2.272,3.908-1.648l12.043,4.896c1.535,0.624,2.273,2.374,1.648,3.908L311.98,174.474z"/>
		<path fill="#70573A" d="M309.594,152.224c0.539-1.713,0.971-3.463,2.479-4.732c-0.006,0.164-0.01,0.253-0.012,0.32
			c0.393-0.211,0.777-0.417,1.162-0.626c0.023,0.03,0.053,0.063,0.076,0.092c-0.074,0.125-0.145,0.25-0.25,0.429
			c0.227-0.078,0.406-0.171,0.596-0.196c0.189-0.028,0.391,0.01,0.586,0.02c-0.135,0.145-0.248,0.331-0.414,0.428
			c-0.273,0.155-0.58,0.253-0.865,0.436c0.076,0.008,0.15,0.019,0.223,0.017c1.719-0.04,3.336,0.98,4.008,2.571
			c0.141,0.342,0.34,0.461,0.658,0.394c0.568-0.121,1.127-0.278,1.711-0.427c-0.305,0.743-0.982,1.045-1.715,1.275
			c0.006,0.043,0.014,0.088,0.023,0.132c0.631-0.023,1.262-0.047,1.873-0.069c-0.25,0.409-0.906,0.83-1.59,0.926
			c-0.371,0.053-0.492,0.208-0.561,0.565c-0.348,1.721-1.311,3.095-2.658,4.144c-3.406,2.646-7.18,3.341-11.277,1.827
			c-0.971-0.356-1.797-0.954-2.621-1.689c2.619,1.159,4.9,0.842,6.977-1.251c-0.605-0.027-1.156,0.043-1.424-0.521
			c-0.129-0.271-0.016-0.469,0.475-0.979c-0.967,0.156-1.775-0.039-2.43-0.877c0.355-0.209,0.688-0.4,1.057-0.614
			c-0.959-0.134-1.781-0.462-2.141-1.497c0.32-0.107,0.619-0.207,1.008-0.339c-0.973-0.401-1.637-0.974-1.824-2.058
			C305.098,150.543,307.5,150.859,309.594,152.224z"/>
	</g>
</g>
</svg>
