<?xml version="1.0" encoding="utf-8"?>
<!-- Generator: Adobe Illustrator 16.0.0, SVG Export Plug-In . SVG Version: 6.00 Build 0)  -->
<!DOCTYPE svg PUBLIC "-//W3C//DTD SVG 1.1//EN" "http://www.w3.org/Graphics/SVG/1.1/DTD/svg11.dtd">
<svg version="1.1" id="Calque_1" xmlns="http://www.w3.org/2000/svg" xmlns:xlink="http://www.w3.org/1999/xlink" x="0px" y="0px"
	 width="96.326px" height="109px" viewBox="0 0 96.326 109" enable-background="new 0 0 96.326 109" xml:space="preserve">
<g>
	<path fill="#A46922" d="M94.849,38.229c-0.805,8.07-6.871,17.152-14.133,18.162c-5.348,0.743-7.289,6.232-11.098,8.507
		l-0.334-1.347h0.002l-0.189-0.76l-0.262-1.047c-0.057-0.227-1.393-5.564-2.402-7.966c-0.111-0.269-0.164-0.423-0.191-0.51
		c0.129-0.234,0.471-0.704,0.777-1.123c0.574-0.788,1.357-1.862,2.369-3.469c2.133-3.372,1.783-6.076,1.111-7.751
		c-0.309-0.775-0.717-1.402-1.098-1.875c0.299-2.596-1.695-5.1-2.973-6.412l0.664-2.738l0.225-0.936l-0.572-0.775l-2.709-3.666
		l-0.551-0.74l1.09-1.935h11.504C76.079,21.85,95.657,30.157,94.849,38.229z"/>
	<path fill="#A46922" d="M29.255,28.19l-0.57,0.775l0.225,0.936l0.666,2.738c-1.277,1.313-3.271,3.816-2.975,6.412
		c-0.381,0.473-0.789,1.1-1.098,1.875c-0.672,1.675-1.023,4.379,1.111,7.751c1.014,1.606,1.799,2.681,2.367,3.469
		c0.309,0.419,0.648,0.889,0.781,1.123c-0.029,0.087-0.082,0.241-0.193,0.506c-1.008,2.405-2.348,7.743-2.402,7.97l-0.18,0.709
		l-0.004,0.023l-0.273,1.088l0.006,0.002l-0.324,1.334c-3.814-2.271-5.758-7.767-11.107-8.51C8.026,55.382,1.96,46.3,1.153,38.229
		c-0.807-8.072,18.766-16.38,18.766-16.38h11.508l1.09,1.935l-0.549,0.74L29.255,28.19z"/>
	<path fill="#E5E5E5" d="M37.079,67.22c-4.547,11.439-10.402,15.613-10.898,16.064c-2.293,2.089-9.385,4.742-10.295,4.035
		c-0.906-0.705-0.592-1.658,0.742-2.422c1.498-0.857,4.271-2.557,7.6-7.604c1.672-2.53,3.508-7.816,5.043-12.828l4.654,1.644
		L37.079,67.22z"/>
	<path fill="#E5E5E5" d="M80.114,87.319c-0.906,0.707-8-1.946-10.289-4.035c-0.498-0.448-6.33-4.605-10.871-15.992l3.174-1.152
		l4.605-1.664c1.535,5.01,3.371,10.291,5.041,12.818c3.33,5.047,6.104,6.746,7.6,7.604C80.71,85.661,81.024,86.614,80.114,87.319z"
		/>
	<path fill="#70573A" d="M57.747,64.79c0,0.144-0.01,0.289-0.027,0.43v-0.541L57.747,64.79z"/>
	<path fill="#70573A" d="M47.656,45.915c0,0,0.537,0.717,1.254,1.941c0.727,1.223,5.26,1.564,6.133,3.602
		c0.885,2.039-0.107,5.781,0.615,8.244c0.732,2.461,0.209,5.24,0.738,7.707c0.518,2.453,0.309,4.632,0.705,6.379
		c0.193,0.865,0.367,1.521,0.357,1.926c0.006,0.381-0.279,0.705,0.018,1.121c0.291,0.383,1.045,0.59,1.807,0.623
		c0.773,0.055,1.553-0.037,2.229-0.107c0.332-0.047,0.639-0.09,0.918-0.122c0.277-0.042,0.516-0.077,0.707-0.106
		c0.406-0.054,0.623-0.081,0.623-0.081s-0.033,0.218-0.127,0.614c-0.086,0.402-0.252,0.969-0.545,1.664
		c-0.305,0.695-0.727,1.523-1.479,2.398c-0.752,0.859-1.842,1.835-3.682,2.381c-0.924,0.248-2.021,0.354-3.16,0.174
		c-1.127-0.178-2.238-0.6-3.199-1.154c-1.92-1.129-3.258-2.619-4.316-4.094c-2.082-2.98-3.842-6.018-4.52-9.104
		c-1.297-6.183-4.592-11.572-3.199-16.003c0.678-2.216,6.17-4.777,6.869-6.037C47.096,46.618,47.656,45.915,47.656,45.915z"/>
	<path fill="#70573A" d="M67.916,47.581c-3.227,5.111-4.068,4.705-3.109,6.995c0.961,2.282,2.305,7.667,2.305,7.667l-0.691,0.258
		L61.796,64.2L60,64.879v-0.294l-0.132-0.208l-0.896-3.955L58.678,59H37.871l-0.252,1.422l-0.702,3.78L37,64.585v0.228l-1.974-0.649
		l-4.819-1.669l-0.735-0.251c0,0,1.335-5.385,2.286-7.667c0.967-2.29,0.111-1.884-3.117-6.995c-3.227-5.109,0.535-7.939,0.535-7.939
		c-1.344-2.695,2.961-6.322,2.961-6.322l-0.947-3.906l2.708-3.663l2.269-3.058c0,0,0.016-0.016,0.051-0.045
		c0.016-0.015,0.037-0.021,0.061-0.036c0.051-0.036,0.117-0.075,0.199-0.104c0.045-0.014,0.088-0.029,0.133-0.036
		c0.102-0.03,0.223-0.044,0.346-0.044c0.305,0,0.68,0.08,1.146,0.339c0.074,0.044,0.154,0.097,0.234,0.148
		c0.084,0.051,0.164,0.11,0.252,0.177c0.287,0.214,0.525,0.303,0.752,0.303c0.066,0,0.127,0,0.195-0.016
		c0.029-0.006,0.057-0.014,0.094-0.021c0.125-0.029,0.268-0.081,0.414-0.154c0.039-0.016,0.074-0.029,0.119-0.046
		c0.961-0.442,2.541-1.307,6.566-1.307c0.479,0,0.996,0.015,1.549,0.037c0.547-0.022,1.064-0.037,1.545-0.037
		c4.025,0,5.613,0.864,6.566,1.307c0.045,0.017,0.08,0.03,0.117,0.046c0.148,0.073,0.289,0.125,0.414,0.154
		c0.035,0.008,0.066,0.016,0.096,0.021c0.066,0.016,0.125,0.016,0.191,0.016c0.236,0,0.465-0.089,0.754-0.303
		c0.088-0.066,0.17-0.126,0.25-0.177c0.09-0.052,0.164-0.104,0.244-0.148c0.459-0.259,0.844-0.339,1.137-0.339
		c0.135,0,0.244,0.014,0.35,0.044c0.051,0.007,0.094,0.022,0.133,0.036c0.08,0.029,0.146,0.068,0.199,0.104
		c0.021,0.015,0.043,0.021,0.059,0.036c0.035,0.029,0.053,0.045,0.053,0.045l2.266,3.058l2.711,3.663l-0.938,3.906
		c0,0,4.305,3.627,2.961,6.322C67.385,39.642,71.154,42.472,67.916,47.581z"/>
	<path fill="#8CC63F" d="M65.25,15.731c-0.061-0.366-0.131-0.684-0.215-0.938c-0.887-2.662-3.424-6.211-6.721-7.732
		c-2.219-1.025-4.436-1.646-5.646-1.943c0.027-0.048,0.051-0.104,0.057-0.172c0.045-0.467-0.57-0.574-1.34-0.646
		c-0.773-0.07-1.41-0.08-1.453,0.39c-0.012,0.112,0.018,0.199,0.076,0.273c-2.904,0.134-8.691,0.571-10.836,1.972
		c-2.918,1.902-3.678,3.676-4.693,6.086C33.619,15.064,31,24.177,31,24.177l-9.422,8.261l-0.195,0.264c0,0,0.051,0.002,0.112-0.018
		c-0.129,0.08-0.169,0.186-0.056,0.31c0.064,0.066,0.069,0.365,0.069,0.365s0.041-0.012,0.094-0.031
		c-0.121,0.078-0.148,0.174-0.039,0.293c0.541,0.584,2.18,0.535,2.947,0.725c0.967,0.236,1.9,0.572,2.807,0.951
		c3.494,2.211,9.148,5.608,12.277,5.424c4.438-0.263,6.295-1.135,8.529-2.666c1.787-1.225,6.238-4.916,8.213-7.02
		c0.35,0.013,0.689,0.018,1.018,0.009l0.008,0.028c0,0,0-0.01,0.004-0.028c0.145-0.001,0.289-0.007,0.43-0.014l0.01,0.042
		c0,0,0.002-0.016,0.006-0.044c0.488-0.024,0.951-0.071,1.389-0.146c3.676-0.634,5.705-0.887,5.959-2.029
		C65.402,27.752,66,18.766,65.25,15.731z"/>
	<g>
		
			<ellipse transform="matrix(0.9873 0.1591 -0.1591 0.9873 6.4595 -5.0064)" fill="#8CC63F" cx="34.488" cy="37.828" rx="1.688" ry="2.626"/>
		
			<ellipse transform="matrix(-0.9873 0.1591 -0.1591 -0.9873 128.213 65.3888)" fill="#8CC63F" cx="61.488" cy="37.828" rx="1.688" ry="2.626"/>
	</g>
</g>
</svg>
