<?xml version="1.0" encoding="utf-8"?>
<!-- Generator: Adobe Illustrator 16.0.0, SVG Export Plug-In . SVG Version: 6.00 Build 0)  -->
<!DOCTYPE svg PUBLIC "-//W3C//DTD SVG 1.1//EN" "http://www.w3.org/Graphics/SVG/1.1/DTD/svg11.dtd">
<svg version="1.1" id="Calque_1" xmlns="http://www.w3.org/2000/svg" xmlns:xlink="http://www.w3.org/1999/xlink" x="0px" y="0px"
	 width="96.326px" height="109px" viewBox="0 0 96.326 109" enable-background="new 0 0 96.326 109" xml:space="preserve">
<g>
	<path fill="#A46922" d="M94.846,37.229c-0.805,8.07-6.871,17.152-14.129,18.164c-5.35,0.741-7.295,6.23-11.102,8.505l-0.332-1.347
		h0.002l-0.189-0.76l-0.262-1.047c-0.057-0.227-1.395-5.564-2.4-7.965c-0.113-0.27-0.166-0.424-0.195-0.511
		c0.131-0.234,0.471-0.704,0.779-1.123c0.572-0.786,1.355-1.862,2.369-3.468c2.133-3.373,1.783-6.076,1.111-7.752
		c-0.309-0.775-0.719-1.402-1.098-1.875c0.299-2.597-1.697-5.1-2.973-6.412l0.664-2.738l0.223-0.936l-0.57-0.775l-2.713-3.666
		l-0.547-0.74l1.088-1.934H76.08C76.08,20.85,95.652,29.156,94.846,37.229z"/>
	<path fill="#A46922" d="M29.254,27.189l-0.57,0.775l0.223,0.936l0.666,2.738c-1.275,1.313-3.27,3.815-2.975,6.412
		c-0.379,0.473-0.791,1.1-1.098,1.875c-0.672,1.676-1.021,4.379,1.111,7.752c1.014,1.605,1.797,2.682,2.371,3.468
		c0.307,0.419,0.646,0.889,0.777,1.123c-0.029,0.087-0.08,0.241-0.193,0.507c-1.008,2.404-2.344,7.742-2.402,7.969l-0.176,0.709
		l-0.006,0.024l-0.273,1.087l0.004,0.002L26.387,63.9c-3.813-2.271-5.752-7.767-11.104-8.508
		C8.024,54.381,1.958,45.299,1.153,37.229C0.346,29.156,19.918,20.85,19.918,20.85h11.508l1.088,1.934l-0.547,0.74L29.254,27.189z"
		/>
	<path fill="#E5E5E5" d="M37.077,66.22c-4.545,11.438-10.402,15.612-10.898,16.063c-2.291,2.09-9.385,4.742-10.291,4.036
		c-0.91-0.706-0.596-1.659,0.738-2.423c1.5-0.857,4.271-2.557,7.602-7.604c1.67-2.53,3.506-7.816,5.043-12.828l4.656,1.645
		L37.077,66.22z"/>
	<path fill="#E5E5E5" d="M80.111,86.319c-0.906,0.706-8-1.946-10.291-4.036c-0.496-0.447-6.328-4.605-10.867-15.992l3.174-1.152
		l4.605-1.664c1.535,5.01,3.369,10.291,5.039,12.818c3.33,5.047,6.105,6.746,7.602,7.604C80.709,84.66,81.023,85.613,80.111,86.319z
		"/>
	<path fill="#70573A" d="M57.744,63.788c0,0.145-0.008,0.289-0.025,0.431v-0.541L57.744,63.788z"/>
	<path fill="#70573A" d="M47.381,44.915c0,0,0.537,0.717,1.256,1.94c0.723,1.223,5.257,1.564,6.13,3.604
		c0.883,2.037-0.107,5.779,0.613,8.242c0.732,2.461,0.209,5.24,0.74,7.707c0.516,2.453,0.309,4.633,0.703,6.379
		c0.195,0.865,0.367,1.521,0.359,1.926c0.004,0.381-0.283,0.705,0.018,1.121c0.291,0.383,1.047,0.592,1.805,0.623
		c0.775,0.055,1.555-0.037,2.229-0.106c0.334-0.048,0.639-0.091,0.92-0.122c0.279-0.043,0.516-0.078,0.707-0.107
		c0.406-0.054,0.623-0.08,0.623-0.08s-0.035,0.217-0.129,0.613c-0.084,0.402-0.252,0.969-0.545,1.665
		c-0.303,0.694-0.727,1.523-1.479,2.397c-0.752,0.859-1.84,1.835-3.68,2.382c-0.922,0.247-2.023,0.354-3.16,0.173
		c-1.129-0.178-2.238-0.599-3.199-1.154c-1.92-1.129-3.26-2.617-4.318-4.094c-2.08-2.98-3.84-6.017-4.518-9.104
		c-1.299-6.182-4.592-11.572-3.201-16.003c0.68-2.216,6.17-4.777,6.869-6.037C46.821,45.617,47.381,44.915,47.381,44.915z"/>
	<path fill="#70573A" d="M67.639,46.581c-3.227,5.11-4.066,4.706-3.107,6.994c0.961,2.284,2.305,7.667,2.305,7.667l-0.693,0.26
		l-4.984,1.697L59,63.878v-0.294l0.23-0.207l-0.715-3.956L58.4,58H37.596l-0.25,1.421l-1.068,3.78L36,63.584v0.229l-1.614-0.65
		l-4.635-1.669l-0.645-0.251c0,0,1.376-5.383,2.33-7.667c0.967-2.288,0.134-1.884-3.095-6.994c-3.227-5.11,0.548-7.94,0.548-7.94
		c-1.344-2.694,2.966-6.322,2.966-6.322l-0.943-3.906l2.709-3.662l2.269-3.059c0,0,0.016-0.016,0.051-0.045
		c0.018-0.015,0.039-0.021,0.061-0.035c0.053-0.037,0.119-0.076,0.199-0.104c0.045-0.015,0.09-0.03,0.135-0.037
		c0.102-0.03,0.221-0.044,0.346-0.044c0.303,0,0.68,0.081,1.145,0.34c0.076,0.043,0.154,0.096,0.238,0.147
		c0.08,0.052,0.16,0.11,0.248,0.177c0.289,0.214,0.525,0.303,0.756,0.303c0.066,0,0.125,0,0.191-0.015
		c0.029-0.007,0.059-0.015,0.096-0.021c0.125-0.03,0.268-0.082,0.414-0.155c0.037-0.016,0.074-0.029,0.117-0.045
		c0.961-0.443,2.541-1.307,6.564-1.307c0.48,0,0.998,0.014,1.555,0.037c0.547-0.023,1.063-0.037,1.541-0.037
		c4.027,0,5.615,0.863,6.566,1.307c0.045,0.016,0.08,0.029,0.119,0.045c0.146,0.073,0.287,0.125,0.412,0.155
		c0.037,0.007,0.066,0.015,0.098,0.021c0.066,0.015,0.123,0.015,0.191,0.015c0.236,0,0.467-0.089,0.754-0.303
		c0.088-0.066,0.17-0.125,0.25-0.177c0.088-0.052,0.162-0.104,0.246-0.147c0.457-0.259,0.84-0.34,1.135-0.34
		c0.133,0,0.244,0.014,0.348,0.044c0.053,0.007,0.096,0.022,0.133,0.037c0.08,0.028,0.148,0.067,0.199,0.104
		c0.023,0.014,0.045,0.021,0.059,0.035c0.039,0.029,0.053,0.045,0.053,0.045l2.268,3.059l2.711,3.662l-0.939,3.906
		c0,0,4.307,3.628,2.963,6.322C67.109,38.641,70.877,41.471,67.639,46.581z"/>
	<path fill="#8CC63F" d="M32.198,20.838c1.424,7.844,4.168,10.935,15.486,12.73l-2.467-6.363c0,0,9.845,11.76,27.08,10.698
		c0,0-6.809-13.312-8.039-17.988C63.027,15.237,30.012,8.775,32.198,20.838z"/>
	<g>
		
			<ellipse transform="matrix(0.9873 0.1591 -0.1591 0.9873 6.3909 -5.0577)" fill="#8CC63F" cx="34.774" cy="37.374" rx="1.688" ry="2.626"/>
		
			<ellipse transform="matrix(-0.9873 0.1591 -0.1591 -0.9873 128.7074 64.441)" fill="#8CC63F" cx="61.773" cy="37.374" rx="1.688" ry="2.626"/>
	</g>
</g>
</svg>
