<?xml version="1.0" encoding="utf-8"?>
<!-- Generator: Adobe Illustrator 17.0.0, SVG Export Plug-In . SVG Version: 6.00 Build 0)  -->
<!DOCTYPE svg PUBLIC "-//W3C//DTD SVG 1.1//EN" "http://www.w3.org/Graphics/SVG/1.1/DTD/svg11.dtd">
<svg version="1.1" id="Calque_1" xmlns="http://www.w3.org/2000/svg" xmlns:xlink="http://www.w3.org/1999/xlink" x="0px" y="0px"
	 width="1280px" height="800px" viewBox="0 0 1280 800" enable-background="new 0 0 1280 800" xml:space="preserve">
<circle id="mesureur" fill="none" stroke="#00FDD5" stroke-width="10" stroke-linecap="round" stroke-linejoin="round" stroke-miterlimit="10" cx="628.107" cy="304.585" r="106.606"/>
<polyline fill="none" stroke="#00FDD5" stroke-width="10" stroke-linecap="round" stroke-linejoin="round" stroke-miterlimit="10" points="
	686.468,394.514 666.212,536 597.941,536 577.57,399.566 "/>
<circle id="roueDroite" fill="#00FDD5" cx="393.504" cy="619.032" r="28.336"/>
<circle id="roueGauche" fill="#00FDD5" cx="862.74" cy="619.032" r="28.336"/>
<polygon id="aiguille" fill="#00FDD5" points="618.852,290.19 669.953,260.468 640.649,316.217 "/>
<path id="plateau" fill="#FFFFFF" stroke="#00FDD5" stroke-width="10" stroke-linecap="round" stroke-linejoin="round" stroke-miterlimit="10" d="
	M907.316,535H860v-69h-40v69H453v-69h-40v69h-38.751C355.944,535,340,545.69,340,559.45v10.381c0,13.76,15.944,25.168,34.249,25.168
	h533.066C925.621,595,941,583.592,941,569.832V559.45C941,545.69,925.621,535,907.316,535z"/>
<path fill="none" stroke="#00FDD5" stroke-width="10" stroke-linecap="round" stroke-linejoin="round" stroke-miterlimit="10" d="
	M364.264,466h141.266c14.069,0,25.474-11,25.474-24H338.789C338.789,455,350.194,466,364.264,466z"/>
<path fill="none" stroke="#00FDD5" stroke-width="10" stroke-linecap="round" stroke-linejoin="round" stroke-miterlimit="10" d="
	M769.264,466h141.266c14.069,0,25.474-11,25.474-24H743.789C743.789,455,755.194,466,769.264,466z"/>
<line id="ligne1" fill="none" stroke="#2F194F" stroke-width="2" stroke-linecap="round" stroke-linejoin="round" stroke-miterlimit="10" x1="628" y1="210" x2="628" y2="222"/>
<line id="ligne2" fill="none" stroke="#2F194F" stroke-width="2" stroke-linecap="round" stroke-linejoin="round" stroke-miterlimit="10" x1="628" y1="388" x2="628" y2="400"/>
<line id="ligne3" fill="none" stroke="#2F194F" stroke-width="2" stroke-linecap="round" stroke-linejoin="round" stroke-miterlimit="10" x1="695.175" y1="237.825" x2="686.69" y2="246.31"/>
<line id="ligne4" fill="none" stroke="#2F194F" stroke-width="2" stroke-linecap="round" stroke-linejoin="round" stroke-miterlimit="10" x1="569.31" y1="363.69" x2="560.825" y2="372.175"/>
<line id="ligne5" fill="none" stroke="#2F194F" stroke-width="2" stroke-linecap="round" stroke-linejoin="round" stroke-miterlimit="10" x1="725" y1="305" x2="713" y2="305"/>
<line id="ligne6" fill="none" stroke="#2F194F" stroke-width="2" stroke-linecap="round" stroke-linejoin="round" stroke-miterlimit="10" x1="547" y1="305" x2="535" y2="305"/>
<line id="ligne7" fill="none" stroke="#2F194F" stroke-width="2" stroke-linecap="round" stroke-linejoin="round" stroke-miterlimit="10" x1="697.175" y1="372.175" x2="688.69" y2="363.69"/>
<line id="ligne8" fill="none" stroke="#2F194F" stroke-width="2" stroke-linecap="round" stroke-linejoin="round" stroke-miterlimit="10" x1="571.31" y1="246.31" x2="562.825" y2="237.825"/>
<line id="ligne9" fill="none" stroke="#2F194F" stroke-width="2" stroke-linecap="round" stroke-linejoin="round" stroke-miterlimit="10" x1="664.867" y1="216.607" x2="660.23" y2="227.675"/>
<line id="ligne10" fill="none" stroke="#2F194F" stroke-width="2" stroke-linecap="round" stroke-linejoin="round" stroke-miterlimit="10" x1="596.081" y1="380.779" x2="591.444" y2="391.847"/>
<line id="ligne11" fill="none" stroke="#2F194F" stroke-width="2" stroke-linecap="round" stroke-linejoin="round" stroke-miterlimit="10" x1="716.071" y1="268.23" x2="704.966" y2="272.777"/>
<line id="ligne12" fill="none" stroke="#2F194F" stroke-width="2" stroke-linecap="round" stroke-linejoin="round" stroke-miterlimit="10" x1="551.345" y1="335.677" x2="540.24" y2="340.225"/>
<line id="ligne13" fill="none" stroke="#2F194F" stroke-width="2" stroke-linecap="round" stroke-linejoin="round" stroke-miterlimit="10" x1="717.62" y1="341.712" x2="706.552" y2="337.075"/>
<line id="ligne14" fill="none" stroke="#2F194F" stroke-width="2" stroke-linecap="round" stroke-linejoin="round" stroke-miterlimit="10" x1="553.448" y1="272.925" x2="542.38" y2="268.288"/>
<line id="ligne15" fill="none" stroke="#2F194F" stroke-width="2" stroke-linecap="round" stroke-linejoin="round" stroke-miterlimit="10" x1="665.997" y1="392.916" x2="661.45" y2="381.811"/>
<line id="ligne16" fill="none" stroke="#2F194F" stroke-width="2" stroke-linecap="round" stroke-linejoin="round" stroke-miterlimit="10" x1="598.55" y1="228.189" x2="594.003" y2="217.084"/>
<line id="ligne17" fill="#FFFFFF" stroke="#00FDD5" stroke-width="10" stroke-linecap="round" stroke-linejoin="round" stroke-miterlimit="10" x1="394" y1="535" x2="489" y2="535"/>
<line id="ligne18" fill="#FFFFFF" stroke="#00FDD5" stroke-width="10" stroke-linecap="round" stroke-linejoin="round" stroke-miterlimit="10" x1="768" y1="535" x2="884" y2="535"/>
</svg>
