<?xml version="1.0" encoding="utf-8"?>
<!-- Generator: Adobe Illustrator 16.0.0, SVG Export Plug-In . SVG Version: 6.00 Build 0)  -->
<!DOCTYPE svg PUBLIC "-//W3C//DTD SVG 1.1//EN" "http://www.w3.org/Graphics/SVG/1.1/DTD/svg11.dtd">
<svg version="1.1" id="Calque_1" xmlns="http://www.w3.org/2000/svg" xmlns:xlink="http://www.w3.org/1999/xlink" x="0px" y="0px"
	 width="178px" height="234px" viewBox="0 0 178 234" enable-background="new 0 0 178 234" xml:space="preserve">
<g>
	<path fill="#FFFFFF" d="M166.38,21.481v193.101c0,4.397-3.551,7.942-7.942,7.942H19.551c-4.392,0-7.931-3.545-7.931-7.942V21.481
		c0-4.386,3.539-7.931,7.931-7.931h138.887C162.829,13.55,166.38,17.095,166.38,21.481"/>
	<path fill="none" stroke="#1D2B40" stroke-width="4" stroke-miterlimit="10" d="M166.38,21.481v193.101
		c0,4.397-3.551,7.942-7.942,7.942H19.551c-4.392,0-7.931-3.545-7.931-7.942V21.481c0-4.386,3.539-7.931,7.931-7.931h138.887
		C162.829,13.55,166.38,17.095,166.38,21.481z"/>
	<polygon fill="#1D2B40" points="101.087,13.55 88.994,25.637 76.913,13.55 	"/>
	<line fill="none" stroke="#1D2B40" stroke-width="3" stroke-miterlimit="10" x1="166.38" y1="118.694" x2="11.62" y2="118.694"/>
</g>
<path fill="#1D2B40" d="M46.23,137.762c0-6.828,1.072-13.276,3.225-19.346c2.148-6.069,4.961-11.727,8.441-16.974
	c3.475-5.246,7.457-10.115,11.947-14.605c4.486-4.486,9.039-8.63,13.656-12.423c4.613-3.793,9.104-7.236,13.465-10.337
	c4.363-3.097,8.186-5.848,11.477-8.25c2.148,2.402,4.201,4.868,6.164,7.396c1.959,2.531,3.949,4.997,5.975,7.397
	c-2.912,1.896-6.23,4.109-9.959,6.639c-3.73,2.529-7.43,5.058-11.096,7.587c-3.668,2.53-7.018,4.963-10.053,7.301
	c-3.033,2.341-5.311,4.333-6.826,5.976c1.643-1.643,3.666-2.467,6.068-2.467c5.814,0,11.348,1.075,16.596,3.224
	c5.246,2.152,9.83,5.122,13.75,8.915c3.92,3.794,7.02,8.251,9.297,13.372c2.273,5.121,3.412,10.592,3.412,16.405
	c0,5.945-1.139,11.476-3.412,16.596c-2.277,5.121-5.377,9.644-9.297,13.561c-3.92,3.922-8.471,6.987-13.654,9.198
	c-5.188,2.211-10.686,3.32-16.5,3.32c-4.682,0-9.518-0.824-14.51-2.467c-4.998-1.64-9.58-4.173-13.752-7.585
	c-4.174-3.415-7.619-7.806-10.336-13.183C47.588,151.641,46.23,145.225,46.23,137.762z M66.523,137.762
	c0,3.163,0.57,6.163,1.709,9.01c1.137,2.845,2.717,5.343,4.74,7.492c2.02,2.151,4.393,3.857,7.113,5.119
	c2.717,1.267,5.656,1.898,8.82,1.898c3.158,0,6.162-0.632,9.006-1.898c2.848-1.262,5.313-2.968,7.398-5.119
	c2.088-2.149,3.764-4.647,5.027-7.492c1.262-2.847,1.896-5.847,1.896-9.01c0-3.158-0.635-6.163-1.896-9.009
	c-1.264-2.845-2.973-5.34-5.121-7.491c-2.152-2.149-4.619-3.823-7.398-5.026c-2.781-1.201-5.754-1.802-8.912-1.802
	c-3.164,0-6.104,0.601-8.82,1.802c-2.721,1.203-5.094,2.877-7.113,5.026c-2.023,2.151-3.604,4.646-4.74,7.491
	C67.094,131.599,66.523,134.604,66.523,137.762z"/>
</svg>
