<?xml version="1.0" encoding="utf-8"?>
<!-- Generator: Adobe Illustrator 16.0.0, SVG Export Plug-In . SVG Version: 6.00 Build 0)  -->
<!DOCTYPE svg PUBLIC "-//W3C//DTD SVG 1.1//EN" "http://www.w3.org/Graphics/SVG/1.1/DTD/svg11.dtd">
<svg version="1.1" id="Calque_1" xmlns="http://www.w3.org/2000/svg" xmlns:xlink="http://www.w3.org/1999/xlink" x="0px" y="0px"
	 width="178px" height="234px" viewBox="0 0 178 234" enable-background="new 0 0 178 234" xml:space="preserve">
<g>
	<path fill="#FFFFFF" d="M166.38,21.481v193.101c0,4.397-3.551,7.942-7.942,7.942H19.551c-4.392,0-7.931-3.545-7.931-7.942V21.481
		c0-4.386,3.539-7.931,7.931-7.931h138.887C162.829,13.55,166.38,17.095,166.38,21.481"/>
	<path fill="none" stroke="#1D2B40" stroke-width="4" stroke-miterlimit="10" d="M166.38,21.481v193.101
		c0,4.397-3.551,7.942-7.942,7.942H19.551c-4.392,0-7.931-3.545-7.931-7.942V21.481c0-4.386,3.539-7.931,7.931-7.931h138.887
		C162.829,13.55,166.38,17.095,166.38,21.481z"/>
	<polygon fill="#1D2B40" points="101.087,13.55 88.994,25.637 76.913,13.55 	"/>
	<line fill="none" stroke="#1D2B40" stroke-width="3" stroke-miterlimit="10" x1="166.38" y1="118.694" x2="11.62" y2="118.694"/>
</g>
<path fill="#1D2B40" d="M37.407,117.373c0-10.62,1.391-19.914,4.174-27.88c2.779-7.965,6.543-14.604,11.283-19.915
	c4.742-5.311,10.242-9.26,16.502-11.854c6.258-2.59,12.865-3.889,19.818-3.889c7.588,0,14.539,1.488,20.863,4.458
	c6.32,2.971,11.76,7.239,16.313,12.801c4.551,5.566,8.09,12.329,10.621,20.295c2.525,7.965,3.729,16.944,3.604,26.932
	c-0.129,10.117-1.518,19.155-4.174,27.122c-2.656,7.964-6.291,14.669-10.906,20.104c-4.617,5.438-10.084,9.577-16.406,12.422
	c-6.322,2.845-13.15,4.268-20.482,4.268c-7.082,0-13.75-1.423-20.01-4.268c-6.26-2.845-11.697-6.983-16.311-12.422
	c-4.617-5.436-8.252-12.201-10.908-20.295C38.733,137.163,37.407,127.87,37.407,117.373z M56.942,117.942
	c0,6.07,0.787,11.825,2.371,17.26c1.58,5.438,3.793,10.212,6.637,14.319c2.846,4.11,6.229,7.397,10.148,9.863
	c3.918,2.465,8.09,3.699,12.518,3.699c4.426,0,8.598-1.202,12.518-3.604c3.918-2.4,7.332-5.658,10.244-9.768
	c2.906-4.108,5.213-8.915,6.92-14.415c1.707-5.501,2.563-11.285,2.563-17.355c0-4.045-0.477-8.691-1.426-13.939
	c-0.947-5.247-2.59-10.178-4.93-14.795c-2.34-4.613-5.566-8.534-9.672-11.758c-4.111-3.224-9.266-4.836-15.457-4.836
	c-6.576,0-11.949,1.708-16.123,5.121c-4.172,3.414-7.463,7.491-9.863,12.233c-2.4,4.74-4.076,9.705-5.025,14.889
	C57.417,110.041,56.942,114.404,56.942,117.942z"/>
</svg>
