<?xml version="1.0" encoding="utf-8"?>
<!-- Generator: Adobe Illustrator 16.0.0, SVG Export Plug-In . SVG Version: 6.00 Build 0)  -->
<!DOCTYPE svg PUBLIC "-//W3C//DTD SVG 1.1//EN" "http://www.w3.org/Graphics/SVG/1.1/DTD/svg11.dtd">
<svg version="1.1" id="Calque_1" xmlns="http://www.w3.org/2000/svg" xmlns:xlink="http://www.w3.org/1999/xlink" x="0px" y="0px"
	 width="178px" height="234px" viewBox="0 0 178 234" enable-background="new 0 0 178 234" xml:space="preserve">
<g>
	<path fill="#FFFFFF" d="M166.38,21.481v193.101c0,4.397-3.551,7.942-7.942,7.942H19.551c-4.392,0-7.931-3.545-7.931-7.942V21.481
		c0-4.386,3.539-7.931,7.931-7.931h138.887C162.829,13.55,166.38,17.095,166.38,21.481"/>
	<path fill="none" stroke="#1D2B40" stroke-width="4" stroke-miterlimit="10" d="M166.38,21.481v193.101
		c0,4.397-3.551,7.942-7.942,7.942H19.551c-4.392,0-7.931-3.545-7.931-7.942V21.481c0-4.386,3.539-7.931,7.931-7.931h138.887
		C162.829,13.55,166.38,17.095,166.38,21.481z"/>
	<polygon fill="#1D2B40" points="101.087,13.55 88.994,25.637 76.913,13.55 	"/>
	<line fill="none" stroke="#1D2B40" stroke-width="3" stroke-miterlimit="10" x1="166.38" y1="118.694" x2="11.62" y2="118.694"/>
</g>
<path fill="#1D2B40" d="M42.058,149.521c5.816-7.587,11.918-15.362,18.303-23.329c6.385-7.966,12.803-15.993,19.252-24.087
	c6.449-8.091,12.863-16.122,19.25-24.088c6.385-7.966,12.486-15.742,18.303-23.329v76.057h18.777v18.776h-18.777v31.864H97.63
	v-31.864H42.058z M97.63,107.416c-1.014,1.265-2.342,2.94-3.982,5.026c-1.645,2.086-3.318,4.267-5.025,6.543
	s-3.387,4.49-5.027,6.639c-1.645,2.151-2.91,3.858-3.793,5.121H97.63V107.416z"/>
<path fill="#1D2B40" d="M595.906,100.801V32.333h55.383v18.776h-38.5v24.087c0.629-0.251,1.23-0.441,1.801-0.568
	c0.568-0.125,1.422-0.19,2.559-0.19c6.449,0,12.33,1.108,17.641,3.319c5.309,2.214,9.795,5.215,13.465,9.009
	c3.666,3.793,6.51,8.188,8.535,13.182c2.021,4.996,3.035,10.275,3.035,15.837c0,6.068-1.139,11.757-3.416,17.069
	c-2.273,5.31-5.375,9.896-9.291,13.751c-3.922,3.857-8.473,6.892-13.656,9.103c-5.186,2.211-10.688,3.32-16.502,3.32
	c-5.689,0-11.033-1.042-16.025-3.13c-4.998-2.085-9.455-5.025-13.373-8.819c2.402-2.275,4.805-4.486,7.207-6.638
	c2.402-2.148,4.742-4.296,7.02-6.449c2.02,1.773,4.328,3.225,6.922,4.363c2.59,1.138,5.467,1.708,8.631,1.708
	c3.158,0,6.129-0.632,8.912-1.898c2.781-1.262,5.217-2.939,7.303-5.025c2.088-2.086,3.762-4.552,5.027-7.397
	c1.262-2.844,1.896-5.909,1.896-9.199c0-3.158-0.635-6.164-1.896-9.008c-1.266-2.845-2.939-5.34-5.027-7.492
	c-2.086-2.149-4.553-3.823-7.396-5.026c-2.844-1.201-5.85-1.801-9.01-1.801c-3.289,0-6.826,0.412-10.621,1.233
	C602.736,95.271,599.193,97.387,595.906,100.801z"/>
<path fill="#1D2B40" d="M677.336,114.267c0-6.828,1.072-13.276,3.225-19.346c2.148-6.069,4.961-11.726,8.441-16.974
	c3.475-5.246,7.457-10.115,11.947-14.605c4.486-4.486,9.039-8.629,13.656-12.423c4.613-3.793,9.104-7.236,13.465-10.336
	c4.363-3.097,8.186-5.848,11.477-8.25c2.148,2.402,4.201,4.868,6.164,7.396c1.959,2.531,3.949,4.997,5.975,7.397
	c-2.912,1.896-6.23,4.11-9.959,6.639c-3.73,2.53-7.43,5.058-11.096,7.587c-3.668,2.53-7.018,4.963-10.053,7.301
	c-3.033,2.341-5.311,4.333-6.826,5.975c1.643-1.643,3.666-2.466,6.068-2.466c5.814,0,11.348,1.075,16.596,3.224
	c5.246,2.152,9.83,5.122,13.75,8.915c3.92,3.794,7.02,8.251,9.297,13.372c2.273,5.121,3.412,10.592,3.412,16.405
	c0,5.946-1.139,11.476-3.412,16.596c-2.277,5.121-5.377,9.644-9.297,13.561c-3.92,3.921-8.471,6.987-13.654,9.198
	c-5.188,2.211-10.686,3.32-16.5,3.32c-4.682,0-9.518-0.824-14.51-2.466c-4.998-1.64-9.58-4.173-13.752-7.585
	c-4.174-3.415-7.619-7.806-10.336-13.183C678.693,128.146,677.336,121.73,677.336,114.267z M697.629,114.267
	c0,3.163,0.57,6.164,1.709,9.01c1.137,2.845,2.717,5.343,4.74,7.492c2.02,2.151,4.393,3.858,7.113,5.12
	c2.717,1.266,5.656,1.898,8.82,1.898c3.158,0,6.162-0.632,9.006-1.898c2.848-1.262,5.313-2.968,7.398-5.12
	c2.088-2.149,3.764-4.647,5.027-7.492c1.262-2.846,1.896-5.847,1.896-9.01c0-3.158-0.635-6.163-1.896-9.008
	c-1.264-2.845-2.973-5.34-5.121-7.492c-2.152-2.149-4.619-3.823-7.398-5.026c-2.781-1.201-5.754-1.801-8.912-1.801
	c-3.164,0-6.104,0.601-8.82,1.801c-2.721,1.204-5.094,2.877-7.113,5.026c-2.023,2.151-3.604,4.647-4.74,7.492
	C698.199,108.104,697.629,111.108,697.629,114.267z"/>
<path fill="#1D2B40" d="M776.404,51.489V32.333h80.229c-8.602,22.001-16.85,43.148-24.75,63.443
	c-7.904,20.294-15.838,40.873-23.803,61.736h-22.383c6.07-16.185,12.613-33.382,19.633-51.588
	c7.016-18.208,14.002-36.351,20.955-54.434H776.404z"/>
<path fill="#1D2B40" d="M870.162,119.009c0-4.676,0.57-8.914,1.709-12.707c1.137-3.793,2.654-7.175,4.553-10.148
	c1.895-2.969,4.045-5.499,6.447-7.586c2.4-2.085,4.932-3.761,7.586-5.025c-3.289-2.656-5.533-5.658-6.732-9.01
	c-1.201-3.348-1.801-6.478-1.801-9.387c0-4.804,0.82-9.229,2.465-13.277c1.643-4.045,3.855-7.521,6.639-10.43
	c2.779-2.909,6.07-5.152,9.863-6.734c3.793-1.58,7.838-2.371,12.137-2.371s8.375,0.824,12.232,2.466
	c3.857,1.645,7.209,3.888,10.053,6.733c2.846,2.846,5.09,6.258,6.734,10.242c1.641,3.984,2.465,8.315,2.465,12.992
	c0,3.035-0.662,6.229-1.992,9.578c-1.326,3.351-3.697,6.419-7.111,9.199c2.654,1.392,5.184,3.161,7.588,5.31
	c2.398,2.151,4.553,4.679,6.447,7.586c1.898,2.911,3.414,6.26,4.553,10.052c1.137,3.794,1.705,7.966,1.705,12.518
	c0,5.438-1.014,10.653-3.035,15.647c-2.021,4.997-4.9,9.42-8.627,13.276c-3.73,3.859-8.221,6.923-13.467,9.199
	c-5.248,2.276-11.162,3.414-17.734,3.414c-6.576,0-12.488-1.137-17.734-3.414s-9.736-5.34-13.465-9.199
	c-3.73-3.856-6.574-8.279-8.535-13.276C871.143,129.663,870.162,124.448,870.162,119.009z M890.268,118.062
	c0,3.289,0.6,6.354,1.803,9.197c1.199,2.846,2.811,5.31,4.836,7.397c2.021,2.086,4.391,3.764,7.111,5.025
	c2.719,1.267,5.658,1.898,8.82,1.898c3.158,0,6.164-0.632,9.01-1.898c2.846-1.262,5.309-2.939,7.398-5.025
	c2.084-2.087,3.76-4.552,5.023-7.397c1.264-2.844,1.896-5.908,1.896-9.197c0-3.159-0.566-6.132-1.705-8.916
	c-1.139-2.779-2.723-5.215-4.742-7.301c-2.023-2.087-4.395-3.761-7.113-5.026c-2.719-1.263-5.66-1.96-8.818-2.086
	c-3.162,0-6.164,0.568-9.008,1.706c-2.846,1.138-5.346,2.751-7.492,4.837c-2.152,2.086-3.859,4.584-5.123,7.49
	C890.898,111.677,890.268,114.774,890.268,118.062z M900.701,64.007c0,3.288,1.293,6.102,3.887,8.44
	c2.59,2.341,5.529,3.509,8.818,3.509c3.287,0,6.193-1.168,8.727-3.509c2.527-2.338,3.793-5.152,3.793-8.44
	c0-3.415-1.266-6.417-3.793-9.01c-2.533-2.59-5.439-3.887-8.727-3.887c-1.643,0-3.223,0.349-4.74,1.043
	c-1.516,0.696-2.879,1.645-4.078,2.844c-1.203,1.205-2.152,2.593-2.844,4.174C901.047,60.752,900.701,62.365,900.701,64.007z"/>
<path fill="#1D2B40" d="M1052.115,74.816c0,6.828-1.076,13.248-3.225,19.251c-2.15,6.008-4.963,11.636-8.439,16.88
	c-3.479,5.25-7.43,10.146-11.854,14.699c-4.428,4.553-8.947,8.726-13.561,12.518c-4.617,3.793-9.137,7.241-13.563,10.337
	c-4.426,3.099-8.283,5.849-11.568,8.25c-2.152-2.528-4.205-5.026-6.164-7.492c-1.961-2.465-3.953-4.961-5.975-7.493
	c3.035-2.021,6.479-4.329,10.336-6.922c3.855-2.59,7.682-5.184,11.475-7.776c3.793-2.59,7.207-5.056,10.242-7.396
	c3.035-2.338,5.246-4.267,6.639-5.786c-1.771,2.025-4.049,3.036-6.828,3.036c-5.818,0-11.35-1.073-16.596-3.225
	c-5.25-2.148-9.832-5.121-13.75-8.915c-3.922-3.793-7.018-8.217-9.295-13.276c-2.273-5.056-3.414-10.556-3.414-16.5
	c0-5.815,1.141-11.315,3.414-16.502c2.277-5.183,5.373-9.734,9.295-13.655c3.918-3.919,8.469-6.985,13.656-9.199
	c5.184-2.211,10.684-3.319,16.5-3.319c4.676,0,9.512,0.823,14.51,2.466c4.992,1.644,9.576,4.171,13.75,7.586
	c4.172,3.413,7.617,7.808,10.336,13.18C1050.756,60.941,1052.115,67.358,1052.115,74.816z M1031.82,74.816
	c0-3.159-0.568-6.164-1.705-9.008c-1.139-2.846-2.721-5.373-4.742-7.587c-2.025-2.21-4.395-3.95-7.111-5.214
	c-2.721-1.263-5.66-1.897-8.82-1.897c-3.162,0-6.135,0.634-8.916,1.897c-2.781,1.265-5.246,3.004-7.395,5.214
	c-2.152,2.214-3.859,4.742-5.121,7.587c-1.266,2.845-1.896,5.849-1.896,9.008c0,3.29,0.631,6.324,1.896,9.104
	c1.262,2.783,2.969,5.215,5.121,7.302c2.148,2.087,4.613,3.731,7.395,4.931c2.781,1.204,5.754,1.801,8.916,1.801
	c3.16,0,6.1-0.597,8.82-1.801c2.717-1.2,5.086-2.844,7.111-4.931c2.021-2.086,3.604-4.519,4.742-7.302
	C1031.252,81.141,1031.82,78.106,1031.82,74.816z"/>
<path fill="#1D2B40" d="M1054.166,95.87c0-10.62,1.391-19.914,4.174-27.88c2.779-7.965,6.543-14.604,11.283-19.915
	c4.742-5.311,10.242-9.26,16.502-11.854c6.258-2.59,12.865-3.889,19.818-3.889c7.588,0,14.539,1.488,20.863,4.458
	c6.32,2.971,11.76,7.239,16.313,12.801c4.551,5.566,8.09,12.329,10.621,20.295c2.525,7.965,3.729,16.944,3.604,26.932
	c-0.129,10.117-1.518,19.155-4.174,27.122c-2.656,7.964-6.291,14.669-10.906,20.104c-4.617,5.438-10.084,9.577-16.406,12.422
	c-6.322,2.845-13.15,4.268-20.482,4.268c-7.082,0-13.75-1.423-20.01-4.268c-6.26-2.845-11.697-6.983-16.311-12.422
	c-4.617-5.436-8.252-12.201-10.908-20.295C1055.492,115.66,1054.166,106.367,1054.166,95.87z M1073.701,96.439
	c0,6.07,0.787,11.825,2.371,17.26c1.58,5.438,3.793,10.212,6.637,14.319c2.846,4.11,6.229,7.397,10.148,9.863
	c3.918,2.465,8.09,3.699,12.518,3.699c4.426,0,8.598-1.202,12.518-3.604c3.918-2.4,7.332-5.658,10.244-9.768
	c2.906-4.108,5.213-8.915,6.92-14.415c1.707-5.501,2.563-11.285,2.563-17.355c0-4.045-0.477-8.691-1.426-13.939
	c-0.947-5.247-2.59-10.178-4.93-14.795c-2.34-4.613-5.566-8.534-9.672-11.758c-4.111-3.224-9.266-4.836-15.457-4.836
	c-6.576,0-11.949,1.708-16.123,5.121c-4.172,3.414-7.463,7.491-9.863,12.233c-2.4,4.74-4.076,9.705-5.025,14.889
	C1074.176,88.538,1073.701,92.901,1073.701,96.439z"/>
</svg>
