<?xml version="1.0" encoding="utf-8"?>
<!-- Generator: Adobe Illustrator 16.0.0, SVG Export Plug-In . SVG Version: 6.00 Build 0)  -->
<!DOCTYPE svg PUBLIC "-//W3C//DTD SVG 1.1//EN" "http://www.w3.org/Graphics/SVG/1.1/DTD/svg11.dtd">
<svg version="1.1" id="Calque_1" xmlns="http://www.w3.org/2000/svg" xmlns:xlink="http://www.w3.org/1999/xlink" x="0px" y="0px"
	 width="178px" height="234px" viewBox="0 0 178 234" enable-background="new 0 0 178 234" xml:space="preserve">
<g>
	<path fill="#FFFFFF" d="M166.38,21.481v193.101c0,4.397-3.551,7.942-7.942,7.942H19.551c-4.392,0-7.931-3.545-7.931-7.942V21.481
		c0-4.386,3.539-7.931,7.931-7.931h138.887C162.829,13.55,166.38,17.095,166.38,21.481"/>
	<path fill="none" stroke="#1D2B40" stroke-width="4" stroke-miterlimit="10" d="M166.38,21.481v193.101
		c0,4.397-3.551,7.942-7.942,7.942H19.551c-4.392,0-7.931-3.545-7.931-7.942V21.481c0-4.386,3.539-7.931,7.931-7.931h138.887
		C162.829,13.55,166.38,17.095,166.38,21.481z"/>
	<polygon fill="#1D2B40" points="101.087,13.55 88.994,25.637 76.913,13.55 	"/>
	<line fill="none" stroke="#1D2B40" stroke-width="3" stroke-miterlimit="10" x1="166.38" y1="118.694" x2="11.62" y2="118.694"/>
</g>
<path fill="#1D2B40" d="M46.23,140.607c0-4.677,0.57-8.914,1.709-12.707c1.137-3.793,2.654-7.175,4.553-10.147
	c1.895-2.97,4.045-5.499,6.447-7.587c2.4-2.085,4.932-3.761,7.586-5.025c-3.289-2.655-5.533-5.657-6.732-9.01
	c-1.201-3.349-1.801-6.478-1.801-9.388c0-4.804,0.82-9.229,2.465-13.277c1.643-4.045,3.855-7.521,6.639-10.43
	c2.779-2.909,6.07-5.152,9.863-6.734c3.793-1.58,7.838-2.371,12.137-2.371s8.375,0.823,12.232,2.466
	c3.857,1.646,7.209,3.889,10.053,6.733c2.846,2.846,5.09,6.258,6.734,10.241c1.641,3.984,2.465,8.315,2.465,12.992
	c0,3.035-0.662,6.229-1.992,9.578c-1.326,3.352-3.697,6.419-7.111,9.199c2.654,1.392,5.184,3.161,7.588,5.311
	c2.398,2.151,4.553,4.679,6.447,7.586c1.898,2.911,3.414,6.26,4.553,10.052c1.137,3.795,1.705,7.967,1.705,12.519
	c0,5.438-1.014,10.653-3.035,15.647c-2.021,4.997-4.9,9.42-8.627,13.276c-3.73,3.858-8.221,6.923-13.467,9.199
	c-5.248,2.276-11.162,3.413-17.734,3.413c-6.576,0-12.488-1.137-17.734-3.413s-9.736-5.341-13.465-9.199
	c-3.73-3.856-6.574-8.279-8.535-13.276C47.211,151.261,46.23,146.046,46.23,140.607z M66.336,139.66c0,3.289,0.6,6.354,1.803,9.197
	c1.199,2.846,2.811,5.31,4.836,7.397c2.021,2.086,4.391,3.764,7.111,5.025c2.719,1.267,5.658,1.898,8.82,1.898
	c3.158,0,6.164-0.632,9.01-1.898c2.846-1.262,5.309-2.939,7.398-5.025c2.084-2.088,3.76-4.552,5.023-7.397
	c1.264-2.844,1.896-5.908,1.896-9.197c0-3.159-0.566-6.133-1.705-8.916c-1.139-2.779-2.723-5.215-4.742-7.301
	c-2.023-2.087-4.395-3.761-7.113-5.026c-2.719-1.263-5.66-1.96-8.818-2.086c-3.162,0-6.164,0.567-9.008,1.706
	c-2.846,1.138-5.346,2.751-7.492,4.837c-2.152,2.087-3.859,4.584-5.123,7.49C66.967,133.275,66.336,136.372,66.336,139.66z
	 M76.77,85.605c0,3.288,1.293,6.102,3.887,8.439c2.59,2.341,5.529,3.51,8.818,3.51c3.287,0,6.193-1.169,8.727-3.51
	c2.527-2.338,3.793-5.151,3.793-8.439c0-3.415-1.266-6.417-3.793-9.011c-2.533-2.59-5.439-3.887-8.727-3.887
	c-1.643,0-3.223,0.349-4.74,1.043c-1.516,0.695-2.879,1.645-4.078,2.844c-1.203,1.205-2.152,2.594-2.844,4.174
	C77.115,82.351,76.77,83.963,76.77,85.605z"/>
</svg>
