<?xml version="1.0" encoding="utf-8"?>
<!-- Generator: Adobe Illustrator 16.0.0, SVG Export Plug-In . SVG Version: 6.00 Build 0)  -->
<!DOCTYPE svg PUBLIC "-//W3C//DTD SVG 1.1//EN" "http://www.w3.org/Graphics/SVG/1.1/DTD/svg11.dtd">
<svg version="1.1" id="Calque_1" xmlns="http://www.w3.org/2000/svg" xmlns:xlink="http://www.w3.org/1999/xlink" x="0px" y="0px"
	 width="178px" height="234px" viewBox="0 0 178 234" enable-background="new 0 0 178 234" xml:space="preserve">
<g>
	<path fill="#FFFFFF" d="M166.38,21.481v193.101c0,4.397-3.551,7.942-7.942,7.942H19.551c-4.392,0-7.931-3.545-7.931-7.942V21.481
		c0-4.386,3.539-7.931,7.931-7.931h138.887C162.829,13.55,166.38,17.095,166.38,21.481"/>
	<path fill="none" stroke="#1D2B40" stroke-width="4" stroke-miterlimit="10" d="M166.38,21.481v193.101
		c0,4.397-3.551,7.942-7.942,7.942H19.551c-4.392,0-7.931-3.545-7.931-7.942V21.481c0-4.386,3.539-7.931,7.931-7.931h138.887
		C162.829,13.55,166.38,17.095,166.38,21.481z"/>
	<polygon fill="#1D2B40" points="101.087,13.55 88.994,25.637 76.913,13.55 	"/>
	<line fill="none" stroke="#1D2B40" stroke-width="3" stroke-miterlimit="10" x1="166.38" y1="118.694" x2="11.62" y2="118.694"/>
</g>
<path fill="#1D2B40" d="M131.77,98.312c0,6.828-1.076,13.248-3.225,19.251c-2.15,6.008-4.963,11.636-8.439,16.88
	c-3.479,5.249-7.43,10.146-11.854,14.699c-4.428,4.553-8.947,8.726-13.561,12.518c-4.617,3.793-9.137,7.241-13.563,10.338
	c-4.426,3.099-8.283,5.849-11.568,8.25c-2.152-2.528-4.205-5.026-6.164-7.492c-1.961-2.465-3.953-4.961-5.975-7.492
	c3.035-2.021,6.479-4.329,10.336-6.922c3.855-2.591,7.682-5.184,11.475-7.776c3.793-2.591,7.207-5.056,10.242-7.396
	c3.035-2.338,5.246-4.268,6.639-5.786c-1.771,2.025-4.049,3.036-6.828,3.036c-5.818,0-11.35-1.073-16.596-3.225
	c-5.25-2.148-9.832-5.121-13.75-8.915c-3.922-3.793-7.018-8.217-9.295-13.276c-2.273-5.056-3.414-10.556-3.414-16.5
	c0-5.814,1.141-11.314,3.414-16.502c2.277-5.183,5.373-9.734,9.295-13.654c3.918-3.919,8.469-6.985,13.656-9.199
	c5.184-2.211,10.684-3.319,16.5-3.319c4.676,0,9.512,0.823,14.51,2.467c4.992,1.644,9.576,4.171,13.75,7.586
	c4.172,3.413,7.617,7.808,10.336,13.181C130.41,84.437,131.77,90.854,131.77,98.312z M111.475,98.312
	c0-3.159-0.568-6.164-1.705-9.009c-1.139-2.846-2.721-5.373-4.742-7.587c-2.025-2.21-4.395-3.95-7.111-5.215
	c-2.721-1.263-5.66-1.897-8.82-1.897c-3.162,0-6.135,0.635-8.916,1.897c-2.781,1.265-5.246,3.005-7.395,5.215
	c-2.152,2.214-3.859,4.741-5.121,7.587c-1.266,2.845-1.896,5.85-1.896,9.009c0,3.289,0.631,6.324,1.896,9.104
	c1.262,2.783,2.969,5.215,5.121,7.302c2.148,2.087,4.613,3.731,7.395,4.931c2.781,1.204,5.754,1.801,8.916,1.801
	c3.16,0,6.1-0.597,8.82-1.801c2.717-1.199,5.086-2.844,7.111-4.931c2.021-2.087,3.604-4.519,4.742-7.302
	C110.906,104.636,111.475,101.601,111.475,98.312z"/>
</svg>
