<?xml version="1.0" encoding="utf-8"?>
<!-- Generator: Adobe Illustrator 16.0.0, SVG Export Plug-In . SVG Version: 6.00 Build 0)  -->
<!DOCTYPE svg PUBLIC "-//W3C//DTD SVG 1.1//EN" "http://www.w3.org/Graphics/SVG/1.1/DTD/svg11.dtd">
<svg version="1.1" id="Calque_1" xmlns="http://www.w3.org/2000/svg" xmlns:xlink="http://www.w3.org/1999/xlink" x="0px" y="0px"
	 width="178px" height="234px" viewBox="0 0 178 234" enable-background="new 0 0 178 234" xml:space="preserve">
<g>
	<path fill="#FFFFFF" d="M166.38,21.481v193.101c0,4.397-3.551,7.942-7.942,7.942H19.551c-4.392,0-7.931-3.545-7.931-7.942V21.481
		c0-4.386,3.539-7.931,7.931-7.931h138.887C162.829,13.55,166.38,17.095,166.38,21.481"/>
	<path fill="none" stroke="#1D2B40" stroke-width="4" stroke-miterlimit="10" d="M166.38,21.481v193.101
		c0,4.397-3.551,7.942-7.942,7.942H19.551c-4.392,0-7.931-3.545-7.931-7.942V21.481c0-4.386,3.539-7.931,7.931-7.931h138.887
		C162.829,13.55,166.38,17.095,166.38,21.481z"/>
	<polygon fill="#1D2B40" points="101.087,13.55 88.994,25.637 76.913,13.55 	"/>
	<line fill="none" stroke="#1D2B40" stroke-width="3" stroke-miterlimit="10" x1="166.38" y1="118.694" x2="11.62" y2="118.694"/>
</g>
<path fill="#1D2B40" d="M61.214,123.157V54.689h55.383v18.776h-38.5v24.087c0.629-0.251,1.23-0.441,1.801-0.568
	c0.568-0.125,1.422-0.189,2.559-0.189c6.449,0,12.33,1.108,17.641,3.319c5.309,2.214,9.795,5.215,13.465,9.009
	c3.666,3.794,6.51,8.188,8.535,13.182c2.021,4.996,3.035,10.275,3.035,15.838c0,6.068-1.139,11.757-3.416,17.068
	c-2.273,5.311-5.375,9.896-9.291,13.752c-3.922,3.856-8.473,6.892-13.656,9.103c-5.186,2.211-10.688,3.319-16.502,3.319
	c-5.689,0-11.033-1.042-16.025-3.13c-4.998-2.085-9.455-5.025-13.373-8.819c2.402-2.275,4.805-4.486,7.207-6.638
	c2.402-2.148,4.742-4.297,7.02-6.449c2.02,1.773,4.328,3.225,6.922,4.363c2.59,1.138,5.467,1.708,8.631,1.708
	c3.158,0,6.129-0.633,8.912-1.898c2.781-1.262,5.217-2.939,7.303-5.025c2.088-2.087,3.762-4.552,5.027-7.397
	c1.262-2.845,1.896-5.909,1.896-9.199c0-3.158-0.635-6.163-1.896-9.008c-1.266-2.845-2.939-5.341-5.027-7.492
	c-2.086-2.148-4.553-3.822-7.396-5.026c-2.844-1.2-5.85-1.801-9.01-1.801c-3.289,0-6.826,0.411-10.621,1.232
	C68.044,117.628,64.501,119.744,61.214,123.157z"/>
</svg>
