<?xml version="1.0" encoding="utf-8"?>
<!-- Generator: Adobe Illustrator 16.0.0, SVG Export Plug-In . SVG Version: 6.00 Build 0)  -->
<!DOCTYPE svg PUBLIC "-//W3C//DTD SVG 1.1//EN" "http://www.w3.org/Graphics/SVG/1.1/DTD/svg11.dtd">
<svg version="1.1" id="Calque_1" xmlns="http://www.w3.org/2000/svg" xmlns:xlink="http://www.w3.org/1999/xlink" x="0px" y="0px"
	 width="178px" height="234px" viewBox="0 0 178 234" enable-background="new 0 0 178 234" xml:space="preserve">
<g>
	<path fill="#FFFFFF" d="M166.38,21.481v193.101c0,4.396-3.551,7.941-7.942,7.941H19.551c-4.392,0-7.931-3.545-7.931-7.941V21.481
		c0-4.386,3.539-7.931,7.931-7.931h138.887C162.829,13.55,166.38,17.095,166.38,21.481"/>
	<path fill="none" stroke="#1D2B40" stroke-width="4" stroke-miterlimit="10" d="M166.38,21.481v193.101
		c0,4.396-3.551,7.941-7.942,7.941H19.551c-4.392,0-7.931-3.545-7.931-7.941V21.481c0-4.386,3.539-7.931,7.931-7.931h138.887
		C162.829,13.55,166.38,17.095,166.38,21.481z"/>
	<polygon fill="#1D2B40" points="101.087,13.55 88.994,25.637 76.913,13.55 	"/>
	<line fill="none" stroke="#1D2B40" stroke-width="3" stroke-miterlimit="10" x1="166.38" y1="118.693" x2="11.62" y2="118.693"/>
</g>
<g>
	<path fill="#1D2B40" d="M113.217,182.238c-4.113-5.047-7.926-9.92-11.453-14.621c-3.512-4.694-7.037-9.359-10.564-14.004
		c-3.525-4.637-7.066-9.332-10.649-14.09c-3.583-4.752-7.368-9.711-11.366-14.879c-1.291,1.404-2.523,2.674-3.698,3.784
		c-1.176,1.118-2.408,2.265-3.698,3.433v50.377h-23.78V53.835h23.78v46.148c0,0.938-0.058,1.935-0.172,2.996
		c-0.115,1.054-0.244,2.114-0.358,3.168c0.587-0.817,1.204-1.556,1.849-2.2c0.645-0.646,1.262-1.434,1.85-2.38
		c7.983-7.632,15.652-15.559,22.991-23.779c7.338-8.213,14.993-16.205,22.977-23.952h27.305c-8.801,9.281-17.559,18.67-26.244,28.18
		c-8.686,9.511-17.373,18.849-26.059,28.008c4.93,6.343,9.588,12.506,13.991,18.491c4.414,5.991,8.785,11.89,13.129,17.702
		s8.715,11.689,13.115,17.616c4.414,5.927,9.016,12.062,13.832,18.405H113.217z"/>
</g>
</svg>
