<svg xmlns="http://www.w3.org/2000/svg" viewBox="0 0 179.31 424.22"><defs><style>.cls-1{fill:#120d1b;}.cls-2{fill:#2c3070;}.cls-3{fill:#1f203f;}.cls-4{fill:#25254d;}.cls-5{fill:#13152d;}</style></defs><title>Bat#1-1</title><g id="Calque_2" data-name="Calque 2"><path class="cls-1" d="M-29.1,793.43"/></g><g id="Calque_19" data-name="Calque 19"><polygon class="cls-2" points="0 68.34 0 388.63 59.78 424.22 60.85 104.64 43.85 84.99 0 68.34"/><polygon class="cls-3" points="60.6 104.64 59.91 424.22 179.31 355.71 179.31 35.74 103.1 76.36 60.6 104.64"/><polygon class="cls-4" points="0 68.34 118.7 0 179.31 35.74 60.85 104.64 0 68.34"/></g><g id="Calque_84" data-name="Calque 84"><polyline class="cls-5" points="159.06 81.33 159.06 89.69 177.5 79.03 177.5 70.86"/></g><g id="Calque_95" data-name="Calque 95"><polyline class="cls-5" points="62.73 240.27 62.73 248.63 81.18 237.96 81.18 229.8"/><polyline class="cls-5" points="82.17 229.14 82.17 237.5 100.61 226.84 100.61 218.67"/><polyline class="cls-5" points="101.51 218.14 101.51 226.5 119.96 215.84 119.96 207.67"/><polyline class="cls-5" points="120.76 207.14 120.76 215.5 139.21 204.84 139.21 196.67"/><polyline class="cls-5" points="139.89 196.27 139.89 204.63 158.34 193.96 158.34 185.8"/><polyline class="cls-5" points="159.06 185.33 159.06 193.69 177.5 183.03 177.5 174.86"/><polyline class="cls-5" points="62.73 253.27 62.73 261.63 81.18 250.96 81.18 242.8"/><polyline class="cls-5" points="82.17 242.14 82.17 250.5 100.61 239.84 100.61 231.67"/><polyline class="cls-5" points="101.51 231.14 101.51 239.5 119.96 228.84 119.96 220.67"/><polyline class="cls-5" points="120.76 220.14 120.76 228.5 139.21 217.84 139.21 209.67"/><polyline class="cls-5" points="139.89 209.27 139.89 217.63 158.34 206.96 158.34 198.8"/><polyline class="cls-5" points="159.06 198.33 159.06 206.69 177.5 196.03 177.5 187.86"/><polyline class="cls-5" points="62.73 266.27 62.73 274.63 81.18 263.96 81.18 255.8"/><polyline class="cls-5" points="82.17 255.14 82.17 263.5 100.61 252.84 100.61 244.67"/><polyline class="cls-5" points="101.51 244.14 101.51 252.5 119.96 241.84 119.96 233.67"/><polyline class="cls-5" points="120.76 233.14 120.76 241.5 139.21 230.84 139.21 222.67"/><polyline class="cls-5" points="139.89 222.27 139.89 230.63 158.34 219.97 158.34 211.8"/><polyline class="cls-5" points="159.06 211.33 159.06 219.69 177.5 209.03 177.5 200.86"/><polyline class="cls-5" points="62.73 279.27 62.73 287.63 81.18 276.96 81.18 268.8"/><polyline class="cls-5" points="82.17 268.14 82.17 276.5 100.61 265.84 100.61 257.67"/><polyline class="cls-5" points="101.51 257.14 101.51 265.5 119.96 254.84 119.96 246.67"/><polyline class="cls-5" points="120.76 246.14 120.76 254.5 139.21 243.84 139.21 235.67"/><polyline class="cls-5" points="139.89 235.27 139.89 243.63 158.34 232.97 158.34 224.8"/><polyline class="cls-5" points="159.06 224.33 159.06 232.69 177.5 222.03 177.5 213.86"/><polyline class="cls-5" points="62.73 292.27 62.73 300.63 81.18 289.97 81.18 281.8"/><polyline class="cls-5" points="82.17 281.14 82.17 289.5 100.61 278.84 100.61 270.68"/><polyline class="cls-5" points="101.51 270.14 101.51 278.5 119.96 267.84 119.96 259.68"/><polyline class="cls-5" points="120.76 259.14 120.76 267.5 139.21 256.84 139.21 248.68"/><polyline class="cls-5" points="139.89 248.27 139.89 256.63 158.34 245.97 158.34 237.8"/><polyline class="cls-5" points="159.06 237.33 159.06 245.69 177.5 235.03 177.5 226.86"/><polyline class="cls-5" points="62.73 305.27 62.73 313.63 81.18 302.97 81.18 294.8"/><polyline class="cls-5" points="82.17 294.14 82.17 302.51 100.61 291.84 100.61 283.68"/><polyline class="cls-5" points="101.51 283.14 101.51 291.51 119.96 280.84 119.96 272.68"/><polyline class="cls-5" points="120.76 272.14 120.76 280.51 139.21 269.84 139.21 261.68"/><polyline class="cls-5" points="139.89 261.27 139.89 269.63 158.34 258.97 158.34 250.8"/><polyline class="cls-5" points="159.06 250.33 159.06 258.69 177.5 248.03 177.5 239.86"/><polyline class="cls-5" points="62.73 318.27 62.73 326.63 81.18 315.97 81.18 307.8"/><polyline class="cls-5" points="82.17 307.14 82.17 315.51 100.61 304.84 100.61 296.68"/><polyline class="cls-5" points="101.51 296.14 101.51 304.51 119.96 293.84 119.96 285.68"/><polyline class="cls-5" points="120.76 285.14 120.76 293.51 139.21 282.84 139.21 274.68"/><polyline class="cls-5" points="139.89 274.27 139.89 282.63 158.34 271.97 158.34 263.8"/><polyline class="cls-5" points="159.06 263.33 159.06 271.69 177.5 261.03 177.5 252.86"/><polyline class="cls-5" points="62.73 331.27 62.73 339.63 81.18 328.97 81.18 320.8"/><polyline class="cls-5" points="82.17 320.15 82.17 328.51 100.61 317.84 100.61 309.68"/><polyline class="cls-5" points="101.51 309.15 101.51 317.51 119.96 306.84 119.96 298.68"/><polyline class="cls-5" points="120.76 298.14 120.76 306.51 139.21 295.84 139.21 287.68"/><polyline class="cls-5" points="139.89 287.27 139.89 295.63 158.34 284.97 158.34 276.8"/><polyline class="cls-5" points="158.97 276.33 158.97 284.69 177.42 274.03 177.42 265.86"/><polyline class="cls-5" points="120.76 311.15 120.76 319.51 139.21 308.84 139.21 300.68"/><polyline class="cls-5" points="139.89 300.27 139.89 308.63 158.34 297.97 158.34 289.8"/><polyline class="cls-5" points="159.06 289.33 159.06 297.69 177.5 287.03 177.5 278.87"/><polyline class="cls-5" points="139.89 313.27 139.89 321.63 158.34 310.97 158.34 302.8"/><polyline class="cls-5" points="159.06 302.33 159.06 310.7 177.5 300.03 177.5 291.87"/><polyline class="cls-5" points="159.06 315.33 159.06 323.7 177.5 313.03 177.5 304.87"/><polyline class="cls-5" points="58.74 239.96 58.74 248.32 40.3 237.65 40.3 229.49"/><polyline class="cls-5" points="39.62 229.08 39.62 237.44 21.17 226.78 21.17 218.61"/><polyline class="cls-5" points="20.45 218.14 20.45 226.5 2 215.84 2 207.68"/><polyline class="cls-5" points="58.74 252.96 58.74 261.32 40.3 250.65 40.3 242.49"/><polyline class="cls-5" points="39.62 242.08 39.62 250.44 21.17 239.78 21.17 231.61"/><polyline class="cls-5" points="20.45 231.14 20.45 239.5 2 228.84 2 220.68"/><polyline class="cls-5" points="58.74 265.96 58.74 274.32 40.3 263.65 40.3 255.49"/><polyline class="cls-5" points="39.62 255.08 39.62 263.44 21.17 252.78 21.17 244.61"/><polyline class="cls-5" points="20.45 244.14 20.45 252.51 2 241.84 2 233.68"/><polyline class="cls-5" points="58.74 278.96 58.74 287.32 40.3 276.65 40.3 268.49"/><polyline class="cls-5" points="39.62 268.08 39.62 276.44 21.17 265.78 21.17 257.61"/><polyline class="cls-5" points="20.45 257.14 20.45 265.51 2 254.84 2 246.68"/><polyline class="cls-5" points="58.74 291.96 58.74 300.32 40.3 289.66 40.3 281.49"/><polyline class="cls-5" points="39.62 281.08 39.62 289.44 21.17 278.78 21.17 270.62"/><polyline class="cls-5" points="20.45 270.15 20.45 278.51 2 267.84 2 259.68"/><polyline class="cls-5" points="58.74 304.96 58.74 313.32 40.3 302.66 40.3 294.49"/><polyline class="cls-5" points="39.62 294.08 39.62 302.44 21.17 291.78 21.17 283.62"/><polyline class="cls-5" points="20.45 283.15 20.45 291.51 2 280.84 2 272.68"/><polyline class="cls-5" points="58.74 317.96 58.74 326.32 40.3 315.66 40.3 307.49"/><polyline class="cls-5" points="39.62 307.08 39.62 315.45 21.17 304.78 21.17 296.62"/><polyline class="cls-5" points="20.45 296.15 20.45 304.51 2 293.84 2 285.68"/><polyline class="cls-5" points="58.74 330.96 58.74 339.32 40.3 328.66 40.3 320.49"/><polyline class="cls-5" points="39.62 320.08 39.62 328.45 21.17 317.78 21.17 309.62"/><polyline class="cls-5" points="20.45 309.15 20.45 317.51 2 306.85 2 298.68"/><polyline class="cls-5" points="58.74 343.96 58.74 352.32 40.3 341.66 40.3 333.49"/><polyline class="cls-5" points="39.62 333.08 39.62 341.45 21.17 330.78 21.17 322.62"/><polyline class="cls-5" points="20.45 322.15 20.45 330.51 2 319.85 2 311.68"/><polyline class="cls-5" points="39.62 346.09 39.62 354.45 21.17 343.78 21.17 335.62"/><polyline class="cls-5" points="20.45 335.15 20.45 343.51 2 332.85 2 324.68"/><polyline class="cls-5" points="20.45 348.15 20.45 356.51 2 345.85 2 337.68"/><polyline class="cls-5" points="39.62 359.09 39.62 367.45 21.17 356.78 21.17 348.62"/><polyline class="cls-5" points="20.45 348.15 20.45 356.51 2 345.85 2 337.68"/><polyline class="cls-5" points="39.62 359.09 39.62 367.45 21.17 356.78 21.17 348.62"/><polyline class="cls-5" points="20.45 361.15 20.45 369.51 2 358.85 2 350.68"/><polyline class="cls-5" points="39.62 372.09 39.62 380.45 21.17 369.79 21.17 361.62"/><polyline class="cls-5" points="20.45 374.15 20.45 382.51 2 371.85 2 363.68"/><polyline class="cls-5" points="39.62 385.09 39.62 393.45 21.17 382.79 21.17 374.62"/><polyline class="cls-5" points="20.45 387.15 20.45 395.51 2 384.85 2 376.68"/><polyline class="cls-5" points="39.62 398.09 39.62 406.45 21.17 395.79 21.17 387.62"/><polyline class="cls-5" points="62.73 136.27 62.73 144.63 81.18 133.96 81.18 125.8"/><polyline class="cls-5" points="82.17 125.14 82.17 133.5 100.61 122.84 100.61 114.67"/><polyline class="cls-5" points="101.51 114.14 101.51 122.5 119.96 111.84 119.96 103.67"/><polyline class="cls-5" points="120.76 103.14 120.76 111.5 139.21 100.84 139.21 92.67"/><polyline class="cls-5" points="139.89 92.27 139.89 100.63 158.34 89.96 158.34 81.8"/><polyline class="cls-5" points="159.06 81.33 159.06 89.69 177.5 79.03 177.5 70.86"/><polyline class="cls-5" points="62.73 149.27 62.73 157.63 81.18 146.96 81.18 138.8"/><polyline class="cls-5" points="82.17 138.14 82.17 146.5 100.61 135.84 100.61 127.67"/><polyline class="cls-5" points="101.51 127.14 101.51 135.5 119.96 124.84 119.96 116.67"/><polyline class="cls-5" points="120.76 116.14 120.76 124.5 139.21 113.84 139.21 105.67"/><polyline class="cls-5" points="139.89 105.27 139.89 113.63 158.34 102.96 158.34 94.8"/><polyline class="cls-5" points="159.06 94.33 159.06 102.69 177.5 92.03 177.5 83.86"/><polyline class="cls-5" points="62.73 162.27 62.73 170.63 81.18 159.97 81.18 151.8"/><polyline class="cls-5" points="82.17 151.14 82.17 159.5 100.61 148.84 100.61 140.67"/><polyline class="cls-5" points="101.51 140.14 101.51 148.5 119.96 137.84 119.96 129.67"/><polyline class="cls-5" points="120.76 129.14 120.76 137.5 139.21 126.84 139.21 118.67"/><polyline class="cls-5" points="139.89 118.27 139.89 126.63 158.34 115.97 158.34 107.8"/><polyline class="cls-5" points="159.06 107.33 159.06 115.69 177.5 105.03 177.5 96.86"/><polyline class="cls-5" points="62.73 175.27 62.73 183.63 81.18 172.97 81.18 164.8"/><polyline class="cls-5" points="82.17 164.14 82.17 172.5 100.61 161.84 100.61 153.67"/><polyline class="cls-5" points="101.51 153.14 101.51 161.5 119.96 150.84 119.96 142.67"/><polyline class="cls-5" points="120.76 142.14 120.76 150.5 139.21 139.84 139.21 131.67"/><polyline class="cls-5" points="139.89 131.27 139.89 139.63 158.34 128.97 158.34 120.8"/><polyline class="cls-5" points="159.06 120.33 159.06 128.69 177.5 118.03 177.5 109.86"/><polyline class="cls-5" points="62.73 188.27 62.73 196.63 81.18 185.97 81.18 177.8"/><polyline class="cls-5" points="82.17 177.14 82.17 185.5 100.61 174.84 100.61 166.68"/><polyline class="cls-5" points="101.51 166.14 101.51 174.5 119.96 163.84 119.96 155.68"/><polyline class="cls-5" points="120.76 155.14 120.76 163.5 139.21 152.84 139.21 144.68"/><polyline class="cls-5" points="139.89 144.27 139.89 152.63 158.34 141.97 158.34 133.8"/><polyline class="cls-5" points="159.06 133.33 159.06 141.69 177.5 131.03 177.5 122.86"/><polyline class="cls-5" points="62.73 201.27 62.73 209.63 81.18 198.97 81.18 190.8"/><polyline class="cls-5" points="82.17 190.14 82.17 198.51 100.61 187.84 100.61 179.68"/><polyline class="cls-5" points="101.51 179.14 101.51 187.51 119.96 176.84 119.96 168.68"/><polyline class="cls-5" points="120.76 168.14 120.76 176.51 139.21 165.84 139.21 157.68"/><polyline class="cls-5" points="139.89 157.27 139.89 165.63 158.34 154.97 158.34 146.8"/><polyline class="cls-5" points="159.06 146.33 159.06 154.69 177.5 144.03 177.5 135.86"/><polyline class="cls-5" points="62.73 214.27 62.73 222.63 81.18 211.97 81.18 203.8"/><polyline class="cls-5" points="82.17 203.15 82.17 211.51 100.61 200.84 100.61 192.68"/><polyline class="cls-5" points="101.51 192.15 101.51 200.51 119.96 189.84 119.96 181.68"/><polyline class="cls-5" points="120.76 181.15 120.76 189.51 139.21 178.84 139.21 170.68"/><polyline class="cls-5" points="139.89 170.27 139.89 178.63 158.34 167.97 158.34 159.8"/><polyline class="cls-5" points="159.06 159.33 159.06 167.69 177.5 157.03 177.5 148.86"/><polyline class="cls-5" points="62.73 227.27 62.73 235.63 81.18 224.97 81.18 216.8"/><polyline class="cls-5" points="82.17 216.15 82.17 224.51 100.61 213.84 100.61 205.68"/><polyline class="cls-5" points="101.51 205.15 101.51 213.51 119.96 202.84 119.96 194.68"/><polyline class="cls-5" points="120.76 194.15 120.76 202.51 139.21 191.84 139.21 183.68"/><polyline class="cls-5" points="139.89 183.27 139.89 191.63 158.34 180.97 158.34 172.8"/><polyline class="cls-5" points="159.06 172.33 159.06 180.69 177.5 170.03 177.5 161.86"/><polyline class="cls-5" points="120.76 207.15 120.76 215.51 139.21 204.84 139.21 196.68"/><polyline class="cls-5" points="139.89 196.27 139.89 204.63 158.34 193.97 158.34 185.8"/><polyline class="cls-5" points="159.06 185.33 159.06 193.69 177.5 183.03 177.5 174.87"/><polyline class="cls-5" points="139.89 209.27 139.89 217.63 158.34 206.97 158.34 198.8"/><polyline class="cls-5" points="159.06 198.33 159.06 206.7 177.5 196.03 177.5 187.87"/><polyline class="cls-5" points="159.06 211.33 159.06 219.7 177.5 209.03 177.5 200.87"/><polyline class="cls-5" points="58.74 135.96 58.74 144.32 40.3 133.65 40.3 125.49"/><polyline class="cls-5" points="39.62 125.08 39.62 133.44 21.17 122.78 21.17 114.61"/><polyline class="cls-5" points="20.45 114.14 20.45 122.5 2 111.84 2 103.67"/><polyline class="cls-5" points="58.74 148.96 58.74 157.32 40.3 146.65 40.3 138.49"/><polyline class="cls-5" points="39.62 138.08 39.62 146.44 21.17 135.78 21.17 127.61"/><polyline class="cls-5" points="20.45 127.14 20.45 135.5 2 124.84 2 116.67"/><polyline class="cls-5" points="58.74 161.96 58.74 170.32 40.3 159.65 40.3 151.49"/><polyline class="cls-5" points="39.62 151.08 39.62 159.44 21.17 148.78 21.17 140.61"/><polyline class="cls-5" points="20.45 140.14 20.45 148.51 2 137.84 2 129.68"/><polyline class="cls-5" points="58.74 174.96 58.74 183.32 40.3 172.66 40.3 164.49"/><polyline class="cls-5" points="39.62 164.08 39.62 172.44 21.17 161.78 21.17 153.61"/><polyline class="cls-5" points="20.45 153.15 20.45 161.51 2 150.84 2 142.68"/><polyline class="cls-5" points="58.74 187.96 58.74 196.32 40.3 185.66 40.3 177.49"/><polyline class="cls-5" points="39.62 177.08 39.62 185.44 21.17 174.78 21.17 166.62"/><polyline class="cls-5" points="20.45 166.15 20.45 174.51 2 163.84 2 155.68"/><polyline class="cls-5" points="58.74 200.96 58.74 209.32 40.3 198.66 40.3 190.49"/><polyline class="cls-5" points="39.62 190.08 39.62 198.44 21.17 187.78 21.17 179.62"/><polyline class="cls-5" points="20.45 179.15 20.45 187.51 2 176.84 2 168.68"/><polyline class="cls-5" points="58.74 213.96 58.74 222.32 40.3 211.66 40.3 203.49"/><polyline class="cls-5" points="39.62 203.08 39.62 211.45 21.17 200.78 21.17 192.62"/><polyline class="cls-5" points="20.45 192.15 20.45 200.51 2 189.84 2 181.68"/><polyline class="cls-5" points="58.74 226.96 58.74 235.32 40.3 224.66 40.3 216.49"/><polyline class="cls-5" points="39.62 216.09 39.62 224.45 21.17 213.78 21.17 205.62"/><polyline class="cls-5" points="20.45 205.15 20.45 213.51 2 202.84 2 194.68"/><polyline class="cls-5" points="58.74 239.96 58.74 248.32 40.3 237.66 40.3 229.49"/><polyline class="cls-5" points="39.62 229.09 39.62 237.45 21.17 226.78 21.17 218.62"/><polyline class="cls-5" points="20.45 218.15 20.45 226.51 2 215.84 2 207.68"/><polyline class="cls-5" points="39.62 242.09 39.62 250.45 21.17 239.78 21.17 231.62"/><polyline class="cls-5" points="20.45 231.15 20.45 239.51 2 228.84 2 220.68"/><polyline class="cls-5" points="20.45 244.15 20.45 252.51 2 241.85 2 233.68"/><polyline class="cls-5" points="39.62 255.09 39.62 263.45 21.17 252.78 21.17 244.62"/><polyline class="cls-5" points="20.45 244.15 20.45 252.51 2 241.85 2 233.68"/><polyline class="cls-5" points="39.62 255.09 39.62 263.45 21.17 252.78 21.17 244.62"/><polyline class="cls-5" points="20.45 257.15 20.45 265.51 2 254.85 2 246.68"/><polyline class="cls-5" points="39.62 268.09 39.62 276.45 21.17 265.79 21.17 257.62"/><polyline class="cls-5" points="20.45 270.15 20.45 278.51 2 267.85 2 259.68"/><polyline class="cls-5" points="39.62 281.09 39.62 289.45 21.17 278.79 21.17 270.62"/><polyline class="cls-5" points="20.45 283.15 20.45 291.51 2 280.85 2 272.68"/><polyline class="cls-5" points="39.62 294.09 39.62 302.45 21.17 291.79 21.17 283.62"/><polyline class="cls-5" points="62.73 240.27 62.73 248.63 81.18 237.96 81.18 229.8"/><polyline class="cls-5" points="82.17 229.14 82.17 237.5 100.61 226.84 100.61 218.67"/><polyline class="cls-5" points="101.51 218.14 101.51 226.5 119.96 215.84 119.96 207.67"/><polyline class="cls-5" points="120.76 207.14 120.76 215.5 139.21 204.84 139.21 196.67"/><polyline class="cls-5" points="139.89 196.27 139.89 204.63 158.34 193.96 158.34 185.8"/><polyline class="cls-5" points="159.06 185.33 159.06 193.69 177.5 183.03 177.5 174.86"/><polyline class="cls-5" points="62.73 253.27 62.73 261.63 81.18 250.96 81.18 242.8"/><polyline class="cls-5" points="82.17 242.14 82.17 250.5 100.61 239.84 100.61 231.67"/><polyline class="cls-5" points="101.51 231.14 101.51 239.5 119.96 228.84 119.96 220.67"/><polyline class="cls-5" points="120.76 220.14 120.76 228.5 139.21 217.84 139.21 209.67"/><polyline class="cls-5" points="139.89 209.27 139.89 217.63 158.34 206.96 158.34 198.8"/><polyline class="cls-5" points="159.06 198.33 159.06 206.69 177.5 196.03 177.5 187.86"/><polyline class="cls-5" points="62.73 266.27 62.73 274.63 81.18 263.96 81.18 255.8"/><polyline class="cls-5" points="82.17 255.14 82.17 263.5 100.61 252.84 100.61 244.67"/><polyline class="cls-5" points="101.51 244.14 101.51 252.5 119.96 241.84 119.96 233.67"/><polyline class="cls-5" points="120.76 233.14 120.76 241.5 139.21 230.84 139.21 222.67"/><polyline class="cls-5" points="139.89 222.27 139.89 230.63 158.34 219.97 158.34 211.8"/><polyline class="cls-5" points="159.06 211.33 159.06 219.69 177.5 209.03 177.5 200.86"/><polyline class="cls-5" points="62.73 279.27 62.73 287.63 81.18 276.96 81.18 268.8"/><polyline class="cls-5" points="82.17 268.14 82.17 276.5 100.61 265.84 100.61 257.67"/><polyline class="cls-5" points="101.51 257.14 101.51 265.5 119.96 254.84 119.96 246.67"/><polyline class="cls-5" points="120.76 246.14 120.76 254.5 139.21 243.84 139.21 235.67"/><polyline class="cls-5" points="139.89 235.27 139.89 243.63 158.34 232.97 158.34 224.8"/><polyline class="cls-5" points="159.06 224.33 159.06 232.69 177.5 222.03 177.5 213.86"/><polyline class="cls-5" points="62.73 292.27 62.73 300.63 81.18 289.97 81.18 281.8"/><polyline class="cls-5" points="82.17 281.14 82.17 289.5 100.61 278.84 100.61 270.68"/><polyline class="cls-5" points="101.51 270.14 101.51 278.5 119.96 267.84 119.96 259.68"/><polyline class="cls-5" points="120.76 259.14 120.76 267.5 139.21 256.84 139.21 248.68"/><polyline class="cls-5" points="139.89 248.27 139.89 256.63 158.34 245.97 158.34 237.8"/><polyline class="cls-5" points="159.06 237.33 159.06 245.69 177.5 235.03 177.5 226.86"/><polyline class="cls-5" points="62.73 305.27 62.73 313.63 81.18 302.97 81.18 294.8"/><polyline class="cls-5" points="82.17 294.14 82.17 302.51 100.61 291.84 100.61 283.68"/><polyline class="cls-5" points="101.51 283.14 101.51 291.51 119.96 280.84 119.96 272.68"/><polyline class="cls-5" points="120.76 272.14 120.76 280.51 139.21 269.84 139.21 261.68"/><polyline class="cls-5" points="139.89 261.27 139.89 269.63 158.34 258.97 158.34 250.8"/><polyline class="cls-5" points="159.06 250.33 159.06 258.69 177.5 248.03 177.5 239.86"/><polyline class="cls-5" points="62.73 318.27 62.73 326.63 81.18 315.97 81.18 307.8"/><polyline class="cls-5" points="82.17 307.14 82.17 315.51 100.61 304.84 100.61 296.68"/><polyline class="cls-5" points="101.51 296.14 101.51 304.51 119.96 293.84 119.96 285.68"/><polyline class="cls-5" points="120.76 285.14 120.76 293.51 139.21 282.84 139.21 274.68"/><polyline class="cls-5" points="139.89 274.27 139.89 282.63 158.34 271.97 158.34 263.8"/><polyline class="cls-5" points="159.06 263.33 159.06 271.69 177.5 261.03 177.5 252.86"/><polyline class="cls-5" points="62.73 331.27 62.73 339.63 81.18 328.97 81.18 320.8"/><polyline class="cls-5" points="82.17 320.15 82.17 328.51 100.61 317.84 100.61 309.68"/><polyline class="cls-5" points="101.51 309.15 101.51 317.51 119.96 306.84 119.96 298.68"/><polyline class="cls-5" points="120.76 298.14 120.76 306.51 139.21 295.84 139.21 287.68"/><polyline class="cls-5" points="139.89 287.27 139.89 295.63 158.34 284.97 158.34 276.8"/><polyline class="cls-5" points="158.97 276.33 158.97 284.69 177.42 274.03 177.42 265.86"/><polyline class="cls-5" points="120.76 311.15 120.76 319.51 139.21 308.84 139.21 300.68"/><polyline class="cls-5" points="139.89 300.27 139.89 308.63 158.34 297.97 158.34 289.8"/><polyline class="cls-5" points="159.06 289.33 159.06 297.69 177.5 287.03 177.5 278.87"/><polyline class="cls-5" points="139.89 313.27 139.89 321.63 158.34 310.97 158.34 302.8"/><polyline class="cls-5" points="159.06 302.33 159.06 310.7 177.5 300.03 177.5 291.87"/><polyline class="cls-5" points="159.06 315.33 159.06 323.7 177.5 313.03 177.5 304.87"/><polyline class="cls-5" points="58.74 239.96 58.74 248.32 40.3 237.65 40.3 229.49"/><polyline class="cls-5" points="39.62 229.08 39.62 237.44 21.17 226.78 21.17 218.61"/><polyline class="cls-5" points="20.45 218.14 20.45 226.5 2 215.84 2 207.68"/><polyline class="cls-5" points="58.74 252.96 58.74 261.32 40.3 250.65 40.3 242.49"/><polyline class="cls-5" points="39.62 242.08 39.62 250.44 21.17 239.78 21.17 231.61"/><polyline class="cls-5" points="20.45 231.14 20.45 239.5 2 228.84 2 220.68"/><polyline class="cls-5" points="58.74 265.96 58.74 274.32 40.3 263.65 40.3 255.49"/><polyline class="cls-5" points="39.62 255.08 39.62 263.44 21.17 252.78 21.17 244.61"/><polyline class="cls-5" points="20.45 244.14 20.45 252.51 2 241.84 2 233.68"/><polyline class="cls-5" points="58.74 278.96 58.74 287.32 40.3 276.65 40.3 268.49"/><polyline class="cls-5" points="39.62 268.08 39.62 276.44 21.17 265.78 21.17 257.61"/><polyline class="cls-5" points="20.45 257.14 20.45 265.51 2 254.84 2 246.68"/><polyline class="cls-5" points="58.74 291.96 58.74 300.32 40.3 289.66 40.3 281.49"/><polyline class="cls-5" points="39.62 281.08 39.62 289.44 21.17 278.78 21.17 270.62"/><polyline class="cls-5" points="20.45 270.15 20.45 278.51 2 267.84 2 259.68"/><polyline class="cls-5" points="58.74 304.96 58.74 313.32 40.3 302.66 40.3 294.49"/><polyline class="cls-5" points="39.62 294.08 39.62 302.44 21.17 291.78 21.17 283.62"/><polyline class="cls-5" points="20.45 283.15 20.45 291.51 2 280.84 2 272.68"/><polyline class="cls-5" points="58.74 317.96 58.74 326.32 40.3 315.66 40.3 307.49"/><polyline class="cls-5" points="39.62 307.08 39.62 315.45 21.17 304.78 21.17 296.62"/><polyline class="cls-5" points="20.45 296.15 20.45 304.51 2 293.84 2 285.68"/><polyline class="cls-5" points="58.74 330.96 58.74 339.32 40.3 328.66 40.3 320.49"/><polyline class="cls-5" points="39.62 320.08 39.62 328.45 21.17 317.78 21.17 309.62"/><polyline class="cls-5" points="20.45 309.15 20.45 317.51 2 306.85 2 298.68"/><polyline class="cls-5" points="58.74 343.96 58.74 352.32 40.3 341.66 40.3 333.49"/><polyline class="cls-5" points="39.62 333.08 39.62 341.45 21.17 330.78 21.17 322.62"/><polyline class="cls-5" points="20.45 322.15 20.45 330.51 2 319.85 2 311.68"/><polyline class="cls-5" points="39.62 346.09 39.62 354.45 21.17 343.78 21.17 335.62"/><polyline class="cls-5" points="20.45 335.15 20.45 343.51 2 332.85 2 324.68"/><polyline class="cls-5" points="20.45 348.15 20.45 356.51 2 345.85 2 337.68"/><polyline class="cls-5" points="39.62 359.09 39.62 367.45 21.17 356.78 21.17 348.62"/><polyline class="cls-5" points="20.45 348.15 20.45 356.51 2 345.85 2 337.68"/><polyline class="cls-5" points="39.62 359.09 39.62 367.45 21.17 356.78 21.17 348.62"/><polyline class="cls-5" points="20.45 361.15 20.45 369.51 2 358.85 2 350.68"/><polyline class="cls-5" points="39.62 372.09 39.62 380.45 21.17 369.79 21.17 361.62"/><polyline class="cls-5" points="20.45 374.15 20.45 382.51 2 371.85 2 363.68"/><polyline class="cls-5" points="39.62 385.09 39.62 393.45 21.17 382.79 21.17 374.62"/><polyline class="cls-5" points="20.45 387.15 20.45 395.51 2 384.85 2 376.68"/><polyline class="cls-5" points="39.62 398.09 39.62 406.45 21.17 395.79 21.17 387.62"/><polyline class="cls-5" points="62.73 136.27 62.73 144.63 81.18 133.96 81.18 125.8"/><polyline class="cls-5" points="82.17 125.14 82.17 133.5 100.61 122.84 100.61 114.67"/><polyline class="cls-5" points="101.51 114.14 101.51 122.5 119.96 111.84 119.96 103.67"/><polyline class="cls-5" points="120.76 103.14 120.76 111.5 139.21 100.84 139.21 92.67"/><polyline class="cls-5" points="139.89 92.27 139.89 100.63 158.34 89.96 158.34 81.8"/><polyline class="cls-5" points="159.06 81.33 159.06 89.69 177.5 79.03 177.5 70.86"/><polyline class="cls-5" points="62.73 149.27 62.73 157.63 81.18 146.96 81.18 138.8"/><polyline class="cls-5" points="82.17 138.14 82.17 146.5 100.61 135.84 100.61 127.67"/><polyline class="cls-5" points="101.51 127.14 101.51 135.5 119.96 124.84 119.96 116.67"/><polyline class="cls-5" points="120.76 116.14 120.76 124.5 139.21 113.84 139.21 105.67"/><polyline class="cls-5" points="139.89 105.27 139.89 113.63 158.34 102.96 158.34 94.8"/><polyline class="cls-5" points="159.06 94.33 159.06 102.69 177.5 92.03 177.5 83.86"/><polyline class="cls-5" points="62.73 162.27 62.73 170.63 81.18 159.97 81.18 151.8"/><polyline class="cls-5" points="82.17 151.14 82.17 159.5 100.61 148.84 100.61 140.67"/><polyline class="cls-5" points="101.51 140.14 101.51 148.5 119.96 137.84 119.96 129.67"/><polyline class="cls-5" points="120.76 129.14 120.76 137.5 139.21 126.84 139.21 118.67"/><polyline class="cls-5" points="139.89 118.27 139.89 126.63 158.34 115.97 158.34 107.8"/><polyline class="cls-5" points="159.06 107.33 159.06 115.69 177.5 105.03 177.5 96.86"/><polyline class="cls-5" points="62.73 175.27 62.73 183.63 81.18 172.97 81.18 164.8"/><polyline class="cls-5" points="82.17 164.14 82.17 172.5 100.61 161.84 100.61 153.67"/><polyline class="cls-5" points="101.51 153.14 101.51 161.5 119.96 150.84 119.96 142.67"/><polyline class="cls-5" points="120.76 142.14 120.76 150.5 139.21 139.84 139.21 131.67"/><polyline class="cls-5" points="139.89 131.27 139.89 139.63 158.34 128.97 158.34 120.8"/><polyline class="cls-5" points="159.06 120.33 159.06 128.69 177.5 118.03 177.5 109.86"/><polyline class="cls-5" points="62.73 188.27 62.73 196.63 81.18 185.97 81.18 177.8"/><polyline class="cls-5" points="82.17 177.14 82.17 185.5 100.61 174.84 100.61 166.68"/><polyline class="cls-5" points="101.51 166.14 101.51 174.5 119.96 163.84 119.96 155.68"/><polyline class="cls-5" points="120.76 155.14 120.76 163.5 139.21 152.84 139.21 144.68"/><polyline class="cls-5" points="139.89 144.27 139.89 152.63 158.34 141.97 158.34 133.8"/><polyline class="cls-5" points="159.06 133.33 159.06 141.69 177.5 131.03 177.5 122.86"/><polyline class="cls-5" points="62.73 201.27 62.73 209.63 81.18 198.97 81.18 190.8"/><polyline class="cls-5" points="82.17 190.14 82.17 198.51 100.61 187.84 100.61 179.68"/><polyline class="cls-5" points="101.51 179.14 101.51 187.51 119.96 176.84 119.96 168.68"/><polyline class="cls-5" points="120.76 168.14 120.76 176.51 139.21 165.84 139.21 157.68"/><polyline class="cls-5" points="139.89 157.27 139.89 165.63 158.34 154.97 158.34 146.8"/><polyline class="cls-5" points="159.06 146.33 159.06 154.69 177.5 144.03 177.5 135.86"/><polyline class="cls-5" points="62.73 214.27 62.73 222.63 81.18 211.97 81.18 203.8"/><polyline class="cls-5" points="82.17 203.15 82.17 211.51 100.61 200.84 100.61 192.68"/><polyline class="cls-5" points="101.51 192.15 101.51 200.51 119.96 189.84 119.96 181.68"/><polyline class="cls-5" points="120.76 181.15 120.76 189.51 139.21 178.84 139.21 170.68"/><polyline class="cls-5" points="139.89 170.27 139.89 178.63 158.34 167.97 158.34 159.8"/><polyline class="cls-5" points="159.06 159.33 159.06 167.69 177.5 157.03 177.5 148.86"/><polyline class="cls-5" points="62.73 227.27 62.73 235.63 81.18 224.97 81.18 216.8"/><polyline class="cls-5" points="82.17 216.15 82.17 224.51 100.61 213.84 100.61 205.68"/><polyline class="cls-5" points="101.51 205.15 101.51 213.51 119.96 202.84 119.96 194.68"/><polyline class="cls-5" points="120.76 194.15 120.76 202.51 139.21 191.84 139.21 183.68"/><polyline class="cls-5" points="139.89 183.27 139.89 191.63 158.34 180.97 158.34 172.8"/><polyline class="cls-5" points="159.06 172.33 159.06 180.69 177.5 170.03 177.5 161.86"/><polyline class="cls-5" points="120.76 207.15 120.76 215.51 139.21 204.84 139.21 196.68"/><polyline class="cls-5" points="139.89 196.27 139.89 204.63 158.34 193.97 158.34 185.8"/><polyline class="cls-5" points="159.06 185.33 159.06 193.69 177.5 183.03 177.5 174.87"/><polyline class="cls-5" points="139.89 209.27 139.89 217.63 158.34 206.97 158.34 198.8"/><polyline class="cls-5" points="159.06 198.33 159.06 206.7 177.5 196.03 177.5 187.87"/><polyline class="cls-5" points="159.06 211.33 159.06 219.7 177.5 209.03 177.5 200.87"/><polyline class="cls-5" points="58.74 135.96 58.74 144.32 40.3 133.65 40.3 125.49"/><polyline class="cls-5" points="39.62 125.08 39.62 133.44 21.17 122.78 21.17 114.61"/><polyline class="cls-5" points="20.45 114.14 20.45 122.5 2 111.84 2 103.67"/><polyline class="cls-5" points="58.74 148.96 58.74 157.32 40.3 146.65 40.3 138.49"/><polyline class="cls-5" points="39.62 138.08 39.62 146.44 21.17 135.78 21.17 127.61"/><polyline class="cls-5" points="20.45 127.14 20.45 135.5 2 124.84 2 116.67"/><polyline class="cls-5" points="58.74 161.96 58.74 170.32 40.3 159.65 40.3 151.49"/><polyline class="cls-5" points="39.62 151.08 39.62 159.44 21.17 148.78 21.17 140.61"/><polyline class="cls-5" points="20.45 140.14 20.45 148.51 2 137.84 2 129.68"/><polyline class="cls-5" points="58.74 174.96 58.74 183.32 40.3 172.66 40.3 164.49"/><polyline class="cls-5" points="39.62 164.08 39.62 172.44 21.17 161.78 21.17 153.61"/><polyline class="cls-5" points="20.45 153.15 20.45 161.51 2 150.84 2 142.68"/><polyline class="cls-5" points="58.74 187.96 58.74 196.32 40.3 185.66 40.3 177.49"/><polyline class="cls-5" points="39.62 177.08 39.62 185.44 21.17 174.78 21.17 166.62"/><polyline class="cls-5" points="20.45 166.15 20.45 174.51 2 163.84 2 155.68"/><polyline class="cls-5" points="58.74 200.96 58.74 209.32 40.3 198.66 40.3 190.49"/><polyline class="cls-5" points="39.62 190.08 39.62 198.44 21.17 187.78 21.17 179.62"/><polyline class="cls-5" points="20.45 179.15 20.45 187.51 2 176.84 2 168.68"/><polyline class="cls-5" points="58.74 213.96 58.74 222.32 40.3 211.66 40.3 203.49"/><polyline class="cls-5" points="39.62 203.08 39.62 211.45 21.17 200.78 21.17 192.62"/><polyline class="cls-5" points="20.45 192.15 20.45 200.51 2 189.84 2 181.68"/><polyline class="cls-5" points="58.74 226.96 58.74 235.32 40.3 224.66 40.3 216.49"/><polyline class="cls-5" points="39.62 216.09 39.62 224.45 21.17 213.78 21.17 205.62"/><polyline class="cls-5" points="20.45 205.15 20.45 213.51 2 202.84 2 194.68"/><polyline class="cls-5" points="58.74 239.96 58.74 248.32 40.3 237.66 40.3 229.49"/><polyline class="cls-5" points="39.62 229.09 39.62 237.45 21.17 226.78 21.17 218.62"/><polyline class="cls-5" points="20.45 218.15 20.45 226.51 2 215.84 2 207.68"/><polyline class="cls-5" points="39.62 242.09 39.62 250.45 21.17 239.78 21.17 231.62"/><polyline class="cls-5" points="20.45 231.15 20.45 239.51 2 228.84 2 220.68"/><polyline class="cls-5" points="20.45 244.15 20.45 252.51 2 241.85 2 233.68"/><polyline class="cls-5" points="39.62 255.09 39.62 263.45 21.17 252.78 21.17 244.62"/><polyline class="cls-5" points="20.45 244.15 20.45 252.51 2 241.85 2 233.68"/><polyline class="cls-5" points="39.62 255.09 39.62 263.45 21.17 252.78 21.17 244.62"/><polyline class="cls-5" points="20.45 257.15 20.45 265.51 2 254.85 2 246.68"/><polyline class="cls-5" points="39.62 268.09 39.62 276.45 21.17 265.79 21.17 257.62"/><polyline class="cls-5" points="20.45 270.15 20.45 278.51 2 267.85 2 259.68"/><polyline class="cls-5" points="39.62 281.09 39.62 289.45 21.17 278.79 21.17 270.62"/><polyline class="cls-5" points="20.45 283.15 20.45 291.51 2 280.85 2 272.68"/><polyline class="cls-5" points="39.62 294.09 39.62 302.45 21.17 291.79 21.17 283.62"/><polyline class="cls-5" points="58.74 356.96 58.74 365.32 40.3 354.66 40.3 346.49"/><polyline class="cls-5" points="58.74 369.96 58.74 378.32 40.3 367.66 40.3 359.49"/><polyline class="cls-5" points="58.74 382.96 58.74 391.32 40.3 380.66 40.3 372.49"/><polyline class="cls-5" points="58.74 395.96 58.74 404.32 40.3 393.66 40.3 385.49"/><polyline class="cls-5" points="58.74 408.96 58.74 417.32 40.3 406.66 40.3 398.49"/><polyline class="cls-5" points="62.73 344.27 62.73 352.63 81.18 341.96 81.18 333.8"/><polyline class="cls-5" points="82.17 333.14 82.17 341.5 100.61 330.84 100.61 322.67"/><polyline class="cls-5" points="101.51 322.14 101.51 330.5 119.96 319.84 119.96 311.67"/><polyline class="cls-5" points="62.73 357.27 62.73 365.63 81.18 354.96 81.18 346.8"/><polyline class="cls-5" points="82.17 346.14 82.17 354.5 100.61 343.84 100.61 335.67"/><polyline class="cls-5" points="101.51 335.14 101.51 343.5 119.96 332.84 119.96 324.67"/><polyline class="cls-5" points="62.73 370.27 62.73 378.63 81.18 367.97 81.18 359.8"/><polyline class="cls-5" points="82.17 359.14 82.17 367.5 100.61 356.84 100.61 348.68"/><polyline class="cls-5" points="101.51 348.14 101.51 356.5 119.96 345.84 119.96 337.68"/><polyline class="cls-5" points="62.73 383.27 62.73 391.63 81.18 380.97 81.18 372.8"/><polyline class="cls-5" points="82.17 372.14 82.17 380.51 100.61 369.84 100.61 361.68"/><polyline class="cls-5" points="101.51 361.14 101.51 369.51 119.96 358.84 119.96 350.68"/><polyline class="cls-5" points="62.73 396.27 62.73 404.63 81.18 393.97 81.18 385.8"/><polyline class="cls-5" points="82.17 385.14 82.17 393.51 100.61 382.84 100.61 374.68"/><polyline class="cls-5" points="101.51 374.14 101.51 382.51 119.96 371.84 119.96 363.68"/><polyline class="cls-5" points="62.73 409.27 62.73 417.63 81.18 406.97 81.18 398.8"/><polyline class="cls-5" points="82.17 398.15 82.17 406.51 100.61 395.84 100.61 387.68"/><polyline class="cls-5" points="101.51 387.15 101.51 395.51 119.96 384.84 119.96 376.68"/><polyline class="cls-5" points="120.76 324.14 120.76 332.5 139.21 321.84 139.21 313.67"/><polyline class="cls-5" points="120.76 337.14 120.76 345.5 139.21 334.84 139.21 326.68"/><polyline class="cls-5" points="120.76 350.14 120.76 358.51 139.21 347.84 139.21 339.68"/><polyline class="cls-5" points="120.76 363.14 120.76 371.51 139.21 360.84 139.21 352.68"/><polyline class="cls-5" points="120.76 376.14 120.76 384.51 139.21 373.84 139.21 365.68"/><polyline class="cls-5" points="139.89 326.27 139.89 334.63 158.34 323.97 158.34 315.8"/><polyline class="cls-5" points="139.89 339.27 139.89 347.63 158.34 336.97 158.34 328.8"/><polyline class="cls-5" points="139.89 352.27 139.89 360.63 158.34 349.97 158.34 341.8"/><polyline class="cls-5" points="139.89 365.27 139.89 373.63 158.34 362.97 158.34 354.8"/><polyline class="cls-5" points="159.06 328.33 159.06 336.69 177.5 326.03 177.5 317.87"/><polyline class="cls-5" points="159.06 341.33 159.06 349.7 177.5 339.03 177.5 330.87"/><polyline class="cls-5" points="159.06 354.33 159.06 362.7 177.5 352.03 177.5 343.87"/></g></svg>