<svg xmlns="http://www.w3.org/2000/svg" viewBox="0 0 1126.41 718.11"><defs><style>.cls-1,.cls-7{fill:#2d2d2d;}.cls-2{fill:#1c1c1c;}.cls-3{fill:#686969;}.cls-4{fill:#3a3a3a;}.cls-5{fill:#282828;}.cls-6{fill:#212121;}.cls-7{opacity:0.93;}.cls-8{fill:#e22a40;}</style></defs><title>Plateau</title><g id="Calque_1" data-name="Calque 1"><polygon class="cls-1" points="0 335.71 0 376.9 560.25 718.11 560.25 673.1 323.46 452.63 0 335.71"/><polyline class="cls-2" points="560.25 673.07 560.25 718.11 1126.41 391.5 1126.41 348.23 859.63 408.47 560.25 673.07"/><polygon class="cls-3" points="0 335.71 560.25 674.27 1126.41 348.23 557.8 13.8 0 335.71"/><polyline class="cls-4" points="56.55 303.05 0 335.71 560.25 674.27 1126.41 348.23 1070.49 315.34 560.25 610.09 56.55 303.05"/><polyline class="cls-3" points="56.55 292.11 557.8 4.18 557.8 13.8 102.31 285.85 66.43 304.77"/><polyline class="cls-3" points="1070.49 306.02 564.83 0 549.91 8.71 961.5 274.17 1044.62 326.29"/><polygon class="cls-5" points="120.69 347.93 173.9 380.29 127.86 407.06 74.25 374.75 120.69 347.93"/><polygon class="cls-4" points="91.34 363.69 146.77 397.48 141.97 400.27 86.59 367.25 91.34 363.69"/><polygon class="cls-4" points="108.86 353.69 163.93 387.26 159.13 390.05 104.05 356.86 108.86 353.69"/><polygon class="cls-6" points="757.36 500.93 704.15 533.29 750.18 560.05 803.8 527.75 757.36 500.93"/><polygon class="cls-4" points="786.71 516.68 731.28 550.48 736.08 553.27 791.46 520.24 786.71 516.68"/><polygon class="cls-4" points="769.19 506.68 714.12 540.26 718.91 543.05 774 509.86 769.19 506.68"/></g><g id="Calque_37" data-name="Calque 37"><polygon class="cls-1" points="56.55 292.11 56.55 303.05 560.25 610.09 560.25 599.32 56.55 292.11"/><polygon class="cls-2" points="1070.49 306.02 1070.49 315.34 560.25 610.09 560.25 599.32 1070.49 306.02"/></g><g id="Calque_81" data-name="Calque 81"><path class="cls-7" d="M799.45,1010.59h0L676,935.39h0a7.67,7.67,0,1,0-8,13.08h0l123.43,75.19h0a7.67,7.67,0,1,0,8-13.08Z" transform="translate(-423.17 -488.16)"/><path class="cls-7" d="M654.09,922.47h0l-2.93-1.78h0l-9.64-5.87h0a7.67,7.67,0,1,0-8,13.08h0l2,1.2h0l10.6,6.46h0a7.67,7.67,0,1,0,8-13.08Z" transform="translate(-423.17 -488.16)"/><path class="cls-8" d="M815.88,1004.65h0L692.46,929.45h0a7.67,7.67,0,1,0-8,13.08h0l123.43,75.19h0a7.67,7.67,0,1,0,8-13.08Z" transform="translate(-423.17 -488.16)"/><line class="cls-8" x1="318.29" y1="474.15" x2="210" y2="408.18"/><line class="cls-8" x1="202.23" y1="421.39" x2="299.4" y2="480.59"/><path class="cls-8" d="M667.44,914.24h0l-2.93-1.78h0l-9.64-5.87h0a7.67,7.67,0,1,0-8,13.08h0l2,1.2h0l10.6,6.46h0a7.67,7.67,0,1,0,8-13.08Z" transform="translate(-423.17 -488.16)"/></g></svg>