<?xml version="1.0" encoding="utf-8"?>
<!-- Generator: Adobe Illustrator 17.0.0, SVG Export Plug-In . SVG Version: 6.00 Build 0)  -->
<!DOCTYPE svg PUBLIC "-//W3C//DTD SVG 1.0//EN" "http://www.w3.org/TR/2001/REC-SVG-20010904/DTD/svg10.dtd">
<svg version="1.0" id="Calque_1" xmlns="http://www.w3.org/2000/svg" xmlns:xlink="http://www.w3.org/1999/xlink" x="0px" y="0px"
	 width="28px" height="26px" viewBox="83.526 74.015 28 26" enable-background="new 83.526 74.015 28 26" xml:space="preserve">
<circle fill="#000045" cx="103.206" cy="94.043" r="1.736"/>
<rect x="89.206" y="83.183" fill="none" width="9.667" height="12.667"/>
<g enable-background="new    ">
	<path fill="#000045" d="M94.122,84.17v10.623c0,0.559-0.468,0.99-1.008,0.99c-0.558,0-0.99-0.432-0.99-0.99v-8.858l-0.72,0.414
		c-0.162,0.107-0.342,0.144-0.504,0.144c-0.342,0-0.666-0.18-0.846-0.504c-0.306-0.45-0.144-1.08,0.324-1.351l2.214-1.314
		c0.018-0.018,0.054-0.018,0.072-0.036c0.036,0,0.054-0.035,0.09-0.054c0.036,0,0.072-0.018,0.108-0.018
		c0.018-0.019,0.054-0.019,0.072-0.019c0.036-0.018,0.09-0.018,0.126-0.018c0.018,0,0.036,0,0.054,0h0.018c0.054,0,0.09,0,0.126,0
		c0.018,0.018,0.054,0.018,0.072,0.018c0.054,0,0.072,0.019,0.108,0.036c0.018,0,0.054,0,0.072,0.019
		c0.054,0.035,0.072,0.054,0.108,0.054c0.018,0.018,0.036,0.036,0.072,0.054c0.018,0.019,0.054,0.036,0.072,0.054
		c0.036,0.019,0.054,0.055,0.072,0.072c0.018,0.019,0.036,0.036,0.054,0.072c0.018,0.018,0.054,0.054,0.072,0.072l0.018,0.036
		c0,0.018,0.018,0.035,0.018,0.054c0.018,0.036,0.036,0.054,0.036,0.09c0.018,0.036,0.018,0.072,0.036,0.09
		c0,0.036,0.018,0.072,0.018,0.09c0,0.055,0,0.091,0.036,0.126C94.122,84.134,94.122,84.152,94.122,84.17z"/>
</g>
</svg>
