<?xml version="1.0" encoding="utf-8"?>
<!-- Generator: Adobe Illustrator 17.0.0, SVG Export Plug-In . SVG Version: 6.00 Build 0)  -->
<!DOCTYPE svg PUBLIC "-//W3C//DTD SVG 1.0//EN" "http://www.w3.org/TR/2001/REC-SVG-20010904/DTD/svg10.dtd">
<svg version="1.0" id="Calque_1" xmlns="http://www.w3.org/2000/svg" xmlns:xlink="http://www.w3.org/1999/xlink" x="0px" y="0px"
	 width="28px" height="26px" viewBox="83.526 74.015 28 26" enable-background="new 83.526 74.015 28 26" xml:space="preserve">
<circle fill="#000045" cx="103.658" cy="91.543" r="1.736"/>
<rect x="89.658" y="80.683" fill="none" width="11.736" height="12.667"/>
<g enable-background="new    ">
	<path fill="#000045" d="M98.966,92.293c0,0.559-0.432,0.99-0.99,0.99h-6.374c0,0,0,0-0.018,0h-0.018
		c-0.27,0-0.558-0.108-0.738-0.324c-0.378-0.414-0.342-1.026,0.054-1.404l5.329-4.825c0.522-0.469,0.756-1.081,0.756-1.729
		c0-0.576-0.198-1.116-0.594-1.566c-0.468-0.522-1.098-0.757-1.729-0.757c-0.558,0-1.116,0.198-1.566,0.595l-0.558,0.504
		c-0.414,0.378-1.026,0.342-1.404-0.072c-0.36-0.414-0.342-1.026,0.072-1.404l0.559-0.504c0.81-0.757,1.872-1.116,2.898-1.116
		c1.17,0,2.359,0.486,3.205,1.422c0.756,0.811,1.116,1.873,1.116,2.899c0,1.17-0.486,2.358-1.422,3.205l-3.403,3.078h3.835
		C98.534,91.284,98.966,91.735,98.966,92.293z"/>
</g>
</svg>
