<?xml version="1.0" encoding="utf-8"?>
<!-- Generator: Adobe Illustrator 17.0.0, SVG Export Plug-In . SVG Version: 6.00 Build 0)  -->
<!DOCTYPE svg PUBLIC "-//W3C//DTD SVG 1.0//EN" "http://www.w3.org/TR/2001/REC-SVG-20010904/DTD/svg10.dtd">
<svg version="1.0" id="Calque_1" xmlns="http://www.w3.org/2000/svg" xmlns:xlink="http://www.w3.org/1999/xlink" x="0px" y="0px"
	 width="28px" height="26px" viewBox="83.526 74.015 28 26" enable-background="new 83.526 74.015 28 26" xml:space="preserve">
<circle fill="#000045" cx="105.791" cy="91.552" r="1.736"/>
<rect x="91.791" y="80.692" fill="none" width="12.402" height="12.667"/>
<g enable-background="new    ">
	<path fill="#000045" d="M99.786,85.64c0.882,0.864,1.314,2.017,1.314,3.151c0,1.134-0.432,2.286-1.314,3.169
		c-0.864,0.864-2.017,1.314-3.169,1.314c-1.134,0-2.287-0.45-3.151-1.314c-0.396-0.396-0.396-1.045,0-1.44
		c0.396-0.396,1.044-0.396,1.44,0c0.468,0.468,1.081,0.702,1.71,0.702c0.63,0,1.243-0.234,1.729-0.702
		c0.486-0.486,0.721-1.099,0.721-1.729c0-0.631-0.234-1.243-0.721-1.711c-0.468-0.486-1.08-0.702-1.71-0.72
		c-0.288,0.018-0.558-0.108-0.738-0.324c-0.018,0-0.018,0-0.018-0.019c-0.415-0.396-0.415-1.026-0.036-1.44l1.836-1.872h-2.917
		c-0.558,0-1.008-0.45-1.008-1.026c0-0.559,0.45-1.009,1.008-1.009h5.312c0.576,0,1.026,0.45,1.026,1.009
		c0,0.18-0.054,0.342-0.126,0.486c-0.054,0.09-0.108,0.18-0.18,0.252l-2.269,2.341C98.994,84.974,99.426,85.262,99.786,85.64z"/>
</g>
</svg>
