<?xml version="1.0" encoding="UTF-8" standalone="no"?>
<!-- Generator: Adobe Illustrator 17.0.0, SVG Export Plug-In . SVG Version: 6.00 Build 0)  -->

<svg
   xmlns:dc="http://purl.org/dc/elements/1.1/"
   xmlns:cc="http://creativecommons.org/ns#"
   xmlns:rdf="http://www.w3.org/1999/02/22-rdf-syntax-ns#"
   xmlns:svg="http://www.w3.org/2000/svg"
   xmlns="http://www.w3.org/2000/svg"
   xmlns:xlink="http://www.w3.org/1999/xlink"
   xmlns:sodipodi="http://sodipodi.sourceforge.net/DTD/sodipodi-0.dtd"
   xmlns:inkscape="http://www.inkscape.org/namespaces/inkscape"
   version="1.1"
   id="Calque_1"
   x="0px"
   y="0px"
   width="1280px"
   height="800px"
   viewBox="0 0 1280 800"
   enable-background="new 0 0 1280 800"
   onload="hideBulle(['littleWallID', 'theWallID']);intialize(this,['theWall', 'littleWall']);"
   xml:space="preserve"
   sodipodi:docname="Amerique.svg"
   inkscape:version="0.92.0 r"><metadata
     id="metadata4459"><rdf:RDF><cc:Work
         rdf:about=""><dc:format>image/svg+xml</dc:format><dc:type
           rdf:resource="http://purl.org/dc/dcmitype/StillImage" /></cc:Work></rdf:RDF></metadata><defs
     id="defs4457" /><sodipodi:namedview
     pagecolor="#ffffff"
     bordercolor="#666666"
     borderopacity="1"
     objecttolerance="10"
     gridtolerance="10"
     guidetolerance="10"
     inkscape:pageopacity="0"
     inkscape:pageshadow="2"
     inkscape:window-width="1920"
     inkscape:window-height="1025"
     id="namedview4455"
     showgrid="false"
     inkscape:zoom="0.83625"
     inkscape:cx="832.1912"
     inkscape:cy="621.2697"
     inkscape:window-x="1280"
     inkscape:window-y="29"
     inkscape:window-maximized="1"
     inkscape:current-layer="Calque_1" /><rect
     y="-1"
     fill="#AEB8D5"
     width="1280"
     height="800"
     id="rect3680"
     style="fill:none" /><g
     id="g3718"><sodipodi:namedview
       pagecolor="#ffffff"
       showgrid="false"
       inkscape:cx="593.00732"
       objecttolerance="10"
       inkscape:zoom="1.144"
       borderopacity="1"
       bordercolor="#666666"
       guidetolerance="10"
       inkscape:cy="460.46398"
       gridtolerance="10"
       id="namedview231"
       inkscape:pageopacity="0"
       inkscape:window-height="1137"
       inkscape:window-x="1192"
       inkscape:current-layer="svg2"
       inkscape:pageshadow="2"
       inkscape:window-maximized="1"
       inkscape:window-y="118"
       inkscape:window-width="1920" /><path
       id="BZ_3_"
       inkscape:connector-curvature="0"
       fill="#4D6E8F"
       stroke="#FFFFFF"
       stroke-width="1.6085"
       stroke-miterlimit="10"
       d="   M609.06,766.798l4.107-6.453l2.933-0.587l3.813-4.987l2.933-9.387l-0.88-1.76l2.64-6.747l-1.173-2.933l3.813-7.92l0.88-5.28H624.9   l0.293-2.64h-2.933l-7.333,11.44l-2.64-2.347l-2.053,0.88l-0.293,2.933l-2.053,14.667l-3.52,21.12L609.06,766.798L609.06,766.798z" /><path
       id="CA_3_"
       inkscape:connector-curvature="0"
       fill="#4D6E8F"
       stroke="#FFFFFF"
       stroke-width="2"
       stroke-miterlimit="10"
       d="   M1280,74.7l-3.02-6.32l-9.98-2.35V51.07l-6.74-5.57l-20.24-4.7l-8.22-9.97l-3.8-2.69l-10.28-7.28L1227.7,10l-3.1-11h-201.46   l0.69,6.9l-4.98,11.73l-13.79,12.03l-22,12.32l-26.4,8.21l4.99,9.39l-6.46,28.16l-16.42,18.48l-13.5,5.57l-12.9-17.01l-0.3-19.95   l4.99-17.6l10.56-15.25l-14.08-1.76l-22-1.18l-10.56-7.33l-14.08-4.69l-4.99-8.51l-9.68-6.45L831.7,4.43l-20.83,3.59L812.29-1   H273.46l-4.07,18.35l-0.01,0.06l13.48,11.09l0.02,0.02l-9.1,10.84l-14.96,8.49l-7.33,9.09l6.16,12.9l-9.09,14.38l12.02,7.62   l-10.56,10.86l-3.81,16.13l20.24,7.33l4.69,7.94l15.84,17.9h400.69l3.33-7.06V145h4.99l-2.25,9.99l2.99,3.01h0.04l3.74,0.39   l5.62,0.66l0.02-0.01l13.5,2.92l11.14,5.57l6.46-1.18l6.45-1.18l15.55,4.7l9.38-7.04l9.39-2.94l5.28-4.4l4.4-2.34l11.73,3.52   l9.68,0.58l2.35,2.35l0.29,10.27l15.26,2.93l-4.99,4.99l3.52,5.57l-5.57,6.75l5.28,2.34l-5.58,6.16l3.52,0.59l3.82-2.64l1.46,4.11   l9.98,2.05l11.14,0.29l11.15,1.76l11.73,3.52l2.35,5.87l4.11,13.79l-7.04,5.86l-11.15-2.34l-2.93-11.15l-2.64,11.44l-11.15,9.97   l-2.35,8.51l-3.22,4.99l-12.03,5.86l-10.85,9.98l-5.87,6.45l7.92,1.17l13.2-5.86l8.51-4.99l4.69-0.88l7.63,1.76l4.98-2.64   l8.22-2.35l13.78-2.34l0.88-5.28l-0.88,0.29l-4.98,0.88l-5.28-1.76l6.74-6.16l5.58-2.05l11.44-2.64l13.49-2.64l5.28,3.52l5.57-4.11   l5.58-2.35l2.64,1.18l0.29,0.29l19.65-12.18l7.92-3.38h49.87l2.93-4.83l4.99-0.95l7.33-2.67l7.92-8.24l0.01-0.02l1.25-1.91   l8.13-12.45l-0.03-0.01l16.05-13.78v0.01l3.29,4.97l9.4-2.78l1.47-0.44l0.01,0.01l4.41,5.27l-8.21,24.93l6.17,10.26l17.31-2.34   l23.75-0.59l-30.5,14.96l-4.4,15.25l10.85,1.47l20.83-13.2l17.01-7.04l35.79-10.85l22-12.03l-7.63-6.45l2.93-13.2l-20.82,20.53   l-25.23,2.35l-16.13-9.1l-0.3-13.49l1.76-19.94l17.9-12.03l-9.68-9.09l-22.29,1.76l-35.5,15.25l-31.97,24.05l-13.49,2.94   l22.88-16.72l29.62-24.35l21.12-7.92l16.72-12.91l15.25-1.46l21.42,0.29l29.33,3.81l25.23-2.93l22.88-14.96l3.82-0.97l21.7-5.48   l12.32-6.16l12.32-6.75L1280,75.8l0.2-0.68L1280,74.7z M231.84,59.87l-14.38,1.47l-4.69-2.35l-5.57,5.87l-4.11,7.62l2.64,5.58   l-1.76,7.97l2.05,7.97h5.58l-0.59-14.13L231.84,59.87z M1291.35,167.23l0.88-9.68l-10.73,3.19l-0.12,0.04l0.12-0.2l8.09-13.3   l-8.09-3.57l-1.5-0.67l-3.02-1.33l-7.92,4.4l-11.44-4.99l7.04-6.16l-8.51-3.81l-11.15,5.87l14.38-15.84l11.44-11.15l4.1-4.99   l-6.16-0.88l-14.37,6.46l-12.32,10.26L1228,137.9l-9.69,11.73l-15.55,10.85l4.7,4.99l-11.15,6.45l0.59,5.57l28.16,0.3l2.94-0.16   l12.9-0.72l12.9,4.4l-12.9,8.5l8.5,0.59l21.42-15.84l3.52,2.35l-7.34,14.96l8.8,3.52l4.2-0.37l1.5-0.13l1.05-0.09l10.27-16.13   L1291.35,167.23z M264.69,143.18l-1.17-8.51l-0.3-6.16l-12.02-2.05l-7.04-2.64l-12.03-4.11l-4.11,4.4l-1.76,9.68l12.62,3.23   l-1.28,5.28l8.4,6.45v6.45l18.34,8.21l8.66-2.63v-0.01l0.84-9.97L264.69,143.18z M1157.59,139.07l-17.31-4.7l-5.57,1.76l10.27,8.51   l16.72,5.57l7.33-0.29l0.59-3.23L1157.59,139.07z M1136.76,198.91l-9.97-2.35l-2.05-8.8l-7.34,5.57l1.47,6.16l16.43,7.63l5.57-1.17   l9.68-7.34L1136.76,198.91z" /><path
       id="CU_3_"
       inkscape:connector-curvature="0"
       fill="#4D6E8F"
       stroke="#FFFFFF"
       stroke-width="1.6085"
       stroke-miterlimit="10"
       d="   M774.793,638.319l-14.373-6.16l-12.613-0.293l-13.787-1.467l-4.107,2.053l-12.32,1.76l-8.8,3.813l-7.92,4.107l-4.4,6.747   l-9.093,5.867l6.453,1.76l8.507-2.053l2.64-4.693l6.747-0.293l12.907-9.68l15.84,0.88l-6.747,4.693l5.28,3.813l20.533,2.933   l4.4,3.813l14.373,4.987l9.387-0.587l2.347,10.56l4.987,5.28l10.267,1.173l6.16,4.987l-12.027,10.267l23.173-1.76l11.147,1.467   l10.853-0.88l11.147-2.347l2.347-4.4l-11.44-7.627l-11.733-0.88l1.76-4.987l-9.093-3.813h-5.573l-8.8-8.213l-12.32-11.733   l-5.28-4.4l-15.253,2.347L774.793,638.319L774.793,638.319z" /><path
       id="DO_3_"
       inkscape:connector-curvature="0"
       fill="#4D6E8F"
       stroke="#FFFFFF"
       stroke-width="1.6085"
       stroke-miterlimit="10"
       d="   M893.885,726.612v5.28l4.107,2.933l7.627-12.907l5.867-2.64l1.76,4.693l6.453-1.173l3.227-3.52l5.28,0.88l7.627-0.587l7.333,3.813   l6.747-7.627l-7.333-6.747l-7.04-0.587l0.88-5.573l-8.8,0.293l-2.347-6.453l-4.107,0.293l-9.093-4.693l-12.907-0.293l-2.347,3.227   l0.587,10.267l-2.053,7.04l-4.4,3.227l3.52,5.573L893.885,726.612L893.885,726.612z" /><polygon
       fill="#4D6E8F"
       stroke="#FFFFFF"
       stroke-width="2"
       stroke-miterlimit="10"
       points="620.21,769.73 611.99,776.77    603.78,782.05 602.31,785.57 603.19,789.39 599.38,794.08 595.27,795.25 595.86,797.3 593.19,799 559.69,799 552.45,792.03    553.62,786.45 555.97,782.05 553.95,778.46 553.91,778.39 563.59,763 584.42,763 585.57,757.11 585.59,756.98 583.25,755.88    581.78,751.8 576.21,747.28 571.17,741.28 570.93,741 578.55,741 579.14,736 579.73,731 594.98,731 609.92,731 609.94,731    607.89,745.775 604.4,766.763 604.37,767 609.06,767 614.05,770.13 615.81,767.44  "
       id="polygon3691" /><polygon
       fill="#4D6E8F"
       stroke="#FFFFFF"
       stroke-width="2"
       stroke-miterlimit="10"
       points="701.75,783.52 696.18,782.93    693.54,785.61 687.67,788 683.57,788 679.78,790 679.77,790 679.75,790.16 676.53,789.335 673.9,786.733 673.89,786.741    672.18,787.321 672.13,787.335 669.78,791.728 668.31,791.439 667.43,795.249 663.06,799 606.7,799 603.78,795.55 599.43,794.1    599.38,794.08 603.19,789.39 602.31,785.57 603.78,782.05 611.99,776.77 620.21,769.73 621.97,770.32 625.78,767.09 630.47,766.8    631.94,768.56 634.58,767.39 641.91,769.15 649.54,768.56 654.82,766.51 657.17,764.45 662.15,765.63 665.97,766.8 670.37,766.21    673.59,764.75 680.93,767.39 683.27,767.68 687.97,771.2 692.37,775.31 697.94,778.24  "
       id="polygon3693" /><path
       id="HT_3_"
       inkscape:connector-curvature="0"
       fill="#4D6E8F"
       stroke="#FFFFFF"
       stroke-width="1.6085"
       stroke-miterlimit="10"
       d="   M896.819,695.226l-13.493-2.933l-9.973-0.587l-4.107,4.987l9.973,2.933l-0.88,7.04l6.453,8.213l-6.16,4.107l-12.32-1.467   l-14.667-2.64l-2.053,6.16l8.213,5.573l7.92-3.227l9.68,1.173l7.92-1.173l10.56,3.227l0.587-5.28l-3.52-5.573l4.4-3.227l2.053-7.04   L896.819,695.226z" /><path
       id="JM_3_"
       inkscape:connector-curvature="0"
       fill="#4D6E8F"
       stroke="#FFFFFF"
       stroke-width="1.6085"
       stroke-miterlimit="10"
       d="   M809.113,729.839l11.44-0.293l-2.347-5.28l-7.92-4.4l-10.853-1.76l-3.52-0.587l-7.04,1.173l-2.347,4.4l8.507,6.747l8.8,2.933   L809.113,729.839L809.113,729.839z" /><path
       id="MX_3_"
       inkscape:connector-curvature="0"
       fill="#4D6E8F"
       stroke="#FFFFFF"
       stroke-width="1.6085"
       stroke-miterlimit="10"
       d="   M497.301,581.119l-10.56-4.107l-11.44-5.867l-2.347-8.8l-0.587-13.2l-7.04-10.56l-2.933-10.853l-4.693-12.907l-9.093-7.333   l-12.907,0.293l-14.08,14.667l-11.733-5.573l-6.453-5.573l-1.173-10.267l-2.347-9.68l-7.04-8.213l-6.16-5.867l-3.813-6.453h-27.28   l-2.347,7.627h-12.613h-31.387l-31.387-12.907l-20.827-9.093l2.933-3.813l-20.533,2.053l-18.48,1.467l0.587,16.72l2.053,14.96   l2.053,12.027l2.347,11.733l7.627,5.28l8.507,13.2l-2.933,8.507l-7.92,6.747l-6.16-0.88l-1.76,1.467l6.747,10.853l8.507,4.4   l2.933,4.987l2.64-2.64l9.093,8.507l6.16,5.867l0.293,9.973l-3.52,13.787l7.333,4.693l9.68,9.093l8.507,10.56l2.053,11.44h2.933   l7.92-6.747l1.173-3.52l-4.4-8.213l-4.693-8.507l-7.627-0.587l1.173-9.973l-2.64-8.8l-2.933-8.213l-1.467-17.307l-7.627-9.387   l-1.76-6.747l-3.52-4.693V532.72l-2.933,0.293l-0.293-6.453l-2.053-1.467l-1.173-4.107l-7.92-12.907l-3.227-7.627l2.933-14.08   l0.293-8.8l5.28-7.627l7.04,4.987l5.573-0.587l9.093,7.333l-2.64,7.04l1.173,14.373l4.4,13.787l-1.173,5.867l4.987,9.093   l6.747,9.973l7.92,1.467l0.88,12.907l7.04,9.093l7.333,4.4l-5.28,11.733l2.053,4.4l12.027,7.627l5.573,11.733l13.2,14.373   l11.147,18.773l3.813,9.387v7.333l4.107,8.507l-0.88,6.453l-4.693,4.693l0.88,5.28l-5.573,2.053l2.347,9.093l6.453,11.733   l15.547,10.56l5.573,8.507l15.84,5.867l8.8,1.173l3.52,4.987l12.32,8.8l17.307,8.8l11.733,2.64l14.08,8.507l11.733,3.52   l10.853,4.987l8.507-2.053l14.08-7.04l9.093-1.173l12.907,4.693l7.627,6.16l16.133,20.24l1.173-5.573l2.347-4.4l-2.053-3.52   l9.68-15.253h20.827l1.173-6.16l-2.347-1.173l-1.467-4.107l-5.573-4.4l-5.28-6.16h7.627l1.173-10.56h15.253l14.96,0.293   l0.293-2.933l2.053-0.88l2.64,2.347l7.333-11.44h2.933l3.52-0.293l3.52,4.693l5.867-14.667l3.52-7.92l-2.64-3.227l5.28-11.44   l10.267-11.147l1.76-9.093l-3.52-3.813l-9.973,1.467l-14.08-0.587l-17.6,4.4l-11.733,4.987l-3.52,5.28l-3.52,15.84l-5.28,10.853   l-11.44,7.627l-10.56,3.227l-12.613,3.227l-12.613,1.76l-14.96,5.28l-5.573-7.627l-16.427-4.987l-5.28-9.387l-2.053-10.56   l-8.8-13.787l-1.173-14.667l-3.52-9.093l-1.467-9.973l3.227-9.093l5.28-25.227l5.28-13.2l9.093-16.427L497.301,581.119   L497.301,581.119z" /><polygon
       fill="#4D6E8F"
       stroke="#FFFFFF"
       stroke-width="2"
       stroke-miterlimit="10"
       points="699.99,785.28 698.82,789.38    699.7,796.13 697.87,799 663.06,799 667.43,795.25 668.31,791.44 669.78,791.73 672.185,787.33 674,786.74 674,786.75    676.585,789.38 679.777,790.3 683.57,788 687.67,788 693.54,785.61 696.18,782.95 701.75,783.53  "
       id="polygon3698" /><polygon
       fill="#4D6E8F"
       stroke="#FFFFFF"
       stroke-width="2"
       stroke-miterlimit="10"
       points="604,795.55 606.7,799 593.19,799    595.86,797.3 595.27,795.25 599.43,794.1 599.49,794.08 604,795.54  "
       id="polygon3700" /><path
       id="US_3_"
       inkscape:connector-curvature="0"
       fill="#4D6E8F"
       stroke="#FFFFFF"
       stroke-width="2"
       stroke-miterlimit="10"
       d="   M269.39,17.35l-0.01-0.01L273.43-1h-15.18l-3.53,7.19l4.69,14.37l-9.68,15.26l7.33,5.57l1.76,6.45l14.96-8.5l9.08-10.84l0.02-0.02   L269.39,17.35z M1061.38,212.11l8.21-24.93l-4.4-5.28l-0.02,0.01l-1.48,0.43l-9.35,2.71l-3.22-5.05H1051v0.15l-16,13.77v0.01   l-8.15,12.45l-1.25,1.91l-0.01,0.02l-7.92,8.2l-7.33,2.64l-4.99,1.02l-2.93,4.83h-49.87l-7.92,3.38l-19.65,12.25l0.59,2.6   l-1.76,7.03l-13.5,5.86l-11.44-1.48l-11.73-0.59l-7.63,2.06l-0.88,5.28l-0.29,1.76L861.33,274l-13.2,5.28l-8.51,2.35l-10.85,4.98   l-11.74,2.64l-7.33-0.88l-7.92-3.81l7.92-7.04l5.87-6.45l10.85-9.98l2.05-7.33l1.47-10.27l-4.69-2.05l-12.62,8.21l-2.64-0.29   l0.88-4.4l11.15-7.33l4.69-8.22l2.06-8.21l-7.92-7.04l-10.86-3.81l-4.98,7.04l-4.11,1.76l-6.45,9.09l1.17-6.16l-7.63,4.4   l-6.16,5.87l-7.62,9.09l-3.82,7.63l0.3,11.14l-5.28,11.74l-9.68,8.8l-4.11,2.42l-4.69,1.83h-5.28l-0.88-0.95l-0.3-9.57l2.06-4.64   l2.05-4.38l1.76-8.78l7.33-10.26l8.51-12.63L775.67,220h-2.05l-15.84,11.74l-1.17-2.04l8.5-6.74l13.79-11.73l10.85-1.47l12.91-3.81   l10.85,2.05h0.3l13.78-1.46l-4.4-7.34l-3.52-0.58l-4.1-0.88l-1.18-4.99l-14.96,1.47l-14.66,4.1l-7.34-6.74l-7.33-2.35l9.09-9.68   l-15.54,5.87l-14.38,6.16l-13.49,4.4l-6.16-6.16l-16.13,3.81l1.17-2.64l13.49-7.63l13.79-7.33l17.31-6.16l-15.55-4.69l-6.45,1.17   l-6.46,1.17l-11.14-5.57l-13.5-2.93l-5.64-0.71l-3.74-0.47l-2.94-2.9l2.35-9.94h-4.69l-3.82,7H289.04l-4.7,14.94l-7.04,14.96   l-6.74,4.69l3.22-17.31l-17.01-6.16l-4.11,3.52l-1.17,8.51l-5.28,15.84l-12.32,24.34l-11.73,16.43l-11.74,16.43l-15.84,17.01   l-3.22,13.79l-8.22,15.54l-11.44,15.26l2.94,9.97l-5.58,15.25l4.4,15.84l3.82,6.46l-2.35,4.4l1.17,26.4l7.34,19.06l-2.35,10.27   l2.93,2.93l13.5,2.06l3.81,4.98l8.21,0.88l-0.29,5.58l6.45,2.05l6.16,10.85l-0.88,9.39l18.48-1.47l20.54-2.05l-2.94,3.81   l20.83,8.88L309.28,478h44l1.66-4.97l0.02-0.06l0.66-1.97h27.28l3.81,6.36l6.16,5.83l7.04,8.19l2.14,9.67l0.95,10.26v0.01   l6.68,5.56l11.83,5.57l0.03,0.06l0.07-0.07l1.74-1.8l0.64-0.66l0.17-0.18l0.38-0.39L435.65,508h0.05l12.88-0.41l9.11,7.29   l4.52,12.88l2.79,10.83v0.01l7.2,10.56l0.67,13.19l2.39,8.8l11.46,5.86l10.57,4.11l6.16-0.59l-1.75-6.45l1.17-9.09l2.94-12.91   l5.57-8.21l10.85-9.1l17.6-7.92l17.9-13.78l14.37-4.4l10.27-1.18l10.26,4.11l14.38-2.35l9.68,9.98l11.14,0.58l7.04-3.52l4.99,2.64   l3.81-2.34l-2.64-3.82l2.06-7.33l-1.47-4.99l7.04-2.93l12.32-1.17l13.79,2.05l18.18-2.35l8.8,4.4l5.87,8.8l2.64,0.88l17.89-8.5   l5.58,2.93l8.8,15.55l2.34,10.26l-5.86,12.32l1.17,7.34l4.69,14.37l5.87,16.13l5.28,4.11l1.17,8.21l7.63,2.35l4.99-2.35l5.86-11.44   l2.06-7.33l2.64-12.61l-3.52-21.71l1.46-7.92l-4.4-13.2l-2.05-15.84l0.29-12.91l5.28-13.2l10.27-11.14l10.85-8.8l20.24-12.03   l3.82-6.45l9.68-6.75l8.21-1.17l12.91-11.15l17.6-5.57l13.49-14.08l2.64-19.07l0.29-6.45l-4.1-1.18l4.4-18.18l-8.96-6.16l9.23,2.93   v-12.03l5.74-7.92l-2.87,15.55l5.91,7.33l-8.49,12.91l1.19,0.59l12.91-14.96l7.04-7.34l1.76-7.33l-2.64-3.23l-0.29-10.26l3.52,4.69   l3.23,1.17l-0.3,4.7l15.26-14.38l7.33-13.2l-4.11-0.88l6.16-5.24l-1.17,2.39h9.68l22.88-5.61l-3.23-3.54l-23.17,3.51l14.08-5.28   l9.09-0.89l7.04-0.88l12.03-3.23l7.04,0.29l11.14-2.93l2.94-4.99l-3.23-4.1l-0.59,6.45l-6.15-0.29l-1.76-9.68l3.22-9.68l4.11-3.82   l11.44-10.85l17.31-5.28l17.6-6.16l18.47-8.8l-0.58-5.87L1061.38,212.11z" /><path
       id="AI_3_"
       inkscape:connector-curvature="0"
       fill="#4D6E8F"
       stroke="#FFFFFF"
       stroke-width="1.6085"
       stroke-miterlimit="10"
       d="   M1035.565,723.092l0.293-0.587l-0.587-0.293l-2.347,1.467v0.293L1035.565,723.092z" /><path
       id="AG_3_"
       inkscape:connector-curvature="0"
       fill="#4D6E8F"
       stroke="#FFFFFF"
       stroke-width="2"
       stroke-miterlimit="10"
       d="   M1054.63,733h-1.47l-0.29,0.19l0.29,1.7l1.51,0.85l0.33-0.62v-1.47L1054.63,733z M1054.67,743.92l-0.31-0.59l-1.04-0.58l-1.32,1.46   v0.59l0.14,0.88l1.69,0.29l0.59-0.58l0.58-0.3v-0.88L1054.67,743.92z" /><path
       id="BS_3_"
       inkscape:connector-curvature="0"
       fill="#4D6E8F"
       stroke="#FFFFFF"
       stroke-width="2"
       stroke-miterlimit="10"
       d="   M825.54,566.75l-1.17-0.59l-0.3-0.59l0.3-0.58l-0.59-0.3l-0.88-0.58l-1.17-1.76l-1.18-1.18l-2.05-0.29l-1.76-0.29l-1.17-0.38   L814.1,561h2.35l4.4,0.97l2.05,4.44l1.47,1.2l0.25,1.18l-0.62,1.18v1.18l-0.85,1.46l-0.27,2.35l-0.87,1.17l-2.04,1.47l1.17,0.59   l0.88,1.76l0.59-0.3l0.58-0.88l1.18-5.28l2.34-1.76l0.3-3.52L825.54,566.75z M813.51,564.11l-2.34,0.58l-2.94-0.29l-0.58,0.6h-1.18   l-1.76-0.6l-1.29-1.17L803,564.4v0.29l-0.46,0.88l-1.55,1.18l-1.52,0.29l-2.07-1.76l-0.6-0.29l2.35,3.46l0.87,0.55h1.17l2.64-1.13   l4.7-1.59l4.98-0.65l0.3-0.61L813.51,564.11z M837.86,594.03l-0.88-0.88l-2.05-2.64l-2.06-0.88l-2.34-2.06l-0.88-1.46l-0.3,0.29   l-0.29,1.17l-0.88,1.18l1.47-0.3l1.17,0.3l1.76,1.46l2.05,0.59l0.75,1.76l1.62,1.76v1.76l-1.04,1.76l-0.22,2.05l-1.72,0.3l0.3,0.29   l0.89,0.88l0.25,1.17l0.54,0.59v-2.05l0.93-2.35l1.2-3.81L837.86,594.03z M809.41,600.48l-0.88-2.64l-0.59-1.17l0.29-1.47   l-0.88-1.17l-1.76-1.18l-0.88,0.3l0.3,3.22l-0.59,1.76l-2.35,3.23l0.3,1.17l0.19,0.59l-1.56,1.17v-0.88l-1.67,0.3l0.93,1.46   l1.79,1.18l0.97,0.29l0.98-0.59v1.47l0.8,1.17l0.25,1.18l0.86-0.88l1.75-0.59l0.43-0.59l1.91-1.17v-0.59l0.44-1.76l0.36-2.05   L809.41,600.48z M818.5,595h-2.05l-1.18,0.39l-0.58,0.64l0.29,0.32l1.17,0.31l1.76-0.3l1.47-0.67L818.5,595z M846,607.52v-0.59   l-1.58-4.4l-0.94-0.29l-0.31,0.29l-0.32,0.59l1.15,1.17v1.18l0.89,0.58l1.18,3.23l1.18,1.17l-0.3,0.88l-1.17,0.98l-0.29,0.69H849   v-1.37L846,607.52z M811.29,611.33l-1.09,1.76l-1.07-0.88l1.87-1.17v-0.29l-0.65-1.1l-0.94,0.35h-1.47l-0.59,1h-1.17l-0.88,0.46   l1.17,2.28l0.88,0.85l0.3,2.92l0.58,0.29l-0.29,2.04l3.06,0.29l1-2.34v-4.99L811.29,611.33z M862.21,613h-0.3l-0.88,0.33   l-0.88,2.67h0.88l1.47-2.09L862.21,613z M839.62,624.98l-0.59-0.96l-2.05-2.09l-0.88-0.31l-0.59,1.16l1.18,0.29l2.64,2.2l1.17,0.73   h0.59L839.62,624.98z M851.89,632.45l-1.74-1.17l-0.27-3.52l-0.88-2.05l-0.71-1.76L847,621.6v1.47l0.41,0.29l0.36,1.76l1.21,2.64   l0.3,1.17l-0.28,1.18l-1.17,0.29l-0.29,0.59l1.47,0.88l2.34,0.88l1.41,3.81l0.24-0.59v-2.05L851.89,632.45z M865.14,639.2   l-1.76-0.59l-0.59-1.17l-1.34-0.29l-0.45,0.58v0.59l0.45,1.17l0.68-0.29l2.38,1.17l1.2-0.88L865.14,639.2z M868.66,638.91   l-1.76,0.29l-0.29,0.88l-0.4,0.88l0.79,1.17v0.59l-0.49,1.17l-0.83,0.3l-0.27,0.58l-0.87,0.3l-1.17,1.46l-2.34,1.76l-0.58,0.88   l1.17-0.58l2.05-1.76l2.06-0.88l2.64-3.23l-0.3-2.64L868.66,638.91z M885.38,646.24l-1.17-0.92l-1.76-0.32h-0.59l-0.88-0.27   l-1.17-0.56l-0.88,1.47l0.88,0.31l2.05-0.3l1.47,0.3l1.46,1.17l0.88-0.59L885.38,646.24z M879.81,660.91l-1.18,0.88l0.3,0.88   l2.05-0.88L879.81,660.91z M878.34,665.6l-1.47,2.28l-1.76,1.12h-0.88l-2.05-1h-1.47l-1.17,1.3l-1.79,0.2l0.25,0.21v0.58l-1,0.88   v0.59l0.54,0.88l4.52-0.29l3.87-0.59l2.09-2.64l0.59-1.47l0.6-1.76L878.34,665.6z" /><path
       id="BM_3_"
       inkscape:connector-curvature="0"
       fill="#4D6E8F"
       stroke="#FFFFFF"
       stroke-width="1.6085"
       stroke-miterlimit="10"
       d="   M1042.311,460.853l1.173-1.76h-0.293l-1.467,1.467l-1.76,0.587l0.293,0.293h0.293L1042.311,460.853z" /><path
       id="KY_3_"
       inkscape:connector-curvature="0"
       fill="#4D6E8F"
       stroke="#FFFFFF"
       stroke-width="2"
       stroke-miterlimit="10"
       d="   M766.58,694h-0.29l-0.3,1h-0.29l-1.47,1h0.59l0.59-0.53l1.46-0.88L766.58,694z M762.77,695h-0.3l-0.88,1h1.47L762.77,695z    M743.41,702.34l-2.35-0.33l-0.29,0.28l-0.59,0.28l-0.59-0.3l-0.3-0.88l-0.29,0.29V703h4.7L743.41,702.34z" /><path
       id="DM_3_"
       inkscape:connector-curvature="0"
       fill="#4D6E8F"
       stroke="#FFFFFF"
       stroke-width="1.6085"
       stroke-miterlimit="10"
       d="   M1058.738,778.532l0.88-2.053l-0.293-2.933l-0.587-1.173l-2.347-0.88v0.587l-0.293,1.467l0.88,2.347l0.293,3.227L1058.738,778.532z   " /><path
       id="KN_3_"
       inkscape:connector-curvature="0"
       fill="#4D6E8F"
       stroke="#FFFFFF"
       stroke-width="2"
       stroke-miterlimit="10"
       d="   M1039.67,740.99l-0.29-0.3l-0.59-1.17l-1.17-1.17l-0.46,0.29l-0.16,0.59v0.29l0.75,0.88l1.11,0.29l0.55,1.18l0.57-0.3   L1039.67,740.99z M1040.84,742H1040v1.63l0.36,0.58l0.64-0.58v-0.88L1040.84,742z" /><path
       id="MS_3_"
       inkscape:connector-curvature="0"
       fill="#4D6E8F"
       stroke="#FFFFFF"
       stroke-width="1.6085"
       stroke-miterlimit="10"
       d="   M1047.005,750.959l-0.293-1.467h-0.293l-0.587,1.173v0.88l0.88,0.293L1047.005,750.959z" /><path
       id="PR_3_"
       inkscape:connector-curvature="0"
       fill="#4D6E8F"
       stroke="#FFFFFF"
       stroke-width="2"
       stroke-miterlimit="10"
       d="   M990.96,719.87l-1.75-0.72l-3.22-0.15h-0.29l-0.59-0.35l-0.29-0.65h-0.59l-10.27-0.09l-3.81-0.49l-0.88,0.34l-0.88,0.32l-0.29,1.19   l-0.59,0.59l-0.88,0.59l0.3,0.88l0.29,0.59l0.59,1.17l-0.3,1.47l-0.58,2.93l0.88,0.59l2.05-0.29l0.88,0.29l0.88,0.29l1.17-0.29   l1.18-0.59l2.64,0.3l1.46-0.3l1.76,0.88l1.18-0.47l0.58,0.1h2.64l2.64-0.4l2.35-1.37l0.88-1.43l1.16-0.85l1.74-1.15v-2.64   L990.96,719.87z M996.84,724h-1.76l-1.46,0.5l0.29,0.5h2.05l2.04-0.15v-0.29L996.84,724z M955.19,725.15v0.58l0.59,0.3v0.29h0.29   v-0.29h0.29v-0.3l0.3-0.29v-0.29H955.19z" /><path
       id="SX_3_"
       inkscape:connector-curvature="0"
       fill="#4D6E8F"
       stroke="#FFFFFF"
       stroke-width="1.6085"
       stroke-miterlimit="10"
       d="   M1033.218,726.025L1033.218,726.025l0.587,0.587l0.88,0.293l0.293-0.293v-0.587H1033.218z" /><path
       id="TC_3_"
       inkscape:connector-curvature="0"
       fill="#4D6E8F"
       stroke="#FFFFFF"
       stroke-width="2"
       stroke-miterlimit="10"
       d="   M898.29,655.55l-0.3-1.55H897v0.16l-0.18,0.84h0.29l0.3,0.46l0.88,0.52l0.29-0.21L898.29,655.55z M901.81,655.92l-2.14-0.59   l-0.67,0.3V657h1.93l1.07,0.39v-0.3l0.49-0.58L901.81,655.92z M892.92,656.51l-1.69-1.18l-0.23,1.18v0.58l0.56,0.3l1.75-0.3   l0.2-0.29l0.49-0.29v-0.3L892.92,656.51z" /><path
       id="VG_3_"
       inkscape:connector-curvature="0"
       fill="#4D6E8F"
       stroke="#FFFFFF"
       stroke-width="2"
       stroke-miterlimit="10"
       d="   M1013.56,713l0.3,1h2.14v-1H1013.56z M1012.98,717.81l-0.59,0.74l0.29,0.45h0.59l1.17-1.32L1012.98,717.81z M1010.34,719h-1.18   l-0.88,0.64l0.3,0.36h1.46l0.88-0.65L1010.34,719z" /><path
       id="VI_3_"
       inkscape:connector-curvature="0"
       fill="#4D6E8F"
       stroke="#FFFFFF"
       stroke-width="2"
       stroke-miterlimit="10"
       d="   M1005.06,720.45l-0.88-0.29l-1.17,0.29l1.46,0.88l1.18-0.29L1005.06,720.45z M1007.4,720.45l-0.58,0.59l0.88,0.29l1.17-0.58   L1007.4,720.45z M1007.4,732l-1.17-0.94l-2.05,0.68l-0.3,1.26h3.23l2.05-1H1007.4z" /><path
       id="MQ_3_"
       inkscape:connector-curvature="0"
       fill="#4D6E8F"
       stroke="#FFFFFF"
       stroke-width="1.6085"
       stroke-miterlimit="10"
       d="   M1065.191,792.612l-0.587-2.053l-0.293-0.587l-0.587-0.88l0.293-0.88v-0.293h-0.587l-0.88-1.467l-1.76-0.88h-0.88l-0.587,0.587   v0.88l0.88,2.64l0.587,0.587l1.467,0.587l-1.173,1.173v0.293l0.293,0.88h2.64l0.587,0.88l0.293-0.293L1065.191,792.612   L1065.191,792.612z" /><path
       id="GP_3_"
       inkscape:connector-curvature="0"
       fill="#4D6E8F"
       stroke="#FFFFFF"
       stroke-width="2"
       stroke-miterlimit="10"
       d="   M1059.45,758l-0.45-1.17v-0.88l-1.31-0.88l-0.65,0.58l-0.33,0.88L1057,758l-0.89,1.17l0.28,1.18l1.17,0.29l2.06-0.29l2.41-0.59   L1059.45,758z M1055.22,759.17l-0.59-0.58l-1.76-0.59l-0.29,0.29l-0.59,0.88l0.29,4.4l0.59,1.47l0.59,0.29l1.7-0.88l0.84-0.58   v-3.52l0.05-0.88L1055.22,759.17z M1060.46,764.45l-0.73,0.3l-0.73,0.88v0.88l0.62,0.49h0.88l0.5-0.79v-0.88L1060.46,764.45z" /></g><polyline
     id="littleWall"
     fill="none"
     stroke="#97FF3C"
     stroke-width="10.492"
     stroke-linecap="round"
     stroke-linejoin="round"
     stroke-miterlimit="10"
     points="  968.307,717.706 976.917,718.429 996.15,716.479 "
     inkscape:label="#_x31_959_1_"
     onclick=""
     onmouseover="document.getElementById('littleWallID').setAttribute('visibility', 'visible' ); lineUp(this,14);"
     onmouseout="document.getElementById('littleWallID').setAttribute('visibility', 'hidden' ); lineUp(this,10.492);" /><g
     id="theWall"
     onmouseover="document.getElementById('theWallID').setAttribute('visibility', 'visible' ); lineUp(this,14);lineUp(this,'theWall');"
     onmouseout="document.getElementById('theWallID').setAttribute('visibility', 'hidden' ); lineUp(this,10.492);lineDown('theWall');"
     inkscape:label="#_x32_006_8_"><polyline
       fill="none"
       stroke="#97FF3C"
       stroke-width="10.492"
       stroke-linecap="round"
       stroke-linejoin="round"
       stroke-miterlimit="10"
       points="   221.659,454.481 260.234,451.005 257.741,454.775 309.167,476.451 352.903,476.776 356.149,469.657 383.586,469.149 387.4,475.602    400.6,489.683 402.947,499.363 404.059,509.096 410.574,515.204 422.308,520.777 436.388,506.11  "
       id="polyline3723" /><polyline
       fill="none"
       stroke="#97FF3C"
       stroke-width="10.492"
       stroke-linecap="round"
       stroke-linejoin="round"
       stroke-miterlimit="10"
       points="   458.649,513.865 466.016,536.911 473.057,547.472  "
       id="polyline3725" /><polyline
       fill="none"
       stroke="#97FF3C"
       stroke-width="10.492"
       stroke-linecap="round"
       stroke-linejoin="round"
       stroke-miterlimit="10"
       points="   475.99,569.473 497.991,579.447 503.971,578.2  "
       id="polyline3727" /></g><g
     id="theWallID"
     inkscape:label="#g3852"
     visibility="hidden"><line
       fill="none"
       stroke="#FFFFFF"
       stroke-width="2"
       stroke-miterlimit="10"
       x1="356.527"
       y1="413.506"
       x2="379.761"
       y2="469.074"
       id="line3730" /><circle
       fill="#FFFFFF"
       cx="379.761"
       cy="469.074"
       r="2.828"
       id="circle3732" /><g
       id="g3850"><circle
         fill="#FFFFFF"
         cx="352.397"
         cy="400.722"
         r="27.365"
         id="circle3734" /><g
         id="g3848"><g
           id="g3744"><g
             id="g3738"><path
               fill="#CB5740"
               d="M369,391.514v17.478c0,1.044-0.311,2.008-1.355,2.008H337.9c-0.912,0-1.68-0.708-1.861-1.568       c-0.026-0.126-0.039-0.31-0.039-0.441v-17.478c0-0.033,0-0.065,0.002-0.098c0.004-0.063,0.011-0.126,0.02-0.189       c0.015-0.091,0.037,0.011,0.063-0.076c0.239-0.775,0.964-1.151,1.815-1.151h29.745C368.689,390,369,390.469,369,391.514z"
               id="path3736" /></g><g
             id="g3742"><path
               fill="#DE705F"
               d="M337.9,410c-0.384,0-0.762-0.371-0.841-0.747c-0.01-0.05-0.059-0.204-0.059-0.261V391.48       c0-0.023,0.048-0.056,0.052-0.089c0.007-0.039,0.038,0.071,0.05,0.033c0.103-0.336,0.444-0.423,0.797-0.423h29.745       c0.441,0,0.355,0.072,0.355,0.514v17.478c0,0.441,0.086,1.008-0.355,1.008H337.9z"
               id="path3740" /></g></g><g
           id="g3748"><path
             fill="#D63E36"
             d="M338.273,390.38c0,0.957-0.775,1.638-1.735,1.638c-0.189,0-0.369-0.127-0.538-0.183v-0.321      c0-1.044,0.855-1.514,1.9-1.514h0.276C338.238,390,338.273,390.178,338.273,390.38z"
             id="path3746" /></g><g
           id="g3752"><path
             fill="#D63E36"
             d="M369,391.514v0.352c0,0.037-0.014,0.056-0.166,0.056c-0.957,0-1.599-0.584-1.599-1.542      c0-0.202,0.171-0.38,0.234-0.38h0.176C368.689,390,369,390.469,369,391.514z"
             id="path3750" /></g><g
           id="g3756"><path
             fill="#D63E36"
             d="M369,408.484v0.508c0,1.044-0.311,2.008-1.355,2.008h-0.113c-0.104-0.434-0.161-0.523-0.161-0.784      c0-0.957,0.505-1.762,1.462-1.762C368.986,408.454,369,408.447,369,408.484z"
             id="path3754" /></g><g
           id="g3760"><path
             fill="#D63E36"
             d="M338.273,410.433c0,0.178-0.026,0.35-0.078,0.567H337.9c-1.044,0-1.9-0.964-1.9-2.008v-0.261      c0.169-0.056,0.35-0.06,0.538-0.06C337.498,408.671,338.273,409.476,338.273,410.433z"
             id="path3758" /></g><g
           id="g3764"><rect
             x="344"
             y="390"
             fill="#D63E36"
             width="2"
             height="21"
             id="rect3762" /></g><g
           id="g3768"><rect
             x="359.665"
             y="390"
             fill="#D63E36"
             width="1.303"
             height="21"
             id="rect3766" /></g><g
           id="g3782"><g
             id="g3772"><rect
               x="348.552"
               y="388.854"
               transform="matrix(0.3163 0.9487 -0.9487 0.3163 607.842 -65.4849)"
               fill="#E27D71"
               width="1.602"
               height="0.217"
               id="rect3770" /></g><g
             id="g3776"><rect
               x="356.011"
               y="388.385"
               transform="matrix(0.9487 0.3162 -0.3162 0.9487 141.31 -92.6491)"
               fill="#E27D71"
               width="0.217"
               height="1.373"
               id="rect3774" /></g><g
             id="g3780"><path
               fill="#DE705F"
               d="M357.133,388.746c-0.043,0-0.087-0.005-0.13-0.016c-5.041-1.244-8.554-0.029-8.589-0.016       c-0.282,0.1-0.593-0.046-0.694-0.328c-0.101-0.282,0.045-0.592,0.327-0.694c0.154-0.055,3.835-1.343,9.216-0.016       c0.291,0.072,0.469,0.366,0.397,0.657C357.599,388.58,357.377,388.746,357.133,388.746z"
               id="path3778" /></g></g><g
           id="g3788"><g
             id="g3786"><path
               fill="#FFFFFF"
               d="M360.643,396.749h-0.657c-0.339,0-0.615-0.276-0.615-0.615v-1.672c0-0.339,0.276-0.615,0.615-0.615       h0.657c0.339,0,0.615,0.276,0.615,0.615v1.672C361.258,396.473,360.982,396.749,360.643,396.749z M359.987,394.065       c-0.219,0-0.397,0.178-0.397,0.398v1.672c0,0.219,0.178,0.398,0.397,0.398h0.657c0.219,0,0.398-0.178,0.398-0.398v-1.672       c0-0.219-0.178-0.398-0.398-0.398H359.987z"
               id="path3784" /></g></g><g
           id="g3794"><g
             id="g3792"><path
               fill="#FFFFFF"
               d="M360.317,394.825c-0.099,0-0.217-0.049-0.217-0.109v-1.52c0-0.06,0.118-0.109,0.217-0.109       c0.099,0,0.217,0.049,0.217,0.109v1.52C360.534,394.776,360.416,394.825,360.317,394.825z"
               id="path3790" /></g></g><g
           id="g3800"><g
             id="g3798"><path
               fill="#FFFFFF"
               d="M345.445,397.183h-0.657c-0.339,0-0.615-0.276-0.615-0.615v-1.672c0-0.339,0.276-0.615,0.615-0.615       h0.657c0.339,0,0.615,0.276,0.615,0.615v1.672C346.06,396.908,345.784,397.183,345.445,397.183z M344.788,394.499       c-0.219,0-0.397,0.178-0.397,0.398v1.672c0,0.219,0.178,0.398,0.397,0.398h0.657c0.219,0,0.398-0.178,0.398-0.398v-1.672       c0-0.219-0.178-0.398-0.398-0.398H344.788z"
               id="path3796" /></g></g><g
           id="g3806"><g
             id="g3804"><path
               fill="#FFFFFF"
               d="M345.119,395.259c-0.099,0-0.217-0.049-0.217-0.109v-1.52c0-0.06,0.118-0.109,0.217-0.109       s0.217,0.049,0.217,0.109v1.52C345.336,395.21,345.218,395.259,345.119,395.259z"
               id="path3802" /></g></g><g
           id="g3810"><path
             fill="#D63E36"
             d="M343.599,406.187c-0.076,0-0.154-0.014-0.23-0.042c-0.336-0.127-0.506-0.503-0.379-0.839      c1.388-3.678,1.475-7.446,1.476-7.483c0.007-0.359,0.309-0.641,0.663-0.639c0.36,0.007,0.646,0.303,0.639,0.663      c-0.003,0.162-0.089,4.023-1.559,7.919C344.11,406.027,343.862,406.187,343.599,406.187z"
             id="path3808" /></g><g
           id="g3814"><circle
             fill="#DE705F"
             cx="343.586"
             cy="405.452"
             r="0.11"
             id="circle3812" /></g><g
           id="g3818"><circle
             fill="#DE705F"
             cx="344.02"
             cy="404.367"
             r="0.11"
             id="circle3816" /></g><g
           id="g3822"><circle
             fill="#DE705F"
             cx="344.455"
             cy="403.281"
             r="0.11"
             id="circle3820" /></g><g
           id="g3826"><circle
             fill="#DE705F"
             cx="344.672"
             cy="402.196"
             r="0.11"
             id="circle3824" /></g><g
           id="g3830"><path
             fill="#D63E36"
             d="M358.797,405.753c-0.076,0-0.154-0.014-0.23-0.042c-0.336-0.127-0.506-0.503-0.379-0.839      c1.388-3.678,1.475-7.446,1.476-7.483c0.007-0.359,0.312-0.64,0.663-0.639c0.36,0.007,0.646,0.303,0.639,0.663      c-0.003,0.162-0.089,4.023-1.559,7.919C359.308,405.592,359.06,405.753,358.797,405.753z"
             id="path3828" /></g><g
           id="g3834"><circle
             fill="#DE705F"
             cx="358.784"
             cy="405.018"
             r="0.11"
             id="circle3832" /></g><g
           id="g3838"><circle
             fill="#DE705F"
             cx="359.219"
             cy="403.933"
             r="0.11"
             id="circle3836" /></g><g
           id="g3842"><circle
             fill="#DE705F"
             cx="359.653"
             cy="402.847"
             r="0.11"
             id="circle3840" /></g><g
           id="g3846"><circle
             fill="#DE705F"
             cx="359.87"
             cy="401.761"
             r="0.11"
             id="circle3844" /></g></g></g></g><g
     id="littleWallID"
     inkscape:label="#g3976"
     visibility="hidden"><line
       fill="none"
       stroke="#FFFFFF"
       stroke-width="2"
       stroke-miterlimit="10"
       x1="956.527"
       y1="660.506"
       x2="979.761"
       y2="716.074"
       id="line3854" /><circle
       fill="#FFFFFF"
       cx="979.761"
       cy="716.074"
       r="2.828"
       id="circle3856" /><g
       id="g3974"><circle
         fill="#FFFFFF"
         cx="952.397"
         cy="647.722"
         r="27.365"
         id="circle3858" /><g
         id="g3972"><g
           id="g3868"><g
             id="g3862"><path
               fill="#CB5740"
               d="M969,638.514v17.478c0,1.044-0.311,2.008-1.355,2.008H937.9c-0.912,0-1.68-0.708-1.861-1.568       c-0.026-0.126-0.039-0.31-0.039-0.441v-17.478c0-0.033,0-0.065,0.002-0.098c0.004-0.063,0.011-0.126,0.02-0.189       c0.015-0.091,0.037,0.011,0.063-0.076c0.239-0.775,0.964-1.151,1.815-1.151h29.745C968.689,637,969,637.469,969,638.514z"
               id="path3860" /></g><g
             id="g3866"><path
               fill="#DE705F"
               d="M937.9,657c-0.384,0-0.762-0.371-0.841-0.747c-0.01-0.05-0.059-0.204-0.059-0.261V638.48       c0-0.023,0.048-0.056,0.052-0.089c0.007-0.039,0.038,0.071,0.05,0.033c0.103-0.336,0.444-0.423,0.797-0.423h29.745       c0.441,0,0.355,0.072,0.355,0.514v17.478c0,0.441,0.086,1.008-0.355,1.008H937.9z"
               id="path3864" /></g></g><g
           id="g3872"><path
             fill="#D63E36"
             d="M938.273,637.38c0,0.957-0.775,1.638-1.735,1.638c-0.189,0-0.369-0.127-0.538-0.183v-0.321      c0-1.044,0.855-1.514,1.9-1.514h0.276C938.238,637,938.273,637.178,938.273,637.38z"
             id="path3870" /></g><g
           id="g3876"><path
             fill="#D63E36"
             d="M969,638.514v0.352c0,0.037-0.014,0.056-0.166,0.056c-0.957,0-1.599-0.584-1.599-1.542      c0-0.202,0.171-0.38,0.234-0.38h0.176C968.689,637,969,637.469,969,638.514z"
             id="path3874" /></g><g
           id="g3880"><path
             fill="#D63E36"
             d="M969,655.484v0.508c0,1.044-0.311,2.008-1.355,2.008h-0.113c-0.104-0.434-0.161-0.523-0.161-0.784      c0-0.957,0.505-1.762,1.462-1.762C968.986,655.454,969,655.447,969,655.484z"
             id="path3878" /></g><g
           id="g3884"><path
             fill="#D63E36"
             d="M938.273,657.433c0,0.178-0.026,0.35-0.078,0.567H937.9c-1.044,0-1.9-0.964-1.9-2.008v-0.26      c0.169-0.056,0.35-0.06,0.538-0.06C937.498,655.671,938.273,656.476,938.273,657.433z"
             id="path3882" /></g><g
           id="g3888"><rect
             x="944"
             y="637"
             fill="#D63E36"
             width="2"
             height="21"
             id="rect3886" /></g><g
           id="g3892"><rect
             x="959.665"
             y="637"
             fill="#D63E36"
             width="1.303"
             height="21"
             id="rect3890" /></g><g
           id="g3906"><g
             id="g3896"><rect
               x="948.552"
               y="635.854"
               transform="matrix(0.3163 0.9487 -0.9487 0.3163 1252.3759 -465.8069)"
               fill="#E27D71"
               width="1.602"
               height="0.217"
               id="rect3894" /></g><g
             id="g3900"><rect
               x="956.011"
               y="635.385"
               transform="matrix(0.9487 0.3162 -0.3162 0.9487 250.2083 -269.7105)"
               fill="#E27D71"
               width="0.217"
               height="1.373"
               id="rect3898" /></g><g
             id="g3904"><path
               fill="#DE705F"
               d="M957.133,635.746c-0.043,0-0.087-0.005-0.13-0.016c-5.041-1.244-8.554-0.029-8.589-0.016       c-0.282,0.1-0.593-0.046-0.694-0.328c-0.101-0.282,0.045-0.592,0.327-0.694c0.154-0.055,3.835-1.343,9.216-0.016       c0.291,0.072,0.469,0.366,0.397,0.657C957.599,635.58,957.377,635.746,957.133,635.746z"
               id="path3902" /></g></g><g
           id="g3912"><g
             id="g3910"><path
               fill="#FFFFFF"
               d="M960.643,643.749h-0.657c-0.339,0-0.615-0.276-0.615-0.615v-1.672c0-0.339,0.276-0.615,0.615-0.615       h0.657c0.339,0,0.615,0.276,0.615,0.615v1.672C961.258,643.473,960.982,643.749,960.643,643.749z M959.987,641.065       c-0.219,0-0.397,0.178-0.397,0.398v1.672c0,0.219,0.178,0.398,0.397,0.398h0.657c0.219,0,0.398-0.178,0.398-0.398v-1.672       c0-0.219-0.178-0.398-0.398-0.398H959.987z"
               id="path3908" /></g></g><g
           id="g3918"><g
             id="g3916"><path
               fill="#FFFFFF"
               d="M960.317,641.825c-0.099,0-0.217-0.049-0.217-0.109v-1.52c0-0.06,0.118-0.109,0.217-0.109       s0.217,0.049,0.217,0.109v1.52C960.534,641.776,960.416,641.825,960.317,641.825z"
               id="path3914" /></g></g><g
           id="g3924"><g
             id="g3922"><path
               fill="#FFFFFF"
               d="M945.445,644.183h-0.657c-0.339,0-0.615-0.276-0.615-0.615v-1.672c0-0.339,0.276-0.615,0.615-0.615       h0.657c0.339,0,0.615,0.276,0.615,0.615v1.672C946.06,643.908,945.784,644.183,945.445,644.183z M944.789,641.499       c-0.219,0-0.397,0.178-0.397,0.398v1.672c0,0.219,0.178,0.398,0.397,0.398h0.657c0.219,0,0.398-0.178,0.398-0.398v-1.672       c0-0.219-0.178-0.398-0.398-0.398H944.789z"
               id="path3920" /></g></g><g
           id="g3930"><g
             id="g3928"><path
               fill="#FFFFFF"
               d="M945.119,642.259c-0.099,0-0.217-0.049-0.217-0.109v-1.52c0-0.06,0.118-0.109,0.217-0.109       s0.217,0.049,0.217,0.109v1.52C945.336,642.21,945.218,642.259,945.119,642.259z"
               id="path3926" /></g></g><g
           id="g3934"><path
             fill="#D63E36"
             d="M943.599,653.187c-0.076,0-0.154-0.014-0.23-0.042c-0.336-0.127-0.506-0.503-0.379-0.839      c1.388-3.678,1.475-7.446,1.476-7.483c0.007-0.359,0.309-0.641,0.663-0.639c0.36,0.007,0.646,0.303,0.639,0.663      c-0.003,0.162-0.089,4.023-1.559,7.919C944.11,653.027,943.862,653.187,943.599,653.187z"
             id="path3932" /></g><g
           id="g3938"><circle
             fill="#DE705F"
             cx="943.586"
             cy="652.452"
             r="0.11"
             id="circle3936" /></g><g
           id="g3942"><circle
             fill="#DE705F"
             cx="944.02"
             cy="651.367"
             r="0.11"
             id="circle3940" /></g><g
           id="g3946"><circle
             fill="#DE705F"
             cx="944.455"
             cy="650.281"
             r="0.11"
             id="circle3944" /></g><g
           id="g3950"><circle
             fill="#DE705F"
             cx="944.672"
             cy="649.196"
             r="0.11"
             id="circle3948" /></g><g
           id="g3954"><path
             fill="#D63E36"
             d="M958.797,652.753c-0.076,0-0.154-0.014-0.23-0.042c-0.336-0.127-0.506-0.503-0.379-0.839      c1.388-3.678,1.475-7.446,1.476-7.483c0.007-0.359,0.312-0.64,0.663-0.639c0.36,0.007,0.646,0.303,0.639,0.663      c-0.003,0.162-0.089,4.023-1.56,7.919C959.308,652.592,959.06,652.753,958.797,652.753z"
             id="path3952" /></g><g
           id="g3958"><circle
             fill="#DE705F"
             cx="958.784"
             cy="652.018"
             r="0.11"
             id="circle3956" /></g><g
           id="g3962"><circle
             fill="#DE705F"
             cx="959.219"
             cy="650.933"
             r="0.11"
             id="circle3960" /></g><g
           id="g3966"><circle
             fill="#DE705F"
             cx="959.653"
             cy="649.847"
             r="0.11"
             id="circle3964" /></g><g
           id="g3970"><circle
             fill="#DE705F"
             cx="959.87"
             cy="648.761"
             r="0.11"
             id="circle3968" /></g></g></g></g><g
     id="g3982"><rect
       x="489.981"
       y="326.069"
       fill="none"
       width="23.854"
       height="16.648"
       id="rect3978" /><text
       transform="matrix(1 0 0 1 497.3176 338.0696)"
       fill="#FFFFFF"
       font-family="'Roboto-Bold'"
       font-size="16"
       id="text3980">8</text>
</g><g
     id="g3988"><rect
       x="577.089"
       y="770.794"
       fill="none"
       width="23.854"
       height="16.648"
       id="rect3984" /><text
       transform="matrix(1 0 0 1 584.4258 782.7943)"
       fill="#FFFFFF"
       font-family="'Roboto-Bold'"
       font-size="16"
       id="text3986">2</text>
</g><g
     id="g3994"><rect
       x="603.651"
       y="737.728"
       fill="none"
       width="23.854"
       height="16.648"
       id="rect3990" /><text
       transform="matrix(1 0 0 1 610.988 749.7278)"
       fill="#FFFFFF"
       font-family="'Roboto-Bold'"
       font-size="16"
       id="text3992">2</text>
</g><g
     id="g4000"><rect
       x="789.333"
       y="655.671"
       fill="none"
       width="23.854"
       height="16.648"
       id="rect3996" /><text
       transform="matrix(1 0 0 1 796.6696 667.6715)"
       fill="#FFFFFF"
       font-family="'Roboto-Bold'"
       font-size="16"
       id="text3998">1</text>
</g><g
     id="g4006"><rect
       x="875.837"
       y="696.764"
       fill="none"
       width="23.854"
       height="16.648"
       id="rect4002" /><text
       transform="matrix(1 0 0 1 883.174 708.7639)"
       fill="#FFFFFF"
       font-family="'Roboto-Bold'"
       font-size="16"
       id="text4004">1</text>
</g><g
     id="g4012"><rect
       x="559.044"
       y="108.394"
       fill="none"
       width="23.854"
       height="16.648"
       id="rect4008" /><text
       transform="matrix(1 0 0 1 566.3809 120.3943)"
       fill="#FFFFFF"
       font-family="'Roboto-Bold'"
       font-size="16"
       id="text4010">2</text>
</g><g
     id="g4018"><rect
       x="631.76"
       y="777.417"
       fill="none"
       width="23.854"
       height="16.648"
       id="rect4014" /><text
       transform="matrix(1 0 0 1 639.0974 789.4169)"
       fill="#FFFFFF"
       font-family="'Roboto-Bold'"
       font-size="16"
       id="text4016">3</text>
</g><g
     id="g4024"><rect
       x="411.6"
       y="629.705"
       fill="none"
       width="23.854"
       height="16.648"
       id="rect4020" /><text
       transform="matrix(1 0 0 1 418.9373 641.7047)"
       fill="#FFFFFF"
       font-family="'Roboto-Bold'"
       font-size="16"
       id="text4022">0</text>
</g><g
     id="g4030"><rect
       x="901.172"
       y="698.892"
       fill="none"
       width="23.854"
       height="16.648"
       id="rect4026" /><text
       transform="matrix(1 0 0 1 908.5088 710.8922)"
       fill="#FFFFFF"
       font-family="'Roboto-Bold'"
       font-size="16"
       id="text4028">0</text>
</g><g
     id="g4036"><rect
       x="972.875"
       y="699.83"
       fill="none"
       width="23.854"
       height="16.648"
       id="rect4032" /><text
       transform="matrix(1 0 0 1 980.2118 711.8304)"
       fill="#FFFFFF"
       font-family="'Roboto-Bold'"
       font-size="16"
       id="text4034">0</text>
</g><g
     id="g4042"><rect
       x="789.333"
       y="718.288"
       fill="none"
       width="23.854"
       height="16.648"
       id="rect4038" /><text
       transform="matrix(1 0 0 1 796.6696 730.2878)"
       fill="#FFFFFF"
       font-family="'Roboto-Bold'"
       font-size="16"
       id="text4040">0</text>
</g><rect
     x="951"
     y="255"
     width="326"
     height="252"
     id="rect4044"
     style="fill:#ffffff" /><rect
     x="1038.156"
     y="540.9"
     fill="#FFFFFF"
     width="180.167"
     height="111.401"
     id="rect4046" /><text
     transform="matrix(1 0 0 1 1094.0332 558.1313)"
     id="text4060"><tspan
       x="0"
       y="0"
       fill="#3B4351"
       font-family="'Roboto-Medium'"
       font-size="12"
       id="tspan4048">mur en construction</tspan><tspan
       x="0"
       y="14.4"
       fill="#3B4351"
       font-family="'Roboto-Medium'"
       font-size="12"
       id="tspan4050">mur construit</tspan><tspan
       x="0"
       y="28.8"
       fill="#3B4351"
       font-family="'Roboto-Medium'"
       font-size="12"
       id="tspan4052">mur annoncé</tspan><tspan
       x="0"
       y="57.6"
       fill="#3B4351"
       font-family="'Roboto-Medium'"
       font-size="12"
       id="tspan4054">nombre de litiges</tspan><tspan
       x="0"
       y="72"
       fill="#3B4351"
       font-family="'Roboto-Medium'"
       font-size="12"
       id="tspan4056">territoriaux pour le </tspan><tspan
       x="0"
       y="86.4"
       fill="#3B4351"
       font-family="'Roboto-Medium'"
       font-size="12"
       id="tspan4058">pays survolé</tspan></text>
<rect
     x="982.436"
     y="279.244"
     fill="none"
     width="268.918"
     height="205.648"
     id="rect4062" /><text
     style="font-size:14px;font-family:Roboto-Light;fill:#3b4351"
     id="text4360"
     x="956.43683"
     y="273.74341"><tspan
       style="line-height:0.25"
       id="tspan4697">&quot;Je construirai un grand, grand mur à la</tspan></text>
<text
     style="font-size:14px;font-family:Roboto-Light;fill:#3b4351"
     x="956.43683"
     y="293.74341"
     id="text4699"><tspan
       style="line-height:0.25"
       id="tspan4701">frontière sud et je le ferai financer par le</tspan></text>
<text
     style="font-size:14px;font-family:Roboto-Light;fill:#3b4351"
     x="956.43683"
     y="313.74341"
     id="text4703"><tspan
       style="line-height:0.25"
       id="tspan4705">Mexique&quot;. Cette phrase prononcée par</tspan></text>
<text
     style="font-size:14px;font-family:Roboto-Light;fill:#3b4351"
     x="956.43683"
     y="333.74341"
     id="text4711"><tspan
       style="line-height:0.25"
       id="tspan4713">Donald Trump pendant sa campagne résume</tspan></text>
<text
     style="font-size:14px;font-family:Roboto-Light;fill:#3b4351"
     x="956.43683"
     y="353.74341"
     id="text4715"><tspan
       style="line-height:0.25"
       id="tspan4717">probablement le mieux le projet géopolitique</tspan></text>
<text
     style="font-size:14px;font-family:Roboto-Light;fill:#3b4351"
     x="956.43683"
     y="373.74341"
     id="text4719"><tspan
       style="line-height:0.25"
       id="tspan4721">du nouveau président, qui souhaite faire des</tspan></text>
<text
     style="font-size:14px;font-family:Roboto-Light;fill:#3b4351"
     x="956.43683"
     y="393.74341"
     id="text4723"><tspan
       style="line-height:0.25"
       id="tspan4725">États-Unis les gendarmes du monde.</tspan></text>
<text
     style="font-size:14px;font-family:Roboto-Light;fill:#3b4351"
     x="956.43683"
     y="413.74341"
     id="text4727"><tspan
       style="line-height:0.25"
       id="tspan4729">La frontière avec le Mexique cache aussi des</tspan></text>
<text
     style="font-size:14px;font-family:Roboto-Light;fill:#3b4351"
     x="956.43683"
     y="435.74341"
     id="text4731"><tspan
       style="line-height:0.25"
       id="tspan4733">différences sensibles de niveau de vie,</tspan></text>
<text
     style="font-size:14px;font-family:Roboto-Light;fill:#3b4351"
     x="956.43683"
     y="455.74341"
     id="text4735"><tspan
       style="line-height:0.25"
       id="tspan4737">comme on en trouve aussi au Brésil, où des</tspan></text>
<text
     style="font-size:14px;font-family:Roboto-Light;fill:#3b4351"
     x="956.43683"
     y="477.74341"
     id="text4739"><tspan
       style="line-height:0.25"
       id="tspan4741">murs séparent les habitants des favelas du</tspan></text>
<text
     style="font-size:14px;font-family:Roboto-Light;fill:#3b4351"
     x="956.43683"
     y="499.74341"
     id="text4743"><tspan
       style="line-height:0.25"
       id="tspan4745">reste de la ville.</tspan></text>
<rect
     x="1053"
     y="607.715"
     fill="#66A0CD"
     stroke="#FFFFFF"
     stroke-miterlimit="10"
     width="31.157"
     height="31.157"
     id="rect4362" /><g
     id="g4368"><rect
       x="1055.386"
       y="616.717"
       fill="none"
       width="26.228"
       height="17.886"
       id="rect4364" /><text
       transform="matrix(1 0 0 1 1063.9099 628.7168)"
       fill="#FFFFFF"
       font-family="'Roboto-Bold'"
       font-size="16"
       id="text4366">8</text>
</g><g
     id="g4376"><line
       fill="none"
       stroke="#F8E63A"
       stroke-width="6"
       stroke-linecap="round"
       stroke-linejoin="round"
       stroke-miterlimit="10"
       x1="1053"
       y1="555"
       x2="1084"
       y2="555"
       id="line4370" /><line
       fill="none"
       stroke="#97FF3C"
       stroke-width="6"
       stroke-linecap="round"
       stroke-linejoin="round"
       stroke-miterlimit="10"
       x1="1053"
       y1="570"
       x2="1084"
       y2="570"
       id="line4372" /><line
       fill="none"
       stroke="#ECB45C"
       stroke-width="6"
       stroke-linecap="round"
       stroke-linejoin="round"
       stroke-miterlimit="10"
       x1="1053"
       y1="584"
       x2="1084"
       y2="584"
       id="line4374" /></g><text
     x="100"
     y="200"
     fill="#000"
     id="textFrontiere"
     font-family="'Roboto-Bold'"
     font-size="16">Essayez de tracer une frontière</text>
<script
     xlink:href="../js/rare.js"
     id="script217"
     type="text/ecmascript" /><script
     xlink:href="../js/trace.js"
     id="script219"
     type="text/ecmascript" /></svg>