<?xml version="1.0" encoding="utf-8"?>
<!-- Generator: Adobe Illustrator 20.1.0, SVG Export Plug-In . SVG Version: 6.00 Build 0)  -->
<svg version="1.1" id="Calque_1" xmlns="http://www.w3.org/2000/svg" xmlns:xlink="http://www.w3.org/1999/xlink" x="0px" y="0px"
	 viewBox="0 0 50 50" style="enable-background:new 0 0 50 50;" xml:space="preserve">
<style type="text/css">
	.st0{fill:#5A9DFF;}
	.st1{fill:#E8E1B3;}
	.st2{fill:#FF2222;}
	.st3{opacity:0.2;}
	.st4{fill:#FFFFFF;}
</style>
<g>
	<g>
		<g>
			<path class="st0" d="M47.6,22.5c-0.5,0.1-1.3,0.8-1.8,0.9c-0.4,0.1-0.4,0.2-0.4,0.2c0,0-0.1-0.2-0.2-0.2
				c-0.2,0.1-0.7,0.3-0.9,0.6l-0.1-0.3c0,0-0.9,0.1-1.2,0.7L42.6,24c0,0-1.1,0.1-1.5,0.7l-0.3-0.5c0,0-1.3,0.5-1.5,1L39,24.9
				c0,0-1.2,0.6-1.2,1l-0.4-0.2c0,0-1.3,0.5-1.1,1l-0.4-0.3c0,0-1.2,0.7-1.1,1.1l-0.2-0.2c-0.9,0.5-1.4,1.2-1.4,1.2l-0.3-0.3
				c-1,0.5-1.6,1.5-1.6,1.5l-0.4-0.4c-0.6,0.4-1.7,1.5-1.7,1.5c-0.3,0-0.4,0-0.4,0c-1,0.9-2.3,1.8-3.3,2.3c0.7-0.8,2.1-2.1,3.7-3
				c0,0,0,0,0-0.4c0,0,1.5-0.7,2-1.1L31,28.1c0,0,1.5-0.4,2.2-1.2l-0.2-0.4c0,0,1-0.7,1.7-1.4l-0.3-0.3c0,0,0.4,0.2,1.3-0.8
				l-0.4-0.6c0,0,1-0.2,1.2-0.8l-0.4-0.3c0,0,1-0.2,1.1-1l-0.4-0.3c0,0,0.9-0.3,1-1.1l-0.5-0.4c0,0,0.9-0.2,0.8-1.2l-0.5-0.4
				c0,0,0.6-0.2,0.5-1.1c0,0-0.4-0.4-0.5-0.3c0,0,0.5-0.7,0.4-1.1c0,0-0.2-0.3-0.5-0.3c0,0,0.2-0.6,0.1-1c-0.1-0.4,0.1-1.8,0.1-1.8
				s0.1-0.3-0.3,0c-0.4,0.3-0.5,1.3-0.9,1.6c-0.3,0.2-0.2,0.4-0.2,0.4c0,0-0.2-0.2-0.3-0.1c-0.1,0.1-0.4,0.5-0.4,1L35,14.8
				c0,0-0.7,0.4-0.6,1.2l-0.6-0.3c0,0-0.9,0.5-0.8,1.3l-0.6-0.4c0,0-0.8,1.1-0.5,1.7l-0.7-0.2c0,0-0.6,1-0.4,1.5l-0.6-0.1
				c0,0-0.8,1-0.2,1.5l-0.7-0.2c0,0-0.5,1.2-0.2,1.6L29,22.3c-0.4,0.8-0.3,1.9-0.3,1.9l-0.5-0.2c-0.5,0.9-0.3,2.2-0.3,2.2l-0.7-0.3
				c-0.3,0.6-0.4,2.3-0.4,2.3c-0.3,0.1-0.3,0.2-0.3,0.2c-0.3,1.9-1.1,3.7-1.6,4.6c0.1-1,0.4-3,1.3-4.8c0,0,0-0.1-0.2-0.3
				c0,0,0.8-1.4,1-2.1l-0.4-0.3c0,0,1-1.2,1.1-2.2L27.3,23c0,0,0.8-1.1,0.9-2l-0.6-0.2c0,0,0.6-0.5,0.8-1.7L27.7,19
				c0,0,0.7-1.1,0.7-1.9l-0.6-0.2c0,0,0.5-0.4,0.6-1.7L27.7,15c0,0,0.6-0.4,0.6-1.5l-0.7-0.2c0,0,0.7-0.5,0.6-1.5l-1-0.1
				c0,0,0.7-0.3,0-1.7L26.6,10c0,0,0.3-1.3,0-1.7c0,0-0.2-0.2-0.5-0.2c0,0,0.3-0.4,0.1-0.9c0,0-0.3-0.2-0.6-0.2c0,0,0.2-0.3,0-0.8
				c0,0-0.3-0.1-0.5-0.1c0,0,0.2-0.1,0-0.5c-0.2-0.4,0-0.3-0.2-1.4c0-0.2-0.3-0.4-0.4-0.5c-0.1,0.1-0.3,0.3-0.4,0.5
				c-0.2,1.1,0,1-0.2,1.4c-0.2,0.4,0,0.5,0,0.5c-0.2,0-0.5,0.1-0.5,0.1c-0.2,0.5,0,0.8,0,0.8c-0.3,0-0.6,0.2-0.6,0.2
				C22.7,7.7,23,8.1,23,8.1c-0.4,0.1-0.5,0.2-0.5,0.2c-0.3,0.4,0,1.7,0,1.7l-0.7,0c-0.6,1.4,0.1,1.7,0.1,1.7l-1,0.1
				c-0.1,1,0.6,1.5,0.6,1.5l-0.7,0.2c0,1.1,0.6,1.5,0.6,1.5l-0.6,0.3c0.2,1.3,0.7,1.7,0.7,1.7l-0.6,0.2c-0.1,0.7,0.7,1.9,0.7,1.9
				l-0.7,0.1c0.2,1.3,0.8,1.7,0.8,1.7L21,21c0.1,0.9,0.9,2,0.9,2l-0.4,0.2c0.1,1,1.1,2.2,1.1,2.2l-0.4,0.3c0.2,0.7,1,2.1,1,2.1
				c-0.2,0.3-0.2,0.3-0.2,0.3c1,2.1,1.3,4.6,1.4,5.2c-0.3-0.6-1.5-2.8-1.8-5c0,0,0,0-0.3-0.2c0,0-0.1-1.6-0.4-2.3l-0.7,0.3
				c0,0,0.2-1.3-0.3-2.2l-0.5,0.2c0,0,0.1-1-0.3-1.9l-0.4,0.1c0.3-0.4-0.2-1.6-0.2-1.6L19,21c0.6-0.5-0.2-1.5-0.2-1.5l-0.6,0.1
				c0.2-0.4-0.4-1.5-0.4-1.5l-0.7,0.2c0.3-0.6-0.5-1.7-0.5-1.7L16,17c0.2-0.8-0.8-1.3-0.8-1.3L14.7,16c0.1-0.7-0.6-1.2-0.6-1.2
				l-0.4,0.3c0-0.5-0.3-0.8-0.4-1c-0.1-0.1-0.3,0-0.3,0.1c0,0,0.2-0.2-0.2-0.4c-0.4-0.2-0.5-1.3-0.9-1.6c-0.4-0.3-0.3,0-0.3,0
				s0.1,1.4,0.1,1.8c-0.1,0.4,0.1,1,0.1,1c-0.2,0-0.5,0.3-0.5,0.3c-0.1,0.5,0.4,1.1,0.4,1.1c-0.1-0.1-0.5,0.3-0.5,0.3
				c-0.1,0.8,0.5,1.1,0.5,1.1l-0.5,0.4c-0.1,1,0.8,1.2,0.8,1.2l-0.5,0.4c0.1,0.8,1,1.1,1,1.1l-0.4,0.3c0.1,0.9,1.1,1,1.1,1l-0.4,0.3
				c0.1,0.6,1.2,0.8,1.2,0.8l-0.4,0.6c0.9,0.9,1.3,0.8,1.3,0.8l-0.3,0.3c0.6,0.7,1.7,1.4,1.7,1.4L16,26.9c0.7,0.8,2.2,1.2,2.2,1.2
				L18,28.6c0.5,0.5,2,1.1,2,1.1c0,0.3,0,0.4,0,0.4c1.7,0.9,3.1,2.4,3.8,3.1c-1-0.6-2.4-1.4-3.5-2.4c0,0,0,0-0.4,0
				c0,0-1.1-1.1-1.7-1.5l-0.4,0.4c0,0-0.6-1-1.6-1.5L16,28.4c0,0-0.5-0.8-1.4-1.2l-0.2,0.2c0-0.3-1.1-1.1-1.1-1.1l-0.4,0.3
				c0.2-0.5-1.1-1-1.1-1l-0.4,0.2c-0.1-0.4-1.2-1-1.2-1l-0.5,0.4c-0.1-0.5-1.5-1-1.5-1l-0.3,0.5C7.5,24.1,6.4,24,6.4,24l-0.3,0.4
				c-0.3-0.6-1.2-0.7-1.2-0.7L4.8,24c-0.3-0.3-0.8-0.5-0.9-0.6c-0.2-0.1-0.2,0.1-0.2,0.2c0,0,0-0.2-0.4-0.2
				c-0.5-0.1-1.2-0.8-1.8-0.9c-0.5-0.1-0.2,0.1-0.2,0.1s1,0.9,1.1,1.3c0.2,0.3,0.7,0.7,0.7,0.7c-0.2,0-0.2,0.3-0.2,0.3
				c0.2,0.4,1,0.7,1,0.7c-0.1,0-0.2,0.4-0.2,0.4c0.5,0.6,1.1,0.6,1.1,0.6L4.6,27C5.2,27.8,6,27.6,6,27.6l-0.1,0.4
				c0.5,0.5,1.5,0.5,1.5,0.5l-0.1,0.4c0.6,0.6,1.6,0.4,1.6,0.4l-0.1,0.4c0.5,0.4,1.5,0.2,1.5,0.2l0,0.6c1.3,0.4,1.5,0.2,1.5,0.2
				l0,0.3c1,0.3,2.2,0.5,2.2,0.5l0,0.3c1.1,0.4,2.5,0.2,2.5,0.2l0.2,0.4c0.7,0.2,2.4,0.2,2.4,0.2c0.2,0.2,0.3,0.2,0.3,0.2
				c1.8,0.1,3.6,0.6,4.7,1c-0.1,0.1-0.2,0.1-0.2,0.1l0,0l-3.3-0.2v0.3c-0.4-0.4-1.6-0.3-1.6-0.3V34c-0.7-0.4-1.8-0.2-1.8-0.2v0.3
				c-0.4-0.4-1.4-0.1-1.4-0.1v0.3c-0.3-0.4-1.5,0-1.5,0v0.4c-0.5-0.3-1.1,0.2-1.1,0.2v0.3c-0.5-0.1-1.1,0.3-1.1,0.3l0.1,0.2
				c-0.6,0-1.6,1.3-1.6,1.3c0.2,0.2,0.5-0.3,1.4-0.1c0.9,0.1,0.9-0.1,0.9-0.1l0.1,0.3c1.4,0.2,1.6-0.1,1.6-0.1l0.1,0.4
				c0.9,0.4,1.5-0.2,1.5-0.2l0.2,0.5c1.3,0.1,1.5-0.5,1.5-0.5l0.1,0.7c1.6-0.3,1.7-0.9,1.7-0.9l0.1,0.7c1.3-0.3,1.5-1.1,1.5-1.1
				l0.2,0.7c1.3-0.7,1.4-1.3,1.4-1.3l0.1,0.7c0.9-0.7,1.3-1.2,1.5-1.7c0.2,0.4,0.6,1,1.5,1.7l0.1-0.7c0,0,0.1,0.6,1.4,1.3l0.2-0.7
				c0,0,0.2,0.8,1.5,1.1l0.1-0.7c0,0,0.1,0.6,1.7,0.9l0.1-0.7c0,0,0.2,0.6,1.5,0.5l0.2-0.5c0,0,0.7,0.6,1.5,0.2l0.1-0.4
				c0,0,0.3,0.4,1.6,0.1l0.1-0.3c0,0,0.1,0.2,0.9,0.1c0.9-0.1,1.2,0.4,1.4,0.1c0,0-1-1.3-1.6-1.3l0.1-0.2c0,0-0.7-0.5-1.1-0.3V35
				c0,0-0.6-0.5-1.1-0.2v-0.4c0,0-1.2-0.4-1.5,0V34c0,0-1-0.3-1.4,0.1v-0.3c0,0-1.1-0.2-1.8,0.2v-0.3c0,0-1.2-0.1-1.6,0.3v-0.3
				l-3.5,0.3l0,0c0,0-0.1,0-0.2-0.1c1.1-0.3,3-0.8,4.7-1c0,0,0.1,0,0.3-0.2c0,0,1.6,0,2.4-0.2l0.2-0.4c0,0,1.5,0.2,2.5-0.2l0-0.3
				c0,0,1.3-0.2,2.2-0.5l0-0.3c0,0,0.2,0.2,1.5-0.2l0-0.6c0,0,1,0.2,1.5-0.2l-0.1-0.4c0,0,0.9,0.2,1.6-0.4l-0.1-0.4
				c0,0,0.9,0.1,1.5-0.5L43,27.6c0,0,0.9,0.2,1.4-0.6l-0.2-0.4c0,0,0.7,0,1.1-0.6c0,0-0.1-0.4-0.2-0.4c0,0,0.8-0.3,1-0.7
				c0,0,0-0.3-0.2-0.3c0,0,0.5-0.4,0.7-0.7s1.1-1.3,1.1-1.3S48.1,22.4,47.6,22.5z"/>
		</g>
		<g>
			<g>
				<g>
					<path class="st1" d="M25.9,30.4c0.9-0.8,2.2-1.1,3.4-0.7l7.6,2.8c1.7,0.6,2.6,2.6,2,4.3c-0.6,1.7-2.6,2.6-4.3,2L27,36.1
						c-1.7-0.6-2.6-2.6-2-4.3C25.2,31.2,25.6,30.8,25.9,30.4z"/>
				</g>
				<path class="st2" d="M26.9,36.1l3.9,1.4c-0.4-2.1,0.2-4.3,1.9-5.8c0.2-0.2,0.4-0.3,0.6-0.5l-4.1-1.5c-1.2-0.5-2.5-0.2-3.4,0.7
					c-0.4,0.4-0.7,0.8-0.9,1.3C24.2,33.5,25.1,35.4,26.9,36.1z"/>
			</g>
			<g class="st3">
				<path class="st2" d="M25.6,33c0,0-0.1,2.1,2.1,2.9"/>
				<path class="st4" d="M25.9,33C25.9,33,25.9,33.1,25.9,33C25.9,33.1,25.9,33.1,25.9,33c0,0.1,0,0.1,0,0.1c0,0,0,0.1,0,0.2
					c0,0.1,0,0.1,0,0.2c0,0.1,0,0.2,0,0.3c0,0.1,0,0.2,0.1,0.3c0,0.1,0.1,0.2,0.1,0.3c0,0.1,0.1,0.2,0.2,0.3c0,0.1,0.1,0.1,0.1,0.1
					c0,0,0.1,0.1,0.1,0.1c0.1,0.1,0.2,0.2,0.2,0.2c0.1,0.1,0.2,0.1,0.2,0.2c0,0,0.1,0.1,0.1,0.1c0,0,0.1,0.1,0.1,0.1
					c0.1,0,0.1,0.1,0.2,0.1c0.1,0,0.1,0.1,0.2,0.1c0.1,0,0.1,0.1,0.1,0.1s-0.1,0-0.2-0.1c-0.1,0-0.1,0-0.2-0.1
					c-0.1,0-0.1-0.1-0.2-0.1c0,0-0.1,0-0.1-0.1c0,0-0.1,0-0.1-0.1c-0.1-0.1-0.2-0.1-0.3-0.2c-0.1-0.1-0.2-0.1-0.3-0.2
					c0,0-0.1-0.1-0.1-0.1c0,0-0.1-0.1-0.1-0.1c-0.1-0.1-0.2-0.2-0.2-0.3c-0.1-0.1-0.1-0.2-0.2-0.3c-0.1-0.1-0.1-0.2-0.1-0.3
					c0-0.1-0.1-0.2-0.1-0.3c0-0.1,0-0.2-0.1-0.3c0-0.1,0-0.1,0-0.2c0,0,0.1-0.1,0.1-0.1c0,0,0.1-0.1,0.1-0.1c0,0,0,0,0,0
					c0-0.2,0.1-0.3,0.3-0.4C25.8,32.6,25.9,32.8,25.9,33C26,33,25.9,33,25.9,33L25.9,33z"/>
			</g>
		</g>
		<g>
			<path class="st1" d="M15.5,36.2c-0.2-1.3,0.4-2.6,1.5-3.4l7-4.9c1.6-1.1,3.8-0.7,5,0.9c1.1,1.6,0.7,3.8-0.9,5l-7,4.9
				c-1.6,1.1-3.8,0.7-5-0.9C15.8,37.3,15.6,36.8,15.5,36.2z"/>
		</g>
		<path class="st2" d="M21,38.8l3.6-2.5c-2.1-0.9-3.6-2.8-3.9-5.2c0-0.3-0.1-0.5-0.1-0.8L16.9,33c-1.1,0.8-1.7,2.1-1.5,3.4
			c0.1,0.6,0.3,1.1,0.6,1.6C17.1,39.6,19.4,40,21,38.8z"/>
		<g class="st3">
			<path class="st2" d="M17.6,38.1c0,0,1.7,1.3,3.8-0.1"/>
			<path class="st4" d="M17.8,37.8C17.8,37.8,17.8,37.8,17.8,37.8C17.8,37.8,17.8,37.9,17.8,37.8c0.1,0.1,0.1,0.1,0.1,0.1
				c0,0,0.1,0.1,0.1,0.1c0.1,0,0.1,0.1,0.2,0.1c0.1,0,0.2,0.1,0.3,0.1c0.1,0,0.2,0.1,0.3,0.1c0.1,0,0.2,0.1,0.3,0.1
				c0.1,0,0.2,0,0.4,0c0.1,0,0.1,0,0.2,0c0.1,0,0.1,0,0.2,0c0.1,0,0.2,0,0.3,0c0.1,0,0.2-0.1,0.3-0.1c0.1,0,0.1,0,0.1,0
				c0,0,0.1,0,0.1-0.1c0.1,0,0.2-0.1,0.2-0.1c0.1,0,0.1-0.1,0.2-0.1c0.1-0.1,0.2-0.1,0.2-0.1s-0.1,0-0.1,0.1c0,0-0.1,0.1-0.2,0.1
				c-0.1,0.1-0.1,0.1-0.2,0.1c0,0-0.1,0.1-0.1,0.1c0,0-0.1,0.1-0.1,0.1c-0.1,0-0.2,0.1-0.3,0.1c-0.1,0-0.2,0.1-0.4,0.1
				c-0.1,0-0.1,0-0.2,0c-0.1,0-0.1,0-0.2,0c-0.1,0-0.3,0-0.4,0c-0.1,0-0.3,0-0.4,0c-0.1,0-0.2,0-0.4-0.1c-0.1,0-0.2-0.1-0.3-0.1
				c-0.1,0-0.2-0.1-0.3-0.1c-0.1,0-0.1-0.1-0.2-0.1c0,0,0-0.1,0-0.1c0,0,0-0.1,0-0.1c0,0,0,0,0,0c-0.2-0.1-0.3-0.3-0.2-0.4
				C17.4,37.7,17.6,37.6,17.8,37.8C17.8,37.8,17.8,37.8,17.8,37.8L17.8,37.8z"/>
		</g>
		<g>
			<g>
				<g>
					<path class="st1" d="M34.9,37.4c-0.1,1.4-0.9,2.8-2.3,3.4l-8.7,4c-2,0.9-4.3,0-5.2-2c-0.9-2,0-4.3,2-5.2l8.7-4
						c2-0.9,4.3,0,5.2,2C34.8,36.2,34.9,36.8,34.9,37.4z"/>
				</g>
				<path class="st2" d="M29.4,33.5l-4.5,2c2.1,1.4,3.4,3.8,3.2,6.4c0,0.3-0.1,0.6-0.1,0.9l4.6-2.1c1.4-0.6,2.2-2,2.3-3.4
					c0-0.6-0.1-1.3-0.3-1.9C33.8,33.5,31.4,32.6,29.4,33.5z"/>
			</g>
			<g class="st3">
				<path class="st2" d="M33.1,35c0,0-1.6-1.8-4.2-0.6"/>
				<path class="st4" d="M32.8,35.2C32.8,35.2,32.8,35.2,32.8,35.2C32.7,35.2,32.7,35.2,32.8,35.2c-0.1-0.1-0.1-0.1-0.1-0.1
					c0,0-0.1-0.1-0.1-0.1c-0.1-0.1-0.1-0.1-0.2-0.2c-0.1-0.1-0.2-0.1-0.2-0.2c-0.1-0.1-0.2-0.1-0.3-0.2c-0.1-0.1-0.2-0.1-0.3-0.2
					c-0.1-0.1-0.2-0.1-0.4-0.1c-0.1,0-0.1,0-0.2,0c-0.1,0-0.1,0-0.2,0c-0.1,0-0.3,0-0.4,0c-0.1,0-0.3,0-0.4,0c-0.1,0-0.1,0-0.2,0
					c-0.1,0-0.1,0-0.2,0c-0.1,0-0.2,0-0.3,0.1c-0.1,0-0.2,0-0.2,0.1c-0.1,0-0.2,0.1-0.2,0.1s0.1,0,0.2-0.1c0.1,0,0.1-0.1,0.2-0.1
					c0.1,0,0.2-0.1,0.3-0.1c0.1,0,0.1,0,0.2-0.1c0.1,0,0.1,0,0.2-0.1c0.1,0,0.2-0.1,0.4-0.1c0.1,0,0.3,0,0.4-0.1c0.1,0,0.1,0,0.2,0
					c0.1,0,0.1,0,0.2,0c0.1,0,0.3,0,0.4,0.1c0.1,0,0.3,0.1,0.4,0.1c0.1,0,0.3,0.1,0.4,0.1c0.1,0.1,0.2,0.1,0.3,0.2
					c0.1,0.1,0.2,0.1,0.3,0.2c0.1,0.1,0.1,0.1,0.2,0.1c0,0,0.1,0,0.1,0.1c0,0,0,0,0.1,0.1c0,0,0,0,0,0c0.2,0.1,0.2,0.4,0,0.6
					C33.2,35.4,33,35.5,32.8,35.2C32.8,35.3,32.8,35.3,32.8,35.2L32.8,35.2z"/>
			</g>
		</g>
	</g>
</g>
</svg>
