<?xml version="1.0" encoding="utf-8"?>
<!-- Generator: Adobe Illustrator 20.1.0, SVG Export Plug-In . SVG Version: 6.00 Build 0)  -->
<svg version="1.1" id="Calque_1" xmlns="http://www.w3.org/2000/svg" xmlns:xlink="http://www.w3.org/1999/xlink" x="0px" y="0px"
	 viewBox="0 0 50 50" style="enable-background:new 0 0 50 50;" xml:space="preserve">
<style type="text/css">
	.st0{fill:#D7ED35;}
	.st1{fill:#FBFF66;}
</style>
<g>
	<polygon class="st0" points="13.4,27.4 4.2,15.4 18.1,20.1 17.3,6.2 24.3,19.1 28.7,10 28.7,19.8 48.6,12.6 31.9,27.4 42,33.8 
		29.5,35.4 29.9,45.3 23.4,38 13.1,45.5 15,33.4 1.4,33.4 	"/>
	<polygon class="st1" points="16.2,32.4 5.8,32.4 15,27.8 7.1,17.4 19.2,21.6 18.6,10.7 24.3,21.4 27.6,14.5 27.6,21.3 43.9,15.4 
		30.2,27.6 39,33.2 28.4,34.5 28.8,42.5 23.5,36.7 14.5,43.2 	"/>
	<polygon class="st0" points="17.4,31.4 10.2,31.4 16.5,28.1 10,19.5 20.3,23.1 19.9,15.3 24.4,23.6 26.6,19.1 26.6,22.8 39.2,18.2 
		28.5,27.7 36.1,32.5 27.4,33.6 27.6,39.7 23.7,35.3 15.9,40.9 	"/>
</g>
</svg>
