<?xml version="1.0" encoding="UTF-8" standalone="no"?>
<!-- Generator: Adobe Illustrator 20.1.0, SVG Export Plug-In . SVG Version: 6.00 Build 0)  -->

<svg
   xmlns:dc="http://purl.org/dc/elements/1.1/"
   xmlns:cc="http://creativecommons.org/ns#"
   xmlns:rdf="http://www.w3.org/1999/02/22-rdf-syntax-ns#"
   xmlns:svg="http://www.w3.org/2000/svg"
   xmlns="http://www.w3.org/2000/svg"
   xmlns:sodipodi="http://sodipodi.sourceforge.net/DTD/sodipodi-0.dtd"
   xmlns:inkscape="http://www.inkscape.org/namespaces/inkscape"
   version="1.1"
   id="Calque_1"
   x="0px"
   y="0px"
   viewBox="0 0 28 28"
   xml:space="preserve"
   sodipodi:docname="icone-drogue.svg"
   inkscape:version="0.92.0 r"
   width="28"
   height="28"><metadata
     id="metadata709"><rdf:RDF><cc:Work
         rdf:about=""><dc:format>image/svg+xml</dc:format><dc:type
           rdf:resource="http://purl.org/dc/dcmitype/StillImage" /><dc:title /></cc:Work></rdf:RDF></metadata><defs
     id="defs707" /><sodipodi:namedview
     pagecolor="#ffffff"
     bordercolor="#666666"
     borderopacity="1"
     objecttolerance="10"
     gridtolerance="10"
     guidetolerance="10"
     inkscape:pageopacity="0"
     inkscape:pageshadow="2"
     inkscape:window-width="1920"
     inkscape:window-height="1025"
     id="namedview705"
     showgrid="false"
     inkscape:zoom="3.2703689"
     inkscape:cx="-71.109531"
     inkscape:cy="53.265794"
     inkscape:window-x="1280"
     inkscape:window-y="29"
     inkscape:window-maximized="1"
     inkscape:current-layer="Calque_1" /><style
     type="text/css"
     id="style2">
	.st0{fill:#ADBAD8;}
	.st1{fill:#FFFFFF;}
	.st2{fill:#376E93;}
	.st3{fill:#D6D6D6;}
	.st4{font-family:'Roboto-Thin';}
	.st5{font-size:80px;}
	.st6{fill:#354151;}
	.st7{font-size:18px;}
	.st8{opacity:0.2;fill:#FFFFFF;}
	.st9{fill:none;stroke:#FFFFFF;stroke-width:3.225;stroke-miterlimit:10;}
	.st10{font-family:'Roboto-Black';}
	.st11{font-size:22.5753px;}
	.st12{fill:#229AAA;}
	.st13{fill:#FFCE00;}
	.st14{font-family:'Roboto-Medium';}
	.st15{font-size:12px;}
	.st16{fill:none;stroke:#FFFFFF;stroke-width:2;stroke-linecap:round;stroke-miterlimit:10;}
	.st17{fill:none;stroke:#FFFFFF;stroke-linecap:round;stroke-miterlimit:10;}
	.st18{fill:#EF613A;}
	.st19{fill:#D7ED35;}
	.st20{fill:#5A9DFF;}
	.st21{fill:#EA563D;}
	.st22{fill:#BFC932;}
	.st23{fill:#FFB61A;}
	.st24{fill:#C44130;}
	.st25{fill:#3D83D8;}
	.st26{fill:#20868E;}
	.st27{font-size:21px;}
	.st28{fill:none;stroke:#E5A241;stroke-width:6;stroke-linecap:round;stroke-linejoin:round;stroke-miterlimit:10;}
	.st29{fill:none;stroke:#80D89E;stroke-width:6;stroke-linecap:round;stroke-linejoin:round;stroke-miterlimit:10;}
	.st30{fill:none;stroke:#B7234A;stroke-width:6;stroke-linecap:round;stroke-linejoin:round;stroke-miterlimit:10;}
	.st31{font-size:30px;}
	.st32{font-family:'Roboto-Regular';}
	.st33{fill:none;stroke:#354151;stroke-width:2;stroke-miterlimit:10;}
	.st34{fill:none;stroke:#80D89E;stroke-linecap:round;stroke-linejoin:round;stroke-miterlimit:10;}
	.st35{fill:none;stroke:#B7234A;stroke-linecap:round;stroke-linejoin:round;stroke-miterlimit:10;}
	.st36{fill:none;stroke:#D6D674;stroke-linecap:round;stroke-linejoin:round;stroke-miterlimit:10;}
	.st37{fill:none;stroke:#80D89E;stroke-width:0.5;stroke-linecap:round;stroke-linejoin:round;stroke-miterlimit:10;}
	.st38{fill:none;stroke:#E5A241;stroke-linecap:round;stroke-linejoin:round;stroke-miterlimit:10;}
	.st39{fill:none;stroke:#80D89E;stroke-width:2;stroke-linecap:round;stroke-linejoin:round;stroke-miterlimit:10;}
	.st40{fill:none;stroke:#FFFFFF;stroke-width:4;stroke-linecap:round;stroke-miterlimit:10;}
	.st41{font-family:'Roboto-Bold';}
	.st42{font-size:14px;}
	.st43{font-family:'Roboto-Light';}
</style><g
     id="g335"
     transform="translate(-1050,-232.60001)"><g
       id="g303"><circle
         class="st20"
         cx="1064"
         cy="246.60001"
         r="14"
         id="circle301"
         style="fill:#5a9dff" /></g><g
       id="g315"><path
         class="st1"
         d="m 1063.1,241 1,0.1 0.6,0.1 0.9,0.1 -0.6,3.8 2.5,8.3 -4.5,-0.7 -0.6,-0.1 -4.4,-0.6 4.6,-7.3 0.5,-3.7 m -1.7,-2.3 -0.3,2 -0.5,3.4 -4.4,7 -1.6,2.6 3,0.4 4.4,0.6 0.6,0.1 4.5,0.7 3.1,0.5 -0.9,-3 -2.3,-7.9 0.5,-3.4 0.3,-2 -2,-0.3 -0.9,-0.1 -0.6,-0.1 -1,-0.1 z"
         id="path313"
         inkscape:connector-curvature="0"
         style="fill:#ffffff" /></g><g
       id="g319"><path
         class="st1"
         d="m 1069.1,236.8 c 0.9,0 1.6,0.7 1.6,1.6 0,0.9 -0.7,1.6 -1.6,1.6 -0.9,0 -1.6,-0.7 -1.6,-1.6 0,-0.9 0.7,-1.6 1.6,-1.6 m 0,-1 c -1.4,0 -2.6,1.2 -2.6,2.6 0,1.4 1.2,2.6 2.6,2.6 1.4,0 2.6,-1.2 2.6,-2.6 0,-1.4 -1.2,-2.6 -2.6,-2.6 z"
         id="path317"
         inkscape:connector-curvature="0"
         style="fill:#ffffff" /></g><g
       id="g323"><path
         class="st1"
         d="m 1071.5,243.7 c 0.5,0 0.9,0.4 0.9,0.9 0,0.5 -0.4,0.9 -0.9,0.9 -0.5,0 -0.9,-0.4 -0.9,-0.9 0,-0.5 0.5,-0.9 0.9,-0.9 m 0,-1 c -1,0 -1.9,0.8 -1.9,1.9 0,1.1 0.8,1.9 1.9,1.9 1.1,0 1.9,-0.8 1.9,-1.9 0,-1.1 -0.8,-1.9 -1.9,-1.9 z"
         id="path321"
         inkscape:connector-curvature="0"
         style="fill:#ffffff" /></g><g
       id="g327"><path
         class="st1"
         d="m 1063.4,235.7 c 0.3,0 0.6,0.3 0.6,0.6 0,0.3 -0.3,0.6 -0.6,0.6 -0.3,0 -0.6,-0.3 -0.6,-0.6 0,-0.3 0.3,-0.6 0.6,-0.6 m 0,-1 c -0.9,0 -1.6,0.7 -1.6,1.6 0,0.9 0.7,1.6 1.6,1.6 0.9,0 1.6,-0.7 1.6,-1.6 0,-0.9 -0.7,-1.6 -1.6,-1.6 z"
         id="path325"
         inkscape:connector-curvature="0"
         style="fill:#ffffff" /></g></g></svg>