<?xml version="1.0" encoding="utf-8"?>
<!-- Generator: Adobe Illustrator 20.1.0, SVG Export Plug-In . SVG Version: 6.00 Build 0)  -->
<svg version="1.1" id="Calque_1" xmlns="http://www.w3.org/2000/svg" xmlns:xlink="http://www.w3.org/1999/xlink" x="0px" y="0px"
	 viewBox="0 0 50 50" style="enable-background:new 0 0 50 50;" xml:space="preserve">
<style type="text/css">
	.st0{fill:#229AAA;}
	.st1{fill:#19868E;}
</style>
<g>
	<path class="st0" d="M41.6,41.8c0,0-4.3-4.9-5.6-6.2c-1.3-1.3-1.3-1.9-1.4-2.5c0-0.6-0.4-0.8-0.4-0.8l-3.4-3.4L13.3,11.3l-0.1-0.1
		l-1.6-1.6c-0.2-0.2-0.3-0.2-0.5,0l-0.7,0.7c0,0-0.2,0.1-0.2,0.1L6.1,6.3l1.3-2.9L7.1,3.2L5,5.3L4.9,5.1L5,5L4.2,4.2L3.5,4.9
		l0.8,0.8l0,0l6.9,6.9l0,0l0.6,0.6l0.3,0.9l5.2,5.2c0,0,0.4,0.7,0.3,0.9l1.6,1.6c0,0,0.7,0.6,0.4,1.1l-1.1,1.1l0,0l-0.8,0.8l0.1,0.1
		c-0.9,0.8-4.3,3.8-8.4,5.1l0.9,3.1c4.8-1.5,8.9-5.1,9.7-5.9l0,0l0.5-0.5c0,0,0.3-0.2,0.5,0.1l0.4,0.9l-0.3,0.3l0.8,0.8
		c0,0,0.1,0,0.2,0.1c-0.1,0.1-0.2,0.1-0.3,0.2c-0.7,0.7-0.5,1.9,0.3,2.8c0.8,0.8,1.9,1,2.5,0.5l0.2,0.2l-0.5,3.3
		c0,0-0.2,0.4-0.3,0.6s-0.2,0.8,0.6,0.9c0.7,0.1,1.5,0.2,1.5,0.2s0.6-0.1,0.7-0.8c0.1-0.8,0.6-4.4,0.6-4.4l0.7-0.5l1.9,1.9l0.5-0.5
		l1.2,1.2c1.5,1.5,3.7,10.2,4.1,11.5c0.4,1.3,1.3,0.7,1.3,0.7s3.4-3.2,4-3.7C42,42.3,41.6,41.8,41.6,41.8z M9,30
		c4-1.2,7.4-3.8,8.7-5l-0.2,0.1C16.2,26.3,13,28.9,9,30L9,30z M9,30.4c4-1.3,7.7-4,8.9-5.1l-0.3,0.1C16.5,26.4,14,29.2,9,30.4
		L9,30.4z M9,30.7c5-1.3,7.9-4.1,9.1-5.2l-0.3,0.1C16.6,26.7,14,29.5,9,30.7L9,30.7z M11,31c3-1.3,7.1-4.2,8.2-5.2l0.2,0.1
		C18.3,26.9,14,29.8,11,31L11,31z M11,31.3c3-1.3,7.4-4.4,8.4-5.3l0.2,0.1C18.6,27,14,30.1,11,31.3L11,31.3z M11,31.7
		c3-1.4,7.8-4.6,8.6-5.4l0.2,0.1C18.9,27.1,14,30.4,11,31.7L11,31.7z M11,32c3-1.4,8.1-4.8,8.8-5.5l0.1,0.1C19.2,27.2,14,30.7,11,32
		L11,32z M10.8,32.4L10.8,32.4c4.6-1.5,8.4-5,9.1-5.7l0.1,0.1C19.2,27.4,15.4,31,10.8,32.4z M20.8,26.2l-2.1-2.1l0,0L20.8,26.2
		L20.8,26.2z M21,26.1l-2.1-2.1l0.1-0.1l2.1,2.1L21,26.1z M22,25L20,23l0,0L22,25L22,25z M22.5,31.3c-0.7-0.7-0.9-1.7-0.4-2.3
		c0.5-0.5,1.4-0.4,2.2,0.3c0,0,0.1,0.7-0.9,1.6c0,0,0.7-0.3,1.4-1c0.4,0.6,0.4,1.3-0.1,1.7C24.3,32.2,23.3,32,22.5,31.3z M25.1,32.2
		L25.1,32.2l0.2-0.4l0,0l0,0l2.1,0.2L25.4,32L25.1,32.2z"/>
	<path class="st1" d="M8.6,42.9c0.6,0.6,4,3.7,4,3.7s0.9,0.6,1.3-0.7c0.4-1.3,2.6-10,4.1-11.5l1.2-1.2l0.5,0.5l1.9-1.9l0.7,0.5
		c0,0,0.5,3.6,0.6,4.4c0.1,0.8,0.7,0.8,0.7,0.8s0.8-0.1,1.5-0.2c0.7-0.1,0.7-0.8,0.6-0.9s-0.3-0.6-0.3-0.6L25,32.4l0.2-0.2
		c0.7,0.4,1.7,0.2,2.5-0.5c0.9-0.9,1-2.1,0.3-2.8c-0.1-0.1-0.2-0.1-0.3-0.2c0-0.1,0.2-0.1,0.2-0.1l0.8-0.8l-0.3-0.3l0.4-0.9
		c0.2-0.3,0.5-0.1,0.5-0.1l0.5,0.5l0,0c0.8,0.8,4.9,4.4,9.7,5.9l0.9-3.1c-4.1-1.2-7.5-4.3-8.4-5.1l0.1-0.1l-0.8-0.8l0,0l-1.1-1.1
		c-0.3-0.6,0.4-1.1,0.4-1.1l1.6-1.6c-0.1-0.2,0.3-0.9,0.3-0.9l5.2-5.2l0.3-0.9l0.6-0.6l0,0l6.9-6.9l0,0l0.8-0.8l-0.7-0.7L45,5
		l0.1,0.1L45,5.3l-2.1-2.1l-0.3,0.3l1.3,2.9l-4.1,4.1c0,0-0.2-0.1-0.2-0.1l-0.7-0.7c-0.2-0.2-0.3-0.2-0.5,0l-1.6,1.6l-0.1,0.1
		L19.1,28.9l-3.4,3.4c0,0-0.4,0.3-0.4,0.8c0,0.6-0.1,1.1-1.4,2.5c-1.3,1.3-5.6,6.2-5.6,6.2S8,42.3,8.6,42.9z M39,30.1
		c-3-1.2-6.5-3.8-7.7-5l-0.2-0.1C32.4,26.3,36,28.8,39,30.1L39,30.1z M39,30.5c-3-1.3-6.8-4-7.9-5.1l-0.1-0.1
		C32.1,26.4,36,29.1,39,30.5L39,30.5z M39,30.8c-3-1.3-7-4.1-8.1-5.2l-0.1-0.1C31.9,26.6,36,29.4,39,30.8L39,30.8z M39,31.1
		c-5-1.3-7.2-4.2-8.3-5.3l-0.1-0.1C31.7,26.8,34,29.7,39,31.1L39,31.1z M39,31.4c-5-1.3-7.5-4.4-8.5-5.4L30.4,26
		C31.4,26.9,34,30,39,31.4L39,31.4z M39,31.8c-5-1.4-7.8-4.7-8.7-5.5l-0.1-0.1C31.1,27,34,30.3,39,31.8L39,31.8z M39,32.1
		c-5-1.4-8.2-4.9-8.9-5.5l0-0.1C30.8,27.2,34,30.6,39,32.1L39,32.1z M30.1,26.8L30.1,26.8c0.8,0.6,4.6,4.1,9.2,5.6l0,0.1
		C34.6,31,30.8,27.4,30.1,26.8z M29.2,26.2l2.1-2.1l0,0L29.2,26.2L29.2,26.2z M28.9,26l2.1-2.1l0.1,0.1L29,26.1L28.9,26z M28,25
		L30,23l0,0L28,25L28,25z M25.2,31.7c-0.4-0.4-0.4-1.1-0.1-1.7c0.7,0.7,1.4,1,1.4,1c-0.9-0.9-0.9-1.6-0.9-1.6
		c0.7-0.6,1.7-0.8,2.2-0.3c0.5,0.5,0.4,1.5-0.4,2.3C26.7,32,25.7,32.2,25.2,31.7z M24.6,32l-2.1,0.1l2.1-0.2l0,0L24.6,32l0.4,0.2
		l-0.1,0.1L24.6,32z"/>
</g>
</svg>
