<?xml version="1.0" encoding="utf-8"?>
<!-- Generator: Adobe Illustrator 17.0.0, SVG Export Plug-In . SVG Version: 6.00 Build 0)  -->
<!DOCTYPE svg PUBLIC "-//W3C//DTD SVG 1.1//EN" "http://www.w3.org/Graphics/SVG/1.1/DTD/svg11.dtd">
<svg version="1.1" id="Calque_1" xmlns="http://www.w3.org/2000/svg" xmlns:xlink="http://www.w3.org/1999/xlink" x="0px" y="0px"
	 width="11658.98px" height="800px" viewBox="0 0 11658.98 800" enable-background="new 0 0 11658.98 800" xml:space="preserve">
<path fill="none" stroke="#2CDA9B" stroke-width="20" stroke-miterlimit="10" d="M2559.743,624.628
	c0,0,304.778,47.206,689.761-76.257S3586.365,257.871,3835,341.39c0,0-160.41,127.094,112.287,98.044s336.86-137.988,417.065-54.469
	c0,0-64.164,80.178,48.123,90.927c112.287,10.749,401.024-43.43,521.332-10.894c0,0,328.84,87.005,457.167,65.217
	c128.328-21.788,216.553-79.888,56.144-108.938c-160.41-29.05-20.051,136.172,168.43,0c0,0,276.707-239.663,429.096-250.557
	c152.389-10.894,340.87-3.631,457.167,136.172c116.297,139.804,332.851,205.166,541.383,137.988s368.942-299.235,741.894-277.619
	c0,0,228.584,34.325,24.062,86.978s-44.113,87.15,48.123,58.1c0,0,172.44-78.072,156.399-5.447
	c-16.041,72.625,196.501-9.078,240.614-38.128c44.113-29.05,196.502-118.016,380.974-21.788
	c184.471,96.229,437.116,54.469,557.423,16.341c120.308-38.128-16.041-112.569-128.327-30.866
	c-112.287,81.703,256.655,88.966,312.799,79.888s384.982-54.469,705.802-119.832s713.823-9.078,741.895,63.547
	c28.072,72.625,20.052,132.541-124.317,83.519c-144.368-49.022,224.574-99.86,364.933-56.285s533.361,54.469,593.516,18.156"/>
<rect x="1280" y="617" fill="#2CDA9B" width="1280" height="17"/>
<rect y="617" fill="#2CDA9B" width="1280" height="17"/>
</svg>
