<?xml version="1.0" encoding="utf-8"?>
<!-- Generator: Adobe Illustrator 16.0.0, SVG Export Plug-In . SVG Version: 6.00 Build 0)  -->
<!DOCTYPE svg PUBLIC "-//W3C//DTD SVG 1.1//EN" "http://www.w3.org/Graphics/SVG/1.1/DTD/svg11.dtd">
<svg version="1.1" id="Calque_1" xmlns="http://www.w3.org/2000/svg" xmlns:xlink="http://www.w3.org/1999/xlink" x="0px" y="0px"
	 width="365.454px" height="195.945px" viewBox="0 0 365.454 195.945" enable-background="new 0 0 365.454 195.945"
	 xml:space="preserve">
<g>
	<path fill="#E5E5E5" d="M339.834,85.638v4.95H36.815c-0.46,0-0.91-0.021-1.35-0.07h-12.48c-0.52,0-1.02-0.12-1.47-0.33
		c-1.2-0.55-2.03-1.77-2.03-3.17c0-0.96,0.39-1.84,1.03-2.471c0.29-0.289,0.63-0.529,1.01-0.699c0.42-6.6,1.89-18.41,3.65-26.77
		c1.63-7.781,3.18-16.961,10.6-18.471c0.7-0.15,1.45-0.23,2.25-0.23c9.38,0,27.04,0,27.04,0h252.2c0,0,4.319-0.27,6.93,5.361
		l0.42,1.109l12.71,33.859l1.69,4.511l0.34,0.521v0.01C339.665,84.308,339.834,84.957,339.834,85.638z"/>
	<path fill="#BDFFFF" d="M230.276,48.848v28c0,2.21-1.789,4-4,4h-60v-32c0-2.21,1.791-4,4-4h56
		C228.487,44.848,230.276,46.638,230.276,48.848z"/>
	<path fill="#BDFFFF" d="M141.864,48.848v28c0,2.21-1.799,4-4,4H81.235v-19.91c0-8.891,6.56-16.09,14.66-16.09h41.969
		C140.065,44.848,141.864,46.638,141.864,48.848z"/>
	<path fill="#E5E5E5" d="M237.735,22.998v15.379H65.065c0,0-17.66,0-27.04,0c-0.8,0-1.55,0.08-2.25,0.23
		c0.21-0.83,0.42-1.67,0.64-2.5c1.771-6.77,4.051-13.109,11.4-13.109H237.735z"/>
	<path fill="#E5E5E5" d="M319.485,38.377h-81.75v-16.75h42.38c0,0,17.66,0,27.04,0c7.84,0,9.91,7.221,11.75,14.48
		C319.105,36.867,319.294,37.627,319.485,38.377z"/>
	<path fill="#001526" d="M230.276,48.848v28c0,2.21-1.789,4-4,4h-67c-2.209,0-4-1.79-4-4v-28c0-2.21,1.791-4,4-4h67
		C228.487,44.848,230.276,46.638,230.276,48.848z"/>
	<path fill="#001526" d="M141.864,48.848v28c0,2.21-1.799,4-4,4h-77c-2.209,0-4-1.79-4-4v-15.91c0-8.891,6.561-16.09,14.66-16.09
		h66.34C140.065,44.848,141.864,46.638,141.864,48.848z"/>
	<path fill="#001526" d="M326.653,76.852c1.332,4-2.793,4-5.002,4h-72.834c-2.209,0-4-1.791-4-4v-28c0-2.209,1.791-4,4-4h62.834
		c3.25,0,4.404,1.758,5.168,4L326.653,76.852z"/>
	<path fill="#001526" d="M337.325,78.707c-1.99-0.129-4.97-1.51-4.97-1.51c-2.24-0.83-3.49-1.76-4.26-4.119l-8.36-24.23
		c0-2.21,1.79-4,4-4h0.88L337.325,78.707z"/>
	<g>
		<rect x="300.985" y="44.848" fill="#C6C6C6" width="3.5" height="36"/>
	</g>
	<path fill="#001526" d="M339.836,90.589v11.961c0,0.39,0,0.8-0.01,1.22c0,1.07-0.011,2.229-0.011,3.49v40.67
		c0,9.2-7.46,16.66-16.659,16.66h-9.511c-0.859,0-1.63-0.391-2.14-1c0,0-0.01,0-0.01-0.011l-0.34-0.54l-0.12-0.3l-11.98-27.49
		c-1.54-3.43-3.55-5.63-6.17-5.63h-0.899l-7.181-0.04l-25.189,0.04h-0.891c-2.63,0-4.64,2.2-6.17,5.63l-11.939,27.391l-0.24,0.55
		c-0.48,0.84-1.38,1.4-2.42,1.4H135.316c-0.859,0-1.63-0.391-2.14-1c0,0-0.01,0-0.01-0.011l-0.391-0.63
		c-0.01-0.02-0.02-0.04-0.02-0.05l-8.1-13.05c-1.54-2.41-3.551-3.95-6.17-3.95h-0.9l-25.18-0.03l-25.19,0.03h-0.89
		c-2.63,0-4.641,1.54-6.17,3.95l-8.2,13.21l-0.25,0.4c-0.5,0.689-1.311,1.13-2.23,1.13h-16.3c-9.21,0-11.67-7.46-11.67-16.66V90.589
		c0-0.139,0-0.27,0.01-0.399c0.45,0.21,0.95,0.33,1.471,0.33h12.479c0.44,0.05,0.89,0.069,1.35,0.069H339.836z"/>
	<g>
		<rect x="146.315" y="36.518" fill="#C6C6C6" width="3" height="128.07"/>
		<rect x="236.235" y="38.018" fill="#C6C6C6" width="3" height="126.57"/>
	</g>
	<path fill="none" stroke="#000000" stroke-miterlimit="10" d="M339.834,102.548v1.22h-0.01
		C339.834,103.348,339.834,102.938,339.834,102.548z"/>
	<g>
		<path fill="#FFFFFF" d="M234.694,87.018c0,1.934-1.568,3.5-3.5,3.5H154.36c-1.934,0-3.5-1.566-3.5-3.5l0,0
			c0-1.934,1.566-3.5,3.5-3.5h76.834C233.125,83.518,234.694,85.084,234.694,87.018L234.694,87.018z"/>
		<path fill="#FFFFFF" d="M337.151,87.018c0,1.934-1.568,3.5-3.5,3.5h-88.998c-1.934,0-3.5-1.566-3.5-3.5l0,0
			c0-1.934,1.566-3.5,3.5-3.5h88.998C335.583,83.518,337.151,85.084,337.151,87.018L337.151,87.018z"/>
		<path fill="#FFFFFF" d="M145.155,87.018c0,1.93-1.57,3.5-3.5,3.5H22.985c-0.521,0-1.021-0.12-1.471-0.33
			c-1.199-0.55-2.029-1.77-2.029-3.17c0-0.96,0.39-1.84,1.029-2.471c0.29-0.289,0.631-0.529,1.01-0.699
			c0.44-0.221,0.94-0.33,1.461-0.33h118.67C143.584,83.518,145.155,85.088,145.155,87.018z"/>
	</g>
	<g>
		<path fill="#E5E5E5" d="M43.227,165.026c0,2.133-1.729,3.863-3.863,3.863H22.278c-2.134,0-3.863-1.73-3.863-3.863v-9.969
			c0-2.134,1.729-3.863,3.863-3.863h17.086c2.134,0,3.863,1.729,3.863,3.863V165.026z"/>
		<path fill="#E5E5E5" d="M340.894,165.026c0,2.133-1.729,3.863-3.863,3.863h-17.086c-2.134,0-3.863-1.73-3.863-3.863v-9.969
			c0-2.134,1.729-3.863,3.863-3.863h17.086c2.134,0,3.863,1.729,3.863,3.863V165.026z"/>
	</g>
	<path fill="#D03D00" d="M46.33,142.018c0,0.553-0.448,1-1,1h-8.5c-0.553,0-1-0.447-1-1v-4.25c0-0.553,0.447-1,1-1h8.5
		c0.552,0,1,0.447,1,1V142.018z"/>
	<path fill="#D03D00" d="M333.938,142.018c0,0.553-0.448,1-1,1h-8.5c-0.553,0-1-0.447-1-1v-4.25c0-0.553,0.447-1,1-1h8.5
		c0.552,0,1,0.447,1,1V142.018z"/>
	<rect x="155.276" y="54.35" fill="#FFFFFF" width="75" height="5"/>
	<rect x="155.276" y="66.349" fill="#FFFFFF" width="75" height="5"/>
	<g>
		<path d="M92.811,122.651c-16.699,0-30.23,13.54-30.23,30.23s13.531,30.23,30.23,30.23c16.689,0,30.221-13.54,30.221-30.23
			S109.5,122.651,92.811,122.651z M92.811,166.231c-7.379,0-13.35-5.979-13.35-13.35s5.971-13.35,13.35-13.35
			c7.371,0,13.35,5.979,13.35,13.35S100.182,166.231,92.811,166.231z"/>
		<path fill="#FFFFFF" d="M92.811,132.682c-11.16,0-20.209,9.04-20.209,20.2s9.049,20.2,20.209,20.2s20.201-9.04,20.201-20.2
			S103.971,132.682,92.811,132.682z M92.811,166.231c-7.379,0-13.35-5.979-13.35-13.35s5.971-13.35,13.35-13.35
			c7.371,0,13.35,5.979,13.35,13.35S100.182,166.231,92.811,166.231z"/>
		<path fill="#E5E5E5" d="M106.161,152.882c0,7.37-5.979,13.35-13.35,13.35c-7.379,0-13.35-5.979-13.35-13.35
			s5.971-13.35,13.35-13.35C100.182,139.532,106.161,145.512,106.161,152.882z"/>
		<path d="M92.811,166.712c-7.626,0-13.83-6.204-13.83-13.83s6.204-13.83,13.83-13.83s13.83,6.204,13.83,13.83
			S100.437,166.712,92.811,166.712z M92.811,140.013c-7.096,0-12.869,5.773-12.869,12.869s5.773,12.869,12.869,12.869
			s12.869-5.773,12.869-12.869S99.907,140.013,92.811,140.013z"/>
		<path d="M92.811,167.231c-7.912,0-14.35-6.438-14.35-14.35s6.438-14.35,14.35-14.35s14.35,6.438,14.35,14.35
			S100.723,167.231,92.811,167.231z M92.811,140.532c-6.81,0-12.35,5.54-12.35,12.35s5.54,12.35,12.35,12.35s12.35-5.54,12.35-12.35
			S99.621,140.532,92.811,140.532z"/>
		<g>
			<g>
				<circle cx="92.808" cy="136.199" r="1.642"/>
				<circle cx="92.808" cy="169.564" r="1.642"/>
			</g>
			<g>
				<circle cx="104.604" cy="141.086" r="1.641"/>
				<circle cx="81.011" cy="164.678" r="1.641"/>
			</g>
			<g>
				<circle cx="109.491" cy="152.882" r="1.641"/>
				<circle cx="76.125" cy="152.882" r="1.641"/>
			</g>
			<g>
				<circle cx="104.604" cy="164.678" r="1.641"/>
				<circle cx="81.012" cy="141.085" r="1.641"/>
			</g>
			<g>
				<circle cx="86.655" cy="137.376" r="1.641"/>
				<circle cx="98.961" cy="168.388" r="1.641"/>
			</g>
			<g>
				<circle cx="99.421" cy="137.566" r="1.641"/>
				<circle cx="86.195" cy="168.197" r="1.641"/>
			</g>
			<g>
				<circle cx="108.314" cy="146.728" r="1.64"/>
				<circle cx="77.301" cy="159.036" r="1.641"/>
			</g>
			<g>
				<circle cx="108.124" cy="159.495" r="1.641"/>
				<circle cx="77.493" cy="146.269" r="1.641"/>
			</g>
		</g>
	</g>
	<g>
		<path d="M275.971,122.651c-16.689,0-30.229,13.54-30.229,30.23s13.54,30.23,30.229,30.23c16.69,0,30.23-13.54,30.23-30.23
			S292.662,122.651,275.971,122.651z M275.971,166.231c-7.37,0-13.35-5.979-13.35-13.35s5.979-13.35,13.35-13.35
			s13.351,5.979,13.351,13.35S283.341,166.231,275.971,166.231z"/>
		<path fill="#FFFFFF" d="M275.971,132.682c-11.16,0-20.2,9.04-20.2,20.2s9.04,20.2,20.2,20.2s20.21-9.04,20.21-20.2
			S287.131,132.682,275.971,132.682z M275.971,166.231c-7.37,0-13.35-5.979-13.35-13.35s5.979-13.35,13.35-13.35
			s13.351,5.979,13.351,13.35S283.341,166.231,275.971,166.231z"/>
		<path fill="#E5E5E5" d="M289.322,152.882c0,7.37-5.98,13.35-13.351,13.35s-13.35-5.979-13.35-13.35s5.979-13.35,13.35-13.35
			S289.322,145.512,289.322,152.882z"/>
		<path d="M275.971,166.712c-7.626,0-13.83-6.204-13.83-13.83s6.204-13.83,13.83-13.83c7.627,0,13.831,6.204,13.831,13.83
			S283.598,166.712,275.971,166.712z M275.971,140.013c-7.096,0-12.869,5.773-12.869,12.869s5.773,12.869,12.869,12.869
			c7.097,0,12.87-5.773,12.87-12.869S283.068,140.013,275.971,140.013z"/>
		<path d="M275.971,167.231c-7.912,0-14.35-6.438-14.35-14.35s6.438-14.35,14.35-14.35c7.913,0,14.351,6.438,14.351,14.35
			S283.884,167.231,275.971,167.231z M275.971,140.532c-6.81,0-12.35,5.54-12.35,12.35s5.54,12.35,12.35,12.35
			c6.811,0,12.351-5.54,12.351-12.35S282.782,140.532,275.971,140.532z"/>
		<g>
			<g>
				<circle cx="275.972" cy="136.199" r="1.641"/>
				<circle cx="275.972" cy="169.564" r="1.641"/>
			</g>
			<g>
				<circle cx="287.769" cy="141.086" r="1.641"/>
				<circle cx="264.176" cy="164.678" r="1.641"/>
			</g>
			<g>
				<circle cx="292.654" cy="152.882" r="1.641"/>
				<path d="M259.291,154.522c-0.906,0-1.643-0.734-1.643-1.642c0-0.906,0.736-1.64,1.643-1.64c0.904,0,1.641,0.733,1.641,1.641
					C260.931,153.788,260.195,154.522,259.291,154.522z"/>
			</g>
			<g>
				<circle cx="287.769" cy="164.678" r="1.641"/>
				<circle cx="264.177" cy="141.085" r="1.641"/>
			</g>
			<g>
				<circle cx="269.819" cy="137.376" r="1.64"/>
				<circle cx="282.126" cy="168.388" r="1.641"/>
			</g>
			<g>
				<circle cx="282.586" cy="137.566" r="1.641"/>
				<circle cx="269.36" cy="168.197" r="1.641"/>
			</g>
			<g>
				<circle cx="291.478" cy="146.728" r="1.641"/>
				<circle cx="260.466" cy="159.036" r="1.641"/>
			</g>
			<g>
				<circle cx="291.289" cy="159.495" r="1.641"/>
				<circle cx="260.658" cy="146.269" r="1.641"/>
			</g>
		</g>
	</g>
	<g>
		<path fill="#001526" d="M53.155,48.848l-0.07,0.35l-0.4,2.1l-0.279,1.5l-0.4,2.101l-0.29,1.5l-0.399,2.101l-0.291,1.5l-0.399,2.1
			l-0.28,1.5l-0.4,2.1l-0.289,1.5l-0.4,2.1l-0.29,1.5l-0.399,2.101l-0.281,1.5l-0.399,2.101l-0.069,0.35
			c-0.061,0.41-0.17,0.8-0.33,1.15c-0.74,1.789-2.471,2.85-4.311,2.85h-4.859c-1.82,0-3.61-1.189-3.98-2.85
			c-0.03-0.141-0.051-0.291-0.061-0.44v-0.45c0.01-0.08,0.03-0.17,0.041-0.26l0.069-0.35l0.399-2.101l0.281-1.5l0.399-2.101
			l0.29-1.5l0.4-2.1l0.289-1.5l0.4-2.1l0.28-1.5l0.399-2.1l0.291-1.5l0.399-2.101l0.29-1.5l0.4-2.101l0.279-1.5l0.4-2.1l0.07-0.35
			c0.09-0.42,0.209-0.801,0.359-1.15c0.85-1.949,2.6-2.85,4.471-2.85h4.67c1.84,0,3.58,1.08,3.939,2.85
			C53.184,48.058,53.194,48.438,53.155,48.848z"/>
		<path fill="#FFFFFF" d="M53.155,48.848l-0.07,0.35h-13.5l0.07-0.35c0.09-0.42,0.209-0.801,0.359-1.15h13.08
			C53.184,48.058,53.194,48.438,53.155,48.848z"/>
		<polygon fill="#FFFFFF" points="52.004,54.897 51.714,56.397 38.214,56.397 38.504,54.897 		"/>
		<polygon fill="#FFFFFF" points="52.684,51.297 52.405,52.797 38.905,52.797 39.184,51.297 		"/>
		<polygon fill="#FFFFFF" points="51.315,58.498 51.024,59.998 37.524,59.998 37.815,58.498 		"/>
		<polygon fill="#FFFFFF" points="50.625,62.098 50.344,63.598 36.844,63.598 37.125,62.098 		"/>
		<polygon fill="#FFFFFF" points="49.944,65.697 49.655,67.197 36.155,67.197 36.444,65.697 		"/>
		<polygon fill="#FFFFFF" points="49.254,69.297 48.964,70.797 35.464,70.797 35.754,69.297 		"/>
		<polygon fill="#FFFFFF" points="35.065,72.897 48.565,72.897 48.284,74.397 34.784,74.397 		"/>
		<path fill="#FFFFFF" d="M34.384,76.498h13.5l-0.069,0.35c-0.061,0.41-0.17,0.8-0.33,1.15h-13.15h-0.061v-0.44v-0.45L34.384,76.498
			z"/>
	</g>
	<path d="M255.985,102.352c0,1.656-1.344,2.999-3,2.999h-8.5c-1.656,0-3-1.343-3-2.999l0,0c0-1.657,1.344-3,3-3h8.5
		C254.641,99.352,255.985,100.694,255.985,102.352L255.985,102.352z"/>
	<path fill="#E5E5E5" d="M357.266,119.109c-0.149,14.5-4.279,26.08-5.52,25.851l-11.931-0.11v-37.59c0-1.261,0.011-2.42,0.011-3.49
		c0.01-0.42,0.01-0.83,0.01-1.22V92.29l12.4,0.119c0.02,0,0.039,0,0.06,0.01C353.537,92.649,357.426,104.609,357.266,119.109z"/>
	<path fill="#C6C6C6" d="M237.735,36.107v2.27H65.065c0,0-17.66,0-27.04,0c-0.8,0-1.55,0.08-2.25,0.23c0.21-0.83,0.42-1.67,0.64-2.5
		H237.735z"/>
	<path fill="#C6C6C6" d="M319.485,38.377h-81.75v-2.27h81.17C319.105,36.867,319.294,37.627,319.485,38.377z"/>
	<polygon fill="#FFFFFF" points="79.461,48.386 80.985,46.856 82.192,48.647 83.977,47.433 84.823,49.419 86.806,48.565 
		87.26,50.676 89.37,50.212 89.416,52.372 91.575,52.315 91.211,54.444 93.342,54.797 92.583,56.819 94.608,57.569 93.48,59.411 
		95.327,60.53 93.871,62.125 95.471,63.574 93.74,64.864 95.038,66.59 93.093,67.529 94.041,69.469 91.954,70.024 92.517,72.108 
		90.364,72.257 90.522,74.411 88.378,74.15 88.126,76.294 86.072,75.633 85.418,77.691 83.526,76.652 82.495,78.549 80.833,77.171 
		79.461,78.839 78.09,77.171 76.428,78.549 75.397,76.652 73.504,77.691 72.851,75.633 70.796,76.294 70.544,74.15 68.401,74.411 
		68.559,72.257 66.406,72.108 66.969,70.024 64.882,69.469 65.83,67.529 63.885,66.59 65.183,64.864 63.452,63.574 65.052,62.125 
		63.596,60.53 65.443,59.411 64.315,57.569 66.34,56.819 65.581,54.797 67.711,54.444 67.348,52.315 69.507,52.372 69.553,50.212 
		71.663,50.676 72.117,48.565 74.1,49.419 74.946,47.433 76.731,48.647 77.938,46.856 	"/>
</g>
</svg>
