<?xml version="1.0" encoding="utf-8"?>
<!-- Generator: Adobe Illustrator 17.0.0, SVG Export Plug-In . SVG Version: 6.00 Build 0)  -->
<!DOCTYPE svg PUBLIC "-//W3C//DTD SVG 1.1//EN" "http://www.w3.org/Graphics/SVG/1.1/DTD/svg11.dtd">
<svg version="1.1" id="Calque_2" xmlns="http://www.w3.org/2000/svg" xmlns:xlink="http://www.w3.org/1999/xlink" x="0px" y="0px"
	 width="841px" height="1189.497px" viewBox="0 0 841 1189.497" enable-background="new 0 0 841 1189.497" xml:space="preserve">
<path opacity="0.2" fill="#323B49" d="M461.36,649.681c-4.333-8.333-11-7.667-11-7.667c7.667-6.667,3.333-16,3.333-16
	c-5-9.333-10.667-8.333-10.667-8.333c3-2.667,3.333-9.667,0-18c-3.333-8.333-10-8.612-10-8.612c5.333-6.278,4-17.055,2.333-20.722
	c-7.269-15.991-30-6.667-37.667-3.667c-7.667,3-28.333,8.667-37.333,9c-9,0.333-20.667,0-20.667,0c12.333,15.667,5,22,5,22
	c10,16.667-6.667,27-6.667,27c1.333,16.333-11.333,21.333-20,23c-8.667,1.667-34.333,2-39,3.333c-4.667,1.333-12.333,5-15,7
	c-1.675,1.256-24.912,19.341-41.967,32.622l-21.085,16.043c-6.812,5.184-8.133,14.908-2.95,21.721
	c3.05,4.008,7.671,6.115,12.347,6.115c3.271,0,6.57-1.032,9.374-3.166l51.934-39.515c1.631,1.304,2.38,2.856,2.55,4.486
	l-65.503,49.878c-5.053,3.848-6.03,11.063-2.183,16.116c2.263,2.972,5.69,4.534,9.158,4.534c2.429,0,4.877-0.767,6.958-2.352
	l52.036-39.624c2.353,0.543,3.144,2.05,3.183,3.762l-36.274,27.621c-1.757,1.339-2.097,3.849-0.759,5.605
	c0.787,1.034,1.979,1.577,3.186,1.577c0.845,0,1.696-0.267,2.42-0.817l49.42-37.632c2.023,0.528,2.604,1.653,2.622,2.74
	l-56.241,42.826c-3.735,2.844-4.457,8.178-1.613,11.912c1.673,2.196,4.206,3.351,6.769,3.351c1.795,0,3.605-0.566,5.143-1.737
	l72.667-55.333c0.169-0.129,0.326-0.269,0.483-0.408c2.332-0.591,4.93-1.108,8.004-1.659c13.013-2.333,50.654-9.333,50.654-9.333
	c55-25.667,75.667-51.667,75.667-51.667C462.027,662.348,465.693,658.014,461.36,649.681z"/>
<path fill="#FAF5E7" stroke="#FAF5E7" stroke-miterlimit="10" d="M252.395,643.547c0,0-11.535-21,7.465-32.333
	c19-11.333,78.197-9,78.197-9l7.136,32.333l-48.134,24.165L252.395,643.547z"/>
<path fill="#FAF5E7" stroke="#FAF5E7" stroke-miterlimit="10" d="M252.395,649.027c0,0-11.535-21,7.465-32.333
	c19-11.333,78.197-9,78.197-9l7.136,32.333l-48.134,24.165L252.395,649.027z"/>
<path opacity="0.2" fill="#323B49" d="M253.745,675.211c-6.708,0.815-16.667-0.851-21-10.184c-4.333-9.333,1.667-11.333,8-16.333
	c6.333-5,25.333-19,25.333-19s9.667-7.333,18.333,1.667c8.667,9-9.955,24.761-9.955,24.761l-1.712,12.572L253.745,675.211z"/>
<path opacity="0.2" fill="#323B49" stroke="#323B49" stroke-miterlimit="10" d="M259.86,622.493c0,0-9.667-6.667-7-20.333
	c2.667-13.667,17.667-19.333,17.667-19.333l70,9l21.895,18.333c0,0,2.895,22.333,0,22c-2.895-0.333-21.895-2-21.895-2
	s-2.667-13.333-35-10C273.193,623.493,259.86,622.493,259.86,622.493z"/>
<path fill="#FAF5E7" stroke="#FAF5E7" stroke-miterlimit="10" d="M259.86,620.693c0,0-9.667-6.667-7-20.333
	c2.667-13.667,17.667-19.333,17.667-19.333l70,9l21.895,18.333c0,0,2.895,22.333,0,22s-21.895-2-21.895-2s-2.667-13.333-35-10
	S259.86,620.693,259.86,620.693z"/>
<path opacity="0.2" fill="#323B49" stroke="#323B49" stroke-miterlimit="10" d="M295.86,556.398c0,0-22.667,1.667-27.333,15.333
	c-4.667,13.667,0,14.667,0,14.667s21,1,29.667,3c8.667,2,42.333,10.667,54,15.667c11.667,5,10.667-23.333,9.667-24.333
	s-23.803-15.667-23.803-15.667L295.86,556.398z"/>
<path fill="#FAF5E7" stroke="#FAF5E7" stroke-miterlimit="10" d="M295.86,554.36c0,0-22.667,1.667-27.333,15.333
	c-4.667,13.667,0,14.667,0,14.667s21,1,29.667,3c8.667,2,42.333,10.667,54,15.667c11.667,5,10.667-23.333,9.667-24.333
	s-23.803-15.667-23.803-15.667L295.86,554.36z"/>
<path opacity="0.2" fill="#323B49" stroke="#323B49" stroke-miterlimit="10" d="M392.193,580.372c-3.865-4.52-15-24.333-25.667-34
	c-10.667-9.667-25.809-17.667-34.904-14c-9.096,3.667-16.429,11.667-32.096,14.667c-15.667,3-17.401,9.333-14.367,15.667
	c3.034,6.333,15.034,8,30.7,9.667c15.667,1.667,19.908,4.734,27.62,10.367c7.713,5.633,25.046,11.966,28.38,11.633
	C375.193,594.039,392.193,580.372,392.193,580.372z"/>
<path fill="#FAF5E7" stroke="#FAF5E7" stroke-miterlimit="10" d="M392.193,578.693c-3.865-4.52-15-24.333-25.667-34
	c-10.667-9.667-25.809-17.667-34.904-14c-9.096,3.667-16.429,11.667-32.096,14.667c-15.667,3-17.401,9.333-14.367,15.667
	c3.034,6.333,15.034,8,30.7,9.667c15.667,1.667,19.908,4.734,27.62,10.367c7.713,5.633,25.046,11.966,28.38,11.633
	C375.193,592.36,392.193,578.693,392.193,578.693z"/>
<path fill="#FAF5E7" stroke="#FAF5E7" stroke-miterlimit="10" d="M252.193,677.211c-6.708,0.815-16.667-0.851-21-10.184
	c-4.333-9.333,1.667-11.333,8-16.333c6.333-5,25.333-19,25.333-19s9.667-7.333,18.333,1.667s-9.955,24.761-9.955,24.761
	l-1.712,12.572L252.193,677.211z"/>
<g>
	<path opacity="0.2" fill="#323B49" d="M539.356,736.567l-73.647-29.76c-0.433-1.053-0.549-2.577,0.176-4.781
		c0.27-0.819,0.642-1.409,1.079-1.826l47.238,18.647c1.748,0.689,3.549,1.017,5.32,1.017c5.778,0,11.24-3.479,13.491-9.18
		c2.94-7.449-0.715-15.871-8.163-18.812l-58.407-23.055c1.66-3.011,2.885-7.002-0.35-13.223c-4.333-8.333-11-7.667-11-7.667
		l-30.29,20.994c-8.19-0.62-15.495-0.871-16.611,0.106c-2.667,2.333-34,10-34,10s-16.667,18-17,19.667
		c-0.177,0.883,4.605,6.069,9.142,10.752l-35.738,24.77c2.292-0.575,4.838-1.082,7.844-1.621c7.899-1.416,24.862-4.55,36.982-6.796
		l157.064,61.6c0.779,0.306,1.582,0.451,2.371,0.451c2.596,0,5.048-1.566,6.053-4.129c1.312-3.342-0.336-7.113-3.678-8.424
		l-82.169-32.226c-0.508-1.823-0.424-4.136,0.796-7.044c1.269-3.027,2.94-4.646,4.743-5.397l69.761,28.19
		c1.474,0.596,2.995,0.877,4.492,0.877c4.747,0,9.242-2.836,11.13-7.507C548.469,746.045,545.501,739.05,539.356,736.567z"/>
	<path opacity="0.2" fill="#323B49" d="M329.953,734.661l0.644-0.446c-0.052,0.013-0.109,0.025-0.161,0.039
		C330.279,734.392,330.122,734.532,329.953,734.661z"/>
</g>
<g>
	<path fill="#E54E7E" stroke="#E54E7E" stroke-miterlimit="10" d="M349.226,526.292c0,0,1.107-26.503,34.17-31.793
		c8.333-1.333,12-1,19.333-6.667c7.333-5.667,10.333-6,13.667,0s6.667,26.333,14.333,29.667
		c7.667,3.333,14.499,22.667,14.499,22.667l-31.526,7l-12.307,4.167l-21.333,19.866L349.226,526.292z"/>
	<g>
		<g>
			<path fill="#FFFFFF" d="M390.2,512.447l6.943-13.71l14.474,11.01c2.116,1.61,2.044,4.817-0.141,6.331l-8.636,5.985L390.2,512.447
				z"/>
			<polygon fill="#FFFFFF" points="381.699,536.714 371.162,525.64 390.2,512.447 394.765,527.659 			"/>
			<polygon fill="#FFFFFF" points="381.699,536.714 397.581,537.05 402.152,552.272 388.415,561.792 			"/>
			<path fill="#FFFFFF" d="M423.293,537.621l-15.273,7.555c-1.495,0.74-3.134-0.71-2.582-2.284l1.968-5.618L423.293,537.621z"/>
		</g>
		<line fill="#323B49" x1="388.611" y1="579.589" x2="346.671" y2="523.077"/>
		<path fill="#323B49" d="M390.199,580.805c-0.111,0.145-0.243,0.276-0.396,0.39c-0.887,0.658-2.14,0.473-2.798-0.414l-41.94-56.513
			c-0.658-0.887-0.472-2.141,0.414-2.798c0.887-0.658,2.14-0.473,2.798,0.414l1.946,2.622l39.994,53.891
			C390.761,579.131,390.729,580.115,390.199,580.805z"/>
	</g>
	<g>
		<path opacity="0.2" fill="#323B49" stroke="#323B49" stroke-miterlimit="10" d="M395.374,522.926c0,0,7.333-5.637,20.667,1.875
			c13.333,7.512,23,10.03,32.333,7.271c9.333-2.759,20.667-4.4,18.667,1.087c-2,5.487-15.333,17.487-12.333,28.487
			s1.259,26.02-11.501,23.667c-12.759-2.353-10.499-6.076-24.833-4.038c-14.333,2.038-38.48-6.206-38.48-6.206L395.374,522.926z"/>
		<g opacity="0.2">
			<g>
				<polygon fill-rule="evenodd" clip-rule="evenodd" fill="#323B49" stroke="#323B49" stroke-miterlimit="10" points="
					413.285,533.453 414.314,535.539 416.615,535.873 414.95,537.496 415.343,539.788 413.285,538.706 411.226,539.788 
					411.619,537.496 409.954,535.873 412.255,535.539 				"/>
				<polygon fill-rule="evenodd" clip-rule="evenodd" fill="#323B49" stroke="#323B49" stroke-miterlimit="10" points="
					422.121,531.386 423.15,533.471 425.451,533.806 423.786,535.429 424.179,537.721 422.121,536.639 420.062,537.721 
					420.456,535.429 418.79,533.806 421.092,533.471 				"/>
				<polygon fill-rule="evenodd" clip-rule="evenodd" fill="#323B49" stroke="#323B49" stroke-miterlimit="10" points="
					430.82,534.149 431.85,536.234 434.151,536.569 432.486,538.192 432.879,540.484 430.82,539.402 428.762,540.484 
					429.155,538.192 427.49,536.569 429.791,536.234 				"/>
				<polygon fill-rule="evenodd" clip-rule="evenodd" fill="#323B49" stroke="#323B49" stroke-miterlimit="10" points="
					437.944,541.428 438.973,543.513 441.274,543.848 439.609,545.471 440.002,547.763 437.944,546.681 435.885,547.763 
					436.279,545.471 434.613,543.848 436.915,543.513 				"/>
				<polygon fill-rule="evenodd" clip-rule="evenodd" fill="#323B49" stroke="#323B49" stroke-miterlimit="10" points="
					440.367,550.62 441.397,552.705 443.698,553.039 442.033,554.663 442.426,556.955 440.367,555.872 438.309,556.955 
					438.702,554.663 437.037,553.039 439.338,552.705 				"/>
				<polygon fill-rule="evenodd" clip-rule="evenodd" fill="#323B49" stroke="#323B49" stroke-miterlimit="10" points="
					437.63,559.939 438.659,562.024 440.961,562.358 439.295,563.982 439.689,566.273 437.63,565.191 435.572,566.273 
					435.965,563.982 434.3,562.358 436.601,562.024 				"/>
				<polygon fill-rule="evenodd" clip-rule="evenodd" fill="#323B49" stroke="#323B49" stroke-miterlimit="10" points="
					430.969,566.273 431.998,568.359 434.3,568.693 432.634,570.316 433.028,572.609 430.969,571.526 428.911,572.609 
					429.304,570.316 427.639,568.693 429.94,568.359 				"/>
				<polygon fill-rule="evenodd" clip-rule="evenodd" fill="#323B49" stroke="#323B49" stroke-miterlimit="10" points="
					421.721,568.734 422.75,570.82 425.051,571.154 423.386,572.777 423.779,575.069 421.721,573.987 419.663,575.069 
					420.056,572.777 418.39,571.154 420.692,570.82 				"/>
				<polygon fill-rule="evenodd" clip-rule="evenodd" fill="#323B49" stroke="#323B49" stroke-miterlimit="10" points="
					412.354,566.058 413.383,568.143 415.685,568.477 414.019,570.101 414.413,572.393 412.354,571.31 410.296,572.393 
					410.689,570.101 409.024,568.477 411.325,568.143 				"/>
				<polygon fill-rule="evenodd" clip-rule="evenodd" fill="#323B49" stroke="#323B49" stroke-miterlimit="10" points="
					405.457,558.82 406.487,560.905 408.788,561.239 407.123,562.863 407.516,565.155 405.457,564.072 403.399,565.155 
					403.792,562.863 402.127,561.239 404.428,560.905 				"/>
				<polygon fill-rule="evenodd" clip-rule="evenodd" fill="#323B49" stroke="#323B49" stroke-miterlimit="10" points="
					403.264,549.107 404.293,551.193 406.594,551.527 404.929,553.15 405.322,555.442 403.264,554.36 401.205,555.442 
					401.598,553.15 399.933,551.527 402.234,551.193 				"/>
				<polygon fill-rule="evenodd" clip-rule="evenodd" fill="#323B49" stroke="#323B49" stroke-miterlimit="10" points="
					406.212,540.484 407.241,542.569 409.543,542.904 407.878,544.527 408.271,546.819 406.212,545.737 404.154,546.819 
					404.547,544.527 402.882,542.904 405.183,542.569 				"/>
			</g>
		</g>
	</g>
	<path fill="#87C8CB" stroke="#87C8CB" stroke-miterlimit="10" d="M397.228,524.779c0,0,7.333-5.637,20.667,1.875
		c13.333,7.512,23,10.03,32.333,7.271s20.667-4.4,18.667,1.087s-15.333,17.487-12.333,28.487s1.259,26.02-11.501,23.667
		c-12.759-2.353-10.499-6.076-24.833-4.038c-14.333,2.038-40.333-6.629-40.333-6.629L397.228,524.779z"/>
	<g>
		<g>
			<polygon fill-rule="evenodd" clip-rule="evenodd" fill="#D6E39E" points="415.138,535.306 416.167,537.392 418.468,537.726 
				416.803,539.349 417.196,541.641 415.138,540.559 413.079,541.641 413.472,539.349 411.807,537.726 414.109,537.392 			"/>
			<polygon fill-rule="evenodd" clip-rule="evenodd" fill="#D6E39E" points="423.974,533.239 425.003,535.325 427.304,535.659 
				425.639,537.282 426.032,539.574 423.974,538.492 421.916,539.574 422.309,537.282 420.643,535.659 422.945,535.325 			"/>
			<polygon fill-rule="evenodd" clip-rule="evenodd" fill="#D6E39E" points="432.673,536.002 433.703,538.088 436.004,538.422 
				434.339,540.045 434.732,542.337 432.673,541.255 430.615,542.337 431.008,540.045 429.343,538.422 431.644,538.088 			"/>
			<polygon fill-rule="evenodd" clip-rule="evenodd" fill="#D6E39E" points="439.797,543.281 440.826,545.366 443.127,545.701 
				441.462,547.324 441.855,549.616 439.797,548.534 437.739,549.616 438.132,547.324 436.466,545.701 438.768,545.366 			"/>
			<polygon fill-rule="evenodd" clip-rule="evenodd" fill="#D6E39E" points="442.221,552.473 443.25,554.558 445.551,554.892 
				443.886,556.516 444.279,558.808 442.221,557.726 440.162,558.808 440.555,556.516 438.89,554.892 441.191,554.558 			"/>
			<polygon fill-rule="evenodd" clip-rule="evenodd" fill="#D6E39E" points="439.483,561.792 440.512,563.877 442.814,564.211 
				441.149,565.835 441.542,568.127 439.483,567.044 437.425,568.127 437.818,565.835 436.153,564.211 438.454,563.877 			"/>
			<polygon fill-rule="evenodd" clip-rule="evenodd" fill="#D6E39E" points="432.822,568.127 433.852,570.212 436.153,570.546 
				434.488,572.17 434.881,574.462 432.822,573.38 430.764,574.462 431.157,572.17 429.492,570.546 431.793,570.212 			"/>
			<polygon fill-rule="evenodd" clip-rule="evenodd" fill="#D6E39E" points="423.574,570.587 424.603,572.673 426.905,573.007 
				425.239,574.63 425.632,576.922 423.574,575.84 421.516,576.922 421.909,574.63 420.244,573.007 422.545,572.673 			"/>
			<polygon fill-rule="evenodd" clip-rule="evenodd" fill="#D6E39E" points="414.207,567.911 415.237,569.996 417.538,570.33 
				415.873,571.954 416.266,574.246 414.207,573.164 412.149,574.246 412.542,571.954 410.877,570.33 413.178,569.996 			"/>
			<polygon fill-rule="evenodd" clip-rule="evenodd" fill="#D6E39E" points="407.31,560.673 408.34,562.758 410.641,563.092 
				408.976,564.716 409.369,567.008 407.31,565.926 405.252,567.008 405.645,564.716 403.98,563.092 406.281,562.758 			"/>
			<polygon fill-rule="evenodd" clip-rule="evenodd" fill="#D6E39E" points="405.117,550.961 406.146,553.046 408.447,553.38 
				406.782,555.003 407.175,557.295 405.117,556.213 403.058,557.295 403.452,555.003 401.786,553.38 404.088,553.046 			"/>
			<polygon fill-rule="evenodd" clip-rule="evenodd" fill="#D6E39E" points="408.065,542.337 409.095,544.423 411.396,544.757 
				409.731,546.38 410.124,548.672 408.065,547.59 406.007,548.672 406.4,546.38 404.735,544.757 407.036,544.423 			"/>
		</g>
		<path opacity="0.2" fill="#323B49" d="M375.895,587.167c-0.182,0-0.367-0.025-0.55-0.078c-1.062-0.303-1.677-1.41-1.374-2.472
			l19.333-67.667c0.304-1.062,1.412-1.678,2.472-1.374c1.062,0.303,1.677,1.41,1.374,2.472l-19.333,67.667
			C377.566,586.594,376.765,587.167,375.895,587.167z"/>
		<path fill="#323B49" d="M377.895,587.167c-0.182,0-0.367-0.025-0.55-0.078c-1.062-0.303-1.677-1.41-1.374-2.472l19.333-67.667
			c0.304-1.062,1.412-1.678,2.472-1.374c1.062,0.303,1.677,1.41,1.374,2.472l-19.333,67.667
			C379.566,586.594,378.765,587.167,377.895,587.167z"/>
	</g>
</g>
<path fill="#FAF5E7" stroke="#FAF5E7" stroke-miterlimit="10" d="M539.356,739.9l-73.647-29.76
	c-0.433-1.053-0.549-2.577,0.176-4.781c0.27-0.819,0.642-1.409,1.079-1.826l47.238,18.647c1.748,0.689,3.549,1.017,5.32,1.017
	c5.778,0,11.24-3.479,13.491-9.18c2.94-7.449-0.715-15.871-8.163-18.812l-76-30c-7.224-2.849-15.346,0.51-18.514,7.507
	c-10.173-0.908-20.78-1.547-22.144-0.353c-2.667,2.333-34,10-34,10s-16.667,18-17,19.667c-0.199,0.994,5.891,7.446,10.836,12.49
	c-1.42,0.688-2.599,1.885-3.22,3.471c-1.311,3.342,0.336,7.113,3.678,8.424l164,64.32c0.779,0.306,1.582,0.451,2.371,0.451
	c2.596,0,5.048-1.566,6.053-4.129c1.312-3.342-0.336-7.113-3.678-8.424l-82.169-32.226c-0.508-1.823-0.424-4.136,0.796-7.044
	c1.269-3.027,2.94-4.646,4.743-5.397l69.761,28.19c1.474,0.596,2.995,0.877,4.492,0.877c4.747,0,9.242-2.836,11.13-7.507
	C548.469,749.378,545.501,742.384,539.356,739.9z"/>
<path opacity="0.2" fill="#323B49" d="M436.662,572.828c-7.269-15.991-30-6.667-37.667-3.667c-7.667,3-28.333,8.667-37.333,9
	c-9,0.333-22.302,0.573-22.302,0.573s2.333,1.417,3.219,2.854c0.829,1.346,52.281,7.771,52.948,8.271
	C396.193,590.36,436.662,572.828,436.662,572.828z"/>
<path fill="#FDDDBB" d="M462.808,653.975c-4.333-8.333-11-7.667-11-7.667c7.667-6.667,3.333-16,3.333-16
	c-5-9.333-10.667-8.333-10.667-8.333c3-2.667,3.333-9.667,0-18c-3.333-8.333-10-8.612-10-8.612c5.333-6.278,4-17.055,2.333-20.722
	c-7.269-15.991-30-6.667-37.667-3.667c-7.667,3-28.333,8.667-37.333,9c-9,0.333-20.667,0-20.667,0
	c12.333,15.667,4.948,22.208,4.948,22.208c10,16.667-6.615,26.792-6.615,26.792c1.333,16.333-11.333,21.333-20,23
	c-8.667,1.667-34.333,2-39,3.333c-4.667,1.333-12.333,5-15,7c-1.675,1.256-24.912,19.341-41.967,32.622l-21.085,16.043
	c-6.812,5.184-8.133,14.908-2.95,21.721c3.05,4.008,7.671,6.115,12.347,6.115c3.271,0,6.57-1.032,9.374-3.166l51.934-39.515
	c1.631,1.304,2.38,2.856,2.55,4.486l-65.503,49.878c-5.053,3.848-6.03,11.063-2.183,16.116c2.263,2.972,5.69,4.534,9.158,4.534
	c2.429,0,4.877-0.767,6.958-2.352l52.036-39.624c2.353,0.543,3.144,2.05,3.183,3.762l-36.274,27.621
	c-1.757,1.339-2.097,3.849-0.759,5.605c0.787,1.034,1.979,1.577,3.186,1.577c0.845,0,1.696-0.267,2.42-0.817l49.42-37.632
	c2.023,0.528,2.604,1.653,2.622,2.74l-56.241,42.826c-3.735,2.844-4.457,8.178-1.613,11.912c1.673,2.196,4.206,3.351,6.769,3.351
	c1.795,0,3.605-0.566,5.143-1.737l72.667-55.333c0.169-0.129,0.326-0.269,0.483-0.408c2.332-0.591,4.93-1.108,8.004-1.659
	c13.013-2.333,50.654-9.333,50.654-9.333c55-25.667,75.667-51.667,75.667-51.667C463.475,666.641,467.141,662.308,462.808,653.975z"
	/>
<path opacity="0.2" fill="none" stroke="#323B49" stroke-width="13" stroke-linecap="round" stroke-linejoin="round" stroke-miterlimit="10" d="
	M375.486,754.653c0,0,17.667,1.667,32.667-10.667s18.333-29.333,18.333-29.333"/>
<path fill="none" stroke="#E54E7E" stroke-width="13" stroke-linecap="round" stroke-linejoin="round" stroke-miterlimit="10" d="
	M373.527,754.693c0,0,17.667,1.667,32.667-10.667c15-12.333,18.333-29.333,18.333-29.333"/>
<path opacity="0.2" fill="none" stroke="#323B49" stroke-width="7" stroke-linecap="round" stroke-linejoin="round" stroke-miterlimit="10" d="
	M431.944,744.36c0,0,12.333-8.667,11.333-27.333"/>
<path fill="none" stroke="#E54E7E" stroke-width="7" stroke-linecap="round" stroke-linejoin="round" stroke-miterlimit="10" d="
	M430.527,744.36c0,0,12.333-8.667,11.333-27.333"/>
<ellipse fill="#323B49" stroke="#323B49" stroke-width="2.2938" stroke-miterlimit="10" cx="353.519" cy="709.056" rx="39.842" ry="38.696"/>
<path fill="#323B49" stroke="#323B49" stroke-miterlimit="10" d="M383.558,719.446l-1.398-4.801
	c0.301-0.088,30.285-9.051,44.259-30.963l4.215,2.688C415.634,709.893,384.861,719.067,383.558,719.446z"/>
<path opacity="0.2" fill="#323B49" stroke="#323B49" stroke-miterlimit="10" d="M441.011,670.573l-3.314-2.497
	c-3.528-2.659-8.544-1.954-11.204,1.574l-8.025,10.648c-2.375,3.152-2.06,7.485,0.548,10.271
	c-7.229,7.708-16.167,13.274-23.563,16.993c0.002-0.169,0.013-0.337,0.013-0.507c0-21.371-17.838-38.696-39.842-38.696
	s-39.842,17.325-39.842,38.696c0,21.371,17.838,38.696,39.842,38.696c19.764,0,36.157-13.98,39.292-32.312
	c8.334-3.889,19.303-10.268,28.039-19.742l0.4,0.302c3.529,2.659,8.545,1.954,11.204-1.574l8.025-10.648
	C445.244,678.248,444.539,673.232,441.011,670.573z"/>
<path fill="#CCE1D9" stroke="#CCE1D9" stroke-miterlimit="10" d="M442.677,670.573c3.528,2.659,4.233,7.675,1.574,11.204
	l-8.025,10.648c-2.659,3.528-7.675,4.233-11.204,1.574l-3.314-2.497c-3.529-2.659-4.233-7.675-1.574-11.204l8.025-10.648
	c2.659-3.529,7.675-4.233,11.204-1.574L442.677,670.573z"/>
<g>
	<defs>
		<path id="SVGID_1_" d="M463.86,653.36c-4.333-8.333-11-7.667-11-7.667c7.667-6.667,3.333-16,3.333-16
			c-5-9.333-10.667-8.333-10.667-8.333c3-2.667,3.333-9.667,0-18c-3.333-8.333-10-8.612-10-8.612c5.333-6.278,4-17.055,2.333-20.722
			c-7.269-15.991-30-6.667-37.667-3.667c-7.667,3-28.333,8.667-37.333,9c-9,0.333-20.667,0-20.667,0c12.333,15.667,5,22,5,22
			c10,16.667-6.667,27-6.667,27c1.333,16.333-11.333,21.333-20,23c-8.667,1.667-34.333,2-39,3.333c-4.667,1.333-12.333,5-15,7
			c-1.396,1.047-17.77,13.784-33.059,25.686c-3.055,2.378-6.067,4.724-8.908,6.935l-21.085,16.043
			c-6.812,5.184-8.133,14.908-2.95,21.721c3.05,4.008,7.671,6.115,12.347,6.115c3.271,0,6.57-1.032,9.374-3.166l51.934-39.515
			c1.631,1.304,2.38,2.856,2.55,4.486l-65.503,49.878c-5.053,3.848-6.03,11.063-2.183,16.116c2.263,2.972,5.69,4.534,9.158,4.534
			c2.429,0,4.877-0.767,6.958-2.352l52.036-39.624c2.353,0.543,3.144,2.05,3.183,3.762l-36.274,27.621
			c-1.757,1.339-2.097,3.849-0.759,5.605c0.787,1.034,1.979,1.577,3.186,1.577c0.845,0,1.696-0.267,2.42-0.817l49.42-37.632
			c2.023,0.528,2.604,1.653,2.622,2.74l-56.241,42.826c-3.735,2.844-4.457,8.178-1.613,11.912c1.673,2.196,4.206,3.351,6.769,3.351
			c1.795,0,3.605-0.566,5.143-1.737l72.667-55.333c0.169-0.129,0.326-0.269,0.483-0.408c2.332-0.591,4.93-1.108,8.004-1.659
			c13.013-2.333,50.654-9.333,50.654-9.333c55-25.667,75.667-51.667,75.667-51.667C464.527,666.027,468.193,661.693,463.86,653.36z"
			/>
	</defs>
	<clipPath id="SVGID_2_">
		<use xlink:href="#SVGID_1_"  overflow="visible"/>
	</clipPath>
	<path opacity="0.2" clip-path="url(#SVGID_2_)" fill="#323B49" d="M435.527,594.748l-29.129,10.907
		c0,0,31.629-10.629,32.546-29.129c0,0,4.583,12,4.083,12.333S435.527,594.748,435.527,594.748z"/>
	<path opacity="0.2" clip-path="url(#SVGID_2_)" fill="#323B49" d="M445.527,621.36c0,0-9.833,11.133-21,14.483
		c0,0,20.017-10.692,21.336-18.983s0.164-14.5-1.503-17.833c-1.667-3.333,9,8.603,9,8.468s-1.334,7.198-1.334,7.198L445.527,621.36z
		"/>
	<path opacity="0.2" clip-path="url(#SVGID_2_)" fill="#323B49" d="M454.399,644.134c0,0-11.654,12.408-23.873,20.058
		c0,0,20.939-14.408,23.667-32.332c1.167-7.667-2.167-10-2.167-10l8.001,9.833c0,0,1.833,6.167,1.333,6.333
		C460.86,638.193,454.399,644.134,454.399,644.134z"/>
</g>
<ellipse fill="#CCE1D9" stroke="#CCE1D9" stroke-miterlimit="10" cx="354.625" cy="717.046" rx="16.568" ry="17.686"/>
<line fill="none" stroke="#D6E39D" stroke-width="7" stroke-linecap="round" stroke-linejoin="round" stroke-miterlimit="10" x1="312.527" y1="769.027" x2="327.527" y2="746.693"/>
<line fill="none" stroke="#D6E39D" stroke-width="7" stroke-linecap="round" stroke-linejoin="round" stroke-miterlimit="10" x1="345.193" y1="744.36" x2="350.86" y2="766.36"/>
<g>
	<defs>
		<path id="SVGID_3_" d="M463.86,653.36c-4.333-8.333-11-7.667-11-7.667c7.667-6.667,3.333-16,3.333-16
			c-5-9.333-10.667-8.333-10.667-8.333c3-2.667,3.333-9.667,0-18c-3.333-8.333-10-8.612-10-8.612c5.333-6.278,4-17.055,2.333-20.722
			c-7.269-15.991-30-6.667-37.667-3.667c-7.667,3-28.333,8.667-37.333,9c-10.981,0.407-11.994,0.892-21.719,0.615
			c12.333,15.667,4.948,22.208,4.948,22.208c10,16.667-6.615,26.792-6.615,26.792c1.333,16.333-10.281,20.719-18.948,22.385
			c-8.667,1.667-34.333,2-39,3.333c-4.667,1.333-12.333,5-15,7c-1.675,1.256-24.912,19.341-41.967,32.622l-21.085,16.043
			c-6.812,5.184-8.133,14.908-2.95,21.721c3.05,4.008,7.671,6.115,12.347,6.115c3.271,0,6.57-1.032,9.374-3.166l51.934-39.515
			c1.631,1.304,2.38,2.856,2.55,4.486l-65.503,49.878c-5.053,3.848-6.03,11.063-2.183,16.116c2.263,2.972,5.69,4.534,9.158,4.534
			c2.429,0,4.877-0.767,6.958-2.352l52.036-39.624c2.353,0.543,3.144,2.05,3.183,3.762l-36.274,27.621
			c-1.757,1.339-2.097,3.849-0.759,5.605c0.787,1.034,1.979,1.577,3.186,1.577c0.845,0,1.696-0.267,2.42-0.817l49.42-37.632
			c2.023,0.528,2.604,1.653,2.622,2.74l-56.241,42.826c-3.735,2.844-4.457,8.178-1.613,11.912c1.673,2.196,4.206,3.351,6.769,3.351
			c1.795,0,3.605-0.566,5.143-1.737l72.667-55.333c0.169-0.129,0.326-0.269,0.483-0.408c2.332-0.591,4.93-1.108,8.004-1.659
			c13.013-2.333,50.654-9.333,50.654-9.333c55-25.667,75.667-51.667,75.667-51.667C464.527,666.027,468.193,661.693,463.86,653.36z"
			/>
	</defs>
	<clipPath id="SVGID_4_">
		<use xlink:href="#SVGID_3_"  overflow="visible"/>
	</clipPath>
	<path opacity="0.2" clip-path="url(#SVGID_4_)" fill="#323B49" stroke="#323B49" stroke-miterlimit="10" d="M247.14,674.694
		c0-0.5,19.486-16.334,38.02-16.834c18.534-0.5,49.804,2.4,56.367-15.5c1.833-5,1.167-12.667,1.167-12.667
		s16.286-11.356,6.976-27.678c3.842-15.086-9.128-22.479-8.528-22.041c11.167,8.167-38.948-2.525-38.948-2.525
		s-46.5,54.017-46.833,54.714c-0.333,0.697,6.833,22.697,6.833,22.697L247.14,674.694z"/>
</g>
<g>
	<defs>
		<path id="SVGID_5_" d="M463.86,653.36c-4.333-8.333-11-7.667-11-7.667c7.667-6.667,3.333-16,3.333-16
			c-5-9.333-10.667-8.333-10.667-8.333c3-2.667,3.333-9.667,0-18c-3.333-8.333-10-8.612-10-8.612c5.333-6.278,4-17.055,2.333-20.722
			c-7.269-15.991-30-6.667-37.667-3.667c-7.667,3-28.333,8.667-37.333,9c-9,0.333-21.656,0.646-21.656,0.646
			c12.333,15.667,5.938,21.562,5.938,21.562c10,16.667-8.031,27.083-8.031,27.083c1.333,16.333-9.917,21.042-18.583,22.708
			c-8.667,1.667-34.333,2-39,3.333c-4.667,1.333-12.333,5-15,7c-1.675,1.256-24.912,19.341-41.967,32.622l-21.085,16.043
			c-6.812,5.184-8.133,14.908-2.95,21.721c3.05,4.008,7.671,6.115,12.347,6.115c3.271,0,6.57-1.032,9.374-3.166l51.934-39.515
			c1.631,1.304,2.38,2.856,2.55,4.486l-65.503,49.878c-5.053,3.848-6.03,11.063-2.183,16.116c2.263,2.972,5.69,4.534,9.158,4.534
			c2.429,0,4.877-0.767,6.958-2.352l52.036-39.624c2.353,0.543,3.144,2.05,3.183,3.762l-36.274,27.621
			c-1.757,1.339-2.097,3.849-0.759,5.605c0.787,1.034,1.979,1.577,3.186,1.577c0.845,0,1.696-0.267,2.42-0.817l49.42-37.632
			c2.023,0.528,2.604,1.653,2.622,2.74l-56.241,42.826c-3.735,2.844-4.457,8.178-1.613,11.912c1.673,2.196,4.206,3.351,6.769,3.351
			c1.795,0,3.605-0.566,5.143-1.737l72.667-55.333c0.169-0.129,0.326-0.269,0.483-0.408c2.332-0.591,4.93-1.108,8.004-1.659
			c13.013-2.333,50.654-9.333,50.654-9.333c55-25.667,75.667-51.667,75.667-51.667C464.527,666.027,468.193,661.693,463.86,653.36z"
			/>
	</defs>
	<clipPath id="SVGID_6_">
		<use xlink:href="#SVGID_5_"  overflow="visible"/>
	</clipPath>
	<path opacity="0.2" clip-path="url(#SVGID_6_)" fill="#323B49" stroke="#323B49" stroke-miterlimit="10" d="M353.049,726.048
		c-9.576,0-29.33-4.216-49.353-20.346c-27.126-21.852-26.716-59.269-26.686-60.851c0.097-4.97,4.229-8.899,9.173-8.823
		c4.962,0.096,8.909,4.191,8.824,9.151c-0.005,0.49-0.112,30.319,19.98,46.505c20.707,16.681,37.946,16.366,38.665,16.349
		c4.955-0.234,9.142,3.591,9.383,8.557c0.24,4.965-3.631,9.186-8.596,9.426C354.004,726.037,353.54,726.048,353.049,726.048z"/>
	<path clip-path="url(#SVGID_6_)" fill="#CCE1D9" stroke="#CCE1D9" stroke-miterlimit="10" d="M353.049,722.404
		c-9.576,0-29.33-4.216-49.353-20.346c-27.126-21.852-26.716-59.269-26.686-60.851c0.097-4.97,4.229-8.899,9.173-8.823
		c4.962,0.096,8.909,4.191,8.824,9.151c-0.005,0.49-0.112,30.319,19.98,46.505c20.707,16.681,37.946,16.366,38.665,16.349
		c4.955-0.234,9.142,3.591,9.383,8.557c0.24,4.965-3.631,9.186-8.596,9.426C354.004,722.393,353.54,722.404,353.049,722.404z"/>
</g>
<path fill="none" stroke="#FFFFFF" stroke-width="4" stroke-linecap="round" stroke-linejoin="round" stroke-miterlimit="10" d="
	M338.057,689.86c0,0,16.47-12.833,33.136-2"/>
<path fill="none" stroke="#FFFFFF" stroke-width="4" stroke-linecap="round" stroke-linejoin="round" stroke-miterlimit="10" d="
	M375.486,755.36c0,0,7.504-0.092,16.439-3.379"/>
<path fill="none" stroke="#FFFFFF" stroke-width="4" stroke-linecap="round" stroke-linejoin="round" stroke-miterlimit="10" d="
	M410.296,572.393c0,0,16.63-7.648,21.648,1.853"/>
<path fill="none" stroke="#FFFFFF" stroke-width="4" stroke-linecap="round" stroke-linejoin="round" stroke-miterlimit="10" d="
	M436.004,603.618c0,0,4.516-0.494,5.27,9.576"/>
</svg>
