<?xml version="1.0" encoding="utf-8"?>
<!-- Generator: Adobe Illustrator 17.0.0, SVG Export Plug-In . SVG Version: 6.00 Build 0)  -->
<!DOCTYPE svg PUBLIC "-//W3C//DTD SVG 1.1//EN" "http://www.w3.org/Graphics/SVG/1.1/DTD/svg11.dtd">
<svg version="1.1" id="Calque_2" xmlns="http://www.w3.org/2000/svg" xmlns:xlink="http://www.w3.org/1999/xlink" x="0px" y="0px"
	 width="483.048px" height="411.041px" viewBox="0 0 483.048 411.041" enable-background="new 0 0 483.048 411.041"
	 xml:space="preserve">
<path opacity="0.2" fill="#323B49" d="M329.71,202.183c-4.333-8.333-11-7.667-11-7.667c7.667-6.667,3.333-16,3.333-16
	c-5-9.333-10.667-8.333-10.667-8.333c3-2.667,3.333-9.667,0-18c-3.333-8.333-10-8.612-10-8.612c5.333-6.278,4-17.055,2.333-20.722
	c-7.269-15.991-30-6.667-37.667-3.667c-7.667,3-28.333,8.667-37.333,9c-9,0.333-20.667,0-20.667,0c12.333,15.667,5,22,5,22
	c10,16.667-6.667,27-6.667,27c1.333,16.333-11.333,21.333-20,23c-8.667,1.667-34.333,2-39,3.333c-4.667,1.333-12.333,5-15,7
	c-1.675,1.256-24.912,19.341-41.967,32.622l-21.085,16.043c-6.813,5.184-8.133,14.908-2.95,21.721
	c3.05,4.008,7.671,6.115,12.347,6.115c3.271,0,6.57-1.032,9.374-3.166l51.934-39.515c1.631,1.304,2.38,2.856,2.55,4.486
	L77.076,298.7c-5.053,3.848-6.03,11.063-2.183,16.116c2.263,2.972,5.69,4.534,9.158,4.534c2.429,0,4.877-0.767,6.958-2.352
	l52.036-39.624c2.353,0.543,3.144,2.05,3.183,3.762l-36.274,27.621c-1.757,1.339-2.097,3.849-0.759,5.605
	c0.787,1.034,1.979,1.577,3.186,1.577c0.845,0,1.696-0.267,2.42-0.817l49.42-37.632c2.023,0.528,2.604,1.653,2.622,2.74
	l-56.241,42.826c-3.735,2.844-4.457,8.178-1.613,11.912c1.673,2.196,4.206,3.351,6.769,3.351c1.795,0,3.605-0.566,5.143-1.737
	l72.666-55.333c0.169-0.129,0.326-0.269,0.483-0.408c2.332-0.591,4.93-1.108,8.004-1.659c13.013-2.333,50.654-9.333,50.654-9.333
	c55-25.667,75.667-51.667,75.667-51.667C330.376,214.85,334.043,210.517,329.71,202.183z"/>
<path fill="#FAF5E7" stroke="#FAF5E7" stroke-miterlimit="10" d="M120.744,196.049c0,0-11.535-21,7.465-32.333
	c19-11.333,78.197-9,78.197-9l7.136,32.333l-48.134,24.165L120.744,196.049z"/>
<path fill="#FAF5E7" stroke="#FAF5E7" stroke-miterlimit="10" d="M120.744,201.529c0,0-11.535-21,7.465-32.333s78.197-9,78.197-9
	l7.136,32.333l-48.134,24.165L120.744,201.529z"/>
<path opacity="0.2" fill="#323B49" d="M122.095,227.713c-6.708,0.815-16.667-0.851-21-10.184c-4.333-9.333,1.667-11.333,8-16.333
	c6.333-5,25.333-19,25.333-19s9.667-7.333,18.333,1.667c8.667,9-9.955,24.761-9.955,24.761l-1.712,12.572L122.095,227.713z"/>
<path opacity="0.2" fill="#323B49" stroke="#323B49" stroke-miterlimit="10" d="M128.21,174.995c0,0-9.667-6.667-7-20.333
	c2.667-13.667,17.667-19.333,17.667-19.333l70,9l21.895,18.333c0,0,2.895,22.333,0,22c-2.895-0.333-21.895-2-21.895-2
	s-2.667-13.333-35-10S128.21,174.995,128.21,174.995z"/>
<path fill="#FAF5E7" stroke="#FAF5E7" stroke-miterlimit="10" d="M128.21,173.196c0,0-9.667-6.667-7-20.333
	c2.667-13.667,17.667-19.333,17.667-19.333l70,9l21.895,18.333c0,0,2.895,22.333,0,22c-2.895-0.333-21.895-2-21.895-2
	s-2.667-13.333-35-10C141.543,174.196,128.21,173.196,128.21,173.196z"/>
<path opacity="0.2" fill="#323B49" stroke="#323B49" stroke-miterlimit="10" d="M164.21,108.9c0,0-22.667,1.667-27.333,15.333
	s0,14.667,0,14.667s21,1,29.667,3c8.667,2,42.333,10.667,54,15.667c11.667,5,10.667-23.333,9.667-24.333
	s-23.803-15.667-23.803-15.667L164.21,108.9z"/>
<path fill="#FAF5E7" stroke="#FAF5E7" stroke-miterlimit="10" d="M164.21,106.862c0,0-22.667,1.667-27.333,15.333s0,14.667,0,14.667
	s21,1,29.667,3c8.667,2,42.333,10.667,54,15.667c11.667,5,10.667-23.333,9.667-24.333s-23.803-15.667-23.803-15.667L164.21,106.862z
	"/>
<path opacity="0.2" fill="#323B49" stroke="#323B49" stroke-miterlimit="10" d="M260.543,132.874c-3.865-4.52-15-24.333-25.667-34
	s-25.809-17.667-34.904-14c-9.096,3.667-16.429,11.667-32.096,14.667s-17.401,9.333-14.367,15.667c3.034,6.333,15.034,8,30.7,9.667
	s19.908,4.734,27.62,10.367c7.713,5.633,25.046,11.966,28.38,11.633C243.543,146.541,260.543,132.874,260.543,132.874z"/>
<path fill="#FAF5E7" stroke="#FAF5E7" stroke-miterlimit="10" d="M260.543,131.196c-3.865-4.52-15-24.333-25.667-34
	s-25.809-17.667-34.904-14c-9.096,3.667-16.429,11.667-32.096,14.667s-17.401,9.333-14.367,15.667s15.034,8,30.7,9.667
	c15.667,1.667,19.908,4.734,27.62,10.367c7.713,5.633,25.046,11.966,28.38,11.633C243.543,144.862,260.543,131.196,260.543,131.196z
	"/>
<path fill="#FAF5E7" stroke="#FAF5E7" stroke-miterlimit="10" d="M120.543,229.713c-6.708,0.815-16.667-0.851-21-10.184
	c-4.333-9.333,1.667-11.333,8-16.333c6.333-5,25.333-19,25.333-19s9.667-7.333,18.333,1.667c8.667,9-9.955,24.761-9.955,24.761
	l-1.712,12.572L120.543,229.713z"/>
<g>
	<path opacity="0.2" fill="#323B49" d="M407.706,289.069l-73.647-29.76c-0.433-1.053-0.549-2.577,0.176-4.781
		c0.27-0.819,0.642-1.409,1.079-1.826l47.238,18.647c1.748,0.689,3.549,1.017,5.32,1.017c5.778,0,11.24-3.479,13.491-9.18
		c2.94-7.449-0.715-15.871-8.163-18.812l-58.407-23.055c1.66-3.011,2.885-7.002-0.35-13.223c-4.333-8.333-11-7.667-11-7.667
		l-30.29,20.994c-8.19-0.62-15.495-0.871-16.611,0.106c-2.667,2.333-34,10-34,10s-16.667,18-17,19.667
		c-0.177,0.883,4.605,6.069,9.142,10.752l-35.738,24.77c2.292-0.575,4.838-1.082,7.844-1.621c7.899-1.416,24.862-4.55,36.982-6.796
		l157.064,61.6c0.779,0.306,1.582,0.451,2.371,0.451c2.596,0,5.048-1.566,6.053-4.129c1.312-3.342-0.336-7.113-3.678-8.424
		l-82.169-32.226c-0.508-1.823-0.424-4.136,0.796-7.044c1.269-3.027,2.94-4.646,4.743-5.397l69.761,28.19
		c1.474,0.596,2.995,0.877,4.492,0.877c4.747,0,9.242-2.836,11.13-7.507C416.819,298.547,413.85,291.553,407.706,289.069z"/>
	<path opacity="0.2" fill="#323B49" d="M198.303,287.163l0.644-0.446c-0.052,0.013-0.109,0.025-0.161,0.039
		C198.628,286.894,198.472,287.034,198.303,287.163z"/>
</g>
<g>
	<path fill="#E54E7E" stroke="#E54E7E" stroke-miterlimit="10" d="M217.576,78.794c0,0,1.107-26.503,34.17-31.793
		c8.333-1.333,12-1,19.333-6.667c7.333-5.667,10.333-6,13.667,0s6.667,26.333,14.333,29.667
		c7.667,3.333,14.499,22.667,14.499,22.667l-31.526,7l-12.307,4.167l-21.333,19.866L217.576,78.794z"/>
	<g>
		<g>
			<path fill="#FFFFFF" d="M258.549,64.949l6.943-13.71l14.474,11.01c2.116,1.61,2.044,4.817-0.141,6.331l-8.636,5.985
				L258.549,64.949z"/>
			<polygon fill="#FFFFFF" points="250.049,89.216 239.512,78.142 258.549,64.949 263.115,80.161 			"/>
			<polygon fill="#FFFFFF" points="250.049,89.216 265.931,89.552 270.502,104.774 256.765,114.294 			"/>
			<path fill="#FFFFFF" d="M291.643,90.123l-15.273,7.555c-1.495,0.74-3.134-0.71-2.582-2.284l1.968-5.618L291.643,90.123z"/>
		</g>
		<line fill="#323B49" x1="256.961" y1="132.091" x2="215.021" y2="75.579"/>
		<path fill="#323B49" d="M258.549,133.308c-0.111,0.145-0.243,0.276-0.396,0.389c-0.887,0.658-2.14,0.473-2.798-0.414
			l-41.94-56.513c-0.658-0.887-0.472-2.141,0.414-2.798c0.887-0.658,2.14-0.473,2.798,0.414l1.946,2.622l39.994,53.891
			C259.111,131.633,259.078,132.617,258.549,133.308z"/>
	</g>
	<g>
		<path opacity="0.2" fill="#323B49" stroke="#323B49" stroke-miterlimit="10" d="M263.724,75.428c0,0,7.333-5.637,20.667,1.875
			c13.333,7.512,23,10.03,32.333,7.271c9.333-2.759,20.667-4.4,18.667,1.087c-2,5.487-15.333,17.487-12.333,28.487
			s1.259,26.02-11.501,23.667c-12.759-2.353-10.499-6.076-24.833-4.038c-14.333,2.038-38.48-6.206-38.48-6.206L263.724,75.428z"/>
		<g opacity="0.2">
			<g>
				<polygon fill-rule="evenodd" clip-rule="evenodd" fill="#323B49" stroke="#323B49" stroke-miterlimit="10" points="
					281.634,85.956 282.663,88.041 284.965,88.375 283.3,89.998 283.693,92.29 281.634,91.208 279.576,92.29 279.969,89.998 
					278.304,88.375 280.605,88.041 				"/>
				<polygon fill-rule="evenodd" clip-rule="evenodd" fill="#323B49" stroke="#323B49" stroke-miterlimit="10" points="
					290.47,83.888 291.5,85.974 293.801,86.308 292.136,87.931 292.529,90.223 290.47,89.141 288.412,90.223 288.805,87.931 
					287.14,86.308 289.441,85.974 				"/>
				<polygon fill-rule="evenodd" clip-rule="evenodd" fill="#323B49" stroke="#323B49" stroke-miterlimit="10" points="
					299.17,86.651 300.199,88.737 302.501,89.071 300.835,90.694 301.228,92.986 299.17,91.904 297.112,92.986 297.505,90.694 
					295.84,89.071 298.141,88.737 				"/>
				<polygon fill-rule="evenodd" clip-rule="evenodd" fill="#323B49" stroke="#323B49" stroke-miterlimit="10" points="
					306.293,93.93 307.323,96.016 309.624,96.35 307.959,97.973 308.352,100.265 306.293,99.183 304.235,100.265 304.628,97.973 
					302.963,96.35 305.264,96.016 				"/>
				<polygon fill-rule="evenodd" clip-rule="evenodd" fill="#323B49" stroke="#323B49" stroke-miterlimit="10" points="
					308.717,103.122 309.746,105.207 312.048,105.542 310.382,107.165 310.776,109.457 308.717,108.375 306.659,109.457 
					307.052,107.165 305.387,105.542 307.688,105.207 				"/>
				<polygon fill-rule="evenodd" clip-rule="evenodd" fill="#323B49" stroke="#323B49" stroke-miterlimit="10" points="
					305.98,112.441 307.009,114.526 309.31,114.861 307.645,116.484 308.038,118.776 305.98,117.694 303.922,118.776 
					304.315,116.484 302.649,114.861 304.951,114.526 				"/>
				<polygon fill-rule="evenodd" clip-rule="evenodd" fill="#323B49" stroke="#323B49" stroke-miterlimit="10" points="
					299.319,118.776 300.348,120.861 302.649,121.196 300.984,122.819 301.377,125.111 299.319,124.029 297.261,125.111 
					297.654,122.819 295.988,121.196 298.29,120.861 				"/>
				<polygon fill-rule="evenodd" clip-rule="evenodd" fill="#323B49" stroke="#323B49" stroke-miterlimit="10" points="
					290.071,121.237 291.1,123.322 293.401,123.656 291.736,125.28 292.129,127.572 290.071,126.489 288.012,127.572 
					288.405,125.28 286.74,123.656 289.041,123.322 				"/>
				<polygon fill-rule="evenodd" clip-rule="evenodd" fill="#323B49" stroke="#323B49" stroke-miterlimit="10" points="
					280.704,118.56 281.733,120.645 284.034,120.98 282.369,122.603 282.762,124.895 280.704,123.813 278.646,124.895 
					279.039,122.603 277.373,120.98 279.675,120.645 				"/>
				<polygon fill-rule="evenodd" clip-rule="evenodd" fill="#323B49" stroke="#323B49" stroke-miterlimit="10" points="
					273.807,111.322 274.836,113.407 277.138,113.742 275.472,115.365 275.865,117.657 273.807,116.575 271.749,117.657 
					272.142,115.365 270.477,113.742 272.778,113.407 				"/>
				<polygon fill-rule="evenodd" clip-rule="evenodd" fill="#323B49" stroke="#323B49" stroke-miterlimit="10" points="
					271.613,101.61 272.643,103.695 274.944,104.029 273.279,105.653 273.672,107.945 271.613,106.863 269.555,107.945 
					269.948,105.653 268.283,104.029 270.584,103.695 				"/>
				<polygon fill-rule="evenodd" clip-rule="evenodd" fill="#323B49" stroke="#323B49" stroke-miterlimit="10" points="
					274.562,92.986 275.591,95.072 277.892,95.406 276.227,97.029 276.62,99.321 274.562,98.239 272.504,99.321 272.897,97.029 
					271.231,95.406 273.533,95.072 				"/>
			</g>
		</g>
	</g>
	<path fill="#87C8CB" stroke="#87C8CB" stroke-miterlimit="10" d="M265.577,77.281c0,0,7.333-5.637,20.667,1.875
		c13.333,7.512,23,10.03,32.333,7.271s20.667-4.4,18.667,1.087c-2,5.487-15.333,17.487-12.333,28.487s1.259,26.02-11.501,23.667
		c-12.759-2.353-10.499-6.076-24.833-4.038c-14.333,2.038-40.333-6.629-40.333-6.629L265.577,77.281z"/>
	<g>
		<g>
			<polygon fill-rule="evenodd" clip-rule="evenodd" fill="#D6E39E" points="283.487,87.809 284.517,89.894 286.818,90.228 
				285.153,91.852 285.546,94.144 283.487,93.061 281.429,94.144 281.822,91.852 280.157,90.228 282.458,89.894 			"/>
			<polygon fill-rule="evenodd" clip-rule="evenodd" fill="#D6E39E" points="292.324,85.741 293.353,87.827 295.654,88.161 
				293.989,89.784 294.382,92.076 292.324,90.994 290.265,92.076 290.658,89.784 288.993,88.161 291.294,87.827 			"/>
			<polygon fill-rule="evenodd" clip-rule="evenodd" fill="#D6E39E" points="301.023,88.505 302.052,90.59 304.354,90.924 
				302.688,92.548 303.082,94.84 301.023,93.757 298.965,94.84 299.358,92.548 297.693,90.924 299.994,90.59 			"/>
			<polygon fill-rule="evenodd" clip-rule="evenodd" fill="#D6E39E" points="308.147,95.783 309.176,97.869 311.477,98.203 
				309.812,99.826 310.205,102.118 308.147,101.036 306.088,102.118 306.481,99.826 304.816,98.203 307.117,97.869 			"/>
			<polygon fill-rule="evenodd" clip-rule="evenodd" fill="#D6E39E" points="310.57,104.975 311.599,107.06 313.901,107.395 
				312.236,109.018 312.629,111.31 310.57,110.228 308.512,111.31 308.905,109.018 307.24,107.395 309.541,107.06 			"/>
			<polygon fill-rule="evenodd" clip-rule="evenodd" fill="#D6E39E" points="307.833,114.294 308.862,116.379 311.163,116.714 
				309.498,118.337 309.891,120.629 307.833,119.547 305.775,120.629 306.168,118.337 304.503,116.714 306.804,116.379 			"/>
			<polygon fill-rule="evenodd" clip-rule="evenodd" fill="#D6E39E" points="301.172,120.629 302.201,122.714 304.503,123.049 
				302.837,124.672 303.23,126.964 301.172,125.882 299.114,126.964 299.507,124.672 297.842,123.049 300.143,122.714 			"/>
			<polygon fill-rule="evenodd" clip-rule="evenodd" fill="#D6E39E" points="291.924,123.09 292.953,125.175 295.254,125.509 
				293.589,127.133 293.982,129.425 291.924,128.343 289.865,129.425 290.259,127.133 288.593,125.509 290.895,125.175 			"/>
			<polygon fill-rule="evenodd" clip-rule="evenodd" fill="#D6E39E" points="282.557,120.413 283.586,122.498 285.888,122.833 
				284.222,124.456 284.615,126.748 282.557,125.666 280.499,126.748 280.892,124.456 279.227,122.833 281.528,122.498 			"/>
			<polygon fill-rule="evenodd" clip-rule="evenodd" fill="#D6E39E" points="275.66,113.175 276.689,115.26 278.991,115.595 
				277.325,117.218 277.719,119.51 275.66,118.428 273.602,119.51 273.995,117.218 272.33,115.595 274.631,115.26 			"/>
			<polygon fill-rule="evenodd" clip-rule="evenodd" fill="#D6E39E" points="273.466,103.463 274.496,105.548 276.797,105.883 
				275.132,107.506 275.525,109.798 273.466,108.716 271.408,109.798 271.801,107.506 270.136,105.883 272.437,105.548 			"/>
			<polygon fill-rule="evenodd" clip-rule="evenodd" fill="#D6E39E" points="276.415,94.84 277.444,96.925 279.746,97.259 
				278.08,98.883 278.473,101.175 276.415,100.092 274.357,101.175 274.75,98.883 273.085,97.259 275.386,96.925 			"/>
		</g>
		<path opacity="0.2" fill="#323B49" d="M244.244,139.669c-0.182,0-0.367-0.025-0.55-0.078c-1.062-0.303-1.677-1.41-1.374-2.472
			l19.334-67.667c0.304-1.062,1.412-1.678,2.472-1.374c1.062,0.303,1.677,1.41,1.374,2.472l-19.334,67.667
			C245.915,139.096,245.114,139.669,244.244,139.669z"/>
		<path fill="#323B49" d="M246.245,139.669c-0.182,0-0.367-0.025-0.55-0.078c-1.062-0.303-1.677-1.41-1.374-2.472l19.333-67.667
			c0.304-1.062,1.412-1.678,2.472-1.374c1.062,0.303,1.677,1.41,1.374,2.472l-19.333,67.667
			C247.916,139.096,247.115,139.669,246.245,139.669z"/>
	</g>
</g>
<path fill="#FAF5E7" stroke="#FAF5E7" stroke-miterlimit="10" d="M407.706,292.403l-73.647-29.76
	c-0.433-1.053-0.549-2.577,0.176-4.781c0.27-0.819,0.642-1.409,1.079-1.826l47.238,18.647c1.748,0.689,3.549,1.017,5.32,1.017
	c5.778,0,11.24-3.479,13.491-9.18c2.94-7.449-0.715-15.871-8.163-18.812l-76-30c-7.224-2.849-15.346,0.51-18.514,7.507
	c-10.173-0.908-20.78-1.547-22.144-0.353c-2.667,2.333-34,10-34,10s-16.667,18-17,19.667c-0.199,0.994,5.891,7.446,10.836,12.49
	c-1.42,0.688-2.599,1.885-3.22,3.471c-1.311,3.342,0.336,7.113,3.678,8.424l164,64.32c0.779,0.306,1.582,0.451,2.371,0.451
	c2.596,0,5.048-1.566,6.053-4.129c1.312-3.342-0.336-7.113-3.678-8.424l-82.169-32.226c-0.508-1.823-0.424-4.136,0.796-7.044
	c1.269-3.027,2.94-4.646,4.743-5.397l69.761,28.19c1.474,0.596,2.995,0.877,4.492,0.877c4.747,0,9.242-2.836,11.13-7.507
	C416.819,301.88,413.85,294.886,407.706,292.403z"/>
<path opacity="0.2" fill="#323B49" d="M305.011,125.33c-7.269-15.991-30-6.667-37.667-3.667c-7.667,3-28.333,8.667-37.333,9
	c-9,0.333-22.302,0.573-22.302,0.573s2.333,1.417,3.219,2.854c0.829,1.346,52.281,7.771,52.948,8.271
	C264.543,142.862,305.011,125.33,305.011,125.33z"/>
<path fill="#FDDDBB" d="M331.158,206.477c-4.333-8.333-11-7.667-11-7.667c7.667-6.667,3.333-16,3.333-16
	c-5-9.333-10.667-8.333-10.667-8.333c3-2.667,3.333-9.667,0-18c-3.333-8.333-10-8.612-10-8.612c5.333-6.278,4-17.055,2.333-20.722
	c-7.269-15.991-30-6.667-37.667-3.667c-7.667,3-28.333,8.667-37.333,9c-9,0.333-20.667,0-20.667,0
	c12.333,15.667,4.948,22.208,4.948,22.208c10,16.667-6.615,26.792-6.615,26.792c1.333,16.333-11.333,21.333-20,23
	c-8.667,1.667-34.333,2-39,3.333c-4.667,1.333-12.333,5-15,7c-1.675,1.256-24.912,19.341-41.967,32.622l-21.085,16.043
	c-6.813,5.184-8.133,14.908-2.95,21.721c3.05,4.008,7.671,6.115,12.347,6.115c3.271,0,6.57-1.032,9.374-3.166l51.934-39.515
	c1.631,1.304,2.38,2.856,2.55,4.486l-65.503,49.878c-5.053,3.848-6.03,11.063-2.183,16.116c2.263,2.972,5.69,4.534,9.158,4.534
	c2.429,0,4.877-0.767,6.958-2.352l52.036-39.624c2.353,0.543,3.144,2.05,3.183,3.762l-36.274,27.621
	c-1.757,1.339-2.097,3.849-0.759,5.605c0.787,1.034,1.979,1.577,3.186,1.577c0.845,0,1.696-0.267,2.42-0.817l49.42-37.632
	c2.023,0.528,2.604,1.653,2.622,2.74l-56.241,42.826c-3.735,2.844-4.457,8.178-1.613,11.912c1.673,2.196,4.206,3.351,6.769,3.351
	c1.795,0,3.605-0.566,5.143-1.737l72.666-55.333c0.169-0.129,0.326-0.269,0.483-0.408c2.332-0.591,4.93-1.108,8.004-1.659
	c13.013-2.333,50.654-9.333,50.654-9.333c55-25.667,75.667-51.667,75.667-51.667C331.824,219.143,335.491,214.81,331.158,206.477z"
	/>
<path opacity="0.2" fill="none" stroke="#323B49" stroke-width="13" stroke-linecap="round" stroke-linejoin="round" stroke-miterlimit="10" d="
	M243.836,307.155c0,0,17.667,1.667,32.667-10.667c15-12.333,18.333-29.333,18.333-29.333"/>
<path fill="none" stroke="#E54E7E" stroke-width="13" stroke-linecap="round" stroke-linejoin="round" stroke-miterlimit="10" d="
	M241.876,307.196c0,0,17.667,1.667,32.667-10.667c15-12.333,18.333-29.333,18.333-29.333"/>
<path opacity="0.2" fill="none" stroke="#323B49" stroke-width="7" stroke-linecap="round" stroke-linejoin="round" stroke-miterlimit="10" d="
	M300.293,296.862c0,0,12.333-8.667,11.333-27.333"/>
<path fill="none" stroke="#E54E7E" stroke-width="7" stroke-linecap="round" stroke-linejoin="round" stroke-miterlimit="10" d="
	M298.876,296.862c0,0,12.333-8.667,11.333-27.333"/>
<ellipse fill="#323B49" stroke="#323B49" stroke-width="2.2938" stroke-miterlimit="10" cx="221.869" cy="261.558" rx="39.842" ry="38.696"/>
<path fill="#323B49" stroke="#323B49" stroke-miterlimit="10" d="M251.908,271.949l-1.398-4.801
	c0.301-0.088,30.285-9.051,44.259-30.963l4.215,2.688C283.984,262.396,253.211,271.57,251.908,271.949z"/>
<path opacity="0.2" fill="#323B49" stroke="#323B49" stroke-miterlimit="10" d="M309.36,223.076l-3.314-2.497
	c-3.528-2.659-8.544-1.954-11.204,1.574l-8.025,10.648c-2.375,3.152-2.06,7.485,0.548,10.271
	c-7.229,7.708-16.167,13.274-23.563,16.993c0.002-0.169,0.013-0.337,0.013-0.507c0-21.371-17.838-38.696-39.842-38.696
	s-39.842,17.325-39.842,38.696c0,21.371,17.838,38.696,39.842,38.696c19.764,0,36.157-13.98,39.292-32.312
	c8.334-3.889,19.303-10.268,28.039-19.742l0.4,0.302c3.529,2.659,8.545,1.954,11.204-1.574l8.025-10.648
	C313.594,230.751,312.889,225.735,309.36,223.076z"/>
<path fill="#CCE1D9" stroke="#CCE1D9" stroke-miterlimit="10" d="M311.027,223.076c3.528,2.659,4.233,7.675,1.574,11.204
	l-8.025,10.648c-2.659,3.528-7.675,4.233-11.204,1.574l-3.314-2.497c-3.528-2.659-4.233-7.675-1.574-11.204l8.025-10.648
	c2.659-3.528,7.675-4.233,11.204-1.574L311.027,223.076z"/>
<g>
	<defs>
		<path id="SVGID_1_" d="M332.21,205.862c-4.333-8.333-11-7.667-11-7.667c7.667-6.667,3.333-16,3.333-16
			c-5-9.333-10.667-8.333-10.667-8.333c3-2.667,3.333-9.667,0-18c-3.333-8.333-10-8.612-10-8.612c5.333-6.278,4-17.055,2.333-20.722
			c-7.269-15.991-30-6.667-37.667-3.667c-7.667,3-28.333,8.667-37.333,9c-9,0.333-20.667,0-20.667,0c12.333,15.667,5,22,5,22
			c10,16.667-6.667,27-6.667,27c1.333,16.333-11.333,21.333-20,23c-8.667,1.667-34.333,2-39,3.333c-4.667,1.333-12.333,5-15,7
			c-1.396,1.047-17.77,13.784-33.059,25.686c-3.055,2.378-6.067,4.724-8.908,6.935l-21.085,16.043
			c-6.812,5.184-8.133,14.908-2.95,21.721c3.05,4.008,7.671,6.115,12.347,6.115c3.271,0,6.57-1.032,9.374-3.166l51.934-39.515
			c1.631,1.304,2.38,2.856,2.55,4.486l-65.503,49.878c-5.053,3.848-6.03,11.063-2.183,16.116c2.263,2.972,5.69,4.534,9.158,4.534
			c2.429,0,4.877-0.767,6.958-2.352l52.036-39.624c2.353,0.543,3.144,2.05,3.183,3.762l-36.274,27.621
			c-1.757,1.339-2.097,3.849-0.759,5.605c0.787,1.034,1.979,1.577,3.186,1.577c0.845,0,1.696-0.267,2.42-0.817l49.42-37.632
			c2.023,0.528,2.604,1.653,2.622,2.74l-56.241,42.826c-3.735,2.844-4.457,8.178-1.613,11.912c1.673,2.196,4.206,3.351,6.769,3.351
			c1.795,0,3.605-0.566,5.143-1.737l72.666-55.333c0.169-0.129,0.326-0.269,0.483-0.408c2.332-0.591,4.93-1.108,8.004-1.659
			c13.013-2.333,50.654-9.333,50.654-9.333c55-25.667,75.667-51.667,75.667-51.667C332.876,218.529,336.543,214.196,332.21,205.862z
			"/>
	</defs>
	<clipPath id="SVGID_2_">
		<use xlink:href="#SVGID_1_"  overflow="visible"/>
	</clipPath>
	<path opacity="0.2" clip-path="url(#SVGID_2_)" fill="#323B49" d="M303.876,147.251l-29.129,10.907
		c0,0,31.629-10.629,32.546-29.129c0,0,4.583,12,4.083,12.333C310.876,141.696,303.876,147.251,303.876,147.251z"/>
	<path opacity="0.2" clip-path="url(#SVGID_2_)" fill="#323B49" d="M313.876,173.862c0,0-9.833,11.133-21,14.483
		c0,0,20.017-10.692,21.336-18.983c1.319-8.291,0.164-14.5-1.503-17.833c-1.667-3.333,9,8.603,9,8.468
		c0-0.135-1.334,7.198-1.334,7.198L313.876,173.862z"/>
	<path opacity="0.2" clip-path="url(#SVGID_2_)" fill="#323B49" d="M322.749,196.636c0,0-11.654,12.408-23.873,20.058
		c0,0,20.939-14.408,23.667-32.332c1.167-7.667-2.167-10-2.167-10l8.001,9.833c0,0,1.833,6.167,1.333,6.333
		C329.21,190.695,322.749,196.636,322.749,196.636z"/>
</g>
<ellipse fill="#CCE1D9" stroke="#CCE1D9" stroke-miterlimit="10" cx="222.975" cy="269.548" rx="16.568" ry="17.686"/>
<line fill="none" stroke="#D6E39D" stroke-width="7" stroke-linecap="round" stroke-linejoin="round" stroke-miterlimit="10" x1="180.876" y1="321.529" x2="195.876" y2="299.196"/>
<line fill="none" stroke="#D6E39D" stroke-width="7" stroke-linecap="round" stroke-linejoin="round" stroke-miterlimit="10" x1="213.543" y1="296.862" x2="219.21" y2="318.862"/>
<g>
	<defs>
		<path id="SVGID_3_" d="M332.21,205.862c-4.333-8.333-11-7.667-11-7.667c7.667-6.667,3.333-16,3.333-16
			c-5-9.333-10.667-8.333-10.667-8.333c3-2.667,3.333-9.667,0-18c-3.333-8.333-10-8.612-10-8.612c5.333-6.278,4-17.055,2.333-20.722
			c-7.269-15.991-30-6.667-37.667-3.667c-7.667,3-28.333,8.667-37.333,9c-10.981,0.407-11.994,0.892-21.719,0.615
			c12.333,15.667,4.948,22.208,4.948,22.208c10,16.667-6.615,26.792-6.615,26.792c1.333,16.333-10.281,20.719-18.948,22.385
			c-8.667,1.667-34.333,2-39,3.333c-4.667,1.333-12.333,5-15,7c-1.675,1.256-24.912,19.341-41.967,32.622l-21.085,16.043
			c-6.812,5.184-8.133,14.908-2.95,21.721c3.05,4.008,7.671,6.115,12.347,6.115c3.271,0,6.57-1.032,9.374-3.166l51.934-39.515
			c1.631,1.304,2.38,2.856,2.55,4.486l-65.503,49.878c-5.053,3.848-6.03,11.063-2.183,16.116c2.263,2.972,5.69,4.534,9.158,4.534
			c2.429,0,4.877-0.767,6.958-2.352l52.036-39.624c2.353,0.543,3.144,2.05,3.183,3.762l-36.274,27.621
			c-1.757,1.339-2.097,3.849-0.759,5.605c0.787,1.034,1.979,1.577,3.186,1.577c0.845,0,1.696-0.267,2.42-0.817l49.42-37.632
			c2.023,0.528,2.604,1.653,2.622,2.74l-56.241,42.826c-3.735,2.844-4.457,8.178-1.613,11.912c1.673,2.196,4.206,3.351,6.769,3.351
			c1.795,0,3.605-0.566,5.143-1.737l72.666-55.333c0.169-0.129,0.326-0.269,0.483-0.408c2.332-0.591,4.93-1.108,8.004-1.659
			c13.013-2.333,50.654-9.333,50.654-9.333c55-25.667,75.667-51.667,75.667-51.667C332.876,218.529,336.543,214.196,332.21,205.862z
			"/>
	</defs>
	<clipPath id="SVGID_4_">
		<use xlink:href="#SVGID_3_"  overflow="visible"/>
	</clipPath>
	<path opacity="0.2" clip-path="url(#SVGID_4_)" fill="#323B49" stroke="#323B49" stroke-miterlimit="10" d="M115.49,227.197
		c0-0.5,19.486-16.334,38.02-16.834s49.804,2.4,56.367-15.5c1.833-5,1.167-12.667,1.167-12.667s16.286-11.356,6.976-27.678
		c3.843-15.086-9.128-22.479-8.528-22.041c11.167,8.167-38.948-2.525-38.948-2.525s-46.5,54.017-46.833,54.714
		c-0.333,0.697,6.833,22.697,6.833,22.697L115.49,227.197z"/>
</g>
<g>
	<defs>
		<path id="SVGID_5_" d="M332.21,205.862c-4.333-8.333-11-7.667-11-7.667c7.667-6.667,3.333-16,3.333-16
			c-5-9.333-10.667-8.333-10.667-8.333c3-2.667,3.333-9.667,0-18c-3.333-8.333-10-8.612-10-8.612c5.333-6.278,4-17.055,2.333-20.722
			c-7.269-15.991-30-6.667-37.667-3.667c-7.667,3-28.333,8.667-37.333,9c-9,0.333-21.656,0.646-21.656,0.646
			c12.333,15.667,5.938,21.562,5.938,21.562c10,16.667-8.031,27.083-8.031,27.083c1.333,16.333-9.917,21.042-18.583,22.708
			c-8.667,1.667-34.333,2-39,3.333c-4.667,1.333-12.333,5-15,7c-1.675,1.256-24.912,19.341-41.967,32.622l-21.085,16.043
			c-6.812,5.184-8.133,14.908-2.95,21.721c3.05,4.008,7.671,6.115,12.347,6.115c3.271,0,6.57-1.032,9.374-3.166l51.934-39.515
			c1.631,1.304,2.38,2.856,2.55,4.486l-65.503,49.878c-5.053,3.848-6.03,11.063-2.183,16.116c2.263,2.972,5.69,4.534,9.158,4.534
			c2.429,0,4.877-0.767,6.958-2.352l52.036-39.624c2.353,0.543,3.144,2.05,3.183,3.762l-36.274,27.621
			c-1.757,1.339-2.097,3.849-0.759,5.605c0.787,1.034,1.979,1.577,3.186,1.577c0.845,0,1.696-0.267,2.42-0.817l49.42-37.632
			c2.023,0.528,2.604,1.653,2.622,2.74l-56.241,42.826c-3.735,2.844-4.457,8.178-1.613,11.912c1.673,2.196,4.206,3.351,6.769,3.351
			c1.795,0,3.605-0.566,5.143-1.737l72.666-55.333c0.169-0.129,0.326-0.269,0.483-0.408c2.332-0.591,4.93-1.108,8.004-1.659
			c13.013-2.333,50.654-9.333,50.654-9.333c55-25.667,75.667-51.667,75.667-51.667C332.876,218.529,336.543,214.196,332.21,205.862z
			"/>
	</defs>
	<clipPath id="SVGID_6_">
		<use xlink:href="#SVGID_5_"  overflow="visible"/>
	</clipPath>
	<path opacity="0.2" clip-path="url(#SVGID_6_)" fill="#323B49" stroke="#323B49" stroke-miterlimit="10" d="M221.399,278.55
		c-9.576,0-29.33-4.216-49.353-20.346c-27.126-21.852-26.716-59.269-26.686-60.851c0.097-4.97,4.229-8.899,9.173-8.823
		c4.962,0.096,8.909,4.191,8.824,9.151c-0.005,0.49-0.112,30.319,19.98,46.505c20.707,16.681,37.946,16.366,38.665,16.349
		c4.955-0.234,9.142,3.591,9.383,8.557c0.24,4.965-3.631,9.186-8.596,9.426C222.354,278.539,221.889,278.55,221.399,278.55z"/>
	<path clip-path="url(#SVGID_6_)" fill="#CCE1D9" stroke="#CCE1D9" stroke-miterlimit="10" d="M221.399,274.906
		c-9.576,0-29.33-4.216-49.353-20.346c-27.126-21.852-26.716-59.269-26.686-60.851c0.097-4.97,4.229-8.899,9.173-8.823
		c4.962,0.096,8.909,4.191,8.824,9.151c-0.005,0.49-0.112,30.319,19.98,46.505c20.707,16.681,37.946,16.366,38.665,16.349
		c4.955-0.234,9.142,3.591,9.383,8.557c0.24,4.965-3.631,9.186-8.596,9.426C222.354,274.895,221.889,274.906,221.399,274.906z"/>
</g>
<path fill="none" stroke="#FFFFFF" stroke-width="4" stroke-linecap="round" stroke-linejoin="round" stroke-miterlimit="10" d="
	M206.407,242.362c0,0,16.47-12.833,33.136-2"/>
<path fill="none" stroke="#FFFFFF" stroke-width="4" stroke-linecap="round" stroke-linejoin="round" stroke-miterlimit="10" d="
	M243.836,307.862c0,0,7.504-0.092,16.439-3.379"/>
<path fill="none" stroke="#FFFFFF" stroke-width="4" stroke-linecap="round" stroke-linejoin="round" stroke-miterlimit="10" d="
	M278.646,124.895c0,0,16.63-7.648,21.648,1.853"/>
<path fill="none" stroke="#FFFFFF" stroke-width="4" stroke-linecap="round" stroke-linejoin="round" stroke-miterlimit="10" d="
	M304.354,156.12c0,0,4.516-0.494,5.27,9.576"/>
</svg>
