<?xml version="1.0" encoding="utf-8"?>
<!-- Generator: Adobe Illustrator 17.0.0, SVG Export Plug-In . SVG Version: 6.00 Build 0)  -->
<!DOCTYPE svg PUBLIC "-//W3C//DTD SVG 1.1//EN" "http://www.w3.org/Graphics/SVG/1.1/DTD/svg11.dtd">
<svg version="1.1" id="Calque_1" xmlns="http://www.w3.org/2000/svg" xmlns:xlink="http://www.w3.org/1999/xlink" x="0px" y="0px"
	 width="102.121px" height="188.005px" viewBox="0 0 102.121 188.005" enable-background="new 0 0 102.121 188.005"
	 xml:space="preserve">
<path fill="#9DD1BC" stroke="#9DD1BC" stroke-width="3" stroke-linecap="round" stroke-linejoin="round" stroke-miterlimit="10" d="
	M66.524,52.975c-15.22,10.007-26.433,5.344-37.85-7.931C18.211,32.879,9.957,4.024,9.957,4.024h86.098
	C96.055,4.024,81.376,43.21,66.524,52.975z"/>
<circle fill="#333C4A" stroke="#333C4A" stroke-width="3" stroke-miterlimit="10" cx="52.901" cy="58.517" r="5.13"/>
<polygon fill="#D6E39D" stroke="#D6E39D" stroke-width="3" stroke-linecap="round" stroke-linejoin="round" stroke-miterlimit="10" points="
	30.731,118.158 35.005,116.095 35.005,109.904 40.606,113.294 43.554,111.084 59.233,113.194 63.302,115.939 68.832,112.716 
	68.719,119.485 72.229,120.968 78.607,134.369 78.356,139.108 83.781,142.091 78.111,145.366 78.628,149.014 69.578,159.947 
	65.243,161.879 65.053,168.066 59.558,164.507 56.544,166.626 42.419,165.328 38.231,163.094 33.233,166.745 32.666,160.223 
	29.142,159.147 22.86,146.721 23.104,141.981 17.675,139.007 23.339,135.724 22.817,132.076 "/>
<rect x="54.756" y="89.716" transform="matrix(-0.943 0.3328 -0.3328 -0.943 139.517 163.1999)" fill="#333C4A" stroke="#333C4A" stroke-miterlimit="10" width="2.05" height="7.666"/>
<rect x="47.618" y="89.558" transform="matrix(0.943 0.3328 -0.3328 0.943 33.8556 -10.8651)" fill="#333C4A" stroke="#333C4A" stroke-miterlimit="10" width="2.05" height="7.666"/>
<polyline fill="#F0B593" stroke="#F0B593" stroke-width="3" stroke-linecap="round" stroke-linejoin="round" stroke-miterlimit="10" points="
	36.854,124.753 17.268,105.399 19.126,119.754 5.056,122.846 30.295,133.324 "/>
<polyline fill="#F0B593" stroke="#F0B593" stroke-width="3" stroke-linecap="round" stroke-linejoin="round" stroke-miterlimit="10" points="
	31.516,142.612 5.704,152.199 19.502,156.574 16.366,170.634 36.518,152.175 "/>
<polyline fill="#F0B593" stroke="#F0B593" stroke-width="3" stroke-linecap="round" stroke-linejoin="round" stroke-miterlimit="10" points="
	44.343,156.432 38.284,183.291 49.482,174.119 59.55,184.422 55.086,157.461 "/>
<polyline fill="#F0B593" stroke="#F0B593" stroke-width="3" stroke-linecap="round" stroke-linejoin="round" stroke-miterlimit="10" points="
	69.073,136.671 95.543,129.09 82.121,123.671 86.325,109.892 64.817,126.753 "/>
<polyline fill="#F0B593" stroke="#F0B593" stroke-width="3" stroke-linecap="round" stroke-linejoin="round" stroke-miterlimit="10" points="
	62.134,153.329 82.919,171.387 80.145,157.18 93.988,153.193 68.129,144.354 "/>
<polyline fill="#F0B593" stroke="#F0B593" stroke-width="3" stroke-linecap="round" stroke-linejoin="round" stroke-miterlimit="10" points="
	56.666,119.683 62.71,92.82 51.517,101.998 41.443,91.701 45.922,118.66 "/>
<g>
	<defs>
		<polygon id="SVGID_1_" points="30.731,118.158 35.005,116.095 35.005,109.904 40.606,113.294 43.554,111.084 59.233,113.194 
			63.302,115.939 68.832,112.716 68.719,119.485 72.229,120.968 78.607,134.369 78.356,139.108 83.781,142.091 78.111,145.366 
			78.628,149.014 69.578,159.947 65.243,161.879 65.053,168.066 59.558,164.507 56.544,166.626 42.419,165.328 38.231,163.094 
			33.233,166.745 32.666,160.223 29.142,159.147 22.86,146.721 23.104,141.981 17.675,139.007 23.339,135.724 22.817,132.076 		"/>
	</defs>
	<clipPath id="SVGID_2_">
		<use xlink:href="#SVGID_1_"  overflow="visible"/>
	</clipPath>
	
		<path opacity="0.2" clip-path="url(#SVGID_2_)" fill="#333C4A" stroke="#333C4A" stroke-width="3" stroke-linecap="round" stroke-linejoin="round" stroke-miterlimit="10" d="
		M30.754,173.505c0,0,38.49-70.667,38.99-70.167s-43.5-2.5-45.167-1.833c-1.667,0.667-19.521,22.988-19.521,22.988l1.521,33.377
		c0,0-4.167,10.301,5.167,15.635c9.333,5.333,18.333,0,18.333,0"/>
</g>
<circle fill="#9DD1BC" stroke="#9DD1BC" stroke-width="3" stroke-miterlimit="10" cx="49.72" cy="138.079" r="18.965"/>
<circle fill="#F0B593" stroke="#F0B593" stroke-width="3" stroke-miterlimit="10" cx="49.543" cy="138.15" r="13.656"/>
<g>
	<defs>
		<circle id="SVGID_3_" cx="49.543" cy="138.15" r="13.656"/>
	</defs>
	<clipPath id="SVGID_4_">
		<use xlink:href="#SVGID_3_"  overflow="visible"/>
	</clipPath>
	
		<path opacity="0.2" clip-path="url(#SVGID_4_)" fill="#333C4A" stroke="#333C4A" stroke-width="3" stroke-linecap="round" stroke-linejoin="round" stroke-miterlimit="10" d="
		M47.577,113.172l5.19,51c0,0-24.856-5.167-25.523-5.5c-0.667-0.333-8.333-22.833-8.333-22.833l8-16.726L47.577,113.172z"/>
</g>
<path fill="#F0B593" stroke="#F0B593" stroke-width="3" stroke-miterlimit="10" d="M52.767,64.365
	c-10.077,0-18.247,5.597-18.247,12.502s8.169,12.502,18.247,12.502c10.077,0,18.247-5.597,18.247-12.502
	S62.844,64.365,52.767,64.365z M52.979,84.888c-6.688,0-12.11-3.519-12.11-7.86c0-4.341,5.422-7.86,12.11-7.86
	c6.688,0,12.11,3.519,12.11,7.86C65.089,81.369,59.667,84.888,52.979,84.888z"/>
<g>
	<defs>
		<path id="SVGID_5_" d="M52.767,64.365c-10.077,0-18.247,5.597-18.247,12.502s8.169,12.502,18.247,12.502
			c10.077,0,18.247-5.597,18.247-12.502S62.844,64.365,52.767,64.365z M52.979,84.888c-6.688,0-12.11-3.519-12.11-7.86
			c0-4.341,5.422-7.86,12.11-7.86c6.688,0,12.11,3.519,12.11,7.86C65.089,81.369,59.667,84.888,52.979,84.888z"/>
	</defs>
	<clipPath id="SVGID_6_">
		<use xlink:href="#SVGID_5_"  overflow="visible"/>
	</clipPath>
	
		<path opacity="0.2" clip-path="url(#SVGID_6_)" fill="#333C4A" stroke="#333C4A" stroke-width="3" stroke-linecap="round" stroke-linejoin="round" stroke-miterlimit="10" d="
		M41.443,62.505c0.967,0.333,30.173,26.559,29.57,26.863c-0.603,0.304-15.232,12.637-15.232,12.637l-30.37-2.167
		c0,0-9.833-15.333-8.833-16.833s5.667-9.833,5.667-9.833L41.443,62.505z"/>
</g>
<g>
	<defs>
		<path id="SVGID_7_" d="M66.524,52.975c-15.22,10.007-26.433,5.344-37.85-7.931C18.211,32.879,9.957,4.024,9.957,4.024h86.098
			C96.055,4.024,81.376,43.21,66.524,52.975z"/>
	</defs>
	<clipPath id="SVGID_8_">
		<use xlink:href="#SVGID_7_"  overflow="visible"/>
	</clipPath>
	<path opacity="0.2" clip-path="url(#SVGID_8_)" fill="#333C4A" stroke="#333C4A" stroke-width="3" stroke-miterlimit="10" d="
		M22.911-1.328c0.333,1,8.667,54.667,26.833,62.167s-33,3.333-34,4.333s-18.833-14-18.833-14l-8.5-26l9.667-32.167
		c0,0,20.5,3.5,21,3.833S22.911-1.328,22.911-1.328z"/>
</g>
<path fill="none" stroke="#FFFFFF" stroke-width="3" stroke-linecap="round" stroke-linejoin="round" stroke-miterlimit="10" d="
	M72.577,8.505c0,0-3.833,0,4,0s8.5,0.667,8.167,4.833"/>
<circle fill="#FFFFFF" cx="53.989" cy="54.475" r="1.088"/>
<circle fill="#FFFFFF" cx="56.01" cy="60.171" r="2.021"/>
<path fill="none" stroke="#FFFFFF" stroke-width="2" stroke-linecap="round" stroke-linejoin="round" stroke-miterlimit="10" d="
	M41.443,132.005c0,0-5.99,5.176,0,11.167"/>
</svg>
