<?xml version="1.0" encoding="utf-8"?>
<!-- Generator: Adobe Illustrator 17.0.0, SVG Export Plug-In . SVG Version: 6.00 Build 0)  -->
<!DOCTYPE svg PUBLIC "-//W3C//DTD SVG 1.1//EN" "http://www.w3.org/Graphics/SVG/1.1/DTD/svg11.dtd">
<svg version="1.1" id="Calque_1" xmlns="http://www.w3.org/2000/svg" xmlns:xlink="http://www.w3.org/1999/xlink" x="0px" y="0px"
	 width="135.5px" height="186.698px" viewBox="0 0 135.5 186.698" enable-background="new 0 0 135.5 186.698" xml:space="preserve">
<rect x="82.361" y="7.153" transform="matrix(-0.96 -0.2799 0.2799 -0.96 178.2184 145.3077)" fill="#86C7CA" stroke="#86C7CA" stroke-width="4" stroke-linecap="round" stroke-linejoin="round" stroke-miterlimit="10" width="34.246" height="105.553"/>
<rect x="21.191" y="8.211" transform="matrix(-0.9492 0.3148 -0.3148 -0.9492 93.8768 106.8152)" fill="#86C7CA" stroke="#86C7CA" stroke-width="4" stroke-linecap="round" stroke-linejoin="round" stroke-miterlimit="10" width="34.246" height="105.553"/>
<rect x="21.191" y="8.211" transform="matrix(-0.9492 0.3148 -0.3148 -0.9492 93.8768 106.8152)" opacity="0.2" fill="#333C4A" stroke="#333C4A" stroke-width="4" stroke-linecap="round" stroke-linejoin="round" stroke-miterlimit="10" width="34.246" height="105.553"/>
<circle fill="#F0B593" stroke="#F0B593" stroke-width="4" stroke-miterlimit="10" cx="71.06" cy="139.815" r="41.795"/>
<circle opacity="0.2" fill="#333C4A" stroke="#333C4A" stroke-width="4" stroke-miterlimit="10" cx="74.042" cy="142.203" r="26.916"/>
<circle fill="#F0B593" stroke="#F0B593" stroke-width="4" stroke-miterlimit="10" cx="70.386" cy="140.547" r="26.916"/>
<path opacity="0.2" fill="none" stroke="#333C4A" stroke-width="9" stroke-linecap="round" stroke-linejoin="round" stroke-miterlimit="10" d="
	M62.677,140.17c6.551-7.433,5.476-6.043,10.145-13.875c-0.343,5.761-0.848,11.633-1.011,17.203
	c-0.104,3.545-0.462,7.917-0.386,11.274"/>
<g>
	<defs>
		<path id="XMLID_1_" d="M60.24,140.17c6.551-7.433,5.476-6.043,10.145-13.875c-0.343,5.761-0.848,11.633-1.011,17.203
			c-0.104,3.545-0.462,7.917-0.386,11.274"/>
	</defs>
	<clipPath id="XMLID_3_">
		<use xlink:href="#XMLID_1_"  overflow="visible"/>
	</clipPath>
	
		<use xlink:href="#XMLID_1_"  overflow="visible" fill="none" stroke="#E44E7E" stroke-width="9" stroke-linecap="round" stroke-linejoin="round" stroke-miterlimit="10"/>
</g>
<path fill="none" stroke="#FFFFFF" stroke-width="7" stroke-linecap="round" stroke-linejoin="round" stroke-miterlimit="10" d="
	M42.112,137.384c0,0-1.067-15.813,14-23.752"/>
</svg>
