<?xml version="1.0" encoding="utf-8"?>
<!-- Generator: Adobe Illustrator 17.0.0, SVG Export Plug-In . SVG Version: 6.00 Build 0)  -->
<!DOCTYPE svg PUBLIC "-//W3C//DTD SVG 1.1//EN" "http://www.w3.org/Graphics/SVG/1.1/DTD/svg11.dtd">
<svg version="1.1" id="Calque_1" xmlns="http://www.w3.org/2000/svg" xmlns:xlink="http://www.w3.org/1999/xlink" x="0px" y="0px"
	 width="1061.294px" height="681.599px" viewBox="0 0 1061.294 681.599" enable-background="new 0 0 1061.294 681.599"
	 xml:space="preserve">
<path opacity="0.2" fill="#323B49" stroke="#323B49" stroke-width="4" stroke-linecap="round" stroke-linejoin="round" stroke-miterlimit="10" d="
	M338.19,658.831c0,6.627-5.373,12-12,12h-303c-6.627,0-12-5.373-12-12v-563c0-6.627,5.373-12,12-12h303c6.627,0,12,5.373,12,12
	V658.831z"/>
<path opacity="0.2" fill="#323B49" stroke="#323B49" stroke-width="4" stroke-linecap="round" stroke-linejoin="round" stroke-miterlimit="10" d="
	M697.19,658.831c0,6.627-5.373,12-12,12h-303c-6.627,0-12-5.373-12-12v-563c0-6.627,5.373-12,12-12h303c6.627,0,12,5.373,12,12
	V658.831z"/>
<path opacity="0.2" fill="#323B49" stroke="#323B49" stroke-width="4" stroke-linecap="round" stroke-linejoin="round" stroke-miterlimit="10" d="
	M1052.19,658.831c0,6.627-5.373,12-12,12h-303c-6.627,0-12-5.373-12-12v-563c0-6.627,5.373-12,12-12h303c6.627,0,12,5.373,12,12
	V658.831z"/>
<polygon fill="#323B49" stroke="#323B49" stroke-width="3.2375" stroke-miterlimit="10" points="207.538,272.696 148.636,272.696
	155.418,239.978 201.652,239.978 "/>
<rect x="230.889" y="148.414" fill="#F1B593" stroke="#F1B593" stroke-width="3.2375" stroke-miterlimit="10" width="25.364" height="6.361"/>
<path fill="#F1B593" stroke="#F1B593" stroke-width="3.2375" stroke-miterlimit="10" d="M256.253,154.867
	c0,0-0.208,47.725-39.256,49.895l5.423-10.847c0,0,23.32,2.169,27.117-39.048"/>
<path fill="#F1B593" stroke="#F1B593" stroke-width="3" stroke-miterlimit="10" d="M136.188,193.549c0,0-23.32,1.782-27.117-39.218
	h18.618v-6h-25.67l0.335,6.53c0,0,0.208,47.546,39.256,49.715L136.188,193.549z"/>
<path fill="#F1B593" stroke="#F1B593" stroke-width="3.2375" stroke-miterlimit="10" d="M127.294,141.25
	c0.168,47.346,12.937,86.549,52.098,85.643c40.998-0.949,51.93-38.296,52.098-85.643H127.294z"/>
<path fill="#F1B593" stroke="#F1B593" stroke-width="3.2375" stroke-miterlimit="10" d="M239.771,136.169
	c0,2.899-3.15,5.249-7.036,5.249H127.347c-3.886,0-7.036-2.35-7.036-5.249v-1.154c0-2.899,3.15-5.249,7.036-5.249h105.388
	c3.886,0,7.036,2.35,7.036,5.249V136.169z"/>
<path fill="#E44E7E" stroke="#E44E7E" stroke-width="3.2375" stroke-miterlimit="10" d="M208.309,233.255
	c0,3.682-2.064,6.666-4.609,6.666h-49.713c-2.546,0-4.609-2.984-4.609-6.666l0,0c0-3.682,2.064-6.666,4.609-6.666H203.7
	C206.245,226.589,208.309,229.573,208.309,233.255L208.309,233.255z"/>
<path opacity="0.2" fill="none" stroke="#323B49" stroke-width="7.2844" stroke-linecap="round" stroke-linejoin="round" stroke-miterlimit="10" d="
	M174.291,179.712c7.479-9.005,6.258-7.326,11.501-16.737c-0.206,6.816-0.599,13.767-0.599,20.351c0,4.19-0.272,9.366-0.065,13.328"
	/>
<path fill="none" stroke="#E44E7E" stroke-width="8.0938" stroke-linecap="round" stroke-linejoin="round" stroke-miterlimit="10" d="
	M171.092,178.735c7.479-9.005,6.258-7.326,11.501-16.737c-0.206,6.816-0.599,13.767-0.599,20.351c0,4.19-0.272,9.366-0.065,13.328"
	/>
<rect x="549.763" y="122.961" transform="matrix(-0.96 -0.2799 0.2799 -0.96 1059.0732 486.6442)" fill="#87C8CB" stroke="#87C8CB" stroke-width="3.3914" stroke-linecap="round" stroke-linejoin="round" stroke-miterlimit="10" width="29.036" height="89.494"/>
<rect x="497.9" y="123.858" transform="matrix(-0.9492 0.3148 -0.3148 -0.9492 1051.8605 167.3465)" fill="#87C8CB" stroke="#87C8CB" stroke-width="3.3914" stroke-linecap="round" stroke-linejoin="round" stroke-miterlimit="10" width="29.036" height="89.494"/>
<rect x="497.9" y="123.858" transform="matrix(-0.9492 0.3148 -0.3148 -0.9492 1051.8605 167.3465)" opacity="0.2" fill="#323B49" stroke="#323B49" stroke-width="3.3914" stroke-linecap="round" stroke-linejoin="round" stroke-miterlimit="10" width="29.036" height="89.494"/>
<circle fill="#F1B593" stroke="#F1B593" stroke-width="3.3914" stroke-miterlimit="10" cx="540.182" cy="235.44" r="35.436"/>
<circle opacity="0.2" fill="#323B49" stroke="#323B49" stroke-width="3.3914" stroke-miterlimit="10" cx="542.71" cy="237.464" r="22.821"/>
<circle fill="#F1B593" stroke="#F1B593" stroke-width="3.3914" stroke-miterlimit="10" cx="539.61" cy="236.06" r="22.821"/>
<path opacity="0.2" fill="none" stroke="#323B49" stroke-width="7.6307" stroke-linecap="round" stroke-linejoin="round" stroke-miterlimit="10" d="
	M533.075,235.741c5.554-6.302,4.643-5.124,8.602-11.764c-0.291,4.885-0.719,9.863-0.857,14.586
	c-0.088,3.006-0.392,6.713-0.327,9.559"/>
<g>
	<defs>
		<path id="XMLID_1_" d="M531.008,235.741c5.554-6.302,4.643-5.124,8.602-11.764c-0.291,4.885-0.719,9.863-0.857,14.586
			c-0.088,3.006-0.392,6.713-0.327,9.559"/>
	</defs>
	<clipPath id="XMLID_3_">
		<use xlink:href="#XMLID_1_"  overflow="visible"/>
	</clipPath>

		<use xlink:href="#XMLID_1_"  overflow="visible" fill="none" stroke="#E44E7E" stroke-width="7.6307" stroke-linecap="round" stroke-linejoin="round" stroke-miterlimit="10"/>
</g>
<path fill="#9DD1BC" stroke="#9DD1BC" stroke-width="2.3369" stroke-linecap="round" stroke-linejoin="round" stroke-miterlimit="10" d="
	M903.995,436.651c-11.856,7.795-20.591,4.163-29.484-6.178c-8.151-9.477-14.58-31.954-14.58-31.954h67.068
	C926.999,398.518,915.565,429.044,903.995,436.651z"/>
<circle fill="#323B49" stroke="#323B49" stroke-width="2.3369" stroke-miterlimit="10" cx="893.383" cy="440.967" r="3.996"/>
<polygon fill="#D6E39C" stroke="#D6E39C" stroke-width="2.3369" stroke-linecap="round" stroke-linejoin="round" stroke-miterlimit="10" points="
	876.113,487.427 879.443,485.819 879.443,480.997 883.806,483.638 886.102,481.916 898.316,483.56 901.485,485.698 905.793,483.188
	905.705,488.46 908.439,489.615 913.408,500.054 913.212,503.746 917.438,506.07 913.021,508.621 913.424,511.463 906.374,519.979
	902.997,521.484 902.849,526.304 898.569,523.531 896.221,525.182 885.218,524.171 881.956,522.43 878.062,525.275 877.62,520.194
	874.875,519.356 869.982,509.677 870.172,505.984 865.943,503.667 870.355,501.11 869.948,498.268 "/>
<rect x="894.828" y="465.271" transform="matrix(-0.943 0.3328 -0.3328 -0.943 1896.0389 611.7358)" fill="#323B49" stroke="#323B49" stroke-width="0.779" stroke-miterlimit="10" width="1.597" height="5.972"/>
<rect x="889.267" y="465.148" transform="matrix(0.943 0.3328 -0.3328 0.943 206.5467 -269.5437)" fill="#323B49" stroke="#323B49" stroke-width="0.779" stroke-miterlimit="10" width="1.597" height="5.972"/>
<polyline fill="#F1B593" stroke="#F1B593" stroke-width="2.3369" stroke-linecap="round" stroke-linejoin="round" stroke-miterlimit="10" points="
	880.882,492.564 865.626,477.488 867.073,488.67 856.113,491.078 875.774,499.241 "/>
<path fill="none" stroke="#FFFFFF" stroke-width="5.935" stroke-linecap="round" stroke-linejoin="round" stroke-miterlimit="10" d="
	M515.638,233.378c0,0-0.905-13.407,11.87-20.139"/>
<polyline fill="#F1B593" stroke="#F1B593" stroke-width="2.3369" stroke-linecap="round" stroke-linejoin="round" stroke-miterlimit="10" points="
	876.724,506.476 856.617,513.944 867.366,517.352 864.923,528.304 880.621,513.925 "/>
<polyline fill="#F1B593" stroke="#F1B593" stroke-width="2.3369" stroke-linecap="round" stroke-linejoin="round" stroke-miterlimit="10" points="
	888.716,517.241 883.997,538.164 892.72,531.019 900.563,539.045 897.085,518.043 "/>
<polyline fill="#F1B593" stroke="#F1B593" stroke-width="2.3369" stroke-linecap="round" stroke-linejoin="round" stroke-miterlimit="10" points="
	905.98,501.848 926.6,495.942 916.145,491.721 919.419,480.988 902.666,494.122 "/>
<polyline fill="#F1B593" stroke="#F1B593" stroke-width="2.3369" stroke-linecap="round" stroke-linejoin="round" stroke-miterlimit="10" points="
	900.575,514.824 916.767,528.891 914.606,517.824 925.389,514.718 905.245,507.833 "/>
<polyline fill="#F1B593" stroke="#F1B593" stroke-width="2.3369" stroke-linecap="round" stroke-linejoin="round" stroke-miterlimit="10" points="
	896.316,488.615 901.024,467.689 892.305,474.838 884.458,466.817 887.946,487.817 "/>
<rect x="50.858" y="291.427" fill="none" width="255.25" height="55.325"/>
<text transform="matrix(1 0 0 1 151.1082 309.4774)"><tspan x="0" y="0" fill="#40A1FF" font-family="'BloggerSans-Bold'" font-size="25">2007</tspan><tspan x="55" y="0" fill="#40A1FF" font-family="'BloggerSans-Bold'" font-size="25"> </tspan><tspan x="62.5" y="0" font-family="'MyriadPro-Regular'" font-size="25" letter-spacing="1"> </tspan><tspan x="-94.479" y="25" font-family="'MetaPro-Normal'" font-size="17">Prix de l’initiave Européenne</tspan></text>
<rect x="-28.957" y="538.75" fill="none" width="415.919" height="96.868"/>
<text transform="matrix(1 0 0 1 151.6275 556.7996)"><tspan x="0" y="0" fill="#40A1FF" font-family="'BloggerSans-Bold'" font-size="25">2009</tspan><tspan x="-46.557" y="25" font-family="'MetaPro-Normal'" font-size="17">Prix Louise Weiss </tspan><tspan x="-82.461" y="50" font-family="'MetaPro-Normal'" font-size="17">du journalisme Européen  </tspan><tspan x="-84.722" y="75" font-family="'MetaPro-Normal'" font-size="17">décernée à la radio-école </tspan></text>
<rect x="402.603" y="538.521" fill="none" width="270.706" height="96.868"/>
<text transform="matrix(1 0 0 1 510.957 556.5707)"><tspan x="0" y="0" fill="#40A1FF" font-family="'BloggerSans-Bold'" font-size="25">2011</tspan><tspan x="-55.585" y="25" font-family="'MetaPro-Normal'" font-size="17">Nomination au prix </tspan><tspan x="-82.836" y="50" font-family="'MetaPro-Normal'" font-size="17">du journalisme européen </tspan><tspan x="-48.173" y="75" font-family="'MetaPro-Normal'" font-size="17">/ catégorie radio </tspan></text>
<rect x="727.654" y="304.619" fill="none" width="325.952" height="57.508"/>
<text transform="matrix(1 0 0 1 863.2553 322.6695)"><tspan x="0" y="0" fill="#40A1FF" font-family="'BloggerSans-Bold'" font-size="25">2014</tspan><tspan x="-81.016" y="25" font-family="'MetaPro-Normal'" font-size="17">PRix du citoyen européen </tspan></text>
<rect x="644.979" y="564.245" fill="none" width="494.639" height="147.586"/>
<text transform="matrix(1 0 0 1 864.9242 582.2948)"><tspan x="0" y="0" fill="#40A1FF" font-family="'BloggerSans-Bold'" font-size="25">2015</tspan><tspan x="-58.823" y="25" font-family="'MetaPro-Normal'" font-size="17">médaille d’honneur </tspan><tspan x="-61.9" y="50" font-family="'MetaPro-Normal'" font-size="17">de la ville de nantes</tspan></text>
<rect x="312.321" y="299.081" fill="none" width="451.136" height="148.15"/>
<text transform="matrix(1 0 0 1 510.5146 317.1296)"><tspan x="0" y="0" fill="#40A1FF" font-family="'BloggerSans-Bold'" font-size="25">2010</tspan><tspan x="-102.98" y="25" font-family="'MetaPro-Normal'" font-size="17">médaille de l’ordre nationale </tspan><tspan x="-100.787" y="50" font-family="'MetaPro-Normal'" font-size="17">du mérite à Laurence Aubron, </tspan><tspan x="-70.409" y="75" font-family="'MetaPro-Normal'" font-size="17">fondatrice de la radio</tspan></text>
<rect x="207.441" y="15.956" fill="none" width="640.741" height="37.656"/>
<g>
	<defs>
		<polygon id="SVGID_1_" points="876.113,487.427 879.443,485.819 879.443,480.997 883.806,483.638 886.102,481.916 898.316,483.56
			901.485,485.698 905.793,483.188 905.705,488.46 908.439,489.615 913.408,500.054 913.212,503.746 917.438,506.07
			913.021,508.621 913.424,511.463 906.374,519.979 902.997,521.484 902.849,526.304 898.569,523.531 896.221,525.182
			885.218,524.171 881.956,522.43 878.062,525.275 877.62,520.194 874.875,519.356 869.982,509.677 870.172,505.984
			865.943,503.667 870.355,501.11 869.948,498.268 		"/>
	</defs>
	<clipPath id="SVGID_2_">
		<use xlink:href="#SVGID_1_"  overflow="visible"/>
	</clipPath>

		<path opacity="0.2" clip-path="url(#SVGID_2_)" fill="#323B49" stroke="#323B49" stroke-width="2.3369" stroke-linecap="round" stroke-linejoin="round" stroke-miterlimit="10" d="
		M876.131,530.541c0,0,29.983-55.048,30.372-54.659c0.389,0.389-33.886-1.947-35.184-1.428
		c-1.298,0.519-15.207,17.907-15.207,17.907l1.185,26c0,0-3.246,8.025,4.025,12.179c7.271,4.155,14.281,0,14.281,0"/>
</g>
<circle fill="#9DD1BC" stroke="#9DD1BC" stroke-width="2.3369" stroke-miterlimit="10" cx="890.905" cy="502.944" r="14.774"/>
<circle fill="#F1B593" stroke="#F1B593" stroke-width="2.3369" stroke-miterlimit="10" cx="890.767" cy="503" r="10.638"/>
<rect x="453.19" y="440.831" fill="#9DD1BC" width="170" height="66"/>
<line fill="none" stroke="#000000" stroke-width="4" stroke-miterlimit="10" x1="387.19" y1="533.831" x2="387.19" y2="533.831"/>
<g>
	<defs>
		<path id="SVGID_3_" d="M127.294,141.25c0.168,47.346,12.937,86.549,52.098,85.643c40.998-0.949,51.93-38.296,52.098-85.643
			H127.294z"/>
	</defs>
	<clipPath id="SVGID_4_">
		<use xlink:href="#SVGID_3_"  overflow="visible"/>
	</clipPath>
	<g clip-path="url(#SVGID_4_)">
		<path opacity="0.2" fill="#323B49" stroke="#323B49" stroke-width="3" stroke-miterlimit="10" d="M232.736,133.331H127.347
			c-3.886,0-6.657,1.887-6.657,4.786v1.154c0,2.899,2.772,5.06,6.657,5.06h7.756h97.632c3.886,0,6.954-2.161,6.954-5.06v-1.154
			C239.69,135.218,236.621,133.331,232.736,133.331z"/>
		<path opacity="0.2" fill="#323B49" stroke="#323B49" stroke-width="3.2375" stroke-miterlimit="10" d="M135.104,149.028
			l-30.217,0.196l-4.856,6.453l2.325,37.279c0,0,19.258,23.742,19.628,23.472c0.37-0.27,57.366,38.85,30.657,4.177
			C125.931,185.933,135.104,149.028,135.104,149.028z"/>
	</g>
</g>
<g>
	<defs>
		<path id="SVGID_5_" d="M136.188,193.799c0,0-23.32,2.032-27.117-38.968h19.118v-6h-26.17l0.335,6.28
			c0,0,0.208,47.546,39.256,49.715L136.188,193.799z"/>
	</defs>
	<clipPath id="SVGID_6_">
		<use xlink:href="#SVGID_5_"  overflow="visible"/>
	</clipPath>
	<path opacity="0.2" clip-path="url(#SVGID_6_)" fill="#323B49" stroke="#323B49" stroke-width="3.2375" stroke-miterlimit="10" d="
		M106.37,141.25c0,0.512-4.249,45.028,18.616,66.477s-38.243-15.985-38.243-15.985s4.654-50.195,5.261-50.492
		C92.611,140.953,106.37,141.25,106.37,141.25z"/>
</g>
<line fill="none" stroke="#FFFFFF" stroke-width="3.2375" stroke-linecap="round" stroke-linejoin="round" stroke-miterlimit="10" x1="155.338" y1="268.026" x2="159.385" y2="246.982"/>
<path fill="none" stroke="#FFFFFF" stroke-width="3.2375" stroke-linecap="round" stroke-linejoin="round" stroke-miterlimit="10" d="
	M223.528,153.297c0,0-4.249,45.123-24.686,60.704"/>
<polygon fill="#323B49" stroke="#323B49" stroke-width="3.2375" stroke-miterlimit="10" points="207.538,519.696 148.636,519.696
	155.418,486.978 201.652,486.978 "/>
<rect x="230.889" y="395.414" fill="#F1B593" stroke="#F1B593" stroke-width="3.2375" stroke-miterlimit="10" width="25.364" height="6.361"/>
<path fill="#F1B593" stroke="#F1B593" stroke-width="3.2375" stroke-miterlimit="10" d="M256.253,401.867
	c0,0-0.208,47.725-39.256,49.895l5.423-10.847c0,0,23.32,2.169,27.117-39.048"/>
<path fill="#F1B593" stroke="#F1B593" stroke-width="3" stroke-miterlimit="10" d="M136.188,440.549c0,0-23.32,1.782-27.117-39.218
	h18.618v-6h-25.67l0.335,6.53c0,0,0.208,47.546,39.256,49.715L136.188,440.549z"/>
<path fill="#F1B593" stroke="#F1B593" stroke-width="3.2375" stroke-miterlimit="10" d="M127.294,388.25
	c0.168,47.346,12.937,86.549,52.098,85.643c40.998-0.949,51.93-38.296,52.098-85.643H127.294z"/>
<path fill="#F1B593" stroke="#F1B593" stroke-width="3.2375" stroke-miterlimit="10" d="M239.771,383.169
	c0,2.899-3.15,5.249-7.036,5.249H127.347c-3.886,0-7.036-2.35-7.036-5.249v-1.154c0-2.899,3.15-5.249,7.036-5.249h105.388
	c3.886,0,7.036,2.35,7.036,5.249V383.169z"/>
<path fill="#E44E7E" stroke="#E44E7E" stroke-width="3.2375" stroke-miterlimit="10" d="M208.309,480.255
	c0,3.682-2.064,6.666-4.609,6.666h-49.713c-2.546,0-4.609-2.984-4.609-6.666l0,0c0-3.682,2.064-6.666,4.609-6.666H203.7
	C206.245,473.589,208.309,476.573,208.309,480.255L208.309,480.255z"/>
<path opacity="0.2" fill="none" stroke="#323B49" stroke-width="7.2844" stroke-linecap="round" stroke-linejoin="round" stroke-miterlimit="10" d="
	M174.291,426.712c7.479-9.005,6.258-7.326,11.501-16.737c-0.206,6.816-0.599,13.767-0.599,20.351c0,4.19-0.272,9.366-0.065,13.328"
	/>
<path fill="none" stroke="#E44E7E" stroke-width="8.0938" stroke-linecap="round" stroke-linejoin="round" stroke-miterlimit="10" d="
	M171.092,425.735c7.479-9.005,6.258-7.326,11.501-16.737c-0.206,6.816-0.599,13.767-0.599,20.351c0,4.19-0.272,9.366-0.065,13.328"
	/>
<g>
	<defs>
		<path id="SVGID_7_" d="M127.294,388.25c0.168,47.346,12.937,86.549,52.098,85.643c40.998-0.949,51.93-38.296,52.098-85.643
			H127.294z"/>
	</defs>
	<clipPath id="SVGID_8_">
		<use xlink:href="#SVGID_7_"  overflow="visible"/>
	</clipPath>
	<g clip-path="url(#SVGID_8_)">
		<path opacity="0.2" fill="#323B49" stroke="#323B49" stroke-width="3" stroke-miterlimit="10" d="M232.736,380.331H127.347
			c-3.886,0-6.657,1.887-6.657,4.786v1.154c0,2.899,2.772,5.06,6.657,5.06h7.756h97.632c3.886,0,6.954-2.16,6.954-5.06v-1.154
			C239.69,382.218,236.621,380.331,232.736,380.331z"/>
		<path opacity="0.2" fill="#323B49" stroke="#323B49" stroke-width="3.2375" stroke-miterlimit="10" d="M135.104,396.028
			l-30.217,0.196l-4.856,6.453l2.325,37.279c0,0,19.258,23.742,19.628,23.472c0.37-0.27,57.366,38.85,30.657,4.177
			S135.104,396.028,135.104,396.028z"/>
	</g>
</g>
<g>
	<defs>
		<path id="SVGID_9_" d="M136.188,440.799c0,0-23.32,2.032-27.117-38.968h19.118v-6h-26.17l0.335,6.28
			c0,0,0.208,47.546,39.256,49.715L136.188,440.799z"/>
	</defs>
	<clipPath id="SVGID_10_">
		<use xlink:href="#SVGID_9_"  overflow="visible"/>
	</clipPath>

		<path opacity="0.2" clip-path="url(#SVGID_10_)" fill="#323B49" stroke="#323B49" stroke-width="3.2375" stroke-miterlimit="10" d="
		M106.37,388.25c0,0.512-4.249,45.028,18.616,66.477c22.865,21.449-38.243-15.985-38.243-15.985s4.654-50.195,5.261-50.492
		S106.37,388.25,106.37,388.25z"/>
</g>
<line fill="none" stroke="#FFFFFF" stroke-width="3.2375" stroke-linecap="round" stroke-linejoin="round" stroke-miterlimit="10" x1="155.338" y1="515.026" x2="159.385" y2="493.982"/>
<path fill="none" stroke="#FFFFFF" stroke-width="3.2375" stroke-linecap="round" stroke-linejoin="round" stroke-miterlimit="10" d="
	M223.528,400.297c0,0-4.249,45.123-24.686,60.704"/>
<g>
	<defs>
		<circle id="SVGID_11_" cx="890.767" cy="503" r="10.638"/>
	</defs>
	<clipPath id="SVGID_12_">
		<use xlink:href="#SVGID_11_"  overflow="visible"/>
	</clipPath>

		<path opacity="0.2" clip-path="url(#SVGID_12_)" fill="#323B49" stroke="#323B49" stroke-width="2.3369" stroke-linecap="round" stroke-linejoin="round" stroke-miterlimit="10" d="
		M889.236,483.543l4.043,39.728c0,0-19.363-4.025-19.882-4.284c-0.519-0.26-6.492-17.787-6.492-17.787l6.232-13.029L889.236,483.543
		z"/>
</g>
<path fill="#F1B593" stroke="#F1B593" stroke-width="2.3369" stroke-miterlimit="10" d="M893.279,445.523
	c-7.85,0-14.214,4.36-14.214,9.738S885.429,465,893.279,465c7.85,0,14.214-4.36,14.214-9.738S901.129,445.523,893.279,445.523z
	 M893.444,461.51c-5.21,0-9.434-2.741-9.434-6.123c0-3.381,4.224-6.122,9.434-6.122s9.434,2.741,9.434,6.122
	C902.878,458.769,898.654,461.51,893.444,461.51z"/>
<g>
	<defs>
		<path id="SVGID_13_" d="M893.279,445.523c-7.85,0-14.214,4.36-14.214,9.738S885.429,465,893.279,465
			c7.85,0,14.214-4.36,14.214-9.738S901.129,445.523,893.279,445.523z M893.444,461.51c-5.21,0-9.434-2.741-9.434-6.123
			c0-3.381,4.224-6.122,9.434-6.122s9.434,2.741,9.434,6.122C902.878,458.769,898.654,461.51,893.444,461.51z"/>
	</defs>
	<clipPath id="SVGID_14_">
		<use xlink:href="#SVGID_13_"  overflow="visible"/>
	</clipPath>

		<path opacity="0.2" clip-path="url(#SVGID_14_)" fill="#323B49" stroke="#323B49" stroke-width="2.3369" stroke-linecap="round" stroke-linejoin="round" stroke-miterlimit="10" d="
		M884.458,444.074c0.754,0.26,23.504,20.689,23.035,20.926s-11.866,9.844-11.866,9.844l-23.658-1.688c0,0-7.66-11.944-6.881-13.113
		c0.779-1.168,4.414-7.66,4.414-7.66L884.458,444.074z"/>
</g>
<g>
	<defs>
		<path id="SVGID_15_" d="M903.995,436.651c-11.856,7.795-20.591,4.163-29.484-6.178c-8.151-9.477-14.58-31.954-14.58-31.954h67.068
			C926.999,398.518,915.565,429.044,903.995,436.651z"/>
	</defs>
	<clipPath id="SVGID_16_">
		<use xlink:href="#SVGID_15_"  overflow="visible"/>
	</clipPath>

		<path opacity="0.2" clip-path="url(#SVGID_16_)" fill="#323B49" stroke="#323B49" stroke-width="2.3369" stroke-miterlimit="10" d="
		M870.021,394.349c0.26,0.779,6.751,42.584,20.903,48.427c14.151,5.842-25.706,2.597-26.485,3.376
		c-0.779,0.779-14.671-10.906-14.671-10.906l-6.621-20.254l7.53-25.057c0,0,15.969,2.726,16.359,2.986
		C867.424,393.181,870.021,394.349,870.021,394.349z"/>
</g>
<path fill="none" stroke="#FFFFFF" stroke-width="3" stroke-linecap="round" stroke-linejoin="round" stroke-miterlimit="10" d="
	M909.19,402.331c0,0-3.466,0,2.636,0c6.102,0,6.861,0.519,6.601,3.765"/>
<circle fill="#FFFFFF" cx="894.231" cy="437.819" r="0.848"/>
<circle fill="#FFFFFF" cx="895.805" cy="442.256" r="1.574"/>
<path fill="none" stroke="#FFFFFF" stroke-width="1.558" stroke-linecap="round" stroke-linejoin="round" stroke-miterlimit="10" d="
	M884.458,498.213c0,0-4.666,4.032,0,8.699"/>
<g>
	<defs>
		<rect id="SVGID_17_" x="453.19" y="440.831" width="170" height="66"/>
	</defs>
	<clipPath id="SVGID_18_">
		<use xlink:href="#SVGID_17_"  overflow="visible"/>
	</clipPath>

		<line clip-path="url(#SVGID_18_)" fill="none" stroke="#FFFAEE" stroke-width="3.4903" stroke-miterlimit="10" x1="452.932" y1="440.81" x2="540.447" y2="472.127"/>

		<line clip-path="url(#SVGID_18_)" fill="none" stroke="#FFFAEE" stroke-width="3.4903" stroke-miterlimit="10" x1="624.605" y1="441.56" x2="539.284" y2="472.03"/>

		<line clip-path="url(#SVGID_18_)" fill="none" stroke="#FFFAEE" stroke-width="3.4903" stroke-miterlimit="10" x1="513.396" y1="462.922" x2="449.69" y2="510.581"/>

		<line clip-path="url(#SVGID_18_)" fill="none" stroke="#FFFAEE" stroke-width="3.4903" stroke-miterlimit="10" x1="566.006" y1="462.049" x2="624.212" y2="504.541"/>
</g>
<circle opacity="0.2" fill="#323B49" stroke="#323B49" stroke-width="3" stroke-miterlimit="10" cx="541.339" cy="474.558" r="11.177"/>
<circle fill="#F1B593" stroke="#F1B593" stroke-width="3" stroke-miterlimit="10" cx="539.339" cy="472.558" r="11.177"/>
<circle fill="#E44E7E" stroke="#E44E7E" stroke-width="3" stroke-miterlimit="10" cx="539.339" cy="472.558" r="5.24"/>
<g>
	<defs>
		<circle id="SVGID_19_" cx="539.339" cy="472.558" r="5.24"/>
	</defs>
	<clipPath id="SVGID_20_">
		<use xlink:href="#SVGID_19_"  overflow="visible"/>
	</clipPath>
	<path opacity="0.2" clip-path="url(#SVGID_20_)" fill="#323B49" stroke="#323B49" stroke-width="3" stroke-miterlimit="10" d="
		M536.503,471.206c-0.5-5.875,3.406-7,3.406-7l-9.591,1.82l-0.855,7.805c0,0,2.613,4.375,3.738,4.875s3.807,0.875,4.182,0.875
		s6.307,1.5,6.307,1.5S537.003,477.081,536.503,471.206z"/>
</g>
<path fill="none" stroke="#FFFAEE" stroke-width="2" stroke-linecap="round" stroke-miterlimit="10" d="M541.339,463.381
	c0,0,5.476,0.825,6.601,4.575"/>
<g>
	<defs>
		<rect id="SVGID_21_" x="453.19" y="440.831" width="170" height="66"/>
	</defs>
	<clipPath id="SVGID_22_">
		<use xlink:href="#SVGID_21_"  overflow="visible"/>
	</clipPath>

		<path opacity="0.2" clip-path="url(#SVGID_22_)" fill="#323B49" stroke="#323B49" stroke-width="2" stroke-linecap="round" stroke-miterlimit="10" d="
		M462.19,436.831v62h174c0,0-28.076,31.151-28.076,28.076s-48.924,23.591-48.924,23.591s-90.667-1.667-97-4.333
		c-6.333-2.667-42.333-43.667-42.333-49.333c0-5.667,6-33.45,6-33.45l27.333-28.55L462.19,436.831z"/>
</g>
<polygon fill="#323B49" stroke="#323B49" stroke-width="3.2375" stroke-miterlimit="10" points="921.538,272.696 862.636,272.696
	869.418,239.978 915.652,239.978 "/>
<rect x="944.889" y="148.414" fill="#F1B593" stroke="#F1B593" stroke-width="3.2375" stroke-miterlimit="10" width="25.364" height="6.361"/>
<path fill="#F1B593" stroke="#F1B593" stroke-width="3.2375" stroke-miterlimit="10" d="M970.253,154.867
	c0,0-0.208,47.725-39.256,49.895l5.423-10.847c0,0,23.32,2.169,27.117-39.048"/>
<path fill="#F1B593" stroke="#F1B593" stroke-width="3" stroke-miterlimit="10" d="M850.188,193.549c0,0-23.32,1.782-27.117-39.218
	h18.618v-6h-25.67l0.335,6.53c0,0,0.208,47.546,39.256,49.715L850.188,193.549z"/>
<path fill="#F1B593" stroke="#F1B593" stroke-width="3.2375" stroke-miterlimit="10" d="M841.294,141.25
	c0.168,47.346,12.937,86.549,52.098,85.643c40.998-0.949,51.93-38.296,52.098-85.643H841.294z"/>
<path fill="#F1B593" stroke="#F1B593" stroke-width="3.2375" stroke-miterlimit="10" d="M953.771,136.169
	c0,2.899-3.15,5.249-7.036,5.249H841.347c-3.886,0-7.036-2.35-7.036-5.249v-1.154c0-2.899,3.15-5.249,7.036-5.249h105.388
	c3.886,0,7.036,2.35,7.036,5.249V136.169z"/>
<path fill="#E44E7E" stroke="#E44E7E" stroke-width="3.2375" stroke-miterlimit="10" d="M922.309,233.255
	c0,3.682-2.064,6.666-4.609,6.666h-49.713c-2.546,0-4.609-2.984-4.609-6.666l0,0c0-3.682,2.064-6.666,4.609-6.666H917.7
	C920.245,226.589,922.309,229.573,922.309,233.255L922.309,233.255z"/>
<path opacity="0.2" fill="none" stroke="#323B49" stroke-width="7.2844" stroke-linecap="round" stroke-linejoin="round" stroke-miterlimit="10" d="
	M888.291,179.712c7.479-9.005,6.258-7.326,11.501-16.737c-0.206,6.816-0.599,13.767-0.599,20.351c0,4.19-0.271,9.366-0.065,13.328"
	/>
<path fill="none" stroke="#E44E7E" stroke-width="8.0938" stroke-linecap="round" stroke-linejoin="round" stroke-miterlimit="10" d="
	M885.092,178.735c7.479-9.005,6.258-7.326,11.501-16.737c-0.206,6.816-0.599,13.767-0.599,20.351c0,4.19-0.272,9.366-0.065,13.328"
	/>
<g>
	<defs>
		<path id="SVGID_23_" d="M841.294,141.25c0.168,47.346,12.937,86.549,52.098,85.643c40.998-0.949,51.93-38.296,52.098-85.643
			H841.294z"/>
	</defs>
	<clipPath id="SVGID_24_">
		<use xlink:href="#SVGID_23_"  overflow="visible"/>
	</clipPath>
	<g clip-path="url(#SVGID_24_)">
		<path opacity="0.2" fill="#323B49" stroke="#323B49" stroke-width="3" stroke-miterlimit="10" d="M946.736,133.331H841.347
			c-3.886,0-6.657,1.887-6.657,4.786v1.154c0,2.899,2.772,5.06,6.657,5.06h7.756h97.632c3.886,0,6.954-2.161,6.954-5.06v-1.154
			C953.69,135.218,950.621,133.331,946.736,133.331z"/>
		<path opacity="0.2" fill="#323B49" stroke="#323B49" stroke-width="3.2375" stroke-miterlimit="10" d="M849.104,149.028
			l-30.217,0.196l-4.856,6.453l2.325,37.279c0,0,19.258,23.742,19.628,23.472c0.37-0.27,57.366,38.85,30.657,4.177
			C839.931,185.933,849.104,149.028,849.104,149.028z"/>
	</g>
</g>
<g>
	<defs>
		<path id="SVGID_25_" d="M850.188,193.799c0,0-23.32,2.032-27.117-38.968h19.118v-6h-26.17l0.335,6.28
			c0,0,0.208,47.546,39.256,49.715L850.188,193.799z"/>
	</defs>
	<clipPath id="SVGID_26_">
		<use xlink:href="#SVGID_25_"  overflow="visible"/>
	</clipPath>

		<path opacity="0.2" clip-path="url(#SVGID_26_)" fill="#323B49" stroke="#323B49" stroke-width="3.2375" stroke-miterlimit="10" d="
		M820.37,141.25c0,0.512-4.249,45.028,18.616,66.477c22.865,21.449-38.243-15.985-38.243-15.985s4.654-50.195,5.261-50.492
		C806.611,140.953,820.37,141.25,820.37,141.25z"/>
</g>
<line fill="none" stroke="#FFFFFF" stroke-width="3.2375" stroke-linecap="round" stroke-linejoin="round" stroke-miterlimit="10" x1="869.338" y1="268.026" x2="873.385" y2="246.982"/>
<path fill="none" stroke="#FFFFFF" stroke-width="3.2375" stroke-linecap="round" stroke-linejoin="round" stroke-miterlimit="10" d="
	M937.528,153.297c0,0-4.249,45.123-24.686,60.704"/>
</svg>
