<?xml version="1.0" encoding="utf-8"?>
<!-- Generator: Adobe Illustrator 16.0.0, SVG Export Plug-In . SVG Version: 6.00 Build 0)  -->
<!DOCTYPE svg PUBLIC "-//W3C//DTD SVG 1.1//EN" "http://www.w3.org/Graphics/SVG/1.1/DTD/svg11.dtd">
<svg version="1.1" id="Calque_1" xmlns="http://www.w3.org/2000/svg" xmlns:xlink="http://www.w3.org/1999/xlink" x="0px" y="0px"
	 width="1280px" height="800px" viewBox="0 0 1280 800" enable-background="new 0 0 1280 800" xml:space="preserve">
<rect x="-0.86" fill="#AEDBDF" width="1279.988" height="800.002"/>
<g>
	<g>
		<g>
			<g>
				<g>
					<g>
						<path fill="#87C9CC" d="M743.614,351c0-1.381-1.119-2.5-2.5-2.5h-4c-1.381,0-2.5,1.119-2.5,2.5v4c0,1.381,1.119,2.5,2.5,2.5h4
							c1.381,0,2.5-1.119,2.5-2.5V351z M743.614,354.607c0,1.381-0.764,2.893-2.143,2.893h-4c-1.381,0-2.857-1.512-2.857-2.893v-4
							c0-1.379,1.477-2.107,2.857-2.107h4c1.379,0,2.143,0.729,2.143,2.107V354.607z"/>
					</g>
				</g>
				<g>
					<g>
						<path fill="#87C9CC" d="M757.614,351c0-1.381-1.119-2.5-2.5-2.5h-4c-1.381,0-2.5,1.119-2.5,2.5v4c0,1.381,1.119,2.5,2.5,2.5h4
							c1.381,0,2.5-1.119,2.5-2.5V351z M757.614,354.607c0,1.381-0.764,2.893-2.143,2.893h-4c-1.381,0-2.857-1.512-2.857-2.893v-4
							c0-1.379,1.477-2.107,2.857-2.107h4c1.379,0,2.143,0.729,2.143,2.107V354.607z"/>
					</g>
				</g>
				<g>
					<g>
						<path fill="#87C9CC" d="M771.614,351c0-1.381-1.119-2.5-2.5-2.5h-4c-1.381,0-2.5,1.119-2.5,2.5v4c0,1.381,1.119,2.5,2.5,2.5h4
							c1.381,0,2.5-1.119,2.5-2.5V351z M771.614,354.607c0,1.381-0.764,2.893-2.143,2.893h-4c-1.381,0-2.857-1.512-2.857-2.893v-4
							c0-1.379,1.477-2.107,2.857-2.107h4c1.379,0,2.143,0.729,2.143,2.107V354.607z"/>
					</g>
				</g>
				<g>
					<g>
						<path fill="#87C9CC" d="M785.614,351c0-1.381-1.119-2.5-2.5-2.5h-4c-1.381,0-2.5,1.119-2.5,2.5v4c0,1.381,1.119,2.5,2.5,2.5h4
							c1.381,0,2.5-1.119,2.5-2.5V351z M785.614,354.607c0,1.381-0.764,2.893-2.143,2.893h-4c-1.381,0-2.857-1.512-2.857-2.893v-4
							c0-1.379,1.477-2.107,2.857-2.107h4c1.379,0,2.143,0.729,2.143,2.107V354.607z"/>
					</g>
				</g>
				<g>
					<g>
						<path fill="#87C9CC" d="M799.614,351c0-1.381-1.119-2.5-2.5-2.5h-4c-1.381,0-2.5,1.119-2.5,2.5v4c0,1.381,1.119,2.5,2.5,2.5h4
							c1.381,0,2.5-1.119,2.5-2.5V351z M799.614,354.607c0,1.381-0.764,2.893-2.143,2.893h-4c-1.381,0-2.857-1.512-2.857-2.893v-4
							c0-1.379,1.477-2.107,2.857-2.107h4c1.379,0,2.143,0.729,2.143,2.107V354.607z"/>
					</g>
				</g>
				<g>
					<path fill="#87C9CC" d="M812,346v260h-9.515c1.379,0,2.515-1.736,2.515-3.477V346H812z"/>
				</g>
				<g>
					<path fill="#87C9CC" d="M733.796,606H724V346h7v256.523C731,604.264,732.417,606,733.796,606z"/>
				</g>
				<path fill="#87C9CC" d="M783,293.604V313h-31v-19.396c0-1.377,2.394-1.604,3.772-1.604h25.598
					C782.749,292,783,292.227,783,293.604z"/>
				<path fill="#87C9CC" d="M804,314.719V334h-52v-21h50.485C803.864,313,804,313.34,804,314.719z"/>
				<path fill="#87C9CC" d="M804,334v13h-74v-11.166c0-1.379,2.417-1.834,3.796-1.834H804z"/>
				<path fill="#87C9CC" d="M730,347v54h74v-54H730z M799,354.607c0,1.381-0.149,3.393-1.528,3.393h-4
					c-1.381,0-3.472-2.012-3.472-3.393v-4c0-1.379,2.091-1.607,3.472-1.607h4c1.379,0,1.528,0.229,1.528,1.607V354.607z
					 M785,354.607c0,1.381-0.149,3.393-1.528,3.393h-4c-1.381,0-3.472-2.012-3.472-3.393v-4c0-1.379,2.091-1.607,3.472-1.607h4
					c1.379,0,1.528,0.229,1.528,1.607V354.607z M771,354.607c0,1.381-0.149,3.393-1.528,3.393h-4c-1.381,0-3.472-2.012-3.472-3.393
					v-4c0-1.379,2.091-1.607,3.472-1.607h4c1.379,0,1.528,0.229,1.528,1.607V354.607z M757,354.607c0,1.381-0.149,3.393-1.528,3.393
					h-4c-1.381,0-3.472-2.012-3.472-3.393v-4c0-1.379,2.091-1.607,3.472-1.607h4c1.379,0,1.528,0.229,1.528,1.607V354.607z
					 M743,354.607c0,1.381-0.149,3.393-1.528,3.393h-4c-1.381,0-3.472-2.012-3.472-3.393v-4c0-1.379,2.091-1.607,3.472-1.607h4
					c1.379,0,1.528,0.229,1.528,1.607V354.607z M743,393.607c0,1.381-0.149,3.393-1.528,3.393h-4c-1.381,0-3.472-2.012-3.472-3.393
					v-4c0-1.379,2.091-1.607,3.472-1.607h4c1.379,0,1.528,0.229,1.528,1.607V393.607z M743,380.607c0,1.381-0.149,3.393-1.528,3.393
					h-4c-1.381,0-3.472-2.012-3.472-3.393v-4c0-1.379,2.091-1.607,3.472-1.607h4c1.379,0,1.528,0.229,1.528,1.607V380.607z
					 M743,367.607c0,1.381-0.149,3.393-1.528,3.393h-4c-1.381,0-3.472-2.012-3.472-3.393v-4c0-1.379,2.091-1.607,3.472-1.607h4
					c1.379,0,1.528,0.229,1.528,1.607V367.607z M757,393.607c0,1.381-0.149,3.393-1.528,3.393h-4c-1.381,0-3.472-2.012-3.472-3.393
					v-4c0-1.379,2.091-1.607,3.472-1.607h4c1.379,0,1.528,0.229,1.528,1.607V393.607z M757,380.607c0,1.381-0.149,3.393-1.528,3.393
					h-4c-1.381,0-3.472-2.012-3.472-3.393v-4c0-1.379,2.091-1.607,3.472-1.607h4c1.379,0,1.528,0.229,1.528,1.607V380.607z
					 M757,367.607c0,1.381-0.149,3.393-1.528,3.393h-4c-1.381,0-3.472-2.012-3.472-3.393v-4c0-1.379,2.091-1.607,3.472-1.607h4
					c1.379,0,1.528,0.229,1.528,1.607V367.607z M771,393.607c0,1.381-0.149,3.393-1.528,3.393h-4c-1.381,0-3.472-2.012-3.472-3.393
					v-4c0-1.379,2.091-1.607,3.472-1.607h4c1.379,0,1.528,0.229,1.528,1.607V393.607z M771,380.607c0,1.381-0.149,3.393-1.528,3.393
					h-4c-1.381,0-3.472-2.012-3.472-3.393v-4c0-1.379,2.091-1.607,3.472-1.607h4c1.379,0,1.528,0.229,1.528,1.607V380.607z
					 M771,367.607c0,1.381-0.149,3.393-1.528,3.393h-4c-1.381,0-3.472-2.012-3.472-3.393v-4c0-1.379,2.091-1.607,3.472-1.607h4
					c1.379,0,1.528,0.229,1.528,1.607V367.607z M785,393.607c0,1.381-0.149,3.393-1.528,3.393h-4c-1.381,0-3.472-2.012-3.472-3.393
					v-4c0-1.379,2.091-1.607,3.472-1.607h4c1.379,0,1.528,0.229,1.528,1.607V393.607z M785,380.607c0,1.381-0.149,3.393-1.528,3.393
					h-4c-1.381,0-3.472-2.012-3.472-3.393v-4c0-1.379,2.091-1.607,3.472-1.607h4c1.379,0,1.528,0.229,1.528,1.607V380.607z
					 M785,367.607c0,1.381-0.149,3.393-1.528,3.393h-4c-1.381,0-3.472-2.012-3.472-3.393v-4c0-1.379,2.091-1.607,3.472-1.607h4
					c1.379,0,1.528,0.229,1.528,1.607V367.607z M799,393.607c0,1.381-0.149,3.393-1.528,3.393h-4c-1.381,0-3.472-2.012-3.472-3.393
					v-4c0-1.379,2.091-1.607,3.472-1.607h4c1.379,0,1.528,0.229,1.528,1.607V393.607z M799,380.607c0,1.381-0.149,3.393-1.528,3.393
					h-4c-1.381,0-3.472-2.012-3.472-3.393v-4c0-1.379,2.091-1.607,3.472-1.607h4c1.379,0,1.528,0.229,1.528,1.607V380.607z
					 M799,367.607c0,1.381-0.149,3.393-1.528,3.393h-4c-1.381,0-3.472-2.012-3.472-3.393v-4c0-1.379,2.091-1.607,3.472-1.607h4
					c1.379,0,1.528,0.229,1.528,1.607V367.607z M799,411c0-0.553-0.447-1-1-1h-7c-0.553,0-1,0.447-1,1l0,0c0,0.553,0.447,1,1,1h7
					C798.553,412,799,411.553,799,411L799,411z M785,411c0-0.553-0.447-1-1-1h-7c-0.553,0-1,0.447-1,1l0,0c0,0.553,0.447,1,1,1h7
					C784.553,412,785,411.553,785,411L785,411z M771,411c0-0.553-0.447-1-1-1h-7c-0.553,0-1,0.447-1,1l0,0c0,0.553,0.447,1,1,1h7
					C770.553,412,771,411.553,771,411L771,411z M757,411c0-0.553-0.447-1-1-1h-7c-0.553,0-1,0.447-1,1l0,0c0,0.553,0.447,1,1,1h7
					C756.553,412,757,411.553,757,411L757,411z M743,411c0-0.553-0.447-1-1-1h-7c-0.553,0-1,0.447-1,1l0,0c0,0.553,0.447,1,1,1h7
					C742.553,412,743,411.553,743,411L743,411z"/>
				<path fill="#87C9CC" d="M732.125,606.124c-0.91-0.629-2.125-2.366-2.125-3.597v1.08c0,0.73,1.035,1.747,1.605,2.517
					c0.1,0.141,0.687,0.876,0.786,0.876h1.4C733.392,607,732.506,606.394,732.125,606.124z"/>
				<path fill="#87C9CC" d="M797.472,401c1.379,0,1.528,0.229,1.528,1.607v6c0,1.381-0.149,3.393-1.528,3.393h-4
					c-1.381,0-3.472-2.012-3.472-3.393v-6c0-1.379,2.091-1.607,3.472-1.607h-10c1.379,0,1.528,0.229,1.528,1.607v6
					c0,1.381-0.149,3.393-1.528,3.393h-4c-1.381,0-3.472-2.012-3.472-3.393v-6c0-1.379,2.091-1.607,3.472-1.607h-10
					c1.379,0,1.528,0.229,1.528,1.607v6c0,1.381-0.149,3.393-1.528,3.393h-4c-1.381,0-3.472-2.012-3.472-3.393v-6
					c0-1.379,2.091-1.607,3.472-1.607h-10c1.379,0,1.528,0.229,1.528,1.607v6c0,1.381-0.149,3.393-1.528,3.393h-4
					c-1.381,0-3.472-2.012-3.472-3.393v-6c0-1.379,2.091-1.607,3.472-1.607h-10c1.379,0,1.528,0.229,1.528,1.607v6
					c0,1.381-0.149,3.393-1.528,3.393h-4c-1.381,0-3.472-2.012-3.472-3.393v-6c0-1.379,2.091-1.607,3.472-1.607H730v201.527
					c0,1.23,1.215,2.968,2.125,3.597c0.381,0.27,1.267,0.876,1.667,0.876h68.689c0.52,0,0.513-0.606,0.903-0.876
					c0.67-0.449,0.615-1.655,0.615-2.517V401H797.472z M743,600.607c0,1.381-0.149,3.393-1.528,3.393h-4
					c-1.381,0-3.472-2.012-3.472-3.393v-4c0-1.379,2.091-1.607,3.472-1.607h4c1.379,0,1.528,0.229,1.528,1.607V600.607z
					 M743,587.607c0,1.381-0.149,3.393-1.528,3.393h-4c-1.381,0-3.472-2.012-3.472-3.393v-4c0-1.379,2.091-1.607,3.472-1.607h4
					c1.379,0,1.528,0.229,1.528,1.607V587.607z M743,574.607c0,1.381-0.149,3.393-1.528,3.393h-4c-1.381,0-3.472-2.012-3.472-3.393
					v-4c0-1.379,2.091-1.607,3.472-1.607h4c1.379,0,1.528,0.229,1.528,1.607V574.607z M743,561.607c0,1.381-0.149,3.393-1.528,3.393
					h-4c-1.381,0-3.472-2.012-3.472-3.393v-4c0-1.379,2.091-1.607,3.472-1.607h4c1.379,0,1.528,0.229,1.528,1.607V561.607z
					 M743,548.607c0,1.381-0.149,3.393-1.528,3.393h-4c-1.381,0-3.472-2.012-3.472-3.393v-4c0-1.379,2.091-1.607,3.472-1.607h4
					c1.379,0,1.528,0.229,1.528,1.607V548.607z M743,535.607c0,1.381-0.149,3.393-1.528,3.393h-4c-1.381,0-3.472-2.012-3.472-3.393
					v-4c0-1.379,2.091-1.607,3.472-1.607h4c1.379,0,1.528,0.229,1.528,1.607V535.607z M743,522.607c0,1.381-0.149,3.393-1.528,3.393
					h-4c-1.381,0-3.472-2.012-3.472-3.393v-4c0-1.379,2.091-1.607,3.472-1.607h4c1.379,0,1.528,0.229,1.528,1.607V522.607z
					 M743,509.607c0,1.381-0.149,3.393-1.528,3.393h-4c-1.381,0-3.472-2.012-3.472-3.393v-4c0-1.379,2.091-1.607,3.472-1.607h4
					c1.379,0,1.528,0.229,1.528,1.607V509.607z M743,496.607c0,1.381-0.149,3.393-1.528,3.393h-4c-1.381,0-3.472-2.012-3.472-3.393
					v-4c0-1.379,2.091-1.607,3.472-1.607h4c1.379,0,1.528,0.229,1.528,1.607V496.607z M743,483.607c0,1.381-0.149,3.393-1.528,3.393
					h-4c-1.381,0-3.472-2.012-3.472-3.393v-4c0-1.379,2.091-1.607,3.472-1.607h4c1.379,0,1.528,0.229,1.528,1.607V483.607z
					 M743,470.607c0,1.381-0.149,3.393-1.528,3.393h-4c-1.381,0-3.472-2.012-3.472-3.393v-4c0-1.379,2.091-1.607,3.472-1.607h4
					c1.379,0,1.528,0.229,1.528,1.607V470.607z M743,457.607c0,1.381-0.149,3.393-1.528,3.393h-4c-1.381,0-3.472-2.012-3.472-3.393
					v-4c0-1.379,2.091-1.607,3.472-1.607h4c1.379,0,1.528,0.229,1.528,1.607V457.607z M743,444.607c0,1.381-0.149,3.393-1.528,3.393
					h-4c-1.381,0-3.472-2.012-3.472-3.393v-4c0-1.379,2.091-1.607,3.472-1.607h4c1.379,0,1.528,0.229,1.528,1.607V444.607z
					 M743,431.607c0,1.381-0.149,3.393-1.528,3.393h-4c-1.381,0-3.472-2.012-3.472-3.393v-4c0-1.379,2.091-1.607,3.472-1.607h4
					c1.379,0,1.528,0.229,1.528,1.607V431.607z M743,419.607c0,1.381-0.149,3.393-1.528,3.393h-4c-1.381,0-3.472-2.012-3.472-3.393
					v-4c0-1.379,2.091-1.607,3.472-1.607h4c1.379,0,1.528,0.229,1.528,1.607V419.607z M757,600.607c0,1.381-0.149,3.393-1.528,3.393
					h-4c-1.381,0-3.472-2.012-3.472-3.393v-4c0-1.379,2.091-1.607,3.472-1.607h4c1.379,0,1.528,0.229,1.528,1.607V600.607z
					 M757,587.607c0,1.381-0.149,3.393-1.528,3.393h-4c-1.381,0-3.472-2.012-3.472-3.393v-4c0-1.379,2.091-1.607,3.472-1.607h4
					c1.379,0,1.528,0.229,1.528,1.607V587.607z M757,574.607c0,1.381-0.149,3.393-1.528,3.393h-4c-1.381,0-3.472-2.012-3.472-3.393
					v-4c0-1.379,2.091-1.607,3.472-1.607h4c1.379,0,1.528,0.229,1.528,1.607V574.607z M757,561.607c0,1.381-0.149,3.393-1.528,3.393
					h-4c-1.381,0-3.472-2.012-3.472-3.393v-4c0-1.379,2.091-1.607,3.472-1.607h4c1.379,0,1.528,0.229,1.528,1.607V561.607z
					 M757,548.607c0,1.381-0.149,3.393-1.528,3.393h-4c-1.381,0-3.472-2.012-3.472-3.393v-4c0-1.379,2.091-1.607,3.472-1.607h4
					c1.379,0,1.528,0.229,1.528,1.607V548.607z M757,535.607c0,1.381-0.149,3.393-1.528,3.393h-4c-1.381,0-3.472-2.012-3.472-3.393
					v-4c0-1.379,2.091-1.607,3.472-1.607h4c1.379,0,1.528,0.229,1.528,1.607V535.607z M757,522.607c0,1.381-0.149,3.393-1.528,3.393
					h-4c-1.381,0-3.472-2.012-3.472-3.393v-4c0-1.379,2.091-1.607,3.472-1.607h4c1.379,0,1.528,0.229,1.528,1.607V522.607z
					 M757,509.607c0,1.381-0.149,3.393-1.528,3.393h-4c-1.381,0-3.472-2.012-3.472-3.393v-4c0-1.379,2.091-1.607,3.472-1.607h4
					c1.379,0,1.528,0.229,1.528,1.607V509.607z M757,496.607c0,1.381-0.149,3.393-1.528,3.393h-4c-1.381,0-3.472-2.012-3.472-3.393
					v-4c0-1.379,2.091-1.607,3.472-1.607h4c1.379,0,1.528,0.229,1.528,1.607V496.607z M757,483.607c0,1.381-0.149,3.393-1.528,3.393
					h-4c-1.381,0-3.472-2.012-3.472-3.393v-4c0-1.379,2.091-1.607,3.472-1.607h4c1.379,0,1.528,0.229,1.528,1.607V483.607z
					 M757,470.607c0,1.381-0.149,3.393-1.528,3.393h-4c-1.381,0-3.472-2.012-3.472-3.393v-4c0-1.379,2.091-1.607,3.472-1.607h4
					c1.379,0,1.528,0.229,1.528,1.607V470.607z M757,457.607c0,1.381-0.149,3.393-1.528,3.393h-4c-1.381,0-3.472-2.012-3.472-3.393
					v-4c0-1.379,2.091-1.607,3.472-1.607h4c1.379,0,1.528,0.229,1.528,1.607V457.607z M757,444.607c0,1.381-0.149,3.393-1.528,3.393
					h-4c-1.381,0-3.472-2.012-3.472-3.393v-4c0-1.379,2.091-1.607,3.472-1.607h4c1.379,0,1.528,0.229,1.528,1.607V444.607z
					 M757,431.607c0,1.381-0.149,3.393-1.528,3.393h-4c-1.381,0-3.472-2.012-3.472-3.393v-4c0-1.379,2.091-1.607,3.472-1.607h4
					c1.379,0,1.528,0.229,1.528,1.607V431.607z M757,419.607c0,1.381-0.149,3.393-1.528,3.393h-4c-1.381,0-3.472-2.012-3.472-3.393
					v-4c0-1.379,2.091-1.607,3.472-1.607h4c1.379,0,1.528,0.229,1.528,1.607V419.607z M771,600.607c0,1.381-0.149,3.393-1.528,3.393
					h-4c-1.381,0-3.472-2.012-3.472-3.393v-4c0-1.379,2.091-1.607,3.472-1.607h4c1.379,0,1.528,0.229,1.528,1.607V600.607z
					 M771,587.607c0,1.381-0.149,3.393-1.528,3.393h-4c-1.381,0-3.472-2.012-3.472-3.393v-4c0-1.379,2.091-1.607,3.472-1.607h4
					c1.379,0,1.528,0.229,1.528,1.607V587.607z M771,574.607c0,1.381-0.149,3.393-1.528,3.393h-4c-1.381,0-3.472-2.012-3.472-3.393
					v-4c0-1.379,2.091-1.607,3.472-1.607h4c1.379,0,1.528,0.229,1.528,1.607V574.607z M771,561.607c0,1.381-0.149,3.393-1.528,3.393
					h-4c-1.381,0-3.472-2.012-3.472-3.393v-4c0-1.379,2.091-1.607,3.472-1.607h4c1.379,0,1.528,0.229,1.528,1.607V561.607z
					 M771,548.607c0,1.381-0.149,3.393-1.528,3.393h-4c-1.381,0-3.472-2.012-3.472-3.393v-4c0-1.379,2.091-1.607,3.472-1.607h4
					c1.379,0,1.528,0.229,1.528,1.607V548.607z M771,535.607c0,1.381-0.149,3.393-1.528,3.393h-4c-1.381,0-3.472-2.012-3.472-3.393
					v-4c0-1.379,2.091-1.607,3.472-1.607h4c1.379,0,1.528,0.229,1.528,1.607V535.607z M771,522.607c0,1.381-0.149,3.393-1.528,3.393
					h-4c-1.381,0-3.472-2.012-3.472-3.393v-4c0-1.379,2.091-1.607,3.472-1.607h4c1.379,0,1.528,0.229,1.528,1.607V522.607z
					 M771,509.607c0,1.381-0.149,3.393-1.528,3.393h-4c-1.381,0-3.472-2.012-3.472-3.393v-4c0-1.379,2.091-1.607,3.472-1.607h4
					c1.379,0,1.528,0.229,1.528,1.607V509.607z M771,496.607c0,1.381-0.149,3.393-1.528,3.393h-4c-1.381,0-3.472-2.012-3.472-3.393
					v-4c0-1.379,2.091-1.607,3.472-1.607h4c1.379,0,1.528,0.229,1.528,1.607V496.607z M771,483.607c0,1.381-0.149,3.393-1.528,3.393
					h-4c-1.381,0-3.472-2.012-3.472-3.393v-4c0-1.379,2.091-1.607,3.472-1.607h4c1.379,0,1.528,0.229,1.528,1.607V483.607z
					 M771,470.607c0,1.381-0.149,3.393-1.528,3.393h-4c-1.381,0-3.472-2.012-3.472-3.393v-4c0-1.379,2.091-1.607,3.472-1.607h4
					c1.379,0,1.528,0.229,1.528,1.607V470.607z M771,457.607c0,1.381-0.149,3.393-1.528,3.393h-4c-1.381,0-3.472-2.012-3.472-3.393
					v-4c0-1.379,2.091-1.607,3.472-1.607h4c1.379,0,1.528,0.229,1.528,1.607V457.607z M771,444.607c0,1.381-0.149,3.393-1.528,3.393
					h-4c-1.381,0-3.472-2.012-3.472-3.393v-4c0-1.379,2.091-1.607,3.472-1.607h4c1.379,0,1.528,0.229,1.528,1.607V444.607z
					 M771,431.607c0,1.381-0.149,3.393-1.528,3.393h-4c-1.381,0-3.472-2.012-3.472-3.393v-4c0-1.379,2.091-1.607,3.472-1.607h4
					c1.379,0,1.528,0.229,1.528,1.607V431.607z M771,419.607c0,1.381-0.149,3.393-1.528,3.393h-4c-1.381,0-3.472-2.012-3.472-3.393
					v-4c0-1.379,2.091-1.607,3.472-1.607h4c1.379,0,1.528,0.229,1.528,1.607V419.607z M785,600.607c0,1.381-0.149,3.393-1.528,3.393
					h-4c-1.381,0-3.472-2.012-3.472-3.393v-4c0-1.379,2.091-1.607,3.472-1.607h4c1.379,0,1.528,0.229,1.528,1.607V600.607z
					 M785,587.607c0,1.381-0.149,3.393-1.528,3.393h-4c-1.381,0-3.472-2.012-3.472-3.393v-4c0-1.379,2.091-1.607,3.472-1.607h4
					c1.379,0,1.528,0.229,1.528,1.607V587.607z M785,574.607c0,1.381-0.149,3.393-1.528,3.393h-4c-1.381,0-3.472-2.012-3.472-3.393
					v-4c0-1.379,2.091-1.607,3.472-1.607h4c1.379,0,1.528,0.229,1.528,1.607V574.607z M785,561.607c0,1.381-0.149,3.393-1.528,3.393
					h-4c-1.381,0-3.472-2.012-3.472-3.393v-4c0-1.379,2.091-1.607,3.472-1.607h4c1.379,0,1.528,0.229,1.528,1.607V561.607z
					 M785,548.607c0,1.381-0.149,3.393-1.528,3.393h-4c-1.381,0-3.472-2.012-3.472-3.393v-4c0-1.379,2.091-1.607,3.472-1.607h4
					c1.379,0,1.528,0.229,1.528,1.607V548.607z M785,535.607c0,1.381-0.149,3.393-1.528,3.393h-4c-1.381,0-3.472-2.012-3.472-3.393
					v-4c0-1.379,2.091-1.607,3.472-1.607h4c1.379,0,1.528,0.229,1.528,1.607V535.607z M785,522.607c0,1.381-0.149,3.393-1.528,3.393
					h-4c-1.381,0-3.472-2.012-3.472-3.393v-4c0-1.379,2.091-1.607,3.472-1.607h4c1.379,0,1.528,0.229,1.528,1.607V522.607z
					 M785,509.607c0,1.381-0.149,3.393-1.528,3.393h-4c-1.381,0-3.472-2.012-3.472-3.393v-4c0-1.379,2.091-1.607,3.472-1.607h4
					c1.379,0,1.528,0.229,1.528,1.607V509.607z M785,496.607c0,1.381-0.149,3.393-1.528,3.393h-4c-1.381,0-3.472-2.012-3.472-3.393
					v-4c0-1.379,2.091-1.607,3.472-1.607h4c1.379,0,1.528,0.229,1.528,1.607V496.607z M785,483.607c0,1.381-0.149,3.393-1.528,3.393
					h-4c-1.381,0-3.472-2.012-3.472-3.393v-4c0-1.379,2.091-1.607,3.472-1.607h4c1.379,0,1.528,0.229,1.528,1.607V483.607z
					 M785,470.607c0,1.381-0.149,3.393-1.528,3.393h-4c-1.381,0-3.472-2.012-3.472-3.393v-4c0-1.379,2.091-1.607,3.472-1.607h4
					c1.379,0,1.528,0.229,1.528,1.607V470.607z M785,457.607c0,1.381-0.149,3.393-1.528,3.393h-4c-1.381,0-3.472-2.012-3.472-3.393
					v-4c0-1.379,2.091-1.607,3.472-1.607h4c1.379,0,1.528,0.229,1.528,1.607V457.607z M785,444.607c0,1.381-0.149,3.393-1.528,3.393
					h-4c-1.381,0-3.472-2.012-3.472-3.393v-4c0-1.379,2.091-1.607,3.472-1.607h4c1.379,0,1.528,0.229,1.528,1.607V444.607z
					 M785,431.607c0,1.381-0.149,3.393-1.528,3.393h-4c-1.381,0-3.472-2.012-3.472-3.393v-4c0-1.379,2.091-1.607,3.472-1.607h4
					c1.379,0,1.528,0.229,1.528,1.607V431.607z M785,419.607c0,1.381-0.149,3.393-1.528,3.393h-4c-1.381,0-3.472-2.012-3.472-3.393
					v-4c0-1.379,2.091-1.607,3.472-1.607h4c1.379,0,1.528,0.229,1.528,1.607V419.607z M799,600.607c0,1.381-0.149,3.393-1.528,3.393
					h-4c-1.381,0-3.472-2.012-3.472-3.393v-4c0-1.379,2.091-1.607,3.472-1.607h4c1.379,0,1.528,0.229,1.528,1.607V600.607z
					 M799,587.607c0,1.381-0.149,3.393-1.528,3.393h-4c-1.381,0-3.472-2.012-3.472-3.393v-4c0-1.379,2.091-1.607,3.472-1.607h4
					c1.379,0,1.528,0.229,1.528,1.607V587.607z M799,574.607c0,1.381-0.149,3.393-1.528,3.393h-4c-1.381,0-3.472-2.012-3.472-3.393
					v-4c0-1.379,2.091-1.607,3.472-1.607h4c1.379,0,1.528,0.229,1.528,1.607V574.607z M799,561.607c0,1.381-0.149,3.393-1.528,3.393
					h-4c-1.381,0-3.472-2.012-3.472-3.393v-4c0-1.379,2.091-1.607,3.472-1.607h4c1.379,0,1.528,0.229,1.528,1.607V561.607z
					 M799,548.607c0,1.381-0.149,3.393-1.528,3.393h-4c-1.381,0-3.472-2.012-3.472-3.393v-4c0-1.379,2.091-1.607,3.472-1.607h4
					c1.379,0,1.528,0.229,1.528,1.607V548.607z M799,535.607c0,1.381-0.149,3.393-1.528,3.393h-4c-1.381,0-3.472-2.012-3.472-3.393
					v-4c0-1.379,2.091-1.607,3.472-1.607h4c1.379,0,1.528,0.229,1.528,1.607V535.607z M799,522.607c0,1.381-0.149,3.393-1.528,3.393
					h-4c-1.381,0-3.472-2.012-3.472-3.393v-4c0-1.379,2.091-1.607,3.472-1.607h4c1.379,0,1.528,0.229,1.528,1.607V522.607z
					 M799,509.607c0,1.381-0.149,3.393-1.528,3.393h-4c-1.381,0-3.472-2.012-3.472-3.393v-4c0-1.379,2.091-1.607,3.472-1.607h4
					c1.379,0,1.528,0.229,1.528,1.607V509.607z M799,496.607c0,1.381-0.149,3.393-1.528,3.393h-4c-1.381,0-3.472-2.012-3.472-3.393
					v-4c0-1.379,2.091-1.607,3.472-1.607h4c1.379,0,1.528,0.229,1.528,1.607V496.607z M799,483.607c0,1.381-0.149,3.393-1.528,3.393
					h-4c-1.381,0-3.472-2.012-3.472-3.393v-4c0-1.379,2.091-1.607,3.472-1.607h4c1.379,0,1.528,0.229,1.528,1.607V483.607z
					 M799,470.607c0,1.381-0.149,3.393-1.528,3.393h-4c-1.381,0-3.472-2.012-3.472-3.393v-4c0-1.379,2.091-1.607,3.472-1.607h4
					c1.379,0,1.528,0.229,1.528,1.607V470.607z M799,457.607c0,1.381-0.149,3.393-1.528,3.393h-4c-1.381,0-3.472-2.012-3.472-3.393
					v-4c0-1.379,2.091-1.607,3.472-1.607h4c1.379,0,1.528,0.229,1.528,1.607V457.607z M799,444.607c0,1.381-0.149,3.393-1.528,3.393
					h-4c-1.381,0-3.472-2.012-3.472-3.393v-4c0-1.379,2.091-1.607,3.472-1.607h4c1.379,0,1.528,0.229,1.528,1.607V444.607z
					 M799,431.607c0,1.381-0.149,3.393-1.528,3.393h-4c-1.381,0-3.472-2.012-3.472-3.393v-4c0-1.379,2.091-1.607,3.472-1.607h4
					c1.379,0,1.528,0.229,1.528,1.607V431.607z M799,419.607c0,1.381-0.149,3.393-1.528,3.393h-4c-1.381,0-3.472-2.012-3.472-3.393
					v-4c0-1.379,2.091-1.607,3.472-1.607h4c1.379,0,1.528,0.229,1.528,1.607V419.607z"/>
			</g>
		</g>
		<g>
			<g>
				<path fill-rule="evenodd" clip-rule="evenodd" fill="#87C9CC" d="M1114.563,515.061c-1.23-0.143-2.195-1.246-2.166-2.436
					c0.32-11.047-2.072-22.191,1.438-33.125c1.695-5.258,3.316-11.258,1.371-16.139c-1.594-3.971-7.564-2.025-11.59-2.74
					c-0.926-0.168-1.834-0.406-2.756-0.531c-15.018-2.168-30.219-3.537-45.193-1.146c-6.979,1.105-12.949,0.854-19.592-1.244
					c-6.377-2.027-8.223-5.342-7.857-11.678c0.588-9.955,2.068-20.303,0.125-29.867c-4.559-22.414-14.947-41.53-36.734-52.381
					c-5.412-2.686-13.941-3.217-11.383-13.074c0.043-0.168-0.168-0.434-0.307-0.615c-5.049-6.614-4.166-14.893-5.943-22.373
					c-2.209-9.258-2.32-18.976-5.496-28.177c-1.117,1.762-1.803,3.468-2.098,5.243c-1.83,11.41-1.971,23.018-5.41,34.301
					c-1.355,4.434-3.637,9.299-3.428,13.676c0.268,5.691-2.18,7.063-6.486,8.74c-20.725,8.139-34.945,22.541-41.656,44.061
					c-4.559,14.684-5.16,29.715-4.84,44.914c0.168,7.957-4.152,11.691-11.828,9.803c-20.947-5.16-41.656-0.867-62.451,0.953
					c-3.551,0.307-4.641,1.941-4.697,5.996c-0.098,6.686,3.287,12.461,3.621,18.836c0.393,7.439,0.098,14.908,0.098,22.375
					c0,3.326,0.182,6.668-4.545,7.158c-2.531,0.266-3.299,2.643-1.719,4.029c4.293,3.746,3.049,8.527,3.076,13.031
					c0.125,14.445,0.014,28.891,0.07,43.348c0.041,13.998-1.217,12.738,12.668,13.061c6,0.127,12.139-1.594,17.871,3.244
					c2.727,2.293,8.781,2.307,11.914-0.406c3.551-3.074,7.104-2.852,10.977-2.908c3.957-0.07,7.943-0.279,11.871,0.027
					c5.971,0.477,8.334-1.762,8.182-7.971c-0.35-13.508-0.043-27.029-0.141-40.551c-0.027-5.117-0.125-10.164,3.551-14.193
					c0,21.031,0.154,42.23-0.096,63.414c-0.057,5.678,1.705,7.9,7.563,7.734c12.572-0.336,25.158-0.154,37.742-0.113
					c2.475,0.014,4.922-0.322,6.795,2.391c2.924,4.223,27.438,6.266,31.311,2.895c0.334-0.293,0.727-0.699,0.811-1.117
					c0.992-4.908,4.852-4.18,8.277-4.195c12.125-0.014,24.246-0.182,36.357,0.141c5.859,0.152,7.705-2.168,7.635-7.803
					c-0.225-17.242-0.125-34.498-0.014-51.738c0.014-2.336-1.105-5.174,1.734-6.979c2.654,1.637,1.635,4.221,1.662,6.35
					c0.113,10.486,0.057,20.975,0.057,31.461c0,20.527,0,20.262,20.75,20.373c6.715,0.045,8.266-2.502,8.125-8.598
					c-0.307-14.67-0.111-29.365-0.055-44.049c0-2.461-0.49-5.16,2.852-6.348c7.201-2.559,11.607,0.404,11.676,8.053
					c0.016,2.098-0.182,4.209,0.029,6.293c0.559,5.314-1.342,8.055-7.033,7.287c-5.762-0.783-7.188,2.277-7.033,7.422
					c0.236,8.391-0.059,16.781,0.123,25.172c0.057,2.824-1.424,6.852,2.225,8.039c3.846,1.246,8.572,2.197,11.887-1.076
					c2.404-2.361,4.865-2.32,7.621-2.334c3.957-0.027,7.955-0.35,11.871,0.07c6.865,0.727,9.451-1.58,9.256-8.879
					c-0.488-17.229-0.154-34.484-0.111-51.725c0-2.07-0.67-4.559,0.992-6.041C1120.114,518.834,1122.577,516.023,1114.563,515.061z
					 M896.886,465.082c0.014,0.377,0.041,0.77,0.07,1.146h-66.771c0-0.377,0-0.77-0.014-1.146H896.886z M826.661,519.002
					c0-0.334,0.014-0.672,0.014-0.994h68.883c0.014,0.322,0.027,0.66,0.041,0.994H826.661z M837.233,510.023
					c-0.027,1.652-0.225,3.512-2.518,3.371c-1.734-0.113-2.141-1.652-2.141-3.09c-0.055-8.824-0.068-17.662-0.027-26.484
					c0.014-1.65,0.322-3.553,2.572-3.355c2.182,0.193,2.141,2.139,2.154,3.76c0.057,4.182,0.014,8.363,0.014,12.545h-0.041
					C837.247,501.188,837.288,505.607,837.233,510.023z M845.218,496.77c0-4.182-0.027-8.35,0.027-12.531
					c0.014-1.607-0.043-3.564,2.111-3.762c2.279-0.195,2.502,1.736,2.502,3.371c0.045,8.809,0.029,17.619-0.012,26.43
					c-0.016,1.426-0.35,2.977-2.098,3.088c-2.309,0.143-2.434-1.762-2.463-3.383c-0.068-4.404-0.027-8.809-0.027-13.213H845.218z
					 M852.419,482.59c5.342-5.789,12.18-1.65,18.275-2.602c3.762-0.586,4.545,2.252,4.531,5.41c-0.027,9.049,0,18.096,0,27.143
					h-0.713c0-6.697-0.182-13.396,0.055-20.078c0.168-4.883-1.914-6.393-6.613-6.518c-14.879-0.434-14.865-0.588-14.865,14.402
					c0,3.941,0,7.9-0.867,11.857c0-9.424,0-18.834,0.016-28.244C852.237,483.498,852.167,482.869,852.419,482.59z M859.187,495.455
					c0.111-2.672,1.553-4.279,4.293-4.518c2.908-0.252,5.398,0.865,5.65,3.818c0.488,5.732,0.615,11.521,0.404,17.27
					c-0.125,3.564-3.271,3.188-5.816,3.242c-2.686,0.057-4.531-0.906-4.602-3.887c-0.055-2.768-0.014-5.537-0.014-8.307h0.057
					C859.159,500.529,859.075,497.984,859.187,495.455z M837.302,582.15c0,2.238-0.377,4.404-3.355,4.182
					c-2.516-0.182-2.697-2.209-2.713-4.125c-0.027-7.93-0.014-15.844-0.014-23.771c0-7.453-0.014-14.906,0.014-22.359
					c0.016-2.223,0.379-4.406,3.355-4.184c2.518,0.197,2.713,2.225,2.713,4.141C837.331,551.416,837.331,566.785,837.302,582.15z
					 M847.218,581.422c-0.027,1.959,0.404,4.742-2.713,4.629c-2.461-0.098-2.406-2.516-2.406-4.32
					c-0.055-15.088-0.055-30.176,0-45.264c0.014-1.805-0.055-4.225,2.447-4.277c3.104-0.072,2.645,2.711,2.672,4.668
					c0.098,7.426,0.041,14.85,0.041,22.277C847.259,566.574,847.315,573.998,847.218,581.422z M867.032,572.699
					c-0.016,0-0.016,0-0.029,0c0,4.432,0.014,8.863,0,13.283c0,3.02-1.174,4.781-4.529,4.865c-3.637,0.098-5.035-1.689-5.035-5.09
					c0.014-8.852,0.014-17.703,0-26.555c-0.014-3.328,1.189-5.258,4.908-5.229c3.832,0.027,4.699,2.252,4.686,5.439
					C867.017,563.846,867.032,568.279,867.032,572.699z M869.632,535.418c-0.098,1.861-0.014,3.721-0.014,5.578
					c0.027,10.545-1.092,11.775-9.09,10.74c-2.838-0.377-4.223-1.578-4.236-4.391c-0.027-3.943,0.098-7.9-0.07-11.844
					c-0.209-4.895,2.658-5.705,6.67-5.691C866.851,529.811,869.897,530.482,869.632,535.418z M877.868,586.316
					c-3.496,0.184-3.285-2.627-3.301-4.936c-0.027-3.719-0.027-7.453-0.027-11.172v-22.373c0-3.721,0.014-7.455,0.027-11.174
					c0.016-2.068-0.152-4.6,2.799-4.756c3.494-0.166,3.299,2.645,3.299,4.939c0.041,14.92,0.041,29.826,0,44.73
					C880.665,583.645,880.819,586.178,877.868,586.316z M890.579,581.508c-0.016,1.787,0.279,4.307-2.139,4.516
					c-3.146,0.266-2.797-2.572-2.797-4.545c-0.07-14.904-0.057-29.824-0.016-44.73c0.016-1.805-0.279-4.322,2.141-4.531
					c3.146-0.266,2.77,2.572,2.795,4.545c0.086,7.689,0.045,15.381,0.045,23.072C890.608,567.049,890.636,574.277,890.579,581.508z
					 M899.29,526.189c-23.311,0.797-46.605,0.488-69.902,0.152v-2.348h69.902V526.189z M902.843,474.145
					c-0.266,4.305-3.748,3.369-6.363,3.385c-10.486,0.082-20.959,0.025-31.447,0.025c-10.25,0-20.5,0.027-30.75-0.025
					c-2.488-0.016-5.51,0.475-5.719-3.357c-0.238-4.279,2.922-4.057,5.746-4.057c20.738-0.084,41.475-0.152,62.213-0.166
					C899.444,469.949,903.136,469.377,902.843,474.145z M1035.95,479.652c0.055,10.238,0.041,20.473,0,30.693
					c0,1.441-0.477,2.951-2.223,3.02c-2.281,0.098-2.504-1.719-2.531-3.383c-0.059-5.117-0.016-10.236-0.016-15.354h-0.098
					c0-4.881-0.027-9.775,0.027-14.654c0.014-1.621,0.086-3.539,2.252-3.705C1035.614,476.115,1035.937,478.018,1035.95,479.652z
					 M1030.692,458.469c-0.154,0.35-0.309,0.699-0.461,1.049H912.337c-0.125-0.336-0.252-0.674-0.377-1.008
					c6.447-2.447,12.836-5.035,19.354-7.299c9.521-3.314,19.563-5.23,28.344-10.459c9.004-5.383,17.715-2.713,25.699,1.691
					c4.168,2.293,8.322,3.176,12.656,4.488C1009.06,450.287,1019.813,454.553,1030.692,458.469z M979.177,365.927
					c4.545,10.124,6.225,20.835,6.393,31.853c0.041,2.351-0.658,4.154-3.441,4.238c-2.531,0.084-4.014-1.105-4.027-3.691
					c-0.098-12.18-1.537-24.247-4.082-36.385C977.569,361.969,978.38,364.123,979.177,365.927z M963.335,338.659
					c4.893-8.278,2.529-17.801,5.201-26.47c2.951,8.865,0.938,18.598,5.426,27.154c0.965,1.832,1.258,4.908-1.344,6.209
					c-2.293,1.146-5.172,1.244-7.381-0.125C962.831,343.945,961.95,340.994,963.335,338.659z M957.784,368.094
					c1.033-2.531,1.787-5.313,5.746-6.963c-1.092,13.004-2.125,25.225-3.16,37.46c-0.225,2.63-1.805,3.622-4.252,3.481
					c-2.391-0.125-3.299-1.579-2.992-3.76C954.567,388.216,953.841,377.799,957.784,368.094z M946.665,368.346
					c-5.857,9.887-8.234,20.723-9.857,31.813c-0.252,1.762,0.057,4.195-2.531,4.223c-2.727,0.027-2.531-2.447-2.277-4.168
					C933.704,388.132,936.71,376.596,946.665,368.346z M909.638,415.666c1.035-5.65,2.602-11.16,5.762-16.152
					c-0.363,3.176-0.908,6.35-1.035,9.523c-0.07,1.943-0.391,4.602,2.783,4.602c2.531-0.016,4.391-1.078,4.895-3.957
					c1.174-6.629,1.943-13.368,4.727-19.62c1.9-4.236,4.027-8.362,7.551-11.829c-1.846,7.635-4.811,15.018-4.881,22.988
					c-0.014,2.586-1.93,6.182,2.363,6.713c4.027,0.49,7.355-1.244,7.816-5.986c0.588-6.027,1.357-12.025,3.355-17.786
					c2.729-7.9,6.027-15.466,12.922-20.919c-3.482,11.466-5.104,23.086-5.188,34.931c-0.029,3.146-0.77,7.06,4.277,7.118
					c4.266,0.041,7.816-0.98,8.182-6.336c0.656-9.746,1.412-19.479,2.348-29.197c0.309-3.104,0.057-8.375,2.91-8.475
					c3.943-0.139,3.9,5.189,4.334,8.35c1.314,9.662,2.391,19.38,2.881,29.127c0.35,6.852,5.258,6.531,9.34,6.377
					c4.908-0.182,3.566-4.35,3.344-7.523c-0.813-11.383-1.678-22.751-7.412-34.189c4.182,1.342,6.25,3.705,8.012,6.25
					c6.908,9.9,9.467,21.102,9.523,33c0.014,3.496-1.566,5.217-5.104,4.979c-5.789-0.377-11.592-1.09-17.381-1.104
					c-21.703-0.014-43.363,0.461-62.98,11.703C909.751,420.111,909.19,418.168,909.638,415.666z M907.835,429.383
					c0.014-3.816,2.684-5.734,5.439-7.564c12.682-8.404,27.184-10.518,41.865-11.76c5.09-0.434,10.236-0.07,15.369-0.07
					c14.975-0.588,29.783,0.672,44.27,4.545c10.697,2.867,11.342,3.971,11.355,14.92c0,6.055,0.098,12.123-0.07,18.178
					c-0.057,1.762,1.188,4.727-2.238,4.742c-2.809,0.014-4.041-2.072-4.082-4.699c-0.111-5.133-0.057-10.264-0.195-15.383
					c-0.07-3.104-0.182-6.348-4.672-6.209c-4.068,0.141-4.025,3.119-4.098,5.973c-0.055,3.033,0.211,6.096-0.109,9.088
					c-0.225,2.098,1.691,6.014-2.672,5.578c-3.244-0.32-7.326-0.963-7.508-5.732c-0.182-4.656-0.227-9.326-0.127-13.982
					c0.098-4.545-2.518-5.328-6.293-5.314c-3.678,0.016-5.816,1.244-5.648,5.23c0.055,1.398,0.266,2.881-0.111,4.18
					c-0.756,2.617,2.418,7.664-2.84,7.426c-4.488-0.209-9.998-1.271-8.99-8.641c0.502-3.707,1.174-8.111-5.271-8.264
					c-7.93-0.184-9.455,1.021-8.992,9.047c0.266,4.559-5.83,9.914-10.307,9.201c-2.014-0.322-1.916-1.748-1.957-3.092
					c-0.084-2.797-0.125-5.592-0.057-8.389c0.113-3.846-1.104-6.32-5.508-6.223c-4.084,0.082-5.035,2.461-4.951,5.971
					c0.084,3.957,0.016,7.928-0.027,11.887c-0.014,2.098,0.166,4.404-2.211,5.426c-2.727,1.174-5.648,3.703-8.416,2.32
					c-2.42-1.23-0.896-4.686-1.078-7.133c-0.209-3.02-0.068-6.055-0.152-9.088c-0.07-2.393-1.035-4.041-3.748-4
					s-3.621,1.832-3.678,4.139c-0.127,5.131-0.014,10.264-0.182,15.381c-0.141,4.602-5.607,8.992-9.928,8.35
					c-2.406-0.363-2.195-2.125-2.211-3.664C907.765,444.303,907.821,436.836,907.835,429.383z M913.876,464.564
					c37.74-0.055,75.482-0.055,113.223-0.014c3.299,0,7.537-1.076,7.342,4.656c-0.182,5.244-4.168,4.098-7.189,4.111
					c-18.877,0.084-37.74,0.041-56.617,0.041v0.043c-18.865,0-37.742,0.043-56.604-0.027c-3.301-0.016-7.566,0.979-7.357-4.713
					C906.856,463.447,910.841,464.564,913.876,464.564z M1020.47,480.17c0,9.76-0.014,19.521-0.027,29.268
					c0,2.293-0.533,4.18-3.342,4.336c-3.092,0.166-4.055-1.596-4.041-4.336c0.014-4.879,0-9.76,0-14.627
					c0.014-4.881,0.014-9.762,0-14.641c-0.014-2.74,0.979-4.502,4.055-4.322C1019.909,476.004,1020.485,477.877,1020.47,480.17z
					 M928.319,480.465c0.027,9.717,0.027,19.436-0.014,29.154c-0.014,1.943-0.391,3.859-2.852,4.027
					c-2.924,0.182-3.328-1.904-3.344-4.152c-0.027-4.869-0.014-9.719-0.014-14.586h-0.082c0-4.852-0.014-9.719,0.012-14.57
					c0.016-2.209,0.324-4.418,3.189-4.363C928.097,476.018,928.319,478.311,928.319,480.465z M905.388,479.779
					c0.014-1.623,0.182-3.553,2.434-3.51c2.182,0.027,2.432,1.914,2.447,3.551c0.084,5.117,0.027,10.236,0.027,15.354h-0.098
					c0,4.895,0.041,9.787-0.029,14.668c-0.014,1.637-0.223,3.537-2.432,3.523c-2.238-0.012-2.363-1.928-2.377-3.563
					C905.331,499.791,905.331,489.791,905.388,479.779z M915.651,563.344c-0.014,8.838,0.014,17.676-0.027,26.498
					c-0.016,2.336,0.098,5.049-3.357,4.895c-2.852-0.127-3.049-2.49-3.049-4.615c-0.041-18.361-0.041-36.719,0-55.08
					c0-2.152,0.281-4.488,3.119-4.559c3.439-0.07,3.271,2.67,3.287,4.979C915.665,544.76,915.651,554.059,915.651,563.344z
					 M928.347,589.143c0,2.838,0.086,5.873-4.109,5.748c-3.762-0.127-3.664-2.924-3.664-5.512c-0.027-17.869-0.027-35.754,0-53.639
					c0-2.615,0.027-5.357,3.762-5.41c4.223-0.059,4,3.061,4.012,5.855c0.043,9.064,0.016,18.109,0.016,27.172
					C928.362,571.955,928.39,580.543,928.347,589.143z M933.845,595.309c-2.895-3.928-2.295-6.486-2.295-8.795
					c-0.068-16.557-0.236-33.098,0.057-49.643c0.125-6.402-1.594-9.354-8.627-9.018c-18.684,0.895-16.893-3.355-16.963,17.311
					c-0.057,15.605-0.014,31.211-0.014,46.816c-0.238-0.014-0.461-0.014-0.699-0.014c0-21.66,0.127-43.32-0.098-64.98
					c-0.057-5.396,2.152-6.615,7.074-6.684c21.564-0.295,21.564-0.422,21.564,20.764V595.309z M934.194,513.508
					c-2.545-0.238-2.574-2.393-2.588-4.225c-0.07-8.109-0.029-16.234-0.029-25.072c8.824,2.854,10.125,2.336,12.404-5.914
					c0.727-2.645,2.195-2.615,4.041-2.629c15.578-0.016,31.154-0.016,46.732,0.014c1.566,0,2.992-0.084,3.816,2.068
					c3.51,9.09,3.623,9.049,12.098,6.936c0,7.986,0.041,15.871-0.014,23.76c-0.016,2.264,0.404,4.992-2.994,5.299
					c-2.949,0.281-3.887-1.902-4.727-4.211c-4.613-12.834-13.367-21.002-26.945-23.547c-15.535-2.908-30.609,5.273-36.805,19.9
					c-0.629,1.496-1.063,3.061-1.705,4.559C936.849,511.939,936.222,513.703,934.194,513.508z M970.563,516.904
					c-4.629,0.016-9.256,0.082-13.885,0.082c-3.021,0-6.055-0.025-9.076-0.125c-6.865-0.209-8.613-3.201-6.055-9.521
					c5.049-12.402,15.996-19.535,29.463-19.213c12.768,0.307,24.359,8.67,28.693,20.707c1.986,5.482,0.559,7.832-5.48,8.014
					c-3.133,0.1-6.25,0.125-9.383,0.125C980.085,516.973,975.317,516.904,970.563,516.904z M975.499,595.168
					c-16.457-0.391-14.473,1.748-14.611-14.543c-0.057-7.215,0.125-14.43-0.043-21.631c-0.098-4.586,1.484-6.852,6.42-6.824
					c18.668,0.084,15.17-1.02,15.506,14.291c0.057,2.322,0.014,4.656,0.014,6.979c-0.014,4.895-0.307,9.803,0.07,14.654
					C983.288,593.77,980.8,595.293,975.499,595.168z M1005.144,589.297c0.043,4.809-2.182,5.83-6.404,5.871
					c-4.516,0.043-6.906-1.02-6.822-6.193c0.236-14.207-0.098-28.416,0.166-42.607c0.086-5.201-0.67-9.02-6.543-10.391
					c-1.859-0.432-4.545-2.053-4.865-3.564c-1.525-7.244-7.51-4.715-11.746-5.889c-1.707-0.473-2.531,0.672-3.049,2.127
					c-1.65,4.613-5.119,7.131-9.775,7.971c-4.697,0.852-5.607,3.803-5.551,8.068c0.182,13.73,0.084,27.477,0.057,41.209
					c-0.016,4.529,1.258,9.283-6.461,9.383c-8.139,0.082-6.838-4.979-6.865-9.748c-0.029-8.852,0-17.701,0-26.551
					c0-9.775,0.152-19.564-0.057-29.338c-0.113-4.826,1.707-6.518,6.557-6.477c18.391,0.197,36.791,0.184,55.18,0.016
					c4.488-0.043,6.223,1.467,6.18,6.039C1004.989,549.246,1004.976,569.271,1005.144,589.297z M1020.835,589.422
					c0,2.613-0.1,5.33-3.777,5.469c-4.236,0.137-4.068-2.91-4.068-5.762c-0.029-8.824-0.016-17.648-0.016-26.486
					c0-8.822-0.014-17.66,0.016-26.482c0.014-2.811-0.252-5.916,3.998-5.83c3.664,0.082,3.848,2.766,3.848,5.41
					C1020.862,553.639,1020.862,571.521,1020.835,589.422z M1033.083,589.688c0,2.307,0.209,5.117-3.201,5.049
					c-3.301-0.07-3.217-2.867-3.23-5.162c-0.043-17.896-0.043-35.797,0-53.68c0.014-2.254-0.281-5.162,2.992-5.357
					c3.971-0.236,3.412,3.037,3.439,5.467c0.068,8.838,0.027,17.662,0.027,26.5C1033.11,571.566,1033.124,580.625,1033.083,589.688z
					 M1036.259,591.91c-0.309,0.084-0.617,0.184-0.924,0.281c0-18.6-0.182-37.197,0.098-55.793c0.098-6.127-1.496-8.824-8.195-8.518
					c-18.305,0.813-16.387-3.201-16.473,16.947c-0.068,13.971,0.029,27.926-0.068,41.895c-0.014,2.42,0.881,5.09-1.26,7.453
					c-2.865-0.936-1.943-3.383-1.943-5.16c-0.084-20.707,0.055-41.418-0.125-62.141c-0.043-4.783,1.51-6.811,6.432-6.545
					c5.328,0.279,10.711,0.279,16.053,0.014c4.951-0.252,6.475,2,6.447,6.656C1036.187,548.633,1036.259,570.264,1036.259,591.91z
					 M1079.382,590.904c-3.637-0.057-4.922-1.732-4.895-5.16c0.07-8.852,0.113-17.689-0.014-26.525
					c-0.055-3.943,1.678-5.355,5.494-5.287c3.65,0.057,4.965,1.748,4.895,5.16c-0.096,4.42-0.027,8.852-0.027,13.271
					c0,4.418-0.098,8.836,0.041,13.254C1084.989,589.547,1083.214,590.975,1079.382,590.904z M1044.493,464.984h67.609
					c-0.014,0.391-0.014,0.77-0.014,1.16h-67.596V464.984z M1039.698,473.639c0.027-4.291,3.451-3.676,6.109-3.676
					c20.414,0,40.846,0.068,61.26,0.152c2.52,0.014,5.455-0.322,5.58,3.496c0.154,4.293-3.061,3.918-5.83,3.93
					c-10.209,0.027-20.416,0.014-30.625,0.014c-9.982,0-19.953,0.041-29.938-0.025
					C1043.403,477.514,1039.655,478.42,1039.698,473.639z M1081.899,485.945c-15.088-0.447-15.088-0.588-15.088,14.166
					c0,4.152,0,8.307-0.686,12.459c0-9.061,0.068-18.123-0.043-27.172c-0.041-3.719,1.246-5.801,5.23-5.535
					c0.461,0.027,0.938-0.027,1.398-0.014c19.479,0.238,16.137-2.42,16.459,15.982c0.096,5.564,0.014,11.129,0.014,16.695h-0.729
					c0-6.684-0.182-13.383,0.057-20.064C1088.681,487.594,1086.597,486.07,1081.899,485.945z M1071.69,504.068
					c-0.068,0-0.139,0-0.209-0.016c0.252-2.99,0.195-6.041,0.824-8.963c0.588-2.727,2.602-4.334,5.621-4.139
					c3.244,0.195,4.266,2.391,4.447,5.201c0.238,3.691,0.379,7.398,0.615,11.092c0.225,3.535,2.068,7.619-4.166,8.107
					c-5.51,0.434-7.818-1.607-7.146-7.104C1071.845,506.879,1071.69,505.465,1071.69,504.068z M1059.19,496.279
					c0-4.18-0.043-8.35,0.014-12.529c0.027-1.676,0.336-3.496,2.586-3.273c1.707,0.154,2,1.75,2.014,3.174
					c0.027,8.813,0.043,17.621,0,26.43c-0.014,1.678-0.322,3.51-2.586,3.285c-1.721-0.152-1.973-1.746-1.986-3.174
					c-0.027-4.641,0-9.285,0-13.912H1059.19z M1045.179,484.254c0.027-1.609-0.027-3.58,2.139-3.777
					c2.266-0.209,2.49,1.721,2.49,3.371c0.027,8.809,0,17.619-0.043,26.43c-0.014,1.426-0.322,2.977-2.07,3.088
					c-2.291,0.143-2.459-1.762-2.488-3.383c-0.07-4.404-0.027-8.809-0.027-13.213
					C1045.163,492.588,1045.122,488.42,1045.179,484.254z M1047.583,585.688c-0.559-0.014-1.131-0.014-1.691-0.025v-54.494
					c0.561,0.039,1.133,0.084,1.691,0.125V585.688z M1056.854,581.494c-0.014,2.055,0.238,4.6-2.727,4.822
					c-3.496,0.252-3.371-2.531-3.371-4.852c-0.041-14.906-0.041-29.811,0-44.732c0.016-2.041-0.236-4.586,2.727-4.811
					c3.512-0.266,3.357,2.531,3.371,4.854c0.057,7.453,0.014,14.906,0.014,22.359S1056.911,574.041,1056.854,581.494z
					 M1063.972,586.023c-2.432-0.209-2.139-2.713-2.154-4.516c-0.041-14.906-0.055-29.826,0.016-44.732
					c0.014-1.973-0.365-4.811,2.783-4.559c2.432,0.209,2.139,2.711,2.152,4.516c0.029,3.326,0.029,6.656,0.029,9.998
					c0,4.363-0.016,8.711-0.016,13.076c0.016,3.844,0.029,7.689,0.029,11.549c0,3.371-0.014,6.74-0.057,10.109
					C1066.728,583.438,1067.118,586.275,1063.972,586.023z M1090.946,585.688c-0.559,0-1.133-0.014-1.693-0.014v-54.506
					c0.561,0.039,1.135,0.084,1.693,0.111V585.688z M1097.505,586.303c-3.496,0.266-3.398-2.502-3.398-4.838
					c-0.043-14.906-0.043-29.811,0-44.717c0.014-2.043-0.252-4.602,2.713-4.826c3.51-0.266,3.371,2.518,3.385,4.84
					c0.055,7.453,0.014,14.906,0.014,22.359c0.014,7.453,0.041,14.904-0.014,22.357
					C1100.19,583.521,1100.454,586.08,1097.505,586.303z M1107.362,586.023c-2.461-0.168-2.182-2.67-2.195-4.461
					c-0.027-3.328-0.027-6.656-0.027-9.996c0-4.365,0.016-8.713,0.016-13.076c-0.016-3.861-0.029-7.705-0.029-11.564
					c0-3.369,0.014-6.738,0.055-10.109c0.027-1.957-0.404-4.811,2.74-4.6c2.463,0.168,2.182,2.672,2.195,4.459
					c0.043,14.92,0.057,29.84-0.014,44.746C1110.103,583.381,1110.509,586.234,1107.362,586.023z M1041.894,526.385
					c0-0.824-0.014-1.648-0.014-2.475h69.873c0.014,0.74,0.014,1.482,0.014,2.225
					C1088.485,527.041,1065.188,526.596,1041.894,526.385z M1047.011,519.029c0-0.25,0-0.504-0.014-0.756h67.818
					c0.016,0.252,0.016,0.506,0.016,0.756H1047.011z"/>
			</g>
		</g>
		<g>
			<g>
				<path fill-rule="evenodd" clip-rule="evenodd" fill="#87C9CC" d="M700.231,598.549c-1.17-0.75-1.23-1.9-1.25-3.07
					c-0.08-6.811-1.131-13.551-1.111-20.391c0.09-39.82-0.789-79.66,0.1-119.461c0.551-24.529-3.328-48.75-3.029-73.189
					c0.09-7.16-0.141-14.33,0.041-21.49c0.359-13.879-0.631-27.609-4.031-41.119c-0.27-1.07-0.039-2.43-2.16-2.76
					c-1.75,8.549-4.35,16.92-4.359,25.83c-0.02,11.199,1.27,9.92-9.75,10c-6.16,0.049-12.33,0.01-18.49,0.01
					c-11.16,0-11.02,0-11.391-10.881c-0.279-8.539-2.619-16.719-5.09-24.969c-2.309,6.729-4.449,13.43-4.549,20.319
					c-0.24,16.319,0.119,32.649,0.199,48.97c0.041,6.67-0.049,13.33,0.01,20c0.031,3.051-2.309,5.109-4.189,3.869
					c-2.52-1.639-5.75-2.25-7.641-5.068c-6.51-9.67-13.229-19.211-19.859-28.801c-1.07-1.55-2.131-3.07-0.23-4.82
					c1.361-1.26,1.361-2.369-0.299-3.64c-2.461-1.89-4.66-1.159-6.781,0.28c-1.869,1.29-0.91,2.58,0.441,3.57
					c1.689,1.229,1.139,2.539,0.27,3.89c-6.381,9.96-12.801,19.899-19.141,29.88c-1.91,3-5.561,3.539-8.189,4.699
					c-3.189,1.41-2.971-2.889-3.01-5.199c-0.311-21.48,0.609-42.97-0.781-64.439c-0.52-7.99-2.309-15.69-4.469-23.76
					c-1.791,1.539-1.82,2.909-2.131,4.189c-2.141,8.939-3.67,17.939-3.01,27.18c0.199,2.91-0.471,4.79-4.01,4.76
					c-10.82-0.119-21.66-0.08-32.49-0.02c-2.709,0.01-3.98-1.07-3.891-3.859c0.102-3.33,0.17-6.681-0.039-10
					c-0.461-7.451-2.221-14.65-4.561-21.791c-4.52,10.76-4.9,22.1-5.799,33.291c-1.762,21.67,3.209,43.67-3.191,65.129
					c-1.059,34.881,1.18,69.76-1.549,104.689c-1.871,24.01-0.34,48.291-0.381,72.451c-0.01,1.939,0.57,4.08-1.1,5.689
					c-3.48,3.35-2.41,7.6-1.279,11.121c0.949,2.939,4.699,1.318,7.219,1.648c0.98,0.121,2,0.031,2.99,0.012
					c11.76-0.182,10.641,1.689,10.66-11.201c0.02-9.779-3.24-19.311-2.08-29.17c0.189-1.629-0.34-3.5,0.91-4.801
					c4.391-4.52,8.061-9.809,13.721-12.979c1.6-0.9,3.139-1.861,5.129-1.631c7.49,0.83,14.74,8.711,14.76,16.1
					c0,2.16,0.131,4.34-0.02,6.49c-0.67,9.191,0.93,18.361-1.67,27.631c-2.311,8.25-0.5,9.65,7.99,9.529
					c6.189-0.08,12.25,0.65,18.35,1.66c14.871,2.461,29.871,2.551,44.721,0.27c7.449-1.139,14.799-2.039,22.32-1.92
					c7.189,0.111,10.5-4.289,7.039-10.67c-2.301-4.23-1.99-8.199-2.119-12.389c-0.141-4.99,0.539-10.07-0.15-14.98
					c-1.48-10.52,4.879-15.871,12.539-20.561c1.08-0.66,2.48-1.15,3.74-1.15c5.311,0.01,17.359,9.24,17.871,14.451
					c0.648,6.6,1.58,13.67-0.102,19.859c-1.949,7.189-0.92,14.141-1.479,21.16c-0.23,2.91,1.148,4.32,4.109,4.289
					c4.66-0.049,9.33,0,13.99-0.02c1.73,0,3.779-0.199,3.84-2.289C702.45,605.398,704.501,601.268,700.231,598.549z
					 M564.341,534.367c0.699,1.111,1.01,1.961,0.17,3.121c-3.41,4.729-3.42,9.529-0.061,14.279c0.67,0.961,0.691,1.68,0.041,2.66
					c-3.371,5.08-3.32,10.221,0.02,15.291c0.631,0.949,0.869,1.889,0.109,2.709c-4.299,4.66-1.559,9.891-1.99,15.25
					c-11.959,0.42-9.898,0.471-9.568-9.801c0.619-19.26,0.859-38.51,0.84-57.76c-0.01-5.02,5.369-7.859,9.85-5.279
					c2.01,1.16,1.891,2.84,0.66,4.641C561.011,524.408,561.251,529.418,564.341,534.367z M558.97,590.328
					c3.4-0.01,6.461-0.641,6.48,4.209c0.031,5.371-3.57,4.131-6.52,4.201c-2.93,0.08-6.07,0.77-6.061-4.15
					C552.87,589.277,556.411,590.479,558.97,590.328z M556.54,512.328c-2.639-0.801-1.52-3.73-1.539-5.74
					c-0.121-12.82-0.1-25.65-0.131-38.471c-0.02-7.809-0.01-7.809,9.43-7.73c-2.699,0.73-3.1,2.172-2.859,3.672
					c0.85,5.369-2.141,11.148,1.6,16.318c0.08,0.102-1.699,2.771-1.68,4.682c0.051,6.828,0.07,13.658-0.01,20.488
					c-0.029,2.67,0.301,4.971,4.24,5.611C562.181,513.617,559.12,513.107,556.54,512.328z M564.45,406.137
					c0.031,2.432-0.9,3.701-3.529,3.611c-2.52-0.08-2.961-1.6-2.961-3.641c0.021-8.789,0.031-17.58,0.01-26.379
					c0-2.211,0.881-3.41,3.23-3.4c2.361,0.01,3.24,1.25,3.23,3.439c-0.01,4.471,0,8.95,0,13.43
					C564.44,397.508,564.411,401.828,564.45,406.137z M557.97,361.138c0-2.64,0.031-5.29-0.02-7.94c-0.039-2.31,0.6-3.83,3.33-3.77
					c2.41,0.04,3.16,1.33,3.16,3.471c-0.01,5.789-0.01,11.58,0,17.369c0,2.1-0.66,3.461-3.1,3.521
					c-2.689,0.069-3.43-1.36-3.391-3.72C558.011,367.098,557.97,364.117,557.97,361.138z M560.21,413.248
					c2.941-0.02,5.221,0.189,5.16,4.15c-0.15,11.148-0.049,22.299-0.049,33.449c-0.451,0.051-0.91,0.1-1.371,0.16v-10.74
					c-0.01-7.5-0.07-14.99,0-22.48c0.031-3.1-1.5-3.959-4.34-3.969c-2.93,0-4.27,1.049-4.25,4.08
					c0.08,10.619,0.031,21.25-0.379,31.879c0-10.811,0.08-21.629-0.041-32.439C554.892,413.348,557.331,413.268,560.21,413.248z
					 M515.511,486.998h-0.029c0,7.16-0.15,14.33,0.049,21.49c0.141,4.779-2.959,4.279-6.01,4.299c-2.93,0.01-5.66,0.311-5.609-4.139
					c0.15-14.67,0.139-29.33-0.01-43.99c-0.031-3.781,1.84-4.561,4.969-4.32c2.961,0.23,6.74-1.09,6.67,4.17
					C515.431,471.998,515.511,479.498,515.511,486.998z M507.731,361.438c0.01-1.699,0.02-3.39,0.02-5.09c0-1.13,0-2.26-0.02-3.39
					c-0.031-2.899,1.58-3.79,4.18-3.479c2.77,0.33,2.289,2.109,1.92,4.06c-1.01,5.44-0.25,10.94-0.471,16.409
					c-0.07,1.92-0.109,3.791-2.789,3.761c-2.611-0.03-2.811-1.87-2.83-3.79c-0.021-1.13-0.021-2.26-0.021-3.391
					C507.72,364.828,507.731,363.138,507.731,361.438z M513.351,380.178c0.01,4.32,0,8.641,0,12.971c0,4.319,0.01,8.639,0,12.969
					c-0.01,1.73-0.119,3.42-2.471,3.561c-2.5,0.15-3.129-1.4-3.139-3.48c-0.01-8.639-0.021-17.289,0-25.93
					c0.01-1.91,0.209-3.789,2.809-3.84C513.2,376.378,513.351,378.238,513.351,380.178z M503.88,418.217
					c-0.09-4.139,1.682-5.189,5.381-4.988c3.221,0.17,6.369-0.4,6.27,4.619c-0.219,10.971-0.07,21.939-0.07,33.76
					c-1.92-2.48-1.469-4.539-1.479-6.48c-0.061-8.809-0.051-17.629-0.031-26.449c0.01-2.689-0.119-4.82-3.879-4.859
					c-3.621-0.031-4.65,1.49-4.621,4.76c0.08,9.32,0.041,18.629-0.01,27.949c-0.01,2.131,0.311,4.32-0.66,6.43
					c-1.5-0.85-0.779-2.229-0.789-3.299C503.931,439.178,504.11,428.688,503.88,418.217z M502.71,522.137
					c0-7.629,1.301-8.738,8.74-7.67c1.201,0.17,2.391,0.291,2.801,1.621c0.41,1.35,0.1,2.43-1.051,3.52
					c-3.58,3.4-3.77,10.939-0.33,14.439c1.26,1.291,1.861,2.061,0.41,3.631c-3.859,4.209-3.799,9.6,0.1,14.02
					c0.99,1.121,0.9,1.83-0.1,2.91c-3.869,4.24-3.811,10.371,0.141,15.02c1.129,1.33,0.82,2.141-0.279,3.342
					c-3.24,3.52-3.551,9.818-0.762,14.738c-11.01,0.291-9.629,0.471-9.66-9.219C502.661,559.707,502.7,540.928,502.71,522.137z
					 M513.54,609.049c-1.809-0.07-3.629-0.012-5.449-0.012c0,0,0,0.012,0,0.021c-1.49,0-2.98-0.09-4.471,0.01
					c-3.32,0.23-4.76-1.061-4.74-4.58c0.021-3.461,1.66-4.201,4.631-4.07c3.311,0.141,6.619,0.15,9.92,0.01
					c3.109-0.141,4,1.35,3.98,4.211C517.38,607.389,516.69,609.158,513.54,609.049z M516.55,594.668
					c-0.309,2.9-1.148,4.33-4.18,4.109c-1.479-0.109-2.99-0.07-4.479,0c-2.951,0.141-5.221-0.16-5.23-4.09
					c-0.01-3.699,1.82-4.619,4.99-4.389c0.83,0.059,1.66,0.01,2.49,0.01C513.142,590.457,517.171,588.777,516.55,594.668z
					 M515.88,406.277c0.221-15.479,0.141-30.959,0.031-46.439c-0.031-3.45,1.25-4.76,4.67-4.721
					c10.16,0.121,20.311,0.111,30.459,0.021c3.25-0.03,4.41,1.341,4.361,4.511c-0.121,7.989-0.041,15.979-0.041,23.969
					c0,7.66-0.061,15.311,0.031,22.971c0.039,2.859-0.83,4.32-3.98,4.25c-3.09-0.061-3.471-1.811-3.461-4.25
					c0.031-8.82-0.01-17.641,0-26.471c0-3.199-0.369-6.35-2.039-9.139c-2.031-3.4-5.02-5.391-9.08-5.011
					c-3.971,0.36-6.131,2.99-7.35,6.56c-0.861,2.551-1.141,5.181-1.131,7.871c0.051,8.649-0.17,17.31,0.08,25.959
					c0.16,5.18-3.18,4.43-6.311,4.461C518.911,410.848,515.8,411.377,515.88,406.277z M524.96,477.309
					c-0.02-3.15,1.67-3.941,4.451-3.922c2.73,0.031,3.98,1.16,3.949,3.9c-0.029,2-0.029,4-0.029,6c0,2.67,0.01,5.33,0.01,8
					c0.01,2.641-0.02,5.291-0.02,7.941c0,1.85,0.02,3.699,0.07,5.549c0.09,3.01-1.15,4.18-4.15,4.121
					c-2.871-0.051-4.311-1.07-4.291-4.111C525.021,495.627,525.011,486.467,524.96,477.309z M535.04,511.457c0,0,0-0.01,0-0.02
					c4.66,0,9.33-0.02,13.99,0.02c1.1,0.01,2.641-0.27,2.76,1.34c0.111,1.471-1.219,1.891-2.439,1.9
					c-9.65,0.031-19.311,0.02-28.971-0.01c-1.049,0-2.08-0.379-2.01-1.68c0.08-1.279,1.16-1.529,2.18-1.529
					C525.38,511.438,530.21,511.457,535.04,511.457z M549.351,491.607c0,4.48-0.061,8.961,0.029,13.439
					c0.051,2.75-1.119,3.881-3.869,3.84c-2.67-0.039-4.561-0.609-4.541-3.809c0.041-9.281,0.041-18.57-0.01-27.85
					c-0.01-3.182,1.82-3.811,4.521-3.852c2.729-0.029,3.949,1.031,3.898,3.811C549.29,481.998,549.351,486.809,549.351,491.607z
					 M550.95,507.398c0-9.98-0.17-19.961,0.07-29.92c0.109-4.441-1.59-5.781-5.859-5.762c-4.35,0.021-5.92,1.691-5.84,5.951
					c0.17,9,0.07,18,0.01,26.99c-0.01,1.719,0.459,4.15-2.41,3.949c-2.391-0.18-1.93-2.369-1.939-3.939
					c-0.051-8.66-0.111-17.33,0.01-25.99c0.049-4.041-0.01-7.34-5.65-6.939c-5.391,0.379-5.949,0.689-5.971,7.219
					c-0.02,8.5,0.021,17-0.029,25.49c0,1.951,0.359,4.35-2.711,4.32c-3.068-0.039-2.639-2.459-2.648-4.381
					c-0.041-9.5,0.049-19-0.061-28.488c-0.041-3.102,0.891-4.59,4.26-4.541c8.66,0.15,17.32,0.041,25.99,0.061
					c1.83,0.01,4.119-0.16,4.141,2.43c0.119,11.221,0.049,22.449,0.049,33.67C551.892,507.479,551.421,507.438,550.95,507.398z
					 M529.97,391.867c0.211-5.01-0.6-11.17,0.961-17.229c0.93-3.64,2.57-6.88,6.711-6.85c4.078,0.03,6.809,2.729,7.6,6.7
					c2.25,11.17,1.85,22.619,0.58,33.699c-0.621,5.41-7.9,1.67-12.07,2.52c-2.711,0.541-3.859-1.059-3.811-3.789
					C530.03,402.268,529.97,397.617,529.97,391.867z M549.38,460.068c0.041,3.26-1.77,3.77-4.449,3.77
					c-2.66,0.01-4.039-0.891-3.98-3.73c0.08-4.48,0.02-8.959,0.02-13.43c0-4.48,0.08-8.961-0.029-13.43
					c-0.08-3.031,1.301-4.111,4.201-4.111c2.859,0.012,4.279,1.012,4.238,4.061C549.29,442.158,549.29,451.107,549.38,460.068z
					 M539.411,445.607h-0.051c0,4.811,0.02,9.621-0.02,14.43c-0.01,1.641,0.141,3.611-2.301,3.611c-2.02,0-2.26-1.66-2.279-3.211
					c-0.1-10.279-0.15-20.561-0.279-30.85c-0.021-1.92,1.1-2.121,2.559-2.17c1.59-0.061,2.43,0.439,2.4,2.26
					C539.36,434.988,539.411,440.297,539.411,445.607z M532.46,433.197c-0.029,1.99-0.029,3.98-0.029,5.971
					c0,2.65,0.01,5.299,0.01,7.949c0.01,2.471-0.02,4.941-0.02,7.41c0,1.67,0.01,3.34,0.049,5.01c0.07,2.791-0.75,4.371-3.93,4.301
					c-2.809-0.051-3.83-1.311-3.82-3.951c0.031-8.949,0.031-17.898,0.012-26.84c-0.012-2.699,1.26-3.859,3.969-3.869
					C531.521,429.178,532.491,430.578,532.46,433.197z M535.22,466.197v0.061c4.66,0,9.311-0.029,13.961,0.02
					c1.32,0.01,2.939,0.031,2.84,1.93c-0.08,1.541-1.52,1.561-2.67,1.561c-9.48,0.029-18.949,0.029-28.43,0
					c-1.15,0-2.58-0.08-2.58-1.65c0-1.859,1.629-1.879,2.93-1.9C525.921,466.168,530.571,466.197,535.22,466.197z M522.501,445.158
					h-0.08c0,5.15,0.02,10.299-0.01,15.449c-0.01,1.59-0.311,3.141-2.391,3.041c-1.779-0.09-2.02-1.49-2.02-2.891
					c-0.02-10.131-0.01-20.27-0.01-30.41c0-1.74,0.689-2.881,2.629-2.869c2.451,0.01,1.871,1.799,1.871,3.219
					C522.501,435.518,522.501,440.338,522.501,445.158z M518.812,558.367c-0.32-0.109-0.631-0.219-0.941-0.33
					c0-12.469,0.041-24.949-0.029-37.43c-0.02-2.93,1.039-4.35,4.09-4.18c2.33,0.131,4.67,0.01,7,0.02
					c6.65,0.02,8.279,2.121,5.58,8.611c-3.59,8.59-7.779,16.939-11.74,25.369C521.511,553.107,520.13,555.729,518.812,558.367z
					 M524.812,556.197c-0.301-0.59-0.611-1.18-0.91-1.779c3.77-8.41,7.529-16.82,11.979-26.76
					c4.271,9.479,7.91,17.549,11.551,25.609C539.271,548.627,531.71,547.438,524.812,556.197z M551.321,526.447
					c0.139,9.131,0.029,18.27,0.029,27.4c-0.311,0.141-0.619,0.27-0.92,0.41c-4.279-9.5-8.561-18.99-12.82-28.49
					c-0.85-1.881-0.529-3.92-0.6-5.9c-0.07-2.23,0.859-3.48,3.209-3.389c0.172,0,0.33-0.021,0.5-0.021
					C553.69,516.467,551.161,515.447,551.321,526.447z M561.062,609.037c-1.48,0.07-2.98-0.029-4.461,0.031
					c-3.25,0.139-5.789-0.07-5.74-4.57c0.051-4.461,2.77-4.1,5.641-4.051c0.66,0.01,1.32,0,2.27,0
					c1.859,0.461,4.52-1.059,6.15,1.301C567.04,604.809,564.841,608.838,561.062,609.037z M696.44,583.248
					c0.051,5.07-2.99,4.609-6.221,4.561c-3.119-0.051-6.449,0.74-6.328-4.451c0.229-10.809,0.068-21.639,0.068-32.459h0.041
					c0-10.49,0.17-20.99-0.07-31.471c-0.109-4.641,2.301-5.141,5.939-5.029c3.451,0.109,6.611-0.352,6.57,4.91
					C696.261,540.617,696.251,561.928,696.44,583.248z M685.901,512.508c-2.471-0.32-1.871-2.791-1.871-4.51
					c-0.049-14.121,0.07-28.23-0.129-42.34c-0.061-4.15,1.369-5.84,5.459-5.34c1.15,0.139,2.32,0.02,4.52,0.02
					c-2.729,1.18-2.738,3.17-2.439,4.9c0.859,5.01-2.33,10.559,1.951,15.109c-2.262,1.43-2.012,3.721-2.021,5.91
					c-0.01,6.141,0.08,12.289-0.029,18.43c-0.061,2.961,0.18,5.59,4.35,6.66C691.981,513.559,688.831,512.887,685.901,512.508z
					 M690.37,349.438c2.111,0.051,2.971,1.121,2.961,3.11v8.95c0.01,1.689,0,3.38,0,5.07c0,1.289,0,2.58,0.02,3.879
					c0.029,2.23-0.91,3.351-3.26,3.341c-2.359-0.011-3.23-1.21-3.23-3.4c-0.01-5.96-0.049-11.93-0.049-17.89
					C686.8,350.117,688.2,349.398,690.37,349.438z M686.851,392.988c0-4.311,0.02-8.631-0.01-12.94c-0.01-2.37,0.83-3.79,3.48-3.72
					c2.459,0.07,3.039,1.51,3.029,3.609c-0.01,8.791-0.02,17.58,0,26.381c0.01,2.18-0.779,3.43-3.18,3.439
					c-2.33,0-3.32-1.09-3.311-3.33c0.01-4.48,0.01-8.96,0.01-13.439C686.86,392.988,686.851,392.988,686.851,392.988z
					 M689.761,413.238c3.301-0.041,5.85,0.119,5.76,4.629c-0.199,11.32-0.07,22.641-0.07,34.781c-1.869-2.23-1.459-4.211-1.469-6
					c-0.061-9.33-0.102-18.66,0-27.99c0.029-3.24-0.852-4.92-4.512-4.871c-3.51,0.051-4.129,1.84-4.109,4.74
					c0.061,9.17,0.041,18.33-0.02,27.5c-0.01,1.939,0.41,3.99-1.33,6.59c0-12.199,0.15-23.529-0.08-34.85
					C683.841,413.107,686.581,413.277,689.761,413.238z M636.97,353.628c0.021-2-0.148-4.21,2.871-4.11
					c2.67,0.09,2.561,2.08,2.561,3.93c0,5.451-0.01,10.9-0.051,16.361c-0.01,1.84,0.08,3.819-2.6,3.889
					c-2.66,0.08-2.77-1.789-2.781-3.709c-0.01-2.811-0.01-5.621-0.01-8.43C636.96,358.918,636.94,356.277,636.97,353.628z
					 M642.351,406.178c-0.01,1.74-0.16,3.41-2.51,3.5c-2.631,0.1-2.881-1.66-2.871-3.631v-13.419
					c0.012-4.31,0.012-8.62,0.012-12.931c0-1.85,0.479-3.31,2.75-3.27c2.299,0.04,2.609,1.62,2.609,3.41
					C642.351,388.617,642.351,397.398,642.351,406.178z M640.29,413.207c3.471-0.02,5.16,0.881,5.09,4.781
					c-0.199,11.27-0.068,22.539-0.068,34.25c-1.871-2.271-1.4-4.51-1.42-6.602c-0.07-9-0.092-18-0.021-27
					c0.031-3.219-0.889-4.85-4.58-4.818c-3.719,0.029-3.93,2.09-3.93,4.83c0.041,10.318,0.02,20.648,0.02,30.969
					c-0.219-0.01-0.439-0.029-0.67-0.039c0-10.49,0.131-20.99-0.049-31.471C634.581,413.848,636.761,413.217,640.29,413.207z
					 M645.321,486.607c-0.01,7.33-0.15,14.66,0.049,21.98c0.111,3.91-2.01,4.26-5.039,4.221c-3.051-0.031-5.59,0.039-5.551-4.281
					c0.15-14.65,0.141-29.311,0.01-43.969c-0.039-4.33,2.59-4.191,5.602-4.262c3.109-0.068,5.09,0.512,4.988,4.32
					C645.19,471.938,645.321,479.277,645.321,486.607z M633.71,551.117h0.26c0-10.469,0.16-20.949-0.068-31.42
					c-0.102-4.311,1.66-5.42,5.629-5.34c3.9,0.09,6.9,0.301,6.83,5.42c-0.219,14.461-0.24,28.93-0.26,43.391
					c-0.01,6.631,0.01,13.279,0.311,19.9c0.24,5.359-3.32,4.65-6.66,4.76c-3.451,0.109-6.211,0.029-6.109-4.779
					C633.87,572.408,633.71,561.758,633.71,551.117z M637.661,590.309c0.49-0.061,0.99-0.01,1.76-0.01
					c1.959,0.369,4.699-0.971,6.33,1.158c1.219,1.602,0.84,3.871,0.27,5.801c-0.48,1.609-2.051,1.461-3.369,1.49
					c-1.66,0.039-3.34-0.1-4.99,0.039c-3.711,0.33-5.83-0.41-5.801-5.01C631.892,588.598,635.261,590.627,637.661,590.309z
					 M580.96,404.357c5.461-8.369,10.83-16.799,16.17-25.229c1.91-3.021,3.641-3.61,5.91-0.271c5.701,8.4,11.5,16.74,17.352,25.041
					c2.1,2.969,1.43,3.979-2.121,3.898c-5.82-0.129-11.65-0.029-17.48-0.029c-6,0-11.99-0.07-17.99,0.02
					C579.71,407.838,579.312,406.898,580.96,404.357z M574.312,409.648h51.709c0,0.229,0.01,0.459,0.01,0.689h-51.719V409.648z
					 M571.501,413.238c9.311-0.051,18.609-0.021,27.91-0.021v0.041c9.469,0,18.939-0.02,28.41,0.02
					c1.539,0.01,3.91-0.641,4.039,1.66c0.141,2.49-2.279,1.85-3.779,1.85c-18.939,0.041-37.881,0.041-56.82-0.01
					c-1.49,0-3.92,0.65-3.791-1.84C567.601,412.648,569.96,413.248,571.501,413.238z M627.53,420.418
					c0.111,2.02-1.879,1.439-3.02,1.439c-16.939,0.061-33.881,0.051-50.82,0.01c-1.08,0-2.85,0.371-2.93-1.09
					c-0.1-2,1.881-1.439,3.029-1.449c8.631-0.07,17.271-0.041,25.91-0.041c8.301,0,16.611-0.02,24.91,0.031
					C625.69,419.318,627.45,418.967,627.53,420.418z M571.331,424.377c18.99,0.09,37.98,0.09,56.969-0.02
					c3.102-0.01,4.092,1.18,4.092,4.109c-0.051,26.32-0.061,52.65,0.01,78.971c0.01,3.23-1.16,4.67-4.391,4.33
					c-0.33-0.029-0.67,0-1,0c-11.5,0.16-11.609,0.16-12.01-11.131c-0.109-3.42-1.381-4.889-4.76-4.729
					c-2.301,0.109-4.611,0.02-7.67,0.02c1.389-1.98,2.76-1.59,3.879-1.6c7-0.051,14-0.051,21-0.041c2.66,0.01,4.531-0.65,4.461-3.9
					c-0.051-3-1.811-3.559-4.26-3.559c-17.99,0.02-35.98,0.02-53.971,0c-2.57-0.01-4.141,0.83-4.15,3.699
					c-0.01,2.859,1.57,3.76,4.121,3.75c7.75-0.01,15.5,0,23.25,0c-0.021,0.551-0.051,1.1-0.07,1.66c-4.301,0-8.6,0.061-12.9-0.029
					c-3.18-0.061-4.609,1.369-4.461,4.52c0.061,1.16,0,2.33-0.01,3.5c-0.01,7.85-2.109,9.43-9.869,7.84
					c-3.25-0.66-2.561-3.039-2.561-5.061c-0.049-18.82-0.029-37.639-0.029-56.469c0-7.16,0.109-14.33-0.041-21.49
					C566.892,425.508,568.091,424.357,571.331,424.377z M613.341,508.338c-0.061,1.289,0.109,2.789-1.621,3.17
					c-1.59,0.35-2.43-0.68-3.029-1.949c-0.84-1.791-1.811-3.541-2.43-5.4c-0.58-1.75-2.84-3.631-1.109-5.311
					c1.539-1.49,4.129-0.9,6.18-0.4c2.689,0.65,1.84,3.09,2.02,4.939c0.051,0.471,0.041,0.932,0.029,1.4
					c0,0.191-0.01,0.381-0.01,0.58c-0.01,0.33-0.01,0.66-0.01,0.99C613.36,507.018,613.37,507.678,613.341,508.338z
					 M569.001,534.447c2.75-0.43,5.699-0.99,8.26,0.41c1.17,0.641,0.119,2.121-0.369,3.109c-3.012,6.051-6.061,12.092-9.111,18.141
					c-0.25-0.09-0.51-0.189-0.77-0.279c0-5.801-0.02-11.59,0.01-17.391C567.03,536.809,566.812,534.797,569.001,534.447z
					 M567.8,518.588c-0.479-2.33,0.461-4.279,3.432-4.25c2.318,0.029,4.639,0.01,6.959,0.01c10.381,0.09,10.381,0.09,5.621,9.74
					c-4.07,8.24-4.07,8.24-12.07,7.68c-0.5-0.039-1.121,0.119-1.471-0.119C565.101,528.168,568.69,522.938,567.8,518.588z
					 M583.341,498.768c3.57-1.35,7.529-0.859,11.289-0.25c1.23,0.189,0.75,1.619,0.33,2.52c-0.979,2.1-2.209,4.111-3,6.281
					c-1.369,3.77-3.969,5.189-7.74,4.34c-3.979-0.9-1.869-4.33-2.59-6.521C582.081,502.867,580.661,499.777,583.341,498.768z
					 M605.991,509.127c0.91,2,0.059,2.75-1.941,2.682c-0.33-0.012-0.658-0.012-0.988,0.01c-11.221,0.469-11.23,0.469-6.25-9.48
					c0.939-1.891,1.93-3.77,3.25-6.35C602.241,500.797,604.12,504.957,605.991,509.127z M575.911,492.018
					c-1.41,0-3.541,0.279-3.561-1.73c-0.02-2.479,2.34-1.84,3.84-1.85c8.311-0.07,16.631-0.029,24.951-0.029
					c8.309,0,16.629-0.041,24.939,0.029c1.5,0.01,3.859-0.629,3.799,1.881c-0.039,2-2.17,1.699-3.58,1.699
					C609.501,492.059,592.71,492.059,575.911,492.018z M590.642,515.168c0.779-1.6,2.289-1.65,3.828-1.77
					c13.131-0.98,13.131-0.99,18.342,11.059c1.318,3.051,2.658,6.102,4.029,9.141c1.301,2.881,2.641,5.75,4.48,9.74
					c-20.01-16.74-23.691-16.02-45.602,2.15C581.04,534.678,585.831,524.918,590.642,515.168z M596.351,598.707
					c0.01,0.451,0.01,0.9,0.01,1.361c0.01,1.539-0.029,3.08-0.029,4.619c0,0.951,0.01,1.9,0.061,2.85
					c0.158,3.211-0.281,5.371-4.441,5.34c-3.799-0.039-5.459-1.129-5.299-5.119c0.229-5.471,0.18-10.949,0.02-16.43
					c-0.1-3.48,1-5.141,4.811-5.131c3.629,0,5.189,1.191,4.93,4.91C596.22,593.627,596.321,596.168,596.351,598.707z
					 M583.13,580.178c0.971-6.07,1.67-12.221,5.051-17.609c5-7.99,14.32-9.041,20.641-2.061c5.039,5.541,6.58,12.57,7.449,19.75
					c0.311,2.59-1.24,3.551-3.65,3.541c-4.32-0.021-8.65-0.012-12.979-0.012c-4.33,0-8.65-0.01-12.98,0
					C584.241,583.799,582.72,582.768,583.13,580.178z M602.331,609.498c-0.01,1.561-0.18,3.16-2.281,3.1
					c-1.77-0.049-2.049-1.43-2.059-2.83c-0.01-6.799-0.01-13.6,0.01-20.4c0-1.398,0.27-2.809,2.029-2.869
					c2.09-0.07,2.291,1.539,2.301,3.1c0.029,3.48,0.01,6.961,0.01,10.451C602.341,603.197,602.36,606.348,602.331,609.498z
					 M608.79,612.877c-3.709-0.039-5.039-1.26-4.889-4.949c0.219-5.65,0.189-11.32,0.01-16.98c-0.111-3.42,1.129-4.709,4.619-4.75
					c3.711-0.049,5.15,1.33,4.871,4.99c-0.17,2.24-0.08,4.5-0.051,6.76c0.01,0.41,0.01,0.82,0.01,1.23c0,0.779-0.01,1.57-0.02,2.35
					c-0.01,0.99-0.02,1.99-0.02,2.99c0,1.061,0.01,2.1,0.08,3.15C613.601,611.049,612.812,612.918,608.79,612.877z M629.411,606.207
					c-0.121,2.461-1.201,3.461-3.4,4.131c-10.711,3.289-11.061,3.08-11.061-7.85c0-3.83,0.01-7.66,0-11.49
					c0-2.34-0.189-4.689,2.25-6.189c0.891-0.541,1.201-1.57,1.121-2.631c-0.602-7.91-2.061-15.609-7.23-21.939
					c-7.631-9.352-19.26-8.361-25.08,2.209c-3.43,6.221-6.711,13.92-4.051,20.01c3.691,8.441,1.48,16.57,2.521,24.75
					c0.51,4.012-0.932,5.301-5.021,4.551c-8.18-1.51-8.34-1.34-8.779-9.779c-0.561-10.92-4.869-21.301-3.92-32.551
					c0.48-5.77,1.85-10.699,5.08-15.26c6.199-8.75,14.23-15.34,23.879-19.961c1.512-0.729,2.922-1.32,4.75-0.939
					c12.031,2.529,28.182,18.699,29.672,30.59c0.709,5.57,0.119,11.311,0.119,17.24
					C630.851,589.318,629.812,597.748,629.411,606.207z M629.96,556.537c-3.289-7.09-5.859-12.799-8.6-18.439
					c-1.4-2.9-0.539-3.74,2.49-3.869c7.23-0.311,7.529-0.061,7.561,7.148C631.431,545.998,630.911,550.537,629.96,556.537z
					 M631.46,523.107c0,8.76-2.279,10.51-10.949,8.65c-1.949-0.42-2.721-1.73-3.42-3.24c-1.311-2.859-2.58-5.75-3.871-8.619
					c-2.449-5.432-2.119-6.021,3.871-6.4c1.98-0.121,3.98-0.02,5.971-0.02c8.408-0.031,8.408-0.031,8.398,8.129V523.107z
					 M648.421,606.148c-0.561,3.469-3.23,3.18-5.32,2.809c-3.709-0.658-8.73,2.701-10.93-2.539c-1.631-3.881,0.18-5.84,4.379-5.961
					c1.32-0.039,2.65-0.01,3.971-0.01C648.13,600.447,649.2,601.277,648.421,606.148z M647.55,512.838c0.17-1.84,2-1.381,3.23-1.391
					c4.67-0.061,9.33-0.02,13.99-0.02c4.83,0,9.65-0.02,14.48,0.02c1.15,0.01,2.58-0.029,2.65,1.57
					c0.08,1.631-1.33,1.711-2.49,1.711c-9.66,0.02-19.311,0.02-28.971,0C649.11,514.717,647.392,514.648,647.55,512.838z
					 M659.351,491.117c0.01,4.5-0.07,9,0.041,13.49c0.068,2.859-0.861,4.359-3.99,4.291c-2.771-0.061-4.461-0.811-4.441-3.951
					c0.061-9.16,0.061-18.33-0.01-27.49c-0.02-3.039,1.4-4.07,4.301-4.08c3.02,0,4.18,1.33,4.119,4.25
					C659.28,482.117,659.351,486.617,659.351,491.117z M675.351,491.309c0,4.639-0.07,9.279,0.02,13.92
					c0.061,2.908-1.449,3.709-4.049,3.648c-2.42-0.049-4.32-0.529-4.32-3.49c0-9.449,0-18.898-0.02-28.35
					c-0.012-3.279,2.1-3.6,4.68-3.65c2.879-0.059,3.76,1.361,3.719,3.99C675.3,482.018,675.351,486.658,675.351,491.309z
					 M648.001,555.887c0-11.619,0.09-23.25-0.051-34.869c-0.049-3.48,1.191-4.959,4.641-4.58c0.66,0.08,1.33,0.01,1.99,0.01
					c7.969-0.02,10.02,2.27,7.189,9.76c-3.85,10.191-8.529,20.061-12.859,30.08C648.61,556.148,648.312,556.027,648.001,555.887z
					 M652.78,556.027c-0.26-0.48-0.51-0.949-0.77-1.42c3.721-8.52,7.439-17.029,11.73-26.869c4.699,9.84,8.809,18.43,12.91,27.01
					C668.431,548.867,660.61,546.947,652.78,556.027z M682.321,559.078c-0.34,0.07-0.68,0.141-1.031,0.209
					c-5.209-10.939-10.479-21.869-15.59-32.859c-0.67-1.439-0.629-3.221-0.85-4.859c-0.539-3.881,1.1-5.191,5.061-5.201
					c12.41-0.029,12.41-0.17,12.41,12.311V559.078z M682.29,504.287c-0.01,1.891,0.551,4.41-2.529,4.461
					c-3.439,0.061-2.76-2.701-2.779-4.721c-0.061-9-0.15-18,0.02-27c0.08-3.891-1.4-5.33-5.281-5.279
					c-3.818,0.061-6.479,0.59-6.389,5.369c0.17,9.16,0.07,18.32,0,27.49c-0.01,1.711,0.49,4.141-2.35,4
					c-2.4-0.109-1.99-2.299-2-3.879c-0.051-9.16-0.17-18.33,0.029-27.49c0.09-4.17-1.58-5.51-5.619-5.51
					c-4.08,0-6.201,1.029-6.08,5.6c0.229,8.5,0.1,17,0.02,25.49c-0.01,1.75,0.609,3.648-0.98,5.51
					c-1.83-1.061-1.311-2.551-1.32-3.77c-0.049-9.5,0.07-19-0.08-28.49c-0.059-3.41,1.051-4.791,4.58-4.721
					c8.83,0.17,17.67,0.15,26.49,0.01c3.279-0.049,4.391,1.25,4.34,4.439C682.231,485.297,682.341,494.797,682.29,504.287z
					 M655.96,399.398c-0.049-2-0.01-4-0.01-6.891c0.32-5.061-0.57-11.061,0.801-17c0.869-3.811,2.189-7.54,6.52-7.68
					c4.65-0.16,6.891,3.43,8.01,7.58c1.76,6.539,0.93,13.229,1.07,19.859c0.08,3.82-0.09,7.65,0.041,11.471
					c0.1,3.039-1.221,4.109-4.172,4.07C653.38,410.568,656.28,412.547,655.96,399.398z M675.36,460.457
					c0.01,2.691-1.449,3.4-3.82,3.361c-2.32-0.051-4.5-0.17-4.52-3.26c-0.039-4.83-0.01-9.672-0.01-14.5h-0.041
					c0-4.33,0.08-8.672-0.029-12.99c-0.07-3.201,1.67-3.932,4.43-3.91c2.641,0.02,4.021,0.969,4,3.799
					C675.312,442.127,675.321,451.287,675.36,460.457z M665.411,445.027h-0.07c0,5.141,0.02,10.281-0.01,15.43
					c0,1.541-0.121,3.221-2.211,3.18c-2.08-0.029-2.129-1.738-2.139-3.27c-0.031-10.119-0.021-20.24-0.07-30.369
					c-0.01-1.49,0.17-2.551,2.07-2.6c2.02-0.061,2.51,0.799,2.469,2.689C665.331,435.068,665.411,440.047,665.411,445.027z
					 M659.392,433.418c-0.092,8.83-0.08,17.66-0.012,26.49c0.021,2.709-0.959,3.979-3.799,3.93c-2.641-0.051-4.65-0.461-4.611-3.74
					c0.021-2.051,0.031-4.109,0.021-6.16c0-2.449-0.01-4.891-0.01-7.33c-0.012-2.619,0.02-5.23,0.02-7.85v-0.291
					c0-1.779-0.01-3.58-0.061-5.359c-0.08-3.16,1.59-3.949,4.381-3.959C658.351,429.127,659.421,430.498,659.392,433.418z
					 M678.091,466.197c1.52,0.01,3.93-0.449,3.779,1.971c-0.15,2.33-2.549,1.57-4.049,1.609c-4.301,0.1-8.611,0.031-12.92,0.031
					c-4.641,0-9.281,0.039-13.92-0.031c-1.381-0.02-3.441,0.48-3.561-1.629c-0.121-2.15,1.92-1.91,3.33-1.91
					C659.87,466.178,668.981,466.148,678.091,466.197z M676.911,430.207c-0.02-1.74,0.279-2.898,2.4-2.789
					c1.738,0.09,2.939,0.66,2.939,2.57c0.02,10.43,0.02,20.869-0.01,31.309c-0.01,1.891-1.221,2.621-2.98,2.461
					c-1.98-0.18-2.27-1.631-2.27-3.23c-0.021-5.129-0.01-10.27-0.01-15.41h-0.051C676.931,440.148,676.981,435.178,676.911,430.207z
					 M648.841,463.127c-0.59-0.01-1.18-0.02-1.77-0.02c-0.131-11.799-0.08-23.6-0.031-35.4c0.602,0,1.201,0.01,1.801,0.021V463.127z
					 M679.251,410.908c-3.641-0.061-5.52-0.771-5.381-4.99c0.281-8.141,0.051-16.301,0.09-24.46c0.021-3.38-0.43-6.67-1.949-9.69
					c-1.859-3.67-4.73-6.13-9.08-5.8c-4.199,0.31-6.311,3.17-7.57,6.931c-1.359,4.06-0.949,8.229-0.98,12.369
					c-0.049,6.99-0.139,13.98,0.041,20.961c0.08,3.479-1.201,4.719-4.66,4.658c-3.16-0.068-5-0.658-4.971-4.389
					c0.121-15.641,0.09-31.28,0.021-46.92c-0.021-3.211,1.299-4.471,4.459-4.44c10.15,0.08,20.301,0.101,30.449-0.021
					c3.4-0.039,4.762,1.23,4.691,4.701c-0.16,7.81-0.051,15.629-0.051,23.459c0.01,7.48-0.17,14.98,0.07,22.451
					C684.562,409.678,683.151,410.979,679.251,410.908z M686.7,590.238c0.93,0.25,1.98,0.039,2.971,0.039c0,0,0,0.01,0,0.021
					c1.16,0,2.33,0.09,3.48-0.021c2.629-0.27,4.479-0.029,4.289,3.48c-0.16,2.961-0.279,5.33-4.199,5.041
					c-2.471-0.191-4.961-0.121-7.441-0.021c-2.738,0.121-3.789-1.039-3.898-3.799C681.771,591.428,682.251,589.027,686.7,590.238z
					 M696.251,609.068c-3.471-0.121-6.961-0.09-10.439-0.01c-3.121,0.068-3.881-1.611-3.9-4.4c-0.02-2.85,0.84-4.43,3.969-4.221
					c1.98,0.121,3.971,0.02,5.961,0.02c1.49,0,2.99,0.092,4.471-0.02c2.959-0.219,4.18,1.02,4.189,4.031
					C700.511,607.518,699.571,609.178,696.251,609.068z"/>
				<path fill-rule="evenodd" clip-rule="evenodd" fill="#87C9CC" d="M543.761,569.898c-0.801-3.76-2.1-7.34-4.68-10.361
					c-2.451-2.85-4.811-3.109-7.551-0.33c-3.42,3.471-5.209,7.721-6.129,12.352c-2.191,11.049-0.5,22.25-1.051,33.369
					c-0.17,3.529,0.59,5.6,4.859,5.561c4.451-0.041,4.691-2.57,4.66-5.861c-0.059-6.969-0.02-13.93-0.02-22.26
					c2.32,2.811,1.699,4.691,1.73,6.41c0.1,5.83,0.09,11.66,0.061,17.48c-0.012,3.32,1.789,4.189,4.799,4.18
					c3.051,0,5.25-0.5,5.25-4.23C545.69,594.068,546.312,581.889,543.761,569.898z M528.642,608.719
					c-2.311-0.031-2.66-1.561-2.66-3.381c-0.012-3.32-0.012-6.65-0.012-9.98c0-3.16,0-6.32,0.012-9.48
					c0-1.779,0.279-3.389,2.59-3.449c2.17-0.07,2.959,1.221,2.969,3.141c0.031,6.65,0.031,13.299,0.01,19.949
					C531.54,607.418,530.841,608.748,528.642,608.719z M534.12,579.768c-8.959,0.051-9.09-0.09-6.639-8.85
					c0.949-3.381,2.26-6.609,4.52-9.369c2.289-2.791,4.49-2.592,6.439,0.27c3.109,4.57,4.09,9.75,4.029,15.18
					c-0.02,1.83-1.09,2.721-2.859,2.76C537.78,579.799,535.95,579.768,534.12,579.768z M543.431,595.729
					c-0.01,1.66-0.01,3.32-0.01,4.979c0,1.66,0,3.32-0.01,4.98c-0.01,1.67-0.561,2.93-2.52,3.02c-2.172,0.111-2.98-1.08-2.98-3.059
					c-0.01-6.641-0.02-13.291-0.01-19.93c0-1.852,0.529-3.311,2.779-3.301c2.27,0.02,2.73,1.5,2.74,3.34
					c0.01,1.66,0.01,3.32,0.01,4.98V595.729z"/>
				<path fill-rule="evenodd" clip-rule="evenodd" fill="#87C9CC" d="M672.53,568.037c-1.699-4.639-3.549-10.889-9.129-10.549
					c-5.5,0.34-6.691,6.699-8.031,11.49c-1.92,6.859-0.619,13.93-0.99,19.549c0,6.67,0.08,12-0.02,17.32
					c-0.061,3.09,1.031,4.57,4.34,4.57c3.361,0,4.301-1.609,4.26-4.641c-0.08-6.49-0.039-12.979,0.031-19.479
					c0.02-1.371-0.48-3.512,1.689-3.49c2.141,0.02,1.631,2.16,1.65,3.529c0.07,6.5,0.109,12.99,0.02,19.49
					c-0.039,3.029,0.869,4.619,4.25,4.6c3.4-0.029,4.291-1.74,4.26-4.699c-0.061-5.33-0.08-10.66,0.01-15.99
					C675.011,582.398,675.11,575.027,672.53,568.037z M661.341,605.277c0,1.771-0.24,3.371-2.57,3.43
					c-2.26,0.061-2.789-1.34-2.789-3.209v-19.871c0.01-1.889,0.59-3.279,2.818-3.199c2.311,0.08,2.531,1.721,2.541,3.48
					c0.02,3.141,0.01,6.289,0.01,9.439C661.351,598.658,661.36,601.969,661.341,605.277z M666.981,579.848c-1,0.02-1.99,0-2.98,0
					v-0.07h-4.98c-2.029,0.01-3.209-0.979-2.98-3.039c0.58-5.111,1.311-10.23,4.211-14.66c2.311-3.529,4.289-3.541,6.98-0.23
					c2.809,3.451,4,7.6,4.869,11.84C673.161,578.857,672.401,579.688,666.981,579.848z M672.571,595.248c-0.01,0-0.01,0-0.021,0
					c0,3.49,0.041,6.98-0.01,10.471c-0.029,1.629-0.549,3.049-2.59,2.869c-1.789-0.15-1.949-1.57-1.959-2.939
					c-0.021-6.65-0.021-13.311,0-19.961c0-1.57,0.189-3.18,2.279-3.139c2.029,0.039,2.26,1.67,2.279,3.219
					C672.601,588.928,672.571,592.088,672.571,595.248z"/>
				<path fill-rule="evenodd" clip-rule="evenodd" fill="#87C9CC" d="M632.001,481.027c-0.211-6.49,0.09-12.99-0.109-19.48
					c-0.461-15.83-9.75-28.969-24.041-34.27c-2.67-0.99-5.43-2-8.279-1.27c-11.881,3.051-25.961,12-29.23,27.76
					c-1.85,8.9-0.381,17.939-0.92,26.9c-0.27,4.459,1.68,5.811,5.9,5.699c8.32-0.219,16.648-0.07,24.979-0.07
					c8.83,0,17.66-0.119,26.48,0.051C630.681,486.418,632.12,484.887,632.001,481.027z M602.171,482.037
					c-0.01,0.891-0.65,1.57-1.65,1.451c-1.26-0.16-1.48-1.201-1.49-2.221c-0.039-3.141-0.02-6.289-0.02-9.439h-0.01
					c0-3.15-0.02-6.301,0-9.451c0.01-0.859,0.25-1.77,1.189-1.949c1.24-0.23,1.939,0.801,1.951,1.75
					C602.241,468.797,602.22,475.418,602.171,482.037z M630.392,480.027c0.109,4.01-2.441,4.02-5.291,4.051
					c-2.939,0.029-5.23-0.25-5.189-4.17c0.07-6.641-0.42-13.291-0.211-19.92c0.07-2.26-1.43-3.951-2.34-3.5
					c-3.84,1.859-5.109-1.08-6.879-3.051c-2.41-2.709-4.41-2.301-6.281,0.51c-2.369,3.541-4.559,4.641-7.129,0.02
					c-0.691-1.25-1.91-3.648-4.281-1.979c-1.789,1.25-3.51,2.57-1.889,5.27c1.559,2.609-0.25,3.029-2.381,3.221
					c-7.129,0.609-7.129,0.639-7.15,7.52c-0.01,3.99-0.129,7.99,0.021,11.98c0.129,3.52-1.852,4.129-4.74,4.1
					c-2.82-0.02-4.99-0.471-4.932-3.99c0.07-3.99,0.021-7.99,0.021-13.43c0.15-3.531-0.711-8.611,0.66-13.471
					c4-14.119,14.43-21.42,27.74-25.41c2.51-0.75,4.908,0.541,7.219,1.43c15.701,6.051,21.791,18.621,22.91,34.34
					C630.661,469.018,630.241,474.537,630.392,480.027z"/>
				<path fill-rule="evenodd" clip-rule="evenodd" fill="#87C9CC" d="M589.417,445.496c0.965-2.197,2.881-2.451,4.502-1.342
					c4.982,3.412,9.664,2.584,14.537-0.188c1.834-1.043,7.461,3.15,8.447,6.033c0.648,1.895-1.033,2.191-2.049,2.838
					c-2.346,1.492-3.973-0.014-4.814-1.826c-1.234-2.654-2.117-3.314-4.004-1.08c-3.473,4.111-6.551,4.301-10.275,0.496
					c-0.963-0.984-2.633-1.268-3.965-1.898C590.526,447.93,589.659,446.99,589.417,445.496z"/>
			</g>
		</g>
	</g>
	<g>
		<path fill="none" stroke="#87C9CC" stroke-width="6" stroke-miterlimit="10" d="M471,561v8.44c0,0,3.365,9.97,3.824,10.699
			c0.451,0.73-0.472,2.24-0.472,2.24c-8.5,7.311-41.492,4.94-58.771,5.39c-17.28,0.461-42.569-6.85-46.319-8.039
			c-3.75-1.19-9.261-7.221-9.261-7.221V480.07l-3-7.49v-9.51c0,0,10.65-21.891,51.24-30.12c0.061-0.01,0.2-0.021,0.259-0.03
			c4.91-0.939,15.365-2.78,21.225-2.83c7.859-0.06,27.333,1.04,35.983,5.061c8.66,4.029,8.992,6.52,8.992,6.52
			c0.77,1.26,1.301,3.25,1.301,4.021V468.8l-5,6.15V561L471,561z"/>
		<path fill="none" stroke="#87C9CC" stroke-width="6" stroke-miterlimit="10" d="M296,478.86V569h0.109
			c-2.2,2-23.41,5.495-44.44,6.505c-21.02,1.011-24.854-3.507-24.854-3.507L228,569.67v-81.92l-1.154-2.93L225,479.95v-6.7
			c0,0,0.395-6.95,30.256-5.25C285.125,469.71,294,478,296,478.86z"/>
		<path fill="#87C9CC" d="M357,463.07v9.51l3,7.49v92.439l-64-3.66V478.86c-2-0.86-10.875-9.15-40.744-10.86
			c-29.861-1.7-30.256,5.25-30.256,5.25v6.7l1.839,4.87c-6.359-1.16-40.004-7.221-51.745-7.311c-8.03-0.05-11.803,0.9-13.534,1.641
			l0.315-5.9l-1.634-2.2c0,0-0.117-1.34,0.973-1.83c1.101-0.479,16.402-5.479,16.402-5.479l1.522-1.65l-0.181-20.17l2.251-0.729
			l8.84-26.761l0.25-3.6l-0.37-0.3l-0.119-0.851l-0.61-0.37l-0.389-1.159l-0.81-0.49v-1.46l2,0.85v-3.29l1,0.311V407h1v-2.75
			l4.025-1.77L200,405.22v15.91l26,13.48v-9.271l4.455-1.16l3.545,2.13v15.551l3.32-0.49c0,0,3.275-1.65,3.214-2.87
			c-0.06-1.21-0.377-8.28-0.377-8.28L241,429.73v-6.101l-1.129-1.399c0,0,1.548-0.91,1.358-2.86c-0.18-1.95,0.22-4.76,2.241-4.88
			c2.01-0.12,2.946,0,2.946,0L251,397v-6h-1v-1.68l-1-0.551v-1.34l2,0.79V385h2v4h1.049l2.891-2.555l6.06,5.005v14.75l21,13.78
			v-9.271l4.965-1.4L291,411.08v15.72l6.506,12.62L309,436.86v-9.57l4.779-1.28L318,430.03v5.12l8-1.4v-7.86l6.686-1.399l1.314,1.64
			v6.65l19-3.9v-9.63l3.859-0.8l2.17,2.81l6.049-23.529l6.477,24.01l2.445,3.6v5.12l6.794-29.13l9.289,32.24l1.917-1.83v-7.5
			l-0.666-1.101L392,421.74v-1.4l3.434-4.02l6.683,1.04l0.461,2.68L402,421.38v5.91l3.709,6.16c0,0,0.875-0.2,2.446-0.5
			C367.565,441.18,357,463.07,357,463.07z"/>
		<path fill="none" stroke="#87C9CC" stroke-width="6" stroke-miterlimit="10" d="M228,487.75V541h-63v-50.32l-3-3.84v-5.39
			c0,0-1-1.26-1-2.23v-0.069c2-0.74,5.825-1.69,13.855-1.641c11.74,0.09,45.592,6.15,51.953,7.311L228,487.75z"/>
	</g>
</g>
</svg>
