<?xml version="1.0" encoding="utf-8"?>
<!-- Generator: Adobe Illustrator 16.0.0, SVG Export Plug-In . SVG Version: 6.00 Build 0)  -->
<!DOCTYPE svg PUBLIC "-//W3C//DTD SVG 1.1//EN" "http://www.w3.org/Graphics/SVG/1.1/DTD/svg11.dtd">
<svg version="1.1" id="Calque_1" xmlns="http://www.w3.org/2000/svg" xmlns:xlink="http://www.w3.org/1999/xlink" x="0px" y="0px"
	 width="1280px" height="221.243px" viewBox="0 0 1280 221.243" enable-background="new 0 0 1280 221.243" xml:space="preserve">
<path opacity="0.75" fill="#FFFFFF" d="M1066.756,205.405h166.379c0,0-40.67-47.889-66.553-18.311c0,0-43.135-33.125-65.318,4.344
	C1101.264,191.438,1072.916,178.405,1066.756,205.405"/>
<path opacity="0.75" fill="#FFFFFF" d="M699.128,83.405h118.314c0,0-14.789-16.469-35.125-5.377c0,0-27.73-24.232-48.064,0.782
	C734.253,78.811,713.917,67.405,699.128,83.405"/>
<path opacity="0.75" fill="#FFFFFF" d="M360.402,127.405H227.298c0,0-4.93-19.465,29.578-10.223c0,0,36.975-36.73,61.623-2.098
	C318.499,115.085,355.473,101.405,360.402,127.405"/>
<g>
	<path fill="#5D88A0" d="M824.837,179.405H957.94c0,0,4.932-19.465-29.576-10.223c0,0-36.975-36.73-61.623-2.098
		C866.741,167.085,829.767,153.405,824.837,179.405"/>
	<path fill="#5D88A0" d="M1002.31,123.405h136.803c0,0-13.557-14.574-39.439-7.18c0,0-27.113-28.898-54.227-2.178
		C1045.446,114.048,1012.169,107.405,1002.31,123.405"/>
	<path fill="#5D88A0" d="M182.93,74.405H46.128c0,0,13.557-14.574,39.438-7.18c0,0,27.113-28.898,54.228-2.178
		C139.794,65.048,173.069,58.405,182.93,74.405"/>
	<path fill="#5D88A0" d="M242.087,185.405H75.707c0,0,40.67-47.889,66.552-18.311c0,0,43.136-33.125,65.319,4.344
		C207.578,171.438,235.925,158.405,242.087,185.405"/>
	<path fill="#5D88A0" d="M486.112,63.405H367.797c0,0,14.789-16.469,35.125-5.377c0,0,27.73-24.232,48.065,0.782
		C450.987,58.811,471.323,47.405,486.112,63.405"/>
</g>
</svg>
