<?xml version="1.0" encoding="utf-8"?>
<!-- Generator: Adobe Illustrator 16.0.0, SVG Export Plug-In . SVG Version: 6.00 Build 0)  -->
<!DOCTYPE svg PUBLIC "-//W3C//DTD SVG 1.1//EN" "http://www.w3.org/Graphics/SVG/1.1/DTD/svg11.dtd">
<svg version="1.1" id="Calque_1" xmlns="http://www.w3.org/2000/svg" xmlns:xlink="http://www.w3.org/1999/xlink" x="0px" y="0px"
	 width="566.409px" height="581.081px" viewBox="0 0 566.409 581.081" enable-background="new 0 0 566.409 581.081"
	 xml:space="preserve">
<polygon points="284.626,32.821 311.712,5.616 333.161,37.454 364.905,15.87 379.938,51.192 415.196,36.001 423.276,73.528 
	460.765,65.292 461.593,103.671 499.972,102.675 493.521,140.515 531.396,146.796 517.901,182.739 553.897,196.075 533.845,228.812 
	566.671,248.718 540.786,277.071 569.249,302.825 538.462,325.773 561.538,356.452 526.972,373.148 543.819,407.638 506.72,417.497 
	516.735,454.554 478.44,457.21 481.263,495.495 443.155,490.86 438.677,528.989 402.14,517.216 390.524,553.806 356.874,535.335 
	338.548,569.064 308.999,544.562 284.626,574.222 260.251,544.562 230.699,569.064 212.375,535.335 178.725,553.806 
	167.108,517.216 130.572,528.989 126.094,490.86 87.987,495.495 90.809,457.21 52.511,454.554 62.529,417.497 25.43,407.638 
	42.276,373.148 7.712,356.452 30.784,325.773 0,302.825 28.463,277.071 2.577,248.718 35.404,228.812 15.353,196.075 
	51.348,182.739 37.853,146.796 75.727,140.515 69.276,102.675 107.653,103.671 108.483,65.292 145.974,73.528 154.052,36.001 
	189.311,51.192 204.343,15.87 236.088,37.454 257.543,5.616 "/>
</svg>
