<?xml version="1.0" encoding="utf-8"?>
<!-- Generator: Adobe Illustrator 17.0.0, SVG Export Plug-In . SVG Version: 6.00 Build 0)  -->
<!DOCTYPE svg PUBLIC "-//W3C//DTD SVG 1.1//EN" "http://www.w3.org/Graphics/SVG/1.1/DTD/svg11.dtd">
<svg version="1.1" id="Calque_1" xmlns="http://www.w3.org/2000/svg" xmlns:xlink="http://www.w3.org/1999/xlink" x="0px" y="0px"
	 width="566.409px" height="581.081px" viewBox="0 0 566.409 581.081" enable-background="new 0 0 566.409 581.081"
	 xml:space="preserve">
<polygon points="284.626,32.821 311.712,5.616 333.161,37.454 364.905,15.87 379.938,51.192 415.196,36.001 423.276,73.528 
	460.765,65.292 461.593,103.671 499.972,102.675 493.521,140.515 531.396,146.796 517.901,182.739 553.897,196.075 533.845,228.812 
	566.671,248.718 540.786,277.071 569.249,302.825 538.462,325.773 561.538,356.452 526.972,373.148 543.819,407.638 506.72,417.497 
	516.735,454.554 478.44,457.21 481.263,495.495 443.155,490.86 438.677,528.989 402.14,517.216 390.524,553.806 356.874,535.335 
	338.548,569.064 308.999,544.562 284.626,574.222 260.251,544.562 230.699,569.064 212.375,535.335 178.725,553.806 
	167.108,517.216 130.572,528.989 126.094,490.86 87.987,495.495 90.809,457.21 52.511,454.554 62.529,417.497 25.43,407.638 
	42.276,373.148 7.712,356.452 30.784,325.773 0,302.825 28.463,277.071 2.577,248.718 35.404,228.812 15.353,196.075 
	51.348,182.739 37.853,146.796 75.727,140.515 69.276,102.675 107.653,103.671 108.483,65.292 145.974,73.528 154.052,36.001 
	189.311,51.192 204.343,15.87 236.088,37.454 257.543,5.616 "/>
<g>
	<path fill="#FFFFFF" d="M146.722,410.729l-9.002-31.546l5.279-1.507l7.57,26.526l15.318-4.372l1.433,5.02L146.722,410.729z"/>
	<path fill="#FFFFFF" d="M166.546,395.338c-0.378-1.327-0.479-2.663-0.301-4.009c0.178-1.345,0.578-2.591,1.203-3.736
		s1.445-2.151,2.461-3.019c1.016-0.867,2.173-1.486,3.472-1.856c0.865-0.247,1.675-0.361,2.429-0.343
		c0.754,0.02,1.424,0.102,2.012,0.245c0.587,0.145,1.068,0.327,1.443,0.548s0.63,0.404,0.766,0.553l-0.457-2.256l4.024-1.148
		l5.248,18.391l-4.197,1.198l-0.346-1.212c-0.041-0.145-0.074-0.283-0.096-0.417c-0.023-0.135-0.042-0.229-0.059-0.288
		c-0.074,0.178-0.217,0.444-0.427,0.801c-0.21,0.356-0.524,0.734-0.94,1.134c-0.417,0.399-0.938,0.789-1.561,1.171
		c-0.625,0.381-1.384,0.699-2.278,0.954c-1.414,0.403-2.786,0.515-4.117,0.333c-1.332-0.182-2.553-0.582-3.665-1.2
		c-1.112-0.619-2.069-1.43-2.871-2.434C167.49,397.744,166.908,396.608,166.546,395.338z M170.669,393.88
		c0.23,0.809,0.581,1.519,1.053,2.133c0.471,0.614,1.032,1.103,1.681,1.463s1.361,0.587,2.136,0.677
		c0.774,0.092,1.58,0.018,2.417-0.222c0.836-0.238,1.56-0.601,2.17-1.087c0.61-0.485,1.093-1.061,1.45-1.724
		c0.356-0.664,0.573-1.381,0.65-2.151c0.076-0.771,0.003-1.545-0.219-2.324s-0.567-1.468-1.035-2.068
		c-0.468-0.599-1.024-1.071-1.668-1.419c-0.645-0.346-1.354-0.564-2.129-0.655c-0.774-0.091-1.581-0.018-2.417,0.222
		c-0.837,0.238-1.562,0.594-2.176,1.065c-0.614,0.472-1.102,1.032-1.462,1.681c-0.361,0.649-0.582,1.353-0.662,2.107
		C170.376,392.334,170.447,393.102,170.669,393.88z"/>
	<path fill="#FFFFFF" d="M214.737,386.123c0.589,0.425,1.157,0.832,1.706,1.222c0.548,0.39,1.112,0.782,1.693,1.178
		c-0.647,0.903-1.435,1.696-2.362,2.382c-0.928,0.687-1.983,1.198-3.166,1.535c-1.356,0.388-2.705,0.499-4.045,0.336
		c-1.342-0.163-2.578-0.559-3.708-1.188c-1.131-0.628-2.125-1.46-2.982-2.494c-0.856-1.035-1.474-2.216-1.853-3.543
		c-0.378-1.326-0.475-2.648-0.29-3.965c0.186-1.317,0.593-2.54,1.222-3.672c0.628-1.131,1.47-2.119,2.523-2.966
		c1.053-0.846,2.257-1.463,3.613-1.851c1.211-0.346,2.399-0.474,3.563-0.385s2.274,0.342,3.329,0.758l-1.763,3.826
		c-1.232-0.491-2.555-0.534-3.969-0.132c-0.837,0.239-1.56,0.603-2.17,1.088c-0.61,0.486-1.098,1.047-1.462,1.681
		c-0.365,0.635-0.587,1.33-0.668,2.086c-0.081,0.757-0.005,1.538,0.225,2.346c0.222,0.779,0.567,1.469,1.035,2.068
		c0.467,0.6,1.027,1.087,1.681,1.462c0.653,0.376,1.367,0.608,2.142,0.699s1.58,0.018,2.417-0.222
		C212.89,387.961,213.986,387.211,214.737,386.123z"/>
	<path fill="#FFFFFF" d="M239.819,384.628l-3.462,0.988l-1.977-4.958c-0.244,1.66-0.812,3.141-1.704,4.44
		c-0.893,1.301-2.291,2.222-4.195,2.765c-1.904,0.544-3.554,0.477-4.948-0.202c-1.395-0.678-2.355-1.831-2.882-3.459l-3.816-13.371
		l4.154-1.186l3.26,11.424c0.312,0.878,0.839,1.547,1.579,2.006c0.74,0.46,1.737,0.542,2.995,0.245
		c0.836-0.238,1.56-0.601,2.17-1.087c0.61-0.485,1.093-1.061,1.45-1.725c0.356-0.663,0.576-1.396,0.659-2.2
		c0.083-0.803,0.005-1.623-0.234-2.46l-2.532-8.871l4.111-1.173L239.819,384.628z"/>
	<path fill="#FFFFFF" d="M248.922,381.563l-4.111,1.173l-9.645-33.796l4.111-1.173L248.922,381.563z"/>
	<path fill="#FFFFFF" d="M248.157,353.188l4.111-1.174l2.297,8.049l4.803-1.37l1.062,3.721l-4.803,1.371l4.187,14.669l-4.111,1.174
		l-4.187-14.67l-3.116,0.89l-1.062-3.722l3.116-0.889L248.157,353.188z"/>
	<path fill="#FFFFFF" d="M285.294,371.65l-3.462,0.988l-1.977-4.958c-0.244,1.661-0.812,3.141-1.704,4.44
		c-0.893,1.301-2.291,2.222-4.195,2.765c-1.903,0.544-3.553,0.477-4.948-0.202c-1.395-0.678-2.355-1.831-2.882-3.459l-3.816-13.371
		l4.154-1.186l3.26,11.424c0.312,0.878,0.839,1.547,1.579,2.006c0.739,0.46,1.736,0.542,2.994,0.245
		c0.836-0.238,1.561-0.601,2.17-1.087c0.61-0.485,1.094-1.061,1.45-1.725c0.356-0.663,0.576-1.396,0.659-2.2
		c0.082-0.803,0.004-1.623-0.234-2.46l-2.531-8.871l4.11-1.173L285.294,371.65z"/>
	<path fill="#FFFFFF" d="M296.742,353.315c-0.808,0.23-1.551,0.553-2.229,0.964c-0.679,0.412-1.239,0.907-1.683,1.486
		c-0.442,0.579-0.748,1.228-0.918,1.946c-0.169,0.72-0.135,1.497,0.104,2.334l2.433,8.524l-4.154,1.186l-5.248-18.391l3.635-1.037
		c0.354,1.021,0.66,1.847,0.917,2.476s0.53,1.339,0.818,2.13c0.145-0.915,0.444-1.78,0.897-2.597
		c0.453-0.814,0.955-1.543,1.506-2.185c0.55-0.64,1.121-1.178,1.716-1.612c0.593-0.434,1.12-0.718,1.583-0.85L296.742,353.315z"/>
	<path fill="#FFFFFF" d="M319.148,359.228c-0.664,1.063-1.564,2.007-2.702,2.83s-2.37,1.426-3.697,1.804
		c-1.356,0.388-2.705,0.499-4.046,0.336c-1.342-0.163-2.577-0.559-3.708-1.188c-1.132-0.628-2.123-1.453-2.976-2.473
		c-0.853-1.021-1.469-2.193-1.848-3.521c-0.378-1.326-0.475-2.648-0.289-3.965s0.594-2.54,1.223-3.671s1.455-2.116,2.479-2.954
		c1.025-0.838,2.186-1.442,3.484-1.813c2.077-0.593,4.08-0.485,6.012,0.32c1.93,0.807,3.519,2.139,4.768,3.998
		c-0.775,0.564-1.669,1.232-2.681,2.005c-1.013,0.772-2.068,1.581-3.169,2.425c-1.101,0.845-2.199,1.696-3.295,2.555
		c-1.097,0.859-2.106,1.639-3.029,2.339c0.745,0.755,1.629,1.282,2.65,1.583c1.022,0.302,2.081,0.296,3.178-0.018
		c0.75-0.214,1.468-0.566,2.154-1.06c0.686-0.491,1.209-1.038,1.567-1.641L319.148,359.228z M312.425,349.448
		c-0.527-0.536-1.18-0.856-1.959-0.962s-1.5-0.063-2.164,0.126c-0.778,0.222-1.471,0.583-2.076,1.084
		c-0.606,0.5-1.082,1.073-1.429,1.718c-0.347,0.646-0.571,1.333-0.675,2.064s-0.056,1.443,0.142,2.136l0.05,0.173
		c0.639-0.493,1.322-1.024,2.049-1.591c0.729-0.566,1.453-1.14,2.177-1.721s1.417-1.13,2.081-1.646
		C311.283,350.311,311.886,349.851,312.425,349.448z"/>
	<path fill="#FFFFFF" d="M329.088,338.796l3.679-1.05c0.176,0.511,0.337,0.965,0.48,1.36c0.145,0.396,0.283,0.77,0.414,1.122
		c0.132,0.353,0.262,0.697,0.39,1.035c0.127,0.338,0.263,0.705,0.407,1.101c0.248-1.756,0.764-3.252,1.55-4.49
		s2.097-2.135,3.936-2.691c1.817-0.519,3.396-0.478,4.737,0.122c1.342,0.601,2.322,1.607,2.945,3.021
		c0.141-0.819,0.34-1.595,0.6-2.324s0.595-1.386,1.006-1.971c0.409-0.585,0.926-1.099,1.549-1.542
		c0.622-0.442,1.395-0.796,2.318-1.06c1.903-0.543,3.564-0.463,4.981,0.239c1.417,0.703,2.39,1.869,2.917,3.497l3.803,13.327
		l-4.154,1.186l-3.248-11.38c-0.312-0.878-0.836-1.563-1.568-2.056c-0.734-0.493-1.744-0.587-3.029-0.282
		c-1.703,0.485-2.863,1.418-3.484,2.796c-0.62,1.378-0.684,2.933-0.189,4.663l2.52,8.828l-4.154,1.186l-3.248-11.381
		c-0.312-0.877-0.844-1.562-1.591-2.05c-0.748-0.488-1.751-0.584-3.007-0.288c-1.703,0.485-2.864,1.418-3.484,2.796
		c-0.621,1.378-0.688,2.919-0.202,4.62l2.531,8.871l-4.153,1.186L329.088,338.796z"/>
	<path fill="#FFFFFF" d="M365.987,338.185c-0.379-1.326-0.482-2.646-0.311-3.959c0.171-1.312,0.58-2.529,1.229-3.649
		c0.646-1.121,1.497-2.104,2.551-2.951c1.053-0.846,2.257-1.463,3.613-1.85c1.385-0.396,2.74-0.509,4.066-0.342
		c1.327,0.167,2.539,0.562,3.638,1.185c1.098,0.622,2.059,1.448,2.883,2.477c0.823,1.028,1.425,2.206,1.804,3.533
		s0.499,2.649,0.361,3.968c-0.139,1.319-0.516,2.542-1.13,3.669s-1.44,2.111-2.479,2.953c-1.039,0.843-2.266,1.466-3.678,1.869
		c-1.357,0.387-2.691,0.518-4.006,0.395c-1.315-0.124-2.533-0.486-3.656-1.086s-2.115-1.425-2.976-2.474
		S366.4,339.628,365.987,338.185z M370.111,337.055c0.223,0.779,0.574,1.467,1.057,2.062c0.482,0.597,1.047,1.074,1.697,1.435
		c0.648,0.361,1.353,0.59,2.113,0.684c0.76,0.096,1.529,0.032,2.309-0.19s1.466-0.574,2.062-1.057
		c0.596-0.481,1.073-1.047,1.435-1.696c0.361-0.648,0.596-1.355,0.705-2.12c0.109-0.764,0.053-1.536-0.169-2.314
		c-0.222-0.779-0.581-1.464-1.078-2.056c-0.496-0.591-1.069-1.067-1.718-1.429c-0.648-0.36-1.355-0.596-2.12-0.705
		s-1.536-0.053-2.315,0.169c-0.778,0.223-1.464,0.582-2.055,1.078c-0.592,0.497-1.068,1.07-1.429,1.718
		c-0.36,0.649-0.589,1.354-0.684,2.114C369.825,335.507,369.889,336.276,370.111,337.055z"/>
	<path fill="#FFFFFF" d="M385.782,313.912l4.11-1.174l2.297,8.049l4.804-1.37l1.062,3.721l-4.804,1.371l4.188,14.669l-4.111,1.174
		l-4.187-14.67l-3.116,0.89l-1.062-3.722l3.116-0.889L385.782,313.912z"/>
	<path fill="#FFFFFF" d="M420.16,330.4c-0.663,1.063-1.564,2.007-2.702,2.83s-2.37,1.426-3.697,1.804
		c-1.355,0.388-2.705,0.499-4.045,0.336c-1.342-0.163-2.578-0.559-3.709-1.188c-1.131-0.628-2.123-1.453-2.975-2.473
		c-0.854-1.021-1.469-2.193-1.848-3.521c-0.379-1.326-0.475-2.648-0.289-3.965s0.593-2.54,1.222-3.671
		c0.628-1.131,1.456-2.116,2.479-2.954c1.024-0.838,2.186-1.443,3.484-1.813c2.076-0.593,4.08-0.485,6.011,0.32
		c1.931,0.807,3.519,2.139,4.768,3.998c-0.774,0.564-1.669,1.232-2.681,2.005s-2.068,1.581-3.168,2.425
		c-1.102,0.845-2.199,1.696-3.296,2.555c-1.097,0.859-2.106,1.639-3.029,2.339c0.745,0.755,1.63,1.282,2.651,1.583
		c1.021,0.302,2.08,0.296,3.178-0.018c0.749-0.214,1.467-0.566,2.154-1.06c0.686-0.491,1.208-1.038,1.566-1.641L420.16,330.4z
		 M413.439,320.62c-0.527-0.536-1.181-0.857-1.959-0.962c-0.779-0.105-1.5-0.063-2.164,0.126c-0.779,0.222-1.471,0.583-2.077,1.084
		c-0.606,0.5-1.082,1.073-1.429,1.718c-0.346,0.646-0.571,1.333-0.674,2.064c-0.104,0.731-0.057,1.443,0.141,2.136l0.051,0.173
		c0.638-0.493,1.321-1.024,2.049-1.591s1.453-1.14,2.176-1.721c0.725-0.581,1.417-1.13,2.081-1.646
		C412.296,321.483,412.899,321.023,413.439,320.62z"/>
	<path fill="#FFFFFF" d="M443.112,326.612l-3.463,0.988l-1.977-4.958c-0.244,1.66-0.811,3.141-1.703,4.44
		c-0.893,1.301-2.291,2.222-4.195,2.765c-1.904,0.544-3.554,0.477-4.948-0.202c-1.395-0.678-2.355-1.831-2.882-3.459l-3.816-13.371
		l4.154-1.186l3.26,11.424c0.312,0.878,0.84,1.547,1.579,2.006c0.739,0.46,1.737,0.542,2.995,0.245
		c0.836-0.238,1.56-0.601,2.17-1.087c0.609-0.485,1.093-1.061,1.449-1.725c0.356-0.663,0.576-1.396,0.659-2.2
		c0.083-0.803,0.005-1.623-0.233-2.46l-2.532-8.871l4.11-1.173L443.112,326.612z"/>
	<path fill="#FFFFFF" d="M454.513,308.289c-0.809,0.23-1.551,0.553-2.229,0.964c-0.679,0.412-1.239,0.907-1.683,1.486
		c-0.442,0.579-0.749,1.228-0.919,1.946c-0.168,0.72-0.134,1.497,0.105,2.334l2.432,8.524l-4.153,1.186l-5.249-18.391l3.635-1.037
		c0.354,1.021,0.66,1.847,0.918,2.476c0.257,0.629,0.529,1.339,0.818,2.13c0.145-0.915,0.443-1.78,0.896-2.597
		c0.453-0.814,0.955-1.543,1.506-2.185c0.551-0.64,1.122-1.178,1.716-1.612s1.121-0.718,1.583-0.85L454.513,308.289z"/>
</g>
<g>
	<path fill="#FFFFFF" d="M215.662,443.977c-0.412-1.441-0.548-2.822-0.41-4.141c0.138-1.318,0.511-2.525,1.12-3.619
		c0.608-1.094,1.414-2.041,2.418-2.844c1.003-0.801,2.183-1.395,3.539-1.781c0.923-0.264,1.76-0.393,2.51-0.389
		s1.411,0.082,1.984,0.229c0.573,0.15,1.058,0.346,1.456,0.592s0.716,0.459,0.955,0.641l-5.063-17.742l4.154-1.186l9.645,33.795
		l-4.154,1.186l-0.346-1.211c-0.042-0.145-0.072-0.307-0.093-0.488c-0.021-0.182-0.043-0.316-0.068-0.402
		c-0.186,0.334-0.423,0.705-0.711,1.115c-0.289,0.41-0.656,0.818-1.101,1.227c-0.445,0.408-0.97,0.783-1.573,1.129
		c-0.604,0.342-1.324,0.635-2.161,0.873c-1.471,0.42-2.863,0.543-4.175,0.373c-1.312-0.172-2.491-0.584-3.536-1.238
		c-1.045-0.652-1.943-1.504-2.694-2.553C216.605,446.493,216.041,445.305,215.662,443.977z M219.791,442.706
		c0.23,0.809,0.581,1.518,1.053,2.133c0.471,0.613,1.032,1.102,1.681,1.463c0.649,0.359,1.361,0.586,2.136,0.676
		c0.774,0.092,1.58,0.018,2.417-0.221c0.836-0.238,1.567-0.604,2.192-1.094s1.115-1.066,1.472-1.73
		c0.356-0.662,0.573-1.379,0.649-2.15s0.004-1.545-0.219-2.324c-0.222-0.779-0.567-1.469-1.035-2.068
		c-0.468-0.6-1.024-1.072-1.668-1.418c-0.645-0.348-1.362-0.562-2.151-0.65c-0.79-0.086-1.602-0.012-2.438,0.229
		c-0.837,0.238-1.562,0.594-2.176,1.064c-0.614,0.473-1.102,1.033-1.462,1.682s-0.582,1.352-0.662,2.107
		C219.498,441.159,219.569,441.926,219.791,442.706z"/>
	<path fill="#FFFFFF" d="M260.694,441.514l-3.462,0.988l-1.977-4.957c-0.244,1.66-0.812,3.141-1.704,4.439
		c-0.893,1.301-2.291,2.223-4.195,2.766s-3.554,0.477-4.948-0.203c-1.395-0.678-2.355-1.83-2.882-3.459l-3.816-13.371l4.154-1.186
		l3.26,11.424c0.312,0.879,0.839,1.547,1.579,2.006c0.74,0.461,1.737,0.543,2.995,0.246c0.836-0.238,1.56-0.602,2.17-1.088
		c0.61-0.484,1.093-1.061,1.45-1.725c0.356-0.662,0.576-1.396,0.659-2.199s0.005-1.623-0.234-2.461l-2.532-8.871l4.111-1.172
		L260.694,441.514z"/>
	<path fill="#FFFFFF" d="M269.677,409.891l4.11-1.174l2.297,8.049l4.804-1.371l1.062,3.721l-4.804,1.371l4.188,14.67l-4.111,1.174
		l-4.187-14.67l-3.116,0.889l-1.062-3.721l3.116-0.889L269.677,409.891z"/>
	<path fill="#FFFFFF" d="M285.088,424.118c-0.378-1.326-0.482-2.646-0.312-3.959c0.172-1.312,0.581-2.529,1.229-3.65
		c0.646-1.121,1.498-2.104,2.551-2.951c1.053-0.846,2.258-1.463,3.613-1.85c1.385-0.395,2.74-0.508,4.067-0.342
		c1.327,0.168,2.539,0.562,3.638,1.186c1.098,0.621,2.059,1.447,2.883,2.477c0.823,1.027,1.425,2.205,1.804,3.533
		c0.378,1.326,0.499,2.648,0.36,3.967c-0.139,1.32-0.516,2.543-1.129,3.67c-0.615,1.127-1.441,2.111-2.48,2.953
		s-2.265,1.465-3.678,1.869c-1.356,0.387-2.691,0.518-4.006,0.395c-1.314-0.125-2.533-0.486-3.656-1.086s-2.113-1.426-2.975-2.475
		S285.499,425.561,285.088,424.118z M289.211,422.987c0.222,0.779,0.574,1.467,1.057,2.062c0.481,0.596,1.048,1.074,1.696,1.434
		c0.648,0.361,1.354,0.59,2.113,0.684c0.76,0.096,1.53,0.033,2.309-0.189c0.779-0.223,1.467-0.574,2.062-1.057
		s1.073-1.047,1.434-1.697c0.361-0.648,0.597-1.355,0.706-2.119s0.054-1.537-0.169-2.314c-0.223-0.779-0.582-1.465-1.078-2.057
		c-0.496-0.59-1.07-1.066-1.719-1.428s-1.355-0.596-2.119-0.705c-0.765-0.109-1.536-0.053-2.314,0.168
		c-0.779,0.223-1.465,0.582-2.057,1.078c-0.592,0.498-1.067,1.07-1.428,1.719c-0.361,0.648-0.59,1.354-0.684,2.113
		C288.925,421.44,288.989,422.209,289.211,422.987z"/>
	<path fill="#FFFFFF" d="M328.741,422.096l-3.462,0.988l-1.977-4.959c-0.244,1.66-0.812,3.141-1.704,4.441s-2.291,2.221-4.195,2.764
		c-1.903,0.545-3.553,0.477-4.947-0.201s-2.355-1.832-2.883-3.459l-3.816-13.371l4.154-1.186l3.261,11.424
		c0.312,0.877,0.839,1.547,1.579,2.006c0.739,0.459,1.736,0.541,2.994,0.244c0.836-0.238,1.561-0.6,2.17-1.086
		c0.61-0.486,1.094-1.061,1.45-1.725s0.576-1.396,0.659-2.201c0.082-0.803,0.004-1.623-0.234-2.459l-2.531-8.871l4.11-1.174
		L328.741,422.096z"/>
	<path fill="#FFFFFF" d="M340.157,403.77c-0.809,0.23-1.551,0.553-2.229,0.963c-0.679,0.412-1.239,0.908-1.683,1.486
		c-0.442,0.58-0.749,1.229-0.919,1.947c-0.168,0.719-0.134,1.496,0.105,2.334l2.432,8.523l-4.153,1.186l-5.249-18.391l3.635-1.037
		c0.354,1.021,0.66,1.848,0.918,2.477c0.257,0.629,0.529,1.338,0.818,2.129c0.145-0.914,0.443-1.779,0.896-2.596
		c0.453-0.814,0.955-1.543,1.506-2.186c0.551-0.639,1.122-1.178,1.716-1.611c0.594-0.436,1.121-0.719,1.583-0.85L340.157,403.77z"/>
	<path fill="#FFFFFF" d="M339.976,390.811c-0.214-0.75-0.117-1.449,0.291-2.096s0.93-1.061,1.564-1.242s1.288-0.104,1.963,0.234
		c0.673,0.34,1.117,0.883,1.331,1.633c0.222,0.779,0.134,1.482-0.263,2.111c-0.398,0.629-0.915,1.033-1.549,1.215
		c-0.636,0.18-1.295,0.111-1.979-0.209C340.652,392.139,340.198,391.588,339.976,390.811z M351.892,415.02l-4.154,1.186
		l-5.248-18.391l4.154-1.186L351.892,415.02z"/>
	<path fill="#FFFFFF" d="M362.664,393.836c-0.099,0.309-0.224,0.664-0.374,1.066s-0.301,0.779-0.449,1.133
		c-0.148,0.355-0.319,0.795-0.513,1.316c-0.347-0.117-0.673-0.197-0.979-0.234c-0.308-0.037-0.656-0.055-1.045-0.053
		c-0.39,0.002-0.771,0.057-1.146,0.164c-0.404,0.115-0.803,0.33-1.196,0.645c-0.394,0.316-0.509,0.762-0.344,1.338
		c0.14,0.492,0.452,0.848,0.937,1.066c0.484,0.221,1.047,0.389,1.688,0.502s1.341,0.219,2.102,0.312
		c0.76,0.096,1.482,0.279,2.169,0.551c0.687,0.273,1.316,0.678,1.892,1.215c0.574,0.539,0.998,1.283,1.27,2.236
		c0.238,0.836,0.305,1.645,0.199,2.422c-0.105,0.779-0.369,1.494-0.791,2.145c-0.423,0.652-0.982,1.232-1.68,1.744
		c-0.696,0.51-1.535,0.906-2.516,1.186c-1.184,0.338-2.388,0.463-3.613,0.375c-1.226-0.086-2.264-0.414-3.111-0.982
		c0.135-0.289,0.299-0.648,0.488-1.076s0.369-0.838,0.538-1.23c0.169-0.391,0.38-0.855,0.632-1.396
		c-0.009-0.027,0.099-0.004,0.324,0.072s0.52,0.154,0.887,0.238c0.366,0.082,0.787,0.133,1.261,0.154s0.941-0.035,1.403-0.166
		c0.721-0.207,1.23-0.523,1.529-0.953c0.3-0.428,0.383-0.873,0.252-1.334c-0.133-0.461-0.434-0.781-0.906-0.959
		c-0.471-0.176-1.023-0.307-1.656-0.393c-0.633-0.084-1.329-0.174-2.089-0.27c-0.761-0.094-1.483-0.279-2.169-0.551
		c-0.687-0.271-1.32-0.691-1.904-1.258c-0.582-0.566-1.022-1.369-1.318-2.408c-0.297-1.039-0.356-1.957-0.179-2.758
		c0.177-0.799,0.5-1.5,0.968-2.102c0.468-0.6,1.021-1.094,1.66-1.479s1.289-0.672,1.953-0.861c0.895-0.256,1.877-0.342,2.945-0.256
		C360.851,393.082,361.812,393.362,362.664,393.836z"/>
	<path fill="#FFFFFF" d="M366.892,390.852l3.678-1.049c0.176,0.51,0.338,0.965,0.481,1.359c0.144,0.396,0.282,0.77,0.414,1.123
		c0.132,0.352,0.261,0.697,0.39,1.035c0.127,0.338,0.263,0.705,0.406,1.1c0.248-1.756,0.765-3.252,1.551-4.49
		c0.785-1.238,2.097-2.135,3.936-2.691c1.816-0.518,3.396-0.477,4.737,0.123s2.322,1.607,2.944,3.02
		c0.141-0.818,0.34-1.594,0.6-2.324c0.26-0.729,0.596-1.385,1.006-1.971c0.41-0.584,0.926-1.098,1.549-1.541
		s1.395-0.797,2.318-1.061c1.904-0.543,3.564-0.463,4.982,0.24c1.417,0.703,2.389,1.869,2.916,3.496l3.803,13.328l-4.153,1.186
		l-3.248-11.381c-0.313-0.877-0.837-1.562-1.569-2.055c-0.733-0.494-1.743-0.588-3.029-0.283c-1.702,0.486-2.863,1.418-3.483,2.797
		c-0.62,1.377-0.685,2.932-0.19,4.662l2.52,8.828l-4.154,1.186l-3.248-11.381c-0.312-0.877-0.843-1.561-1.59-2.049
		c-0.748-0.488-1.751-0.584-3.008-0.289c-1.703,0.486-2.863,1.418-3.484,2.797c-0.62,1.377-0.688,2.918-0.201,4.619l2.531,8.871
		l-4.154,1.186L366.892,390.852z"/>
	<path fill="#FFFFFF" d="M422.753,392.504c-0.664,1.064-1.564,2.008-2.702,2.83c-1.138,0.824-2.37,1.426-3.697,1.805
		c-1.356,0.387-2.705,0.498-4.046,0.336c-1.342-0.164-2.577-0.559-3.708-1.189c-1.132-0.627-2.123-1.453-2.976-2.473
		s-1.469-2.193-1.848-3.521c-0.378-1.326-0.475-2.648-0.289-3.965s0.594-2.539,1.223-3.67s1.455-2.117,2.479-2.955
		c1.025-0.838,2.186-1.441,3.484-1.812c2.077-0.594,4.08-0.486,6.012,0.32c1.93,0.807,3.519,2.139,4.768,3.998
		c-0.775,0.564-1.669,1.232-2.681,2.004c-1.013,0.773-2.068,1.582-3.169,2.426s-2.199,1.695-3.295,2.555
		c-1.097,0.859-2.106,1.639-3.029,2.338c0.745,0.756,1.629,1.283,2.65,1.584c1.022,0.301,2.081,0.295,3.178-0.018
		c0.75-0.215,1.468-0.566,2.154-1.061c0.686-0.49,1.209-1.037,1.567-1.641L422.753,392.504z M416.03,382.725
		c-0.527-0.537-1.18-0.857-1.959-0.963s-1.5-0.062-2.164,0.127c-0.778,0.221-1.471,0.582-2.076,1.084
		c-0.606,0.5-1.082,1.072-1.429,1.717c-0.347,0.646-0.571,1.334-0.675,2.064c-0.104,0.732-0.056,1.443,0.142,2.137l0.05,0.172
		c0.639-0.492,1.322-1.023,2.049-1.59c0.729-0.566,1.453-1.141,2.177-1.721c0.724-0.582,1.417-1.131,2.081-1.646
		C414.889,383.588,415.491,383.127,416.03,382.725z"/>
</g>
<g>
	<path fill="#FFFFFF" d="M129.465,230.007l-3.959,1.13l-0.729-9.021l18.364-5.242l0.729,9.021l-3.14,0.896l5.194,12.25
		c0.945,2.019,1.393,4.623,1.393,4.623l0.273-0.078c0,0-0.038-2.721,0.519-5.169l2.861-14.549l-3.141,0.896l-0.729-9.021
		l19.047-5.437l0.729,9.021l-3.96,1.131l-7.352,30.892l-13.926,3.975L129.465,230.007z"/>
	<path fill="#FFFFFF" d="M187.299,203.388c10.104-2.884,19.318,1.204,22.046,10.762c3.546,12.425-4.989,24.164-16.595,27.477
		c-10.036,2.864-19.299-1.137-22.046-10.763C167.177,218.507,175.625,206.72,187.299,203.388z M190.831,231.542
		c4.711-1.345,8.612-6.814,6.781-13.231c-1.188-4.164-4.641-5.911-8.327-4.858c-4.642,1.324-8.622,7.038-6.791,13.455
		C183.664,231.004,187.076,232.614,190.831,231.542z"/>
	<path fill="#FFFFFF" d="M223.308,237.26c2.458-0.701,4.789-2.105,5.531-4.68l0.107-0.399l-14.144-26.529l-3.959,1.131l-0.798-9.001
		l18.979-5.417l0.798,9.001l-3.414,0.974l5.497,12.533c0.877,2.038,1.237,4.593,1.237,4.593l0.273-0.077c0,0,0.117-2.692,0.674-5.14
		l2.969-14.948l-3.209,0.915l-0.797-9.001l18.568-5.3l0.798,9.001l-3.618,1.033l-8.659,34.587
		c-2.606,10.269-7.913,14.44-14.33,16.272c-6.622,1.89-11.195,0.094-11.195,0.094l2.733-9.565
		C217.35,237.336,219.554,238.331,223.308,237.26z"/>
	<path fill="#FFFFFF" d="M275.726,193.433l0.478-0.136c0,0-0.097-1.375-0.312-2.126c-0.585-2.049-2.866-2.283-5.188-1.62
		c-4.643,1.324-9.461,6.17-9.461,6.17l-4.825-7.852c0,0,6.194-5.977,13.977-8.197c5.871-1.676,14.365-1.664,16.82,6.938
		c1.169,4.097,0.768,11.741,1.663,14.882c0.448,1.57,1.453,2.243,3.364,1.698c0.546-0.156,1.277-0.438,1.277-0.438l0.798,9.001
		c0,0-0.829,0.458-4.379,1.471c-3.618,1.033-8.368,2.241-11.039-2.46l-0.136,0.039c0,0-2.509,6.991-9.54,8.998
		c-5.188,1.481-10.736-0.11-12.549-6.459C253.752,203.101,266.714,196.005,275.726,193.433z M271.177,210.088
		c3.276-0.936,5.628-5.889,5.58-8.902l-0.029-0.877l-1.092,0.312c-2.595,0.74-9.07,3.4-7.921,7.429
		C268.261,209.96,269.402,210.595,271.177,210.088z"/>
	<path fill="#FFFFFF" d="M314.546,211.223c4.847-1.384,7.686-4.113,7.463-9.809c-0.078-1.823-0.059-2.789-0.059-2.789l-0.068,0.02
		c-1.688,3.14-3.823,5.226-7.51,6.278c-9.285,2.649-15.544-2.725-17.862-10.849c-2.807-9.831,1.059-22.156,13.006-25.566
		c7.919-2.26,11.136,1.769,11.136,1.769l0.137-0.039c0,0-0.117-0.41-0.156-1.063c-0.067-1.014,0.928-3.218,3.59-3.978l10.786-3.078
		l0.729,9.021l-2.595,0.74c-0.887,0.253-1.434,0.926-1.336,1.784l1.974,23.727c1.117,13.487-7.378,20.711-16.116,23.205
		c-9.626,2.747-15.574,0.532-15.574,0.532l2.187-9.41C304.277,211.717,308.333,212.996,314.546,211.223z M315.252,194.04
		c5.188-1.481,6.487-8.054,5.221-12.491c-1.169-4.096-4.124-4.359-7.128-3.502c-4.915,1.402-6.643,6.473-5.181,11.593
		C309.119,192.986,311.43,195.131,315.252,194.04z"/>
	<path fill="#FFFFFF" d="M355.527,155.377c9.967-2.845,16.636,1.38,18.954,9.503c0.916,3.209,0.633,7.129,0.633,7.129l-22.119,6.313
		c0,0,0.029,0.361,0.127,0.702c1.013,3.55,4.387,5.023,8.551,3.835c5.12-1.462,9.432-6.531,9.432-6.531l5.498,7.881
		c0,0-4.907,6.347-12.895,8.627c-12.015,3.43-19.98-1.976-22.338-10.235C337.881,170.381,343.92,158.69,355.527,155.377z
		 M362.953,168.466c0,0-0.136-0.994-0.253-1.404c-0.624-2.185-2.457-3.434-4.846-2.751c-3.414,0.974-4.984,4.007-5.278,7.117
		L362.953,168.466z"/>
</g>
<g>
	<path fill="#FFFFFF" d="M195.524,177.889l5.393-1.539l-2.731-32.074l-5.462,1.559l-0.885-10.084l23.144-6.605l0.885,10.084
		l-5.53,1.578l2.742,31.333l10.513-3.001l-0.612-7.577l10.24-2.923l1.497,17.661l-38.366,10.951L195.524,177.889z"/>
	<path fill="#FFFFFF" d="M251.233,132.679c9.967-2.845,16.636,1.38,18.955,9.503c0.916,3.209,0.632,7.129,0.632,7.129l-22.119,6.313
		c0,0,0.029,0.361,0.127,0.702c1.014,3.55,4.387,5.023,8.552,3.835c5.12-1.462,9.432-6.531,9.432-6.531l5.498,7.881
		c0,0-4.907,6.347-12.895,8.627c-12.016,3.43-19.981-1.976-22.339-10.235C233.588,147.683,239.627,135.991,251.233,132.679z
		 M258.66,145.768c0,0-0.137-0.994-0.254-1.404c-0.623-2.185-2.456-3.434-4.846-2.751c-3.413,0.974-4.984,4.007-5.277,7.117
		L258.66,145.768z"/>
</g>
<g>
	<path fill="#FFFFFF" d="M134.533,313.868l0.525-0.148c0,0-0.106-1.512-0.343-2.336c-0.642-2.25-3.149-2.51-5.699-1.781
		c-5.102,1.457-10.396,6.779-10.396,6.779l-5.302-8.627c0,0,6.806-6.566,15.357-9.006c6.451-1.842,15.784-1.828,18.481,7.623
		c1.284,4.5,0.843,12.902,1.827,16.352c0.492,1.727,1.596,2.465,3.696,1.865c0.6-0.17,1.403-0.48,1.403-0.48l0.876,9.891
		c0,0-0.911,0.502-4.812,1.615c-3.976,1.135-9.194,2.463-12.129-2.703l-0.149,0.043c0,0-2.756,7.682-10.482,9.887
		c-5.701,1.627-11.798-0.121-13.788-7.098C110.389,324.491,124.632,316.694,134.533,313.868z M113.325,287.877l12.827-3.66
		l9.737,9.389l-10.202,2.912L113.325,287.877z M129.535,332.168c3.601-1.027,6.184-6.471,6.132-9.781l-0.032-0.965l-1.2,0.344
		c-2.851,0.812-9.966,3.736-8.703,8.162C126.331,332.028,127.584,332.725,129.535,332.168z"/>
	<path fill="#FFFFFF" d="M177.899,316.907l5.926-1.691l-3.064-36.037l-6.001,1.713l-0.907-10.287l19.203-5.48l19.74,25.679
		c1.521,1.918,2.698,4.908,2.698,4.908l0.301-0.086c0,0-0.738-3.439-0.898-5.99l-1.655-19.726l-6.301,1.798l-0.908-10.286
		l25.729-7.343l0.908,10.286l-6.001,1.713l3.972,46.322l-13.202,3.77l-19.869-25.562c-1.445-1.939-2.677-4.834-2.677-4.834
		l-0.301,0.086c0,0,0.718,3.365,0.952,5.895l1.709,19.631l6.301-1.799l0.908,10.287l-25.654,7.32L177.899,316.907z"/>
	<path fill="#FFFFFF" d="M259.878,278.097l0.524-0.149c0,0-0.106-1.511-0.342-2.336c-0.643-2.25-3.149-2.509-5.7-1.78
		c-5.101,1.456-10.396,6.779-10.396,6.779l-5.302-8.627c0,0,6.807-6.566,15.357-9.007c6.451-1.841,15.784-1.828,18.481,7.624
		c1.285,4.5,0.843,12.902,1.828,16.351c0.492,1.727,1.596,2.465,3.695,1.865c0.601-0.17,1.404-0.48,1.404-0.48l0.876,9.891
		c0,0-0.911,0.502-4.812,1.615c-3.976,1.135-9.194,2.463-12.129-2.703l-0.15,0.043c0,0-2.756,7.682-10.482,9.887
		c-5.7,1.627-11.797-0.121-13.788-7.098C235.734,288.719,249.976,280.923,259.878,278.097z M254.879,296.397
		c3.601-1.027,6.185-6.471,6.132-9.781l-0.032-0.965l-1.2,0.344c-2.85,0.812-9.966,3.736-8.702,8.162
		C251.675,296.256,252.929,296.954,254.879,296.397z"/>
	<path fill="#FFFFFF" d="M286.074,266.727c-0.075-1.114-0.771-1.565-1.821-1.266l-3.601,1.028l-0.876-9.891l12.302-3.511
		c3.076-0.878,4.94-0.031,5.582,2.22c0.235,0.825,0.354,2.089,0.257,3.172l0.149-0.043c0,0,2.606-8.775,11.833-11.408
		c6.376-1.82,12.183,0.336,14.281,7.687c1.37,4.801,1.174,14.349,2.052,17.424c0.492,1.726,1.596,2.465,3.696,1.865
		c0.601-0.171,1.404-0.481,1.404-0.481l0.875,9.891c0,0-1.286,0.609-4.511,1.529c-5.102,1.457-11.499,2.633-13.875-5.693
		c-1.263-4.426-1.217-13.931-1.967-16.556c-0.514-1.801-1.745-2.99-4.596-2.177c-5.401,1.542-7.707,7.959-7.173,14.378l1.441,17.274
		l-12.978,3.703L286.074,266.727z"/>
	<path fill="#FFFFFF" d="M338.309,265.449l-1.217-15.065l-5.251,1.498l-0.876-9.891l5.701-1.627l-0.95-11.004l12.452-3.555
		l0.95,11.005l8.177-2.333l0.875,9.891l-8.176,2.333l1.281,14.155c0.043,0.718,0.246,1.714,0.354,2.089
		c0.898,3.151,3.941,3.013,6.792,2.199c1.126-0.321,1.982-0.729,1.982-0.729l0.908,10.855c0,0-1.887,0.781-3.387,1.209
		c-8.477,2.42-16.587,1.003-19.135-7.924C338.533,267.656,338.384,266.563,338.309,265.449z"/>
	<path fill="#FFFFFF" d="M380.258,226.95c10.951-3.125,18.279,1.517,20.827,10.443c1.006,3.525,0.693,7.833,0.693,7.833
		l-24.304,6.936c0,0,0.032,0.396,0.14,0.771c1.112,3.901,4.819,5.521,9.396,4.214c5.626-1.605,10.363-7.176,10.363-7.176
		l6.041,8.659c0,0-5.392,6.975-14.168,9.479c-13.202,3.768-21.955-2.171-24.545-11.248
		C360.869,243.435,367.505,230.59,380.258,226.95z M388.418,241.333c0,0-0.149-1.094-0.278-1.543
		c-0.685-2.4-2.699-3.773-5.324-3.023c-3.751,1.07-5.477,4.402-5.799,7.82L388.418,241.333z"/>
	<path fill="#FFFFFF" d="M406.714,247.388l10.876-3.104l0.086,1.436c0.213,3.021,4.414,2.391,6.889,1.685
		c3.826-1.092,4.587-2.688,4.224-3.964c-1.392-4.875-18.292,2.138-21.803-10.164c-2.633-9.227,5.77-15.6,14.996-18.232
		c6.676-1.905,15.709-1.807,16.382,5.384l0.416,4.586l-10.876,3.104l-0.203-1.564c-0.3-2.187-2.84-1.705-4.415-1.255
		c-3.15,0.898-4.34,2.131-3.912,3.631c1.521,5.326,18.313-2.631,21.781,9.521c2.462,8.627-4.408,16.104-15.436,19.251
		c-6.601,1.884-17.884,2.427-18.643-6.199L406.714,247.388z"/>
</g>
</svg>
