<?xml version="1.0" encoding="utf-8"?>
<!-- Generator: Adobe Illustrator 16.0.0, SVG Export Plug-In . SVG Version: 6.00 Build 0)  -->
<!DOCTYPE svg PUBLIC "-//W3C//DTD SVG 1.1//EN" "http://www.w3.org/Graphics/SVG/1.1/DTD/svg11.dtd">
<svg version="1.1" id="Calque_1" xmlns="http://www.w3.org/2000/svg" xmlns:xlink="http://www.w3.org/1999/xlink" x="0px" y="0px"
	 width="566.409px" height="581.081px" viewBox="0 0 566.409 581.081" enable-background="new 0 0 566.409 581.081"
	 xml:space="preserve">
<polygon points="284.626,32.821 311.712,5.616 333.161,37.454 364.905,15.87 379.938,51.192 415.196,36.001 423.276,73.528 
	460.765,65.292 461.593,103.671 499.972,102.675 493.521,140.515 531.396,146.796 517.901,182.739 553.897,196.075 533.845,228.812 
	566.671,248.718 540.786,277.071 569.249,302.825 538.462,325.773 561.538,356.452 526.972,373.148 543.819,407.638 506.72,417.497 
	516.735,454.554 478.44,457.21 481.263,495.495 443.155,490.86 438.677,528.989 402.14,517.216 390.524,553.806 356.874,535.335 
	338.548,569.064 308.999,544.562 284.626,574.222 260.251,544.562 230.699,569.064 212.375,535.335 178.725,553.806 
	167.108,517.216 130.572,528.989 126.094,490.86 87.987,495.495 90.809,457.21 52.511,454.554 62.529,417.497 25.43,407.638 
	42.276,373.148 7.712,356.452 30.784,325.773 0,302.825 28.463,277.071 2.577,248.718 35.404,228.812 15.353,196.075 
	51.348,182.739 37.853,146.796 75.727,140.515 69.276,102.675 107.653,103.671 108.483,65.292 145.974,73.528 154.052,36.001 
	189.311,51.192 204.343,15.87 236.088,37.454 257.543,5.616 "/>
<g>
	<g>
		<path fill-rule="evenodd" clip-rule="evenodd" fill="#FFFFFF" d="M264.362,198.771c-17.396,4.318-34.479,8.557-51.783,12.852
			c-0.055-4.246-0.108-8.285-0.167-12.643c2.318-0.747,4.547-1.465,6.973-2.24c-0.193-14.814-0.384-29.408-0.578-44.252
			c-2.334,0.455-4.476,0.873-6.908,1.344c-0.059-4.408-0.114-8.744-0.177-13.467c10.186-2.527,20.409-5.066,30.856-7.66
			c0.06,4.432,0.115,8.766,0.176,13.373c-2.401,0.781-4.631,1.502-7.027,2.277c0.191,14.426,0.374,28.609,0.566,43.131
			c4.606-1.145,9.142-2.27,14.181-3.52c-0.043-3.207-0.084-6.49-0.133-9.992c4.789-1.189,9.088-2.252,13.706-3.4
			C264.152,182.507,264.256,190.476,264.362,198.771z"/>
		<path fill-rule="evenodd" clip-rule="evenodd" fill="#FFFFFF" d="M306.747,141.851c-6.824-5.868-19.406-4.387-28.815,3.398
			c-9.174,7.605-14.064,21.242-11.569,32.313c4.509,20.105,30.633,21.76,46.498,2.598c-1.822-3.191-3.684-6.459-5.666-9.947
			c-14.852,10.58-22.434,10.869-24.51,0.873l29.59-7.342C314.222,155.368,311.837,146.233,306.747,141.851z M283.243,161.265
			c0.504-5.041,2.883-8.084,6.873-8.973c3.516-0.783,5.365,0.941,5.814,5.822L283.243,161.265z"/>
	</g>
	<g>
		<path fill-rule="evenodd" clip-rule="evenodd" fill="#FFFFFF" d="M359.88,193.204c-7.879-5.451-19.852-2.947-27.549,5.945
			c-8.703,10.045-10.541,26.922-3.965,36.678c2.631,3.895,6.285,6.17,11.107,6.492c6.422,0.432,12.574-1.355,18.188-7.426
			c0.574,8.695-2.857,13.807-10.523,15.201c-4.693,0.846-9.33,0.602-14.35,0.875c-1.342,3.804-2.861,8.121-4.436,12.611
			c7.24,2.035,14.477,2.225,22.148-0.383c14.404-4.898,24.268-15.664,23.811-33.473c-0.195-7.959,0.223-16.07,0.373-24.125
			c0.098-6.32,0.098-6.32,5.545-9.158c0.072-3.898,0.139-7.77,0.213-12.297C373.558,187.649,365.872,184.2,359.88,193.204z
			 M358.823,213.169c-0.096,7.436-3.459,12.463-9.059,13.582c-5.527,1.1-9.115-2.977-8.957-10.195
			c0.135-6.305,3.518-10.902,9.014-12.223C355.589,202.933,358.923,206.202,358.823,213.169z"/>
		<path fill-rule="evenodd" clip-rule="evenodd" fill="#FFFFFF" d="M244.249,218.425c0.058,4.414,0.105,8.203,0.158,12.172
			c-1.333,0.65-2.602,1.273-4.125,2.012c2.484,7.506,4.907,14.848,7.355,22.236c2.169-8.369,4.367-16.852,6.64-25.623
			c-1.421-0.02-2.663-0.033-4.022-0.051c-0.049-3.906-0.101-7.693-0.154-11.838c8.101-2.008,16.147-4.004,24.429-6.06
			c0.053,4.032,0.106,7.919,0.161,12.185c-4.634,0.029-5.479,3.67-6.611,7.34c-4.266,13.844-8.536,27.686-13.017,41.494
			c-5.568,17.162-21.418,26.717-35.578,21.19c1.426-4.14,2.881-8.356,4.232-12.278c3.573-0.422,6.885-0.361,10.149-1.311
			c5.174-1.502,6.67-4.93,4.656-9.559c-4.208-9.684-8.529-19.299-12.558-29.103c-1.382-3.36-2.67-6.161-7.362-3.659
			c-0.056-4.279-0.105-8.166-0.168-12.74c4.181-1.039,8.473-2.104,12.765-3.168C235.392,220.624,239.585,219.583,244.249,218.425z"
			/>
		<path fill-rule="evenodd" clip-rule="evenodd" fill="#FFFFFF" d="M201.127,229.979c-14.05-0.906-29.133,9.869-33.674,24.047
			c-6.599,20.637,5.892,35.646,25.716,30.872c13.948-3.356,25.008-15.364,26.596-28.878
			C221.527,241.083,214.176,230.821,201.127,229.979z M203.714,255.259c0.108,7.322-4.434,13.809-10.713,15.273
			c-6.346,1.477-10.836-2.689-10.865-10.111c-0.035-7.168,4.742-13.811,10.923-15.217
			C199.023,243.845,203.602,248.171,203.714,255.259z"/>
		<path fill-rule="evenodd" clip-rule="evenodd" fill="#FFFFFF" d="M319.741,232.218c-0.08-5.277-0.021-10.604-0.344-15.811
			c-0.52-8.33-4.941-13.275-12.402-13.703c-10.451-0.607-20.064,4.014-29.17,12.518c1.922,3.5,3.734,6.799,5.646,10.264
			c1.385-1.133,2.385-2.15,3.5-2.809c3.076-1.795,6.158-3.848,9.322-5.045c4.961-1.879,7.35,0.307,6.539,5.387
			c-2.545,0.809-5.174,1.326-7.652,2.529c-4.189,2.045-8.51,4.051-12.34,6.953c-5.883,4.414-8.154,10.533-7.219,17.449
			c0.854,6.324,4.416,9.547,10.217,9.885c7.539,0.447,13.938-3.047,18.135-9.82c2.377,1.199,4.428,3.369,6.742,3.15
			c4.758-0.447,9.672-2.178,14.699-3.432c-0.051-4.264-0.105-8.15-0.16-12.021C319.841,238.245,319.847,238.243,319.741,232.218z
			 M298.286,244.403c-2.256,1.816-4.65,2.373-6.031,0.1c-1.4-2.283-0.838-5.291,1.748-7.125c2.953-2.066,6.232-3.375,9.779-5.227
			C303.812,237.837,301.897,241.509,298.286,244.403z"/>
		<path fill-rule="evenodd" clip-rule="evenodd" fill="#FFFFFF" d="M417.483,175.097c-10.004-2.854-23.412,3.326-30.074,13.867
			c-8.313,13.148-7.068,30.094,2.744,37.367c9.689,7.189,29.313,2.192,38.785-10.098c-1.896-3.264-3.83-6.576-5.748-9.873
			c-14.248,10.668-21.504,11.035-24.641,0.844l29.9-7.418C430.882,188.212,426.044,177.54,417.483,175.097z M399.468,197.396
			c0.191-4.582,2.422-7.682,6.234-8.785c3.789-1.096,5.734,0.479,6.396,5.646L399.468,197.396z"/>
		<path fill-rule="evenodd" clip-rule="evenodd" fill="#FFFFFF" d="M109.411,265.497c-0.054-4.006-0.104-7.797-0.158-11.939
			c8.252-2.045,16.448-4.08,24.972-6.195c0.05,3.857,0.1,7.729,0.154,11.879c-1.002,0.502-2.136,1.07-3.613,1.805
			c2.352,7.367,4.657,14.603,6.987,21.9c2.14-8.305,4.282-16.602,6.49-25.16c-1.271-0.021-2.405-0.037-3.783-0.061
			c-0.052-3.844-0.103-7.73-0.156-11.924c8.255-2.045,16.457-4.082,24.898-6.176c0.054,4.033,0.104,7.918,0.163,12.451
			c-5.603-0.443-6.047,4.168-7.276,8.375c-3.09,10.588-6.438,21.139-9.502,31.732c-0.783,2.714-1.93,3.889-4.371,4.369
			c-4.207,0.828-8.437,1.854-12.633,3.141c-2.547,0.781-3.472-0.1-4.3-2.369c-3.391-9.271-7.02-18.398-10.583-27.566
			C114.778,264.813,114.759,264.827,109.411,265.497z"/>
	</g>
	<g>
		<path fill-rule="evenodd" clip-rule="evenodd" fill="#FFFFFF" d="M210.575,346.38c-0.133-10.061-0.256-19.578-0.387-29.582
			c-2.494,0.459-4.859,0.895-7.489,1.379c-0.057-4.16-0.107-8.176-0.166-12.49c10.539-2.613,20.909-5.186,31.448-7.805
			c0.057,4.267,0.109,8.295,0.167,12.517c-2.393,0.71-4.543,1.351-7.104,2.114c0.255,19.363,0.507,38.666,0.769,58.654
			c-5.481,1.361-10.583,2.807-15.668,3.744c-1.051,0.191-2.275-1.279-2.999-2.367c-7.404-11.178-14.724-22.434-22.176-33.832
			c0.128,9.771,0.251,19.34,0.382,29.146c2.617-0.507,4.994-0.968,7.563-1.464c0.056,4.277,0.108,8.314,0.163,12.635
			c-10.532,2.613-20.903,5.186-31.486,7.813c-0.053-4.213-0.105-8.248-0.162-12.658c2.275-0.676,4.401-1.309,6.871-2.039
			c-0.196-15.074-0.391-30.063-0.594-45.363c-2.119,0.41-4.252,0.822-6.738,1.305c-0.053-4.027-0.104-8.041-0.164-12.766
			c7.589-1.881,15.258-3.889,22.924-5.553c0.906-0.195,1.989,1.301,2.65,2.316C195.731,323.351,203.015,334.675,210.575,346.38z"/>
		<path fill-rule="evenodd" clip-rule="evenodd" fill="#FFFFFF" d="M293.206,353.308c-0.057-4.139-1.215-28.313-1.467-36.289
			c-0.021-0.734-1.227-1.516-2.055-1.584c-1.242-0.105-2.643,0.4-4.146,0.68c-0.055-4.141-0.105-8.035-0.162-12.314
			c5.523-1.371,10.922-2.936,16.301-3.967c3.84-0.736,5.813,1.418,5.625,4.777c3.746-3.15,7.52-7.41,11.836-9.752
			c11.445-6.217,20.051-1.197,20.662,11.535c0.352,7.404,0.24,14.943,0.344,22.809c1.926-0.297,3.633-0.561,5.662-0.873
			c0.051,3.85,0.102,7.737,0.156,11.944c-7.023,1.743-14.143,3.509-21.797,5.411c-0.082-6.285-0.166-12.543-0.246-18.803
			c-0.049-3.67-0.045-7.352-0.16-11.006c-0.203-6.494-4.51-8.019-9.75-3.394c-3.863,3.411-5.209,7.97-5.578,12.528
			c-0.326,3.984,0.895,22.299,0.922,24.408C294.19,353.183,296.927,352.382,293.206,353.308z"/>
		<path fill-rule="evenodd" clip-rule="evenodd" fill="#FFFFFF" d="M276.645,339.372c0.161-5.326,0.056-10.617-0.273-15.82
			c-0.461-7.152-3.377-12.403-9.877-13.598c-11.219-2.033-21.677,2.906-31.751,12.09c2.01,3.604,3.837,6.877,5.387,9.656
			c4.613-2.604,8.65-5.299,12.829-7.133c4.594-2.001,6.913-0.227,7.315,5.096c-2.926,0.944-5.686,1.469-8.246,2.764
			c-4.31,2.15-8.728,4.311-12.65,7.338c-5.737,4.436-7.762,10.553-6.792,17.152c0.896,6.094,4.331,9.322,9.927,9.744
			c7.616,0.566,14.139-2.9,18.445-9.844c2.332,1.252,4.245,3.451,6.424,3.225c4.891-0.518,9.924-2.238,14.961-3.492
			c-0.051-4.34-0.113-8.23-0.166-12.4C277.236,346.36,276.517,343.657,276.645,339.372z M255.842,350.767
			c-2.411,2.135-5.098,3.16-6.684,0.441c-1.48-2.531-0.509-5.605,2.259-7.43c2.875-1.873,6.045-3.012,9.353-4.604
			C260.785,344.401,259.04,347.933,255.842,350.767z"/>
		<path fill-rule="evenodd" clip-rule="evenodd" fill="#FFFFFF" d="M414.593,274.94c-6.83-5.874-19.41-4.379-28.803,3.417
			c-9.18,7.612-14.064,21.239-11.57,32.31c4.533,20.104,30.746,21.75,46.467,2.619c-0.896-1.645-1.811-3.365-2.787-5.041
			c-0.959-1.662-1.988-3.268-2.961-4.865c-14.688,10.514-22.367,10.797-24.398,0.789l29.598-7.346
			C422.065,288.433,419.687,279.323,414.593,274.94z M403.89,291.067l-12.93,3.211c1.016-5.551,3.619-8.643,7.654-9
			C402.192,284.966,403.802,287.089,403.89,291.067z"/>
		<path fill-rule="evenodd" clip-rule="evenodd" fill="#FFFFFF" d="M426.56,299.743c1.326-0.326,2.404-0.594,3.48-0.859
			c2.988-0.746,5.973-1.485,8.904-2.211c1.932,5.383,4.711,6.344,10.512,3.418c1.086-0.547,2.623-2.174,2.697-3.131
			c0.086-1.08-1.02-2.58-2.004-2.807c-2.973-0.691-6.184-0.727-9.225-1.248c-5.398-0.92-10.729-2.033-12.646-8.361
			c-2.023-6.666,0.414-14,6.617-18.598c8.424-6.246,17.117-8.313,25.68-6.432c5.254,1.152,6.457,4.445,5.678,13.83
			c-4.25,1.055-8.533,2.117-13.113,3.252c0.236-5.223-3.072-4.371-6.316-3.139c-1.1,0.422-2.82,1.982-2.898,2.852
			c-0.098,1.113,0.928,2.682,1.902,2.947c2.563,0.691,5.377,0.715,8.049,1.127c2.67,0.412,5.463,0.611,7.904,1.545
			c8.545,3.279,9.109,15.459,1.232,23.639c-7.939,8.252-24.508,12.279-32.51,7.902C426.499,311.276,425.593,308.294,426.56,299.743z
			"/>
		<path fill-rule="evenodd" clip-rule="evenodd" fill="#FFFFFF" d="M347.847,299.767c-2.439,0.473-4.188,0.807-6.229,1.201
			c-0.053-4.107-0.104-8.094-0.158-12.342c2.105-0.633,4.1-1.227,6.574-1.965c-0.059-4.387-0.117-8.693-0.178-13.387
			c5.395-1.338,10.316-2.561,15.654-3.887c0.057,4.227,0.113,8.551,0.176,13.381c3.416-0.848,6.461-1.6,9.795-2.428
			c0.057,4.381,0.107,8.258,0.166,12.652c-2.996,0.746-6.047,1.498-9.535,2.367c0.092,6.902-0.031,13.375,0.344,19.693
			c0.197,3.307,2.701,4.291,5.621,4.107c1.453-0.095,2.943-0.424,4.666-0.686c0.061,4.576,0.121,9.041,0.178,13.707
			c-6.395,2.586-12.52,3.359-18.264,1.559c-5.963-1.873-8.322-7.08-8.527-13.947C347.935,313.245,347.935,306.651,347.847,299.767z"
			/>
		<g>
			<path fill-rule="evenodd" clip-rule="evenodd" fill="#FFFFFF" d="M144.938,373.317c0.161-5.465,0.052-10.902-0.298-16.246
				c-0.39-6.266-2.847-10.906-8.142-12.986c-8.889-3.508-25.522,2.496-33.222,12.105c1.816,3.229,3.659,6.479,5.158,9.135
				c4.58-2.596,8.485-5.205,12.55-7.004c4.828-2.148,7.296-0.363,7.48,5.051c-2.933,0.938-5.689,1.49-8.288,2.746
				c-4.062,1.963-8.237,3.953-11.956,6.754c-5.931,4.457-8.179,10.445-7.395,17.414c0.703,6.109,4.347,9.729,10.505,10.047
				c7.448,0.383,13.781-3.18,17.903-9.828c2.3,1.281,4.118,3.461,6.168,3.211c5.038-0.588,10.163-2.309,15.167-3.549
				c-0.06-4.359-0.113-8.246-0.159-12.332C145.75,379.81,144.808,377.524,144.938,373.317z M123.428,384.982
				c-2.296,1.767-4.658,2.261-5.986-0.093c-1.322-2.366-0.691-5.34,1.919-7.113c2.965-2.025,6.242-3.303,9.789-5.109
				C128.948,378.392,127.117,382.142,123.428,384.982z"/>
			<path fill-rule="evenodd" clip-rule="evenodd" fill="#FFFFFF" d="M105.367,329.482c5.292-1.315,9.872-2.515,14.448-3.526
				c0.792-0.174,1.804,0.195,2.321,0.754c3.178,3.43,6.241,6.98,9.392,10.549C122.756,342.851,115.622,340.776,105.367,329.482z"/>
		</g>
	</g>
</g>
</svg>
