<?xml version="1.0" encoding="utf-8"?>
<!-- Generator: Adobe Illustrator 17.0.0, SVG Export Plug-In . SVG Version: 6.00 Build 0)  -->
<!DOCTYPE svg PUBLIC "-//W3C//DTD SVG 1.1//EN" "http://www.w3.org/Graphics/SVG/1.1/DTD/svg11.dtd">
<svg version="1.1" id="Calque_1" xmlns="http://www.w3.org/2000/svg" xmlns:xlink="http://www.w3.org/1999/xlink" x="0px" y="0px"
	 width="566.409px" height="581.081px" viewBox="0 0 566.409 581.081" enable-background="new 0 0 566.409 581.081"
	 xml:space="preserve">
<g>
	<polygon points="284.626,32.821 311.712,5.616 333.161,37.454 364.905,15.87 379.938,51.192 415.196,36.001 423.276,73.528 
		460.765,65.292 461.593,103.671 499.972,102.675 493.521,140.515 531.396,146.796 517.901,182.739 553.897,196.075 
		533.845,228.812 566.671,248.718 540.786,277.071 569.249,302.825 538.462,325.773 561.538,356.452 526.972,373.148 
		543.819,407.638 506.72,417.497 516.735,454.554 478.44,457.21 481.263,495.495 443.155,490.86 438.677,528.989 402.14,517.216 
		390.524,553.806 356.874,535.335 338.548,569.064 308.999,544.562 284.626,574.222 260.251,544.562 230.699,569.064 
		212.375,535.335 178.725,553.806 167.108,517.216 130.572,528.989 126.094,490.86 87.987,495.495 90.809,457.21 52.511,454.554 
		62.529,417.497 25.43,407.638 42.276,373.148 7.712,356.452 30.784,325.773 0,302.825 28.463,277.071 2.577,248.718 
		35.404,228.812 15.353,196.075 51.348,182.739 37.853,146.796 75.727,140.515 69.276,102.675 107.653,103.671 108.483,65.292 
		145.974,73.528 154.052,36.001 189.311,51.192 204.343,15.87 236.088,37.454 257.543,5.616 	"/>
	<g>
		<path fill="#FFFFFF" d="M154.494,398.365l-9.003-31.546l5.279-1.507l7.57,26.526l15.318-4.372l1.433,5.02L154.494,398.365z"/>
		<path fill="#FFFFFF" d="M174.294,382.98c-0.378-1.327-0.479-2.663-0.301-4.009c0.178-1.345,0.578-2.591,1.203-3.736
			c0.624-1.145,1.445-2.151,2.461-3.019s2.173-1.486,3.472-1.856c0.865-0.247,1.675-0.361,2.429-0.343
			c0.754,0.02,1.425,0.102,2.012,0.245c0.587,0.145,1.068,0.327,1.443,0.548s0.631,0.404,0.767,0.553l-0.457-2.256l4.024-1.148
			l5.248,18.391l-4.197,1.198l-0.346-1.212c-0.041-0.145-0.073-0.283-0.096-0.417c-0.022-0.135-0.042-0.229-0.059-0.288
			c-0.074,0.178-0.217,0.444-0.427,0.801s-0.523,0.734-0.939,1.134c-0.417,0.399-0.938,0.789-1.562,1.171
			c-0.625,0.381-1.384,0.699-2.278,0.954c-1.413,0.403-2.785,0.515-4.116,0.333c-1.332-0.182-2.553-0.582-3.665-1.2
			c-1.112-0.619-2.069-1.43-2.871-2.434C175.239,385.385,174.657,384.25,174.294,382.98z M178.418,381.522
			c0.23,0.809,0.581,1.519,1.053,2.133s1.032,1.103,1.681,1.463s1.361,0.587,2.136,0.677c0.774,0.092,1.58,0.018,2.417-0.222
			c0.836-0.238,1.56-0.601,2.17-1.087c0.61-0.485,1.093-1.061,1.45-1.724c0.356-0.664,0.572-1.381,0.649-2.151
			c0.076-0.771,0.004-1.545-0.219-2.324c-0.222-0.779-0.567-1.468-1.034-2.068c-0.469-0.599-1.024-1.071-1.669-1.419
			c-0.645-0.346-1.354-0.564-2.129-0.655s-1.581-0.018-2.417,0.222c-0.837,0.238-1.562,0.594-2.177,1.065
			c-0.613,0.472-1.102,1.032-1.462,1.681c-0.361,0.649-0.582,1.353-0.662,2.107C178.124,379.976,178.196,380.744,178.418,381.522z"
			/>
		<path fill="#FFFFFF" d="M222.501,373.761c0.589,0.425,1.157,0.832,1.705,1.222s1.112,0.782,1.693,1.178
			c-0.647,0.902-1.435,1.696-2.361,2.382c-0.928,0.687-1.983,1.198-3.166,1.535c-1.355,0.388-2.705,0.499-4.045,0.336
			c-1.342-0.163-2.578-0.559-3.709-1.188c-1.131-0.628-2.125-1.46-2.981-2.494c-0.856-1.035-1.475-2.216-1.854-3.543
			c-0.378-1.326-0.475-2.648-0.289-3.965c0.186-1.317,0.593-2.54,1.222-3.672c0.629-1.131,1.47-2.119,2.523-2.966
			c1.053-0.846,2.257-1.463,3.613-1.851c1.211-0.346,2.398-0.474,3.563-0.385c1.164,0.089,2.273,0.342,3.328,0.758l-1.763,3.826
			c-1.232-0.491-2.556-0.535-3.969-0.132c-0.837,0.239-1.56,0.603-2.17,1.088c-0.609,0.486-1.098,1.047-1.462,1.681
			c-0.365,0.635-0.588,1.33-0.668,2.086c-0.081,0.757-0.006,1.538,0.225,2.346c0.223,0.779,0.566,1.469,1.035,2.068
			c0.467,0.6,1.027,1.087,1.681,1.462c0.652,0.376,1.367,0.608,2.142,0.699s1.58,0.018,2.417-0.222
			C220.654,375.599,221.75,374.849,222.501,373.761z"/>
		<path fill="#FFFFFF" d="M247.573,372.27l-3.462,0.988l-1.977-4.958c-0.244,1.66-0.812,3.141-1.704,4.44
			c-0.893,1.301-2.291,2.222-4.194,2.765c-1.904,0.544-3.554,0.477-4.948-0.202c-1.395-0.678-2.355-1.831-2.883-3.459l-3.815-13.371
			l4.154-1.186l3.26,11.424c0.312,0.878,0.839,1.547,1.579,2.006c0.739,0.46,1.737,0.542,2.994,0.245
			c0.837-0.238,1.561-0.601,2.17-1.087c0.61-0.485,1.094-1.061,1.45-1.725c0.356-0.663,0.576-1.396,0.659-2.2
			c0.082-0.803,0.005-1.623-0.234-2.46l-2.531-8.871l4.11-1.173L247.573,372.27z"/>
		<path fill="#FFFFFF" d="M256.649,369.211l-4.111,1.173l-9.645-33.796l4.11-1.173L256.649,369.211z"/>
		<path fill="#FFFFFF" d="M255.913,340.829l4.11-1.174l2.297,8.049l4.804-1.37l1.062,3.721l-4.803,1.371l4.187,14.669l-4.111,1.174
			l-4.187-14.67l-3.115,0.89l-1.062-3.722l3.116-0.889L255.913,340.829z"/>
		<path fill="#FFFFFF" d="M293.038,359.295l-3.462,0.988l-1.977-4.958c-0.244,1.661-0.812,3.141-1.704,4.44
			c-0.893,1.301-2.291,2.222-4.195,2.765c-1.903,0.544-3.554,0.477-4.948-0.202c-1.395-0.678-2.355-1.831-2.882-3.459l-3.816-13.371
			l4.154-1.186l3.261,11.424c0.312,0.878,0.839,1.547,1.578,2.006c0.74,0.46,1.737,0.542,2.995,0.245
			c0.836-0.238,1.56-0.601,2.17-1.087c0.61-0.485,1.093-1.061,1.45-1.725c0.355-0.663,0.576-1.396,0.658-2.2
			c0.083-0.803,0.005-1.623-0.233-2.46l-2.532-8.871l4.111-1.173L293.038,359.295z"/>
		<path fill="#FFFFFF" d="M304.481,340.96c-0.808,0.23-1.551,0.553-2.229,0.964c-0.678,0.412-1.238,0.907-1.682,1.486
			s-0.749,1.228-0.919,1.946c-0.169,0.72-0.134,1.497,0.104,2.334l2.433,8.524l-4.153,1.186l-5.249-18.391l3.635-1.037
			c0.354,1.021,0.66,1.847,0.917,2.476c0.258,0.629,0.53,1.339,0.818,2.13c0.145-0.915,0.443-1.78,0.897-2.597
			c0.453-0.814,0.955-1.543,1.506-2.185c0.55-0.64,1.122-1.178,1.716-1.612s1.121-0.718,1.583-0.85L304.481,340.96z"/>
		<path fill="#FFFFFF" d="M326.889,346.873c-0.663,1.063-1.564,2.007-2.701,2.83c-1.139,0.823-2.371,1.426-3.697,1.804
			c-1.356,0.388-2.705,0.499-4.046,0.336c-1.342-0.163-2.577-0.559-3.708-1.188c-1.132-0.628-2.123-1.453-2.976-2.473
			c-0.853-1.021-1.469-2.193-1.848-3.521c-0.378-1.326-0.475-2.648-0.289-3.965s0.593-2.54,1.222-3.671s1.456-2.116,2.479-2.954
			c1.024-0.838,2.186-1.442,3.484-1.813c2.077-0.593,4.08-0.485,6.011,0.32c1.931,0.807,3.52,2.139,4.768,3.998
			c-0.774,0.564-1.668,1.232-2.68,2.005c-1.013,0.772-2.069,1.581-3.169,2.425c-1.101,0.845-2.199,1.696-3.296,2.555
			c-1.096,0.859-2.105,1.639-3.029,2.339c0.746,0.755,1.63,1.282,2.651,1.583c1.022,0.302,2.081,0.296,3.178-0.018
			c0.749-0.214,1.468-0.566,2.154-1.06c0.686-0.491,1.208-1.038,1.567-1.641L326.889,346.873z M320.167,337.092
			c-0.527-0.536-1.181-0.856-1.959-0.962c-0.779-0.105-1.5-0.063-2.164,0.126c-0.778,0.222-1.471,0.583-2.077,1.084
			c-0.605,0.5-1.082,1.073-1.428,1.718c-0.347,0.646-0.572,1.333-0.675,2.064c-0.104,0.731-0.056,1.443,0.142,2.136l0.05,0.173
			c0.638-0.493,1.321-1.024,2.049-1.591s1.453-1.14,2.177-1.721s1.416-1.13,2.08-1.646
			C319.026,337.956,319.627,337.496,320.167,337.092z"/>
		<path fill="#FFFFFF" d="M352.995,336.521c0.589,0.425,1.157,0.832,1.705,1.222s1.112,0.782,1.693,1.178
			c-0.647,0.902-1.435,1.696-2.361,2.382c-0.928,0.687-1.983,1.198-3.166,1.535c-1.355,0.388-2.705,0.499-4.045,0.336
			c-1.342-0.163-2.578-0.559-3.709-1.188c-1.131-0.628-2.125-1.46-2.981-2.494c-0.856-1.035-1.475-2.216-1.854-3.543
			c-0.378-1.326-0.475-2.648-0.289-3.965c0.186-1.317,0.593-2.54,1.222-3.672c0.629-1.131,1.47-2.119,2.523-2.966
			c1.053-0.846,2.257-1.463,3.613-1.851c1.211-0.346,2.398-0.474,3.563-0.385c1.164,0.089,2.273,0.342,3.328,0.758l-1.763,3.826
			c-1.232-0.491-2.556-0.534-3.969-0.132c-0.837,0.239-1.56,0.603-2.17,1.088c-0.609,0.486-1.098,1.047-1.462,1.681
			c-0.365,0.635-0.588,1.33-0.668,2.086c-0.081,0.757-0.006,1.538,0.225,2.346c0.223,0.779,0.567,1.469,1.035,2.068
			c0.467,0.6,1.027,1.087,1.681,1.462c0.652,0.376,1.367,0.608,2.142,0.699s1.58,0.018,2.417-0.222
			C351.147,338.359,352.244,337.609,352.995,336.521z"/>
		<path fill="#FFFFFF" d="M356.053,330.875c-0.378-1.326-0.482-2.646-0.311-3.959c0.171-1.312,0.58-2.529,1.228-3.649
			c0.647-1.121,1.498-2.104,2.551-2.951c1.053-0.846,2.258-1.463,3.613-1.85c1.385-0.396,2.74-0.509,4.067-0.342
			s2.539,0.562,3.638,1.185c1.098,0.622,2.059,1.448,2.883,2.477c0.823,1.028,1.425,2.206,1.804,3.533s0.499,2.649,0.36,3.968
			c-0.139,1.319-0.515,2.542-1.129,3.669s-1.441,2.111-2.479,2.953c-1.039,0.843-2.266,1.466-3.679,1.869
			c-1.356,0.387-2.691,0.518-4.006,0.395c-1.314-0.124-2.533-0.486-3.655-1.086c-1.123-0.6-2.114-1.425-2.976-2.474
			S356.465,332.318,356.053,330.875z M360.176,329.745c0.223,0.779,0.574,1.467,1.057,2.062c0.481,0.597,1.047,1.074,1.696,1.435
			c0.648,0.361,1.354,0.59,2.114,0.684c0.76,0.096,1.529,0.032,2.309-0.19c0.778-0.223,1.466-0.574,2.062-1.057
			c0.596-0.481,1.073-1.047,1.435-1.696c0.36-0.648,0.596-1.355,0.705-2.12c0.109-0.764,0.053-1.536-0.169-2.314
			c-0.223-0.779-0.582-1.464-1.078-2.056c-0.496-0.591-1.069-1.067-1.718-1.429c-0.649-0.36-1.356-0.596-2.12-0.705
			c-0.765-0.109-1.536-0.053-2.314,0.169c-0.779,0.223-1.465,0.582-2.056,1.078c-0.592,0.497-1.068,1.07-1.429,1.718
			c-0.361,0.649-0.589,1.354-0.684,2.114C359.89,328.197,359.954,328.965,360.176,329.745z"/>
		<path fill="#FFFFFF" d="M376.824,315.027l3.679-1.05c0.176,0.511,0.337,0.965,0.481,1.36c0.144,0.396,0.282,0.77,0.414,1.122
			c0.131,0.353,0.261,0.697,0.389,1.035c0.127,0.338,0.264,0.705,0.407,1.101c0.248-1.756,0.765-3.252,1.55-4.49
			c0.786-1.238,2.098-2.135,3.936-2.691c1.817-0.519,3.396-0.478,4.738,0.122c1.341,0.601,2.322,1.607,2.944,3.021
			c0.141-0.819,0.34-1.595,0.6-2.324c0.26-0.729,0.595-1.386,1.006-1.971c0.409-0.585,0.926-1.099,1.549-1.542
			c0.622-0.442,1.395-0.796,2.318-1.06c1.903-0.543,3.564-0.463,4.981,0.239c1.418,0.703,2.389,1.869,2.917,3.497l3.803,13.327
			l-4.153,1.186l-3.248-11.38c-0.313-0.878-0.837-1.563-1.569-2.057c-0.733-0.492-1.743-0.586-3.029-0.281
			c-1.702,0.485-2.863,1.418-3.483,2.796c-0.621,1.378-0.685,2.933-0.19,4.663l2.52,8.828l-4.154,1.186l-3.248-11.381
			c-0.312-0.877-0.843-1.562-1.591-2.05s-1.75-0.584-3.007-0.288c-1.703,0.485-2.864,1.418-3.484,2.796s-0.688,2.919-0.202,4.62
			l2.531,8.871l-4.153,1.186L376.824,315.027z"/>
		<path fill="#FFFFFF" d="M412.29,304.906l3.678-1.05c0.177,0.511,0.338,0.965,0.481,1.36c0.145,0.396,0.282,0.77,0.414,1.122
			s0.262,0.697,0.39,1.035c0.127,0.338,0.263,0.705,0.407,1.101c0.248-1.756,0.764-3.252,1.55-4.49
			c0.785-1.238,2.097-2.135,3.936-2.691c1.817-0.519,3.396-0.478,4.737,0.122c1.341,0.601,2.322,1.607,2.944,3.021
			c0.141-0.819,0.341-1.595,0.601-2.324c0.26-0.729,0.595-1.386,1.005-1.971s0.927-1.099,1.549-1.542
			c0.623-0.442,1.395-0.796,2.318-1.06c1.904-0.543,3.564-0.463,4.982,0.239c1.417,0.703,2.389,1.869,2.916,3.497l3.804,13.327
			l-4.154,1.186l-3.248-11.38c-0.312-0.878-0.836-1.563-1.569-2.056c-0.733-0.493-1.743-0.587-3.028-0.282
			c-1.703,0.485-2.864,1.418-3.484,2.796s-0.684,2.933-0.189,4.663l2.519,8.828l-4.153,1.186l-3.248-11.381
			c-0.313-0.877-0.844-1.562-1.591-2.05c-0.748-0.488-1.751-0.584-3.008-0.288c-1.702,0.485-2.863,1.418-3.483,2.796
			c-0.621,1.378-0.688,2.919-0.202,4.62l2.531,8.871l-4.154,1.186L412.29,304.906z"/>
		<path fill="#FFFFFF" d="M468.164,306.555c-0.663,1.063-1.564,2.007-2.701,2.83c-1.139,0.823-2.371,1.426-3.697,1.804
			c-1.356,0.388-2.705,0.499-4.046,0.336s-2.577-0.559-3.708-1.188c-1.132-0.628-2.123-1.453-2.976-2.473
			c-0.853-1.021-1.469-2.193-1.848-3.521c-0.378-1.326-0.475-2.648-0.289-3.965s0.593-2.54,1.222-3.671s1.456-2.116,2.479-2.954
			c1.024-0.838,2.186-1.442,3.484-1.813c2.077-0.593,4.08-0.485,6.011,0.32c1.931,0.807,3.52,2.139,4.768,3.998
			c-0.774,0.564-1.668,1.232-2.68,2.005c-1.013,0.772-2.068,1.581-3.169,2.425c-1.101,0.845-2.199,1.696-3.295,2.555
			c-1.097,0.859-2.106,1.639-3.03,2.339c0.746,0.755,1.63,1.282,2.651,1.583c1.022,0.302,2.081,0.296,3.178-0.018
			c0.749-0.214,1.468-0.566,2.154-1.06c0.686-0.491,1.208-1.038,1.567-1.641L468.164,306.555z M461.443,296.775
			c-0.527-0.536-1.181-0.856-1.959-0.962c-0.779-0.105-1.5-0.063-2.164,0.126c-0.778,0.222-1.471,0.583-2.077,1.084
			c-0.605,0.5-1.082,1.073-1.428,1.718c-0.347,0.646-0.572,1.333-0.675,2.064c-0.104,0.731-0.056,1.443,0.142,2.136l0.05,0.173
			c0.638-0.493,1.321-1.024,2.049-1.591s1.453-1.14,2.177-1.721s1.416-1.13,2.08-1.646
			C460.301,297.638,460.903,297.178,461.443,296.775z"/>
	</g>
	<g>
		<path fill="#FFFFFF" d="M155.802,440.947l3.679-1.049c0.176,0.51,0.337,0.965,0.481,1.359c0.144,0.396,0.282,0.77,0.414,1.123
			c0.131,0.352,0.261,0.697,0.389,1.035c0.127,0.338,0.264,0.705,0.407,1.1c0.248-1.756,0.765-3.252,1.55-4.49
			c0.786-1.238,2.098-2.135,3.936-2.691c1.817-0.518,3.396-0.477,4.738,0.123c1.341,0.6,2.322,1.607,2.944,3.02
			c0.141-0.818,0.34-1.594,0.6-2.324c0.26-0.729,0.595-1.385,1.006-1.971c0.409-0.584,0.926-1.098,1.549-1.541
			c0.622-0.443,1.395-0.797,2.318-1.061c1.903-0.543,3.564-0.463,4.981,0.24c1.418,0.703,2.39,1.869,2.917,3.496l3.803,13.328
			l-4.153,1.186l-3.248-11.381c-0.313-0.877-0.837-1.562-1.569-2.055c-0.733-0.494-1.743-0.588-3.029-0.283
			c-1.702,0.486-2.863,1.418-3.483,2.797c-0.621,1.377-0.685,2.932-0.19,4.662l2.52,8.828l-4.154,1.186l-3.248-11.381
			c-0.312-0.877-0.843-1.561-1.591-2.049s-1.75-0.584-3.007-0.289c-1.703,0.486-2.864,1.418-3.484,2.797
			c-0.62,1.377-0.688,2.918-0.202,4.619l2.531,8.871l-4.153,1.186L155.802,440.947z"/>
		<path fill="#FFFFFF" d="M192.68,440.343c-0.378-1.326-0.482-2.646-0.311-3.959c0.171-1.312,0.58-2.529,1.228-3.65
			s1.498-2.104,2.551-2.951c1.053-0.846,2.258-1.463,3.613-1.85c1.385-0.395,2.74-0.508,4.067-0.342
			c1.327,0.168,2.539,0.562,3.638,1.186c1.098,0.621,2.059,1.447,2.883,2.477c0.823,1.027,1.425,2.205,1.804,3.533
			c0.379,1.326,0.499,2.648,0.36,3.967c-0.139,1.32-0.515,2.543-1.129,3.67s-1.441,2.111-2.479,2.953
			c-1.039,0.842-2.266,1.465-3.679,1.869c-1.356,0.387-2.691,0.518-4.006,0.395c-1.314-0.125-2.533-0.486-3.655-1.086
			c-1.123-0.6-2.114-1.426-2.976-2.475S193.092,441.787,192.68,440.343z M196.803,439.212c0.223,0.779,0.574,1.467,1.057,2.062
			c0.481,0.596,1.047,1.074,1.696,1.434c0.648,0.361,1.354,0.59,2.114,0.684c0.76,0.096,1.529,0.033,2.309-0.189
			c0.778-0.223,1.466-0.574,2.062-1.057s1.073-1.047,1.435-1.697c0.36-0.648,0.596-1.355,0.705-2.119s0.053-1.537-0.169-2.314
			c-0.223-0.779-0.582-1.465-1.078-2.057c-0.496-0.59-1.069-1.066-1.718-1.428c-0.649-0.361-1.356-0.596-2.12-0.705
			c-0.765-0.109-1.536-0.053-2.314,0.168c-0.779,0.223-1.465,0.582-2.056,1.078c-0.592,0.498-1.068,1.07-1.429,1.719
			c-0.361,0.648-0.589,1.354-0.684,2.113C196.517,437.666,196.581,438.435,196.803,439.212z"/>
		<path fill="#FFFFFF" d="M212.462,416.072l4.111-1.174l2.297,8.049l4.803-1.369l1.062,3.721l-4.804,1.371l4.187,14.668l-4.11,1.174
			l-4.187-14.67l-3.116,0.891l-1.062-3.723l3.115-0.889L212.462,416.072z"/>
		<path fill="#FFFFFF" d="M246.841,432.56c-0.663,1.064-1.564,2.008-2.701,2.83c-1.139,0.824-2.371,1.426-3.697,1.805
			c-1.356,0.387-2.705,0.498-4.046,0.336c-1.342-0.164-2.577-0.559-3.708-1.189c-1.132-0.627-2.123-1.453-2.976-2.473
			s-1.469-2.193-1.848-3.521c-0.378-1.326-0.475-2.648-0.289-3.965s0.593-2.539,1.222-3.67s1.456-2.117,2.479-2.955
			c1.024-0.838,2.186-1.443,3.484-1.812c2.077-0.594,4.08-0.486,6.011,0.32c1.93,0.807,3.52,2.139,4.768,3.996
			c-0.774,0.566-1.668,1.234-2.68,2.006c-1.013,0.773-2.069,1.582-3.169,2.426c-1.101,0.844-2.199,1.695-3.296,2.555
			c-1.096,0.859-2.105,1.639-3.029,2.338c0.746,0.756,1.63,1.283,2.651,1.584c1.022,0.301,2.081,0.295,3.178-0.018
			c0.749-0.215,1.468-0.566,2.154-1.061c0.686-0.49,1.208-1.037,1.567-1.641L246.841,432.56z M240.12,422.781
			c-0.527-0.537-1.181-0.857-1.959-0.963c-0.779-0.105-1.501-0.062-2.164,0.127c-0.778,0.221-1.471,0.582-2.077,1.084
			c-0.605,0.5-1.082,1.072-1.428,1.717c-0.347,0.646-0.572,1.334-0.675,2.064c-0.104,0.732-0.056,1.443,0.142,2.137l0.049,0.172
			c0.639-0.492,1.322-1.023,2.05-1.59s1.453-1.141,2.177-1.721c0.724-0.582,1.416-1.131,2.08-1.646
			C238.977,423.644,239.579,423.183,240.12,422.781z"/>
		<path fill="#FFFFFF" d="M269.765,428.781l-3.462,0.988l-1.977-4.959c-0.244,1.66-0.812,3.141-1.704,4.441
			s-2.291,2.221-4.195,2.764c-1.903,0.545-3.554,0.477-4.948-0.201s-2.355-1.832-2.882-3.459l-3.816-13.371l4.154-1.186
			l3.261,11.424c0.312,0.877,0.839,1.547,1.578,2.006c0.74,0.459,1.737,0.541,2.995,0.244c0.836-0.238,1.56-0.6,2.17-1.086
			s1.093-1.061,1.45-1.725c0.355-0.664,0.576-1.396,0.658-2.201c0.083-0.803,0.005-1.623-0.233-2.459l-2.532-8.871l4.111-1.174
			L269.765,428.781z"/>
		<path fill="#FFFFFF" d="M281.229,410.439c-0.808,0.23-1.551,0.553-2.229,0.965s-1.238,0.906-1.682,1.486
			c-0.443,0.578-0.749,1.227-0.919,1.945c-0.169,0.721-0.134,1.498,0.104,2.334l2.433,8.525l-4.153,1.186l-5.249-18.391l3.635-1.037
			c0.354,1.021,0.66,1.846,0.917,2.475c0.258,0.629,0.53,1.34,0.818,2.131c0.145-0.916,0.443-1.781,0.897-2.598
			c0.453-0.814,0.955-1.543,1.506-2.184c0.55-0.641,1.122-1.178,1.716-1.613c0.594-0.434,1.121-0.717,1.583-0.85L281.229,410.439z"
			/>
		<path fill="#FFFFFF" d="M294.045,411.462c-0.412-1.443-0.549-2.822-0.41-4.143c0.139-1.318,0.512-2.523,1.12-3.619
			c0.607-1.092,1.413-2.041,2.418-2.842c1.003-0.801,2.183-1.395,3.539-1.783c0.923-0.262,1.76-0.393,2.51-0.389
			c0.75,0.006,1.411,0.082,1.983,0.23c0.573,0.148,1.059,0.346,1.456,0.59c0.397,0.246,0.716,0.459,0.955,0.641l-5.063-17.742
			l4.154-1.186l9.645,33.797l-4.154,1.186l-0.346-1.213c-0.041-0.143-0.072-0.307-0.093-0.488c-0.021-0.18-0.043-0.314-0.067-0.4
			c-0.186,0.332-0.423,0.705-0.712,1.115c-0.288,0.41-0.655,0.818-1.101,1.227c-0.444,0.408-0.97,0.783-1.573,1.127
			s-1.324,0.635-2.16,0.875c-1.472,0.42-2.863,0.543-4.176,0.371c-1.312-0.17-2.491-0.582-3.535-1.236
			c-1.045-0.654-1.943-1.504-2.694-2.555C294.989,413.976,294.423,412.789,294.045,411.462z M298.174,410.189
			c0.23,0.809,0.581,1.52,1.054,2.133c0.471,0.615,1.031,1.104,1.681,1.463c0.648,0.361,1.36,0.588,2.136,0.678
			c0.774,0.092,1.579,0.018,2.416-0.223c0.837-0.238,1.567-0.602,2.192-1.092c0.624-0.49,1.114-1.068,1.472-1.73
			c0.355-0.664,0.572-1.381,0.649-2.152c0.076-0.77,0.004-1.545-0.219-2.324c-0.223-0.777-0.567-1.467-1.035-2.066
			s-1.023-1.072-1.668-1.42c-0.646-0.346-1.362-0.562-2.151-0.65c-0.789-0.086-1.602-0.01-2.438,0.229s-1.562,0.594-2.176,1.066
			c-0.614,0.471-1.102,1.031-1.463,1.68c-0.36,0.65-0.581,1.354-0.661,2.107C297.881,408.644,297.953,409.412,298.174,410.189z"/>
		<path fill="#FFFFFF" d="M339.071,409.001l-3.462,0.988l-1.977-4.959c-0.244,1.66-0.812,3.141-1.704,4.441
			s-2.291,2.221-4.195,2.764c-1.903,0.545-3.554,0.477-4.948-0.201s-2.355-1.832-2.882-3.459l-3.816-13.371l4.154-1.186
			l3.261,11.424c0.312,0.877,0.839,1.547,1.578,2.006c0.74,0.459,1.737,0.541,2.995,0.244c0.836-0.238,1.56-0.6,2.17-1.086
			s1.093-1.061,1.45-1.725c0.355-0.664,0.576-1.396,0.658-2.201c0.083-0.803,0.005-1.623-0.233-2.459l-2.532-8.871l4.111-1.174
			L339.071,409.001z"/>
		<path fill="#FFFFFF" d="M348.046,377.378l4.11-1.174l2.297,8.049l4.804-1.369l1.062,3.721l-4.803,1.371l4.187,14.668l-4.111,1.174
			l-4.187-14.67l-3.115,0.891l-1.062-3.723l3.116-0.889L348.046,377.378z"/>
		<path fill="#FFFFFF" d="M363.449,391.607c-0.378-1.326-0.482-2.646-0.311-3.959c0.171-1.312,0.58-2.529,1.228-3.648
			c0.647-1.121,1.498-2.105,2.551-2.951s2.258-1.463,3.613-1.85c1.385-0.396,2.74-0.51,4.067-0.342
			c1.327,0.166,2.539,0.561,3.638,1.184c1.098,0.623,2.059,1.449,2.883,2.477c0.823,1.029,1.425,2.207,1.804,3.533
			c0.379,1.328,0.499,2.65,0.36,3.969s-0.515,2.541-1.129,3.668s-1.441,2.111-2.479,2.953c-1.039,0.844-2.266,1.467-3.679,1.869
			c-1.356,0.387-2.691,0.518-4.006,0.395s-2.533-0.486-3.655-1.086c-1.123-0.6-2.114-1.424-2.976-2.473
			S363.861,393.05,363.449,391.607z M367.572,390.478c0.223,0.779,0.574,1.467,1.057,2.061c0.481,0.598,1.048,1.074,1.696,1.436
			s1.354,0.59,2.114,0.684c0.76,0.096,1.529,0.031,2.309-0.191c0.778-0.223,1.466-0.574,2.062-1.057
			c0.596-0.48,1.073-1.047,1.435-1.695c0.36-0.648,0.596-1.355,0.705-2.121c0.109-0.764,0.054-1.535-0.169-2.314
			s-0.582-1.463-1.078-2.055s-1.069-1.068-1.718-1.43c-0.649-0.359-1.356-0.596-2.12-0.705c-0.765-0.109-1.536-0.053-2.314,0.17
			c-0.779,0.223-1.465,0.582-2.056,1.078c-0.592,0.496-1.068,1.07-1.429,1.717c-0.361,0.65-0.589,1.355-0.684,2.115
			C367.286,388.929,367.35,389.699,367.572,390.478z"/>
		<path fill="#FFFFFF" d="M407.104,389.585l-3.462,0.988l-1.977-4.959c-0.244,1.66-0.812,3.141-1.704,4.441
			s-2.291,2.221-4.195,2.764c-1.903,0.545-3.554,0.477-4.948-0.201s-2.355-1.832-2.882-3.459l-3.816-13.371l4.154-1.186
			l3.261,11.424c0.312,0.877,0.839,1.547,1.578,2.006c0.74,0.459,1.737,0.541,2.995,0.244c0.836-0.238,1.56-0.6,2.17-1.086
			s1.093-1.061,1.45-1.725c0.355-0.664,0.576-1.396,0.658-2.201c0.083-0.803,0.005-1.623-0.233-2.459l-2.532-8.871l4.111-1.174
			L407.104,389.585z"/>
		<path fill="#FFFFFF" d="M418.549,371.25c-0.808,0.23-1.551,0.553-2.229,0.965s-1.238,0.906-1.682,1.486
			c-0.443,0.578-0.749,1.227-0.919,1.945c-0.169,0.721-0.134,1.498,0.104,2.334l2.433,8.525l-4.153,1.186l-5.249-18.391l3.635-1.037
			c0.354,1.021,0.66,1.846,0.917,2.475c0.258,0.629,0.53,1.34,0.818,2.131c0.145-0.916,0.443-1.781,0.897-2.598
			c0.453-0.814,0.955-1.543,1.506-2.184c0.55-0.641,1.122-1.178,1.716-1.613c0.594-0.434,1.121-0.717,1.583-0.85L418.549,371.25z"/>
		<path fill="#FFFFFF" d="M418.36,358.294c-0.214-0.75-0.117-1.447,0.291-2.096c0.408-0.646,0.93-1.061,1.564-1.242
			c0.635-0.18,1.288-0.102,1.963,0.236c0.673,0.338,1.117,0.883,1.331,1.633c0.223,0.777,0.135,1.482-0.263,2.109
			c-0.398,0.629-0.915,1.033-1.549,1.215c-0.636,0.182-1.295,0.111-1.979-0.207C419.036,359.623,418.582,359.074,418.36,358.294z
			 M430.276,382.503l-4.153,1.186l-5.249-18.391l4.154-1.186L430.276,382.503z"/>
		<path fill="#FFFFFF" d="M441.052,361.318c-0.099,0.311-0.224,0.666-0.374,1.066c-0.15,0.402-0.3,0.781-0.448,1.135
			c-0.149,0.355-0.32,0.793-0.514,1.316c-0.346-0.119-0.673-0.197-0.979-0.234c-0.308-0.037-0.655-0.055-1.045-0.055
			c-0.39,0.004-0.771,0.057-1.146,0.164c-0.404,0.115-0.803,0.332-1.196,0.646s-0.508,0.762-0.344,1.338
			c0.141,0.49,0.452,0.846,0.937,1.066s1.047,0.389,1.688,0.502s1.341,0.217,2.102,0.312c0.76,0.094,1.483,0.277,2.169,0.551
			c0.687,0.271,1.316,0.676,1.892,1.215c0.574,0.537,0.998,1.283,1.27,2.234c0.238,0.838,0.306,1.645,0.2,2.424
			c-0.105,0.777-0.369,1.494-0.792,2.145s-0.982,1.232-1.679,1.742c-0.697,0.51-1.536,0.906-2.517,1.186
			c-1.183,0.338-2.388,0.463-3.612,0.377c-1.227-0.088-2.264-0.414-3.112-0.984c0.136-0.287,0.299-0.646,0.488-1.076
			c0.189-0.428,0.369-0.838,0.538-1.229c0.17-0.393,0.38-0.857,0.631-1.396c-0.008-0.029,0.1-0.006,0.325,0.07
			c0.224,0.076,0.52,0.156,0.887,0.238c0.366,0.082,0.787,0.135,1.261,0.154c0.475,0.021,0.941-0.033,1.403-0.166
			c0.721-0.205,1.231-0.521,1.53-0.951c0.299-0.428,0.383-0.873,0.251-1.336c-0.132-0.461-0.434-0.779-0.905-0.957
			s-1.024-0.309-1.657-0.393c-0.632-0.086-1.329-0.176-2.089-0.27c-0.76-0.096-1.483-0.279-2.169-0.551
			c-0.687-0.273-1.32-0.691-1.903-1.26c-0.583-0.566-1.023-1.369-1.319-2.408c-0.297-1.037-0.356-1.957-0.179-2.756
			c0.177-0.799,0.5-1.5,0.968-2.102s1.021-1.094,1.66-1.48c0.64-0.385,1.29-0.672,1.954-0.861c0.894-0.256,1.876-0.34,2.945-0.256
			C439.239,360.566,440.2,360.845,441.052,361.318z"/>
		<path fill="#FFFFFF" d="M445.257,358.341l3.678-1.051c0.177,0.512,0.338,0.965,0.481,1.361c0.145,0.395,0.282,0.77,0.414,1.121
			c0.132,0.354,0.262,0.697,0.39,1.035c0.127,0.338,0.263,0.705,0.407,1.102c0.248-1.756,0.764-3.252,1.55-4.49
			c0.785-1.238,2.097-2.135,3.936-2.691c1.817-0.52,3.396-0.479,4.737,0.121c1.341,0.602,2.322,1.607,2.944,3.021
			c0.141-0.82,0.341-1.596,0.601-2.324s0.595-1.387,1.005-1.971c0.41-0.586,0.927-1.1,1.549-1.543
			c0.623-0.441,1.395-0.795,2.318-1.059c1.904-0.543,3.564-0.463,4.982,0.238c1.417,0.703,2.389,1.869,2.916,3.498l3.804,13.326
			l-4.154,1.186l-3.248-11.379c-0.312-0.879-0.836-1.564-1.569-2.057s-1.743-0.586-3.028-0.281
			c-1.703,0.484-2.864,1.418-3.484,2.795c-0.62,1.379-0.684,2.934-0.189,4.664l2.519,8.828l-4.153,1.186l-3.248-11.381
			c-0.313-0.877-0.844-1.562-1.591-2.051c-0.748-0.488-1.751-0.584-3.008-0.287c-1.702,0.484-2.863,1.418-3.483,2.795
			c-0.621,1.379-0.688,2.92-0.202,4.621l2.531,8.871l-4.154,1.186L445.257,358.341z"/>
		<path fill="#FFFFFF" d="M501.145,359.986c-0.664,1.064-1.564,2.008-2.702,2.83c-1.138,0.824-2.37,1.426-3.697,1.805
			c-1.355,0.387-2.705,0.498-4.045,0.336c-1.342-0.164-2.578-0.559-3.709-1.189c-1.131-0.627-2.123-1.453-2.976-2.473
			s-1.468-2.193-1.847-3.521c-0.379-1.326-0.476-2.648-0.289-3.965c0.186-1.316,0.593-2.539,1.222-3.67s1.455-2.117,2.479-2.955
			s2.186-1.441,3.483-1.812c2.077-0.594,4.08-0.486,6.012,0.32c1.93,0.807,3.519,2.139,4.768,3.998
			c-0.775,0.564-1.669,1.232-2.681,2.004c-1.012,0.773-2.068,1.582-3.169,2.426s-2.199,1.695-3.295,2.555
			c-1.097,0.859-2.106,1.639-3.029,2.338c0.745,0.756,1.629,1.283,2.651,1.584c1.021,0.301,2.08,0.295,3.177-0.018
			c0.75-0.215,1.468-0.566,2.154-1.061c0.687-0.49,1.209-1.037,1.567-1.641L501.145,359.986z M494.422,350.207
			c-0.526-0.537-1.18-0.857-1.959-0.963c-0.778-0.105-1.5-0.062-2.163,0.127c-0.779,0.221-1.472,0.582-2.077,1.084
			c-0.606,0.5-1.082,1.072-1.429,1.717c-0.347,0.646-0.571,1.334-0.674,2.064c-0.104,0.732-0.057,1.443,0.141,2.137l0.05,0.172
			c0.639-0.492,1.322-1.023,2.05-1.59s1.453-1.141,2.176-1.721c0.724-0.582,1.417-1.131,2.081-1.646
			C493.281,351.07,493.883,350.609,494.422,350.207z"/>
	</g>
	<g>
		<path fill="#FFFFFF" d="M139.465,217.007l-3.959,1.13l-0.729-9.021l18.364-5.242l0.729,9.021l-3.14,0.896l5.194,12.25
			c0.945,2.019,1.393,4.623,1.393,4.623l0.273-0.078c0,0-0.039-2.721,0.518-5.169l2.861-14.549l-3.141,0.896l-0.729-9.021
			l19.047-5.437l0.729,9.021l-3.959,1.131l-7.352,30.892l-13.926,3.975L139.465,217.007z"/>
		<path fill="#FFFFFF" d="M197.299,190.388c10.104-2.884,19.318,1.204,22.046,10.762c3.546,12.425-4.989,24.164-16.595,27.477
			c-10.036,2.864-19.299-1.137-22.046-10.763C177.177,205.507,185.625,193.72,197.299,190.388z M200.831,218.542
			c4.71-1.345,8.612-6.814,6.781-13.231c-1.188-4.164-4.64-5.911-8.327-4.858c-4.642,1.324-8.623,7.038-6.791,13.455
			C193.664,218.004,197.077,219.614,200.831,218.542z"/>
		<path fill="#FFFFFF" d="M233.308,224.26c2.458-0.701,4.789-2.105,5.531-4.68l0.107-0.399l-14.143-26.529l-3.959,1.131
			l-0.797-9.001l18.979-5.417l0.797,9.001l-3.414,0.974l5.497,12.533c0.877,2.038,1.237,4.593,1.237,4.593l0.273-0.077
			c0,0,0.118-2.692,0.674-5.14l2.968-14.948l-3.208,0.915l-0.797-9.001l18.569-5.3l0.797,9.001l-3.618,1.033l-8.659,34.587
			c-2.606,10.269-7.913,14.44-14.33,16.272c-6.622,1.89-11.195,0.094-11.195,0.094l2.733-9.565
			C227.35,224.336,229.554,225.332,233.308,224.26z"/>
		<path fill="#FFFFFF" d="M285.726,180.433l0.478-0.136c0,0-0.097-1.375-0.312-2.126c-0.585-2.049-2.867-2.283-5.188-1.62
			c-4.643,1.324-9.461,6.17-9.461,6.17l-4.825-7.852c0,0,6.194-5.977,13.977-8.197c5.871-1.676,14.364-1.664,16.819,6.938
			c1.17,4.097,0.768,11.741,1.664,14.882c0.448,1.57,1.453,2.243,3.364,1.698c0.546-0.156,1.277-0.438,1.277-0.438l0.798,9.001
			c0,0-0.83,0.458-4.379,1.471c-3.619,1.033-8.368,2.241-11.039-2.46l-0.137,0.039c0,0-2.508,6.991-9.54,8.998
			c-5.188,1.481-10.736-0.11-12.549-6.459C263.752,190.101,276.714,183.005,285.726,180.433z M281.177,197.088
			c3.277-0.936,5.628-5.889,5.581-8.902l-0.029-0.877l-1.092,0.312c-2.595,0.74-9.07,3.4-7.921,7.429
			C278.261,196.96,279.402,197.595,281.177,197.088z"/>
		<path fill="#FFFFFF" d="M324.546,198.223c4.847-1.384,7.686-4.113,7.463-9.809c-0.078-1.823-0.059-2.789-0.059-2.789l-0.068,0.02
			c-1.688,3.14-3.824,5.226-7.51,6.278c-9.285,2.649-15.545-2.725-17.863-10.849c-2.806-9.831,1.06-22.156,13.006-25.566
			c7.92-2.26,11.137,1.769,11.137,1.769l0.137-0.039c0,0-0.117-0.41-0.156-1.063c-0.068-1.014,0.928-3.218,3.59-3.978l10.786-3.078
			l0.729,9.021l-2.595,0.74c-0.888,0.253-1.434,0.926-1.337,1.784l1.975,23.727c1.117,13.487-7.379,20.711-16.117,23.205
			c-9.625,2.747-15.573,0.532-15.573,0.532l2.187-9.41C314.277,198.717,318.333,199.996,324.546,198.223z M325.252,181.041
			c5.188-1.481,6.487-8.054,5.221-12.491c-1.169-4.096-4.124-4.359-7.128-3.502c-4.915,1.402-6.643,6.473-5.182,11.593
			C319.119,179.986,321.429,182.131,325.252,181.041z"/>
		<path fill="#FFFFFF" d="M365.527,142.377c9.967-2.845,16.635,1.38,18.954,9.503c0.916,3.209,0.632,7.129,0.632,7.129
			l-22.119,6.313c0,0,0.029,0.361,0.127,0.702c1.014,3.55,4.387,5.023,8.552,3.835c5.12-1.462,9.432-6.531,9.432-6.531l5.498,7.881
			c0,0-4.907,6.347-12.895,8.627c-12.015,3.43-19.981-1.976-22.339-10.235C347.881,157.381,353.92,145.69,365.527,142.377z
			 M372.954,155.466c0,0-0.136-0.994-0.253-1.404c-0.624-2.185-2.457-3.434-4.846-2.751c-3.414,0.974-4.984,4.007-5.278,7.117
			L372.954,155.466z"/>
	</g>
	<g>
		<path fill="#FFFFFF" d="M205.523,164.889l5.393-1.539l-2.732-32.074l-5.461,1.559l-0.885-10.084l23.143-6.605l0.885,10.084
			l-5.53,1.578l2.742,31.333l10.513-3.001l-0.612-7.577l10.24-2.923l1.497,17.661l-38.367,10.951L205.523,164.889z"/>
		<path fill="#FFFFFF" d="M261.233,119.679c9.967-2.845,16.636,1.38,18.955,9.503c0.916,3.209,0.632,7.129,0.632,7.129
			l-22.119,6.313c0,0,0.029,0.361,0.127,0.702c1.013,3.55,4.387,5.023,8.551,3.835c5.12-1.462,9.432-6.531,9.432-6.531l5.498,7.881
			c0,0-4.907,6.347-12.895,8.627c-12.015,3.43-19.981-1.976-22.338-10.235C243.588,134.683,249.627,122.991,261.233,119.679z
			 M268.66,132.768c0,0-0.136-0.994-0.253-1.404c-0.624-2.185-2.457-3.434-4.846-2.751c-3.414,0.974-4.984,4.007-5.278,7.117
			L268.66,132.768z"/>
	</g>
	<g>
		<path fill="#FFFFFF" d="M144.534,300.869l0.525-0.15c0,0-0.106-1.51-0.342-2.336c-0.642-2.25-3.149-2.508-5.7-1.779
			c-5.101,1.455-10.396,6.779-10.396,6.779l-5.302-8.627c0,0,6.806-6.567,15.357-9.007c6.451-1.841,15.784-1.828,18.481,7.625
			c1.285,4.5,0.843,12.9,1.828,16.352c0.492,1.725,1.596,2.465,3.696,1.865c0.6-0.172,1.404-0.482,1.404-0.482l0.876,9.891
			c0,0-0.911,0.504-4.812,1.617c-3.976,1.135-9.194,2.461-12.129-2.705l-0.15,0.043c0,0-2.756,7.682-10.482,9.887
			c-5.701,1.627-11.797-0.121-13.788-7.096C120.389,311.492,134.632,303.695,144.534,300.869z M123.325,274.878l12.827-3.66
			l9.737,9.389l-10.202,2.912L123.325,274.878z M139.535,319.169c3.601-1.029,6.184-6.471,6.132-9.781l-0.032-0.965l-1.2,0.342
			c-2.85,0.814-9.966,3.736-8.703,8.162C136.331,319.029,137.584,319.726,139.535,319.169z"/>
		<path fill="#FFFFFF" d="M187.899,303.906l5.926-1.691l-3.064-36.036l-6.001,1.713l-0.908-10.287l19.203-5.48l19.74,25.68
			c1.521,1.918,2.699,4.908,2.699,4.908l0.3-0.086c0,0-0.738-3.439-0.898-5.99l-1.655-19.727l-6.301,1.798l-0.908-10.286
			l25.729-7.343l0.908,10.286l-6.001,1.713l3.972,46.323l-13.202,3.768l-19.869-25.561c-1.446-1.94-2.677-4.834-2.677-4.834
			l-0.3,0.086c0,0,0.717,3.365,0.952,5.894l1.708,19.63l6.301-1.799l0.908,10.287l-25.654,7.322L187.899,303.906z"/>
		<path fill="#FFFFFF" d="M269.878,265.097l0.525-0.149c0,0-0.106-1.511-0.342-2.336c-0.642-2.25-3.149-2.509-5.7-1.78
			c-5.101,1.456-10.396,6.779-10.396,6.779l-5.302-8.627c0,0,6.806-6.566,15.357-9.007c6.451-1.841,15.784-1.828,18.481,7.624
			c1.284,4.5,0.843,12.901,1.827,16.352c0.492,1.726,1.596,2.465,3.696,1.865c0.601-0.171,1.403-0.481,1.403-0.481l0.877,9.891
			c0,0-0.912,0.503-4.812,1.616c-3.975,1.135-9.194,2.462-12.128-2.704l-0.15,0.043c0,0-2.756,7.681-10.482,9.886
			c-5.701,1.627-11.797-0.121-13.788-7.096C245.733,275.72,259.976,267.923,269.878,265.097z M264.879,283.397
			c3.601-1.028,6.185-6.471,6.132-9.781l-0.032-0.965l-1.2,0.343c-2.85,0.813-9.966,3.736-8.703,8.162
			C261.675,283.257,262.929,283.954,264.879,283.397z"/>
		<path fill="#FFFFFF" d="M296.074,253.728c-0.074-1.114-0.771-1.565-1.82-1.266l-3.602,1.028l-0.875-9.891l12.302-3.511
			c3.075-0.878,4.94-0.031,5.582,2.22c0.235,0.825,0.353,2.089,0.257,3.172l0.149-0.043c0,0,2.606-8.775,11.833-11.408
			c6.376-1.82,12.183,0.336,14.281,7.687c1.369,4.801,1.174,14.349,2.052,17.424c0.492,1.726,1.596,2.465,3.696,1.865
			c0.6-0.171,1.404-0.481,1.404-0.481l0.875,9.891c0,0-1.286,0.61-4.512,1.53c-5.101,1.456-11.498,2.633-13.874-5.693
			c-1.263-4.426-1.218-13.931-1.967-16.556c-0.514-1.801-1.745-2.99-4.597-2.177c-5.4,1.542-7.706,7.959-7.172,14.378l1.441,17.273
			l-12.978,3.703L296.074,253.728z"/>
		<path fill="#FFFFFF" d="M348.309,252.449l-1.218-15.065l-5.25,1.498l-0.876-9.891l5.701-1.627l-0.95-11.004l12.451-3.555
			l0.951,11.005l8.176-2.333l0.876,9.891l-8.177,2.333l1.282,14.155c0.042,0.718,0.245,1.714,0.353,2.089
			c0.899,3.151,3.942,3.013,6.793,2.199c1.125-0.321,1.982-0.729,1.982-0.729l0.908,10.855c0,0-1.887,0.781-3.387,1.209
			c-8.477,2.42-16.588,1.003-19.135-7.924C348.533,254.656,348.384,253.563,348.309,252.449z"/>
		<path fill="#FFFFFF" d="M390.257,213.95c10.952-3.125,18.279,1.517,20.828,10.443c1.006,3.525,0.693,7.833,0.693,7.833
			l-24.304,6.936c0,0,0.032,0.396,0.14,0.771c1.112,3.901,4.819,5.521,9.395,4.214c5.627-1.605,10.364-7.176,10.364-7.176
			l6.041,8.659c0,0-5.392,6.975-14.169,9.479c-13.201,3.768-21.954-2.171-24.545-11.248
			C370.869,230.436,377.505,217.59,390.257,213.95z M398.418,228.333c0,0-0.149-1.094-0.278-1.543
			c-0.686-2.4-2.699-3.773-5.324-3.023c-3.751,1.07-5.477,4.402-5.799,7.82L398.418,228.333z"/>
		<path fill="#FFFFFF" d="M416.714,234.388l10.876-3.104l0.085,1.436c0.214,3.021,4.414,2.391,6.89,1.685
			c3.825-1.092,4.587-2.688,4.224-3.964c-1.393-4.875-18.292,2.138-21.803-10.164c-2.633-9.227,5.77-15.6,14.996-18.232
			c6.676-1.905,15.709-1.807,16.381,5.384l0.417,4.586l-10.876,3.104l-0.203-1.564c-0.3-2.187-2.84-1.705-4.415-1.255
			c-3.15,0.898-4.341,2.131-3.912,3.631c1.521,5.326,18.313-2.631,21.781,9.521c2.462,8.627-4.409,16.104-15.436,19.251
			c-6.601,1.884-17.884,2.427-18.643-6.199L416.714,234.388z"/>
	</g>
</g>
</svg>
