<?xml version="1.0" encoding="utf-8"?>
<!-- Generator: Adobe Illustrator 17.0.0, SVG Export Plug-In . SVG Version: 6.00 Build 0)  -->
<!DOCTYPE svg PUBLIC "-//W3C//DTD SVG 1.1//EN" "http://www.w3.org/Graphics/SVG/1.1/DTD/svg11.dtd">
<svg version="1.1" id="Calque_1" xmlns="http://www.w3.org/2000/svg" xmlns:xlink="http://www.w3.org/1999/xlink" x="0px" y="0px"
	 width="565.471px" height="564.829px" viewBox="0 0 565.471 564.829" enable-background="new 0 0 565.471 564.829"
	 xml:space="preserve">
<polygon points="281.846,28.806 308.933,1.6 330.383,33.438 362.127,11.854 377.159,47.177 412.418,31.985 420.497,69.513 
	457.987,61.276 458.815,99.655 497.193,98.659 490.743,136.499 528.617,142.78 515.122,178.723 551.118,192.059 531.067,224.796 
	563.893,244.702 538.007,273.056 566.471,298.809 535.684,321.758 558.759,352.436 524.194,369.133 541.041,403.622 
	503.941,413.481 513.957,450.538 475.662,453.194 478.484,491.479 440.376,486.845 435.899,524.974 399.362,513.2 387.746,549.79 
	354.095,531.319 335.77,565.049 306.22,540.546 281.846,570.206 257.472,540.546 227.92,565.049 209.596,531.319 175.946,549.79 
	164.329,513.2 127.793,524.974 123.315,486.845 85.208,491.479 88.03,453.194 49.732,450.538 59.75,413.481 22.651,403.622 
	39.497,369.133 4.933,352.436 28.005,321.758 -2.779,298.809 25.684,273.056 -0.202,244.702 32.625,224.796 12.574,192.059 
	48.569,178.723 35.074,142.78 72.948,136.499 66.497,98.659 104.874,99.655 105.704,61.276 143.195,69.513 151.273,31.985 
	186.532,47.177 201.564,11.854 233.309,33.438 254.764,1.6 "/>
<g>
	<path fill="#FFFFFF" d="M61.6,235.461l8.178-2.334c3.173-0.905,6.001-1.189,8.484-0.854c2.483,0.337,4.635,1.072,6.456,2.206
		c1.821,1.134,3.319,2.586,4.495,4.355c1.176,1.771,2.04,3.622,2.591,5.555c0.675,2.366,0.856,4.615,0.545,6.747
		c-0.312,2.133-1,4.068-2.063,5.807c-1.064,1.739-2.454,3.235-4.17,4.489c-1.717,1.255-3.643,2.187-5.777,2.795l-9.736,2.779
		L61.6,235.461z M78.084,259.443c1.645-0.47,3.093-1.133,4.346-1.989s2.254-1.884,3.005-3.08c0.75-1.197,1.22-2.532,1.408-4.006
		c0.188-1.473,0.035-3.075-0.459-4.806c-0.56-1.962-1.375-3.53-2.443-4.708c-1.069-1.176-2.244-2.042-3.526-2.597
		c-1.281-0.555-2.612-0.846-3.993-0.873c-1.381-0.027-2.648,0.124-3.802,0.453l-4.24,1.21l6.113,21.42L78.084,259.443z"/>
	<path fill="#FFFFFF" d="M96.164,249.979c-0.378-1.327-0.479-2.663-0.302-4.009c0.178-1.345,0.579-2.591,1.204-3.736
		c0.625-1.145,1.445-2.151,2.461-3.019c1.016-0.867,2.173-1.486,3.472-1.856c0.865-0.247,1.675-0.361,2.429-0.343
		c0.754,0.02,1.424,0.102,2.012,0.245c0.587,0.145,1.068,0.327,1.443,0.548c0.375,0.221,0.63,0.404,0.766,0.553l-0.457-2.256
		l4.024-1.148l5.248,18.391l-4.197,1.198l-0.346-1.212c-0.041-0.145-0.074-0.283-0.096-0.417c-0.023-0.135-0.042-0.229-0.059-0.288
		c-0.074,0.178-0.217,0.444-0.427,0.801c-0.21,0.356-0.524,0.734-0.94,1.134c-0.417,0.399-0.938,0.789-1.561,1.171
		c-0.625,0.381-1.384,0.699-2.278,0.954c-1.414,0.403-2.786,0.515-4.117,0.333c-1.332-0.182-2.553-0.582-3.665-1.2
		c-1.112-0.619-2.069-1.43-2.871-2.434C97.109,252.385,96.527,251.249,96.164,249.979z M100.288,248.521
		c0.23,0.809,0.581,1.519,1.053,2.133c0.471,0.614,1.032,1.103,1.681,1.463c0.648,0.36,1.361,0.587,2.136,0.677
		c0.774,0.092,1.58,0.018,2.417-0.222c0.836-0.238,1.56-0.601,2.17-1.087c0.61-0.485,1.093-1.061,1.45-1.725
		c0.356-0.663,0.573-1.38,0.65-2.15c0.076-0.771,0.003-1.545-0.219-2.324s-0.567-1.468-1.035-2.068
		c-0.468-0.599-1.024-1.071-1.668-1.419c-0.645-0.346-1.354-0.564-2.129-0.655c-0.774-0.091-1.581-0.018-2.417,0.222
		c-0.837,0.238-1.562,0.594-2.176,1.065c-0.614,0.472-1.102,1.032-1.462,1.681c-0.361,0.649-0.582,1.353-0.662,2.107
		C99.994,246.976,100.066,247.743,100.288,248.521z"/>
	<path fill="#FFFFFF" d="M118.342,233.495l3.635-1.037c0.354,1.021,0.66,1.847,0.917,2.476s0.53,1.339,0.818,2.13
		c0.219-1.747,0.799-3.27,1.738-4.567c0.94-1.298,2.319-2.206,4.136-2.725c1.875-0.535,3.514-0.449,4.917,0.258
		s2.368,1.875,2.895,3.502l3.804,13.328l-4.111,1.173l-3.248-11.38c-0.313-0.878-0.851-1.56-1.613-2.044
		c-0.763-0.484-1.757-0.582-2.985-0.294c-0.837,0.238-1.565,0.61-2.186,1.114c-0.621,0.505-1.109,1.089-1.465,1.752
		c-0.357,0.664-0.569,1.396-0.637,2.194c-0.069,0.8,0.017,1.618,0.256,2.454l2.531,8.871l-4.154,1.186L118.342,233.495z"/>
	<path fill="#FFFFFF" d="M151.884,225.7c-0.099,0.31-0.224,0.665-0.375,1.066c-0.151,0.402-0.3,0.78-0.449,1.134
		c-0.148,0.355-0.32,0.794-0.513,1.316c-0.346-0.118-0.673-0.197-0.979-0.234c-0.308-0.037-0.655-0.055-1.045-0.053
		s-0.772,0.056-1.146,0.163c-0.404,0.115-0.803,0.331-1.196,0.646c-0.394,0.315-0.508,0.762-0.344,1.338
		c0.14,0.491,0.452,0.847,0.937,1.066c0.484,0.221,1.046,0.389,1.687,0.502c0.641,0.113,1.341,0.218,2.102,0.312
		c0.76,0.096,1.483,0.278,2.169,0.551s1.316,0.677,1.891,1.215s0.998,1.283,1.27,2.235c0.239,0.837,0.306,1.645,0.2,2.423
		c-0.105,0.779-0.369,1.494-0.792,2.145c-0.422,0.651-0.982,1.232-1.679,1.743c-0.696,0.51-1.536,0.906-2.516,1.186
		c-1.183,0.338-2.388,0.463-3.613,0.376c-1.226-0.087-2.264-0.414-3.112-0.983c0.135-0.288,0.298-0.647,0.488-1.076
		c0.189-0.428,0.369-0.838,0.538-1.229c0.169-0.392,0.379-0.856,0.631-1.396c-0.008-0.028,0.099-0.005,0.324,0.071
		c0.225,0.076,0.52,0.155,0.887,0.238c0.366,0.082,0.787,0.134,1.261,0.154c0.474,0.021,0.941-0.034,1.403-0.166
		c0.721-0.206,1.231-0.522,1.53-0.951c0.299-0.429,0.383-0.874,0.251-1.336c-0.132-0.461-0.434-0.78-0.905-0.958
		c-0.472-0.177-1.024-0.308-1.656-0.393c-0.633-0.085-1.33-0.175-2.089-0.27c-0.76-0.095-1.483-0.279-2.169-0.551
		c-0.686-0.272-1.32-0.691-1.903-1.259c-0.583-0.566-1.023-1.369-1.319-2.408c-0.296-1.038-0.356-1.957-0.178-2.757
		c0.177-0.799,0.5-1.5,0.968-2.102c0.467-0.601,1.021-1.094,1.66-1.479c0.639-0.385,1.29-0.672,1.954-0.861
		c0.894-0.256,1.876-0.341,2.946-0.256C150.069,224.947,151.03,225.227,151.884,225.7z"/>
	<path fill="#FFFFFF" d="M167.448,229.448c-0.412-1.442-0.548-2.822-0.41-4.142c0.139-1.318,0.512-2.524,1.12-3.619
		c0.608-1.093,1.414-2.041,2.418-2.843c1.003-0.801,2.183-1.395,3.539-1.782c0.923-0.263,1.76-0.393,2.51-0.389
		c0.75,0.005,1.411,0.082,1.984,0.229c0.573,0.149,1.058,0.346,1.456,0.591c0.398,0.246,0.716,0.459,0.955,0.641
		c-0.099-0.347-0.178-0.729-0.235-1.15c-0.058-0.42-0.144-0.832-0.259-1.236l3.981-1.136l7.768,27.218l-4.154,1.186l-2.865-10.039
		c-0.042-0.144-0.072-0.307-0.093-0.488c-0.021-0.181-0.043-0.315-0.068-0.401c-0.186,0.333-0.423,0.705-0.711,1.115
		s-0.655,0.818-1.101,1.227c-0.445,0.408-0.97,0.783-1.573,1.128c-0.604,0.343-1.324,0.635-2.161,0.874
		c-1.471,0.42-2.863,0.543-4.175,0.372c-1.312-0.171-2.491-0.583-3.536-1.237c-1.045-0.653-1.943-1.504-2.694-2.554
		C168.391,231.963,167.826,230.775,167.448,229.448z M171.577,228.176c0.23,0.809,0.581,1.519,1.053,2.133
		c0.471,0.614,1.032,1.103,1.681,1.463c0.648,0.36,1.361,0.587,2.136,0.677c0.774,0.092,1.58,0.018,2.417-0.222
		c0.836-0.238,1.567-0.603,2.192-1.093c0.624-0.49,1.115-1.067,1.472-1.73c0.356-0.663,0.573-1.38,0.649-2.151
		c0.076-0.771,0.004-1.545-0.219-2.324c-0.222-0.778-0.567-1.468-1.035-2.067c-0.468-0.6-1.024-1.072-1.668-1.419
		c-0.645-0.347-1.362-0.562-2.151-0.65c-0.79-0.086-1.602-0.011-2.438,0.229c-0.837,0.238-1.562,0.594-2.176,1.065
		c-0.614,0.472-1.102,1.032-1.462,1.681c-0.361,0.649-0.582,1.353-0.662,2.107C171.284,226.63,171.355,227.397,171.577,228.176z"/>
	<path fill="#FFFFFF" d="M212.479,226.986l-3.462,0.988l-1.977-4.958c-0.244,1.66-0.812,3.141-1.704,4.44
		c-0.893,1.301-2.291,2.222-4.195,2.765c-1.904,0.544-3.554,0.477-4.948-0.202c-1.395-0.678-2.355-1.831-2.882-3.459l-3.816-13.371
		l4.154-1.186l3.26,11.424c0.312,0.878,0.839,1.547,1.579,2.006c0.74,0.46,1.737,0.542,2.995,0.245
		c0.836-0.238,1.56-0.601,2.17-1.087c0.61-0.485,1.093-1.061,1.45-1.725c0.356-0.663,0.576-1.396,0.659-2.2
		c0.083-0.803,0.005-1.623-0.234-2.46l-2.532-8.871l4.111-1.173L212.479,226.986z"/>
	<path fill="#FFFFFF" d="M232.639,218.471c-0.664,1.063-1.564,2.007-2.702,2.83c-1.138,0.823-2.371,1.426-3.697,1.804
		c-1.356,0.388-2.705,0.499-4.045,0.336c-1.342-0.163-2.578-0.559-3.708-1.188c-1.131-0.628-2.123-1.453-2.976-2.473
		c-0.853-1.021-1.468-2.193-1.847-3.521c-0.378-1.326-0.475-2.648-0.289-3.965c0.186-1.316,0.593-2.54,1.222-3.671
		c0.628-1.131,1.456-2.116,2.479-2.954c1.024-0.838,2.186-1.443,3.484-1.813c2.077-0.593,4.08-0.485,6.011,0.32
		c1.93,0.807,3.519,2.139,4.768,3.998c-0.775,0.564-1.668,1.232-2.68,2.005c-1.012,0.772-2.069,1.581-3.169,2.425
		c-1.101,0.845-2.199,1.696-3.295,2.555c-1.096,0.859-2.106,1.639-3.029,2.339c0.746,0.755,1.629,1.282,2.651,1.583
		c1.022,0.302,2.081,0.296,3.177-0.018c0.75-0.214,1.468-0.566,2.154-1.06c0.686-0.491,1.208-1.038,1.567-1.641L232.639,218.471z
		 M225.917,208.69c-0.527-0.536-1.18-0.856-1.959-0.962s-1.5-0.063-2.164,0.126c-0.779,0.222-1.471,0.583-2.077,1.084
		c-0.606,0.5-1.082,1.073-1.428,1.718c-0.347,0.646-0.572,1.333-0.674,2.064c-0.104,0.731-0.056,1.443,0.141,2.136l0.05,0.173
		c0.638-0.493,1.322-1.024,2.049-1.591s1.453-1.14,2.176-1.721c0.724-0.581,1.417-1.13,2.081-1.646
		C224.776,209.554,225.378,209.094,225.917,208.69z"/>
	<path fill="#FFFFFF" d="M242.086,218.069l-4.111,1.173l-9.645-33.796l4.111-1.173L242.086,218.069z"/>
	<path fill="#FFFFFF" d="M251.298,215.44l-4.111,1.173l-9.645-33.796l4.111-1.173L251.298,215.44z"/>
	<path fill="#FFFFFF" d="M271.597,207.353c-0.664,1.063-1.564,2.007-2.702,2.83c-1.138,0.823-2.371,1.426-3.697,1.804
		c-1.356,0.388-2.705,0.499-4.045,0.336c-1.342-0.163-2.578-0.559-3.708-1.188c-1.131-0.628-2.123-1.453-2.976-2.473
		c-0.853-1.021-1.468-2.193-1.847-3.521c-0.378-1.326-0.475-2.648-0.289-3.965c0.186-1.316,0.593-2.54,1.222-3.671
		c0.628-1.131,1.456-2.116,2.479-2.954c1.024-0.838,2.186-1.443,3.484-1.813c2.077-0.593,4.08-0.485,6.011,0.32
		c1.93,0.807,3.519,2.139,4.768,3.998c-0.775,0.564-1.668,1.232-2.68,2.005c-1.012,0.772-2.069,1.581-3.169,2.425
		c-1.101,0.845-2.199,1.696-3.295,2.555c-1.096,0.859-2.106,1.639-3.029,2.339c0.746,0.755,1.629,1.282,2.651,1.583
		c1.022,0.302,2.081,0.296,3.177-0.018c0.75-0.214,1.468-0.566,2.154-1.06c0.686-0.491,1.208-1.038,1.567-1.641L271.597,207.353z
		 M264.875,197.573c-0.527-0.536-1.18-0.857-1.959-0.962c-0.779-0.105-1.5-0.063-2.164,0.126c-0.779,0.222-1.471,0.583-2.077,1.084
		c-0.606,0.5-1.082,1.073-1.428,1.718c-0.347,0.646-0.572,1.333-0.674,2.064c-0.104,0.731-0.056,1.443,0.141,2.136l0.05,0.173
		c0.638-0.493,1.322-1.024,2.049-1.591s1.453-1.14,2.176-1.721c0.724-0.581,1.417-1.13,2.081-1.646
		C263.733,198.436,264.335,197.977,264.875,197.573z"/>
	<path fill="#FFFFFF" d="M282.604,188.394c-0.099,0.31-0.224,0.665-0.374,1.066c-0.151,0.402-0.3,0.78-0.449,1.134
		c-0.148,0.355-0.32,0.794-0.513,1.316c-0.346-0.118-0.673-0.197-0.979-0.234c-0.308-0.037-0.655-0.055-1.045-0.053
		s-0.772,0.056-1.146,0.163c-0.404,0.115-0.803,0.331-1.196,0.646c-0.394,0.315-0.508,0.762-0.344,1.338
		c0.14,0.491,0.452,0.847,0.937,1.066c0.484,0.221,1.046,0.389,1.687,0.502c0.641,0.113,1.341,0.218,2.102,0.312
		c0.76,0.096,1.483,0.278,2.17,0.551c0.686,0.272,1.316,0.677,1.891,1.215s0.998,1.283,1.27,2.235
		c0.238,0.837,0.306,1.645,0.2,2.423c-0.105,0.779-0.369,1.494-0.792,2.145c-0.422,0.651-0.982,1.232-1.679,1.743
		c-0.696,0.51-1.536,0.906-2.516,1.186c-1.183,0.338-2.388,0.463-3.613,0.376c-1.226-0.087-2.264-0.414-3.112-0.983
		c0.135-0.288,0.298-0.647,0.488-1.076c0.189-0.428,0.369-0.838,0.538-1.229c0.169-0.392,0.379-0.856,0.631-1.396
		c-0.008-0.028,0.099-0.005,0.324,0.071c0.225,0.076,0.52,0.155,0.887,0.238c0.366,0.082,0.787,0.134,1.261,0.154
		c0.474,0.021,0.941-0.034,1.403-0.166c0.721-0.206,1.231-0.522,1.53-0.951c0.299-0.429,0.383-0.874,0.251-1.336
		c-0.132-0.461-0.434-0.78-0.905-0.958c-0.472-0.177-1.024-0.308-1.656-0.393c-0.633-0.085-1.33-0.175-2.089-0.27
		c-0.76-0.095-1.483-0.279-2.169-0.551c-0.686-0.272-1.32-0.691-1.903-1.259c-0.583-0.566-1.023-1.369-1.319-2.408
		c-0.296-1.038-0.356-1.957-0.178-2.757c0.177-0.799,0.5-1.5,0.968-2.102c0.468-0.601,1.021-1.094,1.66-1.479
		c0.639-0.385,1.29-0.672,1.954-0.861c0.894-0.256,1.876-0.341,2.945-0.256S281.751,187.921,282.604,188.394z"/>
	<path fill="#FFFFFF" d="M296.691,182.598l3.678-1.05c0.176,0.511,0.338,0.965,0.481,1.36s0.282,0.77,0.414,1.122
		s0.261,0.697,0.39,1.035c0.127,0.338,0.263,0.705,0.406,1.101c0.248-1.756,0.765-3.252,1.551-4.49
		c0.785-1.238,2.097-2.135,3.936-2.691c1.816-0.519,3.396-0.478,4.737,0.122c1.341,0.601,2.322,1.607,2.944,3.021
		c0.141-0.819,0.34-1.595,0.6-2.324c0.26-0.729,0.596-1.386,1.006-1.971s0.926-1.099,1.549-1.542
		c0.623-0.442,1.395-0.796,2.318-1.06c1.904-0.543,3.564-0.463,4.982,0.239c1.416,0.703,2.389,1.869,2.916,3.497l3.803,13.327
		l-4.153,1.186L325,182.1c-0.313-0.878-0.837-1.563-1.569-2.057c-0.734-0.492-1.743-0.586-3.029-0.281
		c-1.702,0.485-2.863,1.418-3.483,2.796s-0.685,2.933-0.19,4.663l2.52,8.828l-4.154,1.186l-3.248-11.381
		c-0.312-0.877-0.843-1.562-1.59-2.05c-0.748-0.488-1.751-0.584-3.008-0.288c-1.703,0.485-2.863,1.418-3.484,2.796
		c-0.62,1.378-0.688,2.919-0.201,4.62l2.531,8.871l-4.154,1.186L296.691,182.598z"/>
	<path fill="#FFFFFF" d="M352.585,184.24c-0.664,1.063-1.564,2.007-2.701,2.83c-1.139,0.823-2.371,1.426-3.697,1.804
		c-1.356,0.388-2.705,0.499-4.046,0.336c-1.342-0.163-2.577-0.559-3.708-1.188c-1.132-0.628-2.123-1.453-2.977-2.473
		c-0.852-1.021-1.468-2.193-1.847-3.521c-0.378-1.326-0.476-2.648-0.289-3.965c0.186-1.316,0.593-2.54,1.222-3.671
		s1.455-2.116,2.479-2.954s2.186-1.442,3.483-1.813c2.078-0.593,4.08-0.485,6.012,0.32c1.93,0.807,3.52,2.139,4.768,3.998
		c-0.775,0.564-1.668,1.232-2.68,2.005c-1.013,0.772-2.069,1.581-3.17,2.425c-1.1,0.845-2.199,1.696-3.295,2.555
		c-1.096,0.859-2.105,1.639-3.029,2.339c0.746,0.755,1.629,1.282,2.651,1.583c1.022,0.302,2.081,0.296,3.177-0.018
		c0.75-0.214,1.469-0.566,2.154-1.06c0.687-0.491,1.209-1.038,1.568-1.641L352.585,184.24z M345.862,174.46
		c-0.526-0.536-1.18-0.856-1.959-0.962c-0.778-0.105-1.5-0.063-2.163,0.126c-0.778,0.222-1.472,0.583-2.077,1.084
		c-0.605,0.5-1.082,1.073-1.428,1.718c-0.348,0.646-0.572,1.333-0.675,2.064c-0.104,0.731-0.056,1.443,0.142,2.136l0.049,0.173
		c0.639-0.493,1.322-1.024,2.05-1.591s1.453-1.14,2.177-1.721c0.723-0.581,1.416-1.13,2.08-1.646
		C344.722,175.323,345.323,174.863,345.862,174.46z"/>
	<path fill="#FFFFFF" d="M363.578,165.285c-0.099,0.31-0.224,0.665-0.374,1.066c-0.15,0.402-0.301,0.78-0.449,1.134
		c-0.148,0.355-0.319,0.794-0.513,1.316c-0.347-0.119-0.673-0.197-0.979-0.234c-0.308-0.037-0.656-0.055-1.045-0.054
		c-0.39,0.003-0.771,0.057-1.146,0.164c-0.404,0.115-0.803,0.331-1.196,0.646c-0.394,0.315-0.509,0.762-0.344,1.338
		c0.14,0.491,0.452,0.847,0.937,1.066c0.484,0.221,1.047,0.389,1.688,0.502s1.341,0.218,2.102,0.312
		c0.76,0.096,1.482,0.278,2.169,0.551s1.316,0.677,1.892,1.215c0.574,0.538,0.998,1.283,1.27,2.235
		c0.238,0.837,0.305,1.645,0.199,2.423s-0.369,1.494-0.791,2.145c-0.423,0.651-0.982,1.232-1.68,1.743
		c-0.696,0.51-1.535,0.906-2.516,1.186c-1.184,0.338-2.388,0.463-3.613,0.376s-2.264-0.414-3.111-0.983
		c0.135-0.288,0.299-0.647,0.488-1.076c0.189-0.428,0.369-0.838,0.538-1.229s0.38-0.856,0.631-1.396
		c-0.008-0.028,0.1-0.005,0.325,0.071c0.224,0.076,0.52,0.155,0.887,0.238c0.366,0.082,0.787,0.134,1.261,0.154
		c0.474,0.021,0.941-0.034,1.403-0.166c0.721-0.206,1.23-0.522,1.529-0.952c0.3-0.428,0.383-0.873,0.252-1.335
		c-0.133-0.461-0.434-0.78-0.906-0.958c-0.471-0.177-1.023-0.309-1.656-0.393c-0.633-0.085-1.329-0.175-2.089-0.27
		c-0.761-0.095-1.483-0.279-2.169-0.551c-0.687-0.272-1.32-0.691-1.904-1.259c-0.582-0.566-1.022-1.369-1.318-2.408
		c-0.297-1.038-0.356-1.957-0.179-2.757c0.177-0.799,0.5-1.5,0.968-2.102c0.468-0.601,1.021-1.094,1.66-1.479
		c0.639-0.385,1.289-0.672,1.953-0.861c0.895-0.256,1.877-0.341,2.945-0.256C361.765,164.532,362.726,164.811,363.578,165.285z"/>
	<path fill="#FFFFFF" d="M390.655,176.137l-3.461,0.988l-1.977-4.958c-0.244,1.66-0.812,3.141-1.705,4.44
		c-0.893,1.301-2.291,2.222-4.194,2.765c-1.903,0.544-3.554,0.477-4.948-0.202c-1.395-0.678-2.355-1.831-2.883-3.459l-3.815-13.371
		l4.154-1.186l3.261,11.424c0.312,0.878,0.838,1.547,1.578,2.006c0.74,0.46,1.737,0.542,2.994,0.245
		c0.837-0.238,1.561-0.601,2.17-1.087c0.611-0.485,1.094-1.061,1.451-1.725c0.355-0.663,0.576-1.396,0.658-2.2
		c0.082-0.803,0.005-1.623-0.234-2.46l-2.531-8.871l4.111-1.173L390.655,176.137z"/>
	<path fill="#FFFFFF" d="M402.068,157.811c-0.809,0.23-1.551,0.553-2.229,0.964c-0.678,0.412-1.238,0.907-1.682,1.486
		s-0.75,1.228-0.919,1.946c-0.169,0.72-0.134,1.497,0.104,2.334l2.433,8.524l-4.153,1.186l-5.249-18.391l3.635-1.037
		c0.354,1.021,0.659,1.847,0.917,2.476c0.257,0.629,0.529,1.339,0.818,2.13c0.145-0.915,0.443-1.78,0.897-2.597
		c0.453-0.814,0.955-1.543,1.505-2.185c0.551-0.64,1.123-1.178,1.717-1.612s1.121-0.718,1.582-0.85L402.068,157.811z"/>
	<path fill="#FFFFFF" d="M424.476,163.725c-0.663,1.063-1.564,2.007-2.701,2.83c-1.139,0.823-2.371,1.426-3.697,1.804
		c-1.355,0.388-2.705,0.499-4.045,0.336c-1.342-0.163-2.578-0.559-3.709-1.188c-1.131-0.628-2.123-1.453-2.976-2.473
		c-0.853-1.021-1.468-2.193-1.847-3.521c-0.379-1.326-0.476-2.648-0.289-3.965c0.186-1.316,0.592-2.54,1.221-3.671
		s1.456-2.116,2.48-2.954c1.023-0.838,2.186-1.442,3.483-1.813c2.077-0.593,4.081-0.485,6.011,0.32
		c1.931,0.807,3.52,2.139,4.768,3.998c-0.774,0.564-1.668,1.232-2.68,2.005s-2.068,1.581-3.169,2.425
		c-1.101,0.845-2.199,1.696-3.295,2.555c-1.097,0.859-2.106,1.639-3.03,2.339c0.746,0.755,1.63,1.282,2.652,1.583
		c1.021,0.302,2.08,0.296,3.177-0.018c0.749-0.214,1.468-0.566,2.154-1.06c0.687-0.491,1.208-1.038,1.567-1.641L424.476,163.725z
		 M417.754,153.944c-0.526-0.536-1.181-0.856-1.959-0.962s-1.5-0.063-2.163,0.126c-0.779,0.222-1.472,0.583-2.078,1.084
		c-0.605,0.5-1.082,1.073-1.428,1.718c-0.347,0.646-0.572,1.333-0.674,2.064c-0.104,0.731-0.057,1.443,0.141,2.136l0.05,0.173
		c0.638-0.493,1.321-1.024,2.05-1.591c0.727-0.566,1.453-1.14,2.176-1.721c0.724-0.581,1.416-1.13,2.08-1.646
		C416.612,154.808,417.214,154.348,417.754,153.944z"/>
	<path fill="#FFFFFF" d="M435.515,144.756c-0.098,0.31-0.224,0.665-0.373,1.066c-0.151,0.402-0.301,0.78-0.449,1.134
		c-0.148,0.355-0.32,0.794-0.514,1.316c-0.346-0.119-0.672-0.197-0.979-0.234s-0.655-0.055-1.044-0.054
		c-0.391,0.003-0.772,0.057-1.146,0.164c-0.404,0.115-0.803,0.331-1.197,0.646c-0.394,0.315-0.508,0.762-0.344,1.338
		c0.141,0.491,0.453,0.847,0.937,1.066c0.484,0.221,1.047,0.389,1.688,0.502c0.642,0.113,1.341,0.218,2.102,0.312
		c0.76,0.095,1.483,0.278,2.169,0.551c0.687,0.272,1.316,0.677,1.892,1.215s0.998,1.283,1.27,2.235
		c0.239,0.837,0.306,1.644,0.2,2.423c-0.105,0.778-0.369,1.494-0.792,2.145c-0.423,0.651-0.981,1.232-1.679,1.743
		c-0.697,0.51-1.535,0.906-2.516,1.186c-1.184,0.338-2.389,0.463-3.613,0.376c-1.227-0.087-2.264-0.414-3.111-0.983
		c0.135-0.288,0.298-0.647,0.488-1.076c0.189-0.428,0.369-0.838,0.537-1.229c0.17-0.392,0.38-0.856,0.631-1.396
		c-0.008-0.028,0.1-0.005,0.325,0.071c0.224,0.076,0.52,0.155,0.887,0.238c0.366,0.082,0.787,0.134,1.261,0.154
		c0.475,0.021,0.941-0.034,1.404-0.166c0.721-0.206,1.23-0.522,1.529-0.952c0.299-0.428,0.383-0.873,0.251-1.335
		c-0.132-0.461-0.434-0.78-0.905-0.958c-0.472-0.177-1.023-0.309-1.656-0.393c-0.633-0.085-1.33-0.175-2.09-0.27
		s-1.482-0.279-2.169-0.551c-0.687-0.272-1.321-0.691-1.903-1.259c-0.583-0.566-1.023-1.369-1.319-2.408
		c-0.296-1.038-0.356-1.957-0.179-2.757c0.178-0.799,0.5-1.5,0.969-2.102c0.467-0.601,1.021-1.094,1.66-1.479
		c0.639-0.385,1.289-0.672,1.953-0.861c0.895-0.256,1.876-0.341,2.945-0.256S434.662,144.282,435.515,144.756z"/>
</g>
<g>
	<path fill="#FFFFFF" d="M108.499,318.42l-4.111,1.173l-9.645-33.796l4.111-1.173L108.499,318.42z"/>
	<path fill="#FFFFFF" d="M128.83,310.325c-0.664,1.063-1.564,2.007-2.702,2.83c-1.138,0.823-2.371,1.426-3.697,1.804
		c-1.356,0.388-2.705,0.499-4.045,0.336c-1.342-0.163-2.578-0.559-3.708-1.188c-1.131-0.628-2.123-1.453-2.976-2.473
		c-0.853-1.021-1.468-2.193-1.847-3.521c-0.378-1.326-0.475-2.648-0.289-3.965c0.186-1.316,0.593-2.54,1.222-3.671
		c0.628-1.131,1.456-2.116,2.479-2.954c1.024-0.838,2.186-1.443,3.484-1.813c2.077-0.593,4.08-0.485,6.011,0.32
		c1.93,0.807,3.519,2.139,4.768,3.998c-0.775,0.564-1.668,1.232-2.68,2.005c-1.012,0.772-2.069,1.581-3.169,2.425
		c-1.101,0.845-2.199,1.696-3.295,2.555c-1.096,0.859-2.106,1.639-3.029,2.339c0.746,0.755,1.629,1.282,2.651,1.583
		c1.022,0.302,2.081,0.296,3.177-0.018c0.75-0.214,1.468-0.566,2.154-1.06c0.686-0.491,1.208-1.038,1.567-1.641L128.83,310.325z
		 M122.108,300.544c-0.527-0.536-1.18-0.857-1.959-0.962c-0.779-0.105-1.5-0.063-2.164,0.126c-0.779,0.222-1.471,0.583-2.077,1.084
		c-0.606,0.5-1.082,1.073-1.428,1.718c-0.347,0.646-0.572,1.333-0.675,2.064s-0.056,1.443,0.142,2.136l0.049,0.173
		c0.639-0.493,1.322-1.024,2.05-1.591s1.453-1.14,2.176-1.721c0.724-0.581,1.417-1.13,2.081-1.646
		C120.966,301.408,121.568,300.948,122.108,300.544z"/>
	<path fill="#FFFFFF" d="M150.616,307.571c-2.661-2.766-5.229-5.534-7.706-8.307c-2.476-2.772-5.005-5.568-7.588-8.388l4.5-1.284
		c1.706,1.822,3.053,3.294,4.044,4.415c0.991,1.121,1.774,2.036,2.351,2.745s1.012,1.278,1.307,1.709
		c0.294,0.432,0.588,0.886,0.881,1.363c0.025-0.568,0.048-1.113,0.071-1.635c0.022-0.521,0.092-1.234,0.208-2.142
		c0.116-0.906,0.298-2.098,0.548-3.572c0.25-1.476,0.618-3.437,1.105-5.885l4.457-1.271c-0.706,3.758-1.393,7.472-2.062,11.141
		C152.064,300.13,151.358,303.833,150.616,307.571z"/>
	<path fill="#FFFFFF" d="M158.261,294.25c-0.378-1.326-0.482-2.646-0.311-3.959c0.171-1.312,0.581-2.529,1.228-3.649
		c0.647-1.121,1.498-2.104,2.551-2.951c1.053-0.846,2.257-1.463,3.613-1.85c1.385-0.396,2.74-0.509,4.067-0.342
		c1.327,0.167,2.539,0.562,3.637,1.185c1.098,0.622,2.059,1.448,2.883,2.477c0.824,1.028,1.425,2.206,1.804,3.533
		c0.378,1.327,0.499,2.649,0.36,3.968c-0.139,1.319-0.515,2.542-1.129,3.669s-1.441,2.111-2.479,2.953
		c-1.039,0.843-2.265,1.466-3.678,1.869c-1.356,0.387-2.691,0.518-4.006,0.395c-1.315-0.124-2.533-0.486-3.656-1.086
		c-1.123-0.6-2.114-1.425-2.976-2.474C159.309,296.939,158.673,295.694,158.261,294.25z M162.384,293.121
		c0.222,0.779,0.574,1.467,1.057,2.062c0.481,0.597,1.047,1.074,1.696,1.435c0.648,0.361,1.353,0.59,2.114,0.684
		c0.76,0.096,1.53,0.032,2.309-0.19s1.466-0.574,2.062-1.057c0.595-0.481,1.073-1.047,1.434-1.696
		c0.361-0.648,0.596-1.355,0.706-2.12c0.109-0.764,0.053-1.536-0.169-2.314c-0.222-0.779-0.582-1.464-1.078-2.056
		c-0.497-0.591-1.07-1.067-1.718-1.429c-0.649-0.36-1.356-0.596-2.12-0.705c-0.765-0.109-1.536-0.053-2.315,0.169
		c-0.779,0.223-1.465,0.582-2.056,1.078c-0.592,0.497-1.068,1.07-1.429,1.718c-0.361,0.649-0.589,1.354-0.684,2.114
		C162.098,291.573,162.162,292.342,162.384,293.121z"/>
	<path fill="#FFFFFF" d="M191.478,304.285l-4.154,1.186c0.186-0.989,0.353-1.935,0.501-2.834c0.148-0.901,0.293-1.815,0.434-2.745
		c0.14-0.929,0.289-1.884,0.446-2.864c0.156-0.98,0.336-2.046,0.539-3.195c-1.035-1.109-2.11-2.283-3.229-3.524
		c-1.119-1.24-2.249-2.494-3.39-3.76c-1.141-1.265-2.271-2.518-3.389-3.759c-1.119-1.24-2.181-2.42-3.185-3.537l4.5-1.284
		c1.706,1.822,3.11,3.355,4.214,4.601s2.012,2.296,2.725,3.153c0.712,0.857,1.272,1.563,1.681,2.117
		c0.408,0.555,0.757,1.07,1.05,1.549c0.025-0.568,0.064-1.195,0.118-1.882s0.157-1.581,0.31-2.687
		c0.153-1.104,0.37-2.476,0.65-4.116c0.281-1.64,0.664-3.683,1.151-6.131l4.457-1.272L191.478,304.285z"/>
	<path fill="#FFFFFF" d="M200.5,282.431c-0.378-1.327-0.479-2.663-0.302-4.009c0.178-1.345,0.579-2.591,1.204-3.736
		c0.625-1.145,1.445-2.151,2.461-3.019c1.016-0.867,2.173-1.486,3.471-1.856c0.866-0.247,1.675-0.361,2.43-0.343
		c0.754,0.019,1.424,0.102,2.012,0.245c0.587,0.145,1.068,0.327,1.443,0.548c0.375,0.221,0.63,0.404,0.766,0.553l-0.457-2.256
		l4.024-1.148L222.8,285.8l-4.197,1.198l-0.346-1.212c-0.041-0.145-0.074-0.283-0.096-0.417c-0.023-0.135-0.042-0.229-0.059-0.288
		c-0.074,0.178-0.217,0.444-0.427,0.801c-0.21,0.356-0.524,0.734-0.94,1.134c-0.417,0.399-0.938,0.789-1.561,1.171
		c-0.625,0.381-1.384,0.699-2.278,0.954c-1.414,0.403-2.786,0.515-4.117,0.333c-1.332-0.182-2.553-0.582-3.665-1.2
		c-1.112-0.619-2.069-1.43-2.871-2.434C201.444,284.836,200.862,283.701,200.5,282.431z M204.623,280.973
		c0.23,0.809,0.581,1.519,1.053,2.133c0.471,0.614,1.032,1.103,1.681,1.463c0.648,0.36,1.361,0.587,2.136,0.677
		c0.774,0.092,1.58,0.018,2.417-0.222c0.836-0.238,1.56-0.601,2.17-1.087c0.61-0.485,1.093-1.061,1.45-1.725
		c0.356-0.663,0.573-1.38,0.65-2.15c0.076-0.771,0.003-1.545-0.219-2.324c-0.223-0.779-0.567-1.468-1.035-2.068
		c-0.468-0.599-1.024-1.071-1.668-1.419c-0.645-0.346-1.354-0.564-2.129-0.655c-0.774-0.091-1.581-0.018-2.417,0.222
		c-0.837,0.238-1.562,0.594-2.176,1.065c-0.614,0.472-1.102,1.032-1.462,1.681c-0.361,0.649-0.582,1.353-0.662,2.107
		C204.33,279.427,204.401,280.195,204.623,280.973z"/>
	<path fill="#FFFFFF" d="M224.199,275.574c-0.395-1.385-0.519-2.745-0.37-4.082s0.523-2.567,1.123-3.69
		c0.6-1.122,1.399-2.091,2.399-2.907c1-0.815,2.148-1.409,3.446-1.779c0.98-0.279,1.883-0.396,2.708-0.352
		c0.824,0.046,1.534,0.155,2.129,0.328c0.595,0.174,1.071,0.366,1.428,0.575c0.356,0.211,0.571,0.337,0.646,0.378
		c-0.091-0.317-0.161-0.672-0.21-1.063c-0.049-0.391-0.131-0.789-0.247-1.193l3.981-1.136l4.977,17.438
		c0.444,1.558,0.596,3.02,0.456,4.386c-0.141,1.366-0.534,2.586-1.179,3.659c-0.646,1.073-1.519,2.001-2.622,2.783
		c-1.103,0.783-2.39,1.385-3.861,1.804c-1.125,0.321-2.146,0.488-3.063,0.5c-0.917,0.012-1.768-0.073-2.553-0.254
		c-0.785-0.182-1.524-0.424-2.219-0.724c-0.694-0.302-1.367-0.609-2.018-0.922l1.88-3.578c1.021,0.52,2.07,0.914,3.146,1.185
		c1.075,0.27,2.276,0.216,3.604-0.163c1.789-0.51,3.093-1.351,3.914-2.521c0.82-1.17,1.004-2.549,0.551-4.135
		c-0.041-0.145-0.088-0.31-0.142-0.498c-0.053-0.188-0.095-0.386-0.123-0.597c-0.074-0.26-0.112-0.498-0.111-0.717
		c0-0.218-0.021-0.399-0.062-0.544c-0.177,0.362-0.397,0.769-0.659,1.218c-0.262,0.449-0.604,0.89-1.026,1.322
		c-0.423,0.433-0.939,0.837-1.549,1.214c-0.611,0.377-1.348,0.688-2.213,0.936c-1.385,0.396-2.725,0.513-4.018,0.352
		c-1.294-0.161-2.483-0.555-3.566-1.182c-1.084-0.627-2.021-1.451-2.812-2.474C225.175,278.12,224.587,276.93,224.199,275.574z
		 M228.304,274.215c0.23,0.809,0.581,1.519,1.053,2.133c0.471,0.614,1.032,1.103,1.681,1.463c0.648,0.36,1.361,0.587,2.136,0.677
		c0.774,0.092,1.58,0.018,2.417-0.222c0.836-0.238,1.567-0.603,2.192-1.093c0.625-0.49,1.115-1.067,1.472-1.73
		c0.356-0.663,0.573-1.38,0.649-2.151c0.076-0.771,0.004-1.545-0.219-2.324c-0.222-0.778-0.567-1.468-1.035-2.067
		c-0.468-0.6-1.024-1.072-1.668-1.419c-0.645-0.347-1.362-0.562-2.151-0.65c-0.79-0.086-1.602-0.011-2.438,0.229
		c-0.837,0.238-1.562,0.594-2.176,1.065c-0.614,0.472-1.102,1.032-1.462,1.681c-0.361,0.649-0.582,1.353-0.662,2.107
		C228.011,272.669,228.082,273.437,228.304,274.215z"/>
	<path fill="#FFFFFF" d="M266.775,270.957c-0.664,1.063-1.564,2.007-2.702,2.83c-1.138,0.823-2.371,1.426-3.697,1.804
		c-1.356,0.388-2.705,0.499-4.045,0.336c-1.342-0.163-2.578-0.559-3.708-1.188c-1.131-0.628-2.123-1.453-2.976-2.473
		c-0.853-1.021-1.468-2.193-1.847-3.521c-0.378-1.326-0.475-2.648-0.289-3.965c0.186-1.316,0.593-2.54,1.222-3.671
		s1.456-2.116,2.479-2.954c1.024-0.838,2.186-1.442,3.484-1.813c2.077-0.593,4.08-0.485,6.011,0.32
		c1.93,0.807,3.519,2.139,4.768,3.998c-0.775,0.564-1.668,1.232-2.68,2.005c-1.012,0.772-2.069,1.581-3.169,2.425
		c-1.101,0.845-2.199,1.696-3.295,2.555c-1.096,0.859-2.106,1.639-3.029,2.339c0.746,0.755,1.629,1.282,2.651,1.583
		c1.022,0.302,2.081,0.296,3.177-0.018c0.75-0.214,1.468-0.566,2.154-1.06c0.686-0.491,1.208-1.038,1.567-1.641L266.775,270.957z
		 M260.053,261.177c-0.527-0.536-1.18-0.856-1.959-0.962s-1.5-0.063-2.164,0.126c-0.779,0.222-1.471,0.583-2.077,1.084
		c-0.606,0.5-1.082,1.073-1.428,1.718c-0.347,0.646-0.572,1.333-0.674,2.064c-0.104,0.731-0.056,1.443,0.141,2.136l0.05,0.173
		c0.638-0.493,1.322-1.024,2.049-1.591s1.453-1.14,2.176-1.721c0.724-0.581,1.417-1.13,2.081-1.646
		C258.911,262.04,259.513,261.581,260.053,261.177z"/>
	<path fill="#FFFFFF" d="M279.851,240.412c0.943,0.792,1.887,1.583,2.83,2.374c0.943,0.792,1.882,1.569,2.818,2.331l-3.115,0.89
		c-1.167-0.696-2.336-1.407-3.51-2.134c-1.174-0.725-2.334-1.455-3.479-2.189L279.851,240.412z M278.214,260.252
		c-0.379-1.326-0.479-2.663-0.302-4.008c0.178-1.346,0.578-2.591,1.203-3.736c0.625-1.146,1.445-2.151,2.461-3.02
		c1.016-0.866,2.173-1.485,3.472-1.856c0.865-0.246,1.675-0.36,2.429-0.342s1.425,0.101,2.012,0.245s1.068,0.326,1.443,0.547
		c0.374,0.221,0.63,0.405,0.767,0.554l-0.457-2.257l4.024-1.148l5.249,18.392l-4.198,1.197l-0.346-1.212
		c-0.041-0.144-0.073-0.283-0.096-0.417s-0.042-0.229-0.059-0.287c-0.074,0.178-0.217,0.444-0.427,0.8
		c-0.211,0.357-0.523,0.734-0.939,1.135c-0.417,0.399-0.938,0.789-1.562,1.171c-0.624,0.38-1.384,0.699-2.278,0.954
		c-1.414,0.403-2.785,0.514-4.116,0.332s-2.553-0.581-3.666-1.2c-1.112-0.618-2.069-1.429-2.87-2.433
		S278.576,261.523,278.214,260.252z M282.337,258.795c0.23,0.808,0.581,1.519,1.053,2.133c0.472,0.614,1.031,1.102,1.682,1.462
		c0.648,0.361,1.36,0.587,2.135,0.678c0.775,0.091,1.58,0.018,2.417-0.222c0.837-0.238,1.56-0.601,2.17-1.087
		s1.093-1.062,1.45-1.725c0.355-0.663,0.572-1.38,0.649-2.15c0.076-0.771,0.003-1.546-0.219-2.324
		c-0.222-0.779-0.567-1.469-1.034-2.068c-0.469-0.599-1.024-1.072-1.669-1.419c-0.646-0.346-1.354-0.564-2.13-0.656
		c-0.773-0.09-1.58-0.017-2.416,0.222c-0.838,0.239-1.562,0.595-2.176,1.066c-0.615,0.472-1.103,1.032-1.463,1.681
		c-0.361,0.649-0.582,1.352-0.662,2.107C282.043,257.249,282.114,258.016,282.337,258.795z"/>
	<path fill="#FFFFFF" d="M335.41,219.547l9.423,33.017c-0.276-0.201-0.859-0.55-1.749-1.045c-0.89-0.494-1.978-1.08-3.263-1.76
		c-1.287-0.678-2.709-1.426-4.268-2.245c-1.561-0.817-3.146-1.645-4.756-2.479c-1.611-0.835-3.188-1.656-4.729-2.465
		c-1.541-0.808-2.947-1.553-4.218-2.235s-2.343-1.266-3.214-1.751c-0.871-0.483-1.445-0.827-1.721-1.029
		c-0.046-0.049-0.205-0.168-0.477-0.355s-0.508-0.361-0.711-0.522l0.525,1.348l5.57,19.516l-5.279,1.507l-9.41-32.974
		c0.275,0.202,0.856,0.544,1.742,1.023c0.887,0.48,1.969,1.053,3.251,1.716c1.281,0.664,2.695,1.384,4.243,2.159
		c1.547,0.775,3.121,1.565,4.725,2.372c1.603,0.806,3.172,1.605,4.709,2.399s2.943,1.516,4.221,2.165s2.35,1.209,3.217,1.679
		c0.867,0.471,1.439,0.807,1.716,1.008l1.168,0.978l-0.55-1.435l-5.446-19.083L335.41,219.547z"/>
	<path fill="#FFFFFF" d="M346.104,240.877c-0.378-1.327-0.479-2.663-0.302-4.009c0.178-1.345,0.578-2.591,1.203-3.736
		c0.625-1.145,1.445-2.151,2.461-3.019c1.017-0.867,2.174-1.486,3.473-1.856c0.865-0.247,1.674-0.361,2.429-0.343
		c0.754,0.02,1.425,0.102,2.012,0.245c0.587,0.145,1.067,0.327,1.443,0.548c0.374,0.221,0.63,0.404,0.767,0.553l-0.457-2.256
		l4.024-1.148l5.248,18.391l-4.197,1.198l-0.346-1.212c-0.041-0.145-0.073-0.283-0.096-0.417c-0.022-0.135-0.042-0.229-0.059-0.288
		c-0.074,0.178-0.217,0.444-0.427,0.801c-0.211,0.356-0.523,0.734-0.939,1.134c-0.418,0.399-0.938,0.789-1.562,1.171
		c-0.625,0.381-1.384,0.699-2.278,0.954c-1.414,0.403-2.785,0.515-4.117,0.333c-1.331-0.182-2.553-0.582-3.664-1.2
		c-1.113-0.619-2.07-1.43-2.871-2.434S346.466,242.147,346.104,240.877z M350.228,239.419c0.23,0.809,0.58,1.519,1.053,2.133
		c0.471,0.614,1.031,1.103,1.681,1.463c0.648,0.36,1.36,0.587,2.136,0.677c0.774,0.092,1.58,0.018,2.416-0.222
		c0.837-0.238,1.561-0.601,2.171-1.087c0.61-0.485,1.093-1.061,1.45-1.725c0.355-0.663,0.572-1.38,0.649-2.15
		c0.076-0.771,0.003-1.545-0.219-2.324s-0.567-1.468-1.034-2.068c-0.469-0.599-1.025-1.071-1.669-1.419
		c-0.646-0.346-1.354-0.564-2.13-0.655c-0.773-0.091-1.58-0.018-2.416,0.222c-0.838,0.238-1.562,0.594-2.177,1.065
		s-1.102,1.032-1.462,1.681c-0.361,0.649-0.582,1.353-0.662,2.107C349.934,237.873,350.005,238.641,350.228,239.419z"/>
	<path fill="#FFFFFF" d="M368.269,224.398l3.635-1.037c0.354,1.021,0.659,1.847,0.917,2.476c0.257,0.629,0.53,1.339,0.818,2.13
		c0.218-1.747,0.798-3.27,1.738-4.567s2.318-2.206,4.136-2.725c1.875-0.535,3.514-0.449,4.917,0.258s2.368,1.875,2.896,3.502
		l3.803,13.328l-4.11,1.173l-3.248-11.38c-0.313-0.878-0.851-1.56-1.612-2.044c-0.764-0.484-1.758-0.582-2.986-0.294
		c-0.836,0.238-1.564,0.61-2.186,1.115c-0.62,0.504-1.108,1.088-1.465,1.751c-0.357,0.664-0.569,1.396-0.637,2.194
		c-0.069,0.8,0.017,1.618,0.256,2.454l2.531,8.871l-4.154,1.186L368.269,224.398z"/>
	<path fill="#FFFFFF" d="M390.255,209.418l4.11-1.174l2.297,8.049l4.804-1.37l1.062,3.721l-4.804,1.371l4.188,14.669l-4.111,1.174
		l-4.187-14.67l-3.116,0.89l-1.062-3.722l3.116-0.889L390.255,209.418z"/>
	<path fill="#FFFFFF" d="M424.624,225.91c-0.664,1.063-1.564,2.007-2.701,2.83c-1.139,0.823-2.371,1.426-3.697,1.804
		c-1.356,0.388-2.705,0.499-4.046,0.336c-1.342-0.163-2.577-0.559-3.708-1.188c-1.132-0.628-2.123-1.453-2.977-2.473
		c-0.852-1.021-1.468-2.193-1.847-3.521c-0.378-1.326-0.476-2.648-0.289-3.965c0.186-1.316,0.593-2.54,1.222-3.671
		s1.455-2.116,2.479-2.954s2.186-1.443,3.483-1.813c2.078-0.593,4.08-0.485,6.012,0.32c1.93,0.807,3.52,2.139,4.768,3.998
		c-0.775,0.564-1.668,1.232-2.68,2.005c-1.013,0.772-2.069,1.581-3.17,2.425c-1.1,0.845-2.199,1.696-3.295,2.555
		c-1.096,0.859-2.105,1.639-3.029,2.339c0.746,0.755,1.629,1.282,2.651,1.583c1.022,0.302,2.081,0.296,3.177-0.018
		c0.75-0.214,1.469-0.566,2.154-1.06c0.687-0.491,1.209-1.038,1.568-1.641L424.624,225.91z M417.902,216.129
		c-0.526-0.536-1.18-0.856-1.959-0.962c-0.778-0.105-1.5-0.063-2.163,0.126c-0.778,0.222-1.472,0.583-2.077,1.084
		c-0.605,0.5-1.082,1.073-1.428,1.718c-0.348,0.646-0.572,1.333-0.675,2.064c-0.104,0.731-0.056,1.443,0.142,2.136l0.049,0.173
		c0.639-0.493,1.322-1.024,2.05-1.591s1.453-1.14,2.177-1.721c0.723-0.581,1.416-1.13,2.08-1.646
		C416.761,216.993,417.362,216.533,417.902,216.129z"/>
	<path fill="#FFFFFF" d="M435.622,206.953c-0.098,0.31-0.224,0.665-0.373,1.066c-0.151,0.402-0.301,0.78-0.449,1.134
		c-0.148,0.355-0.32,0.794-0.514,1.316c-0.346-0.119-0.672-0.197-0.979-0.234s-0.655-0.055-1.044-0.054
		c-0.391,0.003-0.772,0.057-1.146,0.164c-0.404,0.115-0.803,0.331-1.197,0.646c-0.394,0.315-0.508,0.762-0.344,1.338
		c0.141,0.491,0.453,0.847,0.938,1.066c0.483,0.221,1.046,0.389,1.687,0.502c0.642,0.113,1.341,0.218,2.102,0.312
		c0.76,0.095,1.483,0.278,2.169,0.551c0.687,0.272,1.316,0.677,1.892,1.215s0.998,1.283,1.27,2.235
		c0.239,0.837,0.306,1.644,0.2,2.423c-0.105,0.778-0.369,1.494-0.792,2.145c-0.423,0.651-0.981,1.232-1.679,1.743
		c-0.697,0.51-1.535,0.906-2.516,1.186c-1.184,0.338-2.389,0.463-3.613,0.376c-1.227-0.087-2.264-0.414-3.111-0.983
		c0.135-0.288,0.298-0.647,0.488-1.076c0.189-0.428,0.369-0.838,0.537-1.229c0.17-0.392,0.38-0.856,0.631-1.396
		c-0.008-0.028,0.1-0.005,0.325,0.071c0.224,0.076,0.52,0.155,0.887,0.238c0.366,0.082,0.787,0.134,1.261,0.154
		c0.475,0.021,0.941-0.034,1.404-0.166c0.721-0.206,1.23-0.522,1.529-0.952c0.299-0.428,0.383-0.873,0.251-1.335
		c-0.132-0.461-0.434-0.78-0.905-0.958c-0.472-0.177-1.023-0.309-1.656-0.393c-0.633-0.085-1.33-0.175-2.09-0.27
		s-1.482-0.279-2.169-0.551c-0.687-0.272-1.32-0.691-1.903-1.259c-0.583-0.566-1.023-1.369-1.319-2.408
		c-0.296-1.038-0.356-1.957-0.179-2.757c0.178-0.799,0.5-1.5,0.969-2.102c0.467-0.601,1.021-1.094,1.66-1.479
		c0.639-0.385,1.289-0.672,1.953-0.861c0.895-0.256,1.876-0.341,2.945-0.256S434.77,206.479,435.622,206.953z"/>
</g>
<g>
	<path fill="#FFFFFF" d="M174.688,353.102c-0.378-1.328-0.479-2.664-0.301-4.01c0.178-1.344,0.578-2.59,1.203-3.736
		c0.625-1.145,1.445-2.15,2.461-3.018c1.016-0.867,2.173-1.486,3.472-1.857c0.865-0.246,1.675-0.361,2.429-0.342
		c0.754,0.02,1.424,0.102,2.012,0.244c0.587,0.145,1.068,0.328,1.443,0.549c0.375,0.221,0.63,0.404,0.766,0.553l-0.457-2.256
		l4.024-1.148l5.248,18.391l-4.197,1.197l-0.346-1.211c-0.041-0.145-0.074-0.283-0.096-0.418c-0.023-0.135-0.042-0.229-0.059-0.287
		c-0.074,0.178-0.217,0.443-0.427,0.801c-0.21,0.355-0.524,0.734-0.94,1.133c-0.417,0.4-0.938,0.789-1.561,1.172
		c-0.625,0.381-1.384,0.699-2.278,0.953c-1.414,0.404-2.786,0.516-4.117,0.334c-1.332-0.182-2.553-0.582-3.665-1.201
		s-2.069-1.43-2.871-2.434C175.632,355.506,175.05,354.372,174.688,353.102z M178.811,351.643c0.23,0.809,0.581,1.52,1.053,2.133
		c0.471,0.615,1.032,1.104,1.681,1.463c0.648,0.361,1.361,0.588,2.136,0.678c0.774,0.092,1.58,0.018,2.417-0.223
		c0.836-0.238,1.56-0.6,2.17-1.086c0.61-0.486,1.093-1.061,1.45-1.725c0.356-0.664,0.573-1.381,0.65-2.15
		c0.076-0.771,0.003-1.545-0.219-2.324s-0.567-1.469-1.035-2.068c-0.468-0.6-1.024-1.072-1.668-1.42
		c-0.645-0.346-1.354-0.564-2.129-0.654c-0.774-0.092-1.581-0.018-2.417,0.221c-0.837,0.238-1.562,0.594-2.176,1.066
		c-0.614,0.471-1.102,1.031-1.462,1.68c-0.361,0.65-0.582,1.354-0.662,2.107C178.518,350.098,178.589,350.866,178.811,351.643z"/>
	<path fill="#FFFFFF" d="M199.817,347.661l-1.247-4.369l8.092-2.311l1.248,4.371L199.817,347.661z"/>
	<path fill="#FFFFFF" d="M209.155,324.407l4.111-1.174l2.297,8.049l4.803-1.371l1.062,3.721l-4.803,1.371l4.187,14.67l-4.111,1.174
		l-4.187-14.67l-3.116,0.889l-1.062-3.721l3.116-0.889L209.155,324.407z"/>
	<path fill="#FFFFFF" d="M226.392,340.077l-1.247-4.369l8.092-2.311l1.248,4.371L226.392,340.077z"/>
	<path fill="#FFFFFF" d="M233.817,318.35c-0.214-0.75-0.117-1.447,0.291-2.096c0.408-0.646,0.929-1.061,1.564-1.242
		c0.634-0.18,1.288-0.102,1.962,0.236c0.673,0.338,1.118,0.883,1.332,1.633c0.222,0.777,0.134,1.482-0.263,2.109
		c-0.398,0.629-0.915,1.033-1.549,1.215c-0.635,0.182-1.294,0.111-1.978-0.207C234.492,319.678,234.039,319.129,233.817,318.35z
		 M245.733,342.559l-4.154,1.186l-5.249-18.391l4.154-1.186L245.733,342.559z"/>
	<path fill="#FFFFFF" d="M254.94,339.934l-4.111,1.172l-9.645-33.795l4.111-1.174L254.94,339.934z"/>
	<path fill="#FFFFFF" d="M287.005,320.909c0.395,1.383,0.528,2.727,0.4,4.025c-0.128,1.301-0.494,2.506-1.098,3.613
		c-0.604,1.109-1.43,2.07-2.477,2.883c-1.048,0.814-2.278,1.422-3.691,1.826c-1.414,0.402-2.738,0.492-3.972,0.268
		s-2.14-0.584-2.716-1.074c0.033,0.115,0.071,0.223,0.114,0.318c0.043,0.098,0.085,0.219,0.126,0.361l0.383,1.342l-4.154,1.186
		l-9.645-33.795l4.154-1.186l5.063,17.742c0.148-0.355,0.355-0.75,0.622-1.184c0.266-0.436,0.62-0.863,1.061-1.287
		c0.441-0.422,0.959-0.818,1.555-1.191c0.595-0.373,1.283-0.67,2.062-0.893c1.413-0.404,2.761-0.547,4.042-0.428
		c1.281,0.117,2.455,0.484,3.52,1.1c1.065,0.617,1.999,1.459,2.802,2.523C285.961,318.125,286.577,319.409,287.005,320.909z
		 M282.48,322.106c-0.461-1.615-1.311-2.816-2.549-3.602c-1.238-0.785-2.694-0.939-4.367-0.463c-0.837,0.24-1.562,0.596-2.176,1.066
		c-0.614,0.473-1.102,1.033-1.462,1.682c-0.361,0.648-0.589,1.354-0.684,2.113c-0.095,0.76-0.031,1.529,0.191,2.309
		c0.23,0.809,0.588,1.516,1.075,2.127c0.486,0.609,1.054,1.096,1.703,1.455c0.648,0.361,1.361,0.588,2.135,0.678
		c0.775,0.092,1.58,0.018,2.417-0.221c0.836-0.24,1.545-0.598,2.127-1.076c0.581-0.477,1.021-1.039,1.32-1.686
		c0.299-0.648,0.475-1.346,0.526-2.094C282.787,323.649,282.702,322.885,282.48,322.106z"/>
	<path fill="#FFFFFF" d="M289.819,320.01c-0.379-1.326-0.482-2.646-0.312-3.959s0.581-2.529,1.228-3.648
		c0.647-1.121,1.498-2.105,2.551-2.951s2.258-1.463,3.613-1.85c1.385-0.396,2.74-0.51,4.068-0.342
		c1.326,0.166,2.539,0.561,3.637,1.184s2.059,1.449,2.883,2.477c0.824,1.029,1.426,2.207,1.805,3.533
		c0.378,1.328,0.498,2.65,0.359,3.969s-0.515,2.541-1.129,3.668s-1.441,2.111-2.479,2.953c-1.039,0.844-2.265,1.467-3.679,1.869
		c-1.355,0.387-2.691,0.518-4.006,0.395s-2.533-0.486-3.655-1.086c-1.123-0.6-2.114-1.424-2.976-2.473
		S290.231,321.454,289.819,320.01z M293.943,318.881c0.222,0.779,0.574,1.467,1.057,2.061c0.48,0.598,1.047,1.074,1.695,1.436
		s1.354,0.59,2.114,0.684c0.76,0.096,1.53,0.031,2.309-0.191s1.466-0.574,2.062-1.057c0.596-0.48,1.074-1.047,1.435-1.695
		s0.597-1.355,0.706-2.121c0.109-0.764,0.053-1.535-0.17-2.314s-0.582-1.463-1.078-2.055s-1.069-1.068-1.718-1.43
		c-0.649-0.359-1.356-0.596-2.12-0.705s-1.535-0.053-2.314,0.17s-1.465,0.582-2.056,1.078c-0.592,0.496-1.067,1.07-1.429,1.717
		c-0.361,0.65-0.589,1.355-0.684,2.115C293.655,317.332,293.72,318.102,293.943,318.881z"/>
	<path fill="#FFFFFF" d="M312.081,313.659c-0.379-1.326-0.482-2.646-0.311-3.959c0.17-1.312,0.58-2.529,1.228-3.65
		s1.497-2.104,2.551-2.951c1.053-0.846,2.257-1.463,3.613-1.85c1.385-0.395,2.74-0.508,4.067-0.342
		c1.326,0.168,2.539,0.562,3.637,1.186c1.098,0.621,2.059,1.447,2.883,2.477c0.824,1.027,1.426,2.205,1.805,3.533
		c0.379,1.326,0.498,2.648,0.36,3.967c-0.139,1.32-0.515,2.543-1.13,3.668c-0.613,1.129-1.44,2.113-2.479,2.955
		c-1.039,0.842-2.266,1.465-3.679,1.869c-1.356,0.387-2.691,0.518-4.006,0.395c-1.315-0.125-2.533-0.486-3.655-1.086
		c-1.123-0.6-2.115-1.426-2.977-2.475C313.129,316.346,312.493,315.102,312.081,313.659z M316.204,312.528
		c0.223,0.779,0.574,1.467,1.057,2.062c0.481,0.596,1.047,1.074,1.696,1.434c0.648,0.361,1.353,0.59,2.114,0.684
		c0.76,0.096,1.529,0.033,2.309-0.189c0.778-0.223,1.465-0.574,2.061-1.057s1.074-1.047,1.436-1.697
		c0.36-0.648,0.596-1.355,0.705-2.119s0.053-1.537-0.17-2.314c-0.222-0.779-0.581-1.465-1.078-2.057
		c-0.496-0.59-1.068-1.066-1.717-1.428c-0.649-0.361-1.356-0.596-2.121-0.705c-0.764-0.109-1.535-0.053-2.314,0.168
		c-0.779,0.223-1.465,0.582-2.055,1.078c-0.592,0.498-1.068,1.07-1.43,1.719c-0.36,0.648-0.588,1.354-0.684,2.113
		C315.918,310.981,315.982,311.748,316.204,312.528z"/>
	<path fill="#FFFFFF" d="M343.816,296.457c-0.098,0.311-0.224,0.666-0.373,1.066c-0.151,0.402-0.301,0.781-0.449,1.135
		c-0.148,0.355-0.32,0.793-0.514,1.316c-0.346-0.119-0.672-0.197-0.979-0.234s-0.655-0.055-1.044-0.055
		c-0.391,0.004-0.772,0.057-1.146,0.164c-0.404,0.115-0.803,0.332-1.197,0.646c-0.394,0.314-0.508,0.762-0.344,1.338
		c0.141,0.49,0.453,0.846,0.938,1.066c0.483,0.221,1.046,0.389,1.687,0.502c0.642,0.113,1.341,0.217,2.102,0.312
		c0.76,0.094,1.483,0.277,2.169,0.551c0.687,0.271,1.316,0.676,1.892,1.215c0.575,0.537,0.998,1.283,1.27,2.234
		c0.239,0.838,0.306,1.645,0.2,2.424c-0.105,0.777-0.369,1.494-0.792,2.145s-0.981,1.232-1.679,1.742s-1.535,0.906-2.516,1.186
		c-1.184,0.338-2.389,0.463-3.613,0.377c-1.227-0.088-2.264-0.414-3.111-0.984c0.135-0.287,0.298-0.646,0.488-1.076
		c0.189-0.428,0.369-0.838,0.537-1.229c0.17-0.393,0.38-0.857,0.631-1.396c-0.008-0.029,0.1-0.006,0.325,0.07
		c0.224,0.076,0.52,0.156,0.887,0.238c0.366,0.082,0.787,0.135,1.261,0.154c0.475,0.021,0.941-0.033,1.404-0.166
		c0.721-0.205,1.23-0.521,1.529-0.951c0.299-0.428,0.383-0.873,0.251-1.336c-0.132-0.461-0.434-0.779-0.905-0.957
		s-1.023-0.309-1.656-0.393c-0.633-0.086-1.33-0.176-2.09-0.27c-0.76-0.096-1.482-0.279-2.169-0.551
		c-0.687-0.273-1.32-0.691-1.903-1.26c-0.583-0.566-1.023-1.369-1.319-2.408c-0.296-1.037-0.356-1.957-0.179-2.756
		s0.5-1.5,0.969-2.102c0.467-0.602,1.021-1.094,1.66-1.48c0.639-0.385,1.289-0.672,1.953-0.861c0.895-0.256,1.876-0.34,2.945-0.256
		C342.002,295.706,342.963,295.985,343.816,296.457z"/>
	<path fill="#FFFFFF" d="M347.402,284.954l4.11-1.174l2.297,8.049l4.804-1.371l1.062,3.721l-4.804,1.371l4.188,14.67l-4.111,1.174
		l-4.187-14.67l-3.116,0.889l-1.062-3.721l3.116-0.889L347.402,284.954z"/>
	<path fill="#FFFFFF" d="M381.769,301.446c-0.664,1.062-1.564,2.006-2.701,2.83c-1.139,0.822-2.371,1.426-3.697,1.803
		c-1.356,0.389-2.705,0.5-4.046,0.336c-1.342-0.162-2.577-0.559-3.708-1.188c-1.132-0.629-2.123-1.453-2.977-2.473
		c-0.852-1.021-1.468-2.193-1.847-3.521c-0.378-1.326-0.476-2.648-0.289-3.965c0.186-1.316,0.593-2.541,1.222-3.672
		s1.455-2.115,2.479-2.953s2.186-1.443,3.483-1.814c2.078-0.592,4.08-0.484,6.012,0.32c1.93,0.807,3.52,2.139,4.768,3.998
		c-0.775,0.564-1.668,1.232-2.68,2.006c-1.013,0.771-2.068,1.58-3.17,2.424c-1.1,0.846-2.199,1.697-3.295,2.555
		c-1.096,0.859-2.105,1.639-3.029,2.34c0.746,0.754,1.629,1.281,2.651,1.582c1.022,0.303,2.081,0.297,3.177-0.018
		c0.75-0.213,1.469-0.566,2.154-1.059c0.687-0.492,1.209-1.039,1.568-1.641L381.769,301.446z M366.105,285.418
		c0.392-1.141,0.771-2.295,1.141-3.46c0.37-1.166,0.746-2.334,1.13-3.505l4.457-1.271c-0.585,1.228-1.187,2.46-1.8,3.695
		c-0.615,1.236-1.233,2.458-1.855,3.665L366.105,285.418z M375.046,291.664c-0.526-0.535-1.18-0.855-1.959-0.961
		c-0.778-0.105-1.5-0.064-2.163,0.125c-0.778,0.223-1.472,0.584-2.077,1.084s-1.082,1.074-1.428,1.719
		c-0.348,0.645-0.572,1.332-0.675,2.064c-0.104,0.73-0.056,1.443,0.142,2.135l0.049,0.174c0.639-0.494,1.322-1.025,2.05-1.592
		s1.453-1.139,2.177-1.721c0.723-0.58,1.416-1.129,2.08-1.646S374.507,292.069,375.046,291.664z"/>
</g>
<g>
	<path fill="#FFFFFF" d="M137.504,436.602l-4.111,1.174l-9.645-33.797l4.111-1.172L137.504,436.602z"/>
	<path fill="#FFFFFF" d="M157.811,428.514c-0.664,1.062-1.564,2.006-2.702,2.83c-1.138,0.822-2.371,1.424-3.697,1.803
		c-1.356,0.389-2.705,0.5-4.045,0.336c-1.342-0.162-2.578-0.559-3.708-1.188c-1.131-0.629-2.123-1.453-2.976-2.473
		c-0.853-1.021-1.468-2.193-1.847-3.521c-0.378-1.326-0.475-2.648-0.289-3.965c0.186-1.316,0.593-2.541,1.222-3.672
		c0.628-1.131,1.456-2.115,2.479-2.953c1.024-0.838,2.186-1.443,3.484-1.814c2.077-0.592,4.08-0.484,6.011,0.32
		c1.93,0.807,3.519,2.139,4.768,3.998c-0.775,0.564-1.668,1.232-2.68,2.006c-1.012,0.771-2.069,1.58-3.169,2.424
		c-1.101,0.846-2.199,1.697-3.295,2.555c-1.096,0.859-2.106,1.639-3.029,2.34c0.746,0.754,1.629,1.281,2.651,1.582
		c1.022,0.303,2.081,0.297,3.177-0.018c0.75-0.213,1.468-0.566,2.154-1.059c0.686-0.492,1.208-1.039,1.567-1.641L157.811,428.514z
		 M151.089,418.733c-0.527-0.535-1.18-0.857-1.959-0.961c-0.779-0.105-1.5-0.064-2.164,0.125c-0.779,0.223-1.471,0.584-2.077,1.084
		s-1.082,1.074-1.428,1.719c-0.347,0.645-0.572,1.332-0.675,2.064c-0.103,0.73-0.056,1.443,0.142,2.135l0.049,0.174
		c0.639-0.494,1.322-1.025,2.05-1.592s1.453-1.139,2.176-1.721c0.724-0.58,1.417-1.129,2.081-1.646
		C149.947,419.596,150.549,419.137,151.089,418.733z"/>
	<path fill="#FFFFFF" d="M167.154,399.547l4.111-1.174l2.297,8.049l4.803-1.369l1.062,3.721l-4.803,1.371l4.187,14.668l-4.111,1.174
		l-4.187-14.67l-3.116,0.891l-1.062-3.723l3.116-0.889L167.154,399.547z"/>
	<path fill="#FFFFFF" d="M182.53,413.784c-0.378-1.326-0.482-2.646-0.311-3.959c0.171-1.312,0.581-2.529,1.228-3.648
		c0.647-1.121,1.498-2.105,2.551-2.951c1.053-0.846,2.257-1.463,3.613-1.85c1.385-0.396,2.74-0.51,4.067-0.342
		c1.327,0.166,2.539,0.561,3.637,1.184c1.098,0.623,2.059,1.449,2.883,2.477c0.824,1.029,1.425,2.207,1.804,3.533
		c0.378,1.328,0.499,2.65,0.36,3.969c-0.139,1.318-0.515,2.541-1.129,3.668s-1.441,2.111-2.479,2.953
		c-1.039,0.844-2.265,1.467-3.678,1.869c-1.356,0.387-2.691,0.518-4.006,0.395c-1.315-0.123-2.533-0.486-3.656-1.086
		c-1.123-0.6-2.114-1.424-2.976-2.473C183.578,416.473,182.942,415.227,182.53,413.784z M186.653,412.655
		c0.222,0.779,0.574,1.467,1.057,2.061c0.481,0.598,1.047,1.074,1.696,1.436c0.648,0.361,1.353,0.59,2.114,0.684
		c0.76,0.096,1.53,0.031,2.309-0.191s1.466-0.574,2.062-1.057c0.596-0.48,1.074-1.047,1.435-1.695s0.596-1.355,0.706-2.121
		c0.109-0.764,0.053-1.535-0.169-2.314c-0.222-0.779-0.582-1.463-1.078-2.055c-0.497-0.592-1.07-1.068-1.718-1.43
		c-0.649-0.359-1.356-0.596-2.12-0.705c-0.765-0.109-1.536-0.053-2.315,0.17c-0.779,0.223-1.465,0.582-2.056,1.078
		c-0.592,0.496-1.068,1.07-1.429,1.717c-0.361,0.65-0.589,1.355-0.684,2.115C186.367,411.106,186.431,411.875,186.653,412.655z"/>
	<path fill="#FFFFFF" d="M226.183,411.762l-3.462,0.988l-1.977-4.957c-0.244,1.66-0.812,3.141-1.704,4.439
		c-0.893,1.301-2.291,2.223-4.195,2.766s-3.554,0.477-4.948-0.203c-1.395-0.678-2.355-1.83-2.882-3.459l-3.816-13.371l4.154-1.186
		l3.26,11.424c0.312,0.879,0.839,1.547,1.579,2.006c0.74,0.461,1.737,0.543,2.995,0.246c0.836-0.238,1.56-0.602,2.17-1.088
		c0.61-0.484,1.093-1.061,1.45-1.725c0.356-0.662,0.576-1.396,0.659-2.199s0.005-1.623-0.234-2.461l-2.532-8.871l4.111-1.172
		L226.183,411.762z"/>
	<path fill="#FFFFFF" d="M237.611,393.432c-0.808,0.23-1.551,0.553-2.229,0.965c-0.678,0.412-1.239,0.906-1.682,1.486
		c-0.443,0.578-0.749,1.227-0.918,1.945c-0.169,0.721-0.134,1.498,0.104,2.334l2.433,8.525l-4.154,1.186l-5.249-18.391l3.635-1.037
		c0.354,1.021,0.66,1.846,0.917,2.475s0.53,1.34,0.818,2.131c0.145-0.916,0.443-1.781,0.897-2.598
		c0.453-0.814,0.955-1.543,1.506-2.184c0.55-0.641,1.122-1.178,1.715-1.613c0.594-0.434,1.121-0.717,1.583-0.85L237.611,393.432z"/>
	<path fill="#FFFFFF" d="M237.428,380.475c-0.214-0.75-0.117-1.447,0.291-2.096c0.408-0.646,0.93-1.061,1.564-1.242
		c0.634-0.18,1.289-0.102,1.962,0.236c0.673,0.338,1.118,0.883,1.332,1.633c0.222,0.777,0.134,1.482-0.263,2.109
		c-0.398,0.629-0.915,1.033-1.549,1.215c-0.635,0.182-1.294,0.111-1.978-0.207C238.104,381.803,237.651,381.254,237.428,380.475z
		 M249.344,404.684l-4.154,1.186l-5.249-18.391l4.154-1.186L249.344,404.684z"/>
	<path fill="#FFFFFF" d="M260.133,383.495c-0.099,0.311-0.224,0.666-0.374,1.066c-0.151,0.402-0.3,0.781-0.449,1.135
		c-0.148,0.355-0.32,0.793-0.513,1.316c-0.346-0.119-0.673-0.197-0.979-0.234c-0.308-0.037-0.655-0.055-1.045-0.053
		s-0.772,0.055-1.146,0.162c-0.404,0.115-0.803,0.332-1.196,0.646c-0.394,0.314-0.508,0.762-0.344,1.338
		c0.14,0.49,0.452,0.846,0.937,1.066c0.484,0.221,1.046,0.389,1.687,0.502c0.641,0.113,1.341,0.217,2.102,0.312
		c0.76,0.096,1.483,0.277,2.169,0.551c0.686,0.271,1.316,0.676,1.891,1.215c0.575,0.537,0.998,1.283,1.27,2.234
		c0.239,0.838,0.306,1.645,0.2,2.424s-0.369,1.494-0.792,2.145c-0.422,0.65-0.982,1.232-1.679,1.742s-1.536,0.906-2.516,1.186
		c-1.183,0.338-2.388,0.463-3.613,0.377c-1.226-0.088-2.264-0.414-3.112-0.984c0.135-0.287,0.298-0.646,0.488-1.076
		c0.189-0.428,0.369-0.838,0.538-1.229c0.169-0.393,0.379-0.857,0.631-1.396c-0.008-0.029,0.099-0.006,0.324,0.07
		c0.225,0.076,0.52,0.156,0.887,0.238c0.366,0.082,0.787,0.135,1.261,0.154c0.474,0.021,0.941-0.033,1.403-0.166
		c0.721-0.205,1.231-0.521,1.53-0.951c0.299-0.428,0.383-0.873,0.251-1.336c-0.132-0.461-0.434-0.779-0.905-0.957
		s-1.024-0.309-1.656-0.393c-0.633-0.086-1.33-0.176-2.089-0.27c-0.76-0.096-1.483-0.279-2.169-0.551
		c-0.686-0.273-1.32-0.691-1.903-1.26c-0.583-0.566-1.023-1.369-1.319-2.408c-0.296-1.037-0.356-1.957-0.178-2.756
		c0.177-0.799,0.5-1.5,0.968-2.102c0.467-0.602,1.021-1.094,1.66-1.48c0.639-0.385,1.29-0.672,1.954-0.861
		c0.894-0.256,1.876-0.34,2.946-0.256C258.319,382.743,259.28,383.022,260.133,383.495z"/>
	<path fill="#FFFFFF" d="M264.341,380.516l3.678-1.049c0.176,0.51,0.337,0.965,0.481,1.359c0.144,0.396,0.282,0.77,0.414,1.123
		c0.131,0.352,0.261,0.697,0.389,1.035c0.127,0.338,0.263,0.705,0.407,1.1c0.248-1.756,0.764-3.252,1.55-4.49
		s2.097-2.135,3.936-2.691c1.817-0.518,3.396-0.477,4.738,0.123c1.341,0.6,2.322,1.607,2.944,3.02c0.141-0.818,0.34-1.594,0.6-2.324
		c0.261-0.729,0.595-1.385,1.005-1.971c0.41-0.584,0.927-1.098,1.549-1.541c0.623-0.443,1.395-0.797,2.318-1.061
		c1.904-0.543,3.564-0.463,4.982,0.24s2.389,1.869,2.916,3.496l3.804,13.328l-4.153,1.186l-3.248-11.381
		c-0.313-0.877-0.837-1.562-1.57-2.055c-0.732-0.494-1.742-0.588-3.028-0.283c-1.702,0.486-2.864,1.418-3.483,2.797
		c-0.621,1.377-0.685,2.932-0.19,4.662l2.519,8.828l-4.153,1.186l-3.248-11.381c-0.313-0.877-0.843-1.561-1.591-2.049
		c-0.748-0.488-1.75-0.584-3.007-0.289c-1.703,0.486-2.864,1.418-3.484,2.797c-0.621,1.379-0.688,2.918-0.202,4.619l2.531,8.871
		l-4.154,1.186L264.341,380.516z"/>
	<path fill="#FFFFFF" d="M320.23,382.161c-0.664,1.064-1.564,2.008-2.701,2.83c-1.139,0.824-2.371,1.426-3.697,1.805
		c-1.356,0.387-2.705,0.498-4.046,0.336c-1.342-0.164-2.577-0.559-3.708-1.189c-1.132-0.627-2.123-1.453-2.977-2.473
		c-0.852-1.02-1.468-2.193-1.847-3.521c-0.378-1.326-0.476-2.648-0.289-3.965c0.186-1.316,0.593-2.539,1.222-3.67
		s1.455-2.117,2.479-2.955s2.186-1.443,3.483-1.812c2.078-0.594,4.08-0.486,6.012,0.32c1.93,0.807,3.52,2.139,4.768,3.998
		c-0.775,0.564-1.668,1.232-2.68,2.004c-1.013,0.773-2.069,1.582-3.17,2.426c-1.1,0.844-2.199,1.695-3.295,2.555
		s-2.105,1.639-3.029,2.338c0.746,0.756,1.629,1.283,2.651,1.584s2.081,0.295,3.177-0.018c0.75-0.215,1.469-0.566,2.154-1.061
		c0.687-0.49,1.209-1.037,1.568-1.641L320.23,382.161z M313.507,372.381c-0.526-0.537-1.18-0.857-1.959-0.963
		c-0.778-0.105-1.5-0.062-2.163,0.127c-0.778,0.221-1.472,0.582-2.077,1.084c-0.605,0.5-1.082,1.072-1.428,1.717
		c-0.348,0.646-0.572,1.334-0.675,2.064c-0.104,0.732-0.056,1.443,0.142,2.137l0.049,0.172c0.639-0.492,1.322-1.023,2.05-1.59
		s1.453-1.141,2.177-1.721c0.723-0.582,1.416-1.131,2.08-1.646C312.366,373.245,312.968,372.784,313.507,372.381z"/>
	<path fill="#FFFFFF" d="M330.163,361.733l3.635-1.037c0.354,1.021,0.66,1.846,0.917,2.475s0.53,1.34,0.818,2.131
		c0.219-1.748,0.799-3.27,1.739-4.568c0.939-1.297,2.318-2.205,4.135-2.725c1.875-0.535,3.515-0.449,4.918,0.258
		c1.402,0.707,2.367,1.875,2.895,3.502l3.804,13.328l-4.11,1.174l-3.248-11.381c-0.313-0.877-0.852-1.559-1.613-2.043
		c-0.763-0.484-1.757-0.582-2.985-0.295c-0.837,0.238-1.565,0.611-2.186,1.115s-1.108,1.088-1.466,1.752
		c-0.356,0.664-0.568,1.395-0.637,2.193c-0.068,0.801,0.018,1.619,0.256,2.455l2.531,8.871l-4.154,1.186L330.163,361.733z"/>
	<path fill="#FFFFFF" d="M354.283,365.002c-0.378-1.326-0.479-2.662-0.302-4.008s0.578-2.592,1.203-3.736s1.445-2.152,2.461-3.02
		c1.017-0.867,2.174-1.486,3.473-1.855c0.865-0.248,1.674-0.361,2.429-0.344c0.754,0.02,1.425,0.102,2.012,0.246
		s1.068,0.326,1.443,0.547c0.374,0.221,0.63,0.404,0.767,0.553l-0.457-2.256l4.024-1.148l5.248,18.391l-4.197,1.199l-0.346-1.213
		c-0.041-0.145-0.073-0.283-0.096-0.416c-0.022-0.135-0.042-0.23-0.059-0.289c-0.074,0.178-0.217,0.445-0.427,0.801
		c-0.211,0.357-0.523,0.734-0.939,1.135c-0.418,0.398-0.938,0.789-1.562,1.17c-0.625,0.381-1.384,0.699-2.278,0.955
		c-1.414,0.402-2.785,0.514-4.117,0.332c-1.331-0.182-2.553-0.582-3.664-1.199c-1.113-0.619-2.069-1.43-2.871-2.434
		C355.228,367.409,354.646,366.272,354.283,365.002z M358.407,363.545c0.23,0.809,0.58,1.518,1.053,2.133
		c0.471,0.613,1.031,1.102,1.681,1.463c0.649,0.359,1.36,0.586,2.136,0.676c0.774,0.092,1.58,0.018,2.416-0.221
		c0.837-0.238,1.561-0.602,2.171-1.088c0.61-0.484,1.093-1.061,1.45-1.723c0.355-0.664,0.572-1.381,0.649-2.152
		c0.076-0.77,0.003-1.545-0.219-2.324s-0.567-1.467-1.034-2.068c-0.469-0.598-1.024-1.07-1.669-1.418
		c-0.646-0.346-1.354-0.564-2.13-0.656c-0.773-0.09-1.58-0.018-2.416,0.223c-0.838,0.238-1.562,0.594-2.177,1.064
		c-0.614,0.473-1.102,1.033-1.462,1.682c-0.361,0.648-0.582,1.352-0.662,2.107C358.113,361.998,358.185,362.766,358.407,363.545z"/>
	<path fill="#FFFFFF" d="M376.42,348.53l3.635-1.037c0.354,1.021,0.659,1.848,0.917,2.477s0.53,1.338,0.818,2.129
		c0.219-1.746,0.799-3.27,1.738-4.566c0.94-1.299,2.318-2.207,4.137-2.725c1.875-0.535,3.514-0.449,4.916,0.258
		c1.403,0.707,2.368,1.875,2.896,3.502l3.804,13.328l-4.111,1.172l-3.248-11.379c-0.312-0.879-0.85-1.561-1.612-2.045
		s-1.757-0.582-2.985-0.293c-0.837,0.238-1.565,0.609-2.186,1.113c-0.621,0.506-1.109,1.09-1.465,1.752
		c-0.357,0.664-0.57,1.396-0.638,2.195c-0.069,0.799,0.017,1.617,0.256,2.453l2.531,8.871l-4.153,1.186L376.42,348.53z"/>
	<path fill="#FFFFFF" d="M398.398,333.553l4.11-1.174l2.297,8.049l4.804-1.369l1.062,3.721l-4.804,1.371l4.188,14.668l-4.111,1.174
		l-4.187-14.67l-3.116,0.891l-1.062-3.723l3.116-0.889L398.398,333.553z"/>
	<path fill="#FFFFFF" d="M413.868,347.998c-0.378-1.326-0.479-2.662-0.301-4.008s0.578-2.592,1.203-3.736s1.445-2.152,2.461-3.02
		s2.174-1.486,3.472-1.855c0.865-0.248,1.675-0.361,2.429-0.344c0.754,0.02,1.426,0.102,2.012,0.246
		c0.588,0.145,1.068,0.326,1.443,0.547s0.631,0.404,0.767,0.553l-0.456-2.256l4.023-1.148l5.248,18.391l-4.197,1.199l-0.346-1.213
		c-0.041-0.145-0.073-0.283-0.096-0.416c-0.022-0.135-0.041-0.23-0.059-0.289c-0.074,0.178-0.217,0.445-0.426,0.801
		c-0.211,0.357-0.524,0.734-0.94,1.135c-0.417,0.398-0.937,0.789-1.562,1.17s-1.384,0.699-2.277,0.955
		c-1.414,0.402-2.786,0.514-4.117,0.332c-1.332-0.182-2.553-0.582-3.665-1.199c-1.112-0.619-2.069-1.43-2.87-2.434
		S414.232,349.268,413.868,347.998z M417.992,346.541c0.23,0.809,0.581,1.518,1.054,2.133c0.471,0.613,1.031,1.102,1.68,1.463
		c0.649,0.359,1.361,0.586,2.137,0.676c0.773,0.092,1.579,0.018,2.416-0.221c0.836-0.238,1.561-0.602,2.17-1.088
		c0.61-0.484,1.094-1.061,1.45-1.723c0.356-0.664,0.573-1.381,0.649-2.152c0.076-0.77,0.004-1.545-0.219-2.324
		c-0.222-0.779-0.566-1.467-1.034-2.066s-1.024-1.072-1.669-1.42c-0.645-0.346-1.354-0.564-2.129-0.656
		c-0.774-0.09-1.58-0.018-2.417,0.223c-0.837,0.238-1.562,0.594-2.177,1.064c-0.613,0.473-1.102,1.033-1.461,1.682
		c-0.361,0.648-0.582,1.352-0.662,2.107C417.698,344.995,417.771,345.762,417.992,346.541z"/>
	<path fill="#FFFFFF" d="M433.499,324.52c-0.215-0.75-0.117-1.447,0.291-2.096c0.407-0.646,0.93-1.061,1.564-1.242
		c0.634-0.18,1.288-0.102,1.962,0.236c0.673,0.338,1.118,0.883,1.331,1.633c0.223,0.777,0.135,1.482-0.263,2.109
		c-0.398,0.629-0.915,1.033-1.549,1.215c-0.635,0.182-1.294,0.111-1.978-0.207C434.174,325.848,433.721,325.299,433.499,324.52z
		 M445.415,348.729l-4.154,1.186l-5.248-18.391l4.154-1.186L445.415,348.729z"/>
	<path fill="#FFFFFF" d="M456.231,327.532c-0.099,0.309-0.224,0.664-0.374,1.066s-0.301,0.779-0.449,1.133
		c-0.148,0.355-0.319,0.795-0.513,1.316c-0.347-0.117-0.673-0.197-0.979-0.234c-0.308-0.037-0.655-0.055-1.045-0.053
		s-0.771,0.057-1.146,0.164c-0.404,0.115-0.803,0.33-1.196,0.645c-0.394,0.316-0.509,0.762-0.344,1.338
		c0.14,0.492,0.452,0.848,0.937,1.066c0.484,0.221,1.047,0.389,1.688,0.502s1.341,0.219,2.102,0.312
		c0.76,0.096,1.482,0.279,2.169,0.551c0.687,0.273,1.316,0.678,1.892,1.215c0.574,0.539,0.998,1.283,1.27,2.236
		c0.238,0.836,0.305,1.645,0.199,2.422c-0.105,0.779-0.369,1.494-0.791,2.145c-0.423,0.652-0.982,1.232-1.68,1.744
		c-0.696,0.51-1.535,0.906-2.516,1.186c-1.184,0.338-2.388,0.463-3.613,0.375c-1.226-0.086-2.264-0.414-3.111-0.982
		c0.135-0.289,0.299-0.648,0.488-1.076s0.369-0.838,0.538-1.23c0.169-0.391,0.38-0.855,0.632-1.396
		c-0.009-0.027,0.099-0.004,0.324,0.072c0.225,0.076,0.52,0.154,0.887,0.238c0.366,0.082,0.787,0.133,1.261,0.154
		s0.941-0.035,1.403-0.166c0.721-0.207,1.23-0.523,1.529-0.953c0.3-0.428,0.383-0.873,0.252-1.334
		c-0.133-0.461-0.434-0.781-0.906-0.959c-0.471-0.176-1.023-0.307-1.656-0.393c-0.633-0.084-1.329-0.174-2.089-0.27
		c-0.761-0.094-1.483-0.279-2.169-0.551c-0.687-0.271-1.32-0.691-1.904-1.258c-0.582-0.566-1.022-1.369-1.318-2.408
		c-0.297-1.039-0.356-1.957-0.179-2.758c0.177-0.799,0.5-1.5,0.968-2.102c0.468-0.6,1.021-1.094,1.66-1.479s1.289-0.672,1.953-0.861
		c0.895-0.256,1.877-0.342,2.945-0.256C454.417,326.778,455.378,327.057,456.231,327.532z"/>
	<path fill="#FFFFFF" d="M471.486,315.551c-0.701-0.049-1.41-0.105-2.129-0.164c-0.72-0.061-1.43-0.115-2.13-0.166
		c0.009-0.625,0.07-1.393,0.187-2.299c0.115-0.906,0.401-1.814,0.859-2.725c0.457-0.91,1.148-1.771,2.071-2.58
		s2.208-1.449,3.852-1.918c1.212-0.346,2.409-0.438,3.595-0.277c1.185,0.16,2.27,0.521,3.257,1.082
		c0.986,0.561,1.852,1.297,2.596,2.207c0.743,0.912,1.28,1.945,1.609,3.098c0.47,1.645,0.498,3.197,0.088,4.654
		c-0.411,1.459-1.136,2.883-2.174,4.271c-0.302,0.367-0.638,0.775-1.008,1.223c-0.371,0.449-0.706,0.943-1.005,1.48
		s-0.518,1.115-0.652,1.73c-0.137,0.617-0.102,1.285,0.104,2.006l0.988,3.463l-4.5,1.283l-1.223-4.283
		c-0.271-0.953-0.35-1.773-0.234-2.461s0.348-1.322,0.696-1.906s0.771-1.156,1.265-1.719s1.004-1.182,1.527-1.863
		c1.674-2.225,2.201-4.418,1.584-6.582c-0.346-1.211-1.002-2.115-1.968-2.715c-0.966-0.596-2.069-0.719-3.31-0.365
		c-0.809,0.23-1.462,0.512-1.96,0.84c-0.499,0.33-0.896,0.717-1.19,1.158c-0.295,0.443-0.5,0.955-0.615,1.533
		C471.55,314.137,471.489,314.801,471.486,315.551z M481.424,338.733c-0.664,0.189-1.345,0.127-2.043-0.188
		c-0.698-0.316-1.163-0.877-1.394-1.686c-0.214-0.75-0.113-1.465,0.301-2.145s0.953-1.115,1.617-1.305
		c0.634-0.18,1.299-0.09,1.996,0.273c0.695,0.363,1.151,0.92,1.365,1.67c0.23,0.807,0.139,1.527-0.272,2.16
		C482.581,338.145,482.058,338.553,481.424,338.733z"/>
</g>
</svg>
