<?xml version="1.0" encoding="utf-8"?>
<!-- Generator: Adobe Illustrator 16.0.0, SVG Export Plug-In . SVG Version: 6.00 Build 0)  -->
<!DOCTYPE svg PUBLIC "-//W3C//DTD SVG 1.1//EN" "http://www.w3.org/Graphics/SVG/1.1/DTD/svg11.dtd">
<svg version="1.1" id="Calque_1" xmlns="http://www.w3.org/2000/svg" xmlns:xlink="http://www.w3.org/1999/xlink" x="0px" y="0px"
	 width="131px" height="125.125px" viewBox="0 0 131 125.125" enable-background="new 0 0 131 125.125" xml:space="preserve">
<g>
	<polygon fill="#1D2B40" points="65.896,5.643 71.856,-0.343 76.577,6.663 83.562,1.913 86.87,9.685 94.63,6.344 96.407,14.602 
		104.657,12.788 104.839,21.235 113.284,21.015 111.866,29.343 120.2,30.725 117.229,38.634 125.151,41.57 120.739,48.773 
		127.962,53.153 122.267,59.393 128.53,65.061 121.755,70.111 126.833,76.863 119.226,80.537 122.935,88.126 114.771,90.295 
		116.974,98.451 108.546,99.035 109.167,107.46 100.782,106.439 99.796,114.83 91.755,112.24 89.2,120.292 81.794,116.227 
		77.763,123.65 71.259,118.258 65.896,124.783 60.532,118.258 54.028,123.65 49.995,116.227 42.591,120.292 40.034,112.24 
		31.995,114.83 31.009,106.439 22.622,107.46 23.243,99.035 14.815,98.451 17.021,90.295 8.856,88.126 12.563,80.537 4.958,76.863 
		10.034,70.111 3.261,65.061 9.524,59.393 3.827,53.153 11.052,48.773 6.64,41.57 14.56,38.634 11.591,30.725 19.925,29.343 
		18.505,21.015 26.95,21.235 27.134,12.788 35.384,14.602 37.161,6.344 44.921,9.685 48.228,1.913 55.214,6.663 59.935,-0.343 	"/>
	<g>
		<path fill="#FFFFFF" d="M57.972,71.827c-0.072-0.104-0.195-0.291-0.375-0.559c-0.176-0.271-0.395-0.6-0.656-0.987
			c-0.258-0.388-0.545-0.815-0.854-1.288c-0.311-0.469-0.631-0.959-0.965-1.469l-6.113,1.177l-1.049,5.051l-2.949,0.568
			c0.037-0.159,0.123-0.55,0.254-1.173c0.131-0.622,0.299-1.395,0.502-2.32c0.203-0.921,0.426-1.95,0.67-3.084
			c0.246-1.133,0.498-2.287,0.762-3.467c0.258-1.18,0.516-2.336,0.758-3.47c0.246-1.133,0.469-2.159,0.672-3.085
			c0.201-0.922,0.369-1.696,0.5-2.318c0.133-0.625,0.219-1.015,0.256-1.173c0.094,0.134,0.318,0.464,0.686,0.993
			c0.359,0.526,0.805,1.183,1.336,1.965s1.117,1.654,1.768,2.617c0.645,0.961,1.309,1.941,1.99,2.938
			c0.682,0.997,1.344,1.978,1.99,2.939c0.65,0.961,1.238,1.834,1.768,2.616c0.531,0.781,0.973,1.438,1.326,1.968
			c0.354,0.528,0.576,0.86,0.672,0.995L57.972,71.827z M46.61,54.535l1.73-0.332l0.904-1.868l1.557,1.394l1.754-0.337
			c-0.648-0.651-1.291-1.301-1.93-1.953c-0.641-0.651-1.283-1.295-1.928-1.929L46.61,54.535z M49.548,65.995l4.045-0.777
			l-2.57-3.902c-0.02-0.012-0.082-0.113-0.184-0.305c-0.105-0.189-0.191-0.364-0.254-0.521c-0.002,0.17-0.014,0.361-0.039,0.578
			c-0.029,0.215-0.039,0.33-0.035,0.348L49.548,65.995z"/>
		<path fill="#FFFFFF" d="M61.956,65.754c-0.15-0.779-0.152-1.531-0.008-2.259c0.146-0.727,0.412-1.385,0.797-1.972
			c0.381-0.587,0.869-1.082,1.459-1.48c0.586-0.399,1.246-0.67,1.979-0.811c0.549-0.106,1.053-0.125,1.504-0.061
			s0.834,0.159,1.154,0.283c0.316,0.125,0.57,0.252,0.758,0.384c0.182,0.134,0.295,0.213,0.336,0.241
			c-0.035-0.181-0.059-0.379-0.064-0.594c-0.008-0.219-0.033-0.441-0.078-0.67l2.24-0.43l1.891,9.817
			c0.168,0.875,0.18,1.688,0.037,2.431c-0.145,0.744-0.418,1.394-0.826,1.952c-0.406,0.558-0.93,1.023-1.574,1.401
			c-0.643,0.377-1.379,0.645-2.207,0.803c-0.633,0.122-1.203,0.164-1.707,0.127c-0.502-0.038-0.969-0.125-1.391-0.265
			c-0.424-0.137-0.816-0.305-1.182-0.503c-0.369-0.2-0.725-0.399-1.064-0.604l1.209-1.876c0.533,0.335,1.092,0.602,1.668,0.804
			c0.576,0.2,1.24,0.228,1.986,0.085c1.008-0.193,1.766-0.592,2.271-1.196c0.508-0.602,0.676-1.351,0.504-2.244
			c-0.016-0.08-0.033-0.174-0.055-0.279c-0.02-0.105-0.033-0.217-0.039-0.334c-0.029-0.146-0.037-0.28-0.025-0.398
			c0.012-0.121,0.008-0.221-0.008-0.301c-0.117,0.189-0.256,0.402-0.42,0.637c-0.168,0.233-0.377,0.46-0.631,0.676
			c-0.252,0.217-0.555,0.413-0.908,0.591s-0.773,0.313-1.262,0.408c-0.779,0.149-1.521,0.149-2.223-0.002
			c-0.703-0.151-1.336-0.428-1.902-0.822c-0.564-0.396-1.037-0.894-1.422-1.495C62.368,67.201,62.103,66.52,61.956,65.754z
			 M64.274,65.208c0.088,0.457,0.246,0.863,0.477,1.223c0.227,0.36,0.512,0.655,0.854,0.885c0.336,0.229,0.715,0.389,1.139,0.475
			c0.42,0.088,0.863,0.086,1.336-0.006c0.469-0.09,0.889-0.254,1.254-0.494c0.369-0.238,0.666-0.531,0.893-0.877
			c0.23-0.35,0.383-0.73,0.463-1.15s0.078-0.849-0.008-1.285c-0.084-0.439-0.24-0.835-0.469-1.188
			c-0.227-0.351-0.508-0.639-0.846-0.861c-0.338-0.221-0.721-0.374-1.152-0.46c-0.428-0.085-0.879-0.084-1.35,0.008
			c-0.471,0.091-0.885,0.25-1.244,0.479s-0.656,0.514-0.885,0.852c-0.23,0.34-0.385,0.715-0.465,1.127
			C64.188,64.344,64.188,64.769,64.274,65.208z"/>
		<path fill="#FFFFFF" d="M86.778,65.047c-0.416,0.553-0.955,1.026-1.619,1.424c-0.666,0.396-1.373,0.668-2.117,0.811
			c-0.766,0.146-1.512,0.143-2.24-0.011c-0.729-0.155-1.389-0.431-1.979-0.831c-0.592-0.4-1.096-0.902-1.514-1.504
			c-0.418-0.603-0.701-1.277-0.844-2.023c-0.145-0.748-0.133-1.478,0.031-2.191c0.17-0.715,0.449-1.365,0.85-1.957
			c0.4-0.59,0.902-1.092,1.506-1.501c0.604-0.412,1.27-0.688,2.002-0.828c1.168-0.225,2.262-0.069,3.283,0.466
			c1.023,0.537,1.83,1.346,2.424,2.426c-0.453,0.273-0.975,0.598-1.568,0.973c-0.594,0.377-1.209,0.768-1.857,1.177
			c-0.645,0.411-1.287,0.825-1.93,1.245c-0.646,0.418-1.238,0.797-1.777,1.136c0.371,0.451,0.832,0.784,1.377,0.998
			c0.547,0.216,1.131,0.263,1.746,0.145c0.424-0.083,0.834-0.239,1.236-0.478c0.398-0.237,0.713-0.512,0.941-0.826L86.778,65.047z
			 M83.562,59.352c-0.264-0.318-0.607-0.528-1.029-0.624c-0.422-0.095-0.822-0.106-1.195-0.034
			c-0.438,0.084-0.836,0.248-1.191,0.494c-0.357,0.246-0.646,0.537-0.869,0.873c-0.223,0.34-0.377,0.707-0.469,1.102
			c-0.092,0.398-0.102,0.791-0.027,1.18l0.02,0.098c0.375-0.24,0.777-0.498,1.201-0.775c0.43-0.275,0.854-0.555,1.279-0.84
			c0.426-0.281,0.834-0.55,1.221-0.801C82.892,59.77,83.245,59.545,83.562,59.352z"/>
	</g>
</g>
</svg>
