<?xml version="1.0" encoding="utf-8"?>
<!-- Generator: Adobe Illustrator 17.0.0, SVG Export Plug-In . SVG Version: 6.00 Build 0)  -->
<!DOCTYPE svg PUBLIC "-//W3C//DTD SVG 1.1//EN" "http://www.w3.org/Graphics/SVG/1.1/DTD/svg11.dtd">
<svg version="1.1" id="Calque_1" xmlns="http://www.w3.org/2000/svg" xmlns:xlink="http://www.w3.org/1999/xlink" x="0px" y="0px"
	 width="316.049px" height="314.816px" viewBox="0 0 316.049 314.816" enable-background="new 0 0 316.049 314.816"
	 xml:space="preserve">
<polygon fill="#1D2B40" points="148.505,86.42 158.275,76.608 166.011,88.091 177.46,80.305 182.882,93.045 195.599,87.567 
	198.513,101.102 212.035,98.13 212.333,111.973 226.175,111.613 223.849,125.262 237.509,127.528 232.642,140.49 245.624,145.301 
	238.392,157.108 250.232,164.288 240.896,174.514 251.161,183.803 240.058,192.079 248.38,203.145 235.913,209.167 241.99,221.606 
	228.609,225.162 232.222,238.528 218.41,239.485 219.427,253.294 205.683,251.621 204.068,265.373 190.89,261.127 186.701,274.325 
	174.564,267.663 167.954,279.829 157.296,270.991 148.505,281.687 139.714,270.991 129.056,279.829 122.447,267.663 110.31,274.325 
	106.12,261.127 92.943,265.373 91.328,251.621 77.583,253.294 78.601,239.485 64.788,238.528 68.402,225.162 55.021,221.606 
	61.097,209.167 48.63,203.145 56.953,192.079 45.849,183.803 56.115,174.514 46.779,164.288 58.618,157.108 51.386,145.301 
	64.369,140.49 59.501,127.528 73.161,125.262 70.835,111.613 84.677,111.973 84.976,98.13 98.497,101.102 101.411,87.567 
	114.128,93.045 119.55,80.305 130.999,88.091 138.738,76.608 "/>
<g>
	<path fill="#FFF7DC" d="M80.277,188.241c0.521-0.68,1.068-1.377,1.641-2.091s1.147-1.434,1.726-2.159
		c0.578-0.725,1.153-1.444,1.726-2.158c0.573-0.714,1.119-1.411,1.641-2.092v6.817h1.683v1.683h-1.685v2.856h-1.751v-2.856H80.277z
		 M85.258,184.467c-0.091,0.113-0.21,0.264-0.357,0.45c-0.147,0.188-0.297,0.383-0.45,0.587c-0.153,0.204-0.304,0.402-0.45,0.595
		c-0.147,0.193-0.262,0.346-0.341,0.459h1.599v-2.091H85.258z"/>
	<path fill="#FFF7DC" d="M90.052,185.436c0-0.952,0.124-1.785,0.374-2.499c0.249-0.714,0.586-1.309,1.012-1.785
		c0.425-0.476,0.918-0.83,1.479-1.062c0.561-0.231,1.153-0.349,1.776-0.349c0.68,0,1.304,0.134,1.87,0.4
		c0.566,0.266,1.054,0.648,1.462,1.147c0.408,0.498,0.726,1.104,0.952,1.818s0.334,1.52,0.323,2.414
		c-0.012,0.907-0.137,1.717-0.374,2.432c-0.238,0.714-0.564,1.314-0.978,1.802c-0.414,0.487-0.904,0.858-1.471,1.113
		s-1.179,0.383-1.836,0.383c-0.635,0-1.232-0.128-1.794-0.383c-0.561-0.255-1.048-0.626-1.462-1.113
		c-0.413-0.487-0.739-1.094-0.978-1.819C90.171,187.21,90.052,186.377,90.052,185.436z M91.803,185.487
		c0,0.544,0.07,1.061,0.212,1.547c0.142,0.488,0.341,0.916,0.596,1.284c0.255,0.368,0.558,0.663,0.909,0.884
		c0.351,0.221,0.726,0.331,1.122,0.331c0.396,0,0.771-0.107,1.122-0.322c0.351-0.216,0.657-0.508,0.918-0.876
		c0.261-0.368,0.468-0.799,0.62-1.292c0.153-0.493,0.229-1.012,0.229-1.556c0-0.362-0.042-0.778-0.127-1.249
		c-0.085-0.471-0.232-0.912-0.442-1.326c-0.21-0.413-0.499-0.765-0.867-1.054s-0.83-0.434-1.385-0.434
		c-0.59,0-1.071,0.153-1.445,0.459c-0.374,0.306-0.669,0.671-0.884,1.097c-0.216,0.425-0.366,0.869-0.451,1.334
		C91.845,184.779,91.803,185.17,91.803,185.487z"/>
	<path fill="#FFF7DC" d="M100.864,185.436c0-0.952,0.124-1.785,0.374-2.499c0.249-0.714,0.586-1.309,1.012-1.785
		c0.425-0.476,0.918-0.83,1.479-1.062c0.561-0.231,1.153-0.349,1.776-0.349c0.68,0,1.304,0.134,1.87,0.4
		c0.566,0.266,1.054,0.648,1.462,1.147c0.408,0.498,0.726,1.104,0.952,1.818c0.227,0.714,0.334,1.52,0.323,2.414
		c-0.012,0.907-0.137,1.717-0.374,2.432c-0.238,0.714-0.564,1.314-0.978,1.802c-0.414,0.487-0.904,0.858-1.471,1.113
		s-1.179,0.383-1.836,0.383c-0.635,0-1.232-0.128-1.794-0.383c-0.561-0.255-1.048-0.626-1.462-1.113
		c-0.413-0.487-0.739-1.094-0.978-1.819C100.983,187.21,100.864,186.377,100.864,185.436z M102.615,185.487
		c0,0.544,0.07,1.061,0.212,1.547c0.142,0.488,0.341,0.916,0.596,1.284c0.255,0.368,0.558,0.663,0.909,0.884
		c0.351,0.221,0.726,0.331,1.122,0.331s0.771-0.107,1.122-0.322c0.351-0.216,0.657-0.508,0.918-0.876s0.468-0.799,0.62-1.292
		c0.153-0.493,0.229-1.012,0.229-1.556c0-0.362-0.042-0.778-0.127-1.249s-0.232-0.912-0.442-1.326
		c-0.21-0.413-0.499-0.765-0.867-1.054c-0.368-0.289-0.83-0.434-1.385-0.434c-0.59,0-1.071,0.153-1.445,0.459
		s-0.669,0.671-0.884,1.097c-0.216,0.425-0.366,0.869-0.451,1.334S102.615,185.17,102.615,185.487z"/>
	<path fill="#FFF7DC" d="M117.098,183.703l0.969,0.951c-0.431,0.397-0.842,0.785-1.232,1.165c-0.39,0.38-0.802,0.768-1.232,1.164
		c0.51,0.681,1.009,1.366,1.496,2.058c0.487,0.692,0.986,1.377,1.496,2.057h-1.87c-0.374-0.51-0.754-1.017-1.139-1.521
		c-0.386-0.504-0.76-1.012-1.122-1.521l-0.936,0.85v2.193h-1.632v-13.277h1.632v9.197c0.612-0.578,1.207-1.131,1.785-1.657
		C115.891,184.833,116.486,184.28,117.098,183.703z"/>
	<path fill="#FFF7DC" d="M118.934,187.527c0-0.544,0.097-1.051,0.289-1.521c0.193-0.47,0.456-0.878,0.791-1.224
		c0.334-0.346,0.725-0.614,1.173-0.808c0.447-0.192,0.927-0.289,1.437-0.289c0.385,0,0.726,0.051,1.02,0.153
		c0.295,0.102,0.542,0.215,0.74,0.34s0.351,0.244,0.459,0.357c0.107,0.113,0.173,0.181,0.195,0.203c0-0.124,0.011-0.26,0.034-0.407
		c0.022-0.147,0.034-0.301,0.034-0.459h1.563v6.851c0,0.612-0.097,1.158-0.289,1.641c-0.192,0.481-0.462,0.884-0.808,1.207
		s-0.759,0.569-1.24,0.739c-0.482,0.17-1.012,0.255-1.59,0.255c-0.442,0-0.83-0.045-1.165-0.136c-0.334-0.091-0.635-0.21-0.9-0.357
		c-0.267-0.147-0.51-0.312-0.731-0.492c-0.221-0.182-0.434-0.363-0.638-0.544l1.055-1.105c0.317,0.295,0.657,0.547,1.02,0.757
		c0.362,0.209,0.805,0.314,1.326,0.314c0.702,0,1.264-0.17,1.683-0.511c0.42-0.34,0.63-0.821,0.63-1.444c0-0.057,0-0.122,0-0.195
		c0-0.074,0.005-0.15,0.017-0.229c0-0.103,0.011-0.193,0.034-0.272c0.022-0.079,0.034-0.147,0.034-0.204
		c-0.103,0.113-0.225,0.238-0.366,0.374c-0.141,0.136-0.312,0.261-0.51,0.374s-0.428,0.207-0.688,0.28
		c-0.261,0.074-0.561,0.11-0.901,0.11c-0.544,0-1.042-0.096-1.495-0.288c-0.454-0.193-0.845-0.459-1.174-0.8
		c-0.328-0.34-0.584-0.736-0.765-1.189C119.025,188.553,118.934,188.06,118.934,187.527z M120.567,187.46
		c0,0.317,0.054,0.611,0.161,0.884c0.107,0.271,0.261,0.507,0.459,0.705c0.198,0.199,0.434,0.354,0.705,0.468
		c0.272,0.113,0.572,0.17,0.901,0.17s0.632-0.057,0.909-0.17c0.278-0.113,0.516-0.271,0.715-0.476
		c0.197-0.204,0.351-0.442,0.459-0.715c0.107-0.271,0.161-0.561,0.161-0.866c0-0.307-0.054-0.593-0.161-0.858
		c-0.108-0.267-0.262-0.496-0.459-0.688c-0.199-0.193-0.437-0.346-0.715-0.459c-0.277-0.113-0.58-0.171-0.909-0.171
		s-0.629,0.055-0.901,0.162c-0.271,0.107-0.507,0.261-0.705,0.459s-0.352,0.431-0.459,0.697
		C120.62,186.867,120.567,187.153,120.567,187.46z"/>
	<path fill="#FFF7DC" d="M132.109,187.494c0-0.567,0.094-1.083,0.281-1.548c0.187-0.464,0.447-0.863,0.781-1.198
		c0.335-0.334,0.726-0.595,1.174-0.782c0.447-0.187,0.938-0.28,1.47-0.28c0.363,0,0.681,0.04,0.952,0.119
		c0.272,0.079,0.505,0.176,0.697,0.289s0.349,0.235,0.468,0.365c0.119,0.131,0.212,0.241,0.28,0.332v-6.971h1.632v13.277h-1.632
		v-0.476c0-0.057,0.006-0.119,0.017-0.188c0.012-0.068,0.018-0.119,0.018-0.153c-0.103,0.103-0.228,0.213-0.374,0.332
		c-0.147,0.119-0.323,0.229-0.527,0.331c-0.204,0.103-0.434,0.185-0.688,0.247c-0.255,0.062-0.547,0.093-0.875,0.093
		c-0.578,0-1.097-0.099-1.556-0.297c-0.459-0.198-0.845-0.471-1.156-0.816s-0.55-0.748-0.714-1.207
		C132.193,188.504,132.109,188.014,132.109,187.494z M133.742,187.46c0,0.317,0.054,0.611,0.161,0.884
		c0.107,0.271,0.261,0.507,0.459,0.705c0.198,0.199,0.434,0.354,0.705,0.468c0.272,0.113,0.572,0.17,0.901,0.17
		s0.632-0.057,0.909-0.17c0.278-0.113,0.516-0.271,0.715-0.476c0.197-0.204,0.351-0.442,0.459-0.715
		c0.107-0.271,0.161-0.561,0.161-0.866c0-0.307-0.054-0.593-0.161-0.858c-0.108-0.267-0.262-0.496-0.459-0.688
		c-0.199-0.193-0.437-0.346-0.715-0.459c-0.277-0.113-0.58-0.171-0.909-0.171s-0.629,0.055-0.901,0.162
		c-0.271,0.107-0.507,0.261-0.705,0.459s-0.352,0.431-0.459,0.697C133.795,186.867,133.742,187.153,133.742,187.46z"/>
	<path fill="#FFF7DC" d="M148.055,190.264c-0.352,0.317-0.776,0.566-1.275,0.748c-0.498,0.181-1.009,0.271-1.529,0.271
		c-0.533,0-1.034-0.099-1.505-0.297s-0.878-0.471-1.224-0.816s-0.621-0.748-0.825-1.207c-0.203-0.459-0.306-0.949-0.306-1.47
		s0.103-1.012,0.306-1.471c0.204-0.459,0.479-0.861,0.825-1.207c0.346-0.346,0.748-0.618,1.207-0.816s0.943-0.297,1.453-0.297
		c0.816,0,1.532,0.246,2.15,0.739c0.618,0.493,1.057,1.142,1.317,1.946c-0.34,0.125-0.733,0.275-1.182,0.45
		c-0.447,0.176-0.915,0.36-1.402,0.553c-0.487,0.193-0.975,0.389-1.462,0.587s-0.935,0.377-1.343,0.535
		c0.192,0.352,0.459,0.635,0.799,0.85c0.34,0.216,0.726,0.323,1.156,0.323c0.295,0,0.592-0.054,0.893-0.161
		c0.3-0.107,0.547-0.252,0.739-0.434L148.055,190.264z M146.627,186.014c-0.137-0.249-0.34-0.434-0.612-0.553
		c-0.271-0.119-0.538-0.179-0.799-0.179c-0.306,0-0.595,0.06-0.867,0.179c-0.271,0.119-0.504,0.278-0.697,0.477
		c-0.192,0.198-0.346,0.425-0.459,0.68c-0.113,0.255-0.17,0.519-0.17,0.79v0.068c0.283-0.113,0.587-0.235,0.91-0.365
		c0.322-0.13,0.646-0.264,0.969-0.399c0.323-0.137,0.632-0.264,0.927-0.383C146.122,186.21,146.389,186.105,146.627,186.014z"/>
	<path fill="#FFF7DC" d="M154.208,191.097v-12.393h3.383c0.612,0,1.168,0.059,1.666,0.178c0.499,0.119,0.924,0.307,1.275,0.562
		c0.351,0.255,0.62,0.589,0.808,1.003c0.187,0.414,0.28,0.909,0.28,1.487c0,0.317-0.031,0.626-0.094,0.927
		c-0.062,0.3-0.164,0.578-0.306,0.833c-0.142,0.255-0.326,0.479-0.553,0.671c-0.227,0.193-0.51,0.341-0.85,0.442
		c0.283,0.057,0.569,0.153,0.858,0.289s0.547,0.32,0.773,0.553c0.226,0.233,0.411,0.521,0.553,0.867s0.212,0.75,0.212,1.215
		c0,0.601-0.116,1.113-0.348,1.539c-0.232,0.425-0.539,0.773-0.918,1.045c-0.38,0.272-0.819,0.471-1.318,0.596
		c-0.498,0.124-1.014,0.187-1.547,0.187h-3.874V191.097z M156.283,180.591v3.366h1.564c0.577,0,1.005-0.17,1.283-0.511
		c0.277-0.34,0.416-0.748,0.416-1.224c0-0.555-0.17-0.966-0.51-1.232s-0.799-0.399-1.377-0.399
		C157.659,180.591,156.283,180.591,156.283,180.591z M156.283,185.725v3.485h1.632c0.307,0,0.595-0.037,0.867-0.11
		c0.272-0.074,0.51-0.182,0.714-0.323s0.362-0.323,0.477-0.544c0.112-0.222,0.17-0.479,0.17-0.773c0-0.329-0.068-0.604-0.204-0.825
		s-0.317-0.399-0.544-0.535c-0.228-0.136-0.484-0.232-0.773-0.289s-0.587-0.085-0.893-0.085L156.283,185.725L156.283,185.725z"/>
	<path fill="#FFF7DC" d="M163.337,187.476c0-0.521,0.1-1.012,0.298-1.471s0.473-0.858,0.824-1.198
		c0.351-0.34,0.762-0.609,1.232-0.808s0.972-0.297,1.505-0.297c0.544,0,1.048,0.099,1.513,0.297
		c0.465,0.198,0.864,0.468,1.198,0.808c0.334,0.34,0.598,0.739,0.791,1.198c0.192,0.459,0.289,0.949,0.289,1.471
		s-0.094,1.015-0.281,1.479c-0.187,0.465-0.45,0.869-0.79,1.215c-0.34,0.346-0.742,0.618-1.207,0.816
		c-0.465,0.198-0.975,0.297-1.53,0.297c-0.532,0-1.031-0.091-1.496-0.271c-0.465-0.182-0.869-0.439-1.215-0.773
		c-0.346-0.334-0.621-0.736-0.825-1.207C163.44,188.561,163.337,188.043,163.337,187.476z M164.953,187.494
		c0,0.306,0.057,0.592,0.17,0.858c0.113,0.266,0.269,0.498,0.468,0.696c0.198,0.199,0.431,0.354,0.696,0.468
		c0.267,0.113,0.553,0.17,0.858,0.17c0.307,0,0.593-0.057,0.859-0.17c0.266-0.113,0.498-0.269,0.696-0.468
		c0.198-0.198,0.357-0.431,0.477-0.696c0.119-0.267,0.178-0.553,0.178-0.858c0-0.307-0.059-0.593-0.178-0.859
		c-0.119-0.266-0.278-0.498-0.477-0.696s-0.431-0.357-0.696-0.477c-0.267-0.119-0.553-0.179-0.859-0.179s-0.592,0.06-0.858,0.179
		c-0.266,0.119-0.498,0.278-0.696,0.477c-0.199,0.198-0.354,0.431-0.468,0.696C165.009,186.901,164.953,187.187,164.953,187.494z"/>
	<path fill="#FFF7DC" d="M179.403,191.267h-1.36l-0.204-2.006c-0.261,0.578-0.62,1.057-1.079,1.437
		c-0.459,0.38-1.062,0.569-1.811,0.569s-1.341-0.195-1.776-0.586c-0.437-0.392-0.666-0.91-0.688-1.556v-5.253h1.632v4.487
		c0.022,0.352,0.145,0.649,0.365,0.893c0.222,0.244,0.575,0.377,1.062,0.399c0.329,0,0.629-0.057,0.901-0.17
		c0.271-0.113,0.507-0.271,0.705-0.476c0.198-0.205,0.354-0.448,0.468-0.731c0.114-0.283,0.17-0.589,0.17-0.918v-3.484h1.615
		L179.403,191.267L179.403,191.267z"/>
	<path fill="#FFF7DC" d="M183.024,191.097h-1.615V177.82h1.615V191.097z"/>
	<path fill="#FFF7DC" d="M191.235,190.264c-0.352,0.317-0.776,0.566-1.275,0.748c-0.498,0.181-1.009,0.271-1.529,0.271
		c-0.533,0-1.034-0.099-1.505-0.297s-0.878-0.471-1.224-0.816s-0.621-0.748-0.825-1.207c-0.203-0.459-0.306-0.949-0.306-1.47
		s0.103-1.012,0.306-1.471c0.204-0.459,0.479-0.861,0.825-1.207c0.346-0.346,0.748-0.618,1.207-0.816s0.943-0.297,1.453-0.297
		c0.816,0,1.532,0.246,2.15,0.739s1.057,1.142,1.317,1.946c-0.34,0.125-0.733,0.275-1.182,0.45c-0.447,0.176-0.915,0.36-1.402,0.553
		c-0.487,0.193-0.975,0.389-1.462,0.587s-0.935,0.377-1.343,0.535c0.192,0.352,0.459,0.635,0.799,0.85
		c0.34,0.216,0.726,0.323,1.156,0.323c0.295,0,0.592-0.054,0.893-0.161c0.3-0.107,0.547-0.252,0.739-0.434L191.235,190.264z
		 M189.807,186.014c-0.137-0.249-0.34-0.434-0.612-0.553c-0.271-0.119-0.538-0.179-0.799-0.179c-0.306,0-0.595,0.06-0.867,0.179
		c-0.271,0.119-0.504,0.278-0.697,0.477c-0.192,0.198-0.346,0.425-0.459,0.68c-0.113,0.255-0.17,0.519-0.17,0.79v0.068
		c0.283-0.113,0.587-0.235,0.91-0.365c0.322-0.13,0.646-0.264,0.969-0.399c0.323-0.137,0.632-0.264,0.927-0.383
		C189.302,186.21,189.569,186.105,189.807,186.014z"/>
	<path fill="#FFF7DC" d="M193.75,180.71h1.615v3.162h1.887v1.462h-1.887v5.763h-1.615v-5.763h-1.224v-1.462h1.224V180.71z"/>
	<path fill="#FFF7DC" d="M199.122,180.71h1.615v3.162h1.887v1.462h-1.887v5.763h-1.615v-5.763h-1.224v-1.462h1.224V180.71z"/>
	<path fill="#FFF7DC" d="M209.901,190.264c-0.352,0.317-0.776,0.566-1.275,0.748c-0.498,0.181-1.009,0.271-1.529,0.271
		c-0.533,0-1.034-0.099-1.505-0.297s-0.878-0.471-1.224-0.816s-0.621-0.748-0.825-1.207c-0.203-0.459-0.306-0.949-0.306-1.47
		s0.103-1.012,0.306-1.471c0.204-0.459,0.479-0.861,0.825-1.207c0.346-0.346,0.748-0.618,1.207-0.816s0.943-0.297,1.453-0.297
		c0.816,0,1.532,0.246,2.15,0.739s1.057,1.142,1.317,1.946c-0.34,0.125-0.733,0.275-1.182,0.45c-0.447,0.176-0.915,0.36-1.402,0.553
		c-0.487,0.193-0.975,0.389-1.462,0.587s-0.935,0.377-1.343,0.535c0.192,0.352,0.459,0.635,0.799,0.85
		c0.34,0.216,0.726,0.323,1.156,0.323c0.295,0,0.592-0.054,0.893-0.161c0.3-0.107,0.547-0.252,0.739-0.434L209.901,190.264z
		 M208.473,186.014c-0.137-0.249-0.34-0.434-0.612-0.553c-0.271-0.119-0.538-0.179-0.799-0.179c-0.306,0-0.595,0.06-0.867,0.179
		c-0.271,0.119-0.504,0.278-0.697,0.477c-0.192,0.198-0.346,0.425-0.459,0.68c-0.113,0.255-0.17,0.519-0.17,0.79v0.068
		c0.283-0.113,0.587-0.235,0.91-0.365c0.322-0.13,0.646-0.264,0.969-0.399c0.323-0.137,0.632-0.264,0.927-0.383
		C207.968,186.21,208.235,186.105,208.473,186.014z"/>
	<path fill="#FFF7DC" d="M215.868,184.518c-0.068,0.103-0.15,0.219-0.247,0.349c-0.096,0.131-0.189,0.252-0.28,0.365
		s-0.198,0.255-0.323,0.425c-0.113-0.079-0.224-0.142-0.331-0.187s-0.232-0.088-0.374-0.128c-0.142-0.039-0.286-0.06-0.434-0.06
		c-0.159,0-0.326,0.037-0.501,0.111c-0.177,0.073-0.264,0.224-0.264,0.45c0,0.192,0.076,0.354,0.229,0.484
		c0.152,0.131,0.34,0.249,0.561,0.357c0.221,0.107,0.465,0.218,0.731,0.331c0.266,0.113,0.51,0.255,0.73,0.425
		c0.222,0.17,0.408,0.383,0.562,0.638c0.152,0.255,0.229,0.569,0.229,0.943c0,0.329-0.06,0.629-0.179,0.901
		c-0.119,0.271-0.289,0.504-0.51,0.697c-0.222,0.192-0.484,0.346-0.791,0.459c-0.306,0.112-0.651,0.17-1.037,0.17
		c-0.465,0-0.915-0.08-1.352-0.238c-0.436-0.158-0.779-0.385-1.028-0.68c0.079-0.091,0.176-0.204,0.289-0.341
		c0.113-0.136,0.221-0.266,0.323-0.391c0.102-0.124,0.227-0.271,0.374-0.442c0-0.011,0.036,0.009,0.11,0.06
		c0.073,0.052,0.173,0.111,0.298,0.179c0.124,0.068,0.271,0.131,0.441,0.188s0.346,0.085,0.527,0.085
		c0.283,0,0.501-0.062,0.654-0.188c0.153-0.124,0.229-0.277,0.229-0.459c0-0.181-0.076-0.328-0.229-0.441s-0.34-0.219-0.561-0.314
		c-0.222-0.097-0.465-0.201-0.731-0.314s-0.51-0.256-0.73-0.426c-0.222-0.17-0.408-0.388-0.562-0.654
		c-0.153-0.266-0.229-0.604-0.229-1.012c0-0.407,0.073-0.748,0.221-1.02c0.147-0.272,0.338-0.493,0.57-0.663
		c0.231-0.17,0.484-0.292,0.756-0.365c0.272-0.074,0.538-0.11,0.799-0.11c0.352,0,0.717,0.07,1.097,0.212
		S215.607,184.257,215.868,184.518z"/>
	<path fill="#FFF7DC" d="M81.797,207.894c0-0.567,0.094-1.083,0.281-1.548c0.187-0.464,0.447-0.863,0.781-1.198
		c0.335-0.334,0.726-0.595,1.174-0.782c0.447-0.187,0.938-0.28,1.47-0.28c0.363,0,0.681,0.04,0.952,0.119
		c0.272,0.079,0.505,0.176,0.697,0.289c0.192,0.113,0.349,0.235,0.468,0.365c0.119,0.131,0.212,0.241,0.28,0.332v-6.971h1.632
		v13.277H87.9v-0.476c0-0.057,0.006-0.119,0.017-0.188c0.012-0.068,0.018-0.119,0.018-0.153c-0.103,0.103-0.228,0.213-0.374,0.332
		c-0.147,0.119-0.323,0.229-0.527,0.331c-0.204,0.103-0.434,0.185-0.688,0.247c-0.255,0.062-0.547,0.093-0.875,0.093
		c-0.578,0-1.097-0.099-1.556-0.297s-0.845-0.471-1.156-0.816s-0.55-0.748-0.714-1.207
		C81.881,208.904,81.797,208.415,81.797,207.894z M83.43,207.86c0,0.317,0.054,0.611,0.161,0.884
		c0.107,0.271,0.261,0.507,0.459,0.705c0.198,0.199,0.434,0.354,0.705,0.468c0.272,0.113,0.572,0.17,0.901,0.17
		c0.329,0,0.632-0.057,0.909-0.17c0.278-0.113,0.516-0.271,0.715-0.476c0.197-0.204,0.351-0.442,0.459-0.715
		c0.107-0.271,0.161-0.561,0.161-0.866c0-0.307-0.054-0.593-0.161-0.858c-0.108-0.267-0.262-0.496-0.459-0.688
		c-0.199-0.193-0.437-0.346-0.715-0.459c-0.277-0.113-0.58-0.171-0.909-0.171c-0.329,0-0.629,0.055-0.901,0.162
		c-0.271,0.107-0.507,0.261-0.705,0.459c-0.198,0.198-0.352,0.431-0.459,0.697C83.484,207.267,83.43,207.553,83.43,207.86z"/>
	<path fill="#FFF7DC" d="M98.407,211.668h-1.36l-0.204-2.006c-0.261,0.578-0.62,1.057-1.079,1.437
		c-0.459,0.38-1.062,0.569-1.811,0.569c-0.749,0-1.341-0.195-1.776-0.586c-0.437-0.392-0.666-0.91-0.688-1.556v-5.253h1.632v4.487
		c0.022,0.352,0.145,0.649,0.365,0.893c0.222,0.244,0.575,0.377,1.062,0.399c0.329,0,0.629-0.057,0.901-0.17
		c0.271-0.113,0.507-0.271,0.705-0.476c0.198-0.205,0.354-0.448,0.468-0.731c0.114-0.283,0.17-0.589,0.17-0.918v-3.484h1.615
		C98.407,204.273,98.407,211.668,98.407,211.668z"/>
	<path fill="#FFF7DC" d="M106.77,211.922c-0.68-1.28-1.325-2.553-1.938-3.816s-1.241-2.541-1.887-3.833h1.768
		c0.431,0.839,0.768,1.513,1.012,2.022c0.243,0.51,0.434,0.924,0.569,1.241c0.135,0.317,0.235,0.569,0.298,0.757
		c0.062,0.187,0.121,0.382,0.178,0.586c0.068-0.204,0.134-0.399,0.196-0.586c0.062-0.188,0.161-0.439,0.297-0.757
		c0.137-0.317,0.326-0.731,0.569-1.241c0.244-0.51,0.581-1.184,1.012-2.022h1.751c-0.646,1.292-1.28,2.569-1.903,3.833
		C108.068,209.37,107.427,210.642,106.77,211.922z"/>
	<path fill="#FFF7DC" d="M110.918,207.876c0-0.521,0.1-1.012,0.298-1.471c0.198-0.459,0.473-0.858,0.824-1.198
		s0.762-0.609,1.232-0.808c0.47-0.199,0.972-0.297,1.505-0.297c0.544,0,1.048,0.099,1.513,0.297s0.864,0.468,1.198,0.808
		s0.598,0.739,0.791,1.198c0.192,0.459,0.289,0.949,0.289,1.471c0,0.522-0.094,1.015-0.281,1.479
		c-0.187,0.465-0.45,0.869-0.79,1.215c-0.34,0.346-0.742,0.618-1.207,0.816s-0.975,0.297-1.53,0.297
		c-0.532,0-1.031-0.091-1.496-0.271c-0.465-0.182-0.869-0.439-1.215-0.773c-0.346-0.334-0.621-0.736-0.825-1.207
		C111.021,208.961,110.918,208.444,110.918,207.876z M112.534,207.894c0,0.306,0.057,0.592,0.17,0.858
		c0.113,0.266,0.269,0.498,0.468,0.696c0.198,0.199,0.431,0.354,0.696,0.468c0.267,0.113,0.553,0.17,0.858,0.17
		c0.307,0,0.593-0.057,0.859-0.17s0.498-0.269,0.696-0.468c0.198-0.198,0.357-0.431,0.477-0.696
		c0.119-0.267,0.178-0.553,0.178-0.858c0-0.307-0.059-0.593-0.178-0.859c-0.119-0.266-0.278-0.498-0.477-0.696
		s-0.431-0.357-0.696-0.477c-0.267-0.119-0.553-0.179-0.859-0.179s-0.592,0.06-0.858,0.179c-0.266,0.119-0.498,0.278-0.696,0.477
		c-0.199,0.198-0.354,0.431-0.468,0.696C112.59,207.301,112.534,207.587,112.534,207.894z"/>
	<path fill="#FFF7DC" d="M121.952,214.965h-1.632c0.17-0.34,0.328-0.666,0.476-0.978c0.148-0.312,0.295-0.629,0.442-0.952
		c0.146-0.322,0.3-0.654,0.459-0.994c0.158-0.34,0.334-0.708,0.526-1.104c-0.261-0.511-0.529-1.049-0.808-1.615
		c-0.277-0.566-0.558-1.14-0.841-1.717c-0.283-0.578-0.564-1.15-0.842-1.718c-0.277-0.566-0.541-1.104-0.79-1.614h1.768
		c0.431,0.839,0.782,1.541,1.054,2.107c0.272,0.567,0.493,1.043,0.663,1.428c0.17,0.386,0.301,0.7,0.392,0.944
		c0.09,0.243,0.164,0.467,0.221,0.671c0.068-0.204,0.147-0.428,0.238-0.671c0.09-0.244,0.221-0.559,0.391-0.944
		c0.17-0.385,0.391-0.86,0.663-1.428c0.271-0.566,0.623-1.269,1.054-2.107h1.751L121.952,214.965z"/>
	<path fill="#FFF7DC" d="M127.494,207.961c0-0.521,0.103-1.017,0.306-1.487c0.204-0.471,0.479-0.881,0.825-1.232
		c0.346-0.351,0.748-0.632,1.207-0.842c0.459-0.209,0.943-0.314,1.453-0.314c0.34,0,0.646,0.043,0.918,0.128
		s0.507,0.184,0.706,0.297c0.197,0.113,0.354,0.229,0.467,0.349c0.113,0.12,0.188,0.213,0.222,0.28l0.067-0.866h1.581v7.225h-1.648
		v-0.476c0-0.057,0.002-0.111,0.008-0.162c0.006-0.051,0.009-0.088,0.009-0.11c-0.046,0.057-0.125,0.139-0.238,0.246
		c-0.113,0.108-0.267,0.213-0.459,0.315c-0.192,0.102-0.422,0.189-0.688,0.263c-0.267,0.074-0.575,0.11-0.927,0.11
		c-0.555,0-1.065-0.102-1.529-0.306c-0.465-0.204-0.867-0.476-1.207-0.815c-0.34-0.341-0.604-0.734-0.791-1.182
		C127.587,208.933,127.494,208.46,127.494,207.961z M129.143,207.86c0,0.317,0.054,0.611,0.161,0.884
		c0.107,0.271,0.261,0.507,0.459,0.705c0.198,0.199,0.434,0.354,0.705,0.468c0.272,0.113,0.572,0.17,0.901,0.17
		s0.629-0.057,0.901-0.17c0.271-0.113,0.507-0.271,0.705-0.476c0.198-0.205,0.352-0.442,0.459-0.715
		c0.107-0.271,0.162-0.561,0.162-0.866c0-0.307-0.055-0.593-0.162-0.858c-0.107-0.267-0.261-0.496-0.459-0.688
		c-0.198-0.193-0.434-0.346-0.705-0.459c-0.272-0.113-0.572-0.171-0.901-0.171s-0.629,0.055-0.901,0.162
		c-0.271,0.107-0.507,0.261-0.705,0.459s-0.352,0.431-0.459,0.697C129.197,207.267,129.143,207.553,129.143,207.86z"/>
	<path fill="#FFF7DC" d="M136.809,207.927c0-0.544,0.097-1.051,0.289-1.521c0.193-0.47,0.456-0.878,0.791-1.224
		c0.334-0.346,0.725-0.614,1.173-0.808c0.447-0.192,0.927-0.289,1.437-0.289c0.385,0,0.726,0.051,1.02,0.153
		c0.295,0.102,0.542,0.215,0.74,0.34s0.351,0.244,0.459,0.357c0.107,0.113,0.173,0.181,0.195,0.203c0-0.124,0.011-0.26,0.034-0.407
		c0.022-0.147,0.034-0.301,0.034-0.459h1.563v6.851c0,0.612-0.097,1.158-0.289,1.641c-0.192,0.481-0.462,0.884-0.808,1.207
		c-0.346,0.323-0.759,0.569-1.24,0.739c-0.482,0.17-1.012,0.255-1.59,0.255c-0.442,0-0.83-0.045-1.165-0.136
		c-0.334-0.091-0.635-0.21-0.9-0.357c-0.267-0.147-0.51-0.312-0.731-0.492c-0.221-0.182-0.434-0.363-0.638-0.544l1.055-1.105
		c0.317,0.295,0.657,0.547,1.02,0.757c0.362,0.209,0.805,0.314,1.326,0.314c0.702,0,1.264-0.17,1.683-0.511
		c0.42-0.34,0.63-0.821,0.63-1.444c0-0.057,0-0.122,0-0.195c0-0.074,0.005-0.15,0.017-0.229c0-0.103,0.011-0.193,0.034-0.272
		c0.022-0.079,0.034-0.147,0.034-0.204c-0.103,0.113-0.225,0.238-0.366,0.374s-0.312,0.261-0.51,0.374
		c-0.198,0.113-0.428,0.207-0.688,0.28c-0.261,0.074-0.561,0.11-0.901,0.11c-0.544,0-1.042-0.096-1.495-0.288
		c-0.454-0.193-0.845-0.459-1.174-0.8c-0.328-0.34-0.584-0.736-0.765-1.189C136.9,208.954,136.809,208.46,136.809,207.927z
		 M138.442,207.86c0,0.317,0.054,0.611,0.161,0.884c0.107,0.271,0.261,0.507,0.459,0.705c0.198,0.199,0.434,0.354,0.705,0.468
		c0.272,0.113,0.572,0.17,0.901,0.17c0.329,0,0.632-0.057,0.909-0.17c0.278-0.113,0.516-0.271,0.715-0.476
		c0.197-0.204,0.351-0.442,0.459-0.715c0.107-0.271,0.161-0.561,0.161-0.866c0-0.307-0.054-0.593-0.161-0.858
		c-0.108-0.267-0.262-0.496-0.459-0.688c-0.199-0.193-0.437-0.346-0.715-0.459c-0.277-0.113-0.58-0.171-0.909-0.171
		c-0.329,0-0.629,0.055-0.901,0.162c-0.271,0.107-0.507,0.261-0.705,0.459s-0.352,0.431-0.459,0.697
		C138.495,207.267,138.442,207.553,138.442,207.86z"/>
	<path fill="#FFF7DC" d="M152.755,210.665c-0.352,0.317-0.776,0.566-1.275,0.748c-0.498,0.181-1.009,0.271-1.529,0.271
		c-0.533,0-1.034-0.099-1.505-0.297s-0.878-0.471-1.224-0.816s-0.621-0.748-0.825-1.207c-0.203-0.459-0.306-0.949-0.306-1.47
		s0.103-1.012,0.306-1.471c0.204-0.459,0.479-0.861,0.825-1.207s0.748-0.618,1.207-0.816s0.943-0.297,1.453-0.297
		c0.816,0,1.532,0.246,2.15,0.739c0.618,0.493,1.057,1.142,1.317,1.946c-0.34,0.125-0.733,0.275-1.182,0.45
		c-0.447,0.176-0.915,0.36-1.402,0.553s-0.975,0.389-1.462,0.587s-0.935,0.377-1.343,0.535c0.192,0.352,0.459,0.635,0.799,0.85
		c0.34,0.216,0.726,0.323,1.156,0.323c0.295,0,0.592-0.054,0.893-0.161c0.3-0.107,0.547-0.252,0.739-0.434L152.755,210.665z
		 M151.328,206.415c-0.137-0.249-0.34-0.434-0.612-0.553c-0.271-0.119-0.538-0.179-0.799-0.179c-0.306,0-0.595,0.06-0.867,0.179
		c-0.271,0.119-0.504,0.278-0.697,0.477c-0.192,0.198-0.346,0.425-0.459,0.68c-0.113,0.255-0.17,0.519-0.17,0.79v0.068
		c0.283-0.113,0.587-0.235,0.91-0.365c0.322-0.13,0.646-0.264,0.969-0.399c0.323-0.137,0.632-0.264,0.927-0.383
		C150.823,206.61,151.089,206.505,151.328,206.415z"/>
	<path fill="#FFF7DC" d="M164.689,210.665c-0.352,0.317-0.776,0.566-1.275,0.748c-0.498,0.181-1.009,0.271-1.529,0.271
		c-0.533,0-1.034-0.099-1.505-0.297c-0.471-0.198-0.878-0.471-1.224-0.816c-0.346-0.345-0.621-0.748-0.825-1.207
		c-0.203-0.459-0.306-0.949-0.306-1.47s0.103-1.012,0.306-1.471c0.204-0.459,0.479-0.861,0.825-1.207
		c0.346-0.346,0.748-0.618,1.207-0.816c0.459-0.198,0.943-0.297,1.453-0.297c0.816,0,1.532,0.246,2.15,0.739
		c0.618,0.493,1.057,1.142,1.317,1.946c-0.34,0.125-0.733,0.275-1.182,0.45c-0.447,0.176-0.915,0.36-1.402,0.553
		s-0.975,0.389-1.462,0.587s-0.935,0.377-1.343,0.535c0.192,0.352,0.459,0.635,0.799,0.85c0.34,0.216,0.726,0.323,1.156,0.323
		c0.295,0,0.592-0.054,0.893-0.161c0.3-0.107,0.547-0.252,0.739-0.434L164.689,210.665z M163.261,206.415
		c-0.137-0.249-0.34-0.434-0.612-0.553c-0.271-0.119-0.538-0.179-0.799-0.179c-0.306,0-0.595,0.06-0.867,0.179
		c-0.271,0.119-0.504,0.278-0.697,0.477c-0.192,0.198-0.346,0.425-0.459,0.68c-0.113,0.255-0.17,0.519-0.17,0.79v0.068
		c0.283-0.113,0.587-0.235,0.91-0.365c0.322-0.13,0.646-0.264,0.969-0.399c0.323-0.137,0.632-0.264,0.927-0.383
		C162.756,206.61,163.023,206.505,163.261,206.415z M160.66,203.218c0.261-0.374,0.519-0.753,0.773-1.139
		c0.255-0.385,0.513-0.771,0.773-1.156h1.751c-0.34,0.386-0.686,0.771-1.036,1.156c-0.352,0.386-0.703,0.765-1.055,1.139H160.66z"/>
	<path fill="#FFF7DC" d="M171.353,209.611c0.17,0.215,0.334,0.422,0.493,0.62c0.158,0.198,0.323,0.399,0.493,0.604
		c-0.329,0.261-0.697,0.468-1.105,0.62c-0.408,0.153-0.845,0.229-1.309,0.229c-0.533,0-1.034-0.099-1.505-0.297
		c-0.471-0.198-0.878-0.471-1.224-0.816c-0.346-0.345-0.621-0.75-0.825-1.215c-0.203-0.465-0.306-0.958-0.306-1.479
		c0-0.521,0.103-1.012,0.306-1.471c0.204-0.459,0.479-0.861,0.825-1.207c0.346-0.346,0.753-0.617,1.224-0.815
		c0.471-0.198,0.972-0.298,1.505-0.298c0.476,0,0.92,0.076,1.334,0.229c0.414,0.153,0.791,0.36,1.131,0.621l-1.037,1.206
		c-0.396-0.306-0.873-0.459-1.428-0.459c-0.329,0-0.629,0.058-0.901,0.171c-0.271,0.113-0.507,0.266-0.705,0.459
		c-0.199,0.192-0.352,0.422-0.459,0.688c-0.108,0.266-0.162,0.558-0.162,0.875c0,0.306,0.054,0.593,0.162,0.858
		c0.107,0.267,0.26,0.502,0.459,0.706c0.198,0.204,0.434,0.362,0.705,0.476c0.272,0.113,0.572,0.17,0.901,0.17
		C170.492,210.086,170.967,209.928,171.353,209.611z"/>
	<path fill="#FFF7DC" d="M173.036,207.876c0-0.521,0.1-1.012,0.298-1.471c0.198-0.459,0.473-0.858,0.824-1.198
		s0.762-0.609,1.232-0.808c0.47-0.199,0.972-0.297,1.505-0.297c0.544,0,1.048,0.099,1.513,0.297s0.864,0.468,1.198,0.808
		s0.598,0.739,0.791,1.198c0.192,0.459,0.289,0.949,0.289,1.471c0,0.522-0.094,1.015-0.281,1.479
		c-0.187,0.465-0.45,0.869-0.79,1.215c-0.34,0.346-0.742,0.618-1.207,0.816s-0.975,0.297-1.53,0.297
		c-0.532,0-1.031-0.091-1.496-0.271c-0.465-0.182-0.869-0.439-1.215-0.773c-0.346-0.334-0.621-0.736-0.825-1.207
		S173.036,208.444,173.036,207.876z M174.651,207.894c0,0.306,0.057,0.592,0.17,0.858c0.113,0.266,0.269,0.498,0.468,0.696
		c0.198,0.199,0.431,0.354,0.696,0.468c0.267,0.113,0.553,0.17,0.858,0.17c0.307,0,0.593-0.057,0.859-0.17
		c0.266-0.113,0.498-0.269,0.696-0.468c0.198-0.198,0.357-0.431,0.477-0.696c0.119-0.267,0.178-0.553,0.178-0.858
		c0-0.307-0.059-0.593-0.178-0.859c-0.119-0.266-0.278-0.498-0.477-0.696s-0.431-0.357-0.696-0.477
		c-0.267-0.119-0.553-0.179-0.859-0.179s-0.592,0.06-0.858,0.179c-0.266,0.119-0.498,0.278-0.696,0.477
		c-0.199,0.198-0.354,0.431-0.468,0.696C174.707,207.301,174.651,207.587,174.651,207.894z"/>
	<path fill="#FFF7DC" d="M189.101,211.668h-1.36l-0.204-2.006c-0.261,0.578-0.62,1.057-1.079,1.437
		c-0.459,0.38-1.062,0.569-1.811,0.569s-1.341-0.195-1.776-0.586c-0.437-0.392-0.666-0.91-0.688-1.556v-5.253h1.632v4.487
		c0.022,0.352,0.145,0.649,0.365,0.893c0.222,0.244,0.575,0.377,1.062,0.399c0.329,0,0.629-0.057,0.901-0.17
		c0.271-0.113,0.507-0.271,0.705-0.476c0.198-0.205,0.354-0.448,0.468-0.731c0.114-0.283,0.17-0.589,0.17-0.918v-3.484h1.615
		L189.101,211.668L189.101,211.668z"/>
	<path fill="#FFF7DC" d="M192.722,211.498h-1.615v-13.277h1.615V211.498z"/>
	<path fill="#FFF7DC" d="M200.933,210.665c-0.352,0.317-0.776,0.566-1.275,0.748c-0.498,0.181-1.009,0.271-1.529,0.271
		c-0.533,0-1.034-0.099-1.505-0.297s-0.878-0.471-1.224-0.816s-0.621-0.748-0.825-1.207c-0.203-0.459-0.306-0.949-0.306-1.47
		s0.103-1.012,0.306-1.471c0.204-0.459,0.479-0.861,0.825-1.207s0.748-0.618,1.207-0.816s0.943-0.297,1.453-0.297
		c0.816,0,1.532,0.246,2.15,0.739c0.618,0.493,1.057,1.142,1.317,1.946c-0.34,0.125-0.733,0.275-1.182,0.45
		c-0.447,0.176-0.915,0.36-1.402,0.553s-0.975,0.389-1.462,0.587s-0.935,0.377-1.343,0.535c0.192,0.352,0.459,0.635,0.799,0.85
		c0.34,0.216,0.726,0.323,1.156,0.323c0.295,0,0.592-0.054,0.893-0.161c0.3-0.107,0.547-0.252,0.739-0.434L200.933,210.665z
		 M199.505,206.415c-0.137-0.249-0.34-0.434-0.612-0.553c-0.271-0.119-0.538-0.179-0.799-0.179c-0.306,0-0.595,0.06-0.867,0.179
		c-0.271,0.119-0.504,0.278-0.697,0.477c-0.192,0.198-0.346,0.425-0.459,0.68c-0.113,0.255-0.17,0.519-0.17,0.79v0.068
		c0.283-0.113,0.587-0.235,0.91-0.365c0.322-0.13,0.646-0.264,0.969-0.399c0.323-0.137,0.632-0.264,0.927-0.383
		C199,206.61,199.267,206.505,199.505,206.415z M196.904,203.218c0.261-0.374,0.519-0.753,0.773-1.139
		c0.255-0.385,0.513-0.771,0.773-1.156h1.751c-0.34,0.386-0.686,0.771-1.036,1.156c-0.352,0.386-0.703,0.765-1.055,1.139H196.904z"
		/>
	<path fill="#FFF7DC" d="M208.974,210.665c-0.352,0.317-0.776,0.566-1.275,0.748c-0.498,0.181-1.009,0.271-1.529,0.271
		c-0.533,0-1.034-0.099-1.505-0.297s-0.878-0.471-1.224-0.816s-0.621-0.748-0.825-1.207c-0.203-0.459-0.306-0.949-0.306-1.47
		s0.103-1.012,0.306-1.471c0.204-0.459,0.479-0.861,0.825-1.207s0.748-0.618,1.207-0.816s0.943-0.297,1.453-0.297
		c0.816,0,1.532,0.246,2.15,0.739c0.618,0.493,1.057,1.142,1.317,1.946c-0.34,0.125-0.733,0.275-1.182,0.45
		c-0.447,0.176-0.915,0.36-1.402,0.553s-0.975,0.389-1.462,0.587s-0.935,0.377-1.343,0.535c0.192,0.352,0.459,0.635,0.799,0.85
		c0.34,0.216,0.726,0.323,1.156,0.323c0.295,0,0.592-0.054,0.893-0.161c0.3-0.107,0.547-0.252,0.739-0.434L208.974,210.665z
		 M207.546,206.415c-0.137-0.249-0.34-0.434-0.612-0.553c-0.271-0.119-0.538-0.179-0.799-0.179c-0.306,0-0.595,0.06-0.867,0.179
		c-0.271,0.119-0.504,0.278-0.697,0.477c-0.192,0.198-0.346,0.425-0.459,0.68c-0.113,0.255-0.17,0.519-0.17,0.79v0.068
		c0.283-0.113,0.587-0.235,0.91-0.365c0.322-0.13,0.646-0.264,0.969-0.399c0.323-0.137,0.632-0.264,0.927-0.383
		C207.041,206.61,207.308,206.505,207.546,206.415z"/>
	<path fill="#FFF7DC" d="M214.941,204.918c-0.068,0.103-0.15,0.219-0.247,0.349c-0.096,0.131-0.189,0.252-0.28,0.365
		s-0.198,0.255-0.323,0.425c-0.113-0.079-0.224-0.142-0.331-0.187c-0.107-0.045-0.232-0.088-0.374-0.128
		c-0.142-0.039-0.286-0.06-0.434-0.06c-0.159,0-0.326,0.037-0.501,0.111c-0.177,0.073-0.264,0.224-0.264,0.45
		c0,0.192,0.076,0.354,0.229,0.484c0.152,0.131,0.34,0.249,0.561,0.357c0.221,0.107,0.465,0.218,0.731,0.331s0.51,0.255,0.73,0.425
		c0.222,0.17,0.408,0.383,0.562,0.638c0.152,0.255,0.229,0.569,0.229,0.943c0,0.329-0.06,0.629-0.179,0.901
		c-0.119,0.271-0.289,0.504-0.51,0.697c-0.222,0.192-0.484,0.346-0.791,0.459c-0.306,0.112-0.651,0.17-1.037,0.17
		c-0.465,0-0.915-0.08-1.352-0.238c-0.436-0.158-0.779-0.385-1.028-0.68c0.079-0.091,0.176-0.204,0.289-0.341
		c0.113-0.136,0.221-0.266,0.323-0.391c0.102-0.124,0.227-0.271,0.374-0.442c0-0.011,0.036,0.009,0.11,0.06
		c0.073,0.052,0.173,0.111,0.298,0.179c0.124,0.068,0.271,0.131,0.441,0.188s0.346,0.085,0.527,0.085
		c0.283,0,0.501-0.062,0.654-0.188c0.153-0.124,0.229-0.277,0.229-0.459c0-0.181-0.076-0.328-0.229-0.441
		c-0.153-0.113-0.34-0.219-0.561-0.314c-0.222-0.097-0.465-0.201-0.731-0.314c-0.266-0.113-0.51-0.256-0.73-0.426
		c-0.222-0.17-0.408-0.388-0.562-0.654c-0.153-0.266-0.229-0.604-0.229-1.012c0-0.407,0.073-0.748,0.221-1.02
		c0.147-0.272,0.338-0.493,0.57-0.663c0.231-0.17,0.484-0.292,0.756-0.365c0.272-0.074,0.538-0.11,0.799-0.11
		c0.352,0,0.717,0.07,1.097,0.212S214.68,204.658,214.941,204.918z"/>
	<path fill="#FFF7DC" d="M85.318,228.311c0,0.544-0.091,1.046-0.272,1.505c-0.181,0.459-0.439,0.858-0.773,1.198
		s-0.733,0.604-1.198,0.79c-0.465,0.188-0.975,0.28-1.53,0.28s-1.045-0.104-1.471-0.314c-0.425-0.209-0.717-0.433-0.875-0.671
		c0,0.045,0.003,0.088,0.009,0.127c0.005,0.04,0.008,0.088,0.008,0.145v3.995h-1.632v-10.692h1.564c0,0.158,0.011,0.317,0.033,0.476
		c0.023,0.159,0.034,0.306,0.034,0.442c0.091-0.113,0.207-0.235,0.349-0.366c0.142-0.13,0.314-0.249,0.519-0.356
		c0.205-0.107,0.434-0.198,0.688-0.272c0.255-0.073,0.535-0.11,0.842-0.11c0.555,0,1.06,0.088,1.513,0.264
		c0.453,0.176,0.842,0.431,1.165,0.765c0.322,0.335,0.574,0.737,0.756,1.207C85.227,227.192,85.318,227.722,85.318,228.311z
		 M83.549,228.277c0-0.635-0.184-1.158-0.552-1.572c-0.369-0.414-0.882-0.621-1.539-0.621c-0.329,0-0.629,0.055-0.901,0.162
		c-0.271,0.107-0.507,0.261-0.705,0.459s-0.354,0.431-0.468,0.697c-0.113,0.266-0.17,0.552-0.17,0.858
		c0,0.317,0.057,0.611,0.17,0.884c0.113,0.271,0.27,0.507,0.468,0.705c0.198,0.199,0.434,0.354,0.705,0.468
		c0.272,0.113,0.572,0.17,0.901,0.17s0.623-0.057,0.884-0.17c0.261-0.113,0.479-0.271,0.655-0.476
		c0.175-0.204,0.312-0.439,0.407-0.706C83.501,228.87,83.549,228.583,83.549,228.277z"/>
	<path fill="#FFF7DC" d="M86.422,228.362c0-0.521,0.103-1.017,0.306-1.487c0.204-0.471,0.479-0.881,0.825-1.232
		c0.346-0.351,0.748-0.632,1.207-0.842c0.459-0.209,0.943-0.314,1.453-0.314c0.34,0,0.646,0.043,0.918,0.128
		c0.272,0.085,0.507,0.184,0.706,0.297c0.197,0.113,0.354,0.229,0.467,0.349s0.188,0.213,0.222,0.28l0.067-0.866h1.581v7.225h-1.648
		v-0.476c0-0.057,0.002-0.111,0.008-0.162c0.006-0.051,0.009-0.088,0.009-0.11c-0.046,0.057-0.125,0.139-0.238,0.246
		c-0.113,0.108-0.267,0.213-0.459,0.315c-0.192,0.102-0.422,0.189-0.688,0.263c-0.267,0.074-0.575,0.11-0.927,0.11
		c-0.555,0-1.065-0.102-1.529-0.306c-0.465-0.204-0.867-0.476-1.207-0.815c-0.34-0.341-0.604-0.734-0.791-1.182
		C86.516,229.334,86.422,228.861,86.422,228.362z M88.072,228.26c0,0.317,0.054,0.611,0.161,0.884
		c0.107,0.271,0.261,0.507,0.459,0.705c0.198,0.199,0.434,0.354,0.705,0.468c0.272,0.113,0.572,0.17,0.901,0.17
		c0.329,0,0.629-0.057,0.901-0.17c0.271-0.113,0.507-0.271,0.705-0.476c0.198-0.205,0.352-0.442,0.459-0.715
		c0.107-0.271,0.162-0.561,0.162-0.866c0-0.307-0.055-0.593-0.162-0.858c-0.107-0.267-0.261-0.496-0.459-0.688
		c-0.198-0.193-0.434-0.346-0.705-0.459c-0.272-0.113-0.572-0.171-0.901-0.171c-0.329,0-0.629,0.055-0.901,0.162
		c-0.271,0.107-0.507,0.261-0.705,0.459c-0.198,0.198-0.352,0.431-0.459,0.697C88.125,227.668,88.072,227.954,88.072,228.26z"/>
	<path fill="#FFF7DC" d="M100.226,226.594c-0.317,0-0.62,0.04-0.909,0.119s-0.544,0.201-0.766,0.365
		c-0.221,0.164-0.399,0.368-0.535,0.612c-0.136,0.243-0.204,0.529-0.204,0.858v3.349H96.18v-7.225h1.428
		c0.022,0.407,0.049,0.739,0.077,0.994s0.054,0.541,0.076,0.858c0.147-0.317,0.346-0.601,0.595-0.85
		c0.249-0.249,0.508-0.462,0.773-0.638c0.267-0.176,0.53-0.312,0.791-0.408s0.481-0.145,0.663-0.145L100.226,226.594z"/>
	<path fill="#FFF7DC" d="M106.839,231.898h-1.615v-13.277h1.615V231.898z"/>
	<path fill="#FFF7DC" d="M108.386,228.362c0-0.521,0.103-1.017,0.306-1.487c0.204-0.471,0.479-0.881,0.825-1.232
		c0.346-0.352,0.748-0.632,1.207-0.842c0.459-0.209,0.943-0.314,1.453-0.314c0.34,0,0.646,0.043,0.918,0.128
		c0.272,0.085,0.507,0.184,0.706,0.297c0.197,0.113,0.354,0.229,0.467,0.349s0.188,0.213,0.222,0.28l0.067-0.866h1.581v7.225h-1.648
		v-0.476c0-0.057,0.002-0.111,0.008-0.162c0.006-0.051,0.009-0.088,0.009-0.11c-0.046,0.057-0.125,0.139-0.238,0.246
		c-0.113,0.108-0.267,0.213-0.459,0.315c-0.192,0.102-0.422,0.189-0.688,0.263c-0.267,0.074-0.575,0.11-0.927,0.11
		c-0.555,0-1.065-0.102-1.529-0.306c-0.465-0.204-0.867-0.476-1.207-0.815c-0.34-0.341-0.604-0.734-0.791-1.182
		C108.48,229.334,108.386,228.861,108.386,228.362z M110.036,228.26c0,0.317,0.054,0.611,0.161,0.884
		c0.107,0.271,0.261,0.507,0.459,0.705c0.198,0.199,0.434,0.354,0.705,0.468c0.272,0.113,0.572,0.17,0.901,0.17
		s0.629-0.057,0.901-0.17c0.271-0.113,0.507-0.271,0.705-0.476c0.198-0.205,0.352-0.442,0.459-0.715
		c0.107-0.271,0.162-0.561,0.162-0.866c0-0.307-0.055-0.593-0.162-0.858c-0.107-0.267-0.261-0.496-0.459-0.688
		c-0.198-0.193-0.434-0.346-0.705-0.459c-0.272-0.113-0.572-0.171-0.901-0.171s-0.629,0.055-0.901,0.162
		c-0.271,0.107-0.507,0.261-0.705,0.459s-0.352,0.431-0.459,0.697C110.089,227.668,110.036,227.954,110.036,228.26z"/>
	<path fill="#FFF7DC" d="M126.848,230.011c0.17,0.215,0.334,0.422,0.493,0.62c0.158,0.198,0.323,0.399,0.493,0.604
		c-0.329,0.261-0.697,0.468-1.105,0.62c-0.408,0.153-0.845,0.229-1.309,0.229c-0.533,0-1.034-0.099-1.505-0.297
		s-0.878-0.471-1.224-0.816s-0.621-0.75-0.825-1.215c-0.203-0.465-0.306-0.958-0.306-1.479c0-0.521,0.103-1.012,0.306-1.471
		c0.204-0.459,0.479-0.861,0.825-1.207s0.753-0.617,1.224-0.815s0.972-0.298,1.505-0.298c0.476,0,0.92,0.076,1.334,0.229
		c0.414,0.153,0.791,0.36,1.131,0.621l-1.037,1.206c-0.396-0.306-0.873-0.459-1.428-0.459c-0.329,0-0.629,0.058-0.901,0.171
		c-0.271,0.113-0.507,0.266-0.705,0.459c-0.199,0.192-0.352,0.422-0.459,0.688c-0.108,0.266-0.162,0.558-0.162,0.875
		c0,0.306,0.054,0.593,0.162,0.858c0.107,0.267,0.26,0.502,0.459,0.706c0.198,0.204,0.434,0.362,0.705,0.476
		c0.272,0.113,0.572,0.17,0.901,0.17C125.987,230.487,126.462,230.329,126.848,230.011z"/>
	<path fill="#FFF7DC" d="M129.245,218.621h1.632v7.804c0.249-0.578,0.601-1.043,1.055-1.395c0.453-0.351,1.036-0.532,1.751-0.544
		c0.748,0,1.343,0.198,1.784,0.595c0.442,0.397,0.675,0.924,0.697,1.581v5.236h-1.615v-4.471c-0.022-0.352-0.147-0.655-0.374-0.91
		c-0.227-0.255-0.577-0.394-1.054-0.416c-0.329,0-0.632,0.06-0.909,0.179c-0.278,0.119-0.516,0.28-0.714,0.484
		c-0.199,0.204-0.352,0.447-0.459,0.73c-0.108,0.284-0.162,0.59-0.162,0.918v3.485h-1.632
		C129.245,231.897,129.245,218.621,129.245,218.621z"/>
	<path fill="#FFF7DC" d="M137.66,228.362c0-0.521,0.103-1.017,0.306-1.487c0.204-0.471,0.479-0.881,0.825-1.232
		c0.346-0.351,0.748-0.632,1.207-0.842c0.459-0.209,0.943-0.314,1.453-0.314c0.34,0,0.646,0.043,0.918,0.128
		c0.272,0.085,0.507,0.184,0.706,0.297c0.197,0.113,0.354,0.229,0.467,0.349s0.188,0.213,0.222,0.28l0.067-0.866h1.581v7.225h-1.648
		v-0.476c0-0.057,0.002-0.111,0.008-0.162c0.006-0.051,0.009-0.088,0.009-0.11c-0.046,0.057-0.125,0.139-0.238,0.246
		c-0.113,0.108-0.267,0.213-0.459,0.315c-0.192,0.102-0.422,0.189-0.688,0.263c-0.267,0.074-0.575,0.11-0.927,0.11
		c-0.555,0-1.065-0.102-1.529-0.306c-0.465-0.204-0.867-0.476-1.207-0.815c-0.34-0.341-0.604-0.734-0.791-1.182
		C137.753,229.334,137.66,228.861,137.66,228.362z M139.309,228.26c0,0.317,0.054,0.611,0.161,0.884
		c0.107,0.271,0.261,0.507,0.459,0.705c0.198,0.199,0.434,0.354,0.705,0.468c0.272,0.113,0.572,0.17,0.901,0.17
		s0.629-0.057,0.901-0.17c0.271-0.113,0.507-0.271,0.705-0.476c0.198-0.205,0.352-0.442,0.459-0.715
		c0.107-0.271,0.162-0.561,0.162-0.866c0-0.307-0.055-0.593-0.162-0.858c-0.107-0.267-0.261-0.496-0.459-0.688
		c-0.198-0.193-0.434-0.346-0.705-0.459c-0.272-0.113-0.572-0.171-0.901-0.171s-0.629,0.055-0.901,0.162
		c-0.271,0.107-0.507,0.261-0.705,0.459s-0.352,0.431-0.459,0.697C139.363,227.668,139.309,227.954,139.309,228.26z"/>
	<path fill="#FFF7DC" d="M151.463,226.594c-0.317,0-0.62,0.04-0.909,0.119s-0.544,0.201-0.766,0.365
		c-0.221,0.164-0.399,0.368-0.535,0.612c-0.136,0.243-0.204,0.529-0.204,0.858v3.349h-1.632v-7.225h1.428
		c0.022,0.407,0.049,0.739,0.077,0.994s0.054,0.541,0.076,0.858c0.147-0.317,0.346-0.601,0.595-0.85
		c0.249-0.249,0.508-0.462,0.773-0.638c0.267-0.176,0.53-0.312,0.791-0.408s0.481-0.145,0.663-0.145L151.463,226.594z"/>
	<path fill="#FFF7DC" d="M157.618,230.011c0.17,0.215,0.334,0.422,0.493,0.62c0.158,0.198,0.323,0.399,0.493,0.604
		c-0.329,0.261-0.697,0.468-1.105,0.62c-0.408,0.153-0.845,0.229-1.309,0.229c-0.533,0-1.034-0.099-1.505-0.297
		c-0.471-0.198-0.878-0.471-1.224-0.816c-0.346-0.345-0.621-0.75-0.825-1.215c-0.203-0.465-0.306-0.958-0.306-1.479
		c0-0.521,0.103-1.012,0.306-1.471c0.204-0.459,0.479-0.861,0.825-1.207c0.346-0.346,0.753-0.617,1.224-0.815
		c0.471-0.198,0.972-0.298,1.505-0.298c0.476,0,0.92,0.076,1.334,0.229c0.414,0.153,0.791,0.36,1.131,0.621l-1.037,1.206
		c-0.396-0.306-0.873-0.459-1.428-0.459c-0.329,0-0.629,0.058-0.901,0.171c-0.271,0.113-0.507,0.266-0.705,0.459
		c-0.199,0.192-0.352,0.422-0.459,0.688c-0.108,0.266-0.162,0.558-0.162,0.875c0,0.306,0.054,0.593,0.162,0.858
		c0.107,0.267,0.26,0.502,0.459,0.706c0.198,0.204,0.434,0.362,0.705,0.476c0.272,0.113,0.572,0.17,0.901,0.17
		C156.756,230.487,157.232,230.329,157.618,230.011z"/>
	<path fill="#FFF7DC" d="M166.882,232.068h-1.36l-0.204-2.006c-0.261,0.578-0.62,1.057-1.079,1.437
		c-0.459,0.38-1.062,0.569-1.811,0.569s-1.341-0.195-1.776-0.586c-0.437-0.392-0.666-0.91-0.688-1.556v-5.253h1.632v4.487
		c0.022,0.352,0.145,0.649,0.365,0.893c0.222,0.244,0.575,0.377,1.062,0.399c0.329,0,0.629-0.057,0.901-0.17
		c0.271-0.113,0.507-0.271,0.705-0.476c0.198-0.205,0.354-0.448,0.468-0.731c0.114-0.283,0.17-0.589,0.17-0.918v-3.484h1.615
		C166.882,224.673,166.882,232.068,166.882,232.068z"/>
	<path fill="#FFF7DC" d="M169.551,221.511h1.615v3.162h1.887v1.462h-1.887v5.763h-1.615v-5.763h-1.224v-1.462h1.224V221.511z"/>
	<path fill="#FFF7DC" d="M180.329,231.065c-0.352,0.317-0.776,0.566-1.275,0.748c-0.498,0.181-1.009,0.271-1.529,0.271
		c-0.533,0-1.034-0.099-1.505-0.297s-0.878-0.471-1.224-0.816s-0.621-0.748-0.825-1.207c-0.203-0.459-0.306-0.949-0.306-1.47
		s0.103-1.012,0.306-1.471c0.204-0.459,0.479-0.861,0.825-1.207s0.748-0.618,1.207-0.816s0.943-0.297,1.453-0.297
		c0.816,0,1.532,0.246,2.15,0.739c0.618,0.493,1.057,1.142,1.317,1.946c-0.34,0.125-0.733,0.275-1.182,0.45
		c-0.447,0.176-0.915,0.36-1.402,0.553s-0.975,0.389-1.462,0.587s-0.935,0.377-1.343,0.535c0.192,0.352,0.459,0.635,0.799,0.85
		c0.34,0.216,0.726,0.323,1.156,0.323c0.295,0,0.592-0.054,0.893-0.161c0.3-0.107,0.547-0.252,0.739-0.434L180.329,231.065z
		 M178.902,226.815c-0.137-0.249-0.34-0.434-0.612-0.553c-0.271-0.119-0.538-0.179-0.799-0.179c-0.306,0-0.595,0.06-0.867,0.179
		c-0.271,0.119-0.504,0.278-0.697,0.477c-0.192,0.198-0.346,0.425-0.459,0.68c-0.113,0.255-0.17,0.519-0.17,0.79v0.068
		c0.283-0.113,0.587-0.235,0.91-0.365c0.322-0.13,0.646-0.264,0.969-0.399c0.323-0.137,0.632-0.264,0.927-0.383
		C178.397,227.01,178.663,226.906,178.902,226.815z"/>
	<path fill="#FFF7DC" d="M186.228,226.594c-0.317,0-0.62,0.04-0.909,0.119s-0.544,0.201-0.766,0.365
		c-0.221,0.164-0.399,0.368-0.535,0.612c-0.136,0.243-0.204,0.529-0.204,0.858v3.349h-1.632v-7.225h1.428
		c0.022,0.407,0.049,0.739,0.077,0.994s0.054,0.541,0.076,0.858c0.147-0.317,0.346-0.601,0.595-0.85
		c0.249-0.249,0.508-0.462,0.773-0.638c0.267-0.176,0.53-0.312,0.791-0.408s0.481-0.145,0.663-0.145L186.228,226.594z"/>
	<path fill="#FFF7DC" d="M187.503,221.868c0-0.294,0.107-0.538,0.322-0.73c0.216-0.192,0.448-0.289,0.697-0.289
		s0.479,0.097,0.688,0.289c0.209,0.192,0.314,0.437,0.314,0.73c0,0.307-0.104,0.553-0.314,0.74c-0.21,0.187-0.439,0.28-0.688,0.28
		s-0.481-0.094-0.697-0.28C187.611,222.42,187.503,222.174,187.503,221.868z M189.322,231.898h-1.632v-7.225h1.632V231.898z"/>
	<path fill="#FFF7DC" d="M197.533,231.065c-0.352,0.317-0.776,0.566-1.275,0.748c-0.498,0.181-1.009,0.271-1.529,0.271
		c-0.533,0-1.034-0.099-1.505-0.297s-0.878-0.471-1.224-0.816s-0.621-0.748-0.825-1.207c-0.203-0.459-0.306-0.949-0.306-1.47
		s0.103-1.012,0.306-1.471c0.204-0.459,0.479-0.861,0.825-1.207s0.748-0.618,1.207-0.816s0.943-0.297,1.453-0.297
		c0.816,0,1.532,0.246,2.15,0.739c0.618,0.493,1.057,1.142,1.317,1.946c-0.34,0.125-0.733,0.275-1.182,0.45
		c-0.447,0.176-0.915,0.36-1.402,0.553s-0.975,0.389-1.462,0.587s-0.935,0.377-1.343,0.535c0.192,0.352,0.459,0.635,0.799,0.85
		c0.34,0.216,0.726,0.323,1.156,0.323c0.295,0,0.592-0.054,0.893-0.161c0.3-0.107,0.547-0.252,0.739-0.434L197.533,231.065z
		 M196.105,226.815c-0.137-0.249-0.34-0.434-0.612-0.553c-0.271-0.119-0.538-0.179-0.799-0.179c-0.306,0-0.595,0.06-0.867,0.179
		c-0.271,0.119-0.504,0.278-0.697,0.477c-0.192,0.198-0.346,0.425-0.459,0.68c-0.113,0.255-0.17,0.519-0.17,0.79v0.068
		c0.283-0.113,0.587-0.235,0.91-0.365c0.322-0.13,0.646-0.264,0.969-0.399c0.323-0.137,0.632-0.264,0.927-0.383
		C195.6,227.01,195.867,226.906,196.105,226.815z"/>
	<path fill="#FFF7DC" d="M202.819,228.294c0-0.567,0.094-1.083,0.281-1.548c0.187-0.464,0.447-0.863,0.781-1.198
		c0.335-0.334,0.726-0.595,1.174-0.782c0.447-0.187,0.938-0.28,1.47-0.28c0.363,0,0.681,0.04,0.952,0.119
		c0.272,0.079,0.505,0.176,0.697,0.289s0.349,0.235,0.468,0.365c0.119,0.131,0.212,0.241,0.28,0.332v-6.971h1.632v13.277h-1.632
		v-0.476c0-0.057,0.006-0.119,0.017-0.188c0.012-0.068,0.018-0.119,0.018-0.153c-0.103,0.103-0.228,0.213-0.374,0.332
		c-0.147,0.119-0.323,0.229-0.527,0.331c-0.204,0.103-0.434,0.185-0.688,0.247c-0.255,0.062-0.547,0.093-0.875,0.093
		c-0.578,0-1.097-0.099-1.556-0.297s-0.845-0.471-1.156-0.816s-0.55-0.748-0.714-1.207
		C202.903,229.304,202.819,228.815,202.819,228.294z M204.452,228.26c0,0.317,0.054,0.611,0.161,0.884
		c0.107,0.271,0.261,0.507,0.459,0.705c0.198,0.199,0.434,0.354,0.705,0.468c0.272,0.113,0.572,0.17,0.901,0.17
		s0.632-0.057,0.909-0.17c0.278-0.113,0.516-0.271,0.715-0.476c0.197-0.204,0.351-0.442,0.459-0.715
		c0.107-0.271,0.161-0.561,0.161-0.866c0-0.307-0.054-0.593-0.161-0.858c-0.108-0.267-0.262-0.496-0.459-0.688
		c-0.199-0.193-0.437-0.346-0.715-0.459c-0.277-0.113-0.58-0.171-0.909-0.171s-0.629,0.055-0.901,0.162
		c-0.271,0.107-0.507,0.261-0.705,0.459s-0.352,0.431-0.459,0.697C204.505,227.668,204.452,227.954,204.452,228.26z"/>
	<path fill="#FFF7DC" d="M219.428,232.068h-1.36l-0.204-2.006c-0.261,0.578-0.62,1.057-1.079,1.437
		c-0.459,0.38-1.062,0.569-1.811,0.569s-1.341-0.195-1.776-0.586c-0.437-0.392-0.666-0.91-0.688-1.556v-5.253h1.632v4.487
		c0.022,0.352,0.145,0.649,0.365,0.893c0.222,0.244,0.575,0.377,1.062,0.399c0.329,0,0.629-0.057,0.901-0.17
		c0.271-0.113,0.507-0.271,0.705-0.476c0.198-0.205,0.354-0.448,0.468-0.731c0.114-0.283,0.17-0.589,0.17-0.918v-3.484h1.615
		L219.428,232.068L219.428,232.068z"/>
	<path fill="#FFF7DC" d="M121.807,252.297v-12.393h3.383c0.612,0,1.168,0.059,1.666,0.178c0.499,0.119,0.924,0.307,1.275,0.562
		c0.351,0.255,0.62,0.589,0.808,1.003c0.187,0.414,0.28,0.909,0.28,1.487c0,0.317-0.031,0.626-0.094,0.927
		c-0.062,0.3-0.164,0.578-0.306,0.833c-0.142,0.255-0.326,0.479-0.553,0.671c-0.227,0.193-0.51,0.341-0.85,0.442
		c0.283,0.057,0.569,0.153,0.858,0.289c0.289,0.136,0.547,0.32,0.773,0.553c0.226,0.233,0.411,0.521,0.553,0.867
		s0.212,0.75,0.212,1.215c0,0.601-0.116,1.113-0.348,1.539c-0.232,0.425-0.539,0.773-0.918,1.045
		c-0.38,0.272-0.819,0.471-1.318,0.596c-0.498,0.124-1.014,0.187-1.547,0.187L121.807,252.297L121.807,252.297z M123.881,241.792
		v3.366h1.564c0.577,0,1.005-0.17,1.283-0.511c0.277-0.34,0.416-0.748,0.416-1.224c0-0.555-0.17-0.966-0.51-1.232
		s-0.799-0.399-1.377-0.399H123.881z M123.881,246.925v3.485h1.632c0.307,0,0.595-0.037,0.867-0.11
		c0.272-0.074,0.51-0.182,0.714-0.323s0.362-0.323,0.477-0.544c0.112-0.222,0.17-0.479,0.17-0.773c0-0.329-0.068-0.604-0.204-0.825
		c-0.136-0.221-0.317-0.399-0.544-0.535c-0.228-0.136-0.484-0.232-0.773-0.289s-0.587-0.085-0.893-0.085h-1.446V246.925z"/>
	<path fill="#FFF7DC" d="M130.937,248.676c0-0.521,0.1-1.012,0.298-1.471c0.198-0.459,0.473-0.858,0.824-1.198
		s0.762-0.609,1.232-0.808s0.972-0.297,1.505-0.297c0.544,0,1.048,0.099,1.513,0.297s0.864,0.468,1.198,0.808
		s0.598,0.739,0.791,1.198c0.192,0.459,0.289,0.949,0.289,1.471c0,0.522-0.094,1.015-0.281,1.479
		c-0.187,0.465-0.45,0.869-0.79,1.215c-0.34,0.346-0.742,0.618-1.207,0.816s-0.975,0.297-1.53,0.297
		c-0.532,0-1.031-0.091-1.496-0.271c-0.465-0.182-0.869-0.439-1.215-0.773c-0.346-0.334-0.621-0.736-0.825-1.207
		S130.937,249.244,130.937,248.676z M132.552,248.694c0,0.306,0.057,0.592,0.17,0.858c0.113,0.266,0.269,0.498,0.468,0.696
		c0.198,0.199,0.431,0.354,0.696,0.468c0.267,0.113,0.553,0.17,0.858,0.17c0.307,0,0.593-0.057,0.859-0.17
		c0.266-0.113,0.498-0.269,0.696-0.468c0.198-0.198,0.357-0.431,0.477-0.696c0.119-0.267,0.178-0.553,0.178-0.858
		c0-0.307-0.059-0.593-0.178-0.859s-0.278-0.498-0.477-0.696c-0.199-0.198-0.431-0.357-0.696-0.477
		c-0.267-0.119-0.553-0.179-0.859-0.179s-0.592,0.06-0.858,0.179c-0.266,0.119-0.498,0.278-0.696,0.477
		c-0.199,0.198-0.354,0.431-0.468,0.696C132.609,248.101,132.552,248.387,132.552,248.694z"/>
	<path fill="#FFF7DC" d="M147.002,252.467h-1.36l-0.204-2.006c-0.261,0.578-0.62,1.057-1.079,1.437
		c-0.459,0.38-1.062,0.569-1.811,0.569c-0.749,0-1.341-0.195-1.776-0.586c-0.437-0.392-0.666-0.91-0.688-1.556v-5.253h1.632v4.487
		c0.022,0.352,0.145,0.649,0.365,0.893c0.222,0.244,0.575,0.377,1.062,0.399c0.329,0,0.629-0.057,0.901-0.17
		c0.271-0.113,0.507-0.271,0.705-0.476c0.198-0.205,0.354-0.448,0.468-0.731c0.114-0.283,0.17-0.589,0.17-0.918v-3.484h1.615
		L147.002,252.467L147.002,252.467z"/>
	<path fill="#FFF7DC" d="M148.448,246.654v-1.599h1.24v-1.53c0-1.519,0.352-2.637,1.055-3.357c0.702-0.719,1.723-1.102,3.06-1.147
		v1.547c-0.884,0.058-1.519,0.341-1.904,0.851c-0.385,0.51-0.577,1.235-0.577,2.176v1.462h2.243v1.599h-2.243v5.644h-1.633v-5.644
		h-1.241V246.654z"/>
	<path fill="#FFF7DC" d="M154.21,246.654v-1.599h1.24v-1.53c0-1.519,0.352-2.637,1.055-3.357c0.702-0.719,1.723-1.102,3.06-1.147
		v1.547c-0.884,0.058-1.519,0.341-1.904,0.851c-0.385,0.51-0.577,1.235-0.577,2.176v1.462h2.243v1.599h-2.243v5.644h-1.633v-5.644
		h-1.241V246.654z"/>
	<path fill="#FFF7DC" d="M159.938,248.761c0-0.521,0.103-1.017,0.306-1.487c0.204-0.471,0.479-0.881,0.825-1.232
		c0.346-0.351,0.748-0.632,1.207-0.842c0.459-0.209,0.943-0.314,1.453-0.314c0.34,0,0.646,0.043,0.918,0.128
		c0.272,0.085,0.507,0.184,0.706,0.297c0.197,0.113,0.354,0.229,0.467,0.349s0.188,0.213,0.222,0.28l0.067-0.866h1.581v7.225h-1.648
		v-0.476c0-0.057,0.002-0.111,0.008-0.162c0.006-0.051,0.009-0.088,0.009-0.11c-0.046,0.057-0.125,0.139-0.238,0.246
		c-0.113,0.108-0.267,0.213-0.459,0.315c-0.192,0.102-0.422,0.189-0.688,0.263c-0.267,0.074-0.575,0.11-0.927,0.11
		c-0.555,0-1.065-0.102-1.529-0.306c-0.465-0.204-0.867-0.476-1.207-0.815c-0.34-0.341-0.604-0.734-0.791-1.182
		C160.032,249.733,159.938,249.26,159.938,248.761z M161.587,248.66c0,0.317,0.054,0.611,0.161,0.884
		c0.107,0.271,0.261,0.507,0.459,0.705c0.198,0.199,0.434,0.354,0.705,0.468c0.272,0.113,0.572,0.17,0.901,0.17
		s0.629-0.057,0.901-0.17c0.271-0.113,0.507-0.271,0.705-0.476c0.198-0.205,0.352-0.442,0.459-0.715
		c0.107-0.271,0.162-0.561,0.162-0.866c0-0.307-0.055-0.593-0.162-0.858c-0.107-0.267-0.261-0.496-0.459-0.688
		c-0.198-0.193-0.434-0.346-0.705-0.459c-0.272-0.113-0.572-0.171-0.901-0.171s-0.629,0.055-0.901,0.162
		c-0.271,0.107-0.507,0.261-0.705,0.459s-0.352,0.431-0.459,0.697C161.641,248.067,161.587,248.353,161.587,248.66z"/>
	<path fill="#FFF7DC" d="M171.77,255.765h-1.632c0.17-0.34,0.328-0.666,0.476-0.978c0.148-0.312,0.295-0.629,0.442-0.952
		c0.146-0.322,0.3-0.654,0.459-0.994c0.158-0.34,0.334-0.708,0.526-1.104c-0.261-0.511-0.529-1.049-0.808-1.615
		c-0.277-0.566-0.558-1.14-0.841-1.717c-0.283-0.578-0.564-1.15-0.842-1.718c-0.277-0.566-0.541-1.104-0.79-1.614h1.768
		c0.431,0.839,0.782,1.541,1.054,2.107c0.272,0.567,0.493,1.043,0.663,1.428c0.17,0.386,0.301,0.7,0.392,0.944
		c0.09,0.243,0.164,0.467,0.221,0.671c0.068-0.204,0.147-0.428,0.238-0.671c0.09-0.244,0.221-0.559,0.391-0.944
		c0.17-0.385,0.391-0.86,0.663-1.428c0.271-0.566,0.623-1.269,1.054-2.107h1.751L171.77,255.765z"/>
</g>
<g>
	<path fill="#BF7340" d="M174.966,135.945c0,13.255-10.745,24-24,24s-24-10.745-24-24
		C126.966,122.69,174.966,122.69,174.966,135.945z"/>
	<circle fill="#91562F" cx="134.633" cy="132.945" r="5.5"/>
	<circle fill="#54311E" cx="141.633" cy="127.945" r="5.5"/>
	<circle fill="#91562F" cx="149.633" cy="126.945" r="5.5"/>
	<circle fill="#91562F" cx="152.633" cy="132.945" r="5.5"/>
	<circle fill="#BC8561" cx="143.633" cy="133.945" r="5.5"/>
	<circle fill="#54311E" cx="158.633" cy="126.945" r="5.5"/>
	<circle fill="#91562F" cx="165.633" cy="129.945" r="5.5"/>
	<circle fill="#91562F" cx="169.633" cy="132.945" r="5.5"/>
	<circle fill="#BC8561" cx="161.633" cy="132.945" r="5.5"/>
	<path fill="#BF7340" d="M127.599,133.445c0,0,23.034,7.833,47.534-0.5c0,0,1.002,14-24.416,12
		C150.717,144.945,128.565,146.945,127.599,133.445z"/>
</g>
</svg>
