<?xml version="1.0" encoding="utf-8"?>
<!-- Generator: Adobe Illustrator 16.0.0, SVG Export Plug-In . SVG Version: 6.00 Build 0)  -->
<!DOCTYPE svg PUBLIC "-//W3C//DTD SVG 1.1//EN" "http://www.w3.org/Graphics/SVG/1.1/DTD/svg11.dtd">
<svg version="1.1" id="Calque_1" xmlns="http://www.w3.org/2000/svg" xmlns:xlink="http://www.w3.org/1999/xlink" x="0px" y="0px"
	 width="316.049px" height="314.816px" viewBox="0 0 316.049 314.816" enable-background="new 0 0 316.049 314.816"
	 xml:space="preserve">
<polygon fill="#1D2B40" points="894.057,98.42 903.827,88.608 911.563,100.091 923.013,92.306 928.435,105.045 941.151,99.567 
	944.065,113.102 957.587,110.131 957.886,123.974 971.728,123.613 969.401,137.263 983.062,139.528 978.194,152.49 991.177,157.302 
	983.944,169.107 995.784,176.289 986.448,186.516 996.714,195.805 985.61,204.08 993.932,215.145 981.466,221.167 987.542,233.605 
	974.161,237.162 977.774,250.527 963.962,251.484 964.979,265.294 951.235,263.621 949.62,277.373 936.442,273.126 932.253,286.326 
	920.116,279.664 913.507,291.83 902.849,282.992 894.057,293.688 885.267,282.992 874.608,291.83 867.999,279.664 855.862,286.326 
	851.673,273.126 838.495,277.373 836.88,263.621 823.136,265.294 824.153,251.484 810.341,250.527 813.954,237.162 800.573,233.605 
	806.649,221.167 794.182,215.145 802.505,204.08 791.401,195.805 801.667,186.516 792.331,176.289 804.171,169.107 796.938,157.302 
	809.921,152.49 805.054,139.528 818.714,137.263 816.388,123.613 830.229,123.974 830.528,110.131 844.05,113.102 846.964,99.567 
	859.681,105.045 865.103,92.306 876.552,100.091 884.29,88.608 "/>
<rect x="821.729" y="189.555" fill="none" width="144" height="68.998"/>
<text transform="matrix(1 0 0 1 832.7607 202.8301)" fill="#FFF7DC" font-family="'JosefinSans-Bold'" font-size="17">2000 canards en </text>
<text transform="matrix(1 0 0 1 837.7412 223.2285)" fill="#FFF7DC" font-family="'JosefinSans-Bold'" font-size="17">plastique jaunes </text>
<text transform="matrix(1 0 0 1 826.9043 243.6309)" fill="#FFF7DC" font-family="'JosefinSans-Bold'" font-size="17">lâchés dans l’Erdre.</text>
<g>
	<path fill="#E58C4A" d="M909.099,141.341c0.498,0.4,0.832,0.688,1.188,0.95c6.02,4.437,8.35,12.101,5.674,19.018
		c-1.797,4.646-5.435,7.274-10.096,8.53c-4.447,1.199-9.027,1.056-13.571,0.888c-2.52-0.093-5.059-0.392-7.533-0.877
		c-6.234-1.228-10.311-5.05-12.543-10.929c-1.214-3.196-2.215-6.457-2.628-9.858c-0.146-1.213-0.169-2.482,0.012-3.687
		c0.417-2.764,2.438-4.3,5.201-3.902c1.853,0.266,3.708,0.687,5.479,1.29c3.036,1.036,6.01,0.776,9.012-0.003
		c0.211-0.055,0.404-0.181,0.732-0.332c-0.271-0.39-0.473-0.746-0.733-1.049c-6.276-7.244-2.787-18.064,6.535-20.255
		c5.197-1.222,10.943,1.481,13.482,6.342c0.968,1.849,1.461,2.118,3.551,1.961c0.646-0.049,1.303-0.16,1.938-0.095
		c2.533,0.258,3.744,2.002,2.952,4.444c-0.329,1.016-0.96,1.991-1.651,2.82c-1.505,1.803-3.545,2.923-5.602,3.988
		C910.096,140.792,909.704,141.013,909.099,141.341z"/>
	<path fill="none" stroke="#1D2B40" stroke-miterlimit="10" d="M895.836,132.377c0,0,5.623,1.757,7.028-1.757"/>
</g>
<g>
	<polygon fill="#1D2B40" points="148.505,81.273 158.274,71.461 166.011,82.944 177.46,75.158 182.882,87.898 195.599,82.42 
		198.513,95.955 212.035,92.984 212.333,106.826 226.175,106.466 223.849,120.115 237.509,122.381 232.642,135.343 245.624,140.154 
		238.392,151.961 250.231,159.141 240.896,169.367 251.161,178.656 240.058,186.932 248.38,197.998 235.913,204.02 241.99,216.459 
		228.608,220.016 232.222,233.381 218.41,234.338 219.427,248.146 205.683,246.475 204.067,260.227 190.89,255.98 186.701,269.178 
		174.563,262.516 167.954,274.682 157.296,265.844 148.505,276.539 139.714,265.844 129.056,274.682 122.447,262.516 
		110.31,269.178 106.12,255.98 92.943,260.227 91.328,246.475 77.583,248.146 78.601,234.338 64.788,233.381 68.402,220.016 
		55.021,216.459 61.097,204.02 48.63,197.998 56.953,186.932 45.849,178.656 56.115,169.367 46.779,159.141 58.618,151.961 
		51.386,140.154 64.369,135.343 59.501,122.381 73.161,120.115 70.835,106.466 84.677,106.826 84.976,92.984 98.497,95.955 
		101.411,82.42 114.128,87.898 119.55,75.158 130.999,82.944 138.738,71.461 	"/>
	<rect x="76.505" y="156.674" fill="none" width="144" height="130.16"/>
	<g enable-background="new    ">
		<path fill="#FFF7DC" d="M82.979,167.094c0.521-0.68,1.068-1.377,1.641-2.09c0.572-0.715,1.147-1.434,1.726-2.16
			c0.578-0.725,1.153-1.443,1.726-2.158c0.572-0.713,1.119-1.41,1.641-2.092v6.818h1.683v1.682h-1.683v2.857H87.96v-2.857H82.979z
			 M87.96,163.32c-0.091,0.113-0.209,0.264-0.357,0.451s-0.297,0.383-0.45,0.586c-0.153,0.205-0.304,0.402-0.451,0.596
			c-0.147,0.193-0.261,0.346-0.34,0.459h1.598V163.32z"/>
		<path fill="#FFF7DC" d="M92.755,164.289c0-0.951,0.125-1.785,0.374-2.498c0.25-0.715,0.587-1.309,1.012-1.785
			s0.918-0.83,1.479-1.063s1.153-0.35,1.776-0.35c0.68,0,1.303,0.135,1.87,0.4c0.566,0.266,1.054,0.648,1.462,1.148
			c0.408,0.498,0.725,1.104,0.952,1.818c0.227,0.713,0.334,1.52,0.323,2.414c-0.011,0.906-0.136,1.717-0.374,2.432
			c-0.238,0.713-0.563,1.314-0.977,1.801c-0.414,0.488-0.904,0.859-1.471,1.113c-0.567,0.256-1.179,0.383-1.836,0.383
			c-0.635,0-1.232-0.127-1.793-0.383c-0.561-0.254-1.048-0.625-1.462-1.113c-0.414-0.486-0.74-1.094-0.978-1.818
			C92.874,166.064,92.755,165.23,92.755,164.289z M94.506,164.34c0,0.545,0.07,1.061,0.212,1.547
			c0.142,0.488,0.34,0.916,0.595,1.285c0.255,0.367,0.558,0.662,0.91,0.883c0.351,0.221,0.725,0.332,1.122,0.332
			c0.396,0,0.771-0.107,1.122-0.322c0.351-0.217,0.657-0.508,0.918-0.877c0.26-0.367,0.467-0.799,0.621-1.291
			c0.153-0.494,0.229-1.012,0.229-1.557c0-0.361-0.042-0.777-0.128-1.248c-0.085-0.471-0.232-0.912-0.442-1.326
			c-0.21-0.414-0.499-0.766-0.867-1.055c-0.369-0.289-0.831-0.434-1.386-0.434c-0.589,0-1.071,0.154-1.445,0.459
			c-0.374,0.307-0.669,0.672-0.884,1.098c-0.215,0.424-0.365,0.869-0.45,1.334S94.506,164.023,94.506,164.34z"/>
		<path fill="#FFF7DC" d="M103.566,164.289c0-0.951,0.125-1.785,0.374-2.498c0.25-0.715,0.587-1.309,1.012-1.785
			s0.918-0.83,1.479-1.063s1.153-0.35,1.776-0.35c0.68,0,1.303,0.135,1.87,0.4c0.566,0.266,1.054,0.648,1.462,1.148
			c0.408,0.498,0.725,1.104,0.952,1.818c0.227,0.713,0.334,1.52,0.323,2.414c-0.011,0.906-0.136,1.717-0.374,2.432
			c-0.238,0.713-0.563,1.314-0.977,1.801c-0.414,0.488-0.904,0.859-1.471,1.113c-0.567,0.256-1.179,0.383-1.836,0.383
			c-0.635,0-1.232-0.127-1.793-0.383c-0.561-0.254-1.048-0.625-1.462-1.113c-0.414-0.486-0.74-1.094-0.978-1.818
			C103.685,166.064,103.566,165.23,103.566,164.289z M105.317,164.34c0,0.545,0.07,1.061,0.212,1.547
			c0.142,0.488,0.34,0.916,0.595,1.285c0.255,0.367,0.558,0.662,0.91,0.883c0.351,0.221,0.725,0.332,1.122,0.332
			c0.396,0,0.771-0.107,1.122-0.322c0.351-0.217,0.657-0.508,0.918-0.877c0.26-0.367,0.467-0.799,0.621-1.291
			c0.153-0.494,0.229-1.012,0.229-1.557c0-0.361-0.042-0.777-0.128-1.248c-0.085-0.471-0.232-0.912-0.442-1.326
			c-0.21-0.414-0.499-0.766-0.867-1.055c-0.369-0.289-0.831-0.434-1.386-0.434c-0.589,0-1.071,0.154-1.445,0.459
			c-0.374,0.307-0.669,0.672-0.884,1.098c-0.215,0.424-0.365,0.869-0.45,1.334S105.317,164.023,105.317,164.34z"/>
		<path fill="#FFF7DC" d="M119.801,162.557l0.969,0.951c-0.431,0.396-0.841,0.785-1.232,1.164c-0.391,0.381-0.802,0.768-1.232,1.164
			c0.51,0.682,1.009,1.367,1.496,2.059s0.986,1.377,1.496,2.057h-1.87c-0.374-0.51-0.754-1.018-1.139-1.521
			s-0.759-1.012-1.122-1.521l-0.935,0.85v2.193h-1.632v-13.278h1.632v9.198c0.612-0.578,1.207-1.131,1.785-1.658
			S119.189,163.133,119.801,162.557z"/>
		<path fill="#FFF7DC" d="M121.637,166.381c0-0.545,0.096-1.051,0.289-1.521c0.192-0.471,0.456-0.879,0.791-1.225
			c0.334-0.346,0.725-0.613,1.173-0.807s0.927-0.289,1.437-0.289c0.385,0,0.725,0.051,1.02,0.152
			c0.294,0.102,0.541,0.215,0.739,0.34s0.352,0.244,0.459,0.357c0.108,0.113,0.173,0.182,0.196,0.203
			c0-0.123,0.011-0.26,0.034-0.406c0.022-0.148,0.034-0.301,0.034-0.459h1.564v6.85c0,0.613-0.096,1.158-0.289,1.641
			s-0.462,0.885-0.807,1.207c-0.346,0.324-0.76,0.57-1.241,0.74c-0.482,0.17-1.012,0.254-1.589,0.254
			c-0.442,0-0.831-0.045-1.165-0.135c-0.334-0.092-0.635-0.211-0.901-0.357c-0.267-0.148-0.51-0.313-0.731-0.492
			c-0.221-0.182-0.433-0.363-0.637-0.545l1.054-1.105c0.317,0.295,0.657,0.547,1.02,0.758c0.363,0.209,0.805,0.314,1.326,0.314
			c0.703,0,1.264-0.17,1.683-0.512c0.419-0.34,0.629-0.82,0.629-1.443c0-0.057,0-0.123,0-0.195c0-0.074,0.005-0.15,0.017-0.23
			c0-0.102,0.011-0.193,0.034-0.271c0.022-0.08,0.034-0.148,0.034-0.205c-0.102,0.113-0.224,0.238-0.365,0.375
			c-0.142,0.135-0.312,0.26-0.51,0.373s-0.428,0.207-0.688,0.281s-0.561,0.109-0.901,0.109c-0.544,0-1.043-0.096-1.496-0.287
			c-0.454-0.193-0.844-0.459-1.173-0.801c-0.329-0.34-0.584-0.736-0.765-1.189C121.728,167.406,121.637,166.914,121.637,166.381z
			 M123.269,166.313c0,0.318,0.054,0.611,0.162,0.885c0.107,0.271,0.261,0.506,0.459,0.705s0.434,0.354,0.706,0.467
			s0.572,0.17,0.901,0.17s0.632-0.057,0.91-0.17c0.277-0.113,0.516-0.271,0.714-0.475c0.198-0.205,0.351-0.443,0.459-0.715
			c0.107-0.271,0.162-0.561,0.162-0.867s-0.054-0.592-0.162-0.857c-0.108-0.268-0.261-0.496-0.459-0.689s-0.437-0.346-0.714-0.459
			c-0.278-0.113-0.581-0.17-0.91-0.17s-0.629,0.055-0.901,0.162s-0.507,0.26-0.706,0.459c-0.198,0.197-0.352,0.43-0.459,0.697
			C123.323,165.721,123.269,166.006,123.269,166.313z"/>
		<path fill="#FFF7DC" d="M134.812,166.348c0-0.568,0.093-1.084,0.28-1.549c0.187-0.463,0.448-0.863,0.782-1.197
			c0.334-0.334,0.725-0.596,1.173-0.783c0.448-0.186,0.938-0.279,1.471-0.279c0.362,0,0.68,0.039,0.952,0.119
			c0.272,0.078,0.504,0.176,0.697,0.289c0.192,0.113,0.349,0.234,0.467,0.365c0.119,0.131,0.213,0.24,0.281,0.332v-6.971h1.632
			v13.278h-1.632v-0.477c0-0.057,0.005-0.119,0.017-0.188c0.011-0.068,0.017-0.119,0.017-0.152
			c-0.102,0.102-0.227,0.213-0.374,0.332c-0.147,0.119-0.323,0.229-0.527,0.33c-0.204,0.104-0.434,0.186-0.688,0.248
			c-0.255,0.061-0.547,0.092-0.875,0.092c-0.578,0-1.096-0.098-1.555-0.297c-0.459-0.197-0.845-0.471-1.156-0.816
			c-0.312-0.346-0.55-0.748-0.714-1.207C134.894,167.357,134.812,166.867,134.812,166.348z M136.444,166.313
			c0,0.318,0.054,0.611,0.162,0.885c0.107,0.271,0.261,0.506,0.459,0.705s0.434,0.354,0.706,0.467s0.572,0.17,0.901,0.17
			s0.632-0.057,0.91-0.17c0.277-0.113,0.516-0.271,0.714-0.475c0.198-0.205,0.351-0.443,0.459-0.715
			c0.107-0.271,0.162-0.561,0.162-0.867s-0.054-0.592-0.162-0.857c-0.108-0.268-0.261-0.496-0.459-0.689s-0.437-0.346-0.714-0.459
			c-0.278-0.113-0.581-0.17-0.91-0.17s-0.629,0.055-0.901,0.162s-0.507,0.26-0.706,0.459c-0.198,0.197-0.352,0.43-0.459,0.697
			C136.498,165.721,136.444,166.006,136.444,166.313z"/>
		<path fill="#FFF7DC" d="M150.758,169.117c-0.352,0.318-0.776,0.566-1.275,0.748c-0.499,0.182-1.009,0.271-1.53,0.271
			c-0.533,0-1.034-0.098-1.504-0.297c-0.47-0.197-0.878-0.471-1.224-0.816s-0.62-0.748-0.824-1.207s-0.306-0.949-0.306-1.469
			c0-0.521,0.102-1.012,0.306-1.471s0.479-0.861,0.824-1.207s0.748-0.619,1.207-0.816c0.459-0.199,0.944-0.297,1.454-0.297
			c0.816,0,1.533,0.246,2.15,0.738c0.618,0.494,1.057,1.143,1.318,1.947c-0.34,0.125-0.734,0.275-1.182,0.449
			c-0.448,0.176-0.916,0.361-1.402,0.553c-0.488,0.193-0.975,0.389-1.462,0.588c-0.487,0.197-0.935,0.377-1.343,0.535
			c0.192,0.352,0.459,0.635,0.799,0.85c0.34,0.215,0.725,0.322,1.156,0.322c0.294,0,0.592-0.053,0.893-0.16
			c0.3-0.107,0.546-0.252,0.739-0.434L150.758,169.117z M149.33,164.867c-0.136-0.248-0.34-0.434-0.612-0.553
			s-0.539-0.178-0.799-0.178c-0.306,0-0.595,0.059-0.867,0.178s-0.504,0.279-0.697,0.477c-0.193,0.199-0.346,0.426-0.459,0.68
			c-0.114,0.256-0.17,0.52-0.17,0.791v0.068c0.283-0.113,0.587-0.236,0.91-0.365c0.323-0.131,0.646-0.264,0.969-0.4
			c0.323-0.137,0.631-0.264,0.926-0.383C148.825,165.063,149.092,164.959,149.33,164.867z"/>
		<path fill="#FFF7DC" d="M156.912,169.951v-12.393h3.383c0.612,0,1.167,0.059,1.666,0.178s0.923,0.307,1.274,0.561
			c0.352,0.256,0.621,0.59,0.809,1.004c0.187,0.414,0.279,0.908,0.279,1.486c0,0.318-0.031,0.627-0.093,0.928
			c-0.063,0.299-0.165,0.578-0.306,0.832c-0.143,0.256-0.326,0.479-0.553,0.672s-0.51,0.34-0.85,0.441
			c0.283,0.057,0.568,0.154,0.857,0.289c0.289,0.137,0.547,0.32,0.773,0.553s0.411,0.521,0.553,0.867
			c0.143,0.346,0.213,0.75,0.213,1.215c0,0.602-0.116,1.113-0.349,1.539s-0.538,0.773-0.918,1.045
			c-0.38,0.273-0.819,0.471-1.317,0.596c-0.499,0.125-1.015,0.188-1.547,0.188H156.912z M158.985,159.445v3.365h1.564
			c0.578,0,1.006-0.17,1.283-0.51s0.417-0.748,0.417-1.225c0-0.555-0.17-0.965-0.511-1.232c-0.34-0.266-0.799-0.398-1.377-0.398
			H158.985z M158.985,164.578v3.486h1.633c0.306,0,0.595-0.037,0.867-0.111c0.271-0.074,0.51-0.182,0.713-0.322
			c0.205-0.143,0.363-0.324,0.477-0.545s0.17-0.479,0.17-0.773c0-0.328-0.068-0.604-0.203-0.824c-0.137-0.221-0.318-0.4-0.545-0.535
			c-0.227-0.137-0.484-0.232-0.773-0.289s-0.586-0.086-0.893-0.086H158.985z"/>
		<path fill="#FFF7DC" d="M166.04,166.33c0-0.521,0.1-1.012,0.298-1.471s0.474-0.859,0.825-1.199
			c0.351-0.34,0.762-0.609,1.232-0.807c0.47-0.199,0.971-0.297,1.504-0.297c0.544,0,1.049,0.098,1.514,0.297
			c0.464,0.197,0.863,0.467,1.197,0.807c0.335,0.34,0.598,0.74,0.791,1.199s0.289,0.949,0.289,1.471s-0.094,1.014-0.28,1.479
			s-0.45,0.869-0.79,1.215s-0.743,0.619-1.207,0.816c-0.465,0.199-0.976,0.297-1.53,0.297c-0.533,0-1.032-0.09-1.496-0.271
			c-0.465-0.182-0.87-0.439-1.216-0.773s-0.62-0.736-0.824-1.207S166.04,166.896,166.04,166.33z M167.655,166.348
			c0,0.305,0.057,0.592,0.17,0.857s0.27,0.498,0.468,0.697s0.431,0.354,0.697,0.467s0.552,0.17,0.858,0.17s0.592-0.057,0.858-0.17
			s0.499-0.268,0.697-0.467s0.356-0.432,0.476-0.697s0.179-0.553,0.179-0.857c0-0.307-0.06-0.594-0.179-0.859
			s-0.277-0.498-0.476-0.697c-0.198-0.197-0.431-0.357-0.697-0.477s-0.552-0.178-0.858-0.178s-0.592,0.059-0.858,0.178
			s-0.499,0.279-0.697,0.477c-0.198,0.199-0.354,0.432-0.468,0.697S167.655,166.041,167.655,166.348z"/>
		<path fill="#FFF7DC" d="M182.105,170.121h-1.36l-0.203-2.006c-0.262,0.578-0.621,1.057-1.08,1.436
			c-0.459,0.381-1.063,0.57-1.811,0.57s-1.34-0.195-1.776-0.586c-0.437-0.393-0.666-0.91-0.688-1.557v-5.252h1.632v4.486
			c0.022,0.352,0.145,0.65,0.366,0.893c0.221,0.244,0.574,0.377,1.063,0.4c0.328,0,0.629-0.057,0.9-0.17s0.507-0.271,0.705-0.477
			c0.199-0.203,0.354-0.447,0.468-0.73s0.17-0.59,0.17-0.918v-3.484h1.615V170.121z"/>
		<path fill="#FFF7DC" d="M185.727,169.951h-1.615v-13.278h1.615V169.951z"/>
		<path fill="#FFF7DC" d="M193.938,169.117c-0.352,0.318-0.776,0.566-1.274,0.748c-0.5,0.182-1.01,0.271-1.531,0.271
			c-0.532,0-1.033-0.098-1.504-0.297c-0.471-0.197-0.879-0.471-1.225-0.816s-0.619-0.748-0.824-1.207
			c-0.203-0.459-0.306-0.949-0.306-1.469c0-0.521,0.103-1.012,0.306-1.471c0.205-0.459,0.479-0.861,0.824-1.207
			s0.748-0.619,1.207-0.816c0.459-0.199,0.944-0.297,1.454-0.297c0.815,0,1.532,0.246,2.15,0.738
			c0.618,0.494,1.057,1.143,1.317,1.947c-0.34,0.125-0.734,0.275-1.182,0.449c-0.447,0.176-0.915,0.361-1.402,0.553
			c-0.487,0.193-0.975,0.389-1.462,0.588c-0.487,0.197-0.935,0.377-1.343,0.535c0.192,0.352,0.459,0.635,0.799,0.85
			s0.725,0.322,1.156,0.322c0.295,0,0.592-0.053,0.893-0.16c0.3-0.107,0.547-0.252,0.739-0.434L193.938,169.117z M192.509,164.867
			c-0.135-0.248-0.34-0.434-0.611-0.553s-0.539-0.178-0.799-0.178c-0.307,0-0.596,0.059-0.867,0.178s-0.504,0.279-0.697,0.477
			c-0.192,0.199-0.346,0.426-0.459,0.68c-0.113,0.256-0.17,0.52-0.17,0.791v0.068c0.283-0.113,0.587-0.236,0.91-0.365
			c0.322-0.131,0.646-0.264,0.969-0.4c0.322-0.137,0.631-0.264,0.926-0.383S192.271,164.959,192.509,164.867z"/>
		<path fill="#FFF7DC" d="M196.453,159.564h1.614v3.162h1.888v1.461h-1.888v5.764h-1.614v-5.764h-1.224v-1.461h1.224V159.564z"/>
		<path fill="#FFF7DC" d="M201.825,159.564h1.615v3.162h1.887v1.461h-1.887v5.764h-1.615v-5.764h-1.225v-1.461h1.225V159.564z"/>
		<path fill="#FFF7DC" d="M212.603,169.117c-0.352,0.318-0.775,0.566-1.274,0.748s-1.009,0.271-1.53,0.271
			c-0.533,0-1.034-0.098-1.504-0.297c-0.471-0.197-0.879-0.471-1.225-0.816s-0.62-0.748-0.824-1.207s-0.307-0.949-0.307-1.469
			c0-0.521,0.103-1.012,0.307-1.471s0.479-0.861,0.824-1.207s0.748-0.619,1.207-0.816c0.459-0.199,0.943-0.297,1.453-0.297
			c0.816,0,1.533,0.246,2.15,0.738c0.618,0.494,1.057,1.143,1.318,1.947c-0.34,0.125-0.734,0.275-1.182,0.449
			c-0.447,0.176-0.916,0.361-1.402,0.553c-0.488,0.193-0.975,0.389-1.463,0.588c-0.486,0.197-0.935,0.377-1.342,0.535
			c0.191,0.352,0.459,0.635,0.799,0.85s0.725,0.322,1.156,0.322c0.294,0,0.592-0.053,0.893-0.16
			c0.299-0.107,0.546-0.252,0.738-0.434L212.603,169.117z M211.175,164.867c-0.136-0.248-0.34-0.434-0.611-0.553
			c-0.272-0.119-0.539-0.178-0.799-0.178c-0.307,0-0.596,0.059-0.867,0.178c-0.272,0.119-0.505,0.279-0.697,0.477
			c-0.193,0.199-0.346,0.426-0.459,0.68c-0.113,0.256-0.17,0.52-0.17,0.791v0.068c0.283-0.113,0.586-0.236,0.909-0.365
			c0.323-0.131,0.646-0.264,0.97-0.4c0.322-0.137,0.631-0.264,0.926-0.383S210.937,164.959,211.175,164.867z"/>
	</g>
	<g enable-background="new    ">
		<path fill="#FFF7DC" d="M85.113,186.748c0-0.568,0.093-1.084,0.28-1.549c0.187-0.463,0.448-0.863,0.782-1.197
			c0.334-0.334,0.725-0.596,1.173-0.783c0.448-0.186,0.938-0.279,1.471-0.279c0.362,0,0.68,0.039,0.952,0.119
			c0.272,0.078,0.504,0.176,0.697,0.289c0.192,0.113,0.349,0.234,0.467,0.365c0.119,0.131,0.213,0.24,0.281,0.332v-6.971h1.632
			v13.277h-1.632v-0.477c0-0.057,0.005-0.119,0.017-0.188c0.011-0.068,0.017-0.119,0.017-0.152
			c-0.102,0.102-0.227,0.213-0.374,0.332c-0.147,0.119-0.323,0.229-0.527,0.33c-0.204,0.104-0.434,0.186-0.688,0.248
			c-0.255,0.061-0.547,0.092-0.875,0.092c-0.578,0-1.096-0.098-1.555-0.297c-0.459-0.197-0.845-0.471-1.156-0.816
			c-0.312-0.346-0.55-0.748-0.714-1.207C85.195,187.758,85.113,187.268,85.113,186.748z M86.745,186.713
			c0,0.318,0.054,0.611,0.162,0.885c0.107,0.271,0.261,0.506,0.459,0.705s0.434,0.354,0.706,0.467s0.572,0.17,0.901,0.17
			s0.632-0.057,0.91-0.17c0.277-0.113,0.516-0.271,0.714-0.475c0.198-0.205,0.351-0.443,0.459-0.715
			c0.107-0.271,0.162-0.561,0.162-0.867s-0.054-0.592-0.162-0.857c-0.108-0.268-0.261-0.496-0.459-0.689s-0.437-0.346-0.714-0.459
			c-0.278-0.113-0.581-0.17-0.91-0.17s-0.629,0.055-0.901,0.162s-0.507,0.26-0.706,0.459c-0.198,0.197-0.352,0.43-0.459,0.697
			C86.798,186.121,86.745,186.406,86.745,186.713z"/>
		<path fill="#FFF7DC" d="M101.722,190.521h-1.36l-0.204-2.006c-0.261,0.578-0.621,1.057-1.08,1.436
			c-0.459,0.381-1.063,0.57-1.811,0.57s-1.34-0.195-1.776-0.586c-0.437-0.393-0.666-0.91-0.688-1.557v-5.252h1.632v4.486
			c0.022,0.352,0.145,0.65,0.366,0.893c0.221,0.244,0.575,0.377,1.063,0.4c0.329,0,0.629-0.057,0.901-0.17s0.507-0.271,0.706-0.477
			c0.198-0.203,0.354-0.447,0.467-0.73s0.17-0.59,0.17-0.918v-3.484h1.615V190.521z"/>
		<path fill="#FFF7DC" d="M110.086,190.775c-0.68-1.279-1.326-2.553-1.938-3.816c-0.612-1.264-1.241-2.541-1.887-3.832h1.768
			c0.431,0.838,0.768,1.512,1.012,2.021c0.244,0.51,0.433,0.924,0.569,1.242c0.136,0.316,0.235,0.568,0.297,0.756
			s0.122,0.383,0.179,0.586c0.068-0.203,0.133-0.398,0.195-0.586s0.162-0.439,0.298-0.756c0.136-0.318,0.325-0.732,0.569-1.242
			c0.244-0.51,0.581-1.184,1.011-2.021h1.751c-0.646,1.291-1.281,2.568-1.904,3.832
			C111.383,188.223,110.743,189.496,110.086,190.775z"/>
		<path fill="#FFF7DC" d="M114.233,186.73c0-0.521,0.099-1.012,0.297-1.471s0.473-0.859,0.825-1.199
			c0.351-0.34,0.762-0.609,1.232-0.807c0.47-0.199,0.972-0.297,1.504-0.297c0.544,0,1.048,0.098,1.513,0.297
			c0.464,0.197,0.864,0.467,1.198,0.807c0.334,0.34,0.598,0.74,0.791,1.199s0.289,0.949,0.289,1.471s-0.093,1.014-0.28,1.479
			s-0.451,0.869-0.791,1.215s-0.743,0.619-1.207,0.816c-0.465,0.199-0.975,0.297-1.53,0.297c-0.533,0-1.032-0.09-1.496-0.271
			c-0.465-0.182-0.87-0.439-1.216-0.773s-0.62-0.736-0.824-1.207S114.233,187.297,114.233,186.73z M115.849,186.748
			c0,0.305,0.057,0.592,0.17,0.857s0.269,0.498,0.467,0.697s0.431,0.354,0.697,0.467c0.266,0.113,0.552,0.17,0.858,0.17
			s0.592-0.057,0.858-0.17c0.266-0.113,0.499-0.268,0.697-0.467c0.198-0.199,0.357-0.432,0.476-0.697
			c0.119-0.266,0.179-0.553,0.179-0.857c0-0.307-0.06-0.594-0.179-0.859c-0.119-0.266-0.278-0.498-0.476-0.697
			c-0.199-0.197-0.431-0.357-0.697-0.477c-0.267-0.119-0.552-0.178-0.858-0.178s-0.592,0.059-0.858,0.178
			c-0.267,0.119-0.499,0.279-0.697,0.477c-0.198,0.199-0.354,0.432-0.467,0.697S115.849,186.441,115.849,186.748z"/>
		<path fill="#FFF7DC" d="M125.267,193.818h-1.632c0.17-0.34,0.329-0.666,0.476-0.977c0.147-0.313,0.295-0.629,0.442-0.953
			c0.147-0.322,0.3-0.654,0.459-0.994s0.334-0.707,0.527-1.104c-0.261-0.512-0.53-1.049-0.808-1.615
			c-0.278-0.566-0.558-1.141-0.841-1.717c-0.284-0.578-0.564-1.15-0.842-1.719c-0.278-0.566-0.541-1.104-0.791-1.613h1.768
			c0.431,0.838,0.782,1.541,1.054,2.107s0.493,1.043,0.663,1.428c0.17,0.385,0.3,0.699,0.391,0.943s0.165,0.467,0.221,0.672
			c0.068-0.205,0.147-0.428,0.238-0.672s0.221-0.559,0.391-0.943s0.391-0.861,0.663-1.428s0.623-1.27,1.054-2.107h1.751
			L125.267,193.818z"/>
		<path fill="#FFF7DC" d="M130.809,186.814c0-0.521,0.102-1.016,0.306-1.486s0.479-0.881,0.824-1.232s0.748-0.633,1.207-0.842
			s0.944-0.314,1.454-0.314c0.34,0,0.646,0.043,0.918,0.127c0.272,0.086,0.507,0.184,0.706,0.297s0.354,0.23,0.467,0.35
			s0.187,0.213,0.221,0.279l0.068-0.865h1.581v7.225h-1.649v-0.477c0-0.057,0.002-0.111,0.008-0.162s0.009-0.088,0.009-0.109
			c-0.045,0.057-0.125,0.139-0.238,0.246s-0.266,0.213-0.459,0.314s-0.422,0.189-0.688,0.264s-0.575,0.109-0.926,0.109
			c-0.556,0-1.065-0.102-1.53-0.305c-0.465-0.205-0.867-0.477-1.207-0.816c-0.34-0.34-0.604-0.734-0.791-1.182
			S130.809,187.314,130.809,186.814z M132.458,186.713c0,0.318,0.054,0.611,0.162,0.885c0.107,0.271,0.261,0.506,0.459,0.705
			s0.434,0.354,0.706,0.467s0.572,0.17,0.901,0.17s0.629-0.057,0.901-0.17s0.507-0.271,0.706-0.475
			c0.198-0.205,0.351-0.443,0.459-0.715s0.162-0.561,0.162-0.867s-0.054-0.592-0.162-0.857c-0.108-0.268-0.261-0.496-0.459-0.689
			s-0.434-0.346-0.706-0.459s-0.572-0.17-0.901-0.17s-0.629,0.055-0.901,0.162s-0.507,0.26-0.706,0.459
			c-0.198,0.197-0.352,0.43-0.459,0.697C132.511,186.121,132.458,186.406,132.458,186.713z"/>
		<path fill="#FFF7DC" d="M140.125,186.781c0-0.545,0.096-1.051,0.289-1.521c0.192-0.471,0.456-0.879,0.791-1.225
			c0.334-0.346,0.725-0.613,1.173-0.807s0.927-0.289,1.437-0.289c0.385,0,0.725,0.051,1.02,0.152
			c0.294,0.102,0.541,0.215,0.739,0.34s0.352,0.244,0.459,0.357c0.108,0.113,0.173,0.182,0.196,0.203
			c0-0.123,0.011-0.26,0.034-0.406c0.022-0.148,0.034-0.301,0.034-0.459h1.564v6.85c0,0.613-0.096,1.158-0.289,1.641
			s-0.462,0.885-0.807,1.207c-0.346,0.324-0.76,0.57-1.241,0.74c-0.482,0.17-1.012,0.254-1.589,0.254
			c-0.442,0-0.831-0.045-1.165-0.135c-0.334-0.092-0.635-0.211-0.901-0.357c-0.267-0.148-0.51-0.313-0.731-0.492
			c-0.221-0.182-0.433-0.363-0.637-0.545l1.054-1.105c0.317,0.295,0.657,0.547,1.02,0.758c0.363,0.209,0.805,0.314,1.326,0.314
			c0.703,0,1.264-0.17,1.683-0.512c0.419-0.34,0.629-0.82,0.629-1.443c0-0.057,0-0.123,0-0.195c0-0.074,0.005-0.15,0.017-0.23
			c0-0.102,0.011-0.193,0.034-0.271c0.022-0.08,0.034-0.148,0.034-0.205c-0.102,0.113-0.224,0.238-0.365,0.375
			c-0.142,0.135-0.312,0.26-0.51,0.373s-0.428,0.207-0.688,0.281s-0.561,0.109-0.901,0.109c-0.544,0-1.043-0.096-1.496-0.287
			c-0.454-0.193-0.844-0.459-1.173-0.801c-0.329-0.34-0.584-0.736-0.765-1.189C140.215,187.807,140.125,187.314,140.125,186.781z
			 M141.756,186.713c0,0.318,0.054,0.611,0.162,0.885c0.107,0.271,0.261,0.506,0.459,0.705s0.434,0.354,0.706,0.467
			s0.572,0.17,0.901,0.17s0.632-0.057,0.91-0.17c0.277-0.113,0.516-0.271,0.714-0.475c0.198-0.205,0.351-0.443,0.459-0.715
			c0.107-0.271,0.162-0.561,0.162-0.867s-0.054-0.592-0.162-0.857c-0.108-0.268-0.261-0.496-0.459-0.689s-0.437-0.346-0.714-0.459
			c-0.278-0.113-0.581-0.17-0.91-0.17s-0.629,0.055-0.901,0.162s-0.507,0.26-0.706,0.459c-0.198,0.197-0.352,0.43-0.459,0.697
			C141.81,186.121,141.756,186.406,141.756,186.713z"/>
		<path fill="#FFF7DC" d="M156.07,189.518c-0.352,0.318-0.776,0.566-1.275,0.748c-0.499,0.182-1.009,0.271-1.53,0.271
			c-0.533,0-1.034-0.098-1.504-0.297c-0.47-0.197-0.878-0.471-1.224-0.816s-0.62-0.748-0.824-1.207s-0.306-0.949-0.306-1.469
			c0-0.521,0.102-1.012,0.306-1.471s0.479-0.861,0.824-1.207s0.748-0.619,1.207-0.816c0.459-0.199,0.944-0.297,1.454-0.297
			c0.816,0,1.533,0.246,2.15,0.738c0.618,0.494,1.057,1.143,1.318,1.947c-0.34,0.125-0.734,0.275-1.182,0.449
			c-0.448,0.176-0.916,0.361-1.402,0.553c-0.488,0.193-0.975,0.389-1.462,0.588c-0.487,0.197-0.935,0.377-1.343,0.535
			c0.192,0.352,0.459,0.635,0.799,0.85c0.34,0.215,0.725,0.322,1.156,0.322c0.294,0,0.592-0.053,0.893-0.16
			c0.3-0.107,0.546-0.252,0.739-0.434L156.07,189.518z M154.642,185.268c-0.136-0.248-0.34-0.434-0.612-0.553
			s-0.539-0.178-0.799-0.178c-0.306,0-0.595,0.059-0.867,0.178s-0.504,0.279-0.697,0.477c-0.193,0.199-0.346,0.426-0.459,0.68
			c-0.114,0.256-0.17,0.52-0.17,0.791v0.068c0.283-0.113,0.587-0.236,0.91-0.365c0.323-0.131,0.646-0.264,0.969-0.4
			c0.323-0.137,0.631-0.264,0.926-0.383C154.138,185.463,154.404,185.359,154.642,185.268z"/>
		<path fill="#FFF7DC" d="M168.005,189.518c-0.352,0.318-0.777,0.566-1.275,0.748c-0.499,0.182-1.009,0.271-1.53,0.271
			c-0.532,0-1.034-0.098-1.505-0.297c-0.47-0.197-0.878-0.471-1.224-0.816s-0.62-0.748-0.824-1.207s-0.306-0.949-0.306-1.469
			c0-0.521,0.102-1.012,0.306-1.471s0.479-0.861,0.824-1.207s0.748-0.619,1.207-0.816c0.459-0.199,0.944-0.297,1.454-0.297
			c0.815,0,1.532,0.246,2.15,0.738c0.617,0.494,1.057,1.143,1.317,1.947c-0.341,0.125-0.734,0.275-1.182,0.449
			c-0.448,0.176-0.915,0.361-1.402,0.553c-0.487,0.193-0.976,0.389-1.462,0.588c-0.488,0.197-0.936,0.377-1.344,0.535
			c0.193,0.352,0.459,0.635,0.799,0.85c0.341,0.215,0.726,0.322,1.156,0.322c0.295,0,0.592-0.053,0.893-0.16s0.547-0.252,0.74-0.434
			L168.005,189.518z M166.576,185.268c-0.136-0.248-0.34-0.434-0.612-0.553c-0.271-0.119-0.538-0.178-0.799-0.178
			c-0.306,0-0.595,0.059-0.867,0.178c-0.271,0.119-0.504,0.279-0.696,0.477c-0.192,0.199-0.347,0.426-0.459,0.68
			c-0.114,0.256-0.171,0.52-0.171,0.791v0.068c0.283-0.113,0.588-0.236,0.91-0.365c0.323-0.131,0.646-0.264,0.969-0.4
			c0.323-0.137,0.632-0.264,0.927-0.383C166.071,185.463,166.339,185.359,166.576,185.268z M163.976,182.072
			c0.26-0.375,0.518-0.754,0.773-1.139c0.255-0.385,0.513-0.771,0.773-1.156h1.751c-0.34,0.385-0.687,0.771-1.037,1.156
			c-0.352,0.385-0.702,0.764-1.054,1.139H163.976z"/>
		<path fill="#FFF7DC" d="M174.668,188.465c0.17,0.215,0.334,0.422,0.493,0.619c0.158,0.199,0.322,0.4,0.492,0.604
			c-0.328,0.262-0.696,0.469-1.104,0.621c-0.407,0.152-0.845,0.229-1.31,0.229c-0.532,0-1.033-0.098-1.504-0.297
			c-0.471-0.197-0.879-0.471-1.225-0.816s-0.619-0.75-0.824-1.215c-0.203-0.465-0.306-0.957-0.306-1.479s0.103-1.012,0.306-1.471
			c0.205-0.459,0.479-0.861,0.824-1.207s0.754-0.617,1.225-0.816c0.471-0.197,0.972-0.297,1.504-0.297
			c0.477,0,0.922,0.076,1.335,0.229c0.413,0.154,0.79,0.361,1.131,0.621l-1.037,1.207c-0.397-0.307-0.873-0.459-1.429-0.459
			c-0.328,0-0.629,0.057-0.9,0.17s-0.508,0.266-0.705,0.459c-0.199,0.193-0.352,0.422-0.459,0.689
			c-0.108,0.266-0.162,0.557-0.162,0.875c0,0.305,0.054,0.592,0.162,0.857c0.107,0.268,0.26,0.502,0.459,0.707
			c0.197,0.203,0.434,0.361,0.705,0.475s0.572,0.17,0.9,0.17C173.807,188.939,174.282,188.781,174.668,188.465z"/>
		<path fill="#FFF7DC" d="M176.351,186.73c0-0.521,0.1-1.012,0.298-1.471s0.474-0.859,0.825-1.199
			c0.351-0.34,0.762-0.609,1.232-0.807c0.47-0.199,0.971-0.297,1.504-0.297c0.544,0,1.049,0.098,1.514,0.297
			c0.464,0.197,0.863,0.467,1.197,0.807c0.335,0.34,0.598,0.74,0.791,1.199s0.289,0.949,0.289,1.471s-0.094,1.014-0.28,1.479
			s-0.45,0.869-0.79,1.215s-0.743,0.619-1.207,0.816c-0.465,0.199-0.976,0.297-1.53,0.297c-0.533,0-1.032-0.09-1.496-0.271
			c-0.465-0.182-0.87-0.439-1.216-0.773s-0.62-0.736-0.824-1.207S176.351,187.297,176.351,186.73z M177.966,186.748
			c0,0.305,0.057,0.592,0.17,0.857s0.27,0.498,0.468,0.697s0.431,0.354,0.697,0.467s0.552,0.17,0.858,0.17s0.592-0.057,0.858-0.17
			s0.499-0.268,0.697-0.467s0.356-0.432,0.476-0.697s0.179-0.553,0.179-0.857c0-0.307-0.06-0.594-0.179-0.859
			s-0.277-0.498-0.476-0.697c-0.198-0.197-0.431-0.357-0.697-0.477s-0.552-0.178-0.858-0.178s-0.592,0.059-0.858,0.178
			s-0.499,0.279-0.697,0.477c-0.198,0.199-0.354,0.432-0.468,0.697S177.966,186.441,177.966,186.748z"/>
		<path fill="#FFF7DC" d="M192.416,190.521h-1.36l-0.203-2.006c-0.262,0.578-0.621,1.057-1.08,1.436
			c-0.459,0.381-1.063,0.57-1.811,0.57s-1.34-0.195-1.776-0.586c-0.437-0.393-0.666-0.91-0.688-1.557v-5.252h1.632v4.486
			c0.022,0.352,0.145,0.65,0.366,0.893c0.221,0.244,0.574,0.377,1.063,0.4c0.328,0,0.629-0.057,0.9-0.17s0.507-0.271,0.705-0.477
			c0.199-0.203,0.354-0.447,0.468-0.73s0.17-0.59,0.17-0.918v-3.484h1.615V190.521z"/>
		<path fill="#FFF7DC" d="M196.036,190.352h-1.615v-13.277h1.615V190.352z"/>
		<path fill="#FFF7DC" d="M204.247,189.518c-0.352,0.318-0.775,0.566-1.274,0.748s-1.009,0.271-1.53,0.271
			c-0.533,0-1.034-0.098-1.504-0.297c-0.471-0.197-0.879-0.471-1.225-0.816s-0.62-0.748-0.824-1.207s-0.307-0.949-0.307-1.469
			c0-0.521,0.103-1.012,0.307-1.471s0.479-0.861,0.824-1.207s0.748-0.619,1.207-0.816c0.459-0.199,0.943-0.297,1.453-0.297
			c0.816,0,1.533,0.246,2.15,0.738c0.618,0.494,1.057,1.143,1.318,1.947c-0.34,0.125-0.734,0.275-1.182,0.449
			c-0.447,0.176-0.916,0.361-1.402,0.553c-0.488,0.193-0.975,0.389-1.463,0.588c-0.486,0.197-0.935,0.377-1.342,0.535
			c0.191,0.352,0.459,0.635,0.799,0.85s0.725,0.322,1.156,0.322c0.294,0,0.592-0.053,0.893-0.16
			c0.299-0.107,0.546-0.252,0.738-0.434L204.247,189.518z M202.819,185.268c-0.136-0.248-0.34-0.434-0.611-0.553
			c-0.272-0.119-0.539-0.178-0.799-0.178c-0.307,0-0.596,0.059-0.867,0.178c-0.272,0.119-0.505,0.279-0.697,0.477
			c-0.193,0.199-0.346,0.426-0.459,0.68c-0.113,0.256-0.17,0.52-0.17,0.791v0.068c0.283-0.113,0.586-0.236,0.909-0.365
			c0.323-0.131,0.646-0.264,0.97-0.4c0.322-0.137,0.631-0.264,0.926-0.383S202.581,185.359,202.819,185.268z M200.219,182.072
			c0.261-0.375,0.519-0.754,0.773-1.139s0.513-0.771,0.773-1.156h1.751c-0.34,0.385-0.686,0.771-1.037,1.156
			s-0.703,0.764-1.054,1.139H200.219z"/>
		<path fill="#FFF7DC" d="M210.198,183.771c-0.068,0.104-0.15,0.219-0.247,0.35s-0.19,0.252-0.28,0.365
			c-0.092,0.113-0.199,0.254-0.323,0.424c-0.113-0.078-0.224-0.141-0.331-0.186c-0.108-0.045-0.232-0.088-0.375-0.129
			c-0.142-0.039-0.285-0.059-0.434-0.059c-0.158,0-0.325,0.037-0.501,0.111c-0.176,0.072-0.264,0.223-0.264,0.449
			c0,0.193,0.077,0.355,0.229,0.484c0.153,0.131,0.34,0.25,0.561,0.357c0.222,0.107,0.465,0.219,0.731,0.332
			s0.511,0.254,0.731,0.424s0.408,0.383,0.561,0.639c0.153,0.254,0.229,0.568,0.229,0.943c0,0.328-0.06,0.629-0.179,0.9
			s-0.289,0.504-0.51,0.697s-0.484,0.346-0.791,0.459c-0.305,0.113-0.65,0.17-1.036,0.17c-0.465,0-0.915-0.08-1.352-0.238
			s-0.779-0.385-1.028-0.68c0.079-0.09,0.176-0.203,0.289-0.34s0.221-0.266,0.322-0.391c0.103-0.125,0.227-0.271,0.375-0.443
			c0-0.01,0.036,0.01,0.109,0.061c0.074,0.051,0.174,0.111,0.298,0.178c0.125,0.068,0.272,0.131,0.442,0.188
			s0.346,0.086,0.527,0.086c0.283,0,0.501-0.063,0.654-0.188c0.152-0.125,0.229-0.277,0.229-0.459s-0.076-0.328-0.229-0.441
			c-0.153-0.113-0.34-0.219-0.562-0.314c-0.221-0.098-0.465-0.201-0.731-0.314c-0.266-0.113-0.51-0.256-0.73-0.426
			s-0.408-0.389-0.561-0.654c-0.153-0.266-0.23-0.604-0.23-1.012s0.074-0.748,0.222-1.02c0.147-0.273,0.337-0.494,0.569-0.664
			s0.484-0.291,0.757-0.365s0.538-0.109,0.799-0.109c0.351,0,0.717,0.07,1.097,0.211
			C209.616,183.311,209.937,183.512,210.198,183.771z"/>
	</g>
	<g enable-background="new    ">
		<path fill="#FFF7DC" d="M96.036,207.164c0,0.545-0.091,1.047-0.272,1.506s-0.439,0.857-0.773,1.197s-0.734,0.604-1.198,0.791
			c-0.465,0.188-0.975,0.279-1.53,0.279s-1.045-0.104-1.47-0.314c-0.425-0.209-0.717-0.432-0.875-0.67
			c0,0.045,0.002,0.088,0.008,0.127c0.005,0.039,0.008,0.088,0.008,0.145v3.994h-1.632v-10.691h1.564
			c0,0.158,0.011,0.316,0.034,0.475c0.022,0.16,0.034,0.307,0.034,0.443c0.091-0.113,0.207-0.236,0.349-0.367
			c0.142-0.129,0.314-0.248,0.519-0.355s0.434-0.199,0.688-0.273c0.255-0.072,0.536-0.109,0.842-0.109
			c0.555,0,1.06,0.088,1.513,0.264s0.842,0.43,1.165,0.764c0.323,0.336,0.575,0.738,0.756,1.207
			C95.945,206.045,96.036,206.576,96.036,207.164z M94.268,207.131c0-0.635-0.185-1.158-0.553-1.572s-0.881-0.621-1.539-0.621
			c-0.329,0-0.629,0.055-0.901,0.162s-0.507,0.26-0.706,0.459c-0.198,0.197-0.354,0.43-0.467,0.697
			c-0.114,0.266-0.17,0.551-0.17,0.857c0,0.318,0.057,0.611,0.17,0.885c0.113,0.271,0.269,0.506,0.467,0.705
			s0.434,0.354,0.706,0.467s0.572,0.17,0.901,0.17s0.623-0.057,0.884-0.17c0.26-0.113,0.479-0.271,0.654-0.475
			c0.176-0.205,0.312-0.439,0.408-0.707C94.22,207.723,94.268,207.436,94.268,207.131z"/>
		<path fill="#FFF7DC" d="M97.141,207.215c0-0.521,0.102-1.016,0.306-1.486s0.479-0.881,0.824-1.232s0.748-0.633,1.207-0.842
			s0.944-0.314,1.454-0.314c0.34,0,0.646,0.043,0.918,0.127c0.272,0.086,0.507,0.184,0.706,0.297s0.354,0.23,0.467,0.35
			s0.187,0.213,0.221,0.279l0.068-0.865h1.581v7.225h-1.649v-0.477c0-0.057,0.002-0.111,0.008-0.162s0.009-0.088,0.009-0.109
			c-0.045,0.057-0.125,0.139-0.238,0.246s-0.266,0.213-0.459,0.314s-0.422,0.189-0.688,0.264s-0.575,0.109-0.926,0.109
			c-0.556,0-1.065-0.102-1.53-0.305c-0.465-0.205-0.867-0.477-1.207-0.816c-0.34-0.34-0.604-0.734-0.791-1.182
			S97.141,207.715,97.141,207.215z M98.79,207.113c0,0.318,0.054,0.611,0.162,0.885c0.107,0.271,0.261,0.506,0.459,0.705
			s0.434,0.354,0.706,0.467s0.572,0.17,0.901,0.17s0.629-0.057,0.901-0.17s0.507-0.271,0.706-0.475
			c0.198-0.205,0.351-0.443,0.459-0.715s0.162-0.561,0.162-0.867s-0.054-0.592-0.162-0.857c-0.108-0.268-0.261-0.496-0.459-0.689
			s-0.434-0.346-0.706-0.459s-0.572-0.17-0.901-0.17s-0.629,0.055-0.901,0.162s-0.507,0.26-0.706,0.459
			c-0.198,0.197-0.352,0.43-0.459,0.697C98.843,206.521,98.79,206.807,98.79,207.113z"/>
		<path fill="#FFF7DC" d="M110.944,205.447c-0.317,0-0.62,0.041-0.909,0.119c-0.289,0.08-0.544,0.201-0.765,0.365
			s-0.399,0.369-0.536,0.613c-0.136,0.242-0.204,0.529-0.204,0.857v3.35h-1.632v-7.225h1.428c0.022,0.406,0.048,0.738,0.076,0.994
			c0.028,0.254,0.054,0.541,0.077,0.857c0.147-0.316,0.346-0.6,0.595-0.85c0.249-0.248,0.507-0.461,0.773-0.637
			c0.266-0.176,0.529-0.313,0.791-0.408c0.26-0.096,0.481-0.145,0.663-0.145L110.944,205.447z"/>
		<path fill="#FFF7DC" d="M117.558,210.752h-1.615v-13.277h1.615V210.752z"/>
		<path fill="#FFF7DC" d="M119.104,207.215c0-0.521,0.102-1.016,0.306-1.486s0.479-0.881,0.824-1.232s0.748-0.633,1.207-0.842
			s0.944-0.314,1.454-0.314c0.34,0,0.646,0.043,0.918,0.127c0.272,0.086,0.507,0.184,0.706,0.297s0.354,0.23,0.467,0.35
			s0.187,0.213,0.221,0.279l0.068-0.865h1.581v7.225h-1.649v-0.477c0-0.057,0.002-0.111,0.008-0.162s0.009-0.088,0.009-0.109
			c-0.045,0.057-0.125,0.139-0.238,0.246s-0.266,0.213-0.459,0.314s-0.422,0.189-0.688,0.264s-0.575,0.109-0.926,0.109
			c-0.556,0-1.065-0.102-1.53-0.305c-0.465-0.205-0.867-0.477-1.207-0.816c-0.34-0.34-0.604-0.734-0.791-1.182
			S119.104,207.715,119.104,207.215z M120.753,207.113c0,0.318,0.054,0.611,0.162,0.885c0.107,0.271,0.261,0.506,0.459,0.705
			s0.434,0.354,0.706,0.467s0.572,0.17,0.901,0.17s0.629-0.057,0.901-0.17s0.507-0.271,0.706-0.475
			c0.198-0.205,0.351-0.443,0.459-0.715s0.162-0.561,0.162-0.867s-0.054-0.592-0.162-0.857c-0.108-0.268-0.261-0.496-0.459-0.689
			s-0.434-0.346-0.706-0.459s-0.572-0.17-0.901-0.17s-0.629,0.055-0.901,0.162s-0.507,0.26-0.706,0.459
			c-0.198,0.197-0.352,0.43-0.459,0.697C120.807,206.521,120.753,206.807,120.753,207.113z"/>
		<path fill="#FFF7DC" d="M137.566,208.865c0.17,0.215,0.334,0.422,0.493,0.619c0.158,0.199,0.323,0.4,0.493,0.604
			c-0.329,0.262-0.697,0.469-1.105,0.621c-0.408,0.152-0.844,0.229-1.309,0.229c-0.533,0-1.034-0.098-1.504-0.297
			c-0.47-0.197-0.878-0.471-1.224-0.816s-0.62-0.75-0.824-1.215s-0.306-0.957-0.306-1.479s0.102-1.012,0.306-1.471
			s0.479-0.861,0.824-1.207s0.754-0.617,1.224-0.816c0.47-0.197,0.972-0.297,1.504-0.297c0.476,0,0.921,0.076,1.334,0.229
			c0.414,0.154,0.791,0.361,1.131,0.621l-1.037,1.207c-0.397-0.307-0.873-0.459-1.428-0.459c-0.329,0-0.629,0.057-0.901,0.17
			s-0.507,0.266-0.706,0.459s-0.351,0.422-0.459,0.689c-0.108,0.266-0.162,0.557-0.162,0.875c0,0.305,0.054,0.592,0.162,0.857
			c0.108,0.268,0.261,0.502,0.459,0.707c0.198,0.203,0.434,0.361,0.706,0.475s0.572,0.17,0.901,0.17
			C136.705,209.34,137.181,209.182,137.566,208.865z"/>
		<path fill="#FFF7DC" d="M139.963,197.475h1.632v7.803c0.25-0.578,0.601-1.043,1.054-1.395c0.453-0.35,1.037-0.531,1.751-0.543
			c0.748,0,1.343,0.197,1.785,0.594c0.442,0.398,0.674,0.924,0.697,1.582v5.236h-1.615v-4.471c-0.023-0.352-0.147-0.656-0.374-0.91
			c-0.227-0.256-0.578-0.395-1.054-0.416c-0.329,0-0.632,0.059-0.909,0.178c-0.278,0.119-0.516,0.281-0.714,0.484
			c-0.198,0.205-0.351,0.447-0.459,0.73c-0.108,0.285-0.162,0.59-0.162,0.918v3.486h-1.632V197.475z"/>
		<path fill="#FFF7DC" d="M148.378,207.215c0-0.521,0.102-1.016,0.306-1.486s0.479-0.881,0.824-1.232s0.748-0.633,1.207-0.842
			s0.944-0.314,1.454-0.314c0.34,0,0.646,0.043,0.918,0.127c0.272,0.086,0.507,0.184,0.706,0.297s0.354,0.23,0.467,0.35
			s0.187,0.213,0.221,0.279l0.068-0.865h1.581v7.225h-1.649v-0.477c0-0.057,0.002-0.111,0.008-0.162s0.009-0.088,0.009-0.109
			c-0.045,0.057-0.125,0.139-0.238,0.246s-0.266,0.213-0.459,0.314s-0.422,0.189-0.688,0.264s-0.575,0.109-0.926,0.109
			c-0.556,0-1.065-0.102-1.53-0.305c-0.465-0.205-0.867-0.477-1.207-0.816c-0.34-0.34-0.604-0.734-0.791-1.182
			S148.378,207.715,148.378,207.215z M150.027,207.113c0,0.318,0.054,0.611,0.162,0.885c0.107,0.271,0.261,0.506,0.459,0.705
			s0.434,0.354,0.706,0.467s0.572,0.17,0.901,0.17s0.629-0.057,0.901-0.17s0.507-0.271,0.706-0.475
			c0.198-0.205,0.351-0.443,0.459-0.715s0.162-0.561,0.162-0.867s-0.054-0.592-0.162-0.857c-0.108-0.268-0.261-0.496-0.459-0.689
			s-0.434-0.346-0.706-0.459s-0.572-0.17-0.901-0.17s-0.629,0.055-0.901,0.162s-0.507,0.26-0.706,0.459
			c-0.198,0.197-0.352,0.43-0.459,0.697C150.081,206.521,150.027,206.807,150.027,207.113z"/>
		<path fill="#FFF7DC" d="M162.183,205.447c-0.318,0-0.621,0.041-0.91,0.119c-0.289,0.08-0.543,0.201-0.765,0.365
			s-0.399,0.369-0.536,0.613c-0.135,0.242-0.203,0.529-0.203,0.857v3.35h-1.632v-7.225h1.428c0.022,0.406,0.048,0.738,0.076,0.994
			c0.028,0.254,0.054,0.541,0.077,0.857c0.146-0.316,0.346-0.6,0.595-0.85c0.249-0.248,0.507-0.461,0.773-0.637
			s0.529-0.313,0.79-0.408s0.482-0.145,0.663-0.145L162.183,205.447z"/>
		<path fill="#FFF7DC" d="M168.336,208.865c0.17,0.215,0.334,0.422,0.493,0.619c0.158,0.199,0.322,0.4,0.492,0.604
			c-0.328,0.262-0.696,0.469-1.104,0.621c-0.407,0.152-0.845,0.229-1.31,0.229c-0.532,0-1.033-0.098-1.504-0.297
			c-0.471-0.197-0.879-0.471-1.225-0.816s-0.619-0.75-0.824-1.215c-0.203-0.465-0.306-0.957-0.306-1.479s0.103-1.012,0.306-1.471
			c0.205-0.459,0.479-0.861,0.824-1.207s0.754-0.617,1.225-0.816c0.471-0.197,0.972-0.297,1.504-0.297
			c0.477,0,0.922,0.076,1.335,0.229c0.413,0.154,0.79,0.361,1.131,0.621l-1.037,1.207c-0.397-0.307-0.873-0.459-1.429-0.459
			c-0.328,0-0.629,0.057-0.9,0.17s-0.508,0.266-0.705,0.459c-0.199,0.193-0.352,0.422-0.459,0.689
			c-0.108,0.266-0.162,0.557-0.162,0.875c0,0.305,0.054,0.592,0.162,0.857c0.107,0.268,0.26,0.502,0.459,0.707
			c0.197,0.203,0.434,0.361,0.705,0.475s0.572,0.17,0.9,0.17C167.475,209.34,167.95,209.182,168.336,208.865z"/>
		<path fill="#FFF7DC" d="M177.601,210.922h-1.359l-0.204-2.006c-0.261,0.578-0.62,1.057-1.079,1.436
			c-0.459,0.381-1.063,0.57-1.811,0.57s-1.341-0.195-1.777-0.586c-0.436-0.393-0.666-0.91-0.688-1.557v-5.252h1.631v4.486
			c0.023,0.352,0.145,0.65,0.366,0.893c0.221,0.244,0.575,0.377,1.063,0.4c0.329,0,0.629-0.057,0.901-0.17
			c0.271-0.113,0.506-0.271,0.705-0.477c0.198-0.203,0.354-0.447,0.467-0.73s0.17-0.59,0.17-0.918v-3.484h1.615V210.922z"/>
		<path fill="#FFF7DC" d="M180.27,200.365h1.614v3.162h1.888v1.461h-1.888v5.764h-1.614v-5.764h-1.224v-1.461h1.224V200.365z"/>
		<path fill="#FFF7DC" d="M191.048,209.918c-0.352,0.318-0.777,0.566-1.275,0.748c-0.499,0.182-1.009,0.271-1.53,0.271
			c-0.532,0-1.034-0.098-1.505-0.297c-0.47-0.197-0.878-0.471-1.224-0.816s-0.62-0.748-0.824-1.207s-0.306-0.949-0.306-1.469
			c0-0.521,0.102-1.012,0.306-1.471s0.479-0.861,0.824-1.207s0.748-0.619,1.207-0.816c0.459-0.199,0.944-0.297,1.454-0.297
			c0.815,0,1.532,0.246,2.15,0.738c0.617,0.494,1.057,1.143,1.317,1.947c-0.341,0.125-0.734,0.275-1.182,0.449
			c-0.448,0.176-0.915,0.361-1.402,0.553c-0.487,0.193-0.976,0.389-1.462,0.588c-0.488,0.197-0.936,0.377-1.344,0.535
			c0.193,0.352,0.459,0.635,0.799,0.85c0.341,0.215,0.726,0.322,1.156,0.322c0.295,0,0.592-0.053,0.893-0.16s0.547-0.252,0.74-0.434
			L191.048,209.918z M189.619,205.668c-0.136-0.248-0.34-0.434-0.612-0.553c-0.271-0.119-0.538-0.178-0.799-0.178
			c-0.306,0-0.595,0.059-0.867,0.178c-0.271,0.119-0.504,0.279-0.696,0.477c-0.192,0.199-0.347,0.426-0.459,0.68
			c-0.114,0.256-0.171,0.52-0.171,0.791v0.068c0.283-0.113,0.588-0.236,0.91-0.365c0.323-0.131,0.646-0.264,0.969-0.4
			c0.323-0.137,0.632-0.264,0.927-0.383C189.114,205.863,189.382,205.76,189.619,205.668z"/>
		<path fill="#FFF7DC" d="M196.946,205.447c-0.317,0-0.62,0.041-0.909,0.119c-0.289,0.08-0.544,0.201-0.765,0.365
			c-0.222,0.164-0.4,0.369-0.536,0.613c-0.136,0.242-0.204,0.529-0.204,0.857v3.35H192.9v-7.225h1.429
			c0.021,0.406,0.047,0.738,0.076,0.994c0.027,0.254,0.053,0.541,0.076,0.857c0.146-0.316,0.346-0.6,0.596-0.85
			c0.248-0.248,0.506-0.461,0.773-0.637c0.266-0.176,0.529-0.313,0.79-0.408s0.481-0.145,0.663-0.145L196.946,205.447z"/>
		<path fill="#FFF7DC" d="M198.222,200.721c0-0.293,0.107-0.537,0.322-0.73c0.215-0.191,0.447-0.289,0.697-0.289
			c0.249,0,0.479,0.098,0.688,0.289c0.21,0.193,0.314,0.438,0.314,0.73c0,0.307-0.104,0.553-0.314,0.74s-0.439,0.281-0.688,0.281
			c-0.25,0-0.482-0.094-0.697-0.281S198.222,201.027,198.222,200.721z M200.04,210.752h-1.632v-7.225h1.632V210.752z"/>
		<path fill="#FFF7DC" d="M208.251,209.918c-0.352,0.318-0.776,0.566-1.275,0.748c-0.498,0.182-1.008,0.271-1.529,0.271
			c-0.533,0-1.035-0.098-1.505-0.297c-0.47-0.197-0.878-0.471-1.224-0.816s-0.621-0.748-0.824-1.207
			c-0.205-0.459-0.307-0.949-0.307-1.469c0-0.521,0.102-1.012,0.307-1.471c0.203-0.459,0.479-0.861,0.824-1.207
			s0.748-0.619,1.207-0.816c0.459-0.199,0.943-0.297,1.453-0.297c0.816,0,1.533,0.246,2.15,0.738
			c0.617,0.494,1.057,1.143,1.318,1.947c-0.341,0.125-0.734,0.275-1.182,0.449c-0.448,0.176-0.916,0.361-1.402,0.553
			c-0.488,0.193-0.976,0.389-1.463,0.588c-0.487,0.197-0.936,0.377-1.343,0.535c0.192,0.352,0.459,0.635,0.799,0.85
			c0.341,0.215,0.726,0.322,1.156,0.322c0.294,0,0.592-0.053,0.893-0.16c0.3-0.107,0.546-0.252,0.739-0.434L208.251,209.918z
			 M206.823,205.668c-0.137-0.248-0.34-0.434-0.612-0.553s-0.538-0.178-0.799-0.178c-0.306,0-0.595,0.059-0.867,0.178
			s-0.505,0.279-0.696,0.477c-0.193,0.199-0.347,0.426-0.459,0.68c-0.114,0.256-0.171,0.52-0.171,0.791v0.068
			c0.283-0.113,0.587-0.236,0.909-0.365c0.324-0.131,0.646-0.264,0.97-0.4s0.632-0.264,0.927-0.383
			C206.318,205.863,206.585,205.76,206.823,205.668z"/>
	</g>
	<g enable-background="new    ">
		<path fill="#FFF7DC" d="M109.601,227.547c0-0.566,0.093-1.082,0.28-1.547s0.448-0.863,0.782-1.199
			c0.334-0.334,0.725-0.594,1.173-0.781s0.938-0.281,1.471-0.281c0.362,0,0.68,0.041,0.952,0.119
			c0.272,0.08,0.504,0.176,0.697,0.289c0.192,0.113,0.349,0.236,0.467,0.365c0.119,0.131,0.213,0.242,0.281,0.332v-6.971h1.632
			v13.277h-1.632v-0.475c0-0.057,0.005-0.119,0.017-0.188c0.011-0.068,0.017-0.119,0.017-0.154
			c-0.102,0.104-0.227,0.213-0.374,0.332c-0.147,0.119-0.323,0.23-0.527,0.332s-0.434,0.184-0.688,0.246s-0.547,0.094-0.875,0.094
			c-0.578,0-1.096-0.1-1.555-0.297c-0.459-0.199-0.845-0.471-1.156-0.816c-0.312-0.346-0.55-0.748-0.714-1.207
			C109.683,228.559,109.601,228.068,109.601,227.547z M111.232,227.514c0,0.316,0.054,0.611,0.162,0.883
			c0.107,0.271,0.261,0.508,0.459,0.705c0.198,0.199,0.434,0.355,0.706,0.469s0.572,0.17,0.901,0.17s0.632-0.057,0.91-0.17
			c0.277-0.113,0.516-0.271,0.714-0.477c0.198-0.203,0.351-0.441,0.459-0.715c0.107-0.271,0.162-0.561,0.162-0.865
			c0-0.307-0.054-0.594-0.162-0.859c-0.108-0.266-0.261-0.496-0.459-0.688c-0.198-0.193-0.437-0.346-0.714-0.459
			c-0.278-0.113-0.581-0.172-0.91-0.172s-0.629,0.055-0.901,0.162s-0.507,0.262-0.706,0.459c-0.198,0.199-0.352,0.432-0.459,0.697
			C111.286,226.92,111.232,227.207,111.232,227.514z"/>
		<path fill="#FFF7DC" d="M126.209,231.32h-1.36l-0.204-2.006c-0.261,0.578-0.621,1.057-1.08,1.438
			c-0.459,0.379-1.063,0.568-1.811,0.568s-1.34-0.195-1.776-0.586c-0.437-0.391-0.666-0.91-0.688-1.555v-5.254h1.632v4.488
			c0.022,0.352,0.145,0.648,0.366,0.893c0.221,0.244,0.575,0.377,1.063,0.398c0.329,0,0.629-0.057,0.901-0.17
			s0.507-0.271,0.706-0.475c0.198-0.205,0.354-0.449,0.467-0.732s0.17-0.588,0.17-0.918v-3.484h1.615V231.32z"/>
		<path fill="#FFF7DC" d="M132.517,231.15v-12.393h3.383c0.612,0,1.167,0.059,1.666,0.178c0.499,0.119,0.923,0.307,1.275,0.563
			c0.351,0.254,0.621,0.588,0.808,1.002s0.28,0.91,0.28,1.488c0,0.316-0.031,0.625-0.093,0.926
			c-0.063,0.301-0.165,0.578-0.306,0.834c-0.142,0.254-0.326,0.479-0.552,0.67c-0.227,0.193-0.51,0.342-0.85,0.443
			c0.283,0.057,0.569,0.152,0.858,0.289c0.289,0.135,0.547,0.32,0.773,0.553s0.411,0.521,0.553,0.867
			c0.142,0.346,0.212,0.75,0.212,1.215c0,0.6-0.116,1.113-0.349,1.539c-0.232,0.424-0.539,0.773-0.918,1.045
			c-0.38,0.271-0.819,0.471-1.317,0.596c-0.499,0.123-1.015,0.186-1.547,0.186H132.517z M134.59,220.645v3.367h1.564
			c0.578,0,1.006-0.17,1.284-0.512c0.277-0.34,0.417-0.748,0.417-1.223c0-0.555-0.17-0.967-0.51-1.232
			c-0.34-0.268-0.799-0.4-1.377-0.4H134.59z M134.59,225.779v3.484h1.632c0.306,0,0.595-0.037,0.867-0.109
			c0.272-0.074,0.51-0.182,0.714-0.324c0.204-0.141,0.363-0.322,0.476-0.543c0.113-0.223,0.17-0.479,0.17-0.773
			c0-0.33-0.068-0.604-0.204-0.826c-0.136-0.221-0.318-0.398-0.544-0.535c-0.227-0.135-0.484-0.232-0.773-0.289
			s-0.586-0.084-0.893-0.084H134.59z"/>
		<path fill="#FFF7DC" d="M141.645,227.529c0-0.521,0.099-1.012,0.297-1.471s0.473-0.857,0.825-1.197
			c0.351-0.34,0.762-0.609,1.232-0.809c0.47-0.197,0.972-0.297,1.504-0.297c0.544,0,1.048,0.1,1.513,0.297
			c0.464,0.199,0.864,0.469,1.198,0.809c0.334,0.34,0.598,0.738,0.791,1.197s0.289,0.949,0.289,1.471s-0.093,1.016-0.28,1.48
			s-0.451,0.869-0.791,1.215s-0.743,0.617-1.207,0.816c-0.465,0.197-0.975,0.297-1.53,0.297c-0.533,0-1.032-0.092-1.496-0.271
			c-0.465-0.182-0.87-0.439-1.216-0.773s-0.62-0.736-0.824-1.207S141.645,228.098,141.645,227.529z M143.26,227.547
			c0,0.307,0.057,0.592,0.17,0.859c0.113,0.266,0.269,0.498,0.467,0.695c0.198,0.199,0.431,0.355,0.697,0.469
			c0.266,0.113,0.552,0.17,0.858,0.17s0.592-0.057,0.858-0.17c0.266-0.113,0.499-0.27,0.697-0.469
			c0.198-0.197,0.357-0.43,0.476-0.695c0.119-0.268,0.179-0.553,0.179-0.859s-0.06-0.592-0.179-0.859
			c-0.119-0.266-0.278-0.498-0.476-0.695c-0.199-0.199-0.431-0.357-0.697-0.477c-0.267-0.119-0.552-0.18-0.858-0.18
			s-0.592,0.061-0.858,0.18c-0.267,0.119-0.499,0.277-0.697,0.477c-0.198,0.197-0.354,0.43-0.467,0.695
			C143.317,226.955,143.26,227.24,143.26,227.547z"/>
		<path fill="#FFF7DC" d="M157.71,231.32h-1.36l-0.204-2.006c-0.261,0.578-0.621,1.057-1.08,1.438
			c-0.459,0.379-1.063,0.568-1.811,0.568s-1.34-0.195-1.776-0.586c-0.437-0.391-0.666-0.91-0.688-1.555v-5.254h1.632v4.488
			c0.022,0.352,0.145,0.648,0.366,0.893c0.221,0.244,0.575,0.377,1.063,0.398c0.329,0,0.629-0.057,0.901-0.17
			s0.507-0.271,0.706-0.475c0.198-0.205,0.354-0.449,0.467-0.732s0.17-0.588,0.17-0.918v-3.484h1.615V231.32z"/>
		<path fill="#FFF7DC" d="M159.155,225.508v-1.6h1.24v-1.529c0-1.52,0.352-2.637,1.055-3.357c0.702-0.719,1.723-1.102,3.06-1.148
			v1.547c-0.884,0.059-1.519,0.342-1.903,0.852c-0.386,0.51-0.578,1.234-0.578,2.176v1.461h2.244v1.6h-2.244v5.643h-1.633v-5.643
			H159.155z"/>
		<path fill="#FFF7DC" d="M164.917,225.508v-1.6h1.242v-1.529c0-1.52,0.351-2.637,1.053-3.357c0.703-0.719,1.723-1.102,3.061-1.148
			v1.547c-0.884,0.059-1.519,0.342-1.904,0.852c-0.385,0.51-0.578,1.234-0.578,2.176v1.461h2.244v1.6h-2.244v5.643h-1.631v-5.643
			H164.917z"/>
		<path fill="#FFF7DC" d="M170.646,227.615c0-0.521,0.103-1.018,0.306-1.488c0.205-0.471,0.479-0.881,0.824-1.232
			s0.748-0.631,1.207-0.842c0.459-0.209,0.944-0.314,1.454-0.314c0.34,0,0.646,0.043,0.918,0.129
			c0.272,0.084,0.507,0.184,0.706,0.297c0.197,0.113,0.354,0.229,0.467,0.348s0.188,0.213,0.221,0.281l0.068-0.867h1.581v7.225
			h-1.649v-0.475c0-0.057,0.003-0.111,0.009-0.162s0.009-0.088,0.009-0.111c-0.045,0.057-0.125,0.139-0.238,0.246
			c-0.113,0.109-0.266,0.213-0.459,0.316c-0.193,0.102-0.422,0.189-0.688,0.262c-0.267,0.074-0.575,0.111-0.927,0.111
			c-0.555,0-1.064-0.102-1.529-0.307c-0.465-0.203-0.867-0.475-1.207-0.814c-0.34-0.342-0.604-0.734-0.791-1.182
			C170.74,228.586,170.646,228.113,170.646,227.615z M172.296,227.514c0,0.316,0.053,0.611,0.161,0.883
			c0.107,0.271,0.261,0.508,0.459,0.705c0.198,0.199,0.434,0.355,0.706,0.469c0.271,0.113,0.572,0.17,0.9,0.17s0.629-0.057,0.9-0.17
			c0.272-0.113,0.508-0.271,0.706-0.477c0.198-0.203,0.351-0.441,0.459-0.715c0.108-0.271,0.161-0.561,0.161-0.865
			c0-0.307-0.053-0.594-0.161-0.859s-0.261-0.496-0.459-0.688c-0.198-0.193-0.434-0.346-0.706-0.459
			c-0.271-0.113-0.572-0.172-0.9-0.172s-0.629,0.055-0.9,0.162c-0.272,0.107-0.508,0.262-0.706,0.459
			c-0.198,0.199-0.352,0.432-0.459,0.697C172.349,226.92,172.296,227.207,172.296,227.514z"/>
		<path fill="#FFF7DC" d="M182.479,234.619h-1.632c0.17-0.34,0.328-0.666,0.476-0.979c0.147-0.311,0.295-0.629,0.442-0.951
			c0.146-0.322,0.3-0.654,0.459-0.994c0.158-0.34,0.334-0.709,0.527-1.105c-0.262-0.51-0.531-1.049-0.809-1.615
			s-0.558-1.139-0.841-1.717c-0.284-0.578-0.563-1.15-0.842-1.717s-0.541-1.105-0.79-1.615h1.768
			c0.431,0.84,0.782,1.541,1.055,2.107c0.271,0.568,0.492,1.043,0.662,1.428c0.17,0.387,0.301,0.701,0.391,0.945
			c0.092,0.242,0.165,0.467,0.222,0.67c0.067-0.203,0.147-0.428,0.237-0.67c0.092-0.244,0.222-0.559,0.392-0.945
			c0.17-0.385,0.392-0.859,0.663-1.428c0.271-0.566,0.623-1.268,1.055-2.107h1.75L182.479,234.619z"/>
	</g>
</g>
<polygon fill="#FFFFFF" points="568.524,125.908 569.53,125.804 568.568,125.492 569.573,125.599 568.697,125.095 569.658,125.408 
	568.906,124.732 569.781,125.239 569.187,124.422 569.937,125.099 569.524,124.176 570.118,124.995 569.906,124.006 570.316,124.93 
	570.315,123.919 570.524,124.908 570.733,123.919 570.732,124.93 571.143,124.006 570.931,124.995 571.524,124.176 571.112,125.099 
	571.862,124.422 571.268,125.239 572.143,124.732 571.391,125.408 572.352,125.095 571.476,125.599 572.48,125.492 571.519,125.804 
	572.524,125.908 571.519,126.013 572.48,126.324 571.476,126.217 572.352,126.722 571.391,126.408 572.143,127.084 571.268,126.577 
	571.862,127.395 571.112,126.717 571.524,127.64 570.931,126.822 571.143,127.811 570.732,126.886 570.733,127.897 570.524,126.908 
	570.315,127.897 570.316,126.886 569.906,127.811 570.118,126.822 569.524,127.64 569.937,126.717 569.187,127.395 569.781,126.577 
	568.906,127.084 569.658,126.408 568.697,126.722 569.573,126.217 568.568,126.324 569.53,126.013 "/>
<g>
	<path fill="#E58C4A" d="M169.446,130.957c-0.203,0.974-0.509,1.903-0.908,2.786l0.172,3.465l-3.353,0.908
		c-0.722,0.655-1.513,1.233-2.359,1.71l-1.898,2.913l-3.251-1.238c-0.479,0.056-0.961,0.082-1.452,0.082s-0.976-0.025-1.452-0.082
		l-3.251,1.238l-1.902-2.913c-0.848-0.482-1.634-1.055-2.354-1.71l-0.456-0.122l1.715-0.466l2.369-0.639l-0.122-2.451l-0.218-4.394
		c0.437-1.065,0.796-2.172,1.075-3.303l2.754-3.42l1.539-1.907l-1.539-1.913l-2.759-3.419c-0.138-0.574-0.299-1.142-0.487-1.705
		l0.386-0.589l3.251,1.238c0.477-0.057,0.961-0.082,1.452-0.082s0.974,0.025,1.452,0.082l3.251-1.238l1.903,2.912
		c0.848,0.482,1.633,1.056,2.35,1.705l3.357,0.914l-0.172,3.465c0.395,0.878,0.705,1.812,0.901,2.78l2.179,2.699L169.446,130.957z"
		/>
	<g>
		<path fill="#E58C4A" d="M148.984,125.381c-0.3,1.436-0.746,2.806-1.34,4.104l0.254,5.104l-3.734,1.015l-1.203,0.325
			c-1.065,0.964-2.228,1.816-3.475,2.516l-2.796,4.292l-4.795-1.826c-0.699,0.086-1.41,0.122-2.136,0.122
			c-0.725,0-1.436-0.036-2.137-0.122l-4.794,1.826l-2.8-4.292c-1.249-0.71-2.406-1.552-3.471-2.516l-4.938-1.339l0.254-5.109
			c-0.594-1.294-1.04-2.664-1.335-4.09l-3.205-3.977l3.205-3.983c0.295-1.43,0.741-2.791,1.335-4.084l-0.254-5.119l4.947-1.334
			c1.055-0.959,2.212-1.801,3.455-2.506l2.806-4.297l4.794,1.821c0.701-0.081,1.412-0.116,2.137-0.116
			c0.726,0,1.437,0.035,2.136,0.116l4.795-1.821l2.801,4.292c1.248,0.71,2.404,1.552,3.46,2.511l4.947,1.345l-0.254,5.104
			c0.558,1.233,0.999,2.542,1.294,3.897c0.015,0.066,0.025,0.132,0.04,0.198l3.202,3.978L148.984,125.381z"/>
	</g>
	<g>
		<path fill="#E58C4A" d="M170.975,138.912c2.352,1.682,5.889,2.5,9.696,1.958c3.807-0.542,6.976-2.315,8.764-4.586l0.24-0.034
			c-0.042-0.033-0.093-0.06-0.136-0.092c0.033-0.043,0.073-0.083,0.105-0.126l-0.24,0.034c-2.351-1.681-5.89-2.5-9.697-1.958
			c-3.807,0.542-6.976,2.315-8.764,4.585l-0.24,0.035c0.042,0.033,0.093,0.06,0.136,0.092c-0.033,0.042-0.073,0.083-0.105,0.126
			L170.975,138.912z"/>
		<g>
			<path fill="#E58C4A" d="M172.99,139.821c0.273,1.642,1.38,3.414,3.149,4.744c1.772,1.329,3.784,1.898,5.436,1.701l0.112,0.084
				c-0.003-0.03-0.014-0.062-0.019-0.092c0.03-0.004,0.063-0.004,0.094-0.009l-0.11-0.084c-0.273-1.641-1.38-3.415-3.151-4.744
				c-1.771-1.33-3.782-1.897-5.434-1.701l-0.112-0.084c0.003,0.031,0.014,0.062,0.019,0.093c-0.032,0.004-0.063,0.004-0.096,0.008
				L172.99,139.821z"/>
			<path fill="#E58C4A" d="M172.727,137.335c1.644-0.273,3.415-1.379,4.746-3.15c1.329-1.771,1.896-3.782,1.699-5.435l0.084-0.112
				c-0.03,0.004-0.062,0.013-0.092,0.018c-0.004-0.03-0.004-0.063-0.009-0.094l-0.084,0.112c-1.641,0.272-3.415,1.38-4.745,3.15
				c-1.329,1.771-1.896,3.783-1.7,5.435l-0.084,0.112c0.03-0.004,0.063-0.014,0.093-0.018c0.005,0.03,0.003,0.063,0.008,0.094
				L172.727,137.335z"/>
		</g>
	</g>
	<g>
		<path fill="#E58C4A" d="M174.719,128.104c1.49-0.688,2.888-2.204,3.689-4.235c0.801-2.031,0.816-4.093,0.196-5.613l0.053-0.129
			c-0.028,0.012-0.056,0.029-0.084,0.042c-0.012-0.028-0.021-0.059-0.034-0.087l-0.05,0.128c-1.49,0.688-2.887,2.205-3.688,4.235
			c-0.802,2.031-0.817,4.093-0.198,5.613l-0.05,0.128c0.028-0.011,0.056-0.029,0.084-0.041c0.012,0.028,0.02,0.059,0.031,0.087
			L174.719,128.104z"/>
		<g>
			<path fill="#E58C4A" d="M175.733,127.364c0.888,0.327,2.073,0.278,3.228-0.222c1.152-0.5,1.997-1.333,2.364-2.205l0.073-0.031
				c-0.017-0.007-0.035-0.011-0.05-0.017c0.005-0.017,0.015-0.032,0.021-0.049l-0.073,0.032c-0.887-0.327-2.072-0.278-3.226,0.222
				c-1.154,0.501-1.998,1.334-2.366,2.205l-0.072,0.031c0.016,0.007,0.034,0.011,0.051,0.018c-0.007,0.016-0.017,0.032-0.021,0.049
				L175.733,127.364z"/>
			<path fill="#E58C4A" d="M174.434,126.796c0.327-0.887,0.278-2.073-0.224-3.226c-0.5-1.153-1.332-1.999-2.203-2.365l-0.031-0.073
				c-0.007,0.017-0.012,0.035-0.019,0.051c-0.016-0.006-0.032-0.016-0.049-0.021l0.031,0.072c-0.325,0.887-0.276,2.073,0.224,3.226
				s1.334,1.999,2.203,2.366l0.033,0.073c0.006-0.016,0.011-0.034,0.018-0.051c0.015,0.006,0.031,0.016,0.048,0.022L174.434,126.796
				z"/>
		</g>
	</g>
</g>
</svg>
