<?xml version="1.0" encoding="utf-8"?>
<!-- Generator: Adobe Illustrator 16.0.0, SVG Export Plug-In . SVG Version: 6.00 Build 0)  -->
<!DOCTYPE svg PUBLIC "-//W3C//DTD SVG 1.1//EN" "http://www.w3.org/Graphics/SVG/1.1/DTD/svg11.dtd">
<svg version="1.1" id="Calque_1" xmlns="http://www.w3.org/2000/svg" xmlns:xlink="http://www.w3.org/1999/xlink" x="0px" y="0px"
	 width="316.049px" height="314.816px" viewBox="0 0 316.049 314.816" enable-background="new 0 0 316.049 314.816"
	 xml:space="preserve">
<polygon fill="#1D2B40" points="894.057,98.42 903.827,88.608 911.563,100.091 923.013,92.306 928.435,105.045 941.151,99.567 
	944.065,113.102 957.587,110.131 957.886,123.974 971.728,123.613 969.401,137.263 983.062,139.528 978.194,152.49 991.177,157.302 
	983.944,169.108 995.784,176.289 986.448,186.515 996.714,195.804 985.61,204.08 993.932,215.145 981.466,221.167 987.542,233.606 
	974.161,237.162 977.774,250.528 963.962,251.485 964.979,265.294 951.235,263.621 949.62,277.373 936.442,273.126 932.253,286.326 
	920.116,279.664 913.507,291.83 902.849,282.992 894.057,293.687 885.267,282.992 874.608,291.83 867.999,279.664 855.862,286.326 
	851.673,273.126 838.495,277.373 836.88,263.621 823.136,265.294 824.153,251.485 810.341,250.528 813.954,237.162 800.573,233.606 
	806.649,221.167 794.182,215.145 802.505,204.08 791.401,195.804 801.667,186.515 792.331,176.289 804.171,169.108 796.938,157.302 
	809.921,152.49 805.054,139.528 818.714,137.263 816.388,123.613 830.229,123.974 830.528,110.131 844.05,113.102 846.964,99.567 
	859.681,105.045 865.103,92.306 876.552,100.091 884.29,88.608 "/>
<rect x="821.729" y="189.554" fill="none" width="144" height="68.999"/>
<text transform="matrix(1 0 0 1 832.7607 202.8296)" fill="#FFF7DC" font-family="'JosefinSans-Bold'" font-size="17">2000 canards en </text>
<text transform="matrix(1 0 0 1 837.7412 223.229)" fill="#FFF7DC" font-family="'JosefinSans-Bold'" font-size="17">plastique jaunes </text>
<text transform="matrix(1 0 0 1 826.9043 243.6304)" fill="#FFF7DC" font-family="'JosefinSans-Bold'" font-size="17">lâchés dans l’Erdre.</text>
<g>
	<path fill="#E58C4A" d="M909.099,141.341c0.498,0.4,0.832,0.688,1.188,0.95c6.02,4.437,8.35,12.101,5.674,19.018
		c-1.797,4.646-5.435,7.274-10.096,8.53c-4.447,1.199-9.027,1.055-13.571,0.888c-2.52-0.093-5.059-0.392-7.533-0.877
		c-6.235-1.228-10.311-5.05-12.543-10.929c-1.214-3.196-2.215-6.457-2.628-9.858c-0.146-1.213-0.169-2.482,0.012-3.687
		c0.417-2.764,2.437-4.3,5.201-3.902c1.852,0.266,3.708,0.687,5.478,1.29c3.036,1.036,6.01,0.776,9.012-0.003
		c0.211-0.055,0.404-0.181,0.732-0.332c-0.271-0.39-0.472-0.746-0.733-1.049c-6.276-7.244-2.787-18.064,6.535-20.255
		c5.197-1.222,10.943,1.481,13.483,6.342c0.967,1.849,1.46,2.118,3.55,1.961c0.646-0.049,1.303-0.16,1.939-0.095
		c2.533,0.258,3.744,2.002,2.952,4.444c-0.329,1.016-0.96,1.991-1.651,2.82c-1.505,1.803-3.545,2.923-5.602,3.988
		C910.096,140.792,909.704,141.013,909.099,141.341z"/>
	<path fill="none" stroke="#1D2B40" stroke-miterlimit="10" d="M895.836,132.377c0,0,5.623,1.757,7.028-1.757"/>
</g>
<g>
	<polygon fill="#1D2B40" points="148.505,86.42 158.275,76.608 166.011,88.091 177.46,80.306 182.882,93.045 195.599,87.567 
		198.513,101.102 212.034,98.131 212.333,111.974 226.175,111.613 223.849,125.263 237.509,127.528 232.642,140.49 245.624,145.302 
		238.392,157.108 250.232,164.289 240.896,174.515 251.161,183.804 240.058,192.08 248.38,203.146 235.913,209.167 241.989,221.607 
		228.607,225.163 232.222,238.529 218.409,239.486 219.427,253.294 205.683,251.622 204.067,265.374 190.89,261.127 186.7,274.326 
		174.563,267.664 167.954,279.83 157.296,270.992 148.505,281.687 139.714,270.992 129.056,279.83 122.446,267.664 110.31,274.326 
		106.12,261.127 92.941,265.374 91.327,251.622 77.583,253.294 78.601,239.486 64.788,238.529 68.401,225.163 55.021,221.607 
		61.097,209.167 48.63,203.146 56.952,192.08 45.849,183.804 56.114,174.515 46.778,164.289 58.618,157.108 51.386,145.302 
		64.368,140.49 59.501,127.528 73.161,125.263 70.835,111.613 84.677,111.974 84.976,98.131 98.497,101.102 101.411,87.567 
		114.128,93.045 119.55,80.306 130.999,88.091 138.737,76.608 	"/>
	<rect x="76.177" y="177.554" fill="none" width="144" height="69"/>
	<g enable-background="new    ">
		<path fill="#FFF7DC" d="M92.257,189.129h3.673v1.7h-7.854c0.702-0.714,1.382-1.402,2.04-2.065c0.656-0.663,1.24-1.306,1.751-1.93
			c0.51-0.623,0.921-1.229,1.232-1.819c0.312-0.589,0.468-1.155,0.468-1.699c0-0.363-0.066-0.681-0.195-0.952
			c-0.131-0.272-0.293-0.496-0.484-0.672c-0.193-0.176-0.403-0.309-0.63-0.399s-0.437-0.136-0.629-0.136
			c-0.397,0-0.723,0.07-0.978,0.212c-0.255,0.143-0.459,0.31-0.611,0.502c-0.153,0.192-0.258,0.396-0.314,0.612
			c-0.058,0.215-0.086,0.396-0.086,0.544c0,0.374,0.061,0.705,0.179,0.994c0.119,0.289,0.286,0.541,0.501,0.757l-1.036,1.07
			c-0.228-0.112-0.425-0.285-0.595-0.518s-0.314-0.485-0.434-0.757c-0.119-0.272-0.211-0.544-0.272-0.816
			c-0.063-0.271-0.093-0.516-0.093-0.73c0-0.453,0.082-0.896,0.246-1.326s0.404-0.811,0.723-1.139
			c0.316-0.329,0.707-0.593,1.172-0.791s0.998-0.298,1.599-0.298c0.556,0,1.063,0.1,1.521,0.298s0.851,0.465,1.173,0.799
			c0.323,0.335,0.572,0.723,0.748,1.165c0.176,0.441,0.264,0.9,0.264,1.377c0,0.544-0.082,1.07-0.246,1.581
			c-0.165,0.51-0.386,1.011-0.664,1.504c-0.277,0.493-0.604,0.983-0.977,1.471C93.073,188.155,92.676,188.642,92.257,189.129z"/>
		<path fill="#FFF7DC" d="M97.357,185.168c0-0.952,0.124-1.785,0.373-2.499c0.25-0.714,0.587-1.309,1.012-1.785
			c0.425-0.476,0.918-0.83,1.479-1.063c0.562-0.231,1.154-0.349,1.777-0.349c0.68,0,1.303,0.134,1.869,0.4
			c0.566,0.266,1.055,0.648,1.463,1.147c0.408,0.498,0.725,1.104,0.951,1.818s0.334,1.52,0.323,2.414
			c-0.011,0.907-0.136,1.717-0.374,2.432c-0.238,0.714-0.563,1.314-0.977,1.802c-0.414,0.487-0.904,0.858-1.471,1.113
			c-0.567,0.255-1.18,0.383-1.836,0.383c-0.635,0-1.232-0.128-1.794-0.383s-1.048-0.626-1.462-1.113s-0.74-1.094-0.978-1.819
			C97.476,186.943,97.357,186.11,97.357,185.168z M99.107,185.219c0,0.544,0.07,1.061,0.213,1.547
			c0.142,0.488,0.34,0.916,0.595,1.284s0.558,0.663,0.909,0.884s0.726,0.331,1.123,0.331c0.396,0,0.77-0.107,1.121-0.322
			c0.352-0.216,0.658-0.508,0.918-0.876c0.261-0.368,0.468-0.799,0.621-1.292c0.152-0.493,0.229-1.012,0.229-1.556
			c0-0.362-0.042-0.778-0.128-1.249c-0.085-0.471-0.232-0.912-0.441-1.326c-0.211-0.413-0.499-0.765-0.867-1.054
			c-0.369-0.289-0.83-0.434-1.386-0.434c-0.589,0-1.071,0.153-1.444,0.459c-0.375,0.306-0.67,0.671-0.885,1.097
			c-0.215,0.425-0.365,0.869-0.45,1.334S99.107,184.903,99.107,185.219z"/>
		<path fill="#FFF7DC" d="M108.169,185.168c0-0.952,0.124-1.785,0.374-2.499c0.249-0.714,0.586-1.309,1.012-1.785
			c0.424-0.476,0.918-0.83,1.479-1.063c0.561-0.231,1.153-0.349,1.776-0.349c0.681,0,1.304,0.134,1.87,0.4
			c0.566,0.266,1.055,0.648,1.462,1.147c0.408,0.498,0.726,1.104,0.952,1.818s0.334,1.52,0.322,2.414
			c-0.011,0.907-0.135,1.717-0.373,2.432c-0.238,0.714-0.564,1.314-0.978,1.802c-0.414,0.487-0.904,0.858-1.471,1.113
			c-0.567,0.255-1.179,0.383-1.836,0.383c-0.635,0-1.232-0.128-1.794-0.383c-0.561-0.255-1.048-0.626-1.461-1.113
			c-0.414-0.487-0.74-1.094-0.979-1.819C108.287,186.943,108.169,186.11,108.169,185.168z M109.92,185.219
			c0,0.544,0.07,1.061,0.213,1.547c0.141,0.488,0.34,0.916,0.594,1.284c0.256,0.368,0.559,0.663,0.91,0.884s0.725,0.331,1.122,0.331
			c0.396,0,0.771-0.107,1.122-0.322c0.352-0.216,0.657-0.508,0.918-0.876c0.26-0.368,0.467-0.799,0.621-1.292
			c0.152-0.493,0.229-1.012,0.229-1.556c0-0.362-0.042-0.778-0.127-1.249c-0.086-0.471-0.232-0.912-0.442-1.326
			c-0.21-0.413-0.499-0.765-0.866-1.054c-0.369-0.289-0.831-0.434-1.387-0.434c-0.589,0-1.07,0.153-1.444,0.459
			s-0.669,0.671-0.884,1.097c-0.216,0.425-0.365,0.869-0.451,1.334C109.963,184.511,109.92,184.903,109.92,185.219z"/>
		<path fill="#FFF7DC" d="M118.98,185.168c0-0.952,0.125-1.785,0.373-2.499c0.25-0.714,0.588-1.309,1.012-1.785
			c0.426-0.476,0.918-0.83,1.479-1.063c0.562-0.231,1.153-0.349,1.776-0.349c0.68,0,1.303,0.134,1.87,0.4
			c0.566,0.266,1.054,0.648,1.462,1.147c0.408,0.498,0.725,1.104,0.952,1.818c0.227,0.714,0.334,1.52,0.323,2.414
			c-0.012,0.907-0.137,1.717-0.375,2.432c-0.237,0.714-0.563,1.314-0.977,1.802s-0.904,0.858-1.471,1.113s-1.179,0.383-1.836,0.383
			c-0.635,0-1.232-0.128-1.793-0.383c-0.562-0.255-1.049-0.626-1.463-1.113s-0.739-1.094-0.977-1.819
			C119.1,186.943,118.98,186.11,118.98,185.168z M120.731,185.219c0,0.544,0.07,1.061,0.212,1.547
			c0.143,0.488,0.34,0.916,0.596,1.284c0.255,0.368,0.558,0.663,0.909,0.884c0.351,0.221,0.726,0.331,1.122,0.331
			s0.771-0.107,1.122-0.322c0.351-0.216,0.657-0.508,0.918-0.876s0.468-0.799,0.62-1.292c0.153-0.493,0.23-1.012,0.23-1.556
			c0-0.362-0.043-0.778-0.129-1.249c-0.084-0.471-0.232-0.912-0.441-1.326c-0.21-0.413-0.498-0.765-0.867-1.054
			c-0.368-0.289-0.83-0.434-1.385-0.434c-0.59,0-1.071,0.153-1.445,0.459s-0.669,0.671-0.885,1.097
			c-0.215,0.425-0.365,0.869-0.449,1.334C120.773,184.511,120.731,184.903,120.731,185.219z"/>
		<path fill="#FFF7DC" d="M138.717,188.943c0.17,0.215,0.334,0.422,0.494,0.62c0.158,0.198,0.322,0.399,0.492,0.604
			c-0.328,0.261-0.697,0.468-1.105,0.62c-0.407,0.153-0.844,0.229-1.309,0.229c-0.533,0-1.034-0.099-1.504-0.297
			c-0.471-0.198-0.879-0.471-1.225-0.816s-0.62-0.75-0.824-1.215s-0.307-0.958-0.307-1.479s0.103-1.012,0.307-1.471
			s0.479-0.861,0.824-1.207s0.754-0.617,1.225-0.815c0.47-0.198,0.971-0.298,1.504-0.298c0.477,0,0.921,0.076,1.334,0.229
			c0.414,0.153,0.791,0.36,1.131,0.621l-1.037,1.206c-0.396-0.306-0.873-0.459-1.428-0.459c-0.328,0-0.629,0.058-0.9,0.171
			c-0.272,0.113-0.508,0.266-0.706,0.459c-0.198,0.192-0.351,0.422-0.459,0.688c-0.108,0.266-0.161,0.558-0.161,0.875
			c0,0.306,0.053,0.593,0.161,0.858c0.108,0.267,0.261,0.502,0.459,0.706s0.434,0.362,0.706,0.476c0.271,0.113,0.572,0.17,0.9,0.17
			C137.855,189.418,138.332,189.26,138.717,188.943z"/>
		<path fill="#FFF7DC" d="M140.4,187.293c0-0.521,0.102-1.017,0.306-1.487s0.479-0.881,0.824-1.232s0.748-0.632,1.207-0.842
			c0.459-0.209,0.944-0.314,1.454-0.314c0.34,0,0.646,0.043,0.918,0.128c0.271,0.085,0.507,0.184,0.705,0.297
			s0.354,0.229,0.467,0.349s0.188,0.213,0.222,0.28l0.067-0.866h1.582v7.225h-1.649v-0.476c0-0.057,0.003-0.111,0.009-0.162
			s0.008-0.088,0.008-0.11c-0.045,0.057-0.125,0.139-0.238,0.246c-0.113,0.108-0.266,0.213-0.459,0.315
			c-0.192,0.102-0.422,0.189-0.688,0.263c-0.267,0.074-0.576,0.11-0.927,0.11c-0.556,0-1.065-0.102-1.53-0.306
			s-0.867-0.476-1.207-0.815c-0.34-0.341-0.604-0.734-0.79-1.182C140.494,188.265,140.4,187.792,140.4,187.293z M142.049,187.192
			c0,0.317,0.054,0.611,0.162,0.884c0.107,0.271,0.26,0.507,0.459,0.705c0.197,0.199,0.434,0.354,0.705,0.468s0.572,0.17,0.9,0.17
			c0.329,0,0.629-0.057,0.901-0.17s0.507-0.271,0.706-0.476c0.197-0.204,0.351-0.442,0.459-0.715
			c0.107-0.271,0.161-0.561,0.161-0.866c0-0.307-0.054-0.593-0.161-0.858c-0.108-0.267-0.262-0.496-0.459-0.688
			c-0.199-0.193-0.434-0.346-0.706-0.459s-0.572-0.171-0.901-0.171c-0.328,0-0.629,0.055-0.9,0.162s-0.508,0.261-0.705,0.459
			c-0.199,0.198-0.352,0.431-0.459,0.697C142.103,186.599,142.049,186.885,142.049,187.192z"/>
		<path fill="#FFF7DC" d="M150.158,183.605h1.428c0.022,0.407,0.048,0.739,0.076,0.994s0.054,0.541,0.076,0.858
			c0.262-0.612,0.629-1.104,1.105-1.479s1.07-0.562,1.785-0.562c0.736,0,1.322,0.201,1.76,0.604
			c0.436,0.402,0.665,0.927,0.688,1.572v5.236h-1.614v-4.471c-0.022-0.352-0.147-0.655-0.374-0.91s-0.578-0.394-1.055-0.416
			c-0.328,0-0.631,0.06-0.908,0.179c-0.278,0.119-0.517,0.28-0.715,0.484s-0.352,0.447-0.459,0.73
			c-0.107,0.284-0.162,0.59-0.162,0.918v3.485h-1.631V183.605z"/>
		<path fill="#FFF7DC" d="M158.572,187.293c0-0.521,0.103-1.017,0.307-1.487s0.479-0.881,0.824-1.232s0.748-0.632,1.207-0.842
			c0.459-0.209,0.943-0.314,1.453-0.314c0.34,0,0.646,0.043,0.918,0.128c0.272,0.085,0.508,0.184,0.706,0.297
			s0.354,0.229,0.468,0.349s0.187,0.213,0.221,0.28l0.068-0.866h1.58v7.225h-1.648v-0.476c0-0.057,0.002-0.111,0.008-0.162
			s0.01-0.088,0.01-0.11c-0.046,0.057-0.125,0.139-0.238,0.246c-0.113,0.108-0.267,0.213-0.459,0.315
			c-0.193,0.102-0.423,0.189-0.689,0.263c-0.266,0.074-0.574,0.11-0.926,0.11c-0.556,0-1.065-0.102-1.53-0.306
			s-0.866-0.476-1.206-0.815c-0.341-0.341-0.604-0.734-0.791-1.182C158.666,188.265,158.572,187.792,158.572,187.293z
			 M160.222,187.192c0,0.317,0.054,0.611,0.161,0.884c0.107,0.271,0.262,0.507,0.459,0.705c0.199,0.199,0.434,0.354,0.706,0.468
			s0.572,0.17,0.901,0.17c0.328,0,0.629-0.057,0.9-0.17s0.508-0.271,0.705-0.476c0.199-0.204,0.352-0.442,0.459-0.715
			c0.108-0.271,0.162-0.561,0.162-0.866c0-0.307-0.054-0.593-0.162-0.858c-0.107-0.267-0.26-0.496-0.459-0.688
			c-0.197-0.193-0.434-0.346-0.705-0.459s-0.572-0.171-0.9-0.171c-0.329,0-0.629,0.055-0.901,0.162s-0.507,0.261-0.706,0.459
			c-0.197,0.198-0.352,0.431-0.459,0.697C160.275,186.599,160.222,186.885,160.222,187.192z"/>
		<path fill="#FFF7DC" d="M172.377,185.526c-0.318,0-0.621,0.04-0.91,0.119s-0.543,0.201-0.765,0.365s-0.399,0.368-0.536,0.612
			c-0.135,0.243-0.203,0.529-0.203,0.858v3.349h-1.633v-7.225h1.429c0.022,0.407,0.048,0.739,0.076,0.994s0.054,0.541,0.077,0.858
			c0.146-0.317,0.346-0.601,0.595-0.85s0.507-0.462,0.773-0.638s0.529-0.312,0.79-0.408c0.261-0.096,0.482-0.145,0.663-0.145
			L172.377,185.526z"/>
		<path fill="#FFF7DC" d="M173.261,187.226c0-0.567,0.093-1.083,0.28-1.548c0.188-0.464,0.447-0.863,0.782-1.198
			c0.334-0.334,0.726-0.595,1.173-0.782c0.447-0.187,0.938-0.28,1.471-0.28c0.362,0,0.68,0.04,0.952,0.119s0.504,0.176,0.696,0.289
			c0.193,0.113,0.35,0.235,0.468,0.365c0.119,0.131,0.213,0.241,0.28,0.332v-6.971h1.633v13.277h-1.633v-0.476
			c0-0.057,0.006-0.119,0.018-0.188s0.018-0.119,0.018-0.153c-0.103,0.103-0.228,0.213-0.375,0.332
			c-0.146,0.119-0.322,0.229-0.527,0.331c-0.203,0.103-0.434,0.185-0.688,0.247c-0.256,0.062-0.547,0.093-0.876,0.093
			c-0.578,0-1.097-0.099-1.556-0.297s-0.844-0.471-1.156-0.816c-0.312-0.346-0.549-0.748-0.713-1.207
			C173.343,188.237,173.261,187.747,173.261,187.226z M174.893,187.192c0,0.317,0.054,0.611,0.162,0.884
			c0.107,0.271,0.26,0.507,0.459,0.705c0.197,0.199,0.434,0.354,0.705,0.468s0.572,0.17,0.9,0.17c0.329,0,0.633-0.057,0.91-0.17
			s0.516-0.271,0.714-0.476s0.351-0.442,0.459-0.715c0.107-0.271,0.161-0.561,0.161-0.866c0-0.307-0.054-0.593-0.161-0.858
			c-0.108-0.267-0.261-0.496-0.459-0.688c-0.198-0.193-0.437-0.346-0.714-0.459s-0.581-0.171-0.91-0.171
			c-0.328,0-0.629,0.055-0.9,0.162s-0.508,0.261-0.705,0.459c-0.199,0.198-0.352,0.431-0.459,0.697
			C174.946,186.599,174.893,186.885,174.893,187.192z"/>
		<path fill="#FFF7DC" d="M187.115,184.25c-0.068,0.103-0.15,0.219-0.246,0.349c-0.097,0.131-0.189,0.252-0.281,0.365
			c-0.09,0.113-0.197,0.255-0.322,0.425c-0.113-0.079-0.225-0.142-0.332-0.187s-0.232-0.088-0.373-0.128
			c-0.143-0.039-0.287-0.06-0.434-0.06c-0.159,0-0.326,0.037-0.502,0.111c-0.176,0.073-0.264,0.224-0.264,0.45
			c0,0.192,0.076,0.354,0.229,0.484c0.153,0.131,0.341,0.249,0.562,0.357c0.221,0.107,0.465,0.218,0.73,0.331
			c0.267,0.113,0.51,0.255,0.731,0.425c0.221,0.17,0.407,0.383,0.561,0.638s0.229,0.569,0.229,0.943
			c0,0.329-0.059,0.629-0.178,0.901c-0.119,0.271-0.289,0.504-0.511,0.697c-0.221,0.192-0.484,0.346-0.79,0.459
			c-0.307,0.112-0.652,0.17-1.037,0.17c-0.465,0-0.916-0.08-1.352-0.238c-0.437-0.158-0.779-0.385-1.029-0.68
			c0.08-0.091,0.176-0.204,0.289-0.341c0.113-0.136,0.222-0.266,0.324-0.391c0.102-0.124,0.227-0.271,0.373-0.442
			c0-0.011,0.037,0.009,0.111,0.06c0.073,0.052,0.172,0.111,0.297,0.179c0.125,0.068,0.271,0.131,0.442,0.188
			c0.17,0.057,0.345,0.085,0.526,0.085c0.283,0,0.502-0.063,0.654-0.188c0.154-0.124,0.23-0.277,0.23-0.459
			c0-0.181-0.076-0.328-0.23-0.441c-0.152-0.113-0.34-0.219-0.561-0.314c-0.221-0.097-0.465-0.201-0.73-0.314
			c-0.267-0.113-0.51-0.256-0.731-0.426c-0.221-0.17-0.407-0.388-0.562-0.654c-0.152-0.266-0.229-0.604-0.229-1.012
			c0-0.407,0.073-0.748,0.221-1.02c0.146-0.272,0.337-0.493,0.569-0.663s0.484-0.292,0.757-0.365c0.271-0.074,0.538-0.11,0.799-0.11
			c0.352,0,0.717,0.07,1.097,0.212S186.854,183.99,187.115,184.25z"/>
		<path fill="#FFF7DC" d="M199.032,189.997c-0.352,0.317-0.776,0.566-1.274,0.748c-0.5,0.181-1.01,0.271-1.531,0.271
			c-0.532,0-1.033-0.099-1.504-0.297s-0.879-0.471-1.225-0.816s-0.619-0.748-0.824-1.207c-0.203-0.459-0.306-0.949-0.306-1.47
			c0-0.521,0.103-1.012,0.306-1.471c0.205-0.459,0.479-0.861,0.824-1.207s0.748-0.618,1.207-0.816s0.944-0.297,1.454-0.297
			c0.815,0,1.532,0.246,2.15,0.739s1.057,1.142,1.317,1.946c-0.34,0.125-0.734,0.275-1.182,0.45
			c-0.447,0.176-0.915,0.36-1.402,0.553c-0.487,0.193-0.975,0.389-1.462,0.587s-0.935,0.377-1.343,0.535
			c0.192,0.352,0.459,0.635,0.799,0.85c0.34,0.216,0.725,0.323,1.156,0.323c0.295,0,0.592-0.054,0.893-0.161
			c0.3-0.107,0.547-0.252,0.739-0.434L199.032,189.997z M197.604,185.747c-0.135-0.249-0.34-0.434-0.611-0.553
			s-0.539-0.179-0.799-0.179c-0.307,0-0.596,0.06-0.867,0.179s-0.504,0.278-0.697,0.477c-0.192,0.198-0.346,0.425-0.459,0.68
			s-0.17,0.519-0.17,0.79v0.068c0.283-0.113,0.587-0.235,0.91-0.365c0.322-0.13,0.646-0.264,0.969-0.399
			c0.322-0.137,0.631-0.264,0.926-0.383S197.366,185.837,197.604,185.747z"/>
		<path fill="#FFF7DC" d="M200.885,183.605h1.429c0.022,0.407,0.048,0.739,0.076,0.994s0.054,0.541,0.077,0.858
			c0.26-0.612,0.629-1.104,1.104-1.479s1.071-0.562,1.785-0.562c0.736,0,1.323,0.201,1.759,0.604
			c0.437,0.402,0.666,0.927,0.689,1.572v5.236h-1.615v-4.471c-0.023-0.352-0.147-0.655-0.374-0.91
			c-0.228-0.255-0.578-0.394-1.054-0.416c-0.329,0-0.633,0.06-0.91,0.179s-0.516,0.28-0.714,0.484s-0.351,0.447-0.459,0.73
			c-0.108,0.284-0.161,0.59-0.161,0.918v3.485h-1.633V183.605z"/>
	</g>
	<g enable-background="new    ">
		<path fill="#FFF7DC" d="M100.927,207.643c0,0.544-0.091,1.046-0.272,1.505c-0.181,0.459-0.438,0.858-0.773,1.198
			c-0.334,0.34-0.733,0.604-1.197,0.79c-0.465,0.188-0.976,0.28-1.531,0.28c-0.555,0-1.045-0.104-1.47-0.314
			c-0.425-0.209-0.718-0.433-0.876-0.671c0,0.045,0.003,0.088,0.009,0.127c0.005,0.04,0.009,0.088,0.009,0.145v3.995h-1.633v-10.692
			h1.564c0,0.158,0.012,0.317,0.034,0.476c0.022,0.159,0.034,0.306,0.034,0.442c0.09-0.113,0.207-0.235,0.348-0.366
			c0.143-0.13,0.314-0.249,0.52-0.356c0.203-0.107,0.434-0.198,0.688-0.272c0.256-0.073,0.536-0.11,0.842-0.11
			c0.555,0,1.061,0.088,1.514,0.264s0.842,0.431,1.164,0.765c0.323,0.335,0.575,0.737,0.756,1.207
			C100.836,206.524,100.927,207.054,100.927,207.643z M99.159,207.609c0-0.635-0.185-1.158-0.553-1.572s-0.882-0.621-1.538-0.621
			c-0.329,0-0.629,0.055-0.901,0.162s-0.507,0.261-0.706,0.459c-0.197,0.198-0.354,0.431-0.467,0.697
			c-0.113,0.266-0.17,0.552-0.17,0.858c0,0.317,0.057,0.611,0.17,0.884c0.113,0.271,0.27,0.507,0.467,0.705
			c0.199,0.199,0.434,0.354,0.706,0.468s0.572,0.17,0.901,0.17c0.328,0,0.623-0.057,0.884-0.17s0.479-0.271,0.654-0.476
			s0.312-0.439,0.408-0.706C99.111,208.202,99.159,207.915,99.159,207.609z"/>
		<path fill="#FFF7DC" d="M104.105,211.23h-1.615v-13.277h1.615V211.23z"/>
		<path fill="#FFF7DC" d="M105.652,207.694c0-0.521,0.103-1.017,0.307-1.487s0.479-0.881,0.824-1.232s0.748-0.632,1.207-0.842
			c0.459-0.209,0.943-0.314,1.453-0.314c0.34,0,0.646,0.043,0.918,0.128c0.272,0.085,0.508,0.184,0.706,0.297
			s0.354,0.229,0.468,0.349s0.187,0.213,0.221,0.28l0.068-0.866h1.58v7.225h-1.648v-0.476c0-0.057,0.002-0.111,0.008-0.162
			s0.01-0.088,0.01-0.11c-0.046,0.057-0.125,0.139-0.238,0.246c-0.113,0.108-0.267,0.213-0.459,0.315
			c-0.193,0.102-0.423,0.189-0.689,0.263c-0.266,0.074-0.574,0.11-0.926,0.11c-0.556,0-1.065-0.102-1.53-0.306
			s-0.866-0.476-1.206-0.815c-0.341-0.341-0.604-0.734-0.791-1.182C105.746,208.666,105.652,208.193,105.652,207.694z
			 M107.302,207.592c0,0.317,0.054,0.611,0.161,0.884c0.107,0.271,0.262,0.507,0.459,0.705c0.199,0.199,0.434,0.354,0.706,0.468
			s0.572,0.17,0.901,0.17c0.328,0,0.629-0.057,0.9-0.17s0.508-0.271,0.705-0.476c0.199-0.204,0.352-0.442,0.459-0.715
			c0.108-0.271,0.162-0.561,0.162-0.866c0-0.307-0.054-0.593-0.162-0.858c-0.107-0.267-0.26-0.496-0.459-0.688
			c-0.197-0.193-0.434-0.346-0.705-0.459s-0.572-0.171-0.9-0.171c-0.329,0-0.629,0.055-0.901,0.162s-0.507,0.261-0.706,0.459
			c-0.197,0.198-0.352,0.431-0.459,0.697C107.355,207,107.302,207.286,107.302,207.592z"/>
		<path fill="#FFF7DC" d="M119.525,204.651c-0.068,0.103-0.15,0.219-0.247,0.349c-0.097,0.131-0.19,0.252-0.28,0.365
			c-0.092,0.113-0.199,0.255-0.323,0.425c-0.113-0.079-0.224-0.142-0.331-0.187c-0.108-0.045-0.232-0.088-0.375-0.128
			c-0.142-0.039-0.285-0.06-0.434-0.06c-0.158,0-0.325,0.037-0.501,0.111c-0.176,0.073-0.264,0.224-0.264,0.45
			c0,0.192,0.077,0.354,0.229,0.484c0.153,0.131,0.34,0.249,0.561,0.357c0.222,0.107,0.465,0.218,0.731,0.331
			s0.511,0.255,0.731,0.425s0.408,0.383,0.561,0.638c0.153,0.255,0.229,0.569,0.229,0.943c0,0.329-0.06,0.629-0.179,0.901
			c-0.119,0.271-0.289,0.504-0.51,0.697c-0.221,0.192-0.484,0.346-0.791,0.459c-0.305,0.112-0.65,0.17-1.036,0.17
			c-0.465,0-0.915-0.08-1.352-0.238s-0.779-0.385-1.028-0.68c0.079-0.091,0.176-0.204,0.289-0.341
			c0.113-0.136,0.221-0.266,0.322-0.391c0.103-0.124,0.227-0.271,0.375-0.442c0-0.011,0.036,0.009,0.109,0.06
			c0.074,0.052,0.174,0.111,0.298,0.179c0.125,0.068,0.272,0.131,0.442,0.188s0.346,0.085,0.527,0.085
			c0.283,0,0.501-0.063,0.654-0.188c0.152-0.124,0.229-0.277,0.229-0.459c0-0.181-0.076-0.328-0.229-0.441
			c-0.153-0.113-0.34-0.219-0.562-0.314c-0.221-0.097-0.465-0.201-0.731-0.314c-0.266-0.113-0.51-0.256-0.73-0.426
			s-0.408-0.388-0.561-0.654c-0.153-0.266-0.23-0.604-0.23-1.012c0-0.407,0.074-0.748,0.222-1.02
			c0.147-0.272,0.337-0.493,0.569-0.663s0.484-0.292,0.757-0.365c0.272-0.074,0.538-0.11,0.799-0.11c0.351,0,0.717,0.07,1.097,0.212
			C118.943,204.189,119.264,204.39,119.525,204.651z"/>
		<path fill="#FFF7DC" d="M122.023,200.843h1.615v3.162h1.887v1.462h-1.887v5.763h-1.615v-5.763H120.8v-1.462h1.224V200.843z"/>
		<path fill="#FFF7DC" d="M126.545,201.2c0-0.294,0.107-0.538,0.324-0.73c0.215-0.192,0.447-0.289,0.696-0.289
			s0.479,0.097,0.688,0.289c0.209,0.192,0.314,0.437,0.314,0.73c0,0.307-0.105,0.553-0.314,0.74c-0.21,0.187-0.439,0.28-0.688,0.28
			s-0.481-0.094-0.696-0.28C126.652,201.752,126.545,201.506,126.545,201.2z M128.364,211.23h-1.632v-7.225h1.632V211.23z"/>
		<path fill="#FFF7DC" d="M129.928,207.626c0-0.567,0.094-1.083,0.281-1.548c0.187-0.464,0.447-0.863,0.781-1.198
			c0.334-0.334,0.726-0.595,1.174-0.782c0.447-0.187,0.938-0.28,1.471-0.28c0.361,0,0.68,0.04,0.951,0.119
			c0.272,0.079,0.504,0.176,0.697,0.289c0.192,0.113,0.349,0.235,0.467,0.365c0.119,0.131,0.213,0.241,0.281,0.332
			c0-0.137,0.012-0.283,0.034-0.442c0.022-0.158,0.034-0.317,0.034-0.476h1.563v10.692h-1.632v-3.943
			c0-0.057,0.006-0.119,0.018-0.188c0.011-0.068,0.017-0.119,0.017-0.153c-0.103,0.103-0.228,0.213-0.374,0.332
			c-0.147,0.119-0.323,0.229-0.527,0.331c-0.204,0.103-0.434,0.185-0.688,0.247c-0.255,0.062-0.547,0.093-0.876,0.093
			c-0.578,0-1.096-0.099-1.555-0.297s-0.845-0.471-1.156-0.816c-0.313-0.346-0.55-0.748-0.714-1.207
			C130.01,208.637,129.928,208.147,129.928,207.626z M131.561,207.592c0,0.317,0.053,0.611,0.161,0.884
			c0.107,0.271,0.261,0.507,0.459,0.705c0.198,0.199,0.434,0.354,0.706,0.468c0.271,0.113,0.572,0.17,0.9,0.17
			s0.632-0.057,0.91-0.17c0.277-0.113,0.516-0.271,0.713-0.476c0.199-0.204,0.352-0.442,0.459-0.715
			c0.107-0.271,0.162-0.561,0.162-0.866c0-0.307-0.055-0.593-0.162-0.858c-0.107-0.267-0.26-0.496-0.459-0.688
			c-0.197-0.193-0.436-0.346-0.713-0.459c-0.278-0.113-0.582-0.171-0.91-0.171s-0.629,0.055-0.9,0.162
			c-0.272,0.107-0.508,0.261-0.706,0.459s-0.352,0.431-0.459,0.697C131.613,207,131.561,207.286,131.561,207.592z"/>
		<path fill="#FFF7DC" d="M146.537,211.4h-1.359l-0.204-2.006c-0.261,0.578-0.62,1.057-1.079,1.437s-1.063,0.569-1.811,0.569
			s-1.341-0.195-1.777-0.586c-0.436-0.392-0.666-0.91-0.688-1.556v-5.253h1.631v4.487c0.023,0.352,0.145,0.649,0.366,0.893
			c0.221,0.244,0.575,0.377,1.063,0.399c0.329,0,0.629-0.057,0.901-0.17c0.271-0.113,0.506-0.271,0.705-0.476
			c0.198-0.204,0.354-0.448,0.467-0.731s0.17-0.589,0.17-0.918v-3.484h1.615V211.4z"/>
		<path fill="#FFF7DC" d="M154.748,210.397c-0.352,0.317-0.776,0.566-1.275,0.748c-0.498,0.181-1.008,0.271-1.529,0.271
			c-0.533,0-1.035-0.099-1.505-0.297s-0.878-0.471-1.224-0.816s-0.621-0.748-0.824-1.207c-0.205-0.459-0.307-0.949-0.307-1.47
			c0-0.521,0.102-1.012,0.307-1.471c0.203-0.459,0.479-0.861,0.824-1.207s0.748-0.618,1.207-0.816s0.943-0.297,1.453-0.297
			c0.816,0,1.533,0.246,2.15,0.739s1.057,1.142,1.318,1.946c-0.341,0.125-0.734,0.275-1.182,0.45
			c-0.448,0.176-0.916,0.36-1.402,0.553c-0.488,0.193-0.976,0.389-1.463,0.587s-0.936,0.377-1.343,0.535
			c0.192,0.352,0.459,0.635,0.799,0.85c0.341,0.216,0.726,0.323,1.156,0.323c0.294,0,0.592-0.054,0.893-0.161
			c0.3-0.107,0.546-0.252,0.739-0.434L154.748,210.397z M153.32,206.147c-0.137-0.249-0.34-0.434-0.612-0.553
			s-0.538-0.179-0.799-0.179c-0.306,0-0.595,0.06-0.867,0.179s-0.505,0.278-0.696,0.477c-0.193,0.198-0.347,0.425-0.459,0.68
			c-0.114,0.255-0.171,0.519-0.171,0.79v0.068c0.283-0.113,0.587-0.235,0.909-0.365c0.324-0.13,0.646-0.264,0.97-0.399
			c0.323-0.137,0.632-0.264,0.927-0.383C152.815,206.342,153.082,206.238,153.32,206.147z"/>
		<path fill="#FFF7DC" d="M160.563,214.715c-0.193-0.216-0.383-0.42-0.57-0.612c-0.187-0.193-0.371-0.396-0.553-0.612
			c0.329-0.261,0.584-0.581,0.766-0.96c0.182-0.38,0.271-0.836,0.271-1.369v-7.156h1.633v7.225c0,0.782-0.139,1.462-0.417,2.04
			S161.038,214.33,160.563,214.715z M160.342,201.2c0-0.294,0.104-0.538,0.314-0.73c0.209-0.192,0.443-0.289,0.705-0.289
			c0.249,0,0.476,0.097,0.68,0.289s0.307,0.437,0.307,0.73c0,0.307-0.103,0.553-0.307,0.74c-0.204,0.187-0.431,0.28-0.68,0.28
			c-0.262,0-0.496-0.094-0.705-0.28C160.445,201.752,160.342,201.506,160.342,201.2z"/>
		<path fill="#FFF7DC" d="M163.656,207.694c0-0.521,0.102-1.017,0.306-1.487s0.479-0.881,0.824-1.232s0.748-0.632,1.207-0.842
			c0.459-0.209,0.944-0.314,1.454-0.314c0.34,0,0.646,0.043,0.918,0.128c0.271,0.085,0.507,0.184,0.705,0.297
			s0.354,0.229,0.467,0.349s0.188,0.213,0.222,0.28l0.067-0.866h1.582v7.225h-1.649v-0.476c0-0.057,0.003-0.111,0.009-0.162
			s0.008-0.088,0.008-0.11c-0.045,0.057-0.125,0.139-0.238,0.246c-0.113,0.108-0.266,0.213-0.459,0.315
			c-0.192,0.102-0.422,0.189-0.688,0.263c-0.267,0.074-0.576,0.11-0.927,0.11c-0.556,0-1.065-0.102-1.53-0.306
			s-0.867-0.476-1.207-0.815c-0.34-0.341-0.604-0.734-0.79-1.182C163.75,208.666,163.656,208.193,163.656,207.694z M165.305,207.592
			c0,0.317,0.054,0.611,0.162,0.884c0.107,0.271,0.26,0.507,0.459,0.705c0.197,0.199,0.434,0.354,0.705,0.468s0.572,0.17,0.9,0.17
			c0.329,0,0.629-0.057,0.901-0.17s0.507-0.271,0.706-0.476c0.197-0.204,0.351-0.442,0.459-0.715
			c0.107-0.271,0.161-0.561,0.161-0.866c0-0.307-0.054-0.593-0.161-0.858c-0.108-0.267-0.262-0.496-0.459-0.688
			c-0.199-0.193-0.434-0.346-0.706-0.459s-0.572-0.171-0.901-0.171c-0.328,0-0.629,0.055-0.9,0.162s-0.508,0.261-0.705,0.459
			c-0.199,0.198-0.352,0.431-0.459,0.697C165.358,207,165.305,207.286,165.305,207.592z"/>
		<path fill="#FFF7DC" d="M180.281,211.4h-1.359l-0.204-2.006c-0.261,0.578-0.62,1.057-1.079,1.437s-1.063,0.569-1.811,0.569
			s-1.341-0.195-1.777-0.586c-0.436-0.392-0.666-0.91-0.688-1.556v-5.253h1.631v4.487c0.023,0.352,0.145,0.649,0.366,0.893
			c0.221,0.244,0.575,0.377,1.063,0.399c0.329,0,0.629-0.057,0.901-0.17c0.271-0.113,0.506-0.271,0.705-0.476
			c0.198-0.204,0.354-0.448,0.467-0.731s0.17-0.589,0.17-0.918v-3.484h1.615V211.4z"/>
		<path fill="#FFF7DC" d="M182.287,204.005h1.429c0.022,0.407,0.048,0.739,0.076,0.994s0.054,0.541,0.077,0.858
			c0.26-0.612,0.629-1.104,1.104-1.479s1.071-0.562,1.785-0.562c0.736,0,1.323,0.201,1.759,0.604
			c0.437,0.402,0.666,0.927,0.689,1.572v5.236h-1.615v-4.471c-0.023-0.352-0.147-0.655-0.374-0.91
			c-0.228-0.255-0.578-0.394-1.054-0.416c-0.329,0-0.633,0.06-0.91,0.179s-0.516,0.28-0.714,0.484s-0.351,0.447-0.459,0.73
			c-0.108,0.284-0.161,0.59-0.161,0.918v3.485h-1.633V204.005z"/>
		<path fill="#FFF7DC" d="M197.366,210.397c-0.352,0.317-0.776,0.566-1.274,0.748c-0.5,0.181-1.01,0.271-1.531,0.271
			c-0.532,0-1.033-0.099-1.504-0.297s-0.879-0.471-1.225-0.816s-0.619-0.748-0.824-1.207c-0.203-0.459-0.306-0.949-0.306-1.47
			c0-0.521,0.103-1.012,0.306-1.471c0.205-0.459,0.479-0.861,0.824-1.207s0.748-0.618,1.207-0.816s0.944-0.297,1.454-0.297
			c0.815,0,1.532,0.246,2.15,0.739s1.057,1.142,1.317,1.946c-0.34,0.125-0.734,0.275-1.182,0.45
			c-0.447,0.176-0.915,0.36-1.402,0.553c-0.487,0.193-0.975,0.389-1.462,0.587s-0.935,0.377-1.343,0.535
			c0.192,0.352,0.459,0.635,0.799,0.85c0.34,0.216,0.725,0.323,1.156,0.323c0.295,0,0.592-0.054,0.893-0.161
			c0.3-0.107,0.547-0.252,0.739-0.434L197.366,210.397z M195.938,206.147c-0.135-0.249-0.34-0.434-0.611-0.553
			s-0.539-0.179-0.799-0.179c-0.307,0-0.596,0.06-0.867,0.179s-0.504,0.278-0.697,0.477c-0.192,0.198-0.346,0.425-0.459,0.68
			s-0.17,0.519-0.17,0.79v0.068c0.283-0.113,0.587-0.235,0.91-0.365c0.322-0.13,0.646-0.264,0.969-0.399
			c0.322-0.137,0.631-0.264,0.926-0.383S195.7,206.238,195.938,206.147z"/>
		<path fill="#FFF7DC" d="M203.334,204.651c-0.068,0.103-0.15,0.219-0.247,0.349c-0.097,0.131-0.19,0.252-0.28,0.365
			c-0.092,0.113-0.199,0.255-0.323,0.425c-0.113-0.079-0.224-0.142-0.331-0.187c-0.108-0.045-0.232-0.088-0.375-0.128
			c-0.142-0.039-0.285-0.06-0.434-0.06c-0.158,0-0.325,0.037-0.501,0.111c-0.176,0.073-0.264,0.224-0.264,0.45
			c0,0.192,0.077,0.354,0.229,0.484c0.153,0.131,0.34,0.249,0.561,0.357c0.222,0.107,0.465,0.218,0.731,0.331
			s0.511,0.255,0.731,0.425s0.408,0.383,0.561,0.638c0.153,0.255,0.229,0.569,0.229,0.943c0,0.329-0.06,0.629-0.179,0.901
			c-0.119,0.271-0.289,0.504-0.51,0.697c-0.221,0.192-0.484,0.346-0.791,0.459c-0.305,0.112-0.65,0.17-1.036,0.17
			c-0.465,0-0.915-0.08-1.352-0.238s-0.779-0.385-1.028-0.68c0.079-0.091,0.176-0.204,0.289-0.341
			c0.113-0.136,0.221-0.266,0.322-0.391c0.103-0.124,0.227-0.271,0.375-0.442c0-0.011,0.036,0.009,0.109,0.06
			c0.074,0.052,0.174,0.111,0.298,0.179c0.125,0.068,0.272,0.131,0.442,0.188s0.346,0.085,0.527,0.085
			c0.283,0,0.501-0.063,0.654-0.188c0.152-0.124,0.229-0.277,0.229-0.459c0-0.181-0.076-0.328-0.229-0.441
			c-0.153-0.113-0.34-0.219-0.562-0.314c-0.221-0.097-0.465-0.201-0.731-0.314c-0.266-0.113-0.51-0.256-0.73-0.426
			s-0.408-0.388-0.561-0.654c-0.153-0.266-0.23-0.604-0.23-1.012c0-0.407,0.074-0.748,0.222-1.02
			c0.147-0.272,0.337-0.493,0.569-0.663s0.484-0.292,0.757-0.365c0.272-0.074,0.538-0.11,0.799-0.11c0.351,0,0.717,0.07,1.097,0.212
			C202.752,204.189,203.072,204.39,203.334,204.651z"/>
	</g>
	<g enable-background="new    ">
		<path fill="#FFF7DC" d="M83.97,231.63h-1.615v-13.277h1.615V231.63z"/>
		<path fill="#FFF7DC" d="M85.5,228.094c0-0.521,0.102-1.017,0.306-1.487s0.479-0.881,0.825-1.232
			c0.345-0.352,0.747-0.632,1.206-0.842c0.46-0.209,0.944-0.314,1.454-0.314c0.34,0,0.646,0.043,0.918,0.128
			c0.271,0.085,0.507,0.184,0.705,0.297s0.354,0.229,0.468,0.349c0.112,0.119,0.187,0.213,0.221,0.28l0.068-0.866h1.581v7.225
			h-1.649v-0.476c0-0.057,0.003-0.111,0.009-0.162s0.008-0.088,0.008-0.11c-0.045,0.057-0.125,0.139-0.237,0.246
			c-0.114,0.108-0.267,0.213-0.459,0.315c-0.192,0.102-0.423,0.189-0.688,0.263c-0.267,0.074-0.576,0.11-0.927,0.11
			c-0.556,0-1.065-0.102-1.53-0.306s-0.867-0.476-1.207-0.815c-0.34-0.341-0.604-0.734-0.79-1.182
			C85.594,229.066,85.5,228.593,85.5,228.094z M87.148,227.993c0,0.317,0.054,0.611,0.162,0.884c0.107,0.271,0.26,0.507,0.459,0.705
			c0.197,0.199,0.434,0.354,0.705,0.468s0.572,0.17,0.9,0.17c0.329,0,0.63-0.057,0.902-0.17c0.271-0.113,0.506-0.271,0.705-0.476
			c0.197-0.204,0.352-0.442,0.459-0.715c0.107-0.271,0.161-0.561,0.161-0.866c0-0.307-0.054-0.593-0.161-0.858
			c-0.107-0.267-0.262-0.496-0.459-0.688c-0.199-0.193-0.434-0.346-0.705-0.459c-0.272-0.113-0.573-0.171-0.902-0.171
			c-0.328,0-0.629,0.055-0.9,0.162s-0.508,0.261-0.705,0.459c-0.199,0.198-0.352,0.431-0.459,0.697
			C87.202,227.4,87.148,227.686,87.148,227.993z M89.342,220.257c0.352,0.51,0.699,1.026,1.045,1.547
			c0.346,0.521,0.694,1.043,1.046,1.564h-1.224l-0.867-1.14l-0.85,1.14h-1.207L89.342,220.257z"/>
		<path fill="#FFF7DC" d="M100.086,229.744c0.17,0.215,0.334,0.422,0.492,0.62s0.323,0.399,0.493,0.604
			c-0.329,0.261-0.696,0.468-1.104,0.62c-0.408,0.153-0.845,0.229-1.31,0.229c-0.532,0-1.034-0.099-1.505-0.297
			c-0.47-0.198-0.878-0.471-1.224-0.816s-0.62-0.75-0.824-1.215s-0.306-0.958-0.306-1.479s0.102-1.012,0.306-1.471
			s0.479-0.861,0.824-1.207s0.754-0.617,1.224-0.815c0.471-0.198,0.973-0.298,1.505-0.298c0.476,0,0.921,0.076,1.335,0.229
			c0.413,0.153,0.79,0.36,1.131,0.621l-1.037,1.206c-0.397-0.306-0.873-0.459-1.429-0.459c-0.329,0-0.629,0.058-0.901,0.171
			c-0.271,0.113-0.507,0.266-0.705,0.459c-0.198,0.192-0.352,0.422-0.459,0.688c-0.107,0.266-0.162,0.558-0.162,0.875
			c0,0.306,0.055,0.593,0.162,0.858c0.107,0.267,0.261,0.502,0.459,0.706s0.434,0.362,0.705,0.476
			c0.272,0.113,0.572,0.17,0.901,0.17C99.225,230.219,99.7,230.061,100.086,229.744z"/>
		<path fill="#FFF7DC" d="M102.482,218.353h1.631v7.804c0.25-0.578,0.602-1.043,1.055-1.395c0.453-0.351,1.037-0.532,1.751-0.544
			c0.748,0,1.343,0.198,1.785,0.595c0.442,0.397,0.674,0.924,0.696,1.581v5.236h-1.614v-4.471c-0.022-0.352-0.147-0.655-0.374-0.91
			s-0.578-0.394-1.055-0.416c-0.328,0-0.631,0.06-0.908,0.179c-0.278,0.119-0.517,0.28-0.715,0.484s-0.352,0.447-0.459,0.73
			c-0.107,0.284-0.162,0.59-0.162,0.918v3.485h-1.631V218.353z"/>
		<path fill="#FFF7DC" d="M117.561,230.797c-0.352,0.317-0.775,0.566-1.274,0.748c-0.499,0.181-1.009,0.271-1.53,0.271
			c-0.533,0-1.034-0.099-1.504-0.297c-0.471-0.198-0.879-0.471-1.225-0.816s-0.62-0.748-0.824-1.207s-0.307-0.949-0.307-1.47
			c0-0.521,0.103-1.012,0.307-1.471s0.479-0.861,0.824-1.207s0.748-0.618,1.207-0.816s0.943-0.297,1.453-0.297
			c0.816,0,1.533,0.246,2.15,0.739c0.618,0.493,1.057,1.142,1.318,1.946c-0.34,0.125-0.734,0.275-1.182,0.45
			c-0.447,0.176-0.916,0.36-1.402,0.553c-0.488,0.193-0.975,0.389-1.463,0.587c-0.486,0.198-0.935,0.377-1.342,0.535
			c0.191,0.352,0.459,0.635,0.799,0.85c0.34,0.216,0.725,0.323,1.156,0.323c0.294,0,0.592-0.054,0.893-0.161
			c0.299-0.107,0.546-0.252,0.738-0.434L117.561,230.797z M116.133,226.547c-0.136-0.249-0.34-0.434-0.611-0.553
			c-0.272-0.119-0.539-0.179-0.799-0.179c-0.307,0-0.596,0.06-0.867,0.179c-0.272,0.119-0.505,0.278-0.697,0.477
			c-0.193,0.198-0.346,0.425-0.459,0.68s-0.17,0.519-0.17,0.79v0.068c0.283-0.113,0.586-0.235,0.909-0.365s0.646-0.264,0.97-0.399
			c0.322-0.137,0.631-0.264,0.926-0.383S115.895,226.638,116.133,226.547z M113.532,223.351c0.261-0.374,0.519-0.753,0.773-1.139
			c0.255-0.385,0.513-0.771,0.773-1.156h1.751c-0.34,0.386-0.686,0.771-1.037,1.156c-0.352,0.386-0.703,0.765-1.054,1.139H113.532z"
			/>
		<path fill="#FFF7DC" d="M123.511,225.051c-0.068,0.103-0.15,0.219-0.247,0.349c-0.096,0.131-0.189,0.252-0.28,0.365
			s-0.198,0.255-0.323,0.425c-0.113-0.079-0.224-0.142-0.331-0.187c-0.108-0.045-0.232-0.088-0.374-0.128
			c-0.143-0.039-0.286-0.06-0.434-0.06c-0.158,0-0.326,0.037-0.502,0.111c-0.176,0.073-0.264,0.224-0.264,0.45
			c0,0.192,0.077,0.354,0.23,0.484c0.152,0.131,0.34,0.249,0.561,0.357c0.221,0.107,0.465,0.218,0.73,0.331
			c0.268,0.113,0.511,0.255,0.732,0.425c0.221,0.17,0.407,0.383,0.561,0.638c0.152,0.255,0.229,0.569,0.229,0.943
			c0,0.329-0.059,0.629-0.178,0.901c-0.119,0.271-0.289,0.504-0.51,0.697c-0.221,0.192-0.484,0.346-0.791,0.459
			c-0.306,0.112-0.651,0.17-1.037,0.17c-0.465,0-0.915-0.08-1.352-0.238c-0.436-0.158-0.779-0.385-1.028-0.68
			c0.079-0.091,0.176-0.204,0.289-0.341c0.113-0.136,0.222-0.266,0.323-0.391c0.102-0.124,0.227-0.271,0.374-0.442
			c0-0.011,0.036,0.009,0.11,0.06c0.074,0.052,0.173,0.111,0.297,0.179c0.125,0.068,0.272,0.131,0.443,0.188
			c0.17,0.057,0.345,0.085,0.526,0.085c0.283,0,0.501-0.063,0.654-0.188c0.153-0.124,0.229-0.277,0.229-0.459
			c0-0.181-0.076-0.328-0.229-0.441s-0.34-0.219-0.562-0.314c-0.221-0.097-0.465-0.201-0.73-0.314s-0.51-0.256-0.73-0.426
			s-0.408-0.388-0.562-0.654c-0.153-0.266-0.229-0.604-0.229-1.012c0-0.407,0.074-0.748,0.221-1.02
			c0.147-0.272,0.338-0.493,0.57-0.663s0.484-0.292,0.756-0.365c0.272-0.074,0.539-0.11,0.799-0.11c0.352,0,0.717,0.07,1.098,0.212
			C122.93,224.589,123.25,224.791,123.511,225.051z"/>
		<path fill="#FFF7DC" d="M128.781,228.027c0-0.567,0.093-1.083,0.279-1.548c0.188-0.464,0.448-0.863,0.783-1.198
			c0.334-0.334,0.725-0.595,1.172-0.782c0.448-0.187,0.938-0.28,1.471-0.28c0.363,0,0.68,0.04,0.953,0.119
			c0.271,0.079,0.504,0.176,0.696,0.289s0.349,0.235,0.468,0.365c0.119,0.131,0.213,0.241,0.28,0.332v-6.971h1.632v13.277h-1.632
			v-0.476c0-0.057,0.005-0.119,0.017-0.188s0.018-0.119,0.018-0.153c-0.102,0.103-0.227,0.213-0.374,0.332s-0.323,0.229-0.527,0.331
			c-0.204,0.103-0.434,0.185-0.688,0.247c-0.255,0.062-0.547,0.093-0.875,0.093c-0.578,0-1.097-0.099-1.556-0.297
			c-0.46-0.198-0.845-0.471-1.156-0.816s-0.55-0.748-0.714-1.207S128.781,228.547,128.781,228.027z M130.412,227.993
			c0,0.317,0.055,0.611,0.162,0.884c0.107,0.271,0.261,0.507,0.459,0.705c0.198,0.199,0.434,0.354,0.705,0.468
			c0.272,0.113,0.572,0.17,0.901,0.17s0.632-0.057,0.909-0.17s0.516-0.271,0.715-0.476c0.197-0.204,0.351-0.442,0.459-0.715
			c0.107-0.271,0.161-0.561,0.161-0.866c0-0.307-0.054-0.593-0.161-0.858c-0.108-0.267-0.262-0.496-0.459-0.688
			c-0.199-0.193-0.438-0.346-0.715-0.459s-0.58-0.171-0.909-0.171s-0.629,0.055-0.901,0.162c-0.271,0.107-0.507,0.261-0.705,0.459
			s-0.352,0.431-0.459,0.697C130.467,227.4,130.412,227.686,130.412,227.993z"/>
		<path fill="#FFF7DC" d="M138.063,228.094c0-0.521,0.102-1.017,0.307-1.487c0.203-0.471,0.479-0.881,0.824-1.232
			s0.748-0.632,1.207-0.842c0.459-0.209,0.943-0.314,1.453-0.314c0.34,0,0.646,0.043,0.918,0.128s0.508,0.184,0.705,0.297
			c0.199,0.113,0.354,0.229,0.468,0.349s0.187,0.213,0.222,0.28l0.067-0.866h1.581v7.225h-1.648v-0.476
			c0-0.057,0.002-0.111,0.008-0.162s0.009-0.088,0.009-0.11c-0.046,0.057-0.125,0.139-0.238,0.246
			c-0.113,0.108-0.267,0.213-0.459,0.315c-0.192,0.102-0.423,0.189-0.688,0.263c-0.266,0.074-0.575,0.11-0.926,0.11
			c-0.557,0-1.066-0.102-1.531-0.306s-0.866-0.476-1.206-0.815c-0.341-0.341-0.604-0.734-0.79-1.182
			C138.156,229.066,138.063,228.593,138.063,228.094z M139.711,227.993c0,0.317,0.055,0.611,0.162,0.884
			c0.107,0.271,0.261,0.507,0.459,0.705c0.198,0.199,0.434,0.354,0.705,0.468c0.272,0.113,0.572,0.17,0.901,0.17
			s0.629-0.057,0.901-0.17c0.271-0.113,0.507-0.271,0.705-0.476s0.352-0.442,0.459-0.715c0.107-0.271,0.162-0.561,0.162-0.866
			c0-0.307-0.055-0.593-0.162-0.858c-0.107-0.267-0.261-0.496-0.459-0.688c-0.198-0.193-0.434-0.346-0.705-0.459
			c-0.272-0.113-0.572-0.171-0.901-0.171s-0.629,0.055-0.901,0.162c-0.271,0.107-0.507,0.261-0.705,0.459s-0.352,0.431-0.459,0.697
			C139.766,227.4,139.711,227.686,139.711,227.993z"/>
		<path fill="#FFF7DC" d="M147.82,224.406h1.428c0.023,0.407,0.049,0.739,0.076,0.994c0.029,0.255,0.055,0.541,0.077,0.858
			c0.261-0.612,0.629-1.104,1.104-1.479c0.477-0.374,1.071-0.562,1.785-0.562c0.736,0,1.323,0.201,1.76,0.604
			c0.436,0.402,0.666,0.927,0.688,1.572v5.236h-1.614v-4.471c-0.023-0.352-0.148-0.655-0.375-0.91s-0.578-0.394-1.054-0.416
			c-0.329,0-0.632,0.06-0.909,0.179s-0.516,0.28-0.715,0.484c-0.197,0.204-0.351,0.447-0.459,0.73
			c-0.107,0.284-0.161,0.59-0.161,0.918v3.485h-1.632V224.406z"/>
		<path fill="#FFF7DC" d="M160.809,225.051c-0.068,0.103-0.15,0.219-0.246,0.349c-0.098,0.131-0.19,0.252-0.281,0.365
			s-0.198,0.255-0.322,0.425c-0.113-0.079-0.225-0.142-0.332-0.187s-0.232-0.088-0.374-0.128c-0.142-0.039-0.286-0.06-0.434-0.06
			c-0.159,0-0.325,0.037-0.501,0.111c-0.176,0.073-0.264,0.224-0.264,0.45c0,0.192,0.076,0.354,0.229,0.484
			c0.154,0.131,0.341,0.249,0.562,0.357c0.222,0.107,0.465,0.218,0.731,0.331c0.266,0.113,0.51,0.255,0.73,0.425
			s0.408,0.383,0.561,0.638c0.154,0.255,0.23,0.569,0.23,0.943c0,0.329-0.06,0.629-0.179,0.901
			c-0.119,0.271-0.289,0.504-0.511,0.697c-0.221,0.192-0.484,0.346-0.79,0.459c-0.306,0.112-0.651,0.17-1.036,0.17
			c-0.465,0-0.916-0.08-1.352-0.238c-0.438-0.158-0.779-0.385-1.029-0.68c0.08-0.091,0.176-0.204,0.289-0.341
			c0.113-0.136,0.221-0.266,0.323-0.391c0.103-0.124,0.227-0.271,0.374-0.442c0-0.011,0.037,0.009,0.11,0.06
			c0.073,0.052,0.173,0.111,0.298,0.179c0.125,0.068,0.271,0.131,0.441,0.188s0.346,0.085,0.527,0.085
			c0.283,0,0.502-0.063,0.654-0.188c0.153-0.124,0.229-0.277,0.229-0.459c0-0.181-0.076-0.328-0.229-0.441
			c-0.152-0.113-0.34-0.219-0.561-0.314c-0.221-0.097-0.465-0.201-0.731-0.314s-0.51-0.256-0.731-0.426
			c-0.221-0.17-0.407-0.388-0.561-0.654c-0.152-0.266-0.229-0.604-0.229-1.012c0-0.407,0.073-0.748,0.222-1.02
			c0.146-0.272,0.336-0.493,0.568-0.663s0.484-0.292,0.758-0.365c0.271-0.074,0.537-0.11,0.799-0.11c0.351,0,0.717,0.07,1.096,0.212
			C160.228,224.589,160.547,224.791,160.809,225.051z"/>
		<path fill="#FFF7DC" d="M168.135,231.63h-1.615v-13.277h1.615V231.63z"/>
		<path fill="#FFF7DC" d="M170.686,221.873c-0.148-0.068-0.289-0.136-0.426-0.204c-0.136-0.068-0.283-0.147-0.441-0.238
			c0.249-0.227,0.428-0.51,0.535-0.85s0.121-0.708,0.043-1.105l1.054-0.119c0.091,0.477,0.067,0.933-0.067,1.369
			C171.246,221.162,171.014,221.543,170.686,221.873z"/>
		<path fill="#FFF7DC" d="M173.693,231.63v-12.393h8.229v1.887h-6.154v3.332h5.475v1.938h-5.475v3.298h6.393v1.938H173.693z"/>
		<path fill="#FFF7DC" d="M187.701,226.327c-0.316,0-0.619,0.04-0.908,0.119s-0.545,0.201-0.766,0.365s-0.399,0.368-0.535,0.612
			c-0.137,0.243-0.205,0.529-0.205,0.858v3.349h-1.631v-7.225h1.428c0.022,0.407,0.048,0.739,0.076,0.994s0.054,0.541,0.076,0.858
			c0.147-0.317,0.346-0.601,0.596-0.85c0.249-0.249,0.507-0.462,0.773-0.638c0.266-0.176,0.529-0.312,0.791-0.408
			c0.26-0.096,0.48-0.145,0.662-0.145L187.701,226.327z"/>
		<path fill="#FFF7DC" d="M188.586,228.027c0-0.567,0.093-1.083,0.279-1.548c0.188-0.464,0.448-0.863,0.783-1.198
			c0.334-0.334,0.725-0.595,1.172-0.782c0.448-0.187,0.938-0.28,1.471-0.28c0.363,0,0.68,0.04,0.953,0.119
			c0.271,0.079,0.504,0.176,0.696,0.289s0.349,0.235,0.468,0.365c0.119,0.131,0.213,0.241,0.28,0.332v-6.971h1.632v13.277h-1.632
			v-0.476c0-0.057,0.005-0.119,0.017-0.188s0.018-0.119,0.018-0.153c-0.102,0.103-0.227,0.213-0.374,0.332s-0.323,0.229-0.527,0.331
			c-0.204,0.103-0.434,0.185-0.688,0.247c-0.255,0.062-0.547,0.093-0.875,0.093c-0.578,0-1.097-0.099-1.556-0.297
			c-0.46-0.198-0.845-0.471-1.156-0.816s-0.55-0.748-0.714-1.207S188.586,228.547,188.586,228.027z M190.217,227.993
			c0,0.317,0.055,0.611,0.162,0.884c0.107,0.271,0.261,0.507,0.459,0.705c0.198,0.199,0.434,0.354,0.705,0.468
			c0.272,0.113,0.572,0.17,0.901,0.17s0.632-0.057,0.909-0.17s0.516-0.271,0.715-0.476c0.197-0.204,0.351-0.442,0.459-0.715
			c0.107-0.271,0.161-0.561,0.161-0.866c0-0.307-0.054-0.593-0.161-0.858c-0.108-0.267-0.262-0.496-0.459-0.688
			c-0.199-0.193-0.438-0.346-0.715-0.459s-0.58-0.171-0.909-0.171s-0.629,0.055-0.901,0.162c-0.271,0.107-0.507,0.261-0.705,0.459
			s-0.352,0.431-0.459,0.697C190.271,227.4,190.217,227.686,190.217,227.993z"/>
		<path fill="#FFF7DC" d="M202.373,226.327c-0.318,0-0.621,0.04-0.91,0.119s-0.543,0.201-0.765,0.365s-0.399,0.368-0.536,0.612
			c-0.135,0.243-0.203,0.529-0.203,0.858v3.349h-1.633v-7.225h1.429c0.022,0.407,0.048,0.739,0.076,0.994s0.054,0.541,0.077,0.858
			c0.146-0.317,0.346-0.601,0.595-0.85s0.507-0.462,0.773-0.638s0.529-0.312,0.79-0.408c0.261-0.096,0.482-0.145,0.663-0.145
			L202.373,226.327z"/>
		<path fill="#FFF7DC" d="M209.903,230.797c-0.352,0.317-0.776,0.566-1.274,0.748c-0.5,0.181-1.01,0.271-1.531,0.271
			c-0.532,0-1.033-0.099-1.504-0.297s-0.879-0.471-1.225-0.816s-0.619-0.748-0.824-1.207c-0.203-0.459-0.306-0.949-0.306-1.47
			c0-0.521,0.103-1.012,0.306-1.471c0.205-0.459,0.479-0.861,0.824-1.207s0.748-0.618,1.207-0.816s0.944-0.297,1.454-0.297
			c0.815,0,1.532,0.246,2.15,0.739s1.057,1.142,1.317,1.946c-0.34,0.125-0.734,0.275-1.182,0.45
			c-0.447,0.176-0.915,0.36-1.402,0.553c-0.487,0.193-0.975,0.389-1.462,0.587s-0.935,0.377-1.343,0.535
			c0.192,0.352,0.459,0.635,0.799,0.85c0.34,0.216,0.725,0.323,1.156,0.323c0.295,0,0.592-0.054,0.893-0.161
			c0.3-0.107,0.547-0.252,0.739-0.434L209.903,230.797z M208.475,226.547c-0.135-0.249-0.34-0.434-0.611-0.553
			s-0.539-0.179-0.799-0.179c-0.307,0-0.596,0.06-0.867,0.179s-0.504,0.278-0.697,0.477c-0.192,0.198-0.346,0.425-0.459,0.68
			s-0.17,0.519-0.17,0.79v0.068c0.283-0.113,0.587-0.235,0.91-0.365c0.322-0.13,0.646-0.264,0.969-0.399
			c0.322-0.137,0.631-0.264,0.926-0.383S208.237,226.638,208.475,226.547z"/>
		<path fill="#FFF7DC" d="M211.637,230.577c0-0.295,0.111-0.544,0.332-0.748s0.462-0.307,0.723-0.307
			c0.238,0,0.467,0.103,0.688,0.307s0.331,0.453,0.331,0.748c0,0.328-0.109,0.586-0.331,0.773c-0.222,0.187-0.45,0.28-0.688,0.28
			c-0.261,0-0.502-0.094-0.723-0.28C211.748,231.163,211.637,230.905,211.637,230.577z"/>
	</g>
	<g>
		<path fill="#E58C4A" d="M167.088,128.262c0.619,0.496,1.033,0.854,1.473,1.179c7.465,5.502,10.354,15.005,7.035,23.582
			c-2.227,5.761-6.738,9.021-12.52,10.578c-5.512,1.485-11.191,1.307-16.826,1.1c-3.125-0.114-6.273-0.485-9.342-1.087
			c-7.732-1.521-12.785-6.262-15.553-13.551c-1.504-3.964-2.746-8.007-3.258-12.226c-0.184-1.504-0.209-3.078,0.014-4.571
			c0.518-3.428,3.021-5.332,6.449-4.838c2.295,0.329,4.6,0.852,6.791,1.6c3.764,1.284,7.453,0.962,11.176-0.004
			c0.262-0.068,0.5-0.225,0.908-0.412c-0.336-0.483-0.584-0.925-0.908-1.301c-7.783-8.982-3.457-22.398,8.104-25.115
			c6.441-1.516,13.568,1.836,16.719,7.863c1.197,2.293,1.811,2.627,4.4,2.433c0.801-0.062,1.615-0.198,2.406-0.118
			c3.141,0.319,4.643,2.482,3.66,5.51c-0.408,1.26-1.191,2.469-2.049,3.497c-1.865,2.235-4.395,3.624-6.945,4.945
			C168.324,127.582,167.838,127.856,167.088,128.262z"/>
		<path fill="#1D2B40" d="M154.361,118.321c-1.998,0-3.754-0.535-3.902-0.582l0.369-1.184c0.063,0.021,6.445,1.956,7.953-1.816
			l1.15,0.461C158.932,117.703,156.51,118.321,154.361,118.321z"/>
	</g>
</g>
</svg>
