<?xml version="1.0" encoding="utf-8"?>
<!-- Generator: Adobe Illustrator 16.0.0, SVG Export Plug-In . SVG Version: 6.00 Build 0)  -->
<!DOCTYPE svg PUBLIC "-//W3C//DTD SVG 1.1//EN" "http://www.w3.org/Graphics/SVG/1.1/DTD/svg11.dtd">
<svg version="1.1" id="Calque_1" xmlns="http://www.w3.org/2000/svg" xmlns:xlink="http://www.w3.org/1999/xlink" x="0px" y="0px"
	 width="131px" height="125.125px" viewBox="0 0 131 125.125" enable-background="new 0 0 131 125.125" xml:space="preserve">
<polygon fill="#1D2B40" points="65.896,5.642 71.856,-0.344 76.577,6.662 83.562,1.912 86.87,9.685 94.63,6.342 96.407,14.601 
	104.657,12.788 104.839,21.233 113.284,21.014 111.866,29.342 120.2,30.725 117.231,38.633 125.151,41.568 120.739,48.771 
	127.964,53.152 122.267,59.393 128.53,65.061 121.755,70.109 126.833,76.861 119.228,80.536 122.935,88.125 114.771,90.295 
	116.974,98.45 108.546,99.034 109.167,107.459 100.782,106.438 99.796,114.829 91.757,112.238 89.2,120.292 81.794,116.227 
	77.763,123.649 71.259,118.256 65.896,124.784 60.532,118.256 54.028,123.649 49.995,116.227 42.59,120.292 40.034,112.238 
	31.995,114.829 31.008,106.438 22.624,107.459 23.243,99.034 14.815,98.45 17.021,90.295 8.856,88.125 12.563,80.536 4.958,76.861 
	10.036,70.109 3.261,65.061 9.524,59.393 3.827,53.152 11.051,48.771 6.64,41.568 14.56,38.633 11.59,30.725 19.924,29.342 
	18.504,21.014 26.952,21.233 27.133,12.788 35.383,14.601 37.161,6.342 44.92,9.685 48.229,1.912 55.213,6.662 59.937,-0.344 "/>
<g>
	<path fill="#FFFFFF" d="M37.438,58.248c-0.169,0.166-0.411,0.373-0.725,0.618c-0.316,0.245-0.698,0.492-1.147,0.739
		c-0.449,0.246-0.965,0.479-1.545,0.702c-0.58,0.217-1.213,0.397-1.894,0.53c-1.397,0.268-2.693,0.267-3.89,0.001
		c-1.196-0.266-2.254-0.733-3.174-1.398c-0.921-0.666-1.686-1.504-2.303-2.512c-0.616-1.009-1.038-2.116-1.27-3.318
		c-0.256-1.33-0.249-2.607,0.02-3.831c0.27-1.224,0.747-2.324,1.425-3.304c0.679-0.982,1.529-1.807,2.555-2.474
		c1.023-0.669,2.171-1.13,3.438-1.372c0.486-0.093,0.985-0.15,1.495-0.172c0.508-0.021,0.991-0.018,1.456,0.012
		c0.459,0.029,0.87,0.084,1.23,0.167c0.361,0.083,0.631,0.191,0.809,0.326c-0.104,0.254-0.181,0.462-0.234,0.625
		c-0.054,0.162-0.108,0.329-0.169,0.5c-0.059,0.173-0.126,0.366-0.192,0.58c-0.067,0.215-0.168,0.512-0.296,0.89
		c-0.218-0.092-0.477-0.163-0.772-0.206c-0.294-0.044-0.596-0.066-0.91-0.066c-0.311,0.002-0.623,0.017-0.941,0.042
		c-0.313,0.027-0.591,0.063-0.834,0.111c-0.909,0.173-1.718,0.506-2.423,0.996c-0.706,0.491-1.286,1.07-1.738,1.737
		c-0.453,0.669-0.767,1.405-0.938,2.215c-0.174,0.805-0.185,1.61-0.031,2.402c0.149,0.78,0.447,1.511,0.889,2.192
		c0.442,0.682,0.99,1.253,1.644,1.718c0.655,0.463,1.387,0.799,2.202,1.003c0.813,0.207,1.678,0.223,2.587,0.049
		c0.519-0.101,1.012-0.251,1.48-0.45c0.465-0.202,0.872-0.401,1.223-0.602c0.347-0.203,0.627-0.392,0.838-0.568
		c0.208-0.172,0.317-0.287,0.324-0.338L37.438,58.248z"/>
	<path fill="#FFFFFF" d="M42.829,58.574l-2.313,0.446l-3.66-19.026l2.313-0.445L42.829,58.574z"/>
	<path fill="#FFFFFF" d="M45.29,52.846c-0.143-0.748-0.134-1.485,0.029-2.215c0.164-0.729,0.441-1.395,0.84-1.993
		c0.4-0.599,0.898-1.113,1.5-1.54c0.601-0.425,1.266-0.709,1.994-0.85c0.487-0.093,0.938-0.119,1.352-0.071
		c0.415,0.047,0.778,0.125,1.094,0.231c0.314,0.108,0.57,0.231,0.765,0.371c0.197,0.137,0.328,0.252,0.396,0.343l-0.141-1.265
		l2.266-0.435l1.991,10.354l-2.363,0.455l-0.133-0.681c-0.014-0.083-0.024-0.162-0.031-0.236c-0.007-0.073-0.013-0.127-0.019-0.161
		c-0.05,0.096-0.14,0.232-0.274,0.418c-0.131,0.185-0.321,0.378-0.569,0.577c-0.249,0.201-0.554,0.389-0.916,0.567
		c-0.36,0.18-0.791,0.317-1.296,0.414c-0.796,0.154-1.553,0.147-2.276-0.016c-0.722-0.165-1.373-0.443-1.957-0.837
		c-0.577-0.392-1.064-0.885-1.456-1.474C45.692,54.215,45.428,53.563,45.29,52.846z M47.626,52.247
		c0.087,0.455,0.245,0.861,0.476,1.221c0.229,0.359,0.512,0.655,0.852,0.883c0.338,0.231,0.72,0.389,1.141,0.476
		c0.42,0.087,0.866,0.085,1.336-0.006c0.47-0.09,0.886-0.254,1.244-0.491c0.36-0.238,0.655-0.529,0.881-0.876
		c0.227-0.349,0.382-0.731,0.46-1.15c0.082-0.419,0.077-0.85-0.005-1.285c-0.085-0.44-0.24-0.834-0.469-1.187
		c-0.229-0.353-0.512-0.639-0.848-0.86c-0.339-0.221-0.718-0.374-1.137-0.463c-0.423-0.087-0.87-0.087-1.338,0.003
		c-0.473,0.091-0.887,0.252-1.245,0.481c-0.362,0.229-0.656,0.514-0.886,0.852c-0.231,0.338-0.387,0.713-0.466,1.125
		C47.54,51.384,47.54,51.807,47.626,52.247z"/>
	<path fill="#FFFFFF" d="M65.546,44.428c-0.068,0.166-0.155,0.355-0.256,0.569c-0.104,0.212-0.204,0.414-0.304,0.6
		c-0.098,0.188-0.214,0.42-0.345,0.698c-0.185-0.083-0.36-0.142-0.525-0.177c-0.169-0.035-0.357-0.063-0.572-0.079
		c-0.214-0.018-0.428-0.009-0.638,0.032c-0.229,0.043-0.458,0.143-0.689,0.298c-0.231,0.155-0.315,0.392-0.252,0.719
		c0.054,0.277,0.207,0.487,0.463,0.629c0.256,0.145,0.556,0.264,0.9,0.356c0.35,0.094,0.727,0.186,1.142,0.275
		c0.411,0.089,0.799,0.225,1.163,0.407c0.362,0.182,0.689,0.437,0.981,0.759c0.287,0.323,0.485,0.755,0.589,1.289
		c0.092,0.471,0.089,0.917-0.008,1.34c-0.096,0.423-0.274,0.803-0.54,1.139c-0.263,0.336-0.599,0.628-1.004,0.873
		c-0.409,0.247-0.891,0.428-1.439,0.532c-0.666,0.129-1.335,0.137-2.004,0.032c-0.667-0.109-1.221-0.339-1.659-0.692
		c0.089-0.153,0.196-0.341,0.322-0.567c0.121-0.226,0.24-0.442,0.353-0.649c0.111-0.206,0.248-0.453,0.412-0.737
		c-0.003-0.017,0.057,0.001,0.177,0.055c0.118,0.054,0.276,0.111,0.473,0.173c0.199,0.064,0.428,0.111,0.688,0.148
		c0.258,0.033,0.518,0.025,0.777-0.023c0.406-0.078,0.7-0.228,0.887-0.448c0.185-0.221,0.252-0.463,0.204-0.723
		c-0.051-0.26-0.202-0.45-0.453-0.571c-0.251-0.12-0.547-0.22-0.891-0.294c-0.341-0.077-0.721-0.159-1.134-0.249
		c-0.413-0.089-0.8-0.224-1.165-0.409c-0.362-0.181-0.689-0.443-0.984-0.781c-0.293-0.34-0.494-0.803-0.607-1.388
		c-0.111-0.583-0.102-1.091,0.036-1.522c0.135-0.431,0.345-0.8,0.633-1.106c0.284-0.308,0.613-0.553,0.982-0.732
		c0.37-0.181,0.741-0.307,1.114-0.378c0.505-0.097,1.047-0.097,1.631,0.003C64.586,43.926,65.1,44.127,65.546,44.428z"/>
	<path fill="#FFFFFF" d="M75.292,42.555c-0.068,0.165-0.155,0.354-0.256,0.567c-0.104,0.212-0.204,0.415-0.302,0.601
		c-0.1,0.188-0.216,0.42-0.347,0.698c-0.185-0.082-0.36-0.144-0.525-0.177c-0.168-0.036-0.357-0.062-0.572-0.079
		c-0.214-0.018-0.428-0.009-0.637,0.031c-0.229,0.045-0.46,0.144-0.69,0.298c-0.231,0.157-0.315,0.394-0.252,0.719
		c0.054,0.279,0.207,0.488,0.463,0.629c0.256,0.145,0.556,0.265,0.902,0.357c0.347,0.095,0.727,0.186,1.14,0.275
		c0.41,0.091,0.799,0.225,1.163,0.408c0.362,0.183,0.689,0.437,0.982,0.76c0.286,0.322,0.486,0.753,0.587,1.287
		c0.093,0.472,0.091,0.918-0.007,1.341c-0.094,0.424-0.275,0.803-0.538,1.139c-0.265,0.336-0.6,0.629-1.005,0.875
		c-0.409,0.247-0.891,0.426-1.44,0.531c-0.666,0.128-1.335,0.138-2.002,0.031c-0.669-0.108-1.223-0.338-1.66-0.691
		c0.088-0.151,0.195-0.342,0.321-0.568c0.121-0.225,0.24-0.442,0.352-0.648c0.111-0.206,0.251-0.454,0.414-0.737
		c-0.005-0.016,0.056,0.002,0.175,0.056c0.118,0.054,0.28,0.111,0.474,0.173c0.198,0.065,0.429,0.111,0.688,0.147
		c0.258,0.033,0.518,0.024,0.777-0.024c0.405-0.078,0.7-0.227,0.887-0.448c0.185-0.22,0.252-0.46,0.204-0.721
		c-0.053-0.259-0.202-0.451-0.453-0.572c-0.251-0.12-0.547-0.22-0.893-0.295c-0.339-0.077-0.721-0.159-1.132-0.248
		c-0.413-0.09-0.801-0.225-1.165-0.408c-0.362-0.182-0.689-0.443-0.986-0.782c-0.292-0.34-0.496-0.802-0.607-1.389
		c-0.111-0.581-0.102-1.09,0.036-1.522c0.136-0.429,0.345-0.798,0.633-1.105c0.285-0.309,0.614-0.551,0.982-0.731
		c0.371-0.182,0.742-0.307,1.116-0.379c0.504-0.097,1.049-0.097,1.629,0.003C74.332,42.052,74.846,42.251,75.292,42.555z"/>
	<path fill="#FFFFFF" d="M89.615,48.338c-0.416,0.55-0.956,1.023-1.62,1.424c-0.665,0.395-1.372,0.666-2.118,0.81
		c-0.765,0.147-1.51,0.141-2.238-0.013c-0.728-0.153-1.388-0.429-1.979-0.83c-0.593-0.399-1.096-0.903-1.516-1.502
		c-0.418-0.604-0.698-1.278-0.843-2.025c-0.143-0.747-0.131-1.477,0.033-2.191c0.167-0.712,0.447-1.367,0.848-1.958
		c0.401-0.589,0.904-1.091,1.507-1.501c0.602-0.41,1.271-0.686,2-0.826c1.169-0.226,2.265-0.07,3.287,0.464
		c1.019,0.538,1.828,1.348,2.423,2.428c-0.453,0.274-0.974,0.597-1.568,0.972c-0.594,0.376-1.212,0.767-1.858,1.178
		c-0.645,0.412-1.289,0.826-1.932,1.244c-0.646,0.42-1.236,0.797-1.778,1.138c0.373,0.45,0.834,0.783,1.38,0.998
		c0.547,0.214,1.129,0.261,1.745,0.142c0.422-0.081,0.834-0.241,1.235-0.478c0.398-0.238,0.712-0.51,0.94-0.825L89.615,48.338z
		 M86.397,42.641c-0.263-0.32-0.607-0.526-1.027-0.623c-0.423-0.094-0.824-0.108-1.196-0.037c-0.438,0.084-0.835,0.251-1.193,0.498
		c-0.355,0.244-0.645,0.535-0.866,0.873c-0.223,0.337-0.378,0.704-0.47,1.1c-0.093,0.398-0.102,0.79-0.026,1.178l0.02,0.099
		c0.374-0.241,0.774-0.499,1.201-0.772c0.429-0.276,0.853-0.558,1.279-0.842c0.427-0.283,0.832-0.551,1.221-0.802
		S86.083,42.835,86.397,42.641z"/>
	<g>
		<path fill="#FFFFFF" d="M32.101,69.113l-0.604,2.643c-0.728-0.113-1.44-0.178-2.134-0.197c-0.694-0.019-1.323,0.029-1.892,0.138
			c-0.991,0.191-1.738,0.536-2.24,1.035c-0.502,0.502-0.692,1.054-0.578,1.652c0.102,0.52,0.396,0.903,0.889,1.143
			c0.493,0.242,1.09,0.429,1.789,0.566c0.7,0.133,1.452,0.264,2.259,0.387c0.809,0.124,1.575,0.333,2.307,0.63
			s1.374,0.727,1.928,1.296c0.556,0.568,0.932,1.355,1.125,2.361c0.15,0.778,0.144,1.512-0.019,2.199
			c-0.164,0.688-0.484,1.315-0.965,1.88c-0.481,0.564-1.133,1.056-1.952,1.472c-0.818,0.422-1.814,0.742-2.984,0.968
			c-0.714,0.137-1.375,0.212-1.978,0.229c-0.604,0.015-1.149-0.009-1.641-0.064c-0.491-0.055-0.932-0.136-1.322-0.238
			c-0.39-0.101-0.729-0.209-1.021-0.32l0.792-2.855c0.752,0.242,1.54,0.391,2.358,0.442c0.817,0.056,1.529,0.021,2.129-0.093
			c0.292-0.057,0.665-0.161,1.114-0.316c0.451-0.153,0.878-0.36,1.282-0.625c0.404-0.263,0.735-0.577,0.991-0.947
			c0.258-0.37,0.34-0.798,0.245-1.284c-0.107-0.566-0.414-0.992-0.914-1.275c-0.502-0.283-1.103-0.505-1.809-0.665
			c-0.703-0.161-1.459-0.303-2.268-0.434s-1.574-0.324-2.297-0.583c-0.724-0.255-1.354-0.622-1.893-1.1
			c-0.538-0.478-0.889-1.147-1.055-2.008c-0.119-0.617-0.113-1.245,0.017-1.884c0.129-0.641,0.396-1.243,0.8-1.81
			c0.406-0.567,0.949-1.066,1.632-1.501c0.684-0.436,1.528-0.748,2.535-0.941c0.632-0.121,1.257-0.188,1.871-0.194
			c0.612-0.011,1.168,0.005,1.663,0.045c0.495,0.038,0.91,0.089,1.24,0.151C31.832,69.078,32.033,69.108,32.101,69.113z"/>
		<path fill="#FFFFFF" d="M37.711,80.033c-0.145-0.748-0.138-1.476,0.02-2.189c0.156-0.713,0.442-1.359,0.852-1.944
			c0.409-0.584,0.925-1.083,1.543-1.496c0.62-0.416,1.311-0.695,2.074-0.842c0.78-0.149,1.529-0.146,2.248,0.009
			c0.722,0.157,1.369,0.433,1.941,0.827c0.572,0.396,1.062,0.895,1.465,1.5c0.4,0.604,0.677,1.281,0.818,2.027
			c0.145,0.747,0.145,1.479,0.006,2.195c-0.139,0.719-0.405,1.372-0.797,1.961c-0.393,0.589-0.896,1.093-1.506,1.502
			c-0.612,0.414-1.313,0.696-2.109,0.849c-0.765,0.147-1.504,0.154-2.219,0.022c-0.716-0.133-1.367-0.391-1.956-0.773
			c-0.587-0.386-1.091-0.885-1.514-1.502C38.155,81.561,37.866,80.846,37.711,80.033z M40.031,79.613
			c0.084,0.435,0.241,0.833,0.478,1.183s0.524,0.639,0.862,0.871c0.34,0.228,0.716,0.388,1.129,0.477
			c0.412,0.088,0.839,0.091,1.276,0.006c0.438-0.084,0.835-0.242,1.183-0.479c0.352-0.236,0.641-0.525,0.871-0.863
			c0.229-0.339,0.392-0.716,0.49-1.13s0.102-0.842,0.019-1.278c-0.086-0.44-0.248-0.833-0.493-1.182
			c-0.244-0.35-0.535-0.64-0.873-0.869c-0.339-0.228-0.716-0.393-1.133-0.489c-0.413-0.097-0.839-0.104-1.279-0.019
			c-0.437,0.084-0.831,0.247-1.18,0.491c-0.35,0.246-0.636,0.538-0.869,0.876c-0.229,0.338-0.39,0.714-0.477,1.127
			C39.946,78.75,39.946,79.172,40.031,79.613z"/>
		<path fill="#FFFFFF" d="M59.505,78.416c0.304,0.264,0.594,0.515,0.878,0.755c0.279,0.24,0.573,0.484,0.871,0.73
			c-0.397,0.463-0.867,0.861-1.411,1.194c-0.541,0.329-1.147,0.561-1.813,0.688c-0.765,0.146-1.511,0.142-2.238-0.015
			c-0.729-0.151-1.389-0.43-1.979-0.831c-0.59-0.4-1.096-0.904-1.517-1.516c-0.42-0.609-0.702-1.287-0.847-2.032
			c-0.143-0.749-0.131-1.479,0.033-2.193c0.167-0.714,0.449-1.364,0.85-1.955c0.399-0.591,0.909-1.093,1.529-1.506
			c0.62-0.416,1.311-0.694,2.075-0.842c0.683-0.13,1.339-0.145,1.975-0.038c0.635,0.106,1.233,0.297,1.791,0.578l-1.153,2.014
			c-0.653-0.33-1.378-0.418-2.172-0.265c-0.472,0.091-0.887,0.257-1.245,0.493c-0.357,0.237-0.653,0.521-0.885,0.852
			c-0.23,0.331-0.387,0.702-0.467,1.111c-0.081,0.413-0.079,0.847,0.009,1.302c0.086,0.437,0.241,0.834,0.468,1.186
			s0.513,0.646,0.852,0.885c0.342,0.235,0.725,0.398,1.142,0.488c0.423,0.087,0.869,0.083,1.339-0.008
			C58.401,79.335,59.04,78.979,59.505,78.416z"/>
		<path fill="#FFFFFF" d="M61.643,65.904c-0.08-0.419,0.009-0.799,0.261-1.136c0.256-0.334,0.564-0.534,0.922-0.603
			c0.355-0.069,0.711,0.004,1.065,0.222c0.353,0.22,0.57,0.54,0.651,0.96c0.084,0.44,0,0.822-0.247,1.146
			c-0.249,0.327-0.552,0.526-0.91,0.594c-0.354,0.07-0.716-0.001-1.076-0.21C61.95,66.668,61.728,66.345,61.643,65.904z
			 M67.017,79.776l-2.34,0.45l-1.993-10.353l2.34-0.449L67.017,79.776z"/>
		<path fill="#FFFFFF" d="M69.476,74.047c-0.143-0.744-0.132-1.482,0.03-2.213c0.163-0.729,0.442-1.395,0.841-1.995
			c0.397-0.6,0.898-1.11,1.498-1.538c0.601-0.427,1.267-0.711,1.996-0.851c0.486-0.094,0.938-0.117,1.35-0.071
			c0.415,0.046,0.781,0.124,1.095,0.231c0.314,0.108,0.571,0.232,0.766,0.371c0.193,0.14,0.326,0.255,0.396,0.342l-0.143-1.261
			l2.267-0.437l1.988,10.353l-2.361,0.455l-0.131-0.684c-0.016-0.08-0.026-0.159-0.031-0.231c-0.007-0.075-0.014-0.129-0.02-0.162
			c-0.05,0.096-0.141,0.233-0.273,0.42c-0.132,0.186-0.323,0.378-0.571,0.578c-0.249,0.198-0.554,0.385-0.914,0.566
			c-0.36,0.178-0.793,0.316-1.296,0.414c-0.796,0.153-1.554,0.146-2.276-0.019c-0.724-0.164-1.375-0.442-1.957-0.836
			c-0.579-0.393-1.067-0.885-1.457-1.476C69.88,75.417,69.613,74.765,69.476,74.047z M71.812,73.448
			c0.087,0.455,0.246,0.862,0.476,1.224c0.229,0.357,0.512,0.651,0.852,0.885c0.34,0.228,0.72,0.388,1.14,0.475
			c0.421,0.09,0.867,0.084,1.336-0.007c0.47-0.09,0.889-0.253,1.245-0.491c0.359-0.236,0.653-0.531,0.88-0.875
			c0.227-0.349,0.382-0.73,0.462-1.15s0.076-0.849-0.008-1.285c-0.085-0.439-0.24-0.836-0.468-1.187
			c-0.227-0.352-0.513-0.638-0.849-0.862c-0.336-0.22-0.716-0.373-1.136-0.462c-0.42-0.088-0.871-0.087-1.338,0.004
			c-0.472,0.093-0.887,0.251-1.245,0.479c-0.362,0.229-0.657,0.517-0.887,0.854c-0.229,0.339-0.383,0.714-0.465,1.125
			C71.727,72.586,71.727,73.011,71.812,73.448z"/>
		<path fill="#FFFFFF" d="M87.966,75.746l-2.313,0.446l-3.661-19.025l2.314-0.445L87.966,75.746z"/>
		<path fill="#FFFFFF" d="M100.72,72.055c-0.417,0.553-0.957,1.025-1.62,1.424c-0.665,0.396-1.373,0.669-2.116,0.813
			c-0.767,0.147-1.511,0.142-2.24-0.014c-0.729-0.151-1.389-0.429-1.98-0.83c-0.591-0.401-1.096-0.903-1.514-1.505
			c-0.418-0.603-0.698-1.276-0.843-2.022c-0.144-0.748-0.133-1.479,0.031-2.192c0.169-0.713,0.451-1.366,0.85-1.955
			c0.4-0.592,0.904-1.092,1.507-1.503c0.601-0.411,1.27-0.688,2-0.827c1.168-0.225,2.261-0.067,3.285,0.467
			c1.021,0.536,1.828,1.344,2.424,2.424c-0.452,0.276-0.974,0.601-1.569,0.973c-0.594,0.378-1.21,0.768-1.856,1.181
			c-0.645,0.409-1.289,0.822-1.932,1.244c-0.646,0.417-1.236,0.796-1.778,1.133c0.373,0.451,0.834,0.786,1.378,1
			c0.549,0.215,1.13,0.263,1.747,0.143c0.421-0.08,0.834-0.239,1.234-0.475c0.399-0.238,0.713-0.512,0.94-0.829L100.72,72.055z
			 M97.502,66.359c-0.263-0.318-0.607-0.526-1.029-0.622c-0.423-0.096-0.822-0.107-1.194-0.036
			c-0.438,0.085-0.837,0.251-1.193,0.496c-0.355,0.246-0.645,0.538-0.866,0.874c-0.223,0.338-0.38,0.703-0.47,1.1
			c-0.093,0.397-0.102,0.793-0.026,1.181l0.019,0.098c0.373-0.24,0.773-0.498,1.201-0.775c0.428-0.274,0.853-0.556,1.279-0.839
			s0.831-0.551,1.222-0.803C96.833,66.78,97.186,66.555,97.502,66.359z"/>
	</g>
	<path fill="#FFFFFF" d="M97.659,37.597c-0.068,0.166-0.155,0.354-0.256,0.568c-0.104,0.212-0.204,0.415-0.302,0.601
		c-0.1,0.188-0.216,0.42-0.347,0.699c-0.185-0.082-0.36-0.144-0.526-0.177c-0.167-0.036-0.356-0.063-0.571-0.08
		c-0.214-0.019-0.428-0.009-0.637,0.031c-0.229,0.045-0.46,0.144-0.69,0.298c-0.231,0.157-0.315,0.393-0.252,0.719
		c0.054,0.279,0.207,0.487,0.463,0.63c0.256,0.145,0.556,0.264,0.902,0.357c0.347,0.094,0.727,0.187,1.14,0.275
		c0.41,0.09,0.799,0.225,1.163,0.408c0.362,0.183,0.689,0.437,0.982,0.76c0.286,0.322,0.486,0.754,0.587,1.287
		c0.093,0.472,0.091,0.918-0.007,1.34c-0.094,0.425-0.275,0.804-0.538,1.14c-0.265,0.336-0.6,0.628-1.005,0.874
		c-0.41,0.247-0.891,0.427-1.44,0.532c-0.666,0.128-1.335,0.137-2.002,0.03c-0.669-0.107-1.223-0.339-1.66-0.69
		c0.087-0.152,0.195-0.343,0.32-0.568c0.122-0.225,0.241-0.443,0.353-0.649c0.111-0.206,0.251-0.453,0.414-0.738
		c-0.005-0.015,0.056,0.002,0.175,0.057c0.118,0.053,0.28,0.111,0.474,0.172c0.198,0.065,0.429,0.111,0.688,0.147
		c0.258,0.033,0.518,0.025,0.777-0.024c0.405-0.077,0.7-0.226,0.887-0.447c0.185-0.221,0.252-0.462,0.203-0.722
		c-0.052-0.26-0.202-0.451-0.452-0.571c-0.251-0.12-0.547-0.22-0.893-0.295c-0.339-0.077-0.721-0.159-1.132-0.248
		c-0.413-0.09-0.801-0.225-1.165-0.409c-0.362-0.182-0.69-0.443-0.986-0.782c-0.292-0.341-0.496-0.801-0.607-1.389
		c-0.111-0.582-0.102-1.09,0.036-1.522c0.136-0.431,0.345-0.8,0.633-1.106c0.285-0.308,0.614-0.551,0.982-0.731
		c0.371-0.181,0.741-0.307,1.116-0.379c0.503-0.096,1.049-0.096,1.629,0.003C96.699,37.096,97.213,37.294,97.659,37.597z"/>
	<path fill="#FFFFFF" d="M108.762,61.316c-0.068,0.166-0.155,0.354-0.256,0.568c-0.104,0.212-0.204,0.414-0.302,0.601
		c-0.1,0.188-0.216,0.42-0.347,0.698c-0.185-0.081-0.36-0.144-0.526-0.176c-0.167-0.036-0.356-0.062-0.571-0.08
		c-0.214-0.019-0.428-0.009-0.637,0.031c-0.229,0.045-0.46,0.144-0.69,0.298c-0.231,0.157-0.315,0.394-0.252,0.719
		c0.054,0.278,0.207,0.487,0.463,0.63c0.256,0.145,0.556,0.265,0.902,0.356c0.347,0.095,0.727,0.187,1.139,0.275
		c0.411,0.091,0.8,0.225,1.164,0.408c0.362,0.183,0.689,0.436,0.982,0.759c0.285,0.322,0.486,0.755,0.587,1.287
		c0.093,0.473,0.091,0.918-0.007,1.342c-0.094,0.424-0.275,0.803-0.538,1.139c-0.265,0.337-0.6,0.629-1.005,0.875
		c-0.41,0.246-0.891,0.426-1.441,0.531c-0.665,0.128-1.334,0.138-2.001,0.031c-0.669-0.108-1.223-0.34-1.66-0.691
		c0.087-0.151,0.195-0.343,0.321-0.568c0.121-0.225,0.24-0.442,0.352-0.647c0.111-0.207,0.251-0.454,0.414-0.738
		c-0.005-0.016,0.056,0.003,0.175,0.056c0.118,0.054,0.28,0.112,0.474,0.174c0.198,0.064,0.429,0.111,0.688,0.146
		c0.258,0.033,0.518,0.025,0.777-0.023c0.405-0.078,0.7-0.227,0.887-0.448c0.185-0.22,0.252-0.461,0.203-0.722
		c-0.052-0.26-0.201-0.451-0.452-0.571c-0.251-0.119-0.547-0.22-0.893-0.295c-0.339-0.077-0.721-0.16-1.132-0.249
		c-0.413-0.089-0.801-0.225-1.165-0.407c-0.362-0.183-0.69-0.444-0.986-0.782c-0.292-0.341-0.496-0.802-0.607-1.389
		c-0.111-0.581-0.102-1.091,0.036-1.522c0.136-0.43,0.345-0.799,0.633-1.106c0.285-0.308,0.614-0.551,0.982-0.731
		c0.371-0.181,0.742-0.307,1.116-0.379c0.503-0.096,1.049-0.096,1.629,0.003C107.802,60.814,108.315,61.013,108.762,61.316z"/>
</g>
</svg>
