<?xml version="1.0" encoding="utf-8"?>
<!-- Generator: Adobe Illustrator 16.0.0, SVG Export Plug-In . SVG Version: 6.00 Build 0)  -->
<!DOCTYPE svg PUBLIC "-//W3C//DTD SVG 1.1//EN" "http://www.w3.org/Graphics/SVG/1.1/DTD/svg11.dtd">
<svg version="1.1" id="Calque_1" xmlns="http://www.w3.org/2000/svg" xmlns:xlink="http://www.w3.org/1999/xlink" x="0px" y="0px"
	 width="294px" height="235px" viewBox="0 0 294 235" enable-background="new 0 0 294 235" xml:space="preserve">
<polygon fill="#FFFFFF" points="280,17 280,221 21.814,221 22,220.045 22,220.006 10.773,208.777 22,197.551 22,197.511 
	10.773,186.283 22,175.047 22,175.006 10.773,163.777 22,152.552 22,152.51 10.773,141.275 22,130.047 22,130.008 10.773,118.779 
	22,107.543 22,107.51 10.773,96.274 22,85.047 22,85.008 10.773,73.779 22,62.543 22,62.502 10.773,51.276 22,40.049 22,40.008 
	10.773,28.779 22,17.543 22,17 "/>
</svg>
