<?xml version="1.0" encoding="utf-8"?>
<!-- Generator: Adobe Illustrator 16.0.0, SVG Export Plug-In . SVG Version: 6.00 Build 0)  -->
<!DOCTYPE svg PUBLIC "-//W3C//DTD SVG 1.1//EN" "http://www.w3.org/Graphics/SVG/1.1/DTD/svg11.dtd">
<svg version="1.1" id="Calque_1" xmlns="http://www.w3.org/2000/svg" xmlns:xlink="http://www.w3.org/1999/xlink" x="0px" y="0px"
	 width="230.666px" height="244px" viewBox="0 0 230.666 244" enable-background="new 0 0 230.666 244" xml:space="preserve">
<path fill="#001526" d="M223,11v219H7V11h10.726c0.171,4,4.73,9.512,10.33,9.512c5.601,0,10.15-5.512,10.32-9.512h8.78
	c0.17,4,4.729,9.512,10.33,9.512c5.6,0,10.16-5.512,10.33-9.512h8.77c0.17,4,4.73,9.512,10.33,9.512S97.076,15,97.246,11h8.78
	c0.17,4,4.72,9.512,10.319,9.512c5.602,0,10.16-5.512,10.33-9.512h8.78c0.17,4,4.729,9.512,10.33,9.512
	c5.59,0,10.149-5.512,10.319-9.512h8.779c0.17,4,4.73,9.512,10.33,9.512c5.602,0,10.15-5.512,10.32-9.512h8.779
	c0.17,4,4.729,9.512,10.33,9.512S214.804,15,214.974,11H223z"/>
<rect x="23.999" y="45.179" fill="none" width="185.333" height="182.321"/>
</svg>
