<?xml version="1.0" encoding="utf-8"?>
<!-- Generator: Adobe Illustrator 16.0.0, SVG Export Plug-In . SVG Version: 6.00 Build 0)  -->
<!DOCTYPE svg PUBLIC "-//W3C//DTD SVG 1.1//EN" "http://www.w3.org/Graphics/SVG/1.1/DTD/svg11.dtd">
<svg version="1.1" id="Calque_1" xmlns="http://www.w3.org/2000/svg" xmlns:xlink="http://www.w3.org/1999/xlink" x="0px" y="0px"
	 width="400px" height="1688px" viewBox="0 0 400 1688" enable-background="new 0 0 400 1688" xml:space="preserve">
<g>
	<path fill="#EFBFA5" d="M239.35,855l-0.311,6.07c35.311-28.551,53.04-62.38,54.181-103.49c0.97-34.99-10.5-69.29-20.62-99.6
		c-8.66-25.91-16.83-50.36-14.431-67.53l-35.819-4.99c-3.58,25.58,5.89,53.97,15.939,84.021c19.931,59.699,38.761,116.1-24.09,165.3
		l-0.57,0.45l-0.539,0.3c-1.341,1.239-8.33,8.47-14.461,19.47H239.35z"/>
	<path fill="#E58C4A" d="M4.39,587.85l0.21,49.04L5.629,855H255V637h26v-49.15c0-1.21,0.09-2.63,0.06-3.83
		c-0.7-24.399-8.375-47.14-21.065-66.21c-20.869-31.39-55.427-52.869-95.167-55.529c-2.76-0.19-5.578-0.28-8.388-0.28h-50.5
		c-55.38,0-78.95,36.55-95.32,86.57c-0.109,0.3-0.21,0.689-0.29,0.989c-2.13,6.641-3.71,13.58-4.7,20.641
		C4.81,575.96,4.39,581.88,4.39,587.85z"/>
	<path fill="#EFBFA5" d="M116.3,391.98c0.729,20.59,2.199,61.46,7.939,89.81c1.521,7.54,3.34,14.19,5.53,19.34
		c0,0,0.101,0.021,0.11,0.05c0.01,0.011,0.12,0.03,0.12,0.051c0,0.01,0,0.01,0,0.01v0.04c0,0,0,0,0,0.01s0,0.01,0,0.02v0.021
		c1,1.74,7.91,14.63,26.279,14.63c5.28,0,9.585-1.11,13.075-2.68c8.2-3.65,11.713-9.771,11.713-9.771s-8.459-22.54-7.43-39.6
		c0.16-2.83,0.586-5.51,1.366-7.91c0.42-1.32,0.948-2.57,1.598-3.7c5.66-9.91,14.459-4.52,28.139,5.86
		c7.84,5.96,17.28,13.56,28.64,20.859c31.171,20.04,57.88-3.34,63.449-18.93c2.17-6.08,4-7.24,6.82-9.05
		c4.41-2.82,11.24-7.21,25.56-34.36c10.96-20.79,14.58-45.439,15.54-69.689c0.091-2.35,0.16-4.69,0.21-7.03
		c0.021-0.56,0.03-1.12,0.03-1.681c0.021-0.559,0-1.119,0-1.67c0.021-1.529,0.011-3.06,0.011-4.58V292.88
		c-1-4.33-0.37-8.479-0.301-12.43c0.03-2.22-0.055-4.37,0.045-6.45c0.021-0.38-0.037-0.76-0.018-1.141
		c0.021-0.299-0.009-0.6,0.012-0.899c0.04-0.67,0.045-1.319,0.086-1.97c0-0.19-0.003-0.37,0.007-0.561
		c0.021-0.41,0.08-0.82,0.09-1.229c0.01-0.4,0.079-0.8,0.079-1.2v-0.05c0-3.94-0.17-7.54-0.53-10.851
		c-1.58-14.289-6.885-23.47-13.745-33.27c-2.68-3.82-5.598-7.73-8.628-12.08c-1.35-1.95-2.748-3.99-4.139-6.15
		c-12.12,0.061-25.024,3.561-32.124-7.229c-10.43-15.86-12.942-12.94-20.873-3.761c-7.93,9.19-21.711,14.201-35.9-1.25
		c-14.19-15.439-27.97-5.84-32.561,5.011c-4.59,10.86-6.68,9.19-14.61,7.101c-10.9-2.871-12.941,4.59-27.971,15.029
		c-0.579,0.41-1.149,0.811-1.68,1.221c-0.27,0.209-0.53,0.409-0.79,0.619c-0.26,0.2-0.51,0.41-0.76,0.62
		c-0.22,0.181-0.44,0.37-0.65,0.55c-0.38,0.34-0.76,0.69-1.109,1.03c-0.16,0.14-0.311,0.29-0.45,0.44
		c-0.16,0.149-0.311,0.31-0.46,0.459c-0.21,0.221-0.41,0.44-0.61,0.66c-0.21,0.23-0.42,0.471-0.609,0.7
		c-0.181,0.2-0.351,0.41-0.511,0.62c-0.359,0.45-0.689,0.891-1,1.34c-0.25,0.36-0.489,0.73-0.71,1.1
		c-0.47,0.75-0.88,1.521-1.239,2.301c-0.16,0.359-0.32,0.72-0.461,1.08c-0.159,0.39-0.3,0.779-0.43,1.17
		c-0.12,0.34-0.22,0.68-0.31,1.02c-0.04,0.11-0.07,0.221-0.09,0.32c-0.091,0.34-0.181,0.67-0.25,1.01
		c-0.011,0.051-0.021,0.1-0.03,0.141c-0.061,0.289-0.12,0.58-0.17,0.879c-0.021,0.091-0.16,0.181-0.17,0.271
		c-0.36,2.13-0.43,4.36-0.43,6.72v0.08c0,0.311,0.16,0.641,0.199,0.961c0.11,1.39,0.346,2.83,0.585,4.319
		c0.061,0.37,0.163,0.75,0.232,1.13c0.54,3.03,1.342,6.26,2.292,9.73c1.43,5.23,2.045,9.57,2.045,13.39
		c0,0.431-0.012,0.86-0.033,1.28c-0.02,0.43-0.031,0.85-0.061,1.27c-0.03,0.291-0.051,0.58-0.081,0.87
		c-0.03,0.271-0.061,0.55-0.101,0.82c-0.02,0.18-0.05,0.36-0.07,0.54c-0.051,0.311-0.101,0.609-0.15,0.91
		c-0.07,0.359-0.15,0.709-0.22,1.06c-0.061,0.29-0.13,0.57-0.2,0.86c-0.18,0.71-0.38,1.4-0.6,2.08
		c-0.101,0.32-0.211,0.63-0.32,0.949c-0.28,0.801-0.59,1.601-0.93,2.381c-0.03,0.08-0.07,0.149-0.101,0.22
		c-0.08,0.19-0.16,0.38-0.25,0.569c-0.64,1.42-1.36,2.82-2.13,4.24c-1.07,1.971-2.24,3.98-3.47,6.131
		c-6.681,11.689-13.36,13.359-11.69,32.56c1.67,19.21,25.05,20.319,25.05,20.319s3.341,11.41-4.18,21.431
		C141.01,379.62,130.189,387.88,116.3,391.98z"/>
	<path fill="none" stroke="#000000" stroke-width="3.3397" stroke-miterlimit="10" d="M115.93,378.27c0,0,0.069,5.271,0.37,13.711"
		/>
	<path fill="none" stroke="#000000" stroke-width="3.3397" stroke-miterlimit="10" d="M313.52,197.37
		c1.479,2.569,2.96,4.96,4.43,7.229"/>
	<path fill="#B78906" d="M115.829,315.3l-0.01-1.26c0.04-0.54,0.05-1.021,0.09-1.53c-0.05,0.51-0.06,0.99-0.1,1.53L115.829,315.3z"
		/>
	<path fill="#E0A30A" d="M29.93,234.109c8.35,16.701,10.859,49.261,20.04,59.281c9.18,10.02,11.689,15.859,8.35,30.889
		c-3.34,15.031-8.35,23.381,7.51,34.23c15.87,10.85,17.54,37.57,37.58,35.9c4.53-0.38,8.84-1.22,12.891-2.43
		c13.89-4.101,24.71-12.36,30.52-20.11c7.521-10.021,4.18-21.431,4.18-21.431s-6.069-0.289-12.25-3.119
		c-1.3-0.59-2.6-1.301-3.85-2.141c-0.51-0.15-1.03-0.33-1.56-0.539c-1.761-0.701-3.61-1.771-5.431-3.17
		c-1.8-1.41-3.58-3.171-5.14-5.25c-1.58-2.07-2.96-4.461-4.061-7.061c-1.1-2.6-1.899-5.42-2.39-8.34c-0.06-0.36-0.11-0.73-0.16-1.1
		c-0.149-1.111-0.24-2.23-0.3-3.361l0.066-0.279l0.074-0.141v-0.069l-0.096-0.57l-0.052-1.26c0.04-0.54,0.028-1.021,0.078-1.53
		c0.01-0.17,0.02-0.35,0.039-0.529c0.271-2.9,0.985-5.76,2.105-8.4c0.54-1.32,1.216-2.57,1.937-3.76
		c0.73-1.19,1.579-2.271,2.448-3.291c1.811-1.969,3.85-3.609,6.04-4.6c2.17-1.039,4.46-1.49,6.63-1.439
		c2.12,0.02,4.12,0.5,5.86,1.16c0.51-0.94,1-1.871,1.45-2.791c3.83-7.739,5.56-15.369,1.88-28.869
		c-2.47-9.051-3.82-16.48-2.77-22.94c1.1-6.649,4.75-12.26,12.369-17.55c15.03-10.439,17.07-17.9,27.971-15.029
		c7.93,2.09,10.02,3.76,14.609-7.101c4.591-10.851,18.37-20.45,32.561-5.011c14.189,15.451,27.97,10.44,35.899,1.25
		c7.931-9.18,10.44-12.1,20.87,3.761c7.101,10.79,20,7.29,32.12,7.229c2.47-0.01,4.9,0.121,7.25,0.551c3.07,0.55,6,1.6,8.641,3.49
		c14.609,10.439,26.72,0.42,36.319-11.271c9.601-11.69,5.851-27.55-1.67-40.49c-7.51-12.94,15.03-18.37,9.601-41.75
		c-5.421-23.38-32.561-28.25-32.561-28.25s23.94-42.3-16.14-65.399c0,0,6.399,20.319-3.62,25.89c0,0,6.399-28.67-37.01-43.42
		c0,0,10.29,30.89-4.181,35.62c-14.47,4.729-24.489-25.61-50.93-13.641c-26.44,11.971-35.06,13.36-42.021,9.471
		c-6.96-3.9-35.899-5.01-50.38,9.459C126.779,59.33,112.59,80.2,92.279,77.98c-20.32-2.23-33.13,18.369-33.4,28.39
		c-0.279,10.01-10.579,45.08-18.09,61.78C33.27,184.85,21.579,217.41,29.93,234.109z"/>
	<g>
		<g>
			<polygon fill="#CE9D85" points="206.01,259.46 207.279,267.311 268.68,272.9 270.109,265.279 			"/>
			<path fill="#CE9D85" d="M319.669,274h24.921c0.039-0.689,0.069-1.37,0.109-2.04c0.101-1.72,0.16-3.37,0.19-4.96h-25.8
				L319.669,274z"/>
		</g>
		<g>
			<polygon fill="#B78906" points="201.369,231.88 205.819,259.439 206.01,259.46 270.109,265.279 272.76,256 275.119,247.75 			"/>
			<polygon fill="#B78906" points="318.1,256.1 319.09,266.95 347.569,266.95 347.569,256.1 			"/>
		</g>
	</g>
	<path fill="#523C34" d="M238.244,288.795c0,7.302,2.742,13.221,6.125,13.221c3.379,0,6.118-5.919,6.118-13.221
		c0-7.299-2.739-13.219-6.118-13.219C240.986,275.576,238.244,281.496,238.244,288.795z"/>
	<path fill="#523C34" d="M326.188,288.795c0,7.302,2.742,13.221,6.125,13.221c3.379,0,6.118-5.919,6.118-13.221
		c0-7.299-2.739-13.219-6.118-13.219C328.93,275.576,326.188,281.496,326.188,288.795z"/>
	<g>
		<path fill="#70573A" d="M273.47,370.471l0.939,0.409c3.97,1.75,7.98,3.4,11.99,5.04c4.01,1.63,8.03,3.23,12.07,4.79l0.58,0.22
			l0.779-0.12c3.36-0.54,6.71-1.119,10.07-1.699l10.04-1.82l2.39-0.43l0.011-2.49l0.029-7.229l-0.029-7.24l-0.011-1.9l-1.68-0.779
			l-5.88-2.711l-4.37-1.98c-0.07-3.389-0.17-6.77-0.3-10.159c-0.04-0.96-0.07-1.931-0.12-2.89v-0.11
			c-0.101-2.53-0.22-5.08-0.351-7.62c-0.01-0.21-0.02-0.41-0.029-0.62c-0.01-0.239-0.03-0.489-0.04-0.729
			c-0.21-3.99-0.48-7.98-0.78-11.971c-0.13-1.99-0.32-3.979-0.49-5.979c-0.17-1.99-0.38-3.99-0.609-5.979
			c-0.221,1.989-0.44,3.989-0.601,5.979c-0.17,2-0.359,3.989-0.489,5.979c-0.25,3.32-0.49,6.641-0.671,9.961
			c-0.01,0.159-0.02,0.33-0.029,0.489c-0.03,0.511-0.061,1.011-0.08,1.521c-0.101,1.89-0.2,3.789-0.28,5.68v0.029
			c-0.1,2.091-0.189,4.17-0.26,6.261c-0.16,3.989-0.271,7.979-0.36,11.97l-0.04,1.689l1.62,0.811l5.79,2.891l4.11,2.01l-0.011,1.56
			l-0.01,3.841l0.021,4.819l-7.58,1.57c-3.12,0.68-6.24,1.35-9.351,2.06c-3.88-1.229-7.77-2.42-11.68-3.6
			c-3.9-1.15-7.78-2.29-11.7-3.36l-0.239-3.18l-0.03-0.4l-0.36-4.13c1.65-0.32,3.3-0.66,4.96-1.02c-1.88-0.021-3.76-0.03-5.63-0.01
			l-0.46,0.01l-0.05,0.56l-0.4,4.59l-0.34,4.591L273.47,370.471z"/>
		<path fill="#CE9D85" d="M275.84,365.45l0.239,3.18c3.92,1.07,7.8,2.21,11.7,3.36c3.91,1.18,7.8,2.37,11.68,3.6
			c3.11-0.71,6.23-1.38,9.351-2.06l7.58-1.57l-0.021-4.819l0.01-3.841l-16.399,4.45L275.84,365.45z"/>
	</g>
	<path fill="#70573A" d="M296.376,423.52c0,0-0.969-0.212-2.663-0.584c-1.68-0.377-4.053-0.913-6.838-1.585
		c-1.393-0.346-2.891-0.717-4.453-1.151c-1.568-0.407-3.192-0.912-4.859-1.419c-1.658-0.541-3.356-1.107-5.039-1.758
		c-1.692-0.634-3.358-1.361-4.997-2.131c-1.629-0.779-3.218-1.626-4.722-2.542s-2.941-1.882-4.257-2.919
		c-1.329-1.02-2.546-2.098-3.652-3.188c-0.597-0.512-1.049-1.115-1.571-1.643c-0.535-0.52-0.952-1.096-1.398-1.628
		c-0.456-0.527-0.874-1.05-1.231-1.577c-0.383-0.521-0.745-1.017-1.084-1.48c-0.598-0.979-1.212-1.82-1.644-2.554
		c-0.4-0.743-0.775-1.32-1.006-1.725c-0.25-0.401-0.383-0.616-0.383-0.616s0.01,0.249,0.028,0.717
		c0.037,0.464,0.056,1.162,0.156,2.04c0.111,0.874,0.325,1.925,0.588,3.148c0.376,1.171,0.726,2.563,1.394,3.957
		c0.599,1.434,1.428,2.915,2.42,4.413c1.009,1.485,2.201,2.983,3.6,4.368c0.688,0.709,1.419,1.395,2.21,2.025
		c0.39,0.32,0.772,0.662,1.179,0.971c0.416,0.295,0.836,0.591,1.256,0.889c1.677,1.202,3.512,2.198,5.367,3.121
		c1.886,0.85,3.793,1.651,5.729,2.216c1.92,0.62,3.852,1.051,5.721,1.396c1.873,0.322,3.691,0.553,5.419,0.655
		c1.727,0.12,3.36,0.128,4.861,0.087c1.502-0.059,2.873-0.158,4.085-0.313c1.209-0.138,2.258-0.344,3.115-0.508
		c0.859-0.162,1.527-0.356,1.98-0.473C296.139,423.605,296.376,423.52,296.376,423.52z"/>
	<path fill="#A46922" d="M164.81,462.28c0.26,0.63,0.52,1.25,0.77,1.84c0.011,0.02,0.021,0.05,0.03,0.07
		c2.02,4.829,4.8,9.079,8.02,12.72c4.061,4.609,8.82,8.25,13.61,10.859c1.561,0.86,3.12,1.601,4.67,2.24
		c10.021,4.11,40.91,16.76,52.601,25.11c3.279,2.34,8.939,3.11,15.449,2.689C239.09,486.42,204.55,464.94,164.81,462.28z"/>
	<g>
		<path fill="#CE9D85" d="M265,291.5c0,0,0.258,0.21,0.405,0.604c0.142,0.396,0.457,0.962,0.628,1.747
			c0.107,0.389,0.246,0.823,0.318,1.296c0.095,0.475,0.185,0.993,0.217,1.552c0.121,1.118,0.111,2.396-0.039,3.789
			c-0.186,1.382-0.439,2.906-1.011,4.429c-0.552,1.525-1.281,3.099-2.268,4.591c-0.985,1.489-2.181,2.917-3.556,4.197
			c-1.362,1.3-2.942,2.388-4.582,3.342c-1.65,0.944-3.402,1.685-5.171,2.232c-1.76,0.589-3.555,0.897-5.279,1.134
			c-1.733,0.184-3.411,0.263-4.988,0.184c-1.578-0.046-3.056-0.236-4.398-0.472c-1.349-0.198-2.555-0.527-3.617-0.803
			c-1.059-0.297-1.962-0.618-2.702-0.874c-1.466-0.576-2.277-0.947-2.277-0.947s0.906,0.035,2.444,0.169
			c0.769,0.039,1.702,0.086,2.772,0.14c1.068,0.015,2.262,0.052,3.557,0.025c0.646,0.008,1.318-0.037,2.01-0.084
			c0.691-0.027,1.402-0.083,2.129-0.165c1.455-0.122,2.965-0.378,4.504-0.675c1.526-0.35,3.091-0.74,4.61-1.31
			c1.521-0.559,3.033-1.204,4.436-2.033c1.415-0.801,2.769-1.713,3.977-2.755s2.303-2.173,3.259-3.363
			c0.949-1.195,1.73-2.457,2.389-3.708c0.67-1.25,1.137-2.518,1.534-3.711c0.166-0.604,0.343-1.187,0.454-1.753
			c0.144-0.563,0.248-1.106,0.315-1.624c0.097-0.516,0.127-1.003,0.177-1.458c0.059-0.458-0.094-0.875-0.09-1.252
			c0.039-0.755-0.156-1.381-0.156-1.797C265,291.724,265,291.5,265,291.5z"/>
	</g>
	<g>
		<path fill="#CE9D85" d="M315.859,296.667c0,0,0.205,0.497,0.522,1.341c0.313,0.831,0.761,2.018,1.298,3.442
			c0.539,1.396,1.148,3.004,1.887,4.637c0.359,0.821,0.775,1.632,1.19,2.444c0.445,0.792,0.896,1.583,1.413,2.304
			c0.51,0.719,1.057,1.396,1.645,1.979c0.605,0.556,1.206,1.104,1.882,1.479c0.32,0.226,0.681,0.352,1.013,0.542
			c0.356,0.123,0.692,0.308,1.057,0.39c0.355,0.109,0.708,0.22,1.068,0.272c0.355,0.08,0.706,0.146,1.055,0.169
			c0.692,0.103,1.354,0.097,1.957,0.134c0.591-0.042,1.137-0.02,1.582-0.051c0.886-0.077,1.432-0.084,1.432-0.084
			s-0.408,0.33-1.191,0.842c-0.396,0.244-0.9,0.507-1.498,0.788c-0.614,0.229-1.313,0.534-2.143,0.685
			c-0.407,0.108-0.846,0.154-1.309,0.195c-0.461,0.063-0.944,0.038-1.448,0.02c-0.507,0.008-1.015-0.135-1.548-0.208
			c-0.517-0.137-1.061-0.276-1.574-0.502c-1.061-0.403-2.041-1.054-2.938-1.795c-0.901-0.745-1.641-1.644-2.316-2.561
			c-0.641-0.939-1.182-1.917-1.623-2.908c-0.428-0.991-0.786-1.984-1.04-2.958c-0.536-1.943-0.749-3.79-0.814-5.365
			c-0.052-1.579,0.053-2.891,0.179-3.803C315.718,297.18,315.859,296.667,315.859,296.667z"/>
	</g>
	<path fill="#CE9D85" d="M295.9,383c-0.333,12.209,0.125,21.75,0.125,21.75l-5.166-1.75l-2.5-23.25L295.9,383z"/>
	<path fill="#CE9D85" d="M299.464,383c0.333,12.209,0.052,21.75,0.052,21.75l5.344-1.75l2.75-21.333L299.464,383z"/>
	<g>
		<g>
			<path fill="#2CDA9B" d="M252.879,327.42v0.01c0.16-0.039,0.32-0.08,0.48-0.13L252.879,327.42z M259.999,324.73
				c0.011-0.01,0.03-0.01,0.04-0.021c0.03-0.021,0.061-0.03,0.09-0.05c0.021-0.02,0.051-0.03,0.08-0.051
				c0.131-0.08,0.271-0.149,0.4-0.229c0.04-0.021,0.08-0.05,0.12-0.08c-0.04,0.021-0.08,0.05-0.12,0.07
				c-0.19,0.12-0.38,0.229-0.57,0.33C260.029,324.71,260.01,324.721,259.999,324.73z M261.199,324.02
				c0.101-0.06,0.2-0.119,0.29-0.18c0-0.01,0.01-0.01,0.01-0.01l0.091-0.061c-0.03,0.01-0.061,0.03-0.091,0.051
				C261.409,323.891,261.3,323.95,261.199,324.02z M252.609,327.08l0.26,0.33c0.07-0.04,0.34-0.131,0.48-0.17
				c0.17-0.04,0.35-0.15,0.52-0.2c-0.01-0.03-0.029-0.069-0.04-0.069c-0.31,0.09-0.63,0.029-0.95,0.029h-0.01
				C252.779,327,252.699,327.04,252.609,327.08z M254.069,327c-0.06,0-0.13,0.01-0.2,0.04c0,0.01,0.01,0.021,0.01,0.021
				c0.07,0,0.141,0.029,0.211,0.01c0.18-0.051,0.359-0.1,0.539-0.15c-0.189,0.051-0.369,0.08-0.539,0.08
				C254.079,327,254.079,327,254.069,327z M255.229,326.75c-0.19,0.061-0.37,0.109-0.561,0.16c0.2-0.04,0.391-0.1,0.57-0.16
				C255.229,326.75,255.229,326.75,255.229,326.75z M255.359,326.721c-0.03,0.01-0.05,0.02-0.08,0.029h0.03c0.01,0,0.01,0,0.01,0
				c0.021-0.01,0.04-0.02,0.06-0.02c0.33-0.11,0.66-0.23,0.98-0.34v-0.011C256.039,326.5,255.699,326.609,255.359,326.721z
				 M256.399,326.3c-0.01,0-0.021,0.08-0.04,0.08c0.03-0.01,0.05-0.021,0.07-0.021c0.38-0.149,0.76-0.289,1.13-0.449
				c0.319-0.141,0.64-0.28,0.96-0.439c-0.22,0.1-0.44,0.18-0.66,0.27c-0.1,0.05-0.2,0.06-0.3,0.1c-0.181,0.08-0.37,0.16-0.55,0.16
				c0,0,0,0-0.011,0C256.8,326,256.6,326.23,256.399,326.3z M258.64,325.41c-0.021,0.01-0.04,0.029-0.061,0.029
				c0.021,0,0.04-0.01,0.061-0.02c0.08-0.04,0.149-0.07,0.22-0.1C258.789,325.35,258.72,325.37,258.64,325.41z M260.039,324.7
				c-0.01,0.01-0.029,0.021-0.04,0.03c0.011-0.01,0.03-0.01,0.04-0.021c0.03-0.021,0.061-0.03,0.09-0.05
				c0.021-0.02,0.051-0.03,0.08-0.051c0.131-0.08,0.271-0.149,0.4-0.229c0.04-0.021,0.08-0.05,0.12-0.08
				c-0.04,0.021-0.08,0.05-0.12,0.07C260.419,324.49,260.229,324.6,260.039,324.7z M261.499,323.82c-0.09,0.07-0.199,0.13-0.3,0.199
				c0.101-0.06,0.2-0.119,0.29-0.18c0-0.01,0.01-0.01,0.01-0.01l0.091-0.061C261.56,323.779,261.529,323.8,261.499,323.82z
				 M261.869,323.561c-0.02,0.02-0.04,0.029-0.05,0.049h0.01l0.011-0.01c0.029-0.02,0.06-0.039,0.1-0.07
				c0.03-0.01,0.05-0.029,0.08-0.049c0.13-0.09,0.26-0.181,0.38-0.271h0.01c0.04-0.03,0.08-0.06,0.12-0.09
				c0.14-0.101,0.29-0.21,0.43-0.33c0.03-0.011,0.061-0.03,0.08-0.05c0.051-0.04,0.09-0.07,0.141-0.11
				c0.02-0.021,0.029-0.03,0.05-0.05c-0.061,0.05-0.12,0.1-0.19,0.141c-0.029,0.029-0.06,0.029-0.09,0.049
				c-0.07,0.061-0.149,0.101-0.229,0.16c-0.07,0.051-0.13,0.051-0.19,0.09c-0.04,0.021-0.08-0.02-0.12-0.02h-0.01
				c-0.1,0-0.21,0.221-0.33,0.34c-0.02,0.01-0.03,0.03-0.05,0.04c-0.021,0.011-0.04,0.03-0.05,0.05
				C261.93,323.471,261.899,323.51,261.869,323.561z M263.819,322.09c0.04-0.02,0.07-0.05,0.11-0.09
				C263.899,322,263.859,322.04,263.819,322.09z M123.109,276.311l3.12,15.699l14.88-0.58l61.6-2.4l4.58-0.18
				c0.33,1.211,0.87,1.961,1.34,2.61c0.25,0.36,0.471,0.681,0.631,1.021c0.35,0.81,0.609,1.799,0.75,2.949
				c2.899,24.93,3.59,28.33,11.89,34.09c3.96,2.76,12.16,4.811,20.42,5.101c4.16,0.149,9.5-0.11,14.87-1.591
				c2.96-0.799,5.92-1.979,8.7-3.659c2.279-1.38,4.3-3.479,6.05-6c1.7-2.41,2.76-5.19,4.41-8.021c1.67-3.02,2.37-6.06,3.189-8.82
				c1.641-5.439,2.431-9.689,2.511-10.109c0.02-0.24,0.239-1.9,2.279-2.699c0.74-0.291,1.721-0.471,3.021-0.421
				c5.47,0.271,5.75,3.21,5.75,3.341c0.029,0.209,0.16,1.049,0.399,2.34c0.011,0.029,0.011,0.069,0.021,0.109
				c1.24,6.76,5.43,25.35,14.71,31.75c7.66,5.28,16.93,6.66,23.37,6.881c1.49,0.049,2.97,0.039,4.439-0.021
				c3.2-0.12,6.271-0.5,8.98-1.091c2.93-0.629,5.42-1.5,7.149-2.569c0.78-0.479,1.5-0.94,2.16-1.39
				c2.54-1.801,4.23-3.631,5.54-6.561c0.2-0.43,0.38-0.88,0.57-1.369c0.79-2.101,1.45-4.711,2.11-8.121
				c0.8-4.06,1.579-9.149,2.569-15.789c0.16-1.141,0.45-2.11,0.84-2.891c0.17-0.33,0.4-0.63,0.66-0.96
				c0.82-1.05,1.84-2.34,1.83-5.739c-0.01-0.551,0.03-1.561,0.061-2.681c0.069-1.69,0.13-3.58,0.08-4.61
				c-0.08-2.57-1.03-4.39-2.2-5.609c-0.9-0.95-1.92-1.551-2.761-1.85c-0.21-0.08-0.399-0.131-0.579-0.171
				c-5.61-1.63-11.801-2.78-18.4-3.44c-2.71-0.27-5.49-0.439-8.33-0.539c-2.57-0.09-5.18-0.08-7.83-0.03
				c-1.729,0.03-3.49,0.12-5.27,0.229l-0.771,0.121c-1.28,0.069-2.49,0.359-3.62,0.359c-0.01,0-0.01,0-0.02,0
				c-3.8,0-6.83,0.35-9.66,1.02c-2.17,0.521-4.24,1.101-6.43,2.23c-1.36,0.71-2.78,1.52-4.03,2.26c-1.79,1.07-4.21,2.2-5.98,2.811
				c-0.43,0.14-0.81,0.25-1.14,0.33c-0.69,0.17-1.39,0.33-2.01,0.459c-0.45,0.101-1.12,0.131-1.79,0.111
				c-0.63-0.021-1.26-0.091-1.7-0.211c-0.61-0.18-1.3-0.39-1.979-0.6c-1-0.301-2.49-0.99-3.99-1.801
				c-1.07-0.569-2.141-1.209-3.04-1.819c-1.23-0.83-2.601-1.7-3.95-2.5c-5.8-3.45-10.7-3.78-19.58-5.09l-0.76-0.021
				c-0.4-0.02-0.78-0.029-1.17-0.029c-1.26-0.33-2.25-0.61-3.24-0.75c-1.05-0.221-2.04-0.44-3.02-0.48
				c-1.53-0.05-3.021-0.1-4.49-0.15c-3.75-0.129-7.3-0.14-10.73,0c-6.16,0.25-11.99,1.141-17.33,2.32
				c-0.55,0.09-1.279,0.34-2.029,0.79c-0.131,0.07-0.261,0.149-0.391,0.24c-0.91,0.61-1.81,1.53-2.45,2.81l-61.659,1
				L123.109,276.311z M361.739,286.68l3.75-1.729l-0.05,3.72L361.739,286.68z M299.89,292.07c0.01-0.11-0.011-0.2,0-0.301
				c0.01-0.049,0.04-0.1,0.04-0.149c0.01-0.29,0.07-0.54,0.07-0.79v-0.01c0-0.211,0.05-0.41,0.06-0.59
				c0.04-0.26,0.115-0.48,0.145-0.681c0.061-0.34,0.093-0.62,0.143-0.84c0.021-0.08,0.031-0.149,0.041-0.21
				c0.021-0.09,0.026-0.17,0.056-0.21c0.01-0.05,0.018-0.08,0.028-0.101c0.029-0.109,0.068-0.189,0.099-0.279
				c0.021-0.03,0.03-0.07,0.05-0.1c0.01-0.021,0.02-0.041,0.029-0.061c0.03-0.061,0.06-0.12,0.09-0.17
				c0.44-0.83,1.351-1.96,3.271-3.109c0.239-0.15,0.51-0.301,0.779-0.451c0.28-0.14,0.58-0.289,0.9-0.439
				c0.479-0.23,1-0.45,1.57-0.66c0.189-0.08,0.38-0.15,0.58-0.21c0.579-0.22,1.21-0.42,1.89-0.61c0.25-0.06,0.5-0.129,0.76-0.199
				c0.49-0.141,1-0.271,1.54-0.381c0.24-0.06,0.48-0.119,0.73-0.17c0.569-0.119,1.08-0.22,1.6-0.31c0.09-0.021,0.18-0.03,0.26-0.05
				l0.75-0.12c0.21-0.03,0.431-0.07,0.65-0.101c0.22-0.039,0.45-0.069,0.68-0.1c0.76-0.109,1.55-0.21,2.38-0.3
				c0.3-0.04,0.62-0.07,0.931-0.101c0.279-0.029,0.569-0.06,0.869-0.08c0.211-0.02,0.41-0.039,0.62-0.06
				c0.601-0.04,1.23-0.09,1.87-0.13c0.34-0.02,0.681-0.04,1.03-0.061c0.38-0.02,0.78-0.049,1.18-0.069
				c0.4-0.021,0.8-0.04,1.221-0.06c0.42-0.011,0.829-0.031,1.229-0.041c1.49-0.039,2.9-0.069,4.22-0.08
				c0.681-0.01,1.351-0.01,1.99,0c0.22,0,0.43,0,0.65,0.011c0.67,0.01,1.319,0.03,1.939,0.05c0.73,0.02,1.44,0.061,2.11,0.1
				c0.14,0.01,0.27,0.021,0.4,0.03c0.13,0,0.26,0.011,0.39,0.021c0.49,0.029,0.92,0.07,1.34,0.109c0.09,0.01,0.2,0.02,0.28,0.03
				c0.27,0.03,0.54,0.06,0.8,0.09c0.05,0,0.09,0.011,0.14,0.011c0.2,0.029,0.4,0.049,0.601,0.08c0.109,0.02,0.22,0.029,0.33,0.049
				c0.18,0.021,0.35,0.051,0.52,0.07c0.22,0.04,0.44,0.07,0.66,0.11c0.09,0.01,0.18,0.03,0.26,0.04c0.19,0.029,0.38,0.07,0.57,0.109
				c0.189,0.041,0.37,0.07,0.55,0.11c0.24,0.05,0.43,0.09,0.61,0.14c0.12,0.03,0.239,0.061,0.35,0.08c0.14,0.03,0.271,0.07,0.4,0.1
				c0.14,0.041,0.27,0.08,0.399,0.121c0.12,0.039,0.25,0.07,0.37,0.109c0.09,0.02,0.19,0.051,0.28,0.08
				c0.04,0.01,0.07,0.02,0.1,0.04c0.73,0.229,1.4,0.49,2.011,0.771c0.079,0.029,0.17,0.07,0.25,0.109
				c0.149,0.07,0.29,0.15,0.43,0.23c0.149,0.07,0.29,0.15,0.43,0.23c0.28,0.159,0.57,0.34,0.87,0.539c0.47,0.32,0.9,0.66,1.29,1.02
				c0.19,0.181,0.37,0.361,0.54,0.541c0.15,0.16,0.29,0.31,0.43,0.47c0.07,0.08,0.141,0.16,0.2,0.239c0.07,0.08,0.13,0.16,0.18,0.24
				c0.101,0.131,0.2,0.271,0.29,0.4c0.11,0.141,0.2,0.28,0.29,0.43c0.301,0.45,0.561,0.93,0.811,1.42
				c1.43,2.84,2.359,8.73,2.31,12.431c-0.01,0.72-0.01,1.479-0.02,2.29c0,0.35-0.01,0.699-0.021,1.06c0,0.2-0.01,0.4-0.02,0.61
				c-0.01,0.279-0.021,0.57-0.04,0.859c0,0.121-0.01,0.25-0.021,0.371c-0.029,0.469-0.069,0.939-0.12,1.42
				c-0.039,0.39-0.09,0.77-0.149,1.16c0,0.02-0.01,0.039-0.01,0.059c-0.051,0.33-0.11,0.66-0.181,0.99
				c-0.06,0.32-0.12,0.631-0.199,0.951c-0.021,0.539-0.221,0.939-0.29,1.35c-0.19,0.99-0.48,1.979-0.75,2.959
				c-0.051,0.201-0.11,0.4-0.171,0.591c-0.1,0.36-0.21,0.72-0.319,1.069c-0.03,0.09-0.061,0.181-0.09,0.271
				c-0.15,0.49-0.311,0.979-0.48,1.47c-0.07,0.2-0.149,0.41-0.229,0.61c-0.16,0.41-0.33,0.81-0.511,1.21
				c-1.04,2.26-2.399,4.35-4.12,6.029c-0.18,0.171-0.35,0.341-0.529,0.5c-0.2,0.181-0.41,0.351-0.62,0.521
				c-0.26,0.22-0.54,0.45-0.82,0.671c-0.06,0.049-0.13,0.09-0.189,0.139c-0.15,0.121-0.301,0.23-0.46,0.341
				c-0.15,0.1-0.311,0.2-0.471,0.29c-0.21,0.119-0.42,0.23-0.64,0.34c-0.362,0.182-0.751,0.34-1.14,0.499
				c-0.313,0.124-0.633,0.245-0.96,0.36c-1.051,0.371-2.171,0.65-3.351,0.891c-0.47,0.1-0.939,0.189-1.42,0.279
				c-1.07,0.221-2.18,0.341-3.3,0.461c-0.07,0.01-0.12-0.07-0.19-0.07h-0.01c-0.01,0,0.121,0.1,0.1,0.109
				c-0.01,0.011,0.121,0.07,0.121,0.091v0.01c0,0.011-0.15,0.011-0.15,0.011c-0.449,0.059-1.005,0.119-1.465,0.18
				c-0.29,0.039-0.607,0.08-0.908,0.119c-0.63,0.08-1.269,0.17-1.918,0.25c-0.33,0.03-0.676,0.101-1.004,0.141
				c-0.121,0.01-0.235,0.09-0.355,0.09h-0.08c-0.01,0-0.01,0-0.02,0c-0.15,0-0.29,0.061-0.49,0.04c-0.18,0-0.31,0.05-0.45,0.04
				c-1.09-0.061-2.149-0.08-3.189-0.08c0,0-0.011,0-0.021,0c-0.149-0.23-0.31-0.4-0.46-0.529c-0.53-0.471-1.05-0.471-1.57-0.471
				h-1.989c-0.65,0-1.28-0.5-1.9-0.7c-0.31-0.09-0.62-0.34-0.93-0.45c-0.271-0.09-0.53-0.189-0.79-0.3
				c-0.271-0.1-0.53-0.21-0.78-0.319c-0.51-0.221-1.01-0.451-1.51-0.69c-0.99-0.49-1.93-1.021-2.82-1.601
				c-1.02-0.66-1.979-1.379-2.87-2.16c-0.22-0.189-0.439-0.389-0.66-0.59c-0.21-0.199-0.42-0.41-0.63-0.619
				c-0.279-0.28-0.54-0.561-0.8-0.85c-0.05-0.051-0.1-0.111-0.149-0.171c-0.271-0.3-0.521-0.61-0.771-0.93
				c-0.14-0.17-0.26-0.33-0.39-0.5c-0.12-0.16-0.23-0.341-0.351-0.5c-0.26-0.37-0.51-0.74-0.739-1.13c-0.11-0.16-0.2-0.32-0.28-0.48
				c-0.03-0.029-0.04-0.05-0.05-0.08c-0.08-0.14-0.17-0.289-0.24-0.43c-0.24-0.42-0.45-0.85-0.65-1.29
				c-0.25-0.55-0.5-1.101-0.72-1.64c-0.13-0.301-0.26-0.6-0.38-0.891c-0.18-0.43-0.351-0.85-0.51-1.26
				c-0.12-0.311-0.24-0.609-0.351-0.91c-0.569-1.51-1.06-2.949-1.479-4.33c-0.09-0.279-0.17-0.55-0.24-0.82
				c-0.2-0.68-0.38-1.35-0.54-1.989c-0.07-0.28-0.14-0.54-0.2-0.81c-0.09-0.36-0.17-0.711-0.24-1.061
				c-0.119-0.49-0.21-0.96-0.29-1.43c-0.05-0.25-0.09-0.49-0.14-0.721C299.829,297.391,299.77,294.26,299.89,292.07z M216.539,296.9
				c0-0.48,0-0.95,0.011-1.4c0.02-1.029,0.18-2.23,0.34-3.48c0.021-0.109,0.11-0.229,0.11-0.34v-0.01c0-0.34,0.029-0.68,0.12-1.029
				c0-0.021-0.025-0.041-0.016-0.07c0.03-0.131,0.042-0.26,0.072-0.4c0.021-0.109,0.102-0.21,0.121-0.32
				c0.051-0.24,0.257-0.47,0.296-0.709c0.051-0.23,0.406-0.44,0.406-0.65v-0.01c0-0.34-0.11-0.69-0.021-1.021
				c0.061-0.181-0.135-0.36-0.085-0.53c0.03-0.119,0.032-0.22,0.063-0.32c0.07-0.239,0.131-0.479,0.211-0.709
				c0.11-0.33,0.205-0.65,0.316-0.95c0.08-0.229,0.167-0.45,0.257-0.66s0.179-0.41,0.27-0.601c0.04-0.06,0.069-0.129,0.1-0.189
				l0.189-0.37c0.04-0.069,0.069-0.13,0.109-0.19c0.13-0.219,0.24-0.399,0.351-0.569c0.04-0.06,0.069-0.12,0.109-0.17
				c0.01-0.021,0.03-0.04,0.05-0.07c0.03-0.05,0.061-0.101,0.11-0.17c0-0.01,0.01-0.03,0.021-0.04c0.02-0.02,0.04-0.05,0.06-0.07
				c0.47-0.67,1.01-1.279,1.66-1.869c0.14-0.131,0.29-0.26,0.439-0.381c0.021-0.02,0.04-0.029,0.061-0.039
				c0.37-0.291,0.77-0.57,1.21-0.82c0.13-0.08,0.27-0.16,0.41-0.23c0.13-0.08,0.279-0.15,0.42-0.22c0.1-0.05,0.2-0.101,0.31-0.149
				c0.17-0.08,0.36-0.16,0.54-0.23c0.061-0.03,0.13-0.051,0.19-0.08c0.38-0.141,0.77-0.28,1.189-0.4
				c0.271-0.08,0.551-0.16,0.84-0.229c0.721-0.19,1.5-0.341,2.36-0.479c0.16-0.021,0.34-0.041,0.51-0.061s0.341-0.04,0.521-0.061
				c0.07-0.01,0.14-0.02,0.21-0.029c0.05-0.01,0.1-0.01,0.14-0.01c0.021,0,0.05-0.011,0.07-0.011c0.06-0.01,0.12-0.01,0.17-0.021
				c0.1,0,0.22-0.01,0.36-0.029c1.229-0.109,2.569-0.17,4.05-0.18c0.99-0.021,2.05,0,3.17,0.039c1.16,0.041,2.4,0.101,3.71,0.201
				c1.31,0.08,2.7,0.199,4.18,0.34c0.29,0.02,0.59,0.06,0.9,0.09c0.16,0.02,0.32,0.029,0.479,0.05c0.15,0.01,0.301,0.03,0.45,0.04
				c0.09,0.01,0.19,0.01,0.28,0.02c0.689,0.08,1.36,0.141,2.02,0.24c1.141,0.141,2.23,0.301,3.261,0.46
				c1.04,0.16,2.02,0.32,2.949,0.5c0.351,0.04,0.57,0.05,0.79,0.06c1.301,0.291,2.49,0.591,3.591,0.891
				c0.189,0.05,0.3,0.08,0.369,0.1c0.04,0.01,0.061,0.021,0.08,0.021c0.021,0.01,0.04,0.01,0.061,0.021
				c0.46,0.119,0.899,0.239,1.33,0.369c0.04,0.01,0.08,0.03,0.12,0.04c0.17,0.04,0.34,0.101,0.51,0.15
				c0.51,0.149,0.99,0.31,1.45,0.47c0.229,0.07,0.439,0.15,0.649,0.23c0.51,0.18,0.99,0.369,1.44,0.56
				c0.189,0.069,0.37,0.149,0.54,0.229c0.2,0.09,0.399,0.181,0.59,0.261c0.38,0.17,0.729,0.35,1.07,0.53
				c0.67,0.359,1.26,0.709,1.77,1.049c0.13,0.08,0.25,0.16,0.37,0.25c0.979,0.671,1.64,1.311,2.1,1.891
				c0.561,0.71,0.83,1.33,0.95,1.721c0.01,0.039,0.01,0.069,0.021,0.109c0.01,0.07,0.04,0.17,0.069,0.311
				c0.021,0.09,0.04,0.199,0.061,0.319c0.24,1.36,0.59,4.57-0.07,9.32c-0.07,0.45-0.14,0.899-0.21,1.37
				c-0.04,0.209-0.08,0.43-0.12,0.66c-0.04,0.189-0.08,0.39-0.12,0.59c-0.01,0.05-0.02,0.1-0.029,0.15
				c-0.011,0.059-0.021,0.109-0.03,0.17c-0.01,0.049-0.01,0.09-0.03,0.129c-0.01,0.101-0.03,0.181-0.04,0.26
				c-0.21,0.941-0.359,1.58-0.54,2.24c-0.04,0.131-0.069,0.26-0.109,0.391c0,0.02-0.011,0.04-0.021,0.07
				c-0.11,0.399-0.22,0.81-0.35,1.229c0,0.021-0.011,0.05-0.021,0.069c-0.01,0.051-0.03,0.111-0.05,0.16
				c-0.01,0.051-0.02,0.09-0.04,0.141c-0.03,0.109-0.07,0.22-0.11,0.34c-0.14,0.49-0.31,1-0.479,1.51
				c-0.03,0.1-0.07,0.2-0.101,0.301c-0.119,0.379-0.239,0.689-0.359,1c-0.01,0.029-0.021,0.049-0.03,0.08
				c-0.03,0.1-0.07,0.219-0.11,0.319c-0.109,0.32-0.239,0.649-0.369,0.99c-0.091,0.239-0.181,0.479-0.29,0.72
				c-0.101,0.26-0.221,0.53-0.33,0.801c-0.641,1.539-1.36,3.139-2.271,4.93c-0.2,0.38-0.37,0.75-0.59,1.109
				c-0.14,0.24-0.17,0.471-0.319,0.69c-0.03,0.069,0.04,0.13,0.04,0.19v0.01c0,0.359-0.65,0.699-0.92,1.039
				c-0.131,0.16-0.346,0.33-0.516,0.5c-0.01,0.011-0.037,0.021-0.048,0.031c-0.04,0.029-0.089,0.069-0.118,0.109
				c-0.021,0.02-0.045,0.04-0.055,0.061l-0.093,0.119c-0.04,0.061-0.091,0.12-0.15,0.17c-0.061,0.08-0.13,0.16-0.21,0.24
				c-0.07,0.08-0.142,0.15-0.222,0.23c-0.01,0.01-0.01,0.01-0.01,0.01c0.01,0-0.01,0.01-0.01,0.01c-0.01,0.01-0.01,0.02-0.01,0.02
				c-0.05,0.051-0.08,0.091-0.12,0.141c-0.08,0.09-0.16,0.17-0.24,0.25c-0.03,0.029-0.06,0.061-0.1,0.1
				c-0.07,0.07-0.15,0.141-0.221,0.211c-0.02,0.029-0.04,0.049-0.06,0.06c-0.04,0.04-0.07,0.069-0.11,0.11
				c-0.04,0.049-0.09,0.1-0.14,0.14c-0.08,0.08-0.17,0.159-0.25,0.239c-0.03,0.031-0.07,0.07-0.1,0.101
				c-0.021,0.011-0.03,0.05-0.051,0.06c-0.029,0.03-0.069,0.101-0.109,0.141c0,0-0.011,0.09-0.021,0.09c0,0,0,0-0.01,0
				c-0.04,0-0.08-0.01-0.12,0.02c-0.02,0.021-0.03-0.02-0.05-0.02h-0.01c-0.03,0-0.07,0.04-0.11,0.09c0,0.02-0.01,0.02-0.01,0.02
				l-0.01,0.011c-0.011,0.021-0.021,0.04-0.04,0.05c-0.051,0.051-0.101,0.109-0.15,0.15c-0.09,0.07-0.18,0.16-0.27,0.229
				c0,0-0.011,0.05-0.011,0.06c-0.02,0.011-0.029,0.131-0.05,0.15c-0.01,0.01-0.03,0.24-0.04,0.24h-0.01
				c-0.061,0-0.12-0.109-0.19-0.07c-0.02,0.021-0.05-0.1-0.069-0.13c0-0.01-0.011-0.01-0.011-0.01c0.03-0.011,0.061-0.03,0.08-0.05
				c0.051-0.04,0.09-0.07,0.141-0.11c0.02-0.021,0.029-0.03,0.05-0.05c-0.061,0.05-0.12,0.1-0.19,0.141
				c-0.029,0.029-0.06,0.029-0.09,0.049c-0.07,0.061-0.149,0.101-0.229,0.16c-0.07,0.051-0.13,0.051-0.19,0.09
				c-0.04,0.021-0.08-0.02-0.12-0.02h-0.01c-0.1,0-0.208,0.221-0.327,0.34c-0.02,0.01-0.028,0.03-0.048,0.04
				c-0.021,0.011-0.035,0.03-0.045,0.05c-0.04,0.041,0.011,0.08-0.021,0.131c-0.02,0.02,0.041,0.029,0.041,0.049v0.011l-0.1,0.03
				c-0.021,0.029-0.096,0.07-0.116,0.09c-0.04,0.02-0.107,0.1-0.157,0.14L261.6,324c0,0,0,0-0.01,0c-0.03,0-0.061-0.08-0.091-0.07
				c-0.08,0.051-0.159,0.041-0.239,0.061c-0.021,0.01-0.04,0.02-0.061,0.029c-0.06,0.041-0.12,0.08-0.18,0.11
				c-0.01,0.011-0.03,0.021-0.04,0.03c-0.021,0.01-0.03,0.02-0.05,0.029c0,0,0,0.011-0.011,0c-0.04,0.031-0.069,0.051-0.109,0.07
				c0,0.01-0.01,0.01-0.021,0.01c-0.02,0.021-0.04,0.03-0.06,0.03c-0.04,0.021-0.08,0.05-0.12,0.07c-0.19,0.12-0.38,0.229-0.57,0.33
				c-0.01,0.01-0.029,0.021-0.04,0.03c-0.02,0.01-0.04,0.02-0.06,0.029c-0.07,0.04-0.13,0.08-0.2,0.11c-0.1,0.05-0.2,0.11-0.3,0.159
				c-0.12,0.061-0.25,0.121-0.37,0.181c-0.07,0.04-0.14,0.069-0.21,0.11c-0.07,0.029-0.14,0.05-0.22,0.09
				c-0.021,0.01-0.04,0.029-0.061,0.029c-0.02,0.021-0.04,0.031-0.06,0.031c-0.22,0.1-0.44,0.18-0.66,0.27
				c-0.1,0.05-0.2,0.06-0.3,0.1c-0.181,0.08-0.37,0.16-0.55,0.16c0,0,0,0-0.011,0c-0.199,0-0.399,0.246-0.6,0.315
				c-0.01,0-0.021,0.096-0.04,0.096c-0.32,0.12-0.66,0.261-1,0.372c-0.03,0.01-0.05,0.082-0.08,0.092
				c-0.02,0.01-0.03,0.125-0.04,0.125s-0.01,0-0.01,0c-0.19,0-0.37-0.016-0.561,0.035c-0.02,0.01-0.029-0.115-0.04-0.115
				c-0.189,0.051-0.369,0.08-0.539,0.08c-0.011,0-0.011,0-0.021,0c-0.06,0-0.13,0.01-0.2,0.04c-0.01-0.03-0.029-0.069-0.04-0.069
				c-0.31,0.09-0.63,0.029-0.95,0.029h-0.01c-0.09,0-0.17,0-0.26,0h-0.01c-0.17,0-0.33,0.3-0.5,0.34
				c-0.17,0.03-0.35,0.319-0.52,0.35c-0.004,0.001-0.006,0.002-0.01,0.002c-0.297,0.059-0.584,0.109-0.881,0.158
				c-0.54,0.101-0.92,0.141-1.3,0.18c-0.75,0.091-1.521,0.121-2.29,0.171c-0.3,0.021-0.45-0.07-0.61-0.05
				c-0.57,0.02-1.14-0.15-1.729-0.15h-0.94c-0.27,0-0.54,0.18-0.81,0.17c-5.17-0.18-10.28-1.24-14.221-3.09
				c-0.26-0.12-0.52-0.25-0.77-0.38c-0.271-0.14-0.521-0.28-0.78-0.431c-0.27-0.149-0.54-0.31-0.79-0.479
				c-0.06-0.03-0.13-0.069-0.189-0.12c-0.61-0.41-1.181-0.85-1.721-1.33c-0.27-0.24-0.529-0.49-0.779-0.75
				c-1.261-1.29-2.301-2.79-3.17-4.41c-0.091-0.17-0.181-0.35-0.271-0.529c-0.12-0.23-0.229-0.471-0.34-0.711
				c-0.11-0.229-0.22-0.459-0.311-0.699c-0.159-0.36-0.31-0.73-0.449-1.1c-0.29-0.761-0.551-1.521-0.771-2.301
				c-0.14-0.439-0.26-0.89-0.37-1.34c-0.04-0.12-0.069-0.24-0.09-0.359c-0.13-0.5-0.24-1.011-0.35-1.511
				c-0.021-0.101-0.04-0.2-0.09-0.46c0-0.029-0.011-0.05-0.021-0.09c0-0.02-0.01-0.051-0.01-0.07c-0.01-0.05-0.021-0.119-0.04-0.21
				c-0.021-0.1-0.04-0.2-0.061-0.319c-0.17-0.931-0.31-1.871-0.42-2.791c-0.02-0.18-0.04-0.359-0.06-0.529
				C216.64,301.55,216.539,299.061,216.539,296.9z M209.979,283.27l0.05-3.72l0.83,0.45l2.88,1.54l-2.88,1.33L209.979,283.27z
				 M261.499,323.82c-0.09,0.07-0.199,0.13-0.3,0.199c0.101-0.06,0.2-0.119,0.29-0.18c0-0.01,0.01-0.01,0.01-0.01l0.091-0.061
				C261.56,323.779,261.529,323.8,261.499,323.82z M261.819,323.609h0.01l0.011-0.01c0.029-0.02,0.06-0.039,0.1-0.07
				c0.03-0.01,0.05-0.029,0.08-0.049c0.13-0.09,0.26-0.181,0.38-0.271h0.01c0.04-0.03,0.08-0.06,0.12-0.09
				c0.061-0.04,0.12-0.091,0.19-0.14c0.08-0.061,0.159-0.121,0.239-0.19c0.03-0.011,0.061-0.03,0.08-0.05
				c0.051-0.04,0.09-0.07,0.141-0.11c0.02-0.021,0.029-0.03,0.05-0.05c-0.061,0.05-0.12,0.1-0.19,0.141
				c-0.029,0.029-0.06,0.029-0.09,0.049c-0.07,0.061-0.149,0.101-0.229,0.16c-0.07,0.051-0.13,0.051-0.19,0.09
				c-0.04,0.021-0.08-0.02-0.12-0.02h-0.01c-0.1,0-0.21,0.221-0.33,0.34c-0.02,0.01-0.03,0.03-0.05,0.04
				c-0.021,0.011-0.04,0.03-0.05,0.05c-0.04,0.041-0.07,0.08-0.101,0.131C261.85,323.58,261.829,323.59,261.819,323.609z
				 M261.199,324.02c0.101-0.06,0.2-0.119,0.29-0.18c0-0.01,0.01-0.01,0.01-0.01l0.091-0.061c-0.03,0.01-0.061,0.03-0.091,0.051
				C261.409,323.891,261.3,323.95,261.199,324.02z M259.999,324.73c0.011-0.01,0.03-0.01,0.04-0.021
				c0.03-0.021,0.061-0.03,0.09-0.05c0.021-0.02,0.051-0.03,0.08-0.051c0.131-0.08,0.271-0.149,0.4-0.229
				c0.04-0.021,0.08-0.05,0.12-0.08c-0.04,0.021-0.08,0.05-0.12,0.07c-0.19,0.12-0.38,0.229-0.57,0.33
				C260.029,324.71,260.01,324.721,259.999,324.73z M252.6,327.08l0.26,0.34c0.01,0,0.01,0,0.01-0.01
				c0.07-0.04,0.34-0.131,0.48-0.17c0.17-0.04,0.35-0.15,0.52-0.2c-0.01-0.03-0.029-0.069-0.04-0.069
				c-0.31,0.09-0.63,0.029-0.95,0.029h-0.01c-0.09,0-0.17,0.04-0.26,0.08H252.6z M254.069,327c-0.06,0-0.13,0.01-0.2,0.04
				c0,0.01,0.01,0.021,0.01,0.021c0.07,0,0.141,0.029,0.211,0.01c0.18-0.051,0.359-0.1,0.539-0.15
				c-0.189,0.051-0.369,0.08-0.539,0.08C254.079,327,254.079,327,254.069,327z M255.229,326.75c-0.19,0.061-0.37,0.109-0.561,0.16
				c0.2-0.04,0.391-0.1,0.57-0.16C255.229,326.75,255.229,326.75,255.229,326.75z M255.359,326.721c-0.03,0.01-0.05,0.02-0.08,0.029
				h0.03c0.01,0,0.01,0,0.01,0h0.17c-0.03,0-0.07-0.02-0.1-0.02h-0.011C255.369,326.721,255.359,326.721,255.359,326.721z
				 M255.529,326.75c0,0-0.02,0-0.04,0c0.021,0.01,0.03,0.01,0.04,0.01c0.14-0.039,0.22-0.09,0.32-0.14
				C255.749,326.66,255.669,326.7,255.529,326.75z M256.859,326.38c-0.62,0.08-0.84,0.16-1.01,0.24c0.17-0.07,0.39-0.149,1.01-0.229
				V326.38z"/>
		</g>
		<g>
			<path fill="#FFFFFF" d="M235.768,276.324c-1.479,0.009-2.822,0.07-4.047,0.178c-0.261,0.024-0.43,0.041-0.597,0.059
				c-0.121,0.012-0.24,0.025-0.358,0.039c-0.174,0.021-0.345,0.041-0.514,0.064c-1.405,0.185-2.634,0.443-3.715,0.769
				c-0.415,0.125-0.81,0.261-1.184,0.405c-0.369,0.143-0.717,0.295-1.049,0.455c-0.77,0.375-1.441,0.798-2.038,1.266
				c-0.89,0.709-1.569,1.459-2.156,2.287c-0.12,0.173-0.182,0.264-0.242,0.355c-0.198,0.301-0.386,0.61-0.565,0.929l-0.193,0.365
				l33.768,43.936c6.429-1.522,11.603-4.854,14.789-9.612l-31.686-41.217L235.768,276.324z"/>
		</g>
		<g>
			<path fill="#FFFFFF" d="M246.828,276.906l24.924,32.449c1.368-3.5,2.245-6.637,2.796-9.381l-16.495-21.5
				c-0.288-0.058-0.581-0.115-0.879-0.171c-1.867-0.353-3.934-0.675-6.218-0.958c-0.653-0.08-1.325-0.158-2.015-0.231
				c-0.094-0.009-0.188-0.019-0.281-0.028C248.034,277.023,247.42,276.957,246.828,276.906z"/>
		</g>
		<g>
			<g>
				<path fill="#364E5B" d="M238.938,276.361c-1.117-0.038-2.176-0.057-3.17-0.037l0.213,0.277l31.672,41.197
					c-3.173,4.777-8.347,8.109-14.775,9.632l-33.768-43.936c-0.031,0.064-0.064,0.13-0.097,0.196
					c-0.489,1.012-0.928,2.33-1.296,3.768c-0.085,0.337-0.168,0.68-0.245,1.027c-0.124,0.556-0.237,1.121-0.339,1.688
					c-0.09,0.503-0.172,1.006-0.242,1.504c-0.016,0.115-0.032,0.229-0.047,0.344c-0.167,1.25-0.268,2.449-0.287,3.482
					c-0.048,2.445,0.018,5.466,0.379,8.652c0.021,0.178,0.042,0.357,0.064,0.537c0.113,0.922,0.252,1.855,0.42,2.791
					c0.022,0.118,0.041,0.22,0.061,0.319c0.043,0.23,0.057,0.3,0.07,0.368c0.051,0.258,0.072,0.36,0.092,0.463
					c1.24,5.963,3.742,11.803,8.62,15.04c0.062,0.04,0.122,0.081,0.183,0.12c4.101,2.635,10.297,4.344,16.561,4.562
					c0.274,0.01,0.547,0.017,0.818,0.021c0.314,0.005,0.628,0.006,0.939,0.004c0.582-0.005,1.158-0.021,1.729-0.051
					c0.201-0.012,0.402-0.022,0.604-0.036c0.777-0.053,1.542-0.128,2.293-0.226c0.438-0.057,0.873-0.122,1.302-0.195
					c0.744-0.125,1.474-0.272,2.187-0.442c0.408-0.097,0.812-0.2,1.209-0.312c1.608-0.45,3.132-1.018,4.557-1.696
					c0.145-0.069,0.287-0.138,0.43-0.208c0.121-0.062,0.242-0.123,0.362-0.186c0.203-0.105,0.405-0.213,0.604-0.323
					c0.194-0.107,0.386-0.216,0.575-0.329c0.189-0.111,0.379-0.227,0.566-0.344c0.107-0.068,0.216-0.136,0.322-0.205
					c0.35-0.227,0.69-0.463,1.023-0.705c0.063-0.047,0.128-0.094,0.191-0.141c0.109-0.081,0.219-0.164,0.326-0.246
					c0.1-0.078,0.199-0.156,0.298-0.234c0.222-0.178,0.438-0.359,0.652-0.544c0.153-0.134,0.229-0.2,0.304-0.267
					c1.287-1.157,2.417-2.451,3.369-3.873c0.431-0.635,0.824-1.309,1.18-1.994c0.911-1.799,1.643-3.398,2.284-4.932
					c0.218-0.521,0.425-1.033,0.622-1.537c0.363-0.93,0.691-1.832,0.988-2.709c0.214-0.631,0.411-1.248,0.593-1.851
					c0.031-0.105,0.063-0.21,0.094-0.315c0.132-0.447,0.257-0.887,0.372-1.318c0.213-0.793,0.399-1.559,0.563-2.299
					c0.088-0.406,0.139-0.648,0.187-0.889c0.198-0.975,0.355-1.898,0.478-2.77c0.669-4.76,0.311-7.963,0.07-9.326
					c-0.021-0.119-0.041-0.227-0.061-0.318c-0.051-0.251-0.087-0.387-0.096-0.417c-0.217-0.704-0.899-2.07-3.042-3.606
					c-1.899-1.361-4.947-2.857-9.837-4.145c-0.107-0.029-0.214-0.057-0.322-0.084c-1.178-0.302-2.382-0.575-3.686-0.834l16.495,21.5
					c-0.551,2.744-1.428,5.881-2.796,9.381l-24.896-32.404C243.873,276.623,241.271,276.443,238.938,276.361z"/>
			</g>
		</g>
		<g>
			<g>
				<path fill="#364E5B" d="M349.734,326.68c-0.603,0.5-1.24,0.938-1.937,1.328c-2.078,1.16-4.667,2.069-7.52,2.654
					c2.853-0.521,5.438-1.242,7.516-2.412c0.696-0.391,1.336-0.953,1.938-1.453c0.398-0.316,0.779-0.654,1.146-1.012
					c1.715-1.672,3.083-3.771,4.122-6.033c0.489-1.055,0.881-2.159,1.222-3.287c0.028-0.094,0.056-0.186,0.083-0.279
					c-0.385,1.201-0.833,2.375-1.354,3.502l-30.555-39.747c-0.348,0.019-0.689,0.038-1.026,0.059
					c-3.06,0.19-5.706,0.499-8.001,0.873c-0.25,0.041-0.496,0.082-0.738,0.124L349.734,326.68z"/>
			</g>
		</g>
		<g>
			<path fill="#FFFFFF" d="M334.242,279.697c-2.226-0.023-4.686,0.018-7.443,0.119c-0.827,0.035-1.625,0.07-2.402,0.124
				l30.555,39.747c0.521-1.127,0.969-2.301,1.354-3.502c0.452-1.412,0.818-2.859,1.113-4.305c0.116-0.564,0.221-1.131,0.315-1.693
				L334.242,279.697z"/>
		</g>
		<g>
			<path fill="#FFFFFF" d="M314.624,280.996c-0.089,0.016-0.177,0.031-0.266,0.047c-0.522,0.094-1.024,0.192-1.509,0.293
				c-8.975,1.891-11.488,4.889-12.227,6.473c-0.065,0.139-0.117,0.268-0.157,0.383c-0.047,0.162-0.29,1.1-0.452,2.64l31.193,40.587
				c1.95,0.059,3.896-0.025,5.777-0.24c1.119-0.123,2.225-0.291,3.295-0.516c2.852-0.585,5.44-1.494,7.519-2.654
				c0.696-0.391,1.334-0.828,1.937-1.328L314.624,280.996z"/>
		</g>
		<g>
			<g>
				<path fill="#364E5B" d="M334.25,279.697l23.483,30.49c-0.095,0.563-0.199,1.128-0.315,1.693
					c0.138-0.557,0.277-1.111,0.424-1.662c0.861-3.576,0.742-7.041,0.778-9.766c0.051-3.707-0.886-9.59-2.313-12.438
					c-0.934-1.867-2.131-3.469-4.022-4.756c-0.611-0.406-1.147-0.711-1.735-0.992c-0.083-0.041-0.166-0.079-0.252-0.119
					c-0.611-0.279-1.278-0.537-2.01-0.773c-0.486-0.156-1.002-0.303-1.547-0.438c-0.114-0.029-0.23-0.058-0.348-0.085
					c-0.55-0.129-1.127-0.247-1.737-0.356c-0.298-0.053-0.604-0.104-0.919-0.151c-0.168-0.026-0.34-0.051-0.513-0.075
					c-0.112-0.016-0.226-0.031-0.339-0.047c-0.968-0.127-2.005-0.232-3.119-0.314c-0.295-0.021-0.557-0.04-0.822-0.057
					c-0.677-0.041-1.381-0.075-2.112-0.101C336.012,279.723,335.143,279.701,334.25,279.697z"/>
			</g>
		</g>
		<g>
			<g>
				<path fill="#364E5B" d="M299.914,292.07c-0.27,4.576,0.293,13.279,5.703,25.139c3.828,8.395,12.957,13.972,24.525,14.646
					c0.166,0.01,0.313,0.018,0.462,0.025c0.201,0.009,0.347,0.016,0.493,0.02c1.961-0.223,3.811-0.434,5.607-0.684
					c0.094-0.014,0.187-0.025,0.279-0.039c-1.882,0.215-3.827,0.299-5.777,0.24l-31.193-40.587
					C299.969,291.282,299.939,291.66,299.914,292.07z"/>
			</g>
		</g>
	</g>
	<circle fill="#70573A" cx="194.606" cy="313.108" r="3.753"/>
	<path fill="#CE9D85" d="M201.369,300.46c0,24.97,18.67,45.21,41.71,45.21s41.71-20.24,41.71-45.21c0-2.29-0.16-4.54-0.46-6.739
		c-2.04,0.799-2.26,2.459-2.279,2.699c-0.08,0.42-0.87,4.67-2.511,10.109c-0.819,2.761-1.52,5.801-3.189,8.82
		c-1.65,2.83-2.71,5.61-4.41,8.021c-1.75,2.521-3.771,4.62-6.05,6c-2.78,1.68-5.74,2.86-8.7,3.659
		c-5.37,1.48-10.71,1.74-14.87,1.591c-8.26-0.29-16.46-2.341-20.42-5.101c-8.3-5.76-8.99-9.16-11.89-34.09
		c-0.141-1.15-0.4-2.14-0.75-2.949c-0.16-0.34-0.381-0.66-0.631-1.021c-0.47-0.649-1.01-1.399-1.34-2.61l-4.58,0.18
		C201.84,292.68,201.369,296.51,201.369,300.46z"/>
	<path fill="#CE9D85" d="M309.639,331.75c0.131,2.54,0.361,5.09,0.361,7.62v0.11c8,5.029,17.1,8.02,27.42,8.02
		c2.5,0,4.944-0.18,7.334-0.51c0.091-2.35,0.158-4.69,0.207-7.03c0.031-1.12,0.05-2.239,0.06-3.351
		c-2.71,0.591-5.78,0.971-8.981,1.091c-1.469,0.06-2.944,0.069-4.435,0.021C325.555,337.51,317.01,336.279,309.639,331.75z"/>
	<path fill="#E58C4A" d="M9.882,636.917"/>
	<path fill="#E58C4A" d="M171.619,637H281.22l-9.63-52.73l-6.33-34.415L258.93,550h-0.141l-69.41-0.995
		c-0.14,0.17-0.3,0.393-0.47,0.813C184.729,559.787,171.619,637,171.619,637z"/>
	<path fill="#A46922" d="M5.629,636.92c2.03,0.3,4.07,0.521,6.11,0.78l6.12,0.66c4.08,0.42,8.16,0.77,12.24,1.09
		c4.08,0.319,8.16,0.6,12.24,0.85c4.069,0.23,8.149,0.47,12.229,0.641c4.08,0.199,8.16,0.329,12.24,0.47l6.12,0.17l6.12,0.14
		c4.079,0.05,8.149,0.16,12.229,0.16c4.08,0.01,8.16,0.05,12.24,0.021l5.99-0.061l-1.091-5.82c-0.68-3.63-1.359-7.27-2.1-10.89
		c-0.71-3.63-1.44-7.25-2.21-10.86c-0.75-3.63-1.54-7.239-2.34-10.85c-0.79-3.61-1.65-7.21-2.47-10.82
		c-0.87-3.6-1.721-7.199-2.641-10.79l-1.37-5.38l-1.43-5.38c-0.97-3.58-1.94-7.16-3.01-10.72c-1.04-3.57-2.12-7.13-3.3-10.67
		c0.149,3.729,0.399,7.439,0.689,11.149c0.271,3.71,0.62,7.4,0.98,11.091l0.58,5.529l0.619,5.53c0.41,3.68,0.891,7.35,1.351,11.021
		c0.51,3.659,0.979,7.329,1.52,10.989s1.07,7.32,1.66,10.971c0.561,3.659,1.16,7.3,1.78,10.949c0.27,1.681,0.56,3.36,0.85,5.04
		c-2.1,0-4.2,0.021-6.3,0.03c-4.08,0-8.15,0.1-12.229,0.15l-6.12,0.14l-6.12,0.17c-4.08,0.15-8.16,0.271-12.24,0.48
		c-4.08,0.159-8.16,0.399-12.229,0.63c-4.08,0.26-8.16,0.529-12.24,0.85c-4.08,0.33-8.16,0.67-12.24,1.101l-6.12,0.649
		C9.699,636.39,7.659,636.61,5.629,636.92z"/>
	<path fill="#5D88A0" d="M186.029,1207.86c-0.88-0.33-1.77-0.66-2.66-1l0.71,5.479c1.55,0.47,3.11,0.851,4.65,1.13
		c1.39,0.261,2.75,0.44,4.07,0.5c1.31,0.08,2.569,0.03,3.72-0.09c1.149-0.13,2.21-0.35,3.109-0.64c0.9-0.3,1.66-0.63,2.23-0.99
		c0.6-0.31,0.99-0.67,1.26-0.9c0.271-0.229,0.41-0.35,0.41-0.35s-0.189,0.03-0.53,0.1c-0.34,0.07-0.83,0.16-1.449,0.21
		c-0.301,0.03-0.641,0.07-1.011,0.04c-0.37-0.02-0.75,0.04-1.18-0.02c-0.83-0.05-1.76-0.16-2.77-0.35
		c-1.011-0.181-2.091-0.421-3.221-0.74c-1.14-0.28-2.33-0.67-3.56-1.07c-0.61-0.2-1.24-0.42-1.87-0.63
		C187.31,1208.32,186.669,1208.09,186.029,1207.86z"/>
	<path fill="#5D88A0" d="M186.029,1198.86c-1.29-0.49-2.6-0.96-3.9-1.471l0.73,5.561c1.95,0.64,3.93,1.17,5.87,1.52
		c1.39,0.261,2.75,0.44,4.07,0.5c1.31,0.08,2.569,0.03,3.72-0.09c1.149-0.13,2.21-0.35,3.109-0.64c0.9-0.3,1.66-0.63,2.23-0.99
		c0.6-0.31,0.99-0.67,1.26-0.9c0.271-0.229,0.41-0.35,0.41-0.35s-0.189,0.03-0.53,0.1c-0.34,0.07-0.83,0.16-1.449,0.21
		c-0.301,0.03-0.641,0.07-1.011,0.04c-0.37-0.02-0.75,0.04-1.18-0.02c-0.83-0.05-1.76-0.16-2.77-0.35
		c-1.011-0.181-2.091-0.421-3.221-0.74c-1.14-0.28-2.33-0.67-3.56-1.07c-0.61-0.2-1.24-0.42-1.87-0.63
		C187.31,1199.32,186.669,1199.09,186.029,1198.86z"/>
	<path fill="#5D88A0" d="M196.109,895c2.43,1.54,5.05,2.82,7.72,3.88c2.681,1.04,5.44,1.8,8.16,2.37c1.36,0.26,2.73,0.51,4.08,0.64
		c0.67,0.08,1.34,0.17,2,0.23c0.67,0.05,1.33,0.07,1.98,0.1c2.109,0.12,4.17,0.08,6.14-0.06l-0.7-9.33
		c-0.149-0.04-0.31-0.07-0.47-0.09c0.02-1.21,0.08-2.42,0.21-3.57c1.46-14.78,10.35-24.9,12.1-26.74
		c0.57-0.449,1.141-0.91,1.71-1.359l0.311-6.07h-40.721c-3.239,6-6.239,13.36-8.05,21.78c0.38,0.39,0.75,0.779,1.12,1.18
		c-0.38-0.39-0.74-0.77-1.12-1.16c-0.27-0.3-0.54-0.59-0.779-0.899c-0.301-0.36-0.62-0.69-0.891-1.061
		c-0.26-0.35-0.51-0.72-0.79-1.06c-0.55-0.69-0.92-1.44-1.399-2.12c-0.431-0.7-0.78-1.4-1.17-2.05c-0.33-0.67-0.61-1.32-0.91-1.931
		c-0.3-0.6-0.48-1.189-0.721-1.72c-0.47-1.06-0.729-1.93-0.96-2.52c-0.22-0.62-0.35-0.94-0.35-0.94s-0.13,0.32-0.32,0.94
		c-0.16,0.6-0.55,1.529-0.72,2.72c-0.11,0.609-0.24,1.28-0.3,2.02c-0.061,0.75-0.09,1.54-0.12,2.431c0.03,0.87,0.08,1.81,0.18,2.8
		c0.17,0.97,0.29,2.03,0.58,3.09c0.521,2.16,1.46,4.41,2.681,6.69c1.18,2.01,2.63,4.02,4.35,5.88c0.17,0.189,0.34,0.37,0.53,0.55
		c0.989,0.979,2.02,1.97,3.149,2.84c0.36,0.31,0.73,0.6,1.11,0.88c0,0,0.01,0.021,0.02,0.021
		C194.51,893.93,195.31,894.46,196.109,895z"/>
	<path fill="#5D88A0" d="M105.039,1012.06c1.101,0.53,2.5,1.07,4.11,1.7c1.6,0.65,3.45,1.19,5.47,1.84
		c2.04,0.53,4.25,1.2,6.641,1.631c1.189,0.239,2.409,0.479,3.659,0.72c1.261,0.22,2.551,0.37,3.86,0.55
		c0.66,0.08,1.32,0.17,1.99,0.26c0.67,0.061,1.34,0.12,2.02,0.181c1.36,0.119,2.73,0.27,4.12,0.329c1.391,0.04,2.79,0.091,4.2,0.131
		l1.05,0.029c0.46,0.011,0.73-0.01,1.101-0.01l2.09-0.04c1.39-0.05,2.77-0.07,4.17-0.14c0.45-0.04,0.899-0.08,1.34-0.11
		c0.96-0.09,1.92-0.17,2.88-0.25c0.7-0.06,1.39-0.12,2.08-0.18c0.01,0,0.03,0,0.04-0.01c0.68-0.07,1.34-0.19,2-0.29
		c1.35-0.21,2.68-0.41,3.99-0.61c2.609-0.48,5.109-1.04,7.46-1.65c2.34-0.689,4.56-1.239,6.54-2.04
		c1.99-0.739,3.81-1.399,5.35-2.189c1.55-0.75,2.92-1.33,3.96-2c1.96-1.16,3.101-1.9,3.271-2.01c-0.15,0.05-1.46,0.47-3.61,1.229
		c-0.57,0.22-1.2,0.43-1.92,0.61c-0.71,0.18-1.46,0.41-2.271,0.64c-1.59,0.521-3.47,0.87-5.47,1.37c-0.5,0.12-1.01,0.24-1.53,0.36
		c-0.529,0.1-1.069,0.189-1.609,0.29c-1.101,0.199-2.22,0.409-3.38,0.63c-1.15,0.25-2.37,0.34-3.59,0.529
		c-1.23,0.141-2.4,0.4-3.68,0.521c-1.771,0.15-3.37,0.37-5.37,0.53V936.81c13-2.88,12-16.81,12-16.81v-65h-17v159.93
		c-1,0.03-1.04,0.061-1.53,0.09c-1.37,0.061-2.806,0.07-4.195,0.101l-2.107,0.06c-0.32,0.011-0.749,0.03-0.989,0.021l-1.024-0.01
		c-1.37-0.021-2.733-0.03-4.083-0.04c-1.35-0.051-2.681-0.101-4.011-0.15c-0.66-0.02-1.321-0.05-1.97-0.07
		c-0.65-0.05-1.29-0.1-1.94-0.149c-1.28-0.101-2.541-0.2-3.771-0.29c-1.239-0.13-2.439-0.26-3.619-0.38
		c-1.181-0.101-2.311-0.29-3.41-0.44c-1.101-0.16-2.17-0.3-3.19-0.439c-1.02-0.19-1.99-0.36-2.92-0.53
		c-0.93-0.16-1.82-0.29-2.63-0.49c-1.63-0.39-3.09-0.62-4.28-0.93c-2.359-0.63-3.729-0.94-3.729-0.94S102.84,1011,105.039,1012.06z"
		/>
	<path fill="#5D88A0" d="M88.029,1207.86c-1.11-0.42-2.25-0.83-3.37-1.271l1.09,5.65c1.66,0.51,3.33,0.93,4.98,1.229
		c1.39,0.261,2.75,0.44,4.07,0.5c1.31,0.08,2.569,0.03,3.72-0.09c1.149-0.13,2.21-0.35,3.109-0.64c0.9-0.3,1.66-0.63,2.23-0.99
		c0.6-0.31,0.99-0.67,1.26-0.9c0.271-0.229,0.41-0.35,0.41-0.35s-0.189,0.03-0.53,0.1c-0.34,0.07-0.83,0.16-1.449,0.21
		c-0.301,0.03-0.641,0.07-1.011,0.04c-0.37-0.02-0.75,0.04-1.18-0.02c-0.83-0.05-1.76-0.16-2.77-0.35
		c-1.011-0.181-2.091-0.421-3.221-0.74c-1.14-0.28-2.33-0.67-3.56-1.07c-0.61-0.2-1.24-0.42-1.87-0.63
		C89.31,1208.32,88.669,1208.09,88.029,1207.86z"/>
	<path fill="#5D88A0" d="M84.109,1197.38c-0.45-0.17-0.819-0.35-1.279-0.51l1.17,5.74v0.01c2,0.79,4.51,1.439,6.79,1.85
		c1.38,0.261,2.715,0.44,4.034,0.5c1.311,0.08,2.563,0.03,3.713-0.09c1.149-0.13,2.201-0.35,3.101-0.64
		c0.9-0.3,1.656-0.63,2.226-0.99c0.6-0.31,0.988-0.67,1.257-0.9c0.271-0.229,0.409-0.35,0.409-0.35s-0.19,0.03-0.531,0.1
		c-0.34,0.07-0.83,0.16-1.449,0.21c-0.301,0.03-0.641,0.07-1.011,0.04c-0.37-0.02-0.75,0.04-1.18-0.02
		c-0.83-0.05-1.76-0.16-2.77-0.35c-1.011-0.181-2.091-0.421-3.221-0.74c-1.14-0.28-2.33-0.67-3.56-1.07
		c-0.61-0.2-1.24-0.42-1.87-0.63c-0.63-0.22-1.271-0.45-1.91-0.68C86.739,1198.37,85.409,1197.9,84.109,1197.38z"/>
	<path fill="#5D88A0" d="M53.26,891.33c-0.761-0.07-1.17-0.1-1.17-0.1s0.319,0.239,0.949,0.67c0.65,0.409,1.551,1.109,2.801,1.81
		c1.26,0.67,2.779,1.58,4.63,2.34c1.83,0.83,3.979,1.57,6.359,2.311c1.2,0.319,2.46,0.649,3.78,0.949
		c1.32,0.25,2.69,0.521,4.11,0.721c2.85,0.359,5.88,0.63,9.02,0.569c0.78-0.01,1.57,0.021,2.37-0.029c0.79-0.061,1.6-0.11,2.41-0.17
		c1.609-0.07,3.22-0.341,4.859-0.54c3.261-0.53,6.54-1.24,9.75-2.2c1.601-0.46,3.171-1.08,4.75-1.61
		c1.561-0.62,3.091-1.229,4.58-1.95c0.54-0.25,1.08-0.489,1.62-0.739c0.2-0.101,0.4-0.2,0.601-0.311
		c0.729-0.38,1.449-0.77,2.16-1.149c1.35-0.761,2.689-1.54,3.96-2.381c0.04-0.02,0.1-0.06,0.14-0.09c2.65-1.689,5.04-3.62,7.21-5.52
		c2.14-1.96,4.03-3.96,5.59-5.97c1.54-2.021,2.82-3.99,3.71-5.87c0.47-0.92,0.86-1.811,1.15-2.66c0.33-0.82,0.51-1.65,0.689-2.36
		c0.221-0.689,0.261-1.41,0.351-1.97c0.09-0.561,0.08-1.03,0.08-1.41c-0.011-0.77-0.021-1.17-0.021-1.17s-0.2,0.36-0.58,1.02
		c-0.17,0.341-0.38,0.771-0.71,1.19c-0.149,0.22-0.31,0.45-0.479,0.7c-0.15,0.24-0.34,0.479-0.561,0.75
		c-0.84,1.05-1.87,2.28-3.24,3.52c-1.289,1.271-2.909,2.57-4.699,3.9c-1.811,1.32-3.851,2.61-6.03,3.92
		c-1.21,0.68-2.44,1.38-3.72,2.06c-1.7-9.619-5.011-17.869-8.62-24.56h-47.53c2.811,2.51,5.76,4.98,8.83,7.41
		c2.12,2.22,11.41,12.85,12.28,28.56c-0.521,0.08-1.03,0.15-1.55,0.221c-2.771,0.409-5.461,0.649-8.03,0.84
		c-1.29,0.1-2.54,0.09-3.771,0.18c-1.22,0.04-2.39,0.021-3.54,0.05c-2.29-0.029-4.409-0.069-6.3-0.21c-1.91-0.05-3.55-0.3-4.95-0.37
		C55.109,891.53,54.01,891.41,53.26,891.33z"/>
	<polygon fill="#5D88A0" points="32,885 32,989 47.859,989 42.749,885 	"/>
	<g>
		<path fill="#EFBFA5" d="M190.579,876.78c0.38,0.39,0.75,0.779,1.12,1.18c1.04,1,2.17,1.98,3.38,2.93
			c0.4,0.32,0.82,0.63,1.24,0.931c0.44,0.279,0.88,0.58,1.31,0.88c0.44,0.29,0.891,0.58,1.36,0.85c0.45,0.29,0.93,0.561,1.41,0.83
			c0.479,0.26,0.97,0.521,1.45,0.79c0.49,0.26,1,0.51,1.51,0.75c1.01,0.49,2.06,0.95,3.12,1.4c0.53,0.22,1.06,0.439,1.6,0.649
			c2.16,0.84,4.38,1.58,6.59,2.271c2.261,0.62,4.48,1.229,6.7,1.72c1.101,0.28,2.2,0.44,3.271,0.71c0.13,0.021,0.26,0.04,0.38,0.07
			c0.02-1.21,0.08-2.42,0.21-3.57c1.46-14.78,10.35-24.9,12.1-26.74c0.57-0.449,1.141-0.91,1.71-1.359l0.311-6.07h-40.721
			C195.39,861,192.39,868.36,190.579,876.78z"/>
	</g>
	<path fill="#364E5B" d="M101.6,1010.34c0,0,1.24,0.66,3.439,1.72c1.101,0.53,2.5,1.07,4.11,1.7c1.6,0.65,3.45,1.19,5.47,1.84
		c2.04,0.53,4.25,1.2,6.641,1.631c1.189,0.239,2.409,0.479,3.659,0.72c1.261,0.22,2.551,0.37,3.86,0.55
		c0.66,0.08,1.32,0.17,1.99,0.26c0.67,0.061,1.34,0.12,2.02,0.181c1.36,0.119,2.73,0.27,4.12,0.329c1.391,0.04,2.79,0.091,4.2,0.131
		l1.05,0.029c0.46,0.011,0.73-0.01,1.101-0.01l2.09-0.04c1.39-0.05,2.77-0.07,4.17-0.14c0.45-0.04,0.899-0.08,1.34-0.11
		c0.96-0.09,1.92-0.17,2.88-0.25c0.7-0.06,1.39-0.12,2.08-0.18c0.01,0,0.03,0,0.04-0.01c0.68-0.07,1.34-0.19,2-0.29
		c1.35-0.21,2.68-0.41,3.99-0.61c2.609-0.48,5.109-1.04,7.46-1.65c2.34-0.689,4.56-1.239,6.54-2.04
		c1.99-0.739,3.81-1.399,5.35-2.189c1.55-0.75,2.92-1.33,3.96-2c1.96-1.16,3.101-1.9,3.271-2.01c-0.15,0.05-1.46,0.47-3.61,1.229
		c-0.57,0.22-1.2,0.43-1.92,0.61c-0.71,0.18-1.46,0.41-2.271,0.64c-1.59,0.521-3.47,0.87-5.47,1.37c-0.5,0.12-1.01,0.24-1.53,0.36
		c-0.529,0.1-1.069,0.189-1.609,0.29c-1.101,0.199-2.22,0.409-3.38,0.63c-1.15,0.25-2.37,0.34-3.59,0.529
		c-1.23,0.141-2.4,0.4-3.68,0.521c-1.771,0.15-3.37,0.37-5.37,0.53V936.81c13-2.88,12-16.81,12-16.81v-65h-17v159.93
		c-1,0.03-1.04,0.061-1.53,0.09c-1.37,0.061-2.806,0.07-4.195,0.101l-2.107,0.06c-0.32,0.011-0.749,0.03-0.989,0.021l-1.024-0.01
		c-1.37-0.021-2.733-0.03-4.083-0.04c-1.35-0.051-2.681-0.101-4.011-0.15c-0.66-0.02-1.321-0.05-1.97-0.07
		c-0.65-0.05-1.29-0.1-1.94-0.149c-1.28-0.101-2.541-0.2-3.771-0.29c-1.239-0.13-2.439-0.26-3.619-0.38
		c-1.181-0.101-2.311-0.29-3.41-0.44c-1.101-0.16-2.17-0.3-3.19-0.439c-1.02-0.19-1.99-0.36-2.92-0.53
		c-0.93-0.16-1.82-0.29-2.63-0.49c-1.63-0.39-3.09-0.62-4.28-0.93C102.97,1010.65,101.6,1010.34,101.6,1010.34z"/>
	<polygon fill="#364E5B" points="15.949,885 24.029,989 47.859,989 42.749,885 	"/>
	<g>
		<rect x="35" y="888" fill="#5D88A0" width="5" height="2"/>
		<polygon fill="#5D88A0" points="18.594,895.07 20.287,894.867 19.865,890 24,890 24,888 17.982,888 		"/>
		<path fill="#5D88A0" d="M23.731,954.4l1.694-0.203l1.027,11.866l-1.693,0.203L23.731,954.4z M21.676,930.668l1.694-0.203
			l1.028,11.866l-1.694,0.203L21.676,930.668z M19.621,906.937l1.693-0.203l1.028,11.866l-1.694,0.203L19.621,906.937z"/>
		<polygon fill="#5D88A0" points="26.36,985 33,985 33,983 27.941,983 27.625,977.958 25.928,978.104 		"/>
		<rect x="39" y="983" fill="#5D88A0" width="6" height="2"/>
	</g>
	<g>
		<g>
			<path fill="#364E5B" d="M182.129,1197.39l0.73,5.561c1.95,0.64,3.93,1.17,5.87,1.52c1.39,0.261,2.75,0.44,4.07,0.5
				c1.31,0.08,2.569,0.03,3.72-0.09c1.149-0.13,2.21-0.35,3.109-0.64c0.9-0.3,1.66-0.63,2.23-0.99c0.6-0.31,0.99-0.67,1.26-0.9
				c0.271-0.229,0.41-0.35,0.41-0.35s-0.189,0.03-0.53,0.1c-0.34,0.07-0.83,0.16-1.449,0.21c-0.301,0.03-0.641,0.07-1.011,0.04
				c-0.37-0.02-0.75,0.04-1.18-0.02c-0.83-0.05-1.76-0.16-2.77-0.35c-1.011-0.181-2.091-0.421-3.221-0.74
				c-1.14-0.28-2.33-0.67-3.56-1.07c-0.61-0.2-1.24-0.42-1.87-0.63c-0.63-0.22-1.271-0.45-1.91-0.68
				C184.739,1198.37,183.43,1197.9,182.129,1197.39z"/>
			<path fill="#364E5B" d="M183.369,1206.86l0.71,5.479c1.55,0.47,3.11,0.851,4.65,1.13c1.39,0.261,2.75,0.44,4.07,0.5
				c1.31,0.08,2.569,0.03,3.72-0.09c1.149-0.13,2.21-0.35,3.109-0.64c0.9-0.3,1.66-0.63,2.23-0.99c0.6-0.31,0.99-0.67,1.26-0.9
				c0.271-0.229,0.41-0.35,0.41-0.35s-0.189,0.03-0.53,0.1c-0.34,0.07-0.83,0.16-1.449,0.21c-0.301,0.03-0.641,0.07-1.011,0.04
				c-0.37-0.02-0.75,0.04-1.18-0.02c-0.83-0.05-1.76-0.16-2.77-0.35c-1.011-0.181-2.091-0.421-3.221-0.74
				c-1.14-0.28-2.33-0.67-3.56-1.07c-0.61-0.2-1.24-0.42-1.87-0.63c-0.63-0.22-1.271-0.45-1.91-0.68
				C185.149,1207.53,184.26,1207.2,183.369,1206.86z"/>
		</g>
		<g>
			<path fill="#364E5B" d="M82.83,1196.87l1.17,5.74v0.01c2,0.79,4.51,1.439,6.79,1.85c1.38,0.261,2.715,0.44,4.034,0.5
				c1.311,0.08,2.563,0.03,3.713-0.09c1.149-0.13,2.201-0.35,3.101-0.64c0.9-0.3,1.656-0.63,2.226-0.99
				c0.6-0.31,0.988-0.67,1.257-0.9c0.271-0.229,0.409-0.35,0.409-0.35s-0.19,0.03-0.531,0.1c-0.34,0.07-0.83,0.16-1.449,0.21
				c-0.301,0.03-0.641,0.07-1.011,0.04c-0.37-0.02-0.75,0.04-1.18-0.02c-0.83-0.05-1.76-0.16-2.77-0.35
				c-1.011-0.181-2.091-0.421-3.221-0.74c-1.14-0.28-2.33-0.67-3.56-1.07c-0.61-0.2-1.24-0.42-1.87-0.63
				c-0.63-0.22-1.271-0.45-1.91-0.68c-1.29-0.49-2.585-0.96-3.885-1.48C83.694,1197.21,83.29,1197.03,82.83,1196.87z"/>
			<path fill="#364E5B" d="M84.659,1206.59l1.09,5.65c1.66,0.51,3.33,0.93,4.98,1.229c1.39,0.261,2.75,0.44,4.07,0.5
				c1.31,0.08,2.569,0.03,3.72-0.09c1.149-0.13,2.21-0.35,3.109-0.64c0.9-0.3,1.66-0.63,2.23-0.99c0.6-0.31,0.99-0.67,1.26-0.9
				c0.271-0.229,0.41-0.35,0.41-0.35s-0.189,0.03-0.53,0.1c-0.34,0.07-0.83,0.16-1.449,0.21c-0.301,0.03-0.641,0.07-1.011,0.04
				c-0.37-0.02-0.75,0.04-1.18-0.02c-0.83-0.05-1.76-0.16-2.77-0.35c-1.011-0.181-2.091-0.421-3.221-0.74
				c-1.14-0.28-2.33-0.67-3.56-1.07c-0.61-0.2-1.24-0.42-1.87-0.63c-0.63-0.22-1.271-0.45-1.91-0.68
				C86.919,1207.44,85.779,1207.03,84.659,1206.59z"/>
		</g>
	</g>
	<path fill="#EFBFA5" d="M16.499,757.67c1.061,38.24,16.471,70.1,47.03,97.33c2.811,2.51,5.76,4.98,8.83,7.41
		c2.12,2.22,11.41,12.85,12.28,28.56c2.27-0.35,4.56-0.83,6.89-1.27c2.83-0.681,5.72-1.32,8.53-2.24c2.85-0.81,5.64-1.8,8.37-2.84
		c1.359-0.521,2.689-1.08,4.02-1.63c0.67-0.26,1.3-0.58,1.93-0.87c0.641-0.311,1.301-0.55,1.921-0.87
		c1.159-0.56,2.29-1.12,3.38-1.69c-1.7-9.619-5.011-17.869-8.62-24.56c-6.12-11.39-13.08-18.21-14.42-19.44l-0.55-0.42l-0.57-0.399
		c-62.851-49.2-44.01-105.53-24.07-165.23c3.7-11.1,7.33-22.51,10.25-32.51H44.01c-2.11,7-4.471,13.88-6.881,21.07
		C27.01,688.38,15.539,722.68,16.499,757.67z"/>
	<path fill="#364E5B" d="M52.09,891.23c0,0,0.319,0.239,0.949,0.67c0.65,0.409,1.551,1.109,2.801,1.81
		c1.26,0.67,2.779,1.58,4.63,2.34c1.83,0.83,3.979,1.57,6.359,2.311c1.2,0.319,2.46,0.649,3.78,0.949
		c1.32,0.25,2.69,0.521,4.11,0.721c2.85,0.359,5.88,0.63,9.02,0.569c0.78-0.01,1.57,0.021,2.37-0.029c0.79-0.061,1.6-0.11,2.41-0.17
		c1.609-0.07,3.22-0.341,4.859-0.54c3.261-0.53,6.54-1.24,9.75-2.2c1.601-0.46,3.171-1.08,4.75-1.61
		c1.561-0.62,3.091-1.229,4.58-1.95c0.54-0.25,1.08-0.489,1.62-0.739c0.2-0.101,0.4-0.2,0.601-0.311
		c0.729-0.38,1.449-0.77,2.16-1.149c1.35-0.761,2.689-1.54,3.96-2.381c0.04-0.02,0.1-0.06,0.14-0.09c2.65-1.689,5.04-3.62,7.21-5.52
		c2.14-1.96,4.03-3.96,5.59-5.97c1.54-2.021,2.82-3.99,3.71-5.87c0.47-0.92,0.86-1.811,1.15-2.66c0.33-0.82,0.51-1.65,0.689-2.36
		c0.221-0.689,0.261-1.41,0.351-1.97c0.09-0.561,0.08-1.03,0.08-1.41c-0.011-0.77-0.021-1.17-0.021-1.17s-0.2,0.36-0.58,1.02
		c-0.17,0.341-0.38,0.771-0.71,1.19c-0.149,0.22-0.31,0.45-0.479,0.7c-0.15,0.24-0.34,0.479-0.561,0.75
		c-0.84,1.05-1.87,2.28-3.24,3.52c-1.289,1.271-2.909,2.57-4.699,3.9c-1.811,1.32-3.851,2.61-6.03,3.92
		c-1.21,0.68-2.44,1.38-3.72,2.06c-1.09,0.57-2.221,1.131-3.38,1.69c-0.62,0.32-1.28,0.56-1.921,0.87
		c-0.63,0.29-1.26,0.61-1.93,0.87c-1.33,0.55-2.66,1.109-4.02,1.63c-2.73,1.04-5.521,2.03-8.37,2.84c-2.811,0.92-5.7,1.56-8.53,2.24
		c-2.33,0.439-4.62,0.92-6.89,1.27c-0.521,0.08-1.03,0.15-1.55,0.221c-2.771,0.409-5.461,0.649-8.03,0.84
		c-1.29,0.1-2.54,0.09-3.771,0.18c-1.22,0.04-2.39,0.021-3.54,0.05c-2.29-0.029-4.409-0.069-6.3-0.21c-1.91-0.05-3.55-0.3-4.95-0.37
		c-1.39-0.149-2.489-0.27-3.239-0.35C52.499,891.26,52.09,891.23,52.09,891.23z"/>
	<path fill="#364E5B" d="M181.149,870.61c0.03,0.87,0.08,1.81,0.18,2.8c0.17,0.97,0.29,2.03,0.58,3.09
		c0.521,2.16,1.46,4.41,2.681,6.69c1.18,2.01,2.63,4.02,4.35,5.88c0.17,0.189,0.34,0.37,0.53,0.55c0.989,0.979,2.02,1.97,3.149,2.84
		c0.36,0.31,0.73,0.6,1.11,0.88c0,0,0.01,0.021,0.02,0.021c0.761,0.569,1.561,1.1,2.36,1.64c2.43,1.54,5.05,2.82,7.72,3.88
		c2.681,1.04,5.44,1.8,8.16,2.37c1.36,0.26,2.73,0.51,4.08,0.64c0.67,0.08,1.34,0.17,2,0.23c0.67,0.05,1.33,0.07,1.98,0.1
		c2.109,0.12,4.17,0.08,6.14-0.06l-0.7-9.33c-0.149-0.04-0.31-0.07-0.47-0.09c-0.12-0.03-0.25-0.05-0.38-0.07
		c-1.07-0.27-2.17-0.43-3.271-0.71c-2.22-0.49-4.439-1.1-6.7-1.72c-2.21-0.69-4.43-1.431-6.59-2.271
		c-0.54-0.21-1.069-0.43-1.6-0.649c-1.061-0.44-2.11-0.91-3.12-1.4c-0.51-0.24-1.02-0.49-1.51-0.75c-0.48-0.27-0.971-0.53-1.45-0.79
		c-0.48-0.27-0.96-0.54-1.41-0.82c-0.47-0.26-0.92-0.56-1.36-0.859c-0.43-0.29-0.869-0.601-1.31-0.88
		c-0.42-0.301-0.689-0.61-1.09-0.931c-1.21-0.939-2.229-1.909-3.229-2.92v-0.01c-1-0.39-0.891-0.77-1.271-1.16
		c-0.27-0.3-0.615-0.59-0.854-0.899c-0.301-0.36-0.658-0.69-0.928-1.061c-0.26-0.35-0.529-0.72-0.81-1.06
		c-0.55-0.69-0.929-1.44-1.409-2.12c-0.431-0.7-0.786-1.4-1.174-2.05c-0.33-0.67-0.613-1.32-0.913-1.931
		c-0.3-0.6-0.481-1.189-0.721-1.72c-0.471-1.06-0.73-1.93-0.961-2.52c-0.22-0.62-0.35-0.94-0.35-0.94s-0.13,0.32-0.32,0.94
		c-0.16,0.6-0.55,1.529-0.72,2.72c-0.11,0.609-0.24,1.28-0.3,2.02C181.209,868.93,181.18,869.72,181.149,870.61z"/>
	<path fill="#A46922" d="M254.859,629c0.01,2.67,0.02,5.34,0.04,8h7.92c0.021-2.66,0.03-5.33,0.04-8c-0.02-5-0.03-10-0.12-14.92
		c-0.06-4.92-0.189-9.771-0.33-14.46c-0.14-4.68-0.33-9.21-0.54-13.51c-0.2-4.301-0.46-8.36-0.71-12.11
		c-0.22-3.75-0.51-7.19-0.77-10.23c-0.23-3.05-0.521-5.71-0.73-7.89c-0.21-2.189-0.439-3.91-0.569-5.08
		c-0.07-0.52-0.12-0.93-0.16-1.229c-0.051-0.38-0.07-0.57-0.07-0.57s-0.02,0.19-0.07,0.57c-0.04,0.3-0.09,0.71-0.16,1.229
		c-0.13,1.17-0.359,2.891-0.569,5.08c-0.21,2.18-0.5,4.84-0.73,7.89c-0.26,3.04-0.55,6.48-0.77,10.23
		c-0.25,3.75-0.51,7.81-0.71,12.11c-0.21,4.3-0.4,8.83-0.54,13.51c-0.141,4.689-0.271,9.54-0.33,14.46
		C254.89,619,254.879,624,254.859,629z"/>
	<g>
		<path fill="#EFBFA5" d="M115.819,314.04l0.08,1.26l0.101,0.57v0.21l-0.061,0.279c0.061,1.131,0.115,2.25,0.255,3.361
			c0.05,0.369,0.083,0.739,0.143,1.1c0.49,2.92,1.281,5.74,2.381,8.34c1.101,2.6,2.476,4.99,4.056,7.061
			c1.56,2.079,3.337,3.84,5.137,5.25c1.82,1.399,3.669,2.469,5.43,3.17c0.529,0.209,1.049,0.389,1.559,0.539
			c-4.48-3-8.31-7.699-8.95-15.06c-1.67-19.2,5.009-20.87,11.69-32.56c1.189-2.07,2.319-4.011,3.35-5.91
			c-1.74-0.66-3.74-1.141-5.86-1.16c-2.17-0.051-4.46,0.4-6.63,1.439c-2.189,0.99-4.229,2.631-6.04,4.6
			c-0.869,1.021-1.72,2.101-2.449,3.291c-0.721,1.189-1.4,2.439-1.94,3.76c-1.12,2.641-1.84,5.5-2.11,8.4
			c-0.02,0.18-0.04,0.359-0.05,0.529C115.869,313.02,115.859,313.5,115.819,314.04z"/>
		<path fill="#CE9D85" d="M107.85,314.16l0.029,1.25l0.011,0.63l0.01,0.21l0.01,0.08l0.01,0.18l0.03,0.34
			c0.101,1.83,0.4,3.631,0.75,5.41c0.38,1.78,0.86,3.52,1.49,5.19c0.6,1.68,1.33,3.28,2.16,4.81c1.64,3.051,3.68,5.74,5.95,7.95
			c2.25,2.229,4.729,3.95,7.189,5.19c2.47,1.209,4.91,1.949,7.11,2.22c2.2,0.29,4.14,0.12,5.66-0.19
			c0.17-0.029,0.33-0.07,0.489-0.109c1.271-0.291,2.23-0.76,2.88-1.041c0.69-0.399,1.061-0.609,1.061-0.609s-0.42,0.061-1.21,0.17
			c-0.78,0.07-1.91,0.141-3.32,0.01c-0.979-0.09-2.08-0.31-3.26-0.67c-0.51-0.15-1.03-0.33-1.56-0.539
			c-1.761-0.701-3.61-1.771-5.431-3.17c-1.8-1.41-3.58-3.171-5.14-5.25c-1.58-2.07-2.96-4.461-4.061-7.061
			c-1.1-2.6-1.899-5.42-2.39-8.34c-0.06-0.36-0.04-0.73-0.09-1.1c-0.149-1.111-0.229-2.23-0.229-3.361v-0.489l-0.101-0.57
			l-0.045-1.26c0.04-0.54,0.032-1.021,0.072-1.53c0.01-0.17,0.021-0.35,0.041-0.529c0.271-2.9,0.986-5.76,2.106-8.4
			c0.54-1.32,1.217-2.57,1.938-3.76c0.729-1.19,1.579-2.271,2.448-3.291c1.811-1.969,3.85-3.609,6.04-4.6
			c2.17-1.039,4.46-1.49,6.63-1.439c2.12,0.02,4.12,0.5,5.86,1.16c0.061,0.02,0.11,0.039,0.16,0.06c1.79,0.66,3.29,1.54,4.53,2.271
			c0.59,0.41,1.12,0.779,1.6,1.09c0.48,0.31,0.84,0.63,1.16,0.859c0.64,0.48,0.979,0.74,0.979,0.74s-0.22-0.37-0.64-1.05
			c-0.42-0.69-1.09-1.66-2.05-2.841c-1.021-1.109-2.28-2.529-4.101-3.789c-0.06-0.04-0.13-0.09-0.189-0.131
			c-1.76-1.219-4-2.369-6.71-2.969c-1.4-0.351-2.92-0.431-4.49-0.42c-1.57,0.079-3.22,0.309-4.82,0.809
			c-3.239,0.941-6.329,2.811-8.989,5.24c-2.61,2.461-4.86,5.48-6.431,8.86c-1.64,3.36-2.6,7.07-3,10.83
			C107.899,312.141,107.879,313.21,107.85,314.16z"/>
		<ellipse fill="#CE9D85" cx="136.444" cy="318.73" rx="9.915" ry="15.52"/>
	</g>
	<path fill="#CE9D85" d="M150.149,415.39c1.18,7.33,1.58,17.271,2.3,28.38c2.22,5.131,4.42,10.271,6.13,14.351
		c0.011,0.02,0.021,0.05,0.03,0.07c2.02,4.829,4.8,9.079,8.02,12.72c2.41,2.74,5.07,5.14,7.841,7.17
		c-0.721-4.76-1.11-9.66-0.841-14.17c-3.22-3.641-6-7.891-8.02-12.72c-0.01-0.021-0.02-0.051-0.03-0.07
		C160.779,439.69,152.129,419.91,150.149,415.39z"/>
	<path fill="#5D88A0" d="M42.749,885l5.11,104H32v27h15.859l34.9,180.87c0.46,0.16,0.899,0.34,1.35,0.51
		c1.3,0.521,2.63,0.99,3.92,1.48c0.64,0.229,1.28,0.46,1.91,0.68c0.63,0.21,1.26,0.43,1.87,0.63c1.229,0.4,2.42,0.79,3.56,1.07
		c1.13,0.319,2.21,0.56,3.221,0.74c1.01,0.189,1.939,0.3,2.77,0.35c0.43,0.06,0.81,0,1.18,0.02c0.37,0.03,0.71-0.01,1.011-0.04
		c0.619-0.05,1.109-0.14,1.449-0.21c0.341-0.069,0.53-0.1,0.53-0.1s-0.14,0.12-0.41,0.35c-0.27,0.23-0.66,0.591-1.26,0.9
		c-0.57,0.36-1.33,0.69-2.23,0.99c-0.899,0.29-1.96,0.51-3.109,0.64c-1.15,0.12-2.42,0.17-3.73,0.09
		c-1.319-0.06-2.689-0.239-4.069-0.5c-2.28-0.41-4.86-1.06-6.86-1.85l0.79,3.97l1.09,5.65l0.76,3.87L60.959,1675H124.8l25.17-444.63
		l-4.42,5.32l4.42-5.94l7.29-9.67l-5.86-6.94l5.86-10.12c0,0-4.591-8.13-8.25-12.789L124.8,1018.31
		c5.56,0.74,11.449,1.141,17.56,1.141c5.72,0,11.26-0.351,16.49-1.01l23.279,178.949c1.301,0.511,2.61,0.98,3.9,1.471
		c0.64,0.229,1.28,0.46,1.91,0.68c0.63,0.21,1.26,0.43,1.87,0.63c1.229,0.4,2.42,0.79,3.56,1.07c1.13,0.319,2.21,0.56,3.221,0.74
		c1.01,0.189,1.939,0.3,2.77,0.35c0.43,0.06,0.81,0,1.18,0.02c0.37,0.03,0.71-0.01,1.011-0.04c0.619-0.05,1.109-0.14,1.449-0.21
		c0.341-0.069,0.53-0.1,0.53-0.1s-0.14,0.12-0.41,0.35c-0.27,0.23-0.66,0.591-1.26,0.9c-0.57,0.36-1.33,0.69-2.23,0.99
		c-0.899,0.29-1.96,0.51-3.109,0.64c-1.15,0.12-2.41,0.17-3.72,0.09c-1.32-0.06-2.681-0.239-4.07-0.5
		c-1.94-0.35-3.92-0.88-5.87-1.52l0.51,3.91c0.891,0.34,1.78,0.67,2.66,1c0.64,0.229,1.28,0.46,1.91,0.68
		c0.63,0.21,1.26,0.43,1.87,0.63c1.229,0.4,2.42,0.79,3.56,1.07c1.13,0.319,2.21,0.56,3.221,0.74c1.01,0.189,1.939,0.3,2.77,0.35
		c0.43,0.06,0.81,0,1.18,0.02c0.37,0.03,0.71-0.01,1.011-0.04c0.619-0.05,1.109-0.14,1.449-0.21c0.341-0.069,0.53-0.1,0.53-0.1
		s-0.14,0.12-0.41,0.35c-0.27,0.23-0.66,0.591-1.26,0.9c-0.57,0.36-1.33,0.69-2.23,0.99c-0.899,0.29-1.96,0.51-3.109,0.64
		c-1.15,0.12-2.41,0.17-3.72,0.09c-1.32-0.06-2.681-0.239-4.07-0.5c-1.54-0.279-3.101-0.66-4.65-1.13l0.311,2.391L158.85,1675h63.85
		l25.101-443.14l8.409-11.46l-5.85-7.11l5.85-10.2c0,0-4.96-8.29-8.68-12.82L239.84,972.33l12.52-63.5c0,0-10.48-3.17-14.92-4.46
		l-0.25-7.21l1.85-36.09c-0.569,0.449-1.14,0.91-1.71,1.359c-1.75,1.84-10.64,11.96-12.1,26.74c-0.13,1.15-0.19,2.36-0.21,3.57
		c0.16,0.02,0.32,0.05,0.47,0.09l0.7,9.33c-1.97,0.14-4.03,0.18-6.14,0.06c-0.65-0.029-1.311-0.05-1.98-0.1
		c-0.66-0.061-1.33-0.15-2-0.23c-1.35-0.13-2.72-0.38-4.08-0.64c-2.72-0.57-5.479-1.33-8.16-2.37c-2.67-1.06-5.29-2.34-7.72-3.88
		c-0.8-0.54-1.6-1.07-2.36-1.64c-0.01,0-0.02-0.021-0.02-0.021c-0.38-0.28-0.75-0.57-1.11-0.88c-1.13-0.87-2.16-1.86-3.149-2.84
		c-0.19-0.18-0.36-0.36-0.53-0.55c-1.72-1.86-3.17-3.87-4.35-5.88c-1.221-2.28-2.16-4.53-2.681-6.69c-0.29-1.06-0.41-2.12-0.58-3.09
		c-0.1-0.99-0.149-1.93-0.18-2.8c0.03-0.891,0.06-1.681,0.12-2.431c0.06-0.739,0.189-1.41,0.3-2.02c0.17-1.19,0.56-2.12,0.72-2.72
		c0.19-0.62,0.32-0.94,0.32-0.94s0.13,0.32,0.35,0.94c0.23,0.59,0.49,1.46,0.96,2.52c0.24,0.53,0.421,1.12,0.721,1.72
		c0.3,0.61,0.58,1.261,0.91,1.931c0.39,0.649,0.739,1.35,1.17,2.05c0.479,0.68,0.85,1.43,1.399,2.12c0.28,0.34,0.53,0.71,0.79,1.06
		c0.271,0.37,0.59,0.7,0.891,1.061c0.239,0.31,0.51,0.6,0.779,0.899c0.38,0.391,0.74,0.771,1.12,1.16c-0.37-0.4-0.74-0.79-1.12-1.18
		c1.811-8.42,4.811-15.78,8.05-21.78H168v65c0,0,1,13.93-12,16.81v77.801c2-0.16,3.6-0.38,5.37-0.53
		c1.279-0.12,2.484-0.38,3.715-0.521c1.22-0.189,2.422-0.279,3.572-0.529c1.16-0.221,2.271-0.431,3.371-0.63
		c0.54-0.101,1.076-0.19,1.605-0.29c0.521-0.12,1.028-0.24,1.528-0.36c2-0.5,3.879-0.85,5.469-1.37c0.811-0.229,1.56-0.46,2.27-0.64
		c0.72-0.181,1.35-0.391,1.92-0.61c2.15-0.76,3.459-1.18,3.61-1.229c-0.17,0.109-1.311,0.85-3.271,2.01c-1.04,0.67-2.41,1.25-3.96,2
		c-1.54,0.79-3.359,1.45-5.35,2.189c-1.98,0.801-4.2,1.351-6.54,2.04c-2.351,0.61-4.851,1.17-7.46,1.65
		c-1.311,0.2-2.641,0.4-3.99,0.61c-0.66,0.1-1.32,0.22-2,0.29c-0.01,0.01-0.03,0.01-0.04,0.01c-0.69,0.06-1.38,0.12-2.08,0.18
		c-0.96,0.08-1.92,0.16-2.88,0.25c-0.44,0.03-0.89,0.07-1.34,0.11c-1.4,0.069-2.78,0.09-4.17,0.14l-2.09,0.04
		c-0.37,0-0.641,0.021-1.101,0.01l-1.05-0.029c-1.41-0.04-2.81-0.091-4.2-0.131c-1.39-0.06-2.76-0.21-4.12-0.329
		c-0.68-0.061-1.35-0.12-2.02-0.181c-0.67-0.09-1.33-0.18-1.99-0.26c-1.31-0.18-2.6-0.33-3.86-0.55c-1.25-0.24-2.47-0.48-3.659-0.72
		c-2.391-0.431-4.601-1.101-6.641-1.631c-2.02-0.649-3.87-1.189-5.47-1.84c-1.61-0.63-3.01-1.17-4.11-1.7
		c-2.199-1.06-3.439-1.72-3.439-1.72s1.37,0.311,3.729,0.94c1.19,0.31,2.65,0.54,4.28,0.93c0.81,0.2,1.7,0.33,2.63,0.49
		c0.93,0.17,1.9,0.34,2.92,0.53c1.021,0.14,2.09,0.279,3.19,0.439c1.1,0.15,2.229,0.34,3.41,0.44c1.18,0.12,2.38,0.25,3.619,0.38
		c1.23,0.09,2.49,0.189,3.771,0.29c0.65,0.05,1.29,0.1,1.94,0.149c0.649,0.021,1.31,0.051,1.97,0.07c1.33,0.05,2.66,0.1,4.01,0.15
		c1.35,0.01,2.71,0.02,4.08,0.04l1.02,0.01c0.24,0.01,0.66-0.01,0.98-0.021l2.09-0.06c1.39-0.03,2.86-0.04,4.23-0.101
		c0.49-0.029,0.53-0.06,1.53-0.09V855h-39.94c3.609,6.69,6.92,14.94,8.62,24.56c1.279-0.68,2.51-1.38,3.72-2.06
		c2.18-1.31,4.22-2.6,6.03-3.92c1.79-1.33,3.41-2.63,4.699-3.9c1.37-1.239,2.4-2.47,3.24-3.52c0.221-0.271,0.41-0.51,0.561-0.75
		c0.17-0.25,0.33-0.48,0.479-0.7c0.33-0.42,0.54-0.85,0.71-1.19c0.38-0.659,0.58-1.02,0.58-1.02s0.01,0.4,0.021,1.17
		c0,0.38,0.01,0.85-0.08,1.41c-0.09,0.56-0.13,1.28-0.351,1.97c-0.18,0.71-0.359,1.54-0.689,2.36c-0.29,0.85-0.681,1.74-1.15,2.66
		c-0.89,1.88-2.17,3.85-3.71,5.87c-1.56,2.01-3.45,4.01-5.59,5.97c-2.17,1.899-4.56,3.83-7.21,5.52c-0.04,0.03-0.1,0.07-0.14,0.09
		c-1.271,0.841-2.61,1.62-3.96,2.381c-0.711,0.38-1.431,0.77-2.16,1.149c-0.2,0.11-0.4,0.21-0.601,0.311
		c-0.54,0.25-1.08,0.489-1.62,0.739c-1.489,0.721-3.02,1.33-4.58,1.95c-1.579,0.53-3.149,1.15-4.75,1.61
		c-3.21,0.96-6.489,1.67-9.75,2.2c-1.64,0.199-3.25,0.47-4.859,0.54c-0.811,0.06-1.62,0.109-2.41,0.17
		c-0.8,0.05-1.59,0.02-2.37,0.029c-3.14,0.061-6.17-0.21-9.02-0.569c-1.42-0.2-2.79-0.471-4.11-0.721
		c-1.32-0.3-2.58-0.63-3.78-0.949c-2.38-0.74-4.529-1.48-6.359-2.311c-1.851-0.76-3.37-1.67-4.63-2.34
		c-1.25-0.7-2.15-1.4-2.801-1.81c-0.63-0.431-0.949-0.67-0.949-0.67s0.409,0.029,1.17,0.1c0.75,0.08,1.85,0.2,3.239,0.35
		c1.4,0.07,3.04,0.32,4.95,0.37c1.891,0.141,4.01,0.181,6.3,0.21c1.15-0.029,2.32-0.01,3.54-0.05c1.23-0.09,2.48-0.08,3.771-0.18
		c2.569-0.19,5.26-0.431,8.03-0.84c0.52-0.07,1.029-0.141,1.55-0.221c-0.87-15.71-10.16-26.34-12.28-28.56
		c-3.07-2.43-6.02-4.9-8.83-7.41H32v30H42.749z M105.529,1211c0,0-0.14,0.12-0.41,0.35c-0.27,0.23-0.66,0.591-1.26,0.9
		c-0.57,0.36-1.33,0.69-2.23,0.99c-0.899,0.29-1.96,0.51-3.109,0.64c-1.15,0.12-2.41,0.17-3.72,0.09
		c-1.32-0.06-2.681-0.239-4.07-0.5c-1.65-0.3-3.32-0.72-4.98-1.229l-1.09-5.65c1.12,0.44,2.26,0.851,3.37,1.271
		c0.64,0.229,1.28,0.46,1.91,0.68c0.63,0.21,1.26,0.43,1.87,0.63c1.229,0.4,2.42,0.79,3.56,1.07c1.13,0.319,2.21,0.56,3.221,0.74
		c1.01,0.189,1.939,0.3,2.77,0.35c0.43,0.06,0.81,0,1.18,0.02c0.37,0.03,0.71-0.01,1.011-0.04c0.619-0.05,1.109-0.14,1.449-0.21
		C105.34,1211.03,105.529,1211,105.529,1211z"/>
	<g>
		<g>
			<path fill="#E7E3C3" d="M390.47,1634.906v18.813h-0.044c0.021,0.171,0.033,0.352,0.033,0.542
				c0.011,0.139,0.011,0.287,0.011,0.438c0,10.438-8.481,18.876-18.919,18.876H151.947c-8.301,0-15.354-5.32-17.887-12.748
				c-0.671-1.915-1.032-3.979-1.032-6.128c0-0.342,0-0.671,0.063-0.979h-0.063v-18.813H390.47z"/>
			<path fill="#456675" d="M285.782,1525.557c0,7.074-0.333,14.813-1.868,18.05c-0.134,0.332-0.301,0.599-0.469,0.833
				c-1.966,2.533-20.247,3.935-24.418,6.971c-0.802,0.567-1.935,1.002-3.269,1.301c-5.604,1.27-14.913,0.035-19.85-3.3
				c-0.067-0.036-0.1-0.069-0.166-0.1c-0.169-0.103-0.335-0.235-0.501-0.37c-1.934-1.367-4.738-3.604-7.639-5.971
				c-0.568-0.435-1.103-0.9-1.668-1.368c-4.337-3.602-8.641-7.271-10.543-8.907c-0.667-0.567-1.035-0.899-1.035-0.899
				c-1.801-2.303-3.535-5.003-4.102-8.141c0-0.064-0.033-0.098-0.033-0.167c-0.535-2.967,0.033-6.303,2.735-9.873
				c5.571-7.372,28.923-29.757,49.772-18.081S285.782,1517.817,285.782,1525.557z"/>
			<path fill="#E0A30A" d="M353.768,1597.71c-2.699-0.302-7.546,0.37-10.281-0.064c-5.84-0.902-11.51-2.068-16.348-3.404
				c-4.803-1.332-12.676-4.972-22.184-9.907c-0.733-0.401-1.501-0.769-2.27-1.17c-14.811-7.807-30.581-20.579-46.927-30.453
				c1.334-0.299,2.467-0.733,3.269-1.301c4.171-3.036,22.452-4.438,24.418-6.971c0.168-0.234,0.335-0.501,0.469-0.833
				c13.311,7.872,46.529,28.25,57.804,33.522c4.604,2.132,11.185,1.369,14.82,2.471c3.368,1.033,6.337,1.769,8.84,2.469
				c0.699,0.169,1.333,0.333,1.935,0.532c1.535,0.503,3.003,1.07,4.437,1.771c0.034,0.031,0.067,0.031,0.1,0.066
				c3.003,1.435,5.737,3.338,8.141,5.572c0.7,0.632,1.4,1.332,2.001,2.067c0.035,0,0.035,0.034,0.066,0.067
				C385.827,1597.747,370.449,1599.609,353.768,1597.71z"/>
			<path fill="#456675" d="M302.686,1583.164c-8.438,12.478-21.773,33.935-33.649,51.748h-74.927
				c-9.874-9.544-19.881-21.319-14.912-29.725c6.271-10.607,42.166-37.498,56.712-55.776c4.937,3.335,14.245,4.569,19.85,3.3
				C272.104,1562.585,287.875,1575.357,302.686,1583.164z"/>
			<path fill="#E7E3C3" d="M390.466,1614.094v20.818h-70.89c8.174-12.243,15.738-25.023,23.91-37.267
				c2.735,0.435,7.582-0.237,10.281,0.064c16.682,1.899,32.06,0.037,28.289-5.565c4.205,4.672,7.072,10.541,8.041,16.977
				C390.332,1610.757,390.466,1612.396,390.466,1614.094z"/>
			<path fill="#E32E33" d="M371.749,1584.371c-1.434-0.7-2.901-1.268-4.437-1.771C369.08,1583.135,370.58,1583.671,371.749,1584.371
				z"/>
			<path fill="#E32E33" d="M182.047,1654.243c0,3.916-2.918,7.089-6.518,7.089h-39.108c-3.6,0-6.518-3.173-6.518-7.089l0,0
				c0-3.917,2.918-7.089,6.518-7.089h39.108C179.129,1647.154,182.047,1650.326,182.047,1654.243L182.047,1654.243z"/>
			<path fill="#E32E33" d="M231.172,1654.243c0,2.995-2.426,5.421-5.421,5.421h-30.3c-2.995,0-5.422-2.426-5.422-5.421l0,0
				c0-2.994,2.427-5.422,5.422-5.422h30.3C228.746,1648.821,231.172,1651.249,231.172,1654.243L231.172,1654.243z"/>
			<path fill="#FCEBE0" d="M215.393,1532.695c-14.111-0.567-21.35,20.583-31.19,29.692c-11.142,10.274-26.688,12.774-35.029,8.141
				c-8.34-4.639-11.675,8.537-16.711,14.141c-2.07-7.137-6.573-32.124-0.066-38.795c7.505-7.706,13.076-12.243,22.482-9.774
				c7.105,1.901,32.926,6.47,52.941-12.077c0,0,0.202-0.465,0.7-0.669h0.035c0.366-0.164,0.9-0.197,1.668,0.135
				c0,0.069,0.033,0.103,0.033,0.167c0.566,3.138,2.301,5.838,4.102,8.141C214.357,1531.796,214.726,1532.128,215.393,1532.695z"/>
			<path fill="#E43A43" d="M179.197,1605.188c-4.969,8.405,5.038,20.181,14.912,29.725h-61.081v-10.344l-0.2-0.401
				c-1.637-3.835-2.569-8.105-2.569-12.575v-15.313c0-4.104,0.769-8.005,2.203-11.61c5.036-5.604,8.371-18.779,16.711-14.141
				c8.341,4.634,23.888,2.134,35.029-8.141c9.841-9.109,17.079-30.26,31.19-29.692c1.902,1.636,6.206,5.306,10.543,8.907
				c0.565,0.468,1.1,0.934,1.668,1.368c2.9,2.367,5.705,4.604,7.639,5.971c0.166,0.135,0.332,0.268,0.501,0.37
				c0.066,0.03,0.099,0.063,0.166,0.1C221.363,1567.689,185.468,1594.58,179.197,1605.188z"/>
			<path fill="#E0A30A" d="M343.486,1597.646c-8.172,12.243-15.736,25.023-23.91,37.267h-50.54
				c11.876-17.813,25.211-39.271,33.649-51.748c0.769,0.401,1.536,0.769,2.27,1.17c9.508,4.936,17.381,8.575,22.184,9.907
				C331.977,1595.577,337.646,1596.743,343.486,1597.646z"/>
			<path fill="#E32E33" d="M251.684,1557.091c-0.586-0.244-1.214-0.383-1.885-0.383c-2.671,0-4.852,2.171-4.852,4.853
				c0,2.67,2.181,4.841,4.852,4.841c2.054,0,3.809-1.276,4.512-3.085c0.214-0.542,0.33-1.139,0.33-1.756
				C254.641,1559.549,253.416,1557.826,251.684,1557.091z M249.033,1558.72c0.244-0.075,0.5-0.106,0.766-0.106
				c1.618,0,2.938,1.32,2.938,2.947c0,1.617-1.319,2.937-2.938,2.937c-1.617,0-2.938-1.319-2.938-2.937
				c0-0.766,0.288-1.458,0.768-1.979C248.001,1559.166,248.479,1558.869,249.033,1558.72z"/>
			<path fill="#E32E33" d="M263.238,1564.731c-0.467-0.149-0.969-0.234-1.49-0.234c-2.67,0-4.852,2.171-4.852,4.843
				c0,2.681,2.182,4.852,4.852,4.852c2.234,0,4.107-1.512,4.672-3.576c0.106-0.404,0.171-0.829,0.171-1.275
				C266.591,1567.189,265.186,1565.359,263.238,1564.731z M264.686,1569.34c0,1.627-1.319,2.946-2.938,2.946
				c-1.616,0-2.937-1.319-2.937-2.946c0-1.618,1.32-2.938,2.937-2.938C263.366,1566.401,264.686,1567.722,264.686,1569.34z"/>
			<path fill="#E32E33" d="M274.752,1572.402c-0.341-0.073-0.691-0.116-1.054-0.116c-2.671,0-4.853,2.171-4.853,4.842
				s2.182,4.852,4.853,4.852c2.395,0,4.384-1.755,4.768-4.032c0.052-0.266,0.074-0.542,0.074-0.819
				C278.54,1574.818,276.922,1572.894,274.752,1572.402z M276.635,1577.128c0,1.617-1.319,2.938-2.937,2.938
				c-1.616,0-2.937-1.32-2.937-2.938c0-1.618,1.32-2.937,2.937-2.937C275.315,1574.191,276.635,1575.51,276.635,1577.128z"/>
			<path fill="#E32E33" d="M287.138,1580.31c-0.469-0.159-0.969-0.244-1.489-0.244c-2.672,0-4.853,2.18-4.853,4.852
				c0,2.671,2.181,4.841,4.853,4.841c2.234,0,4.117-1.511,4.67-3.574c0.107-0.405,0.17-0.831,0.17-1.267
				C290.488,1582.767,289.085,1580.938,287.138,1580.31z M288.585,1584.917c0,1.618-1.319,2.937-2.937,2.937
				c-1.618,0-2.938-1.318-2.938-2.937c0-1.628,1.319-2.938,2.938-2.938C287.266,1581.979,288.585,1583.289,288.585,1584.917z"/>
			<path fill="#243031" d="M249.801,1565.444c-1.211,0-2.379-0.66-2.971-1.81c-0.844-1.64-0.197-3.649,1.44-4.493
				c0.704-0.362,1.986-1.162,3.691-2.218c11.591-7.179,35.706-22.11,45.817-12.249c1.317,1.286,1.345,3.399,0.056,4.716
				c-1.284,1.323-3.396,1.344-4.718,0.06c-4.226-4.125-16.894,0.295-37.643,13.146c-1.914,1.185-3.361,2.076-4.15,2.481
				C250.834,1565.328,250.313,1565.444,249.801,1565.444z"/>
			<path fill="#243031" d="M261.75,1572.841c-1.21,0-2.378-0.66-2.97-1.812c-0.844-1.638-0.197-3.649,1.44-4.491
				c0.703-0.362,1.984-1.164,3.69-2.22c11.589-7.177,35.71-22.11,45.818-12.249c1.317,1.286,1.343,3.401,0.054,4.718
				c-1.284,1.321-3.394,1.342-4.717,0.058c-4.23-4.123-16.891,0.297-37.644,13.146c-1.913,1.187-3.359,2.076-4.15,2.483
				C262.783,1572.723,262.263,1572.841,261.75,1572.841z"/>
			<path fill="#243031" d="M273.699,1580.235c-1.211,0-2.379-0.661-2.97-1.812c-0.844-1.638-0.197-3.647,1.44-4.491
				c0.703-0.362,1.985-1.164,3.691-2.218c11.591-7.179,35.707-22.11,45.816-12.252c1.316,1.287,1.344,3.402,0.056,4.718
				c-1.286,1.326-3.396,1.347-4.718,0.059c-4.228-4.123-16.893,0.297-37.643,13.146c-1.915,1.187-3.36,2.076-4.151,2.483
				C274.733,1580.117,274.212,1580.235,273.699,1580.235z"/>
			<path fill="#243031" d="M285.649,1588.414c-1.211,0-2.379-0.663-2.97-1.813c-0.844-1.64-0.197-3.649,1.439-4.493
				c0.704-0.359,1.986-1.162,3.69-2.218c11.593-7.176,35.711-22.106,45.817-12.249c1.318,1.286,1.345,3.399,0.057,4.718
				c-1.287,1.325-3.395,1.342-4.718,0.058c-4.226-4.123-16.894,0.298-37.644,13.146c-1.914,1.187-3.361,2.074-4.15,2.481
				C286.684,1588.295,286.162,1588.414,285.649,1588.414z"/>
		</g>
		<g>
			<ellipse opacity="0.5" fill="#FCEBE0" cx="136.837" cy="1654.243" rx="3.809" ry="3.37"/>
			<ellipse opacity="0.5" fill="#FCEBE0" cx="157.55" cy="1654.243" rx="12.471" ry="3.37"/>
			<ellipse opacity="0.5" fill="#FCEBE0" cx="210.602" cy="1654.242" rx="12.471" ry="3.37"/>
		</g>
		<g opacity="0.8">
			<path fill="#CBB0A2" d="M390.47,1647.58v1.66c-3.129,2.788-11.036,3.341-12.131,3.404h-99.044c-0.297,0-0.531-0.234-0.531-0.532
				c0-0.287,0.234-0.532,0.531-0.532h99.013C381.425,1651.399,389.096,1650.325,390.47,1647.58z"/>
			<path fill="#CBB0A2" d="M390.47,1653.72h-0.044c0.021,0.171,0.033,0.352,0.033,0.542c-3.14,2.778-11.025,3.331-12.12,3.395
				l-99.044,0.012c-0.297,0-0.531-0.246-0.531-0.532c0-0.299,0.234-0.532,0.531-0.532h99.013c3.117-0.181,10.788-1.256,12.162-4.012
				V1653.72z"/>
		</g>
	</g>
	<g>
		<g>
			<path fill="#FCEBE0" d="M296.283,1634.906v18.813h-0.043c0.021,0.171,0.032,0.352,0.032,0.542
				c0.011,0.139,0.011,0.287,0.011,0.438c0,10.438-8.48,18.876-18.92,18.876H57.762c-8.301,0-15.355-5.32-17.888-12.748
				c-0.671-1.915-1.032-3.979-1.032-6.128c0-0.342,0-0.671,0.064-0.979h-0.064v-18.813H296.283z"/>
			<path fill="#456675" d="M191.596,1525.558c0,7.072-0.334,14.812-1.868,18.048c-0.134,0.332-0.3,0.599-0.468,0.833
				c-1.967,2.536-20.248,3.937-24.418,6.973c-0.802,0.567-1.936,1-3.27,1.301c-5.605,1.271-14.913,0.036-19.85-3.302
				c-0.067-0.035-0.099-0.068-0.166-0.1c-0.168-0.103-0.334-0.235-0.5-0.368c-1.936-1.37-4.738-3.604-7.64-5.974
				c-0.568-0.432-1.102-0.897-1.668-1.367c-4.337-3.6-8.642-7.271-10.542-8.907c-0.668-0.567-1.035-0.897-1.035-0.897
				c-1.802-2.305-3.536-5.005-4.103-8.143c0-0.064-0.033-0.098-0.033-0.164c-0.534-2.971,0.033-6.306,2.735-9.876
				c5.57-7.372,28.923-29.756,49.771-18.081C189.394,1507.209,191.596,1517.816,191.596,1525.558z"/>
			<path fill="#E0A30A" d="M259.582,1597.711c-2.701-0.304-7.547,0.37-10.281-0.064c-5.84-0.904-11.511-2.07-16.348-3.404
				c-4.803-1.332-12.676-4.974-22.184-9.907c-0.733-0.401-1.502-0.771-2.27-1.17c-14.812-7.806-30.581-20.581-46.928-30.453
				c1.334-0.301,2.468-0.733,3.27-1.301c4.17-3.036,22.451-4.437,24.418-6.973c0.168-0.234,0.334-0.501,0.468-0.833
				c13.31,7.874,46.528,28.252,57.805,33.522c4.603,2.134,11.183,1.371,14.819,2.473c3.368,1.033,6.337,1.769,8.84,2.469
				c0.7,0.167,1.334,0.333,1.935,0.532c1.534,0.501,3.003,1.068,4.437,1.769c0.033,0.031,0.066,0.031,0.1,0.069
				c3.004,1.434,5.738,3.335,8.141,5.569c0.699,0.632,1.4,1.332,2.002,2.069c0.034,0,0.034,0.033,0.066,0.064
				C291.64,1597.746,276.263,1599.61,259.582,1597.711z"/>
			<path fill="#456675" d="M208.5,1583.165c-8.439,12.478-21.773,33.934-33.651,51.747H99.924
				c-9.874-9.544-19.882-21.319-14.912-29.726c6.271-10.605,42.166-37.496,56.711-55.776c4.937,3.338,14.244,4.572,19.85,3.302
				C177.919,1562.584,193.688,1575.359,208.5,1583.165z"/>
			<path fill="#FCEBE0" d="M296.278,1614.094v20.818h-70.89c8.176-12.243,15.739-25.025,23.912-37.266
				c2.734,0.435,7.58-0.239,10.281,0.064c16.681,1.899,32.058,0.035,28.289-5.568c4.204,4.672,7.072,10.543,8.04,16.979
				C296.145,1610.758,296.278,1612.396,296.278,1614.094z"/>
			<path fill="#E32E33" d="M277.563,1584.37c-1.434-0.7-2.902-1.268-4.437-1.769C274.895,1583.136,276.395,1583.67,277.563,1584.37z
				"/>
			<path fill="#E32E33" d="M87.86,1654.243c0,3.916-2.918,7.089-6.517,7.089H42.235c-3.601,0-6.518-3.173-6.518-7.089l0,0
				c0-3.917,2.917-7.089,6.518-7.089h39.108C84.942,1647.154,87.86,1650.326,87.86,1654.243L87.86,1654.243z"/>
			<path fill="#E32E33" d="M136.985,1654.243c0,2.995-2.426,5.421-5.421,5.421h-30.301c-2.994,0-5.42-2.426-5.42-5.421l0,0
				c0-2.994,2.426-5.422,5.42-5.422h30.301C134.56,1648.821,136.985,1651.249,136.985,1654.243L136.985,1654.243z"/>
			<path fill="#FCEBE0" d="M121.207,1532.694c-14.111-0.567-21.35,20.583-31.191,29.692c-11.142,10.274-26.688,12.777-35.028,8.141
				c-8.34-4.639-11.676,8.539-16.712,14.143c-2.069-7.139-6.572-32.126-0.066-38.797c7.505-7.705,13.076-12.243,22.483-9.774
				c7.105,1.903,32.926,6.47,52.941-12.077c0,0,0.2-0.465,0.7-0.667h0.034c0.367-0.166,0.901-0.197,1.668,0.136
				c0,0.066,0.033,0.1,0.033,0.164c0.566,3.138,2.301,5.838,4.103,8.143C120.172,1531.797,120.539,1532.127,121.207,1532.694z"/>
			<path fill="#E43A43" d="M85.012,1605.187c-4.97,8.406,5.038,20.182,14.912,29.726H38.842v-10.344l-0.2-0.401
				c-1.636-3.835-2.568-8.105-2.568-12.575v-15.311c0-4.107,0.767-8.008,2.202-11.611c5.036-5.604,8.372-18.781,16.712-14.143
				c8.34,4.637,23.887,2.134,35.028-8.141c9.842-9.109,17.08-30.26,31.191-29.692c1.9,1.636,6.205,5.308,10.542,8.907
				c0.566,0.47,1.1,0.936,1.668,1.367c2.901,2.37,5.704,4.604,7.64,5.974c0.166,0.133,0.332,0.266,0.5,0.368
				c0.067,0.031,0.099,0.064,0.166,0.1C127.178,1567.69,91.282,1594.581,85.012,1605.187z"/>
			<path fill="#E0A30A" d="M249.301,1597.646c-8.173,12.24-15.736,25.022-23.912,37.266h-50.54
				c11.878-17.813,25.212-39.27,33.651-51.747c0.768,0.399,1.536,0.769,2.27,1.17c9.508,4.934,17.381,8.575,22.184,9.907
				C237.79,1595.576,243.461,1596.742,249.301,1597.646z"/>
			<path fill="#E32E33" d="M157.496,1557.091c-0.584-0.245-1.212-0.382-1.884-0.382c-2.67,0-4.852,2.17-4.852,4.852
				c0,2.672,2.182,4.841,4.852,4.841c2.054,0,3.81-1.275,4.513-3.086c0.213-0.542,0.33-1.138,0.33-1.755
				C160.455,1559.55,159.23,1557.826,157.496,1557.091z M154.847,1558.72c0.244-0.074,0.5-0.107,0.766-0.107
				c1.618,0,2.937,1.319,2.937,2.948c0,1.618-1.318,2.938-2.937,2.938c-1.616,0-2.937-1.319-2.937-2.938
				c0-0.766,0.287-1.458,0.768-1.979C153.814,1559.166,154.293,1558.868,154.847,1558.72z"/>
			<path fill="#E32E33" d="M169.053,1564.73c-0.469-0.148-0.969-0.232-1.49-0.232c-2.67,0-4.853,2.17-4.853,4.84
				c0,2.683,2.183,4.854,4.853,4.854c2.234,0,4.106-1.512,4.671-3.575c0.107-0.405,0.171-0.831,0.171-1.278
				C172.404,1567.189,171,1565.358,169.053,1564.73z M170.499,1569.338c0,1.629-1.319,2.948-2.937,2.948s-2.937-1.319-2.937-2.948
				c0-1.616,1.319-2.937,2.937-2.937S170.499,1567.722,170.499,1569.338z"/>
			<path fill="#E32E33" d="M180.565,1572.403c-0.34-0.074-0.691-0.117-1.053-0.117c-2.672,0-4.853,2.171-4.853,4.842
				c0,2.67,2.181,4.853,4.853,4.853c2.394,0,4.383-1.756,4.767-4.034c0.053-0.266,0.073-0.542,0.073-0.818
				C184.353,1574.818,182.736,1572.893,180.565,1572.403z M182.449,1577.128c0,1.616-1.32,2.937-2.937,2.937
				c-1.618,0-2.938-1.32-2.938-2.937c0-1.617,1.319-2.937,2.938-2.937C181.129,1574.191,182.449,1575.511,182.449,1577.128z"/>
			<path fill="#E32E33" d="M192.951,1580.31c-0.468-0.16-0.969-0.245-1.489-0.245c-2.672,0-4.853,2.182-4.853,4.853
				s2.181,4.841,4.853,4.841c2.235,0,4.118-1.511,4.671-3.575c0.105-0.403,0.17-0.829,0.17-1.266
				C196.303,1582.768,194.898,1580.938,192.951,1580.31z M194.398,1584.917c0,1.617-1.318,2.937-2.937,2.937
				s-2.938-1.319-2.938-2.937c0-1.628,1.32-2.937,2.938-2.937S194.398,1583.289,194.398,1584.917z"/>
			<path fill="#243031" d="M155.613,1565.445c-1.21,0-2.378-0.66-2.969-1.812c-0.844-1.638-0.197-3.649,1.439-4.491
				c0.703-0.361,1.986-1.164,3.692-2.22c11.59-7.177,35.706-22.11,45.815-12.249c1.319,1.288,1.346,3.401,0.057,4.717
				c-1.284,1.322-3.395,1.343-4.719,0.059c-4.225-4.123-16.893,0.297-37.643,13.146c-1.914,1.187-3.36,2.076-4.15,2.483
				C156.647,1565.327,156.127,1565.445,155.613,1565.445z"/>
			<path fill="#243031" d="M167.563,1572.84c-1.209,0-2.377-0.66-2.969-1.812c-0.843-1.638-0.196-3.647,1.441-4.491
				c0.702-0.362,1.984-1.164,3.689-2.218c11.59-7.179,35.71-22.112,45.818-12.249c1.317,1.286,1.343,3.399,0.055,4.715
				c-1.285,1.322-3.395,1.343-4.718,0.061c-4.229-4.125-16.892,0.295-37.644,13.146c-1.913,1.185-3.359,2.073-4.15,2.481
				C168.598,1572.724,168.076,1572.84,167.563,1572.84z"/>
			<path fill="#243031" d="M179.513,1580.234c-1.21,0-2.378-0.658-2.97-1.81c-0.844-1.638-0.197-3.649,1.439-4.491
				c0.705-0.364,1.987-1.164,3.691-2.22c11.593-7.177,35.708-22.11,45.817-12.249c1.317,1.286,1.345,3.401,0.056,4.717
				c-1.286,1.326-3.396,1.345-4.717,0.059c-4.228-4.125-16.893,0.297-37.644,13.145c-1.914,1.188-3.36,2.077-4.15,2.484
				C180.547,1580.118,180.025,1580.234,179.513,1580.234z"/>
			<path fill="#243031" d="M191.463,1588.412c-1.211,0-2.379-0.66-2.971-1.81c-0.844-1.64-0.197-3.649,1.441-4.493
				c0.704-0.361,1.985-1.164,3.689-2.218c11.594-7.179,35.712-22.108,45.818-12.249c1.317,1.286,1.345,3.4,0.055,4.716
				c-1.285,1.325-3.393,1.342-4.717,0.058c-4.225-4.123-16.894,0.297-37.643,13.146c-1.914,1.187-3.361,2.076-4.15,2.483
				C192.498,1588.294,191.976,1588.412,191.463,1588.412z"/>
		</g>
		<g>
			<ellipse opacity="0.5" fill="#FCEBE0" cx="42.651" cy="1654.243" rx="3.809" ry="3.37"/>
			<ellipse opacity="0.5" fill="#FCEBE0" cx="63.363" cy="1654.243" rx="12.47" ry="3.37"/>
			<ellipse opacity="0.5" fill="#FCEBE0" cx="116.414" cy="1654.242" rx="12.471" ry="3.37"/>
		</g>
		<g opacity="0.8">
			<path fill="#CBB0A2" d="M296.283,1647.58v1.66c-3.129,2.788-11.035,3.341-12.13,3.404h-99.044c-0.299,0-0.532-0.234-0.532-0.532
				c0-0.287,0.233-0.532,0.532-0.532h99.012C287.238,1651.399,294.91,1650.325,296.283,1647.58z"/>
			<path fill="#CBB0A2" d="M296.283,1653.72h-0.043c0.021,0.171,0.032,0.352,0.032,0.542c-3.14,2.778-11.024,3.331-12.119,3.395
				l-99.044,0.012c-0.299,0-0.532-0.246-0.532-0.532c0-0.299,0.233-0.532,0.532-0.532h99.012c3.117-0.181,10.789-1.256,12.162-4.012
				V1653.72z"/>
		</g>
	</g>
	<path fill="#E0A30A" d="M149.739,414.45c0,0,0.15,0.33,0.41,0.939c1.979,4.521,10.63,24.301,15.43,35.73
		c0.011,0.02,0.021,0.05,0.03,0.07c2.02,4.829,4.8,9.079,8.02,12.72c4.061,4.609,8.82,8.25,13.61,10.859
		c1.561,0.86,3.12,1.601,4.67,2.24c10.021,4.11,40.91,16.76,52.601,25.11c11.689,8.34,53.43-3.34,56.77-16.7s2.37-34.38,2.37-34.38
		c-4.14-3.63-11.55,11-32.01,17.68c-19.73,6.44-66.66-14.7-79.69-31.569c-0.49-0.62-0.92-1.23-1.3-1.83
		c-3.39-5.351-6.05-10.09-8.56-14.34l-0.221-0.37c-5.43-9.16-10.24-16.061-20.439-21.95
		C146.399,389.97,149.739,414.45,149.739,414.45z"/>
</g>
</svg>
