<?xml version="1.0" encoding="utf-8"?>
<!-- Generator: Adobe Illustrator 17.0.0, SVG Export Plug-In . SVG Version: 6.00 Build 0)  -->
<!DOCTYPE svg PUBLIC "-//W3C//DTD SVG 1.1//EN" "http://www.w3.org/Graphics/SVG/1.1/DTD/svg11.dtd">
<svg version="1.1" id="Calque_1" xmlns="http://www.w3.org/2000/svg" xmlns:xlink="http://www.w3.org/1999/xlink" x="0px" y="0px"
	 width="1279.988px" height="800px" viewBox="0 0 1279.988 800" enable-background="new 0 0 1279.988 800" xml:space="preserve">
<rect x="-11520" fill="#AEDBDF" stroke="#000000" stroke-miterlimit="10" width="1279.988" height="800.002"/>
<rect x="-10240" fill="#AEDBDF" stroke="#000000" stroke-miterlimit="10" width="1279.988" height="800.002"/>
<rect x="-8960" fill="#AEDBDF" stroke="#000000" stroke-miterlimit="10" width="1279.988" height="800.002"/>
<rect x="-7680" fill="#AEDBDF" stroke="#000000" stroke-miterlimit="10" width="1279.988" height="800.002"/>
<rect x="-6400" fill="#AEDBDF" stroke="#000000" stroke-miterlimit="10" width="1279.988" height="800.002"/>
<rect x="-5120" fill="#AEDBDF" stroke="#000000" stroke-miterlimit="10" width="1279.988" height="800.002"/>
<rect x="-3840" fill="#AEDBDF" stroke="#000000" stroke-miterlimit="10" width="1279.988" height="800.002"/>
<rect x="-2560" fill="#AEDBDF" stroke="#000000" stroke-miterlimit="10" width="1279.988" height="800.002"/>
<rect x="-1290" fill="#AEDBDF" stroke="#000000" stroke-miterlimit="10" width="1279.988" height="800.002"/>
<rect x="-45.14" y="-45" fill="#E4FAFA" width="1366" height="892"/>
<rect x="-10240.14" y="679" fill="#8CC63F" width="1280" height="17"/>
<rect x="-11520.14" y="679" fill="#8CC63F" width="1280" height="17"/>
<path fill="none" stroke="#8CC63F" stroke-width="21" stroke-miterlimit="10" d="M-8967.14,687.628
	c0,0,304.778,47.206,689.762-76.257c384.983-123.463,425.085-79.888,697.782-108.938c272.696-29.05,352.901,25.709,465.188,36.458
	c112.287,10.748,401.024-43.43,521.331-10.894c0,0,328.84,87.005,457.167,65.217s216.553-79.888,56.144-108.938
	c-160.41-29.05-20.051,136.172,168.43,0c0,0,275.919-269.384,428.308-280.277s309.929,39.898,426.226,179.702
	c116.297,139.804,393.819,280.94,602.352,213.761s259.743-242.581,632.696-220.966c0,0,198.561,20.631-5.962,73.284
	c-204.522,52.653-16.397,165.134,98.344,84.014c0,0,168.2-144.752,172.325-70.49c4.989,89.83,181.572-126.557,277.54-178.304
	c46.491-25.069,257.155-113.213,441.626-16.984c184.471,96.229,376.929,59.44,497.236,21.312
	c120.307-38.128-7.701-108.88-119.988-27.177c-112.287,81.703,181.836,213.89,317.485,193.124
	c165.808-25.383,380.988-32.218,701.807-97.581c320.819-65.363,574.956,71.132,603.028,143.757
	c28.072,72.625,74.844,156.208-69.524,107.186c-144.369-49.022,235.68-117.035,376.039-73.46
	C-391.442,578.752-37.14,702.5,94.365,686"/>
<line fill="#8CC63F" stroke="#8CC63F" stroke-width="20" stroke-miterlimit="10" x1="1332.86" y1="686" x2="52.86" y2="686"/>
</svg>
