<?xml version="1.0" encoding="utf-8"?>
<!-- Generator: Adobe Illustrator 16.0.0, SVG Export Plug-In . SVG Version: 6.00 Build 0)  -->
<!DOCTYPE svg PUBLIC "-//W3C//DTD SVG 1.1//EN" "http://www.w3.org/Graphics/SVG/1.1/DTD/svg11.dtd">
<svg version="1.1" id="Calque_1" xmlns="http://www.w3.org/2000/svg" xmlns:xlink="http://www.w3.org/1999/xlink" x="0px" y="0px"
	 width="1280px" height="800px" viewBox="0 0 1280 800" enable-background="new 0 0 1280 800" xml:space="preserve">
<path fill="#8CC63F" d="M45.7,488.02C30.17,492.39,14.48,496.8,0,501.48v-18.91c12.84-4,26.6-7.87,40.83-11.87
	c20.66-5.82,42.02-11.82,62.28-18.73c4.91-1.68,13.22-5.38,13.76-11.42c0.66-7.34-8.8-20.38-31.41-32.96
	C66.06,396.8,36.8,386.66,0,381.73V363.4c5.95,0.75,11.83,1.65,17.64,2.7c29.28,5.27,55.76,14.18,76.57,25.76
	c27.3,15.19,42.09,33.52,40.59,50.31c-0.63,6.94-4.82,19.65-25.88,26.83C88.2,476.07,66.6,482.15,45.7,488.02z"/>
<path fill="#8CC63F" d="M1280,353.24v18.01c-25.28-0.77-50.25-2.48-74.85-5.12c-105.51-11.36-201.21-40.04-284.47-85.22
	c-74.55-40.47-166.85-35.52-274.33,14.73c-86.28,40.33-166.52,101.83-233.63,156.669c-65.7,53.69-102.39,47.32-134.76,41.7
	c-25.98-4.51-48.42-8.399-86.1,20.04c-13.65,10.311-28.05,20.87-42.86,31.05C99.5,579.15,45.5,608.91,0,610.63v-18.01
	c44.35-1.98,101.04-35.62,149-69.48c11.24-7.939,22.01-15.89,32.02-23.449c43.9-33.15,72.43-28.2,100.02-23.41
	c15.6,2.7,30.34,5.27,48.76,1.37c21.3-4.5,44.69-17.351,71.53-39.28c67.97-55.54,149.33-117.87,237.4-159.04
	c51.74-24.19,100.73-38.47,145.62-42.45c53.02-4.7,101.78,4.79,144.92,28.21c81.18,44.06,174.65,72.03,277.81,83.14
	C1231.05,350.81,1255.38,352.48,1280,353.24z"/>
</svg>
