<?xml version="1.0" encoding="utf-8"?>
<!-- Generator: Adobe Illustrator 16.0.0, SVG Export Plug-In . SVG Version: 6.00 Build 0)  -->
<!DOCTYPE svg PUBLIC "-//W3C//DTD SVG 1.1//EN" "http://www.w3.org/Graphics/SVG/1.1/DTD/svg11.dtd">
<svg version="1.1" id="Calque_1" xmlns="http://www.w3.org/2000/svg" xmlns:xlink="http://www.w3.org/1999/xlink" x="0px" y="0px"
	 width="1280px" height="800px" viewBox="0 0 1280 800" enable-background="new 0 0 1280 800" xml:space="preserve">
<path fill="#8CC63F" d="M1129.85,246.14c-69.3-24.03-146.32-32.75-222.73-25.21c-45.19,4.45-95.15,26.06-152.74,66.06
	c-50.13,34.81-99.5,78.67-147.25,121.08c-49.7,44.149-96.64,85.85-139.56,113.04c-26.26,16.64-49.64,25.479-69.78,29.51
	c-0.44-1.83-1.03-3.48-1.67-4.95c-7.94-18.29-32.46-28.77-51.62-34.34c-21.54-6.26-43.91-8.49-54.39-5.42
	c-5.9,1.729-9.93,6.25-10.79,12.1c-1.58,10.851,7.87,24.37,24.68,35.28c9.59,6.22,33.77,18.92,69.92,18.1
	c-7,8.021-18.12,15.44-26.36,20.32c-30.92,18.32-87.97,26.11-164.56,22.96c-28.2-1.15-59.05-3.79-92.22-7.93
	C60,602.9,29.27,598.02,0,592.59v18.29c28.65,5.26,58.59,9.98,88.55,13.72c29.38,3.67,61.91,6.79,94.45,8.11
	c10.84,0.45,21.67,0.69,32.39,0.69c55.68,0,108.24-6.591,141.35-26.2c17.41-10.32,29.09-20.29,35.68-30.48
	c1.67-2.59,2.95-5.09,3.89-7.5c23.37-3.939,50.5-13.64,80.89-32.899c44.16-27.98,91.63-70.15,141.89-114.79
	c47.35-42.07,96.32-85.56,145.56-119.76c55-38.19,102.18-58.78,144.23-62.93c143.18-14.13,278.99,30.15,371.12,119.39v-24.75
	C1237.43,295.28,1187.13,266,1129.85,246.14z M320.18,541.92c-13.12-6.9-20.06-14.93-22.25-19.21c7.46-0.74,23.67,0.71,41.55,5.91
	c21.22,6.16,36.22,15.22,40.13,24.22c0.04,0.08,0.07,0.16,0.1,0.24C350.84,555.16,330.5,547.35,320.18,541.92z"/>
</svg>
