<?xml version="1.0" encoding="utf-8"?>
<!-- Generator: Adobe Illustrator 16.0.0, SVG Export Plug-In . SVG Version: 6.00 Build 0)  -->
<!DOCTYPE svg PUBLIC "-//W3C//DTD SVG 1.1//EN" "http://www.w3.org/Graphics/SVG/1.1/DTD/svg11.dtd">
<svg version="1.1" id="Calque_1" xmlns="http://www.w3.org/2000/svg" xmlns:xlink="http://www.w3.org/1999/xlink" x="0px" y="0px"
	 width="1280px" height="800px" viewBox="0 0 1280 800" enable-background="new 0 0 1280 800" xml:space="preserve">
<path fill="#8CC63F" d="M1280,363.4v18.33c-86.27-11.53-213.96,5.63-353.14,110.35c-116.12,87.35-228.16,139.3-333.01,154.4
	c-87.42,12.59-151.06-2.98-189.08-12.29c-8.99-2.2-16.76-4.101-22.91-5.16c-32.64-5.61-96.38-36.82-162.39-79.5
	c-17.88-11.561-41.99-27.92-68.47-48.03c-40.67-30.88-86.94-70.6-124.81-115.3C17.92,376.44,9.18,367.1,0,358.23v-24.75
	c14.17,12.71,27.49,26.41,39.92,41.08c31.17,36.79,70.23,72.35,111.08,104.26c92.34,72.12,193.79,125.569,233.91,132.47
	c6.77,1.17,14.82,3.13,24.14,5.42c36.75,9,98.27,24.05,182.23,11.96C693.11,614,802.37,563.21,916.03,477.69
	c46.64-35.091,95.18-62.801,144.26-82.36c43.24-17.23,86.99-28.2,130.02-32.62C1221.31,359.53,1251.39,359.77,1280,363.4z"/>
<path fill="#8CC63F" d="M1216.56,538.21c-2.67,7.03-0.82,15.36,5.68,25.48c10.11,15.729,23.29,24.859,40.32,27.899
	c5.55,0.99,11.38,1.311,17.44,1.03v18.01c-1.38,0.061-2.75,0.09-4.12,0.09c-5.65,0-11.15-0.46-16.48-1.41
	c-21.93-3.909-39.52-15.989-52.31-35.899c-9.65-15.04-12.13-29.03-7.36-41.59c8.72-22.96,40.02-36.73,80.27-49.25v18.91
	C1248.22,511.73,1222.25,523.23,1216.56,538.21z"/>
</svg>
