<?xml version="1.0" encoding="utf-8"?>
<!-- Generator: Adobe Illustrator 16.0.0, SVG Export Plug-In . SVG Version: 6.00 Build 0)  -->
<!DOCTYPE svg PUBLIC "-//W3C//DTD SVG 1.1//EN" "http://www.w3.org/Graphics/SVG/1.1/DTD/svg11.dtd">
<svg version="1.1" id="Calque_1" xmlns="http://www.w3.org/2000/svg" xmlns:xlink="http://www.w3.org/1999/xlink" x="0px" y="0px"
	 width="1280px" height="800px" viewBox="0 0 1280 800" enable-background="new 0 0 1280 800" xml:space="preserve">
<path fill="#8CC63F" d="M1280,592.59v18.29c-72.79-13.37-137.31-30.24-172.92-43.439c-71.96-26.671-260.55-10.04-385.34,0.97
	c-41.6,3.67-77.52,6.83-99.47,7.5c-2.95,0.09-6.02,0.14-9.2,0.14c-50.35,0-127.93-10.979-203.11-21.609
	c-62.89-8.891-122.28-17.28-165.77-19.58c-20.9-1.101-62.37,0.31-113.19,3.199c-39.73,2.261-85.18,5.421-131,9v-18
	c49.21-3.859,93.5-6.899,131-9.02c54.07-3.06,94-4.21,114.14-3.14c44.27,2.33,104.05,10.779,167.34,19.729
	c79.17,11.19,161.04,22.75,209.25,21.29c21.42-0.65,57.11-3.8,98.43-7.439c126.4-11.15,317.41-27.99,393.17,0.079
	C1147.69,563.29,1209.66,579.54,1280,592.59z"/>
</svg>
