<?xml version="1.0" encoding="utf-8"?>
<!-- Generator: Adobe Illustrator 16.0.0, SVG Export Plug-In . SVG Version: 6.00 Build 0)  -->
<!DOCTYPE svg PUBLIC "-//W3C//DTD SVG 1.1//EN" "http://www.w3.org/Graphics/SVG/1.1/DTD/svg11.dtd">
<svg version="1.1" id="Calque_1" xmlns="http://www.w3.org/2000/svg" xmlns:xlink="http://www.w3.org/1999/xlink" x="0px" y="0px"
	 width="1280px" height="800px" viewBox="0 0 1280 800" enable-background="new 0 0 1280 800" xml:space="preserve">
<path fill="#8CC63F" d="M1232.51,690.84c-110.93-20.78-210.93-47.13-254.77-67.14c-85.18-38.88-311.08-101.851-472.02-78.63
	c-12.37,1.779-23.63,3.989-33.84,6.56c-7.71-17.29-18.19-34.41-30.59-49.79c-26.51-32.88-87.88-66.62-168.38-92.57
	C229.56,395.29,184.16,384.62,139,377.61c-42.54-6.6-84.86-9.95-125.05-9.73C9.5,367.9,4.84,367.96,0,368.05v18.01
	c4.88-0.1,9.57-0.16,14.05-0.18c40.1-0.19,82.43,3.23,124.95,9.96c43.3,6.86,86.81,17.15,128.39,30.561
	c76.11,24.54,135.88,56.96,159.89,86.739c11.07,13.73,20.23,28.69,27.08,43.561c-54.1,17.92-71.89,47.18-68.86,72.06
	c1.49,12.271,8.09,23.26,18.57,30.95c10.41,7.65,23.58,11.12,37.07,9.78c19.11-1.9,32.98-11.91,40.12-28.94
	c7.03-16.79,6.78-40.04-0.69-65.47c-0.63-2.17-1.33-4.35-2.06-6.54c9.23-2.23,19.18-4.13,29.77-5.66
	c85.91-12.39,186.57,1.55,255.89,15.42c76.54,15.32,157.43,39.561,206.09,61.771c52.39,23.91,175.29,55.069,309.74,77.47v-18.25
	C1264.29,696.65,1248.45,693.83,1232.51,690.84z M464.65,633.59c-4.55,10.87-12.82,16.75-25.28,17.99c-17.97,1.77-34.11-9.43-36-25
	c-1.4-11.47,5.14-23.45,18.41-33.74c9.83-7.609,23.1-14.14,39.32-19.41C469.17,596.8,470.91,618.66,464.65,633.59z"/>
</svg>
