<?xml version="1.0" encoding="utf-8"?>
<!-- Generator: Adobe Illustrator 16.0.0, SVG Export Plug-In . SVG Version: 6.00 Build 0)  -->
<!DOCTYPE svg PUBLIC "-//W3C//DTD SVG 1.1//EN" "http://www.w3.org/Graphics/SVG/1.1/DTD/svg11.dtd">
<svg version="1.1" id="Calque_1" xmlns="http://www.w3.org/2000/svg" xmlns:xlink="http://www.w3.org/1999/xlink" x="0px" y="0px"
	 width="1280px" height="800px" viewBox="0 0 1280 800" enable-background="new 0 0 1280 800" xml:space="preserve">
<path fill="#8CC63F" d="M1280,529.06v18c-115.3,9-232.94,20.61-267.71,26.98c-80.06,14.67-331.71,78.47-401.29,98.74
	c-36.49,10.63-132.53,33.37-231.81,50.76c-54.13,9.479-119.37,19.04-174.19,21.8c-32.57,1.65-61.46,0.9-82.15-3.7
	c-31.47-7-76.33-11.63-122.85-14.689V708.85c47.59,3.12,93.83,7.9,126.76,15.221c18.91,4.199,46.13,4.939,78.24,3.229
	c129.16-6.859,337.32-53.189,400.97-71.74c69.84-20.35,322.59-84.449,403.08-99.189c30.57-5.61,136.02-16.41,250.73-25.69
	C1266.61,530.13,1273.35,529.59,1280,529.06z"/>
</svg>
