<?xml version="1.0" encoding="utf-8"?>
<!-- Generator: Adobe Illustrator 16.0.0, SVG Export Plug-In . SVG Version: 6.00 Build 0)  -->
<!DOCTYPE svg PUBLIC "-//W3C//DTD SVG 1.1//EN" "http://www.w3.org/Graphics/SVG/1.1/DTD/svg11.dtd">
<svg version="1.1" id="Calque_1" xmlns="http://www.w3.org/2000/svg" xmlns:xlink="http://www.w3.org/1999/xlink" x="0px" y="0px"
	 width="1280px" height="800px" viewBox="0 0 1280 800" enable-background="new 0 0 1280 800" xml:space="preserve">
<path fill="#8CC63F" d="M964.65,392.06c-153.95,17.41-292.04,40.31-388.83,64.47c-95.39,23.81-189.34,25.229-279.25,4.22
	c-58.39-13.65-103.2-34.22-133.57-51.54c-17.86-10.18-30.72-19.23-38.44-25.09c-6.53-4.96-11.51-10.12-15.24-15.3
	c17.81-1.31,35.71-3.06,53.68-5.25c2.04-0.25,4.09-0.5,6.13-0.76c34.15-4.34,62.57-13.41,82.19-26.21
	c18.91-12.34,29.42-28.05,29.59-44.23c0.14-12.84-6.36-25.06-18.31-34.41c-11.61-9.1-28.23-15.47-48.09-18.43
	c-18.01-2.68-35.48-0.93-51.51,4c-35.16,10.8-63.36,36.82-75.08,64.62c-6.22,14.78-7.96,30.02-5.06,44.27
	c-27.92,1.39-55.57,1.66-82.86,0.82v18.01c29.33,0.89,59.06,0.51,89.09-1.14c5.41,10.54,13.64,20.03,24.59,28.35
	c14.66,11.14,31.28,21.69,49.32,31.4c38.48,20.72,83.4,37.649,129.48,48.42c43.49,10.16,87.86,15.239,132.86,15.239
	c50.95-0.01,102.71-6.52,154.84-19.529c96.05-23.971,233.31-46.721,386.5-64.04c118.01-13.35,238.48-22.49,313.32-23.89v-18.01
	C1204.61,369.45,1083.33,378.63,964.65,392.06z M101.04,351.36c-3.68-14.33-0.18-27.55,3.47-36.22
	c7.4-17.55,22.55-33.87,41.56-44.75c5.46-3.13,11.13-5.76,16.93-7.86c11.34-4.11,23.17-6.22,34.88-6.22c4.69,0,9.37,0.34,13.98,1.02
	c31.19,4.66,51.23,18.33,51.05,34.84c-0.2,19.56-30.35,44.43-96.05,52.79c-1.29,0.16-2.57,0.32-3.86,0.48
	C142.24,348.01,121.58,349.99,101.04,351.36z"/>
</svg>
