<?xml version="1.0" encoding="utf-8"?>
<!-- Generator: Adobe Illustrator 16.0.0, SVG Export Plug-In . SVG Version: 6.00 Build 0)  -->
<!DOCTYPE svg PUBLIC "-//W3C//DTD SVG 1.1//EN" "http://www.w3.org/Graphics/SVG/1.1/DTD/svg11.dtd">
<svg version="1.1" id="Calque_1" xmlns="http://www.w3.org/2000/svg" xmlns:xlink="http://www.w3.org/1999/xlink" x="0px" y="0px"
	 width="215.036px" height="227.026px" viewBox="0 0 215.036 227.026" enable-background="new 0 0 215.036 227.026"
	 xml:space="preserve">
<polygon fill="#1D2B40" points="102.656,21.41 112.426,11.599 120.162,23.081 131.611,15.296 137.033,28.035 149.75,22.558 
	152.664,36.093 166.186,33.121 166.484,46.964 180.326,46.604 178,60.253 191.66,62.519 186.793,75.48 199.775,80.292 
	192.543,92.099 204.383,99.278 195.047,109.505 205.313,118.794 194.209,127.069 202.531,138.136 190.064,144.157 196.141,156.597 
	182.76,160.152 186.373,173.519 172.561,174.476 173.578,188.284 159.834,186.611 158.219,200.363 145.041,196.117 140.852,209.315 
	128.715,202.653 122.105,214.819 111.447,205.981 102.656,216.678 93.865,205.981 83.207,214.819 76.598,202.653 64.461,209.315 
	60.271,196.117 47.094,200.363 45.479,186.611 31.734,188.284 32.752,174.476 18.939,173.519 22.553,160.152 9.172,156.597 
	15.248,144.157 2.781,138.136 11.104,127.069 0,118.794 10.266,109.505 0.93,99.278 12.77,92.099 5.537,80.292 18.52,75.48 
	13.652,62.519 27.313,60.253 24.986,46.604 38.828,46.964 39.127,33.121 52.648,36.093 55.563,22.558 68.279,28.035 73.701,15.296 
	85.15,23.081 92.889,11.599 "/>
</svg>
