<?xml version="1.0" encoding="utf-8"?>
<!-- Generator: Adobe Illustrator 16.0.0, SVG Export Plug-In . SVG Version: 6.00 Build 0)  -->
<!DOCTYPE svg PUBLIC "-//W3C//DTD SVG 1.1//EN" "http://www.w3.org/Graphics/SVG/1.1/DTD/svg11.dtd">
<svg version="1.1" id="Calque_1" xmlns="http://www.w3.org/2000/svg" xmlns:xlink="http://www.w3.org/1999/xlink" x="0px" y="0px"
	 width="215.655px" height="221.243px" viewBox="0 0 215.655 221.243" enable-background="new 0 0 215.655 221.243"
	 xml:space="preserve">
<polygon fill="#1D2B40" points="108.999,17.894 118.769,8.082 126.505,19.564 137.954,11.779 143.376,24.519 156.093,19.041 
	159.007,32.576 172.528,29.604 172.827,43.447 186.669,43.087 184.343,56.736 198.003,59.002 193.136,71.964 206.118,76.775 
	198.886,88.582 210.726,95.762 201.39,105.988 211.655,115.277 200.552,123.553 208.874,134.619 196.407,140.641 202.483,153.08 
	189.103,156.636 192.716,170.002 178.903,170.959 179.921,184.768 166.177,183.095 164.562,196.847 151.384,192.601 
	147.194,205.799 135.058,199.137 128.448,211.303 117.79,202.465 108.999,213.161 100.208,202.465 89.55,211.303 82.94,199.137 
	70.804,205.799 66.614,192.601 53.437,196.847 51.821,183.095 38.077,184.768 39.095,170.959 25.282,170.002 28.896,156.636 
	15.515,153.08 21.591,140.641 9.124,134.619 17.446,123.553 6.343,115.277 16.608,105.988 7.272,95.762 19.112,88.582 11.88,76.775 
	24.862,71.964 19.995,59.002 33.655,56.736 31.329,43.087 45.171,43.447 45.47,29.604 58.991,32.576 61.905,19.041 74.622,24.519 
	80.044,11.779 91.493,19.564 99.231,8.082 "/>
<line fill="#FFFFFF" x1="91.556" y1="35.048" x2="113.667" y2="101.381"/>
<line fill="none" stroke="#FFFFFF" stroke-miterlimit="10" x1="91.556" y1="35.048" x2="113.667" y2="101.381"/>
<path fill="#F6F4B2" d="M95.188,38.703c0,0-3.295-3.295-10.355,9.416L70.71,70.244"/>
<path fill="#F6F4B2" d="M70.71,70.244c0,0,37.66,25.422,60.258-20.713L95.188,38.703"/>
<polyline fill="#EF6152" points="92.54,38.703 104.099,75.787 112.808,71.725 92.54,38.703 "/>
<polyline fill="#EF6152" points="91.737,39.172 83.567,75.788 92.538,77.232 91.737,39.172 "/>
<polyline fill="#EF6152" points="93.931,38.323 119.739,66.008 126.009,58.201 93.931,38.323 "/>
</svg>
