<?xml version="1.0" encoding="utf-8"?>
<!-- Generator: Adobe Illustrator 17.0.0, SVG Export Plug-In . SVG Version: 6.00 Build 0)  -->
<!DOCTYPE svg PUBLIC "-//W3C//DTD SVG 1.1//EN" "http://www.w3.org/Graphics/SVG/1.1/DTD/svg11.dtd">
<svg version="1.1" id="Calque_1" xmlns="http://www.w3.org/2000/svg" xmlns:xlink="http://www.w3.org/1999/xlink" x="0px" y="0px"
	 width="316.049px" height="314.815px" viewBox="0 0 316.049 314.815" enable-background="new 0 0 316.049 314.815"
	 xml:space="preserve">
<polygon fill="#1D2B40" points="148.505,86.42 158.275,76.608 166.011,88.091 177.46,80.306 182.882,93.045 195.599,87.567 
	198.513,101.102 212.034,98.131 212.333,111.974 226.175,111.613 223.849,125.263 237.509,127.528 232.642,140.49 245.624,145.302 
	238.392,157.108 250.232,164.288 240.896,174.515 251.161,183.804 240.058,192.079 248.38,203.145 235.913,209.167 241.989,221.606 
	228.608,225.162 232.222,238.528 218.409,239.485 219.427,253.294 205.683,251.621 204.067,265.373 190.89,261.127 186.7,274.325 
	174.564,267.663 167.954,279.829 157.296,270.991 148.505,281.687 139.714,270.991 129.056,279.829 122.446,267.663 110.31,274.325 
	106.12,261.127 92.942,265.373 91.327,251.621 77.583,253.294 78.601,239.485 64.788,238.528 68.401,225.162 55.021,221.606 
	61.097,209.167 48.63,203.145 56.952,192.079 45.849,183.804 56.114,174.515 46.778,164.288 58.618,157.108 51.386,145.302 
	64.368,140.49 59.501,127.528 73.161,125.263 70.835,111.613 84.677,111.974 84.976,98.131 98.497,101.102 101.411,87.567 
	114.128,93.045 119.55,80.306 130.999,88.091 138.737,76.608 "/>
<g>
	<path fill="#FFF7DC" d="M87.835,174.973c0.521-0.68,1.068-1.377,1.641-2.091s1.147-1.434,1.726-2.159
		c0.578-0.725,1.153-1.444,1.726-2.158s1.119-1.411,1.641-2.092v6.817h1.683v1.683h-1.683v2.856h-1.751v-2.856H87.835z
		 M92.816,171.2c-0.091,0.113-0.21,0.264-0.357,0.45c-0.147,0.188-0.297,0.383-0.45,0.587s-0.304,0.402-0.45,0.595
		c-0.147,0.193-0.262,0.346-0.341,0.459h1.599V171.2z"/>
	<path fill="#FFF7DC" d="M98.936,172.356c0.34-0.681,0.73-1.352,1.173-2.015c0.441-0.663,0.833-1.335,1.173-2.015h-3.247v-1.717
		h5.984c-0.374,0.68-0.766,1.354-1.174,2.022c-0.407,0.669-0.799,1.344-1.173,2.023c0.681,0.352,1.225,0.827,1.632,1.428
		c0.408,0.601,0.612,1.292,0.612,2.074c0,0.521-0.102,1.015-0.306,1.479c-0.204,0.465-0.482,0.87-0.833,1.216
		c-0.352,0.346-0.763,0.618-1.232,0.816c-0.471,0.198-0.967,0.297-1.487,0.297c-0.545,0-1.061-0.113-1.548-0.34
		s-0.906-0.527-1.258-0.901l1.275-1.189c0.396,0.487,0.912,0.73,1.547,0.73c0.283,0,0.553-0.056,0.808-0.17
		c0.255-0.112,0.476-0.263,0.663-0.45c0.187-0.187,0.337-0.408,0.45-0.663s0.17-0.529,0.17-0.824c0-0.283-0.057-0.553-0.17-0.808
		s-0.264-0.476-0.45-0.663c-0.188-0.187-0.408-0.334-0.663-0.442c-0.255-0.107-0.524-0.161-0.808-0.161
		C99.644,172.084,99.264,172.174,98.936,172.356z"/>
	<path fill="#FFF7DC" d="M113.148,170.622c0,0.612-0.097,1.188-0.289,1.726c-0.193,0.538-0.445,1.043-0.757,1.513
		c-0.312,0.471-0.666,0.91-1.062,1.317c-0.396,0.408-0.802,0.782-1.216,1.122c-0.413,0.34-0.818,0.649-1.215,0.927
		c-0.397,0.278-0.742,0.524-1.037,0.739c-0.193-0.227-0.377-0.45-0.553-0.671c-0.176-0.222-0.354-0.445-0.535-0.672
		c0.271-0.181,0.58-0.388,0.927-0.62c0.345-0.232,0.688-0.465,1.028-0.697s0.646-0.453,0.918-0.663
		c0.271-0.21,0.47-0.383,0.595-0.519c-0.159,0.182-0.363,0.272-0.612,0.272c-0.521,0-1.017-0.097-1.487-0.289
		c-0.471-0.193-0.881-0.459-1.232-0.8c-0.352-0.34-0.629-0.736-0.833-1.189s-0.306-0.946-0.306-1.479
		c0-0.521,0.102-1.014,0.306-1.479s0.481-0.873,0.833-1.224c0.352-0.352,0.759-0.627,1.224-0.825s0.958-0.297,1.479-0.297
		c0.419,0,0.853,0.073,1.301,0.221c0.447,0.147,0.858,0.374,1.232,0.68c0.374,0.307,0.683,0.7,0.926,1.182
		C113.026,169.379,113.148,169.953,113.148,170.622z M111.329,170.622c0-0.283-0.051-0.553-0.153-0.808
		c-0.102-0.255-0.243-0.481-0.425-0.68s-0.394-0.354-0.638-0.468c-0.243-0.113-0.507-0.17-0.79-0.17s-0.55,0.057-0.799,0.17
		c-0.25,0.113-0.471,0.27-0.663,0.468c-0.193,0.198-0.346,0.425-0.459,0.68s-0.17,0.524-0.17,0.808c0,0.295,0.057,0.566,0.17,0.816
		c0.113,0.249,0.266,0.467,0.459,0.654c0.192,0.187,0.413,0.334,0.663,0.441c0.249,0.108,0.516,0.162,0.799,0.162
		s0.547-0.054,0.79-0.162c0.244-0.107,0.456-0.255,0.638-0.441c0.182-0.188,0.323-0.405,0.425-0.654
		C111.278,171.188,111.329,170.917,111.329,170.622z"/>
	<path fill="#FFF7DC" d="M118.248,168.327v-1.717h7.19c-0.771,1.972-1.51,3.867-2.219,5.687c-0.708,1.818-1.419,3.663-2.133,5.533
		h-2.006c0.544-1.45,1.13-2.992,1.759-4.624s1.256-3.258,1.879-4.879H118.248z"/>
	<path fill="#FFF7DC" d="M126.323,172.169c0-0.952,0.124-1.785,0.374-2.499c0.249-0.714,0.586-1.309,1.012-1.785
		c0.425-0.476,0.918-0.83,1.479-1.062c0.561-0.231,1.153-0.349,1.776-0.349c0.68,0,1.304,0.134,1.87,0.4
		c0.566,0.266,1.054,0.648,1.462,1.147c0.408,0.498,0.726,1.104,0.952,1.818s0.334,1.52,0.323,2.414
		c-0.012,0.907-0.137,1.717-0.374,2.432c-0.238,0.714-0.564,1.314-0.978,1.802c-0.414,0.487-0.904,0.858-1.471,1.113
		s-1.179,0.383-1.836,0.383c-0.635,0-1.232-0.128-1.794-0.383c-0.561-0.255-1.048-0.626-1.462-1.113
		c-0.413-0.487-0.739-1.094-0.978-1.819C126.442,173.943,126.323,173.11,126.323,172.169z M128.074,172.219
		c0,0.544,0.07,1.061,0.212,1.547c0.142,0.488,0.341,0.916,0.596,1.284s0.558,0.663,0.909,0.884s0.726,0.331,1.122,0.331
		s0.771-0.107,1.122-0.322c0.351-0.216,0.657-0.508,0.918-0.876s0.468-0.799,0.62-1.292c0.153-0.493,0.229-1.012,0.229-1.556
		c0-0.362-0.042-0.778-0.127-1.249s-0.232-0.912-0.442-1.326c-0.21-0.413-0.499-0.765-0.867-1.054s-0.83-0.434-1.385-0.434
		c-0.59,0-1.071,0.153-1.445,0.459s-0.669,0.671-0.884,1.097c-0.216,0.425-0.366,0.869-0.451,1.334S128.074,171.903,128.074,172.219
		z"/>
	<path fill="#FFF7DC" d="M137.219,168.293v-1.683h2.736v11.22h-1.768v-9.537H137.219z"/>
	<path fill="#FFF7DC" d="M154.236,174.243c0,0.544-0.091,1.046-0.272,1.505s-0.439,0.858-0.773,1.198s-0.733,0.604-1.198,0.79
		c-0.465,0.188-0.975,0.28-1.53,0.28s-1.045-0.104-1.471-0.314c-0.425-0.209-0.717-0.433-0.875-0.671
		c0,0.045,0.003,0.088,0.009,0.127c0.005,0.04,0.008,0.088,0.008,0.145v3.995h-1.632v-10.692h1.564c0,0.158,0.011,0.317,0.033,0.476
		c0.023,0.159,0.034,0.306,0.034,0.442c0.091-0.113,0.207-0.235,0.349-0.366c0.142-0.13,0.314-0.249,0.519-0.356
		s0.434-0.198,0.688-0.272c0.255-0.073,0.535-0.11,0.842-0.11c0.555,0,1.06,0.088,1.513,0.264s0.842,0.431,1.165,0.765
		c0.322,0.335,0.574,0.737,0.756,1.207C154.145,173.124,154.236,173.654,154.236,174.243z M152.467,174.209
		c0-0.635-0.184-1.158-0.552-1.572c-0.369-0.414-0.882-0.621-1.539-0.621c-0.329,0-0.629,0.055-0.901,0.162
		c-0.271,0.107-0.507,0.261-0.705,0.459s-0.354,0.431-0.468,0.697c-0.113,0.266-0.17,0.552-0.17,0.858
		c0,0.317,0.057,0.611,0.17,0.884c0.113,0.271,0.27,0.507,0.468,0.705c0.198,0.199,0.434,0.354,0.705,0.468
		c0.272,0.113,0.572,0.17,0.901,0.17s0.623-0.057,0.884-0.17s0.479-0.271,0.655-0.476c0.175-0.204,0.312-0.439,0.407-0.706
		C152.42,174.801,152.467,174.514,152.467,174.209z"/>
	<path fill="#FFF7DC" d="M162.005,176.997c-0.352,0.317-0.776,0.566-1.275,0.748c-0.498,0.181-1.009,0.271-1.529,0.271
		c-0.533,0-1.034-0.099-1.505-0.297s-0.878-0.471-1.224-0.816s-0.621-0.748-0.825-1.207c-0.203-0.459-0.306-0.949-0.306-1.47
		c0-0.521,0.103-1.012,0.306-1.471c0.204-0.459,0.479-0.861,0.825-1.207s0.748-0.618,1.207-0.816s0.943-0.297,1.453-0.297
		c0.816,0,1.532,0.246,2.15,0.739s1.057,1.142,1.317,1.946c-0.34,0.125-0.733,0.275-1.182,0.45c-0.447,0.176-0.915,0.36-1.402,0.553
		c-0.487,0.193-0.975,0.389-1.462,0.587s-0.935,0.377-1.343,0.535c0.192,0.352,0.459,0.635,0.799,0.85
		c0.34,0.216,0.726,0.323,1.156,0.323c0.295,0,0.592-0.054,0.893-0.161c0.3-0.107,0.547-0.252,0.739-0.434L162.005,176.997z
		 M160.577,172.747c-0.137-0.249-0.34-0.434-0.612-0.553c-0.271-0.119-0.538-0.179-0.799-0.179c-0.306,0-0.595,0.06-0.867,0.179
		c-0.271,0.119-0.504,0.278-0.697,0.477c-0.192,0.198-0.346,0.425-0.459,0.68s-0.17,0.519-0.17,0.79v0.068
		c0.283-0.113,0.587-0.235,0.91-0.365c0.322-0.13,0.646-0.264,0.969-0.399c0.323-0.137,0.632-0.264,0.927-0.383
		C160.072,172.942,160.339,172.838,160.577,172.747z"/>
	<path fill="#FFF7DC" d="M167.903,172.526c-0.317,0-0.62,0.04-0.909,0.119s-0.544,0.201-0.766,0.365
		c-0.221,0.164-0.399,0.368-0.535,0.612c-0.136,0.243-0.204,0.529-0.204,0.858v3.349h-1.632v-7.225h1.428
		c0.022,0.407,0.049,0.739,0.077,0.994s0.054,0.541,0.076,0.858c0.147-0.317,0.346-0.601,0.595-0.85s0.508-0.462,0.773-0.638
		c0.267-0.176,0.53-0.312,0.791-0.408c0.261-0.096,0.481-0.145,0.663-0.145L167.903,172.526z"/>
	<path fill="#FFF7DC" d="M173.479,171.251c-0.068,0.103-0.15,0.219-0.247,0.349c-0.096,0.131-0.189,0.252-0.28,0.365
		s-0.198,0.255-0.323,0.425c-0.113-0.079-0.224-0.142-0.331-0.187s-0.232-0.088-0.374-0.128c-0.142-0.039-0.286-0.06-0.434-0.06
		c-0.159,0-0.326,0.037-0.501,0.111c-0.177,0.073-0.264,0.224-0.264,0.45c0,0.192,0.076,0.354,0.229,0.484
		c0.152,0.131,0.34,0.249,0.561,0.357c0.221,0.107,0.465,0.218,0.731,0.331c0.266,0.113,0.51,0.255,0.73,0.425
		c0.222,0.17,0.408,0.383,0.562,0.638c0.152,0.255,0.229,0.569,0.229,0.943c0,0.329-0.06,0.629-0.179,0.901
		c-0.119,0.271-0.289,0.504-0.51,0.697c-0.222,0.192-0.484,0.346-0.791,0.459c-0.306,0.112-0.651,0.17-1.037,0.17
		c-0.465,0-0.915-0.08-1.352-0.238c-0.436-0.158-0.779-0.385-1.028-0.68c0.079-0.091,0.176-0.204,0.289-0.341
		c0.113-0.136,0.221-0.266,0.323-0.391c0.102-0.124,0.227-0.271,0.374-0.442c0-0.011,0.036,0.009,0.11,0.06
		c0.073,0.052,0.173,0.111,0.298,0.179c0.124,0.068,0.271,0.131,0.441,0.188s0.346,0.085,0.527,0.085
		c0.283,0,0.501-0.062,0.654-0.188c0.153-0.124,0.229-0.277,0.229-0.459c0-0.181-0.076-0.328-0.229-0.441s-0.34-0.219-0.561-0.314
		c-0.222-0.097-0.465-0.201-0.731-0.314s-0.51-0.256-0.73-0.426c-0.222-0.17-0.408-0.388-0.562-0.654
		c-0.153-0.266-0.229-0.604-0.229-1.012c0-0.407,0.073-0.748,0.221-1.02c0.147-0.272,0.338-0.493,0.57-0.663
		c0.231-0.17,0.484-0.292,0.756-0.365c0.272-0.074,0.538-0.11,0.799-0.11c0.352,0,0.717,0.07,1.097,0.212
		S173.218,170.99,173.479,171.251z"/>
	<path fill="#FFF7DC" d="M174.856,174.209c0-0.521,0.1-1.012,0.298-1.471s0.473-0.858,0.824-1.198s0.762-0.609,1.232-0.808
		s0.972-0.297,1.505-0.297c0.544,0,1.048,0.099,1.513,0.297s0.864,0.468,1.198,0.808s0.598,0.739,0.791,1.198
		c0.192,0.459,0.289,0.949,0.289,1.471s-0.094,1.015-0.281,1.479c-0.187,0.465-0.45,0.869-0.79,1.215s-0.742,0.618-1.207,0.816
		s-0.975,0.297-1.53,0.297c-0.532,0-1.031-0.091-1.496-0.271c-0.465-0.182-0.869-0.439-1.215-0.773s-0.621-0.736-0.825-1.207
		C174.959,175.294,174.856,174.776,174.856,174.209z M176.471,174.226c0,0.306,0.057,0.592,0.17,0.858
		c0.113,0.266,0.269,0.498,0.468,0.696c0.198,0.199,0.431,0.354,0.696,0.468c0.267,0.113,0.553,0.17,0.858,0.17
		c0.307,0,0.593-0.057,0.859-0.17c0.266-0.113,0.498-0.269,0.696-0.468c0.198-0.198,0.357-0.431,0.477-0.696
		c0.119-0.267,0.178-0.553,0.178-0.858c0-0.307-0.059-0.593-0.178-0.859c-0.119-0.266-0.278-0.498-0.477-0.696
		s-0.431-0.357-0.696-0.477c-0.267-0.119-0.553-0.179-0.859-0.179c-0.306,0-0.592,0.06-0.858,0.179
		c-0.266,0.119-0.498,0.278-0.696,0.477c-0.199,0.198-0.354,0.431-0.468,0.696C176.528,173.633,176.471,173.92,176.471,174.226z"/>
	<path fill="#FFF7DC" d="M184.053,170.605h1.428c0.022,0.407,0.049,0.739,0.077,0.994s0.054,0.541,0.076,0.858
		c0.261-0.612,0.629-1.104,1.105-1.479c0.476-0.374,1.07-0.562,1.784-0.562c0.737,0,1.323,0.201,1.76,0.604s0.666,0.927,0.688,1.572
		v5.236h-1.615v-4.471c-0.022-0.352-0.147-0.655-0.374-0.91s-0.577-0.394-1.054-0.416c-0.329,0-0.632,0.06-0.909,0.179
		c-0.278,0.119-0.516,0.28-0.714,0.484c-0.199,0.204-0.352,0.447-0.459,0.73c-0.108,0.284-0.162,0.59-0.162,0.918v3.485h-1.632
		V170.605z"/>
	<path fill="#FFF7DC" d="M192.927,170.605h1.428c0.022,0.407,0.049,0.739,0.077,0.994s0.054,0.541,0.076,0.858
		c0.261-0.612,0.629-1.104,1.105-1.479c0.476-0.374,1.07-0.562,1.784-0.562c0.737,0,1.323,0.201,1.76,0.604s0.666,0.927,0.688,1.572
		v5.236h-1.615v-4.471c-0.022-0.352-0.147-0.655-0.374-0.91s-0.577-0.394-1.054-0.416c-0.329,0-0.632,0.06-0.909,0.179
		c-0.278,0.119-0.516,0.28-0.714,0.484c-0.199,0.204-0.352,0.447-0.459,0.73c-0.108,0.284-0.162,0.59-0.162,0.918v3.485h-1.632
		V170.605z"/>
	<path fill="#FFF7DC" d="M208.006,176.997c-0.352,0.317-0.776,0.566-1.275,0.748c-0.498,0.181-1.009,0.271-1.529,0.271
		c-0.533,0-1.034-0.099-1.505-0.297s-0.878-0.471-1.224-0.816s-0.621-0.748-0.825-1.207c-0.203-0.459-0.306-0.949-0.306-1.47
		c0-0.521,0.103-1.012,0.306-1.471c0.204-0.459,0.479-0.861,0.825-1.207s0.748-0.618,1.207-0.816s0.943-0.297,1.453-0.297
		c0.816,0,1.532,0.246,2.15,0.739s1.057,1.142,1.317,1.946c-0.34,0.125-0.733,0.275-1.182,0.45c-0.447,0.176-0.915,0.36-1.402,0.553
		c-0.487,0.193-0.975,0.389-1.462,0.587s-0.935,0.377-1.343,0.535c0.192,0.352,0.459,0.635,0.799,0.85
		c0.34,0.216,0.726,0.323,1.156,0.323c0.295,0,0.592-0.054,0.893-0.161c0.3-0.107,0.547-0.252,0.739-0.434L208.006,176.997z
		 M206.579,172.747c-0.137-0.249-0.34-0.434-0.612-0.553c-0.271-0.119-0.538-0.179-0.799-0.179c-0.306,0-0.595,0.06-0.867,0.179
		c-0.271,0.119-0.504,0.278-0.697,0.477c-0.192,0.198-0.346,0.425-0.459,0.68s-0.17,0.519-0.17,0.79v0.068
		c0.283-0.113,0.587-0.235,0.91-0.365c0.322-0.13,0.646-0.264,0.969-0.399c0.323-0.137,0.632-0.264,0.927-0.383
		C206.074,172.942,206.34,172.838,206.579,172.747z"/>
	<path fill="#FFF7DC" d="M213.973,171.251c-0.068,0.103-0.15,0.219-0.247,0.349c-0.096,0.131-0.189,0.252-0.28,0.365
		s-0.198,0.255-0.323,0.425c-0.113-0.079-0.224-0.142-0.331-0.187s-0.232-0.088-0.374-0.128c-0.142-0.039-0.286-0.06-0.434-0.06
		c-0.159,0-0.326,0.037-0.501,0.111c-0.177,0.073-0.264,0.224-0.264,0.45c0,0.192,0.076,0.354,0.229,0.484
		c0.152,0.131,0.34,0.249,0.561,0.357c0.221,0.107,0.465,0.218,0.731,0.331c0.266,0.113,0.51,0.255,0.73,0.425
		c0.222,0.17,0.408,0.383,0.562,0.638c0.152,0.255,0.229,0.569,0.229,0.943c0,0.329-0.06,0.629-0.179,0.901
		c-0.119,0.271-0.289,0.504-0.51,0.697c-0.222,0.192-0.484,0.346-0.791,0.459c-0.306,0.112-0.651,0.17-1.037,0.17
		c-0.465,0-0.915-0.08-1.352-0.238c-0.436-0.158-0.779-0.385-1.028-0.68c0.079-0.091,0.176-0.204,0.289-0.341
		c0.113-0.136,0.221-0.266,0.323-0.391c0.102-0.124,0.227-0.271,0.374-0.442c0-0.011,0.036,0.009,0.11,0.06
		c0.073,0.052,0.173,0.111,0.298,0.179c0.124,0.068,0.271,0.131,0.441,0.188s0.346,0.085,0.527,0.085
		c0.283,0,0.501-0.062,0.654-0.188c0.153-0.124,0.229-0.277,0.229-0.459c0-0.181-0.076-0.328-0.229-0.441s-0.34-0.219-0.561-0.314
		c-0.222-0.097-0.465-0.201-0.731-0.314s-0.51-0.256-0.73-0.426c-0.222-0.17-0.408-0.388-0.562-0.654
		c-0.153-0.266-0.229-0.604-0.229-1.012c0-0.407,0.073-0.748,0.221-1.02c0.147-0.272,0.338-0.493,0.57-0.663
		c0.231-0.17,0.484-0.292,0.756-0.365c0.272-0.074,0.538-0.11,0.799-0.11c0.352,0,0.717,0.07,1.097,0.212
		S213.713,170.99,213.973,171.251z"/>
	<path fill="#FFF7DC" d="M79.02,198.655c-0.68-1.28-1.325-2.553-1.938-3.816s-1.241-2.541-1.887-3.833h1.768
		c0.431,0.839,0.768,1.513,1.012,2.022c0.243,0.51,0.434,0.924,0.569,1.241s0.235,0.569,0.298,0.757
		c0.062,0.187,0.121,0.382,0.178,0.586c0.068-0.204,0.134-0.399,0.196-0.586c0.062-0.188,0.161-0.439,0.297-0.757
		c0.137-0.317,0.326-0.731,0.569-1.241c0.244-0.51,0.581-1.184,1.012-2.022h1.751c-0.646,1.292-1.28,2.569-1.903,3.833
		C80.318,196.102,79.677,197.375,79.02,198.655z"/>
	<path fill="#FFF7DC" d="M83.713,188.2c0-0.294,0.107-0.538,0.322-0.73c0.216-0.192,0.448-0.289,0.697-0.289
		s0.479,0.097,0.688,0.289s0.314,0.437,0.314,0.73c0,0.307-0.104,0.553-0.314,0.74c-0.21,0.187-0.439,0.28-0.688,0.28
		s-0.481-0.094-0.697-0.28C83.82,188.753,83.713,188.507,83.713,188.2z M85.531,198.23h-1.632v-7.225h1.632V198.23z"/>
	<path fill="#FFF7DC" d="M93.742,197.397c-0.352,0.317-0.776,0.566-1.275,0.748c-0.498,0.181-1.009,0.271-1.529,0.271
		c-0.533,0-1.034-0.099-1.505-0.297s-0.878-0.471-1.224-0.816s-0.621-0.748-0.825-1.207c-0.203-0.459-0.306-0.949-0.306-1.47
		c0-0.521,0.103-1.012,0.306-1.471c0.204-0.459,0.479-0.861,0.825-1.207s0.748-0.618,1.207-0.816s0.943-0.297,1.453-0.297
		c0.816,0,1.532,0.246,2.15,0.739s1.057,1.142,1.317,1.946c-0.34,0.125-0.733,0.275-1.182,0.45c-0.447,0.176-0.915,0.36-1.402,0.553
		c-0.487,0.193-0.975,0.389-1.462,0.587s-0.935,0.377-1.343,0.535c0.192,0.352,0.459,0.635,0.799,0.85
		c0.34,0.216,0.726,0.323,1.156,0.323c0.295,0,0.592-0.054,0.893-0.161c0.3-0.107,0.547-0.252,0.739-0.434L93.742,197.397z
		 M92.314,193.147c-0.137-0.249-0.34-0.434-0.612-0.553c-0.271-0.119-0.538-0.179-0.799-0.179c-0.306,0-0.595,0.06-0.867,0.179
		c-0.271,0.119-0.504,0.278-0.697,0.477c-0.192,0.198-0.346,0.425-0.459,0.68s-0.17,0.519-0.17,0.79v0.068
		c0.283-0.113,0.587-0.235,0.91-0.365c0.322-0.13,0.646-0.264,0.969-0.399c0.323-0.137,0.632-0.264,0.927-0.383
		C91.809,193.342,92.076,193.238,92.314,193.147z"/>
	<path fill="#FFF7DC" d="M95.594,191.006h1.428c0.022,0.407,0.049,0.739,0.077,0.994s0.054,0.541,0.076,0.858
		c0.261-0.612,0.629-1.104,1.105-1.479c0.476-0.374,1.07-0.562,1.784-0.562c0.737,0,1.323,0.201,1.76,0.604s0.666,0.927,0.688,1.572
		v5.236h-1.615v-4.471c-0.022-0.352-0.147-0.655-0.374-0.91s-0.577-0.394-1.054-0.416c-0.329,0-0.632,0.06-0.909,0.179
		c-0.278,0.119-0.516,0.28-0.714,0.484c-0.199,0.204-0.352,0.447-0.459,0.73c-0.108,0.284-0.162,0.59-0.162,0.918v3.485h-1.632
		V191.006z"/>
	<path fill="#FFF7DC" d="M104.468,191.006h1.428c0.022,0.407,0.049,0.739,0.077,0.994s0.054,0.541,0.076,0.858
		c0.261-0.612,0.629-1.104,1.105-1.479c0.476-0.374,1.07-0.562,1.784-0.562c0.737,0,1.323,0.201,1.76,0.604s0.666,0.927,0.688,1.572
		v5.236h-1.615v-4.471c-0.022-0.352-0.147-0.655-0.374-0.91s-0.577-0.394-1.054-0.416c-0.329,0-0.632,0.06-0.909,0.179
		c-0.278,0.119-0.516,0.28-0.714,0.484c-0.199,0.204-0.352,0.447-0.459,0.73c-0.108,0.284-0.162,0.59-0.162,0.918v3.485h-1.632
		V191.006z"/>
	<path fill="#FFF7DC" d="M119.548,197.397c-0.352,0.317-0.776,0.566-1.275,0.748c-0.498,0.181-1.009,0.271-1.529,0.271
		c-0.533,0-1.034-0.099-1.505-0.297s-0.878-0.471-1.224-0.816s-0.621-0.748-0.825-1.207c-0.203-0.459-0.306-0.949-0.306-1.47
		c0-0.521,0.103-1.012,0.306-1.471c0.204-0.459,0.479-0.861,0.825-1.207s0.748-0.618,1.207-0.816s0.943-0.297,1.453-0.297
		c0.816,0,1.532,0.246,2.15,0.739s1.057,1.142,1.317,1.946c-0.34,0.125-0.733,0.275-1.182,0.45c-0.447,0.176-0.915,0.36-1.402,0.553
		c-0.487,0.193-0.975,0.389-1.462,0.587s-0.935,0.377-1.343,0.535c0.192,0.352,0.459,0.635,0.799,0.85
		c0.34,0.216,0.726,0.323,1.156,0.323c0.295,0,0.592-0.054,0.893-0.161c0.3-0.107,0.547-0.252,0.739-0.434L119.548,197.397z
		 M118.12,193.147c-0.137-0.249-0.34-0.434-0.612-0.553c-0.271-0.119-0.538-0.179-0.799-0.179c-0.306,0-0.595,0.06-0.867,0.179
		c-0.271,0.119-0.504,0.278-0.697,0.477c-0.192,0.198-0.346,0.425-0.459,0.68s-0.17,0.519-0.17,0.79v0.068
		c0.283-0.113,0.587-0.235,0.91-0.365c0.322-0.13,0.646-0.264,0.969-0.399c0.323-0.137,0.632-0.264,0.927-0.383
		C117.615,193.342,117.881,193.238,118.12,193.147z"/>
	<path fill="#FFF7DC" d="M121.4,191.006h1.428c0.022,0.407,0.049,0.739,0.077,0.994s0.054,0.541,0.076,0.858
		c0.261-0.612,0.629-1.104,1.105-1.479c0.476-0.374,1.07-0.562,1.784-0.562c0.737,0,1.323,0.201,1.76,0.604
		c0.437,0.402,0.666,0.927,0.688,1.572v5.236h-1.615v-4.471c-0.022-0.352-0.147-0.655-0.374-0.91s-0.577-0.394-1.054-0.416
		c-0.329,0-0.632,0.06-0.909,0.179c-0.278,0.119-0.516,0.28-0.714,0.484c-0.199,0.204-0.352,0.447-0.459,0.73
		c-0.108,0.284-0.162,0.59-0.162,0.918v3.485H121.4V191.006z"/>
	<path fill="#FFF7DC" d="M130.937,187.843h1.615v3.162h1.887v1.462h-1.887v5.763h-1.615v-5.763h-1.224v-1.462h1.224V187.843z"/>
	<path fill="#FFF7DC" d="M138.74,194.694c0-0.521,0.103-1.017,0.306-1.487c0.204-0.471,0.479-0.881,0.825-1.232
		s0.748-0.632,1.207-0.842c0.459-0.209,0.943-0.314,1.453-0.314c0.34,0,0.646,0.043,0.918,0.128
		c0.272,0.085,0.507,0.184,0.706,0.297c0.197,0.113,0.354,0.229,0.467,0.349s0.188,0.213,0.222,0.28l0.067-0.866h1.581v7.225h-1.648
		v-0.476c0-0.057,0.002-0.111,0.008-0.162s0.009-0.088,0.009-0.11c-0.046,0.057-0.125,0.139-0.238,0.246
		c-0.113,0.108-0.267,0.213-0.459,0.315c-0.192,0.102-0.422,0.189-0.688,0.263c-0.267,0.074-0.575,0.11-0.927,0.11
		c-0.555,0-1.065-0.102-1.529-0.306c-0.465-0.204-0.867-0.476-1.207-0.815c-0.34-0.341-0.604-0.734-0.791-1.182
		C138.834,195.666,138.74,195.193,138.74,194.694z M140.389,194.592c0,0.317,0.054,0.611,0.161,0.884
		c0.107,0.271,0.261,0.507,0.459,0.705c0.198,0.199,0.434,0.354,0.705,0.468c0.272,0.113,0.572,0.17,0.901,0.17
		s0.629-0.057,0.901-0.17c0.271-0.113,0.507-0.271,0.705-0.476s0.352-0.442,0.459-0.715c0.107-0.271,0.162-0.561,0.162-0.866
		c0-0.307-0.055-0.593-0.162-0.858c-0.107-0.267-0.261-0.496-0.459-0.688c-0.198-0.193-0.434-0.346-0.705-0.459
		c-0.272-0.113-0.572-0.171-0.901-0.171s-0.629,0.055-0.901,0.162c-0.271,0.107-0.507,0.261-0.705,0.459s-0.352,0.431-0.459,0.697
		C140.443,194,140.389,194.286,140.389,194.592z"/>
	<path fill="#FFF7DC" d="M155.366,198.4h-1.36l-0.204-2.006c-0.261,0.578-0.62,1.057-1.079,1.437s-1.062,0.569-1.811,0.569
		s-1.341-0.195-1.776-0.586c-0.437-0.392-0.666-0.91-0.688-1.556v-5.253h1.632v4.487c0.022,0.352,0.145,0.649,0.365,0.893
		c0.222,0.244,0.575,0.377,1.062,0.399c0.329,0,0.629-0.057,0.901-0.17c0.271-0.113,0.507-0.271,0.705-0.476
		s0.354-0.448,0.468-0.731s0.17-0.589,0.17-0.918v-3.484h1.615V198.4z"/>
	<path fill="#FFF7DC" d="M161.333,201.715c-0.192-0.216-0.383-0.42-0.569-0.612c-0.188-0.193-0.371-0.396-0.553-0.612
		c0.329-0.261,0.584-0.581,0.766-0.96c0.181-0.38,0.271-0.836,0.271-1.369v-7.156h1.632v7.225c0,0.782-0.139,1.462-0.416,2.04
		C162.185,200.848,161.809,201.33,161.333,201.715z M161.112,188.2c0-0.294,0.104-0.538,0.314-0.73
		c0.209-0.192,0.444-0.289,0.705-0.289c0.249,0,0.477,0.097,0.681,0.289s0.306,0.437,0.306,0.73c0,0.307-0.102,0.553-0.306,0.74
		c-0.204,0.187-0.432,0.28-0.681,0.28c-0.261,0-0.496-0.094-0.705-0.28C161.216,188.753,161.112,188.507,161.112,188.2z"/>
	<path fill="#FFF7DC" d="M164.426,194.694c0-0.521,0.103-1.017,0.306-1.487c0.204-0.471,0.479-0.881,0.825-1.232
		s0.748-0.632,1.207-0.842c0.459-0.209,0.943-0.314,1.453-0.314c0.34,0,0.646,0.043,0.918,0.128
		c0.272,0.085,0.507,0.184,0.706,0.297c0.197,0.113,0.354,0.229,0.467,0.349s0.188,0.213,0.222,0.28l0.067-0.866h1.581v7.225h-1.648
		v-0.476c0-0.057,0.002-0.111,0.008-0.162s0.009-0.088,0.009-0.11c-0.046,0.057-0.125,0.139-0.238,0.246
		c-0.113,0.108-0.267,0.213-0.459,0.315c-0.192,0.102-0.422,0.189-0.688,0.263c-0.267,0.074-0.575,0.11-0.927,0.11
		c-0.555,0-1.065-0.102-1.529-0.306c-0.465-0.204-0.867-0.476-1.207-0.815c-0.34-0.341-0.604-0.734-0.791-1.182
		C164.52,195.666,164.426,195.193,164.426,194.694z M166.076,194.592c0,0.317,0.054,0.611,0.161,0.884
		c0.107,0.271,0.261,0.507,0.459,0.705c0.198,0.199,0.434,0.354,0.705,0.468c0.272,0.113,0.572,0.17,0.901,0.17
		s0.629-0.057,0.901-0.17c0.271-0.113,0.507-0.271,0.705-0.476s0.352-0.442,0.459-0.715c0.107-0.271,0.162-0.561,0.162-0.866
		c0-0.307-0.055-0.593-0.162-0.858c-0.107-0.267-0.261-0.496-0.459-0.688c-0.198-0.193-0.434-0.346-0.705-0.459
		c-0.272-0.113-0.572-0.171-0.901-0.171s-0.629,0.055-0.901,0.162c-0.271,0.107-0.507,0.261-0.705,0.459s-0.352,0.431-0.459,0.697
		C166.13,194,166.076,194.286,166.076,194.592z"/>
	<path fill="#FFF7DC" d="M178.23,192.926c-0.317,0-0.62,0.04-0.909,0.119s-0.544,0.201-0.766,0.365
		c-0.221,0.164-0.399,0.368-0.535,0.612c-0.136,0.243-0.204,0.529-0.204,0.858v3.349h-1.632v-7.225h1.428
		c0.022,0.407,0.049,0.739,0.077,0.994s0.054,0.541,0.076,0.858c0.147-0.317,0.346-0.601,0.595-0.85s0.508-0.462,0.773-0.638
		c0.267-0.176,0.53-0.312,0.791-0.408c0.261-0.096,0.481-0.145,0.663-0.145L178.23,192.926z"/>
	<path fill="#FFF7DC" d="M179.114,194.627c0-0.567,0.094-1.083,0.281-1.548c0.187-0.464,0.447-0.863,0.781-1.198
		c0.335-0.334,0.726-0.595,1.174-0.782c0.447-0.187,0.938-0.28,1.47-0.28c0.363,0,0.681,0.04,0.952,0.119
		c0.272,0.079,0.505,0.176,0.697,0.289s0.349,0.235,0.468,0.365c0.119,0.131,0.212,0.241,0.28,0.332v-6.971h1.632v13.277h-1.632
		v-0.476c0-0.057,0.006-0.119,0.017-0.188c0.012-0.068,0.018-0.119,0.018-0.153c-0.103,0.103-0.228,0.213-0.374,0.332
		c-0.147,0.119-0.323,0.229-0.527,0.331c-0.204,0.103-0.434,0.185-0.688,0.247c-0.255,0.062-0.547,0.093-0.875,0.093
		c-0.578,0-1.097-0.099-1.556-0.297s-0.845-0.471-1.156-0.816s-0.55-0.748-0.714-1.207S179.114,195.147,179.114,194.627z
		 M180.747,194.592c0,0.317,0.054,0.611,0.161,0.884c0.107,0.271,0.261,0.507,0.459,0.705c0.198,0.199,0.434,0.354,0.705,0.468
		c0.272,0.113,0.572,0.17,0.901,0.17s0.632-0.057,0.909-0.17c0.278-0.113,0.516-0.271,0.715-0.476
		c0.197-0.204,0.351-0.442,0.459-0.715c0.107-0.271,0.161-0.561,0.161-0.866c0-0.307-0.054-0.593-0.161-0.858
		c-0.108-0.267-0.262-0.496-0.459-0.688c-0.199-0.193-0.437-0.346-0.715-0.459c-0.277-0.113-0.58-0.171-0.909-0.171
		s-0.629,0.055-0.901,0.162c-0.271,0.107-0.507,0.261-0.705,0.459s-0.352,0.431-0.459,0.697
		C180.8,194,180.747,194.286,180.747,194.592z"/>
	<path fill="#FFF7DC" d="M188.669,188.2c0-0.294,0.107-0.538,0.322-0.73c0.216-0.192,0.448-0.289,0.697-0.289
		s0.479,0.097,0.688,0.289s0.314,0.437,0.314,0.73c0,0.307-0.104,0.553-0.314,0.74c-0.21,0.187-0.439,0.28-0.688,0.28
		s-0.481-0.094-0.697-0.28C188.776,188.753,188.669,188.507,188.669,188.2z M190.487,198.23h-1.632v-7.225h1.632V198.23z"/>
	<path fill="#FFF7DC" d="M192.493,191.006h1.428c0.022,0.407,0.049,0.739,0.077,0.994s0.054,0.541,0.076,0.858
		c0.261-0.612,0.629-1.104,1.105-1.479c0.476-0.374,1.07-0.562,1.784-0.562c0.737,0,1.323,0.201,1.76,0.604s0.666,0.927,0.688,1.572
		v5.236h-1.615v-4.471c-0.022-0.352-0.147-0.655-0.374-0.91s-0.577-0.394-1.054-0.416c-0.329,0-0.632,0.06-0.909,0.179
		c-0.278,0.119-0.516,0.28-0.714,0.484c-0.199,0.204-0.352,0.447-0.459,0.73c-0.108,0.284-0.162,0.59-0.162,0.918v3.485h-1.632
		V191.006z"/>
	<path fill="#FFF7DC" d="M204.8,194.627c0-0.567,0.094-1.083,0.281-1.548c0.187-0.464,0.447-0.863,0.781-1.198
		c0.335-0.334,0.726-0.595,1.174-0.782c0.447-0.187,0.938-0.28,1.47-0.28c0.363,0,0.681,0.04,0.952,0.119
		c0.272,0.079,0.505,0.176,0.697,0.289s0.349,0.235,0.468,0.365c0.119,0.131,0.212,0.241,0.28,0.332v-6.971h1.632v13.277h-1.632
		v-0.476c0-0.057,0.006-0.119,0.017-0.188c0.012-0.068,0.018-0.119,0.018-0.153c-0.103,0.103-0.228,0.213-0.374,0.332
		c-0.147,0.119-0.323,0.229-0.527,0.331c-0.204,0.103-0.434,0.185-0.688,0.247c-0.255,0.062-0.547,0.093-0.875,0.093
		c-0.578,0-1.097-0.099-1.556-0.297s-0.845-0.471-1.156-0.816s-0.55-0.748-0.714-1.207S204.8,195.147,204.8,194.627z
		 M206.433,194.592c0,0.317,0.054,0.611,0.161,0.884c0.107,0.271,0.261,0.507,0.459,0.705c0.198,0.199,0.434,0.354,0.705,0.468
		c0.272,0.113,0.572,0.17,0.901,0.17s0.632-0.057,0.909-0.17c0.278-0.113,0.516-0.271,0.715-0.476
		c0.197-0.204,0.351-0.442,0.459-0.715c0.107-0.271,0.161-0.561,0.161-0.866c0-0.307-0.054-0.593-0.161-0.858
		c-0.108-0.267-0.262-0.496-0.459-0.688c-0.199-0.193-0.437-0.346-0.715-0.459c-0.277-0.113-0.58-0.171-0.909-0.171
		s-0.629,0.055-0.901,0.162c-0.271,0.107-0.507,0.261-0.705,0.459s-0.352,0.431-0.459,0.697
		C206.487,194,206.433,194.286,206.433,194.592z"/>
	<path fill="#FFF7DC" d="M220.747,197.397c-0.352,0.317-0.776,0.566-1.275,0.748c-0.498,0.181-1.009,0.271-1.529,0.271
		c-0.533,0-1.034-0.099-1.505-0.297s-0.878-0.471-1.224-0.816s-0.621-0.748-0.825-1.207c-0.203-0.459-0.306-0.949-0.306-1.47
		c0-0.521,0.103-1.012,0.306-1.471c0.204-0.459,0.479-0.861,0.825-1.207s0.748-0.618,1.207-0.816s0.943-0.297,1.453-0.297
		c0.816,0,1.532,0.246,2.15,0.739s1.057,1.142,1.317,1.946c-0.34,0.125-0.733,0.275-1.182,0.45c-0.447,0.176-0.915,0.36-1.402,0.553
		c-0.487,0.193-0.975,0.389-1.462,0.587s-0.935,0.377-1.343,0.535c0.192,0.352,0.459,0.635,0.799,0.85
		c0.34,0.216,0.726,0.323,1.156,0.323c0.295,0,0.592-0.054,0.893-0.161c0.3-0.107,0.547-0.252,0.739-0.434L220.747,197.397z
		 M219.319,193.147c-0.137-0.249-0.34-0.434-0.612-0.553c-0.271-0.119-0.538-0.179-0.799-0.179c-0.306,0-0.595,0.06-0.867,0.179
		c-0.271,0.119-0.504,0.278-0.697,0.477c-0.192,0.198-0.346,0.425-0.459,0.68s-0.17,0.519-0.17,0.79v0.068
		c0.283-0.113,0.587-0.235,0.91-0.365c0.322-0.13,0.646-0.264,0.969-0.399c0.323-0.137,0.632-0.264,0.927-0.383
		C218.814,193.342,219.081,193.238,219.319,193.147z"/>
	<path fill="#FFF7DC" d="M226.714,191.651c-0.068,0.103-0.15,0.219-0.247,0.349c-0.096,0.131-0.189,0.252-0.28,0.365
		s-0.198,0.255-0.323,0.425c-0.113-0.079-0.224-0.142-0.331-0.187s-0.232-0.088-0.374-0.128c-0.142-0.039-0.286-0.06-0.434-0.06
		c-0.159,0-0.326,0.037-0.501,0.111c-0.177,0.073-0.264,0.224-0.264,0.45c0,0.192,0.076,0.354,0.229,0.484
		c0.152,0.131,0.34,0.249,0.561,0.357c0.221,0.107,0.465,0.218,0.731,0.331c0.266,0.113,0.51,0.255,0.73,0.425
		c0.222,0.17,0.408,0.383,0.562,0.638c0.152,0.255,0.229,0.569,0.229,0.943c0,0.329-0.06,0.629-0.179,0.901
		c-0.119,0.271-0.289,0.504-0.51,0.697c-0.222,0.192-0.484,0.346-0.791,0.459c-0.306,0.112-0.651,0.17-1.037,0.17
		c-0.465,0-0.915-0.08-1.352-0.238c-0.436-0.158-0.779-0.385-1.028-0.68c0.079-0.091,0.176-0.204,0.289-0.341
		c0.113-0.136,0.221-0.266,0.323-0.391c0.102-0.124,0.227-0.271,0.374-0.442c0-0.011,0.036,0.009,0.11,0.06
		c0.073,0.052,0.173,0.111,0.298,0.179c0.124,0.068,0.271,0.131,0.441,0.188s0.346,0.085,0.527,0.085
		c0.283,0,0.501-0.062,0.654-0.188c0.153-0.124,0.229-0.277,0.229-0.459c0-0.181-0.076-0.328-0.229-0.441s-0.34-0.219-0.561-0.314
		c-0.222-0.097-0.465-0.201-0.731-0.314s-0.51-0.256-0.73-0.426c-0.222-0.17-0.408-0.388-0.562-0.654
		c-0.153-0.266-0.229-0.604-0.229-1.012c0-0.407,0.073-0.748,0.221-1.02c0.147-0.272,0.338-0.493,0.57-0.663
		c0.231-0.17,0.484-0.292,0.756-0.365c0.272-0.074,0.538-0.11,0.799-0.11c0.352,0,0.717,0.07,1.097,0.212
		S226.453,191.39,226.714,191.651z"/>
	<path fill="#FFF7DC" d="M97.814,215.044c0,0.544-0.091,1.046-0.272,1.505s-0.439,0.858-0.773,1.198s-0.733,0.604-1.198,0.79
		c-0.465,0.188-0.975,0.28-1.53,0.28s-1.045-0.104-1.471-0.314c-0.425-0.209-0.717-0.433-0.875-0.671
		c0,0.045,0.003,0.088,0.009,0.127c0.005,0.04,0.008,0.088,0.008,0.145v3.995h-1.632v-10.692h1.564c0,0.158,0.011,0.317,0.033,0.476
		c0.023,0.159,0.034,0.306,0.034,0.442c0.091-0.113,0.207-0.235,0.349-0.366c0.142-0.13,0.314-0.249,0.519-0.356
		s0.434-0.198,0.688-0.272c0.255-0.073,0.535-0.11,0.842-0.11c0.555,0,1.06,0.088,1.513,0.264s0.842,0.431,1.165,0.765
		c0.322,0.335,0.574,0.737,0.756,1.207C97.723,213.924,97.814,214.455,97.814,215.044z M96.046,215.009
		c0-0.635-0.184-1.158-0.552-1.572c-0.369-0.414-0.882-0.621-1.539-0.621c-0.329,0-0.629,0.055-0.901,0.162
		c-0.271,0.107-0.507,0.261-0.705,0.459s-0.354,0.431-0.468,0.697c-0.113,0.266-0.17,0.552-0.17,0.858
		c0,0.317,0.057,0.611,0.17,0.884c0.113,0.271,0.27,0.507,0.468,0.705c0.198,0.199,0.434,0.354,0.705,0.468
		c0.272,0.113,0.572,0.17,0.901,0.17s0.623-0.057,0.884-0.17s0.479-0.271,0.655-0.476c0.175-0.204,0.312-0.439,0.407-0.706
		C95.998,215.602,96.046,215.315,96.046,215.009z"/>
	<path fill="#FFF7DC" d="M100.993,218.631h-1.615v-13.277h1.615V218.631z"/>
	<path fill="#FFF7DC" d="M102.54,215.094c0-0.521,0.103-1.017,0.306-1.487c0.204-0.471,0.479-0.881,0.825-1.232
		s0.748-0.632,1.207-0.842c0.459-0.209,0.943-0.314,1.453-0.314c0.34,0,0.646,0.043,0.918,0.128
		c0.272,0.085,0.507,0.184,0.706,0.297c0.197,0.113,0.354,0.229,0.467,0.349s0.188,0.213,0.222,0.28l0.067-0.866h1.581v7.225h-1.648
		v-0.476c0-0.057,0.002-0.111,0.008-0.162s0.009-0.088,0.009-0.11c-0.046,0.057-0.125,0.139-0.238,0.246
		c-0.113,0.108-0.267,0.213-0.459,0.315c-0.192,0.102-0.422,0.189-0.688,0.263c-0.267,0.074-0.575,0.11-0.927,0.11
		c-0.555,0-1.065-0.102-1.529-0.306c-0.465-0.204-0.867-0.476-1.207-0.815c-0.34-0.341-0.604-0.734-0.791-1.182
		C102.633,216.066,102.54,215.593,102.54,215.094z M104.189,214.993c0,0.317,0.054,0.611,0.161,0.884
		c0.107,0.271,0.261,0.507,0.459,0.705c0.198,0.199,0.434,0.354,0.705,0.468c0.272,0.113,0.572,0.17,0.901,0.17
		s0.629-0.057,0.901-0.17c0.271-0.113,0.507-0.271,0.705-0.476s0.352-0.442,0.459-0.715c0.107-0.271,0.162-0.561,0.162-0.866
		c0-0.307-0.055-0.593-0.162-0.858c-0.107-0.267-0.261-0.496-0.459-0.688c-0.198-0.193-0.434-0.346-0.705-0.459
		c-0.272-0.113-0.572-0.171-0.901-0.171s-0.629,0.055-0.901,0.162c-0.271,0.107-0.507,0.261-0.705,0.459s-0.352,0.431-0.459,0.697
		C104.243,214.4,104.189,214.686,104.189,214.993z"/>
	<path fill="#FFF7DC" d="M112.298,211.406h1.428c0.022,0.407,0.049,0.739,0.077,0.994s0.054,0.541,0.076,0.858
		c0.261-0.612,0.629-1.104,1.105-1.479c0.476-0.374,1.07-0.562,1.784-0.562c0.737,0,1.323,0.201,1.76,0.604s0.666,0.927,0.688,1.572
		v5.236h-1.615v-4.471c-0.022-0.352-0.147-0.655-0.374-0.91s-0.577-0.394-1.054-0.416c-0.329,0-0.632,0.06-0.909,0.179
		c-0.278,0.119-0.516,0.28-0.714,0.484c-0.199,0.204-0.352,0.447-0.459,0.73c-0.108,0.284-0.162,0.59-0.162,0.918v3.485h-1.632
		V211.406z"/>
	<path fill="#FFF7DC" d="M121.835,208.244h1.615v3.162h1.887v1.462h-1.887v5.763h-1.615v-5.763h-1.224v-1.462h1.224V208.244z"/>
	<path fill="#FFF7DC" d="M132.613,217.798c-0.352,0.317-0.776,0.566-1.275,0.748c-0.498,0.181-1.009,0.271-1.529,0.271
		c-0.533,0-1.034-0.099-1.505-0.297c-0.471-0.198-0.878-0.471-1.224-0.816s-0.621-0.748-0.825-1.207
		c-0.203-0.459-0.306-0.949-0.306-1.47c0-0.521,0.103-1.012,0.306-1.471c0.204-0.459,0.479-0.861,0.825-1.207
		s0.748-0.618,1.207-0.816c0.459-0.198,0.943-0.297,1.453-0.297c0.816,0,1.532,0.246,2.15,0.739s1.057,1.142,1.317,1.946
		c-0.34,0.125-0.733,0.275-1.182,0.45c-0.447,0.176-0.915,0.36-1.402,0.553c-0.487,0.193-0.975,0.389-1.462,0.587
		s-0.935,0.377-1.343,0.535c0.192,0.352,0.459,0.635,0.799,0.85c0.34,0.216,0.726,0.323,1.156,0.323
		c0.295,0,0.592-0.054,0.893-0.161c0.3-0.107,0.547-0.252,0.739-0.434L132.613,217.798z M131.185,213.548
		c-0.137-0.249-0.34-0.434-0.612-0.553c-0.271-0.119-0.538-0.179-0.799-0.179c-0.306,0-0.595,0.06-0.867,0.179
		c-0.271,0.119-0.504,0.278-0.697,0.477c-0.192,0.198-0.346,0.425-0.459,0.68s-0.17,0.519-0.17,0.79v0.068
		c0.283-0.113,0.587-0.235,0.91-0.365c0.322-0.13,0.646-0.264,0.969-0.399c0.323-0.137,0.632-0.264,0.927-0.383
		C130.68,213.743,130.947,213.638,131.185,213.548z"/>
	<path fill="#FFF7DC" d="M138.58,212.051c-0.068,0.103-0.15,0.219-0.247,0.349c-0.096,0.131-0.189,0.252-0.28,0.365
		s-0.198,0.255-0.323,0.425c-0.113-0.079-0.224-0.142-0.331-0.187s-0.232-0.088-0.374-0.128c-0.142-0.039-0.286-0.06-0.434-0.06
		c-0.159,0-0.326,0.037-0.501,0.111c-0.177,0.073-0.264,0.224-0.264,0.45c0,0.192,0.076,0.354,0.229,0.484
		c0.152,0.131,0.34,0.249,0.561,0.357c0.221,0.107,0.465,0.218,0.731,0.331c0.266,0.113,0.51,0.255,0.73,0.425
		c0.222,0.17,0.408,0.383,0.562,0.638c0.152,0.255,0.229,0.569,0.229,0.943c0,0.329-0.06,0.629-0.179,0.901
		c-0.119,0.271-0.289,0.504-0.51,0.697c-0.222,0.192-0.484,0.346-0.791,0.459c-0.306,0.112-0.651,0.17-1.037,0.17
		c-0.465,0-0.915-0.08-1.352-0.238c-0.436-0.158-0.779-0.385-1.028-0.68c0.079-0.091,0.176-0.204,0.289-0.341
		c0.113-0.136,0.221-0.266,0.323-0.391c0.102-0.124,0.227-0.271,0.374-0.442c0-0.011,0.036,0.009,0.11,0.06
		c0.073,0.052,0.173,0.111,0.298,0.179c0.124,0.068,0.271,0.131,0.441,0.188s0.346,0.085,0.527,0.085
		c0.283,0,0.501-0.062,0.654-0.188c0.153-0.124,0.229-0.277,0.229-0.459c0-0.181-0.076-0.328-0.229-0.441s-0.34-0.219-0.561-0.314
		c-0.222-0.097-0.465-0.201-0.731-0.314s-0.51-0.256-0.73-0.426c-0.222-0.17-0.408-0.388-0.562-0.654
		c-0.153-0.266-0.229-0.604-0.229-1.012c0-0.407,0.073-0.748,0.221-1.02c0.147-0.272,0.338-0.493,0.57-0.663
		c0.231-0.17,0.484-0.292,0.756-0.365c0.272-0.074,0.538-0.11,0.799-0.11c0.352,0,0.717,0.07,1.097,0.212
		S138.319,211.791,138.58,212.051z"/>
	<path fill="#FFF7DC" d="M143.833,215.094c0-0.521,0.103-1.017,0.306-1.487c0.204-0.471,0.479-0.881,0.825-1.232
		s0.748-0.632,1.207-0.842c0.459-0.209,0.943-0.314,1.453-0.314c0.34,0,0.646,0.043,0.918,0.128
		c0.272,0.085,0.507,0.184,0.706,0.297c0.197,0.113,0.354,0.229,0.467,0.349s0.188,0.213,0.222,0.28l0.067-0.866h1.581v7.225h-1.648
		v-0.476c0-0.057,0.002-0.111,0.008-0.162s0.009-0.088,0.009-0.11c-0.046,0.057-0.125,0.139-0.238,0.246
		c-0.113,0.108-0.267,0.213-0.459,0.315c-0.192,0.102-0.422,0.189-0.688,0.263c-0.267,0.074-0.575,0.11-0.927,0.11
		c-0.555,0-1.065-0.102-1.529-0.306c-0.465-0.204-0.867-0.476-1.207-0.815c-0.34-0.341-0.604-0.734-0.791-1.182
		C143.926,216.066,143.833,215.593,143.833,215.094z M145.482,214.993c0,0.317,0.054,0.611,0.161,0.884
		c0.107,0.271,0.261,0.507,0.459,0.705c0.198,0.199,0.434,0.354,0.705,0.468c0.272,0.113,0.572,0.17,0.901,0.17
		s0.629-0.057,0.901-0.17c0.271-0.113,0.507-0.271,0.705-0.476s0.352-0.442,0.459-0.715c0.107-0.271,0.162-0.561,0.162-0.866
		c0-0.307-0.055-0.593-0.162-0.858c-0.107-0.267-0.261-0.496-0.459-0.688c-0.198-0.193-0.434-0.346-0.705-0.459
		c-0.272-0.113-0.572-0.171-0.901-0.171s-0.629,0.055-0.901,0.162c-0.271,0.107-0.507,0.261-0.705,0.459s-0.352,0.431-0.459,0.697
		C145.536,214.4,145.482,214.686,145.482,214.993z"/>
	<path fill="#FFF7DC" d="M153.148,215.027c0-0.567,0.094-1.083,0.281-1.548c0.187-0.464,0.447-0.863,0.781-1.198
		c0.335-0.334,0.726-0.595,1.174-0.782c0.447-0.187,0.938-0.28,1.47-0.28c0.363,0,0.681,0.04,0.952,0.119
		c0.272,0.079,0.505,0.176,0.697,0.289s0.349,0.235,0.468,0.365c0.119,0.131,0.212,0.241,0.28,0.332v-6.971h1.632v13.277h-1.632
		v-0.476c0-0.057,0.006-0.119,0.017-0.188c0.012-0.068,0.018-0.119,0.018-0.153c-0.103,0.103-0.228,0.213-0.374,0.332
		c-0.147,0.119-0.323,0.229-0.527,0.331c-0.204,0.103-0.434,0.185-0.688,0.247c-0.255,0.062-0.547,0.093-0.875,0.093
		c-0.578,0-1.097-0.099-1.556-0.297s-0.845-0.471-1.156-0.816s-0.55-0.748-0.714-1.207S153.148,215.548,153.148,215.027z
		 M154.781,214.993c0,0.317,0.054,0.611,0.161,0.884c0.107,0.271,0.261,0.507,0.459,0.705c0.198,0.199,0.434,0.354,0.705,0.468
		c0.272,0.113,0.572,0.17,0.901,0.17s0.632-0.057,0.909-0.17c0.278-0.113,0.516-0.271,0.715-0.476
		c0.197-0.204,0.351-0.442,0.459-0.715c0.107-0.271,0.161-0.561,0.161-0.866c0-0.307-0.054-0.593-0.161-0.858
		c-0.108-0.267-0.262-0.496-0.459-0.688c-0.199-0.193-0.437-0.346-0.715-0.459c-0.277-0.113-0.58-0.171-0.909-0.171
		s-0.629,0.055-0.901,0.162c-0.271,0.107-0.507,0.261-0.705,0.459s-0.352,0.431-0.459,0.697
		C154.835,214.4,154.781,214.686,154.781,214.993z"/>
	<path fill="#FFF7DC" d="M162.889,211.406h1.445c0.011,0.203,0.022,0.385,0.034,0.544c0.011,0.158,0.022,0.309,0.033,0.45
		c0.012,0.142,0.023,0.28,0.034,0.416c0.012,0.137,0.022,0.284,0.034,0.442c0.272-0.612,0.614-1.102,1.028-1.471
		c0.414-0.368,0.983-0.558,1.709-0.569c0.714,0,1.283,0.179,1.708,0.535c0.425,0.357,0.678,0.825,0.757,1.403
		c0.136-0.283,0.289-0.544,0.459-0.782s0.359-0.442,0.569-0.612s0.45-0.303,0.723-0.399c0.271-0.096,0.589-0.145,0.952-0.145
		c0.748,0,1.343,0.201,1.785,0.604c0.441,0.402,0.674,0.927,0.696,1.572v5.236h-1.632v-4.471c-0.022-0.352-0.142-0.655-0.356-0.91
		c-0.216-0.255-0.573-0.394-1.071-0.416c-0.669,0-1.188,0.218-1.556,0.654s-0.553,0.994-0.553,1.675v3.468h-1.632v-4.471
		c-0.022-0.352-0.145-0.655-0.365-0.91s-0.575-0.394-1.062-0.416c-0.669,0-1.188,0.218-1.556,0.654s-0.553,0.989-0.553,1.657v3.485
		h-1.632V211.406z"/>
	<path fill="#FFF7DC" d="M176.626,208.6c0-0.294,0.107-0.538,0.322-0.73c0.216-0.192,0.448-0.289,0.697-0.289
		s0.479,0.097,0.688,0.289s0.314,0.437,0.314,0.73c0,0.307-0.104,0.553-0.314,0.74c-0.21,0.187-0.439,0.28-0.688,0.28
		s-0.481-0.094-0.697-0.28C176.733,209.153,176.626,208.907,176.626,208.6z M178.444,218.631h-1.632v-7.225h1.632V218.631z"/>
	<path fill="#FFF7DC" d="M184.496,213.327c-0.317,0-0.62,0.04-0.909,0.119s-0.544,0.201-0.766,0.365
		c-0.221,0.164-0.399,0.368-0.535,0.612c-0.136,0.243-0.204,0.529-0.204,0.858v3.349h-1.632v-7.225h1.428
		c0.022,0.407,0.049,0.739,0.077,0.994s0.054,0.541,0.076,0.858c0.147-0.317,0.346-0.601,0.595-0.85s0.508-0.462,0.773-0.638
		c0.267-0.176,0.53-0.312,0.791-0.408c0.261-0.096,0.481-0.145,0.663-0.145L184.496,213.327z"/>
	<path fill="#FFF7DC" d="M192.027,217.798c-0.352,0.317-0.776,0.566-1.275,0.748c-0.498,0.181-1.009,0.271-1.529,0.271
		c-0.533,0-1.034-0.099-1.505-0.297s-0.878-0.471-1.224-0.816s-0.621-0.748-0.825-1.207c-0.203-0.459-0.306-0.949-0.306-1.47
		c0-0.521,0.103-1.012,0.306-1.471c0.204-0.459,0.479-0.861,0.825-1.207s0.748-0.618,1.207-0.816s0.943-0.297,1.453-0.297
		c0.816,0,1.532,0.246,2.15,0.739s1.057,1.142,1.317,1.946c-0.34,0.125-0.733,0.275-1.182,0.45c-0.447,0.176-0.915,0.36-1.402,0.553
		c-0.487,0.193-0.975,0.389-1.462,0.587s-0.935,0.377-1.343,0.535c0.192,0.352,0.459,0.635,0.799,0.85
		c0.34,0.216,0.726,0.323,1.156,0.323c0.295,0,0.592-0.054,0.893-0.161c0.3-0.107,0.547-0.252,0.739-0.434L192.027,217.798z
		 M190.599,213.548c-0.137-0.249-0.34-0.434-0.612-0.553c-0.271-0.119-0.538-0.179-0.799-0.179c-0.306,0-0.595,0.06-0.867,0.179
		c-0.271,0.119-0.504,0.278-0.697,0.477c-0.192,0.198-0.346,0.425-0.459,0.68s-0.17,0.519-0.17,0.79v0.068
		c0.283-0.113,0.587-0.235,0.91-0.365c0.322-0.13,0.646-0.264,0.969-0.399c0.323-0.137,0.632-0.264,0.927-0.383
		C190.094,213.743,190.361,213.638,190.599,213.548z"/>
	<path fill="#FFF7DC" d="M197.925,213.327c-0.317,0-0.62,0.04-0.909,0.119s-0.544,0.201-0.766,0.365
		c-0.221,0.164-0.399,0.368-0.535,0.612c-0.136,0.243-0.204,0.529-0.204,0.858v3.349h-1.632v-7.225h1.428
		c0.022,0.407,0.049,0.739,0.077,0.994s0.054,0.541,0.076,0.858c0.147-0.317,0.346-0.601,0.595-0.85s0.508-0.462,0.773-0.638
		c0.267-0.176,0.53-0.312,0.791-0.408c0.261-0.096,0.481-0.145,0.663-0.145L197.925,213.327z"/>
	<path fill="#FFF7DC" d="M204.539,218.631h-1.615v-13.277h1.615V218.631z"/>
	<path fill="#FFF7DC" d="M212.75,217.798c-0.352,0.317-0.776,0.566-1.275,0.748c-0.498,0.181-1.009,0.271-1.529,0.271
		c-0.533,0-1.034-0.099-1.505-0.297s-0.878-0.471-1.224-0.816s-0.621-0.748-0.825-1.207c-0.203-0.459-0.306-0.949-0.306-1.47
		c0-0.521,0.103-1.012,0.306-1.471c0.204-0.459,0.479-0.861,0.825-1.207s0.748-0.618,1.207-0.816s0.943-0.297,1.453-0.297
		c0.816,0,1.532,0.246,2.15,0.739s1.057,1.142,1.317,1.946c-0.34,0.125-0.733,0.275-1.182,0.45c-0.447,0.176-0.915,0.36-1.402,0.553
		c-0.487,0.193-0.975,0.389-1.462,0.587s-0.935,0.377-1.343,0.535c0.192,0.352,0.459,0.635,0.799,0.85
		c0.34,0.216,0.726,0.323,1.156,0.323c0.295,0,0.592-0.054,0.893-0.161c0.3-0.107,0.547-0.252,0.739-0.434L212.75,217.798z
		 M211.322,213.548c-0.137-0.249-0.34-0.434-0.612-0.553c-0.271-0.119-0.538-0.179-0.799-0.179c-0.306,0-0.595,0.06-0.867,0.179
		c-0.271,0.119-0.504,0.278-0.697,0.477c-0.192,0.198-0.346,0.425-0.459,0.68s-0.17,0.519-0.17,0.79v0.068
		c0.283-0.113,0.587-0.235,0.91-0.365c0.322-0.13,0.646-0.264,0.969-0.399c0.323-0.137,0.632-0.264,0.927-0.383
		C210.817,213.743,211.084,213.638,211.322,213.548z"/>
	<path fill="#FFF7DC" d="M96.845,235.443c0,0.544-0.091,1.046-0.272,1.505s-0.439,0.858-0.773,1.198s-0.733,0.604-1.198,0.79
		c-0.465,0.188-0.975,0.28-1.53,0.28s-1.045-0.104-1.471-0.314c-0.425-0.209-0.717-0.433-0.875-0.671
		c0,0.045,0.003,0.088,0.009,0.127c0.005,0.04,0.008,0.088,0.008,0.145v3.995H89.11v-10.692h1.564c0,0.158,0.011,0.317,0.033,0.476
		c0.023,0.159,0.034,0.306,0.034,0.442c0.091-0.113,0.207-0.235,0.349-0.366c0.142-0.13,0.314-0.249,0.519-0.356
		s0.434-0.198,0.688-0.272c0.255-0.073,0.535-0.11,0.842-0.11c0.555,0,1.06,0.088,1.513,0.264s0.842,0.431,1.165,0.765
		c0.322,0.335,0.574,0.737,0.756,1.207C96.755,234.324,96.845,234.854,96.845,235.443z M95.077,235.409
		c0-0.635-0.184-1.158-0.552-1.572c-0.369-0.414-0.882-0.621-1.539-0.621c-0.329,0-0.629,0.055-0.901,0.162
		c-0.271,0.107-0.507,0.261-0.705,0.459s-0.354,0.431-0.468,0.697c-0.113,0.266-0.17,0.552-0.17,0.858
		c0,0.317,0.057,0.611,0.17,0.884c0.113,0.271,0.27,0.507,0.468,0.705c0.198,0.199,0.434,0.354,0.705,0.468
		c0.272,0.113,0.572,0.17,0.901,0.17s0.623-0.057,0.884-0.17s0.479-0.271,0.655-0.476c0.175-0.204,0.312-0.439,0.407-0.706
		C95.029,236.002,95.077,235.715,95.077,235.409z"/>
	<path fill="#FFF7DC" d="M97.95,235.409c0-0.521,0.1-1.012,0.298-1.471s0.473-0.858,0.824-1.198s0.762-0.609,1.232-0.808
		s0.972-0.297,1.505-0.297c0.544,0,1.048,0.099,1.513,0.297s0.864,0.468,1.198,0.808s0.598,0.739,0.791,1.198
		c0.192,0.459,0.289,0.949,0.289,1.471s-0.094,1.015-0.281,1.479c-0.187,0.465-0.45,0.869-0.79,1.215s-0.742,0.618-1.207,0.816
		s-0.975,0.297-1.53,0.297c-0.532,0-1.031-0.091-1.496-0.271c-0.465-0.182-0.869-0.439-1.215-0.773s-0.621-0.736-0.825-1.207
		C98.052,236.494,97.95,235.976,97.95,235.409z M99.565,235.426c0,0.306,0.057,0.592,0.17,0.858
		c0.113,0.266,0.269,0.498,0.468,0.696c0.198,0.199,0.431,0.354,0.696,0.468c0.267,0.113,0.553,0.17,0.858,0.17
		c0.307,0,0.593-0.057,0.859-0.17c0.266-0.113,0.498-0.269,0.696-0.468c0.198-0.198,0.357-0.431,0.477-0.696
		c0.119-0.267,0.178-0.553,0.178-0.858c0-0.307-0.059-0.593-0.178-0.859c-0.119-0.266-0.278-0.498-0.477-0.696
		s-0.431-0.357-0.696-0.477c-0.267-0.119-0.553-0.179-0.859-0.179c-0.306,0-0.592,0.06-0.858,0.179
		c-0.266,0.119-0.498,0.278-0.696,0.477c-0.199,0.198-0.354,0.431-0.468,0.696C99.622,234.834,99.565,235.12,99.565,235.426z"/>
	<path fill="#FFF7DC" d="M114.015,239.2h-1.36l-0.204-2.006c-0.261,0.578-0.62,1.057-1.079,1.437s-1.062,0.569-1.811,0.569
		s-1.341-0.195-1.776-0.586c-0.437-0.392-0.666-0.91-0.688-1.556v-5.253h1.632v4.487c0.022,0.352,0.145,0.649,0.365,0.893
		c0.222,0.244,0.575,0.377,1.062,0.399c0.329,0,0.629-0.057,0.901-0.17c0.271-0.113,0.507-0.271,0.705-0.476
		s0.354-0.448,0.468-0.731s0.17-0.589,0.17-0.918v-3.484h1.615V239.2z"/>
	<path fill="#FFF7DC" d="M120.135,232.451c-0.068,0.103-0.15,0.219-0.247,0.349c-0.096,0.131-0.189,0.252-0.28,0.365
		s-0.198,0.255-0.323,0.425c-0.113-0.079-0.224-0.142-0.331-0.187s-0.232-0.088-0.374-0.128c-0.142-0.039-0.286-0.06-0.434-0.06
		c-0.159,0-0.326,0.037-0.501,0.111c-0.177,0.073-0.264,0.224-0.264,0.45c0,0.192,0.076,0.354,0.229,0.484
		c0.152,0.131,0.34,0.249,0.561,0.357c0.221,0.107,0.465,0.218,0.731,0.331c0.266,0.113,0.51,0.255,0.73,0.425
		c0.222,0.17,0.408,0.383,0.562,0.638c0.152,0.255,0.229,0.569,0.229,0.943c0,0.329-0.06,0.629-0.179,0.901
		c-0.119,0.271-0.289,0.504-0.51,0.697c-0.222,0.192-0.484,0.346-0.791,0.459c-0.306,0.112-0.651,0.17-1.037,0.17
		c-0.465,0-0.915-0.08-1.352-0.238c-0.436-0.158-0.779-0.385-1.028-0.68c0.079-0.091,0.176-0.204,0.289-0.341
		c0.113-0.136,0.221-0.266,0.323-0.391c0.102-0.124,0.227-0.271,0.374-0.442c0-0.011,0.036,0.009,0.11,0.06
		c0.073,0.052,0.173,0.111,0.298,0.179c0.124,0.068,0.271,0.131,0.441,0.188s0.346,0.085,0.527,0.085
		c0.283,0,0.501-0.062,0.654-0.188c0.153-0.124,0.229-0.277,0.229-0.459c0-0.181-0.076-0.328-0.229-0.441s-0.34-0.219-0.561-0.314
		c-0.222-0.097-0.465-0.201-0.731-0.314s-0.51-0.256-0.73-0.426c-0.222-0.17-0.408-0.388-0.562-0.654
		c-0.153-0.266-0.229-0.604-0.229-1.012c0-0.407,0.073-0.748,0.221-1.02c0.147-0.272,0.338-0.493,0.57-0.663
		c0.231-0.17,0.484-0.292,0.756-0.365c0.272-0.074,0.538-0.11,0.799-0.11c0.352,0,0.717,0.07,1.097,0.212
		S119.875,232.19,120.135,232.451z"/>
	<path fill="#FFF7DC" d="M126.086,232.451c-0.068,0.103-0.15,0.219-0.247,0.349c-0.096,0.131-0.189,0.252-0.28,0.365
		s-0.198,0.255-0.323,0.425c-0.113-0.079-0.224-0.142-0.331-0.187s-0.232-0.088-0.374-0.128c-0.142-0.039-0.286-0.06-0.434-0.06
		c-0.159,0-0.326,0.037-0.501,0.111c-0.177,0.073-0.264,0.224-0.264,0.45c0,0.192,0.076,0.354,0.229,0.484
		c0.152,0.131,0.34,0.249,0.561,0.357c0.221,0.107,0.465,0.218,0.731,0.331c0.266,0.113,0.51,0.255,0.73,0.425
		c0.222,0.17,0.408,0.383,0.562,0.638c0.152,0.255,0.229,0.569,0.229,0.943c0,0.329-0.06,0.629-0.179,0.901
		c-0.119,0.271-0.289,0.504-0.51,0.697c-0.222,0.192-0.484,0.346-0.791,0.459c-0.306,0.112-0.651,0.17-1.037,0.17
		c-0.465,0-0.915-0.08-1.352-0.238c-0.436-0.158-0.779-0.385-1.028-0.68c0.079-0.091,0.176-0.204,0.289-0.341
		c0.113-0.136,0.221-0.266,0.323-0.391c0.102-0.124,0.227-0.271,0.374-0.442c0-0.011,0.036,0.009,0.11,0.06
		c0.073,0.052,0.173,0.111,0.298,0.179c0.124,0.068,0.271,0.131,0.441,0.188s0.346,0.085,0.527,0.085
		c0.283,0,0.501-0.062,0.654-0.188c0.153-0.124,0.229-0.277,0.229-0.459c0-0.181-0.076-0.328-0.229-0.441s-0.34-0.219-0.561-0.314
		c-0.222-0.097-0.465-0.201-0.731-0.314s-0.51-0.256-0.73-0.426c-0.222-0.17-0.408-0.388-0.562-0.654
		c-0.153-0.266-0.229-0.604-0.229-1.012c0-0.407,0.073-0.748,0.221-1.02c0.147-0.272,0.338-0.493,0.57-0.663
		c0.231-0.17,0.484-0.292,0.756-0.365c0.272-0.074,0.538-0.11,0.799-0.11c0.352,0,0.717,0.07,1.097,0.212
		S125.825,232.19,126.086,232.451z"/>
	<path fill="#FFF7DC" d="M127.735,229c0-0.294,0.107-0.538,0.322-0.73c0.216-0.192,0.448-0.289,0.697-0.289s0.479,0.097,0.688,0.289
		s0.314,0.437,0.314,0.73c0,0.307-0.104,0.553-0.314,0.74c-0.21,0.187-0.439,0.28-0.688,0.28s-0.481-0.094-0.697-0.28
		C127.842,229.552,127.735,229.306,127.735,229z M129.553,239.03h-1.632v-7.225h1.632V239.03z"/>
	<path fill="#FFF7DC" d="M131.559,231.805h1.428c0.022,0.407,0.049,0.739,0.077,0.994s0.054,0.541,0.076,0.858
		c0.261-0.612,0.629-1.104,1.105-1.479c0.476-0.374,1.07-0.562,1.784-0.562c0.737,0,1.323,0.201,1.76,0.604s0.666,0.927,0.688,1.572
		v5.236h-1.615v-4.471c-0.022-0.352-0.147-0.655-0.374-0.91s-0.577-0.394-1.054-0.416c-0.329,0-0.632,0.06-0.909,0.179
		c-0.278,0.119-0.516,0.28-0.714,0.484c-0.199,0.204-0.352,0.447-0.459,0.73c-0.108,0.284-0.162,0.59-0.162,0.918v3.485h-1.632
		V231.805z"/>
	<path fill="#FFF7DC" d="M143.867,235.426c0-0.567,0.094-1.083,0.281-1.548c0.187-0.464,0.447-0.863,0.781-1.198
		c0.335-0.334,0.726-0.595,1.174-0.782c0.447-0.187,0.938-0.28,1.47-0.28c0.363,0,0.681,0.04,0.952,0.119
		c0.272,0.079,0.505,0.176,0.697,0.289s0.349,0.235,0.468,0.365c0.119,0.131,0.212,0.241,0.28,0.332v-6.971h1.632v13.277h-1.632
		v-0.476c0-0.057,0.006-0.119,0.017-0.188c0.012-0.068,0.018-0.119,0.018-0.153c-0.103,0.103-0.228,0.213-0.374,0.332
		c-0.147,0.119-0.323,0.229-0.527,0.331c-0.204,0.103-0.434,0.185-0.688,0.247c-0.255,0.062-0.547,0.093-0.875,0.093
		c-0.578,0-1.097-0.099-1.556-0.297s-0.845-0.471-1.156-0.816s-0.55-0.748-0.714-1.207S143.867,235.947,143.867,235.426z
		 M145.5,235.392c0,0.317,0.054,0.611,0.161,0.884c0.107,0.271,0.261,0.507,0.459,0.705c0.198,0.199,0.434,0.354,0.705,0.468
		c0.272,0.113,0.572,0.17,0.901,0.17s0.632-0.057,0.909-0.17c0.278-0.113,0.516-0.271,0.715-0.476
		c0.197-0.204,0.351-0.442,0.459-0.715c0.107-0.271,0.161-0.561,0.161-0.866c0-0.307-0.054-0.593-0.161-0.858
		c-0.108-0.267-0.262-0.496-0.459-0.688c-0.199-0.193-0.437-0.346-0.715-0.459c-0.277-0.113-0.58-0.171-0.909-0.171
		s-0.629,0.055-0.901,0.162c-0.271,0.107-0.507,0.261-0.705,0.459s-0.352,0.431-0.459,0.697
		C145.553,234.799,145.5,235.086,145.5,235.392z"/>
	<path fill="#FFF7DC" d="M159.813,238.197c-0.352,0.317-0.776,0.566-1.275,0.748c-0.498,0.181-1.009,0.271-1.529,0.271
		c-0.533,0-1.034-0.099-1.505-0.297s-0.878-0.471-1.224-0.816s-0.621-0.748-0.825-1.207c-0.203-0.459-0.306-0.949-0.306-1.47
		c0-0.521,0.103-1.012,0.306-1.471c0.204-0.459,0.479-0.861,0.825-1.207s0.748-0.618,1.207-0.816s0.943-0.297,1.453-0.297
		c0.816,0,1.532,0.246,2.15,0.739s1.057,1.142,1.317,1.946c-0.34,0.125-0.733,0.275-1.182,0.45c-0.447,0.176-0.915,0.36-1.402,0.553
		c-0.487,0.193-0.975,0.389-1.462,0.587s-0.935,0.377-1.343,0.535c0.192,0.352,0.459,0.635,0.799,0.85
		c0.34,0.216,0.726,0.323,1.156,0.323c0.295,0,0.592-0.054,0.893-0.161c0.3-0.107,0.547-0.252,0.739-0.434L159.813,238.197z
		 M158.385,233.947c-0.137-0.249-0.34-0.434-0.612-0.553c-0.271-0.119-0.538-0.179-0.799-0.179c-0.306,0-0.595,0.06-0.867,0.179
		c-0.271,0.119-0.504,0.278-0.697,0.477c-0.192,0.198-0.346,0.425-0.459,0.68s-0.17,0.519-0.17,0.79v0.068
		c0.283-0.113,0.587-0.235,0.91-0.365c0.322-0.13,0.646-0.264,0.969-0.399c0.323-0.137,0.632-0.264,0.927-0.383
		C157.881,234.142,158.147,234.038,158.385,233.947z"/>
	<path fill="#FFF7DC" d="M175.299,238.112c-0.136,0.091-0.325,0.198-0.569,0.323s-0.533,0.24-0.867,0.349
		c-0.334,0.107-0.711,0.198-1.13,0.271c-0.42,0.073-0.867,0.11-1.344,0.11c-0.975,0-1.847-0.167-2.617-0.501
		c-0.771-0.334-1.423-0.785-1.955-1.352c-0.533-0.566-0.941-1.229-1.225-1.989c-0.283-0.759-0.425-1.558-0.425-2.396
		c0-0.93,0.17-1.788,0.51-2.576c0.34-0.787,0.802-1.468,1.386-2.04s1.264-1.017,2.04-1.334s1.606-0.477,2.49-0.477
		c0.34,0,0.683,0.025,1.029,0.077c0.345,0.051,0.671,0.116,0.977,0.195c0.307,0.079,0.575,0.17,0.808,0.271
		c0.232,0.103,0.399,0.21,0.502,0.323c-0.103,0.159-0.182,0.289-0.238,0.391c-0.057,0.103-0.116,0.207-0.179,0.315
		c-0.062,0.107-0.13,0.229-0.204,0.365c-0.073,0.136-0.178,0.323-0.314,0.561c-0.136-0.09-0.3-0.17-0.492-0.237
		c-0.193-0.068-0.395-0.122-0.604-0.162c-0.21-0.039-0.423-0.07-0.638-0.094c-0.216-0.022-0.408-0.033-0.578-0.033
		c-0.635,0-1.222,0.118-1.76,0.356s-1.003,0.553-1.394,0.943c-0.392,0.392-0.697,0.848-0.918,1.369
		c-0.222,0.521-0.332,1.06-0.332,1.614c0,0.545,0.104,1.074,0.314,1.59s0.505,0.972,0.885,1.368c0.379,0.397,0.83,0.718,1.351,0.961
		c0.521,0.244,1.1,0.365,1.734,0.365c0.362,0,0.714-0.036,1.054-0.11c0.341-0.073,0.641-0.155,0.901-0.246s0.473-0.182,0.638-0.272
		c0.164-0.091,0.252-0.153,0.264-0.187L175.299,238.112z"/>
	<path fill="#FFF7DC" d="M178.037,239.03h-1.615v-13.277h1.615V239.03z"/>
	<path fill="#FFF7DC" d="M179.584,235.494c0-0.521,0.103-1.017,0.306-1.487c0.204-0.471,0.479-0.881,0.825-1.232
		s0.748-0.632,1.207-0.842c0.459-0.209,0.943-0.314,1.453-0.314c0.34,0,0.646,0.043,0.918,0.128
		c0.272,0.085,0.507,0.184,0.706,0.297c0.197,0.113,0.354,0.229,0.467,0.349s0.188,0.213,0.222,0.28l0.067-0.866h1.581v7.225h-1.648
		v-0.476c0-0.057,0.002-0.111,0.008-0.162s0.009-0.088,0.009-0.11c-0.046,0.057-0.125,0.139-0.238,0.246
		c-0.113,0.108-0.267,0.213-0.459,0.315c-0.192,0.102-0.422,0.189-0.688,0.263c-0.267,0.074-0.575,0.11-0.927,0.11
		c-0.555,0-1.065-0.102-1.529-0.306c-0.465-0.204-0.867-0.476-1.207-0.815c-0.34-0.341-0.604-0.734-0.791-1.182
		C179.677,236.465,179.584,235.993,179.584,235.494z M181.233,235.392c0,0.317,0.054,0.611,0.161,0.884
		c0.107,0.271,0.261,0.507,0.459,0.705c0.198,0.199,0.434,0.354,0.705,0.468c0.272,0.113,0.572,0.17,0.901,0.17
		s0.629-0.057,0.901-0.17c0.271-0.113,0.507-0.271,0.705-0.476s0.352-0.442,0.459-0.715c0.107-0.271,0.162-0.561,0.162-0.866
		c0-0.307-0.055-0.593-0.162-0.858c-0.107-0.267-0.261-0.496-0.459-0.688c-0.198-0.193-0.434-0.346-0.705-0.459
		c-0.272-0.113-0.572-0.171-0.901-0.171s-0.629,0.055-0.901,0.162c-0.271,0.107-0.507,0.261-0.705,0.459s-0.352,0.431-0.459,0.697
		C181.287,234.799,181.233,235.086,181.233,235.392z"/>
	<path fill="#FFF7DC" d="M196.21,239.2h-1.36l-0.204-2.006c-0.261,0.578-0.62,1.057-1.079,1.437s-1.062,0.569-1.811,0.569
		s-1.341-0.195-1.776-0.586c-0.437-0.392-0.666-0.91-0.688-1.556v-5.253h1.632v4.487c0.022,0.352,0.145,0.649,0.365,0.893
		c0.222,0.244,0.575,0.377,1.062,0.399c0.329,0,0.629-0.057,0.901-0.17c0.271-0.113,0.507-0.271,0.705-0.476
		s0.354-0.448,0.468-0.731s0.17-0.589,0.17-0.918v-3.484h1.615V239.2z"/>
	<path fill="#FFF7DC" d="M197.773,235.426c0-0.567,0.094-1.083,0.281-1.548c0.187-0.464,0.447-0.863,0.781-1.198
		c0.335-0.334,0.726-0.595,1.174-0.782c0.447-0.187,0.938-0.28,1.47-0.28c0.363,0,0.681,0.04,0.952,0.119
		c0.272,0.079,0.505,0.176,0.697,0.289s0.349,0.235,0.468,0.365c0.119,0.131,0.212,0.241,0.28,0.332v-6.971h1.632v13.277h-1.632
		v-0.476c0-0.057,0.006-0.119,0.017-0.188c0.012-0.068,0.018-0.119,0.018-0.153c-0.103,0.103-0.228,0.213-0.374,0.332
		c-0.147,0.119-0.323,0.229-0.527,0.331c-0.204,0.103-0.434,0.185-0.688,0.247c-0.255,0.062-0.547,0.093-0.875,0.093
		c-0.578,0-1.097-0.099-1.556-0.297s-0.845-0.471-1.156-0.816s-0.55-0.748-0.714-1.207S197.773,235.947,197.773,235.426z
		 M199.406,235.392c0,0.317,0.054,0.611,0.161,0.884c0.107,0.271,0.261,0.507,0.459,0.705c0.198,0.199,0.434,0.354,0.705,0.468
		c0.272,0.113,0.572,0.17,0.901,0.17s0.632-0.057,0.909-0.17c0.278-0.113,0.516-0.271,0.715-0.476
		c0.197-0.204,0.351-0.442,0.459-0.715c0.107-0.271,0.161-0.561,0.161-0.866c0-0.307-0.054-0.593-0.161-0.858
		c-0.108-0.267-0.262-0.496-0.459-0.688c-0.199-0.193-0.437-0.346-0.715-0.459c-0.277-0.113-0.58-0.171-0.909-0.171
		s-0.629,0.055-0.901,0.162c-0.271,0.107-0.507,0.261-0.705,0.459s-0.352,0.431-0.459,0.697
		C199.46,234.799,199.406,235.086,199.406,235.392z"/>
	<path fill="#FFF7DC" d="M213.719,238.197c-0.352,0.317-0.776,0.566-1.275,0.748c-0.498,0.181-1.009,0.271-1.529,0.271
		c-0.533,0-1.034-0.099-1.505-0.297s-0.878-0.471-1.224-0.816s-0.621-0.748-0.825-1.207c-0.203-0.459-0.306-0.949-0.306-1.47
		c0-0.521,0.103-1.012,0.306-1.471c0.204-0.459,0.479-0.861,0.825-1.207s0.748-0.618,1.207-0.816s0.943-0.297,1.453-0.297
		c0.816,0,1.532,0.246,2.15,0.739s1.057,1.142,1.317,1.946c-0.34,0.125-0.733,0.275-1.182,0.45c-0.447,0.176-0.915,0.36-1.402,0.553
		c-0.487,0.193-0.975,0.389-1.462,0.587s-0.935,0.377-1.343,0.535c0.192,0.352,0.459,0.635,0.799,0.85
		c0.34,0.216,0.726,0.323,1.156,0.323c0.295,0,0.592-0.054,0.893-0.161c0.3-0.107,0.547-0.252,0.739-0.434L213.719,238.197z
		 M212.292,233.947c-0.137-0.249-0.34-0.434-0.612-0.553c-0.271-0.119-0.538-0.179-0.799-0.179c-0.306,0-0.595,0.06-0.867,0.179
		c-0.271,0.119-0.504,0.278-0.697,0.477c-0.192,0.198-0.346,0.425-0.459,0.68s-0.17,0.519-0.17,0.79v0.068
		c0.283-0.113,0.587-0.235,0.91-0.365c0.322-0.13,0.646-0.264,0.969-0.399c0.323-0.137,0.632-0.264,0.927-0.383
		C211.787,234.142,212.053,234.038,212.292,233.947z"/>
	<path fill="#FFF7DC" d="M133.003,259.43v-12.393h3.502c0.681,0,1.301,0.091,1.861,0.271c0.562,0.182,1.037,0.442,1.429,0.782
		c0.391,0.34,0.694,0.76,0.909,1.258c0.215,0.499,0.323,1.06,0.323,1.683c0,0.499-0.074,0.995-0.221,1.488
		c-0.147,0.492-0.389,0.935-0.723,1.325c-0.335,0.392-0.769,0.709-1.301,0.952c-0.533,0.244-1.19,0.366-1.972,0.366h-1.734v4.267
		H133.003z M135.077,253.209h1.666c0.431,0,0.788-0.074,1.071-0.222c0.283-0.146,0.51-0.331,0.68-0.552
		c0.17-0.222,0.289-0.453,0.357-0.697c0.067-0.244,0.102-0.462,0.102-0.654c0-0.182-0.031-0.394-0.094-0.638
		s-0.176-0.474-0.34-0.688s-0.388-0.396-0.671-0.544c-0.284-0.147-0.646-0.222-1.089-0.222h-1.683V253.209z"/>
	<path fill="#FFF7DC" d="M141.18,255.809c0-0.521,0.1-1.012,0.298-1.471s0.473-0.858,0.824-1.198s0.762-0.609,1.232-0.808
		s0.972-0.297,1.505-0.297c0.544,0,1.048,0.099,1.513,0.297s0.864,0.468,1.198,0.808s0.598,0.739,0.791,1.198
		c0.192,0.459,0.289,0.949,0.289,1.471c0,0.521-0.094,1.015-0.281,1.479c-0.187,0.465-0.45,0.869-0.79,1.215
		s-0.742,0.618-1.207,0.816s-0.975,0.297-1.53,0.297c-0.532,0-1.031-0.091-1.496-0.271c-0.465-0.182-0.869-0.439-1.215-0.773
		s-0.621-0.736-0.825-1.207C141.283,256.894,141.18,256.377,141.18,255.809z M142.796,255.827c0,0.306,0.057,0.592,0.17,0.858
		c0.113,0.266,0.269,0.498,0.468,0.696c0.198,0.199,0.431,0.354,0.696,0.468c0.267,0.113,0.553,0.17,0.858,0.17
		c0.307,0,0.593-0.057,0.859-0.17c0.266-0.113,0.498-0.269,0.696-0.468c0.198-0.198,0.357-0.431,0.477-0.696
		c0.119-0.267,0.178-0.553,0.178-0.858c0-0.307-0.059-0.593-0.178-0.859c-0.119-0.266-0.278-0.498-0.477-0.696
		s-0.431-0.357-0.696-0.477c-0.267-0.119-0.553-0.179-0.859-0.179c-0.306,0-0.592,0.06-0.858,0.179
		c-0.266,0.119-0.498,0.278-0.696,0.477c-0.199,0.198-0.354,0.431-0.468,0.696C142.852,255.234,142.796,255.52,142.796,255.827z"/>
	<path fill="#FFF7DC" d="M150.378,252.206h1.428c0.022,0.407,0.049,0.739,0.077,0.994s0.054,0.541,0.076,0.858
		c0.261-0.612,0.629-1.104,1.105-1.479c0.476-0.374,1.07-0.562,1.784-0.562c0.737,0,1.323,0.201,1.76,0.604s0.666,0.927,0.688,1.572
		v5.236h-1.615v-4.471c-0.022-0.352-0.147-0.655-0.374-0.91s-0.577-0.394-1.054-0.416c-0.329,0-0.632,0.06-0.909,0.179
		c-0.278,0.119-0.516,0.28-0.714,0.484c-0.199,0.204-0.352,0.447-0.459,0.73c-0.108,0.284-0.162,0.59-0.162,0.918v3.485h-1.632
		V252.206z"/>
	<path fill="#FFF7DC" d="M159.915,249.044h1.615v3.162h1.887v1.462h-1.887v5.763h-1.615v-5.763h-1.224v-1.462h1.224V249.044z"/>
	<path fill="#FFF7DC" d="M164.437,249.4c0-0.294,0.107-0.538,0.322-0.73c0.216-0.192,0.448-0.289,0.697-0.289
		s0.479,0.097,0.688,0.289s0.314,0.437,0.314,0.73c0,0.307-0.104,0.553-0.314,0.74c-0.21,0.187-0.439,0.28-0.688,0.28
		s-0.481-0.094-0.697-0.28C164.545,249.953,164.437,249.707,164.437,249.4z M166.256,259.43h-1.632v-7.225h1.632V259.43z"/>
	<path fill="#FFF7DC" d="M168.142,258.377c0-0.295,0.11-0.544,0.332-0.748c0.221-0.204,0.461-0.307,0.723-0.307
		c0.237,0,0.467,0.103,0.688,0.307c0.221,0.204,0.331,0.453,0.331,0.748c0,0.328-0.11,0.586-0.331,0.773
		c-0.222,0.187-0.451,0.28-0.688,0.28c-0.262,0-0.502-0.094-0.723-0.28C168.253,258.963,168.142,258.705,168.142,258.377z"/>
</g>
<g>
	<path fill="#E58C4A" d="M136.685,158.667c0.502,0,0.88,0.388,0.932,0.439c0.111,0.105,0.258-0.439,0.412-0.439h21.221
		c0.102,0,0.204,0.574,0.294,0.526c0.544-0.304,1.034-0.526,1.472-0.526H136.685z"/>
	<path fill="#E58C4A" d="M158.754,123.882l-9.298-9.787c-0.135-0.141-0.328-0.207-0.514-0.177c-0.048,0.003-0.096-0.152-0.141-0.134
		c-0.033,0.012-0.063-0.116-0.093-0.116h0.234c0.066,0,0.132,0.179,0.195,0.185c0.117,0.003,0.228,0.118,0.316,0.208l9.301,9.803
		c0.024,0.027,0.045,0.065,0.063,0.095c0.012,0.018,0.024,0.047,0.033,0.065C158.829,123.967,158.796,123.927,158.754,123.882z
		 M158.57,124.813l-9.267,5.595c-0.057,0.036-0.111,0.072-0.177,0.096c-0.003,0-0.003,0.003-0.006,0.003
		c-0.006,0.003-0.006,0.003-0.003,0.006l0.003,0.003c0,0,0-0.003,0.003-0.006c0.003,0,0.009-0.003,0.012-0.003
		c0.069-0.018,0.138-0.045,0.198-0.081l9.237-5.604c0.057-0.033,0.102-0.075,0.129-0.126
		C158.666,124.741,158.624,124.78,158.57,124.813z M149.12,130.523v-0.006c0,0-0.003,0-0.006,0.003
		C149.105,130.523,149.12,130.523,149.12,130.523z M148.945,130.559h0.093c-0.006,0-0.012-0.015-0.018-0.015
		C148.996,130.544,148.969,130.559,148.945,130.559z M148.843,130.526c0.03,0.018,0.063,0.033,0.093,0.033
		c-0.027,0-0.051-0.03-0.075-0.03C148.855,130.529,148.849,130.529,148.843,130.526z"/>
	<path fill="#E58C4A" d="M170.197,136.211c2.377-2.1,3.857-4.823,3.857-7.458c0-5.616-4.525-10.184-10.141-10.184
		c-0.43,0-0.835,0.027-1.256,0.081c0.544-1.533,0.831-3.143,0.831-4.805c0-7.894-6.419-14.316-14.32-14.316
		c-7.903,0-14.331,6.422-14.331,14.316c0,1.692,0.269,3.306,0.798,4.808c-0.445-0.054-0.904-0.084-1.349-0.084
		c-5.688,0-10.319,4.568-10.319,10.184c0,2.957,1.591,5.526,3.458,7.353c-4.742,1.668-7.499,6.034-7.499,10.755v1.968
		c0,6.247,5.045,9.837,11.365,9.837h6.737c-0.153,0-0.301,1.215-0.412,1.109c-0.051-0.051-0.43,0.224-0.932-0.404
		c-1.358-1.686-3.612-4.974-2.855-9.581c0.033-0.192,0.156-0.199,0.334-0.286c0.174-0.084,0.382,0.001,0.553,0.098
		c0.105,0.057,1.968,1.158,3.726,3.682c-0.171-2.224-0.024-5.014,1.349-6.976c0.165-0.234,0.472-0.312,0.733-0.197
		c0.46,0.198,1.821,1.318,1.917,7.415c0.835-1.331,2.134-2.894,4-3.826c0.192-0.096,0.424-0.08,0.601,0.04
		c0.18,0.12,0.282-0.343,0.264-0.126c-0.021,0.298-0.52,6.051-3.729,9.051h10.545c-1.358,0-3.612-4.621-2.855-9.228
		c0.033-0.192,0.156-0.022,0.334-0.109c0.174-0.084,0.382,0.09,0.553,0.186c0.105,0.057,1.968,1.202,3.726,3.726
		c-0.171-2.224-0.024-4.991,1.349-6.954c0.165-0.234,0.472-0.301,0.733-0.186c0.46,0.198,1.821,1.324,1.917,7.421
		c0.835-1.331,2.134-2.892,3.997-3.823c0.195-0.096,0.424-0.079,0.604,0.042c0.18,0.12,0.282,0.329,0.264,0.545
		c-0.021,0.298-0.523,6.51-3.729,9.722c-0.439,0.439-0.929-0.448-1.472-0.145c-0.09,0.048-0.192-1.196-0.294-1.196h7.479
		c6.148,0,11.197-3.241,11.197-9.837v-1.968C177.926,142.916,175.39,138.162,170.197,136.211z M158.405,111.36
		c-1.154,1.283-2.458,1.74-3.696,1.74c-1.746,0-3.363-0.908-4.261-1.689l0.787-0.908c0.144,0.123,3.591,3.038,6.277,0.051
		L158.405,111.36z M147.157,111.36c-1.157,1.283-2.458,1.74-3.699,1.74c-1.746,0-3.363-0.908-4.261-1.689l0.787-0.908
		c0.144,0.123,3.591,3.038,6.277,0.051L147.157,111.36z M158.832,124.492c-0.006,0.003,0.589,0.009,0.586,0.015
		c-0.009,0.021,0.508,0.042,0.508,0.063v0.003c0,0.024-0.598,0.051-0.607,0.072c-0.006,0.018-0.313,0.036-0.322,0.051
		c-0.027,0.051-0.221,0.093-0.278,0.126l-9.312,5.604c-0.06,0.036-0.166,0.063-0.236,0.081c-0.003,0-0.124,0.003-0.127,0.003
		c-0.003,0.003-0.118,0.006-0.118,0.006v0.006v-0.856h0.01c-0.03,0-0.063,0.431-0.093,0.413c-0.021,0-0.042,0.22-0.063,0.214
		c-0.081-0.012-0.159,0.063-0.231,0.021l-9.361-5.549c-0.051-0.033-0.042-0.047-0.072-0.092c-0.003-0.006-0.009,0.002-0.015-0.004
		c-0.003-0.003,0.006,0.001,0.006,0.001c-0.03-0.033-0.181-0.062-0.181-0.098v-0.003c0-0.021,0.027-0.042,0.021-0.063
		c-0.015-0.039-0.003-0.084-0.006-0.129c-0.024-0.18,0.048-0.364,0.174-0.496l9.302-9.787c0.054-0.054,0.11-0.054,0.177-0.069
		c0.009-0.003,0.018-0.173,0.027-0.173c0.027-0.015,0.054-0.185,0.084-0.185c0,0,0,0,0.003,0c0.03,0,0.06,0.128,0.093,0.116
		c0.045-0.018,0.093,0.046,0.141,0.043c0.186-0.03,0.379,0.082,0.514,0.223l9.298,9.81c0.042,0.045,0.075,0.108,0.096,0.165
		c0.06,0.105,0.081,0.228,0.066,0.351C158.91,124.411,158.856,124.453,158.832,124.492z"/>
	<g>
		<path fill="#E58C4A" d="M149.462,114.506c-0.003-0.225-0.129-0.379-0.325-0.472c-0.018-0.012-0.036-0.2-0.057-0.209
			c-0.045-0.018-0.09-0.158-0.138-0.158h-0.234c-0.003,0-0.003,0-0.003,0c-0.03,0-0.057,0.17-0.084,0.185
			c-0.009,0-0.018,0.088-0.027,0.091c-0.06,0.027-0.117,0.085-0.168,0.136l-9.298,9.798c-0.126,0.132-0.186,0.315-0.162,0.495
			c0.018,0.108,0.06,0.213,0.129,0.297c0,0,0.003,0.009,0.006,0.012c0.006,0.006,0.012,0.013,0.015,0.019
			c0.039,0.045,0.084,0.082,0.135,0.115l9.298,5.593c0.072,0.042,0.15,0.09,0.231,0.108c0.021,0.006,0.042,0.009,0.063,0.009
			c0.006,0.003,0.012-0.443,0.018-0.443c0.024,0,0.048-0.416,0.075-0.416h-0.01v0.856v-0.006c0,0,0.097-0.003,0.1-0.006l0.051-0.006
			c0.012-0.015,0.063-0.036,0.09-0.051c0.186-0.105,0.295-0.319,0.304-0.535l0.06-4.087L149.462,114.506z M148.275,128.84
			l-7.762-4.673l7.756-8.162l0.057,9.811L148.275,128.84z"/>
		<path fill="#E58C4A" d="M158.85,124.035c-0.021-0.057-0.054-0.108-0.096-0.153l-9.298-9.787c-0.135-0.141-0.328-0.207-0.514-0.177
			c-0.048,0.003-0.096-0.152-0.141-0.134c-0.033,0.012-0.063-0.116-0.093-0.116c-0.003,0-0.003,0-0.003,0
			c-0.174,0-0.282,0.462-0.285,0.672l-0.066,11.417l0.066,4.102c0.006,0.216,0.123,0.471,0.31,0.576
			c0.036,0.021,0.075-0.387,0.114-0.366c0.03,0.018,0.063-0.402,0.093-0.402h0.009c0.024,0,0.051,0.416,0.075,0.416
			c0.006,0,0.012,0.223,0.018,0.22c0.027,0,0.054,0.106,0.078,0.1c0.003-0.003,0.006,0.053,0.006,0.053
			c0.003,0,0.009,0.025,0.012,0.025c0.069-0.018,0.138-0.031,0.198-0.067l9.237-5.597c0.057-0.033,0.102-0.072,0.129-0.123
			c0.009-0.015,0.613-0.031,0.619-0.049c0.009-0.021,0.607-0.046,0.607-0.07v-0.003c0-0.021-0.517-0.042-0.508-0.063
			c0.003-0.006-0.295-0.012-0.289-0.015c0.015-0.039-0.101-0.075-0.095-0.111C159.05,124.263,158.895,124.14,158.85,124.035z
			 M149.606,128.84l-0.051-3.008l0.057-9.826l7.756,8.162L149.606,128.84z"/>
	</g>
	<path fill="none" d="M142.926,158.667h-5 M147.043,149.743c-0.177-0.12-0.409-0.135-0.601-0.039c-1.866,0.932-3.164,2.497-4,3.828
		c-0.096-6.097-1.457-7.212-1.917-7.41c-0.261-0.114-0.568-0.027-0.733,0.207c-1.373,1.962-1.521,4.772-1.349,6.996
		c-1.758-2.524-3.621-3.585-3.726-3.642c-0.171-0.096-0.379-0.102-0.553-0.018c-0.177,0.087-0.301,0.252-0.334,0.445
		c-0.757,4.607,1.496,8.213,2.855,9.899c0.502,0.628,0.88-0.283,0.932-0.232c0.111,0.105,0.258-1.109,0.412-1.109h3.783
		c0.102,0,0.204,1.245,0.294,1.197c0.544-0.304,1.034-0.052,1.472-0.491c3.209-3.215,3.708-9.106,3.729-9.403
		C147.326,149.753,147.223,149.863,147.043,149.743z"/>
	<path fill="#E58C4A" d="M154.123,158.667c0.499,0,0.877,0.388,0.932,0.439c0.111,0.105,0.258-0.439,0.412-0.439h3.783
		c0.102,0,0.204,0.574,0.294,0.526c0.544-0.304,1.034-0.526,1.472-0.526H154.123z"/>
</g>
<polygon fill="#1D2B40" points="508.058,109.42 517.827,99.608 525.563,111.091 537.013,103.306 542.435,116.045 555.151,110.567 
	558.065,124.102 571.587,121.131 571.886,134.974 585.728,134.613 583.401,148.263 597.061,150.528 592.194,163.49 605.177,168.302 
	597.944,180.108 609.784,187.288 600.448,197.515 610.714,206.804 599.61,215.079 607.932,226.145 595.466,232.167 601.542,244.606 
	588.161,248.162 591.774,261.528 577.962,262.485 578.979,276.294 565.235,274.621 563.62,288.373 550.442,284.127 546.253,297.325 
	534.116,290.663 527.507,302.829 516.849,293.991 508.058,304.687 499.267,293.991 488.608,302.829 481.999,290.663 
	469.862,297.325 465.673,284.127 452.495,288.373 450.88,274.621 437.136,276.294 438.153,262.485 424.341,261.528 427.954,248.162 
	414.573,244.606 420.649,232.167 408.183,226.145 416.505,215.079 405.401,206.804 415.667,197.515 406.331,187.288 
	418.171,180.108 410.938,168.302 423.921,163.49 419.054,150.528 432.714,148.263 430.388,134.613 444.229,134.974 444.528,121.131 
	458.05,124.102 460.964,110.567 473.681,116.045 479.103,103.306 490.552,111.091 498.29,99.608 "/>
<rect x="434.045" y="223.741" fill="none" width="144" height="38"/>
<text transform="matrix(1 0 0 1 459.8747 237.0163)"><tspan x="0" y="0" fill="#FFF7DC" font-family="'JosefinSans-Bold'" font-size="17">2,5 tonnes de </tspan><tspan x="-14.654" y="20.4" fill="#FFF7DC" font-family="'JosefinSans-Bold'" font-size="17">saucisses vendues</tspan></text>
<g>
	<path fill="#E58C4A" d="M459.281,167.279c0,0,0-8.663,17.325-8.663c7.156,0,13.755-2.9,18.816-7.911
		c7.002-6.934,4.042-24.774,15.834-26.739c10.395-1.733,13.86,10.395,12.128,22.523s-8.663,20.79-15.593,25.988
		s-22.523,12.128-39.848,8.663C467.943,181.139,457.548,179.407,459.281,167.279z"/>
	<path fill="#1B0A09" d="M489.997,156.851c0,0,6.646,7.477,17.999,7.2C507.996,164.05,504.119,157.681,489.997,156.851z"/>
	<path fill="#1B0A09" d="M503.503,149.07c0,0,7.493-3.726,15.242,1.311C518.744,150.381,514.172,154.022,503.503,149.07z"/>
	<path fill="#1B0A09" d="M505.043,139.06c0,0,7.493-3.726,15.242,1.311C520.284,140.371,515.712,144.012,505.043,139.06z"/>
	<path fill="#1B0A09" d="M473.705,162.912c0,0,11.054-0.939,18.148,9.049C491.853,171.961,484.441,174.219,473.705,162.912z"/>
	<path fill="#E58C4A" d="M491.621,195.192c0,0,0-8.663,17.325-8.663c7.156,0,13.755-2.9,18.816-7.911
		c7.002-6.934,4.042-24.774,15.834-26.739c10.395-1.733,13.86,10.395,12.128,22.523c-1.733,12.128-8.663,20.79-15.593,25.988
		c-6.93,5.198-22.523,12.128-39.848,8.663C500.283,209.052,489.888,207.32,491.621,195.192z"/>
	<path fill="#1B0A09" d="M522.337,184.763c0,0,6.646,7.477,17.999,7.2C540.336,191.963,536.46,185.594,522.337,184.763z"/>
	<path fill="#1B0A09" d="M535.843,176.983c0,0,7.493-3.726,15.242,1.311C551.085,178.294,546.512,181.935,535.843,176.983z"/>
	<path fill="#1B0A09" d="M537.383,166.973c0,0,7.493-3.726,15.242,1.311C552.625,168.284,548.052,171.925,537.383,166.973z"/>
	<path fill="#1B0A09" d="M506.045,190.824c0,0,11.054-0.939,18.148,9.049C524.193,199.873,516.782,202.132,506.045,190.824z"/>
</g>
<polygon fill="#1D2B40" points="894.057,98.42 903.827,88.608 911.563,100.091 923.013,92.306 928.435,105.045 941.151,99.567 
	944.065,113.102 957.587,110.131 957.886,123.974 971.728,123.613 969.401,137.263 983.061,139.528 978.194,152.49 991.177,157.302 
	983.944,169.108 995.784,176.288 986.448,186.515 996.714,195.804 985.61,204.079 993.932,215.145 981.466,221.167 987.542,233.606 
	974.161,237.162 977.774,250.528 963.962,251.485 964.979,265.294 951.235,263.621 949.62,277.373 936.442,273.127 932.253,286.325 
	920.116,279.663 913.507,291.829 902.849,282.991 894.057,293.687 885.267,282.991 874.608,291.829 867.999,279.663 
	855.862,286.325 851.673,273.127 838.495,277.373 836.88,263.621 823.136,265.294 824.153,251.485 810.341,250.528 813.954,237.162 
	800.573,233.606 806.649,221.167 794.182,215.145 802.505,204.079 791.401,195.804 801.667,186.515 792.331,176.288 
	804.171,169.108 796.938,157.302 809.921,152.49 805.054,139.528 818.714,137.263 816.388,123.613 830.229,123.974 830.528,110.131 
	844.05,113.102 846.964,99.567 859.681,105.045 865.103,92.306 876.552,100.091 884.29,88.608 "/>
<rect x="821.73" y="189.554" fill="none" width="144" height="68.999"/>
<text transform="matrix(1 0 0 1 832.7604 202.8298)"><tspan x="0" y="0" fill="#FFF7DC" font-family="'JosefinSans-Bold'" font-size="17">2000 canards en </tspan><tspan x="4.981" y="20.4" fill="#FFF7DC" font-family="'JosefinSans-Bold'" font-size="17">plastique jaunes </tspan><tspan x="-5.856" y="40.801" fill="#FFF7DC" font-family="'JosefinSans-Bold'" font-size="17">lchs dans lErdre.</tspan></text>
<g>
	<path fill="#E58C4A" d="M909.099,141.341c0.498,0.4,0.832,0.688,1.187,0.95c6.02,4.437,8.35,12.101,5.674,19.018
		c-1.797,4.646-5.435,7.275-10.096,8.531c-4.447,1.198-9.027,1.054-13.571,0.887c-2.52-0.092-5.059-0.391-7.533-0.877
		c-6.236-1.227-10.311-5.049-12.543-10.928c-1.214-3.197-2.215-6.457-2.628-9.859c-0.147-1.213-0.169-2.482,0.012-3.687
		c0.417-2.764,2.436-4.3,5.201-3.902c1.851,0.266,3.708,0.687,5.477,1.29c3.036,1.036,6.01,0.776,9.012-0.003
		c0.211-0.055,0.404-0.181,0.732-0.332c-0.27-0.39-0.471-0.746-0.733-1.049c-6.276-7.244-2.787-18.064,6.535-20.255
		c5.197-1.222,10.944,1.481,13.484,6.342c0.966,1.849,1.46,2.118,3.549,1.961c0.646-0.049,1.303-0.16,1.94-0.095
		c2.533,0.258,3.744,2.002,2.952,4.444c-0.329,1.016-0.96,1.991-1.651,2.82c-1.505,1.803-3.545,2.923-5.602,3.988
		C910.096,140.792,909.704,141.013,909.099,141.341z"/>
	<path fill="none" stroke="#1D2B40" stroke-miterlimit="10" d="M895.836,132.377c0,0,5.623,1.757,7.028-1.757"/>
</g>
</svg>
