<?xml version="1.0" encoding="utf-8"?>
<!-- Generator: Adobe Illustrator 16.0.0, SVG Export Plug-In . SVG Version: 6.00 Build 0)  -->
<!DOCTYPE svg PUBLIC "-//W3C//DTD SVG 1.1//EN" "http://www.w3.org/Graphics/SVG/1.1/DTD/svg11.dtd">
<svg version="1.1" id="Calque_1" xmlns="http://www.w3.org/2000/svg" xmlns:xlink="http://www.w3.org/1999/xlink" x="0px" y="0px"
	 width="319.5px" height="201px" viewBox="0 0 319.5 201" enable-background="new 0 0 319.5 201" xml:space="preserve">
<g>
	<polygon fill="#FFFFFF" points="309,12 309,192.38 21,192.55 21,192.51 9.77,181.28 21,170.05 21,170.01 9.77,158.78 21,147.55 
		21,147.5 9.77,136.28 21,125.05 21,125.01 9.77,113.78 21,102.54 21,102.51 10,91.28 10,91.27 21,80.05 21,80.01 9.77,68.78 
		21,57.54 21,57.5 9.77,46.28 21,35.05 21,35.01 9.77,23.78 21,12.54 21,12 	"/>
	<rect x="46" y="104.854" fill="none" width="239.202" height="76.479"/>
	<text transform="matrix(1 0 0 1 50.8477 118.6426)"><tspan x="0" y="0" fill="#D03D00" font-family="'JosefinSans'" font-size="18">« L’ensemble est une réussite tant </tspan><tspan x="40.553" y="21.6" fill="#D03D00" font-family="'JosefinSans'" font-size="18">artistique que touristique ! »</tspan></text>
	<g>
		<path fill-rule="evenodd" clip-rule="evenodd" d="M106.349,63.764c0-0.385,0-0.624,0-0.865c0-6.084-0.03-12.168,0.025-18.252
			c0.011-1.223-0.305-2.094-1.334-2.783c-0.875-0.585-0.809-0.599-1.746-0.149c-0.713,0.341-0.938,0.78-0.924,1.578
			c0.057,3.135,0.039,6.27,0.01,9.405c-0.004,0.635-0.09,1.296-0.289,1.895c-0.163,0.49-0.451,1.039-0.852,1.332
			c-1.299,0.95-2.676,1.795-4.048,2.697c-0.214-0.324-0.483-0.511-0.121-0.85c0.778-0.727,1.051-1.688,1.056-2.711
			c0.019-3.8,0.018-7.6,0.002-11.399c-0.006-1.227-0.459-1.579-1.695-1.404c-0.82,0.115-1.637,0.267-2.461,0.348
			c-0.381,0.037-0.789-0.001-1.158-0.1c-0.74-0.199-1.148-0.772-1.069-1.54c0.044-0.422,0.158-0.879,0.381-1.229
			c0.521-0.818,1.127-1.582,1.72-2.398c0.291,0.192,0.528,0.348,0.791,0.521c-0.26,0.402-0.539,0.743-0.711,1.133
			c-0.105,0.236-0.152,0.625-0.025,0.8c0.125,0.169,0.539,0.269,0.766,0.198c0.967-0.299,1.898-0.72,2.87-1.003
			c0.741-0.216,1.524-0.42,2.286-0.407c1.322,0.022,2.096,0.859,2.477,2.085c0.031,0.099,0.069,0.193,0.133,0.375
			c0.585-0.346,1.146-0.672,1.703-1.006c0.658-0.395,1.333-0.769,1.961-1.206c0.387-0.269,0.634-0.193,0.972,0.078
			c1.02,0.818,2.069,1.599,3.136,2.415c1.326-0.825,2.653-1.633,3.958-2.476c0.36-0.231,0.629-0.259,1.006-0.025
			c0.865,0.533,1.79,0.973,2.641,1.526c1.018,0.66,1.995,0.731,3.013,0.046c0.136-0.092,0.295-0.148,0.516-0.256
			c0.168,0.271,0.335,0.539,0.533,0.856c-0.514,0.308-0.986,0.601-1.467,0.874c-1.188,0.681-1.799,1.731-1.806,3.068
			c-0.026,4.858-0.015,9.718-0.002,14.576c0.001,0.275,0.088,0.584,0.231,0.819c0.299,0.482,0.758,0.55,1.268,0.254
			c0.247-0.144,0.495-0.289,0.784-0.458c0.147,0.297,0.272,0.549,0.42,0.844c-1.421,0.851-2.802,1.686-4.196,2.498
			c-0.121,0.07-0.365,0.036-0.496-0.043c-0.497-0.299-0.982-0.62-1.449-0.966c-0.632-0.466-0.761-1.151-0.761-1.884
			c0.003-4.195,0-8.391,0.004-12.585c0.001-0.29,0.022-0.58,0.055-0.869c0.163-1.471,0.847-2.627,2.207-3.469
			c-0.739-0.439-1.403-0.834-2.069-1.229c-0.25-0.147-0.531-0.259-0.745-0.447c-0.938-0.819-1.821-0.781-2.772,0.016
			c-0.316,0.267-0.483,0.474-0.482,0.896c0.014,5.71-0.008,11.421,0.024,17.13c0.006,1.136-0.378,1.896-1.43,2.357
			C108.265,62.78,107.375,63.259,106.349,63.764z"/>
		<path fill-rule="evenodd" clip-rule="evenodd" d="M166.73,59.216c0.478-0.241,0.855-0.433,1.265-0.64
			c0.111,0.269,0.205,0.495,0.318,0.777c-0.375,0.226-0.742,0.451-1.111,0.668c-1.913,1.126-3.83,2.241-5.732,3.385
			c-0.385,0.23-0.664,0.253-1.055-0.006c-1.156-0.771-2.332-1.514-3.529-2.218c-0.648-0.382-0.917-0.886-0.911-1.628
			c0.02-2.718,0.007-5.437,0.007-8.155c0-0.227,0-0.454,0-0.799c-0.507,0.253-0.937,0.466-1.394,0.693
			c-0.2-0.604-0.022-0.948,0.526-1.259c2.51-1.417,4.985-2.893,7.49-4.317c0.412-0.232,0.526-0.501,0.506-0.942
			c-0.08-1.632-1.28-3.229-2.817-3.685c-0.12-0.035-0.282,0.003-0.401,0.057c-0.264,0.12-0.514,0.271-0.768,0.411
			c-0.695,0.384-0.77,0.375-1.508-0.186c1.569-0.913,3.125-1.825,4.689-2.716c0.123-0.069,0.364-0.044,0.496,0.032
			c0.559,0.319,1.105,0.659,1.637,1.02c1.568,1.058,2.302,2.543,2.297,4.433c-0.014,4.752-0.005,9.505-0.005,14.257
			C166.73,58.626,166.73,58.854,166.73,59.216z M162.923,60.899c0.061-0.031,0.12-0.063,0.182-0.096c0-1.072,0-2.145,0-3.217
			c0-3.32,0-6.64-0.002-9.959c0-0.628-0.109-0.69-0.625-0.384c-0.819,0.489-1.646,0.967-2.439,1.493
			c-0.182,0.119-0.342,0.418-0.343,0.637c-0.023,2.883-0.026,5.768,0.001,8.651c0.002,0.319,0.133,0.761,0.364,0.934
			C160.981,59.652,161.964,60.261,162.923,60.899z"/>
		<path fill-rule="evenodd" clip-rule="evenodd" d="M141.664,45.733c0.63,0.688,1.257,1.346,1.85,2.033
			c0.269,0.312,0.481,0.334,0.835,0.12c1.1-0.664,2.23-1.278,3.336-1.936c0.297-0.177,0.502-0.161,0.771,0.052
			c0.732,0.58,1.477,1.146,2.238,1.684c0.558,0.396,0.8,0.895,0.796,1.582c-0.017,3.424-0.01,6.85-0.006,10.275
			c0.001,0.544,0.03,1.077,0.556,1.438c0.335,0.23,0.629,0.348,0.996,0.055c0.223-0.178,0.5-0.286,0.818-0.462
			c0.123,0.248,0.239,0.479,0.39,0.781c-1.249,0.731-2.476,1.454-3.71,2.164c-0.088,0.053-0.258,0.061-0.342,0.009
			c-1.683-1.032-2.383-1.018-2.361-3.359c0.025-3.009-0.02-6.019-0.008-9.028c0.002-0.727-0.224-1.278-0.83-1.698
			c-0.492-0.341-0.946-0.738-1.366-1.069c-1.142,0.333-1.577,0.953-1.54,2.177c0.107,3.443,0.023,6.892,0.049,10.338
			c0.007,0.89-0.326,1.44-1.164,1.757c-0.807,0.305-1.582,0.689-2.488,1.09c-0.021-0.367-0.048-0.602-0.048-0.837
			c-0.002-4.048-0.042-8.097,0.026-12.144c0.018-1.073-0.34-1.819-1.186-2.473c-0.469,0.278-0.963,0.569-1.496,0.886
			c-0.192-0.229-0.375-0.445-0.594-0.706C138.689,47.546,140.153,46.653,141.664,45.733z"/>
		<path fill-rule="evenodd" clip-rule="evenodd" d="M134.651,59.165c0.467-0.226,0.817-0.396,1.211-0.587
			c0.113,0.247,0.214,0.466,0.341,0.743c-0.464,0.277-0.897,0.545-1.34,0.802c-1.917,1.116-3.841,2.222-5.75,3.351
			c-0.31,0.184-0.538,0.185-0.844-0.001c-1.311-0.797-2.629-1.583-3.962-2.344c-0.606-0.346-0.874-0.817-0.869-1.516
			c0.016-2.885,0.007-5.769,0.007-8.652c0-0.228,0-0.454,0-0.816c-0.512,0.284-0.947,0.524-1.387,0.769
			c-0.251-0.755-0.203-0.894,0.411-1.253c2.131-1.243,4.268-2.476,6.389-3.738c0.355-0.211,0.611-0.204,0.955,0.009
			c1.236,0.763,2.465,1.539,3.744,2.222c0.834,0.445,1.111,1.071,1.103,1.967c-0.025,2.759-0.009,5.52-0.009,8.279
			C134.651,58.622,134.651,58.846,134.651,59.165z M130.741,60.939c0.07-0.183,0.111-0.239,0.111-0.296
			c0.005-3.113,0.008-6.227,0.006-9.338c-0.001-0.544-0.236-0.938-0.727-1.207c-0.799-0.441-1.576-0.917-2.37-1.368
			c-0.161-0.092-0.347-0.14-0.524-0.209c-0.047,0.126-0.072,0.164-0.072,0.203c-0.019,3.133-0.044,6.266-0.031,9.398
			c0.001,0.296,0.156,0.717,0.383,0.865C128.55,59.671,129.632,60.277,130.741,60.939z"/>
		<path fill-rule="evenodd" clip-rule="evenodd" d="M85.944,59.531c0.164,0.349,0.303,0.641,0.463,0.982
			c-1.54,0.886-3.076,1.706-4.541,2.639c-0.751,0.478-1.313,0.507-2.03-0.045c-0.853-0.655-1.789-1.205-2.711-1.765
			c-0.581-0.353-0.802-0.837-0.798-1.5c0.014-3.197,0.006-6.394,0.006-9.713c-0.519,0.273-0.973,0.516-1.436,0.761
			c-0.225-0.64-0.035-0.994,0.51-1.305c2.145-1.222,4.263-2.491,6.391-3.741c0.123-0.071,0.252-0.137,0.43-0.232
			c1.574,1.748,3.14,3.486,4.752,5.276c-1.146,0.706-2.252,1.388-3.359,2.069c-1.041,0.642-2.078,1.295-3.133,1.917
			c-0.328,0.194-0.445,0.418-0.435,0.796c0.026,0.933-0.029,1.87,0.026,2.801c0.02,0.302,0.215,0.676,0.449,0.864
			c0.682,0.541,1.408,1.028,2.152,1.482c0.191,0.118,0.551,0.13,0.759,0.032C84.263,60.46,85.056,60.005,85.944,59.531z
			 M83.247,51.681c-0.54-0.63-1.011-1.181-1.482-1.729c-0.477-0.558-0.954-1.113-1.433-1.67c-0.057,0.022-0.114,0.045-0.173,0.068
			c0,1.736,0,3.471,0,5.268C81.181,52.978,82.187,52.346,83.247,51.681z"/>
		<path fill-rule="evenodd" clip-rule="evenodd" d="M177.397,45.632c1.384,1.52,2.732,2.984,4.063,4.464
			c0.418,0.464,0.291,1.066-0.244,1.394c-1.859,1.134-3.727,2.256-5.57,3.415c-0.209,0.132-0.396,0.467-0.41,0.72
			c-0.05,0.889-0.006,1.784-0.024,2.675c-0.01,0.465,0.171,0.787,0.55,1.04c0.691,0.46,1.377,0.928,2.048,1.415
			c0.302,0.22,0.548,0.262,0.894,0.06c0.783-0.458,1.598-0.865,2.464-1.328c0.139,0.33,0.264,0.627,0.415,0.984
			c-1.232,0.721-2.44,1.436-3.658,2.133c-0.643,0.367-1.311,0.985-1.957,0.971c-0.62-0.014-1.228-0.694-1.839-1.086
			c-0.575-0.369-1.136-0.766-1.728-1.11c-0.64-0.372-0.896-0.882-0.889-1.635c0.031-2.946,0.013-5.895,0.013-8.841
			c0-0.223,0-0.445,0-0.774c-0.535,0.283-0.983,0.52-1.472,0.78c-0.158-0.54-0.15-0.913,0.42-1.236
			C172.778,48.362,175.056,47.003,177.397,45.632z M178.454,51.68c-0.899-1.057-1.74-2.052-2.594-3.034
			c-0.104-0.119-0.287-0.172-0.434-0.256c-0.06,0.163-0.167,0.326-0.168,0.489c-0.014,1.471-0.009,2.941-0.005,4.412
			c0.001,0.089,0.036,0.178,0.069,0.339C176.386,52.969,177.38,52.348,178.454,51.68z"/>
		<path fill-rule="evenodd" clip-rule="evenodd" d="M78.099,41.36c-1.664,1.045-3.27,2.055-4.911,3.086
			c-0.19-0.719-0.028-1.168,0.597-1.533c0.873-0.51,0.938-0.933,0.389-1.771c-0.68-1.037-1.57-1.74-2.896-1.533
			c-1.287,0.199-1.951,1.079-2.287,2.265c-0.408,1.433-0.266,2.882-0.064,4.321c0.273,1.949,0.636,3.887,0.877,5.84
			c0.239,1.938-0.26,3.618-1.973,4.786c-0.77,0.526-1.508,1.099-2.266,1.654c-0.381-0.207-0.488-0.416-0.256-0.845
			c0.656-1.211,0.566-2.548,0.4-3.84c-0.284-2.22-0.719-4.42-1.026-6.636c-0.731-5.278,3.593-8.777,7.911-8.65
			C74.817,38.569,76.706,39.381,78.099,41.36z"/>
		<path fill-rule="evenodd" clip-rule="evenodd" d="M74.4,61.161c-1.335,0.855-2.624,1.682-3.954,2.534
			c-1.053-1.669-2.623-2.225-4.479-2.146c-1.724,0.073-3.358,0.513-4.912,1.247c-0.688,0.325-1.353,0.71-2.034,1.072
			c-0.323-0.195-0.342-0.395-0.065-0.678c2.294-2.345,4.942-4.092,8.263-4.474c2.124-0.244,4.147,0.159,5.693,1.858
			c0.067,0.073,0.148,0.137,0.241,0.222c0.14-0.073,0.265-0.137,0.388-0.206c0.127-0.07,0.249-0.146,0.41-0.241
			c0.084,0.12,0.171,0.229,0.237,0.347C74.258,60.821,74.309,60.957,74.4,61.161z"/>
		<path fill-rule="evenodd" clip-rule="evenodd" d="M101.479,60.632c0.521-0.279,1.027-0.552,1.576-0.846
			c0.151,0.297,0.281,0.551,0.457,0.895c-1.637,0.974-3.267,1.943-4.882,2.904c-0.065-0.031-0.118-0.039-0.134-0.068
			c-0.885-1.627-2.326-2.079-4.053-1.907c-1.984,0.197-3.767,0.944-5.492,2.147c-0.117-0.129-0.236-0.259-0.314-0.347
			c0.031-0.144,0.027-0.196,0.051-0.22c1.777-1.844,3.859-3.219,6.34-3.885C97.366,58.679,99.603,58.813,101.479,60.632z"/>
		<path fill-rule="evenodd" clip-rule="evenodd" d="M103.638,42.285c0.324,0.059,0.584,0.042,0.771,0.149
			c0.827,0.474,1.117,1.163,1.109,2.158c-0.049,6.309-0.024,12.619-0.024,18.928c0,0.145,0.034,0.302-0.01,0.433
			c-0.044,0.128-0.167,0.229-0.255,0.343c-0.061-0.113-0.148-0.223-0.175-0.344c-0.03-0.139-0.007-0.29-0.007-0.435
			c0-6.165-0.021-12.328,0.021-18.492c0.007-1.007-0.187-1.785-1.104-2.284c-0.089-0.048-0.158-0.133-0.234-0.203
			C103.718,42.526,103.717,42.503,103.638,42.285z"/>
		<path fill-rule="evenodd" clip-rule="evenodd" d="M113.707,45.968c-0.259,4.93-0.082,9.875-0.106,14.817
			c-0.006,1.089,0.471,1.957,1.405,2.555c0.327,0.209,0.638,0.44,0.956,0.662c-0.011,0.054-0.021,0.105-0.033,0.159
			c-0.191,0-0.42,0.067-0.57-0.012c-1.453-0.773-2.307-1.847-2.266-3.649c0.09-3.938,0.029-7.881,0.027-11.821
			C113.12,47.719,113.282,46.799,113.707,45.968z"/>
		<path fill-rule="evenodd" clip-rule="evenodd" d="M145.026,49.604c0.217-0.1,0.361-0.224,0.501-0.22
			c0.458,0.019,1.483,1.221,1.483,1.711c0.003,3.134,0.002,6.267,0.003,9.4c0,0.228,0,0.456,0.024,0.684
			c0.115,1.038,0.612,1.831,1.531,2.351c0.286,0.164,0.567,0.339,0.861,0.652c-0.186,0.019-0.396,0.104-0.552,0.044
			c-1.708-0.651-2.342-1.584-2.343-3.401c-0.002-3.008-0.026-6.018,0.017-9.025c0.011-0.748-0.183-1.28-0.825-1.657
			C145.498,50.009,145.304,49.819,145.026,49.604z"/>
		<path fill-rule="evenodd" clip-rule="evenodd" d="M155.195,52.065c0,2.51,0.026,5.02-0.014,7.529
			c-0.016,1.005,0.359,1.693,1.21,2.205c1.223,0.734,2.414,1.519,3.619,2.281c-0.01,0.064-0.02,0.13-0.029,0.194
			c-0.211-0.017-0.469,0.037-0.631-0.062c-1.272-0.78-2.53-1.586-3.786-2.393c-0.758-0.485-0.901-1.275-0.911-2.073
			c-0.027-2.386-0.018-4.771,0.004-7.158c0.002-0.215,0.205-0.427,0.314-0.64C155.046,51.988,155.12,52.026,155.195,52.065z"/>
		<path fill-rule="evenodd" clip-rule="evenodd" d="M127.719,64.341c-0.213-0.036-0.458-0.018-0.636-0.118
			c-1.296-0.736-2.586-1.487-3.861-2.258c-0.688-0.414-1.047-1.058-1.049-1.864c-0.01-2.632-0.01-5.265,0.006-7.897
			c0.001-0.202,0.148-0.405,0.229-0.607c0.08,0.02,0.16,0.039,0.238,0.059c0,0.218,0,0.435,0,0.651c0,2.384,0.02,4.769-0.009,7.151
			c-0.013,1.083,0.395,1.856,1.345,2.397c1.275,0.724,2.519,1.503,3.775,2.259C127.744,64.188,127.732,64.265,127.719,64.341z"/>
		<path fill-rule="evenodd" clip-rule="evenodd" d="M139.126,64.298c0-0.232,0-0.455,0-0.678c0-4.189,0.01-8.379-0.012-12.568
			c-0.002-0.479-0.172-0.959-0.264-1.439c-0.06-0.002-0.119-0.005-0.179-0.008c0.149-0.097,0.298-0.193,0.608-0.394
			c0.138,0.44,0.348,0.802,0.351,1.164c0.021,4.438,0.015,8.876,0.011,13.314C139.642,63.979,139.771,64.408,139.126,64.298z"/>
		<path fill-rule="evenodd" clip-rule="evenodd" d="M64.11,43.404c-0.684,2.924,0.151,5.724,0.549,8.559
			c0.188,1.347,0.242,2.716,0.295,4.077c0.016,0.42-0.172,0.851-0.268,1.276c-0.051-0.01-0.103-0.019-0.154-0.029
			c0-0.69,0.078-1.39-0.015-2.067c-0.274-2.009-0.62-4.009-0.925-6.014c-0.27-1.771-0.49-3.543,0.262-5.265
			C63.934,43.76,64.024,43.584,64.11,43.404z"/>
		<path fill-rule="evenodd" clip-rule="evenodd" d="M175.101,64.313c-0.209-0.028-0.461,0.006-0.624-0.097
			c-1.137-0.723-2.265-1.461-3.377-2.222c-0.683-0.464-0.862-1.181-0.862-1.963c0.001-1.577,0-3.154,0-4.73
			c0-1.037-0.016-2.074,0.012-3.11c0.007-0.229,0.172-0.453,0.264-0.68c0.07,0.022,0.141,0.045,0.211,0.067c0,0.22,0,0.44,0,0.66
			c0,2.51,0.013,5.021-0.008,7.529c-0.007,0.959,0.344,1.669,1.164,2.183c1.104,0.688,2.182,1.416,3.27,2.128
			C175.133,64.156,175.116,64.234,175.101,64.313z"/>
		<path fill-rule="evenodd" clip-rule="evenodd" d="M75.497,51.603c0,0.828,0,1.655,0,2.483c0,1.889,0.006,3.778-0.001,5.668
			c-0.005,0.991,0.354,1.747,1.237,2.276c1.081,0.648,2.121,1.365,3.178,2.053c-0.01,0.064-0.02,0.128-0.029,0.192
			c-0.213-0.019-0.471,0.036-0.632-0.065c-1.107-0.694-2.198-1.416-3.284-2.141c-0.596-0.397-0.906-0.989-0.91-1.688
			c-0.02-2.74-0.014-5.481,0-8.222c0-0.204,0.135-0.407,0.207-0.61C75.341,51.567,75.42,51.585,75.497,51.603z"/>
		<path fill-rule="evenodd" clip-rule="evenodd" d="M96.585,42.989c0.395-0.024,0.641,0.155,0.703,0.569
			c0.028,0.184,0.024,0.373,0.024,0.559c0.001,3.531-0.001,7.062,0.003,10.593c0.002,0.755-0.105,1.474-0.459,1.994
			c0-4.021,0.008-8.14-0.012-12.257C96.843,43.989,96.686,43.533,96.585,42.989z"/>
		<path fill-rule="evenodd" clip-rule="evenodd" d="M161.844,45.135c-0.06-1.407-0.872-2.288-2.053-2.91
			c0.011-0.065,0.021-0.13,0.034-0.195c0.178,0,0.385-0.06,0.529,0.009c1.092,0.529,1.813,1.363,1.945,2.604
			c0.017,0.167-0.188,0.358-0.291,0.537C161.954,45.163,161.899,45.149,161.844,45.135z"/>
		<path fill-rule="evenodd" clip-rule="evenodd" d="M66.438,62.385c1.365-0.019,2.488,0.415,3.23,1.615
			c-0.074,0.089-0.107,0.144-0.155,0.177c-0.103,0.068-0.212,0.127-0.356,0.209C68.533,63.34,67.564,62.755,66.438,62.385z"/>
		<path fill-rule="evenodd" clip-rule="evenodd" d="M90.913,40.276c-0.205,1.367,0.188,2.383,1.488,2.95
			c-0.718,0.132-1.404-0.173-1.76-0.743C90.28,41.904,90.372,41.019,90.913,40.276z"/>
		<path fill-rule="evenodd" clip-rule="evenodd" d="M73.727,41.998c-0.138,0.1-0.283,0.204-0.389,0.279
			c-0.576-0.632-1.132-1.241-1.662-1.823C72.342,40.183,73.296,40.837,73.727,41.998z"/>
		<path fill-rule="evenodd" clip-rule="evenodd" d="M115.106,43.862c-0.163,0.017-0.365,0.105-0.482,0.041
			c-0.842-0.474-1.666-0.977-2.496-1.471c0.008-0.061,0.016-0.12,0.023-0.181c0.199,0.011,0.436-0.047,0.594,0.04
			c0.793,0.433,1.566,0.903,2.347,1.36C115.097,43.723,115.102,43.792,115.106,43.862z"/>
		<path fill-rule="evenodd" clip-rule="evenodd" d="M97.224,64.242c-0.423-1.031-1.261-1.505-2.244-1.804
			c1.049-0.064,1.963,0.17,2.58,1.094C97.804,63.899,97.733,64.143,97.224,64.242z"/>
		<path fill-rule="evenodd" clip-rule="evenodd" fill="#FFFFFF" d="M162.923,60.899c-0.959-0.639-1.941-1.247-2.862-1.94
			c-0.231-0.173-0.362-0.614-0.364-0.934c-0.027-2.884-0.024-5.769-0.001-8.651c0.001-0.219,0.161-0.518,0.343-0.637
			c0.793-0.526,1.62-1.004,2.439-1.493c0.516-0.307,0.625-0.244,0.625,0.384c0.002,3.319,0.002,6.639,0.002,9.959
			c0,1.072,0,2.145,0,3.217C163.043,60.836,162.983,60.868,162.923,60.899z M162.298,48.397c-0.053-0.022-0.104-0.046-0.156-0.068
			c-0.102,0.201-0.291,0.401-0.291,0.602c-0.02,3.322-0.02,6.645,0,9.966c0,0.194,0.195,0.388,0.301,0.582
			c0.048-0.026,0.098-0.053,0.146-0.08C162.298,55.732,162.298,52.065,162.298,48.397z"/>
		<path fill-rule="evenodd" clip-rule="evenodd" fill="#FFFFFF" d="M130.741,60.939c-1.109-0.662-2.191-1.269-3.225-1.951
			c-0.227-0.148-0.382-0.569-0.383-0.865c-0.013-3.133,0.013-6.266,0.031-9.398c0-0.039,0.025-0.077,0.072-0.203
			c0.178,0.069,0.363,0.117,0.524,0.209c0.794,0.451,1.571,0.927,2.37,1.368c0.49,0.269,0.726,0.663,0.727,1.207
			c0.002,3.111-0.001,6.225-0.006,9.338C130.853,60.7,130.812,60.757,130.741,60.939z M128.095,49.86
			c-0.086,0.48-0.107,0.528,0.469,0.773c0.822,0.349,1.105,0.892,1.072,1.791c-0.074,2.133-0.043,4.269-0.054,6.403
			c-0.001,0.308-0.048,0.646,0.438,0.677c0.019-0.082,0.048-0.157,0.048-0.231c0.003-2.571,0.012-5.143-0.012-7.714
			c-0.002-0.232-0.145-0.546-0.327-0.681C129.219,50.503,128.655,50.203,128.095,49.86z"/>
		<path fill-rule="evenodd" clip-rule="evenodd" fill="#FFFFFF" d="M83.247,51.681c-1.061,0.665-2.066,1.297-3.088,1.938
			c0-1.797,0-3.531,0-5.268c0.059-0.023,0.116-0.046,0.173-0.068c0.479,0.557,0.956,1.112,1.433,1.67
			C82.236,50.5,82.707,51.051,83.247,51.681z M82.009,51.475c-0.367-0.422-0.711-0.815-1.055-1.21
			c-0.075,0.044-0.148,0.088-0.223,0.131c0.226,0.477,0.451,0.955,0.699,1.479C81.704,51.686,81.835,51.595,82.009,51.475z"/>
		<path fill-rule="evenodd" clip-rule="evenodd" fill="#FFFFFF" d="M178.454,51.68c-1.074,0.668-2.068,1.289-3.131,1.95
			c-0.033-0.161-0.068-0.25-0.069-0.339c-0.004-1.471-0.009-2.941,0.005-4.412c0.001-0.163,0.108-0.326,0.168-0.489
			c0.146,0.084,0.33,0.137,0.434,0.256C176.714,49.628,177.555,50.623,178.454,51.68z M177.224,51.483
			c-0.377-0.434-0.729-0.837-1.149-1.32c-0.05,0.772,0.296,1.492,0.718,1.602C176.905,51.69,177.038,51.604,177.224,51.483z"/>
		<path fill-rule="evenodd" clip-rule="evenodd" d="M162.298,48.397c0,3.668,0,7.335,0,11.001c-0.049,0.027-0.099,0.054-0.146,0.08
			c-0.105-0.194-0.301-0.388-0.301-0.582c-0.02-3.321-0.02-6.644,0-9.966c0-0.2,0.189-0.4,0.291-0.602
			C162.193,48.352,162.245,48.375,162.298,48.397z"/>
		<path fill-rule="evenodd" clip-rule="evenodd" d="M128.095,49.86c0.561,0.343,1.124,0.643,1.634,1.019
			c0.183,0.135,0.325,0.448,0.327,0.681c0.023,2.571,0.015,5.143,0.012,7.714c0,0.074-0.029,0.149-0.048,0.231
			c-0.485-0.031-0.438-0.369-0.438-0.677c0.011-2.135-0.021-4.271,0.054-6.403c0.033-0.899-0.25-1.442-1.072-1.791
			C127.987,50.389,128.009,50.341,128.095,49.86z"/>
		<path fill-rule="evenodd" clip-rule="evenodd" d="M82.009,51.475c-0.174,0.12-0.305,0.211-0.578,0.4
			c-0.248-0.524-0.474-1.003-0.699-1.479c0.074-0.043,0.147-0.087,0.223-0.131C81.298,50.659,81.642,51.053,82.009,51.475z"/>
		<path fill-rule="evenodd" clip-rule="evenodd" d="M177.224,51.483c-0.186,0.121-0.318,0.207-0.432,0.281
			c-0.422-0.109-0.768-0.829-0.718-1.602C176.494,50.646,176.847,51.05,177.224,51.483z"/>
	</g>
</g>
</svg>
