<?xml version="1.0" encoding="utf-8"?>
<!-- Generator: Adobe Illustrator 17.0.0, SVG Export Plug-In . SVG Version: 6.00 Build 0)  -->
<!DOCTYPE svg PUBLIC "-//W3C//DTD SVG 1.1//EN" "http://www.w3.org/Graphics/SVG/1.1/DTD/svg11.dtd">
<svg version="1.1" id="Calque_1" xmlns="http://www.w3.org/2000/svg" xmlns:xlink="http://www.w3.org/1999/xlink" x="0px" y="0px"
	 width="316.049px" height="314.816px" viewBox="0 0 316.049 314.816" enable-background="new 0 0 316.049 314.816"
	 xml:space="preserve">
<g>
	<polygon fill="#1D2B40" points="148.505,86.42 158.274,76.608 166.011,88.091 177.46,80.306 182.882,93.045 195.599,87.567 
		198.513,101.102 212.034,98.131 212.333,111.974 226.175,111.613 223.849,125.263 237.508,127.528 232.642,140.49 245.624,145.302 
		238.392,157.108 250.231,164.289 240.896,174.515 251.161,183.804 240.058,192.08 248.379,203.145 235.913,209.167 
		241.989,221.606 228.608,225.162 232.222,238.528 218.409,239.485 219.427,253.294 205.683,251.621 204.067,265.373 
		190.89,261.126 186.7,274.326 174.563,267.664 167.954,279.83 157.296,270.992 148.505,281.687 139.714,270.992 129.056,279.83 
		122.446,267.664 110.31,274.326 106.12,261.126 92.942,265.373 91.327,251.621 77.583,253.294 78.601,239.485 64.788,238.528 
		68.401,225.162 55.021,221.606 61.097,209.167 48.63,203.145 56.952,192.08 45.849,183.804 56.114,174.515 46.778,164.289 
		58.618,157.108 51.386,145.302 64.368,140.49 59.501,127.528 73.161,125.263 70.835,111.613 84.677,111.974 84.976,98.131 
		98.497,101.102 101.411,87.567 114.128,93.045 119.55,80.306 130.999,88.091 138.737,76.608 	"/>
	<rect x="74.492" y="200.742" fill="none" width="144" height="38"/>
	<g enable-background="new    ">
		<path fill="#FFF7DC" d="M105.371,212.316h3.672v1.7h-7.854c0.702-0.714,1.382-1.402,2.04-2.065
			c0.657-0.663,1.241-1.306,1.751-1.93c0.51-0.623,0.92-1.229,1.232-1.819c0.312-0.589,0.467-1.155,0.467-1.699
			c0-0.363-0.065-0.681-0.195-0.952c-0.13-0.272-0.292-0.496-0.484-0.672c-0.193-0.176-0.403-0.309-0.629-0.399
			s-0.436-0.136-0.629-0.136c-0.397,0-0.723,0.07-0.978,0.212c-0.255,0.143-0.459,0.31-0.612,0.502s-0.258,0.396-0.314,0.612
			c-0.057,0.215-0.085,0.396-0.085,0.544c0,0.374,0.06,0.705,0.178,0.994c0.119,0.289,0.286,0.541,0.501,0.757l-1.037,1.07
			c-0.227-0.112-0.425-0.285-0.595-0.518s-0.314-0.485-0.434-0.757c-0.119-0.272-0.21-0.544-0.272-0.816
			c-0.062-0.271-0.093-0.516-0.093-0.73c0-0.453,0.082-0.896,0.246-1.326c0.165-0.431,0.405-0.811,0.723-1.139
			c0.317-0.329,0.708-0.593,1.173-0.791s0.998-0.298,1.598-0.298c0.555,0,1.062,0.1,1.521,0.298s0.85,0.465,1.173,0.799
			c0.323,0.335,0.572,0.723,0.748,1.165c0.176,0.441,0.264,0.9,0.264,1.377c0,0.544-0.083,1.07-0.247,1.581
			c-0.165,0.51-0.385,1.011-0.663,1.504s-0.604,0.983-0.978,1.471C106.187,211.342,105.79,211.829,105.371,212.316z"/>
		<path fill="#FFF7DC" d="M112.834,212.52l-1.496,3.57h-1.564c0.227-0.601,0.448-1.193,0.663-1.776
			c0.215-0.584,0.436-1.182,0.663-1.794H112.834z"/>
		<path fill="#FFF7DC" d="M115.264,208.933v-6.137h4.964v1.683h-3.451v2.159c0.057-0.022,0.11-0.04,0.162-0.051
			c0.051-0.012,0.127-0.018,0.229-0.018c0.578,0,1.105,0.1,1.581,0.298s0.878,0.468,1.207,0.808c0.329,0.34,0.583,0.733,0.765,1.182
			c0.181,0.447,0.272,0.921,0.272,1.419c0,0.544-0.102,1.055-0.306,1.53s-0.482,0.887-0.833,1.232
			c-0.352,0.346-0.76,0.618-1.224,0.816c-0.465,0.198-0.958,0.297-1.479,0.297c-0.51,0-0.989-0.093-1.437-0.28
			c-0.448-0.187-0.847-0.45-1.198-0.79c0.215-0.204,0.43-0.402,0.646-0.596c0.215-0.192,0.425-0.385,0.629-0.578
			c0.181,0.159,0.388,0.289,0.621,0.392c0.232,0.102,0.49,0.152,0.773,0.152c0.283,0,0.549-0.056,0.799-0.17
			c0.249-0.112,0.467-0.263,0.654-0.45c0.187-0.187,0.337-0.408,0.451-0.663s0.17-0.529,0.17-0.824c0-0.283-0.057-0.553-0.17-0.808
			s-0.264-0.479-0.451-0.672c-0.187-0.192-0.408-0.343-0.663-0.45c-0.255-0.107-0.524-0.161-0.808-0.161
			c-0.295,0-0.612,0.036-0.952,0.11C115.877,208.437,115.559,208.628,115.264,208.933z"/>
		<path fill="#FFF7DC" d="M127.233,203.63h1.615v3.162h1.887v1.462h-1.887v5.763h-1.615v-5.763h-1.224v-1.462h1.224V203.63z"/>
		<path fill="#FFF7DC" d="M131.346,210.395c0-0.521,0.099-1.012,0.297-1.471s0.473-0.858,0.825-1.198
			c0.351-0.34,0.762-0.609,1.232-0.808s0.972-0.297,1.504-0.297c0.544,0,1.048,0.099,1.513,0.297
			c0.464,0.198,0.864,0.468,1.198,0.808c0.334,0.34,0.598,0.739,0.791,1.198s0.289,0.949,0.289,1.471s-0.093,1.015-0.28,1.479
			s-0.451,0.869-0.791,1.215s-0.743,0.618-1.207,0.816c-0.465,0.198-0.975,0.297-1.53,0.297c-0.533,0-1.032-0.091-1.496-0.271
			c-0.465-0.182-0.87-0.439-1.216-0.773s-0.62-0.736-0.824-1.207S131.346,210.963,131.346,210.395z M132.962,210.413
			c0,0.306,0.057,0.592,0.17,0.858c0.113,0.266,0.269,0.498,0.467,0.696c0.198,0.199,0.431,0.354,0.697,0.468
			c0.266,0.113,0.552,0.17,0.858,0.17s0.592-0.057,0.858-0.17c0.266-0.113,0.499-0.269,0.697-0.468
			c0.198-0.198,0.357-0.431,0.476-0.696c0.119-0.267,0.179-0.553,0.179-0.858c0-0.307-0.06-0.593-0.179-0.859
			c-0.119-0.266-0.278-0.498-0.476-0.696c-0.199-0.198-0.431-0.357-0.697-0.477c-0.267-0.119-0.552-0.179-0.858-0.179
			s-0.592,0.06-0.858,0.179c-0.267,0.119-0.499,0.278-0.697,0.477s-0.354,0.431-0.467,0.696
			C133.018,209.82,132.962,210.106,132.962,210.413z"/>
		<path fill="#FFF7DC" d="M140.543,206.792h1.428c0.022,0.407,0.048,0.739,0.076,0.994s0.054,0.541,0.077,0.858
			c0.261-0.612,0.629-1.104,1.105-1.479s1.071-0.562,1.785-0.562c0.736,0,1.323,0.201,1.759,0.604
			c0.436,0.402,0.666,0.927,0.688,1.572v5.236h-1.615v-4.471c-0.023-0.352-0.147-0.655-0.374-0.91
			c-0.227-0.255-0.578-0.394-1.054-0.416c-0.329,0-0.632,0.06-0.909,0.179c-0.278,0.119-0.516,0.28-0.714,0.484
			s-0.351,0.447-0.459,0.73c-0.108,0.284-0.162,0.59-0.162,0.918v3.485h-1.632V206.792z"/>
		<path fill="#FFF7DC" d="M149.417,206.792h1.428c0.022,0.407,0.048,0.739,0.076,0.994s0.054,0.541,0.077,0.858
			c0.261-0.612,0.629-1.104,1.105-1.479s1.071-0.562,1.785-0.562c0.736,0,1.323,0.201,1.759,0.604
			c0.436,0.402,0.666,0.927,0.688,1.572v5.236h-1.615v-4.471c-0.023-0.352-0.147-0.655-0.374-0.91
			c-0.227-0.255-0.578-0.394-1.054-0.416c-0.329,0-0.632,0.06-0.909,0.179c-0.278,0.119-0.516,0.28-0.714,0.484
			s-0.351,0.447-0.459,0.73c-0.108,0.284-0.162,0.59-0.162,0.918v3.485h-1.632V206.792z"/>
		<path fill="#FFF7DC" d="M164.495,213.183c-0.352,0.317-0.776,0.566-1.274,0.748c-0.499,0.181-1.009,0.271-1.53,0.271
			c-0.533,0-1.034-0.099-1.505-0.297c-0.47-0.198-0.878-0.471-1.224-0.816s-0.62-0.748-0.824-1.207s-0.306-0.949-0.306-1.47
			c0-0.521,0.102-1.012,0.306-1.471s0.479-0.861,0.824-1.207s0.748-0.618,1.207-0.816s0.943-0.297,1.453-0.297
			c0.816,0,1.533,0.246,2.15,0.739c0.618,0.493,1.057,1.142,1.318,1.946c-0.341,0.125-0.734,0.275-1.182,0.45
			c-0.448,0.176-0.916,0.36-1.402,0.553c-0.488,0.193-0.976,0.389-1.463,0.587s-0.935,0.377-1.343,0.535
			c0.192,0.352,0.459,0.635,0.799,0.85c0.341,0.216,0.726,0.323,1.156,0.323c0.295,0,0.592-0.054,0.893-0.161
			c0.3-0.107,0.547-0.252,0.739-0.434L164.495,213.183z M163.067,208.933c-0.136-0.249-0.34-0.434-0.612-0.553
			c-0.271-0.119-0.538-0.179-0.799-0.179c-0.306,0-0.595,0.06-0.867,0.179c-0.271,0.119-0.504,0.278-0.696,0.477
			c-0.193,0.198-0.347,0.425-0.459,0.68c-0.114,0.255-0.171,0.519-0.171,0.79v0.068c0.283-0.113,0.587-0.235,0.91-0.365
			s0.646-0.264,0.969-0.399c0.323-0.137,0.632-0.264,0.927-0.383C162.563,209.129,162.829,209.024,163.067,208.933z"/>
		<path fill="#FFF7DC" d="M170.463,207.437c-0.068,0.103-0.15,0.219-0.247,0.349c-0.097,0.131-0.189,0.252-0.28,0.365
			s-0.198,0.255-0.323,0.425c-0.113-0.079-0.224-0.142-0.331-0.187c-0.108-0.045-0.232-0.088-0.374-0.128
			c-0.143-0.039-0.286-0.06-0.434-0.06c-0.159,0-0.326,0.037-0.502,0.111c-0.176,0.073-0.264,0.224-0.264,0.45
			c0,0.192,0.077,0.354,0.229,0.484c0.153,0.131,0.341,0.249,0.562,0.357c0.221,0.107,0.465,0.218,0.73,0.331
			c0.267,0.113,0.511,0.255,0.731,0.425s0.408,0.383,0.561,0.638c0.153,0.255,0.229,0.569,0.229,0.943
			c0,0.329-0.059,0.629-0.178,0.901c-0.119,0.271-0.289,0.504-0.511,0.697c-0.221,0.192-0.484,0.346-0.79,0.459
			c-0.306,0.112-0.651,0.17-1.037,0.17c-0.465,0-0.915-0.08-1.352-0.238s-0.779-0.385-1.028-0.68
			c0.079-0.091,0.176-0.204,0.289-0.341c0.113-0.136,0.221-0.266,0.323-0.391c0.102-0.124,0.227-0.271,0.374-0.442
			c0-0.011,0.036,0.009,0.11,0.06c0.073,0.052,0.173,0.111,0.297,0.179c0.125,0.068,0.272,0.131,0.442,0.188
			s0.346,0.085,0.527,0.085c0.283,0,0.501-0.062,0.654-0.188c0.153-0.124,0.229-0.277,0.229-0.459c0-0.181-0.076-0.328-0.229-0.441
			s-0.34-0.219-0.562-0.314c-0.221-0.097-0.465-0.201-0.73-0.314c-0.267-0.113-0.51-0.256-0.731-0.426
			c-0.221-0.17-0.407-0.388-0.561-0.654c-0.153-0.266-0.229-0.604-0.229-1.012c0-0.407,0.073-0.748,0.221-1.02
			c0.147-0.272,0.337-0.493,0.569-0.663s0.484-0.292,0.757-0.365c0.272-0.074,0.538-0.11,0.799-0.11c0.352,0,0.717,0.07,1.097,0.212
			S170.201,207.177,170.463,207.437z"/>
		<path fill="#FFF7DC" d="M175.733,210.413c0-0.567,0.093-1.083,0.28-1.548c0.187-0.464,0.447-0.863,0.782-1.198
			c0.334-0.334,0.725-0.595,1.173-0.782c0.447-0.187,0.938-0.28,1.471-0.28c0.362,0,0.68,0.04,0.952,0.119
			c0.271,0.079,0.504,0.176,0.696,0.289s0.349,0.235,0.468,0.365c0.119,0.131,0.213,0.241,0.28,0.332v-6.971h1.632v13.277h-1.632
			v-0.476c0-0.057,0.006-0.119,0.018-0.188c0.011-0.068,0.017-0.119,0.017-0.153c-0.102,0.103-0.227,0.213-0.374,0.332
			s-0.323,0.229-0.527,0.331c-0.204,0.103-0.434,0.185-0.688,0.247c-0.255,0.062-0.547,0.093-0.875,0.093
			c-0.578,0-1.097-0.099-1.556-0.297s-0.845-0.471-1.156-0.816s-0.55-0.748-0.714-1.207S175.733,210.933,175.733,210.413z
			 M177.364,210.379c0,0.317,0.054,0.611,0.161,0.884c0.107,0.271,0.261,0.507,0.459,0.705c0.198,0.199,0.434,0.354,0.706,0.468
			c0.271,0.113,0.572,0.17,0.9,0.17c0.329,0,0.632-0.057,0.91-0.17c0.277-0.113,0.516-0.271,0.714-0.476s0.351-0.442,0.459-0.715
			c0.107-0.271,0.161-0.561,0.161-0.866c0-0.307-0.054-0.593-0.161-0.858c-0.108-0.267-0.261-0.496-0.459-0.688
			c-0.198-0.193-0.437-0.346-0.714-0.459c-0.278-0.113-0.581-0.171-0.91-0.171c-0.328,0-0.629,0.055-0.9,0.162
			c-0.272,0.107-0.508,0.261-0.706,0.459s-0.352,0.431-0.459,0.697C177.418,209.786,177.364,210.072,177.364,210.379z"/>
		<path fill="#FFF7DC" d="M191.678,213.183c-0.352,0.317-0.776,0.566-1.274,0.748c-0.499,0.181-1.009,0.271-1.53,0.271
			c-0.533,0-1.034-0.099-1.505-0.297c-0.47-0.198-0.878-0.471-1.224-0.816s-0.62-0.748-0.824-1.207s-0.307-0.949-0.307-1.47
			c0-0.521,0.103-1.012,0.307-1.471s0.479-0.861,0.824-1.207s0.748-0.618,1.207-0.816s0.943-0.297,1.453-0.297
			c0.816,0,1.533,0.246,2.15,0.739c0.618,0.493,1.057,1.142,1.318,1.946c-0.341,0.125-0.734,0.275-1.182,0.45
			c-0.448,0.176-0.916,0.36-1.402,0.553c-0.488,0.193-0.976,0.389-1.463,0.587s-0.935,0.377-1.343,0.535
			c0.192,0.352,0.459,0.635,0.799,0.85c0.341,0.216,0.726,0.323,1.156,0.323c0.295,0,0.592-0.054,0.893-0.161
			c0.3-0.107,0.547-0.252,0.739-0.434L191.678,213.183z M190.25,208.933c-0.136-0.249-0.34-0.434-0.612-0.553
			c-0.271-0.119-0.538-0.179-0.799-0.179c-0.306,0-0.595,0.06-0.867,0.179c-0.271,0.119-0.504,0.278-0.696,0.477
			c-0.193,0.198-0.347,0.425-0.459,0.68c-0.114,0.255-0.171,0.519-0.171,0.79v0.068c0.283-0.113,0.587-0.235,0.91-0.365
			s0.646-0.264,0.969-0.399c0.323-0.137,0.632-0.264,0.927-0.383C189.745,209.129,190.012,209.024,190.25,208.933z"/>
	</g>
	<g enable-background="new    ">
		<path fill="#FFF7DC" d="M90.785,227.837c-0.068,0.103-0.15,0.219-0.247,0.349c-0.097,0.131-0.19,0.252-0.281,0.365
			s-0.198,0.255-0.323,0.425c-0.113-0.079-0.224-0.142-0.332-0.187c-0.108-0.045-0.232-0.088-0.374-0.128
			c-0.142-0.039-0.286-0.06-0.434-0.06c-0.159,0-0.326,0.037-0.501,0.111c-0.176,0.073-0.264,0.224-0.264,0.45
			c0,0.192,0.077,0.354,0.229,0.484c0.153,0.131,0.34,0.249,0.561,0.357c0.221,0.107,0.465,0.218,0.731,0.331
			c0.267,0.113,0.51,0.255,0.731,0.425c0.221,0.17,0.408,0.383,0.561,0.638c0.153,0.255,0.229,0.569,0.229,0.943
			c0,0.329-0.059,0.629-0.178,0.901c-0.119,0.271-0.289,0.504-0.51,0.697c-0.221,0.192-0.484,0.346-0.791,0.459
			c-0.306,0.112-0.651,0.17-1.037,0.17c-0.465,0-0.916-0.08-1.352-0.238c-0.437-0.158-0.779-0.385-1.029-0.68
			c0.08-0.091,0.176-0.204,0.289-0.341c0.113-0.136,0.221-0.266,0.323-0.391c0.102-0.124,0.227-0.271,0.374-0.442
			c0-0.011,0.037,0.009,0.11,0.06c0.074,0.052,0.173,0.111,0.297,0.179c0.125,0.068,0.272,0.131,0.442,0.188
			c0.17,0.057,0.345,0.085,0.527,0.085c0.283,0,0.501-0.062,0.654-0.188c0.153-0.124,0.229-0.277,0.229-0.459
			c0-0.181-0.076-0.328-0.229-0.441c-0.153-0.113-0.34-0.219-0.561-0.314c-0.221-0.097-0.465-0.201-0.731-0.314
			s-0.51-0.256-0.731-0.426c-0.221-0.17-0.408-0.388-0.561-0.654c-0.153-0.266-0.229-0.604-0.229-1.012
			c0-0.407,0.074-0.748,0.221-1.02c0.147-0.272,0.337-0.493,0.569-0.663s0.484-0.292,0.757-0.365c0.272-0.074,0.538-0.11,0.799-0.11
			c0.351,0,0.717,0.07,1.097,0.212C90.204,227.375,90.524,227.576,90.785,227.837z"/>
		<path fill="#FFF7DC" d="M92.162,230.88c0-0.521,0.102-1.017,0.306-1.487s0.479-0.881,0.824-1.232s0.748-0.632,1.207-0.842
			c0.459-0.209,0.944-0.314,1.454-0.314c0.34,0,0.646,0.043,0.918,0.128s0.507,0.184,0.706,0.297s0.354,0.229,0.467,0.349
			s0.187,0.213,0.221,0.28l0.068-0.866h1.581v7.225h-1.649v-0.476c0-0.057,0.002-0.111,0.008-0.162s0.009-0.088,0.009-0.11
			c-0.045,0.057-0.125,0.139-0.238,0.246c-0.113,0.108-0.266,0.213-0.459,0.315c-0.193,0.102-0.422,0.189-0.688,0.263
			c-0.266,0.074-0.575,0.11-0.926,0.11c-0.556,0-1.065-0.102-1.53-0.306s-0.867-0.476-1.207-0.815
			c-0.34-0.341-0.604-0.734-0.791-1.182C92.255,231.851,92.162,231.379,92.162,230.88z M93.811,230.778
			c0,0.317,0.054,0.611,0.162,0.884c0.107,0.271,0.261,0.507,0.459,0.705c0.198,0.199,0.434,0.354,0.706,0.468
			s0.572,0.17,0.901,0.17s0.629-0.057,0.901-0.17s0.507-0.271,0.706-0.476s0.351-0.442,0.459-0.715
			c0.108-0.271,0.162-0.561,0.162-0.866c0-0.307-0.054-0.593-0.162-0.858c-0.108-0.267-0.261-0.496-0.459-0.688
			c-0.198-0.193-0.434-0.346-0.706-0.459s-0.572-0.171-0.901-0.171s-0.629,0.055-0.901,0.162s-0.507,0.261-0.706,0.459
			s-0.352,0.431-0.459,0.697C93.864,230.185,93.811,230.471,93.811,230.778z"/>
		<path fill="#FFF7DC" d="M108.788,234.586h-1.36l-0.204-2.006c-0.261,0.578-0.621,1.057-1.08,1.437s-1.062,0.569-1.811,0.569
			s-1.34-0.195-1.776-0.586c-0.437-0.392-0.666-0.91-0.688-1.556v-5.253h1.632v4.487c0.022,0.352,0.145,0.649,0.366,0.893
			c0.221,0.244,0.575,0.377,1.062,0.399c0.329,0,0.629-0.057,0.901-0.17s0.507-0.271,0.706-0.476
			c0.198-0.204,0.354-0.448,0.467-0.731s0.17-0.589,0.17-0.918v-3.484h1.615V234.586z"/>
		<path fill="#FFF7DC" d="M115.622,232.529c0.17,0.215,0.334,0.422,0.493,0.62c0.158,0.198,0.323,0.399,0.493,0.604
			c-0.329,0.261-0.697,0.468-1.105,0.62c-0.408,0.153-0.844,0.229-1.309,0.229c-0.533,0-1.034-0.099-1.504-0.297
			s-0.878-0.471-1.224-0.816s-0.62-0.75-0.824-1.215s-0.306-0.958-0.306-1.479s0.102-1.012,0.306-1.471s0.479-0.861,0.824-1.207
			s0.754-0.617,1.224-0.815s0.972-0.298,1.504-0.298c0.476,0,0.921,0.076,1.334,0.229s0.791,0.36,1.131,0.621l-1.037,1.206
			c-0.397-0.306-0.873-0.459-1.428-0.459c-0.329,0-0.629,0.058-0.901,0.171s-0.507,0.266-0.706,0.459
			c-0.198,0.192-0.351,0.422-0.459,0.688c-0.108,0.266-0.162,0.558-0.162,0.875c0,0.306,0.054,0.593,0.162,0.858
			c0.108,0.267,0.261,0.502,0.459,0.706s0.434,0.362,0.706,0.476s0.572,0.17,0.901,0.17
			C114.76,233.005,115.236,232.846,115.622,232.529z"/>
		<path fill="#FFF7DC" d="M117.831,224.386c0-0.294,0.107-0.538,0.323-0.73c0.215-0.192,0.447-0.289,0.697-0.289
			c0.249,0,0.479,0.097,0.688,0.289c0.209,0.192,0.314,0.437,0.314,0.73c0,0.307-0.105,0.553-0.314,0.74
			c-0.21,0.187-0.439,0.28-0.688,0.28c-0.25,0-0.482-0.094-0.697-0.28C117.939,224.938,117.831,224.692,117.831,224.386z
			 M119.65,234.416h-1.632v-7.225h1.632V234.416z"/>
		<path fill="#FFF7DC" d="M125.771,227.837c-0.068,0.103-0.15,0.219-0.247,0.349c-0.097,0.131-0.19,0.252-0.281,0.365
			s-0.198,0.255-0.323,0.425c-0.113-0.079-0.224-0.142-0.332-0.187c-0.108-0.045-0.232-0.088-0.374-0.128
			c-0.142-0.039-0.286-0.06-0.434-0.06c-0.159,0-0.326,0.037-0.501,0.111c-0.176,0.073-0.264,0.224-0.264,0.45
			c0,0.192,0.077,0.354,0.229,0.484c0.153,0.131,0.34,0.249,0.561,0.357c0.221,0.107,0.465,0.218,0.731,0.331
			c0.267,0.113,0.51,0.255,0.731,0.425c0.221,0.17,0.408,0.383,0.561,0.638c0.153,0.255,0.229,0.569,0.229,0.943
			c0,0.329-0.059,0.629-0.178,0.901c-0.119,0.271-0.289,0.504-0.51,0.697c-0.221,0.192-0.484,0.346-0.791,0.459
			c-0.306,0.112-0.651,0.17-1.037,0.17c-0.465,0-0.916-0.08-1.352-0.238c-0.437-0.158-0.779-0.385-1.029-0.68
			c0.08-0.091,0.176-0.204,0.289-0.341c0.113-0.136,0.221-0.266,0.323-0.391c0.102-0.124,0.227-0.271,0.374-0.442
			c0-0.011,0.037,0.009,0.11,0.06c0.074,0.052,0.173,0.111,0.297,0.179c0.125,0.068,0.272,0.131,0.442,0.188
			c0.17,0.057,0.345,0.085,0.527,0.085c0.283,0,0.501-0.062,0.654-0.188c0.153-0.124,0.229-0.277,0.229-0.459
			c0-0.181-0.076-0.328-0.229-0.441c-0.153-0.113-0.34-0.219-0.561-0.314c-0.221-0.097-0.465-0.201-0.731-0.314
			s-0.51-0.256-0.731-0.426c-0.221-0.17-0.408-0.388-0.561-0.654c-0.153-0.266-0.229-0.604-0.229-1.012
			c0-0.407,0.074-0.748,0.221-1.02c0.147-0.272,0.337-0.493,0.569-0.663s0.484-0.292,0.757-0.365c0.272-0.074,0.538-0.11,0.799-0.11
			c0.351,0,0.717,0.07,1.097,0.212C125.19,227.375,125.509,227.576,125.771,227.837z"/>
		<path fill="#FFF7DC" d="M131.72,227.837c-0.068,0.103-0.15,0.219-0.247,0.349c-0.097,0.131-0.19,0.252-0.281,0.365
			s-0.198,0.255-0.323,0.425c-0.113-0.079-0.224-0.142-0.332-0.187c-0.108-0.045-0.232-0.088-0.374-0.128
			c-0.142-0.039-0.286-0.06-0.434-0.06c-0.159,0-0.326,0.037-0.501,0.111c-0.176,0.073-0.264,0.224-0.264,0.45
			c0,0.192,0.077,0.354,0.229,0.484c0.153,0.131,0.34,0.249,0.561,0.357c0.221,0.107,0.465,0.218,0.731,0.331
			c0.267,0.113,0.51,0.255,0.731,0.425c0.221,0.17,0.408,0.383,0.561,0.638c0.153,0.255,0.229,0.569,0.229,0.943
			c0,0.329-0.059,0.629-0.178,0.901c-0.119,0.271-0.289,0.504-0.51,0.697c-0.221,0.192-0.484,0.346-0.791,0.459
			c-0.306,0.112-0.651,0.17-1.037,0.17c-0.465,0-0.916-0.08-1.352-0.238c-0.437-0.158-0.779-0.385-1.029-0.68
			c0.08-0.091,0.176-0.204,0.289-0.341c0.113-0.136,0.221-0.266,0.323-0.391c0.102-0.124,0.227-0.271,0.374-0.442
			c0-0.011,0.037,0.009,0.11,0.06c0.074,0.052,0.173,0.111,0.297,0.179c0.125,0.068,0.272,0.131,0.442,0.188
			c0.17,0.057,0.345,0.085,0.527,0.085c0.283,0,0.501-0.062,0.654-0.188c0.153-0.124,0.229-0.277,0.229-0.459
			c0-0.181-0.076-0.328-0.229-0.441c-0.153-0.113-0.34-0.219-0.561-0.314c-0.221-0.097-0.465-0.201-0.731-0.314
			s-0.51-0.256-0.731-0.426c-0.221-0.17-0.408-0.388-0.561-0.654c-0.153-0.266-0.229-0.604-0.229-1.012
			c0-0.407,0.074-0.748,0.221-1.02c0.147-0.272,0.337-0.493,0.569-0.663s0.484-0.292,0.757-0.365c0.272-0.074,0.538-0.11,0.799-0.11
			c0.351,0,0.717,0.07,1.097,0.212C131.139,227.375,131.459,227.576,131.72,227.837z"/>
		<path fill="#FFF7DC" d="M139.761,233.583c-0.352,0.317-0.776,0.566-1.275,0.748c-0.499,0.181-1.009,0.271-1.53,0.271
			c-0.533,0-1.034-0.099-1.504-0.297s-0.878-0.471-1.224-0.816s-0.62-0.748-0.824-1.207s-0.306-0.949-0.306-1.47
			c0-0.521,0.102-1.012,0.306-1.471s0.479-0.861,0.824-1.207s0.748-0.618,1.207-0.816s0.944-0.297,1.454-0.297
			c0.816,0,1.533,0.246,2.15,0.739s1.057,1.142,1.318,1.946c-0.34,0.125-0.734,0.275-1.182,0.45
			c-0.448,0.176-0.916,0.36-1.402,0.553c-0.488,0.193-0.975,0.389-1.462,0.587s-0.935,0.377-1.343,0.535
			c0.192,0.352,0.459,0.635,0.799,0.85c0.34,0.216,0.725,0.323,1.156,0.323c0.294,0,0.592-0.054,0.893-0.161
			c0.3-0.107,0.546-0.252,0.739-0.434L139.761,233.583z M138.333,229.333c-0.136-0.249-0.34-0.434-0.612-0.553
			s-0.539-0.179-0.799-0.179c-0.306,0-0.595,0.06-0.867,0.179s-0.504,0.278-0.697,0.477c-0.193,0.198-0.346,0.425-0.459,0.68
			c-0.114,0.255-0.17,0.519-0.17,0.79v0.068c0.283-0.113,0.587-0.235,0.91-0.365c0.323-0.13,0.646-0.264,0.969-0.399
			c0.323-0.137,0.631-0.264,0.926-0.383C137.828,229.528,138.095,229.424,138.333,229.333z"/>
		<path fill="#FFF7DC" d="M145.728,227.837c-0.068,0.103-0.15,0.219-0.247,0.349c-0.097,0.131-0.19,0.252-0.281,0.365
			s-0.198,0.255-0.323,0.425c-0.113-0.079-0.224-0.142-0.332-0.187c-0.108-0.045-0.232-0.088-0.374-0.128
			c-0.142-0.039-0.286-0.06-0.434-0.06c-0.159,0-0.326,0.037-0.501,0.111c-0.176,0.073-0.264,0.224-0.264,0.45
			c0,0.192,0.077,0.354,0.229,0.484c0.153,0.131,0.34,0.249,0.561,0.357c0.221,0.107,0.465,0.218,0.731,0.331
			c0.267,0.113,0.51,0.255,0.731,0.425c0.221,0.17,0.408,0.383,0.561,0.638c0.153,0.255,0.229,0.569,0.229,0.943
			c0,0.329-0.059,0.629-0.178,0.901c-0.119,0.271-0.289,0.504-0.51,0.697c-0.221,0.192-0.484,0.346-0.791,0.459
			c-0.306,0.112-0.651,0.17-1.037,0.17c-0.465,0-0.916-0.08-1.352-0.238c-0.437-0.158-0.779-0.385-1.029-0.68
			c0.08-0.091,0.176-0.204,0.289-0.341c0.113-0.136,0.221-0.266,0.323-0.391c0.102-0.124,0.227-0.271,0.374-0.442
			c0-0.011,0.037,0.009,0.11,0.06c0.074,0.052,0.173,0.111,0.297,0.179c0.125,0.068,0.272,0.131,0.442,0.188
			c0.17,0.057,0.345,0.085,0.527,0.085c0.283,0,0.501-0.062,0.654-0.188c0.153-0.124,0.229-0.277,0.229-0.459
			c0-0.181-0.076-0.328-0.229-0.441c-0.153-0.113-0.34-0.219-0.561-0.314c-0.221-0.097-0.465-0.201-0.731-0.314
			s-0.51-0.256-0.731-0.426c-0.221-0.17-0.408-0.388-0.561-0.654c-0.153-0.266-0.229-0.604-0.229-1.012
			c0-0.407,0.074-0.748,0.221-1.02c0.147-0.272,0.337-0.493,0.569-0.663s0.484-0.292,0.757-0.365c0.272-0.074,0.538-0.11,0.799-0.11
			c0.351,0,0.717,0.07,1.097,0.212C145.147,227.375,145.467,227.576,145.728,227.837z"/>
		<path fill="#FFF7DC" d="M153.922,234.841c-0.68-1.28-1.326-2.553-1.938-3.816c-0.612-1.264-1.241-2.541-1.887-3.833h1.768
			c0.431,0.839,0.768,1.513,1.012,2.022c0.244,0.51,0.433,0.924,0.569,1.241s0.235,0.569,0.297,0.757
			c0.062,0.187,0.122,0.382,0.179,0.586c0.068-0.204,0.133-0.399,0.195-0.586c0.062-0.188,0.162-0.439,0.298-0.757
			c0.136-0.317,0.325-0.731,0.569-1.241c0.244-0.51,0.581-1.184,1.011-2.022h1.751c-0.646,1.292-1.281,2.569-1.904,3.833
			C155.219,232.288,154.579,233.56,153.922,234.841z"/>
		<path fill="#FFF7DC" d="M164.733,233.583c-0.352,0.317-0.776,0.566-1.274,0.748c-0.499,0.181-1.009,0.271-1.53,0.271
			c-0.533,0-1.034-0.099-1.505-0.297c-0.47-0.198-0.878-0.471-1.224-0.816s-0.62-0.748-0.824-1.207s-0.306-0.949-0.306-1.47
			c0-0.521,0.102-1.012,0.306-1.471s0.479-0.861,0.824-1.207s0.748-0.618,1.207-0.816s0.943-0.297,1.453-0.297
			c0.816,0,1.533,0.246,2.15,0.739c0.618,0.493,1.057,1.142,1.318,1.946c-0.341,0.125-0.734,0.275-1.182,0.45
			c-0.448,0.176-0.916,0.36-1.402,0.553c-0.488,0.193-0.976,0.389-1.463,0.587s-0.935,0.377-1.343,0.535
			c0.192,0.352,0.459,0.635,0.799,0.85c0.341,0.216,0.726,0.323,1.156,0.323c0.295,0,0.592-0.054,0.893-0.161
			c0.3-0.107,0.547-0.252,0.739-0.434L164.733,233.583z M163.306,229.333c-0.136-0.249-0.34-0.434-0.612-0.553
			c-0.271-0.119-0.538-0.179-0.799-0.179c-0.306,0-0.595,0.06-0.867,0.179c-0.271,0.119-0.504,0.278-0.696,0.477
			c-0.193,0.198-0.347,0.425-0.459,0.68c-0.114,0.255-0.171,0.519-0.171,0.79v0.068c0.283-0.113,0.587-0.235,0.91-0.365
			s0.646-0.264,0.969-0.399c0.323-0.137,0.632-0.264,0.927-0.383C162.801,229.528,163.067,229.424,163.306,229.333z"/>
		<path fill="#FFF7DC" d="M166.587,227.191h1.428c0.022,0.407,0.048,0.739,0.076,0.994s0.054,0.541,0.077,0.858
			c0.261-0.612,0.629-1.104,1.104-1.479c0.477-0.374,1.071-0.562,1.785-0.562c0.736,0,1.323,0.201,1.76,0.604
			c0.436,0.402,0.665,0.927,0.688,1.572v5.236h-1.615v-4.471c-0.022-0.352-0.147-0.655-0.374-0.91s-0.578-0.394-1.054-0.416
			c-0.329,0-0.632,0.06-0.909,0.179c-0.278,0.119-0.517,0.28-0.715,0.484s-0.351,0.447-0.459,0.73
			c-0.107,0.284-0.161,0.59-0.161,0.918v3.485h-1.632V227.191z"/>
		<path fill="#FFF7DC" d="M175.019,230.812c0-0.567,0.093-1.083,0.28-1.548c0.187-0.464,0.447-0.863,0.782-1.198
			c0.334-0.334,0.725-0.595,1.173-0.782c0.447-0.187,0.938-0.28,1.471-0.28c0.362,0,0.68,0.04,0.952,0.119
			c0.271,0.079,0.504,0.176,0.696,0.289s0.349,0.235,0.468,0.365c0.119,0.131,0.213,0.241,0.28,0.332v-6.971h1.632v13.277h-1.632
			v-0.476c0-0.057,0.006-0.119,0.018-0.188c0.011-0.068,0.017-0.119,0.017-0.153c-0.102,0.103-0.227,0.213-0.374,0.332
			s-0.323,0.229-0.527,0.331c-0.204,0.103-0.434,0.185-0.688,0.247c-0.255,0.062-0.547,0.093-0.875,0.093
			c-0.578,0-1.097-0.099-1.556-0.297s-0.845-0.471-1.156-0.816s-0.55-0.748-0.714-1.207S175.019,231.333,175.019,230.812z
			 M176.65,230.778c0,0.317,0.054,0.611,0.161,0.884c0.107,0.271,0.261,0.507,0.459,0.705c0.198,0.199,0.434,0.354,0.706,0.468
			c0.271,0.113,0.572,0.17,0.9,0.17c0.329,0,0.632-0.057,0.91-0.17c0.277-0.113,0.516-0.271,0.714-0.476s0.351-0.442,0.459-0.715
			c0.107-0.271,0.161-0.561,0.161-0.866c0-0.307-0.054-0.593-0.161-0.858c-0.108-0.267-0.261-0.496-0.459-0.688
			c-0.198-0.193-0.437-0.346-0.714-0.459c-0.278-0.113-0.581-0.171-0.91-0.171c-0.328,0-0.629,0.055-0.9,0.162
			c-0.272,0.107-0.508,0.261-0.706,0.459s-0.352,0.431-0.459,0.697C176.704,230.185,176.65,230.471,176.65,230.778z"/>
		<path fill="#FFF7DC" d="M191.627,234.586h-1.359l-0.204-2.006c-0.261,0.578-0.621,1.057-1.08,1.437s-1.062,0.569-1.811,0.569
			s-1.34-0.195-1.776-0.586c-0.437-0.392-0.666-0.91-0.688-1.556v-5.253h1.632v4.487c0.022,0.352,0.145,0.649,0.366,0.893
			c0.221,0.244,0.574,0.377,1.062,0.399c0.328,0,0.629-0.057,0.9-0.17c0.272-0.113,0.507-0.271,0.706-0.476
			c0.198-0.204,0.354-0.448,0.467-0.731s0.17-0.589,0.17-0.918v-3.484h1.615V234.586z"/>
		<path fill="#FFF7DC" d="M199.838,233.583c-0.352,0.317-0.776,0.566-1.274,0.748c-0.499,0.181-1.009,0.271-1.53,0.271
			c-0.533,0-1.034-0.099-1.505-0.297c-0.47-0.198-0.878-0.471-1.224-0.816s-0.62-0.748-0.824-1.207s-0.307-0.949-0.307-1.47
			c0-0.521,0.103-1.012,0.307-1.471s0.479-0.861,0.824-1.207s0.748-0.618,1.207-0.816s0.943-0.297,1.453-0.297
			c0.816,0,1.533,0.246,2.15,0.739c0.618,0.493,1.057,1.142,1.318,1.946c-0.341,0.125-0.734,0.275-1.182,0.45
			c-0.448,0.176-0.916,0.36-1.402,0.553c-0.488,0.193-0.976,0.389-1.463,0.587s-0.935,0.377-1.343,0.535
			c0.192,0.352,0.459,0.635,0.799,0.85c0.341,0.216,0.726,0.323,1.156,0.323c0.295,0,0.592-0.054,0.893-0.161
			c0.3-0.107,0.547-0.252,0.739-0.434L199.838,233.583z M198.41,229.333c-0.136-0.249-0.34-0.434-0.612-0.553
			c-0.271-0.119-0.538-0.179-0.799-0.179c-0.306,0-0.595,0.06-0.867,0.179c-0.271,0.119-0.504,0.278-0.696,0.477
			c-0.193,0.198-0.347,0.425-0.459,0.68c-0.114,0.255-0.171,0.519-0.171,0.79v0.068c0.283-0.113,0.587-0.235,0.91-0.365
			s0.646-0.264,0.969-0.399c0.323-0.137,0.632-0.264,0.927-0.383C197.905,229.528,198.172,229.424,198.41,229.333z"/>
		<path fill="#FFF7DC" d="M205.806,227.837c-0.068,0.103-0.15,0.219-0.247,0.349c-0.097,0.131-0.189,0.252-0.28,0.365
			s-0.198,0.255-0.323,0.425c-0.113-0.079-0.224-0.142-0.331-0.187c-0.108-0.045-0.232-0.088-0.374-0.128
			c-0.143-0.039-0.286-0.06-0.434-0.06c-0.159,0-0.326,0.037-0.502,0.111c-0.176,0.073-0.264,0.224-0.264,0.45
			c0,0.192,0.077,0.354,0.229,0.484c0.153,0.131,0.341,0.249,0.562,0.357c0.221,0.107,0.465,0.218,0.73,0.331
			c0.267,0.113,0.511,0.255,0.731,0.425s0.408,0.383,0.561,0.638c0.153,0.255,0.229,0.569,0.229,0.943
			c0,0.329-0.059,0.629-0.178,0.901c-0.119,0.271-0.289,0.504-0.511,0.697c-0.221,0.192-0.484,0.346-0.79,0.459
			c-0.306,0.112-0.651,0.17-1.037,0.17c-0.465,0-0.915-0.08-1.352-0.238s-0.779-0.385-1.028-0.68
			c0.079-0.091,0.176-0.204,0.289-0.341c0.113-0.136,0.221-0.266,0.323-0.391c0.102-0.124,0.227-0.271,0.374-0.442
			c0-0.011,0.036,0.009,0.11,0.06c0.073,0.052,0.173,0.111,0.297,0.179c0.125,0.068,0.272,0.131,0.442,0.188
			s0.346,0.085,0.527,0.085c0.283,0,0.501-0.062,0.654-0.188c0.153-0.124,0.229-0.277,0.229-0.459c0-0.181-0.076-0.328-0.229-0.441
			s-0.34-0.219-0.562-0.314c-0.221-0.097-0.465-0.201-0.73-0.314c-0.267-0.113-0.51-0.256-0.731-0.426
			c-0.221-0.17-0.407-0.388-0.561-0.654c-0.153-0.266-0.229-0.604-0.229-1.012c0-0.407,0.073-0.748,0.221-1.02
			c0.147-0.272,0.337-0.493,0.569-0.663s0.484-0.292,0.757-0.365c0.272-0.074,0.538-0.11,0.799-0.11c0.352,0,0.717,0.07,1.097,0.212
			S205.544,227.576,205.806,227.837z"/>
	</g>
	<g>
		<path fill="#E58C4A" d="M99.729,144.279c0,0,0-8.662,17.325-8.662c7.155,0,13.755-2.901,18.815-7.912
			c7.002-6.934,4.042-24.774,15.834-26.739c10.396-1.733,13.86,10.395,12.128,22.523c-1.731,12.127-8.663,20.79-15.593,25.988
			s-22.522,12.128-39.848,8.663C108.391,158.139,97.995,156.408,99.729,144.279z"/>
		<path fill="#1B0A09" d="M130.444,133.851c0,0,6.646,7.477,17.999,7.199C148.443,141.05,144.566,134.681,130.444,133.851z"/>
		<path fill="#1B0A09" d="M143.95,126.07c0,0,7.493-3.726,15.242,1.311C159.191,127.381,154.619,131.022,143.95,126.07z"/>
		<path fill="#1B0A09" d="M145.49,116.06c0,0,7.493-3.726,15.242,1.311C160.731,117.371,156.159,121.012,145.49,116.06z"/>
		<path fill="#1B0A09" d="M114.152,139.912c0,0,11.054-0.938,18.147,9.049C132.3,148.96,124.889,151.218,114.152,139.912z"/>
		<path fill="#E58C4A" d="M132.068,172.192c0,0,0-8.663,17.325-8.663c7.155,0,13.755-2.9,18.815-7.91
			c7.002-6.935,4.042-24.775,15.834-26.74c10.396-1.733,13.86,10.395,12.128,22.523c-1.732,12.129-8.663,20.79-15.593,25.988
			c-6.93,5.197-22.522,12.128-39.848,8.663C140.73,186.052,130.335,184.32,132.068,172.192z"/>
		<path fill="#1B0A09" d="M162.784,161.763c0,0,6.646,7.477,17.999,7.199C180.783,168.962,176.907,162.593,162.784,161.763z"/>
		<path fill="#1B0A09" d="M176.29,153.983c0,0,7.493-3.726,15.242,1.312C191.532,155.294,186.959,158.935,176.29,153.983z"/>
		<path fill="#1B0A09" d="M177.83,143.973c0,0,7.493-3.726,15.242,1.312C193.072,145.285,188.499,148.925,177.83,143.973z"/>
		<path fill="#1B0A09" d="M146.492,167.824c0,0,11.054-0.939,18.148,9.049C164.641,176.873,157.229,179.132,146.492,167.824z"/>
	</g>
</g>
<polygon fill="#1D2B40" points="894.057,98.42 903.827,88.608 911.563,100.091 923.013,92.306 928.435,105.045 941.151,99.567 
	944.065,113.102 957.587,110.131 957.886,123.974 971.728,123.613 969.401,137.263 983.062,139.528 978.194,152.49 991.177,157.302 
	983.944,169.108 995.784,176.289 986.448,186.515 996.714,195.804 985.61,204.08 993.932,215.145 981.466,221.167 987.542,233.606 
	974.161,237.162 977.774,250.528 963.962,251.485 964.979,265.294 951.235,263.621 949.62,277.373 936.442,273.126 932.253,286.326 
	920.116,279.664 913.507,291.83 902.849,282.992 894.057,293.687 885.267,282.992 874.608,291.83 867.999,279.664 855.862,286.326 
	851.673,273.126 838.495,277.373 836.88,263.621 823.136,265.294 824.153,251.485 810.341,250.528 813.954,237.162 800.573,233.606 
	806.649,221.167 794.182,215.145 802.505,204.08 791.401,195.804 801.667,186.515 792.331,176.289 804.171,169.108 796.938,157.302 
	809.921,152.49 805.054,139.528 818.714,137.263 816.388,123.613 830.229,123.974 830.528,110.131 844.05,113.102 846.964,99.567 
	859.681,105.045 865.103,92.306 876.552,100.091 884.29,88.608 "/>
<rect x="821.729" y="189.554" fill="none" width="144" height="68.999"/>
<text transform="matrix(1 0 0 1 832.7607 202.8296)" fill="#FFF7DC" font-family="'JosefinSans-Bold'" font-size="17">2000 canards en </text>
<text transform="matrix(1 0 0 1 837.7412 223.229)" fill="#FFF7DC" font-family="'JosefinSans-Bold'" font-size="17">plastique jaunes </text>
<text transform="matrix(1 0 0 1 826.9043 243.6304)" fill="#FFF7DC" font-family="'JosefinSans-Bold'" font-size="17">lâchés dans l’Erdre.</text>
<g>
	<path fill="#E58C4A" d="M909.099,141.341c0.498,0.4,0.832,0.688,1.188,0.95c6.02,4.437,8.35,12.101,5.674,19.018
		c-1.797,4.646-5.435,7.274-10.096,8.53c-4.447,1.199-9.027,1.055-13.571,0.888c-2.52-0.093-5.059-0.392-7.533-0.877
		c-6.235-1.228-10.311-5.05-12.543-10.929c-1.214-3.196-2.215-6.457-2.628-9.858c-0.146-1.213-0.169-2.482,0.012-3.687
		c0.417-2.764,2.437-4.3,5.201-3.902c1.852,0.266,3.708,0.687,5.478,1.29c3.036,1.036,6.01,0.776,9.012-0.003
		c0.211-0.055,0.404-0.181,0.732-0.332c-0.271-0.39-0.472-0.746-0.733-1.049c-6.276-7.244-2.787-18.064,6.535-20.255
		c5.197-1.222,10.943,1.481,13.483,6.342c0.967,1.849,1.46,2.118,3.55,1.961c0.646-0.049,1.303-0.16,1.939-0.095
		c2.533,0.258,3.744,2.002,2.952,4.444c-0.329,1.016-0.96,1.991-1.651,2.82c-1.505,1.803-3.545,2.923-5.602,3.988
		C910.096,140.792,909.704,141.013,909.099,141.341z"/>
	<path fill="none" stroke="#1D2B40" stroke-miterlimit="10" d="M895.836,132.377c0,0,5.623,1.757,7.028-1.757"/>
</g>
</svg>
