<?xml version="1.0" encoding="utf-8"?>
<!-- Generator: Adobe Illustrator 17.0.0, SVG Export Plug-In . SVG Version: 6.00 Build 0)  -->
<!DOCTYPE svg PUBLIC "-//W3C//DTD SVG 1.1//EN" "http://www.w3.org/Graphics/SVG/1.1/DTD/svg11.dtd">
<svg version="1.1" id="Calque_1" xmlns="http://www.w3.org/2000/svg" xmlns:xlink="http://www.w3.org/1999/xlink" x="0px" y="0px"
	 width="316.049px" height="314.816px" viewBox="0 0 316.049 314.816" enable-background="new 0 0 316.049 314.816"
	 xml:space="preserve">
<g enable-background="new    ">
	<path fill="#FFF7DC" d="M454.062,44.325h3.672v1.7h-7.854c0.702-0.714,1.382-1.402,2.04-2.065c0.657-0.663,1.241-1.306,1.751-1.93
		c0.51-0.623,0.92-1.229,1.232-1.819c0.312-0.589,0.467-1.155,0.467-1.699c0-0.363-0.065-0.681-0.195-0.952
		c-0.13-0.272-0.292-0.496-0.484-0.672c-0.193-0.176-0.403-0.309-0.629-0.399s-0.436-0.136-0.629-0.136
		c-0.397,0-0.723,0.07-0.978,0.212c-0.255,0.143-0.459,0.31-0.612,0.502s-0.258,0.396-0.314,0.612
		c-0.057,0.215-0.085,0.396-0.085,0.544c0,0.374,0.06,0.705,0.178,0.994c0.119,0.289,0.286,0.541,0.501,0.757l-1.037,1.07
		c-0.227-0.112-0.425-0.285-0.595-0.518c-0.17-0.233-0.314-0.485-0.434-0.757c-0.119-0.272-0.21-0.544-0.272-0.816
		c-0.062-0.271-0.093-0.516-0.093-0.73c0-0.453,0.082-0.896,0.246-1.326c0.165-0.431,0.405-0.811,0.723-1.139
		c0.317-0.329,0.708-0.593,1.173-0.791s0.998-0.298,1.598-0.298c0.555,0,1.062,0.1,1.521,0.298c0.459,0.198,0.85,0.465,1.173,0.799
		c0.323,0.335,0.572,0.723,0.748,1.165c0.176,0.441,0.264,0.9,0.264,1.377c0,0.544-0.083,1.07-0.247,1.581
		c-0.165,0.51-0.385,1.011-0.663,1.504c-0.278,0.493-0.604,0.983-0.978,1.471C454.878,43.351,454.481,43.838,454.062,44.325z"/>
	<path fill="#FFF7DC" d="M461.525,44.529l-1.496,3.57h-1.564c0.227-0.601,0.448-1.193,0.663-1.776
		c0.215-0.584,0.436-1.182,0.663-1.794H461.525z"/>
	<path fill="#FFF7DC" d="M463.955,40.942v-6.137h4.964v1.683h-3.451v2.159c0.057-0.022,0.11-0.04,0.162-0.051
		c0.051-0.012,0.127-0.018,0.229-0.018c0.578,0,1.105,0.1,1.581,0.298c0.476,0.198,0.878,0.468,1.207,0.808s0.583,0.733,0.765,1.182
		c0.181,0.447,0.272,0.921,0.272,1.419c0,0.544-0.102,1.055-0.306,1.53s-0.482,0.887-0.833,1.232
		c-0.352,0.346-0.76,0.618-1.224,0.816c-0.465,0.198-0.958,0.297-1.479,0.297c-0.51,0-0.989-0.093-1.437-0.28
		s-0.847-0.45-1.198-0.79c0.215-0.204,0.43-0.402,0.646-0.596c0.215-0.192,0.425-0.385,0.629-0.578
		c0.181,0.159,0.388,0.289,0.621,0.392c0.232,0.102,0.49,0.152,0.773,0.152c0.283,0,0.549-0.056,0.799-0.17
		c0.249-0.112,0.467-0.263,0.654-0.45c0.187-0.187,0.337-0.408,0.451-0.663s0.17-0.529,0.17-0.824c0-0.283-0.057-0.553-0.17-0.808
		s-0.264-0.479-0.451-0.672c-0.187-0.192-0.408-0.343-0.663-0.45c-0.255-0.107-0.524-0.161-0.808-0.161
		c-0.295,0-0.612,0.036-0.952,0.11C464.568,40.446,464.25,40.637,463.955,40.942z"/>
	<path fill="#FFF7DC" d="M475.924,35.639h1.615v3.162h1.887v1.462h-1.887v5.763h-1.615v-5.763H474.7v-1.462h1.224
		C475.924,38.801,475.924,35.639,475.924,35.639z"/>
	<path fill="#FFF7DC" d="M480.037,42.404c0-0.521,0.099-1.012,0.297-1.471s0.473-0.858,0.825-1.198
		c0.351-0.34,0.762-0.609,1.232-0.808s0.972-0.297,1.504-0.297c0.544,0,1.048,0.099,1.513,0.297
		c0.464,0.198,0.864,0.468,1.198,0.808s0.598,0.739,0.791,1.198s0.289,0.949,0.289,1.471s-0.093,1.015-0.28,1.479
		c-0.187,0.464-0.451,0.869-0.791,1.215s-0.743,0.618-1.207,0.816c-0.465,0.198-0.975,0.297-1.53,0.297
		c-0.533,0-1.032-0.091-1.496-0.271c-0.465-0.182-0.87-0.439-1.216-0.773s-0.62-0.736-0.824-1.207S480.037,42.972,480.037,42.404z
		 M481.653,42.422c0,0.306,0.057,0.592,0.17,0.858c0.113,0.266,0.269,0.498,0.467,0.696c0.198,0.199,0.431,0.354,0.697,0.468
		c0.266,0.113,0.552,0.17,0.858,0.17c0.306,0,0.592-0.057,0.858-0.17c0.266-0.113,0.499-0.269,0.697-0.468
		c0.198-0.198,0.357-0.431,0.476-0.696c0.119-0.267,0.179-0.553,0.179-0.858c0-0.307-0.06-0.593-0.179-0.859
		c-0.119-0.266-0.278-0.498-0.476-0.696c-0.199-0.198-0.431-0.357-0.697-0.477c-0.267-0.119-0.552-0.179-0.858-0.179
		c-0.306,0-0.592,0.06-0.858,0.179c-0.267,0.119-0.499,0.278-0.697,0.477s-0.354,0.431-0.467,0.696
		C481.709,41.829,481.653,42.115,481.653,42.422z"/>
	<path fill="#FFF7DC" d="M489.234,38.801h1.428c0.022,0.407,0.048,0.739,0.076,0.994s0.054,0.541,0.077,0.858
		c0.261-0.612,0.629-1.104,1.105-1.479c0.476-0.375,1.071-0.562,1.785-0.562c0.736,0,1.323,0.201,1.759,0.604
		c0.436,0.402,0.666,0.927,0.688,1.572v5.236h-1.615v-4.471c-0.023-0.352-0.147-0.655-0.374-0.91
		c-0.227-0.255-0.578-0.394-1.054-0.416c-0.329,0-0.632,0.06-0.909,0.179c-0.278,0.119-0.516,0.28-0.714,0.484
		s-0.351,0.447-0.459,0.73c-0.108,0.284-0.162,0.59-0.162,0.918v3.485h-1.632v-7.222H489.234z"/>
	<path fill="#FFF7DC" d="M498.108,38.801h1.428c0.022,0.407,0.048,0.739,0.076,0.994c0.028,0.255,0.054,0.541,0.077,0.858
		c0.261-0.612,0.629-1.104,1.105-1.479s1.071-0.562,1.785-0.562c0.736,0,1.323,0.201,1.759,0.604
		c0.436,0.402,0.666,0.927,0.688,1.572v5.236h-1.615v-4.471c-0.023-0.352-0.147-0.655-0.374-0.91
		c-0.227-0.255-0.578-0.394-1.054-0.416c-0.329,0-0.632,0.06-0.909,0.179c-0.278,0.119-0.516,0.28-0.714,0.484
		s-0.351,0.447-0.459,0.73c-0.108,0.284-0.162,0.59-0.162,0.918v3.485h-1.632v-7.222H498.108z"/>
	<path fill="#FFF7DC" d="M513.186,45.192c-0.352,0.317-0.776,0.566-1.274,0.748c-0.499,0.181-1.009,0.271-1.53,0.271
		c-0.533,0-1.034-0.099-1.505-0.297c-0.47-0.198-0.878-0.471-1.224-0.816c-0.346-0.345-0.62-0.748-0.824-1.207
		c-0.204-0.459-0.306-0.949-0.306-1.47s0.102-1.012,0.306-1.471c0.204-0.459,0.479-0.861,0.824-1.207
		c0.345-0.346,0.748-0.618,1.207-0.816c0.459-0.198,0.943-0.297,1.453-0.297c0.816,0,1.533,0.246,2.15,0.739
		c0.618,0.493,1.057,1.142,1.318,1.946c-0.341,0.125-0.734,0.275-1.182,0.45c-0.448,0.176-0.916,0.36-1.402,0.553
		c-0.488,0.193-0.976,0.389-1.463,0.587s-0.935,0.377-1.343,0.535c0.192,0.352,0.459,0.635,0.799,0.85
		c0.341,0.216,0.726,0.323,1.156,0.323c0.295,0,0.592-0.054,0.893-0.161c0.3-0.107,0.547-0.252,0.739-0.434L513.186,45.192z
		 M511.758,40.942c-0.136-0.249-0.34-0.434-0.612-0.553c-0.271-0.119-0.538-0.179-0.799-0.179c-0.306,0-0.595,0.06-0.867,0.179
		c-0.271,0.119-0.504,0.278-0.696,0.477c-0.193,0.198-0.347,0.425-0.459,0.68c-0.114,0.255-0.171,0.519-0.171,0.79v0.068
		c0.283-0.113,0.587-0.235,0.91-0.365s0.646-0.264,0.969-0.399c0.323-0.137,0.632-0.264,0.927-0.383
		C511.254,41.138,511.52,41.033,511.758,40.942z"/>
	<path fill="#FFF7DC" d="M519.154,39.446c-0.068,0.103-0.15,0.219-0.247,0.349c-0.097,0.131-0.189,0.252-0.28,0.365
		s-0.198,0.255-0.323,0.425c-0.113-0.079-0.224-0.142-0.331-0.187c-0.108-0.045-0.232-0.088-0.374-0.128
		c-0.143-0.039-0.286-0.06-0.434-0.06c-0.159,0-0.326,0.037-0.502,0.111c-0.176,0.073-0.264,0.224-0.264,0.45
		c0,0.192,0.077,0.354,0.229,0.484c0.153,0.131,0.341,0.249,0.562,0.357c0.221,0.107,0.465,0.218,0.73,0.331
		c0.267,0.113,0.511,0.255,0.731,0.425c0.22,0.17,0.408,0.383,0.561,0.638s0.229,0.569,0.229,0.943c0,0.329-0.059,0.629-0.178,0.901
		c-0.119,0.271-0.289,0.504-0.511,0.697c-0.221,0.192-0.484,0.346-0.79,0.459c-0.306,0.112-0.651,0.17-1.037,0.17
		c-0.465,0-0.915-0.08-1.352-0.238s-0.779-0.385-1.028-0.68c0.079-0.091,0.176-0.204,0.289-0.341
		c0.113-0.136,0.221-0.266,0.323-0.391c0.102-0.124,0.227-0.271,0.374-0.442c0-0.011,0.036,0.009,0.11,0.06
		c0.073,0.052,0.173,0.111,0.297,0.179c0.125,0.068,0.272,0.131,0.442,0.188s0.346,0.085,0.527,0.085
		c0.283,0,0.501-0.062,0.654-0.188c0.153-0.124,0.229-0.277,0.229-0.459c0-0.181-0.076-0.328-0.229-0.441s-0.34-0.219-0.562-0.314
		c-0.221-0.097-0.465-0.201-0.73-0.314c-0.267-0.113-0.51-0.256-0.731-0.426s-0.407-0.388-0.561-0.654
		c-0.153-0.266-0.229-0.604-0.229-1.012c0-0.407,0.073-0.748,0.221-1.02c0.147-0.272,0.337-0.493,0.569-0.663
		s0.484-0.292,0.757-0.365c0.272-0.074,0.538-0.11,0.799-0.11c0.352,0,0.717,0.07,1.097,0.212S518.892,39.186,519.154,39.446z"/>
	<path fill="#FFF7DC" d="M524.424,42.422c0-0.567,0.093-1.083,0.28-1.548c0.187-0.464,0.447-0.863,0.782-1.198
		c0.334-0.334,0.725-0.595,1.173-0.782c0.447-0.187,0.938-0.28,1.471-0.28c0.362,0,0.68,0.04,0.952,0.119
		c0.271,0.079,0.504,0.176,0.696,0.289s0.349,0.235,0.468,0.365c0.119,0.131,0.213,0.241,0.28,0.332v-6.971h1.632v13.277h-1.632
		v-0.476c0-0.057,0.006-0.119,0.018-0.188c0.011-0.068,0.017-0.119,0.017-0.153c-0.102,0.103-0.227,0.213-0.374,0.332
		s-0.323,0.229-0.527,0.331c-0.204,0.103-0.434,0.185-0.688,0.247c-0.255,0.062-0.547,0.093-0.875,0.093
		c-0.578,0-1.097-0.099-1.556-0.297s-0.845-0.471-1.156-0.816s-0.55-0.748-0.714-1.207S524.424,42.942,524.424,42.422z
		 M526.055,42.388c0,0.317,0.054,0.611,0.161,0.884c0.107,0.271,0.261,0.507,0.459,0.705c0.198,0.199,0.434,0.354,0.706,0.468
		c0.271,0.113,0.572,0.17,0.9,0.17c0.329,0,0.632-0.057,0.91-0.17c0.277-0.113,0.516-0.271,0.714-0.476s0.351-0.442,0.459-0.715
		c0.107-0.271,0.161-0.561,0.161-0.866c0-0.307-0.054-0.593-0.161-0.858c-0.108-0.267-0.261-0.496-0.459-0.688
		c-0.198-0.193-0.437-0.346-0.714-0.459c-0.278-0.113-0.581-0.171-0.91-0.171c-0.328,0-0.629,0.055-0.9,0.162
		c-0.272,0.107-0.508,0.261-0.706,0.459s-0.352,0.431-0.459,0.697C526.109,41.795,526.055,42.081,526.055,42.388z"/>
	<path fill="#FFF7DC" d="M540.369,45.192c-0.352,0.317-0.776,0.566-1.274,0.748c-0.499,0.181-1.009,0.271-1.53,0.271
		c-0.533,0-1.034-0.099-1.505-0.297c-0.47-0.198-0.878-0.471-1.224-0.816s-0.62-0.748-0.824-1.207
		c-0.204-0.459-0.307-0.949-0.307-1.47s0.103-1.012,0.307-1.471c0.204-0.459,0.479-0.861,0.824-1.207s0.748-0.618,1.207-0.816
		c0.459-0.198,0.943-0.297,1.453-0.297c0.816,0,1.533,0.246,2.15,0.739c0.618,0.493,1.057,1.142,1.318,1.946
		c-0.341,0.125-0.734,0.275-1.182,0.45c-0.448,0.176-0.916,0.36-1.402,0.553c-0.488,0.193-0.976,0.389-1.463,0.587
		s-0.935,0.377-1.343,0.535c0.192,0.352,0.459,0.635,0.799,0.85c0.341,0.216,0.726,0.323,1.156,0.323
		c0.295,0,0.592-0.054,0.893-0.161c0.3-0.107,0.547-0.252,0.739-0.434L540.369,45.192z M538.941,40.942
		c-0.136-0.249-0.34-0.434-0.612-0.553c-0.271-0.119-0.538-0.179-0.799-0.179c-0.306,0-0.595,0.06-0.867,0.179
		c-0.271,0.119-0.504,0.278-0.696,0.477c-0.193,0.198-0.347,0.425-0.459,0.68c-0.114,0.255-0.171,0.519-0.171,0.79v0.068
		c0.283-0.113,0.587-0.235,0.91-0.365s0.646-0.264,0.969-0.399c0.323-0.137,0.632-0.264,0.927-0.383
		C538.436,41.138,538.703,41.033,538.941,40.942z"/>
</g>
<g enable-background="new    ">
	<path fill="#FFF7DC" d="M439.476,59.846c-0.068,0.103-0.15,0.219-0.247,0.349c-0.097,0.131-0.19,0.252-0.281,0.365
		c-0.091,0.113-0.198,0.255-0.323,0.425c-0.113-0.079-0.224-0.142-0.332-0.187c-0.108-0.045-0.232-0.088-0.374-0.128
		c-0.142-0.039-0.286-0.06-0.434-0.06c-0.159,0-0.326,0.037-0.501,0.111c-0.176,0.073-0.264,0.224-0.264,0.45
		c0,0.192,0.077,0.354,0.229,0.484c0.153,0.131,0.34,0.249,0.561,0.357c0.221,0.107,0.465,0.218,0.731,0.331
		c0.267,0.113,0.51,0.255,0.731,0.425s0.408,0.383,0.561,0.638c0.153,0.255,0.229,0.569,0.229,0.943
		c0,0.329-0.059,0.629-0.178,0.901c-0.119,0.271-0.289,0.504-0.51,0.697c-0.221,0.192-0.484,0.346-0.791,0.459
		c-0.306,0.112-0.651,0.17-1.037,0.17c-0.465,0-0.916-0.08-1.352-0.238c-0.437-0.158-0.779-0.385-1.029-0.68
		c0.08-0.091,0.176-0.204,0.289-0.341c0.113-0.136,0.221-0.266,0.323-0.391c0.102-0.124,0.227-0.271,0.374-0.442
		c0-0.011,0.037,0.009,0.11,0.06c0.074,0.052,0.173,0.111,0.297,0.179c0.125,0.068,0.272,0.131,0.442,0.188
		c0.17,0.057,0.345,0.085,0.527,0.085c0.283,0,0.501-0.062,0.654-0.188c0.153-0.124,0.229-0.277,0.229-0.459
		c0-0.181-0.076-0.328-0.229-0.441c-0.153-0.113-0.34-0.219-0.561-0.314c-0.221-0.097-0.465-0.201-0.731-0.314
		c-0.266-0.113-0.51-0.256-0.731-0.426s-0.408-0.388-0.561-0.654c-0.153-0.266-0.229-0.604-0.229-1.012
		c0-0.407,0.074-0.748,0.221-1.02s0.337-0.493,0.569-0.663c0.232-0.17,0.484-0.292,0.757-0.365c0.272-0.074,0.538-0.11,0.799-0.11
		c0.351,0,0.717,0.07,1.097,0.212C438.895,59.384,439.215,59.585,439.476,59.846z"/>
	<path fill="#FFF7DC" d="M440.853,62.889c0-0.521,0.102-1.017,0.306-1.487c0.204-0.47,0.479-0.881,0.824-1.232
		s0.748-0.632,1.207-0.842c0.459-0.209,0.944-0.314,1.454-0.314c0.34,0,0.646,0.043,0.918,0.128s0.507,0.184,0.706,0.297
		c0.199,0.113,0.354,0.229,0.467,0.349s0.187,0.213,0.221,0.28l0.068-0.866h1.581v7.225h-1.649v-0.476
		c0-0.057,0.002-0.111,0.008-0.162s0.009-0.088,0.009-0.11c-0.045,0.057-0.125,0.139-0.238,0.246
		c-0.113,0.108-0.266,0.213-0.459,0.315c-0.193,0.102-0.422,0.189-0.688,0.263c-0.266,0.074-0.575,0.11-0.926,0.11
		c-0.556,0-1.065-0.102-1.53-0.306s-0.867-0.476-1.207-0.815c-0.34-0.341-0.604-0.734-0.791-1.182
		C440.946,63.86,440.853,63.388,440.853,62.889z M442.502,62.787c0,0.317,0.054,0.611,0.162,0.884
		c0.107,0.271,0.261,0.507,0.459,0.705c0.198,0.199,0.434,0.354,0.706,0.468s0.572,0.17,0.901,0.17s0.629-0.057,0.901-0.17
		s0.507-0.271,0.706-0.476s0.351-0.442,0.459-0.715c0.108-0.271,0.162-0.561,0.162-0.866c0-0.307-0.054-0.593-0.162-0.858
		c-0.108-0.267-0.261-0.496-0.459-0.688c-0.198-0.193-0.434-0.346-0.706-0.459s-0.572-0.171-0.901-0.171s-0.629,0.055-0.901,0.162
		s-0.507,0.261-0.706,0.459s-0.352,0.431-0.459,0.697C442.555,62.194,442.502,62.48,442.502,62.787z"/>
	<path fill="#FFF7DC" d="M457.479,66.595h-1.36l-0.204-2.006c-0.261,0.578-0.621,1.057-1.08,1.437
		c-0.459,0.38-1.062,0.569-1.811,0.569s-1.34-0.195-1.776-0.586c-0.437-0.392-0.666-0.91-0.688-1.556V59.2h1.632v4.487
		c0.022,0.352,0.145,0.649,0.366,0.893c0.221,0.244,0.575,0.377,1.062,0.399c0.329,0,0.629-0.057,0.901-0.17
		s0.507-0.271,0.706-0.476c0.198-0.204,0.354-0.448,0.467-0.731s0.17-0.589,0.17-0.918V59.2h1.615V66.595L457.479,66.595z"/>
	<path fill="#FFF7DC" d="M464.313,64.538c0.17,0.215,0.334,0.422,0.493,0.62c0.158,0.198,0.323,0.399,0.493,0.604
		c-0.329,0.261-0.697,0.468-1.105,0.62c-0.408,0.153-0.844,0.229-1.309,0.229c-0.533,0-1.034-0.099-1.504-0.297
		s-0.878-0.471-1.224-0.816c-0.346-0.345-0.62-0.75-0.824-1.215s-0.306-0.958-0.306-1.479s0.102-1.012,0.306-1.471
		s0.479-0.861,0.824-1.207s0.754-0.617,1.224-0.815s0.972-0.298,1.504-0.298c0.476,0,0.921,0.076,1.334,0.229
		c0.413,0.153,0.791,0.36,1.131,0.621l-1.037,1.206c-0.397-0.306-0.873-0.459-1.428-0.459c-0.329,0-0.629,0.058-0.901,0.171
		c-0.272,0.113-0.507,0.266-0.706,0.459c-0.198,0.192-0.351,0.422-0.459,0.688s-0.162,0.558-0.162,0.875
		c0,0.306,0.054,0.593,0.162,0.858c0.108,0.267,0.261,0.502,0.459,0.706s0.434,0.362,0.706,0.476c0.272,0.114,0.572,0.17,0.901,0.17
		C463.451,65.014,463.927,64.855,464.313,64.538z"/>
	<path fill="#FFF7DC" d="M466.522,56.395c0-0.294,0.107-0.538,0.323-0.73c0.215-0.192,0.447-0.289,0.697-0.289
		c0.249,0,0.479,0.097,0.688,0.289s0.314,0.437,0.314,0.73c0,0.307-0.105,0.553-0.314,0.74c-0.21,0.187-0.439,0.28-0.688,0.28
		c-0.25,0-0.482-0.094-0.697-0.28C466.63,56.947,466.522,56.701,466.522,56.395z M468.341,66.425h-1.632V59.2h1.632
		C468.341,59.2,468.341,66.425,468.341,66.425z"/>
	<path fill="#FFF7DC" d="M474.462,59.846c-0.068,0.103-0.15,0.219-0.247,0.349c-0.097,0.131-0.19,0.252-0.281,0.365
		s-0.198,0.255-0.323,0.425c-0.113-0.079-0.224-0.142-0.332-0.187s-0.232-0.088-0.374-0.128c-0.142-0.039-0.286-0.06-0.434-0.06
		c-0.159,0-0.326,0.037-0.501,0.111c-0.176,0.073-0.264,0.224-0.264,0.45c0,0.192,0.077,0.354,0.229,0.484
		c0.153,0.131,0.34,0.249,0.561,0.357c0.221,0.107,0.465,0.218,0.731,0.331c0.267,0.113,0.51,0.255,0.731,0.425
		s0.408,0.383,0.561,0.638s0.229,0.569,0.229,0.943c0,0.329-0.059,0.629-0.178,0.901c-0.119,0.271-0.289,0.504-0.51,0.697
		c-0.221,0.192-0.484,0.346-0.791,0.459c-0.306,0.112-0.651,0.17-1.037,0.17c-0.465,0-0.916-0.08-1.352-0.238
		c-0.437-0.158-0.779-0.385-1.029-0.68c0.08-0.091,0.176-0.204,0.289-0.341c0.113-0.136,0.221-0.266,0.323-0.391
		c0.102-0.124,0.227-0.271,0.374-0.442c0-0.011,0.037,0.009,0.11,0.06c0.074,0.052,0.173,0.111,0.297,0.179
		c0.125,0.068,0.272,0.131,0.442,0.188s0.345,0.085,0.527,0.085c0.283,0,0.501-0.062,0.654-0.188
		c0.153-0.124,0.229-0.277,0.229-0.459c0-0.181-0.076-0.328-0.229-0.441c-0.153-0.113-0.34-0.219-0.561-0.314
		c-0.221-0.097-0.465-0.201-0.731-0.314c-0.266-0.113-0.51-0.256-0.731-0.426s-0.408-0.388-0.561-0.654
		c-0.153-0.266-0.229-0.604-0.229-1.012c0-0.407,0.074-0.748,0.221-1.02c0.147-0.272,0.337-0.493,0.569-0.663
		c0.232-0.17,0.484-0.292,0.757-0.365c0.272-0.074,0.538-0.11,0.799-0.11c0.351,0,0.717,0.07,1.097,0.212
		C473.881,59.384,474.2,59.585,474.462,59.846z"/>
	<path fill="#FFF7DC" d="M480.411,59.846c-0.068,0.103-0.15,0.219-0.247,0.349c-0.097,0.131-0.19,0.252-0.281,0.365
		s-0.198,0.255-0.323,0.425c-0.113-0.079-0.224-0.142-0.332-0.187c-0.108-0.045-0.232-0.088-0.374-0.128
		c-0.142-0.039-0.286-0.06-0.434-0.06c-0.159,0-0.326,0.037-0.501,0.111c-0.176,0.073-0.264,0.224-0.264,0.45
		c0,0.192,0.077,0.354,0.229,0.484c0.153,0.131,0.34,0.249,0.561,0.357c0.221,0.107,0.465,0.218,0.731,0.331
		c0.267,0.113,0.51,0.255,0.731,0.425c0.221,0.17,0.408,0.383,0.561,0.638s0.229,0.569,0.229,0.943c0,0.329-0.059,0.629-0.178,0.901
		c-0.119,0.271-0.289,0.504-0.51,0.697c-0.221,0.192-0.484,0.346-0.791,0.459c-0.306,0.112-0.651,0.17-1.037,0.17
		c-0.465,0-0.916-0.08-1.352-0.238c-0.437-0.158-0.779-0.385-1.029-0.68c0.08-0.091,0.176-0.204,0.289-0.341
		c0.113-0.136,0.221-0.266,0.323-0.391c0.102-0.124,0.227-0.271,0.374-0.442c0-0.011,0.037,0.009,0.11,0.06
		c0.074,0.052,0.173,0.111,0.297,0.179c0.125,0.068,0.272,0.131,0.442,0.188c0.17,0.057,0.345,0.085,0.527,0.085
		c0.283,0,0.501-0.062,0.654-0.188c0.153-0.124,0.229-0.277,0.229-0.459c0-0.181-0.076-0.328-0.229-0.441
		c-0.153-0.113-0.34-0.219-0.561-0.314c-0.221-0.097-0.465-0.201-0.731-0.314s-0.51-0.256-0.731-0.426s-0.408-0.388-0.561-0.654
		c-0.153-0.266-0.229-0.604-0.229-1.012c0-0.407,0.074-0.748,0.221-1.02s0.337-0.493,0.569-0.663s0.484-0.292,0.757-0.365
		c0.272-0.074,0.538-0.11,0.799-0.11c0.351,0,0.717,0.07,1.097,0.212C479.83,59.384,480.15,59.585,480.411,59.846z"/>
	<path fill="#FFF7DC" d="M488.452,65.592c-0.352,0.317-0.776,0.566-1.275,0.748c-0.499,0.181-1.009,0.271-1.53,0.271
		c-0.533,0-1.034-0.099-1.504-0.297c-0.47-0.198-0.878-0.471-1.224-0.816c-0.346-0.345-0.62-0.748-0.824-1.207
		c-0.204-0.459-0.306-0.949-0.306-1.47s0.102-1.012,0.306-1.471c0.204-0.459,0.479-0.861,0.824-1.207
		c0.345-0.346,0.748-0.618,1.207-0.816c0.459-0.198,0.944-0.297,1.454-0.297c0.816,0,1.533,0.246,2.15,0.739
		s1.057,1.142,1.318,1.946c-0.34,0.125-0.734,0.275-1.182,0.45c-0.448,0.176-0.916,0.36-1.402,0.553
		c-0.488,0.193-0.975,0.389-1.462,0.587s-0.935,0.377-1.343,0.535c0.192,0.352,0.459,0.635,0.799,0.85
		c0.34,0.216,0.725,0.323,1.156,0.323c0.294,0,0.592-0.054,0.893-0.161c0.3-0.107,0.546-0.252,0.739-0.434L488.452,65.592z
		 M487.024,61.342c-0.136-0.249-0.34-0.434-0.612-0.553c-0.272-0.119-0.539-0.179-0.799-0.179c-0.306,0-0.595,0.06-0.867,0.179
		s-0.504,0.278-0.697,0.477c-0.193,0.198-0.346,0.425-0.459,0.68c-0.114,0.255-0.17,0.519-0.17,0.79v0.068
		c0.283-0.113,0.587-0.235,0.91-0.365s0.646-0.264,0.969-0.399c0.323-0.137,0.631-0.264,0.926-0.383
		C486.519,61.537,486.786,61.433,487.024,61.342z"/>
	<path fill="#FFF7DC" d="M494.419,59.846c-0.068,0.103-0.15,0.219-0.247,0.349c-0.097,0.131-0.19,0.252-0.281,0.365
		s-0.198,0.255-0.323,0.425c-0.113-0.079-0.224-0.142-0.332-0.187c-0.108-0.045-0.232-0.088-0.374-0.128
		c-0.142-0.039-0.286-0.06-0.434-0.06c-0.159,0-0.326,0.037-0.501,0.111c-0.176,0.073-0.264,0.224-0.264,0.45
		c0,0.192,0.077,0.354,0.229,0.484c0.153,0.131,0.34,0.249,0.561,0.357c0.221,0.107,0.465,0.218,0.731,0.331
		c0.267,0.113,0.51,0.255,0.731,0.425c0.221,0.17,0.408,0.383,0.561,0.638s0.229,0.569,0.229,0.943c0,0.329-0.059,0.629-0.178,0.901
		c-0.119,0.271-0.289,0.504-0.51,0.697c-0.221,0.192-0.484,0.346-0.791,0.459c-0.306,0.112-0.651,0.17-1.037,0.17
		c-0.465,0-0.916-0.08-1.352-0.238c-0.437-0.158-0.779-0.385-1.029-0.68c0.08-0.091,0.176-0.204,0.289-0.341
		c0.113-0.136,0.221-0.266,0.323-0.391c0.102-0.124,0.227-0.271,0.374-0.442c0-0.011,0.037,0.009,0.11,0.06
		c0.074,0.052,0.173,0.111,0.297,0.179c0.125,0.068,0.272,0.131,0.442,0.188s0.345,0.085,0.527,0.085
		c0.283,0,0.501-0.062,0.654-0.188c0.153-0.124,0.229-0.277,0.229-0.459c0-0.181-0.076-0.328-0.229-0.441
		c-0.153-0.113-0.34-0.219-0.561-0.314c-0.221-0.097-0.465-0.201-0.731-0.314c-0.266-0.113-0.51-0.256-0.731-0.426
		c-0.221-0.17-0.408-0.388-0.561-0.654s-0.229-0.604-0.229-1.012c0-0.407,0.074-0.748,0.221-1.02
		c0.147-0.272,0.337-0.493,0.569-0.663s0.484-0.292,0.757-0.365c0.272-0.074,0.538-0.11,0.799-0.11c0.351,0,0.717,0.07,1.097,0.212
		C493.838,59.384,494.158,59.585,494.419,59.846z"/>
	<path fill="#FFF7DC" d="M502.613,66.85c-0.68-1.28-1.326-2.553-1.938-3.816c-0.612-1.264-1.241-2.541-1.887-3.833h1.768
		c0.431,0.839,0.768,1.513,1.012,2.022c0.244,0.51,0.433,0.924,0.569,1.241c0.136,0.317,0.235,0.569,0.297,0.757
		c0.062,0.187,0.122,0.382,0.179,0.586c0.068-0.204,0.133-0.399,0.195-0.586c0.062-0.188,0.162-0.439,0.298-0.757
		c0.136-0.317,0.325-0.731,0.569-1.241s0.581-1.184,1.011-2.022h1.751c-0.646,1.292-1.281,2.569-1.904,3.833
		C503.91,64.297,503.27,65.569,502.613,66.85z"/>
	<path fill="#FFF7DC" d="M513.424,65.592c-0.352,0.317-0.776,0.566-1.274,0.748c-0.499,0.181-1.009,0.271-1.53,0.271
		c-0.533,0-1.034-0.099-1.505-0.297c-0.47-0.198-0.878-0.471-1.224-0.816c-0.346-0.345-0.62-0.748-0.824-1.207
		c-0.204-0.459-0.306-0.949-0.306-1.47s0.102-1.012,0.306-1.471c0.204-0.459,0.479-0.861,0.824-1.207
		c0.345-0.346,0.748-0.618,1.207-0.816c0.459-0.198,0.943-0.297,1.453-0.297c0.816,0,1.533,0.246,2.15,0.739
		c0.618,0.493,1.057,1.142,1.318,1.946c-0.341,0.125-0.734,0.275-1.182,0.45c-0.448,0.176-0.916,0.36-1.402,0.553
		c-0.488,0.193-0.976,0.389-1.463,0.587s-0.935,0.377-1.343,0.535c0.192,0.352,0.459,0.635,0.799,0.85
		c0.341,0.216,0.726,0.323,1.156,0.323c0.295,0,0.592-0.054,0.893-0.161c0.3-0.107,0.547-0.252,0.739-0.434L513.424,65.592z
		 M511.997,61.342c-0.136-0.249-0.34-0.434-0.612-0.553c-0.271-0.119-0.538-0.179-0.799-0.179c-0.306,0-0.595,0.06-0.867,0.179
		c-0.271,0.119-0.504,0.278-0.696,0.477c-0.193,0.198-0.347,0.425-0.459,0.68c-0.114,0.255-0.171,0.519-0.171,0.79v0.068
		c0.283-0.113,0.587-0.235,0.91-0.365s0.646-0.264,0.969-0.399c0.323-0.137,0.632-0.264,0.927-0.383
		C511.492,61.537,511.758,61.433,511.997,61.342z"/>
	<path fill="#FFF7DC" d="M515.278,59.2h1.428c0.022,0.407,0.048,0.739,0.076,0.994c0.028,0.255,0.054,0.541,0.077,0.858
		c0.261-0.612,0.629-1.104,1.104-1.479c0.477-0.374,1.071-0.562,1.785-0.562c0.736,0,1.323,0.201,1.76,0.604
		c0.436,0.402,0.665,0.927,0.688,1.572v5.236h-1.615v-4.471c-0.022-0.352-0.147-0.655-0.374-0.91s-0.578-0.394-1.054-0.416
		c-0.329,0-0.632,0.06-0.909,0.179c-0.278,0.119-0.517,0.28-0.715,0.484s-0.351,0.447-0.459,0.73
		c-0.107,0.284-0.161,0.59-0.161,0.918v3.485h-1.632L515.278,59.2L515.278,59.2z"/>
	<path fill="#FFF7DC" d="M523.71,62.821c0-0.567,0.093-1.083,0.28-1.548c0.187-0.464,0.447-0.863,0.782-1.198
		c0.334-0.334,0.725-0.595,1.173-0.782c0.447-0.187,0.938-0.28,1.471-0.28c0.362,0,0.68,0.04,0.952,0.119
		c0.271,0.079,0.504,0.176,0.696,0.289c0.192,0.113,0.349,0.235,0.468,0.365c0.119,0.131,0.213,0.241,0.28,0.332v-6.971h1.632
		v13.277h-1.632v-0.476c0-0.057,0.006-0.119,0.018-0.188c0.011-0.068,0.017-0.119,0.017-0.153c-0.102,0.103-0.227,0.213-0.374,0.332
		c-0.147,0.119-0.323,0.229-0.527,0.331c-0.204,0.103-0.434,0.185-0.688,0.247c-0.255,0.062-0.547,0.093-0.875,0.093
		c-0.578,0-1.097-0.099-1.556-0.297c-0.459-0.198-0.845-0.471-1.156-0.816c-0.311-0.345-0.55-0.748-0.714-1.207
		C523.793,63.831,523.71,63.342,523.71,62.821z M525.341,62.787c0,0.317,0.054,0.611,0.161,0.884
		c0.107,0.271,0.261,0.507,0.459,0.705c0.198,0.199,0.434,0.354,0.706,0.468c0.271,0.113,0.572,0.17,0.9,0.17
		c0.329,0,0.632-0.057,0.91-0.17c0.277-0.113,0.516-0.271,0.714-0.476s0.351-0.442,0.459-0.715c0.107-0.271,0.161-0.561,0.161-0.866
		c0-0.307-0.054-0.593-0.161-0.858c-0.108-0.267-0.261-0.496-0.459-0.688c-0.198-0.193-0.437-0.346-0.714-0.459
		c-0.278-0.113-0.581-0.171-0.91-0.171c-0.328,0-0.629,0.055-0.9,0.162c-0.272,0.107-0.508,0.261-0.706,0.459
		s-0.352,0.431-0.459,0.697C525.395,62.194,525.341,62.48,525.341,62.787z"/>
	<path fill="#FFF7DC" d="M540.318,66.595h-1.359l-0.204-2.006c-0.261,0.578-0.621,1.057-1.08,1.437
		c-0.459,0.38-1.062,0.569-1.811,0.569s-1.34-0.195-1.776-0.586c-0.437-0.392-0.666-0.91-0.688-1.556V59.2h1.632v4.487
		c0.022,0.352,0.145,0.649,0.366,0.893s0.574,0.377,1.062,0.399c0.328,0,0.629-0.057,0.9-0.17c0.272-0.113,0.507-0.271,0.706-0.476
		c0.198-0.204,0.354-0.448,0.467-0.731c0.113-0.283,0.17-0.589,0.17-0.918V59.2h1.615V66.595L540.318,66.595z"/>
	<path fill="#FFF7DC" d="M548.529,65.592c-0.352,0.317-0.776,0.566-1.274,0.748c-0.499,0.181-1.009,0.271-1.53,0.271
		c-0.533,0-1.034-0.099-1.505-0.297c-0.47-0.198-0.878-0.471-1.224-0.816c-0.346-0.345-0.62-0.748-0.824-1.207
		s-0.307-0.949-0.307-1.47s0.103-1.012,0.307-1.471s0.479-0.861,0.824-1.207c0.345-0.346,0.748-0.618,1.207-0.816
		s0.943-0.297,1.453-0.297c0.816,0,1.533,0.246,2.15,0.739c0.618,0.493,1.057,1.142,1.318,1.946
		c-0.341,0.125-0.734,0.275-1.182,0.45c-0.448,0.176-0.916,0.36-1.402,0.553c-0.488,0.193-0.976,0.389-1.463,0.587
		c-0.487,0.198-0.935,0.377-1.343,0.535c0.192,0.352,0.459,0.635,0.799,0.85c0.341,0.216,0.726,0.323,1.156,0.323
		c0.295,0,0.592-0.054,0.893-0.161c0.3-0.107,0.547-0.252,0.739-0.434L548.529,65.592z M547.101,61.342
		c-0.136-0.249-0.34-0.434-0.612-0.553c-0.271-0.119-0.538-0.179-0.799-0.179c-0.306,0-0.595,0.06-0.867,0.179
		c-0.271,0.119-0.504,0.278-0.696,0.477c-0.193,0.198-0.347,0.425-0.459,0.68c-0.114,0.255-0.171,0.519-0.171,0.79v0.068
		c0.283-0.113,0.587-0.235,0.91-0.365s0.646-0.264,0.969-0.399c0.323-0.137,0.632-0.264,0.927-0.383
		C546.596,61.537,546.863,61.433,547.101,61.342z"/>
	<path fill="#FFF7DC" d="M554.497,59.846c-0.068,0.103-0.15,0.219-0.247,0.349c-0.097,0.131-0.189,0.252-0.28,0.365
		s-0.198,0.255-0.323,0.425c-0.113-0.079-0.224-0.142-0.331-0.187c-0.108-0.045-0.232-0.088-0.374-0.128
		c-0.143-0.039-0.286-0.06-0.434-0.06c-0.159,0-0.326,0.037-0.502,0.111c-0.176,0.073-0.264,0.224-0.264,0.45
		c0,0.192,0.077,0.354,0.229,0.484c0.153,0.131,0.341,0.249,0.562,0.357c0.221,0.107,0.465,0.218,0.73,0.331
		c0.267,0.113,0.511,0.255,0.731,0.425s0.408,0.383,0.561,0.638c0.153,0.255,0.229,0.569,0.229,0.943
		c0,0.329-0.059,0.629-0.178,0.901c-0.119,0.271-0.289,0.504-0.511,0.697c-0.221,0.192-0.484,0.346-0.79,0.459
		c-0.306,0.112-0.651,0.17-1.037,0.17c-0.465,0-0.915-0.08-1.352-0.238s-0.779-0.385-1.028-0.68
		c0.079-0.091,0.176-0.204,0.289-0.341c0.113-0.136,0.221-0.266,0.323-0.391c0.102-0.124,0.227-0.271,0.374-0.442
		c0-0.011,0.036,0.009,0.11,0.06c0.073,0.052,0.173,0.111,0.297,0.179c0.125,0.068,0.272,0.131,0.442,0.188s0.346,0.085,0.527,0.085
		c0.283,0,0.501-0.062,0.654-0.188c0.153-0.124,0.229-0.277,0.229-0.459c0-0.181-0.076-0.328-0.229-0.441
		c-0.153-0.113-0.34-0.219-0.562-0.314c-0.221-0.097-0.465-0.201-0.73-0.314c-0.267-0.113-0.51-0.256-0.731-0.426
		s-0.407-0.388-0.561-0.654c-0.153-0.266-0.229-0.604-0.229-1.012c0-0.407,0.073-0.748,0.221-1.02
		c0.147-0.272,0.337-0.493,0.569-0.663c0.232-0.17,0.484-0.292,0.757-0.365c0.272-0.074,0.538-0.11,0.799-0.11
		c0.352,0,0.717,0.07,1.097,0.212S554.235,59.585,554.497,59.846z"/>
</g>
<polygon fill="#1D2B40" points="894.057,98.42 903.827,88.608 911.563,100.091 923.013,92.306 928.435,105.045 941.151,99.567 
	944.065,113.102 957.587,110.131 957.886,123.974 971.728,123.613 969.401,137.263 983.062,139.528 978.194,152.49 991.177,157.302 
	983.944,169.108 995.784,176.289 986.448,186.515 996.714,195.804 985.61,204.08 993.932,215.145 981.466,221.167 987.542,233.606 
	974.161,237.162 977.774,250.528 963.962,251.485 964.979,265.294 951.235,263.621 949.62,277.373 936.442,273.126 932.253,286.326 
	920.116,279.664 913.507,291.83 902.849,282.992 894.057,293.687 885.267,282.992 874.608,291.83 867.999,279.664 855.862,286.326 
	851.673,273.126 838.495,277.373 836.88,263.621 823.136,265.294 824.153,251.485 810.341,250.528 813.954,237.162 800.573,233.606 
	806.649,221.167 794.182,215.145 802.505,204.08 791.401,195.804 801.667,186.515 792.331,176.289 804.171,169.108 796.938,157.302 
	809.921,152.49 805.054,139.528 818.714,137.263 816.388,123.613 830.229,123.974 830.528,110.131 844.05,113.102 846.964,99.567 
	859.681,105.045 865.103,92.306 876.552,100.091 884.29,88.608 "/>
<rect x="821.729" y="189.554" fill="none" width="144" height="68.999"/>
<text transform="matrix(1 0 0 1 832.7607 202.8296)" fill="#FFF7DC" font-family="'JosefinSans-Bold'" font-size="17">2000 canards en </text>
<text transform="matrix(1 0 0 1 837.7412 223.229)" fill="#FFF7DC" font-family="'JosefinSans-Bold'" font-size="17">plastique jaunes </text>
<text transform="matrix(1 0 0 1 826.9043 243.6304)" fill="#FFF7DC" font-family="'JosefinSans-Bold'" font-size="17">lâchés dans l’Erdre.</text>
<g>
	<path fill="#E58C4A" d="M909.099,141.341c0.498,0.4,0.832,0.688,1.188,0.95c6.02,4.437,8.35,12.101,5.674,19.018
		c-1.797,4.646-5.435,7.274-10.096,8.53c-4.447,1.199-9.027,1.055-13.571,0.888c-2.52-0.093-5.059-0.392-7.533-0.877
		c-6.235-1.228-10.311-5.05-12.543-10.929c-1.214-3.196-2.215-6.457-2.628-9.858c-0.146-1.213-0.169-2.482,0.012-3.687
		c0.417-2.764,2.437-4.3,5.201-3.902c1.852,0.266,3.708,0.687,5.478,1.29c3.036,1.036,6.01,0.776,9.012-0.003
		c0.211-0.055,0.404-0.181,0.732-0.332c-0.271-0.39-0.472-0.746-0.733-1.049c-6.276-7.244-2.787-18.064,6.535-20.255
		c5.197-1.222,10.943,1.481,13.483,6.342c0.967,1.849,1.46,2.118,3.55,1.961c0.646-0.049,1.303-0.16,1.939-0.095
		c2.533,0.258,3.744,2.002,2.952,4.444c-0.329,1.016-0.96,1.991-1.651,2.82c-1.505,1.803-3.545,2.923-5.602,3.988
		C910.096,140.792,909.704,141.013,909.099,141.341z"/>
	<path fill="none" stroke="#1D2B40" stroke-miterlimit="10" d="M895.836,132.377c0,0,5.623,1.757,7.028-1.757"/>
</g>
<g>
	<polygon fill="#1D2B40" points="148.505,86.42 158.274,76.608 166.011,88.091 177.46,80.306 182.882,93.045 195.599,87.567 
		198.513,101.102 212.034,98.131 212.333,111.974 226.175,111.613 223.849,125.263 237.508,127.528 232.642,140.49 245.624,145.302 
		238.392,157.108 250.231,164.289 240.896,174.515 251.161,183.804 240.058,192.08 248.379,203.145 235.913,209.167 
		241.989,221.606 228.608,225.162 232.222,238.528 218.409,239.485 219.427,253.294 205.683,251.621 204.067,265.373 
		190.89,261.126 186.7,274.326 174.563,267.664 167.954,279.83 157.296,270.992 148.505,281.687 139.714,270.992 129.056,279.83 
		122.446,267.664 110.31,274.326 106.12,261.126 92.942,265.373 91.327,251.621 77.583,253.294 78.601,239.485 64.788,238.528 
		68.401,225.162 55.021,221.606 61.097,209.167 48.63,203.145 56.952,192.08 45.849,183.804 56.114,174.515 46.778,164.289 
		58.618,157.108 51.386,145.302 64.368,140.49 59.501,127.528 73.161,125.263 70.835,111.613 84.677,111.974 84.976,98.131 
		98.497,101.102 101.411,87.567 114.128,93.045 119.55,80.306 130.999,88.091 138.737,76.608 	"/>
	<rect x="74.492" y="200.742" fill="none" width="144" height="38"/>
	<g>
		<path fill="#E58C4A" d="M99.729,144.279c0,0,0-8.662,17.325-8.662c7.155,0,13.755-2.901,18.815-7.912
			c7.002-6.934,4.042-24.774,15.834-26.739c10.396-1.733,13.86,10.395,12.128,22.523c-1.731,12.127-8.663,20.79-15.593,25.988
			s-22.522,12.128-39.848,8.663C108.391,158.139,97.995,156.408,99.729,144.279z"/>
		<path fill="#1B0A09" d="M130.444,133.851c0,0,6.646,7.477,17.999,7.199C148.443,141.05,144.566,134.681,130.444,133.851z"/>
		<path fill="#1B0A09" d="M143.95,126.07c0,0,7.493-3.726,15.242,1.311C159.191,127.381,154.619,131.022,143.95,126.07z"/>
		<path fill="#1B0A09" d="M145.49,116.06c0,0,7.493-3.726,15.242,1.311C160.731,117.371,156.159,121.012,145.49,116.06z"/>
		<path fill="#1B0A09" d="M114.152,139.912c0,0,11.054-0.938,18.147,9.049C132.3,148.96,124.889,151.218,114.152,139.912z"/>
		<path fill="#E58C4A" d="M132.068,172.192c0,0,0-8.663,17.325-8.663c7.155,0,13.755-2.9,18.815-7.91
			c7.002-6.935,4.042-24.775,15.834-26.74c10.396-1.733,13.86,10.395,12.128,22.523c-1.732,12.129-8.663,20.79-15.593,25.988
			c-6.93,5.197-22.522,12.128-39.848,8.663C140.73,186.052,130.335,184.32,132.068,172.192z"/>
		<path fill="#1B0A09" d="M162.784,161.763c0,0,6.646,7.477,17.999,7.199C180.783,168.962,176.907,162.593,162.784,161.763z"/>
		<path fill="#1B0A09" d="M176.29,153.983c0,0,7.493-3.726,15.242,1.312C191.532,155.294,186.959,158.935,176.29,153.983z"/>
		<path fill="#1B0A09" d="M177.83,143.973c0,0,7.493-3.726,15.242,1.312C193.072,145.285,188.499,148.925,177.83,143.973z"/>
		<path fill="#1B0A09" d="M146.492,167.824c0,0,11.054-0.939,18.148,9.049C164.641,176.873,157.229,179.132,146.492,167.824z"/>
	</g>
	<g>
		<path fill="#FFF7DC" d="M86.013,213.275h3.023v1.4h-6.468c0.579-0.588,1.139-1.155,1.68-1.701
			c0.542-0.546,1.022-1.075,1.442-1.589c0.42-0.513,0.758-1.013,1.015-1.498s0.386-0.952,0.386-1.4c0-0.298-0.054-0.56-0.161-0.783
			c-0.107-0.225-0.24-0.408-0.399-0.554c-0.158-0.145-0.331-0.254-0.518-0.328c-0.188-0.075-0.359-0.112-0.519-0.112
			c-0.326,0-0.595,0.059-0.805,0.175c-0.21,0.117-0.378,0.255-0.504,0.413c-0.126,0.159-0.213,0.327-0.259,0.504
			c-0.047,0.178-0.07,0.327-0.07,0.448c0,0.308,0.049,0.581,0.147,0.818c0.098,0.238,0.235,0.446,0.412,0.623l-0.854,0.883
			c-0.187-0.094-0.35-0.236-0.49-0.428c-0.14-0.19-0.259-0.398-0.356-0.623c-0.099-0.224-0.173-0.447-0.225-0.672
			c-0.051-0.224-0.077-0.425-0.077-0.602c0-0.373,0.068-0.737,0.203-1.092c0.136-0.355,0.334-0.668,0.596-0.938
			c0.261-0.271,0.583-0.487,0.966-0.651c0.383-0.163,0.821-0.244,1.315-0.244c0.458,0,0.875,0.081,1.253,0.244
			c0.379,0.164,0.7,0.383,0.967,0.658c0.266,0.275,0.471,0.596,0.615,0.959c0.145,0.364,0.218,0.742,0.218,1.134
			c0,0.448-0.068,0.883-0.203,1.303c-0.136,0.42-0.317,0.833-0.546,1.238c-0.229,0.406-0.497,0.811-0.806,1.212
			C86.685,212.473,86.358,212.875,86.013,213.275z"/>
		<path fill="#FFF7DC" d="M92.159,213.443l-1.231,2.94h-1.288c0.187-0.495,0.368-0.982,0.546-1.463
			c0.177-0.48,0.359-0.973,0.546-1.478H92.159z"/>
		<path fill="#FFF7DC" d="M94.162,210.49v-5.055h4.088v1.387h-2.843v1.777c0.047-0.019,0.092-0.032,0.134-0.042
			c0.042-0.009,0.104-0.014,0.188-0.014c0.477,0,0.91,0.082,1.302,0.245c0.393,0.163,0.724,0.385,0.994,0.665
			c0.271,0.279,0.48,0.604,0.63,0.973c0.149,0.369,0.225,0.759,0.225,1.169c0,0.448-0.084,0.868-0.252,1.26
			c-0.168,0.393-0.397,0.73-0.687,1.016c-0.289,0.284-0.625,0.509-1.008,0.672s-0.789,0.245-1.218,0.245
			c-0.42,0-0.814-0.077-1.184-0.231c-0.368-0.154-0.697-0.371-0.986-0.65c0.177-0.169,0.354-0.332,0.532-0.49
			c0.177-0.159,0.35-0.317,0.518-0.477c0.149,0.131,0.319,0.238,0.511,0.322s0.404,0.126,0.638,0.126
			c0.232,0,0.452-0.047,0.657-0.14c0.205-0.094,0.386-0.217,0.539-0.371c0.154-0.154,0.277-0.336,0.371-0.546
			s0.141-0.437,0.141-0.68c0-0.232-0.047-0.454-0.141-0.665c-0.094-0.21-0.217-0.394-0.371-0.553
			c-0.153-0.158-0.336-0.282-0.546-0.371c-0.21-0.088-0.432-0.133-0.665-0.133c-0.242,0-0.504,0.03-0.784,0.091
			C94.666,210.082,94.404,210.237,94.162,210.49z"/>
		<path fill="#FFF7DC" d="M104.017,206.122h1.33v2.604h1.554v1.204h-1.554v4.746h-1.33v-4.746h-1.008v-1.204h1.008V206.122z"/>
		<path fill="#FFF7DC" d="M107.405,211.693c0-0.429,0.081-0.833,0.245-1.211c0.163-0.378,0.39-0.707,0.679-0.986
			c0.289-0.28,0.628-0.502,1.015-0.665c0.388-0.163,0.801-0.245,1.239-0.245c0.448,0,0.863,0.082,1.246,0.245
			s0.712,0.385,0.987,0.665c0.274,0.279,0.492,0.608,0.65,0.986c0.159,0.378,0.238,0.782,0.238,1.211
			c0,0.43-0.077,0.836-0.231,1.219c-0.153,0.383-0.37,0.716-0.65,1.001c-0.28,0.284-0.611,0.509-0.994,0.672
			s-0.803,0.245-1.26,0.245c-0.439,0-0.85-0.075-1.232-0.225c-0.383-0.148-0.716-0.361-1.001-0.637s-0.511-0.606-0.679-0.994
			C107.489,212.588,107.405,212.16,107.405,211.693z M108.735,211.708c0,0.252,0.046,0.487,0.14,0.707
			c0.093,0.219,0.222,0.41,0.385,0.574c0.163,0.163,0.354,0.291,0.574,0.385c0.219,0.093,0.455,0.14,0.707,0.14
			s0.487-0.047,0.707-0.14c0.219-0.094,0.41-0.222,0.574-0.385c0.163-0.164,0.294-0.355,0.392-0.574
			c0.099-0.22,0.147-0.455,0.147-0.707s-0.049-0.488-0.147-0.707c-0.098-0.22-0.229-0.411-0.392-0.574
			c-0.164-0.163-0.355-0.294-0.574-0.392c-0.22-0.099-0.455-0.147-0.707-0.147s-0.488,0.049-0.707,0.147
			c-0.22,0.098-0.411,0.229-0.574,0.392s-0.292,0.354-0.385,0.574C108.781,211.22,108.735,211.456,108.735,211.708z"/>
		<path fill="#FFF7DC" d="M114.979,208.725h1.176c0.019,0.336,0.04,0.609,0.063,0.819c0.022,0.21,0.044,0.445,0.062,0.707
			c0.215-0.504,0.519-0.91,0.91-1.218c0.392-0.309,0.882-0.462,1.47-0.462c0.606,0,1.09,0.165,1.449,0.496
			c0.359,0.332,0.548,0.764,0.567,1.296v4.312h-1.33v-3.682c-0.02-0.289-0.122-0.539-0.309-0.749s-0.476-0.324-0.868-0.344
			c-0.271,0-0.52,0.05-0.749,0.147c-0.229,0.098-0.425,0.23-0.588,0.399c-0.163,0.168-0.289,0.368-0.378,0.602
			s-0.133,0.485-0.133,0.756v2.87h-1.344V208.725z"/>
		<path fill="#FFF7DC" d="M122.287,208.725h1.176c0.019,0.336,0.04,0.609,0.063,0.819c0.022,0.21,0.044,0.445,0.062,0.707
			c0.215-0.504,0.519-0.91,0.91-1.218c0.392-0.309,0.882-0.462,1.47-0.462c0.606,0,1.09,0.165,1.449,0.496
			c0.359,0.332,0.548,0.764,0.567,1.296v4.312h-1.33v-3.682c-0.02-0.289-0.122-0.539-0.309-0.749s-0.476-0.324-0.868-0.344
			c-0.271,0-0.52,0.05-0.749,0.147c-0.229,0.098-0.425,0.23-0.588,0.399c-0.163,0.168-0.289,0.368-0.378,0.602
			s-0.133,0.485-0.133,0.756v2.87h-1.344V208.725z"/>
		<path fill="#FFF7DC" d="M134.704,213.99c-0.289,0.261-0.639,0.467-1.05,0.615c-0.41,0.149-0.83,0.225-1.26,0.225
			c-0.438,0-0.852-0.082-1.239-0.245c-0.387-0.163-0.723-0.388-1.008-0.672c-0.285-0.285-0.511-0.616-0.679-0.994
			s-0.252-0.782-0.252-1.211c0-0.43,0.084-0.833,0.252-1.211s0.394-0.71,0.679-0.994c0.285-0.285,0.616-0.509,0.994-0.672
			s0.777-0.245,1.197-0.245c0.672,0,1.262,0.203,1.771,0.608c0.509,0.406,0.87,0.94,1.085,1.604
			c-0.279,0.103-0.604,0.227-0.973,0.371c-0.369,0.145-0.754,0.296-1.155,0.455c-0.401,0.158-0.803,0.319-1.204,0.482
			c-0.401,0.164-0.77,0.311-1.105,0.441c0.158,0.289,0.378,0.522,0.658,0.7c0.279,0.177,0.597,0.266,0.951,0.266
			c0.243,0,0.488-0.044,0.735-0.133s0.45-0.208,0.609-0.357L134.704,213.99z M133.528,210.49c-0.111-0.206-0.279-0.357-0.504-0.455
			c-0.224-0.099-0.443-0.147-0.658-0.147c-0.252,0-0.489,0.049-0.714,0.147c-0.224,0.098-0.415,0.229-0.574,0.392
			c-0.158,0.163-0.284,0.35-0.378,0.56c-0.093,0.211-0.14,0.428-0.14,0.651v0.056c0.233-0.093,0.483-0.193,0.749-0.301
			s0.532-0.217,0.798-0.329c0.267-0.111,0.521-0.217,0.763-0.314C133.113,210.65,133.333,210.564,133.528,210.49z"/>
		<path fill="#FFF7DC" d="M139.618,209.258c-0.056,0.084-0.124,0.18-0.203,0.287s-0.156,0.208-0.23,0.301
			c-0.075,0.094-0.164,0.21-0.267,0.35c-0.093-0.064-0.184-0.116-0.272-0.153s-0.191-0.072-0.309-0.105
			c-0.116-0.032-0.235-0.049-0.356-0.049c-0.131,0-0.269,0.03-0.413,0.091c-0.145,0.062-0.217,0.185-0.217,0.371
			c0,0.159,0.062,0.292,0.188,0.399s0.28,0.205,0.462,0.294c0.183,0.089,0.383,0.18,0.603,0.272c0.219,0.094,0.42,0.21,0.602,0.351
			c0.183,0.14,0.336,0.314,0.462,0.524s0.189,0.47,0.189,0.777c0,0.271-0.049,0.518-0.147,0.742
			c-0.098,0.224-0.237,0.415-0.42,0.574c-0.182,0.158-0.398,0.284-0.65,0.378c-0.252,0.093-0.537,0.14-0.854,0.14
			c-0.383,0-0.754-0.065-1.113-0.196c-0.359-0.13-0.642-0.316-0.847-0.56c0.065-0.075,0.145-0.168,0.238-0.28
			c0.093-0.112,0.182-0.219,0.266-0.322c0.084-0.103,0.187-0.224,0.309-0.363c0-0.01,0.029,0.007,0.091,0.049
			c0.061,0.042,0.142,0.091,0.245,0.146c0.103,0.057,0.224,0.107,0.363,0.154c0.141,0.047,0.285,0.07,0.435,0.07
			c0.233,0,0.413-0.052,0.539-0.154s0.188-0.229,0.188-0.378s-0.062-0.271-0.188-0.364c-0.126-0.093-0.28-0.18-0.462-0.259
			c-0.183-0.079-0.383-0.166-0.603-0.259c-0.219-0.094-0.42-0.21-0.602-0.351c-0.183-0.14-0.336-0.319-0.462-0.538
			c-0.126-0.22-0.189-0.497-0.189-0.833c0-0.337,0.061-0.616,0.182-0.841c0.122-0.224,0.278-0.405,0.47-0.546
			c0.191-0.14,0.398-0.24,0.623-0.301c0.224-0.061,0.443-0.091,0.657-0.091c0.29,0,0.591,0.059,0.903,0.175
			C139.139,208.878,139.403,209.043,139.618,209.258z"/>
		<path fill="#FFF7DC" d="M143.958,211.708c0-0.467,0.077-0.892,0.231-1.274c0.153-0.383,0.368-0.711,0.644-0.986
			s0.598-0.49,0.966-0.645c0.369-0.154,0.772-0.23,1.211-0.23c0.299,0,0.561,0.032,0.784,0.098c0.225,0.065,0.415,0.145,0.574,0.238
			c0.158,0.093,0.287,0.193,0.385,0.301c0.099,0.107,0.175,0.198,0.231,0.272v-5.739h1.344v10.934h-1.344v-0.392
			c0-0.047,0.004-0.099,0.014-0.154c0.009-0.056,0.014-0.098,0.014-0.126c-0.084,0.084-0.187,0.175-0.308,0.272
			c-0.121,0.099-0.266,0.189-0.434,0.273s-0.357,0.151-0.567,0.203c-0.21,0.051-0.45,0.077-0.721,0.077
			c-0.477,0-0.903-0.082-1.281-0.245s-0.695-0.388-0.952-0.672c-0.257-0.285-0.453-0.616-0.588-0.994
			C144.025,212.541,143.958,212.137,143.958,211.708z M145.301,211.68c0,0.262,0.045,0.504,0.134,0.729
			c0.088,0.224,0.214,0.417,0.378,0.581c0.163,0.163,0.356,0.291,0.581,0.385c0.224,0.093,0.471,0.14,0.741,0.14
			s0.521-0.047,0.749-0.14c0.229-0.094,0.425-0.225,0.588-0.393c0.164-0.168,0.29-0.363,0.379-0.588
			c0.088-0.224,0.133-0.462,0.133-0.714s-0.045-0.487-0.133-0.707c-0.089-0.219-0.215-0.408-0.379-0.566
			c-0.163-0.159-0.359-0.285-0.588-0.379c-0.229-0.093-0.479-0.14-0.749-0.14s-0.518,0.045-0.741,0.133
			c-0.225,0.089-0.418,0.215-0.581,0.378c-0.164,0.164-0.29,0.355-0.378,0.574C145.346,211.192,145.301,211.428,145.301,211.68z"/>
		<path fill="#FFF7DC" d="M157.089,213.99c-0.289,0.261-0.639,0.467-1.05,0.615c-0.41,0.149-0.83,0.225-1.26,0.225
			c-0.438,0-0.852-0.082-1.239-0.245c-0.387-0.163-0.723-0.388-1.008-0.672c-0.285-0.285-0.511-0.616-0.679-0.994
			s-0.252-0.782-0.252-1.211c0-0.43,0.084-0.833,0.252-1.211s0.394-0.71,0.679-0.994c0.285-0.285,0.616-0.509,0.994-0.672
			s0.777-0.245,1.197-0.245c0.672,0,1.262,0.203,1.771,0.608c0.509,0.406,0.87,0.94,1.085,1.604
			c-0.279,0.103-0.604,0.227-0.973,0.371c-0.369,0.145-0.754,0.296-1.155,0.455c-0.401,0.158-0.803,0.319-1.204,0.482
			c-0.401,0.164-0.77,0.311-1.105,0.441c0.158,0.289,0.378,0.522,0.658,0.7c0.279,0.177,0.597,0.266,0.951,0.266
			c0.243,0,0.488-0.044,0.735-0.133s0.45-0.208,0.609-0.357L157.089,213.99z M155.914,210.49c-0.111-0.206-0.279-0.357-0.504-0.455
			c-0.224-0.099-0.443-0.147-0.658-0.147c-0.252,0-0.489,0.049-0.714,0.147c-0.224,0.098-0.415,0.229-0.574,0.392
			c-0.158,0.163-0.284,0.35-0.378,0.56c-0.093,0.211-0.14,0.428-0.14,0.651v0.056c0.233-0.093,0.483-0.193,0.749-0.301
			s0.532-0.217,0.798-0.329c0.267-0.111,0.521-0.217,0.763-0.314C155.499,210.65,155.718,210.564,155.914,210.49z"/>
		<path fill="#FFF7DC" d="M165.195,209.258c-0.056,0.084-0.124,0.18-0.203,0.287s-0.156,0.208-0.23,0.301
			c-0.075,0.094-0.164,0.21-0.267,0.35c-0.093-0.064-0.184-0.116-0.272-0.153s-0.191-0.072-0.309-0.105
			c-0.116-0.032-0.235-0.049-0.356-0.049c-0.131,0-0.269,0.03-0.413,0.091c-0.145,0.062-0.217,0.185-0.217,0.371
			c0,0.159,0.062,0.292,0.188,0.399s0.28,0.205,0.462,0.294c0.183,0.089,0.383,0.18,0.603,0.272c0.219,0.094,0.42,0.21,0.602,0.351
			c0.183,0.14,0.336,0.314,0.462,0.524s0.189,0.47,0.189,0.777c0,0.271-0.049,0.518-0.147,0.742
			c-0.098,0.224-0.237,0.415-0.42,0.574c-0.182,0.158-0.398,0.284-0.65,0.378c-0.252,0.093-0.537,0.14-0.854,0.14
			c-0.383,0-0.754-0.065-1.113-0.196c-0.359-0.13-0.642-0.316-0.847-0.56c0.065-0.075,0.145-0.168,0.238-0.28
			c0.093-0.112,0.182-0.219,0.266-0.322c0.084-0.103,0.187-0.224,0.309-0.363c0-0.01,0.029,0.007,0.091,0.049
			c0.061,0.042,0.142,0.091,0.245,0.146c0.103,0.057,0.224,0.107,0.363,0.154c0.141,0.047,0.285,0.07,0.435,0.07
			c0.233,0,0.413-0.052,0.539-0.154s0.188-0.229,0.188-0.378s-0.062-0.271-0.188-0.364c-0.126-0.093-0.28-0.18-0.462-0.259
			c-0.183-0.079-0.383-0.166-0.603-0.259c-0.219-0.094-0.42-0.21-0.602-0.351c-0.183-0.14-0.336-0.319-0.462-0.538
			c-0.126-0.22-0.189-0.497-0.189-0.833c0-0.337,0.061-0.616,0.182-0.841c0.122-0.224,0.278-0.405,0.47-0.546
			c0.191-0.14,0.398-0.24,0.623-0.301c0.224-0.061,0.443-0.091,0.657-0.091c0.29,0,0.591,0.059,0.903,0.175
			C164.717,208.878,164.981,209.043,165.195,209.258z"/>
		<path fill="#FFF7DC" d="M166.329,211.763c0-0.429,0.084-0.838,0.252-1.225c0.168-0.388,0.394-0.726,0.679-1.016
			c0.285-0.289,0.616-0.52,0.994-0.692s0.777-0.259,1.197-0.259c0.279,0,0.531,0.034,0.756,0.104
			c0.224,0.07,0.417,0.151,0.581,0.245c0.163,0.094,0.291,0.188,0.385,0.287c0.093,0.098,0.154,0.175,0.182,0.23l0.057-0.714h1.302
			v5.95h-1.358v-0.392c0-0.047,0.003-0.092,0.008-0.134c0.004-0.042,0.007-0.072,0.007-0.091c-0.038,0.047-0.104,0.114-0.196,0.203
			c-0.094,0.089-0.22,0.175-0.378,0.259c-0.159,0.084-0.348,0.156-0.567,0.218c-0.219,0.061-0.474,0.091-0.763,0.091
			c-0.457,0-0.877-0.084-1.26-0.252s-0.714-0.393-0.994-0.672c-0.28-0.28-0.497-0.604-0.651-0.974
			C166.406,212.564,166.329,212.175,166.329,211.763z M167.687,211.68c0,0.262,0.045,0.504,0.134,0.729
			c0.088,0.224,0.214,0.417,0.378,0.581c0.163,0.163,0.356,0.291,0.581,0.385c0.224,0.093,0.471,0.14,0.741,0.14
			s0.519-0.047,0.742-0.14c0.225-0.094,0.418-0.225,0.581-0.393s0.289-0.363,0.378-0.588c0.089-0.224,0.133-0.462,0.133-0.714
			s-0.044-0.487-0.133-0.707c-0.089-0.219-0.215-0.408-0.378-0.566c-0.163-0.159-0.356-0.285-0.581-0.379
			c-0.224-0.093-0.472-0.14-0.742-0.14s-0.518,0.045-0.741,0.133c-0.225,0.089-0.418,0.215-0.581,0.378
			c-0.164,0.164-0.29,0.355-0.378,0.574C167.732,211.192,167.687,211.428,167.687,211.68z"/>
		<path fill="#FFF7DC" d="M180.022,214.815h-1.12l-0.168-1.651c-0.215,0.476-0.512,0.87-0.89,1.183s-0.875,0.469-1.49,0.469
			c-0.616,0-1.104-0.161-1.464-0.482c-0.359-0.322-0.548-0.749-0.566-1.281v-4.326h1.344v3.696c0.019,0.289,0.119,0.534,0.301,0.735
			c0.183,0.2,0.474,0.31,0.875,0.328c0.271,0,0.519-0.046,0.742-0.14c0.224-0.093,0.418-0.224,0.581-0.392s0.292-0.369,0.385-0.603
			c0.094-0.233,0.141-0.485,0.141-0.756v-2.87h1.33V214.815z"/>
		<path fill="#FFF7DC" d="M185.649,213.122c0.141,0.177,0.275,0.348,0.406,0.511s0.266,0.329,0.406,0.497
			c-0.271,0.215-0.574,0.385-0.91,0.511s-0.695,0.189-1.078,0.189c-0.438,0-0.852-0.082-1.239-0.245
			c-0.387-0.163-0.723-0.388-1.008-0.672c-0.285-0.285-0.511-0.618-0.679-1.001s-0.252-0.789-0.252-1.219
			c0-0.429,0.084-0.833,0.252-1.211s0.394-0.709,0.679-0.993c0.285-0.285,0.621-0.509,1.008-0.673
			c0.388-0.163,0.801-0.244,1.239-0.244c0.392,0,0.758,0.062,1.099,0.188s0.651,0.297,0.932,0.511l-0.854,0.994
			c-0.326-0.252-0.719-0.378-1.176-0.378c-0.271,0-0.518,0.047-0.742,0.14c-0.224,0.094-0.418,0.22-0.581,0.379
			c-0.163,0.158-0.289,0.348-0.378,0.566c-0.089,0.22-0.133,0.46-0.133,0.721c0,0.252,0.044,0.488,0.133,0.707
			c0.089,0.22,0.215,0.413,0.378,0.581s0.357,0.299,0.581,0.393c0.225,0.093,0.472,0.14,0.742,0.14
			C184.94,213.513,185.331,213.383,185.649,213.122z"/>
		<path fill="#FFF7DC" d="M187.469,206.416c0-0.243,0.089-0.443,0.267-0.603c0.177-0.158,0.368-0.237,0.573-0.237
			s0.395,0.079,0.567,0.237c0.173,0.159,0.259,0.359,0.259,0.603c0,0.252-0.086,0.455-0.259,0.608
			c-0.173,0.154-0.362,0.231-0.567,0.231s-0.396-0.077-0.573-0.231C187.558,206.871,187.469,206.668,187.469,206.416z
			 M188.967,214.676h-1.344v-5.95h1.344V214.676z"/>
		<path fill="#FFF7DC" d="M194.007,209.258c-0.056,0.084-0.124,0.18-0.203,0.287s-0.156,0.208-0.23,0.301
			c-0.075,0.094-0.164,0.21-0.267,0.35c-0.093-0.064-0.184-0.116-0.272-0.153s-0.191-0.072-0.309-0.105
			c-0.116-0.032-0.235-0.049-0.356-0.049c-0.131,0-0.269,0.03-0.413,0.091c-0.145,0.062-0.217,0.185-0.217,0.371
			c0,0.159,0.062,0.292,0.188,0.399s0.28,0.205,0.462,0.294c0.183,0.089,0.383,0.18,0.603,0.272c0.219,0.094,0.42,0.21,0.602,0.351
			c0.183,0.14,0.336,0.314,0.462,0.524s0.189,0.47,0.189,0.777c0,0.271-0.049,0.518-0.147,0.742
			c-0.098,0.224-0.237,0.415-0.42,0.574c-0.182,0.158-0.398,0.284-0.65,0.378c-0.252,0.093-0.537,0.14-0.854,0.14
			c-0.383,0-0.754-0.065-1.113-0.196c-0.359-0.13-0.642-0.316-0.847-0.56c0.065-0.075,0.145-0.168,0.238-0.28
			c0.093-0.112,0.182-0.219,0.266-0.322c0.084-0.103,0.187-0.224,0.309-0.363c0-0.01,0.029,0.007,0.091,0.049
			c0.061,0.042,0.142,0.091,0.245,0.146c0.103,0.057,0.224,0.107,0.363,0.154c0.141,0.047,0.285,0.07,0.435,0.07
			c0.233,0,0.413-0.052,0.539-0.154s0.188-0.229,0.188-0.378s-0.062-0.271-0.188-0.364c-0.126-0.093-0.28-0.18-0.462-0.259
			c-0.183-0.079-0.383-0.166-0.603-0.259c-0.219-0.094-0.42-0.21-0.602-0.351c-0.183-0.14-0.336-0.319-0.462-0.538
			c-0.126-0.22-0.189-0.497-0.189-0.833c0-0.337,0.061-0.616,0.182-0.841c0.122-0.224,0.278-0.405,0.47-0.546
			c0.191-0.14,0.398-0.24,0.623-0.301c0.224-0.061,0.443-0.091,0.657-0.091c0.29,0,0.591,0.059,0.903,0.175
			C193.528,208.878,193.792,209.043,194.007,209.258z"/>
		<path fill="#FFF7DC" d="M198.906,209.258c-0.056,0.084-0.124,0.18-0.203,0.287s-0.156,0.208-0.23,0.301
			c-0.075,0.094-0.164,0.21-0.267,0.35c-0.093-0.064-0.184-0.116-0.272-0.153s-0.191-0.072-0.309-0.105
			c-0.116-0.032-0.235-0.049-0.356-0.049c-0.131,0-0.269,0.03-0.413,0.091c-0.145,0.062-0.217,0.185-0.217,0.371
			c0,0.159,0.062,0.292,0.188,0.399s0.28,0.205,0.462,0.294c0.183,0.089,0.383,0.18,0.603,0.272c0.219,0.094,0.42,0.21,0.602,0.351
			c0.183,0.14,0.336,0.314,0.462,0.524s0.189,0.47,0.189,0.777c0,0.271-0.049,0.518-0.147,0.742
			c-0.098,0.224-0.237,0.415-0.42,0.574c-0.182,0.158-0.398,0.284-0.65,0.378c-0.252,0.093-0.537,0.14-0.854,0.14
			c-0.383,0-0.754-0.065-1.113-0.196c-0.359-0.13-0.642-0.316-0.847-0.56c0.065-0.075,0.145-0.168,0.238-0.28
			c0.093-0.112,0.182-0.219,0.266-0.322c0.084-0.103,0.187-0.224,0.309-0.363c0-0.01,0.029,0.007,0.091,0.049
			c0.061,0.042,0.142,0.091,0.245,0.146c0.103,0.057,0.224,0.107,0.363,0.154c0.141,0.047,0.285,0.07,0.435,0.07
			c0.233,0,0.413-0.052,0.539-0.154s0.188-0.229,0.188-0.378s-0.062-0.271-0.188-0.364c-0.126-0.093-0.28-0.18-0.462-0.259
			c-0.183-0.079-0.383-0.166-0.603-0.259c-0.219-0.094-0.42-0.21-0.602-0.351c-0.183-0.14-0.336-0.319-0.462-0.538
			c-0.126-0.22-0.189-0.497-0.189-0.833c0-0.337,0.061-0.616,0.182-0.841c0.122-0.224,0.278-0.405,0.47-0.546
			c0.191-0.14,0.398-0.24,0.623-0.301c0.224-0.061,0.443-0.091,0.657-0.091c0.29,0,0.591,0.059,0.903,0.175
			C198.428,208.878,198.691,209.043,198.906,209.258z"/>
		<path fill="#FFF7DC" d="M205.527,213.99c-0.289,0.261-0.639,0.467-1.05,0.615c-0.41,0.149-0.83,0.225-1.26,0.225
			c-0.438,0-0.852-0.082-1.239-0.245c-0.387-0.163-0.723-0.388-1.008-0.672c-0.285-0.285-0.511-0.616-0.679-0.994
			s-0.252-0.782-0.252-1.211c0-0.43,0.084-0.833,0.252-1.211s0.394-0.71,0.679-0.994c0.285-0.285,0.616-0.509,0.994-0.672
			s0.777-0.245,1.197-0.245c0.672,0,1.262,0.203,1.771,0.608c0.509,0.406,0.87,0.94,1.085,1.604
			c-0.279,0.103-0.604,0.227-0.973,0.371c-0.369,0.145-0.754,0.296-1.155,0.455c-0.401,0.158-0.803,0.319-1.204,0.482
			c-0.401,0.164-0.77,0.311-1.105,0.441c0.158,0.289,0.378,0.522,0.658,0.7c0.279,0.177,0.597,0.266,0.951,0.266
			c0.243,0,0.488-0.044,0.735-0.133s0.45-0.208,0.609-0.357L205.527,213.99z M204.352,210.49c-0.111-0.206-0.279-0.357-0.504-0.455
			c-0.224-0.099-0.443-0.147-0.658-0.147c-0.252,0-0.489,0.049-0.714,0.147c-0.224,0.098-0.415,0.229-0.574,0.392
			c-0.158,0.163-0.284,0.35-0.378,0.56c-0.093,0.211-0.14,0.428-0.14,0.651v0.056c0.233-0.093,0.483-0.193,0.749-0.301
			s0.532-0.217,0.798-0.329c0.267-0.111,0.521-0.217,0.763-0.314C203.937,210.65,204.156,210.564,204.352,210.49z"/>
		<path fill="#FFF7DC" d="M210.441,209.258c-0.056,0.084-0.124,0.18-0.203,0.287s-0.156,0.208-0.23,0.301
			c-0.075,0.094-0.164,0.21-0.267,0.35c-0.093-0.064-0.184-0.116-0.272-0.153s-0.191-0.072-0.309-0.105
			c-0.116-0.032-0.235-0.049-0.356-0.049c-0.131,0-0.269,0.03-0.413,0.091c-0.145,0.062-0.217,0.185-0.217,0.371
			c0,0.159,0.062,0.292,0.188,0.399s0.28,0.205,0.462,0.294c0.183,0.089,0.383,0.18,0.603,0.272c0.219,0.094,0.42,0.21,0.602,0.351
			c0.183,0.14,0.336,0.314,0.462,0.524s0.189,0.47,0.189,0.777c0,0.271-0.049,0.518-0.147,0.742
			c-0.098,0.224-0.237,0.415-0.42,0.574c-0.182,0.158-0.398,0.284-0.65,0.378c-0.252,0.093-0.537,0.14-0.854,0.14
			c-0.383,0-0.754-0.065-1.113-0.196c-0.359-0.13-0.642-0.316-0.847-0.56c0.065-0.075,0.145-0.168,0.238-0.28
			c0.093-0.112,0.182-0.219,0.266-0.322c0.084-0.103,0.187-0.224,0.309-0.363c0-0.01,0.029,0.007,0.091,0.049
			c0.061,0.042,0.142,0.091,0.245,0.146c0.103,0.057,0.224,0.107,0.363,0.154c0.141,0.047,0.285,0.07,0.435,0.07
			c0.233,0,0.413-0.052,0.539-0.154s0.188-0.229,0.188-0.378s-0.062-0.271-0.188-0.364c-0.126-0.093-0.28-0.18-0.462-0.259
			c-0.183-0.079-0.383-0.166-0.603-0.259c-0.219-0.094-0.42-0.21-0.602-0.351c-0.183-0.14-0.336-0.319-0.462-0.538
			c-0.126-0.22-0.189-0.497-0.189-0.833c0-0.337,0.061-0.616,0.182-0.841c0.122-0.224,0.278-0.405,0.47-0.546
			c0.191-0.14,0.398-0.24,0.623-0.301c0.224-0.061,0.443-0.091,0.657-0.091c0.29,0,0.591,0.059,0.903,0.175
			C209.963,208.878,210.227,209.043,210.441,209.258z"/>
		<path fill="#FFF7DC" d="M94.581,231.825c-0.56-1.055-1.092-2.102-1.596-3.143s-1.022-2.093-1.555-3.157h1.456
			c0.354,0.691,0.633,1.246,0.833,1.666c0.201,0.42,0.357,0.761,0.47,1.022c0.111,0.261,0.193,0.469,0.244,0.623
			c0.052,0.153,0.101,0.314,0.147,0.482c0.056-0.168,0.109-0.329,0.161-0.482c0.051-0.154,0.133-0.362,0.245-0.623
			c0.111-0.262,0.268-0.603,0.469-1.022c0.2-0.42,0.479-0.975,0.833-1.666h1.442c-0.532,1.064-1.056,2.116-1.568,3.157
			C95.649,229.723,95.122,230.77,94.581,231.825z"/>
		<path fill="#FFF7DC" d="M103.484,230.79c-0.289,0.261-0.639,0.467-1.05,0.615c-0.41,0.149-0.83,0.225-1.26,0.225
			c-0.438,0-0.852-0.082-1.239-0.245c-0.387-0.163-0.723-0.388-1.008-0.672c-0.285-0.285-0.511-0.616-0.679-0.994
			s-0.252-0.782-0.252-1.211c0-0.43,0.084-0.833,0.252-1.211s0.394-0.71,0.679-0.994c0.285-0.285,0.616-0.509,0.994-0.672
			s0.777-0.245,1.197-0.245c0.672,0,1.262,0.203,1.771,0.608c0.509,0.406,0.87,0.94,1.085,1.604
			c-0.279,0.103-0.604,0.227-0.973,0.371c-0.369,0.145-0.754,0.296-1.155,0.455c-0.401,0.158-0.803,0.319-1.204,0.482
			c-0.401,0.164-0.77,0.311-1.105,0.441c0.158,0.289,0.378,0.522,0.658,0.7c0.279,0.177,0.597,0.266,0.951,0.266
			c0.243,0,0.488-0.044,0.735-0.133s0.45-0.208,0.609-0.357L103.484,230.79z M102.308,227.29c-0.111-0.206-0.279-0.357-0.504-0.455
			c-0.224-0.099-0.443-0.147-0.658-0.147c-0.252,0-0.489,0.049-0.714,0.147c-0.224,0.098-0.415,0.229-0.574,0.392
			c-0.158,0.163-0.284,0.35-0.378,0.56c-0.093,0.211-0.14,0.428-0.14,0.651v0.056c0.233-0.093,0.483-0.193,0.749-0.301
			s0.532-0.217,0.798-0.329c0.267-0.111,0.521-0.217,0.763-0.314C101.893,227.45,102.113,227.364,102.308,227.29z"/>
		<path fill="#FFF7DC" d="M105.01,225.525h1.176c0.019,0.336,0.04,0.609,0.063,0.819c0.022,0.21,0.044,0.445,0.062,0.707
			c0.215-0.504,0.519-0.91,0.91-1.218c0.392-0.309,0.882-0.462,1.47-0.462c0.606,0,1.09,0.165,1.449,0.496
			c0.359,0.332,0.548,0.764,0.567,1.296v4.312h-1.33v-3.682c-0.02-0.289-0.122-0.539-0.309-0.749s-0.476-0.324-0.868-0.344
			c-0.271,0-0.52,0.05-0.749,0.147c-0.229,0.098-0.425,0.23-0.588,0.399c-0.163,0.168-0.289,0.368-0.378,0.602
			s-0.133,0.485-0.133,0.756v2.87h-1.344V225.525z"/>
		<path fill="#FFF7DC" d="M111.954,228.508c0-0.467,0.077-0.892,0.231-1.274c0.153-0.383,0.368-0.711,0.644-0.986
			s0.598-0.49,0.966-0.645c0.369-0.154,0.772-0.23,1.211-0.23c0.299,0,0.561,0.032,0.784,0.098c0.225,0.065,0.415,0.145,0.574,0.238
			c0.158,0.093,0.287,0.193,0.385,0.301c0.099,0.107,0.175,0.198,0.231,0.272v-5.739h1.344v10.934h-1.344v-0.392
			c0-0.047,0.004-0.099,0.014-0.154c0.009-0.056,0.014-0.098,0.014-0.126c-0.084,0.084-0.187,0.175-0.308,0.272
			c-0.121,0.099-0.266,0.189-0.434,0.273s-0.357,0.151-0.567,0.203c-0.21,0.051-0.45,0.077-0.721,0.077
			c-0.477,0-0.903-0.082-1.281-0.245s-0.695-0.388-0.952-0.672c-0.257-0.285-0.453-0.616-0.588-0.994
			C112.021,229.341,111.954,228.936,111.954,228.508z M113.297,228.479c0,0.262,0.045,0.504,0.134,0.729
			c0.088,0.224,0.214,0.417,0.378,0.581c0.163,0.163,0.356,0.291,0.581,0.385c0.224,0.093,0.471,0.14,0.741,0.14
			s0.521-0.047,0.749-0.14c0.229-0.094,0.425-0.225,0.588-0.393c0.164-0.168,0.29-0.363,0.379-0.588
			c0.088-0.224,0.133-0.462,0.133-0.714s-0.045-0.487-0.133-0.707c-0.089-0.219-0.215-0.408-0.379-0.566
			c-0.163-0.159-0.359-0.285-0.588-0.379c-0.229-0.093-0.479-0.14-0.749-0.14s-0.518,0.045-0.741,0.133
			c-0.225,0.089-0.418,0.215-0.581,0.378c-0.164,0.164-0.29,0.355-0.378,0.574C113.342,227.992,113.297,228.227,113.297,228.479z"/>
		<path fill="#FFF7DC" d="M125.632,231.615h-1.12l-0.168-1.651c-0.215,0.476-0.512,0.87-0.89,1.183s-0.875,0.469-1.49,0.469
			c-0.616,0-1.104-0.161-1.464-0.482c-0.359-0.322-0.548-0.749-0.566-1.281v-4.326h1.344v3.696c0.019,0.289,0.119,0.534,0.301,0.735
			c0.183,0.2,0.474,0.31,0.875,0.328c0.271,0,0.519-0.046,0.742-0.14c0.224-0.093,0.418-0.224,0.581-0.392s0.292-0.369,0.385-0.603
			c0.094-0.233,0.141-0.485,0.141-0.756v-2.87h1.33V231.615z"/>
		<path fill="#FFF7DC" d="M132.393,230.79c-0.289,0.261-0.639,0.467-1.05,0.615c-0.41,0.149-0.83,0.225-1.26,0.225
			c-0.438,0-0.852-0.082-1.239-0.245c-0.387-0.163-0.723-0.388-1.008-0.672c-0.285-0.285-0.511-0.616-0.679-0.994
			s-0.252-0.782-0.252-1.211c0-0.43,0.084-0.833,0.252-1.211s0.394-0.71,0.679-0.994c0.285-0.285,0.616-0.509,0.994-0.672
			s0.777-0.245,1.197-0.245c0.672,0,1.262,0.203,1.771,0.608c0.509,0.406,0.87,0.94,1.085,1.604
			c-0.279,0.103-0.604,0.227-0.973,0.371c-0.369,0.145-0.754,0.296-1.155,0.455c-0.401,0.158-0.803,0.319-1.204,0.482
			c-0.401,0.164-0.77,0.311-1.105,0.441c0.158,0.289,0.378,0.522,0.658,0.7c0.279,0.177,0.597,0.266,0.951,0.266
			c0.243,0,0.488-0.044,0.735-0.133s0.45-0.208,0.609-0.357L132.393,230.79z M131.217,227.29c-0.111-0.206-0.279-0.357-0.504-0.455
			c-0.224-0.099-0.443-0.147-0.658-0.147c-0.252,0-0.489,0.049-0.714,0.147c-0.224,0.098-0.415,0.229-0.574,0.392
			c-0.158,0.163-0.284,0.35-0.378,0.56c-0.093,0.211-0.14,0.428-0.14,0.651v0.056c0.233-0.093,0.483-0.193,0.749-0.301
			s0.532-0.217,0.798-0.329c0.267-0.111,0.521-0.217,0.763-0.314C130.802,227.45,131.022,227.364,131.217,227.29z"/>
		<path fill="#FFF7DC" d="M137.307,226.057c-0.056,0.084-0.124,0.18-0.203,0.287s-0.156,0.208-0.23,0.301
			c-0.075,0.094-0.164,0.21-0.267,0.35c-0.093-0.064-0.184-0.116-0.272-0.153s-0.191-0.072-0.309-0.105
			c-0.116-0.032-0.235-0.049-0.356-0.049c-0.131,0-0.269,0.03-0.413,0.091c-0.145,0.062-0.217,0.185-0.217,0.371
			c0,0.159,0.062,0.292,0.188,0.399s0.28,0.205,0.462,0.294c0.183,0.089,0.383,0.18,0.603,0.272c0.219,0.094,0.42,0.21,0.602,0.351
			c0.183,0.14,0.336,0.314,0.462,0.524s0.189,0.47,0.189,0.777c0,0.271-0.049,0.518-0.147,0.742
			c-0.098,0.224-0.237,0.415-0.42,0.574c-0.182,0.158-0.398,0.284-0.65,0.378c-0.252,0.093-0.537,0.14-0.854,0.14
			c-0.383,0-0.754-0.065-1.113-0.196c-0.359-0.13-0.642-0.316-0.847-0.56c0.065-0.075,0.145-0.168,0.238-0.28
			c0.093-0.112,0.182-0.219,0.266-0.322c0.084-0.103,0.187-0.224,0.309-0.363c0-0.01,0.029,0.007,0.091,0.049
			c0.061,0.042,0.142,0.091,0.245,0.146c0.103,0.057,0.224,0.107,0.363,0.154c0.141,0.047,0.285,0.07,0.435,0.07
			c0.233,0,0.413-0.052,0.539-0.154s0.188-0.229,0.188-0.378s-0.062-0.271-0.188-0.364c-0.126-0.093-0.28-0.18-0.462-0.259
			c-0.183-0.079-0.383-0.166-0.603-0.259c-0.219-0.094-0.42-0.21-0.602-0.351c-0.183-0.14-0.336-0.319-0.462-0.538
			c-0.126-0.22-0.189-0.497-0.189-0.833c0-0.337,0.061-0.616,0.182-0.841c0.122-0.224,0.278-0.405,0.47-0.546
			c0.191-0.14,0.398-0.24,0.623-0.301c0.224-0.061,0.443-0.091,0.657-0.091c0.29,0,0.591,0.059,0.903,0.175
			C136.829,225.678,137.092,225.843,137.307,226.057z"/>
		<path fill="#FFF7DC" d="M141.633,228.563c0-0.429,0.084-0.838,0.252-1.225c0.168-0.388,0.394-0.726,0.679-1.016
			c0.285-0.289,0.616-0.52,0.994-0.692s0.777-0.259,1.197-0.259c0.279,0,0.531,0.034,0.756,0.104
			c0.224,0.07,0.417,0.151,0.581,0.245c0.163,0.094,0.291,0.188,0.385,0.287c0.093,0.098,0.154,0.175,0.182,0.23l0.057-0.714h1.302
			v5.95h-1.358v-0.392c0-0.047,0.003-0.092,0.008-0.134c0.004-0.042,0.007-0.072,0.007-0.091c-0.038,0.047-0.104,0.114-0.196,0.203
			c-0.094,0.089-0.22,0.175-0.378,0.259c-0.159,0.084-0.348,0.156-0.567,0.218c-0.219,0.061-0.474,0.091-0.763,0.091
			c-0.457,0-0.877-0.084-1.26-0.252s-0.714-0.393-0.994-0.672c-0.28-0.28-0.497-0.604-0.651-0.974
			C141.711,229.364,141.633,228.974,141.633,228.563z M142.991,228.479c0,0.262,0.045,0.504,0.134,0.729
			c0.088,0.224,0.214,0.417,0.378,0.581c0.163,0.163,0.356,0.291,0.581,0.385c0.224,0.093,0.471,0.14,0.741,0.14
			s0.519-0.047,0.742-0.14c0.225-0.094,0.418-0.225,0.581-0.393s0.289-0.363,0.378-0.588c0.089-0.224,0.133-0.462,0.133-0.714
			s-0.044-0.487-0.133-0.707c-0.089-0.219-0.215-0.408-0.378-0.566c-0.163-0.159-0.356-0.285-0.581-0.379
			c-0.224-0.093-0.472-0.14-0.742-0.14s-0.518,0.045-0.741,0.133c-0.225,0.089-0.418,0.215-0.581,0.378
			c-0.164,0.164-0.29,0.355-0.378,0.574C143.036,227.992,142.991,228.227,142.991,228.479z"/>
		<path fill="#FFF7DC" d="M155.326,231.615h-1.12l-0.168-1.651c-0.215,0.476-0.512,0.87-0.89,1.183s-0.875,0.469-1.49,0.469
			c-0.616,0-1.104-0.161-1.464-0.482c-0.359-0.322-0.548-0.749-0.566-1.281v-4.326h1.344v3.696c0.019,0.289,0.119,0.534,0.301,0.735
			c0.183,0.2,0.474,0.31,0.875,0.328c0.271,0,0.519-0.046,0.742-0.14c0.224-0.093,0.418-0.224,0.581-0.392s0.292-0.369,0.385-0.603
			c0.094-0.233,0.141-0.485,0.141-0.756v-2.87h1.33V231.615z"/>
		<path fill="#FFF7DC" d="M157.523,222.922h1.33v2.604h1.554v1.204h-1.554v4.746h-1.33v-4.746h-1.008v-1.204h1.008V222.922z"/>
		<path fill="#FFF7DC" d="M160.91,228.493c0-0.429,0.081-0.833,0.245-1.211c0.163-0.378,0.39-0.707,0.679-0.986
			c0.289-0.28,0.628-0.502,1.015-0.665c0.388-0.163,0.801-0.245,1.239-0.245c0.448,0,0.863,0.082,1.246,0.245
			s0.712,0.385,0.987,0.665c0.274,0.279,0.492,0.608,0.65,0.986c0.159,0.378,0.238,0.782,0.238,1.211
			c0,0.43-0.077,0.836-0.231,1.219c-0.153,0.383-0.37,0.716-0.65,1.001c-0.28,0.284-0.611,0.509-0.994,0.672
			s-0.803,0.245-1.26,0.245c-0.439,0-0.85-0.075-1.232-0.225c-0.383-0.148-0.716-0.361-1.001-0.637s-0.511-0.606-0.679-0.994
			C160.994,229.388,160.91,228.96,160.91,228.493z M162.24,228.508c0,0.252,0.046,0.487,0.14,0.707
			c0.093,0.219,0.222,0.41,0.385,0.574c0.163,0.163,0.354,0.291,0.574,0.385c0.219,0.093,0.455,0.14,0.707,0.14
			s0.487-0.047,0.707-0.14c0.219-0.094,0.41-0.222,0.574-0.385c0.163-0.164,0.294-0.355,0.392-0.574
			c0.099-0.22,0.147-0.455,0.147-0.707s-0.049-0.488-0.147-0.707c-0.098-0.22-0.229-0.411-0.392-0.574
			c-0.164-0.163-0.355-0.294-0.574-0.392c-0.22-0.099-0.455-0.147-0.707-0.147s-0.488,0.049-0.707,0.147
			c-0.22,0.098-0.411,0.229-0.574,0.392s-0.292,0.354-0.385,0.574C162.286,228.019,162.24,228.256,162.24,228.508z"/>
		<path fill="#FFF7DC" d="M174.141,231.615h-1.12l-0.168-1.651c-0.215,0.476-0.512,0.87-0.89,1.183s-0.875,0.469-1.49,0.469
			c-0.616,0-1.104-0.161-1.464-0.482c-0.359-0.322-0.548-0.749-0.566-1.281v-4.326h1.344v3.696c0.019,0.289,0.119,0.534,0.301,0.735
			c0.183,0.2,0.474,0.31,0.875,0.328c0.271,0,0.519-0.046,0.742-0.14c0.224-0.093,0.418-0.224,0.581-0.392s0.292-0.369,0.385-0.603
			c0.094-0.233,0.141-0.485,0.141-0.756v-2.87h1.33V231.615z"/>
		<path fill="#FFF7DC" d="M179.124,227.107c-0.262,0-0.511,0.033-0.749,0.099c-0.238,0.064-0.448,0.165-0.63,0.301
			c-0.183,0.135-0.329,0.303-0.441,0.504c-0.112,0.2-0.168,0.437-0.168,0.707v2.758h-1.344v-5.95h1.176
			c0.019,0.336,0.04,0.609,0.063,0.819c0.022,0.21,0.044,0.445,0.062,0.707c0.121-0.262,0.284-0.495,0.49-0.7
			c0.205-0.205,0.417-0.38,0.637-0.525c0.22-0.145,0.437-0.256,0.651-0.336c0.214-0.079,0.396-0.118,0.546-0.118L179.124,227.107z"
			/>
		<path fill="#FFF7DC" d="M182.877,228.508c0-0.467,0.077-0.892,0.231-1.274c0.153-0.383,0.368-0.711,0.644-0.986
			s0.598-0.49,0.966-0.645c0.369-0.154,0.772-0.23,1.211-0.23c0.299,0,0.561,0.032,0.784,0.098c0.225,0.065,0.415,0.145,0.574,0.238
			c0.158,0.093,0.287,0.193,0.385,0.301c0.099,0.107,0.175,0.198,0.231,0.272v-5.739h1.344v10.934h-1.344v-0.392
			c0-0.047,0.004-0.099,0.014-0.154c0.009-0.056,0.014-0.098,0.014-0.126c-0.084,0.084-0.187,0.175-0.308,0.272
			c-0.121,0.099-0.266,0.189-0.434,0.273s-0.357,0.151-0.567,0.203c-0.21,0.051-0.45,0.077-0.721,0.077
			c-0.477,0-0.903-0.082-1.281-0.245s-0.695-0.388-0.952-0.672c-0.257-0.285-0.453-0.616-0.588-0.994
			C182.944,229.341,182.877,228.936,182.877,228.508z M184.221,228.479c0,0.262,0.045,0.504,0.134,0.729
			c0.088,0.224,0.214,0.417,0.378,0.581c0.163,0.163,0.356,0.291,0.581,0.385c0.224,0.093,0.471,0.14,0.741,0.14
			s0.521-0.047,0.749-0.14c0.229-0.094,0.425-0.225,0.588-0.393c0.164-0.168,0.29-0.363,0.379-0.588
			c0.088-0.224,0.133-0.462,0.133-0.714s-0.045-0.487-0.133-0.707c-0.089-0.219-0.215-0.408-0.379-0.566
			c-0.163-0.159-0.359-0.285-0.588-0.379c-0.229-0.093-0.479-0.14-0.749-0.14s-0.518,0.045-0.741,0.133
			c-0.225,0.089-0.418,0.215-0.581,0.378c-0.164,0.164-0.29,0.355-0.378,0.574C184.266,227.992,184.221,228.227,184.221,228.479z"/>
		<path fill="#FFF7DC" d="M196.009,230.79c-0.289,0.261-0.639,0.467-1.05,0.615c-0.41,0.149-0.83,0.225-1.26,0.225
			c-0.438,0-0.852-0.082-1.239-0.245c-0.387-0.163-0.723-0.388-1.008-0.672c-0.285-0.285-0.511-0.616-0.679-0.994
			s-0.252-0.782-0.252-1.211c0-0.43,0.084-0.833,0.252-1.211s0.394-0.71,0.679-0.994c0.285-0.285,0.616-0.509,0.994-0.672
			s0.777-0.245,1.197-0.245c0.672,0,1.262,0.203,1.771,0.608c0.509,0.406,0.87,0.94,1.085,1.604
			c-0.279,0.103-0.604,0.227-0.973,0.371c-0.369,0.145-0.754,0.296-1.155,0.455c-0.401,0.158-0.803,0.319-1.204,0.482
			c-0.401,0.164-0.77,0.311-1.105,0.441c0.158,0.289,0.378,0.522,0.658,0.7c0.279,0.177,0.597,0.266,0.951,0.266
			c0.243,0,0.488-0.044,0.735-0.133s0.45-0.208,0.609-0.357L196.009,230.79z M194.833,227.29c-0.111-0.206-0.279-0.357-0.504-0.455
			c-0.224-0.099-0.443-0.147-0.658-0.147c-0.252,0-0.489,0.049-0.714,0.147c-0.224,0.098-0.415,0.229-0.574,0.392
			c-0.158,0.163-0.284,0.35-0.378,0.56c-0.093,0.211-0.14,0.428-0.14,0.651v0.056c0.233-0.093,0.483-0.193,0.749-0.301
			s0.532-0.217,0.798-0.329c0.267-0.111,0.521-0.217,0.763-0.314C194.418,227.45,194.638,227.364,194.833,227.29z"/>
		<path fill="#FFF7DC" d="M200.923,226.057c-0.056,0.084-0.124,0.18-0.203,0.287s-0.156,0.208-0.23,0.301
			c-0.075,0.094-0.164,0.21-0.267,0.35c-0.093-0.064-0.184-0.116-0.272-0.153s-0.191-0.072-0.309-0.105
			c-0.116-0.032-0.235-0.049-0.356-0.049c-0.131,0-0.269,0.03-0.413,0.091c-0.145,0.062-0.217,0.185-0.217,0.371
			c0,0.159,0.062,0.292,0.188,0.399s0.28,0.205,0.462,0.294c0.183,0.089,0.383,0.18,0.603,0.272c0.219,0.094,0.42,0.21,0.602,0.351
			c0.183,0.14,0.336,0.314,0.462,0.524s0.189,0.47,0.189,0.777c0,0.271-0.049,0.518-0.147,0.742
			c-0.098,0.224-0.237,0.415-0.42,0.574c-0.182,0.158-0.398,0.284-0.65,0.378c-0.252,0.093-0.537,0.14-0.854,0.14
			c-0.383,0-0.754-0.065-1.113-0.196c-0.359-0.13-0.642-0.316-0.847-0.56c0.065-0.075,0.145-0.168,0.238-0.28
			c0.093-0.112,0.182-0.219,0.266-0.322c0.084-0.103,0.187-0.224,0.309-0.363c0-0.01,0.029,0.007,0.091,0.049
			c0.061,0.042,0.142,0.091,0.245,0.146c0.103,0.057,0.224,0.107,0.363,0.154c0.141,0.047,0.285,0.07,0.435,0.07
			c0.233,0,0.413-0.052,0.539-0.154s0.188-0.229,0.188-0.378s-0.062-0.271-0.188-0.364c-0.126-0.093-0.28-0.18-0.462-0.259
			c-0.183-0.079-0.383-0.166-0.603-0.259c-0.219-0.094-0.42-0.21-0.602-0.351c-0.183-0.14-0.336-0.319-0.462-0.538
			c-0.126-0.22-0.189-0.497-0.189-0.833c0-0.337,0.061-0.616,0.182-0.841c0.122-0.224,0.278-0.405,0.47-0.546
			c0.191-0.14,0.398-0.24,0.623-0.301c0.224-0.061,0.443-0.091,0.657-0.091c0.29,0,0.591,0.059,0.903,0.175
			C200.444,225.678,200.708,225.843,200.923,226.057z"/>
		<path fill="#FFF7DC" d="M99.418,245.322c0,0.448-0.075,0.861-0.225,1.239s-0.361,0.707-0.637,0.987
			c-0.275,0.279-0.604,0.496-0.987,0.65s-0.803,0.231-1.26,0.231s-0.861-0.087-1.211-0.26c-0.35-0.172-0.591-0.356-0.721-0.553
			c0,0.038,0.002,0.072,0.007,0.105c0.005,0.032,0.007,0.072,0.007,0.119v0.434h-1.344v-10.934h1.344v5.739
			c0.074-0.093,0.17-0.193,0.287-0.301c0.116-0.107,0.259-0.205,0.427-0.294s0.357-0.163,0.567-0.224s0.44-0.091,0.692-0.091
			c0.458,0,0.873,0.072,1.246,0.217c0.374,0.145,0.693,0.354,0.959,0.63c0.267,0.275,0.474,0.606,0.623,0.994
			C99.342,244.4,99.418,244.837,99.418,245.322z M97.962,245.294c0-0.522-0.152-0.954-0.455-1.295
			c-0.304-0.34-0.726-0.511-1.268-0.511c-0.271,0-0.518,0.045-0.741,0.133c-0.225,0.089-0.418,0.215-0.581,0.378
			c-0.164,0.164-0.292,0.355-0.386,0.574c-0.093,0.22-0.14,0.455-0.14,0.707c0,0.262,0.047,0.504,0.14,0.729
			c0.094,0.224,0.222,0.417,0.386,0.581c0.163,0.163,0.356,0.291,0.581,0.385c0.224,0.093,0.471,0.14,0.741,0.14
			c0.271,0,0.514-0.047,0.729-0.14c0.215-0.094,0.395-0.225,0.539-0.393s0.257-0.361,0.336-0.581
			C97.921,245.782,97.962,245.546,97.962,245.294z"/>
		<path fill="#FFF7DC" d="M100.341,245.364c0-0.429,0.084-0.838,0.252-1.225c0.168-0.388,0.394-0.726,0.679-1.016
			c0.285-0.289,0.616-0.52,0.994-0.692s0.777-0.259,1.197-0.259c0.279,0,0.531,0.034,0.756,0.104
			c0.224,0.07,0.417,0.151,0.581,0.245c0.163,0.094,0.291,0.188,0.385,0.287c0.093,0.098,0.154,0.175,0.182,0.23l0.057-0.714h1.302
			v5.95h-1.358v-0.392c0-0.047,0.003-0.092,0.008-0.134c0.004-0.042,0.007-0.072,0.007-0.091c-0.038,0.047-0.104,0.114-0.196,0.203
			c-0.094,0.089-0.22,0.175-0.378,0.259c-0.159,0.084-0.348,0.156-0.567,0.218c-0.219,0.061-0.474,0.091-0.763,0.091
			c-0.457,0-0.877-0.084-1.26-0.252s-0.714-0.393-0.994-0.672c-0.28-0.28-0.497-0.604-0.651-0.974
			C100.419,246.165,100.341,245.775,100.341,245.364z M101.699,245.28c0,0.262,0.045,0.504,0.134,0.729
			c0.088,0.224,0.214,0.417,0.378,0.581c0.163,0.163,0.356,0.291,0.581,0.385c0.224,0.093,0.471,0.14,0.741,0.14
			s0.519-0.047,0.742-0.14c0.225-0.094,0.418-0.225,0.581-0.393s0.289-0.363,0.378-0.588c0.089-0.224,0.133-0.462,0.133-0.714
			s-0.044-0.487-0.133-0.707c-0.089-0.219-0.215-0.408-0.378-0.566c-0.163-0.159-0.356-0.285-0.581-0.379
			c-0.224-0.093-0.472-0.14-0.742-0.14s-0.518,0.045-0.741,0.133c-0.225,0.089-0.418,0.215-0.581,0.378
			c-0.164,0.164-0.29,0.355-0.378,0.574C101.744,244.793,101.699,245.028,101.699,245.28z"/>
		<path fill="#FFF7DC" d="M111.71,243.908c-0.262,0-0.511,0.033-0.749,0.099c-0.238,0.064-0.448,0.165-0.63,0.301
			c-0.183,0.135-0.329,0.303-0.441,0.504c-0.112,0.2-0.168,0.437-0.168,0.707v2.758h-1.344v-5.95h1.176
			c0.019,0.336,0.04,0.609,0.063,0.819c0.022,0.21,0.044,0.445,0.062,0.707c0.121-0.262,0.284-0.495,0.49-0.7
			c0.205-0.205,0.417-0.38,0.637-0.525c0.22-0.145,0.437-0.256,0.651-0.336c0.214-0.079,0.396-0.118,0.546-0.118L111.71,243.908z"/>
		<path fill="#FFF7DC" d="M119.284,245.322c0,0.448-0.075,0.861-0.225,1.239s-0.361,0.707-0.637,0.987
			c-0.275,0.279-0.604,0.496-0.987,0.65s-0.803,0.231-1.26,0.231s-0.861-0.087-1.211-0.26c-0.35-0.172-0.591-0.356-0.721-0.553
			c0,0.038,0.002,0.072,0.007,0.105c0.005,0.032,0.007,0.072,0.007,0.119v0.434h-1.344v-10.934h1.344v5.739
			c0.074-0.093,0.17-0.193,0.287-0.301c0.116-0.107,0.259-0.205,0.427-0.294s0.357-0.163,0.567-0.224s0.44-0.091,0.692-0.091
			c0.458,0,0.873,0.072,1.246,0.217c0.374,0.145,0.693,0.354,0.959,0.63c0.267,0.275,0.474,0.606,0.623,0.994
			C119.209,244.4,119.284,244.837,119.284,245.322z M117.828,245.294c0-0.522-0.152-0.954-0.455-1.295
			c-0.304-0.34-0.726-0.511-1.268-0.511c-0.271,0-0.518,0.045-0.741,0.133c-0.225,0.089-0.418,0.215-0.581,0.378
			c-0.164,0.164-0.292,0.355-0.386,0.574c-0.093,0.22-0.14,0.455-0.14,0.707c0,0.262,0.047,0.504,0.14,0.729
			c0.094,0.224,0.222,0.417,0.386,0.581c0.163,0.163,0.356,0.291,0.581,0.385c0.224,0.093,0.471,0.14,0.741,0.14
			c0.271,0,0.514-0.047,0.729-0.14c0.215-0.094,0.395-0.225,0.539-0.393s0.257-0.361,0.336-0.581
			C117.788,245.782,117.828,245.546,117.828,245.294z"/>
		<path fill="#FFF7DC" d="M125.695,247.591c-0.289,0.261-0.639,0.467-1.05,0.615c-0.41,0.149-0.83,0.225-1.26,0.225
			c-0.438,0-0.852-0.082-1.239-0.245c-0.387-0.163-0.723-0.388-1.008-0.672c-0.285-0.285-0.511-0.616-0.679-0.994
			s-0.252-0.782-0.252-1.211c0-0.43,0.084-0.833,0.252-1.211s0.394-0.71,0.679-0.994c0.285-0.285,0.616-0.509,0.994-0.672
			s0.777-0.245,1.197-0.245c0.672,0,1.262,0.203,1.771,0.608c0.509,0.406,0.87,0.94,1.085,1.604
			c-0.279,0.103-0.604,0.227-0.973,0.371c-0.369,0.145-0.754,0.296-1.155,0.455c-0.401,0.158-0.803,0.319-1.204,0.482
			c-0.401,0.164-0.77,0.311-1.105,0.441c0.158,0.289,0.378,0.522,0.658,0.7c0.279,0.177,0.597,0.266,0.951,0.266
			c0.243,0,0.488-0.044,0.735-0.133s0.45-0.208,0.609-0.357L125.695,247.591z M124.519,244.091
			c-0.111-0.206-0.279-0.357-0.504-0.455c-0.224-0.099-0.443-0.147-0.658-0.147c-0.252,0-0.489,0.049-0.714,0.147
			c-0.224,0.098-0.415,0.229-0.574,0.392c-0.158,0.163-0.284,0.35-0.378,0.56c-0.093,0.211-0.14,0.428-0.14,0.651v0.056
			c0.233-0.093,0.483-0.193,0.749-0.301s0.532-0.217,0.798-0.329c0.267-0.111,0.521-0.217,0.763-0.314
			C124.104,244.251,124.324,244.165,124.519,244.091z"/>
		<path fill="#FFF7DC" d="M131.197,246.722c0.141,0.177,0.275,0.348,0.406,0.511s0.266,0.329,0.406,0.497
			c-0.271,0.215-0.574,0.385-0.91,0.511s-0.695,0.189-1.078,0.189c-0.438,0-0.852-0.082-1.239-0.245
			c-0.387-0.163-0.723-0.388-1.008-0.672c-0.285-0.285-0.511-0.618-0.679-1.001s-0.252-0.789-0.252-1.219
			c0-0.429,0.084-0.833,0.252-1.211s0.394-0.709,0.679-0.993c0.285-0.285,0.621-0.509,1.008-0.673
			c0.388-0.163,0.801-0.244,1.239-0.244c0.392,0,0.758,0.062,1.099,0.188s0.651,0.297,0.932,0.511l-0.854,0.994
			c-0.326-0.252-0.719-0.378-1.176-0.378c-0.271,0-0.518,0.047-0.742,0.14c-0.224,0.094-0.418,0.22-0.581,0.379
			c-0.163,0.158-0.289,0.348-0.378,0.566c-0.089,0.22-0.133,0.46-0.133,0.721c0,0.252,0.044,0.488,0.133,0.707
			c0.089,0.22,0.215,0.413,0.378,0.581s0.357,0.299,0.581,0.393c0.225,0.093,0.472,0.14,0.742,0.14
			C130.488,247.114,130.879,246.983,131.197,246.722z"/>
		<path fill="#FFF7DC" d="M138.828,248.416h-1.12l-0.168-1.651c-0.215,0.476-0.512,0.87-0.89,1.183s-0.875,0.469-1.49,0.469
			c-0.616,0-1.104-0.161-1.464-0.482c-0.359-0.322-0.548-0.749-0.566-1.281v-4.326h1.344v3.696c0.019,0.289,0.119,0.534,0.301,0.735
			c0.183,0.2,0.474,0.31,0.875,0.328c0.271,0,0.519-0.046,0.742-0.14c0.224-0.093,0.418-0.224,0.581-0.392s0.292-0.369,0.385-0.603
			c0.094-0.233,0.141-0.485,0.141-0.756v-2.87h1.33V248.416z"/>
		<path fill="#FFF7DC" d="M145.588,247.591c-0.289,0.261-0.639,0.467-1.05,0.615c-0.41,0.149-0.83,0.225-1.26,0.225
			c-0.438,0-0.852-0.082-1.239-0.245c-0.387-0.163-0.723-0.388-1.008-0.672c-0.285-0.285-0.511-0.616-0.679-0.994
			s-0.252-0.782-0.252-1.211c0-0.43,0.084-0.833,0.252-1.211s0.394-0.71,0.679-0.994c0.285-0.285,0.616-0.509,0.994-0.672
			s0.777-0.245,1.197-0.245c0.672,0,1.262,0.203,1.771,0.608c0.509,0.406,0.87,0.94,1.085,1.604
			c-0.279,0.103-0.604,0.227-0.973,0.371c-0.369,0.145-0.754,0.296-1.155,0.455c-0.401,0.158-0.803,0.319-1.204,0.482
			c-0.401,0.164-0.77,0.311-1.105,0.441c0.158,0.289,0.378,0.522,0.658,0.7c0.279,0.177,0.597,0.266,0.951,0.266
			c0.243,0,0.488-0.044,0.735-0.133s0.45-0.208,0.609-0.357L145.588,247.591z M144.413,244.091
			c-0.111-0.206-0.279-0.357-0.504-0.455c-0.224-0.099-0.443-0.147-0.658-0.147c-0.252,0-0.489,0.049-0.714,0.147
			c-0.224,0.098-0.415,0.229-0.574,0.392c-0.158,0.163-0.284,0.35-0.378,0.56c-0.093,0.211-0.14,0.428-0.14,0.651v0.056
			c0.233-0.093,0.483-0.193,0.749-0.301s0.532-0.217,0.798-0.329c0.267-0.111,0.521-0.217,0.763-0.314
			C143.998,244.251,144.217,244.165,144.413,244.091z"/>
		<path fill="#FFF7DC" d="M150.503,242.858c-0.056,0.084-0.124,0.18-0.203,0.287s-0.156,0.208-0.23,0.301
			c-0.075,0.094-0.164,0.21-0.267,0.35c-0.093-0.064-0.184-0.116-0.272-0.153s-0.191-0.072-0.309-0.105
			c-0.116-0.032-0.235-0.049-0.356-0.049c-0.131,0-0.269,0.03-0.413,0.091c-0.145,0.062-0.217,0.185-0.217,0.371
			c0,0.159,0.062,0.292,0.188,0.399s0.28,0.205,0.462,0.294c0.183,0.089,0.383,0.18,0.603,0.272c0.219,0.094,0.42,0.21,0.602,0.351
			c0.183,0.14,0.336,0.314,0.462,0.524s0.189,0.47,0.189,0.777c0,0.271-0.049,0.518-0.147,0.742
			c-0.098,0.224-0.237,0.415-0.42,0.574c-0.182,0.158-0.398,0.284-0.65,0.378c-0.252,0.093-0.537,0.14-0.854,0.14
			c-0.383,0-0.754-0.065-1.113-0.196c-0.359-0.13-0.642-0.316-0.847-0.56c0.065-0.075,0.145-0.168,0.238-0.28
			c0.093-0.112,0.182-0.219,0.266-0.322c0.084-0.103,0.187-0.224,0.309-0.363c0-0.01,0.029,0.007,0.091,0.049
			c0.061,0.042,0.142,0.091,0.245,0.146c0.103,0.057,0.224,0.107,0.363,0.154c0.141,0.047,0.285,0.07,0.435,0.07
			c0.233,0,0.413-0.052,0.539-0.154s0.188-0.229,0.188-0.378s-0.062-0.271-0.188-0.364c-0.126-0.093-0.28-0.18-0.462-0.259
			c-0.183-0.079-0.383-0.166-0.603-0.259c-0.219-0.094-0.42-0.21-0.602-0.351c-0.183-0.14-0.336-0.319-0.462-0.538
			c-0.126-0.22-0.189-0.497-0.189-0.833c0-0.337,0.061-0.616,0.182-0.841c0.122-0.224,0.278-0.405,0.47-0.546
			c0.191-0.14,0.398-0.24,0.623-0.301c0.224-0.061,0.443-0.091,0.657-0.091c0.29,0,0.591,0.059,0.903,0.175
			C150.024,242.478,150.288,242.643,150.503,242.858z"/>
		<path fill="#FFF7DC" d="M154.842,245.308c0-0.467,0.077-0.892,0.231-1.274c0.153-0.383,0.368-0.711,0.644-0.986
			s0.598-0.49,0.966-0.645c0.369-0.154,0.772-0.23,1.211-0.23c0.299,0,0.561,0.032,0.784,0.098c0.225,0.065,0.415,0.145,0.574,0.238
			c0.158,0.093,0.287,0.193,0.385,0.301c0.099,0.107,0.175,0.198,0.231,0.272v-5.739h1.344v10.934h-1.344v-0.392
			c0-0.047,0.004-0.099,0.014-0.154c0.009-0.056,0.014-0.098,0.014-0.126c-0.084,0.084-0.187,0.175-0.308,0.272
			c-0.121,0.099-0.266,0.189-0.434,0.273s-0.357,0.151-0.567,0.203c-0.209,0.051-0.45,0.077-0.72,0.077
			c-0.477,0-0.903-0.082-1.281-0.245s-0.695-0.388-0.952-0.672c-0.257-0.285-0.453-0.616-0.588-0.994
			C154.91,246.141,154.842,245.737,154.842,245.308z M156.186,245.28c0,0.262,0.045,0.504,0.134,0.729
			c0.088,0.224,0.214,0.417,0.378,0.581c0.163,0.163,0.356,0.291,0.581,0.385c0.224,0.093,0.471,0.14,0.741,0.14
			s0.52-0.047,0.749-0.14c0.229-0.094,0.425-0.225,0.588-0.393c0.164-0.168,0.29-0.363,0.379-0.588
			c0.088-0.224,0.133-0.462,0.133-0.714s-0.045-0.487-0.133-0.707c-0.089-0.219-0.215-0.408-0.379-0.566
			c-0.163-0.159-0.359-0.285-0.588-0.379c-0.229-0.093-0.478-0.14-0.749-0.14s-0.518,0.045-0.741,0.133
			c-0.225,0.089-0.418,0.215-0.581,0.378c-0.164,0.164-0.29,0.355-0.378,0.574C156.231,244.793,156.186,245.028,156.186,245.28z"/>
		<path fill="#FFF7DC" d="M168.521,248.416h-1.12l-0.168-1.651c-0.215,0.476-0.512,0.87-0.89,1.183s-0.875,0.469-1.49,0.469
			c-0.616,0-1.104-0.161-1.464-0.482c-0.359-0.322-0.548-0.749-0.566-1.281v-4.326h1.344v3.696c0.019,0.289,0.119,0.534,0.301,0.735
			c0.183,0.2,0.474,0.31,0.875,0.328c0.271,0,0.519-0.046,0.742-0.14c0.224-0.093,0.418-0.224,0.581-0.392s0.292-0.369,0.385-0.603
			c0.094-0.233,0.141-0.485,0.141-0.756v-2.87h1.33V248.416z"/>
		<path fill="#FFF7DC" d="M173.7,238.07l2.729,6.566c0,0.009,0.019,0.072,0.057,0.188c0.037,0.117,0.064,0.227,0.084,0.329
			c0.019-0.103,0.046-0.212,0.084-0.329c0.037-0.116,0.061-0.18,0.069-0.188l2.73-6.566h1.693c-0.037,0.084-0.126,0.294-0.266,0.63
			s-0.315,0.749-0.525,1.239s-0.443,1.036-0.699,1.638c-0.257,0.603-0.521,1.214-0.791,1.834c-0.271,0.621-0.535,1.234-0.791,1.841
			c-0.257,0.607-0.49,1.155-0.7,1.646s-0.388,0.9-0.532,1.231c-0.145,0.332-0.235,0.539-0.272,0.623
			c-0.038-0.084-0.126-0.291-0.267-0.623c-0.14-0.331-0.314-0.741-0.524-1.231s-0.443-1.038-0.7-1.646
			c-0.257-0.606-0.521-1.22-0.791-1.841c-0.271-0.62-0.534-1.231-0.791-1.834c-0.257-0.602-0.49-1.147-0.7-1.638
			s-0.385-0.903-0.525-1.239c-0.14-0.336-0.229-0.546-0.266-0.63H173.7z"/>
		<path fill="#FFF7DC" d="M187.7,248.276c-0.028-0.065-0.077-0.182-0.147-0.35c-0.069-0.168-0.156-0.374-0.259-0.616
			c-0.103-0.243-0.215-0.511-0.336-0.806c-0.121-0.294-0.247-0.599-0.378-0.917h-3.514l-1.12,2.688h-1.694
			c0.037-0.084,0.126-0.292,0.266-0.623c0.141-0.331,0.315-0.742,0.525-1.232c0.21-0.489,0.443-1.035,0.7-1.638
			c0.257-0.602,0.52-1.216,0.791-1.841c0.271-0.625,0.534-1.239,0.791-1.841c0.257-0.603,0.49-1.148,0.7-1.639
			c0.21-0.489,0.385-0.9,0.524-1.231c0.141-0.331,0.229-0.539,0.267-0.623c0.037,0.084,0.128,0.292,0.272,0.623
			s0.322,0.742,0.532,1.231c0.21,0.49,0.443,1.036,0.7,1.639c0.256,0.602,0.52,1.216,0.791,1.841
			c0.271,0.625,0.534,1.239,0.791,1.841c0.256,0.603,0.489,1.148,0.699,1.638c0.21,0.49,0.386,0.901,0.525,1.232
			s0.229,0.539,0.266,0.623H187.7z M183.654,244.146h2.323l-1.008-2.437c-0.009-0.009-0.032-0.072-0.069-0.188
			c-0.038-0.117-0.065-0.222-0.084-0.315c-0.02,0.094-0.047,0.198-0.084,0.315c-0.038,0.116-0.057,0.18-0.057,0.188L183.654,244.146
			z"/>
		<path fill="#FFF7DC" d="M199.586,238.07v10.682c-0.065-0.084-0.21-0.237-0.435-0.462c-0.224-0.224-0.499-0.492-0.826-0.805
			c-0.326-0.312-0.688-0.658-1.085-1.036s-0.8-0.761-1.211-1.147c-0.41-0.388-0.812-0.768-1.204-1.142
			c-0.392-0.373-0.749-0.716-1.07-1.028c-0.322-0.313-0.593-0.579-0.812-0.799c-0.219-0.219-0.361-0.371-0.427-0.455
			c-0.01-0.019-0.047-0.067-0.112-0.146s-0.121-0.151-0.168-0.217l0.042,0.447v6.314h-1.708v-10.668
			c0.065,0.084,0.21,0.235,0.435,0.455c0.224,0.22,0.499,0.482,0.825,0.791c0.327,0.308,0.688,0.644,1.086,1.008
			c0.396,0.364,0.8,0.735,1.211,1.113c0.41,0.378,0.812,0.751,1.203,1.12c0.393,0.368,0.752,0.704,1.078,1.008
			c0.327,0.304,0.6,0.562,0.819,0.776c0.219,0.215,0.361,0.364,0.427,0.448l0.267,0.393l-0.042-0.477v-6.174H199.586z"/>
	</g>
</g>
</svg>
