<?xml version="1.0" encoding="utf-8"?>
<!-- Generator: Adobe Illustrator 16.0.0, SVG Export Plug-In . SVG Version: 6.00 Build 0)  -->
<!DOCTYPE svg PUBLIC "-//W3C//DTD SVG 1.1//EN" "http://www.w3.org/Graphics/SVG/1.1/DTD/svg11.dtd">
<svg version="1.1" id="Calque_1" xmlns="http://www.w3.org/2000/svg" xmlns:xlink="http://www.w3.org/1999/xlink" x="0px" y="0px"
	 width="316.049px" height="314.816px" viewBox="0 0 316.049 314.816" enable-background="new 0 0 316.049 314.816"
	 xml:space="preserve">
<g>
	<polygon fill="#1D2B40" points="148.505,86.42 158.274,76.608 166.011,88.091 177.46,80.306 182.882,93.045 195.599,87.567 
		198.513,101.102 212.034,98.131 212.333,111.974 226.175,111.613 223.849,125.263 237.508,127.528 232.642,140.49 245.624,145.302 
		238.392,157.108 250.231,164.289 240.896,174.515 251.161,183.804 240.058,192.08 248.379,203.145 235.913,209.167 
		241.989,221.606 228.608,225.162 232.222,238.528 218.409,239.485 219.427,253.294 205.683,251.621 204.067,265.373 
		190.89,261.126 186.7,274.326 174.563,267.664 167.954,279.83 157.296,270.992 148.505,281.687 139.714,270.992 129.056,279.83 
		122.446,267.664 110.31,274.326 106.12,261.126 92.942,265.373 91.327,251.621 77.583,253.294 78.601,239.485 64.788,238.528 
		68.401,225.162 55.021,221.606 61.097,209.167 48.63,203.145 56.952,192.08 45.849,183.804 56.114,174.515 46.778,164.289 
		58.618,157.108 51.386,145.302 64.368,140.49 59.501,127.528 73.161,125.263 70.835,111.613 84.677,111.974 84.976,98.131 
		98.497,101.102 101.411,87.567 114.128,93.045 119.55,80.306 130.999,88.091 138.737,76.608 	"/>
	<rect x="74.492" y="200.742" fill="none" width="144" height="38"/>
	<text transform="matrix(1 0 0 1 100.3218 214.0161)" fill="#FFF7DC" font-family="'JosefinSans-Bold'" font-size="17">2,5 tonnes de </text>
	<text transform="matrix(1 0 0 1 85.668 234.4155)" fill="#FFF7DC" font-family="'JosefinSans-Bold'" font-size="17">saucisses vendues</text>
	<g>
		<path fill="#E58C4A" d="M99.729,144.279c0,0,0-8.662,17.325-8.662c7.155,0,13.755-2.901,18.815-7.912
			c7.002-6.934,4.042-24.774,15.834-26.739c10.396-1.733,13.86,10.395,12.128,22.523c-1.731,12.127-8.663,20.79-15.593,25.988
			s-22.522,12.128-39.848,8.663C108.391,158.139,97.995,156.408,99.729,144.279z"/>
		<path fill="#1B0A09" d="M130.444,133.851c0,0,6.646,7.477,17.999,7.199C148.443,141.05,144.566,134.681,130.444,133.851z"/>
		<path fill="#1B0A09" d="M143.95,126.07c0,0,7.493-3.726,15.242,1.311C159.191,127.381,154.619,131.022,143.95,126.07z"/>
		<path fill="#1B0A09" d="M145.49,116.06c0,0,7.493-3.726,15.242,1.311C160.731,117.371,156.159,121.012,145.49,116.06z"/>
		<path fill="#1B0A09" d="M114.152,139.912c0,0,11.054-0.938,18.147,9.049C132.3,148.96,124.889,151.218,114.152,139.912z"/>
		<path fill="#E58C4A" d="M132.068,172.192c0,0,0-8.663,17.325-8.663c7.155,0,13.755-2.9,18.815-7.91
			c7.002-6.935,4.042-24.775,15.834-26.74c10.396-1.733,13.86,10.395,12.128,22.523c-1.732,12.129-8.663,20.79-15.593,25.988
			c-6.93,5.197-22.522,12.128-39.848,8.663C140.73,186.052,130.335,184.32,132.068,172.192z"/>
		<path fill="#1B0A09" d="M162.784,161.763c0,0,6.646,7.477,17.999,7.199C180.783,168.962,176.907,162.593,162.784,161.763z"/>
		<path fill="#1B0A09" d="M176.29,153.983c0,0,7.493-3.726,15.242,1.312C191.532,155.294,186.959,158.935,176.29,153.983z"/>
		<path fill="#1B0A09" d="M177.83,143.973c0,0,7.493-3.726,15.242,1.312C193.072,145.285,188.499,148.925,177.83,143.973z"/>
		<path fill="#1B0A09" d="M146.492,167.824c0,0,11.054-0.939,18.148,9.049C164.641,176.873,157.229,179.132,146.492,167.824z"/>
	</g>
</g>
<polygon fill="#1D2B40" points="894.057,98.42 903.827,88.608 911.563,100.091 923.013,92.306 928.435,105.045 941.151,99.567 
	944.065,113.102 957.587,110.131 957.886,123.974 971.728,123.613 969.401,137.263 983.062,139.528 978.194,152.49 991.177,157.302 
	983.944,169.108 995.784,176.289 986.448,186.515 996.714,195.804 985.61,204.08 993.932,215.145 981.466,221.167 987.542,233.606 
	974.161,237.162 977.774,250.528 963.962,251.485 964.979,265.294 951.235,263.621 949.62,277.373 936.442,273.126 932.253,286.326 
	920.116,279.664 913.507,291.83 902.849,282.992 894.057,293.687 885.267,282.992 874.608,291.83 867.999,279.664 855.862,286.326 
	851.673,273.126 838.495,277.373 836.88,263.621 823.136,265.294 824.153,251.485 810.341,250.528 813.954,237.162 800.573,233.606 
	806.649,221.167 794.182,215.145 802.505,204.08 791.401,195.804 801.667,186.515 792.331,176.289 804.171,169.108 796.938,157.302 
	809.921,152.49 805.054,139.528 818.714,137.263 816.388,123.613 830.229,123.974 830.528,110.131 844.05,113.102 846.964,99.567 
	859.681,105.045 865.103,92.306 876.552,100.091 884.29,88.608 "/>
<rect x="821.729" y="189.554" fill="none" width="144" height="68.999"/>
<text transform="matrix(1 0 0 1 832.7607 202.8296)" fill="#FFF7DC" font-family="'JosefinSans-Bold'" font-size="17">2000 canards en </text>
<text transform="matrix(1 0 0 1 837.7412 223.229)" fill="#FFF7DC" font-family="'JosefinSans-Bold'" font-size="17">plastique jaunes </text>
<text transform="matrix(1 0 0 1 826.9043 243.6304)" fill="#FFF7DC" font-family="'JosefinSans-Bold'" font-size="17">lâchés dans l’Erdre.</text>
<g>
	<path fill="#E58C4A" d="M909.099,141.341c0.498,0.4,0.832,0.688,1.188,0.95c6.02,4.437,8.35,12.101,5.674,19.018
		c-1.797,4.646-5.435,7.274-10.096,8.53c-4.447,1.199-9.027,1.055-13.571,0.888c-2.52-0.093-5.059-0.392-7.533-0.877
		c-6.235-1.228-10.311-5.05-12.543-10.929c-1.214-3.196-2.215-6.457-2.628-9.858c-0.146-1.213-0.169-2.482,0.012-3.687
		c0.417-2.764,2.437-4.3,5.201-3.902c1.852,0.266,3.708,0.687,5.478,1.29c3.036,1.036,6.01,0.776,9.012-0.003
		c0.211-0.055,0.404-0.181,0.732-0.332c-0.271-0.39-0.472-0.746-0.733-1.049c-6.276-7.244-2.787-18.064,6.535-20.255
		c5.197-1.222,10.943,1.481,13.483,6.342c0.967,1.849,1.46,2.118,3.55,1.961c0.646-0.049,1.303-0.16,1.939-0.095
		c2.533,0.258,3.744,2.002,2.952,4.444c-0.329,1.016-0.96,1.991-1.651,2.82c-1.505,1.803-3.545,2.923-5.602,3.988
		C910.096,140.792,909.704,141.013,909.099,141.341z"/>
	<path fill="none" stroke="#1D2B40" stroke-miterlimit="10" d="M895.836,132.377c0,0,5.623,1.757,7.028-1.757"/>
</g>
</svg>
