<?xml version="1.0" encoding="utf-8"?>
<!-- Generator: Adobe Illustrator 17.0.0, SVG Export Plug-In . SVG Version: 6.00 Build 0)  -->
<!DOCTYPE svg PUBLIC "-//W3C//DTD SVG 1.1//EN" "http://www.w3.org/Graphics/SVG/1.1/DTD/svg11.dtd">
<svg version="1.1" id="Calque_1" xmlns="http://www.w3.org/2000/svg" xmlns:xlink="http://www.w3.org/1999/xlink" x="0px" y="0px"
	 width="332.099px" height="243.21px" viewBox="0 0 332.099 243.21" enable-background="new 0 0 332.099 243.21"
	 xml:space="preserve">
<polygon fill="#1D2B40" points="-207.051,14.815 -197.281,5.003 -189.545,16.486 -178.096,8.701 -172.674,21.44 -159.957,15.962 
	-157.043,29.497 -143.521,26.526 -143.222,40.369 -129.381,40.008 -131.707,53.658 -118.047,55.923 -122.914,68.885 
	-109.931,73.697 -117.164,85.503 -105.324,92.683 -114.66,102.91 -104.394,112.199 -115.498,120.474 -107.176,131.54 
	-119.642,137.562 -113.566,150.001 -126.947,153.557 -123.334,166.923 -137.146,167.88 -136.129,181.689 -149.873,180.016 
	-151.488,193.768 -164.666,189.522 -168.855,202.72 -180.992,196.058 -187.601,208.224 -198.26,199.386 -207.051,210.082 
	-215.842,199.386 -226.5,208.224 -233.109,196.058 -245.246,202.72 -249.435,189.522 -262.613,193.768 -264.228,180.016 
	-277.972,181.689 -276.955,167.88 -290.767,166.923 -287.154,153.557 -300.535,150.001 -294.459,137.562 -306.926,131.54 
	-298.603,120.474 -309.707,112.199 -299.441,102.91 -308.777,92.683 -296.937,85.503 -304.17,73.697 -291.187,68.885 
	-296.055,55.923 -282.394,53.658 -284.721,40.008 -270.879,40.369 -270.58,26.526 -257.058,29.497 -254.144,15.962 -241.428,21.44 
	-236.006,8.701 -224.556,16.486 -216.818,5.003 "/>
<g>
	<path fill="#FFF7DC" d="M-267.721,103.368c0.521-0.68,1.068-1.377,1.641-2.091s1.147-1.434,1.726-2.159
		c0.578-0.725,1.153-1.444,1.726-2.158s1.119-1.411,1.641-2.092v6.817h1.683v1.683h-1.683v2.856h-1.751v-2.856H-267.721z
		 M-262.74,99.595c-0.091,0.113-0.21,0.264-0.357,0.45c-0.147,0.188-0.297,0.383-0.45,0.587s-0.304,0.402-0.45,0.595
		c-0.147,0.193-0.262,0.346-0.341,0.459h1.599V99.595z"/>
	<path fill="#FFF7DC" d="M-256.619,100.751c0.34-0.681,0.73-1.352,1.173-2.015c0.441-0.663,0.833-1.335,1.173-2.015h-3.247v-1.717
		h5.984c-0.374,0.68-0.766,1.354-1.174,2.022c-0.407,0.669-0.799,1.344-1.173,2.023c0.681,0.352,1.225,0.827,1.632,1.428
		c0.408,0.601,0.612,1.292,0.612,2.074c0,0.521-0.102,1.015-0.306,1.479c-0.204,0.465-0.482,0.87-0.833,1.216
		c-0.352,0.346-0.763,0.618-1.232,0.816c-0.471,0.198-0.967,0.297-1.487,0.297c-0.545,0-1.061-0.113-1.548-0.34
		s-0.906-0.527-1.258-0.901l1.275-1.189c0.396,0.487,0.912,0.73,1.547,0.73c0.283,0,0.553-0.056,0.808-0.17
		c0.255-0.112,0.476-0.263,0.663-0.45c0.187-0.187,0.337-0.408,0.45-0.663s0.17-0.529,0.17-0.824c0-0.283-0.057-0.553-0.17-0.808
		s-0.264-0.476-0.45-0.663c-0.188-0.187-0.408-0.334-0.663-0.442c-0.255-0.107-0.524-0.161-0.808-0.161
		C-255.911,100.479-256.291,100.57-256.619,100.751z"/>
	<path fill="#FFF7DC" d="M-242.407,99.017c0,0.612-0.097,1.188-0.289,1.726c-0.193,0.538-0.445,1.043-0.757,1.513
		c-0.312,0.471-0.666,0.91-1.062,1.317c-0.396,0.408-0.802,0.782-1.216,1.122c-0.413,0.34-0.818,0.649-1.215,0.927
		c-0.397,0.278-0.742,0.524-1.037,0.739c-0.193-0.227-0.377-0.45-0.553-0.671c-0.176-0.222-0.354-0.445-0.535-0.672
		c0.271-0.181,0.58-0.388,0.927-0.62c0.345-0.232,0.688-0.465,1.028-0.697s0.646-0.453,0.918-0.663
		c0.271-0.21,0.47-0.383,0.595-0.519c-0.159,0.182-0.363,0.272-0.612,0.272c-0.521,0-1.017-0.097-1.487-0.289
		c-0.471-0.193-0.881-0.459-1.232-0.8c-0.352-0.34-0.629-0.736-0.833-1.189s-0.306-0.946-0.306-1.479
		c0-0.521,0.102-1.014,0.306-1.479s0.481-0.873,0.833-1.224c0.352-0.352,0.759-0.627,1.224-0.825s0.958-0.297,1.479-0.297
		c0.419,0,0.853,0.073,1.301,0.221c0.447,0.147,0.858,0.374,1.232,0.68c0.374,0.307,0.683,0.7,0.926,1.182
		C-242.53,97.774-242.407,98.348-242.407,99.017z M-244.227,99.017c0-0.283-0.051-0.553-0.153-0.808
		c-0.102-0.255-0.243-0.481-0.425-0.68s-0.394-0.354-0.638-0.468c-0.243-0.113-0.507-0.17-0.79-0.17s-0.55,0.057-0.799,0.17
		c-0.25,0.113-0.471,0.27-0.663,0.468c-0.193,0.198-0.346,0.425-0.459,0.68s-0.17,0.524-0.17,0.808c0,0.295,0.057,0.566,0.17,0.816
		c0.113,0.249,0.266,0.467,0.459,0.654c0.192,0.187,0.413,0.334,0.663,0.441c0.249,0.108,0.516,0.162,0.799,0.162
		s0.547-0.054,0.79-0.162c0.244-0.107,0.456-0.255,0.638-0.441c0.182-0.188,0.323-0.405,0.425-0.654
		C-244.278,99.583-244.227,99.312-244.227,99.017z"/>
	<path fill="#FFF7DC" d="M-237.308,96.722v-1.717h7.19c-0.771,1.972-1.51,3.867-2.219,5.687c-0.708,1.818-1.419,3.663-2.133,5.533
		h-2.006c0.544-1.45,1.13-2.992,1.759-4.624s1.256-3.258,1.879-4.879H-237.308z"/>
	<path fill="#FFF7DC" d="M-229.233,100.564c0-0.952,0.124-1.785,0.374-2.499c0.249-0.714,0.586-1.309,1.012-1.785
		c0.425-0.476,0.918-0.83,1.479-1.062c0.561-0.231,1.153-0.349,1.776-0.349c0.68,0,1.304,0.134,1.87,0.4
		c0.566,0.266,1.054,0.648,1.462,1.147c0.408,0.498,0.726,1.104,0.952,1.818s0.334,1.52,0.323,2.414
		c-0.012,0.907-0.137,1.717-0.374,2.432c-0.238,0.714-0.564,1.314-0.978,1.802c-0.414,0.487-0.904,0.858-1.471,1.113
		s-1.179,0.383-1.836,0.383c-0.635,0-1.232-0.128-1.794-0.383c-0.561-0.255-1.048-0.626-1.462-1.113
		c-0.413-0.487-0.739-1.094-0.978-1.819C-229.114,102.338-229.233,101.505-229.233,100.564z M-227.482,100.614
		c0,0.544,0.07,1.061,0.212,1.547c0.142,0.488,0.341,0.916,0.596,1.284s0.558,0.663,0.909,0.884s0.726,0.331,1.122,0.331
		s0.771-0.107,1.122-0.322c0.351-0.216,0.657-0.508,0.918-0.876s0.468-0.799,0.62-1.292c0.153-0.493,0.229-1.012,0.229-1.556
		c0-0.362-0.042-0.778-0.127-1.249s-0.232-0.912-0.442-1.326c-0.21-0.413-0.499-0.765-0.867-1.054s-0.83-0.434-1.385-0.434
		c-0.59,0-1.071,0.153-1.445,0.459s-0.669,0.671-0.884,1.097c-0.216,0.425-0.366,0.869-0.451,1.334
		S-227.482,100.298-227.482,100.614z"/>
	<path fill="#FFF7DC" d="M-218.336,96.688v-1.683h2.736v11.22h-1.768v-9.537H-218.336z"/>
	<path fill="#FFF7DC" d="M-201.32,102.638c0,0.544-0.091,1.046-0.272,1.505s-0.439,0.858-0.773,1.198s-0.733,0.604-1.198,0.79
		c-0.465,0.188-0.975,0.28-1.53,0.28s-1.045-0.104-1.471-0.314c-0.425-0.209-0.717-0.433-0.875-0.671
		c0,0.045,0.003,0.088,0.009,0.127c0.005,0.04,0.008,0.088,0.008,0.145v3.995h-1.632V99h1.564c0,0.158,0.011,0.317,0.033,0.476
		c0.023,0.159,0.034,0.306,0.034,0.442c0.091-0.113,0.207-0.235,0.349-0.366c0.142-0.13,0.314-0.249,0.519-0.356
		s0.434-0.198,0.688-0.272c0.255-0.073,0.535-0.11,0.842-0.11c0.555,0,1.06,0.088,1.513,0.264s0.842,0.431,1.165,0.765
		c0.322,0.335,0.574,0.737,0.756,1.207C-201.41,101.519-201.32,102.049-201.32,102.638z M-203.088,102.604
		c0-0.635-0.184-1.158-0.552-1.572c-0.369-0.414-0.882-0.621-1.539-0.621c-0.329,0-0.629,0.055-0.901,0.162
		c-0.271,0.107-0.507,0.261-0.705,0.459s-0.354,0.431-0.468,0.697c-0.113,0.266-0.17,0.552-0.17,0.858
		c0,0.317,0.057,0.611,0.17,0.884c0.113,0.271,0.27,0.507,0.468,0.705c0.198,0.199,0.434,0.354,0.705,0.468
		c0.272,0.113,0.572,0.17,0.901,0.17s0.623-0.057,0.884-0.17s0.479-0.271,0.655-0.476c0.175-0.204,0.312-0.439,0.407-0.706
		C-203.136,103.196-203.088,102.909-203.088,102.604z"/>
	<path fill="#FFF7DC" d="M-193.551,105.392c-0.352,0.317-0.776,0.566-1.275,0.748c-0.498,0.181-1.009,0.271-1.529,0.271
		c-0.533,0-1.034-0.099-1.505-0.297s-0.878-0.471-1.224-0.816s-0.621-0.748-0.825-1.207c-0.203-0.459-0.306-0.949-0.306-1.47
		c0-0.521,0.103-1.012,0.306-1.471c0.204-0.459,0.479-0.861,0.825-1.207s0.748-0.618,1.207-0.816s0.943-0.297,1.453-0.297
		c0.816,0,1.532,0.246,2.15,0.739s1.057,1.142,1.317,1.946c-0.34,0.125-0.733,0.275-1.182,0.45c-0.447,0.176-0.915,0.36-1.402,0.553
		c-0.487,0.193-0.975,0.389-1.462,0.587s-0.935,0.377-1.343,0.535c0.192,0.352,0.459,0.635,0.799,0.85
		c0.34,0.216,0.726,0.323,1.156,0.323c0.295,0,0.592-0.054,0.893-0.161c0.3-0.107,0.547-0.252,0.739-0.434L-193.551,105.392z
		 M-194.979,101.142c-0.137-0.249-0.34-0.434-0.612-0.553c-0.271-0.119-0.538-0.179-0.799-0.179c-0.306,0-0.595,0.06-0.867,0.179
		c-0.271,0.119-0.504,0.278-0.697,0.477c-0.192,0.198-0.346,0.425-0.459,0.68s-0.17,0.519-0.17,0.79v0.068
		c0.283-0.113,0.587-0.235,0.91-0.365c0.322-0.13,0.646-0.264,0.969-0.399c0.323-0.137,0.632-0.264,0.927-0.383
		C-195.484,101.337-195.217,101.233-194.979,101.142z"/>
	<path fill="#FFF7DC" d="M-187.653,100.921c-0.317,0-0.62,0.04-0.909,0.119s-0.544,0.201-0.766,0.365
		c-0.221,0.164-0.399,0.368-0.535,0.612c-0.136,0.243-0.204,0.529-0.204,0.858v3.349h-1.632V99h1.428
		c0.022,0.407,0.049,0.739,0.077,0.994s0.054,0.541,0.076,0.858c0.147-0.317,0.346-0.601,0.595-0.85s0.508-0.462,0.773-0.638
		c0.267-0.176,0.53-0.312,0.791-0.408c0.261-0.096,0.481-0.145,0.663-0.145L-187.653,100.921z"/>
	<path fill="#FFF7DC" d="M-182.076,99.646c-0.068,0.103-0.15,0.219-0.247,0.349c-0.096,0.131-0.189,0.252-0.28,0.365
		s-0.198,0.255-0.323,0.425c-0.113-0.079-0.224-0.142-0.331-0.187s-0.232-0.088-0.374-0.128c-0.142-0.039-0.286-0.06-0.434-0.06
		c-0.159,0-0.326,0.037-0.501,0.111c-0.177,0.073-0.264,0.224-0.264,0.45c0,0.192,0.076,0.354,0.229,0.484
		c0.152,0.131,0.34,0.249,0.561,0.357c0.221,0.107,0.465,0.218,0.731,0.331c0.266,0.113,0.51,0.255,0.73,0.425
		c0.222,0.17,0.408,0.383,0.562,0.638c0.152,0.255,0.229,0.569,0.229,0.943c0,0.329-0.06,0.629-0.179,0.901
		c-0.119,0.271-0.289,0.504-0.51,0.697c-0.222,0.192-0.484,0.346-0.791,0.459c-0.306,0.112-0.651,0.17-1.037,0.17
		c-0.465,0-0.915-0.08-1.352-0.238c-0.436-0.158-0.779-0.385-1.028-0.68c0.079-0.091,0.176-0.204,0.289-0.341
		c0.113-0.136,0.221-0.266,0.323-0.391c0.102-0.124,0.227-0.271,0.374-0.442c0-0.011,0.036,0.009,0.11,0.06
		c0.073,0.052,0.173,0.111,0.298,0.179c0.124,0.068,0.271,0.131,0.441,0.188s0.346,0.085,0.527,0.085
		c0.283,0,0.501-0.062,0.654-0.188c0.153-0.124,0.229-0.277,0.229-0.459c0-0.181-0.076-0.328-0.229-0.441s-0.34-0.219-0.561-0.314
		c-0.222-0.097-0.465-0.201-0.731-0.314s-0.51-0.256-0.73-0.426c-0.222-0.17-0.408-0.388-0.562-0.654
		c-0.153-0.266-0.229-0.604-0.229-1.012c0-0.407,0.073-0.748,0.221-1.02c0.147-0.272,0.338-0.493,0.57-0.663
		c0.231-0.17,0.484-0.292,0.756-0.365c0.272-0.074,0.538-0.11,0.799-0.11c0.352,0,0.717,0.07,1.097,0.212
		S-182.337,99.385-182.076,99.646z"/>
	<path fill="#FFF7DC" d="M-180.699,102.604c0-0.521,0.1-1.012,0.298-1.471s0.473-0.858,0.824-1.198s0.762-0.609,1.232-0.808
		s0.972-0.297,1.505-0.297c0.544,0,1.048,0.099,1.513,0.297s0.864,0.468,1.198,0.808s0.598,0.739,0.791,1.198
		c0.192,0.459,0.289,0.949,0.289,1.471s-0.094,1.015-0.281,1.479c-0.187,0.465-0.45,0.869-0.79,1.215s-0.742,0.618-1.207,0.816
		s-0.975,0.297-1.53,0.297c-0.532,0-1.031-0.091-1.496-0.271c-0.465-0.182-0.869-0.439-1.215-0.773s-0.621-0.736-0.825-1.207
		C-180.597,103.689-180.699,103.171-180.699,102.604z M-179.084,102.621c0,0.306,0.057,0.592,0.17,0.858
		c0.113,0.266,0.269,0.498,0.468,0.696c0.198,0.199,0.431,0.354,0.696,0.468c0.267,0.113,0.553,0.17,0.858,0.17
		c0.307,0,0.593-0.057,0.859-0.17c0.266-0.113,0.498-0.269,0.696-0.468c0.198-0.198,0.357-0.431,0.477-0.696
		c0.119-0.267,0.178-0.553,0.178-0.858c0-0.307-0.059-0.593-0.178-0.859c-0.119-0.266-0.278-0.498-0.477-0.696
		s-0.431-0.357-0.696-0.477c-0.267-0.119-0.553-0.179-0.859-0.179c-0.306,0-0.592,0.06-0.858,0.179
		c-0.266,0.119-0.498,0.278-0.696,0.477c-0.199,0.198-0.354,0.431-0.468,0.696C-179.028,102.029-179.084,102.315-179.084,102.621z"
		/>
	<path fill="#FFF7DC" d="M-171.502,99h1.428c0.022,0.407,0.049,0.739,0.077,0.994s0.054,0.541,0.076,0.858
		c0.261-0.612,0.629-1.104,1.105-1.479c0.476-0.374,1.07-0.562,1.784-0.562c0.737,0,1.323,0.201,1.76,0.604s0.666,0.927,0.688,1.572
		v5.236h-1.615v-4.471c-0.022-0.352-0.147-0.655-0.374-0.91s-0.577-0.394-1.054-0.416c-0.329,0-0.632,0.06-0.909,0.179
		c-0.278,0.119-0.516,0.28-0.714,0.484c-0.199,0.204-0.352,0.447-0.459,0.73c-0.108,0.284-0.162,0.59-0.162,0.918v3.485h-1.632V99z"
		/>
	<path fill="#FFF7DC" d="M-162.628,99h1.428c0.022,0.407,0.049,0.739,0.077,0.994s0.054,0.541,0.076,0.858
		c0.261-0.612,0.629-1.104,1.105-1.479c0.476-0.374,1.07-0.562,1.784-0.562c0.737,0,1.323,0.201,1.76,0.604s0.666,0.927,0.688,1.572
		v5.236h-1.615v-4.471c-0.022-0.352-0.147-0.655-0.374-0.91s-0.577-0.394-1.054-0.416c-0.329,0-0.632,0.06-0.909,0.179
		c-0.278,0.119-0.516,0.28-0.714,0.484c-0.199,0.204-0.352,0.447-0.459,0.73c-0.108,0.284-0.162,0.59-0.162,0.918v3.485h-1.632V99z"
		/>
	<path fill="#FFF7DC" d="M-147.549,105.392c-0.352,0.317-0.776,0.566-1.275,0.748c-0.498,0.181-1.009,0.271-1.529,0.271
		c-0.533,0-1.034-0.099-1.505-0.297s-0.878-0.471-1.224-0.816s-0.621-0.748-0.825-1.207c-0.203-0.459-0.306-0.949-0.306-1.47
		c0-0.521,0.103-1.012,0.306-1.471c0.204-0.459,0.479-0.861,0.825-1.207s0.748-0.618,1.207-0.816s0.943-0.297,1.453-0.297
		c0.816,0,1.532,0.246,2.15,0.739s1.057,1.142,1.317,1.946c-0.34,0.125-0.733,0.275-1.182,0.45c-0.447,0.176-0.915,0.36-1.402,0.553
		c-0.487,0.193-0.975,0.389-1.462,0.587s-0.935,0.377-1.343,0.535c0.192,0.352,0.459,0.635,0.799,0.85
		c0.34,0.216,0.726,0.323,1.156,0.323c0.295,0,0.592-0.054,0.893-0.161c0.3-0.107,0.547-0.252,0.739-0.434L-147.549,105.392z
		 M-148.977,101.142c-0.137-0.249-0.34-0.434-0.612-0.553c-0.271-0.119-0.538-0.179-0.799-0.179c-0.306,0-0.595,0.06-0.867,0.179
		c-0.271,0.119-0.504,0.278-0.697,0.477c-0.192,0.198-0.346,0.425-0.459,0.68s-0.17,0.519-0.17,0.79v0.068
		c0.283-0.113,0.587-0.235,0.91-0.365c0.322-0.13,0.646-0.264,0.969-0.399c0.323-0.137,0.632-0.264,0.927-0.383
		C-149.482,101.337-149.215,101.233-148.977,101.142z"/>
	<path fill="#FFF7DC" d="M-141.582,99.646c-0.068,0.103-0.15,0.219-0.247,0.349c-0.096,0.131-0.189,0.252-0.28,0.365
		s-0.198,0.255-0.323,0.425c-0.113-0.079-0.224-0.142-0.331-0.187s-0.232-0.088-0.374-0.128c-0.142-0.039-0.286-0.06-0.434-0.06
		c-0.159,0-0.326,0.037-0.501,0.111c-0.177,0.073-0.264,0.224-0.264,0.45c0,0.192,0.076,0.354,0.229,0.484
		c0.152,0.131,0.34,0.249,0.561,0.357c0.221,0.107,0.465,0.218,0.731,0.331c0.266,0.113,0.51,0.255,0.73,0.425
		c0.222,0.17,0.408,0.383,0.562,0.638c0.152,0.255,0.229,0.569,0.229,0.943c0,0.329-0.06,0.629-0.179,0.901
		c-0.119,0.271-0.289,0.504-0.51,0.697c-0.222,0.192-0.484,0.346-0.791,0.459c-0.306,0.112-0.651,0.17-1.037,0.17
		c-0.465,0-0.915-0.08-1.352-0.238c-0.436-0.158-0.779-0.385-1.028-0.68c0.079-0.091,0.176-0.204,0.289-0.341
		c0.113-0.136,0.221-0.266,0.323-0.391c0.102-0.124,0.227-0.271,0.374-0.442c0-0.011,0.036,0.009,0.11,0.06
		c0.073,0.052,0.173,0.111,0.298,0.179c0.124,0.068,0.271,0.131,0.441,0.188s0.346,0.085,0.527,0.085
		c0.283,0,0.501-0.062,0.654-0.188c0.153-0.124,0.229-0.277,0.229-0.459c0-0.181-0.076-0.328-0.229-0.441s-0.34-0.219-0.561-0.314
		c-0.222-0.097-0.465-0.201-0.731-0.314s-0.51-0.256-0.73-0.426c-0.222-0.17-0.408-0.388-0.562-0.654
		c-0.153-0.266-0.229-0.604-0.229-1.012c0-0.407,0.073-0.748,0.221-1.02c0.147-0.272,0.338-0.493,0.57-0.663
		c0.231-0.17,0.484-0.292,0.756-0.365c0.272-0.074,0.538-0.11,0.799-0.11c0.352,0,0.717,0.07,1.097,0.212
		S-141.843,99.385-141.582,99.646z"/>
	<path fill="#FFF7DC" d="M-276.535,127.05c-0.68-1.28-1.325-2.553-1.938-3.816s-1.241-2.541-1.887-3.833h1.768
		c0.431,0.839,0.768,1.513,1.012,2.022c0.243,0.51,0.434,0.924,0.569,1.241s0.235,0.569,0.298,0.757
		c0.062,0.187,0.121,0.382,0.178,0.586c0.068-0.204,0.134-0.399,0.196-0.586c0.062-0.188,0.161-0.439,0.297-0.757
		c0.137-0.317,0.326-0.731,0.569-1.241c0.244-0.51,0.581-1.184,1.012-2.022h1.751c-0.646,1.292-1.28,2.569-1.903,3.833
		C-275.238,124.497-275.878,125.77-276.535,127.05z"/>
	<path fill="#FFF7DC" d="M-271.843,116.595c0-0.294,0.107-0.538,0.322-0.73c0.216-0.192,0.448-0.289,0.697-0.289
		s0.479,0.097,0.688,0.289s0.314,0.437,0.314,0.73c0,0.307-0.104,0.553-0.314,0.74c-0.21,0.187-0.439,0.28-0.688,0.28
		s-0.481-0.094-0.697-0.28C-271.736,117.148-271.843,116.902-271.843,116.595z M-270.025,126.625h-1.632v-7.225h1.632V126.625z"/>
	<path fill="#FFF7DC" d="M-261.814,125.792c-0.352,0.317-0.776,0.566-1.275,0.748c-0.498,0.181-1.009,0.271-1.529,0.271
		c-0.533,0-1.034-0.099-1.505-0.297s-0.878-0.471-1.224-0.816s-0.621-0.748-0.825-1.207c-0.203-0.459-0.306-0.949-0.306-1.47
		c0-0.521,0.103-1.012,0.306-1.471c0.204-0.459,0.479-0.861,0.825-1.207s0.748-0.618,1.207-0.816s0.943-0.297,1.453-0.297
		c0.816,0,1.532,0.246,2.15,0.739s1.057,1.142,1.317,1.946c-0.34,0.125-0.733,0.275-1.182,0.45c-0.447,0.176-0.915,0.36-1.402,0.553
		c-0.487,0.193-0.975,0.389-1.462,0.587s-0.935,0.377-1.343,0.535c0.192,0.352,0.459,0.635,0.799,0.85
		c0.34,0.216,0.726,0.323,1.156,0.323c0.295,0,0.592-0.054,0.893-0.161c0.3-0.107,0.547-0.252,0.739-0.434L-261.814,125.792z
		 M-263.241,121.542c-0.137-0.249-0.34-0.434-0.612-0.553c-0.271-0.119-0.538-0.179-0.799-0.179c-0.306,0-0.595,0.06-0.867,0.179
		c-0.271,0.119-0.504,0.278-0.697,0.477c-0.192,0.198-0.346,0.425-0.459,0.68s-0.17,0.519-0.17,0.79v0.068
		c0.283-0.113,0.587-0.235,0.91-0.365c0.322-0.13,0.646-0.264,0.969-0.399c0.323-0.137,0.632-0.264,0.927-0.383
		C-263.746,121.738-263.48,121.633-263.241,121.542z"/>
	<path fill="#FFF7DC" d="M-259.961,119.401h1.428c0.022,0.407,0.049,0.739,0.077,0.994s0.054,0.541,0.076,0.858
		c0.261-0.612,0.629-1.104,1.105-1.479c0.476-0.374,1.07-0.562,1.784-0.562c0.737,0,1.323,0.201,1.76,0.604s0.666,0.927,0.688,1.572
		v5.236h-1.615v-4.471c-0.022-0.352-0.147-0.655-0.374-0.91s-0.577-0.394-1.054-0.416c-0.329,0-0.632,0.06-0.909,0.179
		c-0.278,0.119-0.516,0.28-0.714,0.484c-0.199,0.204-0.352,0.447-0.459,0.73c-0.108,0.284-0.162,0.59-0.162,0.918v3.485h-1.632
		V119.401z"/>
	<path fill="#FFF7DC" d="M-251.087,119.401h1.428c0.022,0.407,0.049,0.739,0.077,0.994s0.054,0.541,0.076,0.858
		c0.261-0.612,0.629-1.104,1.105-1.479c0.476-0.374,1.07-0.562,1.784-0.562c0.737,0,1.323,0.201,1.76,0.604s0.666,0.927,0.688,1.572
		v5.236h-1.615v-4.471c-0.022-0.352-0.147-0.655-0.374-0.91s-0.577-0.394-1.054-0.416c-0.329,0-0.632,0.06-0.909,0.179
		c-0.278,0.119-0.516,0.28-0.714,0.484c-0.199,0.204-0.352,0.447-0.459,0.73c-0.108,0.284-0.162,0.59-0.162,0.918v3.485h-1.632
		V119.401z"/>
	<path fill="#FFF7DC" d="M-236.008,125.792c-0.352,0.317-0.776,0.566-1.275,0.748c-0.498,0.181-1.009,0.271-1.529,0.271
		c-0.533,0-1.034-0.099-1.505-0.297s-0.878-0.471-1.224-0.816s-0.621-0.748-0.825-1.207c-0.203-0.459-0.306-0.949-0.306-1.47
		c0-0.521,0.103-1.012,0.306-1.471c0.204-0.459,0.479-0.861,0.825-1.207s0.748-0.618,1.207-0.816s0.943-0.297,1.453-0.297
		c0.816,0,1.532,0.246,2.15,0.739s1.057,1.142,1.317,1.946c-0.34,0.125-0.733,0.275-1.182,0.45c-0.447,0.176-0.915,0.36-1.402,0.553
		c-0.487,0.193-0.975,0.389-1.462,0.587s-0.935,0.377-1.343,0.535c0.192,0.352,0.459,0.635,0.799,0.85
		c0.34,0.216,0.726,0.323,1.156,0.323c0.295,0,0.592-0.054,0.893-0.161c0.3-0.107,0.547-0.252,0.739-0.434L-236.008,125.792z
		 M-237.436,121.542c-0.137-0.249-0.34-0.434-0.612-0.553c-0.271-0.119-0.538-0.179-0.799-0.179c-0.306,0-0.595,0.06-0.867,0.179
		c-0.271,0.119-0.504,0.278-0.697,0.477c-0.192,0.198-0.346,0.425-0.459,0.68s-0.17,0.519-0.17,0.79v0.068
		c0.283-0.113,0.587-0.235,0.91-0.365c0.322-0.13,0.646-0.264,0.969-0.399c0.323-0.137,0.632-0.264,0.927-0.383
		C-237.941,121.738-237.674,121.633-237.436,121.542z"/>
	<path fill="#FFF7DC" d="M-234.156,119.401h1.428c0.022,0.407,0.049,0.739,0.077,0.994s0.054,0.541,0.076,0.858
		c0.261-0.612,0.629-1.104,1.105-1.479c0.476-0.374,1.07-0.562,1.784-0.562c0.737,0,1.323,0.201,1.76,0.604s0.666,0.927,0.688,1.572
		v5.236h-1.615v-4.471c-0.022-0.352-0.147-0.655-0.374-0.91s-0.577-0.394-1.054-0.416c-0.329,0-0.632,0.06-0.909,0.179
		c-0.278,0.119-0.516,0.28-0.714,0.484c-0.199,0.204-0.352,0.447-0.459,0.73c-0.108,0.284-0.162,0.59-0.162,0.918v3.485h-1.632
		V119.401z"/>
	<path fill="#FFF7DC" d="M-224.618,116.238h1.615v3.162h1.887v1.462h-1.887v5.763h-1.615v-5.763h-1.224v-1.462h1.224V116.238z"/>
	<path fill="#FFF7DC" d="M-216.816,123.089c0-0.521,0.103-1.017,0.306-1.487c0.204-0.471,0.479-0.881,0.825-1.232
		s0.748-0.632,1.207-0.842c0.459-0.209,0.943-0.314,1.453-0.314c0.34,0,0.646,0.043,0.918,0.128
		c0.272,0.085,0.507,0.184,0.706,0.297c0.197,0.113,0.354,0.229,0.467,0.349s0.188,0.213,0.222,0.28l0.067-0.866h1.581v7.225h-1.648
		v-0.476c0-0.057,0.002-0.111,0.008-0.162s0.009-0.088,0.009-0.11c-0.046,0.057-0.125,0.139-0.238,0.246
		c-0.113,0.108-0.267,0.213-0.459,0.315c-0.192,0.102-0.422,0.189-0.688,0.263c-0.267,0.074-0.575,0.11-0.927,0.11
		c-0.555,0-1.065-0.102-1.529-0.306c-0.465-0.204-0.867-0.476-1.207-0.815c-0.34-0.341-0.604-0.734-0.791-1.182
		C-216.722,124.061-216.816,123.588-216.816,123.089z M-215.166,122.988c0,0.317,0.054,0.611,0.161,0.884
		c0.107,0.271,0.261,0.507,0.459,0.705c0.198,0.199,0.434,0.354,0.705,0.468c0.272,0.113,0.572,0.17,0.901,0.17
		s0.629-0.057,0.901-0.17c0.271-0.113,0.507-0.271,0.705-0.476s0.352-0.442,0.459-0.715c0.107-0.271,0.162-0.561,0.162-0.866
		c0-0.307-0.055-0.593-0.162-0.858c-0.107-0.267-0.261-0.496-0.459-0.688c-0.198-0.193-0.434-0.346-0.705-0.459
		c-0.272-0.113-0.572-0.171-0.901-0.171s-0.629,0.055-0.901,0.162c-0.271,0.107-0.507,0.261-0.705,0.459s-0.352,0.431-0.459,0.697
		C-215.113,122.395-215.166,122.681-215.166,122.988z"/>
	<path fill="#FFF7DC" d="M-200.19,126.795h-1.36l-0.204-2.006c-0.261,0.578-0.62,1.057-1.079,1.437s-1.062,0.569-1.811,0.569
		s-1.341-0.195-1.776-0.586c-0.437-0.392-0.666-0.91-0.688-1.556v-5.253h1.632v4.487c0.022,0.352,0.145,0.649,0.365,0.893
		c0.222,0.244,0.575,0.377,1.062,0.399c0.329,0,0.629-0.057,0.901-0.17c0.271-0.113,0.507-0.271,0.705-0.476
		s0.354-0.448,0.468-0.731s0.17-0.589,0.17-0.918v-3.484h1.615V126.795z"/>
	<path fill="#FFF7DC" d="M-194.223,130.111c-0.192-0.216-0.383-0.42-0.569-0.612c-0.188-0.193-0.371-0.396-0.553-0.612
		c0.329-0.261,0.584-0.581,0.766-0.96c0.181-0.38,0.271-0.836,0.271-1.369v-7.156h1.632v7.225c0,0.782-0.139,1.462-0.416,2.04
		C-193.37,129.243-193.746,129.725-194.223,130.111z M-194.444,116.595c0-0.294,0.104-0.538,0.314-0.73
		c0.209-0.192,0.444-0.289,0.705-0.289c0.249,0,0.477,0.097,0.681,0.289s0.306,0.437,0.306,0.73c0,0.307-0.102,0.553-0.306,0.74
		c-0.204,0.187-0.432,0.28-0.681,0.28c-0.261,0-0.496-0.094-0.705-0.28C-194.339,117.148-194.444,116.902-194.444,116.595z"/>
	<path fill="#FFF7DC" d="M-191.129,123.089c0-0.521,0.103-1.017,0.306-1.487c0.204-0.471,0.479-0.881,0.825-1.232
		s0.748-0.632,1.207-0.842c0.459-0.209,0.943-0.314,1.453-0.314c0.34,0,0.646,0.043,0.918,0.128
		c0.272,0.085,0.507,0.184,0.706,0.297c0.197,0.113,0.354,0.229,0.467,0.349s0.188,0.213,0.222,0.28l0.067-0.866h1.581v7.225h-1.648
		v-0.476c0-0.057,0.002-0.111,0.008-0.162s0.009-0.088,0.009-0.11c-0.046,0.057-0.125,0.139-0.238,0.246
		c-0.113,0.108-0.267,0.213-0.459,0.315c-0.192,0.102-0.422,0.189-0.688,0.263c-0.267,0.074-0.575,0.11-0.927,0.11
		c-0.555,0-1.065-0.102-1.529-0.306c-0.465-0.204-0.867-0.476-1.207-0.815c-0.34-0.341-0.604-0.734-0.791-1.182
		C-191.035,124.061-191.129,123.588-191.129,123.089z M-189.48,122.988c0,0.317,0.054,0.611,0.161,0.884
		c0.107,0.271,0.261,0.507,0.459,0.705c0.198,0.199,0.434,0.354,0.705,0.468c0.272,0.113,0.572,0.17,0.901,0.17
		s0.629-0.057,0.901-0.17c0.271-0.113,0.507-0.271,0.705-0.476s0.352-0.442,0.459-0.715c0.107-0.271,0.162-0.561,0.162-0.866
		c0-0.307-0.055-0.593-0.162-0.858c-0.107-0.267-0.261-0.496-0.459-0.688c-0.198-0.193-0.434-0.346-0.705-0.459
		c-0.272-0.113-0.572-0.171-0.901-0.171s-0.629,0.055-0.901,0.162c-0.271,0.107-0.507,0.261-0.705,0.459s-0.352,0.431-0.459,0.697
		C-189.426,122.395-189.48,122.681-189.48,122.988z"/>
	<path fill="#FFF7DC" d="M-177.325,121.321c-0.317,0-0.62,0.04-0.909,0.119s-0.544,0.201-0.766,0.365
		c-0.221,0.164-0.399,0.368-0.535,0.612c-0.136,0.243-0.204,0.529-0.204,0.858v3.349h-1.632v-7.225h1.428
		c0.022,0.407,0.049,0.739,0.077,0.994s0.054,0.541,0.076,0.858c0.147-0.317,0.346-0.601,0.595-0.85s0.508-0.462,0.773-0.638
		c0.267-0.176,0.53-0.312,0.791-0.408c0.261-0.096,0.481-0.145,0.663-0.145L-177.325,121.321z"/>
	<path fill="#FFF7DC" d="M-176.442,123.022c0-0.567,0.094-1.083,0.281-1.548c0.187-0.464,0.447-0.863,0.781-1.198
		c0.335-0.334,0.726-0.595,1.174-0.782c0.447-0.187,0.938-0.28,1.47-0.28c0.363,0,0.681,0.04,0.952,0.119
		c0.272,0.079,0.505,0.176,0.697,0.289s0.349,0.235,0.468,0.365c0.119,0.131,0.212,0.241,0.28,0.332v-6.971h1.632v13.277h-1.632
		v-0.476c0-0.057,0.006-0.119,0.017-0.188c0.012-0.068,0.018-0.119,0.018-0.153c-0.103,0.103-0.228,0.213-0.374,0.332
		c-0.147,0.119-0.323,0.229-0.527,0.331c-0.204,0.103-0.434,0.185-0.688,0.247c-0.255,0.062-0.547,0.093-0.875,0.093
		c-0.578,0-1.097-0.099-1.556-0.297s-0.845-0.471-1.156-0.816s-0.55-0.748-0.714-1.207S-176.442,123.542-176.442,123.022z
		 M-174.809,122.988c0,0.317,0.054,0.611,0.161,0.884c0.107,0.271,0.261,0.507,0.459,0.705c0.198,0.199,0.434,0.354,0.705,0.468
		c0.272,0.113,0.572,0.17,0.901,0.17s0.632-0.057,0.909-0.17c0.278-0.113,0.516-0.271,0.715-0.476
		c0.197-0.204,0.351-0.442,0.459-0.715c0.107-0.271,0.161-0.561,0.161-0.866c0-0.307-0.054-0.593-0.161-0.858
		c-0.108-0.267-0.262-0.496-0.459-0.688c-0.199-0.193-0.437-0.346-0.715-0.459c-0.277-0.113-0.58-0.171-0.909-0.171
		s-0.629,0.055-0.901,0.162c-0.271,0.107-0.507,0.261-0.705,0.459s-0.352,0.431-0.459,0.697
		C-174.755,122.395-174.809,122.681-174.809,122.988z"/>
	<path fill="#FFF7DC" d="M-166.887,116.595c0-0.294,0.107-0.538,0.322-0.73c0.216-0.192,0.448-0.289,0.697-0.289
		s0.479,0.097,0.688,0.289s0.314,0.437,0.314,0.73c0,0.307-0.104,0.553-0.314,0.74c-0.21,0.187-0.439,0.28-0.688,0.28
		s-0.481-0.094-0.697-0.28C-166.78,117.148-166.887,116.902-166.887,116.595z M-165.069,126.625h-1.632v-7.225h1.632V126.625z"/>
	<path fill="#FFF7DC" d="M-163.063,119.401h1.428c0.022,0.407,0.049,0.739,0.077,0.994s0.054,0.541,0.076,0.858
		c0.261-0.612,0.629-1.104,1.105-1.479c0.476-0.374,1.07-0.562,1.784-0.562c0.737,0,1.323,0.201,1.76,0.604s0.666,0.927,0.688,1.572
		v5.236h-1.615v-4.471c-0.022-0.352-0.147-0.655-0.374-0.91s-0.577-0.394-1.054-0.416c-0.329,0-0.632,0.06-0.909,0.179
		c-0.278,0.119-0.516,0.28-0.714,0.484c-0.199,0.204-0.352,0.447-0.459,0.73c-0.108,0.284-0.162,0.59-0.162,0.918v3.485h-1.632
		V119.401z"/>
	<path fill="#FFF7DC" d="M-150.755,123.022c0-0.567,0.094-1.083,0.281-1.548c0.187-0.464,0.447-0.863,0.781-1.198
		c0.335-0.334,0.726-0.595,1.174-0.782c0.447-0.187,0.938-0.28,1.47-0.28c0.363,0,0.681,0.04,0.952,0.119
		c0.272,0.079,0.505,0.176,0.697,0.289s0.349,0.235,0.468,0.365c0.119,0.131,0.212,0.241,0.28,0.332v-6.971h1.632v13.277h-1.632
		v-0.476c0-0.057,0.006-0.119,0.017-0.188c0.012-0.068,0.018-0.119,0.018-0.153c-0.103,0.103-0.228,0.213-0.374,0.332
		c-0.147,0.119-0.323,0.229-0.527,0.331c-0.204,0.103-0.434,0.185-0.688,0.247c-0.255,0.062-0.547,0.093-0.875,0.093
		c-0.578,0-1.097-0.099-1.556-0.297s-0.845-0.471-1.156-0.816s-0.55-0.748-0.714-1.207S-150.755,123.542-150.755,123.022z
		 M-149.122,122.988c0,0.317,0.054,0.611,0.161,0.884c0.107,0.271,0.261,0.507,0.459,0.705c0.198,0.199,0.434,0.354,0.705,0.468
		c0.272,0.113,0.572,0.17,0.901,0.17s0.632-0.057,0.909-0.17c0.278-0.113,0.516-0.271,0.715-0.476
		c0.197-0.204,0.351-0.442,0.459-0.715c0.107-0.271,0.161-0.561,0.161-0.866c0-0.307-0.054-0.593-0.161-0.858
		c-0.108-0.267-0.262-0.496-0.459-0.688c-0.199-0.193-0.437-0.346-0.715-0.459c-0.277-0.113-0.58-0.171-0.909-0.171
		s-0.629,0.055-0.901,0.162c-0.271,0.107-0.507,0.261-0.705,0.459s-0.352,0.431-0.459,0.697
		C-149.069,122.395-149.122,122.681-149.122,122.988z"/>
	<path fill="#FFF7DC" d="M-134.809,125.792c-0.352,0.317-0.776,0.566-1.275,0.748c-0.498,0.181-1.009,0.271-1.529,0.271
		c-0.533,0-1.034-0.099-1.505-0.297s-0.878-0.471-1.224-0.816s-0.621-0.748-0.825-1.207c-0.203-0.459-0.306-0.949-0.306-1.47
		c0-0.521,0.103-1.012,0.306-1.471c0.204-0.459,0.479-0.861,0.825-1.207s0.748-0.618,1.207-0.816s0.943-0.297,1.453-0.297
		c0.816,0,1.532,0.246,2.15,0.739s1.057,1.142,1.317,1.946c-0.34,0.125-0.733,0.275-1.182,0.45c-0.447,0.176-0.915,0.36-1.402,0.553
		c-0.487,0.193-0.975,0.389-1.462,0.587s-0.935,0.377-1.343,0.535c0.192,0.352,0.459,0.635,0.799,0.85
		c0.34,0.216,0.726,0.323,1.156,0.323c0.295,0,0.592-0.054,0.893-0.161c0.3-0.107,0.547-0.252,0.739-0.434L-134.809,125.792z
		 M-136.237,121.542c-0.137-0.249-0.34-0.434-0.612-0.553c-0.271-0.119-0.538-0.179-0.799-0.179c-0.306,0-0.595,0.06-0.867,0.179
		c-0.271,0.119-0.504,0.278-0.697,0.477c-0.192,0.198-0.346,0.425-0.459,0.68s-0.17,0.519-0.17,0.79v0.068
		c0.283-0.113,0.587-0.235,0.91-0.365c0.322-0.13,0.646-0.264,0.969-0.399c0.323-0.137,0.632-0.264,0.927-0.383
		C-136.741,121.738-136.475,121.633-136.237,121.542z"/>
	<path fill="#FFF7DC" d="M-128.842,120.046c-0.068,0.103-0.15,0.219-0.247,0.349c-0.096,0.131-0.189,0.252-0.28,0.365
		s-0.198,0.255-0.323,0.425c-0.113-0.079-0.224-0.142-0.331-0.187s-0.232-0.088-0.374-0.128c-0.142-0.039-0.286-0.06-0.434-0.06
		c-0.159,0-0.326,0.037-0.501,0.111c-0.177,0.073-0.264,0.224-0.264,0.45c0,0.192,0.076,0.354,0.229,0.484
		c0.152,0.131,0.34,0.249,0.561,0.357c0.221,0.107,0.465,0.218,0.731,0.331c0.266,0.113,0.51,0.255,0.73,0.425
		c0.222,0.17,0.408,0.383,0.562,0.638c0.152,0.255,0.229,0.569,0.229,0.943c0,0.329-0.06,0.629-0.179,0.901
		c-0.119,0.271-0.289,0.504-0.51,0.697c-0.222,0.192-0.484,0.346-0.791,0.459c-0.306,0.112-0.651,0.17-1.037,0.17
		c-0.465,0-0.915-0.08-1.352-0.238c-0.436-0.158-0.779-0.385-1.028-0.68c0.079-0.091,0.176-0.204,0.289-0.341
		c0.113-0.136,0.221-0.266,0.323-0.391c0.102-0.124,0.227-0.271,0.374-0.442c0-0.011,0.036,0.009,0.11,0.06
		c0.073,0.052,0.173,0.111,0.298,0.179c0.124,0.068,0.271,0.131,0.441,0.188s0.346,0.085,0.527,0.085
		c0.283,0,0.501-0.062,0.654-0.188c0.153-0.124,0.229-0.277,0.229-0.459c0-0.181-0.076-0.328-0.229-0.441s-0.34-0.219-0.561-0.314
		c-0.222-0.097-0.465-0.201-0.731-0.314s-0.51-0.256-0.73-0.426c-0.222-0.17-0.408-0.388-0.562-0.654
		c-0.153-0.266-0.229-0.604-0.229-1.012c0-0.407,0.073-0.748,0.221-1.02c0.147-0.272,0.338-0.493,0.57-0.663
		c0.231-0.17,0.484-0.292,0.756-0.365c0.272-0.074,0.538-0.11,0.799-0.11c0.352,0,0.717,0.07,1.097,0.212
		S-129.103,119.785-128.842,120.046z"/>
	<path fill="#FFF7DC" d="M-257.741,143.439c0,0.544-0.091,1.046-0.272,1.505s-0.439,0.858-0.773,1.198s-0.733,0.604-1.198,0.79
		c-0.465,0.188-0.975,0.28-1.53,0.28s-1.045-0.104-1.471-0.314c-0.425-0.209-0.717-0.433-0.875-0.671
		c0,0.045,0.003,0.088,0.009,0.127c0.005,0.04,0.008,0.088,0.008,0.145v3.995h-1.632v-10.692h1.564c0,0.158,0.011,0.317,0.033,0.476
		c0.023,0.159,0.034,0.306,0.034,0.442c0.091-0.113,0.207-0.235,0.349-0.366c0.142-0.13,0.314-0.249,0.519-0.356
		s0.434-0.198,0.688-0.272c0.255-0.073,0.535-0.11,0.842-0.11c0.555,0,1.06,0.088,1.513,0.264s0.842,0.431,1.165,0.765
		c0.322,0.335,0.574,0.737,0.756,1.207C-257.832,142.32-257.741,142.85-257.741,143.439z M-259.51,143.404
		c0-0.635-0.184-1.158-0.552-1.572c-0.369-0.414-0.882-0.621-1.539-0.621c-0.329,0-0.629,0.055-0.901,0.162
		c-0.271,0.107-0.507,0.261-0.705,0.459s-0.354,0.431-0.468,0.697c-0.113,0.266-0.17,0.552-0.17,0.858
		c0,0.317,0.057,0.611,0.17,0.884c0.113,0.271,0.27,0.507,0.468,0.705c0.198,0.199,0.434,0.354,0.705,0.468
		c0.272,0.113,0.572,0.17,0.901,0.17s0.623-0.057,0.884-0.17s0.479-0.271,0.655-0.476c0.175-0.204,0.312-0.439,0.407-0.706
		C-259.558,143.997-259.51,143.71-259.51,143.404z"/>
	<path fill="#FFF7DC" d="M-254.563,147.026h-1.615v-13.277h1.615V147.026z"/>
	<path fill="#FFF7DC" d="M-253.016,143.489c0-0.521,0.103-1.017,0.306-1.487c0.204-0.471,0.479-0.881,0.825-1.232
		s0.748-0.632,1.207-0.842c0.459-0.209,0.943-0.314,1.453-0.314c0.34,0,0.646,0.043,0.918,0.128
		c0.272,0.085,0.507,0.184,0.706,0.297c0.197,0.113,0.354,0.229,0.467,0.349s0.188,0.213,0.222,0.28l0.067-0.866h1.581v7.225h-1.648
		v-0.476c0-0.057,0.002-0.111,0.008-0.162s0.009-0.088,0.009-0.11c-0.046,0.057-0.125,0.139-0.238,0.246
		c-0.113,0.108-0.267,0.213-0.459,0.315c-0.192,0.102-0.422,0.189-0.688,0.263c-0.267,0.074-0.575,0.11-0.927,0.11
		c-0.555,0-1.065-0.102-1.529-0.306c-0.465-0.204-0.867-0.476-1.207-0.815c-0.34-0.341-0.604-0.734-0.791-1.182
		C-252.922,144.461-253.016,143.988-253.016,143.489z M-251.366,143.388c0,0.317,0.054,0.611,0.161,0.884
		c0.107,0.271,0.261,0.507,0.459,0.705c0.198,0.199,0.434,0.354,0.705,0.468c0.272,0.113,0.572,0.17,0.901,0.17
		s0.629-0.057,0.901-0.17c0.271-0.113,0.507-0.271,0.705-0.476s0.352-0.442,0.459-0.715c0.107-0.271,0.162-0.561,0.162-0.866
		c0-0.307-0.055-0.593-0.162-0.858c-0.107-0.267-0.261-0.496-0.459-0.688c-0.198-0.193-0.434-0.346-0.705-0.459
		c-0.272-0.113-0.572-0.171-0.901-0.171s-0.629,0.055-0.901,0.162c-0.271,0.107-0.507,0.261-0.705,0.459s-0.352,0.431-0.459,0.697
		C-251.313,142.795-251.366,143.081-251.366,143.388z"/>
	<path fill="#FFF7DC" d="M-243.258,139.801h1.428c0.022,0.407,0.049,0.739,0.077,0.994s0.054,0.541,0.076,0.858
		c0.261-0.612,0.629-1.104,1.105-1.479c0.476-0.374,1.07-0.562,1.784-0.562c0.737,0,1.323,0.201,1.76,0.604s0.666,0.927,0.688,1.572
		v5.236h-1.615v-4.471c-0.022-0.352-0.147-0.655-0.374-0.91s-0.577-0.394-1.054-0.416c-0.329,0-0.632,0.06-0.909,0.179
		c-0.278,0.119-0.516,0.28-0.714,0.484c-0.199,0.204-0.352,0.447-0.459,0.73c-0.108,0.284-0.162,0.59-0.162,0.918v3.485h-1.632
		V139.801z"/>
	<path fill="#FFF7DC" d="M-233.721,136.639h1.615v3.162h1.887v1.462h-1.887v5.763h-1.615v-5.763h-1.224v-1.462h1.224V136.639z"/>
	<path fill="#FFF7DC" d="M-222.943,146.193c-0.352,0.317-0.776,0.566-1.275,0.748c-0.498,0.181-1.009,0.271-1.529,0.271
		c-0.533,0-1.034-0.099-1.505-0.297s-0.878-0.471-1.224-0.816s-0.621-0.748-0.825-1.207c-0.203-0.459-0.306-0.949-0.306-1.47
		c0-0.521,0.103-1.012,0.306-1.471c0.204-0.459,0.479-0.861,0.825-1.207s0.748-0.618,1.207-0.816s0.943-0.297,1.453-0.297
		c0.816,0,1.532,0.246,2.15,0.739s1.057,1.142,1.317,1.946c-0.34,0.125-0.733,0.275-1.182,0.45c-0.447,0.176-0.915,0.36-1.402,0.553
		c-0.487,0.193-0.975,0.389-1.462,0.587s-0.935,0.377-1.343,0.535c0.192,0.352,0.459,0.635,0.799,0.85
		c0.34,0.216,0.726,0.323,1.156,0.323c0.295,0,0.592-0.054,0.893-0.161c0.3-0.107,0.547-0.252,0.739-0.434L-222.943,146.193z
		 M-224.37,141.943c-0.137-0.249-0.34-0.434-0.612-0.553c-0.271-0.119-0.538-0.179-0.799-0.179c-0.306,0-0.595,0.06-0.867,0.179
		c-0.271,0.119-0.504,0.278-0.697,0.477c-0.192,0.198-0.346,0.425-0.459,0.68s-0.17,0.519-0.17,0.79v0.068
		c0.283-0.113,0.587-0.235,0.91-0.365c0.322-0.13,0.646-0.264,0.969-0.399c0.323-0.137,0.632-0.264,0.927-0.383
		C-224.875,142.138-224.609,142.033-224.37,141.943z"/>
	<path fill="#FFF7DC" d="M-216.976,140.446c-0.068,0.103-0.15,0.219-0.247,0.349c-0.096,0.131-0.189,0.252-0.28,0.365
		s-0.198,0.255-0.323,0.425c-0.113-0.079-0.224-0.142-0.331-0.187s-0.232-0.088-0.374-0.128c-0.142-0.039-0.286-0.06-0.434-0.06
		c-0.159,0-0.326,0.037-0.501,0.111c-0.177,0.073-0.264,0.224-0.264,0.45c0,0.192,0.076,0.354,0.229,0.484
		c0.152,0.131,0.34,0.249,0.561,0.357c0.221,0.107,0.465,0.218,0.731,0.331c0.266,0.113,0.51,0.255,0.73,0.425
		c0.222,0.17,0.408,0.383,0.562,0.638c0.152,0.255,0.229,0.569,0.229,0.943c0,0.329-0.06,0.629-0.179,0.901
		c-0.119,0.271-0.289,0.504-0.51,0.697c-0.222,0.192-0.484,0.346-0.791,0.459c-0.306,0.112-0.651,0.17-1.037,0.17
		c-0.465,0-0.915-0.08-1.352-0.238c-0.436-0.158-0.779-0.385-1.028-0.68c0.079-0.091,0.176-0.204,0.289-0.341
		c0.113-0.136,0.221-0.266,0.323-0.391c0.102-0.124,0.227-0.271,0.374-0.442c0-0.011,0.036,0.009,0.11,0.06
		c0.073,0.052,0.173,0.111,0.298,0.179c0.124,0.068,0.271,0.131,0.441,0.188s0.346,0.085,0.527,0.085
		c0.283,0,0.501-0.062,0.654-0.188c0.153-0.124,0.229-0.277,0.229-0.459c0-0.181-0.076-0.328-0.229-0.441s-0.34-0.219-0.561-0.314
		c-0.222-0.097-0.465-0.201-0.731-0.314s-0.51-0.256-0.73-0.426c-0.222-0.17-0.408-0.388-0.562-0.654
		c-0.153-0.266-0.229-0.604-0.229-1.012c0-0.407,0.073-0.748,0.221-1.02c0.147-0.272,0.338-0.493,0.57-0.663
		c0.231-0.17,0.484-0.292,0.756-0.365c0.272-0.074,0.538-0.11,0.799-0.11c0.352,0,0.717,0.07,1.097,0.212
		S-217.237,140.186-216.976,140.446z"/>
	<path fill="#FFF7DC" d="M-211.723,143.489c0-0.521,0.103-1.017,0.306-1.487c0.204-0.471,0.479-0.881,0.825-1.232
		s0.748-0.632,1.207-0.842c0.459-0.209,0.943-0.314,1.453-0.314c0.34,0,0.646,0.043,0.918,0.128
		c0.272,0.085,0.507,0.184,0.706,0.297c0.197,0.113,0.354,0.229,0.467,0.349s0.188,0.213,0.222,0.28l0.067-0.866h1.581v7.225h-1.648
		v-0.476c0-0.057,0.002-0.111,0.008-0.162s0.009-0.088,0.009-0.11c-0.046,0.057-0.125,0.139-0.238,0.246
		c-0.113,0.108-0.267,0.213-0.459,0.315c-0.192,0.102-0.422,0.189-0.688,0.263c-0.267,0.074-0.575,0.11-0.927,0.11
		c-0.555,0-1.065-0.102-1.529-0.306c-0.465-0.204-0.867-0.476-1.207-0.815c-0.34-0.341-0.604-0.734-0.791-1.182
		C-211.629,144.461-211.723,143.988-211.723,143.489z M-210.073,143.388c0,0.317,0.054,0.611,0.161,0.884
		c0.107,0.271,0.261,0.507,0.459,0.705c0.198,0.199,0.434,0.354,0.705,0.468c0.272,0.113,0.572,0.17,0.901,0.17
		s0.629-0.057,0.901-0.17c0.271-0.113,0.507-0.271,0.705-0.476s0.352-0.442,0.459-0.715c0.107-0.271,0.162-0.561,0.162-0.866
		c0-0.307-0.055-0.593-0.162-0.858c-0.107-0.267-0.261-0.496-0.459-0.688c-0.198-0.193-0.434-0.346-0.705-0.459
		c-0.272-0.113-0.572-0.171-0.901-0.171s-0.629,0.055-0.901,0.162c-0.271,0.107-0.507,0.261-0.705,0.459s-0.352,0.431-0.459,0.697
		C-210.02,142.795-210.073,143.081-210.073,143.388z"/>
	<path fill="#FFF7DC" d="M-202.407,143.422c0-0.567,0.094-1.083,0.281-1.548c0.187-0.464,0.447-0.863,0.781-1.198
		c0.335-0.334,0.726-0.595,1.174-0.782c0.447-0.187,0.938-0.28,1.47-0.28c0.363,0,0.681,0.04,0.952,0.119
		c0.272,0.079,0.505,0.176,0.697,0.289s0.349,0.235,0.468,0.365c0.119,0.131,0.212,0.241,0.28,0.332v-6.971h1.632v13.277h-1.632
		v-0.476c0-0.057,0.006-0.119,0.017-0.188c0.012-0.068,0.018-0.119,0.018-0.153c-0.103,0.103-0.228,0.213-0.374,0.332
		c-0.147,0.119-0.323,0.229-0.527,0.331c-0.204,0.103-0.434,0.185-0.688,0.247c-0.255,0.062-0.547,0.093-0.875,0.093
		c-0.578,0-1.097-0.099-1.556-0.297s-0.845-0.471-1.156-0.816s-0.55-0.748-0.714-1.207S-202.407,143.943-202.407,143.422z
		 M-200.775,143.388c0,0.317,0.054,0.611,0.161,0.884c0.107,0.271,0.261,0.507,0.459,0.705c0.198,0.199,0.434,0.354,0.705,0.468
		c0.272,0.113,0.572,0.17,0.901,0.17s0.632-0.057,0.909-0.17c0.278-0.113,0.516-0.271,0.715-0.476
		c0.197-0.204,0.351-0.442,0.459-0.715c0.107-0.271,0.161-0.561,0.161-0.866c0-0.307-0.054-0.593-0.161-0.858
		c-0.108-0.267-0.262-0.496-0.459-0.688c-0.199-0.193-0.437-0.346-0.715-0.459c-0.277-0.113-0.58-0.171-0.909-0.171
		s-0.629,0.055-0.901,0.162c-0.271,0.107-0.507,0.261-0.705,0.459s-0.352,0.431-0.459,0.697
		C-200.721,142.795-200.775,143.081-200.775,143.388z"/>
	<path fill="#FFF7DC" d="M-192.666,139.801h1.445c0.011,0.203,0.022,0.385,0.034,0.544c0.011,0.158,0.022,0.309,0.033,0.45
		c0.012,0.142,0.023,0.28,0.034,0.416c0.012,0.137,0.022,0.284,0.034,0.442c0.272-0.612,0.614-1.102,1.028-1.471
		c0.414-0.368,0.983-0.558,1.709-0.569c0.714,0,1.283,0.179,1.708,0.535c0.425,0.357,0.678,0.825,0.757,1.403
		c0.136-0.283,0.289-0.544,0.459-0.782s0.359-0.442,0.569-0.612s0.45-0.303,0.723-0.399c0.271-0.096,0.589-0.145,0.952-0.145
		c0.748,0,1.343,0.201,1.785,0.604c0.441,0.402,0.674,0.927,0.696,1.572v5.236h-1.632v-4.471c-0.022-0.352-0.142-0.655-0.356-0.91
		c-0.216-0.255-0.573-0.394-1.071-0.416c-0.669,0-1.188,0.218-1.556,0.654s-0.553,0.994-0.553,1.675v3.468h-1.632v-4.471
		c-0.022-0.352-0.145-0.655-0.365-0.91s-0.575-0.394-1.062-0.416c-0.669,0-1.188,0.218-1.556,0.654s-0.553,0.989-0.553,1.657v3.485
		h-1.632V139.801z"/>
	<path fill="#FFF7DC" d="M-178.93,136.995c0-0.294,0.107-0.538,0.322-0.73c0.216-0.192,0.448-0.289,0.697-0.289
		s0.479,0.097,0.688,0.289s0.314,0.437,0.314,0.73c0,0.307-0.104,0.553-0.314,0.74c-0.21,0.187-0.439,0.28-0.688,0.28
		s-0.481-0.094-0.697-0.28C-178.822,137.548-178.93,137.302-178.93,136.995z M-177.112,147.026h-1.632v-7.225h1.632V147.026z"/>
	<path fill="#FFF7DC" d="M-171.06,141.722c-0.317,0-0.62,0.04-0.909,0.119s-0.544,0.201-0.766,0.365
		c-0.221,0.164-0.399,0.368-0.535,0.612c-0.136,0.243-0.204,0.529-0.204,0.858v3.349h-1.632v-7.225h1.428
		c0.022,0.407,0.049,0.739,0.077,0.994s0.054,0.541,0.076,0.858c0.147-0.317,0.346-0.601,0.595-0.85s0.508-0.462,0.773-0.638
		c0.267-0.176,0.53-0.312,0.791-0.408c0.261-0.096,0.481-0.145,0.663-0.145L-171.06,141.722z"/>
	<path fill="#FFF7DC" d="M-163.529,146.193c-0.352,0.317-0.776,0.566-1.275,0.748c-0.498,0.181-1.009,0.271-1.529,0.271
		c-0.533,0-1.034-0.099-1.505-0.297s-0.878-0.471-1.224-0.816s-0.621-0.748-0.825-1.207c-0.203-0.459-0.306-0.949-0.306-1.47
		c0-0.521,0.103-1.012,0.306-1.471c0.204-0.459,0.479-0.861,0.825-1.207s0.748-0.618,1.207-0.816s0.943-0.297,1.453-0.297
		c0.816,0,1.532,0.246,2.15,0.739s1.057,1.142,1.317,1.946c-0.34,0.125-0.733,0.275-1.182,0.45c-0.447,0.176-0.915,0.36-1.402,0.553
		c-0.487,0.193-0.975,0.389-1.462,0.587s-0.935,0.377-1.343,0.535c0.192,0.352,0.459,0.635,0.799,0.85
		c0.34,0.216,0.726,0.323,1.156,0.323c0.295,0,0.592-0.054,0.893-0.161c0.3-0.107,0.547-0.252,0.739-0.434L-163.529,146.193z
		 M-164.956,141.943c-0.137-0.249-0.34-0.434-0.612-0.553c-0.271-0.119-0.538-0.179-0.799-0.179c-0.306,0-0.595,0.06-0.867,0.179
		c-0.271,0.119-0.504,0.278-0.697,0.477c-0.192,0.198-0.346,0.425-0.459,0.68s-0.17,0.519-0.17,0.79v0.068
		c0.283-0.113,0.587-0.235,0.91-0.365c0.322-0.13,0.646-0.264,0.969-0.399c0.323-0.137,0.632-0.264,0.927-0.383
		C-165.461,142.138-165.195,142.033-164.956,141.943z"/>
	<path fill="#FFF7DC" d="M-157.63,141.722c-0.317,0-0.62,0.04-0.909,0.119s-0.544,0.201-0.766,0.365
		c-0.221,0.164-0.399,0.368-0.535,0.612c-0.136,0.243-0.204,0.529-0.204,0.858v3.349h-1.632v-7.225h1.428
		c0.022,0.407,0.049,0.739,0.077,0.994s0.054,0.541,0.076,0.858c0.147-0.317,0.346-0.601,0.595-0.85s0.508-0.462,0.773-0.638
		c0.267-0.176,0.53-0.312,0.791-0.408c0.261-0.096,0.481-0.145,0.663-0.145L-157.63,141.722z"/>
	<path fill="#FFF7DC" d="M-151.017,147.026h-1.615v-13.277h1.615V147.026z"/>
	<path fill="#FFF7DC" d="M-142.806,146.193c-0.352,0.317-0.776,0.566-1.275,0.748c-0.498,0.181-1.009,0.271-1.529,0.271
		c-0.533,0-1.034-0.099-1.505-0.297s-0.878-0.471-1.224-0.816s-0.621-0.748-0.825-1.207c-0.203-0.459-0.306-0.949-0.306-1.47
		c0-0.521,0.103-1.012,0.306-1.471c0.204-0.459,0.479-0.861,0.825-1.207s0.748-0.618,1.207-0.816s0.943-0.297,1.453-0.297
		c0.816,0,1.532,0.246,2.15,0.739s1.057,1.142,1.317,1.946c-0.34,0.125-0.733,0.275-1.182,0.45c-0.447,0.176-0.915,0.36-1.402,0.553
		c-0.487,0.193-0.975,0.389-1.462,0.587s-0.935,0.377-1.343,0.535c0.192,0.352,0.459,0.635,0.799,0.85
		c0.34,0.216,0.726,0.323,1.156,0.323c0.295,0,0.592-0.054,0.893-0.161c0.3-0.107,0.547-0.252,0.739-0.434L-142.806,146.193z
		 M-144.234,141.943c-0.137-0.249-0.34-0.434-0.612-0.553c-0.271-0.119-0.538-0.179-0.799-0.179c-0.306,0-0.595,0.06-0.867,0.179
		c-0.271,0.119-0.504,0.278-0.697,0.477c-0.192,0.198-0.346,0.425-0.459,0.68s-0.17,0.519-0.17,0.79v0.068
		c0.283-0.113,0.587-0.235,0.91-0.365c0.322-0.13,0.646-0.264,0.969-0.399c0.323-0.137,0.632-0.264,0.927-0.383
		C-144.739,142.138-144.472,142.033-144.234,141.943z"/>
	<path fill="#FFF7DC" d="M-258.71,163.838c0,0.544-0.091,1.046-0.272,1.505s-0.439,0.858-0.773,1.198s-0.733,0.604-1.198,0.79
		c-0.465,0.188-0.975,0.28-1.53,0.28s-1.045-0.104-1.471-0.314c-0.425-0.209-0.717-0.433-0.875-0.671
		c0,0.045,0.003,0.088,0.009,0.127c0.005,0.04,0.008,0.088,0.008,0.145v3.995h-1.632V160.2h1.564c0,0.158,0.011,0.317,0.033,0.476
		c0.023,0.159,0.034,0.306,0.034,0.442c0.091-0.113,0.207-0.235,0.349-0.366c0.142-0.13,0.314-0.249,0.519-0.356
		s0.434-0.198,0.688-0.272c0.255-0.073,0.535-0.11,0.842-0.11c0.555,0,1.06,0.088,1.513,0.264s0.842,0.431,1.165,0.765
		c0.322,0.335,0.574,0.737,0.756,1.207C-258.801,162.719-258.71,163.249-258.71,163.838z M-260.479,163.804
		c0-0.635-0.184-1.158-0.552-1.572c-0.369-0.414-0.882-0.621-1.539-0.621c-0.329,0-0.629,0.055-0.901,0.162
		c-0.271,0.107-0.507,0.261-0.705,0.459s-0.354,0.431-0.468,0.697c-0.113,0.266-0.17,0.552-0.17,0.858
		c0,0.317,0.057,0.611,0.17,0.884c0.113,0.271,0.27,0.507,0.468,0.705c0.198,0.199,0.434,0.354,0.705,0.468
		c0.272,0.113,0.572,0.17,0.901,0.17s0.623-0.057,0.884-0.17s0.479-0.271,0.655-0.476c0.175-0.204,0.312-0.439,0.407-0.706
		C-260.527,164.397-260.479,164.11-260.479,163.804z"/>
	<path fill="#FFF7DC" d="M-257.606,163.804c0-0.521,0.1-1.012,0.298-1.471s0.473-0.858,0.824-1.198s0.762-0.609,1.232-0.808
		s0.972-0.297,1.505-0.297c0.544,0,1.048,0.099,1.513,0.297s0.864,0.468,1.198,0.808s0.598,0.739,0.791,1.198
		c0.192,0.459,0.289,0.949,0.289,1.471s-0.094,1.015-0.281,1.479c-0.187,0.465-0.45,0.869-0.79,1.215s-0.742,0.618-1.207,0.816
		s-0.975,0.297-1.53,0.297c-0.532,0-1.031-0.091-1.496-0.271c-0.465-0.182-0.869-0.439-1.215-0.773s-0.621-0.736-0.825-1.207
		C-257.503,164.889-257.606,164.371-257.606,163.804z M-255.99,163.821c0,0.306,0.057,0.592,0.17,0.858
		c0.113,0.266,0.269,0.498,0.468,0.696c0.198,0.199,0.431,0.354,0.696,0.468c0.267,0.113,0.553,0.17,0.858,0.17
		c0.307,0,0.593-0.057,0.859-0.17c0.266-0.113,0.498-0.269,0.696-0.468c0.198-0.198,0.357-0.431,0.477-0.696
		c0.119-0.267,0.178-0.553,0.178-0.858c0-0.307-0.059-0.593-0.178-0.859c-0.119-0.266-0.278-0.498-0.477-0.696
		s-0.431-0.357-0.696-0.477c-0.267-0.119-0.553-0.179-0.859-0.179c-0.306,0-0.592,0.06-0.858,0.179
		c-0.266,0.119-0.498,0.278-0.696,0.477c-0.199,0.198-0.354,0.431-0.468,0.696C-255.934,163.229-255.99,163.515-255.99,163.821z"/>
	<path fill="#FFF7DC" d="M-241.54,167.595h-1.36l-0.204-2.006c-0.261,0.578-0.62,1.057-1.079,1.437s-1.062,0.569-1.811,0.569
		s-1.341-0.195-1.776-0.586c-0.437-0.392-0.666-0.91-0.688-1.556V160.2h1.632v4.487c0.022,0.352,0.145,0.649,0.365,0.893
		c0.222,0.244,0.575,0.377,1.062,0.399c0.329,0,0.629-0.057,0.901-0.17c0.271-0.113,0.507-0.271,0.705-0.476
		s0.354-0.448,0.468-0.731s0.17-0.589,0.17-0.918V160.2h1.615V167.595z"/>
	<path fill="#FFF7DC" d="M-235.42,160.846c-0.068,0.103-0.15,0.219-0.247,0.349c-0.096,0.131-0.189,0.252-0.28,0.365
		s-0.198,0.255-0.323,0.425c-0.113-0.079-0.224-0.142-0.331-0.187s-0.232-0.088-0.374-0.128c-0.142-0.039-0.286-0.06-0.434-0.06
		c-0.159,0-0.326,0.037-0.501,0.111c-0.177,0.073-0.264,0.224-0.264,0.45c0,0.192,0.076,0.354,0.229,0.484
		c0.152,0.131,0.34,0.249,0.561,0.357c0.221,0.107,0.465,0.218,0.731,0.331c0.266,0.113,0.51,0.255,0.73,0.425
		c0.222,0.17,0.408,0.383,0.562,0.638c0.152,0.255,0.229,0.569,0.229,0.943c0,0.329-0.06,0.629-0.179,0.901
		c-0.119,0.271-0.289,0.504-0.51,0.697c-0.222,0.192-0.484,0.346-0.791,0.459c-0.306,0.112-0.651,0.17-1.037,0.17
		c-0.465,0-0.915-0.08-1.352-0.238c-0.436-0.158-0.779-0.385-1.028-0.68c0.079-0.091,0.176-0.204,0.289-0.341
		c0.113-0.136,0.221-0.266,0.323-0.391c0.102-0.124,0.227-0.271,0.374-0.442c0-0.011,0.036,0.009,0.11,0.06
		c0.073,0.052,0.173,0.111,0.298,0.179c0.124,0.068,0.271,0.131,0.441,0.188s0.346,0.085,0.527,0.085
		c0.283,0,0.501-0.062,0.654-0.188c0.153-0.124,0.229-0.277,0.229-0.459c0-0.181-0.076-0.328-0.229-0.441s-0.34-0.219-0.561-0.314
		c-0.222-0.097-0.465-0.201-0.731-0.314s-0.51-0.256-0.73-0.426c-0.222-0.17-0.408-0.388-0.562-0.654
		c-0.153-0.266-0.229-0.604-0.229-1.012c0-0.407,0.073-0.748,0.221-1.02c0.147-0.272,0.338-0.493,0.57-0.663
		c0.231-0.17,0.484-0.292,0.756-0.365c0.272-0.074,0.538-0.11,0.799-0.11c0.352,0,0.717,0.07,1.097,0.212
		S-235.681,160.585-235.42,160.846z"/>
	<path fill="#FFF7DC" d="M-229.47,160.846c-0.068,0.103-0.15,0.219-0.247,0.349c-0.096,0.131-0.189,0.252-0.28,0.365
		s-0.198,0.255-0.323,0.425c-0.113-0.079-0.224-0.142-0.331-0.187s-0.232-0.088-0.374-0.128c-0.142-0.039-0.286-0.06-0.434-0.06
		c-0.159,0-0.326,0.037-0.501,0.111c-0.177,0.073-0.264,0.224-0.264,0.45c0,0.192,0.076,0.354,0.229,0.484
		c0.152,0.131,0.34,0.249,0.561,0.357c0.221,0.107,0.465,0.218,0.731,0.331c0.266,0.113,0.51,0.255,0.73,0.425
		c0.222,0.17,0.408,0.383,0.562,0.638c0.152,0.255,0.229,0.569,0.229,0.943c0,0.329-0.06,0.629-0.179,0.901
		c-0.119,0.271-0.289,0.504-0.51,0.697c-0.222,0.192-0.484,0.346-0.791,0.459c-0.306,0.112-0.651,0.17-1.037,0.17
		c-0.465,0-0.915-0.08-1.352-0.238c-0.436-0.158-0.779-0.385-1.028-0.68c0.079-0.091,0.176-0.204,0.289-0.341
		c0.113-0.136,0.221-0.266,0.323-0.391c0.102-0.124,0.227-0.271,0.374-0.442c0-0.011,0.036,0.009,0.11,0.06
		c0.073,0.052,0.173,0.111,0.298,0.179c0.124,0.068,0.271,0.131,0.441,0.188s0.346,0.085,0.527,0.085
		c0.283,0,0.501-0.062,0.654-0.188c0.153-0.124,0.229-0.277,0.229-0.459c0-0.181-0.076-0.328-0.229-0.441s-0.34-0.219-0.561-0.314
		c-0.222-0.097-0.465-0.201-0.731-0.314s-0.51-0.256-0.73-0.426c-0.222-0.17-0.408-0.388-0.562-0.654
		c-0.153-0.266-0.229-0.604-0.229-1.012c0-0.407,0.073-0.748,0.221-1.02c0.147-0.272,0.338-0.493,0.57-0.663
		c0.231-0.17,0.484-0.292,0.756-0.365c0.272-0.074,0.538-0.11,0.799-0.11c0.352,0,0.717,0.07,1.097,0.212
		S-229.731,160.585-229.47,160.846z"/>
	<path fill="#FFF7DC" d="M-227.821,157.395c0-0.294,0.107-0.538,0.322-0.73c0.216-0.192,0.448-0.289,0.697-0.289
		s0.479,0.097,0.688,0.289s0.314,0.437,0.314,0.73c0,0.307-0.104,0.553-0.314,0.74c-0.21,0.187-0.439,0.28-0.688,0.28
		s-0.481-0.094-0.697-0.28C-227.713,157.947-227.821,157.701-227.821,157.395z M-226.002,167.425h-1.632V160.2h1.632V167.425z"/>
	<path fill="#FFF7DC" d="M-223.996,160.2h1.428c0.022,0.407,0.049,0.739,0.077,0.994s0.054,0.541,0.076,0.858
		c0.261-0.612,0.629-1.104,1.105-1.479c0.476-0.374,1.07-0.562,1.784-0.562c0.737,0,1.323,0.201,1.76,0.604s0.666,0.927,0.688,1.572
		v5.236h-1.615v-4.471c-0.022-0.352-0.147-0.655-0.374-0.91s-0.577-0.394-1.054-0.416c-0.329,0-0.632,0.06-0.909,0.179
		c-0.278,0.119-0.516,0.28-0.714,0.484c-0.199,0.204-0.352,0.447-0.459,0.73c-0.108,0.284-0.162,0.59-0.162,0.918v3.485h-1.632
		V160.2z"/>
	<path fill="#FFF7DC" d="M-211.689,163.821c0-0.567,0.094-1.083,0.281-1.548c0.187-0.464,0.447-0.863,0.781-1.198
		c0.335-0.334,0.726-0.595,1.174-0.782c0.447-0.187,0.938-0.28,1.47-0.28c0.363,0,0.681,0.04,0.952,0.119
		c0.272,0.079,0.505,0.176,0.697,0.289s0.349,0.235,0.468,0.365c0.119,0.131,0.212,0.241,0.28,0.332v-6.971h1.632v13.277h-1.632
		v-0.476c0-0.057,0.006-0.119,0.017-0.188c0.012-0.068,0.018-0.119,0.018-0.153c-0.103,0.103-0.228,0.213-0.374,0.332
		c-0.147,0.119-0.323,0.229-0.527,0.331c-0.204,0.103-0.434,0.185-0.688,0.247c-0.255,0.062-0.547,0.093-0.875,0.093
		c-0.578,0-1.097-0.099-1.556-0.297s-0.845-0.471-1.156-0.816s-0.55-0.748-0.714-1.207S-211.689,164.342-211.689,163.821z
		 M-210.056,163.787c0,0.317,0.054,0.611,0.161,0.884c0.107,0.271,0.261,0.507,0.459,0.705c0.198,0.199,0.434,0.354,0.705,0.468
		c0.272,0.113,0.572,0.17,0.901,0.17s0.632-0.057,0.909-0.17c0.278-0.113,0.516-0.271,0.715-0.476
		c0.197-0.204,0.351-0.442,0.459-0.715c0.107-0.271,0.161-0.561,0.161-0.866c0-0.307-0.054-0.593-0.161-0.858
		c-0.108-0.267-0.262-0.496-0.459-0.688c-0.199-0.193-0.437-0.346-0.715-0.459c-0.277-0.113-0.58-0.171-0.909-0.171
		s-0.629,0.055-0.901,0.162c-0.271,0.107-0.507,0.261-0.705,0.459s-0.352,0.431-0.459,0.697
		C-210.002,163.195-210.056,163.481-210.056,163.787z"/>
	<path fill="#FFF7DC" d="M-195.742,166.592c-0.352,0.317-0.776,0.566-1.275,0.748c-0.498,0.181-1.009,0.271-1.529,0.271
		c-0.533,0-1.034-0.099-1.505-0.297s-0.878-0.471-1.224-0.816s-0.621-0.748-0.825-1.207c-0.203-0.459-0.306-0.949-0.306-1.47
		c0-0.521,0.103-1.012,0.306-1.471c0.204-0.459,0.479-0.861,0.825-1.207s0.748-0.618,1.207-0.816s0.943-0.297,1.453-0.297
		c0.816,0,1.532,0.246,2.15,0.739s1.057,1.142,1.317,1.946c-0.34,0.125-0.733,0.275-1.182,0.45c-0.447,0.176-0.915,0.36-1.402,0.553
		c-0.487,0.193-0.975,0.389-1.462,0.587s-0.935,0.377-1.343,0.535c0.192,0.352,0.459,0.635,0.799,0.85
		c0.34,0.216,0.726,0.323,1.156,0.323c0.295,0,0.592-0.054,0.893-0.161c0.3-0.107,0.547-0.252,0.739-0.434L-195.742,166.592z
		 M-197.17,162.342c-0.137-0.249-0.34-0.434-0.612-0.553c-0.271-0.119-0.538-0.179-0.799-0.179c-0.306,0-0.595,0.06-0.867,0.179
		c-0.271,0.119-0.504,0.278-0.697,0.477c-0.192,0.198-0.346,0.425-0.459,0.68s-0.17,0.519-0.17,0.79v0.068
		c0.283-0.113,0.587-0.235,0.91-0.365c0.322-0.13,0.646-0.264,0.969-0.399c0.323-0.137,0.632-0.264,0.927-0.383
		C-197.675,162.537-197.408,162.433-197.17,162.342z"/>
	<path fill="#FFF7DC" d="M-180.256,166.507c-0.136,0.091-0.325,0.198-0.569,0.323s-0.533,0.24-0.867,0.349
		c-0.334,0.107-0.711,0.198-1.13,0.271c-0.42,0.073-0.867,0.11-1.344,0.11c-0.975,0-1.847-0.167-2.617-0.501
		c-0.771-0.334-1.423-0.785-1.955-1.352c-0.533-0.566-0.941-1.229-1.225-1.989c-0.283-0.759-0.425-1.558-0.425-2.396
		c0-0.93,0.17-1.788,0.51-2.576c0.34-0.787,0.802-1.468,1.386-2.04s1.264-1.017,2.04-1.334s1.606-0.477,2.49-0.477
		c0.34,0,0.683,0.025,1.029,0.077c0.345,0.051,0.671,0.116,0.977,0.195c0.307,0.079,0.575,0.17,0.808,0.271
		c0.232,0.103,0.399,0.21,0.502,0.323c-0.103,0.159-0.182,0.289-0.238,0.391c-0.057,0.103-0.116,0.207-0.179,0.315
		c-0.062,0.107-0.13,0.229-0.204,0.365c-0.073,0.136-0.178,0.323-0.314,0.561c-0.136-0.09-0.3-0.17-0.492-0.237
		c-0.193-0.068-0.395-0.122-0.604-0.162c-0.21-0.039-0.423-0.07-0.638-0.094c-0.216-0.022-0.408-0.033-0.578-0.033
		c-0.635,0-1.222,0.118-1.76,0.356s-1.003,0.553-1.394,0.943c-0.392,0.392-0.697,0.848-0.918,1.369
		c-0.222,0.521-0.332,1.06-0.332,1.614c0,0.545,0.104,1.074,0.314,1.59s0.505,0.972,0.885,1.368c0.379,0.397,0.83,0.718,1.351,0.961
		c0.521,0.244,1.1,0.365,1.734,0.365c0.362,0,0.714-0.036,1.054-0.11c0.341-0.073,0.641-0.155,0.901-0.246s0.473-0.182,0.638-0.272
		c0.164-0.091,0.252-0.153,0.264-0.187L-180.256,166.507z"/>
	<path fill="#FFF7DC" d="M-177.519,167.425h-1.615v-13.277h1.615V167.425z"/>
	<path fill="#FFF7DC" d="M-175.972,163.889c0-0.521,0.103-1.017,0.306-1.487c0.204-0.471,0.479-0.881,0.825-1.232
		s0.748-0.632,1.207-0.842c0.459-0.209,0.943-0.314,1.453-0.314c0.34,0,0.646,0.043,0.918,0.128
		c0.272,0.085,0.507,0.184,0.706,0.297c0.197,0.113,0.354,0.229,0.467,0.349s0.188,0.213,0.222,0.28l0.067-0.866h1.581v7.225h-1.648
		v-0.476c0-0.057,0.002-0.111,0.008-0.162s0.009-0.088,0.009-0.11c-0.046,0.057-0.125,0.139-0.238,0.246
		c-0.113,0.108-0.267,0.213-0.459,0.315c-0.192,0.102-0.422,0.189-0.688,0.263c-0.267,0.074-0.575,0.11-0.927,0.11
		c-0.555,0-1.065-0.102-1.529-0.306c-0.465-0.204-0.867-0.476-1.207-0.815c-0.34-0.341-0.604-0.734-0.791-1.182
		C-175.878,164.861-175.972,164.388-175.972,163.889z M-174.322,163.787c0,0.317,0.054,0.611,0.161,0.884
		c0.107,0.271,0.261,0.507,0.459,0.705c0.198,0.199,0.434,0.354,0.705,0.468c0.272,0.113,0.572,0.17,0.901,0.17
		s0.629-0.057,0.901-0.17c0.271-0.113,0.507-0.271,0.705-0.476s0.352-0.442,0.459-0.715c0.107-0.271,0.162-0.561,0.162-0.866
		c0-0.307-0.055-0.593-0.162-0.858c-0.107-0.267-0.261-0.496-0.459-0.688c-0.198-0.193-0.434-0.346-0.705-0.459
		c-0.272-0.113-0.572-0.171-0.901-0.171s-0.629,0.055-0.901,0.162c-0.271,0.107-0.507,0.261-0.705,0.459s-0.352,0.431-0.459,0.697
		C-174.269,163.195-174.322,163.481-174.322,163.787z"/>
	<path fill="#FFF7DC" d="M-159.346,167.595h-1.36l-0.204-2.006c-0.261,0.578-0.62,1.057-1.079,1.437s-1.062,0.569-1.811,0.569
		s-1.341-0.195-1.776-0.586c-0.437-0.392-0.666-0.91-0.688-1.556V160.2h1.632v4.487c0.022,0.352,0.145,0.649,0.365,0.893
		c0.222,0.244,0.575,0.377,1.062,0.399c0.329,0,0.629-0.057,0.901-0.17c0.271-0.113,0.507-0.271,0.705-0.476
		s0.354-0.448,0.468-0.731s0.17-0.589,0.17-0.918V160.2h1.615V167.595z"/>
	<path fill="#FFF7DC" d="M-157.782,163.821c0-0.567,0.094-1.083,0.281-1.548c0.187-0.464,0.447-0.863,0.781-1.198
		c0.335-0.334,0.726-0.595,1.174-0.782c0.447-0.187,0.938-0.28,1.47-0.28c0.363,0,0.681,0.04,0.952,0.119
		c0.272,0.079,0.505,0.176,0.697,0.289s0.349,0.235,0.468,0.365c0.119,0.131,0.212,0.241,0.28,0.332v-6.971h1.632v13.277h-1.632
		v-0.476c0-0.057,0.006-0.119,0.017-0.188c0.012-0.068,0.018-0.119,0.018-0.153c-0.103,0.103-0.228,0.213-0.374,0.332
		c-0.147,0.119-0.323,0.229-0.527,0.331c-0.204,0.103-0.434,0.185-0.688,0.247c-0.255,0.062-0.547,0.093-0.875,0.093
		c-0.578,0-1.097-0.099-1.556-0.297s-0.845-0.471-1.156-0.816s-0.55-0.748-0.714-1.207S-157.782,164.342-157.782,163.821z
		 M-156.15,163.787c0,0.317,0.054,0.611,0.161,0.884c0.107,0.271,0.261,0.507,0.459,0.705c0.198,0.199,0.434,0.354,0.705,0.468
		c0.272,0.113,0.572,0.17,0.901,0.17s0.632-0.057,0.909-0.17c0.278-0.113,0.516-0.271,0.715-0.476
		c0.197-0.204,0.351-0.442,0.459-0.715c0.107-0.271,0.161-0.561,0.161-0.866c0-0.307-0.054-0.593-0.161-0.858
		c-0.108-0.267-0.262-0.496-0.459-0.688c-0.199-0.193-0.437-0.346-0.715-0.459c-0.277-0.113-0.58-0.171-0.909-0.171
		s-0.629,0.055-0.901,0.162c-0.271,0.107-0.507,0.261-0.705,0.459s-0.352,0.431-0.459,0.697
		C-156.096,163.195-156.15,163.481-156.15,163.787z"/>
	<path fill="#FFF7DC" d="M-141.836,166.592c-0.352,0.317-0.776,0.566-1.275,0.748c-0.498,0.181-1.009,0.271-1.529,0.271
		c-0.533,0-1.034-0.099-1.505-0.297s-0.878-0.471-1.224-0.816s-0.621-0.748-0.825-1.207c-0.203-0.459-0.306-0.949-0.306-1.47
		c0-0.521,0.103-1.012,0.306-1.471c0.204-0.459,0.479-0.861,0.825-1.207s0.748-0.618,1.207-0.816s0.943-0.297,1.453-0.297
		c0.816,0,1.532,0.246,2.15,0.739s1.057,1.142,1.317,1.946c-0.34,0.125-0.733,0.275-1.182,0.45c-0.447,0.176-0.915,0.36-1.402,0.553
		c-0.487,0.193-0.975,0.389-1.462,0.587s-0.935,0.377-1.343,0.535c0.192,0.352,0.459,0.635,0.799,0.85
		c0.34,0.216,0.726,0.323,1.156,0.323c0.295,0,0.592-0.054,0.893-0.161c0.3-0.107,0.547-0.252,0.739-0.434L-141.836,166.592z
		 M-143.264,162.342c-0.137-0.249-0.34-0.434-0.612-0.553c-0.271-0.119-0.538-0.179-0.799-0.179c-0.306,0-0.595,0.06-0.867,0.179
		c-0.271,0.119-0.504,0.278-0.697,0.477c-0.192,0.198-0.346,0.425-0.459,0.68s-0.17,0.519-0.17,0.79v0.068
		c0.283-0.113,0.587-0.235,0.91-0.365c0.322-0.13,0.646-0.264,0.969-0.399c0.323-0.137,0.632-0.264,0.927-0.383
		C-143.769,162.537-143.502,162.433-143.264,162.342z"/>
	<path fill="#FFF7DC" d="M-222.553,187.825v-12.393h3.502c0.681,0,1.301,0.091,1.861,0.271c0.562,0.182,1.037,0.442,1.429,0.782
		c0.391,0.34,0.694,0.76,0.909,1.258c0.215,0.499,0.323,1.06,0.323,1.683c0,0.499-0.074,0.995-0.221,1.488
		c-0.147,0.492-0.389,0.935-0.723,1.325c-0.335,0.392-0.769,0.709-1.301,0.952c-0.533,0.244-1.19,0.366-1.972,0.366h-1.734v4.267
		H-222.553z M-220.479,181.604h1.666c0.431,0,0.788-0.074,1.071-0.222c0.283-0.146,0.51-0.331,0.68-0.552
		c0.17-0.222,0.289-0.453,0.357-0.697c0.067-0.244,0.102-0.462,0.102-0.654c0-0.182-0.031-0.394-0.094-0.638
		s-0.176-0.474-0.34-0.688s-0.388-0.396-0.671-0.544c-0.284-0.147-0.646-0.222-1.089-0.222h-1.683V181.604z"/>
	<path fill="#FFF7DC" d="M-214.375,184.204c0-0.521,0.1-1.012,0.298-1.471s0.473-0.858,0.824-1.198s0.762-0.609,1.232-0.808
		s0.972-0.297,1.505-0.297c0.544,0,1.048,0.099,1.513,0.297s0.864,0.468,1.198,0.808s0.598,0.739,0.791,1.198
		c0.192,0.459,0.289,0.949,0.289,1.471s-0.094,1.015-0.281,1.479c-0.187,0.465-0.45,0.869-0.79,1.215s-0.742,0.618-1.207,0.816
		s-0.975,0.297-1.53,0.297c-0.532,0-1.031-0.091-1.496-0.271c-0.465-0.182-0.869-0.439-1.215-0.773s-0.621-0.736-0.825-1.207
		C-214.273,185.289-214.375,184.772-214.375,184.204z M-212.76,184.222c0,0.306,0.057,0.592,0.17,0.858
		c0.113,0.266,0.269,0.498,0.468,0.696c0.198,0.199,0.431,0.354,0.696,0.468c0.267,0.113,0.553,0.17,0.858,0.17
		c0.307,0,0.593-0.057,0.859-0.17c0.266-0.113,0.498-0.269,0.696-0.468c0.198-0.198,0.357-0.431,0.477-0.696
		c0.119-0.267,0.178-0.553,0.178-0.858c0-0.307-0.059-0.593-0.178-0.859c-0.119-0.266-0.278-0.498-0.477-0.696
		s-0.431-0.357-0.696-0.477c-0.267-0.119-0.553-0.179-0.859-0.179c-0.306,0-0.592,0.06-0.858,0.179
		c-0.266,0.119-0.498,0.278-0.696,0.477c-0.199,0.198-0.354,0.431-0.468,0.696C-212.703,183.629-212.76,183.915-212.76,184.222z"/>
	<path fill="#FFF7DC" d="M-205.178,180.601h1.428c0.022,0.407,0.049,0.739,0.077,0.994s0.054,0.541,0.076,0.858
		c0.261-0.612,0.629-1.104,1.105-1.479c0.476-0.374,1.07-0.562,1.784-0.562c0.737,0,1.323,0.201,1.76,0.604s0.666,0.927,0.688,1.572
		v5.236h-1.615v-4.471c-0.022-0.352-0.147-0.655-0.374-0.91s-0.577-0.394-1.054-0.416c-0.329,0-0.632,0.06-0.909,0.179
		c-0.278,0.119-0.516,0.28-0.714,0.484c-0.199,0.204-0.352,0.447-0.459,0.73c-0.108,0.284-0.162,0.59-0.162,0.918v3.485h-1.632
		V180.601z"/>
	<path fill="#FFF7DC" d="M-195.641,177.439h1.615v3.162h1.887v1.462h-1.887v5.763h-1.615v-5.763h-1.224v-1.462h1.224V177.439z"/>
	<path fill="#FFF7DC" d="M-191.118,177.795c0-0.294,0.107-0.538,0.322-0.73c0.216-0.192,0.448-0.289,0.697-0.289
		s0.479,0.097,0.688,0.289s0.314,0.437,0.314,0.73c0,0.307-0.104,0.553-0.314,0.74c-0.21,0.187-0.439,0.28-0.688,0.28
		s-0.481-0.094-0.697-0.28C-191.011,178.348-191.118,178.102-191.118,177.795z M-189.3,187.825h-1.632v-7.225h1.632V187.825z"/>
	<path fill="#FFF7DC" d="M-187.413,186.772c0-0.295,0.11-0.544,0.332-0.748c0.221-0.204,0.461-0.307,0.723-0.307
		c0.237,0,0.467,0.103,0.688,0.307c0.221,0.204,0.331,0.453,0.331,0.748c0,0.328-0.11,0.586-0.331,0.773
		c-0.222,0.187-0.451,0.28-0.688,0.28c-0.262,0-0.502-0.094-0.723-0.28C-187.303,187.358-187.413,187.1-187.413,186.772z"/>
</g>
<g>
	<path fill="#E58C4A" d="M-218.871,87.062c0.502,0,0.88,0.388,0.932,0.439c0.111,0.105,0.258-0.439,0.412-0.439h21.221
		c0.102,0,0.204,0.574,0.294,0.526c0.544-0.304,1.034-0.526,1.472-0.526H-218.871z"/>
	<path fill="#E58C4A" d="M-196.802,52.277l-9.298-9.787c-0.135-0.141-0.328-0.207-0.514-0.177c-0.048,0.003-0.096-0.152-0.141-0.134
		c-0.033,0.012-0.063-0.116-0.093-0.116h0.234c0.066,0,0.132,0.179,0.195,0.185c0.117,0.003,0.228,0.118,0.316,0.208l9.301,9.803
		c0.024,0.027,0.045,0.065,0.063,0.095c0.012,0.018,0.024,0.047,0.033,0.065C-196.727,52.362-196.76,52.322-196.802,52.277z
		 M-196.985,53.208l-9.267,5.595c-0.057,0.036-0.111,0.072-0.177,0.096c-0.003,0-0.003,0.003-0.006,0.003
		c-0.006,0.003-0.006,0.003-0.003,0.006l0.003,0.003c0,0,0-0.003,0.003-0.006c0.003,0,0.009-0.003,0.012-0.003
		c0.069-0.018,0.138-0.045,0.198-0.081l9.237-5.604c0.057-0.033,0.102-0.075,0.129-0.126
		C-196.889,53.136-196.931,53.175-196.985,53.208z M-206.436,58.918v-0.006c0,0-0.003,0-0.006,0.003
		C-206.451,58.918-206.436,58.918-206.436,58.918z M-206.61,58.954h0.093c-0.006,0-0.012-0.015-0.018-0.015
		C-206.559,58.939-206.586,58.954-206.61,58.954z M-206.712,58.921c0.03,0.018,0.063,0.033,0.093,0.033
		c-0.027,0-0.051-0.03-0.075-0.03C-206.7,58.924-206.706,58.924-206.712,58.921z"/>
	<path fill="#E58C4A" d="M-185.359,64.606c2.377-2.101,3.857-4.823,3.857-7.458c0-5.616-4.525-10.184-10.141-10.184
		c-0.43,0-0.835,0.027-1.256,0.081c0.544-1.533,0.831-3.143,0.831-4.805c0-7.894-6.419-14.316-14.32-14.316
		c-7.903,0-14.331,6.422-14.331,14.316c0,1.692,0.269,3.306,0.798,4.808c-0.445-0.054-0.904-0.084-1.349-0.084
		c-5.688,0-10.319,4.568-10.319,10.184c0,2.957,1.591,5.526,3.458,7.353c-4.742,1.668-7.499,6.034-7.499,10.755v1.968
		c0,6.247,5.045,9.837,11.365,9.837h6.737c-0.153,0-0.301,1.215-0.412,1.109c-0.051-0.051-0.43,0.224-0.932-0.404
		c-1.358-1.686-3.612-4.974-2.855-9.581c0.033-0.192,0.156-0.199,0.334-0.286c0.174-0.084,0.382,0.001,0.553,0.098
		c0.105,0.057,1.968,1.158,3.726,3.682c-0.171-2.224-0.024-5.014,1.349-6.976c0.165-0.234,0.472-0.312,0.733-0.197
		c0.46,0.198,1.821,1.318,1.917,7.415c0.835-1.331,2.134-2.894,4-3.826c0.192-0.096,0.424-0.08,0.601,0.04
		c0.18,0.12,0.282-0.343,0.264-0.126c-0.021,0.298-0.52,6.051-3.729,9.051h10.545c-1.358,0-3.612-4.621-2.855-9.228
		c0.033-0.192,0.156-0.022,0.334-0.109c0.174-0.084,0.382,0.09,0.553,0.186c0.105,0.057,1.968,1.202,3.726,3.726
		c-0.171-2.224-0.024-4.991,1.349-6.954c0.165-0.234,0.472-0.301,0.733-0.186c0.46,0.198,1.821,1.324,1.917,7.421
		c0.835-1.331,2.134-2.892,3.997-3.823c0.195-0.096,0.424-0.079,0.604,0.042c0.18,0.12,0.282,0.329,0.264,0.545
		c-0.021,0.298-0.523,6.51-3.729,9.722c-0.439,0.439-0.929-0.448-1.472-0.145c-0.09,0.048-0.192-1.196-0.294-1.196h7.479
		c6.148,0,11.197-3.241,11.197-9.837v-1.968C-177.63,71.311-180.166,66.557-185.359,64.606z M-197.151,39.755
		c-1.154,1.283-2.458,1.74-3.696,1.74c-1.746,0-3.363-0.908-4.261-1.689l0.787-0.908c0.144,0.123,3.591,3.038,6.277,0.051
		L-197.151,39.755z M-208.398,39.755c-1.157,1.283-2.458,1.74-3.699,1.74c-1.746,0-3.363-0.908-4.261-1.689l0.787-0.908
		c0.144,0.123,3.591,3.038,6.277,0.051L-208.398,39.755z M-196.724,52.887c-0.006,0.003,0.589,0.009,0.586,0.015
		c-0.009,0.021,0.508,0.042,0.508,0.063v0.003c0,0.024-0.598,0.051-0.607,0.072c-0.006,0.018-0.313,0.036-0.322,0.051
		c-0.027,0.051-0.221,0.093-0.278,0.126l-9.312,5.604c-0.06,0.036-0.166,0.063-0.236,0.081c-0.003,0-0.124,0.003-0.127,0.003
		c-0.003,0.003-0.118,0.006-0.118,0.006v0.006v-0.856h0.01c-0.03,0-0.063,0.431-0.093,0.413c-0.021,0-0.042,0.22-0.063,0.214
		c-0.081-0.012-0.159,0.063-0.231,0.021l-9.361-5.549c-0.051-0.033-0.042-0.047-0.072-0.092c-0.003-0.006-0.009,0.002-0.015-0.004
		c-0.003-0.003,0.006,0.001,0.006,0.001c-0.03-0.033-0.181-0.062-0.181-0.098v-0.003c0-0.021,0.027-0.042,0.021-0.063
		c-0.015-0.039-0.003-0.084-0.006-0.129c-0.024-0.18,0.048-0.364,0.174-0.496l9.302-9.787c0.054-0.054,0.11-0.054,0.177-0.069
		c0.009-0.003,0.018-0.173,0.027-0.173c0.027-0.015,0.054-0.185,0.084-0.185c0,0,0,0,0.003,0c0.03,0,0.06,0.128,0.093,0.116
		c0.045-0.018,0.093,0.046,0.141,0.043c0.186-0.03,0.379,0.082,0.514,0.223l9.298,9.81c0.042,0.045,0.075,0.108,0.096,0.165
		c0.06,0.105,0.081,0.228,0.066,0.351C-196.646,52.806-196.7,52.848-196.724,52.887z"/>
	<g>
		<path fill="#E58C4A" d="M-206.093,42.901c-0.003-0.225-0.129-0.379-0.325-0.472c-0.018-0.012-0.036-0.2-0.057-0.209
			c-0.045-0.018-0.09-0.158-0.138-0.158h-0.234c-0.003,0-0.003,0-0.003,0c-0.03,0-0.057,0.17-0.084,0.185
			c-0.009,0-0.018,0.088-0.027,0.091c-0.06,0.027-0.117,0.085-0.168,0.136l-9.298,9.798c-0.126,0.132-0.186,0.315-0.162,0.495
			c0.018,0.108,0.06,0.213,0.129,0.297c0,0,0.003,0.009,0.006,0.012c0.006,0.006,0.012,0.013,0.015,0.019
			c0.039,0.045,0.084,0.082,0.135,0.115l9.298,5.593c0.072,0.042,0.15,0.09,0.231,0.108c0.021,0.006,0.042,0.009,0.063,0.009
			c0.006,0.003,0.012-0.443,0.018-0.443c0.024,0,0.048-0.416,0.075-0.416h-0.01v0.856v-0.006c0,0,0.097-0.003,0.1-0.006l0.051-0.006
			c0.012-0.015,0.063-0.036,0.09-0.051c0.186-0.105,0.295-0.319,0.304-0.535l0.06-4.087L-206.093,42.901z M-207.28,57.235
			l-7.762-4.673l7.756-8.162l0.057,9.811L-207.28,57.235z"/>
		<path fill="#E58C4A" d="M-196.706,52.43c-0.021-0.057-0.054-0.108-0.096-0.153l-9.298-9.787c-0.135-0.141-0.328-0.207-0.514-0.177
			c-0.048,0.003-0.096-0.152-0.141-0.134c-0.033,0.012-0.063-0.116-0.093-0.116c-0.003,0-0.003,0-0.003,0
			c-0.174,0-0.282,0.462-0.285,0.672l-0.066,11.417l0.066,4.102c0.006,0.216,0.123,0.471,0.31,0.576
			c0.036,0.021,0.075-0.387,0.114-0.366c0.03,0.018,0.063-0.402,0.093-0.402h0.009c0.024,0,0.051,0.416,0.075,0.416
			c0.006,0,0.012,0.223,0.018,0.22c0.027,0,0.054,0.106,0.078,0.1c0.003-0.003,0.006,0.053,0.006,0.053
			c0.003,0,0.009,0.025,0.012,0.025c0.069-0.018,0.138-0.031,0.198-0.067l9.237-5.597c0.057-0.033,0.102-0.072,0.129-0.123
			c0.009-0.015,0.613-0.031,0.619-0.049c0.009-0.021,0.607-0.046,0.607-0.07v-0.003c0-0.021-0.517-0.042-0.508-0.063
			c0.003-0.006-0.295-0.012-0.289-0.015c0.015-0.039-0.101-0.075-0.095-0.111C-196.506,52.659-196.661,52.535-196.706,52.43z
			 M-205.949,57.235L-206,54.227l0.057-9.826l7.756,8.162L-205.949,57.235z"/>
	</g>
	<path fill="none" d="M-212.63,87.062h-5 M-208.512,78.138c-0.177-0.12-0.409-0.135-0.601-0.039c-1.866,0.932-3.164,2.497-4,3.828
		c-0.096-6.097-1.457-7.212-1.917-7.41c-0.261-0.114-0.568-0.027-0.733,0.207c-1.373,1.962-1.521,4.772-1.349,6.996
		c-1.758-2.524-3.621-3.585-3.726-3.642c-0.171-0.096-0.379-0.102-0.553-0.018c-0.177,0.087-0.301,0.252-0.334,0.445
		c-0.757,4.607,1.497,8.213,2.855,9.899c0.502,0.628,0.88-0.283,0.932-0.232c0.111,0.105,0.258-1.109,0.412-1.109h3.783
		c0.102,0,0.204,1.245,0.294,1.197c0.544-0.304,1.034-0.052,1.472-0.491c3.209-3.215,3.708-9.106,3.729-9.403
		C-208.23,78.148-208.332,78.258-208.512,78.138z"/>
	<path fill="#E58C4A" d="M-201.433,87.062c0.499,0,0.877,0.388,0.932,0.439c0.111,0.105,0.258-0.439,0.412-0.439h3.783
		c0.102,0,0.204,0.574,0.294,0.526c0.544-0.304,1.034-0.526,1.472-0.526H-201.433z"/>
</g>
<polygon fill="#1D2B40" points="152.502,37.815 162.272,28.003 170.008,39.486 181.457,31.701 186.879,44.44 199.596,38.962 
	202.51,52.497 216.031,49.526 216.33,63.369 230.172,63.008 227.846,76.658 241.506,78.923 236.639,91.885 249.621,96.697 
	242.389,108.503 254.229,115.683 244.893,125.91 255.158,135.199 244.055,143.474 252.377,154.54 239.91,160.562 245.986,173.001 
	232.605,176.557 236.219,189.923 222.406,190.88 223.424,204.689 209.68,203.016 208.064,216.768 194.887,212.522 190.697,225.72 
	178.561,219.058 171.951,231.224 161.293,222.386 152.502,233.082 143.711,222.386 133.053,231.224 126.443,219.058 114.307,225.72 
	110.117,212.522 96.939,216.768 95.324,203.016 81.58,204.689 82.598,190.88 68.785,189.923 72.398,176.557 59.018,173.001 
	65.094,160.562 52.627,154.54 60.949,143.474 49.846,135.199 60.111,125.91 50.775,115.683 62.615,108.503 55.383,96.697 
	68.365,91.885 63.498,78.923 77.158,76.658 74.832,63.008 88.674,63.369 88.973,49.526 102.494,52.497 105.408,38.962 
	118.125,44.44 123.547,31.701 134.996,39.486 142.734,28.003 "/>
<g>
	<path fill="#FFF7DC" d="M109.435,163.711h3.672v1.7h-7.854c0.702-0.714,1.383-1.402,2.04-2.065s1.241-1.306,1.751-1.93
		c0.51-0.623,0.921-1.229,1.232-1.819c0.312-0.589,0.468-1.155,0.468-1.699c0-0.363-0.065-0.681-0.196-0.952
		c-0.13-0.272-0.292-0.496-0.484-0.672s-0.402-0.309-0.629-0.399s-0.437-0.136-0.629-0.136c-0.396,0-0.723,0.07-0.978,0.212
		c-0.255,0.143-0.459,0.31-0.612,0.502c-0.152,0.192-0.258,0.396-0.314,0.612c-0.057,0.215-0.085,0.396-0.085,0.544
		c0,0.374,0.06,0.705,0.179,0.994s0.286,0.541,0.502,0.757l-1.037,1.07c-0.228-0.112-0.425-0.285-0.596-0.518
		c-0.17-0.232-0.314-0.485-0.433-0.757c-0.119-0.272-0.21-0.544-0.272-0.816c-0.062-0.271-0.094-0.516-0.094-0.73
		c0-0.453,0.082-0.896,0.247-1.326c0.164-0.431,0.405-0.811,0.723-1.139c0.316-0.329,0.708-0.593,1.173-0.791
		c0.464-0.198,0.997-0.298,1.598-0.298c0.556,0,1.062,0.1,1.521,0.298s0.85,0.465,1.173,0.799c0.323,0.335,0.572,0.723,0.748,1.165
		c0.176,0.441,0.264,0.9,0.264,1.377c0,0.544-0.082,1.07-0.246,1.581c-0.165,0.51-0.386,1.011-0.663,1.504
		c-0.278,0.493-0.604,0.983-0.978,1.471S109.854,163.224,109.435,163.711z"/>
	<path fill="#FFF7DC" d="M116.898,163.915l-1.495,3.57h-1.564c0.227-0.601,0.447-1.193,0.663-1.776
		c0.215-0.584,0.437-1.182,0.663-1.794H116.898z"/>
	<path fill="#FFF7DC" d="M119.329,160.328v-6.137h4.964v1.683h-3.45v2.159c0.056-0.022,0.11-0.04,0.161-0.051
		c0.051-0.012,0.127-0.018,0.229-0.018c0.578,0,1.104,0.1,1.581,0.298c0.476,0.198,0.878,0.468,1.207,0.808
		c0.328,0.34,0.583,0.733,0.765,1.182c0.182,0.447,0.272,0.921,0.272,1.419c0,0.544-0.103,1.055-0.307,1.53
		s-0.481,0.887-0.833,1.232c-0.351,0.346-0.759,0.618-1.224,0.816s-0.958,0.297-1.479,0.297c-0.511,0-0.989-0.093-1.437-0.28
		c-0.448-0.187-0.848-0.45-1.199-0.79c0.216-0.204,0.431-0.402,0.646-0.596c0.215-0.192,0.425-0.385,0.629-0.578
		c0.181,0.159,0.388,0.289,0.62,0.392c0.232,0.102,0.49,0.152,0.773,0.152s0.55-0.056,0.8-0.17c0.249-0.112,0.467-0.263,0.654-0.45
		c0.187-0.187,0.337-0.408,0.45-0.663s0.17-0.529,0.17-0.824c0-0.283-0.057-0.553-0.17-0.808s-0.264-0.479-0.45-0.672
		c-0.188-0.192-0.408-0.343-0.663-0.45s-0.524-0.161-0.808-0.161c-0.295,0-0.612,0.036-0.952,0.11
		C119.941,159.832,119.624,160.023,119.329,160.328z"/>
	<path fill="#FFF7DC" d="M131.297,155.025h1.615v3.162h1.887v1.462h-1.887v5.763h-1.615v-5.763h-1.224v-1.462h1.224V155.025z"/>
	<path fill="#FFF7DC" d="M135.411,161.79c0-0.521,0.1-1.012,0.298-1.471s0.473-0.858,0.824-1.198s0.762-0.609,1.232-0.808
		s0.972-0.297,1.505-0.297c0.544,0,1.048,0.099,1.513,0.297s0.864,0.468,1.198,0.808s0.598,0.739,0.791,1.198
		c0.192,0.459,0.289,0.949,0.289,1.471s-0.094,1.015-0.281,1.479c-0.187,0.465-0.45,0.869-0.79,1.215s-0.742,0.618-1.207,0.816
		s-0.975,0.297-1.53,0.297c-0.532,0-1.031-0.091-1.496-0.271c-0.465-0.182-0.869-0.439-1.215-0.773s-0.621-0.736-0.825-1.207
		C135.513,162.875,135.411,162.358,135.411,161.79z M137.026,161.808c0,0.306,0.057,0.592,0.17,0.858
		c0.113,0.266,0.269,0.498,0.468,0.696c0.198,0.199,0.431,0.354,0.696,0.468c0.267,0.113,0.553,0.17,0.858,0.17
		c0.307,0,0.593-0.057,0.859-0.17c0.266-0.113,0.498-0.269,0.696-0.468c0.198-0.198,0.357-0.431,0.477-0.696
		c0.119-0.267,0.178-0.553,0.178-0.858c0-0.307-0.059-0.593-0.178-0.859c-0.119-0.266-0.278-0.498-0.477-0.696
		s-0.431-0.357-0.696-0.477c-0.267-0.119-0.553-0.179-0.859-0.179c-0.306,0-0.592,0.06-0.858,0.179
		c-0.266,0.119-0.498,0.278-0.696,0.477c-0.199,0.198-0.354,0.431-0.468,0.696C137.083,161.215,137.026,161.501,137.026,161.808z"/>
	<path fill="#FFF7DC" d="M144.608,158.187h1.428c0.022,0.407,0.049,0.739,0.077,0.994s0.054,0.541,0.076,0.858
		c0.261-0.612,0.629-1.104,1.105-1.479c0.476-0.374,1.07-0.562,1.784-0.562c0.737,0,1.323,0.201,1.76,0.604s0.666,0.927,0.688,1.572
		v5.236h-1.615v-4.471c-0.022-0.352-0.147-0.655-0.374-0.91s-0.577-0.394-1.054-0.416c-0.329,0-0.632,0.06-0.909,0.179
		c-0.278,0.119-0.516,0.28-0.714,0.484c-0.199,0.204-0.352,0.447-0.459,0.73c-0.108,0.284-0.162,0.59-0.162,0.918v3.485h-1.632
		V158.187z"/>
	<path fill="#FFF7DC" d="M153.482,158.187h1.428c0.022,0.407,0.049,0.739,0.077,0.994s0.054,0.541,0.076,0.858
		c0.261-0.612,0.629-1.104,1.105-1.479c0.476-0.374,1.07-0.562,1.784-0.562c0.737,0,1.323,0.201,1.76,0.604s0.666,0.927,0.688,1.572
		v5.236h-1.615v-4.471c-0.022-0.352-0.147-0.655-0.374-0.91s-0.577-0.394-1.054-0.416c-0.329,0-0.632,0.06-0.909,0.179
		c-0.278,0.119-0.516,0.28-0.714,0.484c-0.199,0.204-0.352,0.447-0.459,0.73c-0.108,0.284-0.162,0.59-0.162,0.918v3.485h-1.632
		V158.187z"/>
	<path fill="#FFF7DC" d="M168.561,164.578c-0.352,0.317-0.776,0.566-1.275,0.748c-0.498,0.181-1.009,0.271-1.529,0.271
		c-0.533,0-1.034-0.099-1.505-0.297s-0.878-0.471-1.224-0.816s-0.621-0.748-0.825-1.207c-0.203-0.459-0.306-0.949-0.306-1.47
		c0-0.521,0.103-1.012,0.306-1.471c0.204-0.459,0.479-0.861,0.825-1.207s0.748-0.618,1.207-0.816s0.943-0.297,1.453-0.297
		c0.816,0,1.532,0.246,2.15,0.739s1.057,1.142,1.317,1.946c-0.34,0.125-0.733,0.275-1.182,0.45c-0.447,0.176-0.915,0.36-1.402,0.553
		c-0.487,0.193-0.975,0.389-1.462,0.587s-0.935,0.377-1.343,0.535c0.192,0.352,0.459,0.635,0.799,0.85
		c0.34,0.216,0.726,0.323,1.156,0.323c0.295,0,0.592-0.054,0.893-0.161c0.3-0.107,0.547-0.252,0.739-0.434L168.561,164.578z
		 M167.134,160.328c-0.137-0.249-0.34-0.434-0.612-0.553c-0.271-0.119-0.538-0.179-0.799-0.179c-0.306,0-0.595,0.06-0.867,0.179
		c-0.271,0.119-0.504,0.278-0.697,0.477c-0.192,0.198-0.346,0.425-0.459,0.68s-0.17,0.519-0.17,0.79v0.068
		c0.283-0.113,0.587-0.235,0.91-0.365c0.322-0.13,0.646-0.264,0.969-0.399c0.323-0.137,0.632-0.264,0.927-0.383
		C166.629,160.524,166.895,160.419,167.134,160.328z"/>
	<path fill="#FFF7DC" d="M174.528,158.832c-0.068,0.103-0.15,0.219-0.247,0.349c-0.096,0.131-0.189,0.252-0.28,0.365
		s-0.198,0.255-0.323,0.425c-0.113-0.079-0.224-0.142-0.331-0.187s-0.232-0.088-0.374-0.128c-0.142-0.039-0.286-0.06-0.434-0.06
		c-0.159,0-0.326,0.037-0.501,0.111c-0.177,0.073-0.264,0.224-0.264,0.45c0,0.192,0.076,0.354,0.229,0.484
		c0.152,0.131,0.34,0.249,0.561,0.357c0.221,0.107,0.465,0.218,0.731,0.331c0.266,0.113,0.51,0.255,0.73,0.425
		c0.222,0.17,0.408,0.383,0.562,0.638c0.152,0.255,0.229,0.569,0.229,0.943c0,0.329-0.06,0.629-0.179,0.901
		c-0.119,0.271-0.289,0.504-0.51,0.697c-0.222,0.192-0.484,0.346-0.791,0.459c-0.306,0.112-0.651,0.17-1.037,0.17
		c-0.465,0-0.915-0.08-1.352-0.238c-0.436-0.158-0.779-0.385-1.028-0.68c0.079-0.091,0.176-0.204,0.289-0.341
		c0.113-0.136,0.221-0.266,0.323-0.391c0.102-0.124,0.227-0.271,0.374-0.442c0-0.011,0.036,0.009,0.11,0.06
		c0.073,0.052,0.173,0.111,0.298,0.179c0.124,0.068,0.271,0.131,0.441,0.188s0.346,0.085,0.527,0.085
		c0.283,0,0.501-0.062,0.654-0.188c0.153-0.124,0.229-0.277,0.229-0.459c0-0.181-0.076-0.328-0.229-0.441s-0.34-0.219-0.561-0.314
		c-0.222-0.097-0.465-0.201-0.731-0.314s-0.51-0.256-0.73-0.426c-0.222-0.17-0.408-0.388-0.562-0.654
		c-0.153-0.266-0.229-0.604-0.229-1.012c0-0.407,0.073-0.748,0.221-1.02c0.147-0.272,0.338-0.493,0.57-0.663
		c0.231-0.17,0.484-0.292,0.756-0.365c0.272-0.074,0.538-0.11,0.799-0.11c0.352,0,0.717,0.07,1.097,0.212
		S174.267,158.571,174.528,158.832z"/>
	<path fill="#FFF7DC" d="M179.798,161.808c0-0.567,0.094-1.083,0.281-1.548c0.186-0.464,0.447-0.863,0.781-1.198
		c0.334-0.334,0.725-0.595,1.174-0.782c0.447-0.187,0.938-0.28,1.469-0.28c0.363,0,0.682,0.04,0.953,0.119s0.504,0.176,0.697,0.289
		c0.191,0.113,0.348,0.235,0.467,0.365c0.119,0.131,0.213,0.241,0.281,0.332v-6.971h1.631v13.277h-1.631v-0.476
		c0-0.057,0.006-0.119,0.016-0.188c0.012-0.068,0.018-0.119,0.018-0.153c-0.102,0.103-0.227,0.213-0.373,0.332
		c-0.148,0.119-0.324,0.229-0.527,0.331c-0.205,0.103-0.434,0.185-0.689,0.247c-0.254,0.062-0.547,0.093-0.875,0.093
		c-0.578,0-1.096-0.099-1.555-0.297s-0.846-0.471-1.156-0.816c-0.312-0.346-0.551-0.748-0.715-1.207
		S179.798,162.328,179.798,161.808z M181.431,161.774c0,0.317,0.053,0.611,0.16,0.884c0.107,0.271,0.262,0.507,0.459,0.705
		c0.199,0.199,0.434,0.354,0.705,0.468c0.273,0.113,0.572,0.17,0.902,0.17c0.328,0,0.631-0.057,0.908-0.17
		c0.279-0.113,0.516-0.271,0.715-0.476c0.197-0.204,0.352-0.442,0.459-0.715c0.107-0.271,0.162-0.561,0.162-0.866
		c0-0.307-0.055-0.593-0.162-0.858c-0.107-0.267-0.262-0.496-0.459-0.688c-0.199-0.193-0.436-0.346-0.715-0.459
		c-0.277-0.113-0.58-0.171-0.908-0.171c-0.33,0-0.629,0.055-0.902,0.162c-0.271,0.107-0.506,0.261-0.705,0.459
		c-0.197,0.198-0.352,0.431-0.459,0.697C181.484,161.181,181.431,161.467,181.431,161.774z"/>
	<path fill="#FFF7DC" d="M195.743,164.578c-0.352,0.317-0.775,0.566-1.275,0.748c-0.498,0.181-1.008,0.271-1.529,0.271
		c-0.533,0-1.033-0.099-1.504-0.297s-0.879-0.471-1.225-0.816s-0.621-0.748-0.824-1.207s-0.307-0.949-0.307-1.47
		c0-0.521,0.104-1.012,0.307-1.471s0.479-0.861,0.824-1.207s0.748-0.618,1.207-0.816s0.943-0.297,1.453-0.297
		c0.816,0,1.533,0.246,2.15,0.739c0.619,0.493,1.057,1.142,1.318,1.946c-0.34,0.125-0.734,0.275-1.182,0.45
		c-0.447,0.176-0.916,0.36-1.402,0.553c-0.488,0.193-0.975,0.389-1.463,0.587c-0.486,0.198-0.934,0.377-1.342,0.535
		c0.191,0.352,0.459,0.635,0.799,0.85c0.34,0.216,0.725,0.323,1.156,0.323c0.295,0,0.592-0.054,0.893-0.161
		c0.299-0.107,0.547-0.252,0.738-0.434L195.743,164.578z M194.316,160.328c-0.137-0.249-0.34-0.434-0.611-0.553
		s-0.539-0.179-0.799-0.179c-0.307,0-0.596,0.06-0.867,0.179s-0.504,0.278-0.697,0.477s-0.346,0.425-0.459,0.68
		s-0.17,0.519-0.17,0.79v0.068c0.283-0.113,0.586-0.235,0.91-0.365c0.322-0.13,0.645-0.264,0.969-0.399
		c0.322-0.137,0.631-0.264,0.926-0.383S194.077,160.419,194.316,160.328z"/>
	<path fill="#FFF7DC" d="M95.122,179.233c-0.068,0.103-0.15,0.219-0.247,0.349c-0.096,0.131-0.189,0.252-0.28,0.365
		s-0.198,0.255-0.323,0.425c-0.113-0.079-0.224-0.142-0.331-0.187s-0.232-0.088-0.374-0.128c-0.142-0.039-0.286-0.06-0.434-0.06
		c-0.159,0-0.326,0.037-0.501,0.111c-0.177,0.073-0.264,0.224-0.264,0.45c0,0.192,0.076,0.354,0.229,0.484
		c0.152,0.131,0.34,0.249,0.561,0.357c0.221,0.107,0.465,0.218,0.731,0.331c0.266,0.113,0.51,0.255,0.73,0.425
		c0.222,0.17,0.408,0.383,0.562,0.638c0.152,0.255,0.229,0.569,0.229,0.943c0,0.329-0.06,0.629-0.179,0.901
		c-0.119,0.271-0.289,0.504-0.51,0.697c-0.222,0.192-0.484,0.346-0.791,0.459c-0.306,0.112-0.651,0.17-1.037,0.17
		c-0.465,0-0.915-0.08-1.352-0.238c-0.436-0.158-0.779-0.385-1.028-0.68c0.079-0.091,0.176-0.204,0.289-0.341
		c0.113-0.136,0.221-0.266,0.323-0.391c0.102-0.124,0.227-0.271,0.374-0.442c0-0.011,0.036,0.009,0.11,0.06
		c0.073,0.052,0.173,0.111,0.298,0.179c0.124,0.068,0.271,0.131,0.441,0.188s0.346,0.085,0.527,0.085
		c0.283,0,0.501-0.062,0.654-0.188c0.153-0.124,0.229-0.277,0.229-0.459c0-0.181-0.076-0.328-0.229-0.441s-0.34-0.219-0.561-0.314
		c-0.222-0.097-0.465-0.201-0.731-0.314s-0.51-0.256-0.73-0.426c-0.222-0.17-0.408-0.388-0.562-0.654
		c-0.153-0.266-0.229-0.604-0.229-1.012c0-0.407,0.073-0.748,0.221-1.02c0.147-0.272,0.338-0.493,0.57-0.663
		c0.231-0.17,0.484-0.292,0.756-0.365c0.272-0.074,0.538-0.11,0.799-0.11c0.352,0,0.717,0.07,1.097,0.212
		S94.861,178.972,95.122,179.233z"/>
	<path fill="#FFF7DC" d="M96.499,182.276c0-0.521,0.103-1.017,0.306-1.487c0.204-0.471,0.479-0.881,0.825-1.232
		s0.748-0.632,1.207-0.842c0.459-0.209,0.943-0.314,1.453-0.314c0.34,0,0.646,0.043,0.918,0.128
		c0.272,0.085,0.507,0.184,0.706,0.297c0.197,0.113,0.354,0.229,0.467,0.349s0.188,0.213,0.222,0.28l0.067-0.866h1.581v7.225h-1.648
		v-0.476c0-0.057,0.002-0.111,0.008-0.162s0.009-0.088,0.009-0.11c-0.046,0.057-0.125,0.139-0.238,0.246
		c-0.113,0.108-0.267,0.213-0.459,0.315c-0.192,0.102-0.422,0.189-0.688,0.263c-0.267,0.074-0.575,0.11-0.927,0.11
		c-0.555,0-1.065-0.102-1.529-0.306c-0.465-0.204-0.867-0.476-1.207-0.815c-0.34-0.341-0.604-0.734-0.791-1.182
		C96.593,183.247,96.499,182.775,96.499,182.276z M98.148,182.174c0,0.317,0.054,0.611,0.161,0.884
		c0.107,0.271,0.261,0.507,0.459,0.705c0.198,0.199,0.434,0.354,0.705,0.468c0.272,0.113,0.572,0.17,0.901,0.17
		s0.629-0.057,0.901-0.17c0.271-0.113,0.507-0.271,0.705-0.476s0.352-0.442,0.459-0.715c0.107-0.271,0.162-0.561,0.162-0.866
		c0-0.307-0.055-0.593-0.162-0.858c-0.107-0.267-0.261-0.496-0.459-0.688c-0.198-0.193-0.434-0.346-0.705-0.459
		c-0.272-0.113-0.572-0.171-0.901-0.171s-0.629,0.055-0.901,0.162c-0.271,0.107-0.507,0.261-0.705,0.459s-0.352,0.431-0.459,0.697
		C98.202,181.581,98.148,181.867,98.148,182.174z"/>
	<path fill="#FFF7DC" d="M113.125,185.982h-1.36l-0.204-2.006c-0.261,0.578-0.62,1.057-1.079,1.437s-1.062,0.569-1.811,0.569
		s-1.341-0.195-1.776-0.586c-0.437-0.392-0.666-0.91-0.688-1.556v-5.253h1.632v4.487c0.022,0.352,0.145,0.649,0.365,0.893
		c0.222,0.244,0.575,0.377,1.062,0.399c0.329,0,0.629-0.057,0.901-0.17c0.271-0.113,0.507-0.271,0.705-0.476
		s0.354-0.448,0.468-0.731s0.17-0.589,0.17-0.918v-3.484h1.615V185.982z"/>
	<path fill="#FFF7DC" d="M119.959,183.925c0.17,0.215,0.334,0.422,0.493,0.62c0.158,0.198,0.323,0.399,0.493,0.604
		c-0.329,0.261-0.697,0.468-1.105,0.62c-0.408,0.153-0.845,0.229-1.309,0.229c-0.533,0-1.034-0.099-1.505-0.297
		s-0.878-0.471-1.224-0.816s-0.621-0.75-0.825-1.215c-0.203-0.465-0.306-0.958-0.306-1.479s0.103-1.012,0.306-1.471
		c0.204-0.459,0.479-0.861,0.825-1.207s0.753-0.617,1.224-0.815s0.972-0.298,1.505-0.298c0.476,0,0.92,0.076,1.334,0.229
		s0.791,0.36,1.131,0.621l-1.037,1.206c-0.396-0.306-0.873-0.459-1.428-0.459c-0.329,0-0.629,0.058-0.901,0.171
		c-0.271,0.113-0.507,0.266-0.705,0.459c-0.199,0.192-0.352,0.422-0.459,0.688c-0.108,0.266-0.162,0.558-0.162,0.875
		c0,0.306,0.054,0.593,0.162,0.858c0.107,0.267,0.26,0.502,0.459,0.706c0.198,0.204,0.434,0.362,0.705,0.476
		c0.272,0.113,0.572,0.17,0.901,0.17C119.097,184.401,119.573,184.242,119.959,183.925z"/>
	<path fill="#FFF7DC" d="M122.169,175.781c0-0.294,0.107-0.538,0.322-0.73c0.216-0.192,0.448-0.289,0.697-0.289
		s0.479,0.097,0.688,0.289s0.314,0.437,0.314,0.73c0,0.307-0.104,0.553-0.314,0.74c-0.21,0.187-0.439,0.28-0.688,0.28
		s-0.481-0.094-0.697-0.28C122.276,176.334,122.169,176.088,122.169,175.781z M123.987,185.812h-1.632v-7.225h1.632V185.812z"/>
	<path fill="#FFF7DC" d="M130.107,179.233c-0.068,0.103-0.15,0.219-0.247,0.349c-0.096,0.131-0.189,0.252-0.28,0.365
		s-0.198,0.255-0.323,0.425c-0.113-0.079-0.224-0.142-0.331-0.187s-0.232-0.088-0.374-0.128c-0.142-0.039-0.286-0.06-0.434-0.06
		c-0.159,0-0.326,0.037-0.501,0.111c-0.177,0.073-0.264,0.224-0.264,0.45c0,0.192,0.076,0.354,0.229,0.484
		c0.152,0.131,0.34,0.249,0.561,0.357c0.221,0.107,0.465,0.218,0.731,0.331c0.266,0.113,0.51,0.255,0.73,0.425
		c0.222,0.17,0.408,0.383,0.562,0.638c0.152,0.255,0.229,0.569,0.229,0.943c0,0.329-0.06,0.629-0.179,0.901
		c-0.119,0.271-0.289,0.504-0.51,0.697c-0.222,0.192-0.484,0.346-0.791,0.459c-0.306,0.112-0.651,0.17-1.037,0.17
		c-0.465,0-0.915-0.08-1.352-0.238c-0.436-0.158-0.779-0.385-1.028-0.68c0.079-0.091,0.176-0.204,0.289-0.341
		c0.113-0.136,0.221-0.266,0.323-0.391c0.102-0.124,0.227-0.271,0.374-0.442c0-0.011,0.036,0.009,0.11,0.06
		c0.073,0.052,0.173,0.111,0.298,0.179c0.124,0.068,0.271,0.131,0.441,0.188s0.346,0.085,0.527,0.085
		c0.283,0,0.501-0.062,0.654-0.188c0.153-0.124,0.229-0.277,0.229-0.459c0-0.181-0.076-0.328-0.229-0.441s-0.34-0.219-0.561-0.314
		c-0.222-0.097-0.465-0.201-0.731-0.314s-0.51-0.256-0.73-0.426c-0.222-0.17-0.408-0.388-0.562-0.654
		c-0.153-0.266-0.229-0.604-0.229-1.012c0-0.407,0.073-0.748,0.221-1.02c0.147-0.272,0.338-0.493,0.57-0.663
		c0.231-0.17,0.484-0.292,0.756-0.365c0.272-0.074,0.538-0.11,0.799-0.11c0.352,0,0.717,0.07,1.097,0.212
		S129.846,178.972,130.107,179.233z"/>
	<path fill="#FFF7DC" d="M136.057,179.233c-0.068,0.103-0.15,0.219-0.247,0.349c-0.096,0.131-0.189,0.252-0.28,0.365
		s-0.198,0.255-0.323,0.425c-0.113-0.079-0.224-0.142-0.331-0.187s-0.232-0.088-0.374-0.128c-0.142-0.039-0.286-0.06-0.434-0.06
		c-0.159,0-0.326,0.037-0.501,0.111c-0.177,0.073-0.264,0.224-0.264,0.45c0,0.192,0.076,0.354,0.229,0.484
		c0.152,0.131,0.34,0.249,0.561,0.357c0.221,0.107,0.465,0.218,0.731,0.331c0.266,0.113,0.51,0.255,0.73,0.425
		c0.222,0.17,0.408,0.383,0.562,0.638c0.152,0.255,0.229,0.569,0.229,0.943c0,0.329-0.06,0.629-0.179,0.901
		c-0.119,0.271-0.289,0.504-0.51,0.697c-0.222,0.192-0.484,0.346-0.791,0.459c-0.306,0.112-0.651,0.17-1.037,0.17
		c-0.465,0-0.915-0.08-1.352-0.238c-0.436-0.158-0.779-0.385-1.028-0.68c0.079-0.091,0.176-0.204,0.289-0.341
		c0.113-0.136,0.221-0.266,0.323-0.391c0.102-0.124,0.227-0.271,0.374-0.442c0-0.011,0.036,0.009,0.11,0.06
		c0.073,0.052,0.173,0.111,0.298,0.179c0.124,0.068,0.271,0.131,0.441,0.188s0.346,0.085,0.527,0.085
		c0.283,0,0.501-0.062,0.654-0.188c0.153-0.124,0.229-0.277,0.229-0.459c0-0.181-0.076-0.328-0.229-0.441s-0.34-0.219-0.561-0.314
		c-0.222-0.097-0.465-0.201-0.731-0.314s-0.51-0.256-0.73-0.426c-0.222-0.17-0.408-0.388-0.562-0.654
		c-0.153-0.266-0.229-0.604-0.229-1.012c0-0.407,0.073-0.748,0.221-1.02c0.147-0.272,0.338-0.493,0.57-0.663
		c0.231-0.17,0.484-0.292,0.756-0.365c0.272-0.074,0.538-0.11,0.799-0.11c0.352,0,0.717,0.07,1.097,0.212
		S135.797,178.972,136.057,179.233z"/>
	<path fill="#FFF7DC" d="M144.098,184.979c-0.352,0.317-0.776,0.566-1.275,0.748c-0.498,0.181-1.009,0.271-1.529,0.271
		c-0.533,0-1.034-0.099-1.505-0.297s-0.878-0.471-1.224-0.816s-0.621-0.748-0.825-1.207c-0.203-0.459-0.306-0.949-0.306-1.47
		c0-0.521,0.103-1.012,0.306-1.471c0.204-0.459,0.479-0.861,0.825-1.207s0.748-0.618,1.207-0.816s0.943-0.297,1.453-0.297
		c0.816,0,1.532,0.246,2.15,0.739s1.057,1.142,1.317,1.946c-0.34,0.125-0.733,0.275-1.182,0.45c-0.447,0.176-0.915,0.36-1.402,0.553
		c-0.487,0.193-0.975,0.389-1.462,0.587s-0.935,0.377-1.343,0.535c0.192,0.352,0.459,0.635,0.799,0.85
		c0.34,0.216,0.726,0.323,1.156,0.323c0.295,0,0.592-0.054,0.893-0.161c0.3-0.107,0.547-0.252,0.739-0.434L144.098,184.979z
		 M142.671,180.729c-0.137-0.249-0.34-0.434-0.612-0.553c-0.271-0.119-0.538-0.179-0.799-0.179c-0.306,0-0.595,0.06-0.867,0.179
		c-0.271,0.119-0.504,0.278-0.697,0.477c-0.192,0.198-0.346,0.425-0.459,0.68s-0.17,0.519-0.17,0.79v0.068
		c0.283-0.113,0.587-0.235,0.91-0.365c0.322-0.13,0.646-0.264,0.969-0.399c0.323-0.137,0.632-0.264,0.927-0.383
		C142.166,180.924,142.432,180.82,142.671,180.729z"/>
	<path fill="#FFF7DC" d="M150.065,179.233c-0.068,0.103-0.15,0.219-0.247,0.349c-0.096,0.131-0.189,0.252-0.28,0.365
		s-0.198,0.255-0.323,0.425c-0.113-0.079-0.224-0.142-0.331-0.187s-0.232-0.088-0.374-0.128c-0.142-0.039-0.286-0.06-0.434-0.06
		c-0.159,0-0.326,0.037-0.501,0.111c-0.177,0.073-0.264,0.224-0.264,0.45c0,0.192,0.076,0.354,0.229,0.484
		c0.152,0.131,0.34,0.249,0.561,0.357c0.221,0.107,0.465,0.218,0.731,0.331c0.266,0.113,0.51,0.255,0.73,0.425
		c0.222,0.17,0.408,0.383,0.562,0.638c0.152,0.255,0.229,0.569,0.229,0.943c0,0.329-0.06,0.629-0.179,0.901
		c-0.119,0.271-0.289,0.504-0.51,0.697c-0.222,0.192-0.484,0.346-0.791,0.459c-0.306,0.112-0.651,0.17-1.037,0.17
		c-0.465,0-0.915-0.08-1.352-0.238c-0.436-0.158-0.779-0.385-1.028-0.68c0.079-0.091,0.176-0.204,0.289-0.341
		c0.113-0.136,0.221-0.266,0.323-0.391c0.102-0.124,0.227-0.271,0.374-0.442c0-0.011,0.036,0.009,0.11,0.06
		c0.073,0.052,0.173,0.111,0.298,0.179c0.124,0.068,0.271,0.131,0.441,0.188s0.346,0.085,0.527,0.085
		c0.283,0,0.501-0.062,0.654-0.188c0.153-0.124,0.229-0.277,0.229-0.459c0-0.181-0.076-0.328-0.229-0.441s-0.34-0.219-0.561-0.314
		c-0.222-0.097-0.465-0.201-0.731-0.314s-0.51-0.256-0.73-0.426c-0.222-0.17-0.408-0.388-0.562-0.654
		c-0.153-0.266-0.229-0.604-0.229-1.012c0-0.407,0.073-0.748,0.221-1.02c0.147-0.272,0.338-0.493,0.57-0.663
		c0.231-0.17,0.484-0.292,0.756-0.365c0.272-0.074,0.538-0.11,0.799-0.11c0.352,0,0.717,0.07,1.097,0.212
		S149.804,178.972,150.065,179.233z"/>
	<path fill="#FFF7DC" d="M158.259,186.237c-0.68-1.28-1.325-2.553-1.938-3.816s-1.241-2.541-1.887-3.833h1.768
		c0.431,0.839,0.768,1.513,1.012,2.022c0.243,0.51,0.434,0.924,0.569,1.241s0.235,0.569,0.298,0.757
		c0.062,0.187,0.121,0.382,0.178,0.586c0.068-0.204,0.134-0.399,0.196-0.586c0.062-0.188,0.161-0.439,0.297-0.757
		c0.137-0.317,0.326-0.731,0.569-1.241c0.244-0.51,0.581-1.184,1.012-2.022h1.751c-0.646,1.292-1.28,2.569-1.903,3.833
		C159.556,183.684,158.916,184.956,158.259,186.237z"/>
	<path fill="#FFF7DC" d="M169.071,184.979c-0.352,0.317-0.776,0.566-1.275,0.748c-0.498,0.181-1.009,0.271-1.529,0.271
		c-0.533,0-1.034-0.099-1.505-0.297s-0.878-0.471-1.224-0.816s-0.621-0.748-0.825-1.207c-0.203-0.459-0.306-0.949-0.306-1.47
		c0-0.521,0.103-1.012,0.306-1.471c0.204-0.459,0.479-0.861,0.825-1.207s0.748-0.618,1.207-0.816s0.943-0.297,1.453-0.297
		c0.816,0,1.532,0.246,2.15,0.739s1.057,1.142,1.317,1.946c-0.34,0.125-0.733,0.275-1.182,0.45c-0.447,0.176-0.915,0.36-1.402,0.553
		c-0.487,0.193-0.975,0.389-1.462,0.587s-0.935,0.377-1.343,0.535c0.192,0.352,0.459,0.635,0.799,0.85
		c0.34,0.216,0.726,0.323,1.156,0.323c0.295,0,0.592-0.054,0.893-0.161c0.3-0.107,0.547-0.252,0.739-0.434L169.071,184.979z
		 M167.643,180.729c-0.137-0.249-0.34-0.434-0.612-0.553c-0.271-0.119-0.538-0.179-0.799-0.179c-0.306,0-0.595,0.06-0.867,0.179
		c-0.271,0.119-0.504,0.278-0.697,0.477c-0.192,0.198-0.346,0.425-0.459,0.68s-0.17,0.519-0.17,0.79v0.068
		c0.283-0.113,0.587-0.235,0.91-0.365c0.322-0.13,0.646-0.264,0.969-0.399c0.323-0.137,0.632-0.264,0.927-0.383
		C167.138,180.924,167.405,180.82,167.643,180.729z"/>
	<path fill="#FFF7DC" d="M170.924,178.587h1.428c0.022,0.407,0.049,0.739,0.077,0.994s0.054,0.541,0.076,0.858
		c0.261-0.612,0.629-1.104,1.105-1.479c0.476-0.374,1.07-0.562,1.784-0.562c0.737,0,1.323,0.201,1.76,0.604s0.666,0.927,0.688,1.572
		v5.236h-1.615v-4.471c-0.022-0.352-0.147-0.655-0.374-0.91s-0.577-0.394-1.054-0.416c-0.329,0-0.632,0.06-0.909,0.179
		c-0.278,0.119-0.516,0.28-0.714,0.484c-0.199,0.204-0.352,0.447-0.459,0.73c-0.108,0.284-0.162,0.59-0.162,0.918v3.485h-1.632
		V178.587z"/>
	<path fill="#FFF7DC" d="M179.355,182.208c0-0.567,0.093-1.083,0.281-1.548c0.188-0.464,0.447-0.863,0.781-1.198
		c0.336-0.334,0.727-0.595,1.174-0.782c0.447-0.187,0.938-0.28,1.471-0.28c0.363,0,0.68,0.04,0.951,0.119
		c0.273,0.079,0.506,0.176,0.697,0.289c0.193,0.113,0.35,0.235,0.469,0.365c0.119,0.131,0.211,0.241,0.279,0.332v-6.971h1.633
		v13.277h-1.633v-0.476c0-0.057,0.006-0.119,0.018-0.188s0.018-0.119,0.018-0.153c-0.104,0.103-0.229,0.213-0.375,0.332
		s-0.322,0.229-0.527,0.331c-0.203,0.103-0.434,0.185-0.688,0.247c-0.256,0.062-0.547,0.093-0.875,0.093
		c-0.578,0-1.098-0.099-1.557-0.297s-0.844-0.471-1.156-0.816c-0.311-0.346-0.549-0.748-0.713-1.207
		S179.355,182.729,179.355,182.208z M180.988,182.174c0,0.317,0.055,0.611,0.162,0.884c0.107,0.271,0.26,0.507,0.459,0.705
		c0.197,0.199,0.434,0.354,0.705,0.468s0.572,0.17,0.9,0.17c0.33,0,0.633-0.057,0.91-0.17s0.516-0.271,0.715-0.476
		c0.197-0.204,0.35-0.442,0.459-0.715c0.107-0.271,0.16-0.561,0.16-0.866c0-0.307-0.053-0.593-0.16-0.858
		c-0.109-0.267-0.262-0.496-0.459-0.688c-0.199-0.193-0.438-0.346-0.715-0.459s-0.58-0.171-0.91-0.171
		c-0.328,0-0.629,0.055-0.9,0.162s-0.508,0.261-0.705,0.459c-0.199,0.198-0.352,0.431-0.459,0.697
		C181.042,181.581,180.988,181.867,180.988,182.174z"/>
	<path fill="#FFF7DC" d="M195.964,185.982h-1.359l-0.205-2.006c-0.26,0.578-0.619,1.057-1.078,1.437s-1.062,0.569-1.811,0.569
		s-1.342-0.195-1.777-0.586c-0.436-0.392-0.666-0.91-0.688-1.556v-5.253h1.631v4.487c0.023,0.352,0.145,0.649,0.365,0.893
		c0.223,0.244,0.576,0.377,1.062,0.399c0.33,0,0.629-0.057,0.902-0.17c0.271-0.113,0.506-0.271,0.705-0.476
		c0.197-0.204,0.354-0.448,0.467-0.731s0.17-0.589,0.17-0.918v-3.484h1.615V185.982z"/>
	<path fill="#FFF7DC" d="M204.175,184.979c-0.352,0.317-0.775,0.566-1.275,0.748c-0.498,0.181-1.008,0.271-1.529,0.271
		c-0.533,0-1.033-0.099-1.504-0.297s-0.879-0.471-1.225-0.816s-0.621-0.748-0.824-1.207s-0.307-0.949-0.307-1.47
		c0-0.521,0.104-1.012,0.307-1.471s0.479-0.861,0.824-1.207s0.748-0.618,1.207-0.816s0.943-0.297,1.453-0.297
		c0.816,0,1.533,0.246,2.15,0.739c0.619,0.493,1.057,1.142,1.318,1.946c-0.34,0.125-0.734,0.275-1.182,0.45
		c-0.447,0.176-0.916,0.36-1.402,0.553c-0.488,0.193-0.975,0.389-1.463,0.587c-0.486,0.198-0.934,0.377-1.342,0.535
		c0.191,0.352,0.459,0.635,0.799,0.85c0.34,0.216,0.725,0.323,1.156,0.323c0.295,0,0.592-0.054,0.893-0.161
		c0.299-0.107,0.547-0.252,0.738-0.434L204.175,184.979z M202.747,180.729c-0.137-0.249-0.34-0.434-0.611-0.553
		s-0.539-0.179-0.799-0.179c-0.307,0-0.596,0.06-0.867,0.179s-0.504,0.278-0.697,0.477s-0.346,0.425-0.459,0.68
		s-0.17,0.519-0.17,0.79v0.068c0.283-0.113,0.586-0.235,0.91-0.365c0.322-0.13,0.645-0.264,0.969-0.399
		c0.322-0.137,0.631-0.264,0.926-0.383S202.509,180.82,202.747,180.729z"/>
	<path fill="#FFF7DC" d="M210.142,179.233c-0.068,0.103-0.15,0.219-0.246,0.349c-0.096,0.131-0.189,0.252-0.281,0.365
		c-0.09,0.113-0.197,0.255-0.322,0.425c-0.113-0.079-0.225-0.142-0.332-0.187s-0.232-0.088-0.373-0.128
		c-0.143-0.039-0.287-0.06-0.434-0.06c-0.16,0-0.326,0.037-0.502,0.111c-0.176,0.073-0.264,0.224-0.264,0.45
		c0,0.192,0.076,0.354,0.23,0.484c0.152,0.131,0.34,0.249,0.561,0.357c0.221,0.107,0.465,0.218,0.73,0.331s0.51,0.255,0.73,0.425
		c0.223,0.17,0.408,0.383,0.562,0.638c0.152,0.255,0.229,0.569,0.229,0.943c0,0.329-0.059,0.629-0.178,0.901
		c-0.119,0.271-0.289,0.504-0.51,0.697c-0.223,0.192-0.484,0.346-0.791,0.459c-0.307,0.112-0.652,0.17-1.037,0.17
		c-0.465,0-0.916-0.08-1.352-0.238s-0.779-0.385-1.029-0.68c0.08-0.091,0.176-0.204,0.289-0.341
		c0.113-0.136,0.221-0.266,0.324-0.391c0.102-0.124,0.227-0.271,0.373-0.442c0-0.011,0.037,0.009,0.111,0.06
		c0.072,0.052,0.172,0.111,0.297,0.179c0.125,0.068,0.271,0.131,0.441,0.188s0.346,0.085,0.527,0.085
		c0.283,0,0.502-0.062,0.654-0.188c0.154-0.124,0.23-0.277,0.23-0.459c0-0.181-0.076-0.328-0.23-0.441
		c-0.152-0.113-0.34-0.219-0.561-0.314c-0.221-0.097-0.465-0.201-0.73-0.314c-0.268-0.113-0.51-0.256-0.73-0.426
		c-0.223-0.17-0.408-0.388-0.562-0.654c-0.152-0.266-0.229-0.604-0.229-1.012c0-0.407,0.072-0.748,0.221-1.02
		c0.146-0.272,0.338-0.493,0.57-0.663c0.23-0.17,0.484-0.292,0.756-0.365c0.271-0.074,0.537-0.11,0.799-0.11
		c0.352,0,0.717,0.07,1.096,0.212C209.562,178.771,209.882,178.972,210.142,179.233z"/>
</g>
<g>
	<path fill="#E58C4A" d="M103.725,95.674c0,0,0-8.663,17.325-8.663c7.156,0,13.755-2.9,18.816-7.911
		c7.002-6.934,4.042-24.774,15.834-26.739c10.395-1.733,13.86,10.395,12.128,22.523s-8.663,20.79-15.593,25.988
		c-6.93,5.198-22.523,12.128-39.848,8.663C112.388,109.534,101.992,107.802,103.725,95.674z"/>
	<path fill="#1B0A09" d="M134.441,85.246c0,0,6.646,7.477,17.999,7.2C152.441,92.445,148.564,86.076,134.441,85.246z"/>
	<path fill="#1B0A09" d="M147.947,77.465c0,0,7.493-3.726,15.242,1.311C163.189,78.776,158.617,82.417,147.947,77.465z"/>
	<path fill="#1B0A09" d="M149.487,67.455c0,0,7.493-3.726,15.242,1.311C164.729,68.766,160.157,72.407,149.487,67.455z"/>
	<path fill="#1B0A09" d="M118.15,91.307c0,0,11.054-0.939,18.148,9.049C136.297,100.356,128.886,102.614,118.15,91.307z"/>
	<path fill="#E58C4A" d="M136.065,123.587c0,0,0-8.663,17.325-8.663c7.156,0,13.755-2.9,18.816-7.911
		c7.002-6.934,4.042-24.774,15.834-26.739c10.395-1.733,13.86,10.395,12.128,22.523c-1.733,12.128-8.663,20.79-15.593,25.988
		c-6.93,5.198-22.523,12.128-39.848,8.663C144.728,137.447,134.333,135.715,136.065,123.587z"/>
	<path fill="#1B0A09" d="M166.782,113.158c0,0,6.646,7.477,17.999,7.2C184.781,120.358,180.904,113.989,166.782,113.158z"/>
	<path fill="#1B0A09" d="M180.287,105.378c0,0,7.493-3.726,15.242,1.311C195.529,106.689,190.957,110.33,180.287,105.378z"/>
	<path fill="#1B0A09" d="M181.827,95.368c0,0,7.493-3.726,15.242,1.311C197.069,96.679,192.497,100.32,181.827,95.368z"/>
	<path fill="#1B0A09" d="M150.49,119.219c0,0,11.054-0.939,18.148,9.049C168.638,128.268,161.226,130.527,150.49,119.219z"/>
</g>
<polygon fill="#1D2B40" points="538.502,26.815 548.272,17.003 556.008,28.486 567.457,20.701 572.879,33.44 585.596,27.962 
	588.51,41.497 602.031,38.526 602.33,52.369 616.172,52.008 613.846,65.658 627.506,67.923 622.639,80.885 635.621,85.697 
	628.389,97.503 640.229,104.683 630.893,114.91 641.158,124.199 630.055,132.474 638.377,143.54 625.91,149.562 631.986,162.001 
	618.605,165.557 622.219,178.923 608.406,179.88 609.424,193.689 595.68,192.016 594.064,205.768 580.887,201.522 576.697,214.72 
	564.561,208.058 557.951,220.224 547.293,211.386 538.502,222.082 529.711,211.386 519.053,220.224 512.443,208.058 500.307,214.72 
	496.117,201.522 482.939,205.768 481.324,192.016 467.58,193.689 468.598,179.88 454.785,178.923 458.398,165.557 445.018,162.001 
	451.094,149.562 438.627,143.54 446.949,132.474 435.846,124.199 446.111,114.91 436.775,104.683 448.615,97.503 441.383,85.697 
	454.365,80.885 449.498,67.923 463.158,65.658 460.832,52.008 474.674,52.369 474.973,38.526 488.494,41.497 491.408,27.962 
	504.125,33.44 509.547,20.701 520.996,28.486 528.734,17.003 "/>
<rect x="466.174" y="117.949" fill="none" width="144" height="68.999"/>
<text transform="matrix(1 0 0 1 477.2048 131.2248)"><tspan x="0" y="0" fill="#FFF7DC" font-family="'JosefinSans-Bold'" font-size="17">2000 canards en </tspan><tspan x="4.981" y="20.4" fill="#FFF7DC" font-family="'JosefinSans-Bold'" font-size="17">plastique jaunes </tspan><tspan x="-5.856" y="40.801" fill="#FFF7DC" font-family="'JosefinSans-Bold'" font-size="17">lchs dans lErdre.</tspan></text>
<g>
	<path fill="#E58C4A" d="M553.544,69.736c0.498,0.4,0.832,0.688,1.187,0.95c6.02,4.437,8.35,12.101,5.674,19.018
		c-1.797,4.646-5.435,7.275-10.096,8.531c-4.447,1.198-9.027,1.054-13.571,0.887c-2.52-0.092-5.059-0.391-7.533-0.877
		c-6.236-1.227-10.311-5.049-12.543-10.928c-1.214-3.197-2.215-6.457-2.628-9.859c-0.147-1.213-0.169-2.483,0.012-3.687
		c0.417-2.764,2.436-4.3,5.201-3.902c1.851,0.266,3.709,0.687,5.477,1.29c3.035,1.036,6.01,0.776,9.012-0.003
		c0.211-0.055,0.404-0.181,0.732-0.332c-0.27-0.39-0.471-0.746-0.733-1.049c-6.276-7.244-2.788-18.064,6.535-20.255
		c5.197-1.222,10.944,1.481,13.484,6.342c0.966,1.849,1.46,2.118,3.549,1.961c0.646-0.049,1.303-0.159,1.94-0.095
		c2.533,0.258,3.744,2.002,2.952,4.444c-0.329,1.016-0.96,1.991-1.651,2.82c-1.505,1.803-3.545,2.923-5.602,3.988
		C554.54,69.187,554.148,69.408,553.544,69.736z"/>
	<path fill="none" stroke="#1D2B40" stroke-miterlimit="10" d="M540.281,60.772c0,0,5.623,1.757,7.028-1.757"/>
</g>
</svg>
