<?xml version="1.0" encoding="utf-8"?>
<!-- Generator: Adobe Illustrator 16.0.0, SVG Export Plug-In . SVG Version: 6.00 Build 0)  -->
<!DOCTYPE svg PUBLIC "-//W3C//DTD SVG 1.1//EN" "http://www.w3.org/Graphics/SVG/1.1/DTD/svg11.dtd">
<svg version="1.1" id="Calque_1" xmlns="http://www.w3.org/2000/svg" xmlns:xlink="http://www.w3.org/1999/xlink" x="0px" y="0px"
	 width="178px" height="234px" viewBox="0 0 178 234" enable-background="new 0 0 178 234" xml:space="preserve">
<g>
	<path fill="#FFFFFF" d="M166.38,21.481v193.101c0,4.397-3.551,7.942-7.942,7.942H19.551c-4.392,0-7.931-3.545-7.931-7.942V21.481
		c0-4.386,3.539-7.931,7.931-7.931h138.887C162.829,13.55,166.38,17.095,166.38,21.481"/>
	<path fill="none" stroke="#1D2B40" stroke-width="4" stroke-miterlimit="10" d="M166.38,21.481v193.101
		c0,4.397-3.551,7.942-7.942,7.942H19.551c-4.392,0-7.931-3.545-7.931-7.942V21.481c0-4.386,3.539-7.931,7.931-7.931h138.887
		C162.829,13.55,166.38,17.095,166.38,21.481z"/>
	<polygon fill="#1D2B40" points="101.087,13.55 88.994,25.637 76.913,13.55 	"/>
	<line fill="none" stroke="#1D2B40" stroke-width="3" stroke-miterlimit="10" x1="166.38" y1="118.694" x2="11.62" y2="118.694"/>
</g>
<path fill="#1D2B40" d="M70.035,118.797c3.793-7.588,8.154-15.079,13.087-22.476c4.931-7.397,9.293-14.89,13.086-22.476H59.982
	V54.689h66.76c-4.172,7.586-8.533,15.11-13.086,22.569c-4.551,7.463-8.914,14.983-13.086,22.57
	c7.586,3.921,13.657,9.231,18.208,15.932c4.553,6.703,6.828,14.414,6.828,23.139c0,5.817-1.137,11.318-3.414,16.502
	c-2.275,5.186-5.375,9.705-9.293,13.562c-3.92,3.856-8.506,6.892-13.75,9.103c-5.249,2.211-10.781,3.319-16.595,3.319
	c-6.07,0-11.825-1.265-17.261-3.793c-5.438-2.528-10.117-5.88-14.035-10.053l14.224-13.276c4.425,5.439,10.178,8.157,17.26,8.157
	c3.159,0,6.165-0.633,9.01-1.898c2.845-1.262,5.31-2.939,7.396-5.025c2.086-2.087,3.762-4.552,5.026-7.397
	c1.264-2.845,1.896-5.909,1.896-9.199c0-3.158-0.633-6.163-1.896-9.008s-2.94-5.312-5.026-7.397
	c-2.087-2.086-4.552-3.729-7.396-4.931s-5.851-1.803-9.01-1.803C77.936,115.761,73.7,116.774,70.035,118.797z"/>
</svg>
