<?xml version="1.0" encoding="utf-8"?>
<!-- Generator: Adobe Illustrator 16.0.0, SVG Export Plug-In . SVG Version: 6.00 Build 0)  -->
<!DOCTYPE svg PUBLIC "-//W3C//DTD SVG 1.1//EN" "http://www.w3.org/Graphics/SVG/1.1/DTD/svg11.dtd">
<svg version="1.1" id="Calque_1" xmlns="http://www.w3.org/2000/svg" xmlns:xlink="http://www.w3.org/1999/xlink" x="0px" y="0px"
	 width="308px" height="330px" viewBox="0 0 308 330" enable-background="new 0 0 308 330" xml:space="preserve">
<path d="M86.806,289.213l0.328,26.067c0.079,6.243-5.331,11.375-12.077,11.46l-8.892,0.113c-6.746,0.084-12.282-4.912-12.36-11.155
	l-0.329-26.067L86.806,289.213z"/>
<path d="M261.308,287.021l0.327,26.067c0.078,6.242-5.325,11.374-12.079,11.46l-8.889,0.11c-6.744,0.087-12.283-4.909-12.363-11.151
	l-0.325-26.067L261.308,287.021z"/>
<g>
	<path opacity="0.75" fill="#FFFFFF" d="M270.519,102.04l-2.94-41.899l-0.004-0.038l-0.001-0.046
		c-0.185-6.283-4.979-11.851-14.258-16.537c-1.037-0.523-2.104-1.027-3.166-1.49c-23.831-10.463-54.343-15.096-96.034-14.572
		c-41.689,0.523-72.077,5.92-95.638,16.98c-0.457,0.219-1,0.479-1.513,0.735c-10.233,5.11-15.428,11.077-15.453,17.722l0.002,0.047
		l-0.006,0.039l-1.888,41.958l-0.002,0.153l0.002,0.145c0.127,10.207,9.202,18.394,20.232,18.256l190.909-2.398
		c11.027-0.137,19.896-8.551,19.767-18.758l-0.003-0.146L270.519,102.04z M250.69,115.486l-190.908,2.398
		c-7.704,0.097-14.012-5.603-14.102-12.727l1.895-42.131c-0.001-0.123,0.004-0.252,0.008-0.375c0-0.063,0.005-0.124,0.01-0.186
		c0-0.007,0-0.007,0-0.007c0.005-0.116,0.017-0.223,0.033-0.335c0.01-0.129,0.031-0.26,0.054-0.389c0-0.029,0.005-0.057,0.019-0.09
		c0.016-0.117,0.047-0.236,0.068-0.354c0.016-0.063,0.034-0.13,0.054-0.197c0.063-0.26,0.145-0.514,0.244-0.771
		c0.033-0.091,0.07-0.188,0.11-0.281c0.03-0.075,0.06-0.148,0.094-0.221c0.049-0.102,0.094-0.209,0.147-0.316
		c0.037-0.067,0.069-0.141,0.107-0.213c0.018-0.031,0.03-0.063,0.049-0.092c0.011-0.023,0.021-0.051,0.039-0.073
		c0.006-0.006,0.006-0.019,0.013-0.022c0.042-0.074,0.082-0.135,0.125-0.21c0-0.006,0-0.012,0.006-0.017
		c0.117-0.209,0.249-0.418,0.393-0.627c0.143-0.22,0.304-0.436,0.469-0.657c0.092-0.107,0.18-0.228,0.271-0.333
		c0.005-0.007,0.005-0.007,0.012-0.014c0.232-0.287,0.49-0.576,0.763-0.867c0.007-0.004,0.007-0.004,0.007-0.01
		c0.139-0.137,0.275-0.279,0.421-0.416c0.144-0.143,0.293-0.289,0.448-0.426c0.288-0.272,0.595-0.535,0.917-0.803
		c0.188-0.154,0.378-0.309,0.575-0.463c0.181-0.141,0.361-0.277,0.554-0.414c0.187-0.143,0.379-0.281,0.57-0.416
		c0.155-0.109,0.318-0.225,0.481-0.332c0.039-0.028,0.083-0.059,0.127-0.088c0.403-0.272,0.821-0.543,1.262-0.805
		c0.168-0.109,0.344-0.211,0.517-0.311c0.109-0.067,0.217-0.133,0.327-0.195c0.232-0.137,0.474-0.275,0.715-0.406
		c0.452-0.251,0.914-0.504,1.396-0.754c0.204-0.108,0.421-0.217,0.639-0.325c0.518-0.267,1.048-0.524,1.595-0.777
		c19.797-9.298,47.609-15.805,92.974-16.375c45.357-0.569,73.332,5.237,93.354,14.034c0.275,0.119,0.55,0.24,0.818,0.367
		c0.249,0.111,0.498,0.229,0.743,0.342c0.653,0.307,1.28,0.617,1.886,0.937c0.248,0.124,0.494,0.257,0.732,0.39
		c0.268,0.141,0.53,0.289,0.786,0.438c0.177,0.098,0.36,0.203,0.532,0.308c0.17,0.099,0.342,0.204,0.513,0.306
		c0.293,0.179,0.574,0.359,0.849,0.536c0.276,0.181,0.544,0.364,0.807,0.544c0.278,0.191,0.538,0.381,0.796,0.572
		c0.111,0.084,0.214,0.168,0.325,0.252c0.104,0.081,0.207,0.164,0.312,0.246c0.228,0.176,0.44,0.36,0.649,0.543
		c0.055,0.043,0.109,0.087,0.158,0.137c0.104,0.088,0.21,0.184,0.3,0.271c0.051,0.045,0.1,0.096,0.149,0.139
		c0.165,0.152,0.323,0.309,0.482,0.465c0.001,0.006,0.008,0.012,0.014,0.018c0.233,0.237,0.454,0.476,0.657,0.714
		c0.105,0.117,0.204,0.239,0.302,0.355c0.031,0.04,0.061,0.079,0.092,0.117c0.081,0.095,0.154,0.193,0.224,0.29
		c0.036,0.053,0.08,0.11,0.117,0.166c0.005,0.004,0.013,0.006,0.013,0.006c0.079,0.121,0.159,0.232,0.233,0.35
		c0.104,0.146,0.192,0.289,0.278,0.434c0.061,0.111,0.13,0.217,0.187,0.33l0.167,0.315c0.056,0.113,0.105,0.22,0.156,0.33
		c0.05,0.11,0.098,0.222,0.144,0.334c0.042,0.107,0.087,0.212,0.117,0.317c0.021,0.041,0.033,0.086,0.046,0.129
		c0.038,0.107,0.074,0.213,0.1,0.318c0,0.006,0,0.012,0.008,0.018c0.005,0.012,0.007,0.023,0.007,0.035
		c0.012,0.031,0.018,0.061,0.025,0.088c0.013,0.045,0.023,0.084,0.031,0.129c0.031,0.102,0.051,0.2,0.071,0.303
		c0.056,0.273,0.097,0.553,0.124,0.834l0.001,0.018c0.007,0.049,0.008,0.096,0.008,0.145c0.015,0.123,0.015,0.24,0.017,0.359
		l2.953,42.069C264.558,109.536,258.387,115.39,250.69,115.486z"/>
</g>
<path fill="#E0A30A" d="M66.925,204.143c-6.697,0.084-12.061,5.175-11.983,11.373c0.076,6.197,5.569,11.154,12.266,11.07
	c6.695-0.084,12.066-5.178,11.989-11.375C79.119,209.016,73.622,204.059,66.925,204.143z M66.925,204.143
	c-6.697,0.084-12.061,5.175-11.983,11.373c0.076,6.197,5.569,11.154,12.266,11.07c6.695-0.084,12.066-5.178,11.989-11.375
	C79.119,209.016,73.622,204.059,66.925,204.143z M66.925,204.143c-6.697,0.084-12.061,5.175-11.983,11.373
	c0.076,6.197,5.569,11.154,12.266,11.07c6.695-0.084,12.066-5.178,11.989-11.375C79.119,209.016,73.622,204.059,66.925,204.143z
	 M245.716,201.896c-6.699,0.084-12.066,5.176-11.988,11.377c0.077,6.193,5.57,11.15,12.27,11.066
	c6.699-0.082,12.063-5.178,11.986-11.372C257.906,206.768,252.413,201.812,245.716,201.896z M66.925,204.143
	c-6.697,0.084-12.061,5.175-11.983,11.373c0.076,6.197,5.569,11.154,12.266,11.07c6.695-0.084,12.066-5.178,11.989-11.375
	C79.119,209.016,73.622,204.059,66.925,204.143z M245.716,201.896c-6.699,0.084-12.066,5.176-11.988,11.377
	c0.077,6.193,5.57,11.15,12.27,11.066c6.699-0.082,12.063-5.178,11.986-11.372C257.906,206.768,252.413,201.812,245.716,201.896z
	 M66.925,204.143c-6.697,0.084-12.061,5.175-11.983,11.373c0.076,6.197,5.569,11.154,12.266,11.07
	c6.695-0.084,12.066-5.178,11.989-11.375C79.119,209.016,73.622,204.059,66.925,204.143z M245.716,201.896
	c-6.699,0.084-12.066,5.176-11.988,11.377c0.077,6.193,5.57,11.15,12.27,11.066c6.699-0.082,12.063-5.178,11.986-11.372
	C257.906,206.768,252.413,201.812,245.716,201.896z M245.716,201.896c-6.699,0.084-12.066,5.176-11.988,11.377
	c0.077,6.193,5.57,11.15,12.27,11.066c6.699-0.082,12.063-5.178,11.986-11.372C257.906,206.768,252.413,201.812,245.716,201.896z
	 M66.925,204.143c-6.697,0.084-12.061,5.175-11.983,11.373c0.076,6.197,5.569,11.154,12.266,11.07
	c6.695-0.084,12.066-5.178,11.989-11.375C79.119,209.016,73.622,204.059,66.925,204.143z M66.925,204.143
	c-6.697,0.084-12.061,5.175-11.983,11.373c0.076,6.197,5.569,11.154,12.266,11.07c6.695-0.084,12.066-5.178,11.989-11.375
	C79.119,209.016,73.622,204.059,66.925,204.143z M245.716,201.896c-6.699,0.084-12.066,5.176-11.988,11.377
	c0.077,6.193,5.57,11.15,12.27,11.066c6.699-0.082,12.063-5.178,11.986-11.372C257.906,206.768,252.413,201.812,245.716,201.896z
	 M66.925,204.143c-6.697,0.084-12.061,5.175-11.983,11.373c0.076,6.197,5.569,11.154,12.266,11.07
	c6.695-0.084,12.066-5.178,11.989-11.375C79.119,209.016,73.622,204.059,66.925,204.143z M245.716,201.896
	c-6.699,0.084-12.066,5.176-11.988,11.377c0.077,6.193,5.57,11.15,12.27,11.066c6.699-0.082,12.063-5.178,11.986-11.372
	C257.906,206.768,252.413,201.812,245.716,201.896z M66.925,204.143c-6.697,0.084-12.061,5.175-11.983,11.373
	c0.076,6.197,5.569,11.154,12.266,11.07c6.695-0.084,12.066-5.178,11.989-11.375C79.119,209.016,73.622,204.059,66.925,204.143z
	 M245.716,201.896c-6.699,0.084-12.066,5.176-11.988,11.377c0.077,6.193,5.57,11.15,12.27,11.066
	c6.699-0.082,12.063-5.178,11.986-11.372C257.906,206.768,252.413,201.812,245.716,201.896z M66.925,204.143
	c-6.697,0.084-12.061,5.175-11.983,11.373c0.076,6.197,5.569,11.154,12.266,11.07c6.695-0.084,12.066-5.178,11.989-11.375
	C79.119,209.016,73.622,204.059,66.925,204.143z M245.716,201.896c-6.699,0.084-12.066,5.176-11.988,11.377
	c0.077,6.193,5.57,11.15,12.27,11.066c6.699-0.082,12.063-5.178,11.986-11.372C257.906,206.768,252.413,201.812,245.716,201.896z
	 M245.716,201.896c-6.699,0.084-12.066,5.176-11.988,11.377c0.077,6.193,5.57,11.15,12.27,11.066
	c6.699-0.082,12.063-5.178,11.986-11.372C257.906,206.768,252.413,201.812,245.716,201.896z M66.925,204.143
	c-6.697,0.084-12.061,5.175-11.983,11.373c0.076,6.197,5.569,11.154,12.266,11.07c6.695-0.084,12.066-5.178,11.989-11.375
	C79.119,209.016,73.622,204.059,66.925,204.143z M66.925,204.143c-6.697,0.084-12.061,5.175-11.983,11.373
	c0.076,6.197,5.569,11.154,12.266,11.07c6.695-0.084,12.066-5.178,11.989-11.375C79.119,209.016,73.622,204.059,66.925,204.143z
	 M245.716,201.896c-6.699,0.084-12.066,5.176-11.988,11.377c0.077,6.193,5.57,11.15,12.27,11.066
	c6.699-0.082,12.063-5.178,11.986-11.372C257.906,206.768,252.413,201.812,245.716,201.896z M245.716,201.896
	c-6.699,0.084-12.066,5.176-11.988,11.377c0.077,6.193,5.57,11.15,12.27,11.066c6.699-0.082,12.063-5.178,11.986-11.372
	C257.906,206.768,252.413,201.812,245.716,201.896z M66.925,204.143c-6.697,0.084-12.061,5.175-11.983,11.373
	c0.076,6.197,5.569,11.154,12.266,11.07c6.695-0.084,12.066-5.178,11.989-11.375C79.119,209.016,73.622,204.059,66.925,204.143z
	 M245.716,201.896c-6.699,0.084-12.066,5.176-11.988,11.377c0.077,6.193,5.57,11.15,12.27,11.066
	c6.699-0.082,12.063-5.178,11.986-11.372C257.906,206.768,252.413,201.812,245.716,201.896z M66.925,204.143
	c-6.697,0.084-12.061,5.175-11.983,11.373c0.076,6.197,5.569,11.154,12.266,11.07c6.695-0.084,12.066-5.178,11.989-11.375
	C79.119,209.016,73.622,204.059,66.925,204.143z M245.716,201.896c-6.699,0.084-12.066,5.176-11.988,11.377
	c0.077,6.193,5.57,11.15,12.27,11.066c6.699-0.082,12.063-5.178,11.986-11.372C257.906,206.768,252.413,201.812,245.716,201.896z
	 M66.925,204.143c-6.697,0.084-12.061,5.175-11.983,11.373c0.076,6.197,5.569,11.154,12.266,11.07
	c6.695-0.084,12.066-5.178,11.989-11.375C79.119,209.016,73.622,204.059,66.925,204.143z M245.716,201.896
	c-6.699,0.084-12.066,5.176-11.988,11.377c0.077,6.193,5.57,11.15,12.27,11.066c6.699-0.082,12.063-5.178,11.986-11.372
	C257.906,206.768,252.413,201.812,245.716,201.896z M66.925,204.143c-6.697,0.084-12.061,5.175-11.983,11.373
	c0.076,6.197,5.569,11.154,12.266,11.07c6.695-0.084,12.066-5.178,11.989-11.375C79.119,209.016,73.622,204.059,66.925,204.143z
	 M245.716,201.896c-6.699,0.084-12.066,5.176-11.988,11.377c0.077,6.193,5.57,11.15,12.27,11.066
	c6.699-0.082,12.063-5.178,11.986-11.372C257.906,206.768,252.413,201.812,245.716,201.896z M66.925,204.143
	c-6.697,0.084-12.061,5.175-11.983,11.373c0.076,6.197,5.569,11.154,12.266,11.07c6.695-0.084,12.066-5.178,11.989-11.375
	C79.119,209.016,73.622,204.059,66.925,204.143z"/>
<path opacity="0.75" fill="#FFFFFF" d="M31.907,264.006l0.145,11.547c0.042,3.275,2.949,5.898,6.491,5.854l237.488-2.984
	c3.538-0.043,6.376-2.737,6.337-6.013l-0.147-11.549L31.907,264.006z M199.833,273.182c0.021,1.795-1.531,3.273-3.471,3.297
	l-78.225,0.982c-1.935,0.027-3.531-1.413-3.552-3.209l-0.078-6.208c-0.023-1.796,1.549-2.151,3.483-2.175l78.225-0.982
	c1.941-0.024,3.515,0.291,3.538,2.086L199.833,273.182z"/>
<path opacity="0.75" fill="#FFFFFF" d="M280.636,134.422l0.088,6.871l-250.316,3.145l-0.085-6.871
	c-0.042-3.275,2.798-5.97,6.338-6.015l237.491-2.981C277.69,128.525,280.596,131.149,280.636,134.422z"/>
<path fill="#E0A30A" d="M66.925,204.143c-6.697,0.084-12.061,5.175-11.983,11.373c0.076,6.197,5.569,11.154,12.266,11.07
	c6.695-0.084,12.066-5.178,11.989-11.375C79.119,209.016,73.622,204.059,66.925,204.143z M66.925,204.143
	c-6.697,0.084-12.061,5.175-11.983,11.373c0.076,6.197,5.569,11.154,12.266,11.07c6.695-0.084,12.066-5.178,11.989-11.375
	C79.119,209.016,73.622,204.059,66.925,204.143z M66.925,204.143c-6.697,0.084-12.061,5.175-11.983,11.373
	c0.076,6.197,5.569,11.154,12.266,11.07c6.695-0.084,12.066-5.178,11.989-11.375C79.119,209.016,73.622,204.059,66.925,204.143z
	 M245.716,201.896c-6.699,0.084-12.066,5.176-11.988,11.377c0.077,6.193,5.57,11.15,12.27,11.066
	c6.699-0.082,12.063-5.178,11.986-11.372C257.906,206.768,252.413,201.812,245.716,201.896z M245.716,201.896
	c-6.699,0.084-12.066,5.176-11.988,11.377c0.077,6.193,5.57,11.15,12.27,11.066c6.699-0.082,12.063-5.178,11.986-11.372
	C257.906,206.768,252.413,201.812,245.716,201.896z M66.925,204.143c-6.697,0.084-12.061,5.175-11.983,11.373
	c0.076,6.197,5.569,11.154,12.266,11.07c6.695-0.084,12.066-5.178,11.989-11.375C79.119,209.016,73.622,204.059,66.925,204.143z
	 M66.925,204.143c-6.697,0.084-12.061,5.175-11.983,11.373c0.076,6.197,5.569,11.154,12.266,11.07
	c6.695-0.084,12.066-5.178,11.989-11.375C79.119,209.016,73.622,204.059,66.925,204.143z M245.716,201.896
	c-6.699,0.084-12.066,5.176-11.988,11.377c0.077,6.193,5.57,11.15,12.27,11.066c6.699-0.082,12.063-5.178,11.986-11.372
	C257.906,206.768,252.413,201.812,245.716,201.896z M245.716,201.896c-6.699,0.084-12.066,5.176-11.988,11.377
	c0.077,6.193,5.57,11.15,12.27,11.066c6.699-0.082,12.063-5.178,11.986-11.372C257.906,206.768,252.413,201.812,245.716,201.896z
	 M66.925,204.143c-6.697,0.084-12.061,5.175-11.983,11.373c0.076,6.197,5.569,11.154,12.266,11.07
	c6.695-0.084,12.066-5.178,11.989-11.375C79.119,209.016,73.622,204.059,66.925,204.143z M66.925,204.143
	c-6.697,0.084-12.061,5.175-11.983,11.373c0.076,6.197,5.569,11.154,12.266,11.07c6.695-0.084,12.066-5.178,11.989-11.375
	C79.119,209.016,73.622,204.059,66.925,204.143z M245.716,201.896c-6.699,0.084-12.066,5.176-11.988,11.377
	c0.077,6.193,5.57,11.15,12.27,11.066c6.699-0.082,12.063-5.178,11.986-11.372C257.906,206.768,252.413,201.812,245.716,201.896z
	 M66.925,204.143c-6.697,0.084-12.061,5.175-11.983,11.373c0.076,6.197,5.569,11.154,12.266,11.07
	c6.695-0.084,12.066-5.178,11.989-11.375C79.119,209.016,73.622,204.059,66.925,204.143z M245.716,201.896
	c-6.699,0.084-12.066,5.176-11.988,11.377c0.077,6.193,5.57,11.15,12.27,11.066c6.699-0.082,12.063-5.178,11.986-11.372
	C257.906,206.768,252.413,201.812,245.716,201.896z M245.716,201.896c-6.699,0.084-12.066,5.176-11.988,11.377
	c0.077,6.193,5.57,11.15,12.27,11.066c6.699-0.082,12.063-5.178,11.986-11.372C257.906,206.768,252.413,201.812,245.716,201.896z
	 M66.925,204.143c-6.697,0.084-12.061,5.175-11.983,11.373c0.076,6.197,5.569,11.154,12.266,11.07
	c6.695-0.084,12.066-5.178,11.989-11.375C79.119,209.016,73.622,204.059,66.925,204.143z M66.925,204.143
	c-6.697,0.084-12.061,5.175-11.983,11.373c0.076,6.197,5.569,11.154,12.266,11.07c6.695-0.084,12.066-5.178,11.989-11.375
	C79.119,209.016,73.622,204.059,66.925,204.143z M245.716,201.896c-6.699,0.084-12.066,5.176-11.988,11.377
	c0.077,6.193,5.57,11.15,12.27,11.066c6.699-0.082,12.063-5.178,11.986-11.372C257.906,206.768,252.413,201.812,245.716,201.896z
	 M245.716,201.896c-6.699,0.084-12.066,5.176-11.988,11.377c0.077,6.193,5.57,11.15,12.27,11.066
	c6.699-0.082,12.063-5.178,11.986-11.372C257.906,206.768,252.413,201.812,245.716,201.896z M66.925,204.143
	c-6.697,0.084-12.061,5.175-11.983,11.373c0.076,6.197,5.569,11.154,12.266,11.07c6.695-0.084,12.066-5.178,11.989-11.375
	C79.119,209.016,73.622,204.059,66.925,204.143z M66.925,204.143c-6.697,0.084-12.061,5.175-11.983,11.373
	c0.076,6.197,5.569,11.154,12.266,11.07c6.695-0.084,12.066-5.178,11.989-11.375C79.119,209.016,73.622,204.059,66.925,204.143z
	 M245.716,201.896c-6.699,0.084-12.066,5.176-11.988,11.377c0.077,6.193,5.57,11.15,12.27,11.066
	c6.699-0.082,12.063-5.178,11.986-11.372C257.906,206.768,252.413,201.812,245.716,201.896z M245.716,201.896
	c-6.699,0.084-12.066,5.176-11.988,11.377c0.077,6.193,5.57,11.15,12.27,11.066c6.699-0.082,12.063-5.178,11.986-11.372
	C257.906,206.768,252.413,201.812,245.716,201.896z M66.925,204.143c-6.697,0.084-12.061,5.175-11.983,11.373
	c0.076,6.197,5.569,11.154,12.266,11.07c6.695-0.084,12.066-5.178,11.989-11.375C79.119,209.016,73.622,204.059,66.925,204.143z"/>
<path fill="#001526" d="M280.823,149.703l-250.311,3.15l1.279,102.174l250.318-3.143L280.823,149.703z M232.092,164.49l18.428-0.23
	c1.935-0.027,3.532,1.41,3.56,3.213l0.133,11.211c0.026,1.793-1.535,3.275-3.471,3.301l-18.428,0.232
	c-1.935,0.018-3.531-1.421-3.559-3.214l-0.133-11.21C228.596,165.99,230.157,164.517,232.092,164.49z M61.181,166.639l18.427-0.231
	c1.936-0.026,3.533,1.411,3.55,3.204l0.143,11.22c0.027,1.794-1.535,3.276-3.471,3.294l-18.427,0.239
	c-1.935,0.018-3.532-1.421-3.56-3.214l-0.133-11.21C57.684,168.139,59.237,166.665,61.181,166.639z M67.27,231.631
	c-9.702,0.115-17.664-7.057-17.779-16.049c-0.115-8.982,7.669-16.358,17.371-16.483c9.71-0.124,17.663,7.057,17.778,16.048
	C84.756,224.13,76.979,231.506,67.27,231.631z M156.857,245.93c-23.38,0.293-42.579-18.428-42.872-41.815
	c-0.302-23.38,18.427-42.579,41.807-42.872c23.39-0.293,42.58,18.427,42.873,41.815C198.957,226.438,180.247,245.637,156.857,245.93
	z M246.063,229.385c-9.71,0.123-17.673-7.057-17.779-16.049c-0.115-8.982,7.661-16.358,17.371-16.483
	c9.711-0.124,17.664,7.058,17.779,16.048C263.55,221.884,255.774,229.26,246.063,229.385z"/>
<ellipse transform="matrix(0.9999 -0.0126 0.0126 0.9999 -2.6999 0.8594)" fill="#E0A30A" cx="67.068" cy="215.363" rx="12.128" ry="11.224"/>
<path fill="#E0A30A" d="M257.983,212.968c0.077,6.194-5.291,11.29-11.986,11.374c-6.696,0.082-12.19-4.873-12.269-11.068
	c-0.079-6.201,5.289-11.293,11.986-11.377C252.413,201.812,257.904,206.768,257.983,212.968z"/>
<ellipse transform="matrix(0.9999 -0.0126 0.0126 0.9999 -2.6999 0.8594)" fill="#E0A30A" cx="67.068" cy="215.363" rx="12.128" ry="11.224"/>
<path fill="#E0A30A" d="M257.983,212.968c0.077,6.194-5.291,11.29-11.986,11.374c-6.696,0.082-12.19-4.873-12.269-11.068
	c-0.079-6.201,5.289-11.293,11.986-11.377C252.413,201.812,257.904,206.768,257.983,212.968z"/>
<g opacity="0.75">
	<path fill="#FFFFFF" d="M171.494,59.715l0.044,3.59c0.023,1.795-1.535,3.273-3.474,3.297l-26.909,0.34
		c-1.939,0.021-3.534-1.414-3.557-3.21l-0.045-3.589c-0.023-1.795,1.535-3.271,3.474-3.298l12.243-0.153l-0.184-14.584l2.426-0.027
		l0.182,14.581l12.243-0.153C169.877,56.481,171.47,57.922,171.494,59.715z"/>
</g>
<path opacity="0.75" fill="#FFFFFF" d="M253.184,34.925c-1.525-0.716-2.976-1.338-4.31-1.87c-1.244-0.496-2.382-0.912-3.393-1.26
	c-23.525-8.791-52.881-12.674-91.465-12.189c-36.479,0.457-64.606,4.609-87.263,12.981c-0.459,0.163-0.947,0.343-1.473,0.547
	c-0.042,0.011-0.083,0.028-0.12,0.046c-0.362,0.133-0.736,0.284-1.121,0.438c-0.146,0.054-0.29,0.117-0.437,0.175
	c-2.03,0.823-4.398,1.883-6.941,3.217l6.707-29.817c-0.022-1.62,1.388-2.958,3.145-2.979L241.276,2.02
	c1.757-0.023,3.201,1.277,3.22,2.899L253.184,34.925z"/>
<g opacity="0.75">
	<path fill="#FFFFFF" d="M33.065,107.281l0.034,2.805l-10.679,0.133l0.057,4.488c0.058,4.492-3.831,8.182-8.687,8.242
		c-2.431,0.029-4.635-0.852-6.241-2.307c-1.613-1.449-2.62-3.465-2.647-5.716l-0.148-11.778c-0.057-4.49,3.83-8.181,8.686-8.242
		c2.43-0.031,4.637,0.853,6.242,2.306c1.612,1.449,2.619,3.468,2.648,5.716l0.056,4.486L33.065,107.281z"/>
	<path fill="#FFFFFF" d="M277.135,104.216l0.033,2.804l10.68-0.135l0.056,4.49c0.057,4.49,4.036,8.08,8.892,8.019
		c2.43-0.029,4.61-0.966,6.183-2.46c1.574-1.489,2.531-3.532,2.503-5.781l-0.149-11.779c-0.056-4.49-4.035-8.08-8.89-8.02
		c-2.429,0.029-4.612,0.966-6.182,2.462c-1.577,1.487-2.532,3.532-2.503,5.78l0.056,4.485L277.135,104.216z"/>
</g>
<g>
	<g>
		<polygon points="156.324,171.322 159.723,167.908 162.416,171.903 166.398,169.194 168.285,173.627 172.709,171.721 
			173.723,176.431 178.428,175.396 178.531,180.213 183.348,180.088 182.539,184.836 187.293,185.625 185.598,190.135 
			190.115,191.809 187.6,195.917 191.719,198.415 188.471,201.973 192.043,205.205 188.178,208.085 191.074,211.935 186.736,214.03 
			188.852,218.358 184.195,219.595 185.453,224.245 180.646,224.578 181,229.383 176.219,228.801 175.656,233.586 171.072,232.108 
			169.613,236.7 165.391,234.383 163.092,238.615 159.383,235.54 156.324,239.263 153.266,235.54 149.557,238.615 147.257,234.383 
			143.035,236.7 141.577,232.108 136.993,233.586 136.43,228.801 131.648,229.383 132.002,224.578 127.196,224.245 128.454,219.595 
			123.797,218.358 125.912,214.03 121.574,211.935 124.469,208.085 120.606,205.205 124.178,201.973 120.93,198.415 
			125.049,195.917 122.533,191.809 127.049,190.135 125.356,185.625 130.109,184.836 129.3,180.088 134.116,180.213 134.22,175.396 
			138.924,176.431 139.939,171.721 144.364,173.627 146.25,169.194 150.233,171.903 152.925,167.908 		"/>
	</g>
	<g>
		<g>
			<path fill="#FFFFFF" d="M147.58,191.072l0.943-0.219l-0.194-5.553l-0.955,0.222l-0.065-1.746l4.046-0.938l0.066,1.745
				l-0.968,0.225l0.203,5.425l1.838-0.427l-0.04-1.312l1.79-0.415l0.106,3.057l-6.709,1.558L147.58,191.072z"/>
			<path fill="#FFFFFF" d="M157.568,183.76c1.744-0.404,2.857,0.382,3.186,1.802c0.131,0.562,0.049,1.234,0.049,1.234l-3.867,0.898
				c0,0,0.002,0.062,0.016,0.121c0.145,0.621,0.713,0.904,1.441,0.735c0.895-0.208,1.682-1.045,1.682-1.045l0.879,1.406
				c0,0-0.9,1.052-2.297,1.376c-2.1,0.487-3.427-0.513-3.762-1.957C154.399,186.194,155.54,184.231,157.568,183.76z
				 M158.736,186.081c0,0-0.016-0.173-0.031-0.245c-0.088-0.382-0.395-0.612-0.813-0.516c-0.596,0.139-0.893,0.647-0.971,1.182
				L158.736,186.081z"/>
		</g>
		<g>
			<path fill="#FFFFFF" d="M133.429,199.941l-0.692,0.161l-0.048-1.562l3.211-0.745l0.048,1.562l-0.549,0.127l0.789,2.157
				c0.146,0.355,0.2,0.809,0.2,0.809l0.048-0.011c0,0,0.017-0.47,0.134-0.887l0.619-2.483l-0.55,0.127l-0.047-1.561l3.33-0.773
				l0.047,1.562l-0.691,0.161l-1.534,5.261l-2.435,0.565L133.429,199.941z"/>
			<path fill="#FFFFFF" d="M143.625,195.853c1.767-0.41,3.319,0.374,3.707,2.046c0.504,2.172-1.068,4.122-3.098,4.593
				c-1.755,0.407-3.316-0.362-3.707-2.045C140.025,198.285,141.583,196.326,143.625,195.853z M143.99,200.736
				c0.824-0.191,1.544-1.101,1.283-2.223c-0.168-0.728-0.749-1.059-1.394-0.909c-0.811,0.188-1.547,1.139-1.286,2.261
				C142.759,200.582,143.333,200.889,143.99,200.736z"/>
			<path fill="#FFFFFF" d="M149.545,202.001c0.43-0.1,0.844-0.321,0.994-0.759l0.022-0.068l-2.21-4.695l-0.692,0.161l-0.06-1.559
				l3.318-0.771l0.06,1.559l-0.597,0.139l0.839,2.208c0.134,0.358,0.174,0.803,0.174,0.803l0.048-0.012c0,0,0.044-0.463,0.161-0.88
				l0.641-2.551l-0.562,0.13l-0.06-1.559l3.247-0.753l0.06,1.559l-0.633,0.146l-1.791,5.888c-0.538,1.747-1.488,2.421-2.61,2.681
				c-1.158,0.269-1.931-0.08-1.931-0.08l0.554-1.625C148.518,201.963,148.889,202.153,149.545,202.001z"/>
			<path fill="#FFFFFF" d="M158.951,194.899l0.084-0.02c0,0-0.004-0.237-0.035-0.369c-0.082-0.357-0.475-0.418-0.881-0.323
				c-0.811,0.188-1.684,0.981-1.684,0.981l-0.763-1.395c0,0,1.119-0.978,2.48-1.293c1.025-0.238,2.49-0.163,2.84,1.341
				c0.166,0.717,0.031,2.03,0.158,2.58c0.063,0.274,0.23,0.399,0.564,0.321c0.096-0.022,0.225-0.064,0.225-0.064l0.061,1.559
				c0,0-0.148,0.071-0.768,0.216c-0.633,0.146-1.463,0.314-1.883-0.52l-0.023,0.006c0,0-0.492,1.184-1.723,1.469
				c-0.906,0.21-1.849-0.111-2.107-1.222C155.082,196.377,157.377,195.266,158.951,194.899z M158.025,197.731
				c0.572-0.133,1.02-0.967,1.037-1.486l0.004-0.151l-0.191,0.044c-0.453,0.105-1.594,0.508-1.43,1.212
				C157.523,197.685,157.715,197.804,158.025,197.731z"/>
			<path fill="#FFFFFF" d="M165.494,198.3c0.848-0.197,1.361-0.643,1.373-1.626c0.002-0.315,0.014-0.481,0.014-0.481l-0.012,0.003
				c-0.318,0.526-0.705,0.867-1.35,1.017c-1.623,0.377-2.656-0.604-2.986-2.023c-0.398-1.719,0.375-3.811,2.463-4.295
				c1.385-0.321,1.904,0.4,1.904,0.4l0.023-0.005c0,0-0.016-0.072-0.018-0.185c-0.002-0.176,0.188-0.547,0.654-0.655l1.885-0.438
				l0.049,1.562l-0.453,0.105c-0.156,0.035-0.256,0.146-0.246,0.296l0.135,4.106c0.076,2.335-1.451,3.507-2.979,3.861
				c-1.682,0.391-2.689-0.043-2.689-0.043l0.459-1.603C163.721,198.297,164.408,198.552,165.494,198.3z M165.766,195.344
				c0.906-0.21,1.188-1.332,1.008-2.107c-0.168-0.717-0.674-0.787-1.199-0.666c-0.859,0.2-1.201,1.059-0.994,1.954
				C164.717,195.109,165.098,195.499,165.766,195.344z"/>
			<path fill="#FFFFFF" d="M173.039,189.027c1.742-0.404,2.855,0.381,3.186,1.802c0.129,0.561,0.047,1.234,0.047,1.234l-3.867,0.897
				c0,0,0.002,0.063,0.016,0.122c0.145,0.62,0.713,0.903,1.441,0.734c0.895-0.208,1.682-1.044,1.682-1.044l0.881,1.405
				c0,0-0.9,1.052-2.297,1.376c-2.102,0.487-3.428-0.513-3.764-1.957C169.869,191.461,171.01,189.498,173.039,189.027z
				 M174.207,191.348c0,0-0.016-0.173-0.031-0.244c-0.09-0.382-0.395-0.613-0.813-0.517c-0.596,0.139-0.895,0.648-0.971,1.182
				L174.207,191.348z"/>
		</g>
		<g>
			<path fill="#FFFFFF" d="M133.698,212.646l0.084-0.019c0,0-0.005-0.238-0.035-0.369c-0.084-0.358-0.475-0.418-0.881-0.324
				c-0.811,0.188-1.684,0.982-1.684,0.982l-0.764-1.396c0,0,1.119-0.977,2.479-1.293c1.026-0.237,2.49-0.162,2.84,1.342
				c0.166,0.716,0.03,2.03,0.158,2.579c0.063,0.275,0.23,0.399,0.565,0.322c0.095-0.022,0.224-0.064,0.224-0.064l0.061,1.558
				c0,0-0.147,0.072-0.768,0.217c-0.634,0.146-1.462,0.313-1.882-0.52l-0.024,0.006c0,0-0.493,1.183-1.722,1.468
				c-0.907,0.211-1.85-0.111-2.107-1.221C129.828,214.123,132.123,213.012,133.698,212.646z M130.575,208.402l2.041-0.474
				l1.454,1.549l-1.623,0.377L130.575,208.402z M132.77,215.478c0.573-0.133,1.021-0.966,1.039-1.486l0.003-0.151l-0.191,0.044
				c-0.453,0.105-1.593,0.509-1.43,1.213C132.269,215.431,132.459,215.55,132.77,215.478z"/>
			<path fill="#FFFFFF" d="M140.479,213.463l0.942-0.219l-0.197-5.678l-0.955,0.222l-0.062-1.621l3.055-0.709l2.896,4.184
				c0.224,0.313,0.385,0.791,0.385,0.791l0.048-0.011c0,0-0.089-0.546-0.094-0.946l-0.105-3.108l-1.003,0.232l-0.062-1.621
				l4.094-0.949l0.063,1.62l-0.955,0.222l0.26,7.299l-2.101,0.487l-2.916-4.166c-0.212-0.315-0.383-0.779-0.383-0.779l-0.048,0.011
				c0,0,0.086,0.533,0.104,0.932l0.114,3.094l1.002-0.232l0.063,1.621l-4.083,0.947L140.479,213.463z"/>
			<path fill="#FFFFFF" d="M153.647,208.017l0.084-0.019c0,0-0.005-0.238-0.035-0.369c-0.084-0.358-0.475-0.419-0.881-0.324
				c-0.812,0.188-1.684,0.982-1.684,0.982l-0.764-1.396c0,0,1.119-0.977,2.479-1.293c1.026-0.237,2.49-0.163,2.84,1.341
				c0.166,0.717,0.03,2.031,0.158,2.58c0.063,0.274,0.231,0.399,0.565,0.322c0.096-0.022,0.225-0.064,0.225-0.064l0.059,1.558
				c0,0-0.146,0.072-0.767,0.217c-0.633,0.146-1.462,0.313-1.881-0.521l-0.024,0.006c0,0-0.493,1.184-1.722,1.469
				c-0.907,0.211-1.85-0.111-2.107-1.222C149.776,209.494,152.072,208.383,153.647,208.017z M152.719,210.849
				c0.573-0.133,1.021-0.966,1.039-1.486l0.003-0.151l-0.191,0.044c-0.454,0.105-1.593,0.509-1.43,1.213
				C152.218,210.802,152.409,210.921,152.719,210.849z"/>
			<path fill="#FFFFFF" d="M157.85,206.438c-0.002-0.176-0.107-0.251-0.275-0.213l-0.572,0.133l-0.061-1.559l1.957-0.454
				c0.49-0.113,0.775,0.034,0.859,0.392c0.029,0.132,0.039,0.331,0.016,0.5l0.023-0.006c0,0,0.479-1.355,1.945-1.696
				c1.016-0.235,1.908,0.148,2.18,1.317c0.178,0.764,0.072,2.261,0.186,2.75c0.064,0.274,0.23,0.399,0.566,0.321
				c0.096-0.022,0.223-0.064,0.223-0.064l0.061,1.559c0,0-0.207,0.086-0.721,0.205c-0.811,0.188-1.824,0.322-2.131-1.002
				c-0.164-0.704-0.082-2.195-0.18-2.613c-0.066-0.286-0.25-0.482-0.703-0.377c-0.859,0.199-1.271,1.188-1.238,2.199l0.09,2.721
				l-2.064,0.479L157.85,206.438z"/>
			<path fill="#FFFFFF" d="M166.049,206.648l-0.072-2.373l-0.836,0.194l-0.059-1.559l0.906-0.21l-0.063-1.734l1.98-0.46l0.063,1.734
				l1.303-0.303l0.059,1.56l-1.301,0.302l0.09,2.23c0.002,0.113,0.025,0.271,0.039,0.33c0.117,0.502,0.596,0.504,1.049,0.398
				c0.178-0.042,0.316-0.099,0.316-0.099l0.057,1.71c0,0-0.301,0.108-0.539,0.163c-1.35,0.313-2.611,0.027-2.941-1.393
				C166.066,206.997,166.053,206.824,166.049,206.648z"/>
			<path fill="#FFFFFF" d="M172.938,200.938c1.742-0.404,2.855,0.381,3.186,1.802c0.129,0.561,0.047,1.234,0.047,1.234l-3.867,0.897
				c0,0,0.002,0.062,0.016,0.122c0.145,0.621,0.713,0.903,1.441,0.734c0.895-0.208,1.682-1.045,1.682-1.045l0.881,1.406
				c0,0-0.9,1.052-2.297,1.376c-2.102,0.487-3.428-0.513-3.764-1.957C169.768,203.371,170.908,201.408,172.938,200.938z
				 M174.105,203.258c0,0-0.016-0.173-0.033-0.244c-0.088-0.382-0.393-0.613-0.811-0.517c-0.596,0.139-0.895,0.647-0.971,1.182
				L174.105,203.258z"/>
			<path fill="#FFFFFF" d="M176.93,204.352l1.73-0.402l0.002,0.227c0.01,0.475,0.674,0.409,1.066,0.317
				c0.609-0.141,0.74-0.386,0.693-0.588c-0.18-0.776-2.885,0.191-3.34-1.766c-0.34-1.469,1.027-2.402,2.496-2.743
				c1.063-0.246,2.479-0.16,2.527,0.974l0.029,0.723l-1.73,0.401l-0.02-0.247c-0.031-0.345-0.434-0.29-0.684-0.231
				c-0.5,0.116-0.697,0.301-0.643,0.539c0.197,0.848,2.895-0.27,3.344,1.665c0.318,1.372-0.818,2.491-2.572,2.898
				c-1.051,0.243-2.826,0.24-2.877-1.118L176.93,204.352z"/>
		</g>
	</g>
</g>
</svg>
