<?xml version="1.0" encoding="utf-8"?>
<!-- Generator: Adobe Illustrator 16.0.0, SVG Export Plug-In . SVG Version: 6.00 Build 0)  -->
<!DOCTYPE svg PUBLIC "-//W3C//DTD SVG 1.1//EN" "http://www.w3.org/Graphics/SVG/1.1/DTD/svg11.dtd">
<svg version="1.1" id="Calque_1" xmlns="http://www.w3.org/2000/svg" xmlns:xlink="http://www.w3.org/1999/xlink" x="0px" y="0px"
	 width="308px" height="330px" viewBox="0 0 308 330" enable-background="new 0 0 308 330" xml:space="preserve">
<path d="M86.806,262.46l0.328,26.067c0.079,6.243-5.331,11.375-12.077,11.46l-8.892,0.112c-6.746,0.085-12.282-4.911-12.36-11.154
	l-0.329-26.067L86.806,262.46z"/>
<path d="M261.309,260.269l0.326,26.066c0.078,6.242-5.324,11.374-12.078,11.46l-8.89,0.11c-6.744,0.087-12.283-4.909-12.362-11.151
	l-0.326-26.067L261.309,260.269z"/>
<g>
	<path fill="#77A0B7" d="M270.52,109.99l-2.939-41.9v-0.04l-0.01-0.04c-0.181-6.29-4.971-11.85-14.25-16.54
		c-1.04-0.52-2.11-1.03-3.17-1.49c-0.101-0.04-0.2-0.09-0.311-0.13c-6.46-2.82-13.41-5.21-20.939-7.19
		c-0.04-0.01-0.08-0.02-0.12-0.03c-7.23-1.89-14.99-3.41-23.37-4.54c-0.641-0.09-1.28-0.17-1.93-0.26
		c-0.53-0.07-1.061-0.13-1.601-0.2c-0.12-0.01-0.229-0.03-0.35-0.04c-12.95-1.57-27.33-2.29-43.42-2.21c-1.32,0-2.65,0.01-3.99,0.03
		c-8.81,0.11-17.12,0.44-24.97,0.99c-0.09,0.01-0.18,0.02-0.27,0.02c-3.29,0.24-6.5,0.51-9.64,0.84c-0.9,0.09-1.81,0.18-2.7,0.28
		c-1.74,0.19-3.46,0.39-5.15,0.6c-4.89,0.63-9.58,1.37-14.09,2.22c-14.81,2.77-27.59,6.76-38.82,12.03c-0.46,0.22-1,0.48-1.52,0.73
		C46.73,58.23,41.54,64.2,41.51,70.85v0.08L40.28,98.2l-0.66,14.69v0.3c0.05,3.68,1.26,7.1,3.31,9.96c0.09,0.12,0.18,0.25,0.28,0.37
		c3.14,4.18,8.11,7.1,13.81,7.77h0.05c0.91,0.11,1.84,0.16,2.78,0.15l3.88-0.05l49.82-0.62c0,0,0,0,0.01,0c0,0,0,0,0.01,0l6.02-0.08
		l22.19-0.28l0.75-0.01h0.01l28.6-0.35h0.011l79.609-1c0.95-0.01,1.88-0.09,2.8-0.22h0.011c9.689-1.39,17.08-9.22,16.96-18.54v-0.15
		L270.52,109.99z M250.69,123.44l-73.94,0.93l-28.55,0.35l-0.79,0.01l-27.9,0.35l-50.12,0.63l-9.61,0.12
		c-5.27,0.07-9.89-2.58-12.31-6.54c-0.09-0.15-0.18-0.3-0.26-0.45c-0.95-1.72-1.5-3.66-1.53-5.73l0.96-21.31l0.94-20.82
		c-0.01-0.13,0-0.26,0-0.38c0-0.06,0.01-0.12,0.01-0.19c0.01-0.12,0.02-0.23,0.04-0.34c0.01-0.13,0.03-0.26,0.05-0.39
		c0-0.02,0.01-0.05,0.02-0.09c0.01-0.11,0.05-0.23,0.07-0.35c0.01-0.06,0.03-0.13,0.05-0.2c0.06-0.26,0.15-0.51,0.24-0.77
		c0.04-0.09,0.07-0.19,0.11-0.28c0.04-0.07,0.06-0.15,0.1-0.22c0.05-0.1,0.09-0.21,0.15-0.32c0.03-0.06,0.06-0.14,0.1-0.21
		c0.02-0.03,0.03-0.06,0.05-0.09c0.01-0.02,0.02-0.05,0.04-0.07c0.01-0.01,0.01-0.02,0.01-0.03c0.05-0.07,0.09-0.13,0.13-0.21v-0.01
		c0.12-0.21,0.25-0.42,0.4-0.63c0.14-0.22,0.3-0.44,0.47-0.66c0.09-0.1,0.18-0.22,0.27-0.33c0-0.01,0-0.01,0.01-0.01
		c0.23-0.29,0.49-0.58,0.76-0.87c0.01,0,0.01,0,0.01-0.01c0.14-0.14,0.27-0.28,0.42-0.42c0.14-0.14,0.29-0.29,0.45-0.42
		c0.29-0.28,0.59-0.54,0.92-0.81c0.18-0.15,0.37-0.3,0.57-0.46c0.18-0.14,0.36-0.28,0.55-0.41c0.19-0.15,0.38-0.28,0.57-0.42
		c0.16-0.11,0.32-0.22,0.49-0.33c0.03-0.03,0.08-0.06,0.12-0.09c0.41-0.27,0.82-0.54,1.26-0.8c0.17-0.11,0.35-0.21,0.52-0.31
		c0.11-0.07,0.22-0.14,0.33-0.2c0.23-0.14,0.47-0.28,0.71-0.41c0.46-0.25,0.92-0.5,1.4-0.75c0.2-0.11,0.42-0.22,0.64-0.33
		c0.52-0.26,1.05-0.52,1.59-0.77c8.1-3.81,17.55-7.14,28.99-9.8c9.41-2.18,20.16-3.9,32.62-5.05c0.12,0,0.24-0.02,0.36-0.03
		c8.89-0.8,18.65-1.31,29.41-1.48c0.53-0.01,1.06-0.01,1.6-0.02c17.96-0.23,33.2,0.55,46.3,2.11c8.8,1.06,16.63,2.47,23.67,4.17
		c0.06,0.01,0.12,0.03,0.18,0.04c8.021,1.95,15.021,4.27,21.25,6.88c0.66,0.28,1.311,0.56,1.95,0.84c0.28,0.12,0.55,0.24,0.82,0.36
		c0.25,0.12,0.5,0.23,0.739,0.35c0.66,0.3,1.28,0.61,1.891,0.93c0.25,0.13,0.49,0.26,0.729,0.39c0.271,0.14,0.53,0.29,0.79,0.44
		c0.17,0.1,0.36,0.2,0.53,0.31c0.17,0.1,0.34,0.2,0.51,0.31c0.29,0.17,0.58,0.35,0.851,0.53c0.279,0.18,0.55,0.36,0.81,0.55
		c0.28,0.19,0.54,0.38,0.79,0.57c0.12,0.08,0.22,0.16,0.33,0.25c0.1,0.08,0.21,0.16,0.31,0.24c0.23,0.18,0.44,0.36,0.65,0.55
		c0.05,0.04,0.11,0.08,0.16,0.14c0.1,0.08,0.21,0.18,0.3,0.27c0.05,0.04,0.1,0.09,0.15,0.13c0.159,0.16,0.319,0.31,0.479,0.47
		c0,0.01,0.01,0.01,0.01,0.02c0.24,0.24,0.46,0.47,0.66,0.71c0.101,0.12,0.2,0.24,0.3,0.36c0.03,0.04,0.061,0.08,0.091,0.11
		c0.09,0.1,0.159,0.2,0.229,0.29c0.03,0.06,0.08,0.11,0.12,0.17l0.01,0.01c0.08,0.12,0.16,0.23,0.23,0.35
		c0.1,0.14,0.189,0.28,0.279,0.43c0.061,0.11,0.131,0.22,0.19,0.33l0.16,0.31c0.06,0.12,0.109,0.23,0.16,0.33
		c0.05,0.11,0.1,0.23,0.14,0.34s0.09,0.21,0.12,0.32c0.02,0.04,0.03,0.08,0.05,0.12c0.03,0.11,0.07,0.22,0.101,0.32
		c0,0.01,0,0.01,0,0.02c0.01,0.01,0.01,0.02,0.01,0.04c0.01,0.03,0.02,0.06,0.029,0.08c0.011,0.05,0.021,0.09,0.03,0.13
		c0.03,0.11,0.05,0.2,0.07,0.31c0.05,0.27,0.09,0.55,0.12,0.83v0.02c0.01,0.05,0.01,0.09,0.01,0.14c0.02,0.13,0.02,0.24,0.02,0.36
		l2.95,42.07C264.56,117.49,258.39,123.34,250.69,123.44z"/>
	<path opacity="0.75" fill="#77A0B7" enable-background="new    " d="M264.47,110.36c0.09,7.13-6.08,12.98-13.779,13.08l-73.94,0.93
		l-28.55,0.35l-0.79,0.01l-27.9,0.35l-50.12,0.63l-9.61,0.12c-5.27,0.07-9.89-2.58-12.31-6.54c-0.09-0.15-0.18-0.3-0.26-0.45
		c-0.95-1.72-1.5-3.66-1.53-5.73l0.96-21.31l0.94-20.82c-0.01-0.13,0-0.26,0-0.38c0-0.06,0.01-0.12,0.01-0.19
		c0.01-0.12,0.02-0.23,0.04-0.34c0.01-0.13,0.03-0.26,0.05-0.39c0-0.02,0.01-0.05,0.02-0.09c0.01-0.11,0.05-0.23,0.07-0.35
		c0.01-0.06,0.03-0.13,0.05-0.2c0.06-0.26,0.15-0.51,0.24-0.77c0.04-0.09,0.07-0.19,0.11-0.28c0.04-0.07,0.06-0.15,0.1-0.22
		c0.05-0.1,0.09-0.21,0.15-0.32c0.03-0.06,0.06-0.14,0.1-0.21c0.02-0.03,0.03-0.06,0.05-0.09c0.01-0.02,0.02-0.05,0.04-0.07
		c0.01-0.01,0.01-0.02,0.01-0.03c0.05-0.07,0.09-0.13,0.13-0.21v-0.01c0.12-0.21,0.25-0.42,0.4-0.63c0.14-0.22,0.3-0.44,0.47-0.66
		c0.09-0.1,0.18-0.22,0.27-0.33c0-0.01,0-0.01,0.01-0.01c0.23-0.29,0.49-0.58,0.76-0.87c0.01,0,0.01,0,0.01-0.01
		c0.14-0.14,0.27-0.28,0.42-0.42c0.14-0.14,0.29-0.29,0.45-0.42c0.29-0.28,0.59-0.54,0.92-0.81c0.18-0.15,0.37-0.3,0.57-0.46
		c0.18-0.14,0.36-0.28,0.55-0.41c0.19-0.15,0.38-0.28,0.57-0.42c0.16-0.11,0.32-0.22,0.49-0.33c0.03-0.03,0.08-0.06,0.12-0.09
		c0.41-0.27,0.82-0.54,1.26-0.8c0.17-0.11,0.35-0.21,0.52-0.31c0.11-0.07,0.22-0.14,0.33-0.2c0.23-0.14,0.47-0.28,0.71-0.41
		c0.46-0.25,0.92-0.5,1.4-0.75c0.2-0.11,0.42-0.22,0.64-0.33c0.52-0.26,1.05-0.52,1.59-0.77c8.1-3.81,17.55-7.14,28.99-9.8
		c9.41-2.18,20.16-3.9,32.62-5.05c0.12,0,0.24-0.02,0.36-0.03c8.89-0.8,18.65-1.31,29.41-1.48c0.53-0.01,1.06-0.01,1.6-0.02
		c17.96-0.23,33.2,0.55,46.3,2.11c8.8,1.06,16.63,2.47,23.67,4.17c0.06,0.01,0.12,0.03,0.18,0.04c8.021,1.95,15.021,4.27,21.25,6.88
		c0.66,0.28,1.311,0.56,1.95,0.84c0.28,0.12,0.55,0.24,0.82,0.36c0.25,0.12,0.5,0.23,0.739,0.35c0.66,0.3,1.28,0.61,1.891,0.93
		c0.25,0.13,0.49,0.26,0.729,0.39c0.271,0.14,0.53,0.29,0.79,0.44c0.17,0.1,0.36,0.2,0.53,0.31c0.17,0.1,0.34,0.2,0.51,0.31
		c0.29,0.17,0.58,0.35,0.851,0.53c0.279,0.18,0.55,0.36,0.81,0.55c0.28,0.19,0.54,0.38,0.79,0.57c0.12,0.08,0.22,0.16,0.33,0.25
		c0.1,0.08,0.21,0.16,0.31,0.24c0.23,0.18,0.44,0.36,0.65,0.55c0.05,0.04,0.11,0.08,0.16,0.14c0.1,0.08,0.21,0.18,0.3,0.27
		c0.05,0.04,0.1,0.09,0.15,0.13c0.159,0.16,0.319,0.31,0.479,0.47c0,0.01,0.01,0.01,0.01,0.02c0.24,0.24,0.46,0.47,0.66,0.71
		c0.101,0.12,0.2,0.24,0.3,0.36c0.03,0.04,0.061,0.08,0.091,0.11c0.09,0.1,0.159,0.2,0.229,0.29c0.03,0.06,0.08,0.11,0.12,0.17
		l0.01,0.01c0.08,0.12,0.16,0.23,0.23,0.35c0.1,0.14,0.189,0.28,0.279,0.43c0.061,0.11,0.131,0.22,0.19,0.33l0.16,0.31
		c0.06,0.12,0.109,0.23,0.16,0.33c0.05,0.11,0.1,0.23,0.14,0.34s0.09,0.21,0.12,0.32c0.02,0.04,0.03,0.08,0.05,0.12
		c0.03,0.11,0.07,0.22,0.101,0.32c0,0.01,0,0.01,0,0.02c0.01,0.01,0.01,0.02,0.01,0.04c0.01,0.03,0.02,0.06,0.029,0.08
		c0.011,0.05,0.021,0.09,0.03,0.13c0.03,0.11,0.05,0.2,0.07,0.31c0.05,0.27,0.09,0.55,0.12,0.83v0.02c0.01,0.05,0.01,0.09,0.01,0.14
		c0.02,0.13,0.02,0.24,0.02,0.36L264.47,110.36z"/>
</g>
<path fill="#E0A30A" d="M77.08,199.92c-0.33-0.439-0.69-0.86-1.08-1.25c-0.14-0.14-0.28-0.28-0.43-0.41
	c-0.29-0.26-0.59-0.51-0.91-0.75c-2.12-1.569-4.81-2.49-7.74-2.45c-1.27,0.021-2.49,0.21-3.64,0.561c-0.17,0.05-0.33,0.1-0.49,0.16
	c-3.48,1.22-6.2,3.88-7.3,7.189c-0.38,1.101-0.57,2.261-0.55,3.46c0.04,3,1.35,5.721,3.45,7.69c1.26,1.189,2.8,2.12,4.52,2.7
	c0.33,0.109,0.66,0.199,0.99,0.29c0.34,0.08,0.68,0.149,1.02,0.21c0.74,0.13,1.51,0.189,2.29,0.18c1.28-0.02,2.5-0.21,3.65-0.57
	c0.17-0.05,0.33-0.1,0.49-0.16c0.23-0.079,0.46-0.17,0.68-0.26c0.67-0.279,1.3-0.609,1.9-0.99c0.32-0.21,0.62-0.42,0.92-0.649
	c0.44-0.351,0.86-0.72,1.25-1.12c1.96-2.02,3.14-4.7,3.1-7.63C79.17,203.82,78.39,201.68,77.08,199.92z M77.08,199.92
	c-0.33-0.439-0.69-0.86-1.08-1.25c-0.14-0.14-0.28-0.28-0.43-0.41c-0.29-0.26-0.59-0.51-0.91-0.75c-2.12-1.569-4.81-2.49-7.74-2.45
	c-1.27,0.021-2.49,0.21-3.64,0.561c-0.17,0.05-0.33,0.1-0.49,0.16c-3.48,1.22-6.2,3.88-7.3,7.189c-0.38,1.101-0.57,2.261-0.55,3.46
	c0.04,3,1.35,5.721,3.45,7.69c1.26,1.189,2.8,2.12,4.52,2.7c0.33,0.109,0.66,0.199,0.99,0.29c0.34,0.08,0.68,0.149,1.02,0.21
	c0.74,0.13,1.51,0.189,2.29,0.18c1.28-0.02,2.5-0.21,3.65-0.57c0.17-0.05,0.33-0.1,0.49-0.16c0.23-0.079,0.46-0.17,0.68-0.26
	c0.67-0.279,1.3-0.609,1.9-0.99c0.32-0.21,0.62-0.42,0.92-0.649c0.44-0.351,0.86-0.72,1.25-1.12c1.96-2.02,3.14-4.7,3.1-7.63
	C79.17,203.82,78.39,201.68,77.08,199.92z M77.08,199.92c-0.33-0.439-0.69-0.86-1.08-1.25c-0.14-0.14-0.28-0.28-0.43-0.41
	c-0.29-0.26-0.59-0.51-0.91-0.75c-2.12-1.569-4.81-2.49-7.74-2.45c-1.27,0.021-2.49,0.21-3.64,0.561c-0.17,0.05-0.33,0.1-0.49,0.16
	c-3.48,1.22-6.2,3.88-7.3,7.189c-0.38,1.101-0.57,2.261-0.55,3.46c0.04,3,1.35,5.721,3.45,7.69c1.26,1.189,2.8,2.12,4.52,2.7
	c0.33,0.109,0.66,0.199,0.99,0.29c0.34,0.08,0.68,0.149,1.02,0.21c0.74,0.13,1.51,0.189,2.29,0.18c1.28-0.02,2.5-0.21,3.65-0.57
	c0.17-0.05,0.33-0.1,0.49-0.16c0.23-0.079,0.46-0.17,0.68-0.26c0.67-0.279,1.3-0.609,1.9-0.99c0.32-0.21,0.62-0.42,0.92-0.649
	c0.44-0.351,0.86-0.72,1.25-1.12c1.96-2.02,3.14-4.7,3.1-7.63C79.17,203.82,78.39,201.68,77.08,199.92z M245.72,192.81
	c-6.7,0.08-12.069,5.181-11.989,11.381c0.069,6.189,5.569,11.149,12.27,11.06c6.7-0.08,12.06-5.18,11.98-11.37
	C257.91,197.68,252.41,192.73,245.72,192.81z M77.08,199.92c-0.33-0.439-0.69-0.86-1.08-1.25c-0.14-0.14-0.28-0.28-0.43-0.41
	c-0.29-0.26-0.59-0.51-0.91-0.75c-2.12-1.569-4.81-2.49-7.74-2.45c-1.27,0.021-2.49,0.21-3.64,0.561c-0.17,0.05-0.33,0.1-0.49,0.16
	c-3.48,1.22-6.2,3.88-7.3,7.189c-0.38,1.101-0.57,2.261-0.55,3.46c0.04,3,1.35,5.721,3.45,7.69c1.26,1.189,2.8,2.12,4.52,2.7
	c0.33,0.109,0.66,0.199,0.99,0.29c0.34,0.08,0.68,0.149,1.02,0.21c0.74,0.13,1.51,0.189,2.29,0.18c1.28-0.02,2.5-0.21,3.65-0.57
	c0.17-0.05,0.33-0.1,0.49-0.16c0.23-0.079,0.46-0.17,0.68-0.26c0.67-0.279,1.3-0.609,1.9-0.99c0.32-0.21,0.62-0.42,0.92-0.649
	c0.44-0.351,0.86-0.72,1.25-1.12c1.96-2.02,3.14-4.7,3.1-7.63C79.17,203.82,78.39,201.68,77.08,199.92z M245.72,192.81
	c-6.7,0.08-12.069,5.181-11.989,11.381c0.069,6.189,5.569,11.149,12.27,11.06c6.7-0.08,12.06-5.18,11.98-11.37
	C257.91,197.68,252.41,192.73,245.72,192.81z M77.08,199.92c-0.33-0.439-0.69-0.86-1.08-1.25c-0.14-0.14-0.28-0.28-0.43-0.41
	c-0.29-0.26-0.59-0.51-0.91-0.75c-2.12-1.569-4.81-2.49-7.74-2.45c-1.27,0.021-2.49,0.21-3.64,0.561c-0.17,0.05-0.33,0.1-0.49,0.16
	c-3.48,1.22-6.2,3.88-7.3,7.189c-0.38,1.101-0.57,2.261-0.55,3.46c0.04,3,1.35,5.721,3.45,7.69c1.26,1.189,2.8,2.12,4.52,2.7
	c0.33,0.109,0.66,0.199,0.99,0.29c0.34,0.08,0.68,0.149,1.02,0.21c0.74,0.13,1.51,0.189,2.29,0.18c1.28-0.02,2.5-0.21,3.65-0.57
	c0.17-0.05,0.33-0.1,0.49-0.16c0.23-0.079,0.46-0.17,0.68-0.26c0.67-0.279,1.3-0.609,1.9-0.99c0.32-0.21,0.62-0.42,0.92-0.649
	c0.44-0.351,0.86-0.72,1.25-1.12c1.96-2.02,3.14-4.7,3.1-7.63C79.17,203.82,78.39,201.68,77.08,199.92z M245.72,192.81
	c-6.7,0.08-12.069,5.181-11.989,11.381c0.069,6.189,5.569,11.149,12.27,11.06c6.7-0.08,12.06-5.18,11.98-11.37
	C257.91,197.68,252.41,192.73,245.72,192.81z M245.72,192.81c-6.7,0.08-12.069,5.181-11.989,11.381
	c0.069,6.189,5.569,11.149,12.27,11.06c6.7-0.08,12.06-5.18,11.98-11.37C257.91,197.68,252.41,192.73,245.72,192.81z M77.08,199.92
	c-0.33-0.439-0.69-0.86-1.08-1.25c-0.14-0.14-0.28-0.28-0.43-0.41c-0.29-0.26-0.59-0.51-0.91-0.75c-2.12-1.569-4.81-2.49-7.74-2.45
	c-1.27,0.021-2.49,0.21-3.64,0.561c-0.17,0.05-0.33,0.1-0.49,0.16c-3.48,1.22-6.2,3.88-7.3,7.189c-0.38,1.101-0.57,2.261-0.55,3.46
	c0.04,3,1.35,5.721,3.45,7.69c1.26,1.189,2.8,2.12,4.52,2.7c0.33,0.109,0.66,0.199,0.99,0.29c0.34,0.08,0.68,0.149,1.02,0.21
	c0.74,0.13,1.51,0.189,2.29,0.18c1.28-0.02,2.5-0.21,3.65-0.57c0.17-0.05,0.33-0.1,0.49-0.16c0.23-0.079,0.46-0.17,0.68-0.26
	c0.67-0.279,1.3-0.609,1.9-0.99c0.32-0.21,0.62-0.42,0.92-0.649c0.44-0.351,0.86-0.72,1.25-1.12c1.96-2.02,3.14-4.7,3.1-7.63
	C79.17,203.82,78.39,201.68,77.08,199.92z M77.08,199.92c-0.33-0.439-0.69-0.86-1.08-1.25c-0.14-0.14-0.28-0.28-0.43-0.41
	c-0.29-0.26-0.59-0.51-0.91-0.75c-2.12-1.569-4.81-2.49-7.74-2.45c-1.27,0.021-2.49,0.21-3.64,0.561c-0.17,0.05-0.33,0.1-0.49,0.16
	c-3.48,1.22-6.2,3.88-7.3,7.189c-0.38,1.101-0.57,2.261-0.55,3.46c0.04,3,1.35,5.721,3.45,7.69c1.26,1.189,2.8,2.12,4.52,2.7
	c0.33,0.109,0.66,0.199,0.99,0.29c0.34,0.08,0.68,0.149,1.02,0.21c0.74,0.13,1.51,0.189,2.29,0.18c1.28-0.02,2.5-0.21,3.65-0.57
	c0.17-0.05,0.33-0.1,0.49-0.16c0.23-0.079,0.46-0.17,0.68-0.26c0.67-0.279,1.3-0.609,1.9-0.99c0.32-0.21,0.62-0.42,0.92-0.649
	c0.44-0.351,0.86-0.72,1.25-1.12c1.96-2.02,3.14-4.7,3.1-7.63C79.17,203.82,78.39,201.68,77.08,199.92z M245.72,192.81
	c-6.7,0.08-12.069,5.181-11.989,11.381c0.069,6.189,5.569,11.149,12.27,11.06c6.7-0.08,12.06-5.18,11.98-11.37
	C257.91,197.68,252.41,192.73,245.72,192.81z M77.08,199.92c-0.33-0.439-0.69-0.86-1.08-1.25c-0.14-0.14-0.28-0.28-0.43-0.41
	c-0.29-0.26-0.59-0.51-0.91-0.75c-2.12-1.569-4.81-2.49-7.74-2.45c-1.27,0.021-2.49,0.21-3.64,0.561c-0.17,0.05-0.33,0.1-0.49,0.16
	c-3.48,1.22-6.2,3.88-7.3,7.189c-0.38,1.101-0.57,2.261-0.55,3.46c0.04,3,1.35,5.721,3.45,7.69c1.26,1.189,2.8,2.12,4.52,2.7
	c0.33,0.109,0.66,0.199,0.99,0.29c0.34,0.08,0.68,0.149,1.02,0.21c0.74,0.13,1.51,0.189,2.29,0.18c1.28-0.02,2.5-0.21,3.65-0.57
	c0.17-0.05,0.33-0.1,0.49-0.16c0.23-0.079,0.46-0.17,0.68-0.26c0.67-0.279,1.3-0.609,1.9-0.99c0.32-0.21,0.62-0.42,0.92-0.649
	c0.44-0.351,0.86-0.72,1.25-1.12c1.96-2.02,3.14-4.7,3.1-7.63C79.17,203.82,78.39,201.68,77.08,199.92z M245.72,192.81
	c-6.7,0.08-12.069,5.181-11.989,11.381c0.069,6.189,5.569,11.149,12.27,11.06c6.7-0.08,12.06-5.18,11.98-11.37
	C257.91,197.68,252.41,192.73,245.72,192.81z M77.08,199.92c-0.33-0.439-0.69-0.86-1.08-1.25c-0.14-0.14-0.28-0.28-0.43-0.41
	c-0.29-0.26-0.59-0.51-0.91-0.75c-2.12-1.569-4.81-2.49-7.74-2.45c-1.27,0.021-2.49,0.21-3.64,0.561c-0.17,0.05-0.33,0.1-0.49,0.16
	c-3.48,1.22-6.2,3.88-7.3,7.189c-0.38,1.101-0.57,2.261-0.55,3.46c0.04,3,1.35,5.721,3.45,7.69c1.26,1.189,2.8,2.12,4.52,2.7
	c0.33,0.109,0.66,0.199,0.99,0.29c0.34,0.08,0.68,0.149,1.02,0.21c0.74,0.13,1.51,0.189,2.29,0.18c1.28-0.02,2.5-0.21,3.65-0.57
	c0.17-0.05,0.33-0.1,0.49-0.16c0.23-0.079,0.46-0.17,0.68-0.26c0.67-0.279,1.3-0.609,1.9-0.99c0.32-0.21,0.62-0.42,0.92-0.649
	c0.44-0.351,0.86-0.72,1.25-1.12c1.96-2.02,3.14-4.7,3.1-7.63C79.17,203.82,78.39,201.68,77.08,199.92z M245.72,192.81
	c-6.7,0.08-12.069,5.181-11.989,11.381c0.069,6.189,5.569,11.149,12.27,11.06c6.7-0.08,12.06-5.18,11.98-11.37
	C257.91,197.68,252.41,192.73,245.72,192.81z M77.08,199.92c-0.33-0.439-0.69-0.86-1.08-1.25c-0.14-0.14-0.28-0.28-0.43-0.41
	c-0.29-0.26-0.59-0.51-0.91-0.75c-2.12-1.569-4.81-2.49-7.74-2.45c-1.27,0.021-2.49,0.21-3.64,0.561c-0.17,0.05-0.33,0.1-0.49,0.16
	c-3.48,1.22-6.2,3.88-7.3,7.189c-0.38,1.101-0.57,2.261-0.55,3.46c0.04,3,1.35,5.721,3.45,7.69c1.26,1.189,2.8,2.12,4.52,2.7
	c0.33,0.109,0.66,0.199,0.99,0.29c0.34,0.08,0.68,0.149,1.02,0.21c0.74,0.13,1.51,0.189,2.29,0.18c1.28-0.02,2.5-0.21,3.65-0.57
	c0.17-0.05,0.33-0.1,0.49-0.16c0.23-0.079,0.46-0.17,0.68-0.26c0.67-0.279,1.3-0.609,1.9-0.99c0.32-0.21,0.62-0.42,0.92-0.649
	c0.44-0.351,0.86-0.72,1.25-1.12c1.96-2.02,3.14-4.7,3.1-7.63C79.17,203.82,78.39,201.68,77.08,199.92z M245.72,192.81
	c-6.7,0.08-12.069,5.181-11.989,11.381c0.069,6.189,5.569,11.149,12.27,11.06c6.7-0.08,12.06-5.18,11.98-11.37
	C257.91,197.68,252.41,192.73,245.72,192.81z M245.72,192.81c-6.7,0.08-12.069,5.181-11.989,11.381
	c0.069,6.189,5.569,11.149,12.27,11.06c6.7-0.08,12.06-5.18,11.98-11.37C257.91,197.68,252.41,192.73,245.72,192.81z M77.08,199.92
	c-0.33-0.439-0.69-0.86-1.08-1.25c-0.14-0.14-0.28-0.28-0.43-0.41c-0.29-0.26-0.59-0.51-0.91-0.75c-2.12-1.569-4.81-2.49-7.74-2.45
	c-1.27,0.021-2.49,0.21-3.64,0.561c-0.17,0.05-0.33,0.1-0.49,0.16c-3.48,1.22-6.2,3.88-7.3,7.189c-0.38,1.101-0.57,2.261-0.55,3.46
	c0.04,3,1.35,5.721,3.45,7.69c1.26,1.189,2.8,2.12,4.52,2.7c0.33,0.109,0.66,0.199,0.99,0.29c0.34,0.08,0.68,0.149,1.02,0.21
	c0.74,0.13,1.51,0.189,2.29,0.18c1.28-0.02,2.5-0.21,3.65-0.57c0.17-0.05,0.33-0.1,0.49-0.16c0.23-0.079,0.46-0.17,0.68-0.26
	c0.67-0.279,1.3-0.609,1.9-0.99c0.32-0.21,0.62-0.42,0.92-0.649c0.44-0.351,0.86-0.72,1.25-1.12c1.96-2.02,3.14-4.7,3.1-7.63
	C79.17,203.82,78.39,201.68,77.08,199.92z M77.08,199.92c-0.33-0.439-0.69-0.86-1.08-1.25c-0.14-0.14-0.28-0.28-0.43-0.41
	c-0.29-0.26-0.59-0.51-0.91-0.75c-2.12-1.569-4.81-2.49-7.74-2.45c-1.27,0.021-2.49,0.21-3.64,0.561c-0.17,0.05-0.33,0.1-0.49,0.16
	c-3.48,1.22-6.2,3.88-7.3,7.189c-0.38,1.101-0.57,2.261-0.55,3.46c0.04,3,1.35,5.721,3.45,7.69c1.26,1.189,2.8,2.12,4.52,2.7
	c0.33,0.109,0.66,0.199,0.99,0.29c0.34,0.08,0.68,0.149,1.02,0.21c0.74,0.13,1.51,0.189,2.29,0.18c1.28-0.02,2.5-0.21,3.65-0.57
	c0.17-0.05,0.33-0.1,0.49-0.16c0.23-0.079,0.46-0.17,0.68-0.26c0.67-0.279,1.3-0.609,1.9-0.99c0.32-0.21,0.62-0.42,0.92-0.649
	c0.44-0.351,0.86-0.72,1.25-1.12c1.96-2.02,3.14-4.7,3.1-7.63C79.17,203.82,78.39,201.68,77.08,199.92z M245.72,192.81
	c-6.7,0.08-12.069,5.181-11.989,11.381c0.069,6.189,5.569,11.149,12.27,11.06c6.7-0.08,12.06-5.18,11.98-11.37
	C257.91,197.68,252.41,192.73,245.72,192.81z M245.72,192.81c-6.7,0.08-12.069,5.181-11.989,11.381
	c0.069,6.189,5.569,11.149,12.27,11.06c6.7-0.08,12.06-5.18,11.98-11.37C257.91,197.68,252.41,192.73,245.72,192.81z M77.08,199.92
	c-0.33-0.439-0.69-0.86-1.08-1.25c-0.14-0.14-0.28-0.28-0.43-0.41c-0.29-0.26-0.59-0.51-0.91-0.75c-2.12-1.569-4.81-2.49-7.74-2.45
	c-1.27,0.021-2.49,0.21-3.64,0.561c-0.17,0.05-0.33,0.1-0.49,0.16c-3.48,1.22-6.2,3.88-7.3,7.189c-0.38,1.101-0.57,2.261-0.55,3.46
	c0.04,3,1.35,5.721,3.45,7.69c1.26,1.189,2.8,2.12,4.52,2.7c0.33,0.109,0.66,0.199,0.99,0.29c0.34,0.08,0.68,0.149,1.02,0.21
	c0.74,0.13,1.51,0.189,2.29,0.18c1.28-0.02,2.5-0.21,3.65-0.57c0.17-0.05,0.33-0.1,0.49-0.16c0.23-0.079,0.46-0.17,0.68-0.26
	c0.67-0.279,1.3-0.609,1.9-0.99c0.32-0.21,0.62-0.42,0.92-0.649c0.44-0.351,0.86-0.72,1.25-1.12c1.96-2.02,3.14-4.7,3.1-7.63
	C79.17,203.82,78.39,201.68,77.08,199.92z M245.72,192.81c-6.7,0.08-12.069,5.181-11.989,11.381
	c0.069,6.189,5.569,11.149,12.27,11.06c6.7-0.08,12.06-5.18,11.98-11.37C257.91,197.68,252.41,192.73,245.72,192.81z M77.08,199.92
	c-0.33-0.439-0.69-0.86-1.08-1.25c-0.14-0.14-0.28-0.28-0.43-0.41c-0.29-0.26-0.59-0.51-0.91-0.75c-2.12-1.569-4.81-2.49-7.74-2.45
	c-1.27,0.021-2.49,0.21-3.64,0.561c-0.17,0.05-0.33,0.1-0.49,0.16c-3.48,1.22-6.2,3.88-7.3,7.189c-0.38,1.101-0.57,2.261-0.55,3.46
	c0.04,3,1.35,5.721,3.45,7.69c1.26,1.189,2.8,2.12,4.52,2.7c0.33,0.109,0.66,0.199,0.99,0.29c0.34,0.08,0.68,0.149,1.02,0.21
	c0.74,0.13,1.51,0.189,2.29,0.18c1.28-0.02,2.5-0.21,3.65-0.57c0.17-0.05,0.33-0.1,0.49-0.16c0.23-0.079,0.46-0.17,0.68-0.26
	c0.67-0.279,1.3-0.609,1.9-0.99c0.32-0.21,0.62-0.42,0.92-0.649c0.44-0.351,0.86-0.72,1.25-1.12c1.96-2.02,3.14-4.7,3.1-7.63
	C79.17,203.82,78.39,201.68,77.08,199.92z M245.72,192.81c-6.7,0.08-12.069,5.181-11.989,11.381
	c0.069,6.189,5.569,11.149,12.27,11.06c6.7-0.08,12.06-5.18,11.98-11.37C257.91,197.68,252.41,192.73,245.72,192.81z M77.08,199.92
	c-0.33-0.439-0.69-0.86-1.08-1.25c-0.14-0.14-0.28-0.28-0.43-0.41c-0.29-0.26-0.59-0.51-0.91-0.75c-2.12-1.569-4.81-2.49-7.74-2.45
	c-1.27,0.021-2.49,0.21-3.64,0.561c-0.17,0.05-0.33,0.1-0.49,0.16c-3.48,1.22-6.2,3.88-7.3,7.189c-0.38,1.101-0.57,2.261-0.55,3.46
	c0.04,3,1.35,5.721,3.45,7.69c1.26,1.189,2.8,2.12,4.52,2.7c0.33,0.109,0.66,0.199,0.99,0.29c0.34,0.08,0.68,0.149,1.02,0.21
	c0.74,0.13,1.51,0.189,2.29,0.18c1.28-0.02,2.5-0.21,3.65-0.57c0.17-0.05,0.33-0.1,0.49-0.16c0.23-0.079,0.46-0.17,0.68-0.26
	c0.67-0.279,1.3-0.609,1.9-0.99c0.32-0.21,0.62-0.42,0.92-0.649c0.44-0.351,0.86-0.72,1.25-1.12c1.96-2.02,3.14-4.7,3.1-7.63
	C79.17,203.82,78.39,201.68,77.08,199.92z M245.72,192.81c-6.7,0.08-12.069,5.181-11.989,11.381
	c0.069,6.189,5.569,11.149,12.27,11.06c6.7-0.08,12.06-5.18,11.98-11.37C257.91,197.68,252.41,192.73,245.72,192.81z M77.08,199.92
	c-0.33-0.439-0.69-0.86-1.08-1.25c-0.14-0.14-0.28-0.28-0.43-0.41c-0.29-0.26-0.59-0.51-0.91-0.75c-2.12-1.569-4.81-2.49-7.74-2.45
	c-1.27,0.021-2.49,0.21-3.64,0.561c-0.17,0.05-0.33,0.1-0.49,0.16c-3.48,1.22-6.2,3.88-7.3,7.189c-0.38,1.101-0.57,2.261-0.55,3.46
	c0.04,3,1.35,5.721,3.45,7.69c1.26,1.189,2.8,2.12,4.52,2.7c0.33,0.109,0.66,0.199,0.99,0.29c0.34,0.08,0.68,0.149,1.02,0.21
	c0.74,0.13,1.51,0.189,2.29,0.18c1.28-0.02,2.5-0.21,3.65-0.57c0.17-0.05,0.33-0.1,0.49-0.16c0.23-0.079,0.46-0.17,0.68-0.26
	c0.67-0.279,1.3-0.609,1.9-0.99c0.32-0.21,0.62-0.42,0.92-0.649c0.44-0.351,0.86-0.72,1.25-1.12c1.96-2.02,3.14-4.7,3.1-7.63
	C79.17,203.82,78.39,201.68,77.08,199.92z M245.72,192.81c-6.7,0.08-12.069,5.181-11.989,11.381
	c0.069,6.189,5.569,11.149,12.27,11.06c6.7-0.08,12.06-5.18,11.98-11.37C257.91,197.68,252.41,192.73,245.72,192.81z M77.08,199.92
	c-0.33-0.439-0.69-0.86-1.08-1.25c-0.14-0.14-0.28-0.28-0.43-0.41c-0.29-0.26-0.59-0.51-0.91-0.75c-2.12-1.569-4.81-2.49-7.74-2.45
	c-1.27,0.021-2.49,0.21-3.64,0.561c-0.17,0.05-0.33,0.1-0.49,0.16c-3.48,1.22-6.2,3.88-7.3,7.189c-0.38,1.101-0.57,2.261-0.55,3.46
	c0.04,3,1.35,5.721,3.45,7.69c1.26,1.189,2.8,2.12,4.52,2.7c0.33,0.109,0.66,0.199,0.99,0.29c0.34,0.08,0.68,0.149,1.02,0.21
	c0.74,0.13,1.51,0.189,2.29,0.18c1.28-0.02,2.5-0.21,3.65-0.57c0.17-0.05,0.33-0.1,0.49-0.16c0.23-0.079,0.46-0.17,0.68-0.26
	c0.67-0.279,1.3-0.609,1.9-0.99c0.32-0.21,0.62-0.42,0.92-0.649c0.44-0.351,0.86-0.72,1.25-1.12c1.96-2.02,3.14-4.7,3.1-7.63
	C79.17,203.82,78.39,201.68,77.08,199.92z"/>
<path fill="#FFFFFF" d="M282.22,242.77l-250.31,3.15l0.14,11.55c0.04,3.271,2.95,5.891,6.49,5.851l237.49-2.98
	c3.54-0.05,6.38-2.74,6.34-6.02L282.22,242.77z M196.36,258.39l-78.22,0.98c-1.94,0.03-3.53-1.41-3.56-3.2l-0.07-6.21
	c-0.03-1.8,1.55-2.15,3.48-2.18l78.22-0.98c1.95-0.02,3.521,0.29,3.54,2.09l0.08,6.2C199.85,256.89,198.3,258.37,196.36,258.39z"/>
<path fill="#C6C6C6" d="M199.83,255.09c0.02,1.8-1.53,3.28-3.47,3.3l-78.22,0.98c-1.94,0.03-3.53-1.41-3.56-3.2l-0.07-6.21
	c-0.03-1.8,1.55-2.15,3.48-2.18l78.22-0.98c1.95-0.02,3.521,0.29,3.54,2.09L199.83,255.09z"/>
<path fill="#FFFFFF" d="M280.636,134.422l0.089,6.871l-250.316,3.145l-0.085-6.871c-0.042-3.275,2.798-5.97,6.338-6.015
	l237.491-2.981C277.689,128.525,280.596,131.149,280.636,134.422z"/>
<path fill="#E0A30A" d="M77.08,199.92c-0.33-0.439-0.69-0.86-1.08-1.25c-0.14-0.14-0.28-0.28-0.43-0.41
	c-0.29-0.26-0.59-0.51-0.91-0.75c-2.12-1.569-4.81-2.49-7.74-2.45c-1.27,0.021-2.49,0.21-3.64,0.561c-0.17,0.05-0.33,0.1-0.49,0.16
	c-3.48,1.22-6.2,3.88-7.3,7.189c-0.38,1.101-0.57,2.261-0.55,3.46c0.04,3,1.35,5.721,3.45,7.69c1.26,1.189,2.8,2.12,4.52,2.7
	c0.33,0.109,0.66,0.199,0.99,0.29c0.34,0.08,0.68,0.149,1.02,0.21c0.74,0.13,1.51,0.189,2.29,0.18c1.28-0.02,2.5-0.21,3.65-0.57
	c0.17-0.05,0.33-0.1,0.49-0.16c0.23-0.079,0.46-0.17,0.68-0.26c0.67-0.279,1.3-0.609,1.9-0.99c0.32-0.21,0.62-0.42,0.92-0.649
	c0.44-0.351,0.86-0.72,1.25-1.12c1.96-2.02,3.14-4.7,3.1-7.63C79.17,203.82,78.39,201.68,77.08,199.92z M77.08,199.92
	c-0.33-0.439-0.69-0.86-1.08-1.25c-0.14-0.14-0.28-0.28-0.43-0.41c-0.29-0.26-0.59-0.51-0.91-0.75c-2.12-1.569-4.81-2.49-7.74-2.45
	c-1.27,0.021-2.49,0.21-3.64,0.561c-0.17,0.05-0.33,0.1-0.49,0.16c-3.48,1.22-6.2,3.88-7.3,7.189c-0.38,1.101-0.57,2.261-0.55,3.46
	c0.04,3,1.35,5.721,3.45,7.69c1.26,1.189,2.8,2.12,4.52,2.7c0.33,0.109,0.66,0.199,0.99,0.29c0.34,0.08,0.68,0.149,1.02,0.21
	c0.74,0.13,1.51,0.189,2.29,0.18c1.28-0.02,2.5-0.21,3.65-0.57c0.17-0.05,0.33-0.1,0.49-0.16c0.23-0.079,0.46-0.17,0.68-0.26
	c0.67-0.279,1.3-0.609,1.9-0.99c0.32-0.21,0.62-0.42,0.92-0.649c0.44-0.351,0.86-0.72,1.25-1.12c1.96-2.02,3.14-4.7,3.1-7.63
	C79.17,203.82,78.39,201.68,77.08,199.92z M77.08,199.92c-0.33-0.439-0.69-0.86-1.08-1.25c-0.14-0.14-0.28-0.28-0.43-0.41
	c-0.29-0.26-0.59-0.51-0.91-0.75c-2.12-1.569-4.81-2.49-7.74-2.45c-1.27,0.021-2.49,0.21-3.64,0.561c-0.17,0.05-0.33,0.1-0.49,0.16
	c-3.48,1.22-6.2,3.88-7.3,7.189c-0.38,1.101-0.57,2.261-0.55,3.46c0.04,3,1.35,5.721,3.45,7.69c1.26,1.189,2.8,2.12,4.52,2.7
	c0.33,0.109,0.66,0.199,0.99,0.29c0.34,0.08,0.68,0.149,1.02,0.21c0.74,0.13,1.51,0.189,2.29,0.18c1.28-0.02,2.5-0.21,3.65-0.57
	c0.17-0.05,0.33-0.1,0.49-0.16c0.23-0.079,0.46-0.17,0.68-0.26c0.67-0.279,1.3-0.609,1.9-0.99c0.32-0.21,0.62-0.42,0.92-0.649
	c0.44-0.351,0.86-0.72,1.25-1.12c1.96-2.02,3.14-4.7,3.1-7.63C79.17,203.82,78.39,201.68,77.08,199.92z M245.72,192.81
	c-6.7,0.08-12.069,5.181-11.989,11.381c0.069,6.189,5.569,11.149,12.27,11.06c6.7-0.08,12.06-5.18,11.98-11.37
	C257.91,197.68,252.41,192.73,245.72,192.81z M245.72,192.81c-6.7,0.08-12.069,5.181-11.989,11.381
	c0.069,6.189,5.569,11.149,12.27,11.06c6.7-0.08,12.06-5.18,11.98-11.37C257.91,197.68,252.41,192.73,245.72,192.81z M77.08,199.92
	c-0.33-0.439-0.69-0.86-1.08-1.25c-0.14-0.14-0.28-0.28-0.43-0.41c-0.29-0.26-0.59-0.51-0.91-0.75c-2.12-1.569-4.81-2.49-7.74-2.45
	c-1.27,0.021-2.49,0.21-3.64,0.561c-0.17,0.05-0.33,0.1-0.49,0.16c-3.48,1.22-6.2,3.88-7.3,7.189c-0.38,1.101-0.57,2.261-0.55,3.46
	c0.04,3,1.35,5.721,3.45,7.69c1.26,1.189,2.8,2.12,4.52,2.7c0.33,0.109,0.66,0.199,0.99,0.29c0.34,0.08,0.68,0.149,1.02,0.21
	c0.74,0.13,1.51,0.189,2.29,0.18c1.28-0.02,2.5-0.21,3.65-0.57c0.17-0.05,0.33-0.1,0.49-0.16c0.23-0.079,0.46-0.17,0.68-0.26
	c0.67-0.279,1.3-0.609,1.9-0.99c0.32-0.21,0.62-0.42,0.92-0.649c0.44-0.351,0.86-0.72,1.25-1.12c1.96-2.02,3.14-4.7,3.1-7.63
	C79.17,203.82,78.39,201.68,77.08,199.92z M77.08,199.92c-0.33-0.439-0.69-0.86-1.08-1.25c-0.14-0.14-0.28-0.28-0.43-0.41
	c-0.29-0.26-0.59-0.51-0.91-0.75c-2.12-1.569-4.81-2.49-7.74-2.45c-1.27,0.021-2.49,0.21-3.64,0.561c-0.17,0.05-0.33,0.1-0.49,0.16
	c-3.48,1.22-6.2,3.88-7.3,7.189c-0.38,1.101-0.57,2.261-0.55,3.46c0.04,3,1.35,5.721,3.45,7.69c1.26,1.189,2.8,2.12,4.52,2.7
	c0.33,0.109,0.66,0.199,0.99,0.29c0.34,0.08,0.68,0.149,1.02,0.21c0.74,0.13,1.51,0.189,2.29,0.18c1.28-0.02,2.5-0.21,3.65-0.57
	c0.17-0.05,0.33-0.1,0.49-0.16c0.23-0.079,0.46-0.17,0.68-0.26c0.67-0.279,1.3-0.609,1.9-0.99c0.32-0.21,0.62-0.42,0.92-0.649
	c0.44-0.351,0.86-0.72,1.25-1.12c1.96-2.02,3.14-4.7,3.1-7.63C79.17,203.82,78.39,201.68,77.08,199.92z M245.72,192.81
	c-6.7,0.08-12.069,5.181-11.989,11.381c0.069,6.189,5.569,11.149,12.27,11.06c6.7-0.08,12.06-5.18,11.98-11.37
	C257.91,197.68,252.41,192.73,245.72,192.81z M245.72,192.81c-6.7,0.08-12.069,5.181-11.989,11.381
	c0.069,6.189,5.569,11.149,12.27,11.06c6.7-0.08,12.06-5.18,11.98-11.37C257.91,197.68,252.41,192.73,245.72,192.81z M77.08,199.92
	c-0.33-0.439-0.69-0.86-1.08-1.25c-0.14-0.14-0.28-0.28-0.43-0.41c-0.29-0.26-0.59-0.51-0.91-0.75c-2.12-1.569-4.81-2.49-7.74-2.45
	c-1.27,0.021-2.49,0.21-3.64,0.561c-0.17,0.05-0.33,0.1-0.49,0.16c-3.48,1.22-6.2,3.88-7.3,7.189c-0.38,1.101-0.57,2.261-0.55,3.46
	c0.04,3,1.35,5.721,3.45,7.69c1.26,1.189,2.8,2.12,4.52,2.7c0.33,0.109,0.66,0.199,0.99,0.29c0.34,0.08,0.68,0.149,1.02,0.21
	c0.74,0.13,1.51,0.189,2.29,0.18c1.28-0.02,2.5-0.21,3.65-0.57c0.17-0.05,0.33-0.1,0.49-0.16c0.23-0.079,0.46-0.17,0.68-0.26
	c0.67-0.279,1.3-0.609,1.9-0.99c0.32-0.21,0.62-0.42,0.92-0.649c0.44-0.351,0.86-0.72,1.25-1.12c1.96-2.02,3.14-4.7,3.1-7.63
	C79.17,203.82,78.39,201.68,77.08,199.92z M77.08,199.92c-0.33-0.439-0.69-0.86-1.08-1.25c-0.14-0.14-0.28-0.28-0.43-0.41
	c-0.29-0.26-0.59-0.51-0.91-0.75c-2.12-1.569-4.81-2.49-7.74-2.45c-1.27,0.021-2.49,0.21-3.64,0.561c-0.17,0.05-0.33,0.1-0.49,0.16
	c-3.48,1.22-6.2,3.88-7.3,7.189c-0.38,1.101-0.57,2.261-0.55,3.46c0.04,3,1.35,5.721,3.45,7.69c1.26,1.189,2.8,2.12,4.52,2.7
	c0.33,0.109,0.66,0.199,0.99,0.29c0.34,0.08,0.68,0.149,1.02,0.21c0.74,0.13,1.51,0.189,2.29,0.18c1.28-0.02,2.5-0.21,3.65-0.57
	c0.17-0.05,0.33-0.1,0.49-0.16c0.23-0.079,0.46-0.17,0.68-0.26c0.67-0.279,1.3-0.609,1.9-0.99c0.32-0.21,0.62-0.42,0.92-0.649
	c0.44-0.351,0.86-0.72,1.25-1.12c1.96-2.02,3.14-4.7,3.1-7.63C79.17,203.82,78.39,201.68,77.08,199.92z M245.72,192.81
	c-6.7,0.08-12.069,5.181-11.989,11.381c0.069,6.189,5.569,11.149,12.27,11.06c6.7-0.08,12.06-5.18,11.98-11.37
	C257.91,197.68,252.41,192.73,245.72,192.81z M77.08,199.92c-0.33-0.439-0.69-0.86-1.08-1.25c-0.14-0.14-0.28-0.28-0.43-0.41
	c-0.29-0.26-0.59-0.51-0.91-0.75c-2.12-1.569-4.81-2.49-7.74-2.45c-1.27,0.021-2.49,0.21-3.64,0.561c-0.17,0.05-0.33,0.1-0.49,0.16
	c-3.48,1.22-6.2,3.88-7.3,7.189c-0.38,1.101-0.57,2.261-0.55,3.46c0.04,3,1.35,5.721,3.45,7.69c1.26,1.189,2.8,2.12,4.52,2.7
	c0.33,0.109,0.66,0.199,0.99,0.29c0.34,0.08,0.68,0.149,1.02,0.21c0.74,0.13,1.51,0.189,2.29,0.18c1.28-0.02,2.5-0.21,3.65-0.57
	c0.17-0.05,0.33-0.1,0.49-0.16c0.23-0.079,0.46-0.17,0.68-0.26c0.67-0.279,1.3-0.609,1.9-0.99c0.32-0.21,0.62-0.42,0.92-0.649
	c0.44-0.351,0.86-0.72,1.25-1.12c1.96-2.02,3.14-4.7,3.1-7.63C79.17,203.82,78.39,201.68,77.08,199.92z M245.72,192.81
	c-6.7,0.08-12.069,5.181-11.989,11.381c0.069,6.189,5.569,11.149,12.27,11.06c6.7-0.08,12.06-5.18,11.98-11.37
	C257.91,197.68,252.41,192.73,245.72,192.81z M245.72,192.81c-6.7,0.08-12.069,5.181-11.989,11.381
	c0.069,6.189,5.569,11.149,12.27,11.06c6.7-0.08,12.06-5.18,11.98-11.37C257.91,197.68,252.41,192.73,245.72,192.81z M77.08,199.92
	c-0.33-0.439-0.69-0.86-1.08-1.25c-0.14-0.14-0.28-0.28-0.43-0.41c-0.29-0.26-0.59-0.51-0.91-0.75c-2.12-1.569-4.81-2.49-7.74-2.45
	c-1.27,0.021-2.49,0.21-3.64,0.561c-0.17,0.05-0.33,0.1-0.49,0.16c-3.48,1.22-6.2,3.88-7.3,7.189c-0.38,1.101-0.57,2.261-0.55,3.46
	c0.04,3,1.35,5.721,3.45,7.69c1.26,1.189,2.8,2.12,4.52,2.7c0.33,0.109,0.66,0.199,0.99,0.29c0.34,0.08,0.68,0.149,1.02,0.21
	c0.74,0.13,1.51,0.189,2.29,0.18c1.28-0.02,2.5-0.21,3.65-0.57c0.17-0.05,0.33-0.1,0.49-0.16c0.23-0.079,0.46-0.17,0.68-0.26
	c0.67-0.279,1.3-0.609,1.9-0.99c0.32-0.21,0.62-0.42,0.92-0.649c0.44-0.351,0.86-0.72,1.25-1.12c1.96-2.02,3.14-4.7,3.1-7.63
	C79.17,203.82,78.39,201.68,77.08,199.92z M77.08,199.92c-0.33-0.439-0.69-0.86-1.08-1.25c-0.14-0.14-0.28-0.28-0.43-0.41
	c-0.29-0.26-0.59-0.51-0.91-0.75c-2.12-1.569-4.81-2.49-7.74-2.45c-1.27,0.021-2.49,0.21-3.64,0.561c-0.17,0.05-0.33,0.1-0.49,0.16
	c-3.48,1.22-6.2,3.88-7.3,7.189c-0.38,1.101-0.57,2.261-0.55,3.46c0.04,3,1.35,5.721,3.45,7.69c1.26,1.189,2.8,2.12,4.52,2.7
	c0.33,0.109,0.66,0.199,0.99,0.29c0.34,0.08,0.68,0.149,1.02,0.21c0.74,0.13,1.51,0.189,2.29,0.18c1.28-0.02,2.5-0.21,3.65-0.57
	c0.17-0.05,0.33-0.1,0.49-0.16c0.23-0.079,0.46-0.17,0.68-0.26c0.67-0.279,1.3-0.609,1.9-0.99c0.32-0.21,0.62-0.42,0.92-0.649
	c0.44-0.351,0.86-0.72,1.25-1.12c1.96-2.02,3.14-4.7,3.1-7.63C79.17,203.82,78.39,201.68,77.08,199.92z M245.72,192.81
	c-6.7,0.08-12.069,5.181-11.989,11.381c0.069,6.189,5.569,11.149,12.27,11.06c6.7-0.08,12.06-5.18,11.98-11.37
	C257.91,197.68,252.41,192.73,245.72,192.81z M245.72,192.81c-6.7,0.08-12.069,5.181-11.989,11.381
	c0.069,6.189,5.569,11.149,12.27,11.06c6.7-0.08,12.06-5.18,11.98-11.37C257.91,197.68,252.41,192.73,245.72,192.81z M77.08,199.92
	c-0.33-0.439-0.69-0.86-1.08-1.25c-0.14-0.14-0.28-0.28-0.43-0.41c-0.29-0.26-0.59-0.51-0.91-0.75c-2.12-1.569-4.81-2.49-7.74-2.45
	c-1.27,0.021-2.49,0.21-3.64,0.561c-0.17,0.05-0.33,0.1-0.49,0.16c-3.48,1.22-6.2,3.88-7.3,7.189c-0.38,1.101-0.57,2.261-0.55,3.46
	c0.04,3,1.35,5.721,3.45,7.69c1.26,1.189,2.8,2.12,4.52,2.7c0.33,0.109,0.66,0.199,0.99,0.29c0.34,0.08,0.68,0.149,1.02,0.21
	c0.74,0.13,1.51,0.189,2.29,0.18c1.28-0.02,2.5-0.21,3.65-0.57c0.17-0.05,0.33-0.1,0.49-0.16c0.23-0.079,0.46-0.17,0.68-0.26
	c0.67-0.279,1.3-0.609,1.9-0.99c0.32-0.21,0.62-0.42,0.92-0.649c0.44-0.351,0.86-0.72,1.25-1.12c1.96-2.02,3.14-4.7,3.1-7.63
	C79.17,203.82,78.39,201.68,77.08,199.92z M77.08,199.92c-0.33-0.439-0.69-0.86-1.08-1.25c-0.14-0.14-0.28-0.28-0.43-0.41
	c-0.29-0.26-0.59-0.51-0.91-0.75c-2.12-1.569-4.81-2.49-7.74-2.45c-1.27,0.021-2.49,0.21-3.64,0.561c-0.17,0.05-0.33,0.1-0.49,0.16
	c-3.48,1.22-6.2,3.88-7.3,7.189c-0.38,1.101-0.57,2.261-0.55,3.46c0.04,3,1.35,5.721,3.45,7.69c1.26,1.189,2.8,2.12,4.52,2.7
	c0.33,0.109,0.66,0.199,0.99,0.29c0.34,0.08,0.68,0.149,1.02,0.21c0.74,0.13,1.51,0.189,2.29,0.18c1.28-0.02,2.5-0.21,3.65-0.57
	c0.17-0.05,0.33-0.1,0.49-0.16c0.23-0.079,0.46-0.17,0.68-0.26c0.67-0.279,1.3-0.609,1.9-0.99c0.32-0.21,0.62-0.42,0.92-0.649
	c0.44-0.351,0.86-0.72,1.25-1.12c1.96-2.02,3.14-4.7,3.1-7.63C79.17,203.82,78.39,201.68,77.08,199.92z M245.72,192.81
	c-6.7,0.08-12.069,5.181-11.989,11.381c0.069,6.189,5.569,11.149,12.27,11.06c6.7-0.08,12.06-5.18,11.98-11.37
	C257.91,197.68,252.41,192.73,245.72,192.81z M245.72,192.81c-6.7,0.08-12.069,5.181-11.989,11.381
	c0.069,6.189,5.569,11.149,12.27,11.06c6.7-0.08,12.06-5.18,11.98-11.37C257.91,197.68,252.41,192.73,245.72,192.81z M77.08,199.92
	c-0.33-0.439-0.69-0.86-1.08-1.25c-0.14-0.14-0.28-0.28-0.43-0.41c-0.29-0.26-0.59-0.51-0.91-0.75c-2.12-1.569-4.81-2.49-7.74-2.45
	c-1.27,0.021-2.49,0.21-3.64,0.561c-0.17,0.05-0.33,0.1-0.49,0.16c-3.48,1.22-6.2,3.88-7.3,7.189c-0.38,1.101-0.57,2.261-0.55,3.46
	c0.04,3,1.35,5.721,3.45,7.69c1.26,1.189,2.8,2.12,4.52,2.7c0.33,0.109,0.66,0.199,0.99,0.29c0.34,0.08,0.68,0.149,1.02,0.21
	c0.74,0.13,1.51,0.189,2.29,0.18c1.28-0.02,2.5-0.21,3.65-0.57c0.17-0.05,0.33-0.1,0.49-0.16c0.23-0.079,0.46-0.17,0.68-0.26
	c0.67-0.279,1.3-0.609,1.9-0.99c0.32-0.21,0.62-0.42,0.92-0.649c0.44-0.351,0.86-0.72,1.25-1.12c1.96-2.02,3.14-4.7,3.1-7.63
	C79.17,203.82,78.39,201.68,77.08,199.92z"/>
<path fill="#001526" d="M280.82,140.62L30.51,143.77l1.28,102.17h0.12l250.2-3.141v-0.03L280.82,140.62z M232.09,155.4l18.43-0.23
	c1.94-0.02,3.53,1.41,3.561,3.22l0.13,11.209c0.03,1.79-1.53,3.271-3.47,3.301l-18.431,0.229c-1.93,0.021-3.529-1.42-3.56-3.21
	l-0.13-11.21C228.6,156.9,230.16,155.43,232.09,155.4z M61.18,157.55l18.43-0.23c1.93-0.03,3.53,1.41,3.55,3.2l0.14,11.23
	c0.03,1.79-1.53,3.27-3.47,3.29l-18.43,0.24c-1.93,0.02-3.53-1.42-3.56-3.221l-0.13-11.209C57.68,159.05,59.24,157.58,61.18,157.55z
	 M67.27,222.54c-9.7,0.12-17.66-7.05-17.78-16.04c-0.11-8.99,7.67-16.36,17.37-16.49c9.71-0.12,17.66,7.061,17.78,16.05
	C84.76,215.04,76.98,222.42,67.27,222.54z M156.86,236.84c-23.38,0.3-42.581-18.42-42.88-41.81c-0.3-23.38,18.43-42.58,41.81-42.87
	c23.39-0.3,42.58,18.42,42.88,41.81C198.96,217.35,180.25,236.55,156.86,236.84z M246.06,220.3c-9.71,0.12-17.67-7.06-17.779-16.05
	c-0.11-8.98,7.67-16.36,17.37-16.48c9.72-0.13,17.67,7.051,17.779,16.04C263.55,212.8,255.77,220.17,246.06,220.3z"/>
<path fill="#E5E5E5" d="M254.21,169.6c0.03,1.79-1.53,3.271-3.47,3.301l-18.431,0.229c-1.93,0.021-3.529-1.42-3.56-3.21l-0.13-11.21
	c-0.021-1.81,1.54-3.28,3.47-3.31l18.43-0.23c1.94-0.02,3.53,1.41,3.561,3.22L254.21,169.6z"/>
<path fill="#E5E5E5" d="M83.3,171.75c0.03,1.79-1.53,3.27-3.47,3.29l-18.43,0.24c-1.93,0.02-3.53-1.42-3.56-3.221l-0.13-11.209
	c-0.03-1.8,1.53-3.27,3.47-3.3l18.43-0.23c1.93-0.03,3.53,1.41,3.55,3.2L83.3,171.75z"/>
<path fill="#E5E5E5" d="M245.65,187.77c-9.7,0.12-17.48,7.5-17.37,16.48c0.109,8.99,8.069,16.17,17.779,16.05
	c9.71-0.13,17.49-7.5,17.37-16.49C263.32,194.82,255.37,187.64,245.65,187.77z M246,215.25c-6.7,0.09-12.2-4.87-12.27-11.06
	c-0.08-6.2,5.289-11.301,11.989-11.381c6.69-0.079,12.19,4.87,12.261,11.07C258.06,210.07,252.7,215.17,246,215.25z"/>
<path fill="#E5E5E5" d="M66.86,190.01c-9.7,0.13-17.48,7.5-17.37,16.49c0.12,8.99,8.08,16.16,17.78,16.04
	c9.71-0.12,17.49-7.5,17.37-16.48C84.52,197.07,76.57,189.89,66.86,190.01z M76.1,213.75c-0.38,0.4-0.8,0.78-1.25,1.12
	c-0.3,0.229-0.61,0.45-0.92,0.649c-0.8,0.511-1.66,0.931-2.58,1.25c-1.29,0.461-2.68,0.711-4.14,0.73c-1.51,0.02-2.96-0.22-4.3-0.68
	c-4.6-1.54-7.91-5.59-7.97-10.391c-0.02-1.199,0.17-2.359,0.55-3.46c1.1-3.31,3.82-5.97,7.3-7.189c1.29-0.46,2.68-0.71,4.14-0.73
	c3.58-0.05,6.82,1.351,9.07,3.62c0.39,0.38,0.76,0.8,1.08,1.25c1.31,1.76,2.09,3.9,2.12,6.2C79.24,209.05,78.06,211.73,76.1,213.75z
	"/>
<path fill="#E5E5E5" d="M155.79,152.16c-23.38,0.29-42.11,19.49-41.81,42.87c0.3,23.39,19.5,42.109,42.88,41.81
	c23.39-0.29,42.1-19.49,41.81-42.87C198.37,170.58,179.18,151.86,155.79,152.16z M188.85,209.27l-4.649,1.24l1.25,4.65l-4.8,0.33
	l0.35,4.81l-4.78-0.59l-0.56,4.79l-4.59-1.48l-1.46,4.591l-4.221-2.311l-2.3,4.23l-3.71-3.08l-3.06,3.729l-3.05-3.729l-3.71,3.08
	l-2.3-4.23l-4.22,2.311l-1.46-4.591l-4.59,1.48l-0.56-4.79l-4.78,0.59l0.35-4.81l-4.8-0.33l1.25-4.65l-4.65-1.24l2.11-4.329
	l-4.34-2.091l2.9-3.85l-3.86-2.88l3.57-3.23l-3.25-3.56l4.12-2.5l-2.52-4.11l4.52-1.67l-1.69-4.51l4.75-0.79L129.3,171l4.82,0.13
	l0.1-4.82l4.7,1.03l1.02-4.71l4.42,1.91l1.89-4.43l3.98,2.71l2.69-4l3.4,3.42l3.399-3.42l2.7,4l3.98-2.71l1.89,4.43l4.42-1.91
	l1.01,4.71l4.71-1.03l0.101,4.82l4.819-0.13l-0.81,4.75l4.75,0.79l-1.69,4.51l4.521,1.67l-2.521,4.11l4.12,2.5l-3.25,3.56l3.57,3.23
	l-3.86,2.88l2.891,3.85l-4.33,2.091L188.85,209.27z"/>
<path fill="#E0A30A" d="M79.2,206.12c0.04,2.93-1.14,5.61-3.1,7.63c-0.39,0.4-0.81,0.77-1.25,1.12c-0.3,0.229-0.6,0.439-0.92,0.649
	c-0.8,0.5-1.66,0.931-2.58,1.25c-1.29,0.45-2.68,0.7-4.13,0.721c-1.51,0.02-2.96-0.221-4.31-0.67c-4.59-1.54-7.9-5.601-7.96-10.4
	c-0.02-1.2,0.17-2.36,0.54-3.45c1.1-3.31,3.82-5.97,7.3-7.189c1.29-0.46,2.68-0.71,4.14-0.73c3.58-0.05,6.82,1.351,9.07,3.62
	c0.39,0.38,0.76,0.8,1.08,1.25C78.39,201.68,79.17,203.82,79.2,206.12z"/>
<path fill="#E0A30A" d="M257.982,203.881c0.078,6.194-5.291,11.29-11.985,11.374c-6.696,0.082-12.19-4.873-12.269-11.068
	c-0.08-6.2,5.289-11.293,11.985-11.377C252.413,192.726,257.904,197.681,257.982,203.881z"/>
<path fill="#E0A30A" d="M79.2,206.12c0.04,2.93-1.14,5.61-3.1,7.63c-0.39,0.4-0.81,0.77-1.25,1.12c-0.3,0.229-0.6,0.439-0.92,0.649
	c-0.8,0.5-1.66,0.931-2.58,1.25c-1.29,0.45-2.68,0.7-4.13,0.721c-1.51,0.02-2.96-0.221-4.31-0.67c-4.59-1.54-7.9-5.601-7.96-10.4
	c-0.02-1.2,0.17-2.36,0.54-3.45c1.1-3.31,3.82-5.97,7.3-7.189c1.29-0.46,2.68-0.71,4.14-0.73c3.58-0.05,6.82,1.351,9.07,3.62
	c0.39,0.38,0.76,0.8,1.08,1.25C78.39,201.68,79.17,203.82,79.2,206.12z"/>
<path fill="#E0A30A" d="M257.982,203.881c0.078,6.194-5.291,11.29-11.985,11.374c-6.696,0.082-12.19-4.873-12.269-11.068
	c-0.08-6.2,5.289-11.293,11.985-11.377C252.413,192.726,257.904,197.681,257.982,203.881z"/>
<g opacity="0.75">
	<path fill="#FFFFFF" d="M171.494,59.715l0.044,3.59c0.022,1.795-1.535,3.273-3.474,3.297l-26.91,0.34
		c-1.939,0.021-3.534-1.414-3.557-3.21l-0.045-3.589c-0.023-1.795,1.535-3.271,3.474-3.298l12.243-0.153l-0.184-14.584l2.426-0.027
		l0.182,14.581l12.244-0.153C169.877,56.481,171.471,57.922,171.494,59.715z"/>
</g>
<path fill="#FFFFFF" d="M253.184,50.778c-1.524-0.716-2.976-1.338-4.31-1.87c-1.244-0.496-2.382-0.912-3.394-1.26
	c-23.524-8.791-52.881-12.674-91.464-12.189c-36.479,0.457-64.606,4.609-87.263,12.981c-0.459,0.163-0.947,0.343-1.473,0.547
	c-0.042,0.011-0.083,0.028-0.12,0.046c-0.362,0.133-0.736,0.284-1.121,0.438c-0.146,0.054-0.29,0.117-0.437,0.175
	c-2.03,0.823-4.398,1.883-6.941,3.217l6.707-29.817c-0.022-1.62,1.388-2.958,3.145-2.979l174.762-2.194
	c1.758-0.023,3.201,1.277,3.221,2.899L253.184,50.778z"/>
<path fill="#FFFFFF" d="M28.94,110.22l0.06,4.49c0.06,4.49-3.83,8.18-8.69,8.24c-2.43,0.03-4.64-0.85-6.24-2.31
	c-1.61-1.45-2.62-3.46-2.65-5.71l-0.15-11.78c-0.05-4.49,3.83-8.18,8.69-8.24c2.43-0.03,4.64,0.85,6.24,2.3
	c1.61,1.45,2.62,3.47,2.65,5.72l0.06,4.48l10.67-0.13l0.04,2.81L28.94,110.22z"/>
<path fill="#FFFFFF" d="M298.883,111.15c0.029,2.25-0.931,4.29-2.5,5.78c-1.57,1.5-3.75,2.44-6.181,2.46
	c-4.859,0.07-8.84-3.52-8.899-8.01l-0.051-4.5l-10.68,0.14l-0.04-2.8l10.68-0.14l-0.05-4.48c-0.029-2.25,0.92-4.3,2.5-5.78
	c1.57-1.5,3.75-2.44,6.181-2.47c4.859-0.06,8.84,3.53,8.89,8.02L298.883,111.15z"/>
<g>
	<g>
		<polygon points="191.07,202.85 186.74,204.94 188.85,209.27 184.2,210.51 185.45,215.16 180.65,215.49 181,220.3 176.22,219.71 
			175.66,224.5 171.07,223.02 169.61,227.61 165.39,225.3 163.09,229.53 159.38,226.45 156.32,230.18 153.27,226.45 149.56,229.53 
			147.26,225.3 143.04,227.61 141.58,223.02 136.99,224.5 136.43,219.71 131.65,220.3 132,215.49 127.2,215.16 128.45,210.51 
			123.8,209.27 125.91,204.94 121.57,202.85 124.47,199 120.61,196.12 124.18,192.89 120.93,189.33 125.05,186.83 122.53,182.72 
			127.05,181.05 125.36,176.54 130.11,175.75 129.3,171 134.12,171.13 134.22,166.31 138.92,167.34 139.94,162.63 144.36,164.54 
			146.25,160.11 150.23,162.82 152.92,158.82 156.32,162.24 159.72,158.82 162.42,162.82 166.4,160.11 168.29,164.54 172.71,162.63 
			173.72,167.34 178.43,166.31 178.53,171.13 183.35,171 182.54,175.75 187.29,176.54 185.6,181.05 190.12,182.72 187.6,186.83 
			191.72,189.33 188.47,192.89 192.04,196.12 188.18,199 		"/>
	</g>
	<g>
		<g>
			<path fill="#FFFFFF" d="M147.58,181.985l0.943-0.219l-0.194-5.554l-0.955,0.222l-0.065-1.746l4.046-0.938l0.066,1.745
				l-0.968,0.226l0.203,5.424l1.838-0.426l-0.04-1.313l1.79-0.415l0.106,3.058l-6.709,1.557L147.58,181.985z"/>
			<path fill="#FFFFFF" d="M157.568,174.673c1.744-0.404,2.856,0.383,3.186,1.803c0.131,0.562,0.049,1.233,0.049,1.233l-3.867,0.897
				c0,0,0.002,0.063,0.017,0.121c0.146,0.621,0.713,0.904,1.44,0.735c0.896-0.208,1.683-1.045,1.683-1.045l0.879,1.406
				c0,0-0.899,1.052-2.297,1.376c-2.101,0.486-3.427-0.514-3.763-1.957C154.399,177.106,155.54,175.144,157.568,174.673z
				 M158.736,176.994c0,0-0.016-0.173-0.031-0.245c-0.088-0.382-0.395-0.611-0.813-0.516c-0.597,0.139-0.894,0.646-0.972,1.182
				L158.736,176.994z"/>
		</g>
		<g>
			<path fill="#FFFFFF" d="M133.429,190.854l-0.692,0.16l-0.048-1.562l3.211-0.745l0.048,1.563l-0.549,0.127l0.789,2.156
				c0.146,0.355,0.2,0.81,0.2,0.81l0.048-0.011c0,0,0.017-0.471,0.134-0.888l0.619-2.483l-0.55,0.127l-0.047-1.561l3.33-0.773
				l0.047,1.563l-0.691,0.161l-1.534,5.261l-2.435,0.565L133.429,190.854z"/>
			<path fill="#FFFFFF" d="M143.625,186.767c1.767-0.41,3.319,0.373,3.707,2.045c0.504,2.172-1.068,4.123-3.098,4.594
				c-1.755,0.406-3.316-0.362-3.707-2.045C140.025,189.198,141.583,187.239,143.625,186.767z M143.99,191.649
				c0.824-0.191,1.544-1.102,1.283-2.223c-0.168-0.729-0.749-1.06-1.394-0.91c-0.811,0.188-1.547,1.14-1.286,2.262
				C142.759,191.495,143.333,191.802,143.99,191.649z"/>
			<path fill="#FFFFFF" d="M149.545,192.914c0.43-0.101,0.844-0.321,0.994-0.759l0.022-0.068l-2.21-4.695l-0.692,0.162l-0.06-1.56
				l3.318-0.771l0.06,1.559l-0.597,0.139l0.839,2.208c0.134,0.358,0.174,0.804,0.174,0.804l0.048-0.013c0,0,0.044-0.463,0.161-0.88
				l0.641-2.551l-0.562,0.13l-0.06-1.56l3.247-0.752l0.06,1.559l-0.633,0.146l-1.791,5.887c-0.538,1.748-1.488,2.422-2.61,2.682
				c-1.158,0.27-1.931-0.08-1.931-0.08l0.554-1.625C148.518,192.876,148.889,193.065,149.545,192.914z"/>
			<path fill="#FFFFFF" d="M158.951,185.812l0.084-0.02c0,0-0.004-0.236-0.035-0.369c-0.082-0.357-0.475-0.418-0.881-0.322
				c-0.811,0.188-1.684,0.98-1.684,0.98l-0.764-1.395c0,0,1.119-0.979,2.48-1.293c1.024-0.238,2.49-0.164,2.84,1.34
				c0.166,0.718,0.031,2.031,0.158,2.58c0.063,0.274,0.229,0.399,0.563,0.322c0.097-0.022,0.226-0.064,0.226-0.064L162,189.13
				c0,0-0.148,0.071-0.768,0.217c-0.633,0.146-1.463,0.313-1.883-0.521l-0.023,0.006c0,0-0.492,1.185-1.723,1.47
				c-0.906,0.209-1.85-0.111-2.107-1.223C155.082,187.29,157.377,186.179,158.951,185.812z M158.025,188.644
				c0.572-0.133,1.02-0.967,1.037-1.485l0.004-0.151l-0.191,0.045c-0.453,0.104-1.594,0.508-1.43,1.211
				C157.523,188.599,157.715,188.718,158.025,188.644z"/>
			<path fill="#FFFFFF" d="M165.494,189.213c0.848-0.196,1.361-0.643,1.373-1.626c0.002-0.314,0.014-0.48,0.014-0.48l-0.012,0.002
				c-0.318,0.527-0.705,0.867-1.35,1.018c-1.623,0.377-2.656-0.604-2.986-2.023c-0.398-1.719,0.375-3.811,2.463-4.295
				c1.385-0.32,1.904,0.4,1.904,0.4l0.022-0.005c0,0-0.016-0.072-0.019-0.185c-0.002-0.176,0.188-0.547,0.654-0.655l1.885-0.438
				l0.05,1.563l-0.453,0.105c-0.156,0.034-0.256,0.146-0.246,0.295l0.136,4.106c0.075,2.335-1.451,3.507-2.979,3.86
				c-1.683,0.392-2.688-0.043-2.688-0.043l0.459-1.603C163.721,189.21,164.408,189.465,165.494,189.213z M165.766,186.257
				c0.906-0.21,1.188-1.332,1.008-2.107c-0.168-0.717-0.674-0.786-1.198-0.666c-0.859,0.201-1.201,1.06-0.994,1.955
				C164.717,186.022,165.098,186.412,165.766,186.257z"/>
			<path fill="#FFFFFF" d="M173.039,179.94c1.742-0.404,2.855,0.381,3.186,1.802c0.129,0.562,0.047,1.233,0.047,1.233l-3.867,0.897
				c0,0,0.003,0.063,0.017,0.122c0.146,0.62,0.713,0.902,1.44,0.734c0.896-0.209,1.683-1.045,1.683-1.045l0.881,1.405
				c0,0-0.899,1.052-2.297,1.376c-2.103,0.487-3.428-0.513-3.764-1.957C169.869,182.374,171.01,180.411,173.039,179.94z
				 M174.207,182.261c0,0-0.016-0.173-0.031-0.244c-0.09-0.381-0.395-0.612-0.813-0.517c-0.596,0.14-0.896,0.647-0.971,1.183
				L174.207,182.261z"/>
		</g>
		<g>
			<path fill="#FFFFFF" d="M133.698,203.56l0.084-0.02c0,0-0.005-0.238-0.035-0.369c-0.084-0.357-0.475-0.418-0.881-0.324
				c-0.811,0.188-1.684,0.982-1.684,0.982l-0.764-1.396c0,0,1.119-0.977,2.479-1.293c1.026-0.236,2.49-0.162,2.84,1.342
				c0.166,0.717,0.03,2.031,0.158,2.58c0.063,0.274,0.23,0.398,0.565,0.321c0.095-0.021,0.224-0.063,0.224-0.063l0.061,1.558
				c0,0-0.147,0.072-0.768,0.218c-0.634,0.146-1.462,0.313-1.882-0.521l-0.024,0.006c0,0-0.493,1.183-1.722,1.468
				c-0.907,0.211-1.85-0.111-2.107-1.221C129.828,205.036,132.123,203.925,133.698,203.56z M130.575,199.315l2.041-0.475
				l1.454,1.549l-1.623,0.377L130.575,199.315z M132.77,206.392c0.573-0.133,1.021-0.967,1.039-1.486l0.003-0.151l-0.191,0.044
				c-0.453,0.105-1.593,0.51-1.43,1.213C132.269,206.345,132.459,206.463,132.77,206.392z"/>
			<path fill="#FFFFFF" d="M140.479,204.376l0.942-0.219l-0.197-5.678l-0.955,0.222l-0.062-1.621l3.055-0.709l2.896,4.185
				c0.224,0.313,0.385,0.791,0.385,0.791l0.048-0.012c0,0-0.089-0.546-0.094-0.945l-0.105-3.108l-1.003,0.231l-0.062-1.621
				l4.094-0.949l0.063,1.621l-0.955,0.222l0.26,7.299l-2.101,0.487l-2.916-4.166c-0.212-0.315-0.383-0.779-0.383-0.779l-0.048,0.012
				c0,0,0.086,0.532,0.104,0.932l0.114,3.094l1.002-0.232l0.063,1.621l-4.083,0.947L140.479,204.376z"/>
			<path fill="#FFFFFF" d="M153.647,198.931l0.084-0.02c0,0-0.005-0.238-0.035-0.369c-0.084-0.357-0.475-0.419-0.881-0.324
				c-0.812,0.188-1.684,0.982-1.684,0.982l-0.764-1.396c0,0,1.119-0.977,2.479-1.293c1.026-0.236,2.49-0.162,2.839,1.342
				c0.166,0.717,0.03,2.031,0.158,2.58c0.063,0.273,0.231,0.398,0.565,0.321c0.096-0.022,0.225-0.063,0.225-0.063l0.06,1.558
				c0,0-0.146,0.072-0.768,0.217c-0.633,0.146-1.462,0.313-1.881-0.521l-0.024,0.006c0,0-0.493,1.184-1.722,1.469
				c-0.907,0.211-1.85-0.111-2.107-1.222C149.776,200.407,152.072,199.296,153.647,198.931z M152.719,201.763
				c0.573-0.134,1.021-0.967,1.039-1.486l0.003-0.151l-0.191,0.044c-0.454,0.105-1.593,0.51-1.43,1.213
				C152.218,201.715,152.409,201.834,152.719,201.763z"/>
			<path fill="#FFFFFF" d="M157.85,197.351c-0.002-0.176-0.106-0.25-0.274-0.213l-0.572,0.133l-0.062-1.559l1.957-0.453
				c0.49-0.113,0.775,0.033,0.859,0.391c0.029,0.133,0.039,0.332,0.016,0.5l0.023-0.006c0,0,0.479-1.354,1.945-1.695
				c1.016-0.235,1.908,0.148,2.18,1.316c0.178,0.765,0.072,2.262,0.186,2.75c0.064,0.274,0.23,0.399,0.566,0.321
				c0.096-0.022,0.223-0.063,0.223-0.063l0.062,1.559c0,0-0.207,0.086-0.722,0.205c-0.811,0.188-1.823,0.322-2.131-1.002
				c-0.164-0.704-0.082-2.195-0.18-2.613c-0.066-0.285-0.25-0.482-0.703-0.377c-0.858,0.199-1.271,1.188-1.238,2.199l0.091,2.721
				l-2.063,0.479L157.85,197.351z"/>
			<path fill="#FFFFFF" d="M166.049,197.562l-0.072-2.373l-0.836,0.193l-0.059-1.559l0.906-0.21l-0.063-1.734l1.979-0.46
				l0.063,1.734l1.304-0.303l0.059,1.56l-1.301,0.302l0.09,2.23c0.002,0.113,0.025,0.271,0.039,0.33
				c0.117,0.502,0.596,0.504,1.049,0.397c0.178-0.042,0.316-0.099,0.316-0.099l0.057,1.71c0,0-0.301,0.108-0.539,0.163
				c-1.35,0.313-2.611,0.027-2.941-1.393C166.066,197.91,166.053,197.737,166.049,197.562z"/>
			<path fill="#FFFFFF" d="M172.938,191.851c1.742-0.403,2.855,0.381,3.187,1.803c0.129,0.561,0.047,1.234,0.047,1.234l-3.866,0.896
				c0,0,0.002,0.063,0.016,0.122c0.145,0.621,0.713,0.903,1.441,0.733c0.895-0.207,1.682-1.045,1.682-1.045l0.881,1.406
				c0,0-0.9,1.053-2.297,1.376c-2.103,0.487-3.428-0.513-3.764-1.957C169.768,194.284,170.908,192.321,172.938,191.851z
				 M174.105,194.171c0,0-0.017-0.173-0.033-0.244c-0.088-0.382-0.393-0.613-0.812-0.517c-0.596,0.139-0.895,0.647-0.971,1.183
				L174.105,194.171z"/>
			<path fill="#FFFFFF" d="M176.93,195.265l1.73-0.401l0.002,0.227c0.01,0.476,0.674,0.409,1.066,0.317
				c0.608-0.141,0.739-0.387,0.692-0.588c-0.18-0.776-2.885,0.191-3.34-1.766c-0.34-1.47,1.026-2.402,2.496-2.744
				c1.063-0.246,2.479-0.16,2.526,0.975l0.029,0.723l-1.73,0.401l-0.02-0.247c-0.031-0.346-0.434-0.29-0.684-0.23
				c-0.5,0.115-0.697,0.301-0.643,0.539c0.196,0.848,2.895-0.271,3.344,1.664c0.317,1.372-0.818,2.491-2.572,2.898
				c-1.051,0.242-2.826,0.24-2.877-1.118L176.93,195.265z"/>
		</g>
	</g>
</g>
<path opacity="0.7" fill="#FFFFFF" d="M245.59,54.21c-10.24,10.48-29.01,29.68-47.78,48.77c-8.06,8.19-15.02,15.27-21.06,21.39
	l-28.55,0.35l-0.79,0.01l-27.9,0.35c14.47-14.2,49.96-50.27,80.98-81.96c8.8,1.06,16.63,2.47,23.67,4.17
	c0.06,0.01,0.12,0.03,0.18,0.04C232.36,49.28,239.36,51.6,245.59,54.21z"/>
<path opacity="0.7" fill="#FFFFFF" d="M152.59,41.03c-10.22,10.46-29.06,29.73-47.9,48.89c-15.35,15.62-26.75,27.19-35.3,35.79
	l-9.61,0.12c-5.27,0.07-9.89-2.58-12.31-6.54c-0.09-0.15-0.18-0.3-0.26-0.45c-0.95-1.72-1.5-3.66-1.53-5.73l0.96-21.31
	C59.13,79.21,74.65,63.44,90.2,47.59c9.41-2.18,20.16-3.9,32.62-5.05c0.12,0,0.24-0.02,0.36-0.03
	C132.07,41.71,141.83,41.2,152.59,41.03z"/>
</svg>
