<?xml version="1.0" encoding="utf-8"?>
<!-- Generator: Adobe Illustrator 17.0.0, SVG Export Plug-In . SVG Version: 6.00 Build 0)  -->
<!DOCTYPE svg PUBLIC "-//W3C//DTD SVG 1.0//EN" "http://www.w3.org/TR/2001/REC-SVG-20010904/DTD/svg10.dtd">
<svg version="1.0" xmlns="http://www.w3.org/2000/svg" xmlns:xlink="http://www.w3.org/1999/xlink" x="0px" y="0px" width="1280px"
	 height="800px" viewBox="0 0 1280 800" enable-background="new 0 0 1280 800" xml:space="preserve">
<g id="tableau">
	
		<polyline fill="none" stroke="#002CE6" stroke-width="2" stroke-linecap="round" stroke-linejoin="round" stroke-miterlimit="10" points="
		80,481 120,361 143.5,451 192.488,351 202.908,391 246.537,361 	"/>
	<path fill="#000045" d="M214.955,396.734c-0.437,0.004-0.796-0.343-0.805-0.778c-0.009-0.435,0.334-0.792,0.77-0.797L227.648,395
		c0.435-0.006,0.795,0.341,0.805,0.778l0.285,12.726c0.009,0.435-0.335,0.791-0.77,0.797c-0.436,0.005-0.796-0.343-0.805-0.777
		l-0.431-11.771L214.955,396.734z"/>
	
		<polyline fill="none" stroke="#000045" stroke-width="2" stroke-linecap="round" stroke-linejoin="round" stroke-miterlimit="10" points="
		92.5,480.874 145,419 166,459.5 226,397.5 	"/>
	<path fill="#FFFFFF" stroke="#002CE6" stroke-width="2" stroke-miterlimit="10" d="M127.845,455.431
		c0-2.107,1.298-3.766,3.248-4.907c-0.354-1.173-0.818-2.3-1.39-3.359c-2.188,0.572-3.957-0.283-5.446-1.774
		c-1.488-1.486-1.944-3.256-1.372-5.446c-1.059-0.572-2.186-1.041-3.359-1.388c-1.141,1.948-3.204,3.244-5.307,3.244
		c-2.105,0-4.166-1.296-5.309-3.244c-1.175,0.347-2.298,0.816-3.357,1.388c0.573,2.19,0.119,3.959-1.374,5.446
		c-1.486,1.49-3.256,2.346-5.446,1.774c-0.573,1.059-1.039,2.185-1.388,3.359c1.948,1.141,3.244,2.8,3.244,4.907
		c0,2.103-1.296,4.166-3.244,5.309c0.351,1.173,0.816,2.298,1.388,3.359c2.189-0.572,3.959-0.118,5.446,1.37
		c1.488,1.49,1.946,3.26,1.374,5.446c1.059,0.573,2.184,1.041,3.359,1.392c1.141-1.955,3.204-3.248,5.309-3.248
		c2.103,0,4.166,1.296,5.309,3.248c1.173-0.354,2.298-0.82,3.359-1.392c-0.573-2.185-0.118-3.955,1.372-5.446
		c1.489-1.486,3.258-2.342,5.446-1.774c0.573-1.059,1.038-2.181,1.39-3.359C129.143,459.194,127.845,457.534,127.845,455.431z
		 M114.087,462.865c-4.105,0-7.432-3.328-7.432-7.432s3.328-7.432,7.432-7.432s7.432,3.328,7.432,7.432
		S118.192,462.865,114.087,462.865z"/>
	<g>
		<g>
			
				<line fill="none" stroke="#000045" stroke-width="2" stroke-linecap="round" stroke-linejoin="round" x1="431" y1="333" x2="435" y2="333"/>
			<polyline fill="none" stroke="#000045" stroke-width="2" stroke-linecap="round" stroke-linejoin="round" points="446,333 
				450,333 450,329 			"/>
			
				<line fill="none" stroke="#000045" stroke-width="2" stroke-linecap="round" stroke-linejoin="round" stroke-dasharray="7,7" x1="450" y1="322" x2="450" y2="283"/>
			<polyline fill="none" stroke="#000045" stroke-width="2" stroke-linecap="round" stroke-linejoin="round" points="450,279 
				450,275 446,275 			"/>
			
				<line fill="none" stroke="#000045" stroke-width="2" stroke-linecap="round" stroke-linejoin="round" stroke-dasharray="7,7" x1="439" y1="275" x2="400" y2="275"/>
			<polyline fill="none" stroke="#000045" stroke-width="2" stroke-linecap="round" stroke-linejoin="round" points="396,275 
				392,275 392,279 			"/>
			
				<line fill="none" stroke="#000045" stroke-width="2" stroke-linecap="round" stroke-linejoin="round" x1="392" y1="284" x2="392" y2="288"/>
		</g>
	</g>
	<polyline fill="none" stroke="#000045" stroke-width="4" stroke-miterlimit="10" points="355,290 429,290 429,333 	"/>
	<path fill="none" stroke="#000045" stroke-width="4" stroke-miterlimit="10" d="M355,290"/>
	<path fill="none" stroke="#000045" stroke-width="4" stroke-miterlimit="10" d="M203,290"/>
	<polyline fill="none" stroke="#000045" stroke-width="4" stroke-miterlimit="10" points="429,333 429,504 67,504 67,290 203,290 	
		"/>
	
		<ellipse transform="matrix(-0.6929 0.721 -0.721 -0.6929 837.4439 343.0634)" fill="none" stroke="#000045" stroke-width="2" stroke-miterlimit="10" cx="345.664" cy="349.871" rx="26.917" ry="26.843"/>
	<path fill="none" stroke="#000045" stroke-width="2" stroke-linecap="round" stroke-linejoin="round" stroke-miterlimit="10" d="
		M345.2,350.595l18.934,18.195c0,0,8.472-6.546,8.321-18.893C358.693,350.171,345.2,350.595,345.2,350.595z"/>
	
		<polyline fill="none" stroke="#000045" stroke-width="2" stroke-linecap="round" stroke-linejoin="round" stroke-miterlimit="10" points="
		387,481 80,481 80,328 	"/>
	
		<line fill="none" stroke="#000045" stroke-width="2" stroke-linecap="round" stroke-linejoin="round" stroke-miterlimit="10" x1="80" y1="361" x2="75" y2="361"/>
	
		<line fill="none" stroke="#000045" stroke-width="2" stroke-linecap="round" stroke-linejoin="round" stroke-miterlimit="10" x1="80" y1="371" x2="75" y2="371"/>
	
		<line fill="none" stroke="#000045" stroke-width="2" stroke-linecap="round" stroke-linejoin="round" stroke-miterlimit="10" x1="80" y1="331" x2="75" y2="331"/>
	
		<line fill="none" stroke="#000045" stroke-width="2" stroke-linecap="round" stroke-linejoin="round" stroke-miterlimit="10" x1="80" y1="341" x2="75" y2="341"/>
	
		<line fill="none" stroke="#000045" stroke-width="2" stroke-linecap="round" stroke-linejoin="round" stroke-miterlimit="10" x1="80" y1="351" x2="75" y2="351"/>
	
		<line fill="none" stroke="#000045" stroke-width="2" stroke-linecap="round" stroke-linejoin="round" stroke-miterlimit="10" x1="80" y1="381" x2="75" y2="381"/>
	
		<line fill="none" stroke="#000045" stroke-width="2" stroke-linecap="round" stroke-linejoin="round" stroke-miterlimit="10" x1="80" y1="391" x2="75" y2="391"/>
	
		<line fill="none" stroke="#000045" stroke-width="2" stroke-linecap="round" stroke-linejoin="round" stroke-miterlimit="10" x1="80" y1="401" x2="75" y2="401"/>
	
		<line fill="none" stroke="#000045" stroke-width="2" stroke-linecap="round" stroke-linejoin="round" stroke-miterlimit="10" x1="80" y1="411" x2="75" y2="411"/>
	
		<line fill="none" stroke="#000045" stroke-width="2" stroke-linecap="round" stroke-linejoin="round" stroke-miterlimit="10" x1="80" y1="421" x2="75" y2="421"/>
	
		<line fill="none" stroke="#000045" stroke-width="2" stroke-linecap="round" stroke-linejoin="round" stroke-miterlimit="10" x1="80" y1="431" x2="75" y2="431"/>
	
		<line fill="none" stroke="#000045" stroke-width="2" stroke-linecap="round" stroke-linejoin="round" stroke-miterlimit="10" x1="80" y1="441" x2="75" y2="441"/>
	
		<line fill="none" stroke="#000045" stroke-width="2" stroke-linecap="round" stroke-linejoin="round" stroke-miterlimit="10" x1="80" y1="451" x2="75" y2="451"/>
	
		<line fill="none" stroke="#000045" stroke-width="2" stroke-linecap="round" stroke-linejoin="round" stroke-miterlimit="10" x1="80" y1="461" x2="75" y2="461"/>
	
		<line fill="none" stroke="#000045" stroke-width="2" stroke-linecap="round" stroke-linejoin="round" stroke-miterlimit="10" x1="80" y1="471" x2="75" y2="471"/>
	
		<line fill="none" stroke="#000045" stroke-width="2" stroke-linecap="round" stroke-linejoin="round" stroke-miterlimit="10" x1="120" y1="482" x2="120" y2="487"/>
	
		<line fill="none" stroke="#000045" stroke-width="2" stroke-linecap="round" stroke-linejoin="round" stroke-miterlimit="10" x1="92" y1="481" x2="92" y2="486"/>
	
		<line fill="none" stroke="#000045" stroke-width="2" stroke-linecap="round" stroke-linejoin="round" stroke-miterlimit="10" x1="143" y1="481" x2="143" y2="486"/>
	
		<line fill="none" stroke="#000045" stroke-width="2" stroke-linecap="round" stroke-linejoin="round" stroke-miterlimit="10" x1="166" y1="481" x2="166" y2="486"/>
	
		<line fill="none" stroke="#000045" stroke-width="2" stroke-linecap="round" stroke-linejoin="round" stroke-miterlimit="10" x1="190" y1="481" x2="190" y2="486"/>
	
		<line fill="none" stroke="#000045" stroke-width="2" stroke-linecap="round" stroke-linejoin="round" stroke-miterlimit="10" x1="337" y1="481" x2="337" y2="486"/>
	
		<line fill="none" stroke="#000045" stroke-width="2" stroke-linecap="round" stroke-linejoin="round" stroke-miterlimit="10" x1="384" y1="481" x2="384" y2="486"/>
	
		<line fill="none" stroke="#000045" stroke-width="2" stroke-linecap="round" stroke-linejoin="round" stroke-miterlimit="10" x1="214" y1="481" x2="214" y2="486"/>
	<polyline fill="none" stroke="#000045" stroke-width="2" stroke-miterlimit="10" points="345.664,322.995 345.2,350.595 
		324.967,367.075 	"/>
	
		<line fill="none" stroke="#002CE6" stroke-linecap="round" stroke-linejoin="round" stroke-miterlimit="10" x1="345.422" y1="368.79" x2="362.668" y2="409.301"/>
	<circle fill="#002CE6" cx="345.422" cy="368.79" r="3.623"/>
	
		<line fill="none" stroke="#002CE6" stroke-linecap="round" stroke-linejoin="round" stroke-miterlimit="10" x1="357.345" y1="337.815" x2="391.621" y2="310.179"/>
	<circle fill="#002CE6" cx="357.345" cy="337.815" r="3.623"/>
	
		<line fill="none" stroke="#000045" stroke-width="2" stroke-linecap="round" stroke-linejoin="round" stroke-miterlimit="10" x1="395" y1="310" x2="414" y2="310"/>
	
		<line fill="none" stroke="#000045" stroke-width="2" stroke-linecap="round" stroke-linejoin="round" stroke-miterlimit="10" x1="395" y1="314" x2="421" y2="314"/>
	
		<line fill="none" stroke="#000045" stroke-width="2" stroke-linecap="round" stroke-linejoin="round" stroke-miterlimit="10" x1="400" y1="318" x2="417" y2="318"/>
	
		<line fill="none" stroke="#000045" stroke-width="2" stroke-linecap="round" stroke-linejoin="round" stroke-miterlimit="10" x1="367" y1="410" x2="389" y2="410"/>
	
		<line fill="none" stroke="#000045" stroke-width="2" stroke-linecap="round" stroke-linejoin="round" stroke-miterlimit="10" x1="367" y1="414" x2="382" y2="414"/>
	
		<line fill="none" stroke="#000045" stroke-width="2" stroke-linecap="round" stroke-linejoin="round" stroke-miterlimit="10" x1="386" y1="414" x2="393" y2="414"/>
	
		<line fill="none" stroke="#000045" stroke-width="2" stroke-linecap="round" stroke-linejoin="round" stroke-miterlimit="10" x1="367" y1="418" x2="397" y2="418"/>
	
		<line fill="none" stroke="#000045" stroke-width="2" stroke-linecap="round" stroke-linejoin="round" stroke-miterlimit="10" x1="393" y1="481" x2="399" y2="481"/>
	
		<line fill="none" stroke="#002CE6" stroke-width="2" stroke-linecap="round" stroke-linejoin="round" stroke-miterlimit="10" x1="405" y1="514" x2="439" y2="514"/>
	
		<line fill="none" stroke="#002CE6" stroke-width="2" stroke-linecap="round" stroke-linejoin="round" stroke-miterlimit="10" x1="398" y1="514" x2="401" y2="514"/>
	
		<line fill="none" stroke="#002CE6" stroke-width="2" stroke-linecap="round" stroke-linejoin="round" stroke-miterlimit="10" x1="439" y1="514" x2="439" y2="470"/>
	
		<line fill="none" stroke="#2F194F" stroke-width="2" stroke-linecap="round" stroke-linejoin="round" stroke-miterlimit="10" x1="80" y1="351" x2="75" y2="351"/>
	
		<line fill="none" stroke="#000045" stroke-width="2" stroke-linecap="round" stroke-linejoin="round" stroke-miterlimit="10" x1="395" y1="318" x2="397" y2="318"/>
</g>
<g id="Elements_graphique">
	
		<line fill="none" stroke="#002CE6" stroke-width="4" stroke-linecap="round" stroke-linejoin="round" stroke-miterlimit="10" x1="221" y1="78" x2="221" y2="95"/>
	
		<line fill="none" stroke="#002CE6" stroke-width="4" stroke-linecap="round" stroke-linejoin="round" stroke-miterlimit="10" x1="229" y1="87" x2="212" y2="87"/>
	
		<circle fill="none" stroke="#002CE6" stroke-width="2" stroke-linecap="round" stroke-linejoin="round" stroke-miterlimit="10" cx="242.333" cy="75" r="3"/>
	<circle fill="#002CE6" cx="203.333" cy="75" r="3"/>
</g>
<g id="Calque_9">
	<polygon fill="#FFFFFF" points="381,288 342.333,288 330.667,256.667 280.667,243 273.5,288 268.333,254.333 223,249.667 205,288 
		166,288 166,207 381,207 	"/>
</g>
<g id="Toile">
	<rect x="421" fill="#FFFFFF" width="822" height="155"/>
</g>
<g id="Trait_Haut">
	<g>
		<g>
			<path fill="#000045" d="M354.235,52.077c58.393,0,116.787,0,175.18,0c1.935,0,1.935-3,0-3c-58.393,0-116.787,0-175.18,0
				C352.3,49.077,352.3,52.077,354.235,52.077L354.235,52.077z"/>
		</g>
	</g>
	<g>
		<g>
			<path fill="#000045" d="M337.518,52.077c2.879,0,5.757,0,8.636,0c1.935,0,1.935-3,0-3c-2.879,0-5.757,0-8.636,0
				C335.583,49.077,335.583,52.077,337.518,52.077L337.518,52.077z"/>
		</g>
	</g>
	<g>
		<g>
			<path fill="#000045" d="M724.235,73.077c111.68,0,223.359,0,335.039,0c1.935,0,1.935-3,0-3c-111.68,0-223.359,0-335.039,0
				C722.3,70.077,722.3,73.077,724.235,73.077L724.235,73.077z"/>
		</g>
	</g>
	<g>
		<g>
			<path fill="#000045" d="M1073.518,73.077c2.879,0,5.757,0,8.636,0c1.935,0,1.935-3,0-3c-2.879,0-5.757,0-8.636,0
				C1071.583,70.077,1071.583,73.077,1073.518,73.077L1073.518,73.077z"/>
		</g>
	</g>
</g>
<g id="Horloge_1_">
	
		<circle fill="#000045" stroke="#000045" stroke-width="2" stroke-linecap="round" stroke-linejoin="round" stroke-miterlimit="10" cx="156" cy="151" r="2.875"/>
	
		<circle fill="none" stroke="#000045" stroke-width="2" stroke-linecap="round" stroke-linejoin="round" stroke-miterlimit="10" cx="157" cy="151" r="68"/>
	
		<circle fill="none" stroke="#000045" stroke-width="2" stroke-linecap="round" stroke-linejoin="round" stroke-miterlimit="10" cx="157" cy="151" r="60.667"/>
	
		<line fill="none" stroke="#002CE6" stroke-width="2" stroke-linecap="round" stroke-linejoin="round" stroke-miterlimit="10" x1="157" y1="102" x2="157" y2="95"/>
	
		<line fill="none" stroke="#000045" stroke-width="2" stroke-linecap="round" stroke-linejoin="round" stroke-miterlimit="10" x1="157" y1="207" x2="157" y2="200"/>
	
		<line fill="none" stroke="#000045" stroke-width="2" stroke-linecap="round" stroke-linejoin="round" stroke-miterlimit="10" x1="108" y1="151" x2="101" y2="151"/>
	
		<line fill="none" stroke="#000045" stroke-width="2" stroke-linecap="round" stroke-linejoin="round" stroke-miterlimit="10" x1="213" y1="151" x2="206" y2="151"/>
	
		<line fill="none" stroke="#000045" stroke-width="2" stroke-linecap="round" stroke-linejoin="round" stroke-miterlimit="10" x1="122.352" y1="116.352" x2="117.402" y2="111.402"/>
	
		<line fill="none" stroke="#002CE6" stroke-width="2" stroke-linecap="round" stroke-linejoin="round" stroke-miterlimit="10" x1="196.598" y1="190.598" x2="191.648" y2="185.648"/>
	
		<line fill="none" stroke="#000045" stroke-width="2" stroke-linecap="round" stroke-linejoin="round" stroke-miterlimit="10" x1="191.648" y1="116.352" x2="196.598" y2="111.402"/>
	
		<line fill="none" stroke="#000045" stroke-width="2" stroke-linecap="round" stroke-linejoin="round" stroke-miterlimit="10" x1="117.402" y1="190.598" x2="122.352" y2="185.648"/>
</g>
<g id="fond">
	<path fill="#FFDCC8" d="M273.205,229c-44.296,0-80.206,33.092-80.206,73.914s35.909,73.914,80.206,73.914
		c44.296,0,80.206-33.092,80.206-73.914S317.501,229,273.205,229z M239.979,319.908c-16.312,0-29.535-13.223-29.535-29.535
		s13.223-29.535,29.535-29.535s29.535,13.223,29.535,29.535S256.29,319.908,239.979,319.908z M306.156,319.908
		c-16.312,0-29.535-13.223-29.535-29.535s13.223-29.535,29.535-29.535s29.535,13.223,29.535,29.535S322.467,319.908,306.156,319.908
		z"/>
</g>
<g id="BLANC" display="none">
	<rect x="480" y="161" display="inline" fill="#FFFFFF" width="709" height="452"/>
</g>
<g id="Haut_tableau">
	<rect x="465.887" y="154.734" fill="#8C8C8C" width="738.657" height="31.659"/>
	<path fill="#8C8C8C" d="M1210.688,186.393c22.107,0,22.729-31.463,0-31.463"/>
	<path fill="#8C8C8C" d="M460.385,154.93c-22.107,0-22.729,31.463,0,31.463"/>
</g>
<g id="personnage">
	<path fill="#FFDCC8" d="M289,388.709v-17.28c0-5.456-6.508-9.428-14.813-9.428h-2.754c-8.306,0-15.433,3.972-15.433,9.428v17.461
		c-30,2.988-33,19.173-33,19.173V541h49.81H325V408.062C325,408.062,322,391.163,289,388.709z"/>
	<ellipse fill="#F2F2F2" cx="273.389" cy="737.556" rx="194.759" ry="21.565"/>
	<path fill="#FFDCC8" d="M362.562,479.904c0.695,1.567-2.075,4.317-6.188,6.14l0,0c-4.113,1.824-8.01,2.032-8.705,0.464
		L327.03,439.97c-0.695-1.567,2.075-4.317,6.188-6.14l0,0c4.113-1.824,8.01-2.032,8.705-0.464L362.562,479.904z"/>
	<path fill="#FFDCC8" d="M441.722,432.978c3.101-1.453,7.162,0.673,9.07,4.747l0,0c1.908,4.074,0.941,8.554-2.16,10.007
		l-92.081,43.128c-3.101,1.453-7.162-0.673-9.07-4.747l0,0c-1.908-4.074-0.941-8.554,2.16-10.007L441.722,432.978z"/>
	<path fill="#FFDCC8" d="M443.335,438.155l-3.799,13.837c0,0,14.577-5.751,15.467-6.179c0.89-0.427,6.167-2.828,6.502-4.393
		s-3.183-6.643-2.837-7.595c0.346-0.952,10.809-4.559,12.984-5.294s0.624-4.558-1.434-4.083s-13.242,4.088-14.667,3.382
		s-6.837-2.629-7.862-2.283s-6.525,7.984-6.013,9.075S443.335,438.155,443.335,438.155z"/>
	<path fill="#FFDCC8" d="M204.854,507.312c-0.538,2.39-4.532,3.527-8.921,2.539l0,0c-4.389-0.988-7.43-4.088-6.892-6.478
		l15.892-70.603c0.538-2.39,4.532-3.527,8.921-2.539l0,0c4.389,0.988,7.511,3.726,6.973,6.116L204.854,507.312z"/>
	<path fill="#FFDCC8" d="M197.525,584.325c-0.257,2.643-4.095,4.433-8.573,3.997l0,0c-4.478-0.436-7.899-2.931-7.642-5.574
		l7.635-78.477c0.257-2.643,4.095-4.433,8.573-3.997l0,0c4.478,0.436,7.899,2.931,7.642,5.574L197.525,584.325z"/>
	<path fill="#FFDCC8" d="M181.635,578.737c0,0-6.366,9.53-5.093,13.133c1.272,3.603,19.487,4.229,22.094,3.443
		c1.231-0.371,1.108-3.53,0.635-6.759c1.157-0.281,2.361-1.22,3.089-2.873c1.149-2.611-6.978-10.28-6.978-10.28l-2.146,0.752
		L181.635,578.737"/>
	<path fill="#050505" d="M273.205,541.462h-50.476l13.558,195.114h12.283c0,0-6.398-170.242,24.635-170.242
		s24.635,170.242,24.635,170.242h12.283l14.796-195.114H273.205z"/>
	<path fill="#050505" d="M245.321,736.576h-39.258c0,0,5.765-14.497,20.864-16.064c15.099-1.567,18.394,0,18.394,0V736.576z"/>
	
		<rect x="206.216" y="736.576" fill="#FFFFFF" stroke="#050505" stroke-width="0.25" stroke-linecap="square" stroke-linejoin="bevel" stroke-miterlimit="10" width="42.185" height="2.817"/>
	<path fill="#050505" d="M300.941,736.576H340.2c0,0-5.765-14.497-20.864-16.064s-18.394,0-18.394,0V736.576z"/>
	
		<rect x="297.861" y="736.576" fill="#FFFFFF" stroke="#050505" stroke-width="0.25" stroke-linecap="square" stroke-linejoin="bevel" stroke-miterlimit="10" width="42.185" height="2.817"/>
	<g>
		<path fill="#002CE6" d="M301.121,390.467c-25.097,24.161-54.463,0.209-54.581-0.002c-21.562,5.036-23.811,17.597-23.811,17.597
			v133.4h50.081h52.108v-133.4C324.918,408.062,322.67,395.506,301.121,390.467z"/>
	</g>
	<path fill="#00FDD5" d="M228.402,448.23l-27.884-12.845c0,0,23.117-42.852,46.022-44.919
		C246.318,412.237,228.402,448.23,228.402,448.23z"/>
	<path fill="#00FDD5" d="M319.226,448.23l27.884-12.845c0,0-23.117-42.852-46.022-44.919
		C301.31,412.237,319.226,448.23,319.226,448.23z"/>
	<path fill="#BFBFBF" d="M246.54,428.469v159.759h-34.743l7.055-138.332l-22.094-8.872c0,0,25.971-49.189,49.781-50.558
		C246.54,395.077,246.54,428.469,246.54,428.469z"/>
	<path fill="#BFBFBF" d="M301.089,428.469v159.759h34.743l-7.055-138.332l22.094-8.872c0,0-25.971-49.189-49.781-50.558
		C301.089,395.077,301.089,428.469,301.089,428.469z"/>
	
		<line fill="none" stroke="#FFFFFF" stroke-linecap="round" stroke-linejoin="round" stroke-miterlimit="10" x1="304.99" y1="459.3" x2="324.099" y2="459.3"/>
	<rect x="246.54" y="535.328" fill="#050505" width="54.549" height="6.893"/>
	<rect x="268.401" y="535.328" fill="#FFFFFF" width="11.07" height="6.134"/>
	<path fill="#FFFFFF" d="M240.948,559.782c0.002-0.086,0.014-0.169,0.014-0.255h-0.014v-9.578h-23.811v10.792h0.071
		c0.638,5.68,5.695,10.104,11.842,10.104c6.147,0,11.204-4.424,11.842-10.104h0.057V559.782z"/>
	<path fill="#FFFFFF" d="M330.135,559.782c0.002-0.086,0.014-0.169,0.014-0.255h-0.014v-9.578h-23.811v10.792h0.071
		c0.638,5.68,5.695,10.104,11.842,10.104s11.204-4.424,11.842-10.104h0.057V559.782z"/>
	<g>
		<path fill="#FFFFFF" d="M257.584,397.07c0,0.002-0.001,0.003,0,0.005c0.967,3.203,10.532,9.33,13.661,10.505l-2.995,67.844
			l6.63,9.577l6.63-9.577l-2.627-67.987c3.128-1.175,13.051-5.303,13.598-10.501c0,0-0.03-0.003-0.041-0.003
			C279.494,404.067,266.442,401.045,257.584,397.07z"/>
	</g>
	<circle fill="#FFFFFF" cx="306.324" cy="489.347" r="3.103"/>
	<circle fill="#FFFFFF" cx="306.324" cy="503.311" r="3.103"/>
	
		<line fill="none" stroke="#FFFFFF" stroke-linecap="round" stroke-linejoin="round" stroke-miterlimit="10" x1="241.874" y1="489.347" x2="238.741" y2="489.347"/>
	
		<line fill="none" stroke="#FFFFFF" stroke-linecap="round" stroke-linejoin="round" stroke-miterlimit="10" x1="241.874" y1="503.311" x2="238.741" y2="503.311"/>
	<path fill="#FFDCC8" d="M273.205,228.393c-44.296,0-80.206,33.092-80.206,73.914s35.909,73.914,80.206,73.914
		c44.296,0,80.206-33.092,80.206-73.914S317.501,228.393,273.205,228.393z M239.979,319.301c-16.312,0-29.535-13.223-29.535-29.535
		s13.223-29.535,29.535-29.535s29.535,13.223,29.535,29.535S256.29,319.301,239.979,319.301z M306.156,319.301
		c-16.312,0-29.535-13.223-29.535-29.535s13.223-29.535,29.535-29.535s29.535,13.223,29.535,29.535S322.467,319.301,306.156,319.301
		z"/>
	<circle fill="none" stroke="#333333" stroke-width="3" stroke-miterlimit="10" cx="239.979" cy="290" r="29.535"/>
	<circle fill="none" stroke="#333333" stroke-width="3" stroke-miterlimit="10" cx="306.156" cy="290" r="29.535"/>
	<path fill="#333333" d="M264.612,347.341c0,7.413,16.395,6.156,16.395,0C271.91,347.341,271.91,347.341,264.612,347.341z"/>
	<ellipse fill="#FFDCC8" cx="353.41" cy="293.635" rx="11.973" ry="20.856"/>
	<path fill="#8C8C8C" d="M273.205,330.932c-6.047-12.836-35.255,5.455-47.172-6.979c0,0,23.406,35.951,47.172,14.007
		c23.765,21.945,47.171-14.007,47.171-14.007C308.46,336.387,279.252,318.095,273.205,330.932z"/>
	<path fill="none" stroke="#D3A89C" stroke-linecap="round" stroke-linejoin="round" stroke-miterlimit="10" d="M258.631,318.639
		c7.837,7.837,20.52,7.837,28.357,0"/>
	<path fill="none" stroke="#333333" stroke-width="3" stroke-miterlimit="10" d="M266.622,277.007c0,0,6.04-4.963,12.89,0"/>
	<path fill="none" stroke="#333333" stroke-width="3" stroke-linecap="round" stroke-linejoin="round" stroke-miterlimit="10" d="
		M190.492,272.78c0,0,12.693-7.477,24.831,0.726"/>
	<path fill="none" stroke="#333333" stroke-width="3" stroke-linecap="round" stroke-linejoin="round" stroke-miterlimit="10" d="
		M331.611,272.78c0,0,15.483-8.203,27.621,0"/>
	<ellipse fill="#FFDCC8" cx="196.132" cy="293.635" rx="11.973" ry="20.856"/>
	<path fill="none" stroke="#D3A89C" stroke-linecap="round" stroke-linejoin="round" stroke-miterlimit="10" d="M190.492,302.307
		c0,0-6.266-20.129,5.639-22.948"/>
	<path fill="none" stroke="#D3A89C" stroke-linecap="round" stroke-linejoin="round" stroke-miterlimit="10" d="M359.834,302.307
		c0,0,6.266-20.129-5.639-22.948"/>
	<path fill="#8C8C8C" d="M276.621,219.832c-64.51,0-41.192,24.751-68.516,27.571c-15.106,1.88-15.106,26.104-15.106,26.104
		s9.086-3.817,7.833,20.129l-2.976,28.96l5.326-0.313c0,0-2.661-10.533,2.95-17.184c5.611-6.651-10.626-31.065,12.245-49.237
		s83.025,24.751,110.909,0c9.116,10.895,11.411,23.394,11.977,29.738c-0.745,8.072-2.672,14.725-0.127,17.742
		c5.611,6.651,2.95,17.184,2.95,17.184l5.326,0.313l-2.976-28.96c-0.485-9.266-0.544-14.817,2.066-17.146
		c2.163-1.7,5.934-3.332,9.904-0.05C364.063,279.359,341.131,219.832,276.621,219.832z"/>
</g>
</svg>
