<?xml version="1.0" encoding="utf-8"?>
<!-- Generator: Adobe Illustrator 16.0.0, SVG Export Plug-In . SVG Version: 6.00 Build 0)  -->
<!DOCTYPE svg PUBLIC "-//W3C//DTD SVG 1.1//EN" "http://www.w3.org/Graphics/SVG/1.1/DTD/svg11.dtd">
<svg version="1.1" id="Calque_1" xmlns="http://www.w3.org/2000/svg" xmlns:xlink="http://www.w3.org/1999/xlink" x="0px" y="0px"
	 width="320px" height="170px" viewBox="0 0 320 170" enable-background="new 0 0 320 170" xml:space="preserve">
<g id="Roue_arrière">
	<g>
		<path d="M89.909,115.051c-13.147-0.055-23.848,10.563-23.9,23.701c-0.055,13.143,10.557,23.85,23.702,23.902
			c13.144,0.057,23.842-10.563,23.896-23.703C113.661,125.811,103.052,115.104,89.909,115.051z M89.768,149.365
			c-5.813-0.023-10.492-4.752-10.467-10.557c0.023-5.801,4.745-10.49,10.557-10.467c5.801,0.023,10.492,4.752,10.467,10.555
			C100.297,144.701,95.571,149.389,89.768,149.365z"/>
		<path fill="#FFFFFF" d="M89.878,122.945c-8.786-0.037-15.94,7.057-15.979,15.842c-0.037,8.785,7.059,15.934,15.847,15.971
			c8.787,0.037,15.937-7.049,15.974-15.838C105.753,130.133,98.663,122.984,89.878,122.945z M89.768,149.365
			c-5.813-0.023-10.492-4.752-10.467-10.557c0.023-5.801,4.745-10.49,10.557-10.467c5.801,0.023,10.492,4.752,10.467,10.555
			C100.297,144.701,95.571,149.389,89.768,149.365z"/>
		<path fill="#E5E5E5" d="M100.323,138.896c-0.025,5.805-4.754,10.49-10.557,10.467c-5.813-0.023-10.492-4.752-10.467-10.555
			c0.023-5.801,4.745-10.49,10.555-10.467C95.657,128.365,100.348,133.096,100.323,138.896z"/>
		<path d="M89.765,149.744c-6.005-0.023-10.869-4.934-10.847-10.938c0.027-6.004,4.935-10.869,10.938-10.844
			c6.006,0.025,10.868,4.93,10.845,10.934C100.674,144.906,95.77,149.768,89.765,149.744z M89.854,128.721
			c-5.586-0.025-10.149,4.504-10.174,10.09c-0.023,5.588,4.502,10.152,10.09,10.178c5.588,0.021,10.149-4.504,10.176-10.092
			C99.969,133.309,95.442,128.742,89.854,128.721z"/>
		<path d="M89.763,150.15c-6.229-0.023-11.274-5.117-11.252-11.346c0.026-6.229,5.118-11.277,11.347-11.252
			c6.231,0.027,11.278,5.117,11.252,11.346C101.084,145.129,95.991,150.178,89.763,150.15z M89.85,129.129
			c-5.357-0.021-9.74,4.32-9.764,9.684c-0.022,5.361,4.32,9.742,9.682,9.766c5.361,0.021,9.744-4.324,9.77-9.684
			C99.557,133.531,95.213,129.152,89.85,129.129z"/>
		<g>
			<g>
				<path d="M91.155,125.725c-0.002,0.713-0.582,1.289-1.295,1.285c-0.715,0-1.291-0.584-1.287-1.297
					c0.002-0.713,0.584-1.289,1.295-1.287C90.581,124.43,91.159,125.012,91.155,125.725z"/>
				<path d="M91.045,151.996c-0.002,0.709-0.586,1.291-1.299,1.283c-0.713,0-1.288-0.582-1.287-1.293
					c0.005-0.717,0.584-1.291,1.3-1.289C90.472,150.701,91.049,151.281,91.045,151.996z"/>
			</g>
			<g>
				<path d="M100.045,130.52c-0.508,0.502-1.325,0.498-1.827-0.006c-0.503-0.508-0.499-1.324,0.008-1.826
					c0.507-0.506,1.323-0.502,1.827,0.006C100.554,129.199,100.553,130.018,100.045,130.52z"/>
				<path d="M81.391,149.02c-0.506,0.5-1.324,0.496-1.827-0.01c-0.501-0.504-0.498-1.32,0.008-1.826
					c0.509-0.504,1.326-0.5,1.827,0.008C81.903,147.701,81.899,148.52,81.391,149.02z"/>
			</g>
			<g>
				<circle cx="102.946" cy="138.911" r="1.292"/>
				<circle cx="76.674" cy="138.799" r="1.293"/>
			</g>
			<g>
				<circle cx="99.058" cy="148.181" r="1.292"/>
				<path d="M79.643,130.436c-0.502-0.508-0.5-1.324,0.007-1.828c0.506-0.502,1.325-0.498,1.828,0.006
					c0.502,0.51,0.497,1.326-0.009,1.83C80.963,130.943,80.147,130.941,79.643,130.436z"/>
			</g>
			<g>
				<circle cx="85.015" cy="126.625" r="1.293"/>
				<circle cx="94.604" cy="151.083" r="1.292"/>
			</g>
			<g>
				<circle cx="95.069" cy="126.815" r="1.292"/>
				<path d="M85.737,151.408c-0.285,0.652-1.047,0.951-1.701,0.664c-0.654-0.279-0.953-1.045-0.668-1.695
					c0.285-0.654,1.047-0.953,1.703-0.668C85.723,149.994,86.022,150.756,85.737,151.408z"/>
			</g>
			<g>
				<path d="M102.509,135.264c-0.661,0.26-1.412-0.066-1.673-0.732c-0.264-0.662,0.064-1.414,0.729-1.672
					c0.666-0.264,1.414,0.064,1.674,0.73C103.5,134.25,103.175,135.002,102.509,135.264z"/>
				<circle cx="77.577" cy="143.647" r="1.292"/>
			</g>
			<g>
				<path d="M101.327,145.295c-0.65-0.285-0.951-1.049-0.666-1.699c0.285-0.654,1.047-0.953,1.701-0.668
					c0.652,0.285,0.951,1.047,0.668,1.699C102.745,145.279,101.983,145.582,101.327,145.295z"/>
				<path d="M77.254,134.781c-0.652-0.287-0.951-1.049-0.666-1.699c0.286-0.654,1.046-0.955,1.699-0.67
					c0.654,0.285,0.953,1.045,0.668,1.701C78.669,134.768,77.907,135.064,77.254,134.781z"/>
			</g>
		</g>
	</g>
</g>
<g id="Roue_avant">
	<g>
		<path d="M234.125,115.656c-13.143-0.057-23.848,10.564-23.898,23.703c-0.057,13.146,10.561,23.85,23.701,23.9
			c13.143,0.057,23.85-10.561,23.902-23.703C257.885,126.416,247.27,115.711,234.125,115.656z M233.984,149.971
			c-5.805-0.023-10.492-4.752-10.467-10.555c0.023-5.807,4.752-10.492,10.555-10.471c5.805,0.023,10.494,4.754,10.469,10.557
			C244.516,145.307,239.783,149.994,233.984,149.971z"/>
		<path fill="#FFFFFF" d="M234.096,123.555c-8.789-0.037-15.939,7.049-15.975,15.838c-0.037,8.787,7.051,15.936,15.838,15.973
			c8.785,0.037,15.941-7.051,15.98-15.84C249.977,130.736,242.883,123.588,234.096,123.555z M233.984,149.971
			c-5.805-0.023-10.492-4.752-10.467-10.555c0.023-5.807,4.752-10.492,10.555-10.471c5.805,0.023,10.494,4.754,10.469,10.557
			C244.516,145.307,239.783,149.994,233.984,149.971z"/>
		<circle fill="#E5E5E5" cx="234.027" cy="139.458" r="10.511"/>
		<path d="M233.982,150.35c-6.006-0.025-10.869-4.932-10.846-10.936c0.023-6.006,4.934-10.871,10.938-10.848
			c6.006,0.025,10.871,4.934,10.846,10.938C244.893,145.51,239.988,150.375,233.982,150.35z M234.07,129.326
			c-5.586-0.02-10.152,4.504-10.176,10.092c-0.021,5.586,4.504,10.148,10.092,10.174c5.588,0.021,10.152-4.502,10.176-10.09
			S239.656,129.35,234.07,129.326z"/>
		<path d="M233.98,150.758c-6.23-0.025-11.275-5.117-11.252-11.348c0.025-6.23,5.117-11.275,11.348-11.252
			c6.232,0.023,11.277,5.119,11.252,11.348S240.211,150.785,233.98,150.758z M234.07,129.734c-5.361-0.021-9.744,4.32-9.766,9.684
			c-0.023,5.361,4.318,9.742,9.684,9.768c5.359,0.02,9.742-4.322,9.764-9.688C243.775,134.139,239.43,129.758,234.07,129.734z"/>
		<g>
			<g>
				<circle cx="234.084" cy="126.323" r="1.292"/>
				<circle cx="233.973" cy="152.595" r="1.292"/>
			</g>
			<g>
				<circle cx="243.357" cy="130.209" r="1.293"/>
				<path d="M225.611,149.625c-0.506,0.502-1.324,0.5-1.828-0.008c-0.502-0.506-0.496-1.322,0.008-1.824
					c0.508-0.504,1.326-0.5,1.83,0.004C226.119,148.307,226.113,149.125,225.611,149.625z"/>
			</g>
			<g>
				<path d="M247.154,140.809c-0.711-0.006-1.287-0.586-1.287-1.299c0.006-0.715,0.588-1.291,1.299-1.287
					c0.715,0.002,1.291,0.584,1.289,1.297C248.451,140.23,247.867,140.811,247.154,140.809z"/>
				<path d="M220.889,140.693c-0.715-0.002-1.291-0.582-1.289-1.297c0.002-0.713,0.586-1.289,1.301-1.287
					c0.711,0.006,1.289,0.584,1.285,1.299C222.184,140.123,221.6,140.699,220.889,140.693z"/>
			</g>
			<g>
				<circle cx="243.277" cy="148.784" r="1.292"/>
				<circle cx="224.779" cy="130.132" r="1.292"/>
			</g>
			<g>
				<circle cx="229.234" cy="127.229" r="1.291"/>
				<path d="M240.027,151.217c0.262,0.664-0.066,1.414-0.732,1.678c-0.662,0.258-1.412-0.07-1.674-0.732
					c-0.26-0.666,0.066-1.416,0.73-1.676C239.014,150.225,239.764,150.555,240.027,151.217z"/>
			</g>
			<g>
				<path d="M240.471,127.938c-0.289,0.654-1.049,0.953-1.701,0.668c-0.652-0.287-0.953-1.047-0.668-1.703
					c0.287-0.652,1.047-0.953,1.701-0.666S240.758,127.285,240.471,127.938z"/>
				<path d="M229.951,152.016c-0.283,0.652-1.047,0.951-1.701,0.664c-0.65-0.285-0.951-1.045-0.666-1.701
					c0.287-0.652,1.047-0.953,1.699-0.666C229.943,150.6,230.24,151.357,229.951,152.016z"/>
			</g>
			<g>
				<circle cx="246.258" cy="134.665" r="1.292"/>
				<circle cx="221.799" cy="144.254" r="1.291"/>
			</g>
			<g>
				<circle cx="246.066" cy="144.716" r="1.292"/>
				<path d="M221.475,135.385c-0.652-0.287-0.953-1.049-0.666-1.703c0.283-0.65,1.047-0.951,1.699-0.664
					c0.65,0.285,0.953,1.047,0.668,1.703C222.889,135.373,222.127,135.672,221.475,135.385z"/>
			</g>
		</g>
	</g>
</g>
<g id="Van">
	<g>
		<path fill="#BDFFFF" d="M198.391,57.392l-0.092,22.047c-0.008,1.74-1.422,3.146-3.162,3.135l-47.244-0.194l0.104-25.199
			c0.008-1.737,1.426-3.146,3.164-3.135l44.095,0.187C196.996,54.24,198.4,55.65,198.391,57.392z"/>
		<path fill="#BDFFFF" d="M128.78,57.101l-0.092,22.045c-0.008,1.74-1.432,3.146-3.164,3.138l-44.588-0.188L81,66.417
			c0.027-7,5.217-12.646,11.598-12.62l33.045,0.138C127.375,53.943,128.786,55.359,128.78,57.101z"/>
		<path fill="#E5E5E5" d="M284.531,86.725l-0.016,3.896l-238.59-1c-0.36-0.002-0.717-0.021-1.063-0.064l-9.826-0.041
			c-0.408,0.002-0.804-0.094-1.155-0.262c-0.94-0.438-1.595-1.4-1.588-2.5c0.004-0.758,0.313-1.45,0.817-1.946
			c0.23-0.229,0.5-0.414,0.799-0.549c0.353-5.192,1.549-14.487,2.963-21.063c1.31-6.124,2.56-13.343,8.406-14.509
			c0.551-0.116,1.143-0.176,1.771-0.174c7.387,0.028,21.289,0.089,21.289,0.089l198.576,0.835c0,0,3.404-0.198,5.439,4.242
			l0.326,0.877l9.895,26.703l1.316,3.56l0.266,0.41l0.002,0.008C284.404,85.676,284.533,86.186,284.531,86.725z"/>
		<g>
			<path fill="#E58C4A" d="M226.785,87.984l0.018,3.508l0.404,3.672h18.863l0.262-4h1.217v-3.18c0-0.092,0.273-0.268,0.271-0.359
				c-0.146-5.186-4.107-9.461-9.328-9.461h-3.889c-4.266,0-6.08,2.879-7.34,6.73c-0.01,0.023-0.018,0.086-0.021,0.109
				c-0.164,0.512-0.287,1.063-0.361,1.604C226.818,87.055,226.785,87.525,226.785,87.984z"/>
			<path fill="#EFBFA5" d="M235.404,72.902c0.057,1.586,0.17,4.732,0.611,6.916c0.115,0.58,0.256,1.092,0.424,1.488
				c0,0,0.057,0.002,0.057,0.004l0.057,0.002v0.004v0.002v0.002l0,0v0.002c0,0.135,0.563,1.127,1.979,1.127
				c0.404,0,0.713-0.086,0.98-0.207c0.633-0.281,0.893-0.752,0.893-0.752s-0.656-1.734-0.578-3.049
				c0.014-0.219,0.043-0.424,0.104-0.609c0.031-0.102,0.07-0.196,0.121-0.285c0.436-0.762,1.111-0.348,2.166,0.451
				c0.604,0.459,1.33,1.045,2.205,1.607c2.4,1.541,4.457-0.258,4.885-1.459c0.168-0.467,0.309-0.557,0.525-0.697
				c0.34-0.217,0.865-0.555,1.969-2.645c0.844-1.602,1.123-3.5,1.195-5.367c0.008-0.182,0.014-0.359,0.018-0.541
				c0.002-0.043,0.002-0.086,0.002-0.129c0.002-0.043-0.23-0.086-0.23-0.129c0-0.117-0.23-0.236-0.23-0.354V65.27
				c0-0.334,0.203-0.653,0.209-0.957c0.002-0.172,0.109-0.338,0.119-0.498c0.002-0.026,0.057-0.06,0.059-0.088
				c0.002-0.021-0.197-0.045-0.195-0.067c0.004-0.051-0.189-0.103-0.189-0.15c0-0.016,0-0.029,0-0.043c0-0.033,0-0.064,0-0.096
				c0.002-0.031,0-0.063,0-0.095v-0.002c0-0.306,0.221-0.582,0.191-0.836c-0.121-1.103-0.414-1.808-0.941-2.563
				c-0.207-0.295-0.375-0.596-0.605-0.931c-0.105-0.149-0.186-0.308-0.289-0.474c-0.936,0.004-1.914,0.273-2.459-0.559
				c-0.807-1.223-0.988-0.996-1.604-0.289c-0.607,0.707-1.668,1.094-2.76-0.098c-1.094-1.191-2.152-0.449-2.506,0.387
				s-0.514,0.709-1.125,0.549c-0.838-0.223-0.996,0.354-2.152,1.156c-0.045,0.03-0.088,0.063-0.129,0.096
				c-0.02,0.016-0.041,0.029-0.061,0.047c-0.021,0.016-0.039,0.031-0.061,0.049c-0.018,0.014-0.033,0.027-0.049,0.041
				c-0.029,0.025-0.061,0.055-0.086,0.08c-0.014,0.012-0.023,0.021-0.035,0.035c-0.014,0.01-0.023,0.021-0.035,0.035
				c-0.018,0.016-0.031,0.033-0.047,0.051c-0.018,0.018-0.031,0.035-0.047,0.053c-0.016,0.017-0.025,0.031-0.039,0.047
				c-0.027,0.035-0.055,0.07-0.078,0.105c-0.02,0.025-0.037,0.055-0.055,0.084c-0.037,0.057-0.066,0.117-0.098,0.176
				c-0.012,0.027-0.023,0.057-0.035,0.084c-0.012,0.029-0.021,0.061-0.033,0.09c-0.01,0.025-0.018,0.053-0.021,0.078
				c-0.004,0.01-0.006,0.018-0.008,0.023c-0.008,0.026-0.016,0.053-0.021,0.078c0,0.004,0,0.008-0.002,0.012
				c-0.004,0.021-0.008,0.045-0.012,0.066c-0.002,0.008,0.107,0.016,0.107,0.021c-0.027,0.164,0.09,0.336,0.09,0.519v0.006
				c0,0.022-0.109,0.049-0.107,0.074c0.01,0.106-0.033,0.217-0.016,0.332c0.004,0.028-0.02,0.061-0.014,0.088
				c0.041,0.231,0.086,0.481,0.16,0.748c0.107,0.403,0.148,0.737,0.148,1.03c0,0.033-0.006,0.065-0.006,0.101
				c-0.002,0.033-0.006,0.063-0.008,0.098c-0.002,0.021-0.004,0.045-0.008,0.066c-0.002,0.021-0.004,0.043-0.006,0.063
				c-0.002,0.015-0.006,0.026-0.008,0.043c-0.004,0.021-0.008,0.047-0.012,0.065c-0.004,0.029-0.012,0.058-0.018,0.082
				c-0.004,0.023-0.01,0.045-0.016,0.066c-0.016,0.055-0.029,0.107-0.047,0.16c-0.008,0.025-0.018,0.049-0.023,0.074
				c-0.021,0.061-0.045,0.123-0.07,0.182c-0.002,0.008-0.006,0.015-0.008,0.021c-0.006,0.017-0.014,0.026-0.02,0.043
				c-0.051,0.108-0.105,0.22-0.164,0.328c-0.082,0.149-0.174,0.308-0.27,0.472c-0.516,0.899-1.027,1.028-0.898,2.508
				c0.129,1.479,1.93,1.563,1.93,1.563s0.258,0.879-0.322,1.647C237.307,71.954,236.473,72.587,235.404,72.902z"/>
			<path fill="none" stroke="#000000" stroke-width="0.9201" stroke-miterlimit="10" d="M235.375,71.847
				c0,0,0.006,0.406,0.025,1.058"/>
			<path fill="none" stroke="#000000" stroke-width="0.9201" stroke-miterlimit="10" d="M250.59,57.917
				c0.111,0.198,0.229,0.382,0.342,0.559"/>
			<path fill="#B78906" d="M235.365,67v-0.1c0.002-0.041,0.004-0.078,0.006-0.117c-0.004,0.039-0.004,0.076-0.008,0.117L235.365,67z
				"/>
			<path fill="#E0A30A" d="M228.752,60.749c0.645,1.285,0.838,3.793,1.545,4.563c0.705,0.771,0.896,1.223,0.643,2.379
				c-0.258,1.158-0.643,1.801,0.578,2.637c1.223,0.836,1.352,2.893,2.895,2.766c0.35-0.028,0.682-0.096,0.992-0.188
				c1.07-0.316,1.902-0.951,2.352-1.549c0.578-0.771,0.322-1.65,0.322-1.65s-0.469-0.021-0.943-0.237
				c-0.102-0.047-0.201-0.103-0.297-0.166c-0.039-0.013-0.08-0.024-0.119-0.041c-0.137-0.056-0.277-0.14-0.42-0.244
				c-0.139-0.108-0.273-0.244-0.395-0.403c-0.123-0.16-0.23-0.345-0.314-0.545c-0.084-0.199-0.145-0.416-0.184-0.642
				c-0.006-0.026-0.01-0.06-0.014-0.086c-0.012-0.086-0.02-0.172-0.021-0.258l0.09-0.021l0.09-0.013v-0.006l-0.092-0.043
				l-0.047-0.101c0.002-0.041-0.02-0.078-0.016-0.117c0-0.014-0.01-0.024-0.008-0.041c0.021-0.223,0.07-0.44,0.156-0.645
				c0.043-0.104,0.092-0.199,0.145-0.291c0.059-0.09,0.121-0.174,0.189-0.252c0.141-0.152,0.297-0.279,0.465-0.355
				c0.166-0.08,0.344-0.112,0.51-0.108c0.164,0.002,0.318,0.039,0.451,0.09c0.039-0.074,0.076-0.146,0.111-0.215
				c0.295-0.599,0.428-1.187,0.145-2.226c-0.189-0.696-0.293-1.27-0.213-1.766c0.084-0.514,0.365-0.945,0.953-1.354
				c1.156-0.804,1.314-1.377,2.154-1.156c0.607,0.16,0.77,0.287,1.125-0.549c0.352-0.834,1.414-1.574,2.506-0.387
				c1.094,1.188,2.152,0.805,2.764,0.098s0.807-0.934,1.607,0.289c0.547,0.832,1.541,0.563,2.475,0.559
				c0.189-0.002,0.377,0.008,0.559,0.041c0.234,0.043,0.463,0.123,0.666,0.271c1.123,0.804,2.059,0.033,2.795-0.867
				c0.74-0.899,0.451-2.123-0.127-3.119s1.156-1.414,0.738-3.215s-2.508-2.174-2.508-2.174s1.844-3.258-1.242-5.037
				c0,0,0.492,1.563-0.277,1.994c0,0,0.492-2.207-2.852-3.345c0,0,0.793,2.379-0.322,2.742c-1.111,0.365-1.887-1.973-3.92-1.051
				c-2.037,0.922-2.699,1.029-3.234,0.73c-0.537-0.301-2.766-0.389-3.881,0.729c-1.111,1.113-2.207,2.722-3.77,2.551
				c-1.564-0.172-2.551,1.414-2.572,2.187c-0.02,0.772-0.813,3.472-1.393,4.756C229.01,56.955,228.111,59.46,228.752,60.749z"/>
			<g>
				<g>
					<polygon fill="#CE9D85" points="242.313,62.7 242.406,63.304 247.137,63.732 247.246,63.146 					"/>
					<path fill="#CE9D85" d="M251.064,63.818h1.92c0.002-0.055,0.004-0.104,0.008-0.158c0.008-0.133,0.014-0.26,0.016-0.381h-1.986
						L251.064,63.818z"/>
				</g>
				<g>
					<polygon fill="#B78906" points="241.951,60.577 242.297,62.698 242.313,62.7 247.246,63.146 247.449,62.433 247.633,61.796 
											"/>
					<polygon fill="#B78906" points="250.943,62.439 251.02,63.275 253.211,63.275 253.211,62.439 					"/>
				</g>
			</g>
			<ellipse fill="#523C34" cx="244.787" cy="64.958" rx="0.473" ry="1.019"/>
			<ellipse fill="#523C34" cx="251.563" cy="64.958" rx="0.471" ry="1.019"/>
			<g>
				<path fill="#70573A" d="M247.506,71.249l0.07,0.028c0.309,0.135,0.615,0.265,0.924,0.392c0.311,0.125,0.617,0.248,0.932,0.369
					l0.045,0.017l0.061-0.01c0.258-0.041,0.518-0.086,0.773-0.131l0.771-0.142l0.186-0.033l0.002-0.19l0.002-0.558l-0.002-0.56
					l-0.002-0.146l-0.129-0.06l-0.453-0.209l-0.336-0.151c-0.006-0.263-0.016-0.521-0.021-0.783
					c-0.004-0.074-0.006-0.146-0.01-0.224v-0.008c-0.008-0.194-0.018-0.393-0.025-0.586c-0.002-0.018-0.002-0.033-0.004-0.049
					c0-0.02-0.002-0.037-0.002-0.057c-0.018-0.307-0.037-0.613-0.061-0.922c-0.012-0.152-0.025-0.307-0.039-0.461
					c-0.014-0.152-0.027-0.307-0.047-0.459c-0.018,0.152-0.033,0.307-0.045,0.459c-0.014,0.154-0.027,0.309-0.039,0.461
					c-0.02,0.256-0.037,0.512-0.051,0.768c-0.002,0.013-0.002,0.025-0.002,0.037c-0.004,0.039-0.006,0.078-0.008,0.117
					c-0.006,0.146-0.016,0.293-0.021,0.438V68.6c-0.006,0.162-0.016,0.321-0.021,0.481c-0.012,0.31-0.02,0.615-0.025,0.922
					l-0.004,0.131l0.125,0.063l0.445,0.224l0.316,0.153l-0.002,0.119v0.297l0.002,0.371l-0.584,0.121
					c-0.24,0.054-0.48,0.104-0.721,0.158c-0.299-0.097-0.6-0.188-0.898-0.274c-0.301-0.09-0.602-0.176-0.902-0.26l-0.018-0.244
					l-0.002-0.031l-0.027-0.316c0.127-0.024,0.254-0.051,0.381-0.08c-0.145-0.002-0.289-0.002-0.434,0h-0.035l-0.004,0.043
					l-0.031,0.354l-0.023,0.354L247.506,71.249z"/>
				<path fill="#CE9D85" d="M247.689,70.859l0.02,0.244c0.301,0.084,0.6,0.172,0.9,0.26c0.301,0.09,0.602,0.185,0.898,0.277
					c0.236-0.055,0.479-0.105,0.721-0.158l0.453-0.121l-0.131-0.371v-0.297l-1.133,0.344L247.689,70.859z"/>
			</g>
			<path fill="#70573A" d="M248.793,75.333c0,0-0.074-0.019-0.203-0.045c-0.131-0.028-0.314-0.069-0.525-0.121
				c-0.107-0.026-0.225-0.058-0.346-0.09c-0.119-0.03-0.244-0.069-0.373-0.108c-0.129-0.041-0.26-0.084-0.391-0.135
				c-0.131-0.049-0.258-0.105-0.385-0.164c-0.125-0.062-0.248-0.125-0.361-0.195c-0.115-0.07-0.229-0.145-0.328-0.225
				c-0.104-0.08-0.195-0.162-0.279-0.246c-0.047-0.039-0.082-0.086-0.121-0.127c-0.041-0.039-0.074-0.084-0.107-0.125
				c-0.035-0.041-0.066-0.08-0.096-0.121c-0.029-0.039-0.059-0.078-0.084-0.113c-0.045-0.076-0.092-0.141-0.125-0.197
				c-0.031-0.057-0.063-0.102-0.078-0.133c-0.021-0.03-0.029-0.047-0.029-0.047s0.002,0.021,0.002,0.056
				c0.004,0.037,0.006,0.09,0.014,0.158c0.008,0.065,0.023,0.147,0.045,0.242c0.029,0.09,0.057,0.196,0.107,0.306
				c0.045,0.108,0.107,0.225,0.186,0.342c0.078,0.11,0.17,0.229,0.277,0.336c0.053,0.055,0.109,0.104,0.17,0.153
				c0.029,0.022,0.061,0.051,0.092,0.074c0.031,0.022,0.063,0.045,0.096,0.067c0.129,0.095,0.271,0.17,0.414,0.24
				c0.146,0.064,0.291,0.127,0.439,0.17c0.148,0.049,0.299,0.082,0.441,0.107c0.145,0.025,0.283,0.043,0.416,0.051
				c0.135,0.01,0.26,0.012,0.375,0.008c0.115-0.006,0.223-0.014,0.313-0.023c0.096-0.012,0.174-0.026,0.24-0.041
				c0.064-0.012,0.117-0.026,0.152-0.035C248.777,75.339,248.793,75.333,248.793,75.333z"/>
			<path fill="#E0A30A" d="M237.979,74.634c0,0,0.014,0.025,0.033,0.072c0.15,0.348,0.816,1.871,1.188,2.75l0.002,0.006
				c0.154,0.373,0.369,0.699,0.617,0.979c0.313,0.355,0.68,0.635,1.049,0.836c0.119,0.066,0.24,0.123,0.357,0.172
				c0.771,0.316,3.15,1.291,4.051,1.937c0.9,0.644,4.113-0.256,4.371-1.285c0.258-1.028,0.184-2.647,0.184-2.647
				c-0.318-0.279-0.889,0.848-2.465,1.36c-1.52,0.496-5.133-1.131-6.137-2.433c-0.037-0.049-0.07-0.096-0.102-0.141
				c-0.262-0.412-0.465-0.777-0.658-1.105l-0.02-0.024c-0.418-0.707-0.789-1.237-1.574-1.69
				C237.721,72.75,237.979,74.634,237.979,74.634z"/>
			<g>
				<path fill="#CE9D85" d="M246.881,65.166c0,0,0.051,0.064,0.123,0.178c0.033,0.06,0.078,0.127,0.115,0.207
					c0.055,0.07,0.053,0.197,0.063,0.326c0,0.125,0.031,0.31-0.025,0.437c-0.041,0.14-0.086,0.295-0.154,0.442
					c-0.092,0.131-0.188,0.273-0.311,0.398c-0.105,0.143-0.271,0.207-0.41,0.311c-0.295,0.197-0.641,0.226-0.939,0.271
					c-0.301-0.025-0.58-0.055-0.795-0.145c-0.428-0.201-0.645-0.426-0.645-0.426s0.318-0.138,0.691-0.205
					c0.096-0.015,0.189-0.076,0.291-0.101c0.1-0.03,0.197-0.067,0.301-0.084c0.098-0.041,0.184-0.104,0.283-0.133
					c0.104-0.021,0.188-0.074,0.266-0.14c0.078-0.053,0.193-0.067,0.248-0.145c0.063-0.068,0.154-0.111,0.229-0.17
					c0.049-0.074,0.121-0.135,0.189-0.201c0.082-0.068,0.092-0.127,0.154-0.193c0.039-0.069,0.127-0.121,0.145-0.217
					c0.025-0.084,0.061-0.16,0.086-0.221C246.84,65.236,246.881,65.166,246.881,65.166z"/>
			</g>
			<g>
				<path fill="#CE9D85" d="M250.771,65.562c0,0,0.191,0.146,0.361,0.324c0.174,0.185,0.346,0.398,0.447,0.539
					c0.045,0.072,0.078,0.119,0.1,0.183c0.027,0.054,0.074,0.127,0.158,0.19c0.164,0.127,0.398,0.22,0.396,0.229
					c-0.01-0.017-0.057,0.248-0.359,0.401c-0.146,0.082-0.379,0.119-0.617,0.049c-0.246-0.063-0.438-0.244-0.578-0.42
					c-0.248-0.379-0.25-0.772-0.164-1.049C250.594,65.73,250.771,65.562,250.771,65.562z"/>
			</g>
			<path fill="#CE9D85" d="M249.234,72.212c-0.025,0.938,0.01,1.674,0.01,1.674l-0.396-0.135l-0.193-1.789L249.234,72.212z"/>
			<path fill="#CE9D85" d="M249.508,72.212c0.023,0.938,0.004,1.674,0.004,1.674l0.412-0.135l0.211-1.645L249.508,72.212z"/>
			<g>
				<g>
					<path fill="#2CDA9B" d="M245.92,67.933L245.92,67.933c0.014-0.004,0.023-0.006,0.037-0.01L245.92,67.933z M246.469,67.724
						h0.002c0.004-0.002,0.006-0.002,0.008-0.004s0.004-0.002,0.006-0.004c0.01-0.008,0.021-0.012,0.029-0.018
						c0.004-0.002,0.006-0.004,0.01-0.006c-0.004,0-0.006,0.002-0.01,0.004c-0.016,0.01-0.027,0.02-0.045,0.025
						C246.471,67.722,246.469,67.724,246.469,67.724z M246.563,67.669c0.008-0.004,0.016-0.008,0.021-0.014v-0.002l0.008-0.004
						c-0.002,0-0.006,0.002-0.008,0.004C246.576,67.661,246.57,67.666,246.563,67.669z M245.9,67.907l0.021,0.022
						c0.006-0.002,0.025-0.01,0.037-0.012c0.012-0.004,0.025-0.012,0.039-0.016c0-0.004-0.002-0.006-0.002-0.006
						c-0.025,0.006-0.049,0.002-0.074,0.002l0,0C245.91,67.898,245.904,67.902,245.9,67.907z M246.012,67.898
						c-0.004,0-0.012,0.002-0.018,0.004l0.002,0.002c0.004,0,0.012,0.002,0.018,0c0.016-0.004,0.025-0.008,0.041-0.012
						C246.041,67.896,246.027,67.898,246.012,67.898L246.012,67.898z M246.102,67.88c-0.018,0.004-0.027,0.008-0.043,0.012
						C246.072,67.89,246.088,67.884,246.102,67.88L246.102,67.88z M246.111,67.878c-0.002,0-0.004,0.002-0.006,0.002h0.002h0.002
						C246.111,67.88,246.111,67.878,246.111,67.878c0.027-0.008,0.055-0.02,0.078-0.025v-0.002
						C246.162,67.859,246.137,67.872,246.111,67.878z M246.193,67.851c0,0-0.002,0.002-0.004,0.002
						c0.002-0.002,0.004-0.002,0.006-0.002c0.027-0.012,0.059-0.021,0.086-0.035c0.023-0.01,0.051-0.02,0.074-0.033
						c-0.018,0.008-0.033,0.017-0.051,0.021c-0.008,0.004-0.016,0.008-0.021,0.01c-0.016,0.006-0.029,0.018-0.043,0.018l0,0
						C246.223,67.833,246.205,67.845,246.193,67.851z M246.363,67.777c0,0-0.002,0.002-0.004,0.002
						C246.361,67.782,246.363,67.777,246.363,67.777c0.008-0.004,0.014-0.006,0.02-0.008
						C246.375,67.771,246.369,67.773,246.363,67.777z M246.471,67.722l-0.002,0.002C246.469,67.724,246.471,67.724,246.471,67.722
						c0.004,0,0.006,0,0.008-0.002s0.004-0.002,0.006-0.004c0.01-0.008,0.021-0.012,0.029-0.018c0.004-0.002,0.006-0.004,0.01-0.006
						c-0.004,0-0.006,0.002-0.01,0.004C246.5,67.708,246.488,67.716,246.471,67.722z M246.584,67.657
						c-0.006,0.004-0.018,0.01-0.021,0.015C246.57,67.666,246.574,67.663,246.584,67.657L246.584,67.657l0.008-0.004
						C246.59,67.65,246.586,67.652,246.584,67.657z M246.613,67.634c-0.002,0.002-0.002,0.004-0.004,0.004h0.002l0,0
						c0.002-0.002,0.004-0.004,0.008-0.006c0.002,0,0.004-0.002,0.006-0.004c0.012-0.006,0.021-0.014,0.029-0.021l0,0
						c0.002-0.002,0.006-0.004,0.01-0.006c0.012-0.008,0.02-0.019,0.033-0.024c0.002,0,0.004-0.002,0.004-0.002
						c0.006-0.004,0.008-0.008,0.014-0.01c0.002-0.002,0.002-0.004,0.004-0.004c-0.006,0.004-0.01,0.008-0.016,0.012
						c-0.002,0.002-0.006,0.002-0.008,0.004c-0.004,0.004-0.014,0.006-0.02,0.012c-0.006,0.004-0.01,0.004-0.014,0.006
						s-0.008-0.002-0.01-0.002l0,0c-0.008,0-0.018,0.021-0.025,0.027c0,0-0.002,0.002-0.006,0.002c0,0.002-0.002,0.004-0.002,0.006
						C246.615,67.628,246.613,67.63,246.613,67.634z M246.762,67.521c0.004-0.002,0.006-0.004,0.01-0.008
						C246.77,67.515,246.766,67.517,246.762,67.521z M235.928,63.997l0.24,1.209l1.146-0.043l4.744-0.188l0.354-0.014
						c0.023,0.094,0.064,0.15,0.104,0.201c0.02,0.027,0.035,0.053,0.049,0.078c0.025,0.063,0.047,0.139,0.057,0.229
						c0.225,1.918,0.277,2.183,0.916,2.623c0.305,0.213,0.938,0.371,1.572,0.396c0.318,0.013,0.73-0.008,1.146-0.121
						c0.227-0.063,0.455-0.151,0.67-0.283c0.176-0.104,0.33-0.269,0.465-0.461c0.131-0.188,0.213-0.399,0.34-0.617
						c0.129-0.233,0.182-0.467,0.246-0.683c0.125-0.418,0.188-0.746,0.191-0.776c0.002-0.021,0.02-0.146,0.176-0.207
						c0.059-0.022,0.133-0.037,0.232-0.033c0.42,0.021,0.441,0.248,0.441,0.258c0.002,0.017,0.014,0.08,0.029,0.181
						c0,0.002,0,0.006,0.002,0.01c0.096,0.52,0.418,1.951,1.133,2.442c0.59,0.408,1.303,0.515,1.799,0.528
						c0.113,0.004,0.229,0.004,0.342-0.002c0.246-0.01,0.482-0.039,0.691-0.084c0.227-0.049,0.418-0.115,0.551-0.194
						c0.061-0.037,0.115-0.074,0.166-0.106c0.195-0.14,0.326-0.279,0.426-0.506c0.018-0.033,0.029-0.066,0.045-0.105
						c0.061-0.16,0.109-0.361,0.162-0.625c0.063-0.313,0.121-0.703,0.197-1.215c0.014-0.088,0.035-0.162,0.064-0.225
						c0.014-0.023,0.029-0.047,0.049-0.072c0.064-0.082,0.145-0.18,0.145-0.441c-0.002-0.043,0.002-0.121,0.004-0.207
						c0.006-0.131,0.01-0.274,0.006-0.354c-0.006-0.194-0.078-0.338-0.17-0.433c-0.068-0.071-0.146-0.119-0.213-0.143
						c-0.018-0.006-0.029-0.008-0.043-0.012c-0.436-0.125-0.91-0.213-1.418-0.267c-0.209-0.021-0.422-0.028-0.643-0.037
						c-0.195-0.008-0.396-0.002-0.604,0.002c-0.135,0.002-0.27,0.021-0.404,0.028l-0.061,0.033c-0.1,0.004-0.191,0.072-0.279,0.072
						l0,0c-0.293,0-0.525-0.02-0.744,0.033c-0.168,0.039-0.328,0.039-0.496,0.125c-0.104,0.055-0.213,0.117-0.311,0.174
						c-0.139,0.084-0.324,0.17-0.461,0.217c-0.033,0.012-0.063,0.02-0.088,0.025c-0.055,0.014-0.105,0.024-0.154,0.035
						c-0.035,0.008-0.086,0.012-0.139,0.01c-0.047-0.002-0.098-0.008-0.131-0.019c-0.047-0.017-0.102-0.028-0.15-0.045
						c-0.078-0.022-0.191-0.078-0.309-0.142c-0.082-0.045-0.166-0.094-0.232-0.141c-0.098-0.064-0.201-0.131-0.307-0.191
						c-0.445-0.268-0.824-0.291-1.508-0.393l-0.059-0.002c-0.029-0.002-0.061-0.002-0.09-0.002c-0.098-0.025-0.174-0.047-0.25-0.059
						c-0.08-0.019-0.156-0.033-0.232-0.037c-0.117-0.004-0.23-0.008-0.346-0.013c-0.289-0.01-0.563-0.01-0.826,0
						c-0.475,0.021-0.924,0.088-1.334,0.181c-0.043,0.006-0.1,0.024-0.156,0.061c-0.01,0.006-0.021,0.012-0.029,0.02
						c-0.066,0.047-0.141,0.117-0.188,0.215l-4.748,0.078L235.928,63.997z M254.303,64.794l0.289-0.133l-0.004,0.287L254.303,64.794
						z M249.545,65.21c0.002-0.008,0.006-0.018,0.006-0.023c0-0.004,0-0.008,0-0.012c0-0.021,0.104-0.01,0.104-0.01h0.018
						c0,0-0.061-0.059-0.059-0.072c0.002-0.02-0.094-0.049-0.092-0.063c0.004-0.024,0.027-0.056,0.031-0.069
						c0.002-0.006,0.014-0.015,0.014-0.021c0.002-0.006,0.008-0.017,0.01-0.019c0.002-0.004,0.004-0.008,0.004-0.01
						c0.002-0.01,0.008-0.014,0.01-0.02c0.002-0.002,0.002-0.008,0.004-0.01s0.002-0.002,0.002-0.002
						c0.004-0.006,0.006-0.012,0.008-0.016c0.033-0.063,0.105-0.15,0.252-0.238c0.021-0.012,0.039-0.023,0.063-0.035
						c0.021-0.012,0.045-0.023,0.066-0.035c0.037-0.018,0.078-0.033,0.121-0.051c0.018-0.006,0.029-0.012,0.045-0.016
						c0.045-0.019,0.096-0.033,0.146-0.047c0.02-0.006,0.039-0.01,0.059-0.017c0.039-0.013,0.078-0.021,0.119-0.028
						c0.02-0.004,0.037-0.01,0.059-0.015c0.043-0.01,0.082-0.019,0.123-0.022c0.006-0.002,0.014-0.002,0.02-0.004l0.059-0.01
						c0.018-0.002,0.033-0.004,0.051-0.008c0.018-0.002,0.035-0.006,0.053-0.008c0.059-0.008,0.119-0.017,0.184-0.021
						c0.021-0.004,0.049-0.006,0.07-0.008s0.045-0.006,0.066-0.006c0.018-0.002,0.031-0.004,0.047-0.006
						c0.047-0.002,0.098-0.006,0.146-0.01c0.023,0,0.053-0.002,0.08-0.004c0.025-0.002,0.061-0.004,0.09-0.006
						s0.063-0.004,0.096-0.004c0.031-0.002,0.063-0.049,0.096-0.049c0.113-0.004,0.223-0.053,0.324-0.053c0.053,0,0.104,0,0.152,0
						c0.018,0,0.033,0.045,0.051,0.047c0.051,0,0.102,0.024,0.146,0.026c0.059,0,0.109,0.017,0.164,0.019
						c0.012,0.002,0.02,0.008,0.027,0.008c0.014,0,0.021,0.004,0.031,0.004c0.037,0.004,0.07,0.008,0.104,0.012
						c0.006,0,0.016-0.061,0.021-0.061c0.02,0.002,0.041-0.056,0.061-0.056c0.004,0,0.008,0,0.014,0
						c0.016,0,0.029,0.063,0.045,0.067c0.01,0,0.02,0.033,0.023,0.035c0.016,0.002,0.027,0.021,0.041,0.021
						c0.02,0.004,0.033,0.014,0.051,0.018c0.006,0,0.016,0.006,0.021,0.006c0.016,0.002,0.027,0.008,0.045,0.013
						c0.016,0.005,0.025,0.008,0.041,0.01c0.02,0.004,0.033,0.008,0.047,0.01c0.01,0.004,0.02,0.006,0.025,0.008
						c0.014,0.002,0.021,0.006,0.031,0.008c0.012,0.004,0.021,0.006,0.029,0.01c0.01,0.002,0.021,0.004,0.027,0.008
						c0.008,0.002,0.016,0.004,0.021,0.006c0.004,0.002,0.006,0.002,0.008,0.004c0.059,0.021,0.107,0.037,0.154,0.062
						c0.006,0.002,0.014,0.006,0.02,0.008c0.014,0.006,0.021,0.012,0.033,0.018c0.014,0.006,0.021,0.012,0.033,0.02
						c0.021,0.013,0.045,0.025,0.066,0.041c0.037,0.023,0.066,0.051,0.1,0.078c0.016,0.015,0.029,0.027,0.043,0.041
						c0.012,0.015,0.021,0.023,0.033,0.037c0.004,0.006,0.012,0.013,0.016,0.019c0.006,0.008,0.01,0.015,0.014,0.021
						c0.008,0.012,0.018,0.021,0.023,0.028c0.008,0.015,0.014,0.022,0.021,0.035c0.021,0.033,0.043,0.069,0.063,0.106
						c0.109,0.22,0.182,0.674,0.178,0.959c0,0.056,0.246,0.113,0.244,0.176c0,0.025,0.244,0.054,0.244,0.082
						c0,0.015,0,0.029,0,0.045c0,0.021-0.248,0.045-0.25,0.066c0,0.01-0.123,0.02-0.125,0.029c-0.002,0.035-0.307,0.069-0.311,0.106
						c-0.004,0.03-0.314,0.062-0.314,0.09v0.004c0,0.024,0.232,0.051,0.229,0.076c-0.004,0.024,0.109,0.049,0.104,0.074
						c-0.002,0.041,0.043,0.071,0.037,0.104c-0.016,0.076-0.008,0.151-0.025,0.229c-0.004,0.016,0.006,0.029,0.002,0.045
						c-0.008,0.027-0.01,0.057-0.02,0.082c-0.002,0.008,0,0.016-0.002,0.021c-0.012,0.039-0.021,0.076-0.035,0.112
						c-0.006,0.017-0.012,0.03-0.018,0.047c-0.014,0.03-0.025,0.063-0.039,0.092c-0.08,0.174-0.186,0.336-0.316,0.465
						c-0.014,0.017-0.025,0.026-0.041,0.039c-0.016,0.017-0.029,0.024-0.047,0.039c-0.02,0.021-0.043,0.035-0.063,0.056
						c-0.004,0.004-0.01,0.006-0.016,0.01c-0.012,0.01-0.021,0.02-0.035,0.026c-0.012,0.006-0.023,0.019-0.037,0.022
						c-0.016,0.01-0.029,0.021-0.049,0.029c-0.027,0.014-0.059,0.031-0.088,0.043c-0.021,0.01-0.049,0.031-0.074,0.039
						c-0.08,0.029-0.166,0.074-0.258,0.094c-0.037,0.008-0.07,0.062-0.107,0.066c-0.082,0.018-0.168,0.123-0.254,0.133
						c-0.006,0-0.01,0.184-0.018,0.184l0,0c0,0,0.086-0.182,0.084-0.182c0,0.002,0.086-0.184,0.086-0.184v0.002l-0.088,0.01
						c-0.035,0.006-0.174,0.02-0.209,0.021c-0.021,0.004-0.037,0.024-0.061,0.028c-0.049,0.006-0.092,0.049-0.143,0.058
						c-0.025,0.002-0.051-0.127-0.076-0.125c-0.008,0.002-0.016-0.054-0.023-0.054h-0.006c0,0,0,0-0.002,0
						c-0.012,0-0.021,0.14-0.037,0.14s-0.064,0.035-0.072,0.033c-0.084-0.004-0.283,0.196-0.283,0.196v0.025
						c0,0,0.014-0.189,0-0.199c-0.041-0.037-0.043-0.195-0.084-0.195h-0.15c-0.051,0-0.1-0.018-0.146-0.03
						c-0.023-0.008-0.047-0.11-0.07-0.119c-0.021-0.008-0.041,0.037-0.063,0.028c-0.021-0.008-0.041,0.01-0.061,0
						c-0.039-0.018-0.078-0.021-0.115-0.039c-0.078-0.037-0.148-0.069-0.219-0.117c-0.078-0.051-0.15-0.102-0.223-0.162
						c-0.018-0.016-0.033-0.028-0.051-0.045c-0.016-0.016-0.029-0.028-0.049-0.047c-0.02-0.02-0.041-0.041-0.061-0.063
						c-0.004-0.006-0.008-0.01-0.014-0.014c-0.021-0.023-0.039-0.049-0.059-0.072c-0.014-0.014-0.021-0.025-0.029-0.039
						c-0.01-0.012-0.02-0.025-0.027-0.037c-0.021-0.029-0.039-0.059-0.057-0.088c-0.01-0.012-0.018-0.023-0.021-0.037
						c-0.002-0.002-0.004-0.004-0.004-0.006c-0.006-0.012-0.014-0.021-0.02-0.033c-0.02-0.033-0.035-0.064-0.049-0.1
						c-0.021-0.043-0.039-0.084-0.057-0.127c-0.014-0.021-0.021-0.045-0.029-0.066c-0.016-0.035-0.025-0.066-0.039-0.098
						c-0.01-0.023-0.02-0.049-0.025-0.07c-0.045-0.117-0.082-0.227-0.115-0.334c-0.006-0.021-0.012-0.041-0.018-0.063
						c-0.016-0.054-0.029-0.104-0.041-0.152c-0.006-0.023-0.012-0.043-0.018-0.064c-0.006-0.024-0.014-0.055-0.02-0.08
						c-0.008-0.039-0.018-0.074-0.021-0.108c-0.004-0.021-0.021-0.037-0.025-0.058C249.521,65.622,249.535,65.378,249.545,65.21z
						 M243.117,65.583c0-0.037-0.004-0.071-0.004-0.106c0.002-0.08-0.066-0.172-0.055-0.269c0.002-0.008-0.08-0.021-0.08-0.026l0,0
						c0-0.025,0.104-0.054,0.111-0.08c0,0,0.063-0.002,0.064-0.004c0.002-0.01,0.049-0.021,0.051-0.031
						c0.002-0.008,0.074-0.016,0.076-0.023c0.002-0.02,0.066-0.037,0.07-0.055c0.002-0.02,0.193-0.035,0.193-0.051l0,0
						c0-0.027-0.168-0.055-0.16-0.078c0.004-0.016-0.201-0.029-0.197-0.043c0.002-0.008,0.02-0.018,0.02-0.023
						c0.006-0.02,0.021-0.037,0.025-0.055c0.008-0.025,0.02-0.051,0.027-0.074c0.006-0.018,0.016-0.033,0.021-0.049
						c0.006-0.018,0.016-0.033,0.02-0.047c0.002-0.004,0.006-0.01,0.008-0.016l0.018-0.027c0.002-0.006,0.006-0.01,0.008-0.016
						c0.01-0.019,0.02-0.031,0.025-0.045c0.004-0.004,0.006-0.008,0.008-0.013c0.002-0.002,0.002-0.004,0.004-0.006
						c0.002-0.004,0.004-0.008,0.008-0.017l0.002-0.002c0.002-0.002,0.004-0.004,0.006-0.006c0.035-0.051,0.078-0.098,0.127-0.143
						c0.014-0.012,0.023-0.021,0.033-0.031c0.002,0,0.004-0.002,0.006-0.002c0.027-0.021,0.061-0.045,0.096-0.063
						c0.01-0.006,0.02-0.014,0.029-0.018c0.012-0.006,0.021-0.013,0.031-0.019c0.008-0.004,0.018-0.008,0.023-0.013
						c0.014-0.006,0.027-0.012,0.041-0.018c0.006-0.002,0.01-0.004,0.016-0.006c0.029-0.01,0.063-0.021,0.092-0.029
						c0.021-0.006,0.043-0.01,0.064-0.014c0.057-0.018,0.115-0.021,0.182-0.031c0.016-0.002,0.025,0.008,0.039,0.008
						c0.016-0.002,0.025,0.047,0.041,0.045c0.006,0,0.014,0.072,0.018,0.072s0.008,0,0.012,0c0,0,0.004-0.076,0.006-0.076
						c0.004,0,0.008-0.063,0.014-0.064c0.008,0,0.018-0.008,0.027-0.008c0.094-0.01,0.197-0.018,0.313-0.018
						c0.076-0.002,0.156-0.002,0.244,0c0.09,0.004,0.186,0.008,0.285,0.016c0.102,0.006,0.207,0.019,0.32,0.027
						c0.021,0,0.045,0.002,0.07,0.004c0.012,0.002,0.021,0.004,0.037,0.006c0.012,0,0.02,0.002,0.033,0.002
						c0.008,0.002,0.016,0.002,0.02,0.002c0.057,0.006,0.105,0.01,0.156,0.018c0.086,0.015,0.172,0.023,0.25,0.035
						c0.08,0.017,0.154,0.025,0.229,0.039c0.025,0.004,0.043,0.004,0.063,0.004c0.1,0.023,0.189,0.047,0.275,0.07
						c0.016,0.004,0.021-0.027,0.027-0.027c0.002,0.002,0.004-0.028,0.004-0.028c0.002,0,0.006,0,0.006,0
						c0.035,0,0.068,0.054,0.104,0.063c0.004,0.002,0.006,0.02,0.01,0.021c0.016,0.002,0.025,0.017,0.039,0.021
						c0.039,0.014,0.076,0.028,0.111,0.041c0.018,0.006,0.033,0.014,0.049,0.021c0.039,0.015,0.076,0.026,0.111,0.043
						c0.016,0.006,0.027,0.013,0.041,0.019c0.016,0.008,0.029,0.016,0.045,0.021c0.029,0.015,0.057,0.024,0.082,0.041
						c0.053,0.026,0.1,0.056,0.137,0.082c0.012,0.006,0.021,0.013,0.029,0.019c0.074,0.055,0.09,0.104,0.125,0.146
						c0.045,0.056,0.039,0.103,0.039,0.133c0,0.002,0,0.004,0,0.008c0,0.006,0.039,0.015,0.041,0.022s0.021,0.017,0.023,0.025
						c0.018,0.104,0.053,0.352,0.002,0.717c-0.004,0.035-0.006,0.068-0.014,0.104c-0.002,0.019-0.021,0.033-0.023,0.051
						c-0.004,0.019-0.029,0.031-0.029,0.047c0,0.004,0,0.008,0,0.013c0,0.006,0.02,0.01,0.018,0.015c0,0.004,0.01,0.008,0.008,0.01
						c0,0.008,0.002,0.016,0.002,0.021c-0.018,0.069-0.025,0.121-0.039,0.172c-0.002,0.01-0.004,0.021-0.006,0.028
						c0,0.002,0.021,0.004,0.021,0.006c-0.01,0.031-0.004,0.063-0.004,0.097v0.004c0,0.004-0.025,0.01-0.027,0.013
						c0,0.006-0.016,0.008-0.016,0.014c-0.004,0.008-0.012,0.018-0.016,0.023c-0.012,0.039-0.027,0.078-0.039,0.117
						c-0.002,0.008-0.008,0.018-0.01,0.022c-0.01,0.028-0.021,0.054-0.027,0.076c-0.002,0.004-0.004,0.004-0.004,0.006
						c-0.002,0.01-0.006,0.019-0.01,0.024c-0.008,0.025-0.018,0.051-0.027,0.076c-0.006,0.021-0.016,0.037-0.021,0.056
						c-0.008,0.021-0.02,0.041-0.023,0.063c-0.051,0.119-0.109,0.242-0.182,0.381c-0.016,0.028-0.033,0.059-0.051,0.084
						c-0.012,0.02-0.27,0.037-0.279,0.055c-0.002,0.006-0.266,0.01-0.266,0.016l0,0c0,0.027,0.217,0.056,0.197,0.08
						c-0.014,0.015,0.117,0.027,0.104,0.039c0,0,0.061,0.002,0.061,0.004c-0.004,0.002-0.172,0.006-0.176,0.008
						c-0.002,0.004-0.186,0.006-0.186,0.008v0.017c0,0.004,0.191,0.021,0.188,0.021c-0.006,0.008,0.09-0.117,0.084-0.108
						c-0.006,0.006-0.09-0.095-0.098-0.095h-0.176v0.263v-0.039c0,0.004,0.17,0.008,0.166,0.015
						c-0.006,0.006,0.076,0.012,0.07,0.018c-0.002,0.004,0.041,0.006,0.037,0.008c-0.006,0.006,0.01,0.014,0.006,0.018
						c-0.002,0.002,0.008,0.004,0.006,0.006s0.004,0.004,0,0.008s0,0.008-0.006,0.01c-0.006,0.006-0.002,0.015-0.01,0.021
						c-0.002,0.004,0.012,0.006,0.01,0.008c-0.004,0.002,0.025,0.004,0.025,0.006c-0.004,0.002-0.186,0.006-0.188,0.01l-0.119,0.006
						v0.004c0,0,0.109-0.181,0.105-0.179c0,0,0.029-0.174,0.027-0.174h-0.063c-0.004,0-0.072,0.328-0.072,0.332
						c0,0.002,0,0.027,0,0.027v0.002c0,0.002,0.104,0.006,0.104,0.006c-0.006,0.004-0.043,0.014-0.047,0.018
						c-0.008,0.004-0.057,0.021-0.057,0.025v0.023c0,0,0.086-0.242,0.084-0.24l0.041-0.193h0.02c-0.004,0-0.145,0.439-0.145,0.441
						v-0.441h0.143c0.004,0,0.006,0.203,0.006,0.203c0.006-0.004,0.01,0.125,0.016,0.123c0-0.004,0.002,0.037,0.004,0.035
						c-0.006,0.004-0.01,0.029-0.016,0.033c-0.002,0.002-0.006,0.021-0.008,0.021c-0.004,0.006-0.012,0.033-0.018,0.037
						s-0.01,0.045-0.016,0.049c-0.004,0.002-0.008,0.076-0.01,0.076l0,0c-0.008,0-0.008-0.06-0.018-0.051
						c-0.002,0.002,0.006-0.074,0.004-0.074c-0.002,0.002,0.016,0.004,0.016,0.006c-0.004,0.002-0.039,0.006-0.041,0.01
						c-0.002,0-0.002,0.002-0.002,0.004l0,0l0.02,0.018c-0.002,0.002-0.021,0.02-0.021,0.02c-0.004,0.004-0.02,0.037-0.023,0.041
						l0.025,0.064l0,0l-0.018-0.063c-0.006,0.004-0.059-0.054-0.064-0.051c-0.002,0,0.016,0.002,0.016,0.004
						c-0.006,0.002-0.002,0.008-0.006,0.012l0.008,0.006c-0.002,0,0.004,0.008,0.004,0.008v0.016c0,0.002-0.02-0.125-0.021-0.125
						h-0.002c0,0-0.002,0.056-0.004,0.056c-0.004,0-0.006,0.015-0.01,0.017c-0.016,0.01-0.027,0.039-0.045,0.047l-0.002,0.012
						c-0.002,0.002-0.004,0.008-0.004,0.008c-0.006,0.004-0.012,0.008-0.018,0.01c-0.008,0.004-0.016,0.01-0.021,0.016
						c-0.01,0.004-0.021,0.01-0.027,0.015c-0.004,0.002-0.012-0.301-0.018-0.297c-0.006,0.002-0.012-0.299-0.018-0.299
						c-0.002,0-0.004,0-0.006,0l-0.002,0.306c-0.02,0.008-0.035,0.153-0.053,0.162c-0.008,0.006,0.141,0.063,0.133,0.063
						c-0.016,0.006,0.113,0.037,0.113,0.037v0.006c0,0-0.199,0.069-0.215,0.076c-0.002,0-0.092,0.06-0.094,0.06
						c-0.023,0.01-0.113,0.041-0.141,0.049l-0.256,0.047c0,0.002-0.297,0.09-0.297,0.09v0.006c0,0,0.246-0.062,0.232-0.056
						c-0.002,0,0.184-0.271,0.184-0.271c-0.016,0.004,0.063-0.15,0.047-0.15h-0.002c-0.004,0-0.01,0.188-0.016,0.191
						c0-0.004-0.188-0.146-0.188-0.146c-0.023,0.006-0.258-0.256-0.258-0.256v-0.211l0,0v0.963c0,0,0.146-0.523,0.135-0.521
						c-0.014,0.004,0.092-0.44,0.078-0.44h0.027c-0.021,0-0.031,0.405-0.057,0.41c-0.041,0.006-0.063,0.19-0.092,0.192
						c-0.059,0.008-0.113,0.123-0.174,0.127c-0.021,0.002-0.033-0.369-0.045-0.367c-0.045,0.002-0.086-0.362-0.131-0.362h-0.074
						c-0.02,0-0.041,0.42-0.061,0.418c-0.398-0.015-0.793,0.097-1.098-0.047c-0.02-0.008-0.039,0.088-0.059,0.078
						c-0.021-0.01-0.041,0.033-0.063,0.021c-0.02-0.012-0.041,0.002-0.061-0.01c-0.006-0.002-0.01,0.008-0.016,0.004
						c-0.047-0.03-0.092-0.059-0.133-0.096c-0.021-0.02-0.041-0.035-0.061-0.055c-0.1-0.103-0.18-0.215-0.244-0.338
						c-0.008-0.017-0.016-0.025-0.021-0.039c-0.008-0.021-0.018-0.037-0.025-0.058c-0.008-0.019-0.018-0.035-0.023-0.054
						c-0.012-0.028-0.023-0.057-0.035-0.086c-0.021-0.059-0.043-0.117-0.061-0.178c-0.012-0.033-0.023-0.066-0.031-0.104
						c-0.002-0.008-0.01-0.021-0.012-0.027c-0.012-0.037-0.029-0.078-0.037-0.115c-0.002-0.008-0.307-0.016-0.311-0.035
						c0-0.004-0.326-0.004-0.326-0.008c0-0.002,0-0.006,0-0.006c0-0.004,0.32-0.008,0.318-0.016c0-0.008,0.182-0.019,0.18-0.025
						c-0.016-0.07,0.047-0.143,0.037-0.215c0-0.014,0.033-0.027,0.031-0.039C243.096,65.939,243.117,65.749,243.117,65.583z
						 M242.615,64.534l0.004-0.287l0.064,0.035l0.221,0.119l-0.221,0.103L242.615,64.534z M246.584,67.657
						c-0.006,0.004-0.018,0.01-0.021,0.015C246.57,67.666,246.574,67.663,246.584,67.657L246.584,67.657l0.008-0.004
						C246.59,67.65,246.586,67.652,246.584,67.657z M246.609,67.638L246.609,67.638L246.609,67.638
						c0.004-0.002,0.006-0.004,0.01-0.006c0.002,0,0.004-0.002,0.006-0.004c0.012-0.006,0.021-0.014,0.029-0.021l0,0
						c0.002-0.002,0.006-0.004,0.01-0.006c0.004-0.004,0.008-0.006,0.014-0.01c0.008-0.006,0.016-0.01,0.021-0.019
						c0.002,0,0.004-0.002,0.004-0.002c0.006-0.004,0.008-0.008,0.012-0.01c0.002-0.002,0.002-0.002,0.004-0.004
						c-0.004,0.004-0.008,0.008-0.014,0.013c-0.002,0.002-0.006,0.002-0.008,0.004c-0.004,0.006-0.012,0.008-0.02,0.015
						c-0.004,0.004-0.008,0.004-0.014,0.006c-0.004,0.002-0.008-0.002-0.01-0.002l0,0c-0.008,0-0.02,0.018-0.025,0.026
						c0,0-0.002,0.002-0.004,0.002c-0.002,0.002-0.002,0.002-0.004,0.004c-0.002,0.004-0.006,0.006-0.008,0.01
						C246.611,67.636,246.611,67.638,246.609,67.638z M246.563,67.669c0.008-0.004,0.016-0.008,0.021-0.014v-0.002l0.008-0.004
						c-0.002,0-0.006,0.002-0.008,0.004C246.576,67.661,246.57,67.666,246.563,67.669z M246.469,67.724h0.002
						c0.004-0.002,0.006-0.002,0.008-0.004s0.004-0.002,0.006-0.004c0.01-0.008,0.021-0.012,0.029-0.018
						c0.004-0.002,0.006-0.004,0.01-0.006c-0.004,0-0.006,0.002-0.01,0.004c-0.016,0.01-0.027,0.02-0.045,0.025
						C246.471,67.722,246.469,67.724,246.469,67.724z M245.9,67.907l0.02,0.024c0,0,0.002,0,0.002-0.002
						c0.006-0.002,0.025-0.01,0.037-0.012c0.012-0.004,0.025-0.012,0.039-0.016c0-0.004-0.002-0.006-0.002-0.006
						c-0.025,0.006-0.049,0.002-0.074,0.002l0,0C245.91,67.898,245.904,67.902,245.9,67.907L245.9,67.907z M246.012,67.898
						c-0.004,0-0.012,0.002-0.018,0.004l0.002,0.002c0.004,0,0.012,0.002,0.018,0c0.016-0.004,0.025-0.008,0.041-0.012
						C246.041,67.896,246.027,67.898,246.012,67.898L246.012,67.898z M246.102,67.88c-0.018,0.004-0.027,0.008-0.043,0.012
						C246.072,67.89,246.088,67.884,246.102,67.88L246.102,67.88z M246.111,67.878c-0.002,0-0.004,0.002-0.006,0.002h0.002h0.002
						h0.014c-0.002,0-0.006-0.002-0.008-0.002l0,0C246.113,67.878,246.111,67.878,246.111,67.878z M246.125,67.88
						c0,0-0.002,0-0.004,0C246.121,67.88,246.123,67.88,246.125,67.88c0.012-0.002,0.018-0.006,0.021-0.01
						C246.143,67.875,246.135,67.876,246.125,67.88z M246.227,67.851c-0.047,0.008-0.063,0.015-0.078,0.021
						C246.16,67.866,246.18,67.857,246.227,67.851L246.227,67.851z"/>
				</g>
				<g>
					<path fill="#FFFFFF" d="M244.127,63.999c-0.113,0.002-0.217,0.006-0.313,0.015c-0.02,0.002-0.033,0.004-0.047,0.006
						c-0.01,0-0.018,0-0.025,0.002c-0.016,0.002-0.025,0.004-0.039,0.004c-0.107,0.016-0.203,0.035-0.287,0.061
						c-0.031,0.01-0.063,0.02-0.09,0.031c-0.029,0.012-0.059,0.021-0.082,0.035c-0.061,0.026-0.109,0.061-0.156,0.098
						c-0.068,0.055-0.121,0.111-0.166,0.176c-0.01,0.014-0.016,0.02-0.021,0.027c-0.016,0.022-0.027,0.047-0.043,0.069l-0.016,0.026
						l2.602,3.383c0.494-0.117,0.895-0.373,1.141-0.74l-2.439-3.174L244.127,63.999z"/>
				</g>
				<g>
					<path fill="#FFFFFF" d="M244.98,64.042l1.918,2.498c0.105-0.27,0.174-0.512,0.215-0.723l-1.27-1.654
						c-0.021-0.006-0.045-0.01-0.066-0.016c-0.146-0.025-0.305-0.051-0.479-0.07c-0.051-0.008-0.104-0.016-0.156-0.02
						c-0.006-0.002-0.014-0.002-0.02-0.004C245.07,64.052,245.025,64.046,244.98,64.042z"/>
				</g>
				<g>
					<g>
						<path fill="#364E5B" d="M244.369,64.001c-0.086-0.004-0.168-0.006-0.244-0.004l0.02,0.02l2.438,3.172
							c-0.244,0.369-0.643,0.625-1.139,0.742l-2.602-3.383c-0.002,0.006-0.006,0.01-0.008,0.019c-0.037,0.076-0.07,0.179-0.1,0.289
							c-0.008,0.024-0.014,0.054-0.02,0.08c-0.01,0.043-0.02,0.086-0.025,0.129c-0.008,0.039-0.014,0.078-0.02,0.115
							c-0.002,0.01-0.004,0.021-0.004,0.024c-0.014,0.099-0.021,0.189-0.021,0.271c-0.002,0.188,0.002,0.422,0.029,0.666
							c0.002,0.015,0.002,0.026,0.004,0.041c0.01,0.069,0.021,0.146,0.033,0.217c0.002,0.008,0.002,0.017,0.004,0.021
							c0.004,0.021,0.004,0.023,0.006,0.029c0.004,0.02,0.006,0.027,0.006,0.035c0.098,0.459,0.289,0.908,0.664,1.158
							c0.006,0.004,0.01,0.006,0.016,0.01c0.314,0.203,0.793,0.334,1.273,0.352c0.021,0,0.043,0,0.063,0.002c0.023,0,0.049,0,0.07,0
							c0.045,0,0.09-0.002,0.135-0.004c0.016-0.002,0.029-0.002,0.045-0.004c0.063-0.004,0.119-0.01,0.18-0.018
							c0.033-0.004,0.064-0.01,0.1-0.016c0.059-0.01,0.113-0.021,0.168-0.033c0.031-0.008,0.064-0.017,0.094-0.023
							c0.123-0.035,0.242-0.078,0.352-0.131c0.012-0.006,0.021-0.012,0.033-0.016c0.01-0.006,0.02-0.01,0.027-0.017
							c0.016-0.008,0.031-0.019,0.045-0.022c0.018-0.01,0.031-0.019,0.045-0.025c0.016-0.007,0.029-0.018,0.043-0.027
							c0.01-0.004,0.02-0.01,0.025-0.016c0.025-0.018,0.053-0.035,0.078-0.055c0.006-0.004,0.012-0.006,0.016-0.01
							c0.008-0.008,0.018-0.015,0.025-0.021c0.006-0.006,0.016-0.015,0.021-0.021c0.018-0.014,0.033-0.024,0.049-0.041
							c0.014-0.012,0.02-0.018,0.023-0.021c0.1-0.09,0.188-0.188,0.26-0.299c0.033-0.049,0.063-0.103,0.09-0.151
							c0.07-0.14,0.127-0.263,0.176-0.381c0.018-0.039,0.033-0.08,0.049-0.117c0.027-0.07,0.053-0.144,0.076-0.209
							c0.018-0.049,0.029-0.097,0.045-0.144c0.002-0.01,0.004-0.019,0.008-0.024c0.01-0.033,0.02-0.066,0.027-0.103
							c0.018-0.062,0.031-0.119,0.043-0.176c0.008-0.03,0.012-0.051,0.016-0.067c0.016-0.076,0.027-0.146,0.037-0.213
							c0.051-0.367,0.023-0.613,0.006-0.72c-0.002-0.01-0.004-0.019-0.006-0.022c-0.004-0.021-0.006-0.029-0.008-0.031
							c-0.018-0.055-0.068-0.16-0.232-0.277c-0.146-0.104-0.381-0.221-0.758-0.317c-0.008-0.004-0.018-0.006-0.021-0.008
							c-0.092-0.021-0.188-0.045-0.285-0.063l1.27,1.654c-0.041,0.211-0.107,0.453-0.215,0.723l-1.916-2.494
							C244.752,64.019,244.551,64.007,244.369,64.001z"/>
					</g>
				</g>
				<g>
					<g>
						<path fill="#364E5B" d="M252.904,67.875c-0.047,0.039-0.098,0.072-0.148,0.104c-0.16,0.09-0.359,0.158-0.58,0.203
							c0.221-0.039,0.42-0.096,0.58-0.186c0.053-0.029,0.102-0.072,0.148-0.111c0.029-0.022,0.061-0.051,0.088-0.078
							c0.131-0.129,0.236-0.289,0.316-0.465c0.037-0.08,0.066-0.166,0.096-0.252c0.002-0.008,0.004-0.016,0.006-0.021
							c-0.029,0.092-0.064,0.183-0.104,0.271l-2.354-3.062c-0.025,0.002-0.055,0.002-0.08,0.004
							c-0.234,0.017-0.438,0.039-0.615,0.065c-0.02,0.004-0.039,0.008-0.059,0.01L252.904,67.875z"/>
					</g>
				</g>
				<g>
					<path fill="#FFFFFF" d="M251.709,64.257c-0.17-0.002-0.359,0.002-0.57,0.01c-0.064,0.002-0.125,0.006-0.188,0.01l2.354,3.061
						c0.041-0.088,0.076-0.178,0.104-0.27c0.035-0.109,0.063-0.223,0.086-0.332c0.01-0.043,0.018-0.088,0.023-0.131L251.709,64.257z
						"/>
				</g>
				<g>
					<path fill="#FFFFFF" d="M250.197,64.355c-0.006,0.002-0.014,0.004-0.02,0.004c-0.041,0.008-0.08,0.019-0.117,0.023
						c-0.691,0.145-0.885,0.377-0.941,0.498c-0.004,0.01-0.01,0.021-0.012,0.029c-0.004,0.014-0.023,0.084-0.035,0.203l2.4,3.125
						c0.15,0.006,0.301-0.002,0.445-0.019c0.084-0.01,0.17-0.022,0.252-0.041c0.221-0.045,0.42-0.112,0.58-0.203
						c0.055-0.03,0.104-0.063,0.146-0.104L250.197,64.355z"/>
				</g>
				<g>
					<g>
						<path fill="#364E5B" d="M251.711,64.257l1.809,2.348c-0.008,0.043-0.016,0.088-0.023,0.131
							c0.012-0.043,0.021-0.086,0.033-0.129c0.064-0.272,0.057-0.541,0.061-0.752c0.002-0.285-0.066-0.735-0.18-0.957
							c-0.072-0.143-0.164-0.268-0.311-0.365c-0.047-0.03-0.088-0.055-0.133-0.078c-0.006-0.002-0.014-0.006-0.021-0.008
							c-0.047-0.021-0.1-0.043-0.152-0.061c-0.037-0.014-0.078-0.023-0.119-0.033c-0.01-0.002-0.02-0.004-0.025-0.006
							c-0.043-0.01-0.088-0.021-0.135-0.029c-0.023-0.002-0.047-0.008-0.07-0.012c-0.014,0-0.025-0.002-0.039-0.004
							c-0.01-0.002-0.018-0.004-0.025-0.004c-0.074-0.01-0.152-0.02-0.24-0.025c-0.021,0-0.043-0.002-0.063-0.004
							c-0.051-0.002-0.104-0.006-0.162-0.008C251.846,64.259,251.779,64.257,251.711,64.257z"/>
					</g>
				</g>
				<g>
					<g>
						<path fill="#364E5B" d="M249.068,65.21c-0.021,0.352,0.021,1.021,0.438,1.936c0.295,0.646,0.998,1.076,1.889,1.127
							c0.016,0.002,0.025,0.002,0.037,0.002c0.018,0.002,0.025,0.002,0.037,0.002c0.15-0.018,0.293-0.033,0.434-0.053
							c0.008,0,0.016-0.002,0.02-0.002c-0.145,0.016-0.295,0.021-0.443,0.018l-2.4-3.125C249.07,65.148,249.07,65.179,249.068,65.21
							z"/>
					</g>
				</g>
			</g>
			<circle fill="#70573A" cx="241.434" cy="66.831" r="0.289"/>
			<path fill="#CE9D85" d="M241.951,65.855c0,1.922,1.439,3.48,3.213,3.48s3.211-1.559,3.211-3.48c0-0.176-0.012-0.35-0.035-0.52
				c-0.154,0.063-0.174,0.189-0.176,0.209c-0.006,0.031-0.064,0.357-0.191,0.777c-0.063,0.213-0.117,0.444-0.244,0.68
				c-0.127,0.219-0.209,0.432-0.34,0.617c-0.135,0.193-0.291,0.355-0.467,0.463c-0.213,0.129-0.441,0.219-0.67,0.281
				c-0.414,0.112-0.824,0.135-1.146,0.123c-0.637-0.023-1.268-0.183-1.57-0.396c-0.641-0.44-0.691-0.705-0.916-2.625
				c-0.01-0.088-0.029-0.164-0.059-0.228c-0.014-0.024-0.029-0.051-0.049-0.078c-0.037-0.051-0.078-0.106-0.104-0.201l-0.354,0.015
				C241.988,65.257,241.951,65.552,241.951,65.855z"/>
			<path fill="#CE9D85" d="M250.404,68.265c0.01,0.195,0.146,0.394,0.146,0.588v0.008c0,0.39,1.201,0.617,1.996,0.617
				c0.189,0,0.32-0.014,0.506-0.039c0.008-0.182-0.02-0.358-0.016-0.541c0.004-0.086-0.01-0.174-0.01-0.258
				c-0.209,0.045-0.451,0.074-0.695,0.084c-0.113,0.004-0.174,0.006-0.289,0C251.576,68.708,250.975,68.616,250.404,68.265z"/>
			<path fill="#E58C4A" d="M227.209,91.764"/>
			<path fill="#E58C4A" d="M239.662,91.166h8.439l-0.742-3.758l-0.488-2.952l-0.484-0.291h-0.014l-5.344,0.377
				c-0.012,0.012-0.023-0.047-0.037-0.016C240.672,85.296,239.662,91.166,239.662,91.166z"/>
			<path fill="#A46922" d="M226.883,91.764c0.152,0.023,0.313,0.041,0.471,0.063l0.473,0.051c0.313,0.031,0.627,0.061,0.939,0.084
				c0.314,0.023,0.629,0.045,0.943,0.064c0.313,0.018,0.627,0.037,0.939,0.049c0.314,0.016,0.629,0.025,0.941,0.037l0.473,0.012
				l0.473,0.014c0.313,0.004,0.627,0.014,0.939,0.014c0.314,0,0.629,0.004,0.943,0.002l0.461-0.004l-0.084-0.449
				c-0.055-0.279-0.105-0.561-0.162-0.838c-0.055-0.279-0.111-0.561-0.17-0.836c-0.059-0.281-0.119-0.561-0.182-0.836
				c-0.063-0.279-0.127-0.557-0.189-0.834c-0.066-0.277-0.131-0.555-0.203-0.83l-0.105-0.414l-0.107-0.414
				c-0.074-0.275-0.148-0.553-0.23-0.826c-0.08-0.275-0.164-0.549-0.254-0.823c0.012,0.287,0.029,0.575,0.053,0.86
				c0.021,0.285,0.049,0.568,0.076,0.854l0.045,0.426l0.047,0.426c0.033,0.283,0.068,0.566,0.104,0.85
				c0.039,0.281,0.076,0.564,0.117,0.848s0.082,0.563,0.127,0.848c0.043,0.279,0.09,0.561,0.141,0.842
				c0.02,0.131,0.043,0.26,0.063,0.389c-0.162,0-0.324,0.002-0.482,0.002c-0.314,0-0.629,0.008-0.941,0.012l-0.473,0.014
				l-0.473,0.014c-0.313,0.012-0.629,0.021-0.941,0.037c-0.313,0.012-0.627,0.029-0.939,0.049c-0.314,0.02-0.629,0.041-0.943,0.064
				c-0.313,0.023-0.627,0.051-0.941,0.084l-0.471,0.051C227.195,91.725,227.035,91.74,226.883,91.764z"/>
			<path fill="#A46922" d="M246.07,90.852c0.002,0.207,0.002,0.314,0.004,0.314h0.609c0.002,0,0.002-0.107,0.004-0.314
				c-0.002-0.385-0.004-0.617-0.01-0.996c-0.004-0.379-0.016-0.678-0.025-1.039c-0.01-0.359-0.023-0.672-0.041-1.002
				c-0.016-0.332-0.035-0.625-0.055-0.914c-0.018-0.289-0.039-0.545-0.061-0.777c-0.02-0.232-0.041-0.436-0.057-0.604
				c-0.02-0.168-0.035-0.299-0.045-0.389c-0.006-0.041-0.01-0.07-0.014-0.094c-0.004-0.029-0.006-0.043-0.006-0.043
				s-0.002,0.016-0.006,0.045c-0.002,0.021-0.006,0.055-0.012,0.094c-0.01,0.09-0.027,0.225-0.043,0.393
				c-0.018,0.168-0.039,0.373-0.059,0.607c-0.02,0.232-0.043,0.498-0.061,0.787c-0.021,0.289-0.039,0.602-0.057,0.934
				c-0.016,0.33-0.029,0.68-0.041,1.039c-0.01,0.361-0.02,0.584-0.023,0.963C246.072,90.232,246.072,90.467,246.07,90.852z"/>
			<g>
				<path fill="#EFBFA5" d="M235.365,66.9l0.09,0.101l0.096,0.043v0.019l-0.09,0.021c0.006,0.086-0.033,0.172-0.023,0.258
					c0.004,0.026-0.016,0.06-0.01,0.086c0.037,0.226,0.088,0.44,0.172,0.642c0.086,0.201,0.186,0.385,0.309,0.545
					c0.119,0.16,0.254,0.295,0.393,0.403c0.141,0.104,0.281,0.188,0.418,0.244c0.039,0.017,0.078,0.028,0.119,0.041
					c-0.346-0.229-0.643-0.595-0.689-1.16c-0.129-1.479,0.385-1.606,0.898-2.508c0.092-0.158,0.18-0.31,0.26-0.453
					c-0.135-0.051-0.289-0.088-0.453-0.09c-0.166-0.004-0.342,0.028-0.51,0.108c-0.168,0.076-0.326,0.203-0.465,0.355
					c-0.066,0.078-0.133,0.162-0.188,0.252c-0.057,0.092-0.105,0.188-0.148,0.291c-0.086,0.203-0.143,0.422-0.162,0.645
					c-0.002,0.017-0.002,0.027-0.004,0.041C235.369,66.825,235.367,66.859,235.365,66.9z"/>
				<path fill="#CE9D85" d="M234.652,66.913l-0.102,0.097v0.049v0.018v0.006v0.014l0.104,0.025c0.008,0.141,0.084,0.279,0.109,0.416
					c0.029,0.139,0.094,0.271,0.141,0.4s0.115,0.252,0.182,0.369c0.127,0.235,0.291,0.44,0.465,0.612s0.367,0.304,0.559,0.396
					c0.189,0.097,0.379,0.152,0.549,0.172c0.17,0.023,0.318,0.01,0.438-0.014c0.014-0.004,0.025-0.006,0.039-0.008
					c0.096-0.023,0.17-0.061,0.221-0.082c0.055-0.029,0.082-0.047,0.082-0.047s-0.033,0.006-0.094,0.014
					c-0.061,0.006-0.146,0.01-0.256,0c-0.074-0.006-0.16-0.021-0.25-0.051c-0.039-0.012-0.08-0.022-0.119-0.041
					c-0.137-0.055-0.279-0.137-0.42-0.244c-0.139-0.106-0.275-0.244-0.396-0.403c-0.121-0.158-0.229-0.342-0.313-0.543
					c-0.084-0.199-0.146-0.418-0.186-0.644c-0.004-0.026,0.082-0.057,0.078-0.086c-0.012-0.086,0.066-0.172,0.066-0.258v-0.039
					l-0.092-0.043L235.41,66.9c0.004-0.041-0.021-0.078-0.018-0.117c0-0.014-0.008-0.027-0.008-0.041
					c0.021-0.225,0.072-0.443,0.158-0.646c0.041-0.102,0.09-0.196,0.146-0.289c0.057-0.092,0.121-0.176,0.188-0.254
					c0.143-0.149,0.297-0.276,0.465-0.354c0.168-0.08,0.346-0.113,0.512-0.109c0.164,0.002,0.314,0.037,0.451,0.088
					c0.004,0.002,0.008,0.004,0.014,0.006c0.139,0.051,0.252,0.117,0.35,0.174c0.045,0.031,0.086,0.062,0.123,0.084
					c0.037,0.023,0.063,0.049,0.09,0.066c0.049,0.037,0.076,0.057,0.076,0.057s-0.02-0.026-0.051-0.08
					c-0.031-0.055-0.084-0.129-0.158-0.219c-0.078-0.086-0.176-0.195-0.314-0.293c-0.006-0.002-0.01-0.006-0.016-0.01
					c-0.135-0.096-0.309-0.184-0.518-0.229c-0.105-0.025-0.225-0.033-0.346-0.031c-0.121,0.006-0.248,0.023-0.373,0.063
					c-0.248,0.072-0.486,0.215-0.689,0.402c-0.201,0.189-0.375,0.424-0.496,0.684c-0.127,0.258-0.252,0.545-0.281,0.834
					C234.703,66.755,234.654,66.837,234.652,66.913z"/>
				<ellipse fill="#CE9D85" cx="236.953" cy="67.264" rx="0.766" ry="1.195"/>
			</g>
			<path fill="#CE9D85" d="M238.01,74.708c0.092,0.563,0.121,1.33,0.178,2.187c0.17,0.395,0.34,0.791,0.473,1.104
				c0,0,0.002,0.004,0.002,0.006c0.154,0.373,0.369,0.699,0.617,0.979c0.188,0.211,0.393,0.396,0.604,0.554
				c-0.057-0.367-0.086-0.744-0.063-1.092c-0.248-0.278-0.463-0.604-0.617-0.979c-0.002,0-0.002-0.004-0.002-0.004
				C238.826,76.579,238.16,75.054,238.01,74.708z"/>
		</g>
		<polygon fill="#E5E5E5" points="205.816,82.452 213.361,82.652 271.676,82.894 276.182,90.584 205.955,90.205 		"/>
		<path fill="#E5E5E5" d="M204.352,37.062l-0.053,12.109l-135.956-0.57c0,0-13.903-0.06-21.29-0.09
			c-0.631-0.002-1.223,0.06-1.771,0.174c0.168-0.652,0.336-1.313,0.513-1.967c1.415-5.321,3.231-10.309,9.021-10.283L204.352,37.062
			z"/>
		<path fill="#E5E5E5" d="M268.668,49.443l-64.369-0.271l0.057-13.187l33.369,0.139c0,0,13.904,0.059,21.291,0.09
			c6.174,0.025,7.777,5.718,9.205,11.441C268.373,48.253,268.521,48.853,268.668,49.443z"/>
		<path opacity="0.5" fill="#77A0B7" enable-background="new    " d="M198.391,57.392l-0.092,22.047
			c-0.008,1.74-1.422,3.146-3.162,3.135l-52.754-0.221c-1.737-0.008-3.146-1.422-3.138-3.162l0.095-22.046
			c0.007-1.742,1.425-3.146,3.162-3.138l52.754,0.224C196.996,54.24,198.4,55.65,198.391,57.392z"/>
		<path fill="#001526" d="M128.78,57.101l-0.092,22.045c-0.008,1.74-1.432,3.146-3.164,3.138L64.897,82.03
			c-1.738-0.008-3.146-1.424-3.138-3.162l0.052-12.528c0.029-6.998,5.221-12.646,11.6-12.621l52.231,0.221
			C127.375,53.943,128.786,55.359,128.78,57.101z"/>
		<path opacity="0.5" fill="#77A0B7" enable-background="new    " d="M274.184,79.761c1.037,3.154-2.211,3.142-3.949,3.133
			l-57.352-0.24c-1.74-0.008-3.145-1.422-3.135-3.162l0.092-22.045c0.006-1.738,1.424-3.146,3.162-3.139l49.473,0.21
			c2.561,0.01,3.463,1.396,4.059,3.164L274.184,79.761z"/>
		<path opacity="0.5" fill="#77A0B7" enable-background="new    " d="M282.578,81.257c-1.563-0.107-3.904-1.205-3.904-1.205
			c-1.766-0.658-2.742-1.398-3.342-3.256l-6.502-19.107c0.008-1.74,1.422-3.145,3.162-3.137l0.689,0.002L282.578,81.257z"/>
		<g>
			
				<rect x="254.02" y="54.481" transform="matrix(1 0.0035 -0.0035 1 0.2445 -0.9033)" fill="#C6C6C6" width="2.76" height="28.346"/>
		</g>
		<path fill="#001526" d="M284.521,90.621l-0.041,9.42c-0.002,0.309-0.002,0.627-0.014,0.961c-0.002,0.84-0.016,1.754-0.02,2.744
			l-0.137,32.023c-0.029,7.242-5.928,13.092-13.17,13.063l-7.49-0.027c-0.676-0.002-1.279-0.314-1.682-0.795c0,0-0.006,0-0.006-0.01
			l-0.268-0.426l-0.094-0.236l-9.342-21.684c-1.201-2.707-2.777-4.443-4.84-4.453l-0.709-0.004l-5.652-0.057l-19.836-0.055
			l-0.701-0.002c-2.068-0.008-3.658,1.721-4.875,4.412l-9.49,21.527l-0.193,0.434c-0.379,0.658-1.09,1.1-1.91,1.094l-80.812-0.34
			c-0.68-0.002-1.283-0.313-1.684-0.795c0,0-0.008,0-0.008-0.008l-0.307-0.496c-0.006-0.018-0.017-0.027-0.017-0.041l-6.334-10.303
			c-1.203-1.9-2.78-3.121-4.845-3.131h-0.711l-19.824-0.107l-19.834-0.061l-0.701-0.004c-2.069-0.008-3.658,1.199-4.873,3.09
			l-6.498,10.373l-0.199,0.316c-0.396,0.541-1.035,0.887-1.76,0.881l-12.834-0.053c-7.252-0.031-9.162-5.914-9.133-13.156
			l0.188-45.148c0-0.109,0-0.213,0.01-0.314c0.354,0.168,0.748,0.266,1.158,0.268l9.824,0.039c0.348,0.045,0.701,0.063,1.063,0.063
			L284.521,90.621z"/>
		<g>
			
				<rect x="132.236" y="47.412" transform="matrix(1 0.0041 -0.0041 1 0.2854 -0.5516)" fill="#C6C6C6" width="2.359" height="42.509"/>
			
				<rect x="203.02" y="48.901" transform="matrix(1 0.0041 -0.0041 1 0.2905 -0.8446)" fill="#C6C6C6" width="2.359" height="41.737"/>
		</g>
		<path fill="none" stroke="#000000" stroke-width="0.7874" stroke-miterlimit="10" d="M284.477,100.039l-0.004,0.959L284.467,101
			C284.477,100.668,284.477,100.346,284.477,100.039z"/>
		<g>
			<path fill="#FFFFFF" d="M201.742,87.463c-0.008,1.52-1.246,2.75-2.766,2.742l-60.5-0.254c-1.521-0.004-2.75-1.244-2.743-2.77l0,0
				c0.005-1.521,1.245-2.749,2.769-2.743l60.496,0.254C200.521,84.702,201.75,85.939,201.742,87.463L201.742,87.463z"/>
			<path fill="#FFFFFF" d="M282.418,87.803c-0.008,1.52-1.248,2.75-2.771,2.742l-70.074-0.293c-1.521-0.008-2.752-1.246-2.744-2.768
				l0,0c0.006-1.523,1.246-2.752,2.77-2.747l70.074,0.297C281.195,85.041,282.422,86.277,282.418,87.803L282.418,87.803z"/>
			<path fill="#FFFFFF" d="M131.243,87.166c-0.008,1.52-1.248,2.75-2.768,2.744l-93.438-0.395c-0.41,0-0.806-0.098-1.158-0.264
				c-0.94-0.438-1.592-1.398-1.588-2.502c0.004-0.758,0.313-1.449,0.817-1.942c0.229-0.229,0.5-0.414,0.798-0.547
				c0.35-0.174,0.741-0.258,1.15-0.258l93.438,0.395C130.02,84.404,131.25,85.645,131.243,87.166z"/>
		</g>
		<g>
			<path fill="#E5E5E5" d="M50.731,148.252c-0.006,1.678-1.373,3.037-3.056,3.025l-13.452-0.055
				c-1.682-0.008-3.039-1.377-3.029-3.059l0.033-7.848c0.008-1.682,1.375-3.037,3.057-3.029l13.452,0.059
				c1.681,0.006,3.036,1.373,3.028,3.057L50.731,148.252z"/>
			<path fill="#E5E5E5" d="M285.105,149.234c-0.006,1.682-1.373,3.037-3.055,3.029l-13.453-0.059
				c-1.68-0.006-3.035-1.373-3.027-3.057l0.033-7.852c0.008-1.678,1.373-3.033,3.055-3.025l13.453,0.059
				c1.68,0.008,3.037,1.375,3.029,3.055L285.105,149.234z"/>
		</g>
		<path fill="#D03D00" d="M53.25,130.145c-0.004,0.438-0.354,0.787-0.792,0.785l-6.689-0.027c-0.438-0.004-0.787-0.355-0.785-0.793
			l0.016-3.348c0-0.434,0.354-0.785,0.79-0.783l6.69,0.029c0.436,0.002,0.787,0.354,0.785,0.789L53.25,130.145z"/>
		<path fill="#D03D00" d="M279.703,131.096c-0.002,0.436-0.355,0.787-0.791,0.785l-6.691-0.027
			c-0.436-0.002-0.785-0.354-0.783-0.791l0.014-3.348c0.004-0.434,0.355-0.787,0.791-0.783l6.691,0.029
			c0.438,0,0.787,0.354,0.785,0.789L279.703,131.096z"/>
		<g>
			<path fill="#001526" d="M58.93,56.808l-0.059,0.271l-0.318,1.652l-0.227,1.182l-0.324,1.65l-0.23,1.182l-0.32,1.654l-0.232,1.178
				l-0.323,1.652l-0.226,1.182l-0.321,1.65l-0.233,1.18l-0.318,1.654l-0.232,1.18l-0.321,1.65l-0.228,1.18l-0.32,1.654l-0.057,0.274
				c-0.049,0.319-0.138,0.629-0.266,0.899c-0.59,1.408-1.953,2.238-3.402,2.23l-3.824-0.018c-1.436-0.006-2.838-0.945-3.125-2.256
				c-0.023-0.109-0.039-0.229-0.047-0.349l0.002-0.354c0.008-0.063,0.024-0.133,0.033-0.205l0.055-0.272l0.323-1.651l0.226-1.181
				l0.32-1.653l0.234-1.181l0.318-1.649l0.232-1.183l0.321-1.649l0.228-1.183l0.32-1.651l0.234-1.181l0.32-1.651l0.23-1.181
				l0.321-1.653l0.226-1.179l0.322-1.653l0.057-0.272c0.071-0.331,0.168-0.629,0.287-0.903c0.679-1.531,2.059-2.234,3.53-2.229
				l3.675,0.019c1.449,0.006,2.816,0.859,3.094,2.256C58.954,56.185,58.963,56.482,58.93,56.808z"/>
			<path fill="#FFFFFF" d="M58.93,56.808l-0.059,0.271l-10.629-0.044l0.059-0.272c0.07-0.33,0.167-0.629,0.287-0.903l10.299,0.044
				C58.954,56.185,58.963,56.482,58.93,56.808z"/>
			<polygon fill="#FFFFFF" points="58.004,61.566 57.774,62.747 47.143,62.704 47.375,61.521 			"/>
			<polygon fill="#FFFFFF" points="58.553,58.732 58.327,59.916 47.696,59.87 47.922,58.689 			"/>
			<polygon fill="#FFFFFF" points="57.448,64.4 57.217,65.581 46.586,65.536 46.821,64.353 			"/>
			<polygon fill="#FFFFFF" points="56.895,67.23 56.668,68.415 46.038,68.37 46.265,67.185 			"/>
			<polygon fill="#FFFFFF" points="56.347,70.064 56.114,71.245 45.485,71.202 45.716,70.019 			"/>
			<polygon fill="#FFFFFF" points="55.793,72.896 55.559,74.079 44.928,74.032 45.161,72.851 			"/>
			<polygon fill="#FFFFFF" points="44.608,75.685 55.239,75.728 55.011,76.909 44.382,76.866 			"/>
			<path fill="#FFFFFF" d="M44.059,78.517l10.631,0.045l-0.059,0.275c-0.047,0.32-0.136,0.629-0.264,0.9l-10.354-0.043h-0.049
				l0.002-0.349l0.002-0.353L44.059,78.517z"/>
		</g>
		<path d="M218.459,99.605c-0.008,1.307-1.068,2.357-2.373,2.354l-6.691-0.027c-1.307-0.006-2.357-1.066-2.354-2.371l0,0
			c0.004-1.307,1.064-2.357,2.373-2.355l6.689,0.029C217.408,97.24,218.463,98.303,218.459,99.605L218.459,99.605z"/>
		<path fill="#E5E5E5" d="M298.148,113.137c-0.164,11.416-3.455,20.52-4.432,20.334l-9.395-0.125l0.125-29.6
			c0.004-0.99,0.018-1.904,0.02-2.744c0.01-0.334,0.012-0.654,0.014-0.961l0.033-8.08l9.766,0.135
			c0.014,0.002,0.029,0.002,0.045,0.008C295.301,92.289,298.32,101.721,298.148,113.137z"/>
		<path fill="#C6C6C6" d="M204.307,47.386l-0.008,1.787l-135.956-0.57c0,0-13.903-0.059-21.29-0.089
			c-0.631-0.002-1.223,0.058-1.771,0.174c0.168-0.653,0.336-1.313,0.513-1.967L204.307,47.386z"/>
		<path fill="#C6C6C6" d="M268.668,49.443l-64.369-0.271l0.008-1.787l63.912,0.271C268.373,48.253,268.521,48.853,268.668,49.443z"
			/>
		<polygon fill="#FFFFFF" points="79.649,56.531 80.85,55.331 81.794,56.746 83.204,55.793 83.864,57.361 85.428,56.698 
			85.78,58.359 87.444,58 87.47,59.704 89.169,59.666 88.876,61.341 90.554,61.626 89.948,63.214 91.542,63.81 90.649,65.257 
			92.097,66.144 90.946,67.394 92.2,68.542 90.834,69.552 91.849,70.916 90.317,71.648 91.055,73.179 89.409,73.609 89.847,75.253 
			88.153,75.361 88.272,77.06 86.583,76.847 86.376,78.534 84.759,78.005 84.239,79.625 82.752,78.798 81.935,80.292 80.63,79.202 
			79.544,80.507 78.471,79.191 77.157,80.269 76.352,78.771 74.858,79.585 74.351,77.962 72.733,78.478 72.538,76.79 70.852,76.986 
			70.985,75.291 69.286,75.166 69.739,73.525 68.098,73.083 68.849,71.56 67.321,70.812 68.349,69.458 66.989,68.435 68.254,67.302 
			67.114,66.042 68.571,65.166 67.692,63.712 69.286,63.126 68.696,61.534 70.374,61.263 70.094,59.583 71.794,59.636 
			71.838,57.937 73.495,58.308 73.864,56.646 75.42,57.33 76.094,55.767 77.495,56.728 78.452,55.32 		"/>
		<polygon fill="#E5E5E5" points="207.955,49.443 261.926,49.406 265.57,54.554 217.176,54.308 207.936,54.045 		"/>
		<g>
			<path fill="#E5E5E5" d="M121.315,139.693v-3.465l8.955-11.295c0.93-1.199,1.545-2.002,1.845-2.408
				c0.3-0.402,0.592-0.973,0.878-1.709c0.284-0.734,0.427-1.619,0.427-2.654c0-1.033-0.353-1.883-1.058-2.543
				c-0.705-0.658-1.605-0.99-2.701-0.99s-1.92,0.092-2.476,0.271c-0.558,0.18-0.888,0.383-0.987,0.607
				c-0.106,0.225-0.158,0.578-0.158,1.057v3.195l-4.59-0.314v-7.201c2.817-1.408,5.715-2.115,8.686-2.115
				c2.969,0,5.204,0.73,6.705,2.184c1.499,1.457,2.25,3.441,2.25,5.963s-1.275,5.326-3.825,8.416l-7.245,8.549h11.25v4.455h-17.955
				V139.693L121.315,139.693z"/>
			<path fill="#E5E5E5" d="M153.985,110.129c6.808,0,10.214,4.936,10.214,14.807c0,5.25-0.887,9.098-2.656,11.541
				c-1.769,2.445-4.394,3.668-7.875,3.668s-6.074-1.207-7.784-3.623c-1.71-2.414-2.565-6.172-2.565-11.271
				c0-5.098,0.945-8.895,2.836-11.385C148.042,111.375,150.653,110.129,153.985,110.129z M150.045,133.508
				c0.854,1.545,2.092,2.316,3.712,2.316c1.619,0,2.872-0.795,3.757-2.385s1.328-4.357,1.328-8.305c0-3.945-0.43-6.695-1.283-8.258
				c-0.854-1.561-2.105-2.34-3.757-2.34s-2.901,0.832-3.757,2.498c-0.855,1.664-1.283,4.439-1.283,8.324
				C148.762,129.246,149.19,131.963,150.045,133.508z"/>
			<path fill="#E5E5E5" d="M175.041,134.25v-17.686l-5.266,2.699l-1.979-3.465l8.188-5.086h4.41v24.932l4.682,0.225v3.826h-15.66
				v-3.689l4.318-0.27c0.451-0.027,0.779-0.148,0.99-0.359C174.938,135.166,175.041,134.789,175.041,134.25z"/>
			<path fill="#E5E5E5" d="M195.473,134.25v-17.686l-5.268,2.699l-1.979-3.465l8.188-5.086h4.41v24.932l4.682,0.225v3.826h-15.658
				v-3.689l4.316-0.27c0.451-0.027,0.779-0.148,0.99-0.359C195.363,135.166,195.473,134.789,195.473,134.25z"/>
		</g>
	</g>
</g>
<g id="fumée_seule">
</g>
<g id="fumée_double">
</g>
</svg>
