<?xml version="1.0" encoding="utf-8"?>
<!-- Generator: Adobe Illustrator 16.0.0, SVG Export Plug-In . SVG Version: 6.00 Build 0)  -->
<!DOCTYPE svg PUBLIC "-//W3C//DTD SVG 1.1//EN" "http://www.w3.org/Graphics/SVG/1.1/DTD/svg11.dtd">
<svg version="1.1" xmlns="http://www.w3.org/2000/svg" xmlns:xlink="http://www.w3.org/1999/xlink" x="0px" y="0px" width="320px"
	 height="170px" viewBox="0 0 320 170" enable-background="new 0 0 320 170" xml:space="preserve">
<g id="Roue_arrière">
	<g>
		<path d="M85.36,108.885c-13.149-0.054-23.848,10.563-23.902,23.702c-0.054,13.142,10.555,23.849,23.702,23.903
			c13.143,0.055,23.842-10.562,23.896-23.703C109.111,119.646,98.502,108.939,85.36,108.885z M85.218,143.199
			c-5.812-0.025-10.492-4.752-10.467-10.555c0.024-5.802,4.745-10.491,10.555-10.467c5.802,0.022,10.492,4.752,10.468,10.554
			C95.747,138.535,91.021,143.223,85.218,143.199z"/>
		<path fill="#FFFFFF" d="M85.328,116.781c-8.786-0.037-15.942,7.055-15.979,15.841c-0.036,8.786,7.058,15.933,15.846,15.97
			c8.787,0.037,15.935-7.049,15.973-15.838C101.203,123.968,94.114,116.819,85.328,116.781z M85.218,143.199
			c-5.812-0.025-10.492-4.752-10.467-10.555c0.024-5.802,4.745-10.491,10.555-10.467c5.802,0.022,10.492,4.752,10.468,10.554
			C95.747,138.535,91.021,143.223,85.218,143.199z"/>
		<path fill="#E5E5E5" d="M95.773,132.731c-0.026,5.804-4.753,10.491-10.556,10.468c-5.812-0.025-10.492-4.752-10.467-10.555
			c0.024-5.802,4.745-10.491,10.555-10.467C91.107,122.2,95.798,126.93,95.773,132.731z"/>
		<path d="M85.215,143.578c-6.005-0.025-10.869-4.932-10.845-10.936c0.027-6.004,4.933-10.869,10.937-10.844
			c6.006,0.025,10.868,4.93,10.844,10.934C96.124,138.74,91.219,143.603,85.215,143.578z M85.303,122.555
			c-5.586-0.025-10.15,4.504-10.175,10.091c-0.023,5.588,4.503,10.151,10.091,10.177c5.587,0.021,10.15-4.504,10.175-10.092
			S90.89,122.577,85.303,122.555z"/>
		<path d="M85.213,143.986c-6.229-0.025-11.276-5.117-11.252-11.346c0.028-6.229,5.118-11.277,11.346-11.252
			c6.232,0.027,11.279,5.116,11.252,11.346C96.534,138.964,91.442,144.013,85.213,143.986z M85.3,122.963
			c-5.358-0.02-9.74,4.321-9.762,9.684c-0.024,5.361,4.32,9.742,9.68,9.765c5.363,0.022,9.744-4.323,9.768-9.683
			C95.007,127.366,90.663,122.988,85.3,122.963z"/>
		<g>
			<g>
				<path d="M86.604,119.559c-0.002,0.713-0.583,1.289-1.296,1.285c-0.714,0-1.291-0.583-1.287-1.297
					c0.003-0.713,0.584-1.289,1.296-1.287C86.031,118.265,86.61,118.846,86.604,119.559z"/>
				<path d="M86.495,145.83c-0.002,0.71-0.586,1.291-1.299,1.283c-0.713,0-1.288-0.582-1.287-1.293
					c0.005-0.717,0.584-1.291,1.3-1.289C85.922,144.536,86.499,145.115,86.495,145.83z"/>
			</g>
			<g>
				<path d="M95.495,124.354c-0.508,0.503-1.325,0.499-1.827-0.006c-0.503-0.507-0.499-1.324,0.008-1.825
					c0.507-0.506,1.323-0.502,1.827,0.006C96.004,123.033,96.003,123.852,95.495,124.354z"/>
				<path d="M76.841,142.854c-0.506,0.501-1.324,0.497-1.827-0.01c-0.501-0.504-0.498-1.321,0.008-1.825
					c0.509-0.504,1.326-0.5,1.827,0.008C77.352,141.535,77.347,142.354,76.841,142.854z"/>
			</g>
			<g>
				<circle cx="98.394" cy="132.745" r="1.292"/>
				<circle cx="72.124" cy="132.633" r="1.293"/>
			</g>
			<g>
				<circle cx="94.508" cy="142.016" r="1.292"/>
				<path d="M75.093,124.271c-0.502-0.508-0.5-1.325,0.007-1.828c0.506-0.502,1.325-0.499,1.828,0.006
					c0.502,0.509,0.497,1.326-0.009,1.83C76.413,124.778,75.596,124.777,75.093,124.271z"/>
			</g>
			<g>
				<circle cx="80.465" cy="120.459" r="1.293"/>
				<circle cx="90.053" cy="144.918" r="1.292"/>
			</g>
			<g>
				<circle cx="90.517" cy="120.651" r="1.292"/>
				<path d="M81.186,145.242c-0.286,0.654-1.048,0.951-1.701,0.665c-0.655-0.282-0.953-1.046-0.669-1.698
					c0.286-0.654,1.048-0.953,1.703-0.667C81.173,143.828,81.47,144.59,81.186,145.242z"/>
			</g>
			<g>
				<path d="M97.959,129.098c-0.661,0.26-1.412-0.067-1.673-0.733c-0.263-0.662,0.065-1.413,0.73-1.671
					c0.666-0.263,1.413,0.063,1.674,0.728C98.95,128.085,98.625,128.837,97.959,129.098z"/>
				<circle cx="73.028" cy="137.482" r="1.292"/>
			</g>
			<g>
				<path d="M96.777,139.129c-0.651-0.285-0.95-1.048-0.665-1.699c0.285-0.654,1.047-0.952,1.701-0.668
					c0.652,0.285,0.951,1.048,0.668,1.7C98.195,139.114,97.432,139.416,96.777,139.129z"/>
				<path d="M72.704,128.615c-0.654-0.286-0.951-1.049-0.666-1.699c0.286-0.656,1.046-0.955,1.699-0.67
					c0.656,0.285,0.953,1.045,0.668,1.701C74.119,128.602,73.357,128.9,72.704,128.615z"/>
			</g>
		</g>
	</g>
</g>
<g id="Roue_avant">
	<g>
		<path d="M229.575,109.49c-13.141-0.055-23.846,10.563-23.9,23.703c-0.055,13.145,10.56,23.848,23.701,23.902
			c13.143,0.055,23.849-10.561,23.903-23.703C253.335,120.25,242.719,109.546,229.575,109.49z M229.434,143.805
			c-5.804-0.024-10.493-4.752-10.468-10.555c0.025-5.805,4.753-10.491,10.554-10.469c5.806,0.025,10.494,4.754,10.469,10.555
			C239.965,139.141,235.235,143.828,229.434,143.805z"/>
		<path fill="#FFFFFF" d="M229.545,117.389c-8.789-0.037-15.937,7.05-15.973,15.838c-0.037,8.787,7.051,15.935,15.838,15.972
			c8.786,0.038,15.942-7.05,15.979-15.839C245.427,124.572,238.332,117.423,229.545,117.389z M229.434,143.805
			c-5.804-0.024-10.493-4.752-10.468-10.555c0.025-5.805,4.753-10.491,10.554-10.469c5.806,0.025,10.494,4.754,10.469,10.555
			C239.965,139.141,235.235,143.828,229.434,143.805z"/>
		<circle fill="#E5E5E5" cx="229.477" cy="133.293" r="10.511"/>
		<path d="M229.431,144.184c-6.005-0.025-10.869-4.932-10.845-10.936c0.026-6.005,4.933-10.871,10.937-10.846
			c6.007,0.027,10.871,4.932,10.846,10.936C240.343,139.344,235.437,144.209,229.431,144.184z M229.519,123.16
			c-5.586-0.021-10.152,4.504-10.175,10.092c-0.022,5.586,4.503,10.15,10.091,10.174c5.588,0.022,10.153-4.502,10.177-10.089
			C239.635,127.749,235.107,123.184,229.519,123.16z"/>
		<path d="M229.429,144.592c-6.23-0.025-11.275-5.117-11.251-11.346c0.026-6.231,5.116-11.277,11.346-11.252
			c6.233,0.025,11.278,5.118,11.253,11.347S235.661,144.619,229.429,144.592z M229.519,123.57c-5.362-0.023-9.744,4.32-9.764,9.682
			c-0.025,5.363,4.32,9.742,9.682,9.766c5.361,0.021,9.743-4.322,9.764-9.685C239.224,127.973,234.88,123.592,229.519,123.57z"/>
		<g>
			<g>
				<circle cx="229.533" cy="120.158" r="1.292"/>
				<circle cx="229.423" cy="146.429" r="1.292"/>
			</g>
			<g>
				<circle cx="238.806" cy="124.044" r="1.293"/>
				<path d="M221.061,143.46c-0.506,0.502-1.324,0.499-1.828-0.008c-0.503-0.507-0.497-1.323,0.008-1.825
					c0.507-0.504,1.326-0.5,1.83,0.004C221.57,142.141,221.565,142.959,221.061,143.46z"/>
			</g>
			<g>
				<path d="M242.606,134.643c-0.711-0.005-1.288-0.586-1.287-1.298c0.005-0.716,0.587-1.292,1.299-1.288
					c0.714,0.002,1.291,0.584,1.288,1.297C243.902,134.066,243.319,134.645,242.606,134.643z"/>
				<path d="M216.338,134.529c-0.714-0.002-1.291-0.582-1.288-1.297c0.001-0.713,0.585-1.289,1.3-1.287
					c0.711,0.005,1.289,0.584,1.285,1.299C217.634,133.957,217.05,134.533,216.338,134.529z"/>
			</g>
			<g>
				<circle cx="238.727" cy="142.619" r="1.292"/>
				<circle cx="220.229" cy="123.967" r="1.292"/>
			</g>
			<g>
				<circle cx="224.684" cy="121.063" r="1.291"/>
				<path d="M235.476,145.051c0.261,0.665-0.067,1.414-0.733,1.678c-0.661,0.258-1.412-0.071-1.674-0.733
					c-0.26-0.665,0.068-1.415,0.731-1.675C234.463,144.06,235.214,144.389,235.476,145.051z"/>
			</g>
			<g>
				<path d="M235.921,121.773c-0.289,0.654-1.05,0.952-1.702,0.668c-0.653-0.287-0.953-1.047-0.667-1.703
					c0.287-0.653,1.047-0.953,1.701-0.666S236.208,121.12,235.921,121.773z"/>
				<path d="M225.403,145.85c-0.284,0.653-1.048,0.951-1.701,0.664c-0.652-0.284-0.952-1.045-0.667-1.701
					c0.287-0.652,1.048-0.953,1.7-0.666C225.393,144.434,225.691,145.193,225.403,145.85z"/>
			</g>
			<g>
				<circle cx="241.708" cy="128.499" r="1.292"/>
				<circle cx="217.249" cy="138.088" r="1.291"/>
			</g>
			<g>
				<circle cx="241.516" cy="138.551" r="1.292"/>
				<path d="M216.925,129.219c-0.654-0.286-0.954-1.049-0.667-1.703c0.283-0.65,1.048-0.95,1.7-0.664
					c0.652,0.285,0.953,1.047,0.668,1.703C218.339,129.207,217.576,129.506,216.925,129.219z"/>
			</g>
		</g>
	</g>
</g>
<g id="Van">
	<g>
		<path fill="#E5E5E5" d="M279.983,80.559l-0.016,3.896l-238.591-1c-0.361-0.002-0.717-0.021-1.063-0.064l-9.826-0.041
			c-0.409,0.002-0.804-0.094-1.157-0.262c-0.941-0.438-1.593-1.4-1.588-2.5c0.004-0.758,0.313-1.449,0.818-1.945
			c0.231-0.229,0.5-0.414,0.799-0.549c0.353-5.193,1.55-14.488,2.964-21.063c1.309-6.124,2.558-13.344,8.406-14.51
			c0.552-0.116,1.142-0.176,1.772-0.174c7.386,0.031,21.29,0.089,21.29,0.089l198.576,0.835c0,0,3.403-0.199,5.439,4.242
			l0.325,0.877l9.896,26.702l1.316,3.559l0.266,0.41l0.001,0.008C279.854,79.51,279.985,80.021,279.983,80.559z"/>
		<g>
			<path fill="#B78906" d="M185.603,69.611c-0.091,0.121-0.207,0.246-0.352,0.385c-1.989,1.93-9.456,3.797-15.901-1.443
				c-6.441-5.24-10.658-2.531-11.984-2.227c-1.65,0.373-6.08-0.42-7.888-5.6s-5.843-9.276-2.47-12.106
				c2.166-1.82,8.793-2.943,14.436-2.553c3.13,0.216,5.956,0.9,7.547,2.188c2.314,1.876,4.226,6.132,6.098,10.046
				c1.734,3.615,3.441,6.939,5.405,7.84c1.2,0.547,2.275,0.941,3.146,1.27C185.528,68.123,186.457,68.545,185.603,69.611z"/>
			<path fill="#E0A30A" d="M184.274,90.904c-0.046,0.078-0.099,0.154-0.161,0.227c-0.774,0.902-0.292,0.775-5.569,4.791
				c-0.961,0.732-2.055,1.322-3.209,1.795c-0.25,0.105-0.5,0.199-0.756,0.289c-2.222,0.801-4.617,1.197-6.738,1.346
				c-2.668,0.189-4.899-0.012-5.802-0.281c-2.085-0.631-4.503-2.662-4.358-6.146c0.098-2.381,0.742-4.109,1.015-6.506
				c0.085,0.133,0.167,0.26,0.249,0.385c3.813,5.674,7.335,6.299,8.005,3.287c0.114-0.521-0.322-6.99-1.754-10.17
				c-0.108-0.238-0.223-0.463-0.344-0.662c-0.029-0.047-0.056-0.092-0.085-0.135c-0.056-0.09-0.115-0.172-0.174-0.246
				c0,0-0.361-2.256-0.033-3.494c0.62,0.127,1.273,0.197,1.949,0.207c0.275-0.002,0.548-0.016,0.817-0.043
				c0.256,1.266-0.072,3.33-0.072,3.33c-0.048,0.061-0.096,0.131-0.137,0.203c-1.639,2.684,0.918,10.611,1.184,11.131
				c0.184,0.359,0.41,0.648,0.673,0.867c0.004,0,0.004,0,0.004,0.004c2.277,1.887,7.309-1.271,10.996-7.848
				c0.096-0.174,0.195-0.352,0.29-0.531c0.512,1.242,1.169,2.465,1.913,3.15C183.535,87.104,185.098,89.502,184.274,90.904z"/>
			<path fill="#E43A43" d="M168.974,91.078c-0.263-0.219-0.489-0.508-0.673-0.867c-0.266-0.52-2.822-8.447-1.184-11.131
				C165.662,81.586,168.444,89.326,168.974,91.078z"/>
			<path fill="#EFBFA5" d="M166.949,90.09c-0.67,3.012-4.192,2.387-8.005-3.287c-0.082-0.125-0.164-0.252-0.249-0.385
				c-2.298-3.543-4.355-7.727-5.209-10.988c-1.067-4.088,0.15-6.061,1.86-6.945c0.264-0.137,0.539-0.248,0.821-0.334
				c0.137-0.045,0.275-0.082,0.417-0.115c-0.145,0.051-0.23,0.104-0.244,0.158c-0.003,0.018-0.006,0.033-0.006,0.047
				c0,0.23,0.394,0.389,0.972,0.482c0.022,0.004,0.046,0.006,0.072,0.01c0.226,0.072,1.23,0.912,1.565,1.508
				c0.288,0.51,0.453,1.15,0.59,1.537c0.023,0.066,0.043,0.123,0.066,0.172c0.102,0.262,0.24,0.514,0.4,0.754
				c0.867,1.283,2.527,2.273,4.559,2.68c-0.328,1.238,0.033,3.494,0.033,3.494c0.059,0.074,0.118,0.156,0.174,0.246
				c0.029,0.043,0.056,0.088,0.085,0.135c0.121,0.199,0.235,0.424,0.344,0.662C166.627,83.1,167.063,89.568,166.949,90.09z"/>
			<path fill="#EFBFA5" d="M160.431,68.207l-0.003,0.035l-0.096,0.984l-0.331,3.477c-0.16-0.24-0.299-0.492-0.4-0.754
				c-0.023-0.049-0.043-0.105-0.066-0.172c-0.137-0.387-0.302-1.027-0.59-1.537c-0.335-0.596-1.34-1.436-1.565-1.508
				c-0.026-0.004-0.05-0.006-0.072-0.01c-0.578-0.094-0.972-0.252-0.972-0.482c0-0.014,0.003-0.029,0.006-0.047
				c0.014-0.055,0.1-0.107,0.244-0.158c0,0,0,0,0.003,0c0.81-0.189,1.628-0.213,2.313-0.16
				C159.627,67.932,160.194,68.076,160.431,68.207z"/>
			<path fill="#EFBFA5" d="M183.283,75.43c-0.568,2.168-1.668,4.75-3.02,7.273c-0.095,0.18-0.194,0.357-0.29,0.531
				c-3.688,6.576-8.719,9.734-10.996,7.848c0-0.004,0-0.004-0.004-0.004c-0.263-0.219-0.489-0.508-0.673-0.867
				c-0.266-0.52-2.822-8.447-1.184-11.131c0.041-0.072,0.089-0.143,0.137-0.203c0,0,0.328-2.064,0.072-3.33
				c2.951-0.262,5.344-1.701,6.092-3.598c0.156-0.344,0.324-1.113,0.659-1.709c0.167-0.297,0.502-0.654,0.824-0.951
				c0.321-0.295,0.627-0.521,0.741-0.557c0.023-0.004,0.046-0.006,0.069-0.01h0.003c0.292-0.047,0.538-0.111,0.709-0.193
				l-0.053-0.197l-0.033-0.125c0.036-0.02,0.082-0.043,0.135-0.063c0.036-0.014,0.075-0.027,0.118-0.043
				c0.463-0.15,1.311-0.285,2.262-0.246C181.462,67.971,184.857,69.402,183.283,75.43z"/>
			<path fill="#EFBFA5" d="M172.61,60.674c-0.541,2.51-1.61,5.543-2.504,6.182c-0.896,0.639-4.653,0.904-6.538,0.52
				c-1.883-0.385-5.435-3.305-5.414-4.676c0.009-0.805,0.128-3.477,0.177-5.963c0.004-0.139,0.004-0.279,0.007-0.414
				c0.026-1.611,0.017-3.096-0.075-3.876l1.355-2.376l12.319,3.03C171.938,53.1,173.156,58.164,172.61,60.674z"/>
			<path fill="#E0A30A" d="M178.044,53.791c-0.014,0.035-0.021,0.064-0.034,0.1c-0.408,1.066-1.015,2.193-1.795,3.402
				c-0.316,0.49-0.697,0.818-1.127,1.01c-1.872-3.914-3.783-8.17-6.098-10.046c-1.591-1.288-4.417-1.973-7.547-2.188
				c1.891-2.055,5.726-6.207,12.184-2.085C178.321,46.978,179.466,49.972,178.044,53.791z"/>
			<path fill="#E0A30A" d="M185.603,69.611c0.854-1.066-0.074-1.488-1.963-2.199c-0.871-0.328-1.946-0.723-3.146-1.27
				c-1.964-0.9-3.671-4.225-5.405-7.84c0.43-0.191,0.811-0.52,1.127-1.01c0.78-1.209,1.387-2.336,1.795-3.402
				c0.013-0.035,0.021-0.064,0.034-0.1l3.004,7.313c0.771,1.004,1.75,1.76,3.115,2.209C187.73,64.484,187.414,67.678,185.603,69.611
				z"/>
			<path fill="#EFBFA5" d="M175.631,72.518"/>
			<path fill="#CE9D85" d="M161.245,88.037c-0.172-0.758-0.255-1.539-0.324-2.314c-0.031-0.389-0.06-0.777-0.079-1.166
				c-0.014-0.391-0.024-0.781-0.024-1.172c-0.003-0.783,0.036-1.568,0.143-2.357c0.063-0.395,0.127-0.791,0.289-1.189l0.106-0.273
				c0.035-0.088,0.079-0.186,0.09-0.254c0.021-0.074,0.042-0.148,0.046-0.23c0.016-0.082,0.014-0.158,0.009-0.234
				c-0.011-0.309-0.177-0.582-0.411-0.842c-0.234-0.262-0.536-0.49-0.837-0.793c-0.292-0.32-0.514-0.625-0.754-0.943
				c-0.233-0.318-0.458-0.641-0.669-0.977c-0.422-0.668-0.817-1.359-1.096-2.133c-0.133-0.387-0.242-0.801-0.205-1.268
				c0.018-0.23,0.096-0.488,0.263-0.693c0.164-0.209,0.395-0.336,0.616-0.412l0.053-0.02l0.036,0.004
				c0.213,0.025,0.274,0.086,0.384,0.143c0.078,0.066,0.175,0.127,0.232,0.203c0.139,0.143,0.236,0.299,0.333,0.453
				c0.095,0.156,0.16,0.32,0.24,0.479c0.065,0.162,0.12,0.326,0.181,0.49l0.045,0.121l0.041,0.096
				c0.034,0.074,0.062,0.162,0.101,0.225c0.079,0.115,0.144,0.238,0.253,0.359c0.093,0.125,0.21,0.232,0.323,0.344
				c0.114,0.111,0.245,0.207,0.37,0.311c0.134,0.092,0.262,0.191,0.402,0.275c0.14,0.084,0.275,0.176,0.422,0.25
				c0.286,0.162,0.588,0.301,0.895,0.424c0.151,0.064,0.311,0.113,0.467,0.17c0.158,0.041,0.316,0.1,0.479,0.129
				c0.161,0.039,0.324,0.066,0.489,0.09l0.248,0.012c0.083,0,0.165-0.014,0.249-0.021c-0.081,0.018-0.163,0.043-0.246,0.053
				l-0.254,0.016c-0.169-0.004-0.339-0.008-0.506-0.035c-0.17-0.016-0.334-0.059-0.502-0.088c-0.162-0.045-0.329-0.08-0.491-0.133
				c-0.324-0.098-0.646-0.209-0.957-0.352c-0.158-0.064-0.31-0.146-0.462-0.225c-0.152-0.08-0.295-0.176-0.444-0.264
				c-0.14-0.102-0.287-0.195-0.42-0.311c-0.134-0.113-0.27-0.225-0.388-0.361c-0.126-0.121-0.234-0.285-0.341-0.445
				c-0.052-0.08-0.077-0.154-0.117-0.23l-0.062-0.133l-0.046-0.111c-0.064-0.148-0.122-0.301-0.189-0.445
				c-0.077-0.135-0.144-0.283-0.229-0.408s-0.173-0.25-0.273-0.342c-0.046-0.059-0.101-0.08-0.147-0.125l-0.068-0.033
				c-0.012-0.01-0.016-0.004-0.022-0.008l-0.01-0.004c0,0,0.016,0.004,0.022,0l0.09-0.014c-0.291,0.111-0.447,0.301-0.46,0.619
				c-0.019,0.311,0.074,0.666,0.199,1.006c0.256,0.688,0.639,1.354,1.051,1.992c0.209,0.318,0.427,0.633,0.649,0.943
				c0.222,0.305,0.459,0.629,0.689,0.885c0.241,0.252,0.561,0.498,0.844,0.816c0.281,0.311,0.536,0.752,0.541,1.23
				c0.005,0.117,0.001,0.234-0.021,0.346c-0.012,0.113-0.045,0.225-0.079,0.336c-0.032,0.121-0.074,0.201-0.112,0.291l-0.113,0.268
				c-0.14,0.318-0.221,0.691-0.295,1.059c-0.142,0.744-0.203,1.514-0.256,2.283c-0.046,0.77-0.066,1.543-0.071,2.316
				c0.001,0.389,0.006,0.775,0.021,1.162C161.191,87.264,161.202,87.65,161.245,88.037z"/>
			<path fill="#CE9D85" d="M174.454,88.449c-0.016-0.422-0.131-0.814-0.271-1.201c-0.142-0.385-0.319-0.758-0.506-1.123
				c-0.192-0.365-0.396-0.721-0.608-1.074s-0.429-0.703-0.654-1.049c-0.452-0.689-0.913-1.373-1.395-2.045l-0.723-1.006
				l-0.364-0.502l-0.046-0.063l-0.033-0.049l-0.021-0.033l-0.083-0.131c-0.056-0.074-0.112-0.207-0.164-0.326
				c-0.054-0.121-0.073-0.252-0.095-0.383c-0.006-0.139-0.008-0.275,0.031-0.408c0.065-0.27,0.211-0.5,0.372-0.67
				c0.321-0.354,0.683-0.584,0.998-0.832c0.157-0.121,0.303-0.246,0.425-0.375l0.413-0.455c0.271-0.311,0.541-0.617,0.798-0.934
				c0.514-0.631,1-1.291,1.367-1.99c0.179-0.348,0.332-0.715,0.364-1.055c0.029-0.346-0.095-0.58-0.399-0.725l0.087,0.023
				c0.006,0.002,0.021,0,0.021,0l-0.01,0.004c-0.008,0.002-0.011-0.004-0.024,0.006l-0.071,0.025
				c-0.053,0.041-0.109,0.057-0.16,0.109c-0.11,0.086-0.208,0.199-0.307,0.318c-0.096,0.119-0.175,0.258-0.265,0.387
				c-0.08,0.139-0.151,0.285-0.229,0.426l-0.056,0.107l-0.074,0.127c-0.046,0.072-0.077,0.143-0.136,0.217
				c-0.122,0.148-0.245,0.303-0.383,0.41c-0.128,0.127-0.273,0.225-0.416,0.328c-0.144,0.1-0.298,0.18-0.446,0.27
				c-0.156,0.072-0.307,0.156-0.466,0.221c-0.16,0.063-0.317,0.131-0.48,0.18c-0.321,0.115-0.652,0.197-0.984,0.268
				c-0.165,0.037-0.334,0.057-0.501,0.086c-0.17,0.014-0.336,0.041-0.506,0.043c-0.169,0.012-0.34,0-0.508-0.01l-0.25-0.039
				c-0.083-0.018-0.162-0.051-0.242-0.074c0.083,0.016,0.164,0.037,0.246,0.045l0.248,0.012c0.167-0.008,0.332-0.02,0.496-0.045
				c0.164-0.014,0.327-0.055,0.489-0.084c0.161-0.041,0.323-0.074,0.48-0.125c0.317-0.094,0.63-0.201,0.93-0.338
				c0.154-0.061,0.297-0.139,0.444-0.211c0.146-0.072,0.285-0.158,0.427-0.238c0.133-0.092,0.273-0.172,0.397-0.273
				c0.124-0.1,0.25-0.199,0.355-0.314c0.12-0.107,0.195-0.227,0.284-0.338c0.044-0.057,0.08-0.143,0.12-0.213l0.05-0.092
				l0.055-0.117c0.075-0.156,0.146-0.314,0.227-0.471c0.095-0.15,0.175-0.307,0.282-0.451c0.11-0.148,0.223-0.293,0.372-0.422
				c0.064-0.068,0.166-0.121,0.249-0.18c0.113-0.049,0.179-0.105,0.392-0.107h0.034l0.052,0.021c0.227,0.1,0.46,0.268,0.601,0.512
				c0.142,0.244,0.176,0.52,0.164,0.762c-0.036,0.49-0.211,0.902-0.398,1.297c-0.19,0.391-0.421,0.752-0.66,1.102
				s-0.493,0.688-0.758,1.014c-0.264,0.33-0.532,0.652-0.814,0.963l-0.425,0.461c-0.165,0.172-0.339,0.313-0.509,0.443
				c-0.339,0.258-0.682,0.482-0.92,0.744c-0.241,0.266-0.325,0.521-0.212,0.822c0.103,0.293,0.392,0.65,0.614,0.99
				c0.235,0.344,0.468,0.689,0.693,1.037c0.451,0.699,0.898,1.402,1.308,2.131c0.207,0.361,0.405,0.729,0.597,1.1
				c0.189,0.371,0.362,0.752,0.527,1.137c0.157,0.387,0.307,0.779,0.416,1.184C174.424,87.609,174.483,88.035,174.454,88.449z"/>
			<path fill="#70573A" d="M162.725,58.936c-0.046,0.324-0.11,0.645-0.186,0.961c-0.073,0.316-0.153,0.631-0.243,0.943l-0.01,0.035
				l-0.035,0.037c-0.128,0.137-0.258,0.27-0.391,0.4c-0.132,0.131-0.262,0.264-0.398,0.391l0.018-0.258
				c0.176,0.227,0.347,0.455,0.512,0.689l-0.141-0.066c0.313,0.002,0.629,0.012,0.944,0.029l-0.093,0.059
				c0.067-0.111,0.14-0.23,0.191-0.354c0.028-0.061,0.054-0.123,0.066-0.188c0.014-0.061,0.021-0.137-0.046-0.172
				c0.033,0.008,0.072,0.027,0.086,0.064c0.02,0.035,0.026,0.074,0.028,0.111c0.005,0.074-0.002,0.148-0.015,0.219
				c-0.026,0.143-0.064,0.279-0.118,0.416l-0.02,0.051l-0.072,0.008c-0.313,0.043-0.628,0.074-0.941,0.1l-0.079,0.008l-0.063-0.072
				c-0.188-0.217-0.369-0.439-0.547-0.664l-0.105-0.133l0.123-0.125c0.13-0.133,0.266-0.26,0.4-0.389
				c0.134-0.129,0.27-0.256,0.409-0.381l-0.046,0.072c0.111-0.305,0.229-0.605,0.355-0.906
				C162.436,59.523,162.571,59.227,162.725,58.936z"/>
			<g>
				<path fill="#E43A43" d="M165.132,63.76c-0.016,0.105-0.039,0.221-0.089,0.338c-0.022,0.059-0.043,0.121-0.065,0.184
					c-0.029,0.063-0.068,0.121-0.102,0.184c-0.066,0.127-0.174,0.244-0.279,0.361c-0.121,0.105-0.252,0.207-0.41,0.271
					c-0.076,0.041-0.158,0.061-0.236,0.084c-0.08,0.025-0.162,0.035-0.239,0.039c-0.161,0.021-0.313,0.002-0.45-0.018
					c-0.281-0.049-0.512-0.154-0.698-0.25c-0.371-0.195-0.578-0.396-0.578-0.396s0.072-0.002,0.193,0.004
					c0.121,0.004,0.295,0.012,0.492,0.031c0.049,0.004,0.103,0.008,0.157,0.012c0.011,0.002,0.021,0.002,0.029,0.002
					c0.041,0.004,0.082,0.008,0.125,0.01c0.108,0.008,0.221,0.012,0.329,0.008s0.22-0.008,0.317-0.033
					c0.053-0.004,0.102-0.02,0.147-0.035c0.05-0.018,0.099-0.027,0.142-0.055c0.092-0.035,0.171-0.098,0.26-0.152
					c0.072-0.076,0.16-0.131,0.227-0.223c0.035-0.041,0.072-0.08,0.108-0.119c0.029-0.045,0.062-0.088,0.092-0.131
					c0.003-0.004,0.006-0.01,0.01-0.014c0.003-0.006,0.011-0.01,0.013-0.016c0.057-0.076,0.109-0.152,0.154-0.225
					c0.05-0.082,0.108-0.154,0.148-0.227c0.039-0.072,0.082-0.131,0.114-0.18c0.069-0.102,0.111-0.16,0.111-0.16
					s0.01,0.068,0.014,0.193C165.171,63.373,165.178,63.549,165.132,63.76z"/>
				<path fill="#E43A43" d="M164.626,63.846c-0.002,0.006-0.01,0.01-0.013,0.016c-0.004,0.004-0.007,0.01-0.01,0.014
					c-0.03,0.043-0.063,0.086-0.092,0.131c-0.036,0.039-0.073,0.078-0.108,0.119c-0.066,0.092-0.154,0.146-0.227,0.223
					c-0.089,0.055-0.168,0.117-0.26,0.152c-0.043,0.027-0.092,0.037-0.142,0.055c-0.046,0.016-0.095,0.031-0.147,0.035
					c-0.098,0.025-0.209,0.029-0.317,0.033s-0.221,0-0.329-0.008c-0.043-0.002-0.084-0.006-0.125-0.01c-0.009,0-0.019,0-0.029-0.002
					c0.142-0.316,0.563-0.598,0.948-0.424C163.775,64.18,164.075,63.547,164.626,63.846z"/>
			</g>
			<circle fill="#CE9D85" cx="168.021" cy="61.898" r="1.415"/>
			<circle fill="#CE9D85" cx="159.446" cy="61.652" r="1.005"/>
			<g>
				<polyline fill="#CE9D85" points="162.523,62.699 162.688,63.643 162.913,63.479 162.605,62.656 				"/>
				<path fill="#CE9D85" d="M162.257,62.74l0.041,0.82c0,0,0.185,0.102,0.164,0.041c-0.021-0.063-0.116-0.855-0.116-0.855
					L162.257,62.74z"/>
			</g>
			<g>
				<path fill="#CE9D85" d="M159.775,55.055c-0.088,0.352-0.21,0.789-0.348,1.146c-0.368,0.357-0.762,0.449-1.097,0.535
					c0.004-0.139,0.004-0.279,0.007-0.414C158.958,56.059,159.522,55.658,159.775,55.055z"/>
				<path fill="#CE9D85" d="M162.388,56.244c-0.886,0.633-2.265,0.984-2.675,0.957c-0.476-0.029-0.656-0.367-0.656-0.367
					c0.096-0.029,2.534,0.059,3.2-1.07C162.257,55.764,162.394,55.957,162.388,56.244z"/>
			</g>
			<g>
				<path fill="#CE9D85" d="M170.03,59.93c0,0,0.021-0.064,0.083-0.166c0.062-0.098,0.16-0.236,0.321-0.371
					c0.08-0.068,0.176-0.139,0.304-0.184c0.122-0.045,0.312-0.076,0.48,0.033c0.163,0.105,0.239,0.266,0.285,0.408
					c0.021,0.074,0.035,0.141,0.047,0.219l0.025,0.191c0.024,0.277,0.022,0.547-0.028,0.803c-0.046,0.256-0.136,0.492-0.258,0.666
					c-0.117,0.178-0.264,0.289-0.368,0.344c-0.106,0.057-0.176,0.063-0.174,0.066c0,0,0.052-0.045,0.118-0.135
					c0.068-0.086,0.145-0.221,0.201-0.389s0.089-0.375,0.104-0.6c0.007-0.111,0.003-0.229,0.004-0.348
					c-0.001-0.121-0.014-0.24-0.021-0.359l-0.019-0.193c-0.006-0.049-0.015-0.107-0.027-0.156c-0.022-0.1-0.059-0.18-0.099-0.213
					c-0.036-0.031-0.102-0.055-0.189-0.039c-0.085,0.016-0.177,0.045-0.258,0.084C170.234,59.75,170.03,59.93,170.03,59.93z"/>
				<ellipse fill="#CE9D85" cx="170.43" cy="60.791" rx="0.359" ry="0.555"/>
			</g>
			<g>
				<path fill="#70573A" d="M158.838,57.748c0,0,0.05,0.016,0.129,0.045c0.078,0.033,0.187,0.074,0.302,0.127
					c0.241,0.096,0.509,0.191,0.779,0.227c0.136,0.016,0.274,0.027,0.417,0.023c0.071,0.006,0.142-0.004,0.21-0.004
					c0.069,0,0.137-0.006,0.201-0.008c0.063-0.008,0.127-0.002,0.181-0.01c0.054-0.006,0.104-0.004,0.146-0.006
					c0.086-0.002,0.139,0.002,0.139,0.002s-0.025,0.045-0.077,0.113c-0.053,0.068-0.13,0.166-0.25,0.25
					c-0.058,0.045-0.121,0.096-0.199,0.131c-0.077,0.037-0.157,0.082-0.25,0.105c-0.182,0.061-0.396,0.076-0.607,0.051
					c-0.104-0.02-0.211-0.037-0.307-0.082c-0.1-0.035-0.188-0.086-0.27-0.141c-0.16-0.111-0.28-0.244-0.359-0.369
					c-0.08-0.125-0.125-0.24-0.15-0.322C158.847,57.799,158.838,57.748,158.838,57.748z"/>
				<polygon fill="#70573A" points="158.852,58.609 159.248,58.188 159.728,58.432 159.617,58.953 160.041,58.582 160.315,59.006 
					160.52,58.527 				"/>
			</g>
			<g>
				<path fill="#70573A" d="M163.763,58.469c0,0,0.276-0.045,0.671-0.037c0.097-0.008,0.199-0.016,0.305-0.016
					c0.107-0.006,0.217,0.004,0.331-0.01c0.115-0.008,0.231-0.014,0.351-0.016c0.117-0.006,0.233-0.027,0.351-0.035
					c0.12-0.002,0.232-0.029,0.344-0.051c0.112-0.025,0.23-0.029,0.331-0.068c0.104-0.031,0.208-0.057,0.311-0.08
					c0.094-0.041,0.188-0.072,0.276-0.104c0.088-0.031,0.173-0.057,0.239-0.094c0.069-0.035,0.136-0.063,0.188-0.086
					c0.11-0.045,0.179-0.068,0.179-0.068s-0.028,0.063-0.091,0.166c-0.031,0.051-0.069,0.115-0.119,0.184
					c-0.046,0.074-0.11,0.145-0.189,0.213c-0.076,0.072-0.162,0.15-0.257,0.229c-0.104,0.061-0.217,0.125-0.335,0.188
					c-0.118,0.07-0.251,0.102-0.386,0.141c-0.136,0.043-0.274,0.074-0.416,0.082c-0.14,0.01-0.281,0.029-0.417,0.021
					c-0.137-0.01-0.271-0.025-0.398-0.043c-0.127-0.01-0.25-0.053-0.364-0.082c-0.113-0.033-0.219-0.07-0.315-0.105
					c-0.183-0.078-0.327-0.162-0.43-0.225C163.817,58.512,163.763,58.469,163.763,58.469z"/>
				<path fill="#70573A" d="M164.349,58.652l0.137,0.711l0.37-0.604c0,0,0.396,0.027,0.396,0.07c0,0.039,0.451,0.504,0.451,0.504
					l0.205-0.615l0.848,0.398l0.124-0.713L164.349,58.652z"/>
			</g>
			<path fill="#3E5D84" d="M174.468,67.436c0,0.061-0.078,0.115-0.223,0.168c-0.164-0.041-0.42-0.076-0.748-0.107
				c-0.007,0-0.014-0.006-0.023-0.006c-0.42-0.041-0.961-0.078-1.599-0.109c-1.472-0.076-3.459-0.125-5.645-0.125
				c-2.183,0-4.168,0.049-5.641,0.125c-0.637,0.031-1.179,0.068-1.599,0.109c-0.01,0-0.016,0.006-0.023,0.006
				c-0.328,0.031-0.584,0.066-0.748,0.107c-0.145-0.053-0.223-0.107-0.223-0.168c0-0.121,0.35-0.234,0.971-0.338
				c0.008-0.004,0.014-0.004,0.023-0.004c0.42-0.068,0.962-0.131,1.599-0.184c1.473-0.121,3.458-0.193,5.641-0.193
				c2.186,0,4.173,0.072,5.645,0.193c0.638,0.053,1.179,0.115,1.599,0.184c0.01,0,0.017,0,0.023,0.004
				C174.117,67.201,174.468,67.314,174.468,67.436z"/>
			<path fill="#FFFFFF" d="M174.245,67.602c-0.252,0.096-0.712,0.182-1.332,0.258c-0.184,0.018-0.381,0.041-0.594,0.061
				c-0.129,0.014-0.263,0.027-0.401,0.037c-1.276,0.107-2.943,0.18-4.794,0.197c-0.293,0.002-0.591,0.002-0.893,0.002
				c-0.303,0-0.598,0-0.893-0.002c-2.049-0.02-3.873-0.105-5.192-0.234c-0.032-0.002-0.065-0.006-0.099-0.008c0,0-0.004,0-0.007,0
				c-0.174-0.018-0.335-0.037-0.489-0.053c-0.619-0.076-1.08-0.162-1.332-0.258c0.164-0.039,0.42-0.076,0.748-0.107
				c0.008,0,0.014-0.004,0.023-0.004c0.42-0.043,0.962-0.078,1.599-0.111c1.473-0.076,3.458-0.125,5.642-0.125
				c2.186,0,4.172,0.049,5.644,0.125c0.638,0.033,1.179,0.068,1.6,0.111c0.01,0,0.016,0.004,0.022,0.004
				C173.825,67.525,174.081,67.563,174.245,67.602z"/>
			<g>
				<g>
					<g>
						<polygon fill="#E5E3E4" points="170.815,67.082 168.885,70.273 165.806,68.408 167.735,65.219 169.044,64.256 169.144,64.184 
							171.08,65.355 171.061,65.486 						"/>
					</g>
					<path fill="#E5E3E4" d="M167.735,65.219l-0.114,0.189l3.079,1.865l0.115-0.191L167.735,65.219z"/>
					<path fill="#E5E3E4" d="M171.08,65.355l-0.113-0.068l-1.377,0.605l-0.213,0.094l-0.016-0.236l-0.097-1.492l-0.121-0.074
						l-0.1,0.072l0.118,1.822l-0.001,0.002l0.016,0.236l0.213-0.094h0.004l1.667-0.736L171.08,65.355z"/>
					
						<rect x="168.609" y="64.37" transform="matrix(0.8559 0.5172 -0.5172 0.8559 58.986 -77.6083)" fill="#E5E3E4" width="0.268" height="5.325"/>
				</g>
				<path fill="#E0A30A" d="M170.081,68.295l-1.196,1.979l-3.079-1.865l1.168-1.932c0.417,0.141,0.518,0.324,0.771,0.824
					c0.084,0.162,0.232,0.313,0.412,0.438c0.073,0.051,0.149,0.098,0.229,0.141c0.368,0.205,0.78,0.316,0.948,0.289
					C169.562,68.125,169.888,68.174,170.081,68.295z"/>
			</g>
			<path fill="#FFFFFF" d="M176.177,68.389c-0.025,0.004-0.051,0.008-0.076,0.012c-0.124,0.037-0.453,0.283-0.801,0.602
				c-0.348,0.32-0.709,0.707-0.891,1.029c-0.362,0.641-0.542,1.475-0.713,1.844c-0.809,2.049-3.394,3.607-6.582,3.891
				c-0.29,0.027-0.586,0.043-0.883,0.047c-0.73-0.012-1.437-0.09-2.106-0.225c-2.195-0.439-3.99-1.51-4.927-2.896
				c-0.174-0.26-0.322-0.533-0.433-0.816c-0.024-0.053-0.046-0.113-0.07-0.186c-0.149-0.416-0.326-1.109-0.639-1.658
				c-0.362-0.645-1.447-1.555-1.691-1.631c-0.028-0.004-0.054-0.008-0.078-0.012c0.368,0.029,1.259,0.029,2.17,0.252
				c0.327,0.104,0.695,0.203,1.1,0.295c1.705,0.375,4.067,0.609,6.675,0.609c3.228,0,6.071-0.359,7.777-0.904
				c0.135-0.031,0.27-0.061,0.404-0.084c0.064-0.014,0.131-0.025,0.195-0.037l0.159-0.021c0.354-0.049,0.682-0.07,0.943-0.084
				c0.047-0.004,0.089-0.004,0.132-0.008c0.092-0.002,0.17-0.006,0.238-0.01C176.116,68.393,176.147,68.393,176.177,68.389z"/>
			<path fill="#3E5D84" d="M177.215,67.941c-0.031,0.094-0.128,0.172-0.27,0.238c-0.185,0.09-0.45,0.16-0.767,0.209h-0.002
				c-0.029,0.004-0.061,0.004-0.096,0.008c-0.068,0.004-0.146,0.008-0.238,0.01c-0.043,0.004-0.085,0.004-0.132,0.008
				c-0.262,0.014-0.589,0.035-0.943,0.084l-0.159,0.021c-0.064,0.012-0.131,0.023-0.195,0.037c-0.135,0.023-0.27,0.053-0.404,0.084
				c-1.706,0.545-4.55,0.904-7.777,0.904c-2.607,0-4.97-0.234-6.675-0.609c-0.404-0.092-0.772-0.191-1.1-0.295
				c-0.911-0.223-1.802-0.223-2.17-0.252c-0.624-0.1-1.05-0.273-1.05-0.521c0-0.014,0.003-0.031,0.007-0.049
				c0.015-0.061,0.106-0.117,0.263-0.17c0,0,0,0,0.003,0c0.277-0.092,0.748-0.178,1.284-0.256c0.703-0.104,1.521-0.195,2.174-0.295
				c-0.621,0.1-0.973,0.217-0.973,0.338c0,0.014,0.004,0.027,0.015,0.039c0.089,0.145,0.649,0.275,1.544,0.383
				c0.035,0.004,0.07,0.01,0.105,0.014c0.021,0.004,0.039,0.004,0.062,0.008c0.056,0.006,0.112,0.012,0.174,0.018
				c0.081,0.01,0.166,0.018,0.251,0.025c1.507,0.145,3.674,0.232,6.086,0.232c2.411,0,4.582-0.088,6.089-0.232
				c0.209-0.02,0.409-0.039,0.593-0.064c0.315-0.039,0.592-0.078,0.815-0.121c0.237-0.047,0.422-0.096,0.55-0.145
				c0.032-0.016,0.058-0.025,0.081-0.039c0.004,0,0.004,0,0.004,0c0.025-0.016,0.042-0.025,0.058-0.041
				c0.007-0.002,0.014-0.008,0.021-0.021c0.011-0.006,0.018-0.016,0.021-0.027c0.004-0.01,0.007-0.018,0.007-0.027
				c0-0.094-0.195-0.178-0.557-0.26l-0.106-0.021c-0.061-0.014-0.128-0.027-0.194-0.039c0.631,0.094,1.394,0.182,2.06,0.277
				c0.671,0.098,1.237,0.201,1.454,0.326c0.058,0.031,0.089,0.064,0.096,0.1C177.233,67.861,177.229,67.902,177.215,67.941z"/>
			<g>
				<path d="M162.625,72.912c-0.101,0.023-0.204,0.037-0.308,0.045c-0.105,0.004-0.205,0.008-0.3,0.008
					c-0.097,0.002-0.177,0.002-0.242,0.002c-0.034,0-0.082-0.002-0.145-0.006c-0.063-0.002-0.122-0.004-0.182-0.01
					c-0.059-0.004-0.132-0.012-0.222-0.02c-0.019-0.145-0.036-0.273-0.054-0.395c-0.017-0.117-0.037-0.256-0.062-0.41
					c-0.022-0.156-0.047-0.318-0.072-0.486s-0.053-0.336-0.083-0.506c-0.029-0.172-0.057-0.33-0.083-0.477
					c-0.016-0.09-0.024-0.172-0.025-0.244c0-0.072,0.003-0.131,0.01-0.182c0.009-0.047,0.016-0.086,0.027-0.115
					c0.009-0.029,0.016-0.045,0.019-0.053l0.272,0.043l0.456,2.584c0.054,0,0.138,0,0.251,0c0.114-0.002,0.232-0.002,0.355-0.004
					c0.124-0.002,0.238-0.006,0.347-0.01c0.108-0.002,0.187-0.008,0.231-0.016l0.083,0.143
					C162.817,72.854,162.725,72.891,162.625,72.912z"/>
				<path d="M163.671,71.648c-0.019,0.119-0.057,0.219-0.116,0.301c-0.06,0.08-0.136,0.143-0.228,0.191
					c-0.092,0.045-0.193,0.074-0.305,0.084c0.051,0.15,0.132,0.268,0.241,0.352c0.078,0.063,0.149,0.1,0.212,0.109
					c0.063,0.012,0.119,0.004,0.17-0.023c0.05-0.025,0.095-0.07,0.134-0.129c0.038-0.059,0.072-0.125,0.099-0.201l0.142,0.051
					c-0.011,0.152-0.034,0.271-0.07,0.359c-0.036,0.086-0.085,0.148-0.142,0.189c-0.057,0.037-0.127,0.059-0.209,0.059
					c-0.079,0-0.167-0.012-0.263-0.033c-0.109-0.023-0.208-0.07-0.293-0.137c-0.086-0.066-0.158-0.145-0.218-0.232
					s-0.107-0.178-0.142-0.271c-0.035-0.094-0.054-0.18-0.058-0.258c-0.007-0.133,0.007-0.254,0.04-0.367
					c0.034-0.111,0.087-0.209,0.157-0.291c0.072-0.084,0.161-0.15,0.27-0.199c0.107-0.051,0.231-0.082,0.37-0.094
					c0.046-0.002,0.081,0.008,0.103,0.037c0.023,0.027,0.045,0.057,0.067,0.09C163.677,71.391,163.688,71.531,163.671,71.648z
					 M163.239,71.512c-0.048,0.039-0.09,0.086-0.127,0.139c-0.038,0.053-0.067,0.109-0.09,0.168
					c-0.022,0.061-0.033,0.121-0.033,0.18c0.063-0.016,0.124-0.039,0.186-0.072c0.06-0.031,0.11-0.072,0.15-0.123
					c0.041-0.047,0.068-0.104,0.083-0.168c0.015-0.063,0.008-0.133-0.018-0.209C163.337,71.443,163.287,71.471,163.239,71.512z"/>
				<path d="M166.433,70.734c-0.009,0.059-0.019,0.117-0.028,0.18c-0.028,0.197-0.073,0.381-0.133,0.553
					c-0.061,0.174-0.129,0.338-0.207,0.496c-0.077,0.156-0.16,0.311-0.25,0.457c-0.088,0.146-0.177,0.293-0.267,0.436
					c-0.021,0.035-0.054,0.063-0.097,0.084c-0.042,0.02-0.104,0.023-0.186,0.008c-0.009-0.162-0.019-0.322-0.025-0.484
					c-0.009-0.16-0.03-0.326-0.068-0.498c-0.025-0.123-0.06-0.254-0.103-0.391c-0.045-0.137-0.097-0.273-0.154-0.414
					c-0.059-0.141-0.125-0.277-0.198-0.41c-0.075-0.137-0.154-0.262-0.238-0.379c-0.031-0.031-0.071-0.039-0.12-0.021
					c-0.047,0.016-0.096,0.039-0.143,0.064l-0.174-0.174c0.043-0.033,0.102-0.059,0.182-0.08s0.16-0.031,0.242-0.033
					c0.084-0.002,0.163,0.01,0.236,0.033c0.076,0.025,0.13,0.068,0.167,0.127c0.106,0.178,0.197,0.359,0.272,0.545
					c0.075,0.188,0.139,0.373,0.188,0.559c0.051,0.184,0.09,0.365,0.118,0.543c0.027,0.18,0.046,0.35,0.055,0.516
					c0.061-0.141,0.12-0.285,0.179-0.436c0.06-0.15,0.111-0.307,0.157-0.467s0.081-0.326,0.105-0.496
					c0.026-0.172,0.035-0.346,0.028-0.527c-0.002-0.057-0.019-0.102-0.049-0.129c-0.029-0.029-0.064-0.047-0.103-0.057
					c-0.039-0.008-0.078-0.012-0.119-0.01s-0.073,0.006-0.096,0.008l-0.104-0.18c0.034-0.014,0.084-0.023,0.149-0.033
					s0.131-0.018,0.201-0.02c0.07-0.004,0.138,0,0.205,0.008c0.066,0.01,0.119,0.023,0.157,0.047
					c0.083,0.049,0.139,0.111,0.169,0.184c0.029,0.072,0.047,0.141,0.051,0.209C166.442,70.615,166.44,70.676,166.433,70.734z"/>
				<path d="M168.191,70.105c-0.035,0.076-0.062,0.164-0.082,0.266c-0.021,0.104-0.034,0.211-0.041,0.328s-0.009,0.234-0.006,0.346
					c0.003,0.115,0.011,0.225,0.024,0.326c0.013,0.104,0.029,0.191,0.049,0.262l0.521-0.074l0.07,0.152l-0.53,0.203
					c0.01,0.037,0.024,0.096,0.045,0.18c0.02,0.084,0.043,0.17,0.07,0.256c0.026,0.084,0.057,0.162,0.09,0.227
					c0.033,0.066,0.066,0.1,0.1,0.1c0.055,0,0.096-0.016,0.123-0.049c0.028-0.033,0.047-0.072,0.059-0.119s0.018-0.098,0.021-0.152
					c0.004-0.053,0.008-0.102,0.01-0.146l0.164,0.006c0.008,0.105,0.008,0.205-0.003,0.299c-0.01,0.094-0.031,0.178-0.065,0.25
					c-0.033,0.074-0.08,0.133-0.144,0.176c-0.063,0.045-0.143,0.066-0.237,0.066c-0.102,0-0.187-0.041-0.255-0.123
					c-0.067-0.082-0.126-0.18-0.173-0.289c-0.049-0.111-0.086-0.227-0.115-0.344c-0.029-0.119-0.053-0.211-0.068-0.283l-0.494,0.063
					c-0.021,0.082-0.062,0.178-0.117,0.289c-0.057,0.109-0.12,0.217-0.191,0.32s-0.147,0.191-0.229,0.264
					c-0.081,0.072-0.161,0.107-0.239,0.109c-0.02,0-0.043-0.004-0.07-0.01c-0.028-0.008-0.055-0.018-0.081-0.033
					c-0.026-0.018-0.052-0.037-0.075-0.063s-0.041-0.057-0.053-0.092c-0.014-0.041-0.014-0.082-0.003-0.125
					c0.013-0.041,0.043-0.063,0.091-0.063c0.041,0,0.08,0.01,0.121,0.023c0.042,0.016,0.082,0.025,0.122,0.025
					c0.033-0.002,0.065-0.027,0.097-0.08c0.031-0.055,0.059-0.115,0.084-0.184c0.026-0.07,0.049-0.139,0.067-0.209
					c0.019-0.068,0.032-0.121,0.038-0.156c-0.05,0-0.105,0-0.169-0.002c-0.063,0-0.122,0-0.178-0.002s-0.104-0.002-0.14-0.002
					l-0.058,0.002l-0.035-0.189c0.092-0.012,0.171-0.023,0.236-0.031c0.066-0.01,0.136-0.02,0.209-0.027
					c0.075-0.008,0.138-0.016,0.191-0.023c0.048-0.174,0.102-0.367,0.16-0.582c0.06-0.213,0.136-0.416,0.228-0.609
					c0.094-0.193,0.21-0.359,0.35-0.5c0.141-0.141,0.316-0.227,0.524-0.256l0.116,0.109
					C168.268,69.971,168.227,70.027,168.191,70.105z M167.606,70.766c-0.043,0.113-0.082,0.229-0.117,0.346
					c-0.037,0.117-0.068,0.23-0.096,0.336c-0.026,0.107-0.044,0.197-0.054,0.271l0.397-0.043c-0.018-0.08-0.031-0.17-0.04-0.271
					c-0.01-0.104-0.015-0.207-0.014-0.316c0-0.109,0.004-0.217,0.013-0.324s0.021-0.205,0.039-0.297
					C167.692,70.551,167.649,70.652,167.606,70.766z"/>
				<path d="M171.596,70.1c-0.021,0.031-0.049,0.051-0.087,0.059c-0.038,0.01-0.08,0.012-0.127,0.006
					c-0.045-0.006-0.09-0.016-0.132-0.027c-0.181,0.172-0.324,0.369-0.431,0.594c-0.105,0.223-0.186,0.459-0.242,0.709
					c-0.055,0.252-0.092,0.508-0.111,0.771c-0.021,0.262-0.031,0.52-0.033,0.773l-0.282,0.061c-0.035-0.18-0.069-0.363-0.104-0.559
					c-0.034-0.191-0.074-0.383-0.117-0.574c-0.043-0.189-0.097-0.381-0.157-0.566c-0.063-0.188-0.137-0.369-0.225-0.545
					c-0.012,0.125-0.027,0.266-0.045,0.426c-0.019,0.158-0.041,0.322-0.067,0.496c-0.027,0.17-0.059,0.342-0.095,0.512
					c-0.037,0.172-0.079,0.336-0.126,0.488c-0.047,0.156-0.1,0.295-0.16,0.418s-0.128,0.221-0.203,0.291l-0.144-0.178
					c0.114-0.139,0.204-0.314,0.271-0.529c0.065-0.217,0.118-0.447,0.154-0.693s0.062-0.494,0.077-0.744
					c0.014-0.25,0.029-0.477,0.043-0.678l0.053-0.223c-0.048-0.068-0.097-0.123-0.146-0.158c-0.049-0.039-0.114-0.041-0.198-0.008
					c-0.035,0.014-0.068,0.049-0.097,0.107c-0.029,0.059-0.06,0.113-0.092,0.162c-0.032,0.051-0.066,0.086-0.105,0.105
					c-0.04,0.018-0.086-0.004-0.141-0.068c-0.024-0.035-0.034-0.072-0.027-0.107c0.006-0.037,0.021-0.07,0.045-0.102
					s0.05-0.059,0.079-0.084c0.03-0.025,0.055-0.047,0.075-0.063c0.063-0.057,0.145-0.104,0.241-0.139
					c0.098-0.037,0.195-0.055,0.295-0.055s0.191,0.02,0.276,0.061s0.148,0.111,0.191,0.209c0.116,0.271,0.227,0.549,0.331,0.822
					c0.103,0.277,0.184,0.555,0.243,0.836c0.025-0.238,0.069-0.473,0.13-0.703c0.061-0.227,0.139-0.436,0.232-0.623
					c0.093-0.188,0.205-0.348,0.334-0.475c0.13-0.131,0.276-0.215,0.436-0.256c0.02,0,0.038,0,0.061-0.002
					c0.021-0.002,0.041,0,0.06,0.006s0.034,0.018,0.049,0.033c0.014,0.016,0.024,0.041,0.03,0.074
					C171.621,70.023,171.617,70.07,171.596,70.1z"/>
			</g>
			<g>
				<polygon fill="#E0A30A" points="172.499,69.557 173.152,70.619 171.515,71.625 170.862,70.563 171.383,70.244 171.864,70.359 
					171.979,69.877 				"/>
				<path fill="#E5E3E4" d="M172.071,70.768c-0.012,0-0.025-0.002-0.038-0.008c-0.517-0.191-0.417-0.984-0.279-2.086
					c0.094-0.742,0.21-1.664,0.151-2.594c-0.057-0.898-0.422-1.428-1.003-1.451c-0.428-0.021-0.838,0.258-0.872,0.496
					c-0.01,0.061-0.064,0.104-0.127,0.094c-0.061-0.008-0.102-0.066-0.093-0.127c0.055-0.381,0.581-0.705,1.101-0.686
					c0.335,0.014,1.125,0.203,1.217,1.66c0.059,0.951-0.059,1.885-0.152,2.635c-0.121,0.961-0.216,1.721,0.135,1.852
					c0.058,0.02,0.087,0.084,0.066,0.143C172.159,70.74,172.118,70.768,172.071,70.768z"/>
			</g>
			<path fill="#B78906" d="M171.918,67.957c-1.276,0.107-2.943,0.18-4.794,0.197c-0.293,0.002-0.591,0.002-0.893,0.002
				c-0.303,0-0.598,0-0.893-0.002c-2.049-0.02-3.873-0.105-5.192-0.234c-0.032-0.002-0.065-0.006-0.099-0.008
				C162.739,67.701,168.043,67.445,171.918,67.957z"/>
			<path fill="#CE9D85" d="M161.416,57.104c-1.39,0.771-2.667-0.105-2.667-0.105l-0.08-0.049c0.063,0.016,0.211,0.049,0.408,0.072
				c0.135,0.02,0.288,0.031,0.452,0.045c0.168,0.014,0.342,0.014,0.515,0.023c0.178,0,0.352,0.004,0.516,0.004
				c0.164-0.004,0.314,0,0.446,0c0.065,0,0.128-0.012,0.181-0.004C161.239,57.094,161.38,57.104,161.416,57.104z"/>
			<path fill="#70573A" d="M161.449,57.105c0,0-0.046-0.002-0.128-0.006c-0.036,0-0.082-0.006-0.135-0.01
				c-0.053-0.008-0.115,0.004-0.181,0.004c-0.132,0-0.282-0.004-0.446,0c-0.164,0-0.338-0.004-0.516-0.004
				c-0.173-0.01-0.347-0.01-0.515-0.023c-0.164-0.014-0.317-0.025-0.452-0.045c-0.197-0.023-0.346-0.057-0.408-0.072h-0.003
				c-0.022-0.004-0.032-0.006-0.032-0.006s0.006-0.006,0.016-0.008c0.047-0.014,0.207-0.063,0.424-0.102
				c0.135-0.023,0.289-0.047,0.456-0.057c0.168-0.012,0.345-0.02,0.525-0.016c0.357,0.01,0.719,0.055,0.98,0.145
				c0.065,0.02,0.125,0.031,0.177,0.063c0.054,0.025,0.096,0.053,0.133,0.072c0.01,0.006,0.02,0.012,0.029,0.016
				C161.423,57.086,161.449,57.105,161.449,57.105z"/>
			<path fill="#70573A" d="M168.026,56.791c0,0-0.003,0-0.01,0c-0.022-0.004-0.082-0.01-0.174-0.02
				c-0.056-0.01-0.125-0.02-0.204-0.029c-0.082-0.004-0.17-0.004-0.269-0.006c-0.099,0-0.201-0.012-0.315,0
				c-0.111,0.002-0.229,0.012-0.352,0.012c-0.121-0.004-0.249,0.023-0.377,0.027c-0.129,0.01-0.26,0.01-0.388,0.029
				c-0.263,0.025-0.521,0.049-0.768,0.082c-0.121,0.016-0.239,0.021-0.352,0.039c-0.111,0.02-0.216,0.033-0.314,0.043
				c-0.193,0.02-0.361,0.059-0.48,0.072c-0.064,0.01-0.113,0.016-0.146,0.016c-0.023,0.006-0.037,0.006-0.037,0.006
				s0.018-0.01,0.05-0.025c0.03-0.014,0.065-0.033,0.115-0.059c0.01-0.004,0.019-0.01,0.029-0.014
				c0.104-0.049,0.243-0.125,0.421-0.178c0.193-0.064,0.424-0.137,0.669-0.188c0.125-0.021,0.249-0.059,0.384-0.07
				c0.132-0.018,0.267-0.033,0.397-0.051c0.135-0.016,0.272-0.012,0.403-0.021c0.135-0.004,0.266-0.01,0.391,0.004
				c0.128,0.006,0.252,0.018,0.367,0.029c0.115,0.006,0.227,0.039,0.326,0.059c0.102,0.021,0.189,0.045,0.271,0.068
				c0.076,0.037,0.142,0.066,0.197,0.092c0.029,0.014,0.056,0.027,0.078,0.035c0.036,0.021,0.06,0.033,0.073,0.037
				c0,0.004,0.003,0.004,0.003,0.004C168.023,56.787,168.026,56.791,168.026,56.791z"/>
			<path fill="#CE9D85" d="M167.784,57.057c-0.287,0.094-3.896,0.32-3.896,0.248c0-0.063-0.092-0.094-0.01-0.248
				c0.033,0,0.082-0.006,0.146-0.016c0.119-0.014,0.287-0.053,0.48-0.072c0.099-0.01,0.203-0.023,0.314-0.043
				c0.112-0.018,0.23-0.023,0.352-0.039c0.247-0.033,0.505-0.057,0.768-0.082c0.128-0.02,0.259-0.02,0.388-0.029
				c0.128-0.004,0.256-0.031,0.377-0.027c0.122,0,0.24-0.01,0.352-0.012c0.114-0.012,0.217,0,0.315,0
				c0.099,0.002,0.187,0.002,0.269,0.006c0.079,0.01,0.148,0.02,0.204,0.029c0.092,0.01,0.151,0.016,0.174,0.02
				C168.092,56.893,167.784,57.057,167.784,57.057z"/>
			<path fill="#70573A" d="M170.748,62.029c0.723-0.748,1.228-3.014,0.165-2.789c-1.063,0.221-0.984,1.188-0.984,1.188
				c-0.191-0.201-0.613-1.543-0.334-2.445c0.283-0.902-0.712-3.098-0.712-3.098c-0.371,2.91-6.935,2.152-6.935,2.152
				c0.335-0.285,0.434-0.566,0.439-0.793c0.006-0.287-0.131-0.48-0.131-0.48c-0.666,1.129-3.104,1.041-3.2,1.07
				c0.128-0.09,0.257-0.332,0.371-0.633c0.138-0.357,0.26-0.795,0.348-1.146c-0.306,0.73-1.06,1.158-1.818,1.412
				c-0.987,0.334-1.979,0.367-1.979,0.367c0.68-0.768,1.142-2.373,1.65-4.458c0.437-1.027,1.678-3.449,3.124-3.898
				c0.033-0.01,0.066-0.02,0.092-0.033l0.017-0.003c0,0,10.814-0.343,13.456,7.078C177.537,64.564,170.748,62.029,170.748,62.029z"
				/>
		</g>
		<path fill="#BDFFFF" d="M124.228,50.935l-0.092,22.045c-0.007,1.74-1.43,3.145-3.163,3.137l-44.589-0.186l0.066-15.678
			c0.029-7,5.217-12.647,11.596-12.62l33.046,0.138C122.825,47.779,124.236,49.195,124.228,50.935z"/>
		<g>
			<path fill="#E58C4A" d="M221.761,81.82l0.016,3.508L222.183,89h18.864l0.261-4H243v-3.18c0-0.094,0.037-0.268,0.035-0.359
				c-0.148-5.186-4.347-9.461-9.567-9.461h-3.888c-4.265,0-6.079,2.879-7.34,6.73c-0.009,0.023-0.017,0.086-0.022,0.109
				c-0.164,0.512-0.286,1.061-0.361,1.605C221.792,80.889,221.761,81.361,221.761,81.82z"/>
			<path fill="#EFBFA5" d="M230.377,66.738c0.057,1.586,0.17,4.732,0.612,6.914c0.116,0.582,0.257,1.094,0.425,1.49
				c0,0,0.293,0.002,0.293,0.004L232,75.148v0.002v0.004v0.002l0,0v0.002c0,0.135,0.326,1.127,1.74,1.127
				c0.406,0,0.596-0.086,0.864-0.207c0.632-0.281,0.831-0.752,0.831-0.752s-0.687-1.736-0.607-3.049
				c0.012-0.219,0.027-0.426,0.087-0.609c0.032-0.102,0.064-0.199,0.115-0.285c0.436-0.764,1.108-0.348,2.162,0.451
				c0.604,0.459,1.328,1.045,2.203,1.605c2.4,1.543,4.456-0.256,4.884-1.457c0.168-0.469,0.309-0.557,0.525-0.697
				c0.34-0.217,0.865-0.555,1.968-2.645c0.844-1.602,1.122-3.5,1.196-5.367c0.007-0.182,0.012-0.361,0.016-0.541
				c0.002-0.043,0.003-0.086,0.003-0.129c0.002-0.045,0.007-0.086,0.007-0.129c0-0.117,0.006-0.236,0.006-0.354v-3.014
				c0-0.334-0.035-0.654-0.029-0.957c0.002-0.172-0.007-0.338,0.001-0.498c0.002-0.027-0.005-0.059-0.003-0.088
				c0.002-0.021,0.011-0.045,0.012-0.068c0.004-0.051,0.02-0.102,0.02-0.152c0-0.014,0-0.027,0-0.043c0-0.031,0-0.063,0-0.094
				s0-0.063,0-0.094v-0.002c0-0.305-0.02-0.582-0.047-0.836c-0.121-1.102-0.532-1.807-1.061-2.563
				c-0.207-0.295-0.434-0.596-0.667-0.93c-0.104-0.15-0.213-0.308-0.319-0.474c-0.934,0.005-1.928,0.274-2.474-0.557
				c-0.804-1.222-0.996-0.997-1.607-0.29c-0.61,0.708-1.672,1.094-2.765-0.096s-2.153-0.449-2.507,0.386
				c-0.354,0.836-0.515,0.708-1.126,0.548c-0.839-0.222-0.996,0.353-2.154,1.157c-0.043,0.031-0.088,0.063-0.129,0.094
				c-0.021,0.016-0.04,0.031-0.061,0.047s-0.039,0.031-0.059,0.049c-0.017,0.014-0.034,0.027-0.05,0.041
				c-0.029,0.027-0.059,0.055-0.086,0.08c-0.012,0.012-0.023,0.021-0.034,0.035c-0.013,0.01-0.024,0.023-0.035,0.035
				c-0.017,0.016-0.032,0.033-0.047,0.051c-0.017,0.018-0.032,0.035-0.048,0.053c-0.014,0.016-0.026,0.031-0.039,0.047
				c-0.027,0.035-0.053,0.07-0.077,0.105c-0.019,0.027-0.037,0.055-0.054,0.084c-0.037,0.057-0.068,0.117-0.096,0.176
				c-0.013,0.029-0.025,0.057-0.036,0.084c-0.012,0.031-0.022,0.061-0.032,0.09c-0.01,0.027-0.018,0.053-0.024,0.078
				c-0.003,0.01-0.005,0.018-0.007,0.025c-0.008,0.025-0.014,0.051-0.02,0.078c0,0.004-0.001,0.008-0.002,0.01
				c-0.005,0.023-0.009,0.045-0.013,0.068c-0.002,0.008,0.348,0.014,0.346,0.021c-0.027,0.164,0.328,0.336,0.328,0.518v0.006
				c0,0.023-0.348,0.049-0.346,0.072c0.01,0.107-0.152,0.219-0.134,0.334c0.005,0.027-0.077,0.059-0.072,0.088
				c0.042,0.232,0.057,0.48,0.131,0.748c0.109,0.402,0.135,0.736,0.135,1.031c0,0.033-0.012,0.066-0.013,0.098
				c-0.001,0.033-0.009,0.066-0.011,0.098c-0.002,0.023-0.007,0.045-0.01,0.068c-0.002,0.02-0.005,0.043-0.008,0.063
				c-0.002,0.014-0.005,0.027-0.007,0.043c-0.004,0.023-0.009,0.047-0.013,0.068c-0.005,0.029-0.011,0.055-0.017,0.082
				c-0.005,0.021-0.01,0.043-0.016,0.066c-0.014,0.055-0.029,0.107-0.046,0.16c-0.008,0.025-0.017,0.049-0.024,0.072
				c-0.021,0.063-0.046,0.125-0.072,0.184c-0.002,0.006-0.005,0.012-0.008,0.018c-0.006,0.016-0.012,0.029-0.019,0.043
				c-0.05,0.109-0.105,0.219-0.164,0.328c-0.082,0.15-0.173,0.307-0.268,0.471c-0.515,0.9-1.028,1.029-0.899,2.508
				c0.128,1.479,1.929,1.564,1.929,1.564s0.257,0.879-0.322,1.65C232.28,65.787,231.447,66.422,230.377,66.738z"/>
			<path fill="none" stroke="#000000" stroke-width="0.9201" stroke-miterlimit="10" d="M230.349,65.682
				c0,0,0.006,0.406,0.028,1.057"/>
			<path fill="none" stroke="#000000" stroke-width="0.9201" stroke-miterlimit="10" d="M245.564,51.752
				c0.113,0.198,0.228,0.382,0.341,0.557"/>
			<path fill="#B78906" d="M230.342,60.834l-0.001-0.098c0.003-0.041,0.004-0.078,0.007-0.117c-0.004,0.039-0.005,0.076-0.008,0.117
				L230.342,60.834z"/>
			<path fill="#E0A30A" d="M223.727,54.582c0.643,1.285,0.837,3.793,1.544,4.564c0.706,0.771,0.899,1.221,0.643,2.379
				c-0.258,1.156-0.643,1.801,0.578,2.635c1.222,0.836,1.351,2.893,2.894,2.766c0.35-0.031,0.681-0.096,0.992-0.188
				c1.07-0.316,1.903-0.951,2.351-1.549c0.579-0.771,0.322-1.65,0.322-1.65s-0.468-0.021-0.943-0.24
				c-0.101-0.045-0.2-0.1-0.297-0.164c-0.039-0.012-0.079-0.025-0.119-0.043c-0.136-0.053-0.278-0.137-0.419-0.244
				c-0.139-0.107-0.276-0.242-0.396-0.404c-0.122-0.158-0.229-0.342-0.313-0.543c-0.085-0.199-0.146-0.418-0.185-0.643
				c-0.005-0.027-0.009-0.057-0.012-0.084c-0.012-0.086-0.019-0.172-0.023-0.26l0.328-0.02L231,60.883v-0.006l-0.33-0.043
				l-0.165-0.098c0.002-0.041-0.078-0.078-0.075-0.117c0.001-0.014-0.039-0.027-0.038-0.041c0.021-0.225,0.057-0.443,0.143-0.646
				c0.042-0.104,0.084-0.199,0.14-0.291c0.057-0.09,0.116-0.174,0.183-0.252c0.141-0.152,0.295-0.279,0.463-0.355
				c0.167-0.08,0.343-0.113,0.51-0.109c0.163,0.002,0.317,0.037,0.45,0.088c0.039-0.072,0.076-0.143,0.111-0.215
				c0.295-0.596,0.428-1.184,0.145-2.223c-0.19-0.697-0.294-1.27-0.213-1.766c0.084-0.514,0.365-0.945,0.952-1.352
				c1.157-0.804,1.314-1.378,2.154-1.157c0.61,0.16,0.771,0.288,1.125-0.548c0.353-0.835,1.414-1.575,2.507-0.386
				s2.153,0.804,2.764,0.096c0.611-0.707,0.805-0.932,1.607,0.29c0.547,0.831,1.54,0.562,2.474,0.557
				c0.19-0.001,0.377,0.009,0.559,0.042c0.235,0.043,0.462,0.123,0.665,0.27c1.124,0.803,2.058,0.032,2.796-0.868
				c0.74-0.9,0.451-2.122-0.128-3.118c-0.578-0.996,1.157-1.414,0.739-3.215c-0.418-1.8-2.508-2.175-2.508-2.175
				s1.844-3.257-1.242-5.036c0,0,0.492,1.565-0.278,1.994c0,0,0.492-2.208-2.851-3.343c0,0,0.793,2.378-0.322,2.743
				c-1.113,0.364-1.886-1.972-3.921-1.051c-2.036,0.922-2.699,1.029-3.235,0.729c-0.536-0.3-2.765-0.386-3.88,0.729
				c-1.114,1.114-2.207,2.721-3.771,2.55c-1.565-0.172-2.552,1.415-2.572,2.186c-0.021,0.771-0.814,3.471-1.393,4.756
				C223.984,50.789,223.084,53.295,223.727,54.582z"/>
			<g>
				<g>
					<polygon fill="#CE9D85" points="237.285,56.533 237.383,57.139 242.111,57.568 242.222,56.982 					"/>
					<path fill="#CE9D85" d="M246.037,57.652h1.92c0.003-0.053,0.005-0.105,0.008-0.156c0.008-0.133,0.013-0.26,0.015-0.383h-1.986
						L246.037,57.652z"/>
				</g>
				<g>
					<polygon fill="#B78906" points="236.928,54.41 237.271,56.531 237.285,56.533 242.222,56.982 242.425,56.268 242.607,55.631 
											"/>
					<polygon fill="#B78906" points="245.917,56.275 245.993,57.111 248.186,57.111 248.186,56.275 					"/>
				</g>
			</g>
			<ellipse fill="#523C34" cx="240.239" cy="58.793" rx="0.471" ry="1.018"/>
			<ellipse fill="#523C34" cx="247.011" cy="58.793" rx="0.471" ry="1.018"/>
			<g>
				<path fill="#70573A" d="M242.48,65.082l0.072,0.031c0.306,0.135,0.614,0.262,0.923,0.389c0.309,0.125,0.618,0.248,0.93,0.369
					l0.045,0.016l0.06-0.01c0.259-0.041,0.517-0.086,0.775-0.131l0.773-0.139l0.184-0.033l0.001-0.193l0.002-0.557l-0.002-0.557
					l-0.001-0.146l-0.13-0.061l-0.452-0.209l-0.337-0.15c-0.005-0.262-0.013-0.521-0.022-0.783c-0.004-0.074-0.006-0.148-0.01-0.223
					v-0.008c-0.008-0.195-0.017-0.393-0.026-0.588c-0.001-0.016-0.002-0.031-0.003-0.047c-0.001-0.02-0.002-0.039-0.003-0.057
					c-0.016-0.307-0.037-0.613-0.06-0.922c-0.011-0.152-0.025-0.307-0.038-0.461c-0.014-0.152-0.029-0.307-0.047-0.459
					c-0.018,0.152-0.034,0.307-0.046,0.459c-0.013,0.154-0.028,0.309-0.038,0.461c-0.02,0.256-0.037,0.512-0.052,0.768
					c-0.001,0.012-0.001,0.025-0.002,0.037c-0.003,0.039-0.005,0.078-0.007,0.117c-0.007,0.146-0.016,0.291-0.021,0.438v0.002
					c-0.007,0.16-0.015,0.32-0.02,0.482c-0.013,0.307-0.021,0.615-0.028,0.922l-0.003,0.131l0.125,0.063l0.446,0.221l0.316,0.156
					l-0.001,0.119l-0.001,0.295l0.002,0.371l-0.584,0.121c-0.24,0.053-0.48,0.105-0.72,0.16c-0.299-0.096-0.599-0.188-0.899-0.277
					s-0.6-0.176-0.901-0.26l-0.019-0.244l-0.002-0.031l-0.027-0.318c0.127-0.023,0.254-0.051,0.382-0.078
					c-0.145-0.002-0.29-0.002-0.434,0h-0.036l-0.003,0.043l-0.031,0.354l-0.026,0.354L242.48,65.082z"/>
				<path fill="#CE9D85" d="M242.662,64.695l0.019,0.244c0.302,0.084,0.601,0.17,0.901,0.26s0.601,0.182,0.899,0.277
					c0.239-0.055,0.479-0.107,0.72-0.16l0.691-0.121L246,64.824v-0.295l-1.371,0.342L242.662,64.695z"/>
			</g>
			<path fill="#70573A" d="M244.243,69.166c0,0-0.074-0.016-0.204-0.045s-0.313-0.07-0.526-0.121
				c-0.107-0.027-0.223-0.055-0.344-0.09c-0.12-0.031-0.245-0.07-0.374-0.109c-0.128-0.041-0.259-0.084-0.388-0.135
				c-0.131-0.049-0.259-0.105-0.385-0.164c-0.125-0.061-0.248-0.125-0.363-0.195c-0.116-0.07-0.227-0.145-0.328-0.225
				s-0.196-0.162-0.281-0.246c-0.046-0.039-0.081-0.086-0.121-0.127c-0.041-0.039-0.073-0.084-0.107-0.125
				c-0.035-0.041-0.067-0.08-0.095-0.121c-0.03-0.039-0.058-0.078-0.084-0.113c-0.046-0.076-0.093-0.141-0.126-0.197
				c-0.031-0.057-0.061-0.102-0.078-0.133c-0.02-0.031-0.029-0.047-0.029-0.047s0.001,0.018,0.002,0.055
				c0.003,0.035,0.005,0.09,0.013,0.156c0.008,0.068,0.024,0.148,0.045,0.242c0.029,0.092,0.056,0.199,0.107,0.305
				c0.046,0.111,0.109,0.225,0.187,0.342c0.077,0.113,0.169,0.229,0.277,0.336c0.053,0.055,0.109,0.107,0.17,0.156
				c0.03,0.023,0.06,0.051,0.091,0.074c0.032,0.023,0.064,0.045,0.097,0.068c0.129,0.092,0.271,0.168,0.413,0.24
				c0.146,0.064,0.292,0.127,0.44,0.17c0.148,0.049,0.298,0.082,0.441,0.107c0.145,0.025,0.284,0.043,0.417,0.051
				c0.134,0.01,0.259,0.01,0.374,0.008c0.116-0.006,0.222-0.014,0.314-0.025c0.094-0.01,0.174-0.025,0.24-0.039
				c0.066-0.012,0.117-0.027,0.153-0.037C244.226,69.174,244.243,69.166,244.243,69.166z"/>
			<path fill="#E0A30A" d="M232.952,68.469c0,0,0.012,0.025,0.032,0.072c0.152,0.348,0.818,1.871,1.188,2.75
				c0,0,0.001,0.006,0.002,0.006c0.155,0.373,0.369,0.699,0.617,0.98c0.313,0.354,0.679,0.635,1.048,0.836
				c0.12,0.064,0.24,0.123,0.359,0.172c0.771,0.316,3.15,1.291,4.051,1.934s4.114-0.256,4.371-1.285
				c0.258-1.029,0.183-2.648,0.183-2.648c-0.318-0.279-0.889,0.848-2.465,1.361c-1.52,0.496-5.133-1.131-6.136-2.432
				c-0.038-0.047-0.071-0.094-0.101-0.141c-0.261-0.41-0.466-0.775-0.659-1.104l-0.017-0.027c-0.419-0.707-0.789-1.238-1.574-1.691
				C232.695,66.584,232.952,68.469,232.952,68.469z"/>
			<g>
				<path fill="#CE9D85" d="M241.855,59c0,0,0.051,0.064,0.122,0.178c0.034,0.057,0.079,0.126,0.116,0.206
					c0.053,0.07,0.052,0.198,0.063,0.327c0.001,0.125,0.031,0.307-0.026,0.434c-0.041,0.139-0.085,0.295-0.156,0.444
					c-0.091,0.131-0.188,0.273-0.308,0.399c-0.108,0.143-0.271,0.206-0.411,0.311c-0.295,0.197-0.64,0.223-0.938,0.271
					c-0.302-0.024-0.581-0.054-0.795-0.143c-0.429-0.2-0.645-0.425-0.645-0.425s0.318-0.137,0.692-0.206
					c0.095-0.014,0.19-0.076,0.29-0.099c0.099-0.033,0.198-0.069,0.302-0.086c0.096-0.04,0.184-0.105,0.282-0.131
					c0.104-0.023,0.189-0.075,0.265-0.139c0.078-0.053,0.195-0.068,0.249-0.146c0.063-0.068,0.154-0.11,0.229-0.17
					c0.049-0.074,0.12-0.135,0.189-0.201c0.081-0.068,0.092-0.126,0.155-0.192c0.039-0.07,0.128-0.121,0.144-0.218
					c0.025-0.084,0.06-0.159,0.085-0.221C241.814,59.071,241.855,59,241.855,59z"/>
			</g>
			<g>
				<path fill="#CE9D85" d="M245.744,59.398c0,0,0.193,0.145,0.362,0.324c0.175,0.182,0.346,0.397,0.448,0.539
					c0.044,0.072,0.078,0.118,0.099,0.179c0.027,0.053,0.073,0.127,0.157,0.192c0.165,0.128,0.4,0.219,0.396,0.229
					c-0.01-0.015-0.054,0.248-0.359,0.403c-0.147,0.082-0.379,0.12-0.617,0.05c-0.246-0.065-0.437-0.245-0.578-0.421
					c-0.248-0.378-0.25-0.774-0.164-1.049C245.567,59.565,245.744,59.398,245.744,59.398z"/>
			</g>
			<path fill="#CE9D85" d="M244.207,66.047c-0.025,0.939,0.01,1.674,0.01,1.674l-0.397-0.135l-0.193-1.789L244.207,66.047z"/>
			<path fill="#CE9D85" d="M244.481,66.047c0.026,0.939,0.004,1.674,0.004,1.674l0.412-0.135l0.211-1.643L244.481,66.047z"/>
			<g>
				<g>
					<path fill="#2CDA9B" d="M240.895,61.768L240.895,61.768c0.013-0.004,0.024-0.006,0.036-0.01L240.895,61.768z M241.442,61.559
						c0.001,0,0.002,0,0.002,0c0.004-0.002,0.006-0.002,0.008-0.004s0.005-0.002,0.007-0.004c0.01-0.008,0.021-0.012,0.031-0.018
						c0.003-0.002,0.006-0.004,0.009-0.006c-0.003,0-0.006,0.002-0.009,0.004c-0.016,0.01-0.029,0.02-0.045,0.025
						C241.445,61.557,241.443,61.559,241.442,61.559z M241.535,61.504c0.008-0.004,0.016-0.008,0.022-0.014l0,0l0.008-0.004
						c-0.002,0-0.005,0.002-0.008,0.004C241.552,61.494,241.543,61.5,241.535,61.504z M240.873,61.74l0.021,0.025
						c0.006-0.002,0.026-0.01,0.037-0.014c0.013-0.002,0.027-0.01,0.04-0.014c-0.001-0.004-0.002-0.006-0.003-0.006
						c-0.024,0.006-0.049,0.002-0.073,0.002h-0.001C240.887,61.734,240.881,61.738,240.873,61.74z M240.986,61.734
						c-0.005,0-0.011,0-0.016,0.004h0.001c0.005,0,0.011,0.004,0.016,0.002c0.015-0.004,0.028-0.008,0.042-0.012
						C241.015,61.732,241.001,61.734,240.986,61.734L240.986,61.734z M241.076,61.715c-0.016,0.004-0.029,0.008-0.044,0.012
						C241.048,61.725,241.063,61.719,241.076,61.715L241.076,61.715z M241.085,61.713c-0.002,0-0.004,0.002-0.006,0.002h0.002h0.002
						C241.084,61.715,241.085,61.713,241.085,61.713c0.027-0.008,0.053-0.018,0.077-0.025v-0.002
						C241.138,61.695,241.111,61.705,241.085,61.713z M241.166,61.686c0,0-0.002,0.002-0.004,0.002
						c0.003-0.002,0.004-0.002,0.006-0.002c0.028-0.012,0.059-0.021,0.087-0.035c0.024-0.01,0.05-0.02,0.074-0.033
						c-0.018,0.008-0.034,0.016-0.051,0.021c-0.008,0.004-0.016,0.008-0.023,0.01c-0.014,0.006-0.028,0.018-0.042,0.018h-0.001
						C241.196,61.666,241.181,61.68,241.166,61.686z M241.338,61.611c-0.001,0.002-0.003,0.004-0.005,0.004
						c0.002,0,0.004-0.002,0.005-0.002c0.007-0.004,0.012-0.006,0.018-0.008C241.35,61.607,241.345,61.609,241.338,61.611z
						 M241.445,61.557c0,0-0.002,0.002-0.003,0.002c0.001,0,0.002,0,0.002,0c0.004-0.002,0.006-0.002,0.008-0.004
						s0.005-0.002,0.007-0.004c0.01-0.008,0.021-0.012,0.031-0.018c0.003-0.002,0.006-0.004,0.009-0.006
						c-0.003,0-0.006,0.002-0.009,0.004C241.475,61.541,241.461,61.551,241.445,61.557z M241.558,61.49
						c-0.006,0.004-0.015,0.01-0.022,0.014C241.543,61.5,241.551,61.496,241.558,61.49L241.558,61.49l0.008-0.004
						C241.563,61.486,241.561,61.488,241.558,61.49z M241.587,61.469c-0.002,0.002-0.003,0.004-0.004,0.004h0.001l0,0
						c0.003-0.002,0.005-0.004,0.009-0.006c0.002,0,0.003-0.002,0.005-0.004c0.011-0.006,0.021-0.014,0.03-0.021l0,0
						c0.003-0.002,0.007-0.004,0.01-0.006c0.011-0.008,0.022-0.016,0.033-0.025c0.002,0,0.005-0.002,0.005-0.002
						c0.005-0.004,0.008-0.008,0.012-0.01c0.002-0.002,0.002-0.004,0.004-0.004c-0.005,0.004-0.009,0.008-0.015,0.01
						c-0.002,0.002-0.005,0.002-0.007,0.004c-0.005,0.006-0.012,0.008-0.019,0.014c-0.005,0.004-0.009,0.004-0.014,0.006
						c-0.003,0.002-0.007-0.002-0.01-0.002l0,0c-0.008,0-0.017,0.018-0.025,0.027c0,0-0.002,0.002-0.005,0.002
						c-0.001,0.002-0.002,0.002-0.003,0.004C241.592,61.463,241.589,61.465,241.587,61.469z M241.736,61.355
						c0.004,0,0.006-0.004,0.009-0.006C241.743,61.35,241.74,61.352,241.736,61.355z M230.902,57.83l0.24,1.209l1.146-0.043
						l4.743-0.186l0.353-0.014c0.025,0.094,0.066,0.15,0.104,0.201c0.019,0.027,0.036,0.053,0.049,0.078
						c0.026,0.063,0.047,0.139,0.057,0.227c0.224,1.92,0.277,2.182,0.916,2.625c0.305,0.213,0.937,0.371,1.572,0.393
						c0.32,0.012,0.731-0.008,1.146-0.121c0.228-0.063,0.456-0.152,0.67-0.283c0.176-0.105,0.331-0.268,0.466-0.461
						c0.131-0.186,0.213-0.4,0.34-0.617c0.128-0.234,0.182-0.467,0.245-0.68c0.126-0.42,0.188-0.746,0.193-0.779
						c0.002-0.018,0.019-0.146,0.176-0.207c0.057-0.023,0.132-0.037,0.232-0.033c0.421,0.021,0.443,0.248,0.443,0.258
						c0.002,0.016,0.012,0.08,0.03,0.18c0,0.002,0,0.006,0.002,0.01c0.096,0.52,0.418,1.951,1.133,2.443
						c0.589,0.408,1.303,0.514,1.799,0.529c0.114,0.006,0.229,0.004,0.342,0c0.246-0.01,0.483-0.039,0.691-0.084
						c0.226-0.049,0.418-0.115,0.551-0.197c0.061-0.037,0.115-0.074,0.166-0.107c0.196-0.139,0.326-0.279,0.427-0.506
						c0.016-0.033,0.029-0.066,0.044-0.105c0.061-0.162,0.111-0.363,0.162-0.625c0.062-0.313,0.122-0.705,0.198-1.217
						c0.013-0.086,0.035-0.162,0.065-0.223c0.013-0.025,0.03-0.047,0.05-0.072c0.063-0.082,0.142-0.182,0.142-0.443
						c-0.001-0.041,0.002-0.119,0.005-0.205c0.005-0.131,0.01-0.275,0.006-0.355c-0.006-0.197-0.079-0.338-0.17-0.432
						c-0.069-0.072-0.147-0.119-0.213-0.143c-0.016-0.006-0.03-0.008-0.044-0.012c-0.433-0.125-0.909-0.213-1.417-0.264
						c-0.209-0.021-0.423-0.031-0.642-0.039c-0.197-0.006-0.398,0-0.603,0.004c-0.134,0.002-0.269,0.02-0.405,0.029l-0.06,0.031
						c-0.099,0.006-0.192,0.074-0.28,0.074l0,0c-0.293,0-0.526-0.02-0.744,0.033c-0.168,0.039-0.327,0.039-0.495,0.125
						c-0.104,0.055-0.214,0.117-0.311,0.174c-0.138,0.082-0.324,0.17-0.46,0.217c-0.033,0.012-0.063,0.02-0.088,0.025
						c-0.054,0.014-0.107,0.025-0.155,0.035c-0.035,0.008-0.086,0.01-0.138,0.01c-0.048-0.002-0.098-0.008-0.131-0.018
						c-0.047-0.014-0.101-0.029-0.152-0.045c-0.077-0.023-0.192-0.078-0.307-0.139c-0.083-0.045-0.166-0.094-0.234-0.141
						c-0.096-0.064-0.201-0.131-0.305-0.193c-0.446-0.266-0.824-0.291-1.508-0.391l-0.059-0.002c-0.03-0.002-0.06-0.002-0.09-0.002
						c-0.097-0.027-0.173-0.047-0.249-0.059c-0.081-0.018-0.157-0.033-0.233-0.037c-0.117-0.004-0.232-0.008-0.345-0.012
						c-0.289-0.01-0.563-0.01-0.827,0c-0.474,0.02-0.923,0.088-1.334,0.18c-0.042,0.006-0.099,0.025-0.156,0.061
						c-0.01,0.006-0.021,0.012-0.03,0.018c-0.069,0.047-0.14,0.119-0.188,0.217l-4.748,0.076L230.902,57.83z M249.277,58.629
						l0.288-0.133l-0.004,0.287L249.277,58.629z M244.756,59.045c0.002-0.008,0.244-0.016,0.244-0.023c0-0.004,0-0.008,0-0.012
						c0-0.021-0.37-0.01-0.37-0.01h0.016c0,0-0.058-0.059-0.057-0.072c0.003-0.02-0.093-0.049-0.091-0.064
						c0.004-0.025,0.027-0.055,0.031-0.07c0.002-0.006,0.013-0.015,0.014-0.021s0.007-0.015,0.009-0.019s0.004-0.007,0.005-0.007
						c0.002-0.01,0.007-0.016,0.009-0.021c0.002-0.002,0.003-0.007,0.004-0.009c0.002-0.002,0.003-0.003,0.003-0.003
						c0.003-0.006,0.005-0.011,0.007-0.015c0.034-0.064,0.104-0.15,0.252-0.24c0.02-0.01,0.04-0.023,0.061-0.035
						c0.021-0.01,0.045-0.021,0.069-0.033c0.037-0.018,0.077-0.035,0.121-0.051c0.015-0.006,0.029-0.012,0.044-0.016
						c0.045-0.018,0.094-0.033,0.146-0.047c0.019-0.006,0.038-0.01,0.058-0.016c0.038-0.012,0.077-0.021,0.119-0.029
						c0.019-0.004,0.037-0.01,0.057-0.014c0.043-0.01,0.083-0.016,0.123-0.023c0.007-0.002,0.014-0.002,0.021-0.004l0.057-0.01
						c0.017-0.002,0.033-0.004,0.051-0.008c0.017-0.002,0.034-0.006,0.052-0.008c0.059-0.008,0.119-0.016,0.184-0.021
						c0.022-0.004,0.048-0.006,0.071-0.008c0.021-0.004,0.044-0.006,0.067-0.008c0.017,0,0.031-0.002,0.048-0.004
						c0.046-0.002,0.095-0.008,0.144-0.01c0.026-0.002,0.053-0.004,0.08-0.004c0.028-0.002,0.06-0.004,0.09-0.006
						c0.031-0.002,0.063-0.004,0.095-0.004c0.032-0.002,0.063-0.049,0.095-0.049c0.114-0.004,0.223-0.053,0.324-0.053
						c0.053,0,0.104,0,0.153,0c0.017,0,0.033,0.045,0.051,0.047c0.051,0,0.101,0.025,0.148,0.027c0.057,0,0.111,0.016,0.163,0.018
						c0.011,0.002,0.021,0.007,0.03,0.009c0.011,0,0.021,0.003,0.03,0.003c0.038,0.004,0.071,0.009,0.104,0.011
						c0.007,0,0.015-0.061,0.021-0.059c0.021,0.002,0.041-0.056,0.062-0.056c0.004,0,0.007,0,0.011,0
						c0.015,0,0.031,0.066,0.046,0.068c0.009,0.002,0.018,0.035,0.025,0.037c0.014,0,0.027,0.02,0.04,0.02
						c0.018,0.004,0.034,0.015,0.052,0.017c0.006,0.002,0.014,0.007,0.02,0.007c0.015,0.002,0.029,0.007,0.044,0.011
						s0.028,0.008,0.042,0.01c0.019,0.004,0.033,0.007,0.047,0.011c0.01,0.002,0.019,0.005,0.027,0.007
						c0.011,0.002,0.021,0.007,0.031,0.009s0.021,0.006,0.03,0.008c0.009,0.004,0.02,0.006,0.028,0.01
						c0.007,0.002,0.015,0.002,0.021,0.006c0.004,0,0.006,0,0.008,0.004c0.057,0.018,0.108,0.037,0.155,0.059
						c0.006,0.002,0.013,0.006,0.019,0.008c0.012,0.006,0.022,0.012,0.033,0.018c0.012,0.006,0.022,0.012,0.033,0.018
						c0.021,0.012,0.044,0.027,0.067,0.041c0.036,0.025,0.068,0.053,0.099,0.08c0.015,0.014,0.029,0.027,0.042,0.041
						c0.012,0.014,0.022,0.023,0.033,0.037c0.005,0.006,0.011,0.012,0.016,0.018s0.01,0.012,0.014,0.018
						c0.008,0.012,0.016,0.021,0.022,0.031c0.009,0.012,0.015,0.021,0.022,0.033c0.022,0.035,0.043,0.072,0.062,0.109
						c0.11,0.219,0.182,0.672,0.179,0.957c-0.001,0.057,0.482,0.113,0.48,0.176c0,0.027,0.482,0.055,0.482,0.082
						c0,0.016,0,0.031,0,0.047c0,0.021-0.486,0.045-0.486,0.066c0,0.01-0.243,0.02-0.244,0.029c-0.002,0.035-0.13,0.072-0.134,0.109
						c-0.004,0.029-0.136,0.059-0.136,0.09v0.004c0,0.025-0.006,0.051-0.012,0.076c-0.004,0.025-0.007,0.049-0.013,0.072
						c-0.001,0.043-0.017,0.072-0.022,0.105c-0.015,0.076-0.037,0.152-0.058,0.227c-0.004,0.016-0.008,0.031-0.013,0.047
						c-0.007,0.027-0.016,0.055-0.024,0.082c-0.002,0.006-0.004,0.014-0.006,0.02c-0.012,0.039-0.024,0.076-0.037,0.113
						c-0.006,0.016-0.012,0.031-0.019,0.047c-0.012,0.033-0.025,0.063-0.039,0.094c-0.08,0.174-0.185,0.336-0.317,0.465
						c-0.014,0.014-0.026,0.025-0.041,0.037c-0.016,0.016-0.031,0.027-0.047,0.041c-0.021,0.018-0.042,0.035-0.063,0.053
						c-0.005,0.004-0.01,0.006-0.015,0.01c-0.012,0.01-0.023,0.02-0.035,0.027s-0.024,0.018-0.036,0.023
						c-0.017,0.01-0.032,0.021-0.05,0.029c-0.028,0.014-0.058,0.033-0.088,0.045c-0.023,0.01-0.049,0.031-0.073,0.039
						c-0.081,0.029-0.167,0.074-0.259,0.092c-0.036,0.008-0.072,0.063-0.109,0.068c-0.082,0.018-0.168,0.123-0.253,0.133
						c-0.006,0-0.01,0.184-0.016,0.184h-0.001l0.323-0.182c-0.002,0,0.322-0.184,0.322-0.184v0.002l-0.326,0.01
						c-0.033,0.006-0.291,0.02-0.327,0.023c-0.022,0.004-0.096,0.025-0.119,0.027c-0.049,0.008-0.123,0.051-0.173,0.059
						c-0.026,0-0.064-0.127-0.09-0.125c-0.009,0.002-0.03-0.053-0.039-0.053h-0.007c0,0,0,0-0.002,0
						c-0.011,0-0.021,0.139-0.037,0.137c-0.014,0,0.176,0.035,0.166,0.035c-0.084-0.004-0.046,0.197-0.046,0.197v0.026
						c0,0-0.225-0.19-0.236-0.2c-0.041-0.037-0.282-0.195-0.322-0.195h-0.153c-0.05,0-0.098-0.018-0.146-0.033
						c-0.024-0.006-0.048-0.109-0.072-0.117c-0.021-0.008-0.04,0.037-0.061,0.029s-0.041,0.009-0.061,0.001
						c-0.039-0.018-0.077-0.022-0.115-0.04c-0.077-0.037-0.149-0.071-0.218-0.116c-0.078-0.053-0.152-0.104-0.221-0.164
						c-0.018-0.014-0.034-0.028-0.051-0.044s-0.032-0.03-0.049-0.046c-0.021-0.021-0.041-0.042-0.062-0.065
						c-0.004-0.004-0.008-0.008-0.012-0.012c-0.021-0.023-0.04-0.049-0.059-0.072c-0.011-0.014-0.021-0.025-0.03-0.039
						c-0.01-0.012-0.018-0.025-0.027-0.039c-0.021-0.027-0.039-0.057-0.057-0.086c-0.009-0.012-0.016-0.025-0.021-0.037
						c-0.003-0.002-0.004-0.004-0.005-0.006c-0.006-0.012-0.013-0.023-0.018-0.033c-0.019-0.033-0.035-0.066-0.05-0.1
						c-0.02-0.043-0.039-0.084-0.056-0.127c-0.011-0.021-0.021-0.045-0.029-0.068c-0.015-0.033-0.026-0.064-0.04-0.096
						c-0.009-0.025-0.018-0.049-0.026-0.07c-0.044-0.117-0.082-0.227-0.114-0.334c-0.007-0.021-0.013-0.043-0.019-0.063
						c-0.015-0.053-0.029-0.105-0.041-0.154c-0.006-0.021-0.011-0.041-0.016-0.063c-0.007-0.027-0.013-0.055-0.019-0.08
						c-0.009-0.039-0.017-0.074-0.022-0.111c-0.004-0.02,0.097-0.037,0.093-0.055C244.613,59.455,244.748,59.213,244.756,59.045z
						 M238.093,59.416c0-0.037-0.004-0.072-0.003-0.107c0.001-0.08-0.068-0.172-0.056-0.268c0.002-0.008-0.08-0.018-0.08-0.027l0,0
						c0-0.025,0.105-0.053,0.112-0.08c0,0,0.064-0.002,0.065-0.004c0.002-0.01,0.049-0.021,0.051-0.031
						c0.002-0.008,0.074-0.016,0.076-0.025c0.003-0.018,0.308-0.035,0.31-0.055c0.004-0.018,0.432-0.033,0.432-0.049v-0.002
						c0-0.025-0.404-0.053-0.396-0.078c0.004-0.014-0.321-0.027-0.317-0.041c0.002-0.008-0.04-0.018-0.038-0.023
						c0.006-0.02-0.012-0.037-0.006-0.055c0.009-0.027,0.006-0.051,0.014-0.074c0.007-0.018,0.009-0.033,0.016-0.051
						c0.007-0.016,0.011-0.031,0.018-0.047c0.003-0.004,0.004-0.01,0.007-0.014l0.014-0.029c0.003-0.004,0.005-0.01,0.009-0.014
						c0.01-0.018,0.018-0.031,0.026-0.045c0.003-0.004,0.005-0.008,0.008-0.012c0.001-0.002,0.002-0.004,0.004-0.006
						c0.002-0.004,0.004-0.008,0.008-0.014l0.002-0.002c0.002-0.002,0.004-0.004,0.005-0.006c0.036-0.051,0.078-0.1,0.128-0.145
						c0.011-0.01,0.022-0.02,0.033-0.029c0.002-0.002,0.004-0.002,0.006-0.002c0.027-0.023,0.059-0.045,0.093-0.064
						c0.01-0.006,0.021-0.012,0.031-0.018s0.021-0.012,0.032-0.016c0.008-0.004,0.016-0.008,0.023-0.012
						c0.014-0.006,0.028-0.012,0.042-0.018c0.005-0.002,0.01-0.004,0.015-0.006c0.03-0.01,0.06-0.02,0.092-0.029
						c0.021-0.006,0.042-0.01,0.064-0.014c0.056-0.016,0.116-0.021,0.182-0.031c0.013-0.002,0.026,0.008,0.039,0.008
						c0.014-0.002,0.026,0.047,0.041,0.045c0.005,0,0.011,0.072,0.016,0.072c0.004,0,0.008,0,0.011,0c0,0,0.004-0.076,0.006-0.076
						c0.005,0,0.009-0.063,0.013-0.063c0.008,0,0.018-0.008,0.028-0.01c0.094-0.008,0.197-0.017,0.312-0.017
						c0.076-0.002,0.157-0.001,0.244,0.001c0.09,0.004,0.185,0.007,0.285,0.015c0.102,0.006,0.208,0.016,0.322,0.027
						c0.021,0,0.045,0.003,0.069,0.005c0.012,0.002,0.024,0.003,0.037,0.005c0.012,0,0.022,0.003,0.034,0.003
						c0.007,0,0.015,0,0.021,0.002c0.054,0.006,0.105,0.01,0.156,0.018c0.087,0.012,0.172,0.023,0.251,0.035
						c0.08,0.014,0.155,0.025,0.227,0.039c0.027,0.004,0.044,0.004,0.061,0.004c0.101,0.023,0.192,0.045,0.277,0.068
						c0.015,0.004,0.022-0.027,0.028-0.025c0.002,0.002,0.005-0.031,0.005-0.031c0.002,0,0.005,0,0.005,0
						c0.036,0,0.07,0.053,0.104,0.063c0.003,0.002,0.006,0.02,0.009,0.02c0.014,0.004,0.026,0.018,0.04,0.021
						c0.039,0.012,0.076,0.028,0.111,0.04c0.018,0.006,0.033,0.013,0.05,0.019c0.039,0.014,0.076,0.03,0.111,0.046
						c0.015,0.004,0.028,0.012,0.041,0.018c0.016,0.008,0.03,0.015,0.046,0.021c0.029,0.014,0.056,0.026,0.082,0.04
						c0.052,0.027,0.098,0.056,0.136,0.083c0.011,0.004,0.02,0.012,0.029,0.018c0.075,0.053,0.328,0.102,0.363,0.146
						c0.045,0.055,0.277,0.102,0.277,0.133c0,0.002,0,0.004,0,0.008s-0.199,0.012-0.197,0.023c0.002,0.008-0.098,0.016-0.096,0.025
						c0.019,0.104-0.006,0.352-0.057,0.717c-0.005,0.035-0.036,0.07-0.042,0.105c-0.002,0.016,0.2,0.033,0.198,0.051
						c-0.004,0.016,0.193,0.031,0.193,0.045c0,0.004,0,0.008,0,0.012c0,0.006-0.221,0.01-0.221,0.014s-0.109,0.008-0.111,0.01
						c-0.001,0.008-0.058,0.014-0.058,0.02c-0.017,0.072-0.057,0.123-0.07,0.174c-0.002,0.01-0.018,0.02-0.021,0.029
						c0,0.002,0.253,0.004,0.253,0.006c-0.01,0.031,0.228,0.063,0.228,0.094c0,0.002,0,0.004,0,0.006
						c0,0.004-0.264,0.01-0.266,0.012c-0.002,0.004-0.134,0.008-0.134,0.012c-0.004,0.008-0.072,0.018-0.075,0.025
						c-0.011,0.039-0.058,0.078-0.07,0.117c-0.002,0.008-0.021,0.016-0.023,0.023c-0.01,0.029-0.026,0.053-0.035,0.076
						c-0.001,0.002-0.007,0.004-0.008,0.006c-0.002,0.008-0.007,0.018-0.011,0.025c-0.008,0.025-0.02,0.051-0.029,0.076
						c-0.007,0.018-0.015,0.037-0.024,0.055c-0.006,0.02-0.019,0.041-0.025,0.063c-0.051,0.117-0.108,0.242-0.179,0.379
						c-0.016,0.029-0.034,0.059-0.051,0.086c-0.011,0.018-0.269,0.037-0.281,0.053c-0.002,0.006-0.264,0.01-0.264,0.016l0,0
						c0,0.027,0.217,0.055,0.197,0.08c-0.012,0.012,0.117,0.027,0.104,0.039c0,0,0.058,0.002,0.058,0.004
						c-0.003,0.002,0.065,0.006,0.063,0.008c-0.002,0.004,0.053,0.006,0.053,0.008v0.016c0,0.004-0.045,0.018-0.049,0.021
						c-0.006,0.008-0.029-0.117-0.035-0.111S241.708,61,241.701,61H242v0.262v-0.039c0,0.004-0.068,0.008-0.07,0.012
						c-0.006,0.006-0.043,0.012-0.05,0.018c-0.002,0.004-0.019,0.006-0.022,0.008c-0.005,0.006-0.02,0.012-0.024,0.018
						c-0.002,0.002-0.006,0.004-0.008,0.004c-0.003,0.004-0.004,0.006-0.008,0.008c-0.003,0.004-0.004,0.008-0.009,0.012
						c-0.006,0.006-0.005,0.012-0.012,0.018c-0.002,0.004,0.01,0.006,0.008,0.008c-0.001,0.002,0.027,0.004,0.027,0.006
						c-0.004,0.002,0.053,0.006,0.05,0.01L242,61.348v0.004c0,0-0.127-0.18-0.131-0.178c0,0-0.207-0.174-0.209-0.174h-0.063
						c-0.003,0,0.403,0.328,0.403,0.332c0,0.002,0,0.027,0,0.027v0.002c0,0.002-0.135,0.006-0.135,0.006
						c-0.006,0.004,0.075,0.014,0.071,0.018C241.93,61.389,242,61.406,242,61.41v0.025c0,0-0.152-0.242-0.154-0.24L241.648,61h0.021
						c-0.005,0,0.33,0.439,0.33,0.443V61h-0.332c0.003,0,0.006,0.203,0.006,0.203c0.006-0.004,0.01,0.125,0.014,0.123
						c0.001-0.004,0.002,0.037,0.004,0.035c-0.005,0.004-0.009,0.03-0.015,0.034c-0.002,0.002-0.005,0.021-0.007,0.022
						c-0.005,0.004-0.012,0.032-0.019,0.036c-0.005,0.004-0.009,0.045-0.014,0.049c-0.003,0.002-0.007,0.075-0.01,0.075l0,0
						c-0.008,0-0.008-0.06-0.017-0.05c-0.002,0.002,0.006-0.073,0.005-0.073c-0.002,0.002,0.015,0.002,0.014,0.004
						c-0.003,0.004,0.169,0.006,0.165,0.01c-0.002,0.002,0.205,0.004,0.205,0.004v0.002l-0.189,0.016
						c-0.002,0.002,0.07,0.02,0.07,0.02c-0.004,0.004,0.119,0.037,0.119,0.041v0.064l0,0l-0.225-0.061
						c-0.006,0.004-0.16-0.053-0.166-0.051c-0.002,0-0.038,0.002-0.039,0.002c-0.005,0.004-0.026,0.008-0.031,0.012l0.231,0.006
						c-0.002,0,0.229,0.008,0.229,0.008v0.016c0,0.002-0.254-0.547-0.258-0.547h-0.119c0,0-0.063,0.264-0.064,0.264
						c-0.003,0.002-0.036,0.121-0.039,0.123c-0.016,0.01-0.044,0.09-0.06,0.098c0,0-0.009,0.038-0.01,0.038
						c-0.001,0.002-0.007,0.021-0.007,0.021c-0.007,0.004-0.013,0.015-0.019,0.017c-0.008,0.004-0.017,0.014-0.024,0.018
						c-0.009,0.006-0.02,0.011-0.029,0.017c-0.004,0.002-0.011-0.3-0.016-0.296C241.35,61.3,241.345,61,241.338,61
						c-0.001,0-0.003,0-0.005,0c-0.001,0-0.003,0.303-0.003,0.303c-0.019,0.008-0.035,0.156-0.052,0.162
						c-0.008,0.006,0.378,0.063,0.37,0.064c-0.014,0.008,0.352,0.039,0.352,0.039v0.006c0,0-0.438,0.07-0.453,0.076
						c0,0-0.209,0.057-0.211,0.057c-0.024,0.01-0.174,0.041-0.199,0.049l-0.047,0.047c-0.001,0.002-0.09,0.09-0.09,0.09v0.006
						c0,0,0.008-0.059-0.006-0.055c-0.002,0.002,0.065-0.482,0.065-0.482c-0.016,0.004,0.001-0.361-0.013-0.361h-0.031
						c-0.005,0-0.025,0.398-0.03,0.402c-0.001-0.004-0.009-0.252-0.01-0.252c-0.024,0.006-0.053-0.15-0.077-0.15h-0.005
						c-0.007,0,0.106,0,0.106,0v0.963c0,0-0.09-0.523-0.104-0.521c-0.012,0.004-0.146-0.441-0.158-0.441h0.027
						c-0.022,0-0.031,0.406-0.054,0.41c-0.041,0.006-0.063,0.191-0.093,0.193c-0.058,0.008-0.114,0.123-0.173,0.127
						c-0.023,0.002-0.033-0.368-0.046-0.368C240.356,61.364,240.314,61,240.27,61h-0.073c-0.021,0-0.041,0.42-0.062,0.418
						c-0.398-0.014-0.792,0.096-1.096-0.047c-0.02-0.008-0.04,0.088-0.059,0.078c-0.021-0.01-0.04,0.032-0.061,0.021
						s-0.041,0.003-0.061-0.011c-0.005-0.002-0.01,0.009-0.015,0.005c-0.047-0.031-0.091-0.059-0.133-0.096
						c-0.021-0.018-0.041-0.034-0.06-0.054c-0.097-0.1-0.178-0.214-0.244-0.339c-0.007-0.014-0.014-0.024-0.021-0.038
						c-0.009-0.018-0.018-0.037-0.026-0.055c-0.008-0.018-0.017-0.035-0.023-0.055c-0.013-0.027-0.025-0.055-0.036-0.084
						c-0.022-0.059-0.043-0.117-0.06-0.178c-0.011-0.033-0.023-0.068-0.031-0.104c-0.003-0.008-0.011-0.018-0.012-0.027
						c-0.011-0.037-0.029-0.078-0.038-0.115c-0.001-0.008-0.068-0.016-0.072-0.035c0-0.004-0.088-0.004-0.088-0.008
						c0-0.002,0-0.006,0-0.006c0-0.004,0.084-0.008,0.082-0.016c0-0.008,0.062-0.016,0.06-0.025
						c-0.014-0.07-0.013-0.143-0.021-0.215c-0.001-0.014,0.003-0.027,0.001-0.039C238.099,59.775,238.093,59.582,238.093,59.416z
						 M237.591,58.367l0.004-0.287l0.064,0.035l0.222,0.119l-0.222,0.102L237.591,58.367z M241.558,61.49
						c-0.006,0.004-0.015,0.01-0.022,0.014C241.543,61.5,241.551,61.496,241.558,61.49L241.558,61.49l0.008-0.004
						C241.563,61.486,241.561,61.488,241.558,61.49z M241.583,61.473L241.583,61.473L241.583,61.473
						c0.004-0.002,0.006-0.004,0.01-0.006c0.002,0,0.003-0.002,0.005-0.004c0.011-0.006,0.021-0.014,0.03-0.021l0,0
						c0.003-0.002,0.007-0.004,0.01-0.006c0.005-0.004,0.009-0.008,0.014-0.01c0.007-0.006,0.014-0.01,0.02-0.016
						c0.002,0,0.005-0.002,0.005-0.002c0.005-0.004,0.008-0.008,0.012-0.01c0.002-0.002,0.002-0.004,0.004-0.004
						c-0.005,0.004-0.009,0.008-0.015,0.01c-0.002,0.002-0.005,0.002-0.007,0.004c-0.005,0.006-0.012,0.008-0.019,0.014
						c-0.005,0.004-0.009,0.004-0.014,0.006c-0.003,0.002-0.007-0.002-0.01-0.002l0,0c-0.008,0-0.017,0.018-0.025,0.027
						c0,0-0.002,0.002-0.005,0.002c-0.001,0.002-0.002,0.002-0.003,0.004c-0.003,0.004-0.006,0.006-0.008,0.01
						C241.585,61.471,241.584,61.473,241.583,61.473z M241.535,61.504c0.008-0.004,0.016-0.008,0.022-0.014l0,0l0.008-0.004
						c-0.002,0-0.005,0.002-0.008,0.004C241.552,61.494,241.543,61.5,241.535,61.504z M241.442,61.559c0.001,0,0.002,0,0.002,0
						c0.004-0.002,0.006-0.002,0.008-0.004s0.005-0.002,0.007-0.004c0.01-0.008,0.021-0.012,0.031-0.018
						c0.003-0.002,0.006-0.004,0.009-0.006c-0.003,0-0.006,0.002-0.009,0.004c-0.016,0.01-0.029,0.02-0.045,0.025
						C241.445,61.557,241.443,61.559,241.442,61.559z M240.873,61.74l0.02,0.027c0,0,0.001,0,0.001-0.002
						c0.006-0.002,0.026-0.01,0.037-0.014c0.013-0.002,0.027-0.01,0.04-0.014c-0.001-0.004-0.002-0.006-0.003-0.006
						c-0.024,0.006-0.049,0.002-0.073,0.002h-0.001C240.887,61.734,240.881,61.738,240.873,61.74L240.873,61.74z M240.986,61.734
						c-0.005,0-0.011,0-0.016,0.004h0.001c0.005,0,0.011,0.004,0.016,0.002c0.015-0.004,0.028-0.008,0.042-0.012
						C241.015,61.732,241.001,61.734,240.986,61.734L240.986,61.734z M241.076,61.715c-0.016,0.004-0.029,0.008-0.044,0.012
						C241.048,61.725,241.063,61.719,241.076,61.715L241.076,61.715z M241.085,61.713c-0.002,0-0.004,0.002-0.006,0.002h0.002h0.002
						h0.013c-0.003,0-0.006-0.002-0.008-0.002h-0.001C241.086,61.713,241.085,61.713,241.085,61.713z M241.099,61.715
						c0,0-0.002,0-0.003,0C241.097,61.715,241.098,61.715,241.099,61.715c0.011-0.002,0.018-0.006,0.024-0.01
						C241.116,61.709,241.109,61.711,241.099,61.715z M241.201,61.686c-0.048,0.008-0.064,0.014-0.078,0.02
						c0.014-0.006,0.03-0.012,0.078-0.018V61.686z"/>
				</g>
				<g>
					<path fill="#FFFFFF" d="M239.577,57.832c-0.114,0.002-0.218,0.006-0.312,0.014c-0.021,0.002-0.033,0.004-0.046,0.006
						c-0.01,0-0.019,0-0.027,0.002c-0.014,0.002-0.027,0.004-0.04,0.004c-0.108,0.016-0.203,0.035-0.286,0.061
						c-0.032,0.01-0.063,0.02-0.091,0.031c-0.029,0.01-0.056,0.021-0.081,0.035c-0.06,0.027-0.111,0.061-0.157,0.098
						c-0.068,0.053-0.121,0.111-0.166,0.176c-0.009,0.014-0.014,0.02-0.019,0.027c-0.016,0.023-0.029,0.047-0.044,0.07l-0.015,0.029
						l2.601,3.383c0.495-0.117,0.894-0.375,1.139-0.74l-2.439-3.174L239.577,57.832z"/>
				</g>
				<g>
					<path fill="#FFFFFF" d="M240.429,57.877l1.919,2.498c0.105-0.27,0.173-0.51,0.215-0.723l-1.27-1.654
						c-0.022-0.006-0.045-0.01-0.067-0.014c-0.145-0.027-0.304-0.051-0.479-0.072c-0.05-0.008-0.102-0.014-0.155-0.02
						c-0.007,0-0.014,0-0.021-0.002C240.521,57.887,240.474,57.881,240.429,57.877z"/>
				</g>
				<g>
					<g>
						<path fill="#364E5B" d="M239.821,57.836c-0.087-0.004-0.168-0.006-0.244-0.004l0.017,0.021l2.438,3.172
							c-0.244,0.367-0.643,0.625-1.138,0.742l-2.601-3.383c-0.002,0.004-0.005,0.01-0.007,0.016
							c-0.038,0.076-0.072,0.178-0.101,0.289c-0.007,0.025-0.013,0.053-0.019,0.08c-0.01,0.043-0.019,0.086-0.025,0.129
							c-0.008,0.039-0.014,0.078-0.02,0.115c-0.001,0.01-0.003,0.02-0.004,0.027c-0.013,0.096-0.021,0.188-0.021,0.268
							c-0.003,0.189,0.001,0.422,0.029,0.666c0.002,0.014,0.003,0.027,0.005,0.041c0.009,0.072,0.02,0.145,0.032,0.217
							c0.002,0.008,0.003,0.016,0.005,0.023c0.003,0.018,0.004,0.023,0.005,0.029c0.005,0.02,0.006,0.027,0.007,0.035
							c0.096,0.459,0.289,0.908,0.664,1.158c0.005,0.002,0.01,0.006,0.014,0.01c0.316,0.201,0.794,0.334,1.275,0.352
							c0.021,0,0.043,0,0.063,0c0.024,0,0.048,0,0.072,0c0.045,0,0.089,0,0.134-0.002c0.015-0.002,0.03-0.002,0.046-0.004
							c0.06-0.004,0.118-0.01,0.177-0.018c0.033-0.004,0.067-0.01,0.1-0.016c0.058-0.01,0.114-0.02,0.169-0.033
							c0.031-0.008,0.063-0.016,0.093-0.023c0.124-0.035,0.242-0.08,0.352-0.131c0.011-0.006,0.021-0.012,0.032-0.016
							c0.01-0.006,0.019-0.01,0.028-0.016c0.016-0.008,0.031-0.016,0.046-0.023c0.016-0.01,0.03-0.018,0.045-0.025
							c0.015-0.01,0.029-0.018,0.043-0.027c0.009-0.006,0.018-0.01,0.025-0.016c0.026-0.018,0.053-0.035,0.078-0.055
							c0.006-0.004,0.011-0.008,0.015-0.01c0.009-0.008,0.018-0.014,0.025-0.02s0.016-0.012,0.023-0.018
							c0.017-0.014,0.033-0.027,0.05-0.043c0.012-0.01,0.018-0.016,0.023-0.02c0.1-0.09,0.187-0.189,0.26-0.299
							c0.033-0.049,0.063-0.102,0.091-0.154c0.07-0.139,0.127-0.262,0.176-0.379c0.017-0.041,0.033-0.08,0.048-0.119
							c0.028-0.07,0.053-0.141,0.076-0.209c0.017-0.047,0.031-0.096,0.046-0.141c0.002-0.01,0.004-0.018,0.007-0.025
							c0.01-0.035,0.02-0.068,0.029-0.102c0.016-0.061,0.03-0.119,0.043-0.176c0.007-0.031,0.011-0.051,0.014-0.07
							c0.016-0.074,0.028-0.145,0.037-0.213c0.052-0.365,0.024-0.613,0.006-0.717c-0.002-0.01-0.003-0.018-0.005-0.025
							c-0.004-0.02-0.007-0.029-0.008-0.031c-0.017-0.055-0.069-0.16-0.234-0.277c-0.146-0.105-0.381-0.221-0.757-0.32
							c-0.009-0.002-0.017-0.004-0.024-0.006c-0.091-0.023-0.185-0.045-0.284-0.064l1.27,1.654
							c-0.042,0.213-0.109,0.453-0.215,0.723l-1.917-2.494C240.201,57.855,240.001,57.842,239.821,57.836z"/>
					</g>
				</g>
				<g>
					<g>
						<path fill="#364E5B" d="M248.353,61.709c-0.046,0.039-0.096,0.072-0.149,0.104c-0.16,0.09-0.359,0.158-0.579,0.203
							c0.22-0.039,0.419-0.096,0.579-0.186c0.054-0.029,0.103-0.072,0.149-0.111c0.03-0.025,0.06-0.051,0.088-0.078
							c0.132-0.129,0.237-0.289,0.317-0.465c0.038-0.08,0.068-0.166,0.095-0.252c0.002-0.008,0.004-0.016,0.006-0.021
							c-0.029,0.092-0.064,0.182-0.104,0.27l-2.353-3.061c-0.026,0-0.053,0.002-0.079,0.004c-0.235,0.014-0.439,0.039-0.616,0.066
							c-0.019,0.004-0.038,0.008-0.057,0.01L248.353,61.709z"/>
					</g>
				</g>
				<g>
					<path fill="#FFFFFF" d="M247.159,58.092c-0.171-0.002-0.36,0.002-0.572,0.01c-0.064,0.002-0.125,0.006-0.186,0.01l2.353,3.061
						c0.04-0.088,0.075-0.178,0.104-0.27c0.035-0.109,0.063-0.221,0.086-0.332c0.009-0.043,0.017-0.088,0.024-0.131L247.159,58.092z
						"/>
				</g>
				<g>
					<path fill="#FFFFFF" d="M245.649,58.191c-0.007,0.002-0.014,0.002-0.021,0.004c-0.04,0.008-0.079,0.016-0.116,0.023
						c-0.691,0.145-0.885,0.375-0.942,0.498c-0.004,0.01-0.009,0.02-0.012,0.029c-0.003,0.012-0.022,0.084-0.035,0.203l2.402,3.125
						c0.15,0.006,0.3-0.002,0.445-0.018c0.085-0.01,0.171-0.023,0.253-0.041c0.22-0.045,0.419-0.113,0.579-0.203
						c0.054-0.031,0.104-0.064,0.149-0.104L245.649,58.191z"/>
				</g>
				<g>
					<g>
						<path fill="#364E5B" d="M247.16,58.092l1.809,2.348c-0.008,0.043-0.016,0.088-0.024,0.131
							c0.011-0.043,0.021-0.086,0.032-0.129c0.066-0.275,0.058-0.541,0.061-0.752c0.003-0.285-0.068-0.738-0.179-0.957
							c-0.072-0.143-0.164-0.268-0.31-0.367c-0.047-0.029-0.088-0.053-0.134-0.076c-0.006-0.002-0.013-0.006-0.02-0.008
							c-0.047-0.021-0.099-0.043-0.154-0.061c-0.037-0.012-0.077-0.023-0.119-0.033c-0.009-0.002-0.018-0.004-0.026-0.006
							c-0.043-0.01-0.088-0.02-0.135-0.029c-0.022-0.004-0.046-0.008-0.07-0.012c-0.013,0-0.026-0.002-0.039-0.004
							c-0.009-0.002-0.018-0.004-0.026-0.004c-0.074-0.01-0.154-0.018-0.24-0.025c-0.022,0-0.043-0.002-0.063-0.004
							c-0.052-0.002-0.105-0.006-0.162-0.008C247.296,58.094,247.229,58.092,247.16,58.092z"/>
					</g>
				</g>
				<g>
					<g>
						<path fill="#364E5B" d="M244.517,59.045c-0.021,0.352,0.022,1.021,0.438,1.936c0.295,0.646,0.998,1.076,1.889,1.127
							c0.013,0.002,0.024,0.002,0.036,0.002c0.016,0.002,0.026,0.002,0.037,0.002c0.151-0.018,0.294-0.033,0.432-0.053
							c0.008,0,0.015-0.002,0.022-0.002c-0.146,0.016-0.295,0.023-0.445,0.018l-2.402-3.125
							C244.521,58.984,244.519,59.014,244.517,59.045z"/>
					</g>
				</g>
			</g>
			<circle fill="#70573A" cx="236.407" cy="60.664" r="0.289"/>
			<path fill="#CE9D85" d="M236.928,59.691c0,1.922,1.438,3.48,3.212,3.48c1.774,0,3.212-1.559,3.212-3.48
				c0-0.178-0.013-0.35-0.035-0.52c-0.157,0.061-0.174,0.189-0.176,0.207c-0.006,0.033-0.067,0.359-0.193,0.779
				c-0.063,0.213-0.117,0.445-0.245,0.68c-0.127,0.217-0.209,0.432-0.34,0.617c-0.135,0.193-0.29,0.355-0.466,0.461
				c-0.214,0.131-0.442,0.221-0.67,0.283c-0.414,0.113-0.825,0.133-1.146,0.121c-0.636-0.021-1.268-0.18-1.572-0.393
				c-0.639-0.443-0.692-0.705-0.916-2.625c-0.01-0.088-0.03-0.164-0.057-0.227c-0.013-0.025-0.03-0.051-0.049-0.078
				c-0.037-0.051-0.078-0.107-0.104-0.201l-0.353,0.014C236.965,59.092,236.928,59.387,236.928,59.691z"/>
			<path fill="#CE9D85" d="M245.619,62.1c0.01,0.195,0.381,0.393,0.381,0.588v0.008c0,0.387,0.963,0.617,1.758,0.617
				c0.193,0,0.204-0.014,0.389-0.039c0.007-0.182-0.077-0.361-0.073-0.541c0.003-0.086-0.041-0.174-0.04-0.258
				c-0.209,0.045-0.467,0.074-0.713,0.084c-0.113,0.004-0.062,0.006-0.177,0C246.678,62.543,246.188,62.449,245.619,62.1z"/>
			<path fill="#E58C4A" d="M222.183,85.6"/>
			<path fill="#E58C4A" d="M234.638,85h8.439l-0.742-3.758l-0.487-2.951L241.36,78h-0.011l-5.345,0.377
				c-0.011,0.012-0.023-0.047-0.036-0.014C235.646,79.131,234.638,85,234.638,85z"/>
			<path fill="#A46922" d="M221.856,85.6c0.155,0.021,0.313,0.039,0.47,0.059l0.472,0.051c0.314,0.033,0.628,0.061,0.941,0.084
				c0.314,0.025,0.629,0.047,0.943,0.066c0.313,0.018,0.627,0.035,0.941,0.049c0.314,0.016,0.629,0.025,0.942,0.037l0.472,0.012
				l0.471,0.012c0.314,0.004,0.628,0.012,0.942,0.012c0.313,0,0.628,0.004,0.942,0.002l0.461-0.004l-0.084-0.449
				c-0.053-0.279-0.104-0.561-0.161-0.838c-0.055-0.279-0.111-0.559-0.171-0.836c-0.058-0.281-0.118-0.559-0.18-0.836
				c-0.062-0.279-0.127-0.555-0.19-0.834c-0.067-0.277-0.132-0.555-0.203-0.83l-0.105-0.414l-0.11-0.414
				c-0.074-0.275-0.149-0.553-0.231-0.826c-0.08-0.275-0.163-0.549-0.254-0.822c0.011,0.287,0.03,0.574,0.053,0.859
				c0.021,0.285,0.048,0.57,0.075,0.854l0.045,0.426l0.048,0.426c0.032,0.283,0.068,0.566,0.104,0.85
				c0.039,0.281,0.075,0.564,0.116,0.846c0.042,0.281,0.083,0.564,0.128,0.846c0.043,0.281,0.09,0.561,0.138,0.842
				c0.021,0.131,0.043,0.26,0.065,0.389c-0.162,0-0.324,0.002-0.485,0.002c-0.314,0-0.628,0.008-0.942,0.012l-0.471,0.012
				l-0.472,0.012c-0.313,0.012-0.628,0.021-0.942,0.037c-0.314,0.012-0.628,0.031-0.941,0.049c-0.314,0.02-0.629,0.041-0.943,0.066
				c-0.313,0.025-0.627,0.051-0.941,0.084l-0.472,0.051C222.169,85.559,222.012,85.574,221.856,85.6z"/>
			<path fill="#A46922" d="M241.047,84.686c0.001,0.207,0.001,0.314,0.003,0.314h0.61c0.001,0,0.002-0.107,0.003-0.314
				c-0.002-0.385-0.003-0.617-0.009-0.996c-0.005-0.379-0.016-0.678-0.026-1.039c-0.011-0.359-0.024-0.671-0.041-1.001
				c-0.016-0.332-0.035-0.626-0.055-0.915c-0.017-0.289-0.039-0.544-0.06-0.778c-0.018-0.234-0.04-0.434-0.056-0.602
				c-0.017-0.168-0.034-0.3-0.045-0.39c-0.005-0.041-0.009-0.071-0.012-0.093c-0.004-0.031-0.005-0.044-0.005-0.044
				s-0.002,0.016-0.006,0.045c-0.003,0.023-0.007,0.055-0.013,0.094c-0.01,0.09-0.027,0.223-0.043,0.393
				c-0.017,0.168-0.039,0.371-0.057,0.607c-0.02,0.232-0.043,0.498-0.06,0.787c-0.02,0.289-0.039,0.602-0.055,0.932
				c-0.017,0.332-0.031,0.68-0.042,1.041c-0.01,0.361-0.021,0.584-0.024,0.963C241.049,84.068,241.048,84.301,241.047,84.686z"/>
			<g>
				<path fill="#EFBFA5" d="M230.341,60.736l0.329,0.098l0.33,0.043v0.018l-0.328,0.02c0.006,0.088-0.151,0.174-0.141,0.26
					c0.004,0.027-0.075,0.057-0.07,0.084c0.038,0.225,0.058,0.443,0.143,0.643c0.085,0.201,0.171,0.385,0.293,0.543
					c0.119,0.162,0.247,0.297,0.386,0.404c0.14,0.107,0.277,0.191,0.413,0.244c0.04,0.018,0.077,0.031,0.117,0.043
					c-0.345-0.232-0.642-0.594-0.69-1.16c-0.129-1.479,0.384-1.607,0.899-2.508c0.092-0.158,0.178-0.309,0.258-0.455
					c-0.135-0.051-0.289-0.086-0.452-0.088c-0.167-0.004-0.343,0.029-0.51,0.109c-0.169,0.076-0.326,0.203-0.466,0.355
					c-0.067,0.078-0.132,0.162-0.188,0.252c-0.056,0.092-0.107,0.188-0.149,0.291c-0.086,0.203-0.142,0.422-0.162,0.646
					c-0.002,0.014-0.003,0.027-0.004,0.041C230.345,60.658,230.344,60.695,230.341,60.736z"/>
				<path fill="#CE9D85" d="M229.863,60.746L230,60.842v0.049v0.016v0.006v0.014l-0.131,0.027c0.008,0.141-0.036,0.279-0.01,0.416
					c0.029,0.137,0.033,0.271,0.081,0.4c0.047,0.129,0.085,0.252,0.148,0.369c0.127,0.236,0.276,0.441,0.451,0.613
					c0.173,0.172,0.36,0.303,0.55,0.398c0.19,0.094,0.376,0.15,0.545,0.172c0.17,0.021,0.318,0.01,0.435-0.016
					c0.014-0.002,0.025-0.004,0.038-0.008c0.097-0.021,0.17-0.059,0.221-0.08c0.053-0.031,0.082-0.047,0.082-0.047
					s-0.033,0.004-0.094,0.014c-0.06,0.004-0.147,0.01-0.256,0c-0.075-0.006-0.16-0.023-0.251-0.051
					c-0.039-0.012-0.079-0.025-0.119-0.043c-0.136-0.053-0.278-0.137-0.419-0.244c-0.139-0.107-0.276-0.242-0.396-0.404
					c-0.122-0.158-0.229-0.342-0.313-0.543c-0.085-0.199-0.146-0.418-0.185-0.643c-0.005-0.027,0.32-0.057,0.316-0.084
					c-0.012-0.086,0.305-0.172,0.305-0.26v-0.037l-0.33-0.043l-0.165-0.098c0.003-0.041-0.079-0.078-0.075-0.117
					c0-0.014-0.039-0.027-0.038-0.041c0.021-0.225,0.057-0.443,0.144-0.646c0.041-0.104,0.083-0.199,0.139-0.291
					c0.057-0.09,0.116-0.174,0.184-0.252c0.14-0.152,0.294-0.279,0.462-0.355c0.168-0.08,0.343-0.113,0.51-0.109
					c0.163,0.002,0.315,0.037,0.45,0.088c0.004,0.002,0.008,0.004,0.012,0.006c0.138,0.051,0.253,0.117,0.349,0.174
					c0.046,0.031,0.086,0.061,0.123,0.084s0.064,0.049,0.09,0.066c0.049,0.037,0.076,0.057,0.076,0.057s-0.018-0.027-0.05-0.08
					c-0.032-0.055-0.084-0.129-0.158-0.219c-0.078-0.086-0.176-0.195-0.315-0.293c-0.005-0.002-0.01-0.006-0.016-0.01
					c-0.135-0.094-0.307-0.182-0.516-0.229c-0.107-0.027-0.225-0.033-0.346-0.031c-0.121,0.006-0.248,0.023-0.372,0.063
					c-0.249,0.072-0.487,0.215-0.691,0.402c-0.201,0.189-0.375,0.422-0.495,0.682c-0.127,0.26-0.133,0.545-0.163,0.834
					C229.799,60.59,229.865,60.672,229.863,60.746z"/>
				<ellipse fill="#CE9D85" cx="231.929" cy="61.098" rx="0.764" ry="1.195"/>
			</g>
			<path fill="#CE9D85" d="M232.984,68.541c0.091,0.564,0.121,1.33,0.177,2.186c0.171,0.395,0.341,0.791,0.472,1.104
				c0,0,0.002,0.004,0.003,0.006c0.155,0.373,0.369,0.699,0.617,0.98c0.186,0.211,0.391,0.395,0.604,0.551
				c-0.055-0.367-0.086-0.744-0.064-1.09c-0.248-0.281-0.462-0.607-0.617-0.98c-0.001,0-0.002-0.004-0.002-0.004
				C233.803,70.412,233.137,68.889,232.984,68.541z"/>
		</g>
		<polygon fill="#E5E5E5" points="200.79,76.285 208.335,76.488 266.649,76.73 271.155,84.418 200.931,84.039 		"/>
		<polygon fill="#E5E5E5" points="133.79,76.285 140.498,76.488 192.342,76.73 196.348,84.418 133.915,84.039 		"/>
		<path fill="#E5E5E5" d="M199.779,31.117l-0.052,12.109L63.771,42.656c0,0-13.904-0.059-21.29-0.089
			c-0.631-0.002-1.221,0.058-1.772,0.174c0.167-0.654,0.336-1.313,0.512-1.966c1.415-5.324,3.231-10.31,9.021-10.283L199.779,31.117
			z"/>
		<path fill="#E5E5E5" d="M264.118,43.279l-64.369-0.272l0.056-13.187l33.369,0.139c0,0,13.905,0.059,21.29,0.09
			c6.174,0.026,7.779,5.718,9.205,11.44C263.823,42.088,263.97,42.688,264.118,43.279z"/>
		<path opacity="0.5" fill="#77A0B7" d="M193.841,51.226l-0.092,22.049c-0.008,1.74-1.422,3.145-3.162,3.135l-52.755-0.221
			c-1.739-0.01-3.144-1.422-3.137-3.162l0.094-22.047c0.007-1.742,1.425-3.145,3.162-3.137l52.754,0.223
			C192.447,48.074,193.849,49.486,193.841,51.226z"/>
		<path fill="#001526" d="M124.228,50.935l-0.092,22.045c-0.007,1.74-1.43,3.145-3.163,3.137l-60.628-0.254
			c-1.738-0.008-3.144-1.424-3.136-3.162l0.052-12.529c0.031-6.998,5.22-12.645,11.598-12.62l52.233,0.22
			C122.825,47.779,124.236,49.195,124.228,50.935z"/>
		<path opacity="0.5" fill="#77A0B7" d="M269.634,73.596c1.036,3.154-2.212,3.141-3.95,3.133l-57.349-0.24
			c-1.74-0.008-3.145-1.422-3.136-3.162l0.092-22.047c0.007-1.738,1.424-3.145,3.162-3.137l49.474,0.21
			c2.559,0.01,3.462,1.396,4.057,3.164L269.634,73.596z"/>
		<path opacity="0.5" fill="#77A0B7" d="M278.03,75.092c-1.565-0.107-3.906-1.205-3.906-1.205c-1.764-0.658-2.742-1.398-3.342-3.256
			l-6.503-19.107c0.008-1.74,1.423-3.144,3.163-3.136l0.691,0.002L278.03,75.092z"/>
		<g>
			
				<rect x="249.469" y="48.316" transform="matrix(1 0.0035 -0.0035 1 0.2228 -0.8876)" fill="#C6C6C6" width="2.759" height="28.345"/>
		</g>
		<path fill="#001526" d="M279.97,84.455l-0.041,9.42c-0.001,0.307-0.002,0.627-0.012,0.961c-0.003,0.84-0.015,1.754-0.019,2.744
			l-0.136,32.025c-0.029,7.242-5.928,13.092-13.171,13.061l-7.489-0.029c-0.677-0.002-1.281-0.314-1.682-0.795
			c0,0-0.007,0-0.007-0.01l-0.267-0.426l-0.093-0.236l-9.343-21.684c-1.201-2.707-2.776-4.445-4.839-4.455l-0.709-0.002
			l-5.653-0.055l-19.835-0.053l-0.701-0.002c-2.069-0.01-3.659,1.719-4.875,4.412l-9.491,21.527l-0.193,0.432
			c-0.38,0.66-1.09,1.1-1.91,1.094l-80.814-0.338c-0.678-0.002-1.283-0.313-1.683-0.795c0,0-0.007-0.002-0.007-0.008l-0.307-0.496
			c-0.006-0.02-0.016-0.031-0.015-0.041l-6.334-10.303c-1.204-1.902-2.782-3.121-4.845-3.131l-0.71-0.002l-19.824-0.105
			l-19.835-0.061l-0.701-0.004c-2.07-0.008-3.658,1.199-4.872,3.09l-6.499,10.373l-0.199,0.316c-0.396,0.539-1.035,0.885-1.76,0.881
			l-12.833-0.053c-7.252-0.031-9.163-5.914-9.134-13.156l0.189-45.148c-0.001-0.109,0-0.213,0.009-0.316
			c0.354,0.17,0.748,0.264,1.158,0.266l9.825,0.039c0.347,0.045,0.7,0.063,1.062,0.063L279.97,84.455z"/>
		<g>
			
				<rect x="127.684" y="41.247" transform="matrix(1 0.005 -0.005 1 0.313 -0.6387)" fill="#C6C6C6" width="2.361" height="43.023"/>
			
				<rect x="198.483" y="42.047" transform="matrix(1 0.0041 -0.0041 1 0.2633 -0.8245)" fill="#C6C6C6" width="2.363" height="42.52"/>
		</g>
		<path fill="none" stroke="#000000" stroke-width="0.7874" stroke-miterlimit="10" d="M279.927,93.873l-0.004,0.959l-0.006,0.002
			C279.927,94.502,279.927,94.18,279.927,93.873z"/>
		<g>
			<path fill="#FFFFFF" d="M197.194,81.297c-0.008,1.521-1.247,2.75-2.767,2.742l-60.499-0.254c-1.522-0.004-2.75-1.244-2.743-2.768
				l0,0c0.005-1.521,1.245-2.75,2.768-2.742l60.496,0.254C195.971,78.535,197.2,79.773,197.194,81.297L197.194,81.297z"/>
			<path fill="#FFFFFF" d="M277.867,81.637c-0.008,1.52-1.248,2.75-2.77,2.742l-70.074-0.293c-1.522-0.008-2.751-1.246-2.743-2.768
				l0,0c0.006-1.523,1.245-2.752,2.767-2.746l70.075,0.297C276.644,78.875,277.872,80.113,277.867,81.637L277.867,81.637z"/>
			<path fill="#FFFFFF" d="M126.693,81c-0.007,1.52-1.248,2.75-2.767,2.744L30.488,83.35c-0.41,0.002-0.804-0.094-1.158-0.262
				c-0.94-0.438-1.592-1.4-1.587-2.5c0.004-0.758,0.313-1.449,0.818-1.945c0.231-0.229,0.5-0.414,0.798-0.545
				c0.349-0.176,0.741-0.258,1.152-0.258l93.438,0.393C125.469,78.238,126.7,79.48,126.693,81z"/>
		</g>
		<g>
			<path fill="#E5E5E5" d="M46.18,142.086c-0.007,1.678-1.374,3.035-3.055,3.027l-13.452-0.053c-1.681-0.01-3.039-1.379-3.031-3.059
				l0.033-7.848c0.008-1.68,1.375-3.037,3.057-3.029l13.452,0.057c1.68,0.006,3.036,1.373,3.029,3.055L46.18,142.086z"/>
			<path fill="#E5E5E5" d="M280.555,143.07c-0.007,1.68-1.374,3.035-3.054,3.027l-13.454-0.057
				c-1.678-0.006-3.035-1.373-3.028-3.055l0.033-7.85c0.008-1.678,1.374-3.035,3.054-3.027l13.454,0.057
				c1.68,0.008,3.036,1.375,3.029,3.053L280.555,143.07z"/>
		</g>
		<path fill="#D03D00" d="M48.699,123.98c-0.004,0.434-0.356,0.787-0.792,0.785l-6.691-0.029c-0.436-0.004-0.786-0.357-0.784-0.793
			l0.015-3.346c0-0.434,0.354-0.785,0.79-0.783l6.691,0.029c0.435,0,0.787,0.354,0.785,0.789L48.699,123.98z"/>
		<path fill="#D03D00" d="M275.154,124.93c-0.002,0.434-0.356,0.787-0.791,0.785l-6.692-0.027c-0.435-0.002-0.785-0.355-0.783-0.793
			l0.013-3.346c0.003-0.434,0.356-0.787,0.79-0.783l6.693,0.029c0.436,0,0.786,0.354,0.785,0.789L275.154,124.93z"/>
		<g>
			<path fill="#001526" d="M54.38,50.642l-0.057,0.272l-0.32,1.653l-0.225,1.182l-0.324,1.65l-0.232,1.18l-0.322,1.656l-0.232,1.178
				l-0.323,1.652l-0.226,1.182l-0.321,1.65l-0.233,1.18l-0.32,1.654l-0.234,1.18l-0.321,1.65l-0.227,1.178l-0.321,1.656
				l-0.057,0.275c-0.048,0.322-0.136,0.629-0.264,0.902c-0.59,1.408-1.953,2.238-3.403,2.23l-3.825-0.018
				c-1.434-0.006-2.838-0.945-3.125-2.256c-0.023-0.109-0.039-0.229-0.046-0.348l0.001-0.352c0.008-0.064,0.026-0.133,0.033-0.205
				l0.055-0.275l0.323-1.652l0.225-1.18l0.321-1.654l0.234-1.18l0.32-1.65l0.233-1.182l0.322-1.65l0.227-1.182l0.321-1.652
				l0.235-1.18l0.321-1.652l0.232-1.18l0.321-1.654l0.226-1.178l0.322-1.654l0.057-0.273c0.071-0.331,0.167-0.629,0.287-0.904
				c0.677-1.532,2.057-2.235,3.53-2.229l3.675,0.017c1.449,0.006,2.817,0.861,3.094,2.257C54.405,50.019,54.413,50.318,54.38,50.642
				z"/>
			<path fill="#FFFFFF" d="M54.38,50.642l-0.057,0.272l-10.629-0.044l0.057-0.273c0.071-0.331,0.167-0.629,0.287-0.904l10.299,0.044
				C54.405,50.019,54.413,50.318,54.38,50.642z"/>
			<polygon fill="#FFFFFF" points="53.454,55.4 53.222,56.58 42.593,56.537 42.825,55.357 			"/>
			<polygon fill="#FFFFFF" points="54.003,52.568 53.778,53.75 43.146,53.703 43.372,52.525 			"/>
			<polygon fill="#FFFFFF" points="52.899,58.236 52.667,59.414 42.036,59.369 42.271,58.189 			"/>
			<polygon fill="#FFFFFF" points="52.344,61.066 52.118,62.248 41.488,62.203 41.715,61.021 			"/>
			<polygon fill="#FFFFFF" points="51.797,63.898 51.563,65.078 40.933,65.035 41.166,63.854 			"/>
			<polygon fill="#FFFFFF" points="51.243,66.732 51.009,67.912 40.378,67.865 40.612,66.686 			"/>
			<polygon fill="#FFFFFF" points="40.057,69.52 50.688,69.563 50.461,70.74 39.832,70.699 			"/>
			<path fill="#FFFFFF" d="M39.509,72.352l10.631,0.045l-0.057,0.275c-0.048,0.322-0.136,0.629-0.264,0.902l-10.354-0.043h-0.048
				l0.002-0.348l0.001-0.352L39.509,72.352z"/>
		</g>
		<path d="M213.909,93.441c-0.008,1.305-1.069,2.355-2.373,2.352l-6.692-0.029c-1.306-0.006-2.358-1.066-2.354-2.371l0,0
			c0.005-1.305,1.067-2.357,2.373-2.354l6.691,0.031C212.859,91.074,213.913,92.137,213.909,93.441L213.909,93.441z"/>
		<path fill="#E5E5E5" d="M293.598,106.971c-0.165,11.416-3.456,20.52-4.431,20.334l-9.393-0.125l0.124-29.6
			c0.004-0.99,0.016-1.904,0.019-2.744c0.01-0.334,0.011-0.654,0.012-0.961l0.033-8.08l9.766,0.135
			c0.014,0.002,0.029,0.002,0.045,0.008C290.75,86.123,293.771,95.555,293.598,106.971z"/>
		<path fill="#C6C6C6" d="M199.757,41.22l-0.008,1.787L63.793,42.436c0,0-13.904-0.059-21.29-0.089
			c-0.631-0.002-1.221,0.058-1.772,0.174c0.167-0.654,0.336-1.313,0.512-1.966L199.757,41.22z"/>
		<path fill="#C6C6C6" d="M264.118,43.279l-64.369-0.272l0.008-1.787l63.912,0.269C263.823,42.088,263.97,42.688,264.118,43.279z"/>
		<polygon fill="#FFFFFF" points="75.097,50.365 76.3,49.165 77.244,50.58 78.655,49.628 79.315,51.197 80.878,50.532 
			81.229,52.195 82.892,51.835 82.92,53.537 84.619,53.5 84.326,55.176 86.004,55.461 85.399,57.049 86.991,57.645 86.097,59.092 
			87.547,59.98 86.397,61.23 87.65,62.377 86.284,63.387 87.299,64.75 85.766,65.484 86.505,67.014 84.859,67.445 85.297,69.088 
			83.602,69.195 83.72,70.895 82.032,70.682 81.826,72.367 80.209,71.84 79.689,73.459 78.202,72.633 77.385,74.127 76.08,73.035 
			74.994,74.342 73.921,73.025 72.608,74.105 71.802,72.607 70.307,73.42 69.801,71.797 68.181,72.313 67.989,70.623 66.302,70.822 
			66.433,69.125 64.736,69 65.189,67.361 63.548,66.918 64.299,65.395 62.771,64.646 63.799,63.291 62.44,62.27 63.704,61.137 
			62.563,59.877 64.021,59 63.14,57.547 64.736,56.961 64.146,55.367 65.823,55.098 65.544,53.418 67.244,53.471 67.288,51.771 
			68.946,52.142 69.313,50.482 70.87,51.164 71.544,49.6 72.945,50.562 73.902,49.156 		"/>
		<polygon fill="#E5E5E5" points="200.931,43.279 254.899,43.24 258.543,48.388 210.149,48.142 200.909,47.88 		"/>
		<polygon fill="#E5E5E5" points="138,42.967 191.945,43.24 195.565,48.388 147.206,48.142 138,47.88 		"/>
		<g>
			<path fill="#E5E5E5" d="M116.47,134.373v-3.465l8.955-11.295c0.93-1.199,1.545-2.002,1.846-2.408
				c0.299-0.404,0.592-0.973,0.877-1.709c0.285-0.734,0.428-1.619,0.428-2.654s-0.352-1.883-1.057-2.543s-1.605-0.99-2.701-0.99
				c-1.094,0-1.92,0.09-2.475,0.27s-0.885,0.383-0.99,0.607s-0.156,0.578-0.156,1.059v3.195l-4.59-0.316v-7.199
				c2.818-1.41,5.715-2.115,8.684-2.115c2.971,0,5.205,0.729,6.705,2.182c1.5,1.457,2.25,3.443,2.25,5.963s-1.275,5.326-3.826,8.416
				l-7.244,8.549h11.25v4.455H116.47z"/>
			<path fill="#E5E5E5" d="M149.14,104.809c6.809,0,10.215,4.936,10.215,14.805c0,5.25-0.885,9.098-2.656,11.543
				c-1.77,2.445-4.393,3.668-7.875,3.668c-3.479,0-6.072-1.207-7.783-3.623c-1.709-2.414-2.564-6.172-2.564-11.273
				c0-5.1,0.943-8.895,2.834-11.385C143.198,106.055,145.81,104.809,149.14,104.809z M145.202,128.186
				c0.855,1.547,2.092,2.318,3.713,2.318c1.619,0,2.873-0.795,3.758-2.385c0.883-1.59,1.328-4.357,1.328-8.303
				s-0.428-6.697-1.283-8.258s-2.107-2.34-3.758-2.34s-2.902,0.832-3.758,2.498c-0.855,1.664-1.283,4.439-1.283,8.324
				S144.347,126.641,145.202,128.186z"/>
			<path fill="#E5E5E5" d="M170.198,128.928v-17.684l-5.264,2.699l-1.98-3.465l8.189-5.086h4.412v24.932l4.68,0.225v3.824h-15.662
				v-3.689l4.32-0.27c0.451-0.029,0.779-0.15,0.992-0.361C170.095,129.844,170.198,129.469,170.198,128.928z"/>
			<path fill="#E5E5E5" d="M195.669,113.584h3.15v8.414h4.004v4.275h-4.049v4.051l3.734,0.225v3.824H189.28v-3.689l2.789-0.225
				c0.869-0.061,1.305-0.48,1.305-1.26v-2.971h-11.521v-3.734l8.461-17.775l4.275,2.115l-7.244,15.164h6.436v-2.43L195.669,113.584z
				"/>
		</g>
	</g>
</g>
<g id="fumée_seule">
</g>
<g id="fumée_double">
</g>
</svg>
