<?xml version="1.0" encoding="utf-8"?>
<!-- Generator: Adobe Illustrator 16.0.0, SVG Export Plug-In . SVG Version: 6.00 Build 0)  -->
<!DOCTYPE svg PUBLIC "-//W3C//DTD SVG 1.1//EN" "http://www.w3.org/Graphics/SVG/1.1/DTD/svg11.dtd">
<svg version="1.1" xmlns="http://www.w3.org/2000/svg" xmlns:xlink="http://www.w3.org/1999/xlink" x="0px" y="0px" width="320px"
	 height="170px" viewBox="0 0 320 170" enable-background="new 0 0 320 170" xml:space="preserve">
<g id="Roue_arrière">
	<g>
		<path d="M85.36,108.885c-13.149-0.054-23.848,10.563-23.902,23.702c-0.054,13.142,10.555,23.849,23.702,23.903
			c13.143,0.055,23.842-10.562,23.896-23.703C109.111,119.646,98.502,108.939,85.36,108.885z M85.218,143.199
			c-5.812-0.025-10.492-4.752-10.467-10.555c0.024-5.802,4.745-10.491,10.555-10.467c5.802,0.022,10.492,4.752,10.468,10.554
			C95.747,138.535,91.021,143.223,85.218,143.199z"/>
		<path fill="#FFFFFF" d="M85.328,116.781c-8.786-0.037-15.942,7.055-15.979,15.841c-0.036,8.786,7.058,15.933,15.846,15.97
			c8.787,0.037,15.935-7.049,15.973-15.838C101.203,123.968,94.114,116.819,85.328,116.781z M85.218,143.199
			c-5.812-0.025-10.492-4.752-10.467-10.555c0.024-5.802,4.745-10.491,10.555-10.467c5.802,0.022,10.492,4.752,10.468,10.554
			C95.747,138.535,91.021,143.223,85.218,143.199z"/>
		<path fill="#E5E5E5" d="M95.773,132.731c-0.026,5.804-4.753,10.491-10.556,10.468c-5.812-0.025-10.492-4.752-10.467-10.555
			c0.024-5.802,4.745-10.491,10.555-10.467C91.107,122.2,95.798,126.93,95.773,132.731z"/>
		<path d="M85.215,143.578c-6.005-0.025-10.869-4.932-10.845-10.936c0.027-6.004,4.933-10.869,10.937-10.844
			c6.006,0.025,10.868,4.93,10.844,10.934C96.124,138.74,91.219,143.603,85.215,143.578z M85.303,122.555
			c-5.586-0.025-10.15,4.504-10.175,10.091c-0.023,5.588,4.503,10.151,10.091,10.177c5.587,0.021,10.15-4.504,10.175-10.092
			S90.89,122.577,85.303,122.555z"/>
		<path d="M85.213,143.986c-6.229-0.025-11.276-5.117-11.252-11.346c0.028-6.229,5.118-11.277,11.346-11.252
			c6.232,0.027,11.279,5.116,11.252,11.346C96.534,138.964,91.442,144.013,85.213,143.986z M85.3,122.963
			c-5.358-0.02-9.74,4.321-9.762,9.684c-0.024,5.361,4.32,9.742,9.68,9.765c5.363,0.022,9.744-4.323,9.768-9.683
			C95.007,127.366,90.663,122.988,85.3,122.963z"/>
		<g>
			<g>
				<path d="M86.604,119.559c-0.002,0.713-0.583,1.289-1.296,1.285c-0.714,0-1.291-0.583-1.287-1.297
					c0.003-0.713,0.584-1.289,1.296-1.287C86.031,118.265,86.61,118.846,86.604,119.559z"/>
				<path d="M86.495,145.83c-0.002,0.71-0.586,1.291-1.299,1.283c-0.713,0-1.288-0.582-1.287-1.293
					c0.005-0.717,0.584-1.291,1.3-1.289C85.922,144.536,86.499,145.115,86.495,145.83z"/>
			</g>
			<g>
				<path d="M95.495,124.354c-0.508,0.503-1.325,0.499-1.827-0.006c-0.503-0.507-0.499-1.324,0.008-1.825
					c0.507-0.506,1.323-0.502,1.827,0.006C96.004,123.033,96.003,123.852,95.495,124.354z"/>
				<path d="M76.841,142.854c-0.506,0.501-1.324,0.497-1.827-0.01c-0.501-0.504-0.498-1.321,0.008-1.825
					c0.509-0.504,1.326-0.5,1.827,0.008C77.352,141.535,77.347,142.354,76.841,142.854z"/>
			</g>
			<g>
				<circle cx="98.394" cy="132.745" r="1.292"/>
				<circle cx="72.124" cy="132.633" r="1.293"/>
			</g>
			<g>
				<circle cx="94.508" cy="142.016" r="1.292"/>
				<path d="M75.093,124.271c-0.502-0.508-0.5-1.325,0.007-1.828c0.506-0.502,1.325-0.499,1.828,0.006
					c0.502,0.509,0.497,1.326-0.009,1.83C76.413,124.778,75.596,124.777,75.093,124.271z"/>
			</g>
			<g>
				<circle cx="80.465" cy="120.459" r="1.293"/>
				<circle cx="90.053" cy="144.918" r="1.292"/>
			</g>
			<g>
				<circle cx="90.517" cy="120.651" r="1.292"/>
				<path d="M81.186,145.242c-0.286,0.654-1.048,0.951-1.701,0.665c-0.655-0.282-0.953-1.046-0.669-1.698
					c0.286-0.654,1.048-0.953,1.703-0.667C81.173,143.828,81.47,144.59,81.186,145.242z"/>
			</g>
			<g>
				<path d="M97.959,129.098c-0.661,0.26-1.412-0.067-1.673-0.733c-0.263-0.662,0.065-1.413,0.73-1.671
					c0.666-0.263,1.413,0.063,1.674,0.728C98.95,128.085,98.625,128.837,97.959,129.098z"/>
				<circle cx="73.028" cy="137.482" r="1.292"/>
			</g>
			<g>
				<path d="M96.777,139.129c-0.651-0.285-0.95-1.048-0.665-1.699c0.285-0.654,1.047-0.952,1.701-0.668
					c0.652,0.285,0.951,1.048,0.668,1.7C98.195,139.114,97.432,139.416,96.777,139.129z"/>
				<path d="M72.704,128.615c-0.654-0.286-0.951-1.049-0.666-1.699c0.286-0.656,1.046-0.955,1.699-0.67
					c0.656,0.285,0.953,1.045,0.668,1.701C74.119,128.602,73.357,128.9,72.704,128.615z"/>
			</g>
		</g>
	</g>
</g>
<g id="Roue_avant">
	<g>
		<path d="M229.575,109.49c-13.141-0.055-23.846,10.563-23.9,23.703c-0.055,13.145,10.56,23.848,23.701,23.902
			c13.143,0.055,23.849-10.561,23.903-23.703C253.335,120.25,242.719,109.546,229.575,109.49z M229.434,143.805
			c-5.804-0.024-10.493-4.752-10.468-10.555c0.025-5.805,4.753-10.491,10.554-10.469c5.806,0.025,10.494,4.754,10.469,10.555
			C239.965,139.141,235.235,143.828,229.434,143.805z"/>
		<path fill="#FFFFFF" d="M229.545,117.389c-8.789-0.037-15.937,7.05-15.973,15.838c-0.037,8.787,7.051,15.935,15.838,15.972
			c8.786,0.038,15.942-7.05,15.979-15.839C245.427,124.572,238.332,117.423,229.545,117.389z M229.434,143.805
			c-5.804-0.024-10.493-4.752-10.468-10.555c0.025-5.805,4.753-10.491,10.554-10.469c5.806,0.025,10.494,4.754,10.469,10.555
			C239.965,139.141,235.235,143.828,229.434,143.805z"/>
		<circle fill="#E5E5E5" cx="229.477" cy="133.293" r="10.511"/>
		<path d="M229.431,144.184c-6.005-0.025-10.869-4.932-10.845-10.936c0.026-6.005,4.933-10.871,10.937-10.846
			c6.007,0.027,10.871,4.932,10.846,10.936C240.343,139.344,235.437,144.209,229.431,144.184z M229.519,123.16
			c-5.586-0.021-10.152,4.504-10.175,10.092c-0.022,5.586,4.503,10.15,10.091,10.174c5.588,0.022,10.153-4.502,10.177-10.089
			C239.635,127.749,235.107,123.184,229.519,123.16z"/>
		<path d="M229.429,144.592c-6.23-0.025-11.275-5.117-11.251-11.346c0.026-6.231,5.116-11.277,11.346-11.252
			c6.233,0.025,11.278,5.118,11.253,11.347S235.661,144.619,229.429,144.592z M229.519,123.57c-5.362-0.023-9.744,4.32-9.764,9.682
			c-0.025,5.363,4.32,9.742,9.682,9.766c5.361,0.021,9.743-4.322,9.764-9.685C239.224,127.973,234.88,123.592,229.519,123.57z"/>
		<g>
			<g>
				<circle cx="229.533" cy="120.158" r="1.292"/>
				<circle cx="229.423" cy="146.429" r="1.292"/>
			</g>
			<g>
				<circle cx="238.806" cy="124.044" r="1.293"/>
				<path d="M221.061,143.46c-0.506,0.502-1.324,0.499-1.828-0.008c-0.503-0.507-0.497-1.323,0.008-1.825
					c0.507-0.504,1.326-0.5,1.83,0.004C221.57,142.141,221.565,142.959,221.061,143.46z"/>
			</g>
			<g>
				<path d="M242.606,134.643c-0.711-0.005-1.288-0.586-1.287-1.298c0.005-0.716,0.587-1.292,1.299-1.288
					c0.714,0.002,1.291,0.584,1.288,1.297C243.902,134.066,243.319,134.645,242.606,134.643z"/>
				<path d="M216.338,134.529c-0.714-0.002-1.291-0.582-1.288-1.297c0.001-0.713,0.585-1.289,1.3-1.287
					c0.711,0.005,1.289,0.584,1.285,1.299C217.634,133.957,217.05,134.533,216.338,134.529z"/>
			</g>
			<g>
				<circle cx="238.727" cy="142.619" r="1.292"/>
				<circle cx="220.229" cy="123.967" r="1.292"/>
			</g>
			<g>
				<circle cx="224.684" cy="121.063" r="1.291"/>
				<path d="M235.476,145.051c0.261,0.665-0.067,1.414-0.733,1.678c-0.661,0.258-1.412-0.071-1.674-0.733
					c-0.26-0.665,0.068-1.415,0.731-1.675C234.463,144.06,235.214,144.389,235.476,145.051z"/>
			</g>
			<g>
				<path d="M235.921,121.773c-0.289,0.654-1.05,0.952-1.702,0.668c-0.653-0.287-0.953-1.047-0.667-1.703
					c0.287-0.653,1.047-0.953,1.701-0.666S236.208,121.12,235.921,121.773z"/>
				<path d="M225.403,145.85c-0.284,0.653-1.048,0.951-1.701,0.664c-0.652-0.284-0.952-1.045-0.667-1.701
					c0.287-0.652,1.048-0.953,1.7-0.666C225.393,144.434,225.691,145.193,225.403,145.85z"/>
			</g>
			<g>
				<circle cx="241.708" cy="128.499" r="1.292"/>
				<circle cx="217.249" cy="138.088" r="1.291"/>
			</g>
			<g>
				<circle cx="241.516" cy="138.551" r="1.292"/>
				<path d="M216.925,129.219c-0.654-0.286-0.954-1.049-0.667-1.703c0.283-0.65,1.048-0.95,1.7-0.664
					c0.652,0.285,0.953,1.047,0.668,1.703C218.339,129.207,217.576,129.506,216.925,129.219z"/>
			</g>
		</g>
	</g>
</g>
<g id="Van">
	<path fill="#E5E5E5" d="M279.983,80.559l-0.016,3.896l-238.591-1c-0.361-0.002-0.717-0.021-1.063-0.063l-9.826-0.041
		c-0.409,0.001-0.804-0.095-1.157-0.262c-0.941-0.438-1.593-1.4-1.588-2.501c0.004-0.758,0.313-1.449,0.818-1.944
		c0.231-0.229,0.5-0.414,0.799-0.549c0.353-5.194,1.55-14.489,2.964-21.063c1.309-6.123,2.558-13.344,8.406-14.51
		c0.552-0.116,1.142-0.176,1.772-0.174c7.386,0.03,21.29,0.089,21.29,0.089l198.576,0.835c0,0,3.403-0.198,5.439,4.242l0.325,0.877
		l9.896,26.702l1.316,3.558l0.266,0.41l0.001,0.008C279.854,79.511,279.985,80.021,279.983,80.559z"/>
	<g>
		<path fill="#B78906" d="M185.603,69.611c-0.091,0.121-0.207,0.246-0.352,0.385c-1.989,1.93-9.456,3.797-15.901-1.442
			c-6.441-5.24-10.658-2.531-11.984-2.228c-1.65,0.373-6.08-0.42-7.888-5.6s-5.843-9.275-2.47-12.105
			c2.166-1.82,8.793-2.943,14.436-2.553c3.13,0.216,5.956,0.9,7.547,2.188c2.314,1.876,4.226,6.133,6.098,10.046
			c1.734,3.615,3.441,6.939,5.405,7.841c1.2,0.547,2.275,0.94,3.146,1.27C185.528,68.123,186.457,68.545,185.603,69.611z"/>
		<path fill="#E0A30A" d="M184.274,90.904c-0.046,0.078-0.099,0.155-0.161,0.228c-0.774,0.901-0.292,0.774-5.569,4.79
			c-0.961,0.732-2.055,1.322-3.209,1.795c-0.25,0.105-0.5,0.199-0.756,0.289c-2.222,0.801-4.617,1.197-6.738,1.346
			c-2.668,0.189-4.899-0.012-5.802-0.281c-2.085-0.631-4.503-2.662-4.358-6.146c0.098-2.381,0.742-4.109,1.015-6.505
			c0.085,0.132,0.167,0.259,0.249,0.384c3.813,5.674,7.335,6.299,8.005,3.287c0.114-0.521-0.322-6.99-1.754-10.17
			c-0.108-0.238-0.223-0.462-0.344-0.662c-0.029-0.047-0.056-0.092-0.085-0.135c-0.056-0.089-0.115-0.172-0.174-0.246
			c0,0-0.361-2.256-0.033-3.493c0.62,0.126,1.273,0.197,1.949,0.207c0.275-0.003,0.548-0.016,0.817-0.043
			c0.256,1.265-0.072,3.329-0.072,3.329c-0.048,0.062-0.096,0.131-0.137,0.203c-1.639,2.684,0.918,10.611,1.184,11.132
			c0.184,0.358,0.41,0.647,0.673,0.867c0.004,0,0.004,0,0.004,0.003c2.277,1.887,7.309-1.271,10.996-7.848
			c0.096-0.174,0.195-0.352,0.29-0.531c0.512,1.243,1.169,2.465,1.913,3.15C183.535,87.104,185.098,89.502,184.274,90.904z"/>
		<path fill="#E43A43" d="M168.974,91.079c-0.263-0.22-0.489-0.509-0.673-0.867c-0.266-0.521-2.822-8.448-1.184-11.132
			C165.662,81.587,168.444,89.326,168.974,91.079z"/>
		<path fill="#EFBFA5" d="M166.949,90.09c-0.67,3.012-4.192,2.387-8.005-3.287c-0.082-0.125-0.164-0.252-0.249-0.384
			c-2.298-3.544-4.355-7.728-5.209-10.988c-1.067-4.089,0.15-6.062,1.86-6.946c0.264-0.137,0.539-0.248,0.821-0.333
			c0.137-0.046,0.275-0.083,0.417-0.115c-0.145,0.05-0.23,0.103-0.244,0.158c-0.003,0.017-0.006,0.032-0.006,0.046
			c0,0.23,0.394,0.389,0.972,0.482c0.022,0.004,0.046,0.006,0.072,0.01c0.226,0.072,1.23,0.912,1.565,1.509
			c0.288,0.509,0.453,1.149,0.59,1.536c0.023,0.066,0.043,0.123,0.066,0.172c0.102,0.262,0.24,0.514,0.4,0.754
			c0.867,1.283,2.527,2.274,4.559,2.681c-0.328,1.237,0.033,3.493,0.033,3.493c0.059,0.074,0.118,0.157,0.174,0.246
			c0.029,0.043,0.056,0.088,0.085,0.135c0.121,0.2,0.235,0.424,0.344,0.662C166.627,83.1,167.063,89.568,166.949,90.09z"/>
		<path fill="#EFBFA5" d="M160.431,68.207l-0.003,0.035l-0.096,0.984l-0.331,3.477c-0.16-0.24-0.299-0.492-0.4-0.754
			c-0.023-0.049-0.043-0.105-0.066-0.172c-0.137-0.387-0.302-1.027-0.59-1.536c-0.335-0.597-1.34-1.437-1.565-1.509
			c-0.026-0.004-0.05-0.006-0.072-0.01c-0.578-0.094-0.972-0.252-0.972-0.482c0-0.014,0.003-0.029,0.006-0.046
			c0.014-0.056,0.1-0.108,0.244-0.158c0,0,0,0,0.003,0c0.81-0.19,1.628-0.214,2.313-0.161
			C159.627,67.932,160.194,68.076,160.431,68.207z"/>
		<path fill="#EFBFA5" d="M183.283,75.431c-0.568,2.168-1.668,4.749-3.02,7.272c-0.095,0.18-0.194,0.357-0.29,0.531
			c-3.688,6.576-8.719,9.734-10.996,7.848c0-0.003,0-0.003-0.004-0.003c-0.263-0.22-0.489-0.509-0.673-0.867
			c-0.266-0.521-2.822-8.448-1.184-11.132c0.041-0.072,0.089-0.142,0.137-0.203c0,0,0.328-2.064,0.072-3.329
			c2.951-0.262,5.344-1.702,6.092-3.599c0.156-0.344,0.324-1.113,0.659-1.708c0.167-0.298,0.502-0.655,0.824-0.952
			c0.321-0.295,0.627-0.521,0.741-0.557c0.023-0.004,0.046-0.006,0.069-0.01h0.003c0.292-0.047,0.538-0.111,0.709-0.193
			l-0.053-0.197l-0.033-0.125c0.036-0.02,0.082-0.043,0.135-0.063c0.036-0.014,0.075-0.027,0.118-0.042
			c0.463-0.151,1.311-0.286,2.262-0.247C181.462,67.971,184.857,69.402,183.283,75.431z"/>
		<path fill="#EFBFA5" d="M172.61,60.674c-0.541,2.511-1.61,5.543-2.504,6.183c-0.896,0.638-4.653,0.903-6.538,0.519
			c-1.883-0.384-5.435-3.305-5.414-4.676c0.009-0.805,0.128-3.476,0.177-5.963c0.004-0.139,0.004-0.279,0.007-0.414
			c0.026-1.611,0.017-3.096-0.075-3.876l1.355-2.376l12.319,3.029C171.938,53.1,173.156,58.164,172.61,60.674z"/>
		<path fill="#E0A30A" d="M178.044,53.791c-0.014,0.035-0.021,0.065-0.034,0.1c-0.408,1.066-1.015,2.193-1.795,3.402
			c-0.316,0.49-0.697,0.818-1.127,1.01c-1.872-3.913-3.783-8.17-6.098-10.046c-1.591-1.288-4.417-1.973-7.547-2.188
			c1.891-2.055,5.726-6.207,12.184-2.086C178.321,46.979,179.466,49.973,178.044,53.791z"/>
		<path fill="#E0A30A" d="M185.603,69.611c0.854-1.066-0.074-1.488-1.963-2.198c-0.871-0.329-1.946-0.723-3.146-1.27
			c-1.964-0.901-3.671-4.226-5.405-7.841c0.43-0.191,0.811-0.52,1.127-1.01c0.78-1.209,1.387-2.336,1.795-3.402
			c0.013-0.034,0.021-0.064,0.034-0.1l3.004,7.313c0.771,1.005,1.75,1.76,3.115,2.21C187.73,64.484,187.414,67.678,185.603,69.611z"
			/>
		<path fill="#EFBFA5" d="M175.631,72.518"/>
		<path fill="#CE9D85" d="M161.245,88.037c-0.172-0.758-0.255-1.538-0.324-2.313c-0.031-0.39-0.06-0.777-0.079-1.167
			c-0.014-0.391-0.024-0.781-0.024-1.172c-0.003-0.783,0.036-1.567,0.143-2.357c0.063-0.395,0.127-0.791,0.289-1.189l0.106-0.273
			c0.035-0.088,0.079-0.185,0.09-0.254c0.021-0.074,0.042-0.148,0.046-0.23c0.016-0.081,0.014-0.158,0.009-0.234
			c-0.011-0.309-0.177-0.582-0.411-0.842c-0.234-0.262-0.536-0.49-0.837-0.793c-0.292-0.32-0.514-0.624-0.754-0.943
			c-0.233-0.317-0.458-0.641-0.669-0.976c-0.422-0.669-0.817-1.36-1.096-2.133c-0.133-0.388-0.242-0.802-0.205-1.269
			c0.018-0.23,0.096-0.488,0.263-0.693c0.164-0.209,0.395-0.336,0.616-0.412l0.053-0.02l0.036,0.005
			c0.213,0.024,0.274,0.085,0.384,0.142c0.078,0.066,0.175,0.128,0.232,0.203c0.139,0.143,0.236,0.299,0.333,0.454
			c0.095,0.155,0.16,0.319,0.24,0.478c0.065,0.162,0.12,0.327,0.181,0.49l0.045,0.121l0.041,0.097
			c0.034,0.073,0.062,0.161,0.101,0.224c0.079,0.116,0.144,0.239,0.253,0.359c0.093,0.125,0.21,0.233,0.323,0.345
			c0.114,0.111,0.245,0.206,0.37,0.31c0.134,0.092,0.262,0.191,0.402,0.275c0.14,0.084,0.275,0.177,0.422,0.25
			c0.286,0.163,0.588,0.301,0.895,0.424c0.151,0.064,0.311,0.113,0.467,0.17c0.158,0.042,0.316,0.1,0.479,0.129
			c0.161,0.039,0.324,0.066,0.489,0.09l0.248,0.012c0.083,0,0.165-0.014,0.249-0.021c-0.081,0.018-0.163,0.043-0.246,0.053
			l-0.254,0.016c-0.169-0.004-0.339-0.008-0.506-0.035c-0.17-0.016-0.334-0.059-0.502-0.088c-0.162-0.045-0.329-0.079-0.491-0.132
			c-0.324-0.098-0.646-0.21-0.957-0.353c-0.158-0.064-0.31-0.146-0.462-0.225s-0.295-0.175-0.444-0.263
			c-0.14-0.103-0.287-0.196-0.42-0.311c-0.134-0.113-0.27-0.226-0.388-0.362c-0.126-0.121-0.234-0.285-0.341-0.445
			c-0.052-0.08-0.077-0.153-0.117-0.23l-0.062-0.133l-0.046-0.111c-0.064-0.148-0.122-0.3-0.189-0.444
			c-0.077-0.136-0.144-0.283-0.229-0.409c-0.086-0.125-0.173-0.249-0.273-0.342c-0.046-0.059-0.101-0.08-0.147-0.124l-0.068-0.034
			c-0.012-0.01-0.016-0.004-0.022-0.008l-0.01-0.003c0,0,0.016,0.003,0.022,0l0.09-0.014c-0.291,0.111-0.447,0.3-0.46,0.618
			c-0.019,0.311,0.074,0.666,0.199,1.006c0.256,0.688,0.639,1.354,1.051,1.992c0.209,0.319,0.427,0.633,0.649,0.944
			c0.222,0.304,0.459,0.628,0.689,0.884c0.241,0.253,0.561,0.499,0.844,0.816c0.281,0.311,0.536,0.752,0.541,1.231
			c0.005,0.117,0.001,0.233-0.021,0.345c-0.012,0.113-0.045,0.226-0.079,0.337c-0.032,0.12-0.074,0.2-0.112,0.291l-0.113,0.267
			c-0.14,0.318-0.221,0.692-0.295,1.059c-0.142,0.744-0.203,1.514-0.256,2.283c-0.046,0.77-0.066,1.543-0.071,2.317
			c0.001,0.388,0.006,0.774,0.021,1.161C161.191,87.264,161.202,87.65,161.245,88.037z"/>
		<path fill="#CE9D85" d="M174.454,88.449c-0.016-0.422-0.131-0.814-0.271-1.201c-0.142-0.385-0.319-0.757-0.506-1.123
			c-0.192-0.364-0.396-0.721-0.608-1.074s-0.429-0.703-0.654-1.048c-0.452-0.689-0.913-1.374-1.395-2.046l-0.723-1.006l-0.364-0.502
			l-0.046-0.063l-0.033-0.049l-0.021-0.033l-0.083-0.131c-0.056-0.074-0.112-0.207-0.164-0.326
			c-0.054-0.121-0.073-0.252-0.095-0.383c-0.006-0.138-0.008-0.275,0.031-0.408c0.065-0.269,0.211-0.5,0.372-0.67
			c0.321-0.354,0.683-0.584,0.998-0.832c0.157-0.121,0.303-0.246,0.425-0.374l0.413-0.456c0.271-0.31,0.541-0.617,0.798-0.933
			c0.514-0.632,1-1.292,1.367-1.991c0.179-0.348,0.332-0.714,0.364-1.055c0.029-0.346-0.095-0.58-0.399-0.725l0.087,0.023
			c0.006,0.002,0.021,0.001,0.021,0.001l-0.01,0.003c-0.008,0.003-0.011-0.003-0.024,0.006l-0.071,0.025
			c-0.053,0.041-0.109,0.057-0.16,0.11c-0.11,0.085-0.208,0.198-0.307,0.317c-0.096,0.119-0.175,0.258-0.265,0.387
			c-0.08,0.139-0.151,0.285-0.229,0.427l-0.056,0.106l-0.074,0.127c-0.046,0.072-0.077,0.143-0.136,0.217
			c-0.122,0.148-0.245,0.303-0.383,0.41c-0.128,0.127-0.273,0.225-0.416,0.328c-0.144,0.1-0.298,0.18-0.446,0.27
			c-0.156,0.073-0.307,0.157-0.466,0.221c-0.16,0.063-0.317,0.131-0.48,0.181c-0.321,0.114-0.652,0.197-0.984,0.267
			c-0.165,0.037-0.334,0.057-0.501,0.086c-0.17,0.014-0.336,0.042-0.506,0.043c-0.169,0.012-0.34,0-0.508-0.01l-0.25-0.039
			c-0.083-0.018-0.162-0.051-0.242-0.074c0.083,0.016,0.164,0.037,0.246,0.045l0.248,0.012c0.167-0.008,0.332-0.02,0.496-0.045
			c0.164-0.014,0.327-0.055,0.489-0.084c0.161-0.041,0.323-0.074,0.48-0.125c0.317-0.094,0.63-0.201,0.93-0.338
			c0.154-0.061,0.297-0.139,0.444-0.211c0.146-0.071,0.285-0.158,0.427-0.237c0.133-0.092,0.273-0.173,0.397-0.274
			c0.124-0.1,0.25-0.198,0.355-0.314c0.12-0.107,0.195-0.227,0.284-0.337c0.044-0.058,0.08-0.144,0.12-0.214l0.05-0.092l0.055-0.117
			c0.075-0.156,0.146-0.314,0.227-0.471c0.095-0.15,0.175-0.307,0.282-0.451c0.11-0.147,0.223-0.292,0.372-0.422
			c0.064-0.068,0.166-0.121,0.249-0.18c0.113-0.049,0.179-0.104,0.392-0.107h0.034l0.052,0.022c0.227,0.1,0.46,0.267,0.601,0.511
			c0.142,0.244,0.176,0.52,0.164,0.762c-0.036,0.49-0.211,0.903-0.398,1.297c-0.19,0.391-0.421,0.752-0.66,1.102
			s-0.493,0.688-0.758,1.015c-0.264,0.329-0.532,0.651-0.814,0.962l-0.425,0.461c-0.165,0.172-0.339,0.313-0.509,0.443
			c-0.339,0.258-0.682,0.482-0.92,0.744c-0.241,0.266-0.325,0.521-0.212,0.822c0.103,0.294,0.392,0.65,0.614,0.991
			c0.235,0.343,0.468,0.688,0.693,1.037c0.451,0.698,0.898,1.401,1.308,2.13c0.207,0.361,0.405,0.729,0.597,1.1
			c0.189,0.371,0.362,0.752,0.527,1.137c0.157,0.388,0.307,0.779,0.416,1.184C174.424,87.609,174.483,88.036,174.454,88.449z"/>
		<path fill="#70573A" d="M162.725,58.936c-0.046,0.324-0.11,0.645-0.186,0.961c-0.073,0.317-0.153,0.631-0.243,0.943l-0.01,0.035
			l-0.035,0.037c-0.128,0.137-0.258,0.27-0.391,0.4c-0.132,0.132-0.262,0.264-0.398,0.391l0.018-0.258
			c0.176,0.227,0.347,0.456,0.512,0.689l-0.141-0.066c0.313,0.002,0.629,0.012,0.944,0.029l-0.093,0.06
			c0.067-0.112,0.14-0.231,0.191-0.354c0.028-0.061,0.054-0.123,0.066-0.188c0.014-0.061,0.021-0.137-0.046-0.171
			c0.033,0.007,0.072,0.027,0.086,0.063c0.02,0.035,0.026,0.074,0.028,0.111c0.005,0.075-0.002,0.148-0.015,0.219
			c-0.026,0.144-0.064,0.279-0.118,0.417l-0.02,0.05l-0.072,0.009c-0.313,0.042-0.628,0.074-0.941,0.099l-0.079,0.008l-0.063-0.072
			c-0.188-0.217-0.369-0.438-0.547-0.663l-0.105-0.134l0.123-0.125c0.13-0.133,0.266-0.26,0.4-0.389
			c0.134-0.129,0.27-0.256,0.409-0.38l-0.046,0.072c0.111-0.306,0.229-0.606,0.355-0.907
			C162.436,59.523,162.571,59.227,162.725,58.936z"/>
		<g>
			<path fill="#E43A43" d="M165.132,63.76c-0.016,0.105-0.039,0.221-0.089,0.338c-0.022,0.059-0.043,0.121-0.065,0.185
				c-0.029,0.062-0.068,0.12-0.102,0.183c-0.066,0.128-0.174,0.244-0.279,0.361c-0.121,0.105-0.252,0.207-0.41,0.272
				c-0.076,0.04-0.158,0.06-0.236,0.083c-0.08,0.025-0.162,0.036-0.239,0.039c-0.161,0.022-0.313,0.003-0.45-0.017
				c-0.281-0.05-0.512-0.155-0.698-0.25c-0.371-0.196-0.578-0.397-0.578-0.397s0.072-0.002,0.193,0.004
				c0.121,0.004,0.295,0.013,0.492,0.032c0.049,0.004,0.103,0.008,0.157,0.011c0.011,0.003,0.021,0.003,0.029,0.003
				c0.041,0.004,0.082,0.007,0.125,0.01c0.108,0.007,0.221,0.011,0.329,0.007c0.108-0.003,0.22-0.007,0.317-0.032
				c0.053-0.004,0.102-0.021,0.147-0.036c0.05-0.018,0.099-0.027,0.142-0.054c0.092-0.036,0.171-0.099,0.26-0.153
				c0.072-0.076,0.16-0.131,0.227-0.223c0.035-0.041,0.072-0.08,0.108-0.119c0.029-0.045,0.062-0.088,0.092-0.131
				c0.003-0.003,0.006-0.01,0.01-0.014c0.003-0.006,0.011-0.01,0.013-0.016c0.057-0.076,0.109-0.152,0.154-0.224
				c0.05-0.083,0.108-0.154,0.148-0.227c0.039-0.072,0.082-0.132,0.114-0.181c0.069-0.102,0.111-0.16,0.111-0.16
				s0.01,0.069,0.014,0.193C165.171,63.373,165.178,63.55,165.132,63.76z"/>
			<path fill="#E43A43" d="M164.626,63.846c-0.002,0.006-0.01,0.01-0.013,0.016c-0.004,0.004-0.007,0.011-0.01,0.014
				c-0.03,0.043-0.063,0.086-0.092,0.131c-0.036,0.039-0.073,0.078-0.108,0.119c-0.066,0.092-0.154,0.146-0.227,0.223
				c-0.089,0.055-0.168,0.117-0.26,0.153c-0.043,0.026-0.092,0.036-0.142,0.054c-0.046,0.016-0.095,0.032-0.147,0.036
				c-0.098,0.025-0.209,0.029-0.317,0.032c-0.108,0.004-0.221,0-0.329-0.007c-0.043-0.003-0.084-0.006-0.125-0.01
				c-0.009,0-0.019,0-0.029-0.003c0.142-0.315,0.563-0.598,0.948-0.423C163.775,64.181,164.075,63.547,164.626,63.846z"/>
		</g>
		<circle fill="#CE9D85" cx="168.021" cy="61.898" r="1.415"/>
		<circle fill="#CE9D85" cx="159.446" cy="61.652" r="1.005"/>
		<g>
			<polyline fill="#CE9D85" points="162.523,62.699 162.688,63.643 162.913,63.479 162.605,62.657 			"/>
			<path fill="#CE9D85" d="M162.257,62.74l0.041,0.82c0,0,0.185,0.102,0.164,0.041c-0.021-0.063-0.116-0.854-0.116-0.854
				L162.257,62.74z"/>
		</g>
		<g>
			<path fill="#CE9D85" d="M159.775,55.055c-0.088,0.352-0.21,0.789-0.348,1.146c-0.368,0.357-0.762,0.449-1.097,0.535
				c0.004-0.139,0.004-0.279,0.007-0.414C158.958,56.06,159.522,55.658,159.775,55.055z"/>
			<path fill="#CE9D85" d="M162.388,56.244c-0.886,0.633-2.265,0.984-2.675,0.958c-0.476-0.029-0.656-0.368-0.656-0.368
				c0.096-0.029,2.534,0.06,3.2-1.07C162.257,55.764,162.394,55.958,162.388,56.244z"/>
		</g>
		<g>
			<path fill="#CE9D85" d="M170.03,59.93c0,0,0.021-0.063,0.083-0.165c0.062-0.099,0.16-0.237,0.321-0.372
				c0.08-0.067,0.176-0.139,0.304-0.184c0.122-0.045,0.312-0.075,0.48,0.033c0.163,0.105,0.239,0.267,0.285,0.408
				c0.021,0.074,0.035,0.141,0.047,0.22l0.025,0.191c0.024,0.276,0.022,0.546-0.028,0.803c-0.046,0.255-0.136,0.491-0.258,0.665
				c-0.117,0.178-0.264,0.289-0.368,0.344c-0.106,0.057-0.176,0.063-0.174,0.066c0,0,0.052-0.045,0.118-0.134
				c0.068-0.087,0.145-0.222,0.201-0.389c0.057-0.169,0.089-0.375,0.104-0.6c0.007-0.112,0.003-0.229,0.004-0.349
				c-0.001-0.121-0.014-0.24-0.021-0.359l-0.019-0.193c-0.006-0.049-0.015-0.107-0.027-0.156c-0.022-0.099-0.059-0.18-0.099-0.213
				c-0.036-0.031-0.102-0.054-0.189-0.039c-0.085,0.017-0.177,0.046-0.258,0.084C170.234,59.75,170.03,59.93,170.03,59.93z"/>
			<ellipse fill="#CE9D85" cx="170.43" cy="60.791" rx="0.359" ry="0.555"/>
		</g>
		<g>
			<path fill="#70573A" d="M158.838,57.748c0,0,0.05,0.016,0.129,0.046c0.078,0.032,0.187,0.074,0.302,0.126
				c0.241,0.096,0.509,0.191,0.779,0.227c0.136,0.016,0.274,0.028,0.417,0.023c0.071,0.006,0.142-0.004,0.21-0.004
				c0.069,0.001,0.137-0.006,0.201-0.008c0.063-0.008,0.127-0.002,0.181-0.01c0.054-0.006,0.104-0.004,0.146-0.006
				c0.086-0.002,0.139,0.003,0.139,0.003s-0.025,0.044-0.077,0.112c-0.053,0.068-0.13,0.167-0.25,0.251
				c-0.058,0.044-0.121,0.095-0.199,0.131c-0.077,0.037-0.157,0.081-0.25,0.104c-0.182,0.061-0.396,0.077-0.607,0.052
				c-0.104-0.021-0.211-0.038-0.307-0.082c-0.1-0.036-0.188-0.087-0.27-0.141c-0.16-0.112-0.28-0.245-0.359-0.37
				c-0.08-0.125-0.125-0.24-0.15-0.321C158.847,57.799,158.838,57.748,158.838,57.748z"/>
			<polygon fill="#70573A" points="158.852,58.61 159.248,58.188 159.728,58.433 159.617,58.953 160.041,58.583 160.315,59.007 
				160.52,58.528 			"/>
		</g>
		<g>
			<path fill="#70573A" d="M163.763,58.47c0,0,0.276-0.046,0.671-0.038c0.097-0.007,0.199-0.016,0.305-0.016
				c0.107-0.006,0.217,0.004,0.331-0.01c0.115-0.008,0.231-0.014,0.351-0.016c0.117-0.005,0.233-0.026,0.351-0.035
				c0.12-0.002,0.232-0.029,0.344-0.051c0.112-0.024,0.23-0.028,0.331-0.068c0.104-0.031,0.208-0.057,0.311-0.08
				c0.094-0.04,0.188-0.072,0.276-0.104c0.088-0.031,0.173-0.057,0.239-0.094c0.069-0.035,0.136-0.063,0.188-0.085
				c0.11-0.045,0.179-0.068,0.179-0.068s-0.028,0.062-0.091,0.166c-0.031,0.051-0.069,0.115-0.119,0.183
				c-0.046,0.075-0.11,0.145-0.189,0.213c-0.076,0.072-0.162,0.15-0.257,0.229c-0.104,0.061-0.217,0.125-0.335,0.188
				c-0.118,0.07-0.251,0.102-0.386,0.141c-0.136,0.043-0.274,0.075-0.416,0.083c-0.14,0.009-0.281,0.029-0.417,0.021
				c-0.137-0.01-0.271-0.025-0.398-0.042c-0.127-0.011-0.25-0.054-0.364-0.083c-0.113-0.033-0.219-0.07-0.315-0.105
				c-0.183-0.078-0.327-0.162-0.43-0.224C163.817,58.512,163.763,58.47,163.763,58.47z"/>
			<path fill="#70573A" d="M164.349,58.652l0.137,0.711l0.37-0.604c0,0,0.396,0.028,0.396,0.07c0,0.04,0.451,0.504,0.451,0.504
				l0.205-0.614l0.848,0.397l0.124-0.713L164.349,58.652z"/>
		</g>
		<path fill="#3E5D84" d="M174.468,67.436c0,0.061-0.078,0.115-0.223,0.168c-0.164-0.04-0.42-0.076-0.748-0.107
			c-0.007,0-0.014-0.005-0.023-0.005c-0.42-0.042-0.961-0.078-1.599-0.11c-1.472-0.076-3.459-0.125-5.645-0.125
			c-2.183,0-4.168,0.049-5.641,0.125c-0.637,0.032-1.179,0.068-1.599,0.11c-0.01,0-0.016,0.005-0.023,0.005
			c-0.328,0.031-0.584,0.067-0.748,0.107c-0.145-0.053-0.223-0.107-0.223-0.168c0-0.121,0.35-0.234,0.971-0.338
			c0.008-0.003,0.014-0.003,0.023-0.003c0.42-0.069,0.962-0.132,1.599-0.185c1.473-0.121,3.458-0.193,5.641-0.193
			c2.186,0,4.173,0.072,5.645,0.193c0.638,0.053,1.179,0.115,1.599,0.185c0.01,0,0.017,0,0.023,0.003
			C174.117,67.201,174.468,67.314,174.468,67.436z"/>
		<path fill="#FFFFFF" d="M174.245,67.603c-0.252,0.095-0.712,0.181-1.332,0.257c-0.184,0.018-0.381,0.041-0.594,0.061
			c-0.129,0.014-0.263,0.027-0.401,0.037c-1.276,0.107-2.943,0.18-4.794,0.197c-0.293,0.002-0.591,0.002-0.893,0.002
			c-0.303,0-0.598,0-0.893-0.002c-2.049-0.02-3.873-0.105-5.192-0.234c-0.032-0.002-0.065-0.006-0.099-0.008c0,0-0.004,0-0.007,0
			c-0.174-0.018-0.335-0.037-0.489-0.053c-0.619-0.076-1.08-0.162-1.332-0.257c0.164-0.04,0.42-0.077,0.748-0.108
			c0.008,0,0.014-0.004,0.023-0.004c0.42-0.043,0.962-0.078,1.599-0.111c1.473-0.076,3.458-0.125,5.642-0.125
			c2.186,0,4.172,0.049,5.644,0.125c0.638,0.033,1.179,0.068,1.6,0.111c0.01,0,0.016,0.004,0.022,0.004
			C173.825,67.525,174.081,67.563,174.245,67.603z"/>
		<g>
			<g>
				<g>
					<polygon fill="#E5E3E4" points="170.815,67.082 168.885,70.273 165.806,68.408 167.735,65.219 169.044,64.257 169.144,64.184 
						171.08,65.356 171.061,65.487 					"/>
				</g>
				<path fill="#E5E3E4" d="M167.735,65.219l-0.114,0.19l3.079,1.864l0.115-0.191L167.735,65.219z"/>
				<path fill="#E5E3E4" d="M171.08,65.356l-0.113-0.069l-1.377,0.605l-0.213,0.094l-0.016-0.236l-0.097-1.492l-0.121-0.074
					l-0.1,0.073l0.118,1.822l-0.001,0.001l0.016,0.236l0.213-0.094h0.004l1.667-0.735L171.08,65.356z"/>
				
					<rect x="168.609" y="64.37" transform="matrix(0.8559 0.5172 -0.5172 0.8559 58.986 -77.6083)" fill="#E5E3E4" width="0.268" height="5.325"/>
			</g>
			<path fill="#E0A30A" d="M170.081,68.295l-1.196,1.979l-3.079-1.865l1.168-1.932c0.417,0.142,0.518,0.324,0.771,0.825
				c0.084,0.161,0.232,0.312,0.412,0.437c0.073,0.051,0.149,0.098,0.229,0.141c0.368,0.205,0.78,0.316,0.948,0.289
				C169.562,68.125,169.888,68.174,170.081,68.295z"/>
		</g>
		<path fill="#FFFFFF" d="M176.177,68.389c-0.025,0.004-0.051,0.008-0.076,0.012c-0.124,0.038-0.453,0.283-0.801,0.603
			s-0.709,0.706-0.891,1.028c-0.362,0.642-0.542,1.476-0.713,1.844c-0.809,2.05-3.394,3.607-6.582,3.891
			c-0.29,0.028-0.586,0.043-0.883,0.047c-0.73-0.012-1.437-0.09-2.106-0.225c-2.195-0.439-3.99-1.51-4.927-2.896
			c-0.174-0.259-0.322-0.533-0.433-0.816c-0.024-0.052-0.046-0.113-0.07-0.185c-0.149-0.417-0.326-1.109-0.639-1.659
			c-0.362-0.645-1.447-1.554-1.691-1.631c-0.028-0.004-0.054-0.008-0.078-0.012c0.368,0.029,1.259,0.029,2.17,0.252
			c0.327,0.104,0.695,0.203,1.1,0.295c1.705,0.376,4.067,0.609,6.675,0.609c3.228,0,6.071-0.358,7.777-0.904
			c0.135-0.031,0.27-0.061,0.404-0.084c0.064-0.014,0.131-0.025,0.195-0.036l0.159-0.022c0.354-0.049,0.682-0.07,0.943-0.084
			c0.047-0.003,0.089-0.003,0.132-0.008c0.092-0.002,0.17-0.006,0.238-0.01C176.116,68.393,176.147,68.393,176.177,68.389z"/>
		<path fill="#3E5D84" d="M177.215,67.941c-0.031,0.094-0.128,0.172-0.27,0.238c-0.185,0.09-0.45,0.16-0.767,0.209h-0.002
			c-0.029,0.004-0.061,0.004-0.096,0.008c-0.068,0.004-0.146,0.008-0.238,0.01c-0.043,0.005-0.085,0.005-0.132,0.008
			c-0.262,0.014-0.589,0.035-0.943,0.084l-0.159,0.022c-0.064,0.011-0.131,0.022-0.195,0.036c-0.135,0.023-0.27,0.053-0.404,0.084
			c-1.706,0.546-4.55,0.904-7.777,0.904c-2.607,0-4.97-0.233-6.675-0.609c-0.404-0.092-0.772-0.191-1.1-0.295
			c-0.911-0.223-1.802-0.223-2.17-0.252c-0.624-0.1-1.05-0.272-1.05-0.521c0-0.014,0.003-0.031,0.007-0.049
			c0.015-0.061,0.106-0.117,0.263-0.17c0,0,0,0,0.003,0c0.277-0.092,0.748-0.178,1.284-0.256c0.703-0.104,1.521-0.195,2.174-0.295
			c-0.621,0.1-0.973,0.217-0.973,0.338c0,0.014,0.004,0.027,0.015,0.039c0.089,0.145,0.649,0.275,1.544,0.383
			c0.035,0.004,0.07,0.01,0.105,0.014c0.021,0.004,0.039,0.004,0.062,0.008c0.056,0.007,0.112,0.013,0.174,0.018
			c0.081,0.01,0.166,0.018,0.251,0.025c1.507,0.145,3.674,0.233,6.086,0.233c2.411,0,4.582-0.089,6.089-0.233
			c0.209-0.02,0.409-0.039,0.593-0.064c0.315-0.039,0.592-0.078,0.815-0.121c0.237-0.047,0.422-0.096,0.55-0.145
			c0.032-0.015,0.058-0.025,0.081-0.039c0.004,0,0.004,0,0.004,0c0.025-0.015,0.042-0.025,0.058-0.041
			c0.007-0.002,0.014-0.008,0.021-0.021c0.011-0.006,0.018-0.017,0.021-0.028c0.004-0.01,0.007-0.017,0.007-0.027
			c0-0.093-0.195-0.178-0.557-0.259l-0.106-0.022c-0.061-0.014-0.128-0.027-0.194-0.038c0.631,0.093,1.394,0.181,2.06,0.276
			c0.671,0.099,1.237,0.201,1.454,0.326c0.058,0.031,0.089,0.064,0.096,0.1C177.233,67.861,177.229,67.902,177.215,67.941z"/>
		<g>
			<path d="M162.625,72.913c-0.101,0.022-0.204,0.036-0.308,0.044c-0.105,0.005-0.205,0.009-0.3,0.009
				c-0.097,0.001-0.177,0.001-0.242,0.001c-0.034,0-0.082-0.001-0.145-0.005c-0.063-0.002-0.122-0.005-0.182-0.011
				c-0.059-0.004-0.132-0.011-0.222-0.02c-0.019-0.144-0.036-0.273-0.054-0.394c-0.017-0.118-0.037-0.257-0.062-0.411
				c-0.022-0.156-0.047-0.317-0.072-0.485c-0.025-0.169-0.053-0.337-0.083-0.507c-0.029-0.171-0.057-0.33-0.083-0.476
				c-0.016-0.091-0.024-0.172-0.025-0.244c0-0.072,0.003-0.132,0.01-0.183c0.009-0.047,0.016-0.086,0.027-0.115
				c0.009-0.029,0.016-0.045,0.019-0.053l0.272,0.043l0.456,2.584c0.054,0,0.138,0,0.251,0c0.114-0.001,0.232-0.002,0.355-0.004
				c0.124-0.002,0.238-0.005,0.347-0.01c0.108-0.002,0.187-0.007,0.231-0.015l0.083,0.142
				C162.817,72.854,162.725,72.891,162.625,72.913z"/>
			<path d="M163.671,71.648c-0.019,0.119-0.057,0.219-0.116,0.301c-0.06,0.08-0.136,0.143-0.228,0.191
				c-0.092,0.045-0.193,0.074-0.305,0.084c0.051,0.15,0.132,0.269,0.241,0.352c0.078,0.063,0.149,0.1,0.212,0.109
				c0.063,0.012,0.119,0.004,0.17-0.023c0.05-0.025,0.095-0.07,0.134-0.129c0.038-0.059,0.072-0.125,0.099-0.201l0.142,0.051
				c-0.011,0.152-0.034,0.271-0.07,0.359c-0.036,0.086-0.085,0.148-0.142,0.189c-0.057,0.038-0.127,0.059-0.209,0.059
				c-0.079,0-0.167-0.011-0.263-0.033c-0.109-0.023-0.208-0.07-0.293-0.137c-0.086-0.066-0.158-0.145-0.218-0.231
				c-0.06-0.089-0.107-0.179-0.142-0.272c-0.035-0.094-0.054-0.18-0.058-0.258c-0.007-0.133,0.007-0.254,0.04-0.367
				c0.034-0.111,0.087-0.209,0.157-0.291c0.072-0.084,0.161-0.149,0.27-0.199c0.107-0.051,0.231-0.082,0.37-0.094
				c0.046-0.002,0.081,0.008,0.103,0.037c0.023,0.027,0.045,0.058,0.067,0.09C163.677,71.392,163.688,71.531,163.671,71.648z
				 M163.239,71.512c-0.048,0.039-0.09,0.086-0.127,0.139c-0.038,0.053-0.067,0.109-0.09,0.169s-0.033,0.12-0.033,0.179
				c0.063-0.016,0.124-0.039,0.186-0.072c0.06-0.031,0.11-0.072,0.15-0.123c0.041-0.047,0.068-0.104,0.083-0.168
				c0.015-0.063,0.008-0.133-0.018-0.209C163.337,71.443,163.287,71.471,163.239,71.512z"/>
			<path d="M166.433,70.734c-0.009,0.059-0.019,0.118-0.028,0.18c-0.028,0.197-0.073,0.381-0.133,0.554
				c-0.061,0.173-0.129,0.337-0.207,0.495c-0.077,0.156-0.16,0.311-0.25,0.458c-0.088,0.146-0.177,0.292-0.267,0.435
				c-0.021,0.035-0.054,0.063-0.097,0.084c-0.042,0.021-0.104,0.023-0.186,0.008c-0.009-0.162-0.019-0.322-0.025-0.483
				c-0.009-0.161-0.03-0.326-0.068-0.499c-0.025-0.123-0.06-0.254-0.103-0.391c-0.045-0.137-0.097-0.273-0.154-0.414
				c-0.059-0.14-0.125-0.277-0.198-0.41c-0.075-0.137-0.154-0.262-0.238-0.379c-0.031-0.031-0.071-0.039-0.12-0.021
				c-0.047,0.016-0.096,0.039-0.143,0.064l-0.174-0.174c0.043-0.033,0.102-0.059,0.182-0.08c0.08-0.021,0.16-0.031,0.242-0.033
				c0.084-0.001,0.163,0.01,0.236,0.033c0.076,0.025,0.13,0.068,0.167,0.128c0.106,0.178,0.197,0.358,0.272,0.545
				s0.139,0.372,0.188,0.558c0.051,0.184,0.09,0.365,0.118,0.544c0.027,0.179,0.046,0.349,0.055,0.515
				c0.061-0.14,0.12-0.285,0.179-0.436c0.06-0.15,0.111-0.307,0.157-0.467s0.081-0.326,0.105-0.496
				c0.026-0.171,0.035-0.346,0.028-0.526c-0.002-0.058-0.019-0.102-0.049-0.13c-0.029-0.029-0.064-0.047-0.103-0.057
				c-0.039-0.008-0.078-0.012-0.119-0.01c-0.041,0.003-0.073,0.006-0.096,0.009l-0.104-0.181c0.034-0.014,0.084-0.023,0.149-0.033
				s0.131-0.017,0.201-0.02s0.138,0,0.205,0.008c0.066,0.01,0.119,0.023,0.157,0.047c0.083,0.049,0.139,0.111,0.169,0.184
				c0.029,0.072,0.047,0.141,0.051,0.209C166.442,70.615,166.44,70.676,166.433,70.734z"/>
			<path d="M168.191,70.105c-0.035,0.076-0.062,0.165-0.082,0.266c-0.021,0.104-0.034,0.212-0.041,0.328
				c-0.007,0.118-0.009,0.234-0.006,0.347c0.003,0.114,0.011,0.224,0.024,0.325c0.013,0.104,0.029,0.191,0.049,0.262l0.521-0.073
				l0.07,0.151l-0.53,0.204c0.01,0.036,0.024,0.095,0.045,0.179c0.02,0.084,0.043,0.17,0.07,0.256
				c0.026,0.084,0.057,0.162,0.09,0.227c0.033,0.066,0.066,0.1,0.1,0.1c0.055,0,0.096-0.016,0.123-0.049
				c0.028-0.033,0.047-0.072,0.059-0.119s0.018-0.098,0.021-0.152c0.004-0.053,0.008-0.102,0.01-0.146l0.164,0.007
				c0.008,0.104,0.008,0.204-0.003,0.298c-0.01,0.094-0.031,0.178-0.065,0.25c-0.033,0.074-0.08,0.133-0.144,0.176
				c-0.063,0.045-0.143,0.066-0.237,0.066c-0.102,0-0.187-0.04-0.255-0.123c-0.067-0.081-0.126-0.18-0.173-0.289
				c-0.049-0.111-0.086-0.226-0.115-0.344s-0.053-0.211-0.068-0.282l-0.494,0.062c-0.021,0.082-0.062,0.178-0.117,0.289
				c-0.057,0.109-0.12,0.217-0.191,0.32c-0.071,0.104-0.147,0.191-0.229,0.264c-0.081,0.072-0.161,0.107-0.239,0.109
				c-0.02,0-0.043-0.004-0.07-0.01c-0.028-0.008-0.055-0.018-0.081-0.033c-0.026-0.017-0.052-0.037-0.075-0.063
				s-0.041-0.056-0.053-0.092c-0.014-0.041-0.014-0.082-0.003-0.124c0.013-0.042,0.043-0.063,0.091-0.063
				c0.041,0,0.08,0.01,0.121,0.023c0.042,0.017,0.082,0.025,0.122,0.025c0.033-0.002,0.065-0.027,0.097-0.08
				c0.031-0.054,0.059-0.115,0.084-0.184c0.026-0.07,0.049-0.139,0.067-0.208s0.032-0.122,0.038-0.157c-0.05,0-0.105,0-0.169-0.001
				c-0.063-0.001-0.122-0.001-0.178-0.003s-0.104-0.002-0.14-0.002l-0.058,0.002l-0.035-0.188c0.092-0.013,0.171-0.024,0.236-0.032
				c0.066-0.01,0.136-0.02,0.209-0.027c0.075-0.008,0.138-0.016,0.191-0.023c0.048-0.174,0.102-0.367,0.16-0.582
				c0.06-0.213,0.136-0.416,0.228-0.608c0.094-0.194,0.21-0.36,0.35-0.501c0.141-0.141,0.316-0.227,0.524-0.256l0.116,0.109
				C168.268,69.971,168.227,70.027,168.191,70.105z M167.606,70.766c-0.043,0.114-0.082,0.229-0.117,0.347
				c-0.037,0.116-0.068,0.229-0.096,0.336c-0.026,0.106-0.044,0.197-0.054,0.271l0.397-0.042c-0.018-0.081-0.031-0.171-0.04-0.272
				c-0.01-0.104-0.015-0.207-0.014-0.316c0-0.109,0.004-0.217,0.013-0.323c0.009-0.108,0.021-0.206,0.039-0.298
				C167.692,70.551,167.649,70.652,167.606,70.766z"/>
			<path d="M171.596,70.101c-0.021,0.03-0.049,0.05-0.087,0.059c-0.038,0.01-0.08,0.011-0.127,0.005
				c-0.045-0.006-0.09-0.016-0.132-0.027c-0.181,0.172-0.324,0.369-0.431,0.594c-0.105,0.224-0.186,0.46-0.242,0.71
				c-0.055,0.251-0.092,0.507-0.111,0.771c-0.021,0.262-0.031,0.52-0.033,0.774l-0.282,0.06c-0.035-0.179-0.069-0.363-0.104-0.559
				c-0.034-0.191-0.074-0.383-0.117-0.574c-0.043-0.189-0.097-0.38-0.157-0.566c-0.063-0.188-0.137-0.369-0.225-0.545
				c-0.012,0.125-0.027,0.267-0.045,0.426c-0.019,0.158-0.041,0.322-0.067,0.496c-0.027,0.17-0.059,0.342-0.095,0.512
				c-0.037,0.172-0.079,0.336-0.126,0.488c-0.047,0.156-0.1,0.295-0.16,0.418s-0.128,0.221-0.203,0.292l-0.144-0.179
				c0.114-0.138,0.204-0.313,0.271-0.529c0.065-0.217,0.118-0.447,0.154-0.693s0.062-0.494,0.077-0.744
				c0.014-0.25,0.029-0.477,0.043-0.678l0.053-0.223c-0.048-0.068-0.097-0.122-0.146-0.158c-0.049-0.039-0.114-0.041-0.198-0.008
				c-0.035,0.014-0.068,0.05-0.097,0.107c-0.029,0.059-0.06,0.113-0.092,0.162c-0.032,0.051-0.066,0.087-0.105,0.105
				c-0.04,0.018-0.086-0.004-0.141-0.068c-0.024-0.035-0.034-0.071-0.027-0.107c0.006-0.036,0.021-0.069,0.045-0.102
				c0.023-0.03,0.05-0.059,0.079-0.084c0.03-0.025,0.055-0.047,0.075-0.063c0.063-0.057,0.145-0.104,0.241-0.139
				c0.098-0.037,0.195-0.055,0.295-0.055s0.191,0.02,0.276,0.061c0.085,0.042,0.148,0.111,0.191,0.209
				c0.116,0.272,0.227,0.549,0.331,0.822c0.103,0.277,0.184,0.556,0.243,0.836c0.025-0.238,0.069-0.473,0.13-0.702
				c0.061-0.228,0.139-0.437,0.232-0.624c0.093-0.188,0.205-0.348,0.334-0.475c0.13-0.13,0.276-0.215,0.436-0.255
				c0.02,0,0.038-0.001,0.061-0.003c0.021-0.002,0.041,0,0.06,0.006c0.019,0.007,0.034,0.018,0.049,0.033
				c0.014,0.017,0.024,0.042,0.03,0.074C171.621,70.023,171.617,70.07,171.596,70.101z"/>
		</g>
		<g>
			<polygon fill="#E0A30A" points="172.499,69.557 173.152,70.619 171.515,71.626 170.862,70.563 171.383,70.244 171.864,70.359 
				171.979,69.877 			"/>
			<path fill="#E5E3E4" d="M172.071,70.768c-0.012,0-0.025-0.002-0.038-0.007c-0.517-0.192-0.417-0.985-0.279-2.086
				c0.094-0.742,0.21-1.665,0.151-2.595c-0.057-0.898-0.422-1.427-1.003-1.451c-0.428-0.021-0.838,0.258-0.872,0.496
				c-0.01,0.061-0.064,0.104-0.127,0.094c-0.061-0.008-0.102-0.066-0.093-0.126c0.055-0.381,0.581-0.706,1.101-0.687
				c0.335,0.014,1.125,0.203,1.217,1.66c0.059,0.951-0.059,1.885-0.152,2.635c-0.121,0.961-0.216,1.721,0.135,1.852
				c0.058,0.021,0.087,0.084,0.066,0.143C172.159,70.74,172.118,70.768,172.071,70.768z"/>
		</g>
		<path fill="#B78906" d="M171.918,67.957c-1.276,0.107-2.943,0.18-4.794,0.197c-0.293,0.002-0.591,0.002-0.893,0.002
			c-0.303,0-0.598,0-0.893-0.002c-2.049-0.02-3.873-0.105-5.192-0.234c-0.032-0.002-0.065-0.006-0.099-0.008
			C162.739,67.701,168.043,67.445,171.918,67.957z"/>
		<path fill="#CE9D85" d="M161.416,57.104c-1.39,0.771-2.667-0.106-2.667-0.106l-0.08-0.049c0.063,0.016,0.211,0.049,0.408,0.072
			c0.135,0.02,0.288,0.032,0.452,0.045c0.168,0.014,0.342,0.014,0.515,0.023c0.178,0,0.352,0.004,0.516,0.004
			c0.164-0.004,0.314,0,0.446,0c0.065,0,0.128-0.011,0.181-0.004C161.239,57.094,161.38,57.104,161.416,57.104z"/>
		<path fill="#70573A" d="M161.449,57.106c0,0-0.046-0.003-0.128-0.007c-0.036,0-0.082-0.006-0.135-0.01
			c-0.053-0.007-0.115,0.004-0.181,0.004c-0.132,0-0.282-0.004-0.446,0c-0.164,0-0.338-0.004-0.516-0.004
			c-0.173-0.01-0.347-0.01-0.515-0.023c-0.164-0.013-0.317-0.025-0.452-0.045c-0.197-0.023-0.346-0.057-0.408-0.072h-0.003
			c-0.022-0.004-0.032-0.006-0.032-0.006s0.006-0.005,0.016-0.008c0.047-0.013,0.207-0.063,0.424-0.102
			c0.135-0.023,0.289-0.047,0.456-0.056c0.168-0.013,0.345-0.021,0.525-0.016c0.357,0.009,0.719,0.054,0.98,0.144
			c0.065,0.02,0.125,0.032,0.177,0.063c0.054,0.026,0.096,0.053,0.133,0.072c0.01,0.006,0.02,0.013,0.029,0.017
			C161.423,57.087,161.449,57.106,161.449,57.106z"/>
		<path fill="#70573A" d="M168.026,56.792c0,0-0.003,0-0.01,0c-0.022-0.005-0.082-0.011-0.174-0.021
			c-0.056-0.009-0.125-0.02-0.204-0.029c-0.082-0.004-0.17-0.004-0.269-0.006c-0.099,0-0.201-0.011-0.315,0
			c-0.111,0.002-0.229,0.013-0.352,0.013c-0.121-0.004-0.249,0.022-0.377,0.026c-0.129,0.01-0.26,0.01-0.388,0.029
			c-0.263,0.025-0.521,0.049-0.768,0.082c-0.121,0.016-0.239,0.022-0.352,0.039c-0.111,0.02-0.216,0.033-0.314,0.043
			c-0.193,0.02-0.361,0.059-0.48,0.072c-0.064,0.01-0.113,0.017-0.146,0.017c-0.023,0.006-0.037,0.006-0.037,0.006
			s0.018-0.01,0.05-0.026c0.03-0.013,0.065-0.033,0.115-0.059c0.01-0.004,0.019-0.01,0.029-0.014
			c0.104-0.049,0.243-0.124,0.421-0.178c0.193-0.064,0.424-0.137,0.669-0.187c0.125-0.022,0.249-0.059,0.384-0.071
			c0.132-0.017,0.267-0.033,0.397-0.051c0.135-0.016,0.272-0.012,0.403-0.021c0.135-0.004,0.266-0.01,0.391,0.004
			c0.128,0.006,0.252,0.018,0.367,0.029c0.115,0.006,0.227,0.039,0.326,0.059c0.102,0.022,0.189,0.045,0.271,0.068
			c0.076,0.037,0.142,0.066,0.197,0.092c0.029,0.014,0.056,0.027,0.078,0.036c0.036,0.021,0.06,0.033,0.073,0.036
			c0,0.004,0.003,0.004,0.003,0.004C168.023,56.787,168.026,56.792,168.026,56.792z"/>
		<path fill="#CE9D85" d="M167.784,57.058c-0.287,0.093-3.896,0.319-3.896,0.247c0-0.063-0.092-0.094-0.01-0.247
			c0.033,0,0.082-0.007,0.146-0.017c0.119-0.014,0.287-0.053,0.48-0.072c0.099-0.01,0.203-0.023,0.314-0.043
			c0.112-0.017,0.23-0.023,0.352-0.039c0.247-0.033,0.505-0.057,0.768-0.082c0.128-0.02,0.259-0.02,0.388-0.029
			c0.128-0.004,0.256-0.03,0.377-0.026c0.122,0,0.24-0.011,0.352-0.013c0.114-0.011,0.217,0,0.315,0
			c0.099,0.002,0.187,0.002,0.269,0.006c0.079,0.01,0.148,0.021,0.204,0.029c0.092,0.01,0.151,0.016,0.174,0.021
			C168.092,56.894,167.784,57.058,167.784,57.058z"/>
		<path fill="#70573A" d="M170.748,62.029c0.723-0.748,1.228-3.014,0.165-2.789c-1.063,0.222-0.984,1.188-0.984,1.188
			c-0.191-0.202-0.613-1.544-0.334-2.446c0.283-0.902-0.712-3.098-0.712-3.098c-0.371,2.91-6.935,2.152-6.935,2.152
			c0.335-0.285,0.434-0.566,0.439-0.793c0.006-0.286-0.131-0.48-0.131-0.48c-0.666,1.13-3.104,1.041-3.2,1.07
			c0.128-0.089,0.257-0.331,0.371-0.633c0.138-0.357,0.26-0.795,0.348-1.146c-0.306,0.73-1.06,1.159-1.818,1.412
			c-0.987,0.334-1.979,0.367-1.979,0.367c0.68-0.768,1.142-2.373,1.65-4.457c0.437-1.027,1.678-3.449,3.124-3.898
			c0.033-0.01,0.066-0.02,0.092-0.033l0.017-0.003c0,0,10.814-0.343,13.456,7.077C177.537,64.565,170.748,62.029,170.748,62.029z"/>
	</g>
	<path fill="#BDFFFF" d="M124.228,50.936l-0.092,22.046c-0.007,1.74-1.43,3.144-3.163,3.136l-44.589-0.186l0.066-15.678
		c0.029-7,5.217-12.646,11.596-12.619l33.046,0.138C122.825,47.779,124.236,49.195,124.228,50.936z"/>
	<g>
		<path fill="#E58C4A" d="M221.761,81.82l0.016,4.008L222.183,90h18.864l0.261-4H243v-4.18c0-0.093,0.037,0.232,0.035,0.141
			c-0.148-5.186-4.347-8.961-9.567-8.961h-3.888c-4.265,0-6.079,2.379-7.34,6.23c-0.009,0.024-0.017-0.164-0.022-0.141
			c-0.164,0.512-0.286,0.937-0.361,1.48C221.792,81.014,221.761,81.361,221.761,81.82z"/>
		<path fill="#EFBFA5" d="M230.377,66.738c0.057,1.586,0.17,4.732,0.612,6.915c0.116,0.581,0.257,1.093,0.425,1.489
			c0,0,0.293,0.002,0.293,0.004L232,75.148v0.003v0.003v0.002l0,0v0.002c0,0.135,0.326,1.127,1.74,1.127
			c0.406,0,0.596-0.086,0.864-0.207c0.632-0.281,0.831-0.752,0.831-0.752s-0.687-1.735-0.607-3.049
			c0.012-0.219,0.027-0.425,0.087-0.609c0.032-0.102,0.064-0.198,0.115-0.285c0.436-0.763,1.108-0.348,2.162,0.451
			c0.604,0.459,1.328,1.045,2.203,1.606c2.4,1.542,4.456-0.257,4.884-1.458c0.168-0.468,0.309-0.557,0.525-0.697
			c0.34-0.217,0.865-0.555,1.968-2.645c0.844-1.602,1.122-3.5,1.196-5.367c0.007-0.181,0.012-0.36,0.016-0.541
			c0.002-0.043,0.003-0.086,0.003-0.129c0.002-0.044,0.007-0.086,0.007-0.129c0-0.117,0.006-0.236,0.006-0.353v-3.015
			c0-0.334-0.035-0.653-0.029-0.957c0.002-0.172-0.007-0.337,0.001-0.497c0.002-0.028-0.005-0.059-0.003-0.088
			c0.002-0.022,0.011-0.046,0.012-0.069c0.004-0.051,0.02-0.102,0.02-0.151c0-0.015,0-0.028,0-0.043c0-0.032,0-0.063,0-0.095
			s0-0.062,0-0.093v-0.003c0-0.305-0.02-0.582-0.047-0.836c-0.121-1.101-0.532-1.807-1.061-2.563
			c-0.207-0.294-0.434-0.595-0.667-0.93c-0.104-0.15-0.213-0.308-0.319-0.474c-0.934,0.005-1.928,0.274-2.474-0.557
			c-0.804-1.222-0.996-0.997-1.607-0.29c-0.61,0.708-1.672,1.094-2.765-0.096s-2.153-0.449-2.507,0.386
			c-0.354,0.836-0.515,0.708-1.126,0.548c-0.839-0.222-0.996,0.353-2.154,1.156c-0.043,0.031-0.088,0.063-0.129,0.094
			c-0.021,0.016-0.04,0.031-0.061,0.047s-0.039,0.032-0.059,0.049c-0.017,0.014-0.034,0.028-0.05,0.042
			c-0.029,0.026-0.059,0.054-0.086,0.079c-0.012,0.012-0.023,0.022-0.034,0.035c-0.013,0.011-0.024,0.023-0.035,0.035
			c-0.017,0.017-0.032,0.033-0.047,0.051c-0.017,0.018-0.032,0.035-0.048,0.053c-0.014,0.016-0.026,0.032-0.039,0.048
			c-0.027,0.035-0.053,0.069-0.077,0.104c-0.019,0.027-0.037,0.056-0.054,0.084c-0.037,0.058-0.068,0.117-0.096,0.177
			c-0.013,0.028-0.025,0.056-0.036,0.083c-0.012,0.031-0.022,0.061-0.032,0.09c-0.01,0.027-0.018,0.053-0.024,0.079
			c-0.003,0.009-0.005,0.018-0.007,0.024c-0.008,0.026-0.014,0.052-0.02,0.078c0,0.004-0.001,0.008-0.002,0.011
			c-0.005,0.022-0.009,0.045-0.013,0.067c-0.002,0.008,0.348,0.015,0.346,0.021c-0.027,0.164,0.328,0.336,0.328,0.518v0.006
			c0,0.023-0.348,0.049-0.346,0.073c0.01,0.107-0.152,0.218-0.134,0.333c0.005,0.028-0.077,0.059-0.072,0.088
			c0.042,0.232,0.057,0.481,0.131,0.748c0.109,0.403,0.135,0.737,0.135,1.031c0,0.033-0.012,0.066-0.013,0.099
			c-0.001,0.033-0.009,0.065-0.011,0.098c-0.002,0.022-0.007,0.045-0.01,0.067c-0.002,0.021-0.005,0.043-0.008,0.063
			c-0.002,0.014-0.005,0.028-0.007,0.043c-0.004,0.023-0.009,0.047-0.013,0.068c-0.005,0.029-0.011,0.056-0.017,0.082
			c-0.005,0.022-0.01,0.044-0.016,0.066c-0.014,0.055-0.029,0.108-0.046,0.16c-0.008,0.025-0.017,0.049-0.024,0.073
			c-0.021,0.062-0.046,0.124-0.072,0.183c-0.002,0.007-0.005,0.013-0.008,0.018c-0.006,0.016-0.012,0.029-0.019,0.044
			c-0.05,0.109-0.105,0.218-0.164,0.327c-0.082,0.151-0.173,0.307-0.268,0.471c-0.515,0.9-1.028,1.029-0.899,2.508
			c0.128,1.479,1.929,1.564,1.929,1.564s0.257,0.879-0.322,1.65C232.28,65.787,231.447,66.422,230.377,66.738z"/>
		<path fill="none" stroke="#000000" stroke-width="0.9201" stroke-miterlimit="10" d="M230.349,65.683c0,0,0.006,0.405,0.028,1.056
			"/>
		<path fill="none" stroke="#000000" stroke-width="0.9201" stroke-miterlimit="10" d="M245.564,51.753
			c0.113,0.198,0.228,0.382,0.341,0.557"/>
		<path fill="#B78906" d="M230.342,60.834l-0.001-0.098c0.003-0.041,0.004-0.078,0.007-0.117c-0.004,0.039-0.005,0.076-0.008,0.117
			L230.342,60.834z"/>
		<path fill="#E0A30A" d="M223.727,54.582c0.643,1.285,0.837,3.793,1.544,4.564c0.706,0.771,0.899,1.221,0.643,2.379
			c-0.258,1.157-0.643,1.801,0.578,2.636c1.222,0.835,1.351,2.893,2.894,2.765c0.35-0.03,0.681-0.095,0.992-0.188
			c1.07-0.316,1.903-0.951,2.351-1.549c0.579-0.771,0.322-1.65,0.322-1.65s-0.468-0.021-0.943-0.239
			c-0.101-0.046-0.2-0.101-0.297-0.165c-0.039-0.012-0.079-0.025-0.119-0.042c-0.136-0.054-0.278-0.137-0.419-0.244
			c-0.139-0.108-0.276-0.243-0.396-0.404c-0.122-0.159-0.229-0.343-0.313-0.544c-0.085-0.199-0.146-0.417-0.185-0.642
			c-0.005-0.027-0.009-0.057-0.012-0.085c-0.012-0.086-0.019-0.172-0.023-0.259l0.328-0.021L231,60.883v-0.006l-0.33-0.043
			l-0.165-0.098c0.002-0.041-0.078-0.078-0.075-0.117c0.001-0.014-0.039-0.027-0.038-0.041c0.021-0.224,0.057-0.443,0.143-0.646
			c0.042-0.103,0.084-0.198,0.14-0.29c0.057-0.091,0.116-0.175,0.183-0.253c0.141-0.152,0.295-0.278,0.463-0.354
			c0.167-0.08,0.343-0.114,0.51-0.11c0.163,0.002,0.317,0.038,0.45,0.089c0.039-0.073,0.076-0.144,0.111-0.215
			c0.295-0.597,0.428-1.185,0.145-2.224c-0.19-0.697-0.294-1.269-0.213-1.766c0.084-0.513,0.365-0.944,0.952-1.352
			c1.157-0.804,1.314-1.378,2.154-1.156c0.61,0.16,0.771,0.288,1.125-0.548c0.353-0.835,1.414-1.575,2.507-0.386
			s2.153,0.804,2.764,0.096c0.611-0.707,0.805-0.932,1.607,0.29c0.547,0.831,1.54,0.562,2.474,0.557
			c0.19-0.001,0.377,0.009,0.559,0.042c0.235,0.043,0.462,0.123,0.665,0.27c1.124,0.804,2.058,0.032,2.796-0.868
			c0.74-0.9,0.451-2.122-0.128-3.118c-0.578-0.996,1.157-1.414,0.739-3.215s-2.508-2.175-2.508-2.175s1.844-3.257-1.242-5.036
			c0,0,0.492,1.564-0.278,1.994c0,0,0.492-2.208-2.851-3.344c0,0,0.793,2.378-0.322,2.742c-1.113,0.365-1.886-1.972-3.921-1.051
			c-2.036,0.922-2.699,1.029-3.235,0.73c-0.536-0.301-2.765-0.387-3.88,0.729c-1.114,1.113-2.207,2.721-3.771,2.55
			c-1.565-0.172-2.552,1.415-2.572,2.187c-0.021,0.771-0.814,3.471-1.393,4.756C223.984,50.789,223.084,53.296,223.727,54.582z"/>
		<g>
			<g>
				<polygon fill="#CE9D85" points="237.285,56.533 237.383,57.139 242.111,57.568 242.222,56.982 				"/>
				<path fill="#CE9D85" d="M246.037,57.653h1.92c0.003-0.054,0.005-0.105,0.008-0.157c0.008-0.133,0.013-0.26,0.015-0.382h-1.986
					L246.037,57.653z"/>
			</g>
			<g>
				<polygon fill="#B78906" points="236.928,54.41 237.271,56.532 237.285,56.533 242.222,56.982 242.425,56.268 242.607,55.632 
									"/>
				<polygon fill="#B78906" points="245.917,56.275 245.993,57.111 248.186,57.111 248.186,56.275 				"/>
			</g>
		</g>
		<ellipse fill="#523C34" cx="240.239" cy="58.793" rx="0.471" ry="1.018"/>
		<ellipse fill="#523C34" cx="247.011" cy="58.793" rx="0.471" ry="1.018"/>
		<g>
			<path fill="#70573A" d="M242.48,65.082l0.072,0.031c0.306,0.135,0.614,0.262,0.923,0.389c0.309,0.125,0.618,0.248,0.93,0.369
				l0.045,0.017l0.06-0.011c0.259-0.041,0.517-0.086,0.775-0.13l0.773-0.14l0.184-0.033l0.001-0.192l0.002-0.557l-0.002-0.558
				l-0.001-0.146l-0.13-0.06l-0.452-0.209l-0.337-0.151c-0.005-0.262-0.013-0.521-0.022-0.783c-0.004-0.074-0.006-0.148-0.01-0.223
				v-0.008c-0.008-0.195-0.017-0.392-0.026-0.587c-0.001-0.017-0.002-0.032-0.003-0.048c-0.001-0.02-0.002-0.038-0.003-0.057
				c-0.016-0.307-0.037-0.613-0.06-0.922c-0.011-0.152-0.025-0.307-0.038-0.461c-0.014-0.152-0.029-0.307-0.047-0.459
				c-0.018,0.152-0.034,0.307-0.046,0.459c-0.013,0.154-0.028,0.309-0.038,0.461c-0.02,0.256-0.037,0.512-0.052,0.768
				c-0.001,0.012-0.001,0.025-0.002,0.037c-0.003,0.039-0.005,0.078-0.007,0.117c-0.007,0.146-0.016,0.292-0.021,0.438v0.002
				c-0.007,0.161-0.015,0.321-0.02,0.482c-0.013,0.308-0.021,0.615-0.028,0.922l-0.003,0.131l0.125,0.063l0.446,0.222l0.316,0.155
				l-0.001,0.119l-0.001,0.296l0.002,0.371l-0.584,0.121c-0.24,0.053-0.48,0.104-0.72,0.159c-0.299-0.096-0.599-0.188-0.899-0.277
				c-0.301-0.089-0.6-0.176-0.901-0.26l-0.019-0.244l-0.002-0.031l-0.027-0.317c0.127-0.024,0.254-0.051,0.382-0.079
				c-0.145-0.002-0.29-0.002-0.434,0h-0.036l-0.003,0.043l-0.031,0.354l-0.026,0.354L242.48,65.082z"/>
			<path fill="#CE9D85" d="M242.662,64.695l0.019,0.244c0.302,0.084,0.601,0.171,0.901,0.26c0.301,0.09,0.601,0.182,0.899,0.277
				c0.239-0.055,0.479-0.106,0.72-0.159l0.691-0.121L246,64.825v-0.296l-1.371,0.343L242.662,64.695z"/>
		</g>
		<path fill="#70573A" d="M244.243,69.166c0,0-0.074-0.016-0.204-0.045c-0.13-0.028-0.313-0.07-0.526-0.121
			c-0.107-0.027-0.223-0.055-0.344-0.089c-0.12-0.031-0.245-0.07-0.374-0.109c-0.128-0.042-0.259-0.085-0.388-0.136
			c-0.131-0.049-0.259-0.104-0.385-0.164c-0.125-0.06-0.248-0.125-0.363-0.195c-0.116-0.07-0.227-0.145-0.328-0.225
			c-0.102-0.079-0.196-0.162-0.281-0.246c-0.046-0.039-0.081-0.086-0.121-0.126c-0.041-0.04-0.073-0.085-0.107-0.126
			c-0.035-0.04-0.067-0.08-0.095-0.121c-0.03-0.039-0.058-0.078-0.084-0.113c-0.046-0.076-0.093-0.141-0.126-0.197
			c-0.031-0.057-0.061-0.102-0.078-0.133c-0.02-0.031-0.029-0.047-0.029-0.047s0.001,0.019,0.002,0.055
			c0.003,0.036,0.005,0.09,0.013,0.157s0.024,0.148,0.045,0.242c0.029,0.091,0.056,0.198,0.107,0.305
			c0.046,0.11,0.109,0.225,0.187,0.341c0.077,0.113,0.169,0.229,0.277,0.336c0.053,0.055,0.109,0.107,0.17,0.156
			c0.03,0.023,0.06,0.051,0.091,0.074c0.032,0.023,0.064,0.045,0.097,0.068c0.129,0.093,0.271,0.169,0.413,0.24
			c0.146,0.065,0.292,0.127,0.44,0.17c0.148,0.049,0.298,0.082,0.441,0.108c0.145,0.024,0.284,0.042,0.417,0.05
			c0.134,0.01,0.259,0.011,0.374,0.008c0.116-0.005,0.222-0.013,0.314-0.024c0.094-0.011,0.174-0.026,0.24-0.04
			c0.066-0.012,0.117-0.027,0.153-0.036C244.226,69.174,244.243,69.166,244.243,69.166z"/>
		<path fill="#E0A30A" d="M232.952,68.469c0,0,0.012,0.025,0.032,0.072c0.152,0.348,0.818,1.871,1.188,2.751
			c0,0,0.001,0.005,0.002,0.005c0.155,0.373,0.369,0.699,0.617,0.98c0.313,0.354,0.679,0.635,1.048,0.836
			c0.12,0.065,0.24,0.123,0.359,0.172c0.771,0.316,3.15,1.291,4.051,1.934s4.114-0.256,4.371-1.285
			c0.258-1.029,0.183-2.648,0.183-2.648c-0.318-0.279-0.889,0.848-2.465,1.362c-1.52,0.495-5.133-1.132-6.136-2.432
			c-0.038-0.048-0.071-0.095-0.101-0.141c-0.261-0.411-0.466-0.776-0.659-1.104l-0.017-0.027c-0.419-0.706-0.789-1.237-1.574-1.691
			C232.695,66.584,232.952,68.469,232.952,68.469z"/>
		<g>
			<path fill="#CE9D85" d="M241.855,59.001c0,0,0.051,0.064,0.122,0.178c0.034,0.057,0.079,0.126,0.116,0.206
				c0.053,0.07,0.052,0.198,0.063,0.327c0.001,0.125,0.031,0.307-0.026,0.434c-0.041,0.139-0.086,0.295-0.156,0.444
				c-0.091,0.131-0.188,0.273-0.309,0.399c-0.107,0.142-0.271,0.206-0.411,0.31c-0.294,0.198-0.639,0.224-0.938,0.271
				c-0.301-0.025-0.58-0.054-0.794-0.144c-0.429-0.2-0.645-0.425-0.645-0.425s0.318-0.137,0.692-0.206
				c0.095-0.014,0.19-0.075,0.289-0.099c0.1-0.032,0.199-0.069,0.303-0.085c0.096-0.04,0.184-0.105,0.282-0.132
				c0.104-0.022,0.188-0.075,0.265-0.138c0.078-0.054,0.195-0.069,0.249-0.146c0.063-0.068,0.154-0.11,0.229-0.17
				c0.049-0.074,0.12-0.135,0.189-0.201c0.081-0.068,0.092-0.126,0.155-0.192c0.039-0.071,0.127-0.121,0.144-0.218
				c0.025-0.084,0.06-0.159,0.085-0.221C241.814,59.072,241.855,59.001,241.855,59.001z"/>
		</g>
		<g>
			<path fill="#CE9D85" d="M245.744,59.398c0,0,0.193,0.145,0.362,0.324c0.175,0.182,0.346,0.397,0.448,0.539
				c0.044,0.072,0.078,0.119,0.099,0.18c0.027,0.053,0.073,0.127,0.158,0.192c0.164,0.128,0.399,0.219,0.396,0.229
				c-0.01-0.015-0.054,0.248-0.36,0.403c-0.147,0.082-0.379,0.119-0.616,0.049c-0.246-0.065-0.437-0.245-0.578-0.421
				c-0.248-0.378-0.25-0.774-0.164-1.049C245.567,59.565,245.744,59.398,245.744,59.398z"/>
		</g>
		<path fill="#CE9D85" d="M244.207,66.047c-0.025,0.939,0.01,1.675,0.01,1.675l-0.397-0.135l-0.193-1.79L244.207,66.047z"/>
		<path fill="#CE9D85" d="M244.481,66.047c0.026,0.939,0.004,1.675,0.004,1.675l0.412-0.135l0.211-1.644L244.481,66.047z"/>
		<g>
			<g>
				<path fill="#2CDA9B" d="M240.895,61.768L240.895,61.768c0.013-0.003,0.024-0.006,0.036-0.01L240.895,61.768z M241.442,61.56
					c0.001-0.001,0.002-0.001,0.002-0.001c0.004-0.002,0.006-0.002,0.008-0.004s0.005-0.002,0.007-0.004
					c0.01-0.007,0.021-0.012,0.031-0.018c0.003-0.002,0.006-0.004,0.009-0.006c-0.003,0-0.006,0.003-0.009,0.005
					c-0.016,0.009-0.029,0.019-0.045,0.025C241.445,61.558,241.443,61.559,241.442,61.56z M241.535,61.505
					c0.008-0.005,0.016-0.009,0.022-0.014V61.49l0.008-0.004c-0.002,0-0.005,0.002-0.008,0.004
					C241.552,61.495,241.543,61.5,241.535,61.505z M240.873,61.74l0.021,0.025c0.006-0.002,0.026-0.01,0.037-0.013
					c0.013-0.003,0.027-0.011,0.04-0.015c-0.001-0.003-0.002-0.006-0.003-0.006c-0.024,0.007-0.049,0.002-0.073,0.002h-0.001
					C240.887,61.734,240.881,61.738,240.873,61.74z M240.986,61.734c-0.005,0-0.011,0.001-0.016,0.004l0.001,0.001
					c0.005,0,0.011,0.003,0.016,0.001c0.015-0.004,0.028-0.008,0.042-0.012C241.015,61.732,241.001,61.734,240.986,61.734
					L240.986,61.734z M241.076,61.715c-0.016,0.005-0.029,0.009-0.044,0.013C241.048,61.725,241.063,61.72,241.076,61.715
					L241.076,61.715z M241.085,61.713c-0.002,0-0.004,0.002-0.006,0.002h0.002h0.002C241.084,61.715,241.085,61.713,241.085,61.713
					c0.027-0.008,0.053-0.018,0.077-0.025v-0.001C241.138,61.695,241.111,61.705,241.085,61.713z M241.166,61.686
					c0,0-0.002,0.002-0.004,0.002c0.003-0.001,0.004-0.002,0.006-0.002c0.028-0.012,0.059-0.021,0.087-0.034
					c0.024-0.011,0.05-0.021,0.074-0.034c-0.018,0.008-0.034,0.016-0.051,0.022c-0.008,0.003-0.016,0.007-0.023,0.01
					c-0.014,0.006-0.028,0.017-0.042,0.017h-0.001C241.196,61.666,241.181,61.68,241.166,61.686z M241.338,61.612
					c-0.001,0.001-0.003,0.003-0.005,0.003C241.335,61.615,241.337,61.613,241.338,61.612c0.007-0.003,0.012-0.005,0.018-0.007
					C241.35,61.607,241.345,61.609,241.338,61.612z M241.445,61.558c0,0-0.002,0.001-0.003,0.002
					C241.443,61.559,241.444,61.559,241.445,61.558c0.003-0.001,0.005-0.001,0.007-0.003s0.005-0.002,0.007-0.004
					c0.01-0.007,0.021-0.012,0.031-0.018c0.003-0.002,0.006-0.004,0.009-0.006c-0.003,0-0.006,0.003-0.009,0.005
					C241.475,61.541,241.461,61.551,241.445,61.558z M241.558,61.49c-0.006,0.005-0.015,0.01-0.022,0.015
					C241.543,61.5,241.551,61.496,241.558,61.49L241.558,61.49l0.008-0.004C241.563,61.486,241.561,61.488,241.558,61.49z
					 M241.587,61.47c-0.002,0.001-0.003,0.003-0.004,0.004h0.001v-0.001c0.003-0.002,0.005-0.003,0.009-0.006
					c0.002,0,0.003-0.002,0.005-0.004c0.011-0.006,0.021-0.014,0.03-0.021l0,0c0.003-0.002,0.007-0.005,0.01-0.007
					c0.011-0.008,0.022-0.016,0.033-0.025c0.002,0,0.005-0.002,0.005-0.002c0.005-0.004,0.008-0.008,0.012-0.01
					c0.002-0.002,0.002-0.003,0.004-0.004c-0.005,0.004-0.009,0.008-0.015,0.011c-0.002,0.002-0.005,0.002-0.007,0.004
					c-0.005,0.005-0.012,0.007-0.019,0.013c-0.005,0.004-0.009,0.004-0.014,0.006c-0.003,0.002-0.007-0.002-0.01-0.002l0,0
					c-0.008,0-0.017,0.018-0.025,0.027c0,0-0.002,0.002-0.005,0.002c-0.001,0.002-0.002,0.003-0.003,0.005
					C241.592,61.463,241.589,61.465,241.587,61.47z M241.736,61.356c0.004-0.001,0.006-0.004,0.009-0.007
					C241.743,61.35,241.74,61.353,241.736,61.356z M230.902,57.831l0.24,1.209l1.146-0.044l4.743-0.186l0.353-0.014
					c0.025,0.094,0.066,0.151,0.104,0.201c0.019,0.027,0.036,0.053,0.049,0.078c0.026,0.063,0.047,0.139,0.057,0.228
					c0.224,1.919,0.277,2.182,0.916,2.624c0.305,0.213,0.937,0.371,1.572,0.394c0.32,0.012,0.731-0.009,1.146-0.122
					c0.228-0.063,0.456-0.152,0.67-0.282c0.176-0.106,0.331-0.268,0.466-0.462c0.131-0.186,0.213-0.399,0.34-0.617
					c0.128-0.233,0.182-0.467,0.245-0.68c0.126-0.419,0.188-0.746,0.193-0.778c0.002-0.019,0.019-0.146,0.176-0.208
					c0.057-0.022,0.132-0.036,0.232-0.032c0.421,0.021,0.443,0.247,0.443,0.257c0.002,0.017,0.012,0.081,0.03,0.181
					c0,0.002,0,0.005,0.002,0.009c0.096,0.52,0.418,1.951,1.133,2.444c0.589,0.407,1.303,0.513,1.799,0.529
					c0.114,0.005,0.229,0.004,0.342-0.001c0.246-0.01,0.483-0.039,0.691-0.084c0.226-0.049,0.418-0.115,0.551-0.197
					c0.061-0.037,0.115-0.073,0.166-0.107c0.196-0.139,0.326-0.279,0.427-0.506c0.016-0.033,0.029-0.066,0.044-0.105
					c0.061-0.161,0.111-0.362,0.162-0.625c0.062-0.313,0.122-0.704,0.198-1.216c0.013-0.087,0.035-0.162,0.065-0.223
					c0.013-0.025,0.03-0.048,0.05-0.073c0.063-0.082,0.142-0.181,0.142-0.442c-0.001-0.042,0.002-0.12,0.005-0.206
					c0.005-0.131,0.01-0.275,0.006-0.355c-0.006-0.197-0.079-0.338-0.17-0.432c-0.069-0.072-0.147-0.119-0.213-0.143
					c-0.016-0.006-0.03-0.008-0.044-0.012c-0.433-0.125-0.909-0.213-1.417-0.264c-0.209-0.021-0.423-0.03-0.642-0.038
					c-0.197-0.007-0.398-0.001-0.603,0.003c-0.134,0.002-0.269,0.021-0.405,0.029l-0.06,0.032c-0.099,0.005-0.192,0.073-0.28,0.073
					l0,0c-0.293,0-0.526-0.019-0.744,0.033c-0.168,0.039-0.327,0.039-0.495,0.126c-0.104,0.054-0.214,0.116-0.311,0.173
					c-0.138,0.083-0.324,0.17-0.46,0.217c-0.033,0.012-0.063,0.02-0.088,0.025c-0.054,0.014-0.107,0.025-0.155,0.035
					c-0.035,0.009-0.086,0.011-0.138,0.01c-0.048-0.002-0.098-0.008-0.131-0.018c-0.047-0.014-0.101-0.029-0.152-0.045
					c-0.077-0.023-0.192-0.077-0.307-0.139c-0.083-0.045-0.166-0.094-0.234-0.141c-0.096-0.064-0.201-0.131-0.305-0.192
					c-0.446-0.267-0.824-0.291-1.508-0.392l-0.059-0.002c-0.03-0.002-0.06-0.002-0.09-0.002c-0.097-0.026-0.173-0.047-0.249-0.059
					c-0.081-0.017-0.157-0.033-0.233-0.037c-0.117-0.003-0.232-0.008-0.345-0.012c-0.289-0.01-0.563-0.01-0.827,0
					c-0.474,0.02-0.923,0.088-1.334,0.18c-0.042,0.007-0.099,0.025-0.156,0.061c-0.01,0.006-0.021,0.012-0.03,0.019
					c-0.069,0.047-0.14,0.118-0.188,0.216l-4.748,0.077L230.902,57.831z M249.277,58.629l0.288-0.133l-0.004,0.287L249.277,58.629z
					 M244.756,59.045c0.002-0.008,0.244-0.016,0.244-0.023c0-0.004,0-0.008,0-0.012c0-0.021-0.37,0.99-0.37,0.99h0.016
					c0,0-0.058-0.558-0.057-0.571c0.003-0.021-0.093-0.3-0.091-0.315c0.004-0.025,0.027-0.179,0.031-0.195
					c0.002-0.006,0.013-0.077,0.014-0.083s0.007-0.046,0.009-0.048c0.002-0.004,0.004-0.023,0.005-0.024
					c0.002-0.01,0.007-0.022,0.009-0.029c0.002-0.002,0.003-0.011,0.004-0.013c0.002-0.002,0.003-0.005,0.003-0.005
					c0.003-0.006,0.005-0.013,0.007-0.017c0.034-0.063,0.104-0.15,0.252-0.239c0.02-0.011,0.04-0.023,0.061-0.035
					c0.021-0.011,0.045-0.022,0.069-0.034c0.037-0.018,0.077-0.034,0.121-0.051c0.015-0.006,0.029-0.012,0.044-0.016
					c0.045-0.018,0.094-0.032,0.146-0.047c0.019-0.005,0.038-0.01,0.058-0.016c0.038-0.011,0.077-0.021,0.119-0.029
					c0.019-0.004,0.037-0.01,0.057-0.013c0.043-0.01,0.083-0.017,0.123-0.024c0.007-0.002,0.014-0.002,0.021-0.004l0.057-0.009
					c0.017-0.003,0.033-0.005,0.051-0.008c0.017-0.003,0.034-0.006,0.052-0.008c0.059-0.009,0.119-0.017,0.184-0.022
					c0.022-0.004,0.048-0.006,0.071-0.008c0.021-0.003,0.044-0.006,0.067-0.007c0.017-0.001,0.031-0.003,0.048-0.005
					c0.046-0.002,0.095-0.007,0.144-0.01c0.026-0.001,0.053-0.003,0.08-0.004c0.028-0.002,0.06-0.004,0.09-0.006
					c0.031-0.002,0.063-0.004,0.095-0.004c0.032-0.002,0.063,0.451,0.095,0.451c0.114-0.004,0.223,0.447,0.324,0.447
					c0.053,0,0.104,0,0.153,0c0.017,0,0.033-0.454,0.051-0.453c0.051,0,0.101-0.225,0.148-0.223
					c0.057,0.001,0.111-0.109,0.163-0.106c0.011,0.001,0.021-0.056,0.03-0.055c0.011,0,0.021-0.028,0.03-0.028
					c0.038,0.004,0.071-0.007,0.104-0.005c0.007,0.001,0.015,0.433,0.021,0.434c0.021,0.002,0.041,0.437,0.062,0.437
					c0.004,0,0.007,0,0.011,0c0.015,0,0.031-0.434,0.046-0.431c0.009,0.001,0.018-0.216,0.025-0.214
					c0.014,0.001,0.027-0.105,0.04-0.104c0.018,0.003,0.034-0.049,0.052-0.046c0.006,0.001,0.014-0.025,0.02-0.025
					c0.015,0.002,0.029-0.008,0.044-0.005c0.015,0.004,0.028,0,0.042,0.002c0.019,0.004,0.033,0.004,0.047,0.007
					c0.01,0.003,0.019,0.003,0.027,0.005c0.011,0.002,0.021,0.005,0.031,0.007c0.011,0.004,0.021,0.006,0.03,0.009
					c0.009,0.003,0.02,0.005,0.028,0.009c0.007,0.002,0.015,0.003,0.021,0.006c0.004,0.001,0.006,0.001,0.008,0.004
					c0.057,0.018,0.108,0.037,0.155,0.059c0.006,0.002,0.013,0.006,0.019,0.008c0.012,0.006,0.022,0.012,0.033,0.018
					c0.012,0.006,0.022,0.012,0.033,0.019c0.021,0.012,0.044,0.026,0.067,0.041c0.036,0.024,0.068,0.052,0.099,0.079
					c0.015,0.014,0.029,0.027,0.042,0.041c0.012,0.014,0.022,0.024,0.033,0.037c0.005,0.006,0.011,0.012,0.016,0.018
					c0.005,0.007,0.01,0.013,0.014,0.019c0.008,0.011,0.016,0.021,0.022,0.03c0.009,0.012,0.015,0.022,0.022,0.034
					c0.022,0.034,0.043,0.071,0.062,0.108c0.11,0.219,0.182,0.673,0.179,0.958c-0.001,0.056,0.482,0.113,0.48,0.176
					c0,0.027,0.482,0.054,0.482,0.082c0,0.015,0,0.03,0,0.046c0,0.021-0.486,0.045-0.486,0.067c0,0.009-0.243,0.019-0.244,0.028
					c-0.002,0.036-0.13,0.072-0.134,0.109c-0.004,0.03-0.136,0.059-0.136,0.09v0.004c0,0.025-0.006,0.051-0.012,0.076
					c-0.004,0.025-0.007,0.049-0.013,0.073c-0.001,0.042-0.017,0.072-0.022,0.104c-0.015,0.076-0.037,0.152-0.058,0.228
					c-0.004,0.015-0.008,0.03-0.013,0.046c-0.007,0.027-0.016,0.055-0.024,0.082c-0.002,0.007-0.004,0.014-0.006,0.021
					c-0.012,0.038-0.024,0.075-0.037,0.113c-0.006,0.015-0.012,0.031-0.019,0.047c-0.012,0.032-0.025,0.063-0.039,0.093
					c-0.08,0.174-0.185,0.336-0.317,0.465c-0.014,0.014-0.026,0.026-0.041,0.038c-0.016,0.015-0.031,0.026-0.047,0.04
					c-0.021,0.018-0.042,0.035-0.063,0.053c-0.005,0.004-0.01,0.007-0.015,0.011c-0.012,0.009-0.023,0.019-0.035,0.026
					s-0.024,0.018-0.036,0.024c-0.017,0.01-0.032,0.021-0.05,0.029c-0.028,0.014-0.058,0.032-0.088,0.044
					c-0.023,0.01-0.049,0.031-0.073,0.039c-0.081,0.029-0.167,0.074-0.259,0.093c-0.036,0.008-0.072,0.062-0.109,0.068
					c-0.082,0.017-0.168,0.122-0.253,0.132c-0.006,0-0.01,0.184-0.016,0.184h-0.001c0,0,0.086-0.182,0.085-0.182
					c-0.001,0.001,0.085-0.184,0.085-0.183v0.001l-0.088,0.01c-0.034,0.006-0.173,0.02-0.209,0.023
					c-0.022,0.004-0.036,0.025-0.06,0.028c-0.049,0.007-0.093,0.05-0.143,0.058c-0.026,0.001-0.05,0.373-0.075,0.375
					c-0.009,0.002-0.016,0.447-0.024,0.447h-0.007c0,0,0,0-0.002,0c-0.011,0-0.021-0.361-0.037-0.362
					c-0.014,0,0.175-0.215,0.165-0.216c-0.084-0.004-0.045,0.063-0.045,0.063v-0.031c0,0-0.225,0.281-0.236,0.271
					c-0.041-0.037-0.282,0.275-0.322,0.275h-0.153c-0.05,0-0.098-0.518-0.146-0.532c-0.024-0.007-0.048-0.36-0.072-0.368
					c-0.021-0.008-0.04-0.088-0.061-0.096s-0.041-0.053-0.061-0.062c-0.039-0.018-0.077-0.054-0.115-0.071
					c-0.077-0.037-0.149-0.087-0.218-0.132c-0.078-0.052-0.152-0.11-0.221-0.171c-0.018-0.015-0.034-0.033-0.051-0.049
					s-0.032-0.032-0.049-0.048c-0.021-0.021-0.041-0.044-0.062-0.065c-0.004-0.006-0.008-0.01-0.012-0.014
					c-0.021-0.023-0.04-0.048-0.059-0.072c-0.011-0.014-0.021-0.025-0.03-0.039c-0.01-0.012-0.018-0.025-0.027-0.038
					c-0.021-0.028-0.039-0.057-0.057-0.087c-0.009-0.012-0.016-0.024-0.021-0.037c-0.003-0.002-0.004-0.004-0.005-0.006
					c-0.006-0.011-0.013-0.022-0.018-0.033c-0.019-0.033-0.035-0.065-0.05-0.1c-0.02-0.042-0.039-0.084-0.056-0.127
					c-0.011-0.021-0.021-0.045-0.029-0.067c-0.015-0.034-0.026-0.065-0.04-0.097c-0.009-0.024-0.018-0.048-0.026-0.07
					c-0.044-0.117-0.082-0.227-0.114-0.334c-0.007-0.021-0.013-0.042-0.019-0.063c-0.015-0.053-0.029-0.104-0.041-0.153
					c-0.006-0.022-0.011-0.042-0.016-0.063c-0.007-0.027-0.013-0.055-0.019-0.08c-0.009-0.039-0.017-0.074-0.022-0.111
					c-0.004-0.019,0.097-0.037,0.093-0.055C244.613,59.455,244.748,59.214,244.756,59.045z M238.093,59.417
					c0-0.037-0.004-0.073-0.003-0.108c0.001-0.079-0.068-0.172-0.056-0.268c0.002-0.008-0.08-0.018-0.08-0.026v-0.001
					c0-0.025,0.105-0.052,0.112-0.08c0,0,0.064-0.002,0.065-0.004c0.002-0.01,0.049-0.021,0.051-0.031
					c0.002-0.008,0.074-0.016,0.076-0.024c0.003-0.019,0.069-0.036,0.072-0.055c0.003-0.018,0.193-0.034,0.193-0.05v-0.001
					c0-0.026-0.167-0.054-0.159-0.078c0.004-0.015-0.202-0.028-0.198-0.042c0.002-0.008,0.02-0.017,0.021-0.023
					c0.006-0.02,0.019-0.037,0.024-0.055c0.009-0.026,0.021-0.051,0.028-0.074c0.007-0.018,0.016-0.033,0.022-0.05
					s0.015-0.032,0.021-0.047c0.003-0.004,0.006-0.01,0.009-0.015l0.015-0.028c0.003-0.005,0.006-0.01,0.009-0.015
					c0.01-0.017,0.019-0.031,0.027-0.044c0.003-0.005,0.005-0.009,0.008-0.013c0.001-0.002,0.002-0.004,0.004-0.006
					c0.002-0.004,0.004-0.008,0.008-0.014l0.002-0.002c0.002-0.002,0.004-0.004,0.005-0.006c0.036-0.051,0.078-0.099,0.128-0.144
					c0.011-0.011,0.022-0.021,0.033-0.03c0.002-0.001,0.004-0.002,0.006-0.002c0.027-0.022,0.059-0.045,0.093-0.063
					c0.01-0.006,0.021-0.013,0.031-0.018c0.011-0.006,0.021-0.012,0.032-0.017c0.008-0.004,0.016-0.008,0.023-0.012
					c0.014-0.006,0.028-0.012,0.042-0.018c0.005-0.002,0.01-0.004,0.015-0.006c0.03-0.01,0.06-0.02,0.092-0.028
					c0.021-0.007,0.042-0.01,0.064-0.015c0.056-0.016,0.116-0.021,0.182-0.031c0.013-0.001,0.026,0.009,0.039,0.008
					c0.014-0.002,0.026,0.547,0.041,0.545c0.005,0,0.011,0.572,0.016,0.572c0.004,0,0.008,0,0.011,0c0,0,0.004-0.576,0.006-0.576
					c0.005,0,0.009-0.312,0.013-0.313c0.008,0,0.018-0.133,0.028-0.134c0.094-0.009,0.197-0.079,0.312-0.08
					c0.076-0.001,0.157-0.032,0.244-0.03c0.09,0.004,0.185-0.009,0.285,0c0.102,0.006,0.208,0.008,0.322,0.019
					c0.021,0.001,0.045,0.054,0.069,0.056c0.012,0.002,0.024,0.059,0.037,0.059c0.012,0,0.022,0,0.034,0
					c0.007,0,0.015-0.054,0.021-0.053c0.054,0.006,0.105-0.018,0.156-0.01c0.087,0.012,0.172,0.01,0.251,0.021
					c0.08,0.014,0.155,0.019,0.227,0.032c0.027,0.004,0.044,0.001,0.061,0.001c0.101,0.023,0.192,0.044,0.277,0.067
					c0.015,0.004,0.022,0.472,0.028,0.473c0.002,0.002,0.005,0.468,0.005,0.468c0.002,0,0.005,0,0.005,0
					c0.036,0,0.07-0.447,0.104-0.438c0.003,0.002,0.006-0.23,0.009-0.229c0.014,0.003,0.026-0.108,0.04-0.104
					c0.039,0.012,0.076-0.034,0.111-0.022c0.018,0.006,0.033-0.019,0.05-0.011c0.039,0.014,0.076,0.013,0.111,0.028
					c0.015,0.005,0.028,0.004,0.041,0.01c0.016,0.008,0.03,0.011,0.046,0.017c0.029,0.014,0.056,0.024,0.082,0.039
					c0.052,0.027,0.098,0.053,0.136,0.08c0.011,0.006,0.02,0.012,0.029,0.018c0.075,0.053,0.328,0.102,0.363,0.146
					c0.045,0.055,0.277,0.102,0.277,0.133c0,0.002,0,0.004,0,0.008c0,0.005-0.199,0.013-0.197,0.023
					c0.002,0.008-0.098,0.016-0.096,0.025c0.019,0.104-0.006,0.352-0.057,0.717c-0.005,0.035-0.036,0.07-0.042,0.105
					c-0.002,0.017,0.2,0.033,0.198,0.051c-0.004,0.016,0.193,0.031,0.193,0.046c0,0.004,0,0.008,0,0.012
					c0,0.005-0.221,0.009-0.221,0.013s-0.109,0.008-0.111,0.01c-0.001,0.008-0.058,0.015-0.058,0.021
					c-0.017,0.072-0.057,0.122-0.07,0.173c-0.002,0.01-0.018,0.02-0.021,0.029c0,0.002,0.253,0.004,0.253,0.006
					c-0.01,0.031,0.228,0.063,0.228,0.095c0,0.001,0,0.004,0,0.005c0,0.004-0.264,0.01-0.266,0.012
					c-0.002,0.005-0.134,0.008-0.134,0.012c-0.004,0.009-0.072,0.018-0.075,0.025c-0.011,0.039-0.058,0.078-0.07,0.117
					c-0.002,0.008-0.021,0.016-0.023,0.023c-0.01,0.029-0.026,0.053-0.035,0.076c-0.001,0.003-0.007,0.004-0.008,0.006
					c-0.002,0.009-0.007,0.018-0.011,0.025c-0.008,0.025-0.02,0.051-0.029,0.076c-0.007,0.019-0.015,0.037-0.024,0.055
					c-0.006,0.021-0.019,0.041-0.025,0.063c-0.051,0.118-0.108,0.242-0.179,0.38c-0.016,0.029-0.034,0.058-0.051,0.085
					c-0.011,0.019-0.269,0.037-0.281,0.054c-0.002,0.005-0.264,0.01-0.264,0.015l0,0c0,0.028,0.217,0.055,0.197,0.081
					c-0.012,0.012,0.117,0.026,0.104,0.038c0,0,0.058,0.003,0.058,0.004c-0.003,0.002,0.065,0.006,0.063,0.009
					S242,61.165,242,61.166v0.016c0,0.004-0.045,0.019-0.049,0.022c-0.006,0.007-0.029,0.382-0.035,0.389
					C241.91,61.599,241.708,62,241.701,62H242v-0.738v-0.039c0,0.004-0.068,0.008-0.07,0.012c-0.006,0.007-0.043,0.013-0.05,0.019
					c-0.002,0.003-0.019,0.005-0.022,0.008c-0.005,0.005-0.02,0.012-0.024,0.017c-0.002,0.002-0.006,0.004-0.008,0.005
					c-0.003,0.003-0.004,0.005-0.008,0.008c-0.003,0.004-0.004,0.008-0.009,0.011c-0.006,0.006-0.005,0.013-0.012,0.019
					c-0.002,0.003,0.01,0.005,0.008,0.008c-0.001,0.001,0.027,0.003,0.027,0.005c-0.004,0.002,0.053,0.007,0.05,0.011L242,61.349
					v0.003c0,0-0.127,0.32-0.131,0.323c0,0-0.207,0.325-0.209,0.325h-0.063c-0.003,0,0.403-0.671,0.403-0.667
					c0,0.001,0,0.026,0,0.026v0.002c0,0.002-0.135,0.006-0.135,0.006c-0.006,0.004,0.075,0.014,0.071,0.018
					C241.93,61.39,242,61.406,242,61.411v0.024c0,0-0.152,0.258-0.154,0.26L241.648,62h0.021c-0.005,0,0.33-0.56,0.33-0.557V62
					h-0.332c0.003,0,0.006-0.297,0.006-0.297c0.006-0.004,0.01-0.125,0.014-0.127c0.001-0.003,0.002-0.088,0.004-0.09
					c-0.005,0.004-0.009-0.031-0.015-0.028c-0.002,0.002-0.005-0.011-0.007-0.009c-0.005,0.006-0.012,0.017-0.019,0.021
					c-0.005,0.004-0.009,0.037-0.014,0.04c-0.003,0.002-0.007,0.072-0.01,0.072l0,0c-0.008,0-0.008-0.062-0.017-0.052
					c-0.002,0.001,0.006-0.076,0.005-0.076c-0.002,0.002,0.015,0.003,0.014,0.005c-0.003,0.003-0.038,0.006-0.041,0.01
					c-0.002,0.001-0.002,0.003-0.002,0.004v0.001l0.018,0.016c-0.002,0.002-0.021,0.02-0.021,0.02
					c-0.004,0.004-0.02,0.037-0.023,0.041l0.026,0.064v0.001l-0.018-0.062c-0.007,0.004-0.058-0.053-0.063-0.051
					c-0.002,0,0.014,0.002,0.013,0.003c-0.005,0.003-0.001,0.008-0.006,0.011l0.245,0.006c-0.002,0,0.242,0.008,0.242,0.008v0.016
					c0,0.002-0.254-0.547-0.258-0.547h-0.119c0,0-0.063,0.265-0.064,0.265c-0.003,0.001-0.036,0.12-0.039,0.122
					c-0.016,0.01-0.044,0.091-0.06,0.099c0,0-0.009,0.037-0.01,0.037c-0.001,0.002-0.007,0.021-0.007,0.021
					c-0.007,0.004-0.013,0.016-0.019,0.018c-0.008,0.004-0.017,0.014-0.024,0.018c-0.009,0.005-0.02,0.011-0.029,0.016
					c-0.004,0.002-0.011,0.2-0.016,0.204C241.35,61.8,241.345,62,241.338,62c-0.001,0-0.003,0-0.005,0
					c-0.001,0-0.003-0.197-0.003-0.197c-0.019,0.008-0.035-0.094-0.052-0.087c-0.008,0.005,0.378-0.063,0.37-0.061
					c-0.014,0.007,0.352-0.087,0.352-0.087v0.006c0,0-0.438,0.07-0.453,0.076c0,0-0.209,0.057-0.211,0.057
					c-0.024,0.01-0.174,0.041-0.199,0.049l-0.047,0.047c-0.001,0.002-0.09,0.09-0.09,0.09v0.006c0,0,0.008-0.059-0.006-0.054
					c-0.002,0.001,0.065-0.483,0.065-0.483c-0.016,0.004,0.001-0.361-0.013-0.361h-0.031c-0.005,0-0.025,0.399-0.03,0.402
					c-0.001-0.003,0.044-0.041,0.042-0.041c-0.023,0.007-0.027,0.311-0.027,0.311v0.25l0,0v0.041c0,0-0.09-0.023-0.104-0.021
					c-0.012,0.003-0.146,0.058-0.158,0.058h0.027c-0.022,0-0.031-0.094-0.054-0.09c-0.041,0.007-0.063-0.059-0.093-0.056
					c-0.058,0.007-0.114-0.003-0.173,0.002c-0.023,0.001-0.033,0.068-0.046,0.069C240.356,61.928,240.314,62,240.27,62h-0.073
					c-0.021,0-0.041-0.08-0.062-0.081c-0.398-0.014-0.792-0.155-1.096-0.298c-0.02-0.008-0.04-0.036-0.059-0.046
					c-0.021-0.011-0.04-0.03-0.061-0.042s-0.041-0.029-0.061-0.041c-0.005-0.002-0.01-0.009-0.015-0.013
					c-0.047-0.031-0.091-0.065-0.133-0.103c-0.021-0.019-0.041-0.039-0.06-0.059c-0.097-0.1-0.178-0.216-0.244-0.34
					c-0.007-0.014-0.014-0.027-0.021-0.041c-0.009-0.018-0.018-0.036-0.026-0.055c-0.008-0.018-0.017-0.035-0.023-0.054
					c-0.013-0.028-0.025-0.056-0.036-0.085c-0.022-0.059-0.043-0.117-0.06-0.178c-0.011-0.033-0.023-0.067-0.031-0.103
					c-0.003-0.009-0.011-0.019-0.012-0.027c-0.011-0.038-0.029-0.078-0.038-0.116c-0.001-0.008-0.068-0.016-0.072-0.035
					c0-0.003-0.088-0.004-0.088-0.008c0-0.002,0-0.005,0-0.005c0-0.004,0.084-0.009,0.082-0.017c0-0.008,0.062-0.016,0.06-0.024
					c-0.014-0.071-0.013-0.144-0.021-0.216c-0.001-0.013,0.003-0.027,0.001-0.039C238.099,59.775,238.093,59.583,238.093,59.417z
					 M237.591,58.367l0.004-0.287l0.064,0.035l0.222,0.119l-0.222,0.102L237.591,58.367z M241.558,61.49
					c-0.006,0.005-0.015,0.01-0.022,0.015C241.543,61.5,241.551,61.496,241.558,61.49L241.558,61.49l0.008-0.004
					C241.563,61.486,241.561,61.488,241.558,61.49z M241.583,61.474L241.583,61.474L241.583,61.474
					c0.004-0.003,0.006-0.004,0.01-0.007c0.002,0,0.003-0.002,0.005-0.004c0.011-0.006,0.021-0.014,0.03-0.021l0,0
					c0.003-0.002,0.007-0.005,0.01-0.007c0.005-0.003,0.009-0.007,0.014-0.01c0.007-0.006,0.014-0.01,0.02-0.016
					c0.002,0,0.005-0.002,0.005-0.002c0.005-0.004,0.008-0.008,0.012-0.01c0.002-0.002,0.002-0.003,0.004-0.004
					c-0.005,0.004-0.009,0.008-0.015,0.011c-0.002,0.002-0.005,0.002-0.007,0.004c-0.005,0.005-0.012,0.007-0.019,0.013
					c-0.005,0.004-0.009,0.004-0.014,0.006c-0.003,0.002-0.007-0.002-0.01-0.002l0,0c-0.008,0-0.017,0.018-0.025,0.027
					c0,0-0.002,0.002-0.005,0.002c-0.001,0.002-0.002,0.003-0.003,0.005c-0.003,0.003-0.006,0.005-0.008,0.01
					C241.585,61.471,241.584,61.473,241.583,61.474z M241.535,61.505c0.008-0.005,0.016-0.009,0.022-0.014V61.49l0.008-0.004
					c-0.002,0-0.005,0.002-0.008,0.004C241.552,61.495,241.543,61.5,241.535,61.505z M241.442,61.56
					c0.001-0.001,0.002-0.001,0.002-0.001c0.004-0.002,0.006-0.002,0.008-0.004s0.005-0.002,0.007-0.004
					c0.01-0.007,0.021-0.012,0.031-0.018c0.003-0.002,0.006-0.004,0.009-0.006c-0.003,0-0.006,0.003-0.009,0.005
					c-0.016,0.009-0.029,0.019-0.045,0.025C241.445,61.558,241.443,61.559,241.442,61.56z M240.873,61.74l0.02,0.027
					c0,0,0.001,0,0.001-0.002c0.006-0.002,0.026-0.01,0.037-0.013c0.013-0.003,0.027-0.011,0.04-0.015
					c-0.001-0.003-0.002-0.006-0.003-0.006c-0.024,0.007-0.049,0.002-0.073,0.002h-0.001
					C240.887,61.734,240.881,61.738,240.873,61.74L240.873,61.74z M240.986,61.734c-0.005,0-0.011,0.001-0.016,0.004l0.001,0.001
					c0.005,0,0.011,0.003,0.016,0.001c0.015-0.004,0.028-0.008,0.042-0.012C241.015,61.732,241.001,61.734,240.986,61.734
					L240.986,61.734z M241.076,61.715c-0.016,0.005-0.029,0.009-0.044,0.013C241.048,61.725,241.063,61.72,241.076,61.715
					L241.076,61.715z M241.085,61.713c-0.002,0-0.004,0.002-0.006,0.002h0.002h0.002h0.013c-0.003,0-0.006-0.002-0.008-0.002h-0.001
					C241.086,61.713,241.085,61.713,241.085,61.713z M241.099,61.715c0,0-0.002,0-0.003,0
					C241.097,61.716,241.098,61.716,241.099,61.715c0.011-0.002,0.018-0.006,0.024-0.01
					C241.116,61.709,241.109,61.712,241.099,61.715z M241.201,61.687c-0.048,0.007-0.064,0.013-0.078,0.019
					C241.137,61.7,241.153,61.693,241.201,61.687L241.201,61.687z"/>
			</g>
			<g>
				<path fill="#FFFFFF" d="M239.577,57.832c-0.114,0.002-0.218,0.006-0.312,0.015c-0.021,0.001-0.033,0.003-0.046,0.005
					c-0.01,0-0.019,0.001-0.027,0.002c-0.014,0.002-0.027,0.004-0.04,0.005c-0.108,0.015-0.203,0.034-0.286,0.06
					c-0.032,0.01-0.063,0.02-0.091,0.031c-0.029,0.011-0.056,0.022-0.081,0.035c-0.06,0.028-0.111,0.061-0.157,0.098
					c-0.068,0.054-0.121,0.111-0.166,0.176c-0.009,0.014-0.014,0.02-0.019,0.027c-0.016,0.023-0.029,0.047-0.044,0.071l-0.015,0.028
					l2.601,3.383c0.495-0.117,0.894-0.374,1.139-0.74l-2.439-3.174L239.577,57.832z"/>
			</g>
			<g>
				<path fill="#FFFFFF" d="M240.429,57.877l1.919,2.499c0.105-0.27,0.173-0.511,0.215-0.723l-1.27-1.655
					c-0.022-0.005-0.045-0.01-0.067-0.014c-0.145-0.026-0.304-0.051-0.479-0.072c-0.05-0.008-0.102-0.014-0.155-0.019
					c-0.007-0.001-0.014-0.001-0.021-0.003C240.521,57.887,240.474,57.881,240.429,57.877z"/>
			</g>
			<g>
				<g>
					<path fill="#364E5B" d="M239.821,57.836c-0.087-0.004-0.168-0.005-0.244-0.004l0.017,0.021l2.438,3.172
						c-0.244,0.368-0.643,0.625-1.138,0.742l-2.601-3.383c-0.002,0.005-0.005,0.01-0.007,0.016
						c-0.038,0.077-0.072,0.179-0.101,0.289c-0.007,0.026-0.013,0.053-0.019,0.08c-0.01,0.043-0.019,0.086-0.025,0.129
						c-0.008,0.039-0.014,0.078-0.02,0.116c-0.001,0.009-0.003,0.019-0.004,0.026c-0.013,0.097-0.021,0.188-0.021,0.268
						c-0.003,0.189,0.001,0.422,0.029,0.667c0.002,0.014,0.003,0.027,0.005,0.041c0.009,0.071,0.02,0.144,0.032,0.216
						c0.002,0.008,0.003,0.017,0.005,0.023c0.003,0.019,0.004,0.023,0.005,0.029c0.005,0.02,0.006,0.027,0.007,0.035
						c0.096,0.459,0.289,0.908,0.664,1.158c0.005,0.003,0.01,0.006,0.014,0.01c0.316,0.202,0.794,0.334,1.275,0.352
						c0.021,0,0.043,0,0.063,0.001c0.024,0,0.048,0,0.072,0c0.045,0,0.089-0.001,0.134-0.003c0.015-0.002,0.03-0.002,0.046-0.004
						c0.06-0.004,0.118-0.01,0.177-0.018c0.033-0.004,0.067-0.01,0.1-0.015c0.058-0.01,0.114-0.021,0.169-0.034
						c0.031-0.008,0.063-0.016,0.093-0.023c0.124-0.035,0.242-0.079,0.352-0.131c0.011-0.006,0.021-0.011,0.032-0.016
						c0.01-0.005,0.019-0.01,0.028-0.015c0.016-0.009,0.031-0.017,0.046-0.024c0.016-0.009,0.03-0.018,0.045-0.025
						c0.015-0.009,0.029-0.018,0.043-0.027c0.009-0.005,0.018-0.01,0.025-0.016c0.026-0.018,0.053-0.035,0.078-0.055
						c0.006-0.003,0.011-0.007,0.015-0.01c0.009-0.007,0.018-0.014,0.025-0.02s0.016-0.012,0.023-0.018
						c0.017-0.014,0.033-0.027,0.05-0.042c0.012-0.011,0.018-0.017,0.023-0.021c0.1-0.09,0.187-0.189,0.26-0.299
						c0.033-0.049,0.063-0.101,0.091-0.153c0.07-0.139,0.127-0.262,0.176-0.38c0.017-0.04,0.033-0.08,0.048-0.118
						c0.028-0.071,0.053-0.142,0.076-0.209c0.017-0.048,0.031-0.096,0.046-0.142c0.002-0.01,0.004-0.017,0.007-0.025
						c0.01-0.034,0.02-0.067,0.029-0.102c0.016-0.061,0.03-0.119,0.043-0.176c0.007-0.031,0.011-0.051,0.014-0.069
						c0.016-0.075,0.028-0.146,0.037-0.213c0.052-0.366,0.024-0.613,0.006-0.718c-0.002-0.01-0.003-0.018-0.005-0.025
						c-0.004-0.02-0.007-0.029-0.008-0.031c-0.017-0.055-0.069-0.16-0.234-0.277c-0.146-0.105-0.381-0.221-0.757-0.319
						c-0.009-0.003-0.017-0.005-0.024-0.007c-0.091-0.023-0.185-0.045-0.284-0.064l1.27,1.655c-0.042,0.212-0.109,0.453-0.215,0.723
						l-1.917-2.495C240.201,57.855,240.001,57.842,239.821,57.836z"/>
				</g>
			</g>
			<g>
				<g>
					<path fill="#364E5B" d="M248.353,61.71c-0.046,0.038-0.096,0.072-0.149,0.103c-0.16,0.09-0.359,0.159-0.579,0.203
						c0.22-0.039,0.419-0.095,0.579-0.186c0.054-0.029,0.103-0.072,0.149-0.111c0.03-0.024,0.06-0.051,0.088-0.078
						c0.132-0.128,0.237-0.289,0.317-0.465c0.038-0.08,0.068-0.166,0.095-0.252c0.002-0.008,0.004-0.015,0.006-0.021
						c-0.029,0.092-0.064,0.182-0.104,0.27l-2.353-3.061c-0.026,0.001-0.053,0.002-0.079,0.004
						c-0.235,0.015-0.439,0.039-0.616,0.067c-0.019,0.003-0.038,0.007-0.057,0.009L248.353,61.71z"/>
				</g>
			</g>
			<g>
				<path fill="#FFFFFF" d="M247.159,58.092c-0.171-0.002-0.36,0.002-0.572,0.01c-0.064,0.002-0.125,0.006-0.186,0.01l2.353,3.061
					c0.04-0.088,0.075-0.178,0.104-0.27c0.035-0.109,0.063-0.221,0.086-0.332c0.009-0.043,0.017-0.087,0.024-0.131L247.159,58.092z"
					/>
			</g>
			<g>
				<path fill="#FFFFFF" d="M245.649,58.191c-0.007,0.002-0.014,0.003-0.021,0.004c-0.04,0.008-0.079,0.016-0.116,0.023
					c-0.691,0.145-0.885,0.376-0.942,0.498c-0.004,0.01-0.009,0.021-0.012,0.029c-0.003,0.013-0.022,0.085-0.035,0.203l2.402,3.125
					c0.15,0.006,0.3-0.002,0.445-0.018c0.085-0.01,0.171-0.023,0.253-0.041c0.22-0.044,0.419-0.113,0.579-0.203
					c0.054-0.03,0.104-0.064,0.149-0.103L245.649,58.191z"/>
			</g>
			<g>
				<g>
					<path fill="#364E5B" d="M247.16,58.092l1.809,2.348c-0.008,0.044-0.016,0.088-0.024,0.131c0.011-0.043,0.021-0.086,0.032-0.128
						c0.066-0.275,0.058-0.542,0.061-0.752c0.003-0.286-0.068-0.738-0.179-0.958c-0.072-0.143-0.164-0.267-0.31-0.366
						c-0.047-0.03-0.088-0.054-0.134-0.076c-0.006-0.003-0.013-0.006-0.02-0.009c-0.047-0.021-0.099-0.042-0.154-0.06
						c-0.037-0.013-0.077-0.023-0.119-0.034c-0.009-0.002-0.018-0.004-0.026-0.006c-0.043-0.01-0.088-0.02-0.135-0.028
						c-0.022-0.004-0.046-0.008-0.07-0.012c-0.013-0.001-0.026-0.003-0.039-0.005c-0.009-0.002-0.018-0.003-0.026-0.004
						c-0.074-0.01-0.154-0.018-0.24-0.025c-0.022,0-0.043-0.002-0.063-0.004c-0.052-0.002-0.105-0.005-0.162-0.007
						C247.296,58.094,247.229,58.093,247.16,58.092z"/>
				</g>
			</g>
			<g>
				<g>
					<path fill="#364E5B" d="M244.517,59.045c-0.021,0.353,0.022,1.022,0.438,1.936c0.295,0.646,0.998,1.076,1.889,1.128
						c0.013,0.001,0.024,0.001,0.036,0.002c0.016,0.001,0.026,0.001,0.037,0.002c0.151-0.018,0.294-0.034,0.432-0.053
						c0.008-0.001,0.015-0.003,0.022-0.003c-0.146,0.016-0.295,0.023-0.445,0.018l-2.402-3.125
						C244.521,58.984,244.519,59.014,244.517,59.045z"/>
				</g>
			</g>
		</g>
		<circle fill="#70573A" cx="236.407" cy="60.665" r="0.289"/>
		<path fill="#CE9D85" d="M236.928,59.691c0,1.922,1.438,3.48,3.212,3.48c1.774,0,3.212-1.559,3.212-3.48
			c0-0.177-0.013-0.35-0.035-0.52c-0.157,0.062-0.174,0.189-0.176,0.208c-0.006,0.032-0.067,0.359-0.193,0.778
			c-0.063,0.213-0.117,0.446-0.245,0.68c-0.127,0.218-0.209,0.432-0.34,0.617c-0.135,0.194-0.29,0.355-0.466,0.462
			c-0.214,0.13-0.442,0.22-0.67,0.282c-0.414,0.113-0.825,0.134-1.146,0.122c-0.636-0.022-1.268-0.181-1.572-0.394
			c-0.639-0.442-0.692-0.705-0.916-2.624c-0.01-0.089-0.03-0.165-0.057-0.228c-0.013-0.025-0.03-0.051-0.049-0.078
			c-0.037-0.05-0.078-0.107-0.104-0.201l-0.353,0.014C236.965,59.092,236.928,59.387,236.928,59.691z"/>
		<path fill="#CE9D85" d="M245.619,62.101c0.01,0.195,0.381,0.392,0.381,0.587v0.008c0,0.388,0.963,0.617,1.758,0.617
			c0.193,0,0.204-0.013,0.389-0.039c0.007-0.181-0.077-0.36-0.073-0.541c0.003-0.086-0.041-0.173-0.04-0.258
			c-0.209,0.045-0.467,0.074-0.713,0.084c-0.113,0.005-0.062,0.006-0.177,0.001C246.678,62.544,246.188,62.449,245.619,62.101z"/>
		<path fill="#E58C4A" d="M222.183,85.6"/>
		<path fill="#E58C4A" d="M234.638,86h8.439l-0.742-4.258l-0.487-2.701L241.36,79h-0.011l-5.345-0.123
			c-0.011,0.013-0.023,0.203-0.036,0.236C235.646,79.881,234.638,86,234.638,86z"/>
		<path fill="#A46922" d="M221.856,85.6c0.155,0.022,0.313,0.039,0.47,0.06l0.472,0.051c0.314,0.032,0.628,0.06,0.941,0.084
			c0.314,0.024,0.629,0.046,0.943,0.065c0.313,0.018,0.627,0.036,0.941,0.049c0.314,0.016,0.629,0.025,0.942,0.037l0.472,0.012
			l0.471,0.012c0.314,0.004,0.628,0.012,0.942,0.012c0.313,0.001,0.628,0.004,0.942,0.002l0.461-0.004l-0.084-0.449
			c-0.053-0.279-0.104-0.56-0.161-0.838c-0.055-0.279-0.111-0.559-0.171-0.836c-0.058-0.28-0.118-0.559-0.18-0.836
			c-0.062-0.278-0.127-0.555-0.19-0.834c-0.067-0.277-0.132-0.554-0.203-0.83l-0.105-0.414l-0.11-0.414
			c-0.074-0.275-0.149-0.552-0.231-0.826c-0.08-0.275-0.163-0.549-0.254-0.821c0.011,0.287,0.03,0.573,0.053,0.858
			c0.021,0.285,0.048,0.57,0.075,0.854l0.045,0.426l0.048,0.427c0.032,0.283,0.068,0.565,0.104,0.849
			c0.039,0.281,0.075,0.564,0.116,0.846c0.042,0.282,0.083,0.564,0.128,0.846c0.043,0.281,0.09,0.561,0.138,0.843
			c0.021,0.13,0.043,0.259,0.065,0.388c-0.162,0-0.324,0.002-0.485,0.002c-0.314,0-0.628,0.008-0.942,0.012l-0.471,0.012
			l-0.472,0.013c-0.313,0.011-0.628,0.021-0.942,0.036c-0.314,0.013-0.628,0.031-0.941,0.049c-0.314,0.02-0.629,0.041-0.943,0.066
			c-0.313,0.025-0.627,0.051-0.941,0.084l-0.472,0.051C222.169,85.559,222.012,85.575,221.856,85.6z"/>
		<path fill="#A46922" d="M241.047,85.187c0.001,0.206,0.001,0.813,0.003,0.813h0.61c0.001,0,0.002-0.607,0.003-0.813
			c-0.002-0.385-0.003-0.868-0.009-1.247c-0.005-0.379-0.016-0.803-0.026-1.163s-0.024-0.734-0.041-1.064
			c-0.016-0.332-0.035-0.657-0.055-0.946c-0.017-0.289-0.039-0.56-0.06-0.793c-0.018-0.235-0.04-0.442-0.056-0.61
			c-0.017-0.168-0.034-0.304-0.045-0.394c-0.005-0.04-0.009-0.072-0.012-0.095c-0.004-0.03-0.005-0.044-0.005-0.044
			s-0.002,0.014-0.006,0.043c-0.003,0.023-0.007,0.055-0.013,0.095c-0.01,0.09-0.027,0.223-0.043,0.392
			c-0.017,0.168-0.039,0.372-0.057,0.607c-0.02,0.233-0.043,0.498-0.06,0.787c-0.02,0.289-0.039,0.602-0.055,0.933
			c-0.017,0.331-0.031,0.68-0.042,1.04c-0.01,0.361-0.021,0.834-0.024,1.213C241.049,84.318,241.048,84.802,241.047,85.187z"/>
		<g>
			<path fill="#EFBFA5" d="M230.341,60.736l0.329,0.098l0.33,0.043v0.018l-0.328,0.021c0.006,0.087-0.151,0.173-0.141,0.259
				c0.004,0.028-0.075,0.058-0.07,0.085c0.038,0.225,0.058,0.442,0.143,0.642c0.085,0.201,0.171,0.385,0.293,0.544
				c0.119,0.161,0.247,0.296,0.386,0.404c0.14,0.107,0.277,0.19,0.413,0.244c0.04,0.017,0.077,0.03,0.117,0.042
				c-0.345-0.231-0.642-0.594-0.69-1.16c-0.129-1.479,0.384-1.607,0.899-2.508c0.092-0.158,0.178-0.309,0.258-0.454
				c-0.135-0.051-0.289-0.087-0.452-0.089c-0.167-0.004-0.343,0.03-0.51,0.11c-0.169,0.076-0.326,0.202-0.466,0.354
				c-0.067,0.078-0.132,0.162-0.188,0.253c-0.056,0.092-0.107,0.188-0.149,0.29c-0.086,0.203-0.142,0.423-0.162,0.646
				c-0.002,0.014-0.003,0.027-0.004,0.041C230.345,60.658,230.344,60.695,230.341,60.736z"/>
			<path fill="#CE9D85" d="M229.863,60.746L230,60.842v0.049v0.017v0.006v0.014l-0.131,0.026c0.008,0.141-0.036,0.279-0.01,0.416
				c0.029,0.138,0.033,0.271,0.081,0.4c0.047,0.129,0.085,0.252,0.148,0.369c0.127,0.236,0.276,0.442,0.451,0.613
				c0.173,0.172,0.36,0.304,0.55,0.398c0.19,0.094,0.376,0.151,0.545,0.172c0.17,0.022,0.318,0.01,0.435-0.015
				c0.014-0.003,0.025-0.005,0.038-0.008c0.097-0.022,0.17-0.06,0.221-0.081c0.053-0.03,0.082-0.047,0.082-0.047
				s-0.033,0.005-0.094,0.014c-0.06,0.005-0.147,0.01-0.256,0c-0.075-0.006-0.16-0.023-0.251-0.051
				c-0.039-0.012-0.079-0.025-0.119-0.042c-0.136-0.054-0.278-0.137-0.419-0.244c-0.139-0.108-0.276-0.243-0.396-0.404
				c-0.122-0.159-0.229-0.343-0.313-0.544c-0.085-0.199-0.146-0.417-0.185-0.642c-0.005-0.027,0.32-0.057,0.316-0.085
				c-0.012-0.086,0.305-0.172,0.305-0.259v-0.038l-0.33-0.043l-0.165-0.098c0.003-0.041-0.079-0.078-0.075-0.117
				c0-0.014-0.039-0.027-0.038-0.041c0.021-0.224,0.057-0.443,0.144-0.646c0.041-0.103,0.083-0.198,0.139-0.29
				c0.057-0.091,0.116-0.175,0.184-0.253c0.14-0.152,0.294-0.278,0.462-0.354c0.168-0.08,0.343-0.114,0.51-0.11
				c0.163,0.002,0.315,0.038,0.45,0.089c0.004,0.001,0.008,0.003,0.012,0.005c0.138,0.051,0.253,0.118,0.349,0.175
				c0.046,0.03,0.086,0.06,0.123,0.083c0.037,0.024,0.064,0.049,0.09,0.066c0.049,0.037,0.076,0.058,0.076,0.058
				s-0.018-0.028-0.05-0.081c-0.032-0.054-0.084-0.128-0.158-0.219c-0.078-0.086-0.176-0.195-0.315-0.292
				c-0.005-0.003-0.01-0.007-0.016-0.01c-0.135-0.095-0.307-0.183-0.516-0.229c-0.107-0.026-0.225-0.032-0.346-0.031
				c-0.121,0.006-0.248,0.023-0.372,0.063c-0.249,0.072-0.487,0.215-0.691,0.402c-0.201,0.19-0.375,0.423-0.495,0.683
				c-0.127,0.259-0.133,0.545-0.163,0.834C229.799,60.59,229.865,60.673,229.863,60.746z"/>
			<ellipse fill="#CE9D85" cx="231.929" cy="61.098" rx="0.764" ry="1.195"/>
		</g>
		<path fill="#CE9D85" d="M232.984,68.541c0.091,0.564,0.121,1.33,0.177,2.186c0.171,0.395,0.341,0.791,0.472,1.104
			c0,0,0.002,0.004,0.003,0.006c0.155,0.372,0.369,0.698,0.617,0.979c0.186,0.211,0.391,0.396,0.604,0.552
			c-0.055-0.367-0.086-0.744-0.064-1.091c-0.248-0.281-0.462-0.607-0.617-0.98c-0.001,0-0.002-0.004-0.002-0.004
			C233.803,70.412,233.137,68.889,232.984,68.541z"/>
	</g>
	<polygon fill="#E5E5E5" points="200.79,76.285 208.335,76.488 266.649,76.73 271.155,84.419 200.931,84.04 	"/>
	<polygon fill="#E5E5E5" points="133.79,76.285 140.498,76.488 192.342,76.73 196.348,84.419 133.915,84.04 	"/>
	<path fill="#E5E5E5" d="M199.779,31.117l-0.052,12.109l-135.956-0.57c0,0-13.904-0.059-21.29-0.09
		c-0.631-0.002-1.221,0.059-1.772,0.175c0.167-0.653,0.336-1.313,0.512-1.966c1.415-5.324,3.231-10.311,9.021-10.283L199.779,31.117
		z"/>
	<path fill="#E5E5E5" d="M264.118,43.279l-64.369-0.271l0.056-13.188l33.369,0.139c0,0,13.905,0.059,21.29,0.09
		c6.174,0.026,7.779,5.719,9.205,11.441C263.823,42.089,263.97,42.689,264.118,43.279z"/>
	<path opacity="0.5" fill="#77A0B7" d="M193.841,51.227l-0.092,22.049c-0.008,1.74-1.422,3.145-3.162,3.135l-52.755-0.221
		c-1.739-0.009-3.144-1.422-3.137-3.162l0.094-22.047c0.007-1.742,1.425-3.145,3.162-3.137l52.754,0.223
		C192.447,48.074,193.849,49.486,193.841,51.227z"/>
	<path fill="#001526" d="M124.228,50.936l-0.092,22.046c-0.007,1.74-1.43,3.144-3.163,3.136l-60.628-0.253
		c-1.738-0.008-3.144-1.424-3.136-3.162l0.052-12.53c0.031-6.998,5.22-12.645,11.598-12.619l52.233,0.22
		C122.825,47.779,124.236,49.195,124.228,50.936z"/>
	<path opacity="0.5" fill="#77A0B7" d="M269.634,73.597c1.036,3.153-2.212,3.14-3.95,3.132l-57.349-0.24
		c-1.74-0.008-3.145-1.422-3.136-3.162l0.092-22.047c0.007-1.738,1.424-3.145,3.162-3.137l49.474,0.21
		c2.559,0.01,3.462,1.396,4.057,3.164L269.634,73.597z"/>
	<path opacity="0.5" fill="#77A0B7" d="M278.03,75.093c-1.565-0.108-3.906-1.205-3.906-1.205c-1.764-0.659-2.742-1.398-3.342-3.257
		l-6.503-19.106c0.008-1.74,1.423-3.144,3.163-3.136l0.691,0.002L278.03,75.093z"/>
	<g>
		
			<rect x="249.469" y="48.316" transform="matrix(1 0.0035 -0.0035 1 0.2228 -0.8876)" fill="#C6C6C6" width="2.759" height="28.346"/>
	</g>
	<path fill="#001526" d="M279.97,84.455l-0.041,9.42c-0.001,0.307-0.002,0.627-0.012,0.961c-0.003,0.84-0.015,1.754-0.019,2.745
		l-0.136,32.025c-0.029,7.241-5.928,13.091-13.171,13.061l-7.489-0.03c-0.677-0.002-1.281-0.314-1.682-0.795
		c0,0-0.007,0.001-0.007-0.009l-0.267-0.426l-0.093-0.236l-9.343-21.685c-1.201-2.706-2.776-4.444-4.839-4.454l-0.709-0.003
		l-5.653-0.054l-19.835-0.053l-0.701-0.003c-2.069-0.009-3.659,1.72-4.875,4.412l-9.491,21.528l-0.193,0.432
		c-0.38,0.659-1.09,1.099-1.91,1.094l-80.814-0.339c-0.678-0.002-1.283-0.313-1.683-0.794c0,0-0.007-0.002-0.007-0.009l-0.307-0.496
		c-0.006-0.019-0.016-0.031-0.015-0.041l-6.334-10.303c-1.204-1.901-2.782-3.121-4.845-3.131l-0.71-0.001l-19.824-0.106
		l-19.835-0.061l-0.701-0.003c-2.07-0.009-3.658,1.198-4.872,3.089l-6.499,10.373l-0.199,0.316c-0.396,0.54-1.035,0.886-1.76,0.882
		l-12.833-0.054c-7.252-0.03-9.163-5.913-9.134-13.156l0.189-45.148c-0.001-0.109,0-0.213,0.009-0.315
		c0.354,0.169,0.748,0.263,1.158,0.266l9.825,0.039c0.347,0.044,0.7,0.062,1.062,0.062L279.97,84.455z"/>
	<g>
		<rect x="127.684" y="41.248" transform="matrix(1 0.005 -0.005 1 0.313 -0.6387)" fill="#C6C6C6" width="2.361" height="43.022"/>
		
			<rect x="198.483" y="42.048" transform="matrix(1 0.0041 -0.0041 1 0.2633 -0.8245)" fill="#C6C6C6" width="2.363" height="42.52"/>
	</g>
	<path fill="none" stroke="#000000" stroke-width="0.7874" stroke-miterlimit="10" d="M279.927,93.873l-0.004,0.96l-0.006,0.001
		C279.927,94.502,279.927,94.18,279.927,93.873z"/>
	<g>
		<path fill="#FFFFFF" d="M197.194,81.297c-0.008,1.521-1.247,2.75-2.767,2.743l-60.499-0.254c-1.522-0.005-2.75-1.245-2.743-2.769
			l0,0c0.005-1.521,1.245-2.749,2.768-2.742l60.496,0.254C195.971,78.536,197.2,79.774,197.194,81.297L197.194,81.297z"/>
		<path fill="#FFFFFF" d="M277.867,81.637c-0.008,1.52-1.248,2.75-2.77,2.742l-70.074-0.293c-1.522-0.008-2.751-1.246-2.743-2.768
			l0,0c0.006-1.522,1.245-2.752,2.767-2.745l70.075,0.296C276.644,78.875,277.872,80.113,277.867,81.637L277.867,81.637z"/>
		<path fill="#FFFFFF" d="M126.693,81c-0.007,1.52-1.248,2.751-2.767,2.745l-93.438-0.395c-0.41,0.001-0.804-0.095-1.158-0.262
			c-0.94-0.438-1.592-1.4-1.587-2.501c0.004-0.758,0.313-1.449,0.818-1.944c0.231-0.229,0.5-0.414,0.798-0.546
			c0.349-0.175,0.741-0.258,1.152-0.258l93.438,0.393C125.469,78.239,126.7,79.48,126.693,81z"/>
	</g>
	<g>
		<path fill="#E5E5E5" d="M46.18,142.086c-0.007,1.679-1.374,3.036-3.055,3.028l-13.452-0.054c-1.681-0.009-3.039-1.378-3.031-3.058
			l0.033-7.849c0.008-1.68,1.375-3.036,3.057-3.028l13.452,0.057c1.68,0.006,3.036,1.373,3.029,3.055L46.18,142.086z"/>
		<path fill="#E5E5E5" d="M280.555,143.07c-0.007,1.68-1.374,3.036-3.054,3.028l-13.454-0.057c-1.678-0.006-3.035-1.374-3.028-3.056
			l0.033-7.85c0.008-1.678,1.374-3.034,3.054-3.027l13.454,0.058c1.68,0.007,3.036,1.374,3.029,3.053L280.555,143.07z"/>
	</g>
	<path fill="#D03D00" d="M48.699,123.98c-0.004,0.435-0.356,0.787-0.792,0.785l-6.691-0.029c-0.436-0.003-0.786-0.357-0.784-0.792
		l0.015-3.346c0-0.435,0.354-0.786,0.79-0.784l6.691,0.03c0.435,0,0.787,0.354,0.785,0.788L48.699,123.98z"/>
	<path fill="#D03D00" d="M275.154,124.931c-0.002,0.434-0.356,0.786-0.791,0.784l-6.692-0.027c-0.435-0.002-0.785-0.355-0.783-0.792
		l0.013-3.346c0.003-0.434,0.356-0.787,0.79-0.784l6.693,0.029c0.436,0.001,0.786,0.354,0.785,0.79L275.154,124.931z"/>
	<g>
		<path fill="#001526" d="M54.38,50.643l-0.057,0.272l-0.32,1.653l-0.225,1.182l-0.324,1.651l-0.232,1.18l-0.322,1.655l-0.232,1.178
			l-0.323,1.652l-0.226,1.182l-0.321,1.651l-0.233,1.179l-0.32,1.654l-0.234,1.18l-0.321,1.651l-0.227,1.178l-0.321,1.655
			l-0.057,0.275c-0.048,0.322-0.136,0.629-0.264,0.902c-0.59,1.408-1.953,2.238-3.403,2.23l-3.825-0.017
			c-1.434-0.006-2.838-0.946-3.125-2.257c-0.023-0.109-0.039-0.229-0.046-0.348l0.001-0.352c0.008-0.064,0.026-0.133,0.033-0.205
			l0.055-0.275l0.323-1.652l0.225-1.18l0.321-1.653l0.234-1.181l0.32-1.65l0.233-1.181l0.322-1.651l0.227-1.182l0.321-1.651
			l0.235-1.181l0.321-1.652l0.232-1.18l0.321-1.653l0.226-1.179l0.322-1.654l0.057-0.273c0.071-0.331,0.167-0.629,0.287-0.904
			c0.677-1.532,2.057-2.235,3.53-2.229l3.675,0.017c1.449,0.006,2.817,0.861,3.094,2.257C54.405,50.02,54.413,50.318,54.38,50.643z"
			/>
		<path fill="#FFFFFF" d="M54.38,50.643l-0.057,0.272l-10.629-0.044l0.057-0.273c0.071-0.331,0.167-0.629,0.287-0.904l10.299,0.044
			C54.405,50.02,54.413,50.318,54.38,50.643z"/>
		<polygon fill="#FFFFFF" points="53.454,55.401 53.222,56.581 42.593,56.537 42.825,55.357 		"/>
		<polygon fill="#FFFFFF" points="54.003,52.568 53.778,53.75 43.146,53.704 43.372,52.525 		"/>
		<polygon fill="#FFFFFF" points="52.899,58.236 52.667,59.414 42.036,59.37 42.271,58.189 		"/>
		<polygon fill="#FFFFFF" points="52.344,61.066 52.118,62.248 41.488,62.203 41.715,61.021 		"/>
		<polygon fill="#FFFFFF" points="51.797,63.899 51.563,65.078 40.933,65.035 41.166,63.854 		"/>
		<polygon fill="#FFFFFF" points="51.243,66.732 51.009,67.912 40.378,67.866 40.612,66.686 		"/>
		<polygon fill="#FFFFFF" points="40.057,69.52 50.688,69.563 50.461,70.741 39.832,70.699 		"/>
		<path fill="#FFFFFF" d="M39.509,72.352l10.631,0.045l-0.057,0.275c-0.048,0.322-0.136,0.629-0.264,0.902l-10.354-0.043h-0.048
			l0.002-0.348l0.001-0.352L39.509,72.352z"/>
	</g>
	<path d="M213.909,93.441c-0.008,1.305-1.069,2.356-2.373,2.352l-6.692-0.029c-1.306-0.005-2.358-1.066-2.354-2.371l0,0
		c0.005-1.305,1.067-2.357,2.373-2.353l6.691,0.03C212.859,91.074,213.913,92.137,213.909,93.441L213.909,93.441z"/>
	<path fill="#E5E5E5" d="M293.598,106.972c-0.165,11.415-3.456,20.519-4.431,20.334l-9.393-0.126l0.124-29.599
		c0.004-0.991,0.016-1.905,0.019-2.745c0.01-0.334,0.011-0.654,0.012-0.961l0.033-8.079l9.766,0.134
		c0.014,0.002,0.029,0.002,0.045,0.008C290.75,86.124,293.771,95.555,293.598,106.972z"/>
	<path fill="#C6C6C6" d="M199.757,41.221l-0.008,1.787L63.793,42.437c0,0-13.904-0.059-21.29-0.089
		c-0.631-0.002-1.221,0.058-1.772,0.174c0.167-0.654,0.336-1.313,0.512-1.967L199.757,41.221z"/>
	<path fill="#C6C6C6" d="M264.118,43.279l-64.369-0.271l0.008-1.787l63.912,0.27C263.823,42.089,263.97,42.689,264.118,43.279z"/>
	<polygon fill="#FFFFFF" points="75.097,50.365 76.3,49.165 77.244,50.58 78.655,49.629 79.315,51.197 80.878,50.532 81.229,52.195 
		82.892,51.836 82.92,53.537 84.619,53.5 84.326,55.176 86.004,55.461 85.399,57.049 86.991,57.646 86.097,59.093 87.547,59.98 
		86.397,61.23 87.65,62.377 86.284,63.388 87.299,64.75 85.766,65.484 86.505,67.014 84.859,67.445 85.297,69.088 83.602,69.196 
		83.72,70.896 82.032,70.683 81.826,72.368 80.209,71.84 79.689,73.459 78.202,72.634 77.385,74.127 76.08,73.035 74.994,74.342 
		73.921,73.026 72.608,74.105 71.802,72.607 70.307,73.42 69.801,71.798 68.181,72.313 67.989,70.623 66.302,70.822 66.433,69.126 
		64.736,69.001 65.189,67.361 63.548,66.918 64.299,65.395 62.771,64.647 63.799,63.292 62.44,62.271 63.704,61.137 62.563,59.877 
		64.021,59 63.14,57.547 64.736,56.962 64.146,55.368 65.823,55.098 65.544,53.419 67.244,53.471 67.288,51.771 68.946,52.143 
		69.313,50.482 70.87,51.164 71.544,49.601 72.945,50.563 73.902,49.156 	"/>
	<polygon fill="#E5E5E5" points="200.931,43.279 254.899,43.24 258.543,48.389 210.149,48.143 200.909,47.881 	"/>
	<polygon fill="#E5E5E5" points="138,42.967 191.945,43.24 195.565,48.389 147.206,48.143 138,47.881 	"/>
	<g>
		<path fill="#E5E5E5" d="M116.784,134.262v-3.465l8.955-11.295c0.932-1.2,1.545-2.003,1.846-2.408
			c0.299-0.404,0.592-0.974,0.877-1.71c0.285-0.734,0.428-1.619,0.428-2.654s-0.352-1.883-1.057-2.543
			c-0.705-0.659-1.605-0.99-2.701-0.99c-1.094,0-1.92,0.091-2.475,0.271s-0.885,0.383-0.988,0.607
			c-0.107,0.225-0.158,0.578-0.158,1.058v3.195l-4.59-0.315v-7.2c2.818-1.409,5.715-2.115,8.684-2.115
			c2.971,0,5.205,0.729,6.705,2.183c1.5,1.456,2.25,3.442,2.25,5.963c0,2.52-1.275,5.325-3.824,8.415l-7.246,8.55h11.25v4.455
			H116.784z"/>
		<path fill="#E5E5E5" d="M149.454,104.696c6.811,0,10.215,4.936,10.215,14.806c0,5.25-0.885,9.098-2.654,11.542
			c-1.771,2.445-4.395,3.668-7.875,3.668s-6.074-1.207-7.785-3.623c-1.709-2.414-2.564-6.172-2.564-11.272
			c0-5.1,0.945-8.895,2.834-11.385C143.515,105.942,146.124,104.696,149.454,104.696z M145.517,128.074
			c0.855,1.546,2.094,2.317,3.713,2.317s2.873-0.794,3.758-2.385c0.885-1.59,1.328-4.357,1.328-8.303
			c0-3.944-0.428-6.697-1.283-8.258c-0.855-1.56-2.107-2.34-3.758-2.34s-2.902,0.833-3.758,2.498s-1.281,4.44-1.281,8.325
			S144.661,126.529,145.517,128.074z"/>
		<path fill="#E5E5E5" d="M170.515,128.816v-17.685l-5.266,2.7l-1.98-3.465l8.191-5.086h4.41v24.931l4.68,0.225v3.825h-15.66v-3.69
			l4.32-0.27c0.449-0.029,0.779-0.149,0.99-0.36C170.409,129.732,170.515,129.356,170.515,128.816z"/>
		<path fill="#E5E5E5" d="M189.233,117.477h4.635c1.801-1.14,2.701-2.745,2.701-4.814c0-2.311-1.305-3.466-3.916-3.466
			c-0.959,0-1.762,0.105-2.406,0.315c-0.646,0.21-1.021,0.428-1.125,0.652c-0.105,0.226-0.158,0.578-0.158,1.058v3.24l-4.59-0.315
			v-7.2c3-1.499,5.969-2.25,8.91-2.25c2.939,0,5.137,0.668,6.592,2.003s2.184,3.067,2.184,5.197c0,1.561-0.377,2.978-1.125,4.253
			c-0.75,1.275-1.74,2.303-2.971,3.082c3.029,0.961,4.545,3.091,4.545,6.391c0,2.76-0.855,4.987-2.564,6.683
			c-1.711,1.694-4.246,2.542-7.605,2.542c-1.65,0-3.293-0.225-4.928-0.675s-2.932-0.975-3.893-1.575l1.576-4.275
			c2.369,1.321,4.725,1.98,7.064,1.98c3.27,0,4.904-1.455,4.904-4.365c0-1.5-0.494-2.603-1.484-3.308
			c-0.99-0.704-2.67-1.058-5.041-1.058h-1.709L189.233,117.477z"/>
	</g>
</g>
<g id="fumée_seule">
</g>
<g id="fumée_double">
</g>
</svg>
