<?xml version="1.0" encoding="utf-8"?>
<!-- Generator: Adobe Illustrator 17.0.0, SVG Export Plug-In . SVG Version: 6.00 Build 0)  -->
<!DOCTYPE svg PUBLIC "-//W3C//DTD SVG 1.1//EN" "http://www.w3.org/Graphics/SVG/1.1/DTD/svg11.dtd">
<svg version="1.1" id="Calque_1" xmlns="http://www.w3.org/2000/svg" xmlns:xlink="http://www.w3.org/1999/xlink" x="0px" y="0px"
	 width="331.738px" height="391.347px" viewBox="0 0 331.738 391.347" enable-background="new 0 0 331.738 391.347"
	 xml:space="preserve">
<path fill="#E44E7E" stroke="#E44E7E" stroke-width="5.45" stroke-miterlimit="10" d="M163.411,275.165
	c-75.838-1.021-132.527,41.488-132.527,92.667h265.053C295.938,316.653,236.597,276.15,163.411,275.165z"/>
<g>
	<defs>
		<path id="SVGID_1_" d="M163.411,275.165c-75.838-1.021-132.527,41.488-132.527,92.667h265.053
			C295.938,316.653,236.597,276.15,163.411,275.165z"/>
	</defs>
	<clipPath id="SVGID_2_">
		<use xlink:href="#SVGID_1_"  overflow="visible"/>
	</clipPath>
	<path opacity="0.2" clip-path="url(#SVGID_2_)" fill="#323B49" stroke="#323B49" stroke-width="2" stroke-miterlimit="10" d="
		M121.968,270.484c0,0-68.75,32-72.25,108s-38.25,5.25-39,5.5s-4.5-28.25-4.5-28.25l21-34.245l21.75-22.288L121.968,270.484z"/>
	<path opacity="0.2" clip-path="url(#SVGID_2_)" fill="#323B49" stroke="#323B49" stroke-width="2" stroke-miterlimit="10" d="
		M185.56,297.574c-11.048,7.044-49.572,4.047-53.242-0.208c-6.886-7.982,0-37.791,0-37.791h56.401
		C188.719,259.575,192.293,293.281,185.56,297.574z"/>
</g>
<path fill="#FDDDBB" stroke="#FDDDBB" stroke-miterlimit="10" d="M189.692,296.757c-11.048,7.044-49.572,4.047-53.242-0.208
	c-6.886-7.982,0-37.791,0-37.791h56.401C192.85,258.758,196.425,292.464,189.692,296.757z"/>
<circle fill="#FDDDBB" stroke="#FDDDBB" stroke-miterlimit="10" cx="69.737" cy="159.707" r="24.072"/>
<circle fill="#FDDDBB" stroke="#FDDDBB" stroke-miterlimit="10" cx="265.309" cy="160.198" r="24.072"/>
<path fill="#FDDDBB" stroke="#FDDDBB" stroke-miterlimit="10" d="M269.295,160.562c0,56.178-45.711,101.719-102.099,101.719
	S65.098,216.74,65.098,160.562S111.746,48.169,168.133,48.169S269.295,104.384,269.295,160.562z"/>
<g>
	<g>
		<path fill="#323B49" d="M58.517,151.772c-2.554-0.19-4.679,2.304-5.795,4.305c-1.446,2.593-1.42,5.75,0.762,7.9
			c1.574,1.552,3.998-0.87,2.423-2.423c-1.225-1.208-0.783-2.75-0.027-4.106c0.466-0.836,1.538-2.332,2.637-2.251
			C60.723,155.363,60.707,151.935,58.517,151.772L58.517,151.772z"/>
	</g>
</g>
<g>
	<g>
		<path fill="#323B49" d="M276.217,155.744c2.2,0.105,3.837,4.712,2.197,6.212c-1.634,1.494,0.796,3.91,2.423,2.423
			c1.838-1.681,1.712-4.653,1.158-6.862c-0.702-2.8-2.811-5.057-5.778-5.199C274.008,152.213,274.018,155.64,276.217,155.744
			L276.217,155.744z"/>
	</g>
</g>
<g>
	<g>
		<path fill="#323B49" d="M131.029,132.229c-6.496,0.082-12.783,1.601-17.308,6.538c-1.489,1.625,0.927,4.055,2.423,2.423
			c3.936-4.295,9.257-5.463,14.886-5.535C133.237,135.627,133.24,132.201,131.029,132.229L131.029,132.229z"/>
	</g>
</g>
<g>
	<g>
		<path fill="#323B49" d="M203.197,136.525c5.629,0.071,10.95,1.24,14.886,5.535c1.496,1.632,3.912-0.797,2.423-2.423
			c-4.525-4.938-10.812-6.456-17.308-6.538C200.987,133.071,200.99,136.497,203.197,136.525L203.197,136.525z"/>
	</g>
</g>
<g>
	<g>
		<path fill="#323B49" d="M219.427,155.212c-5.054-5.671-12.759-7.267-20.094-7.019c-4.478,0.152-13.02,2.588-15.024,7.244
			c-1.145,2.66,2.767,4.976,3.922,2.292c1.401-3.255,8.165-4.692,11.102-4.995c6.005-0.62,12.807,1.115,16.882,5.688
			C218.168,160.615,221.368,157.391,219.427,155.212L219.427,155.212z"/>
	</g>
</g>
<g>
	<g>
		<path fill="#323B49" d="M147.778,155.663c-5.054-5.671-12.759-7.267-20.094-7.019c-4.478,0.151-13.02,2.588-15.024,7.244
			c-1.145,2.66,2.767,4.976,3.922,2.292c1.401-3.255,8.165-4.692,11.102-4.995c6.005-0.62,12.807,1.115,16.882,5.688
			C146.519,161.065,149.719,157.842,147.778,155.663L147.778,155.663z"/>
	</g>
</g>
<g>
	<g>
		<path fill="#323B49" d="M186.893,214.158c-3.83-2.483-8.196-5.144-12.509-6.648c-1.732-0.604-3.388-0.257-4.876,0.677
			c-0.786,0.493-3.692,4.933-4.694,3.517c-2.132-3.013-4.224-5.474-8.472-4.461c-4.704,1.121-8.397,4.907-12.83,6.699
			c-2.679,1.083-1.51,5.477,1.207,4.379c3.642-1.472,7.158-3.686,10.501-5.744c5.654-3.482,4.888,3.569,8.947,4.263
			c3.237,0.554,4.703-1.092,6.626-3.53c2.062-2.615,4.38-0.542,6.563,0.767c2.373,1.423,4.907,2.485,7.246,4.002
			C187.067,219.678,189.341,215.745,186.893,214.158L186.893,214.158z"/>
	</g>
</g>
<g>
	<g>
		<path fill="#323B49" d="M139.479,215.371c5.127,9.112,16.306,9.956,25.707,9.839c4.855-0.06,9.912-0.146,14.487-1.946
			c4.331-1.704,7.796-5.131,11.083-8.305c2.11-2.038-1.105-5.246-3.211-3.211c-2.711,2.618-5.414,5.206-8.772,6.976
			c-3.577,1.885-8.072,1.797-11.993,1.912c-8.031,0.235-18.881,0.435-23.378-7.557C141.965,210.527,138.041,212.816,139.479,215.371
			L139.479,215.371z"/>
	</g>
</g>
<path fill="none" stroke="#000000" stroke-width="5" stroke-miterlimit="10" d="M188.718,305.734"/>
<path fill="none" stroke="#000000" stroke-width="5" stroke-miterlimit="10" d="M138.718,305.734"/>
<path fill="none" stroke="#000000" stroke-width="5" stroke-miterlimit="10" d="M183.718,316.734"/>
<path fill="none" stroke="#000000" stroke-width="5" stroke-miterlimit="10" d="M141.718,316.734"/>
<path fill="none" stroke="#000000" stroke-width="5" stroke-miterlimit="10" d="M176.718,328.734"/>
<path fill="none" stroke="#000000" stroke-width="5" stroke-miterlimit="10" d="M148.718,328.734"/>
<g>
	<g>
		<path fill="#323B49" d="M203.239,163.367c9.673,0,9.673-15,0-15S193.566,163.367,203.239,163.367L203.239,163.367z"/>
	</g>
</g>
<g>
	<g>
		<path fill="#323B49" d="M130.165,163.752c9.673,0,9.673-15,0-15S120.492,163.752,130.165,163.752L130.165,163.752z"/>
	</g>
</g>
<g>
	<g>
		<path fill="#323B49" d="M118.423,151.135c-1.479-1.103-3.372-1.436-5.051-2.127c-0.865-0.356-1.882,0.379-2.107,1.196
			c-0.271,0.984,0.334,1.752,1.196,2.107c1.416,0.583,2.986,0.853,4.232,1.782c0.75,0.559,1.911,0.124,2.344-0.615
			C119.549,152.605,119.17,151.692,118.423,151.135L118.423,151.135z"/>
	</g>
</g>
<g>
	<g>
		<path fill="#323B49" d="M114.382,154.321c-1.104-0.043-2.211-0.749-3.209-1.16c-0.865-0.356-1.882,0.379-2.107,1.196
			c-0.271,0.984,0.334,1.752,1.196,2.107c1.367,0.564,2.609,1.224,4.12,1.283C116.592,157.833,116.584,154.407,114.382,154.321
			L114.382,154.321z"/>
	</g>
</g>
<g>
	<g>
		<path fill="#323B49" d="M217.831,149.669c-1.351,0.874-2.872,1.461-4.153,2.443c-0.74,0.567-1.131,1.462-0.615,2.344
			c0.428,0.73,1.601,1.184,2.344,0.615c1.281-0.982,2.802-1.569,4.153-2.443C221.408,151.433,219.692,148.465,217.831,149.669
			L217.831,149.669z"/>
	</g>
</g>
<g>
	<g>
		<path fill="#323B49" d="M220.762,153.089c-1.216,0.862-2.653,1.174-3.767,2.222c-1.612,1.517,0.815,3.935,2.423,2.423
			c0.774-0.729,2.131-1.018,3.073-1.686c0.76-0.539,1.118-1.485,0.615-2.344C222.665,152.952,221.526,152.548,220.762,153.089
			L220.762,153.089z"/>
	</g>
</g>
<g>
	<g>
		<path fill="#F1B593" d="M106.276,172.636c2.209,0,2.209-3.426,0-3.426S104.066,172.636,106.276,172.636L106.276,172.636z"/>
	</g>
</g>
<g>
	<g>
		<path fill="#323B49" d="M162.211,170.155c-3.564,3.846-6.987,10.665-3.835,15.757c2.61,4.215,9.855,3.023,13.605,1.527
			c2.612-1.042,1.474-5.315-1.174-4.259c-2.237,0.892-6.483,2.182-8.636,0.421c-1.144-0.936-0.368-3.923-0.055-5.064
			c0.544-1.986,1.841-3.772,3.218-5.259C167.266,171.192,164.15,168.062,162.211,170.155L162.211,170.155z"/>
	</g>
</g>
<g>
	<g opacity="0.2">
		<line fill="#323B49" x1="274.718" y1="173.234" x2="274.718" y2="196.234"/>
		<g>
			<path fill="#323B49" d="M272.402,173.38c0,7.586,0,15.172,0,22.758c0,3.224,5,3.224,5,0c0-7.586,0-15.172,0-22.758
				C277.402,170.156,272.402,170.156,272.402,173.38L272.402,173.38z"/>
		</g>
	</g>
	<g opacity="0.2">
		<path fill="#323B49" d="M279.808,172.833c0.057,4.44,1.232,9.421,1.289,13.861"/>
		<g>
			<path fill="#323B49" d="M277.308,172.833c0.138,4.649,1.151,9.213,1.289,13.861c0.096,3.217,5.096,3.226,5,0
				c-0.138-4.649-1.151-9.213-1.289-13.861C282.212,169.616,277.212,169.607,277.308,172.833L277.308,172.833z"/>
		</g>
	</g>
</g>
<g opacity="0.2">
	<line fill="#323B49" x1="58.718" y1="174.234" x2="58.718" y2="197.234"/>
	<g>
		<path fill="#323B49" d="M56.597,174.38c0,7.586,0,15.172,0,22.758c0,3.224,5,3.224,5,0c0-7.586,0-15.172,0-22.758
			C61.597,171.156,56.597,171.156,56.597,174.38L56.597,174.38z"/>
	</g>
</g>
<g opacity="0.2">
	<path fill="#323B49" d="M54.19,173.833c-0.057,4.44-1.232,9.421-1.289,13.861"/>
	<g>
		<path fill="#323B49" d="M51.69,173.833c-0.138,4.649-1.151,9.213-1.289,13.861c-0.096,3.226,4.904,3.217,5,0
			c0.138-4.649,1.151-9.213,1.289-13.861C56.786,170.607,51.786,170.616,51.69,173.833L51.69,173.833z"/>
	</g>
</g>
<g>
	<g>
		<path fill="#87C8CB" d="M271.188,173.38c0,7.586,0,15.172,0,22.758c0,2.209,3.426,2.209,3.426,0c0-7.586,0-15.172,0-22.758
			C274.615,171.171,271.188,171.171,271.188,173.38L271.188,173.38z"/>
	</g>
</g>
<g>
	<g>
		<path fill="#87C8CB" d="M276.095,172.833c0.138,4.649,1.151,9.213,1.289,13.861c0.066,2.204,3.492,2.211,3.426,0
			c-0.138-4.649-1.151-9.213-1.289-13.861C279.455,170.629,276.029,170.622,276.095,172.833L276.095,172.833z"/>
	</g>
</g>
<g>
	<g>
		<path fill="#87C8CB" d="M58.384,174.38c0,7.586,0,15.172,0,22.758c0,2.209,3.426,2.209,3.426,0c0-7.586,0-15.172,0-22.758
			C61.81,172.171,58.384,172.171,58.384,174.38L58.384,174.38z"/>
	</g>
</g>
<g>
	<g>
		<path fill="#87C8CB" d="M53.477,173.833c-0.138,4.649-1.151,9.213-1.289,13.861c-0.066,2.211,3.361,2.204,3.426,0
			c0.138-4.649,1.151-9.213,1.289-13.861C56.969,171.622,53.543,171.629,53.477,173.833L53.477,173.833z"/>
	</g>
</g>
<g>
	<g>
		<path fill="#323B49" d="M142.429,219.694c1.666,4.333,3.875,8.837,7.664,11.673c4.876,3.65,11.435,4.053,17.293,3.833
			c10.868-0.407,18.86-6.988,20.926-17.74c0.55-2.861-3.827-4.082-4.379-1.207c-1.717,8.936-7.584,13.791-16.546,14.406
			c-4.724,0.324-9.61-0.122-13.824-2.403c-3.407-1.844-5.423-6.309-6.754-9.77C145.769,215.783,141.376,216.956,142.429,219.694
			L142.429,219.694z"/>
	</g>
</g>
<path fill="#323B49" stroke="#323B49" stroke-width="5" stroke-miterlimit="10" d="M274.195,136.154
	c0-3.166-0.978-5.505-0.978-8.671c-1-7.69-3.23-14.475-5.492-21.712c-2.714-8.594-5.944-17.189-10.467-24.426
	c-4.523-6.785-10.404-11.761-16.736-16.284c-7.237-4.523-12.098-9.07-19.336-13.141c-5.88-3.166-13.684-4.952-20.017-7.666
	c-11.308-4.523-23.974-9.499-36.186-8.142c-12.665,1.809-25.783,6.333-37.543,10.404c-15.379,5.428-30.306,14.022-39.805,27.592
	c-7.69,10.856-15.379,22.164-20.355,34.829c-3.166,7.237-4.071,13.57-3.619,21.712c0.452,4.523,0.452,8.142,1.357,12.665
	c0.905,4.523-0.452,13.118,3.619,16.284c3.166-8.594,3.619-18.546,6.785-27.592c2.262-5.428,8.142-18.546,15.379-18.546
	c0.905,4.071,0.452,8.142,1.809,11.761c2.262-1.357,3.619-4.523,5.88-6.333c2.714-3.166,6.333-5.428,9.951-7.237
	c6.333-3.619,13.118-4.976,18.998-9.047c-0.905,4.976-1.357,10.856-4.976,14.927c3.619-0.905,7.69-1.357,11.308-2.262
	c5.428-1.357,10.404-3.619,15.832-5.88c5.428-2.714,10.856-5.428,15.832-8.594c2.262-1.357,4.523-4.071,7.237-4.976
	c1.357,7.69-4.071,15.832-9.047,21.26c26.235,0.905,50.209-15.832,68.754-33.02c0.452,3.619,0.452,7.237,0.905,10.404
	c1.809,10.404,6.333,19.903,9.499,29.401c2.714,6.785,8.087,12.227,9.896,19.012c0.905,4.976,4.906,8.627,6.715,13.15
	c0.905,2.714,8.527,12.136,11.241,13.04c0.857-7.545-1.419-12.561-0.514-16.632c0.905-4.976-2.915-12.17,1.543-14.746
	L274.195,136.154z"/>
<path opacity="0.2" fill="#323B49" stroke="#323B49" stroke-width="5" stroke-miterlimit="10" d="M274.195,143.154
	c0-3.166-0.978-5.505-0.978-8.671c-1-7.69-3.23-14.475-5.492-21.712c-2.714-8.594-5.944-17.189-10.467-24.426
	c-4.523-6.785-10.404-11.761-16.736-16.284c-7.237-4.523-12.098-9.07-19.336-13.141c-5.88-3.166-13.684-4.952-20.017-7.666
	c-11.308-4.523-23.974-9.499-36.186-8.142c-12.665,1.809-25.783,6.333-37.543,10.404c-15.379,5.428-30.306,14.022-39.805,27.592
	c-7.69,10.856-15.379,22.164-20.355,34.829c-3.166,7.237-4.071,13.57-3.619,21.712c0.452,4.523,0.452,8.142,1.357,12.665
	c0.905,4.523-0.452,13.118,3.619,16.284c3.166-8.594,3.619-18.546,6.785-27.592c2.262-5.428,8.142-18.546,15.379-18.546
	c0.905,4.071,0.452,8.142,1.809,11.761c2.262-1.357,3.619-4.523,5.88-6.333c2.714-3.166,6.333-5.428,9.951-7.237
	c6.333-3.619,13.118-4.976,18.998-9.047c-0.905,4.976-1.357,10.856-4.976,14.927c3.619-0.905,7.69-1.357,11.308-2.262
	c5.428-1.357,10.404-3.619,15.832-5.88c5.428-2.714,10.856-5.428,15.832-8.594c2.262-1.357,4.523-4.071,7.237-4.976
	c1.357,7.69-4.071,15.832-9.047,21.26c26.235,0.905,50.209-15.832,68.754-33.02c0.452,3.619,0.452,7.237,0.905,10.404
	c1.809,10.404,6.333,19.903,9.499,29.401c2.714,6.785,8.087,12.227,9.896,19.012c0.905,4.976,4.906,8.627,6.715,13.15
	c0.905,2.714,8.527,12.136,11.241,13.04c0.857-7.545-1.419-12.561-0.514-16.632c0.905-4.976-2.915-12.17,1.543-14.746
	L274.195,143.154z"/>
<g>
	<g opacity="0.2">
		<path fill="#323B49" d="M216.891,299.202"/>
		<g>
			<path fill="#323B49" d="M216.891,303.741c5.855,0,5.855-9.079,0-9.079C211.036,294.662,211.036,303.741,216.891,303.741
				L216.891,303.741z"/>
		</g>
	</g>
	<g opacity="0.2">
		<path fill="#323B49" d="M228.184,303.789"/>
		<g>
			<path fill="#323B49" d="M228.184,308.329c5.855,0,5.855-9.079,0-9.079S222.329,308.329,228.184,308.329L228.184,308.329z"/>
		</g>
	</g>
	<g opacity="0.2">
		<path fill="#323B49" d="M238.771,309.436"/>
		<g>
			<path fill="#323B49" d="M238.771,313.975c5.855,0,5.855-9.079,0-9.079C232.917,304.896,232.917,313.975,238.771,313.975
				L238.771,313.975z"/>
		</g>
	</g>
</g>
<path opacity="0.2" fill="none" stroke="#323B49" stroke-width="3" stroke-linecap="round" stroke-linejoin="round" stroke-miterlimit="10" d="
	M212.363,287.672c0,0,22.233,4.588,41.643,20.469"/>
<path fill="none" stroke="#FFFFFF" stroke-width="3" stroke-linecap="round" stroke-linejoin="round" stroke-miterlimit="10" d="
	M211.363,286.672c0,0,22.233,4.588,41.643,20.469"/>
<g>
	<g>
		<path fill="#FFFFFF" d="M215.891,302.202c6.449,0,6.449-10,0-10S209.442,302.202,215.891,302.202L215.891,302.202z"/>
	</g>
</g>
<g>
	<g>
		<path fill="#FFFFFF" d="M227.184,306.789c6.449,0,6.449-10,0-10S220.735,306.789,227.184,306.789L227.184,306.789z"/>
	</g>
</g>
<g>
	<g>
		<path fill="#FFFFFF" d="M237.771,312.436c6.449,0,6.449-10,0-10S231.323,312.436,237.771,312.436L237.771,312.436z"/>
	</g>
</g>
<path opacity="0.2" fill="#323B49" d="M136.449,258.758c0,0,24.913,7.517,49.298,0.817c0,0-21.341,12.727-51.06,8.693
	C134.687,268.268,135.431,261.782,136.449,258.758z"/>
</svg>
