<?xml version="1.0" encoding="utf-8"?>
<!-- Generator: Adobe Illustrator 17.0.0, SVG Export Plug-In . SVG Version: 6.00 Build 0)  -->
<!DOCTYPE svg PUBLIC "-//W3C//DTD SVG 1.1//EN" "http://www.w3.org/Graphics/SVG/1.1/DTD/svg11.dtd">
<svg version="1.1" id="Calque_1" xmlns="http://www.w3.org/2000/svg" xmlns:xlink="http://www.w3.org/1999/xlink" x="0px" y="0px"
	 width="293.78px" height="331.593px" viewBox="0 0 293.78 331.593" enable-background="new 0 0 293.78 331.593"
	 xml:space="preserve">
<g>
	<g>
		<path fill="#323B49" d="M257.299,114.769c1.13-0.084,2.123,1.425,2.636,2.25c0.815,1.311,1.159,2.935-0.027,4.104
			c-1.574,1.552,0.848,3.973,2.422,2.422c2.258-2.227,2.087-5.219,0.761-7.897c-1.003-2.026-3.32-4.487-5.792-4.303
			C255.111,111.508,255.095,114.933,257.299,114.769L257.299,114.769z"/>
	</g>
</g>
<g>
	<path fill="#E44E7E" stroke="#E44E7E" stroke-width="5.2478" stroke-miterlimit="10" d="M146.711,237.384
		c-73.025-0.983-127.61,39.949-127.61,89.229h255.22C274.321,277.333,217.182,238.332,146.711,237.384z"/>
	<g>
		<g>
			<defs>
				<path id="SVGID_1_" d="M146.711,237.384c-73.025-0.983-127.61,39.949-127.61,89.229h255.22
					C274.321,277.333,217.182,238.332,146.711,237.384z"/>
			</defs>
			<clipPath id="SVGID_2_">
				<use xlink:href="#SVGID_1_"  overflow="visible"/>
			</clipPath>
			
				<path opacity="0.2" clip-path="url(#SVGID_2_)" fill="#323B49" stroke="#323B49" stroke-width="1.9258" stroke-miterlimit="10" enable-background="new    " d="
				M106.805,232.876c0,0-66.2,30.813-69.57,103.993c-3.37,73.181-36.831,5.055-37.553,5.296s-4.333-27.202-4.333-27.202
				l20.221-32.974l20.943-21.461L106.805,232.876z"/>
		</g>
		<g>
			<defs>
				<path id="SVGID_3_" d="M146.711,237.384c-73.025-0.983-127.61,39.949-127.61,89.229h255.22
					C274.321,277.333,217.182,238.332,146.711,237.384z"/>
			</defs>
			<clipPath id="SVGID_4_">
				<use xlink:href="#SVGID_3_"  overflow="visible"/>
			</clipPath>
			
				<path opacity="0.2" clip-path="url(#SVGID_4_)" fill="#323B49" stroke="#323B49" stroke-width="1.9258" stroke-miterlimit="10" enable-background="new    " d="
				M168.038,258.961c-10.638,6.783-47.733,3.896-51.267-0.201c-6.63-7.686,0-36.389,0-36.389h54.309
				C171.079,222.372,174.521,254.828,168.038,258.961z"/>
		</g>
	</g>
	<path fill="#FDDDBB" stroke="#FDDDBB" stroke-width="0.9629" stroke-miterlimit="10" d="M172.017,258.175
		c-10.638,6.783-47.733,3.896-51.267-0.201c-6.63-7.686,0-36.389,0-36.389h54.309C175.058,221.585,178.5,254.041,172.017,258.175z"
		/>
	<circle fill="#FDDDBB" stroke="#FDDDBB" stroke-width="0.9629" stroke-miterlimit="10" cx="56.512" cy="126.209" r="23.179"/>
	<circle fill="#FDDDBB" stroke="#FDDDBB" stroke-width="0.9629" stroke-miterlimit="10" cx="244.829" cy="126.681" r="23.179"/>
	<path fill="#FDDDBB" stroke="#FDDDBB" stroke-width="0.9629" stroke-miterlimit="10" d="M248.666,127.032
		c0,54.094-44.015,97.945-98.311,97.945s-98.311-43.852-98.311-97.945S96.962,18.808,151.258,18.808S248.666,72.938,248.666,127.032
		z"/>
	<g>
		<g>
			<path fill="#323B49" d="M45.709,118.568c-2.459-0.183-4.505,2.219-5.58,4.145c-1.393,2.497-1.367,5.536,0.734,7.607
				c1.516,1.494,3.849-0.837,2.333-2.333c-1.179-1.163-0.754-2.648-0.026-3.953c0.449-0.805,1.481-2.246,2.539-2.167
				C47.832,122.026,47.817,118.725,45.709,118.568L45.709,118.568z"/>
		</g>
	</g>
	<g>
		<g>
			<path fill="#323B49" d="M255.332,122.393c2.118,0.101,3.694,4.537,2.115,5.981c-1.573,1.439,0.766,3.765,2.333,2.333
				c1.77-1.618,1.648-4.481,1.115-6.607c-0.676-2.696-2.706-4.87-5.563-5.006C253.205,118.993,253.214,122.292,255.332,122.393
				L255.332,122.393z"/>
		</g>
	</g>
	<g>
		<g>
			<path fill="#323B49" d="M115.53,99.75c-6.255,0.079-12.309,1.541-16.666,6.296c-1.434,1.565,0.893,3.904,2.333,2.333
				c3.79-4.135,8.914-5.261,14.333-5.329C117.656,103.022,117.659,99.723,115.53,99.75L115.53,99.75z"/>
		</g>
	</g>
	<g>
		<g>
			<path fill="#323B49" d="M185.021,103.887c5.42,0.069,10.544,1.194,14.333,5.329c1.44,1.571,3.767-0.768,2.333-2.333
				c-4.357-4.754-10.411-6.216-16.666-6.296C182.893,100.561,182.895,103.86,185.021,103.887L185.021,103.887z"/>
		</g>
	</g>
	<g>
		<g>
			<path fill="#323B49" d="M200.649,121.881c-4.867-5.461-12.286-6.997-19.348-6.758c-4.312,0.146-12.537,2.492-14.467,6.976
				c-1.102,2.561,2.664,4.791,3.776,2.207c1.349-3.135,7.862-4.517,10.69-4.81c5.782-0.597,12.331,1.074,16.256,5.477
				C199.436,127.083,202.518,123.979,200.649,121.881L200.649,121.881z"/>
		</g>
	</g>
	<g>
		<g>
			<path fill="#323B49" d="M131.657,122.315c-4.867-5.461-12.286-6.997-19.348-6.758c-4.312,0.146-12.537,2.492-14.467,6.976
				c-1.102,2.561,2.664,4.791,3.776,2.207c1.349-3.135,7.862-4.517,10.69-4.81c5.782-0.597,12.331,1.074,16.256,5.477
				C130.445,127.516,133.527,124.412,131.657,122.315L131.657,122.315z"/>
		</g>
	</g>
	<g>
		<g>
			<path fill="#323B49" d="M169.322,178.64c-3.688-2.391-7.892-4.953-12.045-6.401c-1.668-0.581-3.263-0.248-4.695,0.652
				c-0.756,0.475-3.555,4.75-4.52,3.386c-2.18-3.081-3.492-4.483-7.577-4.374c-4.515,0.12-8.948,4.874-12.935,6.529
				c-2.566,1.065-1.442,5.298,1.163,4.217c3.815-1.583,7.388-3.918,10.942-6.022c3.329-1.971,5.576,4.219,8.703,4.753
				c2.87,0.491,4.581-2.524,6.155-4.369c1.726-2.024,10.749,4.203,12.603,5.405C169.489,183.955,171.678,180.168,169.322,178.64
				L169.322,178.64z"/>
		</g>
	</g>
	<g>
		<g>
			<path fill="#323B49" d="M123.667,179.808c4.961,8.769,15.683,9.584,24.753,9.474c4.535-0.055,9.224-0.15,13.535-1.704
				c4.353-1.569,7.83-5.023,11.086-8.167c2.032-1.962-1.064-5.05-3.092-3.092c-2.712,2.618-5.414,5.2-8.817,6.894
				c-3.326,1.655-7.5,1.554-11.111,1.663c-7.762,0.233-18.217,0.433-22.578-7.275C126.054,175.147,122.276,177.35,123.667,179.808
				L123.667,179.808z"/>
		</g>
	</g>
	<path fill="none" stroke="#000000" stroke-width="4.8145" stroke-miterlimit="10" d="M171.079,266.819"/>
	<path fill="none" stroke="#000000" stroke-width="4.8145" stroke-miterlimit="10" d="M122.934,266.819"/>
	<path fill="none" stroke="#000000" stroke-width="4.8145" stroke-miterlimit="10" d="M166.264,277.411"/>
	<path fill="none" stroke="#000000" stroke-width="4.8145" stroke-miterlimit="10" d="M125.822,277.411"/>
	<path fill="none" stroke="#000000" stroke-width="4.8145" stroke-miterlimit="10" d="M159.524,288.966"/>
	<path fill="none" stroke="#000000" stroke-width="4.8145" stroke-miterlimit="10" d="M132.563,288.966"/>
	<g>
		<g>
			<path fill="#323B49" d="M185.061,129.733c9.314,0,9.314-14.444,0-14.444C175.747,115.29,175.747,129.733,185.061,129.733
				L185.061,129.733z"/>
		</g>
	</g>
	<g>
		<g>
			<path fill="#323B49" d="M114.699,130.103c9.314,0,9.314-14.444,0-14.444S105.384,130.103,114.699,130.103L114.699,130.103z"/>
		</g>
	</g>
	<g>
		<g>
			<path fill="#323B49" d="M103.391,117.955c-1.424-1.062-3.247-1.383-4.863-2.048c-0.833-0.343-1.813,0.365-2.029,1.152
				c-0.261,0.947,0.321,1.687,1.152,2.029c1.363,0.561,2.875,0.821,4.075,1.716c0.723,0.539,1.841,0.119,2.257-0.592
				C104.476,119.37,104.111,118.491,103.391,117.955L103.391,117.955z"/>
		</g>
	</g>
	<g>
		<g>
			<path fill="#323B49" d="M99.501,121.023c-1.063-0.041-2.129-0.721-3.09-1.117c-0.833-0.343-1.813,0.365-2.029,1.152
				c-0.261,0.947,0.321,1.687,1.152,2.029c1.317,0.543,2.512,1.179,3.967,1.235C101.629,124.404,101.621,121.105,99.501,121.023
				L99.501,121.023z"/>
		</g>
	</g>
	<g>
		<g>
			<path fill="#323B49" d="M199.112,116.543c-1.301,0.841-2.765,1.407-3.999,2.352c-0.712,0.546-1.089,1.408-0.592,2.257
				c0.412,0.703,1.541,1.14,2.257,0.592c1.233-0.946,2.698-1.511,3.999-2.352C202.556,118.241,200.904,115.384,199.112,116.543
				L199.112,116.543z"/>
		</g>
	</g>
	<g>
		<g>
			<path fill="#323B49" d="M201.935,119.837c-1.17,0.83-2.554,1.131-3.627,2.14c-1.552,1.46,0.785,3.789,2.333,2.333
				c0.746-0.702,2.052-0.981,2.959-1.624c0.732-0.519,1.076-1.43,0.592-2.257C203.767,119.704,202.669,119.316,201.935,119.837
				L201.935,119.837z"/>
		</g>
	</g>
	<g>
		<g>
			<path fill="#F1B593" d="M91.695,138.658c2.127,0,2.127-3.299,0-3.299S89.568,138.658,91.695,138.658L91.695,138.658z"/>
		</g>
	</g>
	<g>
		<g>
			<path fill="#323B49" d="M145.555,136.269c-3.431,3.704-6.728,10.269-3.693,15.172c2.513,4.059,9.489,2.911,13.1,1.471
				c2.515-1.003,1.419-5.118-1.131-4.101c-2.154,0.859-6.242,2.101-8.316,0.406c-1.102-0.901-0.354-3.778-0.053-4.876
				c0.524-1.912,1.772-3.632,3.099-5.064C150.423,137.268,147.423,134.253,145.555,136.269L145.555,136.269z"/>
		</g>
	</g>
	<g>
		<g opacity="0.2">
			<line fill="none" x1="253.78" y1="138.914" x2="253.78" y2="160.914"/>
			<g>
				<path fill="#323B49" d="M251.658,139.375c0,7.305,0,14.609,0,21.914c0,3.105,4.815,3.105,4.815,0c0-7.305,0-14.609,0-21.914
					C256.473,136.27,251.658,136.27,251.658,139.375L251.658,139.375z"/>
			</g>
		</g>
		<g opacity="0.2">
			<path fill="#323B49" d="M258.79,138.848c0.055,4.276,1.186,9.072,1.241,13.347"/>
			<g>
				<path fill="#323B49" d="M256.382,138.848c0.133,4.476,1.108,8.871,1.241,13.347c0.092,3.097,4.907,3.106,4.815,0
					c-0.133-4.476-1.108-8.871-1.241-13.347C261.105,135.75,256.29,135.741,256.382,138.848L256.382,138.848z"/>
			</g>
		</g>
	</g>
	<g opacity="0.2">
		<line fill="none" x1="45.78" y1="139.914" x2="45.78" y2="161.914"/>
		<g>
			<path fill="#323B49" d="M43.859,140.338c0,7.305,0,14.609,0,21.914c0,3.105,4.815,3.105,4.815,0c0-7.305,0-14.609,0-21.914
				C48.674,137.233,43.859,137.233,43.859,140.338L43.859,140.338z"/>
		</g>
	</g>
	<g opacity="0.2">
		<path fill="#323B49" d="M41.542,139.811c-0.055,4.275-1.186,9.072-1.241,13.347"/>
		<g>
			<path fill="#323B49" d="M39.135,139.811c-0.133,4.476-1.108,8.871-1.241,13.347c-0.092,3.106,4.722,3.097,4.815,0
				c0.133-4.476,1.108-8.871,1.241-13.347C44.042,136.704,39.227,136.713,39.135,139.811L39.135,139.811z"/>
		</g>
	</g>
	<g>
		<g>
			<path fill="#87C8CB" d="M250.49,139.375c0,7.305,0,14.609,0,21.914c0,2.127,3.299,2.127,3.299,0c0-7.305,0-14.609,0-21.914
				C253.789,137.247,250.49,137.247,250.49,139.375L250.49,139.375z"/>
		</g>
	</g>
	<g>
		<g>
			<path fill="#87C8CB" d="M255.214,138.848c0.133,4.476,1.108,8.871,1.241,13.347c0.063,2.122,3.362,2.129,3.299,0
				c-0.133-4.476-1.108-8.871-1.241-13.347C258.45,136.725,255.151,136.719,255.214,138.848L255.214,138.848z"/>
		</g>
	</g>
	<g>
		<g>
			<path fill="#87C8CB" d="M45.58,140.338c0,7.305,0,14.609,0,21.914c0,2.127,3.299,2.127,3.299,0c0-7.305,0-14.609,0-21.914
				C48.879,138.21,45.58,138.21,45.58,140.338L45.58,140.338z"/>
		</g>
	</g>
	<g>
		<g>
			<path fill="#87C8CB" d="M40.856,139.811c-0.133,4.476-1.108,8.871-1.241,13.347c-0.063,2.129,3.236,2.122,3.299,0
				c0.133-4.476,1.108-8.871,1.241-13.347C44.218,137.682,40.919,137.688,40.856,139.811L40.856,139.811z"/>
		</g>
	</g>
	<g>
		<g>
			<path fill="#323B49" d="M126.507,183.97c1.426,3.707,3.365,8.235,6.646,10.691c4.682,3.504,10.158,4.315,15.887,4.297
				c11.043-0.035,19.503-6.068,21.648-17.138c0.534-2.755-3.681-3.93-4.217-1.163c-1.668,8.607-7.288,13.278-15.932,13.871
				c-4.549,0.312-9.253-0.118-13.311-2.313c-3.281-1.775-5.222-6.075-6.503-9.407C129.723,180.204,125.493,181.334,126.507,183.97
				L126.507,183.97z"/>
		</g>
	</g>
	<path fill="#323B49" stroke="#323B49" stroke-width="4.8145" stroke-miterlimit="10" d="M253.385,103.53
		c0-3.049-0.941-5.301-0.941-8.35c-0.963-7.404-3.11-13.938-5.288-20.906c-2.613-8.275-5.724-16.551-10.079-23.52
		c-4.355-6.533-10.018-11.324-16.115-15.68c-6.969-4.356-11.65-8.733-18.618-12.653c-5.662-3.049-13.177-4.769-19.274-7.382
		c-10.889-4.356-23.084-9.147-34.844-7.84c-12.195,1.742-24.826,6.098-36.151,10.018c-14.809,5.227-29.182,13.502-38.328,26.569
		c-7.404,10.453-14.809,21.342-19.6,33.537c-3.049,6.969-3.92,13.067-3.484,20.906c0.436,4.355,0.436,7.84,1.307,12.195
		c0.871,4.355-0.436,12.631,3.484,15.68c3.049-8.275,3.484-17.858,6.533-26.569c2.178-5.227,7.84-17.858,14.809-17.858
		c0.871,3.92,0.436,7.84,1.742,11.324c2.178-1.307,3.484-4.355,5.662-6.098c2.613-3.049,6.098-5.227,9.582-6.969
		c6.098-3.484,12.631-4.791,18.293-8.711c-0.871,4.791-1.307,10.453-4.791,14.373c3.484-0.871,7.404-1.307,10.889-2.178
		c5.227-1.307,10.018-3.484,15.244-5.662c5.227-2.613,10.453-5.227,15.244-8.275c2.178-1.307,4.355-3.92,6.969-4.791
		c1.307,7.404-3.92,15.244-8.711,20.471c25.262,0.871,48.346-15.244,66.204-31.795c0.436,3.484,0.436,6.969,0.871,10.018
		c1.742,10.018,6.098,19.164,9.147,28.311c2.613,6.533,7.787,11.774,9.529,18.307c0.871,4.791,4.724,8.307,6.466,12.662
		c0.871,2.613,8.211,11.686,10.824,12.557c0.826-7.265-1.366-12.095-0.495-16.015c0.871-4.791-2.807-11.719,1.486-14.199
		L253.385,103.53z"/>
	
		<path opacity="0.2" fill="#323B49" stroke="#323B49" stroke-width="4.8145" stroke-miterlimit="10" enable-background="new    " d="
		M253.385,110.27c0-3.049-0.941-5.301-0.941-8.35c-0.963-7.404-3.11-13.938-5.288-20.906c-2.613-8.275-5.724-16.551-10.079-23.52
		c-4.355-6.533-10.018-11.324-16.115-15.68c-6.969-4.355-11.65-8.733-18.618-12.653c-5.662-3.049-13.177-4.769-19.274-7.382
		c-10.889-4.356-23.084-9.147-34.844-7.84c-12.195,1.742-24.826,6.098-36.151,10.018c-14.809,5.227-29.182,13.502-38.328,26.569
		c-7.404,10.453-14.809,21.342-19.6,33.537c-3.049,6.969-3.92,13.067-3.484,20.906c0.436,4.355,0.436,7.84,1.307,12.195
		c0.871,4.356-0.436,12.631,3.484,15.68c3.049-8.275,3.484-17.858,6.533-26.569c2.178-5.227,7.84-17.858,14.809-17.858
		c0.871,3.92,0.436,7.84,1.742,11.324c2.178-1.307,3.484-4.356,5.662-6.098c2.613-3.049,6.098-5.227,9.582-6.969
		c6.098-3.484,12.631-4.791,18.293-8.711c-0.871,4.791-1.307,10.453-4.791,14.373c3.484-0.871,7.404-1.307,10.889-2.178
		c5.227-1.307,10.018-3.484,15.244-5.662c5.227-2.613,10.453-5.227,15.244-8.275c2.178-1.307,4.355-3.92,6.969-4.791
		c1.307,7.404-3.92,15.244-8.711,20.471c25.262,0.871,48.346-15.244,66.204-31.795c0.436,3.484,0.436,6.969,0.871,10.018
		c1.742,10.018,6.098,19.164,9.147,28.311c2.613,6.533,7.787,11.774,9.529,18.307c0.871,4.791,4.724,8.307,6.466,12.662
		c0.871,2.613,8.211,11.686,10.824,12.557c0.826-7.265-1.366-12.095-0.495-16.015c0.871-4.791-2.807-11.719,1.486-14.199
		L253.385,110.27z"/>
	<g>
		<g opacity="0.2">
			<path fill="#323B49" d="M198.207,260.528"/>
			<g>
				<path fill="#323B49" d="M198.207,264.899c5.638,0,5.638-8.742,0-8.742S192.569,264.899,198.207,264.899L198.207,264.899z"/>
			</g>
		</g>
		<g opacity="0.2">
			<path fill="#323B49" d="M209.081,264.946"/>
			<g>
				<path fill="#323B49" d="M209.081,269.317c5.638,0,5.638-8.742,0-8.742S203.443,269.317,209.081,269.317L209.081,269.317z"/>
			</g>
		</g>
		<g opacity="0.2">
			<path fill="#323B49" d="M219.275,270.383"/>
			<g>
				<path fill="#323B49" d="M219.275,274.754c5.638,0,5.638-8.742,0-8.742C213.638,266.012,213.638,274.754,219.275,274.754
					L219.275,274.754z"/>
			</g>
		</g>
	</g>
	
		<path opacity="0.2" fill="none" stroke="#323B49" stroke-width="2.8887" stroke-linecap="round" stroke-linejoin="round" stroke-miterlimit="10" enable-background="new    " d="
		M193.847,249.427c0,0,21.408,4.418,40.098,19.709"/>
	
		<path fill="none" stroke="#FFFFFF" stroke-width="2.8887" stroke-linecap="round" stroke-linejoin="round" stroke-miterlimit="10" d="
		M192.884,248.464c0,0,21.408,4.418,40.098,19.709"/>
	<g>
		<g>
			<path fill="#FFFFFF" d="M197.244,263.417c6.209,0,6.209-9.629,0-9.629S191.035,263.417,197.244,263.417L197.244,263.417z"/>
		</g>
	</g>
	<g>
		<g>
			<path fill="#FFFFFF" d="M208.118,267.835c6.209,0,6.209-9.629,0-9.629S201.909,267.835,208.118,267.835L208.118,267.835z"/>
		</g>
	</g>
	<g>
		<g>
			<path fill="#FFFFFF" d="M218.313,273.272c6.209,0,6.209-9.629,0-9.629S212.103,273.272,218.313,273.272L218.313,273.272z"/>
		</g>
	</g>
	<path opacity="0.2" fill="#323B49" enable-background="new    " d="M120.749,221.585c0,0,23.989,7.238,47.469,0.787
		c0,0-20.55,12.255-49.166,8.371C119.052,230.743,119.769,224.497,120.749,221.585z"/>
</g>
</svg>
