<?xml version="1.0" encoding="utf-8"?>
<!-- Generator: Adobe Illustrator 17.0.0, SVG Export Plug-In . SVG Version: 6.00 Build 0)  -->
<!DOCTYPE svg PUBLIC "-//W3C//DTD SVG 1.1//EN" "http://www.w3.org/Graphics/SVG/1.1/DTD/svg11.dtd">
<svg version="1.1" id="Calque_1" xmlns="http://www.w3.org/2000/svg" xmlns:xlink="http://www.w3.org/1999/xlink" x="0px" y="0px"
	 width="293.78px" height="331.593px" viewBox="0 0 293.78 331.593" enable-background="new 0 0 293.78 331.593"
	 xml:space="preserve">
<g>
	<g>
		<path fill="#323B49" d="M256.193,115.588c1.13-0.084,2.123,1.425,2.636,2.25c0.815,1.311,1.159,2.935-0.027,4.104
			c-1.574,1.552,0.848,3.973,2.422,2.422c2.258-2.227,2.087-5.219,0.761-7.897c-1.003-2.026-3.32-4.487-5.792-4.303
			C254.005,112.326,253.989,115.752,256.193,115.588L256.193,115.588z"/>
	</g>
</g>
<g>
	<path fill="#323B49" stroke="#323B49" stroke-width="2" stroke-miterlimit="10" d="M46.127,221.368
		c0,9.49,9.746,18.632,21.769,18.632h168.706c12.022,0,21.769-9.142,21.769-18.632c0,0-0.437-108.494-17.161-148.846
		c-32.243-77.8-142.633-89.731-181.433-4.916C39.726,111.435,46.127,221.368,46.127,221.368z"/>
	<path fill="#9DD1BC" d="M151.638,241.696c69.321,0,125.517,39.294,125.517,87.765H26.121
		C26.121,280.99,82.317,241.696,151.638,241.696z"/>
	<circle fill="#FDDDBB" stroke="#FDDDBB" stroke-width="5.1617" stroke-miterlimit="10" cx="240.531" cy="132.345" r="22.799"/>
	<circle fill="#FDDDBB" stroke="#FDDDBB" stroke-width="5.1617" stroke-miterlimit="10" cx="62.36" cy="132.81" r="22.799"/>
	<path fill="#FDDDBB" stroke="#FDDDBB" stroke-width="5.1617" stroke-miterlimit="10" d="M54.435,134.108
		c0,53.206,43.293,96.339,96.698,96.339s96.698-43.132,96.698-96.339S203.65,27.659,150.245,27.659S54.435,80.901,54.435,134.108z"
		/>
	<g>
		<g>
			<path fill="#323B49" d="M252.558,130.249c1.07-0.08,2.012,1.35,2.498,2.132c0.772,1.242,1.098,2.781-0.025,3.889
				c-1.492,1.471,0.804,3.764,2.294,2.294c2.14-2.11,1.977-4.945,0.721-7.483c-0.95-1.92-3.146-4.251-5.488-4.077
				C250.485,127.159,250.47,130.405,252.558,130.249L252.558,130.249z"/>
		</g>
	</g>
	<g>
		<g>
			<path fill="#323B49" d="M51.535,125.801c-2.783,0.133-4.509,2.094-5.375,4.598c-0.725,2.094-0.762,5.213,1,6.824
				c1.541,1.409,3.842-0.88,2.294-2.294c-1.553-1.42-0.003-5.784,2.081-5.883C53.618,128.946,53.628,125.701,51.535,125.801
				L51.535,125.801z"/>
		</g>
	</g>
	<g>
		<g>
			<path fill="#323B49" d="M176.094,112.227c8.245-5.179,18.031-2.024,25.39,3.243c1.705,1.221,3.323-1.596,1.638-2.802
				c-8.301-5.941-19.484-9.01-28.666-3.243C172.69,110.535,174.317,113.344,176.094,112.227L176.094,112.227z"/>
		</g>
	</g>
	<g>
		<g>
			<path fill="#323B49" d="M127.417,109.425c-9.182-5.767-20.365-2.698-28.666,3.243c-1.685,1.206-0.068,4.023,1.638,2.802
				c7.359-5.268,17.145-8.422,25.39-3.243C127.557,113.344,129.184,110.535,127.417,109.425L127.417,109.425z"/>
		</g>
	</g>
	<g>
		<g>
			<path fill="#323B49" d="M153.804,154.419c-1.777,0.7-4.753,0.24-5.057-2.062c-0.288-2.179,2.328-3.935,3.939-4.838
				c1.825-1.023,0.189-3.826-1.638-2.802c-2.888,1.619-6.43,4.856-5.419,8.593c1.019,3.764,5.457,5.649,9.038,4.238
				C156.59,156.79,155.753,153.651,153.804,154.419L153.804,154.419z"/>
		</g>
	</g>
	<g>
		<g>
			<path fill="#E44E7E" d="M135.84,186.662c2.657-2.692,5.91-5.983,10.061-5.234c2.172,0.392,3.95,2.996,5.387,4.501
				c0.697,0.73,2.073,0.594,2.548-0.328c2.352-4.562,6.624-6.144,10.783-2.75c1.537,1.254,2.811,2.833,4.268,4.178
				c0-0.765,0-1.53,0-2.294c-4.469,3.577-11.523,3.396-16.972,3.589c-6.645,0.235-12.386-1.831-18.215-4.825
				c-1.711-0.879-3.106,1.135-1.966,2.548c3.15,3.904,10.171,5.199,14.778,5.796c9.106,1.181,18.223-0.207,25.891-5.469
				c1.713-1.176,0.093-3.989-1.638-2.802c-6.531,4.482-13.943,5.862-21.75,5.313c-4.408-0.31-11.966-1.391-14.987-5.133
				c-0.655,0.849-1.311,1.699-1.966,2.548c6.428,3.301,12.576,5.286,19.853,5.268c6.384-0.016,14.088-0.394,19.267-4.539
				c0.673-0.538,0.598-1.743,0-2.294c-2.78-2.567-5.644-6.661-9.742-7.098c-4.868-0.52-8.222,2.093-10.405,6.326
				c0.849-0.109,1.699-0.219,2.548-0.328c-2.214-2.318-4.811-5.619-8.388-5.599c-4.806,0.026-8.409,3.049-11.649,6.331
				C132.074,185.857,134.368,188.153,135.84,186.662L135.84,186.662z"/>
		</g>
	</g>
	<g>
		<g>
			<path fill="#323B49" d="M185.48,132.103c9.166,0,9.166-14.213,0-14.213S176.314,132.103,185.48,132.103L185.48,132.103z"/>
		</g>
	</g>
	<g>
		<g>
			<path fill="#323B49" d="M115.292,132.467c9.166,0,9.166-14.213,0-14.213S106.126,132.467,115.292,132.467L115.292,132.467z"/>
		</g>
	</g>
	<g>
		<g>
			<path fill="#323B49" d="M103.416,106.205c0.803,0.826,1.425,1.801,2.062,2.755c0.765,1.148,2.629,0.072,1.857-1.086
				c-0.736-1.104-1.47-2.236-2.398-3.191C103.968,103.688,102.449,105.21,103.416,106.205L103.416,106.205z"/>
		</g>
	</g>
	<g>
		<g>
			<path fill="#323B49" d="M98.956,107.691c1.068,1.069,1.986,2.1,2.325,3.613c0.303,1.353,2.377,0.779,2.074-0.572
				c-0.418-1.865-1.559-3.242-2.878-4.562C99.496,105.188,97.975,106.709,98.956,107.691L98.956,107.691z"/>
		</g>
	</g>
	<g>
		<g>
			<path fill="#323B49" d="M94.714,111.204c1.314,0.678,2.281,1.644,2.959,2.959c0.636,1.233,2.492,0.145,1.857-1.086
				c-0.832-1.613-2.118-2.898-3.73-3.73C94.569,108.712,93.481,110.568,94.714,111.204L94.714,111.204z"/>
		</g>
	</g>
	<g>
		<g>
			<path fill="#323B49" d="M196.151,109.703c0.612-1.242,1.103-2.55,1.858-3.716c0.756-1.168-1.106-2.245-1.857-1.086
				c-0.755,1.167-1.246,2.474-1.858,3.716C193.683,109.857,195.537,110.947,196.151,109.703L196.151,109.703z"/>
		</g>
	</g>
	<g>
		<g>
			<path fill="#323B49" d="M200.239,111.933c0.705-1.357,1.733-2.426,2.805-3.499c0.981-0.982-0.54-2.503-1.521-1.521
				c-1.194,1.194-2.356,2.423-3.141,3.934C197.743,112.076,199.599,113.164,200.239,111.933L200.239,111.933z"/>
		</g>
	</g>
	<g>
		<g>
			<path fill="#323B49" d="M203.787,114.38c1.063-0.993,2.621-1.244,3.985-1.582c1.346-0.333,0.775-2.407-0.572-2.074
				c-1.765,0.437-3.567,0.858-4.934,2.135C201.25,113.808,202.774,115.325,203.787,114.38L203.787,114.38z"/>
		</g>
	</g>
	<g>
		<g>
			<path fill="#E44E7E" d="M157.951,195.129c-2.285,2.398-7.886,3.361-10.032,0.254c-1.181-1.709-3.995-0.089-2.802,1.638
				c3.336,4.829,11.287,4.435,15.129,0.403C161.688,195.909,159.397,193.611,157.951,195.129L157.951,195.129z"/>
		</g>
	</g>
	<g>
		<g>
			<path fill="#F1B593" d="M198.297,168.588c2.093,0,2.093-3.245,0-3.245C196.205,165.343,196.205,168.588,198.297,168.588
				L198.297,168.588z"/>
		</g>
	</g>
	<g>
		<g>
			<path fill="#F1B593" d="M192.126,158.645c2.093,0,2.093-3.245,0-3.245C190.034,155.401,190.034,158.645,192.126,158.645
				L192.126,158.645z"/>
		</g>
	</g>
	<g>
		<g>
			<path fill="#F1B593" d="M184.584,165.845c0.146,0,0.292,0,0.438,0c0.884,0,1.622-0.738,1.622-1.622s-0.738-1.622-1.622-1.622
				c-0.032,0-0.064,0-0.095,0c-0.884,0-1.622,0.738-1.622,1.622s0.738,1.622,1.622,1.622c0.032,0,0.064,0,0.095,0
				c0.884,0,1.622-0.738,1.622-1.622s-0.738-1.622-1.622-1.622c-0.146,0-0.292,0-0.438,0c-0.884,0-1.622,0.738-1.622,1.622
				S183.699,165.845,184.584,165.845L184.584,165.845z"/>
		</g>
	</g>
	<g>
		<g>
			<path fill="#F1B593" d="M205.154,153.16c2.093,0,2.093-3.245,0-3.245C203.062,149.915,203.062,153.16,205.154,153.16
				L205.154,153.16z"/>
		</g>
	</g>
	<g>
		<g>
			<path fill="#F1B593" d="M179.875,151.195c0,0.114,0,0.229,0,0.343c0,0.884,0.738,1.622,1.622,1.622
				c0.884,0,1.622-0.738,1.622-1.622c0-0.114,0-0.229,0-0.343c0-0.884-0.738-1.622-1.622-1.622
				C180.613,149.572,179.875,150.31,179.875,151.195L179.875,151.195z"/>
		</g>
	</g>
	<g>
		<g>
			<path fill="#F1B593" d="M113.966,168.588c2.093,0,2.093-3.245,0-3.245S111.873,168.588,113.966,168.588L113.966,168.588z"/>
		</g>
	</g>
	<g>
		<g>
			<path fill="#F1B593" d="M107.795,158.645c2.093,0,2.093-3.245,0-3.245C105.702,155.401,105.702,158.645,107.795,158.645
				L107.795,158.645z"/>
		</g>
	</g>
	<g>
		<g>
			<path fill="#F1B593" d="M100.252,165.845c0.146,0,0.292,0,0.438,0c0.884,0,1.622-0.738,1.622-1.622s-0.738-1.622-1.622-1.622
				c-0.032,0-0.064,0-0.095,0c-0.884,0-1.622,0.738-1.622,1.622s0.738,1.622,1.622,1.622c0.032,0,0.064,0,0.095,0
				c0.884,0,1.622-0.738,1.622-1.622s-0.738-1.622-1.622-1.622c-0.146,0-0.292,0-0.438,0c-0.884,0-1.622,0.738-1.622,1.622
				S99.367,165.845,100.252,165.845L100.252,165.845z"/>
		</g>
	</g>
	<g>
		<g>
			<path fill="#F1B593" d="M120.823,153.16c2.093,0,2.093-3.245,0-3.245C118.73,149.915,118.73,153.16,120.823,153.16
				L120.823,153.16z"/>
		</g>
	</g>
	<g>
		<g>
			<path fill="#F1B593" d="M95.544,151.195c0,0.114,0,0.229,0,0.343c0,0.884,0.738,1.622,1.622,1.622s1.622-0.738,1.622-1.622
				c0-0.114,0-0.229,0-0.343c0-0.884-0.738-1.622-1.622-1.622S95.544,150.31,95.544,151.195L95.544,151.195z"/>
		</g>
	</g>
	<g>
		<g opacity="0.2">
			<g>
				<path fill="#323B49" d="M254.92,141.53c-4.753,1.622-3.069,7.364-1.486,10.771c1.268,2.729,4.643,6.938,8.155,5.299
					c4.8-2.239,3.393-14.103-2.73-13.007c-1.502,0.269-0.864,2.551,0.63,2.284c3.019-0.54,3.115,7.105,1.336,8.447
					c-3.14,2.369-9.912-9.928-5.275-11.511C256.987,143.324,256.37,141.035,254.92,141.53L254.92,141.53z"/>
			</g>
		</g>
		<g opacity="0.2">
			<g>
				<path fill="#323B49" d="M48.242,144.738c0.721,4.754,2.312,14.173-4.846,14.267c-5.985,0.078-1.142-8.792,1.334-10.495
					c1.25-0.859,0.067-2.914-1.196-2.045c-4.047,2.783-8.862,12.721-1.718,14.721c10.397,2.911,9.617-11.094,8.71-17.077
					C50.298,142.602,48.016,143.244,48.242,144.738L48.242,144.738z"/>
			</g>
		</g>
	</g>
	<g>
		<g>
			<path fill="#E44E7E" d="M254.002,141.635c-4.67,1.594-2.97,7.276-1.421,10.611c1.236,2.661,4.557,6.869,8.006,5.26
				c4.686-2.186,3.348-13.88-2.646-12.808c-1.364,0.244-0.784,2.316,0.572,2.074c3.18-0.569,3.289,7.236,1.42,8.647
				c-3.264,2.463-10.172-10.068-5.359-11.71C255.878,143.264,255.318,141.186,254.002,141.635L254.002,141.635z"/>
		</g>
	</g>
	<g>
		<g>
			<path fill="#E44E7E" d="M49.295,144.709c0.733,4.832,2.31,14.31-4.952,14.405c-6.143,0.08-1.281-8.938,1.279-10.698
				c1.135-0.78,0.061-2.645-1.086-1.857c-3.968,2.729-8.779,12.552-1.744,14.522c10.289,2.88,9.47-11.047,8.576-16.943
				C51.162,142.769,49.089,143.353,49.295,144.709L49.295,144.709z"/>
		</g>
	</g>
	<g>
		<path fill="#323B49" d="M234.34,77.076c-3.628-9.848-11.921-20.215-19.178-27.471c-5.183-5.183-10.885-10.367-17.105-13.995
			c-1.773-0.709-3.62-1.672-5.389-2.39c-1.545-0.627-2.946-1.033-4.479-1.701c-3.666-1.596-7.495-2.769-11.383-3.684
			c-8.811-2.073-18.141-1.555-26.953-1.555c-15.031,0-27.471,4.665-40.948,10.367c-12.958,4.665-24.361,12.44-33.691,22.288
			c-4.665,5.183-7.775,10.885-10.367,17.623c-0.518,2.592-9.216,12.805-5.588,14.878c2.073,0.518,12.326-0.884,13.881-0.884
			c6.22-1.555,12.023-0.751,17.724-1.269c20.215-2.073,39.363-2.298,59.578-1.261c7.153,0.358,14.268,0.201,21.23,0.405
			c-0.216-5.426-0.952-20.634-0.089-26.239c3.105,3.105,10.929,13.635,13,16.74c1.29,2.151,6.289,10.518,7.543,12.527
			c9.571,0.476,8.815-1.925,18.889-1.421c5.183,0.518,9.971,0.768,15.673,1.286c2.073,0.518,11.127-0.441,14.059-0.707
			C244.397,90.281,235.377,80.186,234.34,77.076z"/>
		<g>
			<path fill="#323B49" d="M238.488,75.932c-5.02-12.847-14.065-23.522-23.955-32.939c-9.987-9.509-21.639-15.342-34.921-18.898
				c-13.417-3.593-29.375-3.078-42.999-0.946c-13.328,2.086-26.867,7.771-38.933,13.664C86.102,42.47,75.079,51.178,67.605,61.71
				c-3.11,4.382-4.881,9.868-7.135,14.208c-1.937,3.728-4.478,6.978-5.928,10.971c-1.049,2.888-0.18,8.104,3.574,8.694
				c4.119,0.647,8.377-0.096,12.491-0.519c13.74-1.412,27.631-2.392,41.469-3.015c19.833-0.893,39.764,0.186,59.597,0.679
				c2.274,0.057,4.395-2,4.301-4.301c-0.351-8.645-1.227-17.63-0.089-26.239c-2.448,1.014-4.895,2.028-7.343,3.042
				c6.189,6.433,11.225,14.037,15.799,21.664c2.557,4.264,3.947,8.733,9.464,8.92c4.73,0.161,9.21-1.373,13.899-1.542
				c11.263-0.408,22.963,3.363,34.187,0.489C252.179,92.126,240.203,80.132,238.488,75.932c-2.069-5.064-10.394-2.851-8.296,2.287
				c1.5,3.673,4.088,6.731,6.178,10.076c0.35,0.56,0.733,1.165,0.96,1.789c3.494-2.853,4.102-4.061,1.823-3.623
				c-0.704,0.067-1.409,0.133-2.114,0.197c-2.723,0.251-5.451,0.462-8.187,0.511c-7.027,0.124-14.1-1.491-21.15-1.501
				c-5.287-0.008-10.247,1.666-15.578,1.485c1.238,0.71,2.476,1.42,3.714,2.13c-6.461-10.456-12.621-21.205-21.215-30.137
				c-2.882-2.996-6.887-0.411-7.343,3.042c-1.138,8.609-0.262,17.595,0.089,26.239c1.434-1.434,2.868-2.868,4.301-4.301
				c-15.404-0.383-30.847-1.06-46.256-1.001c-15.596,0.06-31.231,1.332-46.782,2.264c-4.451,0.267-8.911,1.194-13.37,1.601
				c-1.059,0.097-2.118,0.165-3.18,0.225c-3.739,0.209,1.042-0.638,0.551,2.712c0.301-2.056,1.851-4.064,2.906-5.789
				c2.264-3.703,3.732-7.428,5.589-11.349c3.092-6.525,7.649-11.67,12.967-16.464c10.291-9.277,22.758-14.502,35.525-19.406
				c14.114-5.422,27.799-6.584,42.799-6.36c14.247,0.214,29.702,4.942,40.874,13.957c10.903,8.798,21.74,20.508,26.896,33.703
				C232.188,83.327,240.509,81.106,238.488,75.932z"/>
		</g>
	</g>
	<g opacity="0.2">
		<path fill="#323B49" d="M234.34,87.499c-3.628-9.848-11.921-20.215-19.178-27.471c-5.183-5.183-10.885-10.367-17.105-13.995
			c-1.773-0.709-3.62-1.672-5.389-2.39c-1.545-0.627-2.946-1.033-4.479-1.701c-3.666-1.596-7.495-2.769-11.383-3.684
			c-8.811-2.073-18.141-1.555-26.953-1.555c-15.031,0-27.471,4.665-40.948,10.367c-12.958,4.665-24.361,12.44-33.691,22.288
			c-4.665,5.183-7.775,10.885-10.367,17.623c-0.518,2.592-9.216,12.805-5.588,14.878c2.073,0.518,12.326-0.884,13.881-0.884
			c6.22-1.555,12.023-0.751,17.724-1.269c20.215-2.073,39.363-2.298,59.578-1.261c7.153,0.358,14.268,0.201,21.23,0.405
			c-0.216-5.426-0.952-20.634-0.089-26.239c3.105,3.105,10.929,13.635,13,16.74c1.29,2.151,6.289,10.518,7.543,12.527
			c9.571,0.476,8.815-1.925,18.889-1.421c5.183,0.518,9.971,0.768,15.673,1.286c2.073,0.518,11.127-0.441,14.059-0.707
			C244.397,100.704,235.377,90.609,234.34,87.499z"/>
		<g>
			<path fill="#323B49" d="M238.488,86.355c-5.02-12.847-14.065-23.522-23.955-32.939c-9.987-9.509-21.639-15.342-34.921-18.898
				c-13.417-3.593-29.375-3.078-42.999-0.946c-13.328,2.086-26.867,7.771-38.933,13.664c-11.579,5.656-22.601,14.365-30.075,24.896
				C64.495,76.514,62.724,82,60.47,86.34c-1.937,3.728-4.478,6.978-5.928,10.971c-1.049,2.888-0.18,8.104,3.574,8.694
				c4.119,0.647,8.377-0.096,12.491-0.519c13.74-1.412,27.631-2.392,41.469-3.015c19.833-0.893,39.764,0.186,59.597,0.679
				c2.274,0.057,4.395-2,4.301-4.301c-0.351-8.645-1.227-17.63-0.089-26.239c-2.448,1.014-4.895,2.028-7.343,3.042
				c6.189,6.433,11.225,14.037,15.799,21.664c2.557,4.264,3.947,8.733,9.464,8.92c4.73,0.161,9.21-1.373,13.899-1.542
				c11.263-0.407,22.963,3.363,34.187,0.489C252.179,102.549,240.203,90.555,238.488,86.355c-2.069-5.064-10.394-2.851-8.296,2.287
				c1.5,3.673,4.088,6.731,6.178,10.076c0.35,0.56,0.733,1.165,0.96,1.789c3.494-2.853,4.102-4.061,1.823-3.623
				c-0.704,0.067-1.409,0.133-2.114,0.197c-2.723,0.251-5.451,0.462-8.187,0.511c-7.027,0.124-14.1-1.491-21.15-1.501
				c-5.287-0.008-10.247,1.666-15.578,1.485c1.238,0.71,2.476,1.42,3.714,2.13c-6.461-10.456-12.621-21.205-21.215-30.137
				c-2.882-2.996-6.887-0.411-7.343,3.042c-1.138,8.609-0.262,17.595,0.089,26.239c1.434-1.434,2.868-2.868,4.301-4.301
				c-15.404-0.383-30.847-1.06-46.256-1.001c-15.596,0.06-31.231,1.332-46.782,2.264c-4.451,0.267-8.911,1.194-13.37,1.601
				c-1.059,0.097-2.118,0.165-3.18,0.225c-3.739,0.209,1.042-0.638,0.551,2.712c0.301-2.056,1.851-4.064,2.906-5.789
				c2.264-3.703,3.732-7.428,5.589-11.349c3.092-6.525,7.649-11.67,12.967-16.464c10.291-9.277,22.758-14.502,35.525-19.406
				c14.114-5.422,27.799-6.584,42.799-6.36c14.247,0.214,29.702,4.942,40.874,13.957c10.903,8.798,21.74,20.508,26.896,33.703
				C232.188,93.75,240.509,91.529,238.488,86.355z"/>
		</g>
	</g>
	<g>
		<g>
			<path fill="#D6E39C" d="M162.233,321.269c3.055,0,3.055-4.738,0-4.738C159.178,316.531,159.178,321.269,162.233,321.269
				L162.233,321.269z"/>
		</g>
	</g>
	<g>
		<g>
			<defs>
				<path id="SVGID_1_" d="M151.638,241.696c69.321,0,125.517,39.294,125.517,87.765H26.121
					C26.121,280.99,82.317,241.696,151.638,241.696z"/>
			</defs>
			<clipPath id="SVGID_2_">
				<use xlink:href="#SVGID_1_"  overflow="visible"/>
			</clipPath>
			<path clip-path="url(#SVGID_2_)" fill="none" stroke="#D6E39C" stroke-width="4.7377" stroke-miterlimit="10" d="
				M112.326,241.696c-2.181,6.978,6.491,18.021,9.98,23.254c2.617,4.361,6.542,7.85,10.031,12.212
				c3.925,4.361,7.85,9.595,13.084,13.084c4.797,3.489,7.85,1.308,12.212-2.181c6.542-5.234,12.754-10.113,18.424-16.219
				c4.361-4.361,24.607-21.428,20.246-30.15"/>
		</g>
		<g>
			<defs>
				<path id="SVGID_3_" d="M151.638,241.696c69.321,0,125.517,39.294,125.517,87.765H26.121
					C26.121,280.99,82.317,241.696,151.638,241.696z"/>
			</defs>
			<clipPath id="SVGID_4_">
				<use xlink:href="#SVGID_3_"  overflow="visible"/>
			</clipPath>
			<g clip-path="url(#SVGID_4_)">
				<g>
					<path fill="#D6E39C" d="M148.386,277.757c0,19.358,0,38.716,0,58.074c0,3.055,4.738,3.055,4.738,0c0-19.358,0-38.716,0-58.074
						C153.124,274.702,148.386,274.702,148.386,277.757L148.386,277.757z"/>
				</g>
			</g>
		</g>
		<g>
			<defs>
				<path id="SVGID_5_" d="M151.638,241.696c69.321,0,125.517,39.294,125.517,87.765H26.121
					C26.121,280.99,82.317,241.696,151.638,241.696z"/>
			</defs>
			<clipPath id="SVGID_6_">
				<use xlink:href="#SVGID_5_"  overflow="visible"/>
			</clipPath>
			<path opacity="0.2" clip-path="url(#SVGID_6_)" fill="#323B49" enable-background="new    " d="M58.434,336.661
				c0.948,0,1.871-49.744,58.262-91.516l-8.901-2.483L40.29,255.487c0,0-24.811,22.425-26.39,23.373S3.792,317.394,3.792,317.394
				l15.161,14.845L58.434,336.661z"/>
		</g>
	</g>
	<path fill="#FDDDBB" stroke="#FDDDBB" stroke-width="5.1617" stroke-miterlimit="10" d="M126.597,253.345
		c29.248,31.462,17.978,30.806,53.418,0c7.279-6.327,0-35.792,0-35.792h-53.418C126.597,217.554,120.127,246.386,126.597,253.345z"
		/>
	<path opacity="0.2" fill="#323B49" enable-background="new    " d="M121.92,228.64c0,0,19.188,5.744,38.849,1.806
		c0,0-12.792,9.565-41.692,5.301L121.92,228.64z"/>
	<path opacity="0.2" fill="#323B49" enable-background="new    " d="M247.831,156.741c0,0,2.138-10.226,0-19.324
		c0,0,2.363,5.352,3.073,18.381L247.831,156.741z"/>
	
		<path fill="none" stroke="#FFFFFF" stroke-width="5.6853" stroke-linecap="round" stroke-linejoin="round" stroke-miterlimit="10" d="
		M85.159,69.309c0,0,7.639-33.824,41.44-43.087"/>
</g>
</svg>
