<?xml version="1.0" encoding="utf-8"?>
<!-- Generator: Adobe Illustrator 17.0.0, SVG Export Plug-In . SVG Version: 6.00 Build 0)  -->
<!DOCTYPE svg PUBLIC "-//W3C//DTD SVG 1.1//EN" "http://www.w3.org/Graphics/SVG/1.1/DTD/svg11.dtd">
<svg version="1.1" id="Calque_1" xmlns="http://www.w3.org/2000/svg" xmlns:xlink="http://www.w3.org/1999/xlink" x="0px" y="0px"
	 width="298.734px" height="373.418px" viewBox="0 0 298.734 373.418" enable-background="new 0 0 298.734 373.418"
	 xml:space="preserve">
<path fill="#323B49" stroke="#323B49" stroke-width="2" stroke-miterlimit="10" d="M35.417,246.812
	c0,10.015,10.286,19.669,22.974,19.669h178.045c12.688,0,22.974-9.653,22.974-19.669c0,0-0.462-114.503-18.111-157.089
	C207.271,7.616,90.77-4.974,49.822,84.536C28.662,130.791,35.417,246.812,35.417,246.812z"/>
<path fill="#9DD1BC" d="M146.768,268.26c73.158,0,132.465,41.469,132.465,92.624H14.303C14.303,309.729,73.61,268.26,146.768,268.26
	z"/>
<circle fill="#FDDDBB" stroke="#FDDDBB" stroke-width="5.4474" stroke-miterlimit="10" cx="240.582" cy="152.855" r="24.061"/>
<circle fill="#FDDDBB" stroke="#FDDDBB" stroke-width="5.4474" stroke-miterlimit="10" cx="52.548" cy="153.346" r="24.061"/>
<path fill="#FDDDBB" stroke="#FDDDBB" stroke-width="5.4474" stroke-miterlimit="10" d="M44.184,154.715
	c0,56.152,45.69,101.672,102.051,101.672s102.051-45.52,102.051-101.672S201.66,42.374,145.299,42.374S44.184,98.563,44.184,154.715
	z"/>
<g>
	<g>
		<path fill="#323B49" d="M253.275,150.643c1.13-0.084,2.123,1.425,2.636,2.25c0.815,1.311,1.159,2.935-0.027,4.104
			c-1.574,1.552,0.848,3.973,2.422,2.422c2.258-2.227,2.087-5.219,0.761-7.897c-1.003-2.026-3.32-4.487-5.792-4.303
			C251.087,147.382,251.071,150.808,253.275,150.643L253.275,150.643z"/>
	</g>
</g>
<g>
	<g>
		<path fill="#323B49" d="M41.124,145.949c-2.937,0.14-4.758,2.21-5.673,4.853c-0.765,2.209-0.804,5.501,1.056,7.202
			c1.626,1.487,4.054-0.928,2.422-2.422c-1.639-1.499-0.003-6.104,2.196-6.209C43.323,149.268,43.333,145.843,41.124,145.949
			L41.124,145.949z"/>
	</g>
</g>
<g>
	<g>
		<path fill="#323B49" d="M172.579,131.624c8.673-5.474,19.049-2.134,26.796,3.423c1.798,1.29,3.505-1.682,1.728-2.957
			c-8.736-6.267-20.584-9.526-30.253-3.423C168.988,129.842,170.705,132.806,172.579,131.624L172.579,131.624z"/>
	</g>
</g>
<g>
	<g>
		<path fill="#323B49" d="M121.207,128.667c-9.669-6.103-21.516-2.844-30.253,3.423c-1.777,1.275-0.07,4.247,1.728,2.957
			c7.746-5.557,18.123-8.897,26.796-3.423C121.352,132.806,123.069,129.842,121.207,128.667L121.207,128.667z"/>
	</g>
</g>
<g>
	<g>
		<path fill="#323B49" d="M149.055,176.151c-1.876,0.739-5.016,0.253-5.337-2.176c-0.304-2.299,2.457-4.153,4.157-5.106
			c1.926-1.08,0.2-4.038-1.728-2.957c-3.048,1.709-6.786,5.125-5.719,9.068c1.075,3.972,5.759,5.962,9.538,4.473
			C151.995,178.653,151.112,175.34,149.055,176.151L149.055,176.151z"/>
	</g>
</g>
<g>
	<g>
		<path fill="#E44E7E" d="M130.096,210.179c2.193-2.241,4.531-4.284,7.475-5.47c3.807-1.534,6.624,2.389,8.829,4.698
			c0.73,0.765,2.195,0.633,2.689-0.347c1.918-3.801,5.194-6.438,9.564-4.239c2.468,1.242,4.319,3.899,6.32,5.747
			c0-0.807,0-1.614,0-2.422c-4.997,3.999-13.329,3.758-19.429,3.795c-6.419,0.039-12.088-2.21-17.706-5.099
			c-1.809-0.931-3.27,1.197-2.075,2.689c3.315,4.138,10.8,5.5,15.664,6.127c9.577,1.235,19.198-0.234,27.256-5.781
			c1.806-1.243,0.096-4.213-1.728-2.957c-6.895,4.747-14.775,6.201-23.025,5.601c-4.632-0.337-12.582-1.462-15.745-5.411
			c-0.692,0.896-1.383,1.793-2.075,2.689c6.822,3.509,13.346,5.604,21.071,5.557c6.714-0.041,14.767-0.428,20.213-4.788
			c0.71-0.568,0.631-1.839,0-2.422c-2.934-2.709-5.957-7.029-10.281-7.491c-5.1-0.544-8.726,2.208-10.981,6.677
			c0.896-0.116,1.793-0.231,2.689-0.347c-2.336-2.446-5.078-5.93-8.853-5.909c-5.06,0.027-8.895,3.209-12.294,6.682
			C126.129,209.336,128.549,211.759,130.096,210.179L130.096,210.179z"/>
	</g>
</g>
<g>
	<g>
		<path fill="#323B49" d="M182.484,152.6c9.673,0,9.673-15,0-15C172.811,137.6,172.811,152.6,182.484,152.6L182.484,152.6z"/>
	</g>
</g>
<g>
	<g>
		<path fill="#323B49" d="M108.411,152.984c9.673,0,9.673-15,0-15S98.738,152.984,108.411,152.984L108.411,152.984z"/>
	</g>
</g>
<g>
	<g>
		<path fill="#323B49" d="M95.877,125.268c0.847,0.872,1.504,1.901,2.176,2.908c0.808,1.211,2.775,0.076,1.96-1.146
			c-0.777-1.165-1.551-2.36-2.531-3.367C96.46,122.612,94.856,124.218,95.877,125.268L95.877,125.268z"/>
	</g>
</g>
<g>
	<g>
		<path fill="#323B49" d="M91.17,126.836c1.127,1.128,2.096,2.216,2.453,3.813c0.32,1.428,2.508,0.822,2.189-0.603
			c-0.441-1.968-1.645-3.422-3.037-4.815C91.74,124.195,90.135,125.8,91.17,126.836L91.17,126.836z"/>
	</g>
</g>
<g>
	<g>
		<path fill="#323B49" d="M86.694,130.544c1.387,0.716,2.407,1.735,3.123,3.123c0.671,1.301,2.63,0.153,1.96-1.146
			c-0.878-1.702-2.235-3.059-3.937-3.937C86.541,127.914,85.393,129.872,86.694,130.544L86.694,130.544z"/>
	</g>
</g>
<g>
	<g>
		<path fill="#323B49" d="M193.745,128.96c0.646-1.311,1.164-2.691,1.961-3.922c0.798-1.233-1.168-2.369-1.96-1.146
			c-0.797,1.231-1.315,2.611-1.961,3.922C191.141,129.122,193.098,130.273,193.745,128.96L193.745,128.96z"/>
	</g>
</g>
<g>
	<g>
		<path fill="#323B49" d="M198.06,131.313c0.744-1.433,1.829-2.56,2.96-3.692c1.036-1.036-0.569-2.641-1.605-1.605
			c-1.26,1.261-2.486,2.557-3.315,4.152C195.426,131.464,197.384,132.612,198.06,131.313L198.06,131.313z"/>
	</g>
</g>
<g>
	<g>
		<path fill="#323B49" d="M201.804,133.896c1.122-1.048,2.766-1.313,4.205-1.669c1.42-0.351,0.818-2.54-0.603-2.189
			c-1.862,0.461-3.764,0.906-5.207,2.253C199.127,133.292,200.736,134.893,201.804,133.896L201.804,133.896z"/>
	</g>
</g>
<g>
	<g>
		<path fill="#E44E7E" d="M153.431,219.115c-2.411,2.531-8.323,3.547-10.588,0.268c-1.246-1.804-4.216-0.094-2.957,1.728
			c3.521,5.096,11.912,4.681,15.966,0.425C157.375,219.938,154.957,217.513,153.431,219.115L153.431,219.115z"/>
	</g>
</g>
<g>
	<g>
		<path fill="#F1B593" d="M196.011,191.104c2.208,0,2.208-3.425,0-3.425S193.803,191.104,196.011,191.104L196.011,191.104z"/>
	</g>
</g>
<g>
	<g>
		<path fill="#F1B593" d="M189.498,180.611c2.208,0,2.208-3.425,0-3.425S187.29,180.611,189.498,180.611L189.498,180.611z"/>
	</g>
</g>
<g>
	<g>
		<path fill="#F1B593" d="M181.538,188.21c0.154,0,0.308,0,0.462,0c0.933,0,1.712-0.779,1.712-1.712s-0.779-1.712-1.712-1.712
			c-0.034,0-0.067,0-0.101,0c-0.933,0-1.712,0.779-1.712,1.712s0.779,1.712,1.712,1.712c0.034,0,0.067,0,0.101,0
			c0.933,0,1.712-0.779,1.712-1.712s-0.779-1.712-1.712-1.712c-0.154,0-0.308,0-0.462,0c-0.933,0-1.712,0.779-1.712,1.712
			S180.605,188.21,181.538,188.21L181.538,188.21z"/>
	</g>
</g>
<g>
	<g>
		<path fill="#F1B593" d="M203.247,174.822c2.208,0,2.208-3.425,0-3.425S201.039,174.822,203.247,174.822L203.247,174.822z"/>
	</g>
</g>
<g>
	<g>
		<path fill="#F1B593" d="M176.569,172.748c0,0.121,0,0.241,0,0.362c0,0.933,0.779,1.712,1.712,1.712s1.712-0.779,1.712-1.712
			c0-0.121,0-0.241,0-0.362c0-0.933-0.779-1.712-1.712-1.712S176.569,171.815,176.569,172.748L176.569,172.748z"/>
	</g>
</g>
<g>
	<g>
		<path fill="#F1B593" d="M107.011,191.104c2.208,0,2.208-3.425,0-3.425S104.803,191.104,107.011,191.104L107.011,191.104z"/>
	</g>
</g>
<g>
	<g>
		<path fill="#F1B593" d="M100.498,180.611c2.208,0,2.208-3.425,0-3.425S98.29,180.611,100.498,180.611L100.498,180.611z"/>
	</g>
</g>
<g>
	<g>
		<path fill="#F1B593" d="M92.538,188.21c0.154,0,0.308,0,0.462,0c0.933,0,1.712-0.779,1.712-1.712s-0.779-1.712-1.712-1.712
			c-0.034,0-0.067,0-0.101,0c-0.933,0-1.712,0.779-1.712,1.712s0.779,1.712,1.712,1.712c0.034,0,0.067,0,0.101,0
			c0.933,0,1.712-0.779,1.712-1.712s-0.779-1.712-1.712-1.712c-0.154,0-0.308,0-0.462,0c-0.933,0-1.712,0.779-1.712,1.712
			S91.605,188.21,92.538,188.21L92.538,188.21z"/>
	</g>
</g>
<g>
	<g>
		<path fill="#F1B593" d="M114.247,174.822c2.208,0,2.208-3.425,0-3.425S112.039,174.822,114.247,174.822L114.247,174.822z"/>
	</g>
</g>
<g>
	<g>
		<path fill="#F1B593" d="M87.569,172.748c0,0.121,0,0.241,0,0.362c0,0.933,0.779,1.712,1.712,1.712
			c0.933,0,1.712-0.779,1.712-1.712c0-0.121,0-0.241,0-0.362c0-0.933-0.779-1.712-1.712-1.712
			C88.348,171.036,87.569,171.815,87.569,172.748L87.569,172.748z"/>
	</g>
</g>
<g>
	<g opacity="0.2">
		<g>
			<path fill="#323B49" d="M255.768,162.549c-5.016,1.712-3.239,7.772-1.569,11.368c1.338,2.88,4.901,7.322,8.607,5.593
				c5.066-2.363,3.581-14.883-2.881-13.727c-1.585,0.284-0.911,2.693,0.665,2.411c3.186-0.57,3.288,7.498,1.41,8.915
				c-3.314,2.5-10.46-10.478-5.567-12.148C257.95,164.442,257.298,162.026,255.768,162.549L255.768,162.549z"/>
		</g>
	</g>
	<g opacity="0.2">
		<g>
			<path fill="#323B49" d="M37.649,165.934c0.761,5.018,2.44,14.958-5.115,15.056c-6.316,0.082-1.205-9.279,1.408-11.076
				c1.319-0.907,0.071-3.075-1.262-2.159c-4.271,2.937-9.353,13.425-1.813,15.536c10.972,3.072,10.15-11.708,9.192-18.022
				C39.819,163.68,37.41,164.357,37.649,165.934L37.649,165.934z"/>
		</g>
	</g>
</g>
<g>
	<g>
		<path fill="#E44E7E" d="M254.799,162.66c-4.929,1.682-3.135,7.679-1.5,11.199c1.305,2.809,4.81,7.25,8.449,5.552
			c4.945-2.307,3.534-14.649-2.792-13.517c-1.439,0.258-0.827,2.445,0.603,2.189c3.356-0.601,3.471,7.637,1.499,9.125
			c-3.444,2.599-10.735-10.625-5.656-12.359C256.779,164.378,256.188,162.186,254.799,162.66L254.799,162.66z"/>
	</g>
</g>
<g>
	<g>
		<path fill="#E44E7E" d="M38.76,165.903c0.773,5.1,2.438,15.102-5.226,15.202c-6.483,0.085-1.352-9.433,1.35-11.29
			c1.198-0.823,0.064-2.792-1.146-1.96c-4.188,2.88-9.265,13.247-1.84,15.326c10.858,3.04,9.994-11.658,9.05-17.881
			C40.73,163.857,38.543,164.472,38.76,165.903L38.76,165.903z"/>
	</g>
</g>
<g>
	<path fill="#323B49" d="M234.049,94.526c-3.829-10.393-12.581-21.334-20.24-28.992c-5.47-5.47-11.487-10.94-18.052-14.77
		c-1.871-0.748-3.82-1.765-5.688-2.523c-1.631-0.662-3.109-1.09-4.727-1.795c-3.869-1.685-7.91-2.922-12.013-3.888
		c-9.299-2.188-19.146-1.641-28.445-1.641c-15.864,0-28.992,4.923-43.214,10.94c-13.675,4.923-25.71,13.128-35.556,23.522
		c-4.923,5.47-8.205,11.487-10.94,18.599c-0.547,2.735-9.726,13.514-5.897,15.702c2.188,0.547,13.008-0.932,14.649-0.932
		c6.564-1.641,12.688-0.792,18.706-1.339c21.334-2.188,41.542-2.425,62.876-1.331c7.549,0.378,15.058,0.213,22.405,0.428
		c-0.228-5.727-1.004-21.776-0.094-27.692c3.277,3.277,11.534,14.389,13.719,17.667c1.362,2.27,6.638,11.1,7.96,13.22
		c10.101,0.502,9.303-2.031,19.935-1.5c5.47,0.547,10.523,0.81,16.541,1.357c2.188,0.547,11.743-0.465,14.837-0.746
		C244.663,108.462,235.143,97.808,234.049,94.526z"/>
	<g>
		<path fill="#323B49" d="M238.426,93.319c-4.826-12.414-13.298-22.952-22.679-32.257c-4.973-4.932-10.316-9.485-16.193-13.306
			c-5.738-3.73-13.307-6.102-19.784-8.17c-13.642-4.356-29.64-4.182-43.76-2.689c-14.096,1.49-27.244,7.033-40.213,12.417
			c-12.479,5.181-23.54,13.147-32.892,22.856c-7.694,7.987-10.931,18.452-16.24,27.573c-1.777,3.053-3.56,6.759-2.503,10.347
			c1.332,4.521,6.078,4.361,9.875,4.106c3.592-0.241,7.57-0.3,11.097-1.071c7.518-1.642,15.624-1.04,23.291-1.726
			c26.446-2.368,52.999-1.022,79.489-0.354c2.4,0.06,4.638-2.111,4.54-4.54c-0.37-9.119-1.309-18.612-0.094-27.692
			c-2.583,1.07-5.166,2.14-7.749,3.21c6.399,6.64,11.66,14.501,16.385,22.383c2.704,4.51,4.321,9.688,10.178,9.892
			c5.087,0.177,9.902-1.475,14.947-1.629c11.865-0.361,24.067,3.446,35.899,0.519C252.902,110.497,240.184,97.655,238.426,93.319
			c-2.17-5.352-10.956-3.015-8.755,2.414c1.623,4.002,4.491,7.312,6.726,10.978c0.323,0.53,0.651,1.096,0.846,1.68
			c3.722-3.091,4.395-4.415,2.018-3.972c-0.681,0.065-1.361,0.129-2.042,0.191c-3.046,0.283-6.099,0.534-9.159,0.568
			c-7.281,0.082-14.628-1.554-21.941-1.587c-5.641-0.026-10.937,1.768-16.621,1.57c1.307,0.749,2.613,1.499,3.92,2.248
			c-6.82-11.032-13.313-22.387-22.389-31.806c-3.046-3.161-7.262-0.432-7.749,3.21c-1.214,9.08-0.275,18.573,0.094,27.692
			c1.513-1.513,3.026-3.026,4.54-4.54c-15.73-0.396-31.497-1.065-47.232-1.063c-15.507,0.002-30.886,2.066-46.353,2.212
			c-5,0.047-9.84,0.982-14.787,1.492c-2.18,0.225-4.36,0.433-6.547,0.58c-0.872,0.059-1.742,0.074-2.616,0.069
			c4.336,0.028,1.502,4.392,3.168,0.856c1.546-3.28,3.984-6.093,5.421-9.421c2.834-6.563,5.608-12.645,10.357-18.101
			c9.479-10.889,22.136-17.546,35.189-23.044c13.633-5.742,27.203-10.047,42.121-10.095c7.332-0.024,14.7-0.304,21.978,0.786
			c7.545,1.13,15.105,4.018,22.009,7.189c12.781,5.869,23.728,17.912,31.8,29.239c2.886,4.049,5.447,8.428,7.25,13.068
			C231.769,101.128,240.55,98.784,238.426,93.319z"/>
	</g>
</g>
<g opacity="0.2">
	<path fill="#323B49" d="M234.049,105.526c-3.829-10.393-12.581-21.334-20.24-28.992c-5.47-5.47-11.487-10.94-18.052-14.77
		c-1.871-0.748-3.82-1.765-5.688-2.523c-1.631-0.662-3.109-1.09-4.727-1.795c-3.869-1.685-7.91-2.922-12.013-3.888
		c-9.299-2.188-19.146-1.641-28.445-1.641c-15.864,0-28.992,4.923-43.214,10.94c-13.675,4.923-25.71,13.128-35.556,23.522
		c-4.923,5.47-8.205,11.487-10.94,18.599c-0.547,2.735-9.726,13.514-5.897,15.702c2.188,0.547,13.008-0.932,14.649-0.932
		c6.564-1.641,12.688-0.792,18.706-1.339c21.334-2.188,41.542-2.425,62.876-1.331c7.549,0.378,15.058,0.213,22.405,0.428
		c-0.228-5.727-1.004-21.776-0.094-27.692c3.277,3.277,11.534,14.389,13.719,17.667c1.362,2.27,6.638,11.1,7.96,13.22
		c10.101,0.502,9.303-2.031,19.935-1.5c5.47,0.547,10.523,0.81,16.541,1.357c2.188,0.547,11.743-0.465,14.837-0.746
		C244.663,119.462,235.143,108.808,234.049,105.526z"/>
	<g>
		<path fill="#323B49" d="M238.426,104.319c-4.826-12.414-13.298-22.952-22.679-32.257c-4.973-4.932-10.316-9.485-16.193-13.306
			c-5.738-3.73-13.307-6.102-19.784-8.17c-13.642-4.356-29.64-4.182-43.76-2.689c-14.096,1.49-27.244,7.033-40.213,12.417
			c-12.479,5.181-23.54,13.147-32.892,22.856c-7.694,7.987-10.931,18.452-16.24,27.573c-1.777,3.053-3.56,6.759-2.503,10.347
			c1.332,4.521,6.078,4.361,9.875,4.106c3.592-0.241,7.57-0.3,11.097-1.071c7.518-1.642,15.624-1.04,23.291-1.726
			c26.446-2.368,52.999-1.022,79.489-0.354c2.4,0.06,4.638-2.111,4.54-4.54c-0.37-9.119-1.309-18.612-0.094-27.692
			c-2.583,1.07-5.166,2.14-7.749,3.21c6.399,6.64,11.66,14.501,16.385,22.383c2.704,4.51,4.321,9.688,10.178,9.892
			c5.087,0.177,9.902-1.475,14.947-1.629c11.865-0.361,24.067,3.446,35.899,0.519C252.902,121.497,240.184,108.655,238.426,104.319
			c-2.17-5.352-10.956-3.015-8.755,2.414c1.623,4.002,4.491,7.312,6.726,10.978c0.323,0.53,0.651,1.096,0.846,1.68
			c3.722-3.091,4.395-4.415,2.018-3.972c-0.681,0.065-1.361,0.129-2.042,0.191c-3.046,0.283-6.099,0.534-9.159,0.568
			c-7.281,0.082-14.628-1.554-21.941-1.587c-5.641-0.026-10.937,1.768-16.621,1.57c1.307,0.749,2.613,1.499,3.92,2.248
			c-6.82-11.032-13.313-22.387-22.389-31.806c-3.046-3.161-7.262-0.432-7.749,3.21c-1.214,9.08-0.275,18.573,0.094,27.692
			c1.513-1.513,3.026-3.026,4.54-4.54c-15.73-0.396-31.497-1.065-47.232-1.063c-15.507,0.002-30.886,2.066-46.353,2.212
			c-5,0.047-9.84,0.982-14.787,1.492c-2.18,0.225-4.36,0.433-6.547,0.58c-0.872,0.059-1.742,0.074-2.616,0.069
			c4.336,0.028,1.502,4.392,3.168,0.856c1.546-3.28,3.984-6.093,5.421-9.421c2.834-6.563,5.608-12.645,10.357-18.101
			c9.479-10.889,22.136-17.546,35.189-23.044c13.633-5.742,27.203-10.047,42.121-10.095c7.332-0.024,14.7-0.304,21.978,0.786
			c7.545,1.13,15.105,4.018,22.009,7.189c12.781,5.869,23.728,17.912,31.8,29.239c2.886,4.049,5.447,8.428,7.25,13.068
			C231.769,112.128,240.55,109.784,238.426,104.319z"/>
	</g>
</g>
<g>
	<g>
		<path fill="#D6E39C" d="M157.95,352.238c3.224,0,3.224-5,0-5C154.726,347.238,154.726,352.238,157.95,352.238L157.95,352.238z"/>
	</g>
</g>
<g>
	<defs>
		<path id="SVGID_1_" d="M146.768,268.26c73.158,0,132.465,41.469,132.465,92.624H14.303
			C14.303,309.729,73.61,268.26,146.768,268.26z"/>
	</defs>
	<clipPath id="SVGID_2_">
		<use xlink:href="#SVGID_1_"  overflow="visible"/>
	</clipPath>
	<path clip-path="url(#SVGID_2_)" fill="none" stroke="#D6E39C" stroke-width="5" stroke-miterlimit="10" d="M105.28,268.26
		c-2.301,7.364,6.85,19.018,10.533,24.542c2.762,4.603,6.904,8.285,10.586,12.888c4.142,4.603,8.285,10.126,13.808,13.808
		c5.063,3.682,8.285,1.381,12.888-2.301c6.904-5.523,13.46-10.673,19.444-17.117c4.603-4.603,25.969-22.614,21.367-31.819"/>
	<g clip-path="url(#SVGID_2_)">
		<g>
			<path fill="#D6E39C" d="M143.337,306.317c0,20.43,0,40.859,0,61.289c0,3.224,5,3.224,5,0c0-20.43,0-40.859,0-61.289
				C148.337,303.093,143.337,303.093,143.337,306.317L143.337,306.317z"/>
		</g>
	</g>
	<path opacity="0.2" clip-path="url(#SVGID_2_)" fill="#323B49" d="M48.405,368.481c1,0,1.975-52.498,61.487-96.582l-9.394-2.621
		l-71.242,13.536c0,0-26.185,23.667-27.851,24.667s-10.667,40.667-10.667,40.667l16,15.667L48.405,368.481z"/>
</g>
<path fill="#FDDDBB" stroke="#FDDDBB" stroke-width="5.4474" stroke-miterlimit="10" d="M120.342,280.554
	c30.867,33.204,18.973,32.511,56.375,0c7.682-6.677,0-37.773,0-37.773h-56.375C120.342,242.781,113.514,273.209,120.342,280.554z"/>
<path opacity="0.2" fill="#323B49" d="M115.405,254.481c0,0,20.25,6.062,41,1.906c0,0-13.5,10.094-44,5.594L115.405,254.481z"/>
<path opacity="0.2" fill="#323B49" d="M248.287,178.601c0,0,2.257-10.792,0-20.393c0,0,2.493,5.648,3.243,19.398L248.287,178.601z"
	/>
<path fill="none" stroke="#FFFFFF" stroke-width="6" stroke-linecap="round" stroke-linejoin="round" stroke-miterlimit="10" d="
	M76.609,86.33c0,0,8.061-35.696,43.734-45.472"/>
</svg>
