<?xml version="1.0" encoding="utf-8"?>
<!-- Generator: Adobe Illustrator 17.0.0, SVG Export Plug-In . SVG Version: 6.00 Build 0)  -->
<!DOCTYPE svg PUBLIC "-//W3C//DTD SVG 1.1//EN" "http://www.w3.org/Graphics/SVG/1.1/DTD/svg11.dtd">
<svg version="1.1" id="Calque_1" xmlns="http://www.w3.org/2000/svg" xmlns:xlink="http://www.w3.org/1999/xlink" x="0px" y="0px"
	 width="330.38px" height="374.684px" viewBox="0 0 330.38 374.684" enable-background="new 0 0 330.38 374.684"
	 xml:space="preserve">
<path fill="#87C8CB" stroke="#87C8CB" stroke-width="5.4474" stroke-miterlimit="10" d="M166.907,252.215
	c73.158,0,132.465,41.469,132.465,92.624H34.442C34.442,293.684,93.749,252.215,166.907,252.215z"/>
<g>
	<defs>
		<path id="SVGID_1_" d="M166.907,252.215c73.158,0,132.465,41.469,132.465,92.624H34.442
			C34.442,293.684,93.749,252.215,166.907,252.215z"/>
	</defs>
	<clipPath id="SVGID_2_">
		<use xlink:href="#SVGID_1_"  overflow="visible"/>
	</clipPath>
	<g opacity="0.2" clip-path="url(#SVGID_2_)">
		<path fill="#323B49" d="M130.313,253.953c0,3.648-2.085,9.818-2.606,14.508c-1.042,9.38-3.127,19.761-2.085,29.663
			c5.732-2.085,11.986-7.838,16.676-10.964c9.38-6.254,18.761-13.039,28.662-17.729l4.352-0.442
			c2.606,1.042,4.169,3.124,6.775,4.688c6.775,4.69,14.07,8.337,21.366,13.548c4.169,2.606,8.338,7.295,13.028,9.38
			c0-9.38-0.521-18.24-1.042-27.62c-0.521-4.69-0.521-10.777-1.563-15.467l-13.821-2.099h-57.892L130.313,253.953z"/>
		<g>
			<path fill="#323B49" d="M125.313,253.787c-0.332,6.585-2.413,13.383-3.274,19.968c-1.06,8.102-2.118,16.146-1.416,24.328
				c0.248,2.885,3.075,6.149,6.329,4.821c7.79-3.177,14.078-8.886,20.998-13.548c4.18-2.816,8.346-5.647,12.596-8.358
				c2.102-1.341,4.249-2.609,6.409-3.853c1.073-0.608,2.155-1.198,3.248-1.77c3.287-1.756,0.206-0.899,1.621-1.041
				c1.083-0.109,2.165-0.217,3.248-0.326c-1.458-0.313-1.427-0.093,0.093,0.661c0.706,0.593,1.426,1.167,2.162,1.723
				c3.973,3.084,8.419,5.596,12.725,8.179c4.135,2.48,8.128,5.125,12.13,7.81c4.073,2.733,7.336,6.311,11.777,8.541
				c3.315,1.664,7.538-0.341,7.524-4.317c-0.053-14.6,0.02-30.208-2.784-44.583c-0.3-1.539-1.92-3.234-3.492-3.492
				c-5.533-0.907-11.257-2.444-16.881-2.444c-8.573,0-17.146,0-25.719,0c-8.984,0-17.967,0-26.951,0
				c-5.726,0-11.095,1.609-16.671,2.881c-6.286,1.434-3.62,11.075,2.658,9.643c3.499-0.798,6.997-1.596,10.496-2.393
				c2.613-0.596-0.884-0.13,0.577-0.13c0.98,0,1.96,0,2.94,0c8.984,0,17.967,0,26.951,0c8.302,0,16.605,0,24.907,0
				c0.78,0,1.56,0,2.341,0c-2.041,0,0.08,0.019,1.396,0.235c3.766,0.617,7.532,1.235,11.298,1.852
				c-1.164-1.164-2.328-2.328-3.492-3.492c2.624,13.453,2.377,28.26,2.427,41.924c2.508-1.439,5.016-2.878,7.524-4.317
				c-3.94-1.978-7.021-4.99-10.523-7.604c-4.273-3.19-8.818-5.999-13.384-8.746c-4.348-2.617-8.927-5.115-12.863-8.338
				c-2.668-2.185-5.132-3.794-8.636-3.442c-8.956,0.899-17.094,7.455-24.425,12.335c-4.327,2.881-8.705,5.723-12.871,8.835
				c-3.791,2.832-7.583,6.129-12.01,7.935c2.11,1.607,4.219,3.214,6.329,4.821c-0.702-8.177,0.34-16.232,1.416-24.328
				c0.883-6.643,2.937-13.282,3.274-19.968C135.638,247.339,125.636,247.37,125.313,253.787z"/>
		</g>
	</g>
	<g clip-path="url(#SVGID_2_)">
		<path fill="#E44E7E" d="M125.313,250.953c0,3.648-2.085,9.818-2.606,14.508c-1.042,9.38-3.127,19.761-2.085,29.663
			c5.732-2.085,11.986-7.838,16.676-10.964c9.38-6.254,18.761-13.039,28.662-17.729l4.352-0.442
			c2.606,1.042,4.169,3.124,6.775,4.688c6.775,4.69,14.07,8.337,21.366,13.548c4.169,2.606,8.338,7.295,13.028,9.38
			c0-9.38-0.521-18.24-1.042-27.62c-0.521-4.69-0.521-10.777-1.563-15.467l-13.821-2.099h-57.892L125.313,250.953z"/>
		<g>
			<path fill="#E44E7E" d="M122.813,250.787c-0.333,6.606-2.411,13.366-3.274,19.968c-1.06,8.102-2.118,16.146-1.416,24.328
				c0.124,1.443,1.538,3.074,3.165,2.411c7.545-3.077,13.696-8.779,20.401-13.296c4.18-2.816,8.346-5.647,12.596-8.358
				c2.102-1.341,4.249-2.609,6.409-3.853c1.696-0.976,4.206-2.959,6.13-3.152c1.083-0.109,2.165-0.217,3.248-0.326
				c0.638-0.064,3.35,2.594,4.022,3.116c3.796,2.946,8.106,5.321,12.219,7.788c4.135,2.48,8.128,5.124,12.13,7.81
				c4.081,2.738,7.332,6.309,11.777,8.541c1.657,0.832,3.769-0.17,3.762-2.159c-0.052-14.37,0.065-29.769-2.695-43.918
				c-0.15-0.77-0.96-1.617-1.746-1.746c-5.321-0.872-10.809-2.355-16.216-2.355c-8.573,0-17.146,0-25.719,0
				c-8.984,0-17.967,0-26.951,0c-5.501,0-10.644,1.569-16.006,2.792c-3.143,0.717-1.81,5.537,1.329,4.821
				c3.499-0.798,6.997-1.596,10.496-2.393c1.811-0.413,0.226-0.22,1.242-0.22c0.98,0,1.96,0,2.94,0c8.984,0,17.967,0,26.951,0
				c8.302,0,16.605,0,24.907,0c4.344,0,9.929,1.231,15.699,2.176c-0.582-0.582-1.164-1.164-1.746-1.746
				c2.668,13.68,2.466,28.692,2.516,42.589c1.254-0.72,2.508-1.439,3.762-2.159c-3.941-1.979-7.021-4.99-10.523-7.604
				c-4.273-3.19-8.818-5.999-13.384-8.746c-4.54-2.732-9.26-5.364-13.369-8.729c-2.209-1.809-4.025-2.995-6.868-2.71
				c-8.406,0.843-16.297,7.423-23.163,11.994c-4.327,2.881-8.705,5.723-12.871,8.835c-4.002,2.99-7.937,6.282-12.608,8.188
				c1.055,0.804,2.11,1.607,3.165,2.411c-0.702-8.177,0.34-16.232,1.416-24.328c0.881-6.629,2.938-13.3,3.274-19.968
				C127.975,247.563,122.975,247.578,122.813,250.787z"/>
		</g>
	</g>
	<path opacity="0.2" clip-path="url(#SVGID_2_)" fill="#323B49" stroke="#323B49" stroke-width="2" stroke-miterlimit="10" d="
		M58.388,355.084c0,0-7-64.74,54.667-102.87s-49.667-1.536-53.333,0s-33.667,24.203-39,28.87c-5.333,4.667-12.667,31-12.667,31
		s14.667,39.333,16,40.333C25.388,353.418,58.388,355.084,58.388,355.084z"/>
</g>
<path fill="#FDDDBB" stroke="#FDDDBB" stroke-width="5.4474" stroke-miterlimit="10" d="M140.382,264.509
	c8.858,9.529,46.409,8.663,56.375,0c7.682-6.677,0-37.773,0-37.773h-56.375C140.382,226.736,133.554,257.164,140.382,264.509z"/>
<circle fill="#FDDDBB" stroke="#FDDDBB" stroke-width="5.4474" stroke-miterlimit="10" cx="269.623" cy="136.81" r="24.061"/>
<circle fill="#FDDDBB" stroke="#FDDDBB" stroke-width="5.4474" stroke-miterlimit="10" cx="64.588" cy="137.301" r="24.061"/>
<path fill="#FDDDBB" d="M64.224,139.382c0,56.152,45.69,101.672,102.051,101.672s102.051-45.52,102.051-101.672
	S221.7,27.041,165.339,27.041S64.224,83.231,64.224,139.382z"/>
<g>
	<g>
		<path fill="#323B49" d="M274.837,134.119c1.13-0.084,2.123,1.425,2.636,2.25c0.815,1.311,1.159,2.935-0.027,4.104
			c-1.574,1.552,0.848,3.973,2.422,2.422c2.258-2.227,2.087-5.219,0.761-7.897c-1.003-2.026-3.32-4.487-5.792-4.303
			C272.649,130.858,272.633,134.284,274.837,134.119L274.837,134.119z"/>
	</g>
</g>
<g>
	<g>
		<path fill="#323B49" d="M57.685,129.425c-2.937,0.14-4.758,2.21-5.673,4.853c-0.765,2.209-0.804,5.501,1.056,7.202
			c1.626,1.487,4.054-0.928,2.422-2.422c-1.639-1.499-0.003-6.104,2.196-6.209C59.884,132.744,59.894,129.319,57.685,129.425
			L57.685,129.425z"/>
	</g>
</g>
<g>
	<g>
		<path fill="#F1B593" d="M188.619,115.579c8.673-5.474,19.049-2.134,26.796,3.423c1.798,1.29,3.505-1.682,1.728-2.957
			c-8.736-6.267-20.584-9.526-30.253-3.423C185.029,113.797,186.745,116.761,188.619,115.579L188.619,115.579z"/>
	</g>
</g>
<g>
	<g>
		<path fill="#F1B593" d="M147.247,111.622c-9.669-6.103-21.516-2.844-30.253,3.423c-1.777,1.275-0.07,4.247,1.728,2.957
			c7.746-5.557,18.123-8.897,26.796-3.423C147.392,115.761,149.109,112.797,147.247,111.622L147.247,111.622z"/>
	</g>
</g>
<g>
	<g>
		<path fill="#323B49" d="M203.525,143.134c11.71,0,11.71-18.158,0-18.158C191.815,124.975,191.815,143.134,203.525,143.134
			L203.525,143.134z"/>
	</g>
</g>
<g>
	<g>
		<path fill="#323B49" d="M130.451,142.518c11.71,0,11.71-18.158,0-18.158S118.741,142.518,130.451,142.518L130.451,142.518z"/>
	</g>
</g>
<g>
	<g>
		<path fill="#323B49" d="M154.333,154.202c-1.514,2.363-2.861,4.904-3.919,7.505c-0.862,2.119-2.187,5.553-2.04,7.822
			c0.515,7.935,10.253,7.498,16.104,8.791c4.077,0.901,7.739-0.698,11.69-1.357c3.562-0.594,6.115-1.099,8.353-4.064
			c3.568-4.728-2.485-14.797-4.83-18.911c-1.093-1.918-4.052-0.193-2.957,1.728c2.208,3.874,4.046,8.085,5.081,12.432
			c1.662,6.986-15.502,7.194-19.408,6.14c-2.398-0.647-4.657-0.684-7.079-1.147c-4.167-0.797-3.061-4.449-2.604-7.279
			c0.564-3.496,2.671-6.973,4.566-9.93C158.486,154.065,155.521,152.349,154.333,154.202L154.333,154.202z"/>
	</g>
</g>
<g>
	<g>
		<path fill="#323B49" d="M207.988,87.435c-6.287-0.911-11.924,0.412-17.769,2.733c-8.001,3.177-15.258,8.115-24.235,6.246
			c-11.226-2.338-22.151-11.309-33.897-5.177c-0.715,0.373-0.083,1.452,0.631,1.079c12.199-6.368,24.301,4.28,36.155,5.844
			c5.58,0.736,10.992-2.013,15.914-4.24c7.365-3.332,14.601-6.478,22.87-5.28C208.444,88.755,208.783,87.55,207.988,87.435
			L207.988,87.435z"/>
	</g>
</g>
<path fill="none" stroke="#323B49" stroke-miterlimit="10" d="M149.11,180.535c0,0-11.34,9.072-11.947,16.568"/>
<g>
	<g>
		<path fill="#323B49" d="M179.944,217.081c-7.762-2.092-14.845,0.102-21.02,5.021c-0.63,0.502,0.26,1.381,0.884,0.884
			c5.809-4.627,12.514-6.665,19.804-4.699C180.391,218.496,180.721,217.29,179.944,217.081L179.944,217.081z"/>
	</g>
</g>
<g>
	<g>
		<path fill="#FFFFFF" d="M183.136,283.202c-1.337,1.61-2.326,3.314-3.332,5.149c-1.795,3.273-5.85,2.224-8.946,1.977
			c-1.942-0.155-4.607,0.711-6.37-0.261c-2.541-1.401-5.524-5.566-7.129-7.923c-1.804-2.647-6.138-0.149-4.317,2.524
			c3.911,5.741,8.069,11.06,15.332,10.65c3.699-0.209,7.238,0.647,10.918-0.171c4.063-0.903,5.076-5.635,7.381-8.41
			C188.716,284.277,185.199,280.719,183.136,283.202L183.136,283.202z"/>
	</g>
</g>
<g>
	<g>
		<path fill="#FFFFFF" d="M176.24,296.057c1.02,4.415,3.168,8,3.16,12.673c-0.009,4.866-1.693,9.938-2.534,14.72
			c-0.763,4.339-1.246,8.845-2.362,13.108c-0.308,1.178-0.414,2.438-0.565,3.643c-0.067,0.534-0.873,3.799-0.052,1.873
			c-1.249,2.931,3.057,5.482,4.317,2.524c0.858-2.013,0.713-4.569,1.121-6.711c0.944-4.95,1.801-9.92,2.674-14.886
			c0.838-4.765,2.074-9.43,2.4-14.271c0.344-5.103-2.23-9.207-3.338-14.002C180.336,291.587,175.515,292.919,176.24,296.057
			L176.24,296.057z"/>
	</g>
</g>
<g>
	<g>
		<path fill="#FFFFFF" d="M161.649,293.164c-1.097,3.979-3.335,7.313-4.845,11.11c-1.6,4.024-1.591,7.425-1.018,11.694
			c0.647,4.816,2.01,9.547,2.396,14.389c0.358,4.487,0.762,8.899,2.424,13.122c1.167,2.965,6.004,1.675,4.821-1.329
			c-1.504-3.821-1.923-7.722-2.245-11.792c-0.302-3.811-1.158-7.447-1.859-11.202c-0.964-5.166-1.576-9.416,0.66-14.283
			c1.596-3.474,3.463-6.666,4.486-10.379C167.328,291.38,162.504,290.06,161.649,293.164L161.649,293.164z"/>
	</g>
</g>
<g>
	<g>
		<path fill="#323B49" d="M145.571,194.283c2.789,8.799,11.047,12.648,19.752,13.243c10.41,0.711,20.566-4.484,25.714-13.525
			c1.61-2.827-2.543-5.185-4.317-2.524c-0.293,0.44-0.586,0.879-0.88,1.319c-1.794,2.691,2.539,5.192,4.317,2.524
			c0.293-0.44,0.586-0.88,0.879-1.319c-1.439-0.841-2.878-1.682-4.317-2.524c-4.013,7.05-10.87,10.496-18.814,11.042
			c-7.05,0.484-15.209-2.296-17.513-9.565C149.422,189.891,144.594,191.2,145.571,194.283L145.571,194.283z"/>
	</g>
</g>
<g>
	<defs>
		<path id="SVGID_3_" d="M64.224,139.382c0,56.152,45.69,101.672,102.051,101.672s102.051-45.52,102.051-101.672
			S221.7,27.041,165.339,27.041S64.224,83.231,64.224,139.382z"/>
	</defs>
	<clipPath id="SVGID_4_">
		<use xlink:href="#SVGID_3_"  overflow="visible"/>
	</clipPath>
	<g opacity="0.2" clip-path="url(#SVGID_4_)">
		<path fill="#323B49" d="M266.341,118.618c-4.648-1.992-5.977-5.312-8.633-9.297c-2.656-3.984-5.976-7.969-9.297-11.289
			c-7.305-7.969-14.609-14.827-22.578-21.467c-2.656-1.992-18.012-16.147-29.218-18.147h-3.336c-4.648,5-12.617,7.522-18.594,9.514
			c-9.297,3.984-19.922,6.715-29.883,7.38c-9.961,0-17.265-2.894-25.234-7.894c-0.664,0-0.664,0-1.328,0
			c3.32-1,9.961-3.951,9.961-7.935c-5.976,1.328-11.289,0.681-16.601,4.001c-7.305,4.648-12.617,11.961-17.265,18.602
			c-5.312,7.305-10.625,13.949-16.601,20.59c-3.984,3.984-11.953,11.955-12.617,17.932L57.685,89.73l6.539-9.313
			c0,0,46.497-47.753,47.497-48.377c1-0.623,122.333-23.623,122.667-22.29s20.367,32.667,18.683,36.667
			C251.388,50.418,266.341,118.618,266.341,118.618z"/>
		<g>
			<path fill="#323B49" d="M268.632,114.698c-3.061-1.5-4.477-3.681-6.242-6.494c-2.41-3.84-5.285-7.391-8.288-10.778
				c-6.445-7.267-13.565-13.973-20.897-20.331c-9.047-7.845-18.673-16.431-29.889-20.933c-3.472-1.394-9.974-3.544-13.245-0.519
				c-6.061,5.604-15.334,7.884-22.963,10.582c-8.572,3.03-18.608,5.625-27.729,4.327c-4.185-0.596-8.177-2.118-11.959-3.951
				c-3.103-1.504-5.629-3.654-9.177-3.654c0.402,2.972,0.805,5.945,1.207,8.917c5.137-2.068,12.269-4.84,13.131-11.139
				c0.48-3.503-1.905-6.307-5.584-5.584c-7.901,1.553-14.683,1.733-21.253,7.013c-6.665,5.356-11.389,12.27-16.39,19.103
				c-5.297,7.238-10.98,14.246-17.248,20.663c-4.688,4.8-10.15,10.642-11.365,17.484c2.918,0,5.837,0,8.755,0
				c-2.477-10.293-4.954-20.586-7.431-30.879c-0.153,1.166-0.305,2.332-0.458,3.498c1.615-2.3,3.229-4.599,4.844-6.899
				c0.386-0.55,2.719-3.276,0.999-1.51c0.277-0.285,0.555-0.569,0.832-0.854c3.678-3.776,7.358-7.55,11.039-11.323
				c10.511-10.773,21.007-21.565,31.61-32.248c1.166-1.175,2.331-2.354,3.523-3.503c0.734-0.707-2.843,0.992-0.356,0.445
				c3.51-0.773,7.045-1.439,10.572-2.13c13.982-2.74,27.985-5.38,41.991-7.998c15.436-2.885,30.879-5.734,46.347-8.445
				c5.332-0.935,10.667-1.857,16.017-2.689c0.856-0.133,1.712-0.261,2.569-0.384c1.349-0.194-0.453,0.042,1.037-0.133
				c0.406-0.048,0.813-0.087,1.222-0.111c0.117-0.007,0.234-0.007,0.352-0.003c-2.125-0.064-5.324-5.57-3.624-1.941
				c2.621,5.594,6.394,10.816,9.469,16.169c2.013,3.503,3.966,7.042,5.792,10.647c0.677,1.337,1.347,2.692,1.915,4.08
				c0.419,1.025,0.878,2.752,0.877,2.694c-0.046-1.678-0.205,2.621-0.155,3.306c0.201,2.739,0.643,5.47,1.06,8.183
				c1.15,7.478,2.605,14.912,4.064,22.335c2.633,13.401,5.44,26.772,8.363,40.113c1.253,5.718,10.005,3.293,8.755-2.414
				c-2.34-10.681-4.587-21.383-6.761-32.098c-1.623-7.996-3.196-16.004-4.614-24.039c-0.805-4.564-2.013-9.455-1.854-14.127
				c-0.03,0.889,0.057,0.357,0.221-1.26c0.11-1.083-0.264-2.308-0.567-3.346c-0.983-3.362-2.723-6.587-4.321-9.687
				c-3.689-7.157-7.878-14.054-11.994-20.969c-0.6-1.009-1.199-2.018-1.786-3.034c-1.285-2.224,0.574,0.842-0.735-1.391
				c-1.008-1.721-2.89-2.415-4.791-2.276c-3.542,0.258-7.09,0.947-10.592,1.517c-29.367,4.785-58.608,10.46-87.828,16.06
				c-8.109,1.554-16.455,2.729-24.441,4.855c-2.884,0.768-5.497,4.495-7.468,6.485c-5.115,5.165-10.198,10.361-15.283,15.556
				c-6.717,6.862-13.424,13.735-20.128,20.61c-3.257,3.34-6.489,6.458-9.168,10.273c-1.893,2.696-6.177,6.758-5.301,10.397
				c0.642,2.669,1.284,5.337,1.927,8.006c1.835,7.624,3.67,15.249,5.504,22.873c1.009,4.193,7.957,4.495,8.755,0
				c1.02-5.746,5.981-10.356,9.896-14.364c5.283-5.408,9.989-11.37,14.602-17.352c4.781-6.199,8.948-12.8,14.513-18.355
				c6.232-6.221,12.799-6.258,20.903-7.852c-1.861-1.861-3.723-3.723-5.584-5.584c-0.365,2.663-4.573,3.906-6.79,4.798
				c-4.52,1.82-4.26,8.917,1.207,8.917c1.174,0,4.265,2.255,5.98,3.086c3.101,1.503,6.349,2.679,9.675,3.567
				c7.393,1.974,14.807,1.175,22.222-0.15c7.82-1.398,14.975-4.367,22.442-6.899c6.486-2.2,12.843-4.864,17.929-9.566
				c-1.07,0.443-2.14,0.886-3.21,1.33c11.372,0,20.879,10.042,29.344,16.6c8.656,6.705,16.202,14.714,23.822,22.525
				c6.072,6.224,9.546,16.072,17.604,20.021C269.286,125.103,273.89,117.274,268.632,114.698z"/>
		</g>
	</g>
	<path opacity="0.2" clip-path="url(#SVGID_4_)" fill="#323B49" stroke="#323B49" stroke-width="2" stroke-miterlimit="10" d="
		M239.722,140.316l28.199-26.947l-3.455-3.615l-26.857,25.665h-6.391c-2.787-7.08-13.661-12.22-27.033-12.22
		c-12.666,0-23.095,4.61-26.53,11.113c-6.172-4.092-16.554-3.838-22.985-0.084c-3.48-6.458-13.874-11.028-26.485-11.028
		c-13.995,0-25.256,5.628-27.372,13.22h-6.507l-26.857-25.665l-3.454,3.615l27.727,26.496v0.553h9.034
		c1.971,7.693,13.311,13.421,27.429,13.421c15.552,0,27.734-6.949,27.734-15.82c0-0.35-0.026-0.696-0.063-1.04
		c5.329-3.555,15.927-4.137,20.644,0.11c-0.03,0.308-0.049,0.617-0.049,0.93c0,8.871,12.183,15.82,27.734,15.82
		c14.723,0,26.42-6.23,27.625-14.421h7.912V140.316z M128.184,150.839c-12.865,0-23.734-5.413-23.734-11.82
		s10.869-11.82,23.734-11.82c11.329,0,21.105,4.198,23.28,9.575c-0.832,0.99-0.407,2.22,0.424,2.819
		C151.263,145.745,140.663,150.839,128.184,150.839z M204.184,150.839c-12.255,0-22.692-4.913-23.654-10.917
		c0.703-0.508,1.071-1.412,0.447-2.354c-0.076-0.115-0.163-0.222-0.243-0.333c1.787-5.597,11.8-10.036,23.451-10.036
		c12.865,0,23.734,5.413,23.734,11.82S217.05,150.839,204.184,150.839z"/>
	<g clip-path="url(#SVGID_4_)">
		<path fill="#E44E7E" d="M129.184,153.839c-15.552,0-27.734-6.949-27.734-15.82s12.183-15.82,27.734-15.82
			s27.734,6.949,27.734,15.82S144.736,153.839,129.184,153.839z M129.184,126.198c-12.865,0-23.734,5.413-23.734,11.82
			s10.869,11.82,23.734,11.82s23.734-5.413,23.734-11.82S142.05,126.198,129.184,126.198z"/>
		<path fill="#E44E7E" d="M205.184,153.839c-15.552,0-27.734-6.949-27.734-15.82s12.183-15.82,27.734-15.82
			s27.734,6.949,27.734,15.82S220.736,153.839,205.184,153.839z M205.184,126.198c-12.865,0-23.734,5.413-23.734,11.82
			s10.869,11.82,23.734,11.82s23.734-5.413,23.734-11.82S218.05,126.198,205.184,126.198z"/>
		<path fill="#E44E7E" d="M181.977,136.567c-5.576-8.419-22.905-7.938-29.449-0.879c-1.654,1.784,1.012,4.464,2.673,2.673
			c4.772-5.148,19.311-6.229,23.512,0.114C180.052,140.497,183.327,138.606,181.977,136.567L181.977,136.567z"/>
		<rect x="230.722" y="134.418" fill="#E44E7E" width="10" height="5"/>
		
			<rect x="250.571" y="104.523" transform="matrix(0.6909 0.7229 -0.7229 0.6909 167.9058 -144.6112)" fill="#E44E7E" width="5.001" height="39.065"/>
		<rect x="92.722" y="135.418" fill="#E44E7E" width="10" height="5"/>
		
			<rect x="61.31" y="122.555" transform="matrix(0.723 0.6909 -0.6909 0.723 108.7934 -21.2089)" fill="#E44E7E" width="39.065" height="5"/>
	</g>
	<g clip-path="url(#SVGID_4_)">
		<path fill="#F1B593" d="M266.341,113.618c-4.648-1.992-5.977-5.312-8.633-9.297c-2.656-3.984-5.976-7.969-9.297-11.289
			c-7.305-7.969-14.609-14.827-22.578-21.467c-2.656-1.992-18.012-16.147-29.218-18.147h-3.336c-4.648,5-12.617,7.522-18.594,9.514
			c-9.297,3.984-19.922,6.715-29.883,7.38c-9.961,0-17.265-2.894-25.234-7.894c-0.664,0-0.664,0-1.328,0
			c3.32-1,9.961-3.951,9.961-7.935c-5.976,1.328-11.289,0.681-16.601,4.001c-7.305,4.648-12.617,11.961-17.265,18.602
			c-5.312,7.305-10.625,13.949-16.601,20.59c-3.984,3.984-11.953,11.955-12.617,17.932L57.685,84.73l6.539-9.313
			c0,0,46.497-47.753,47.497-48.377c1-0.623,122.333-23.623,122.667-22.29s20.367,32.667,18.683,36.667
			C251.388,45.418,266.341,113.618,266.341,113.618z"/>
		<g>
			<path fill="#F1B593" d="M267.205,112.139c-3.485-1.708-5.256-4.32-7.257-7.508c-2.286-3.642-4.998-6.994-7.846-10.206
				c-6.445-7.267-13.565-13.973-20.897-20.331c-8.642-7.494-17.928-15.905-28.642-20.206c-2.144-0.861-8.24-3.331-10.495-1.246
				c-6.467,5.979-16.065,8.429-24.211,11.309c-9.128,3.227-19.55,5.705-29.233,4.327c-4.425-0.63-8.64-2.3-12.634-4.236
				c-2.599-1.26-4.804-3.268-7.75-3.268c0.152,1.121,0.303,2.242,0.455,3.363c4.261-1.715,10.44-3.93,11.157-9.165
				c0.181-1.321-0.719-2.379-2.106-2.106c-7.318,1.439-13.912,1.389-20.005,6.286c-6.488,5.214-11.081,11.881-15.947,18.531
				c-5.438,7.431-11.254,14.646-17.691,21.236c-4.364,4.468-9.506,9.86-10.638,16.236c1.101,0,2.201,0,3.302,0
				c-1.316-5.468-2.632-10.936-3.948-16.404c-0.831-3.451-1.661-6.902-2.492-10.353c-0.256-1.062-0.511-2.124-0.767-3.186
				c-0.454-1.885-0.806,0.965,0.087-0.306c2.623-3.736,4.712-7.174,7.352-9.884c4.072-4.179,8.145-8.357,12.221-12.533
				c10.261-10.514,20.495-21.06,30.868-31.464c0.899-0.901,1.786-1.824,2.729-2.679c-0.865,0.785,0.433,0.078,1.249-0.096
				c3.9-0.829,7.818-1.579,11.732-2.343c29.532-5.761,59.115-11.321,88.759-16.478c5.015-0.872,10.033-1.736,15.067-2.493
				c1.229-0.185,2.46-0.365,3.697-0.483c0.292-0.028,0.585-0.05,0.879-0.041c-1.269-0.038-1.822-1.661-0.761,0.238
				c3.412,6.108,7.163,12.026,10.598,18.123c1.9,3.371,3.734,6.783,5.392,10.28c0.808,1.705,2.32,4.252,1.911,6.207
				c-0.858,4.101,0.743,9.364,1.408,13.383c1.348,8.14,2.952,16.239,4.573,24.328c2.348,11.722,4.808,23.424,7.367,35.102
				c0.473,2.157,3.774,1.242,3.302-0.91c-2.34-10.681-4.586-21.383-6.761-32.098c-1.623-7.996-3.196-16.004-4.614-24.039
				c-0.849-4.81-2.123-9.961-1.955-14.878c0.148-4.352-2.146-8.723-4.281-12.865c-3.689-7.157-7.878-14.054-11.994-20.969
				c-1.311-2.202-2.061-5.506-4.87-5.302c-3.293,0.24-6.587,0.886-9.84,1.416c-29.367,4.785-58.608,10.46-87.828,16.06
				c-8.109,1.554-16.455,2.729-24.441,4.855c-2.287,0.609-4.671,4.193-6.221,5.758c-5.115,5.165-10.198,10.361-15.283,15.556
				c-6.717,6.862-13.424,13.735-20.128,20.61c-3.076,3.155-6.196,6.098-8.726,9.701c-1.192,1.697-5.572,5.908-5.016,8.218
				c0.642,2.669,1.284,5.337,1.927,8.006c1.835,7.624,3.67,15.249,5.504,22.873c0.381,1.582,3.001,1.696,3.302,0
				c1.107-6.234,6.369-11.257,10.623-15.612c5.114-5.235,9.694-10.989,14.16-16.78c4.925-6.386,9.222-13.204,14.955-18.927
				c3.26-3.254,6.894-5.762,11.377-6.923c3.492-0.905,7.227-0.958,10.774-1.655c-0.702-0.702-1.404-1.404-2.106-2.106
				c-0.523,3.818-5.653,5.52-8.765,6.773c-1.705,0.686-1.607,3.363,0.455,3.363c2.677,0,6.327,2.982,8.799,4.104
				c3.419,1.552,6.988,2.599,10.675,3.278c8.083,1.488,16.579-0.309,24.418-2.312c7.332-1.873,14.835-4.66,21.781-7.672
				c3.442-1.492,6.6-3.221,9.532-5.567c1.333-1.067,4.137-0.258,5.962,0.308c11.599,3.599,21.719,13.539,30.739,21.36
				c7.347,6.371,14.303,13.251,20.755,20.525c4.875,5.496,7.714,13.51,14.576,16.873
				C267.452,116.064,269.188,113.111,267.205,112.139z"/>
		</g>
	</g>
</g>
<path opacity="0.2" fill="#323B49" d="M135.674,236.403c0,0,21.247,6.192,40.397,4.187c0,0-12.016,7.328-41.183,1.995
	L135.674,236.403z"/>
</svg>
