<?xml version="1.0" encoding="utf-8"?>
<!-- Generator: Adobe Illustrator 17.0.0, SVG Export Plug-In . SVG Version: 6.00 Build 0)  -->
<!DOCTYPE svg PUBLIC "-//W3C//DTD SVG 1.1//EN" "http://www.w3.org/Graphics/SVG/1.1/DTD/svg11.dtd">
<svg version="1.1" id="Calque_1" xmlns="http://www.w3.org/2000/svg" xmlns:xlink="http://www.w3.org/1999/xlink" x="0px" y="0px"
	 width="678.068px" height="495.049px" viewBox="0 0 678.068 495.049" enable-background="new 0 0 678.068 495.049"
	 xml:space="preserve">
<circle fill="none" stroke="#000000" stroke-width="10" stroke-linecap="round" stroke-linejoin="round" stroke-miterlimit="10" cx="334.323" cy="129.788" r="106.606"/>
<polyline fill="none" stroke="#000000" stroke-width="10" stroke-linecap="round" stroke-linejoin="round" stroke-miterlimit="10" points="
	392.684,219.717 372.428,361.203 304.157,361.203 283.786,224.769 "/>
<circle fill="#000000" cx="99.72" cy="444.235" r="28.336"/>
<circle fill="#000000" cx="568.956" cy="444.235" r="28.336"/>
<path fill="#FFFFFF" stroke="#000000" stroke-width="10" stroke-linecap="round" stroke-linejoin="round" stroke-miterlimit="10" d="
	M613.532,360.203h-47.316v-69h-40v69h-367v-69h-40v69H80.465c-18.305,0-34.249,10.69-34.249,24.45v10.381
	c0,13.76,15.944,25.168,34.249,25.168h533.066c18.305,0,33.684-11.408,33.684-25.168v-10.381
	C647.216,370.893,631.837,360.203,613.532,360.203z"/>
<line fill="none" stroke="#000045" stroke-width="2" stroke-linecap="round" stroke-linejoin="round" stroke-miterlimit="10" x1="334.216" y1="35.203" x2="334.216" y2="47.203"/>
<line fill="none" stroke="#000045" stroke-width="2" stroke-linecap="round" stroke-linejoin="round" stroke-miterlimit="10" x1="334.216" y1="213.203" x2="334.216" y2="225.203"/>
<line fill="none" stroke="#000045" stroke-width="2" stroke-linecap="round" stroke-linejoin="round" stroke-miterlimit="10" x1="401.391" y1="63.028" x2="392.906" y2="71.514"/>
<line fill="none" stroke="#000045" stroke-width="2" stroke-linecap="round" stroke-linejoin="round" stroke-miterlimit="10" x1="275.526" y1="188.893" x2="267.041" y2="197.379"/>
<line fill="none" stroke="#000045" stroke-width="2" stroke-linecap="round" stroke-linejoin="round" stroke-miterlimit="10" x1="431.216" y1="130.203" x2="419.216" y2="130.203"/>
<line fill="none" stroke="#000045" stroke-width="2" stroke-linecap="round" stroke-linejoin="round" stroke-miterlimit="10" x1="253.216" y1="130.203" x2="241.216" y2="130.203"/>
<line fill="none" stroke="#000045" stroke-width="2" stroke-linecap="round" stroke-linejoin="round" stroke-miterlimit="10" x1="403.391" y1="197.379" x2="394.906" y2="188.893"/>
<line fill="none" stroke="#000045" stroke-width="2" stroke-linecap="round" stroke-linejoin="round" stroke-miterlimit="10" x1="277.526" y1="71.514" x2="269.041" y2="63.028"/>
<line fill="none" stroke="#000045" stroke-width="2" stroke-linecap="round" stroke-linejoin="round" stroke-miterlimit="10" x1="371.083" y1="41.811" x2="366.446" y2="52.878"/>
<line fill="none" stroke="#000045" stroke-width="2" stroke-linecap="round" stroke-linejoin="round" stroke-miterlimit="10" x1="302.297" y1="205.983" x2="297.66" y2="217.05"/>
<line fill="none" stroke="#000045" stroke-width="2" stroke-linecap="round" stroke-linejoin="round" stroke-miterlimit="10" x1="422.287" y1="93.433" x2="411.182" y2="97.98"/>
<line fill="none" stroke="#000045" stroke-width="2" stroke-linecap="round" stroke-linejoin="round" stroke-miterlimit="10" x1="257.561" y1="160.881" x2="246.456" y2="165.428"/>
<line fill="none" stroke="#000045" stroke-width="2" stroke-linecap="round" stroke-linejoin="round" stroke-miterlimit="10" x1="423.836" y1="166.915" x2="412.768" y2="162.278"/>
<line fill="none" stroke="#000045" stroke-width="2" stroke-linecap="round" stroke-linejoin="round" stroke-miterlimit="10" x1="259.664" y1="98.129" x2="248.596" y2="93.492"/>
<line fill="none" stroke="#000045" stroke-width="2" stroke-linecap="round" stroke-linejoin="round" stroke-miterlimit="10" x1="372.213" y1="218.119" x2="367.666" y2="207.014"/>
<line fill="none" stroke="#000045" stroke-width="2" stroke-linecap="round" stroke-linejoin="round" stroke-miterlimit="10" x1="304.766" y1="53.393" x2="300.219" y2="42.288"/>
<line fill="#FFFFFF" stroke="#000000" stroke-width="10" stroke-linecap="round" stroke-linejoin="round" stroke-miterlimit="10" x1="100.216" y1="360.203" x2="195.216" y2="360.203"/>
<line fill="#FFFFFF" stroke="#000000" stroke-width="10" stroke-linecap="round" stroke-linejoin="round" stroke-miterlimit="10" x1="474.216" y1="360.203" x2="590.216" y2="360.203"/>
</svg>
