<?xml version="1.0" encoding="utf-8"?>
<!-- Generator: Adobe Illustrator 17.0.0, SVG Export Plug-In . SVG Version: 6.00 Build 0)  -->
<!DOCTYPE svg PUBLIC "-//W3C//DTD SVG 1.0//EN" "http://www.w3.org/TR/2001/REC-SVG-20010904/DTD/svg10.dtd">
<svg version="1.0" id="Calque_1" xmlns="http://www.w3.org/2000/svg" xmlns:xlink="http://www.w3.org/1999/xlink" x="0px" y="0px"
	 width="852.84px" height="607.202px" viewBox="0 0 852.84 607.202" enable-background="new 0 0 852.84 607.202"
	 xml:space="preserve">
<path fill="#002CE6" d="M550,22.217H310c-154.64,0-280,125.36-280,280s125.36,280,280,280h240c154.64,0,280-125.36,280-280
	S704.64,22.217,550,22.217z M550,502.217c-110.44,0-200-89.56-200-200s89.56-200,200-200s200,89.56,200,200
	S660.44,502.217,550,502.217z"/>
<path fill="#002CE6" d="M640-600.752c0-6.101-4.945-11.046-11.046-11.046H441.046c-6.101,0-11.046,4.945-11.046,11.046v237.908
	c0,6.101,4.945,11.046,11.046,11.046h187.908c6.101,0,11.046-4.945,11.046-11.046V-600.752z M628-375.081
	c0,4.688-4.349,9.283-9.715,9.283H453.028c-5.365,0-10.028-4.595-10.028-9.283v-184.394c0-4.688,4.662-8.323,10.028-8.323h165.258
	c5.365,0,9.715,3.635,9.715,8.323V-375.081z"/>
</svg>
