<?xml version="1.0" encoding="utf-8"?>
<!-- Generator: Adobe Illustrator 17.0.0, SVG Export Plug-In . SVG Version: 6.00 Build 0)  -->
<!DOCTYPE svg PUBLIC "-//W3C//DTD SVG 1.0//EN" "http://www.w3.org/TR/2001/REC-SVG-20010904/DTD/svg10.dtd">
<svg version="1.0" xmlns="http://www.w3.org/2000/svg" xmlns:xlink="http://www.w3.org/1999/xlink" x="0px" y="0px" width="1280px"
	 height="800px" viewBox="0 0 1280 800" enable-background="new 0 0 1280 800" xml:space="preserve">
<g id="elements">
	
		<line fill="none" stroke="#000045" stroke-width="3" stroke-linecap="round" stroke-linejoin="round" stroke-miterlimit="10" x1="204.833" y1="130.225" x2="214.833" y2="130.225"/>
	
		<line fill="none" stroke="#000045" stroke-width="3" stroke-linecap="round" stroke-linejoin="round" stroke-miterlimit="10" x1="209.333" y1="124.725" x2="209.333" y2="134.725"/>
	<circle fill="#000045" cx="196" cy="120.558" r="3"/>
	<circle fill="none" stroke="#000045" stroke-width="2" stroke-miterlimit="10" cx="218" cy="111.558" r="6"/>
	<circle fill="none" stroke="#000045" stroke-width="2" stroke-miterlimit="10" cx="147.102" cy="345.681" r="6"/>
	<circle fill="none" stroke="#000045" stroke-width="2" stroke-miterlimit="10" cx="1160.048" cy="718.865" r="6"/>
	<circle fill="#000045" cx="1157.024" cy="703.182" r="3.024"/>
	
		<line fill="none" stroke="#000045" stroke-width="3" stroke-linecap="round" stroke-linejoin="round" stroke-miterlimit="10" x1="1083.328" y1="281.526" x2="1083.323" y2="287.841"/>
	
		<line fill="none" stroke="#000045" stroke-width="3" stroke-linecap="round" stroke-linejoin="round" stroke-miterlimit="10" x1="1086.798" y1="285.002" x2="1079.852" y2="284.996"/>
	<circle fill="#000045" cx="1071.912" cy="281.924" r="1.263"/>
	<circle fill="none" stroke="#000045" stroke-width="2" stroke-miterlimit="10" cx="1074.438" cy="272.452" r="4.696"/>
	
		<line fill="none" stroke="#000045" stroke-width="3" stroke-linecap="round" stroke-linejoin="round" stroke-miterlimit="10" x1="156.5" y1="357" x2="156.5" y2="366"/>
	
		<line fill="none" stroke="#000045" stroke-width="3" stroke-linecap="round" stroke-linejoin="round" stroke-miterlimit="10" x1="152" y1="361.5" x2="161" y2="361.5"/>
	
		<line fill="none" stroke="#000045" stroke-width="3" stroke-linecap="round" stroke-linejoin="round" stroke-miterlimit="10" x1="1149.5" y1="706" x2="1149.5" y2="715"/>
	
		<line fill="none" stroke="#000045" stroke-width="3" stroke-linecap="round" stroke-linejoin="round" stroke-miterlimit="10" x1="1145" y1="710.5" x2="1154" y2="710.5"/>
	<polygon fill="none" stroke="#000045" stroke-width="3" stroke-miterlimit="10" points="65.354,461.238 58.808,453.192 65,445.5 
		71.546,453.546 	"/>
	<polygon fill="none" stroke="#000045" stroke-width="3" stroke-miterlimit="10" points="1207.354,597.238 1200.808,589.192 
		1207,581.5 1213.546,589.546 	"/>
</g>
<g id="traits">
	
		<line fill="none" stroke="#000045" stroke-width="3" stroke-linecap="round" stroke-linejoin="round" stroke-miterlimit="10" x1="986.633" y1="94.106" x2="991.633" y2="94.106"/>
	
		<line fill="none" stroke="#000045" stroke-width="3" stroke-linecap="round" stroke-linejoin="round" stroke-miterlimit="10" x1="999.3" y1="94.106" x2="1103.034" y2="94.106"/>
	
		<line fill="none" stroke="#000045" stroke-width="3" stroke-linecap="round" stroke-linejoin="round" stroke-miterlimit="10" x1="1045.75" y1="69.559" x2="1068.788" y2="69.559"/>
	
		<line fill="none" stroke="#000045" stroke-width="3" stroke-linecap="round" stroke-linejoin="round" stroke-miterlimit="10" x1="1083.667" y1="69.559" x2="1280" y2="69.559"/>
	
		<line fill="none" stroke="#000045" stroke-width="3" stroke-linecap="round" stroke-linejoin="round" stroke-miterlimit="10" x1="77.437" y1="777.015" x2="90.25" y2="777.015"/>
	
		<line fill="none" stroke="#000045" stroke-width="3" stroke-linecap="round" stroke-linejoin="round" stroke-miterlimit="10" x1="0" y1="777.015" x2="69.585" y2="777.015"/>
	
		<line fill="none" stroke="#000045" stroke-width="3" stroke-linecap="round" stroke-linejoin="round" stroke-miterlimit="10" x1="254.411" y1="752.469" x2="257.048" y2="752.469"/>
	
		<line fill="none" stroke="#000045" stroke-width="3" stroke-linecap="round" stroke-linejoin="round" stroke-miterlimit="10" x1="43.007" y1="752.469" x2="246.552" y2="752.469"/>
</g>
<g id="nuages">
	
		<line fill="none" stroke="#002CE6" stroke-width="3" stroke-linecap="round" stroke-linejoin="round" stroke-miterlimit="10" x1="34.757" y1="142.479" x2="71.334" y2="142.479"/>
	<path fill="none" stroke="#002CE6" stroke-width="3" stroke-linecap="round" stroke-linejoin="round" stroke-miterlimit="10" d="
		M110.553,142.464c0-10.83-8.78-19.609-19.609-19.609s-19.609,8.779-19.609,19.609"/>
	<path fill="none" stroke="#002CE6" stroke-width="3" stroke-linecap="round" stroke-linejoin="round" stroke-miterlimit="10" d="
		M110.742,142.347c0-6.72,5.339-12.102,12.06-12.102c6.72,0,12.06,5.702,12.06,12.234h12.239"/>
	<path fill="none" stroke="#002CE6" stroke-width="3" stroke-linecap="round" stroke-linejoin="round" stroke-miterlimit="10" d="
		M118.717,566.771h8.339l-0.193-1.414c0-9.325,7.56-16.885,16.885-16.885s16.815,7.56,16.815,16.885"/>
	<path fill="none" stroke="#002CE6" stroke-width="3" stroke-linecap="round" stroke-linejoin="round" stroke-miterlimit="10" d="
		M192.102,565.103h-10.539c0-5.004-4.597-10.467-10.384-10.467s-10.384,4.7-10.384,10.487l-0.215-1.014"/>
	
		<line fill="none" stroke="#002CE6" stroke-width="3" stroke-linecap="round" stroke-linejoin="round" stroke-miterlimit="10" x1="28.225" y1="142.479" x2="23" y2="142.479"/>
	
		<line fill="none" stroke="#002CE6" stroke-width="3" stroke-linecap="round" stroke-linejoin="round" stroke-miterlimit="10" x1="825.5" y1="69.559" x2="841.5" y2="69.559"/>
	<path fill="none" stroke="#002CE6" stroke-width="3" stroke-linecap="round" stroke-linejoin="round" stroke-miterlimit="10" d="
		M859.409,69.552c0-4.813-3.902-8.715-8.715-8.715c-4.813,0-8.715,3.902-8.715,8.715"/>
	
		<line fill="none" stroke="#002CE6" stroke-width="3" stroke-linecap="round" stroke-linejoin="round" stroke-miterlimit="10" x1="859.5" y1="69.559" x2="864.5" y2="69.559"/>
	
		<line fill="none" stroke="#002CE6" stroke-width="3" stroke-linecap="round" stroke-linejoin="round" stroke-miterlimit="10" x1="822.5" y1="69.559" x2="819.5" y2="69.559"/>
	
		<line fill="none" stroke="#002CE6" stroke-width="2" stroke-linecap="round" stroke-linejoin="round" stroke-miterlimit="10" x1="999.5" y1="723.226" x2="1015.5" y2="723.226"/>
	<path fill="none" stroke="#002CE6" stroke-width="2" stroke-linecap="round" stroke-linejoin="round" stroke-miterlimit="10" d="
		M1033.409,723.219c0-4.813-3.902-8.715-8.715-8.715s-8.715,3.902-8.715,8.715"/>
	
		<line fill="none" stroke="#002CE6" stroke-width="2" stroke-linecap="round" stroke-linejoin="round" stroke-miterlimit="10" x1="1033.5" y1="723.226" x2="1038.5" y2="723.226"/>
	
		<line fill="none" stroke="#002CE6" stroke-width="2" stroke-linecap="round" stroke-linejoin="round" stroke-miterlimit="10" x1="996.5" y1="723.226" x2="993.5" y2="723.226"/>
	
		<line fill="none" stroke="#002CE6" stroke-width="3" stroke-linecap="round" stroke-linejoin="round" stroke-miterlimit="10" x1="1104.281" y1="298.478" x2="1139.697" y2="298.478"/>
	<path fill="none" stroke="#002CE6" stroke-width="3" stroke-linecap="round" stroke-linejoin="round" stroke-miterlimit="10" d="
		M1179.338,298.462c0-10.654-8.637-19.291-19.291-19.291c-10.654,0-19.291,8.637-19.291,19.291"/>
	<path fill="none" stroke="#002CE6" stroke-width="3" stroke-linecap="round" stroke-linejoin="round" stroke-miterlimit="10" d="
		M1200.134,298.462c0-5.394-4.372-9.766-9.766-9.766s-9.766,4.372-9.766,9.766"/>
	<path fill="none" stroke="#002CE6" stroke-width="3" stroke-linecap="round" stroke-linejoin="round" stroke-miterlimit="10" d="
		M1212.937,298.462c0-3.429-2.778-6.207-6.207-6.207s-6.207,2.778-6.207,6.207"/>
	
		<line fill="none" stroke="#002CE6" stroke-width="3" stroke-linecap="round" stroke-linejoin="round" stroke-miterlimit="10" x1="1213.479" y1="298.462" x2="1221.596" y2="298.478"/>
	
		<line fill="none" stroke="#002CE6" stroke-width="3" stroke-linecap="round" stroke-linejoin="round" stroke-miterlimit="10" x1="1097.641" y1="298.478" x2="1091" y2="298.478"/>
	
		<line fill="none" stroke="#002CE6" stroke-width="3" stroke-linecap="round" stroke-linejoin="round" stroke-miterlimit="10" x1="113.713" y1="566.771" x2="112.045" y2="566.771"/>
	<path fill="none" stroke="#002CE6" stroke-width="3" stroke-linecap="round" stroke-linejoin="round" stroke-miterlimit="10" d="
		M1214.951,654.635c0-9.325,7.56-16.885,16.885-16.885c9.325,0,16.815,7.56,16.815,16.885"/>
	<path fill="none" stroke="#002CE6" stroke-width="3" stroke-linecap="round" stroke-linejoin="round" stroke-miterlimit="10" d="
		M1206.805,656.05"/>
	<path fill="none" stroke="#002CE6" stroke-width="3" stroke-linecap="round" stroke-linejoin="round" stroke-miterlimit="10" d="
		M1281.19,655.382h-10.539c0-5.004-4.485-11.467-11.384-11.467c-5.787,0-10.384,4.7-10.384,10.487l-0.215-1.014"/>
	<path fill="none" stroke="#002CE6" stroke-width="3" stroke-linecap="round" stroke-linejoin="round" stroke-miterlimit="10" d="
		M1214.951,655.03h-10.539c0-4.003-4.597-9.467-10.384-9.467c-5.787,0-10.384,4.7-10.384,10.487"/>
	
		<line fill="none" stroke="#002CE6" stroke-width="3" stroke-linecap="round" stroke-linejoin="round" stroke-miterlimit="10" x1="1178.119" y1="656.05" x2="1176.451" y2="656.05"/>
</g>
</svg>
