<?xml version="1.0" encoding="utf-8"?>
<!-- Generator: Adobe Illustrator 17.0.0, SVG Export Plug-In . SVG Version: 6.00 Build 0)  -->
<!DOCTYPE svg PUBLIC "-//W3C//DTD SVG 1.0//EN" "http://www.w3.org/TR/2001/REC-SVG-20010904/DTD/svg10.dtd">
<svg version="1.0" id="Calque_1" xmlns="http://www.w3.org/2000/svg" xmlns:xlink="http://www.w3.org/1999/xlink" x="0px" y="0px"
	 width="188.667px" height="52.667px" viewBox="0 0 188.667 52.667" enable-background="new 0 0 188.667 52.667"
	 xml:space="preserve">
<g>
	<rect x="83" y="16.667" fill="#FFFFFF" width="42" height="24"/>
	<path fill="#000045" d="M125,41.667H83c-0.552,0-1-0.447-1-1v-24c0-0.552,0.448-1,1-1h42c0.552,0,1,0.448,1,1v24
		C126,41.219,125.552,41.667,125,41.667z M84,39.667h40v-22H84V39.667z"/>
</g>
<path fill="#FFFFFF" stroke="#000045" stroke-width="2" stroke-linecap="round" stroke-linejoin="round" stroke-miterlimit="10" d="
	M125.216,38.381c1.518-0.262,5.569,1.299,6.191,1.541c1.838,0.715,21.306,0.04,21.306,0.04c1.519,0,2.75-1.553,2.75-3.198
	c0-0.795-0.292-0.098-0.76-2.098h0.211c1.519,0,2.75-1.355,2.75-3s-1.231-3-2.75-3h2.2c1.519,0,2.75-1.905,2.75-3.55
	c0-0.795-0.292-0.45-0.76-2.45h6.81c1.519,0,2.75-1.108,2.75-3c0-1.892-1.231-3-2.75-3H144.89c0.866-1,1.625-1.918,3.423-2.467
	c2.704-0.825,1.927-3.095,1.1-3.962c-0.506-0.53-2.2-0.571-2.2-0.571c-0.438,0-1.492,0-3.85,0c-5.683,0-8.203,1.766-10.77,3.966
	c-2.567,2.2-7.104,7.253-7.104,7.253l-0.047,8.595L125.216,38.381z"/>
<line fill="none" stroke="#000045" stroke-width="2" stroke-linecap="round" stroke-linejoin="round" stroke-miterlimit="10" x1="149" y1="34.667" x2="154" y2="34.667"/>
<line fill="none" stroke="#000045" stroke-width="2" stroke-linecap="round" stroke-linejoin="round" stroke-miterlimit="10" x1="149" y1="28.667" x2="154" y2="28.667"/>
<line fill="none" stroke="#000045" stroke-width="2" stroke-linecap="round" stroke-linejoin="round" stroke-miterlimit="10" x1="153" y1="22.667" x2="160" y2="22.667"/>
<line fill="none" stroke="#002CE6" stroke-width="3" stroke-linecap="round" stroke-linejoin="round" stroke-miterlimit="10" x1="75" y1="24.167" x2="52" y2="24.167"/>
<line fill="none" stroke="#002CE6" stroke-width="3" stroke-linecap="round" stroke-linejoin="round" stroke-miterlimit="10" x1="47" y1="24.167" x2="45" y2="24.167"/>
<line fill="none" stroke="#002CE6" stroke-width="3" stroke-linecap="round" stroke-linejoin="round" stroke-miterlimit="10" x1="63" y1="32.167" x2="17" y2="32.167"/>
<line fill="none" stroke="#002CE6" stroke-width="3" stroke-linecap="round" stroke-linejoin="round" stroke-miterlimit="10" x1="12" y1="32.167" x2="10" y2="32.167"/>
<line fill="none" stroke="#002CE6" stroke-width="2" stroke-linecap="round" stroke-linejoin="round" stroke-miterlimit="10" x1="88" y1="36.667" x2="99" y2="36.667"/>
<line fill="none" stroke="#002CE6" stroke-width="2" stroke-linecap="round" stroke-linejoin="round" stroke-miterlimit="10" x1="102" y1="36.667" x2="104" y2="36.667"/>
</svg>
