<?xml version="1.0" encoding="utf-8"?>
<!-- Generator: Adobe Illustrator 17.0.0, SVG Export Plug-In . SVG Version: 6.00 Build 0)  -->
<!DOCTYPE svg PUBLIC "-//W3C//DTD SVG 1.0//EN" "http://www.w3.org/TR/2001/REC-SVG-20010904/DTD/svg10.dtd">
<svg version="1.0" id="Calque_1" xmlns="http://www.w3.org/2000/svg" xmlns:xlink="http://www.w3.org/1999/xlink" x="0px" y="0px"
	 width="927.273px" height="359.091px" viewBox="0 0 927.273 359.091" enable-background="new 0 0 927.273 359.091"
	 xml:space="preserve">
<path fill="none" stroke="#002CE6" stroke-width="2" stroke-linecap="round" stroke-linejoin="round" stroke-miterlimit="10" d="
	M882.955,104.545h-2.413c-11.685,0-13.254,7.4-13.254,10h13.228h1.794h7.427h19.701h8.52c0-2.6,1.401-9-5.661-9h-4.512
	c-0.217-1-1.303-3-2.613-3h-2.347c-0.006,0-0.008,0.056-0.015-0.006c-0.378-2.991-2.797-5.615-11.343-5.615
	c-7.692,0-8.683,7.382-8.683,7.382"/>
<line fill="none" stroke="#002CE6" stroke-linecap="round" stroke-linejoin="round" stroke-miterlimit="10" x1="880.955" y1="97.045" x2="850.955" y2="97.045"/>
<line fill="none" stroke="#002CE6" stroke-linecap="round" stroke-linejoin="round" stroke-miterlimit="10" x1="871.955" y1="103.045" x2="848.955" y2="103.045"/>
<line fill="none" stroke="#002CE6" stroke-linecap="round" stroke-linejoin="round" stroke-miterlimit="10" x1="844.955" y1="97.045" x2="839.955" y2="97.045"/>
<line fill="none" stroke="#002CE6" stroke-linecap="round" stroke-linejoin="round" stroke-miterlimit="10" x1="862.955" y1="111.045" x2="857.955" y2="111.045"/>
<line fill="none" stroke="#002CE6" stroke-width="2" stroke-linecap="round" stroke-linejoin="round" stroke-miterlimit="10" x1="290.955" y1="22.545" x2="318.955" y2="22.545"/>
<path fill="none" stroke="#002CE6" stroke-width="2" stroke-linecap="round" stroke-linejoin="round" stroke-miterlimit="10" d="
	M348.977,22.534c0-8.29-6.721-15.011-15.011-15.011s-15.011,6.721-15.011,15.011"/>
<path fill="none" stroke="#002CE6" stroke-width="2" stroke-linecap="round" stroke-linejoin="round" stroke-miterlimit="10" d="
	M349.121,22.444c0-5.144,4.087-9.264,9.232-9.264s9.232,4.365,9.232,9.365h9.37"/>
<path fill="none" stroke="#002CE6" stroke-width="2" stroke-linecap="round" stroke-linejoin="round" stroke-miterlimit="10" d="
	M247.955,346.545h5l-0.116-0.848c0-5.591,4.533-10.124,10.124-10.124s10.082,4.533,10.082,10.124"/>
<path fill="none" stroke="#002CE6" stroke-width="2" stroke-linecap="round" stroke-linejoin="round" stroke-miterlimit="10" d="
	M291.955,345.545h-6.319c0-3-2.756-6.276-6.226-6.276c-3.47,0-6.226,2.818-6.226,6.288l-0.129-0.608"/>
<line fill="none" stroke="#002CE6" stroke-width="2" stroke-linecap="round" stroke-linejoin="round" stroke-miterlimit="10" x1="285.955" y1="22.545" x2="281.955" y2="22.545"/>
<line fill="none" stroke="#002CE6" stroke-width="2" stroke-linecap="round" stroke-linejoin="round" stroke-miterlimit="10" x1="753.955" y1="25.545" x2="769.955" y2="25.545"/>
<path fill="none" stroke="#002CE6" stroke-width="2" stroke-linecap="round" stroke-linejoin="round" stroke-miterlimit="10" d="
	M787.864,25.539c0-4.813-3.902-8.715-8.715-8.715c-4.813,0-8.715,3.902-8.715,8.715"/>
<line fill="none" stroke="#002CE6" stroke-width="2" stroke-linecap="round" stroke-linejoin="round" stroke-miterlimit="10" x1="787.955" y1="25.545" x2="792.955" y2="25.545"/>
<line fill="none" stroke="#002CE6" stroke-width="2" stroke-linecap="round" stroke-linejoin="round" stroke-miterlimit="10" x1="750.955" y1="25.545" x2="747.955" y2="25.545"/>
<line fill="none" stroke="#002CE6" stroke-width="2" stroke-linecap="round" stroke-linejoin="round" stroke-miterlimit="10" x1="12.955" y1="140.545" x2="28.955" y2="140.545"/>
<path fill="none" stroke="#002CE6" stroke-width="2" stroke-linecap="round" stroke-linejoin="round" stroke-miterlimit="10" d="
	M46.864,140.539c0-4.813-3.902-8.715-8.715-8.715s-8.715,3.902-8.715,8.715"/>
<line fill="none" stroke="#002CE6" stroke-width="2" stroke-linecap="round" stroke-linejoin="round" stroke-miterlimit="10" x1="46.955" y1="140.545" x2="51.955" y2="140.545"/>
<line fill="none" stroke="#002CE6" stroke-width="2" stroke-linecap="round" stroke-linejoin="round" stroke-miterlimit="10" x1="9.955" y1="140.545" x2="6.955" y2="140.545"/>
<line fill="none" stroke="#002CE6" stroke-width="2" stroke-linecap="round" stroke-linejoin="round" stroke-miterlimit="10" x1="478.955" y1="137.545" x2="494.955" y2="137.545"/>
<path fill="none" stroke="#002CE6" stroke-width="2" stroke-linecap="round" stroke-linejoin="round" stroke-miterlimit="10" d="
	M512.864,137.539c0-4.813-3.902-8.715-8.715-8.715s-8.715,3.902-8.715,8.715"/>
<path fill="none" stroke="#002CE6" stroke-width="2" stroke-linecap="round" stroke-linejoin="round" stroke-miterlimit="10" d="
	M522.258,137.539c0-2.437-1.975-4.412-4.412-4.412s-4.412,1.975-4.412,4.412"/>
<path fill="none" stroke="#002CE6" stroke-width="2" stroke-linecap="round" stroke-linejoin="round" stroke-miterlimit="10" d="
	M528.043,137.539c0-1.549-1.255-2.804-2.804-2.804s-2.804,1.255-2.804,2.804"/>
<line fill="none" stroke="#002CE6" stroke-width="2" stroke-linecap="round" stroke-linejoin="round" stroke-miterlimit="10" x1="528.288" y1="137.539" x2="531.955" y2="137.545"/>
<line fill="none" stroke="#002CE6" stroke-width="2" stroke-linecap="round" stroke-linejoin="round" stroke-miterlimit="10" x1="475.955" y1="137.545" x2="472.955" y2="137.545"/>
<line fill="none" stroke="#002CE6" stroke-width="2" stroke-linecap="round" stroke-linejoin="round" stroke-miterlimit="10" x1="244.955" y1="346.545" x2="243.955" y2="346.545"/>
</svg>
