<?xml version="1.0" encoding="utf-8"?>
<!-- Generator: Adobe Illustrator 17.0.0, SVG Export Plug-In . SVG Version: 6.00 Build 0)  -->
<!DOCTYPE svg PUBLIC "-//W3C//DTD SVG 1.0//EN" "http://www.w3.org/TR/2001/REC-SVG-20010904/DTD/svg10.dtd">
<svg version="1.0" id="Calque_1" xmlns="http://www.w3.org/2000/svg" xmlns:xlink="http://www.w3.org/1999/xlink" x="0px" y="0px"
	 width="262px" height="372px" viewBox="0 0 262 372" enable-background="new 0 0 262 372" xml:space="preserve">
<ellipse fill="#F2F2F2" cx="135.389" cy="342.693" rx="111.349" ry="14.193"/>
<path fill="#FFDBC7" d="M92.1,197.436c-0.336,1.494-2.832,2.204-5.575,1.587l0,0c-2.743-0.617-4.643-2.555-4.307-4.048l9.931-44.122
	c0.336-1.494,2.832-2.204,5.575-1.587l0,0c2.743,0.617,4.694,2.329,4.358,3.822L92.1,197.436z"/>
<path fill="#FFDBC7" d="M87.519,245.564c-0.161,1.652-2.559,2.77-5.358,2.498l0,0c-2.798-0.272-4.936-1.832-4.776-3.484
	l4.771-49.043c0.161-1.652,2.559-2.77,5.358-2.498l0,0c2.798,0.272,4.936,1.832,4.776,3.484L87.519,245.564z"/>
<path fill="#FFDBC7" d="M178.678,197.436c0.336,1.494,2.832,2.204,5.575,1.587l0,0c2.743-0.617,4.643-2.555,4.307-4.048
	l-9.931-44.122c-0.336-1.494-2.832-2.204-5.575-1.587l0,0c-2.743,0.617-4.694,2.329-4.358,3.822L178.678,197.436z"/>
<path fill="#FFDBC7" d="M183.258,245.564c0.161,1.652,2.559,2.77,5.358,2.498l0,0c2.798-0.272,4.936-1.832,4.776-3.484
	l-4.771-49.043c-0.161-1.652-2.559-2.77-5.358-2.498l0,0c-2.798,0.272-4.936,1.832-4.776,3.484L183.258,245.564z"/>
<path fill="#FFDBC7" d="M77.589,242.072c0,0-3.978,5.955-3.183,8.207c0.795,2.252,12.178,2.643,13.807,2.152
	c0.77-0.232,0.692-2.206,0.397-4.224c0.723-0.175,1.476-0.762,1.93-1.796c0.718-1.632-4.361-6.424-4.361-6.424l-1.341,0.47
	L77.589,242.072"/>
<path fill="#FFDBC7" d="M193.188,242.072c0,0,3.978,5.955,3.183,8.207c-0.795,2.252-12.178,2.643-13.807,2.152
	c-0.77-0.232-0.692-2.206-0.397-4.224c-0.723-0.175-1.476-0.762-1.93-1.796c-0.718-1.632,4.361-6.424,4.361-6.424l1.341,0.47
	L193.188,242.072"/>
<path fill="#FFDBC7" d="M134.567,218.777h32.564v-83.366c0,0-2.157-12.151-27.031-12.282v-0.006h-0.399c-3.867,0-3.867,0-3.867,0
	h-1.267c0,0,0,0-3.867,0h-0.586v0.009c-24.696,0.192-26.845,12.279-26.845,12.279v83.366H134.567"/>
<path fill="#050505" d="M134.814,218.777H103.27l8.473,121.933h7.676c0,0-3.998-106.39,15.395-106.39s15.395,106.39,15.395,106.39
	h7.676l9.246-121.933H134.814z"/>
<path fill="#050505" d="M117.389,340.71H92.855c0,0,3.603-9.059,13.039-10.039c9.436-0.979,11.495,0,11.495,0V340.71z"/>
<rect x="92.951" y="340.71" fill="#FFFFFF" stroke="#050505" stroke-width="0.25" stroke-linecap="square" stroke-linejoin="bevel" stroke-miterlimit="10" width="26.363" height="1.761"/>
<path fill="#050505" d="M152.148,340.71h24.534c0,0-3.603-9.059-13.039-10.039c-9.436-0.979-11.495,0-11.495,0V340.71z"/>
<rect x="150.223" y="340.71" fill="#FFFFFF" stroke="#050505" stroke-width="0.25" stroke-linecap="square" stroke-linejoin="bevel" stroke-miterlimit="10" width="26.363" height="1.761"/>
<g>
	<path fill="#002CE6" d="M152.26,124.415c-15.684,15.099-34.036,0.13-34.109-0.001c-13.475,3.147-14.88,10.997-14.88,10.997v83.366
		h31.297h32.564v-83.366C167.132,135.411,165.727,127.564,152.26,124.415z"/>
</g>
<path fill="#002CE6" d="M106.816,160.513l-17.426-8.028c0,0,14.447-26.78,28.761-28.071
	C118.012,138.02,106.816,160.513,106.816,160.513z"/>
<path fill="#002CE6" d="M163.575,160.513l17.426-8.028c0,0-14.447-26.78-28.761-28.071
	C152.379,138.02,163.575,160.513,163.575,160.513z"/>
<rect x="103.27" y="214.944" fill="#050505" width="63.862" height="4.307"/>
<rect x="131.812" y="214.944" fill="#FFFFFF" width="6.918" height="3.833"/>
<ellipse fill="#FFDBC7" cx="134.814" cy="69.321" rx="50.123" ry="46.191"/>
<circle fill="#FFFFFF" stroke="#333333" stroke-width="3" stroke-miterlimit="10" cx="114.05" cy="61.484" r="18.457"/>
<circle fill="#FFFFFF" stroke="#333333" stroke-width="3" stroke-miterlimit="10" cx="155.407" cy="61.484" r="18.457"/>
<path fill="#333333" d="M129.445,97.464c0,4.632,10.246,3.847,10.246,0C134.005,97.464,134.005,97.464,129.445,97.464z"/>
<ellipse fill="#FFDBC7" cx="184.938" cy="63.902" rx="7.482" ry="13.033"/>
<path fill="none" stroke="#D3A89C" stroke-linecap="round" stroke-linejoin="round" stroke-miterlimit="10" d="M125.707,79.527
	c4.898,4.898,12.824,4.898,17.721,0"/>
<path fill="#FFDBC7" d="M144.826,123.665v-11.147c0-3.41-4.208-6.174-9.398-6.174h-1.721c-5.19,0-9.398,2.764-9.398,6.174v11.147
	H144.826z"/>
<path fill="none" stroke="#333333" stroke-width="3" stroke-miterlimit="10" d="M130.701,53.51c0,0,3.774-3.102,8.056,0"/>
<path fill="none" stroke="#333333" stroke-width="3" stroke-linecap="round" stroke-linejoin="round" stroke-miterlimit="10" d="
	M83.125,50.868c0,0,7.932-4.672,15.518,0.454"/>
<path fill="none" stroke="#333333" stroke-width="3" stroke-linecap="round" stroke-linejoin="round" stroke-miterlimit="10" d="
	M171.315,50.868c0,0,9.676-5.126,17.261,0"/>
<ellipse fill="#FFDBC7" cx="86.649" cy="63.902" rx="7.482" ry="13.033"/>
<path fill="none" stroke="#D3A89C" stroke-linecap="round" stroke-linejoin="round" stroke-miterlimit="10" d="M83.125,69.321
	c0,0-3.916-12.579,3.524-14.341"/>
<path fill="none" stroke="#D3A89C" stroke-linecap="round" stroke-linejoin="round" stroke-miterlimit="10" d="M188.952,69.321
	c0,0,3.916-12.579-3.524-14.341"/>
<path fill="#8C8C8C" d="M136.949,17.779c-40.315,0-25.742,15.468-42.818,17.23c-9.44,1.175-9.44,16.313-9.44,16.313
	s5.678-2.386,4.895,12.579l-1.86,18.098l3.329-0.196c0,0-1.663-6.583,1.844-10.739c3.506-4.156-6.641-19.414,7.652-30.77
	s51.885,15.468,69.311,0c5.697,6.808,7.131,14.62,7.485,18.584c-0.465,5.044-1.67,9.202-0.08,11.088
	c3.506,4.156,1.844,10.739,1.844,10.739l3.329,0.196l-1.86-18.098c-0.303-5.791-0.34-9.26,1.291-10.715
	c1.352-1.062,3.709-2.082,6.19-0.032C191.595,54.98,177.264,17.779,136.949,17.779z"/>
</svg>
