<?xml version="1.0" encoding="utf-8"?>
<!-- Generator: Adobe Illustrator 17.0.0, SVG Export Plug-In . SVG Version: 6.00 Build 0)  -->
<!DOCTYPE svg PUBLIC "-//W3C//DTD SVG 1.0//EN" "http://www.w3.org/TR/2001/REC-SVG-20010904/DTD/svg10.dtd">
<svg version="1.0" id="Calque_1" xmlns="http://www.w3.org/2000/svg" xmlns:xlink="http://www.w3.org/1999/xlink" x="0px" y="0px"
	 width="174px" height="144px" viewBox="0 0 174 144" enable-background="new 0 0 174 144" xml:space="preserve">
<polyline fill="none" stroke="#002CE6" stroke-width="2" stroke-linecap="round" stroke-linejoin="round" stroke-miterlimit="10" points="
	121.369,52.272 124.526,56.131 133.299,44.552 "/>
<circle fill="none" stroke="#002CE6" stroke-width="2" stroke-linecap="round" stroke-linejoin="round" stroke-miterlimit="10" cx="127.334" cy="50.166" r="13.334"/>
<line fill="none" stroke="#002CE6" stroke-width="2" stroke-linecap="round" stroke-linejoin="round" stroke-miterlimit="10" x1="120" y1="34.865" x2="117.333" y2="29.04"/>
<line fill="none" stroke="#002CE6" stroke-width="2" stroke-linecap="round" stroke-linejoin="round" stroke-miterlimit="10" x1="126" y1="33" x2="126" y2="29"/>
<line fill="none" stroke="#002CE6" stroke-width="2" stroke-linecap="round" stroke-linejoin="round" stroke-miterlimit="10" x1="132.167" y1="33.833" x2="135" y2="26.167"/>
<line fill="none" stroke="#002CE6" stroke-width="2" stroke-linecap="round" stroke-linejoin="round" stroke-miterlimit="10" x1="137.333" y1="36.59" x2="139.667" y2="33"/>
<line fill="none" stroke="#002CE6" stroke-width="2" stroke-linecap="round" stroke-linejoin="round" stroke-miterlimit="10" x1="140.667" y1="41.022" x2="148.833" y2="34.795"/>
<line fill="none" stroke="#002CE6" stroke-width="2" stroke-linecap="round" stroke-linejoin="round" stroke-miterlimit="10" x1="143.5" y1="48.167" x2="148.833" y2="47.167"/>
<line fill="none" stroke="#002CE6" stroke-width="2" stroke-linecap="round" stroke-linejoin="round" stroke-miterlimit="10" x1="143.5" y1="55.167" x2="151.833" y2="56.131"/>
<line fill="none" stroke="#002CE6" stroke-width="2" stroke-linecap="round" stroke-linejoin="round" stroke-miterlimit="10" x1="130.5" y1="66.158" x2="131.667" y2="70"/>
<line fill="none" stroke="#002CE6" stroke-width="2" stroke-linecap="round" stroke-linejoin="round" stroke-miterlimit="10" x1="136.833" y1="63.5" x2="142.5" y2="69.696"/>
<line fill="none" stroke="#002CE6" stroke-width="2" stroke-linecap="round" stroke-linejoin="round" stroke-miterlimit="10" x1="140.667" y1="60" x2="144.75" y2="61.833"/>
<ellipse fill="#F2F2F2" cx="86.389" cy="121.556" rx="72.092" ry="7.983"/>
<path fill="#FFCFC0" d="M72.671,94.157c-0.047,0.484-0.749,0.811-1.568,0.731l0,0c-0.819-0.08-1.445-0.536-1.398-1.02l1.397-14.357
	c0.047-0.484,0.749-0.811,1.568-0.731l0,0c0.819,0.08,1.445,0.536,1.398,1.02L72.671,94.157z"/>
<path fill="#FFCFC0" d="M69.764,93.135c0,0-1.165,1.743-0.932,2.403c0.233,0.659,3.565,0.774,4.042,0.63
	c0.225-0.068,0.203-0.646,0.116-1.237c0.212-0.051,0.432-0.223,0.565-0.526c0.21-0.478-1.277-1.881-1.277-1.881l-0.393,0.138
	L69.764,93.135"/>
<path fill="#FFCFC0" d="M103.834,92.728c0,0,1.165,1.743,0.932,2.403c-0.233,0.659-3.565,0.774-4.042,0.63
	c-0.225-0.068-0.203-0.646-0.116-1.237c-0.212-0.051-0.432-0.223-0.565-0.526c-0.21-0.478,1.277-1.881,1.277-1.881l0.393,0.138
	L103.834,92.728"/>
<path fill="#FFCFC0" d="M86.673,86.315h9.533V61.91c0,0-0.632-3.557-7.913-3.596v-0.002h-0.117c-1.132,0-1.132,0-1.132,0h-0.371
	c0,0,0,0-1.132,0H85.37v0.003c-7.23,0.056-7.859,3.595-7.859,3.595v24.405H86.673"/>
<path fill="#828282" d="M86.745,86.315h-9.234l2.48,35.695h2.247c0,0-1.17-31.145,4.507-31.145s4.507,31.145,4.507,31.145h2.247
	l2.707-35.695H86.745z"/>
<path fill="#828282" d="M81.644,122.011h-7.182c0,0,1.055-2.652,3.817-2.939c2.762-0.287,3.365,0,3.365,0V122.011z"/>
<rect x="74.49" y="122.011" fill="#FFFFFF" width="7.718" height="0.515"/>
<path fill="#828282" d="M91.82,122.011h7.182c0,0-1.055-2.652-3.817-2.939c-2.762-0.287-3.365,0-3.365,0V122.011z"/>
<g>
	<path fill="#002CE6" d="M91.853,58.691c-4.591,4.42-9.964,0.038-9.985,0c-3.945,0.921-4.356,3.219-4.356,3.219v24.405h9.162h9.533
		V61.91C96.206,61.91,95.795,59.613,91.853,58.691z"/>
</g>
<rect x="77.511" y="85.193" width="18.695" height="1.122"/>
<rect x="85.867" y="85.193" fill="#FFFFFF" width="2.025" height="1.122"/>
<path fill="#002CE6" d="M69.702,92.719c0,0,0.573-10.89,1.487-15.075s3.363-17.789,10.679-18.954
	c-1.97,4.796-3.804,6.803-3.804,6.803s-3.724,11.072-4.037,14.509c-0.313,3.437-1.216,12.716-1.216,12.716H69.702z"/>
<rect x="91.256" y="122.011" fill="#FFFFFF" width="7.718" height="0.515"/>
<path fill="#002CE6" d="M103.972,92.719c0,0-0.573-10.89-1.487-15.075s-3.363-17.789-10.679-18.954
	c1.97,4.796,3.804,6.803,3.804,6.803s3.724,11.072,4.037,14.509c0.313,3.437,1.216,12.716,1.216,12.716H103.972z"/>
<path d="M93.322,68.844c0,0.069-0.056,0.126-0.126,0.126l0,0c-0.069,0-0.126-0.056-0.126-0.126v-2.56
	c0-0.069,0.056-0.126,0.126-0.126l0,0c0.069,0,0.126,0.056,0.126,0.126V68.844z"/>
<path fill="#FFFFFF" d="M94.127,68.178c0-0.012,0.002-0.023,0.002-0.035h-0.002v-1.314h-3.268v1.481h0.01
	c0.088,0.779,0.781,1.387,1.625,1.387s1.538-0.607,1.625-1.387h0.008V68.178z"/>
<polyline fill="none" stroke="#000000" stroke-width="0.15" stroke-miterlimit="10" points="93.274,66.362 93.424,66.362 
	93.424,67.237 "/>
<path fill="#FFCFC0" d="M89.676,58.471v-3.263c0-0.998-1.232-1.807-2.751-1.807h-0.504c-1.519,0-2.751,0.809-2.751,1.807v3.263
	H89.676z"/>
<ellipse fill="#FFCFC0" cx="86.745" cy="42.563" rx="14.673" ry="13.522"/>
<circle fill="#FFFFFF" stroke="#333333" stroke-miterlimit="10" cx="80.667" cy="40.268" r="5.403"/>
<circle fill="#FFFFFF" stroke="#333333" stroke-miterlimit="10" cx="92.774" cy="40.268" r="5.403"/>
<ellipse fill="#FFCFC0" cx="101.419" cy="40.976" rx="2.19" ry="3.815"/>
<path fill="none" stroke="#D3A89C" stroke-width="0.5" stroke-linecap="round" stroke-linejoin="round" stroke-miterlimit="10" d="
	M84.079,45.55c1.434,1.434,3.754,1.434,5.188,0"/>
<path fill="none" stroke="#333333" stroke-miterlimit="10" d="M85.541,37.934c0,0,1.105-0.908,2.358,0"/>
<g>
	<path fill="#333333" d="M80.326,41.022c-0.851,0-1.541,0.69-1.541,1.541c0,0.851,0.69,1.541,1.541,1.541s1.541-0.69,1.541-1.541
		C81.016,42.563,80.326,41.873,80.326,41.022z"/>
</g>
<g>
	<path fill="#333333" d="M92.774,41.022c-0.851,0-1.541,0.69-1.541,1.541c0,0.851,0.69,1.541,1.541,1.541
		c0.851,0,1.541-0.69,1.541-1.541C93.464,42.563,92.774,41.873,92.774,41.022z"/>
</g>
<path fill="none" stroke="#333333" stroke-linecap="round" stroke-linejoin="round" stroke-miterlimit="10" d="M71.614,37.161
	c0,0,2.322-1.368,4.543,0.133"/>
<path fill="none" stroke="#333333" stroke-linecap="round" stroke-linejoin="round" stroke-miterlimit="10" d="M97.431,37.161
	c0,0,2.833-1.501,5.053,0"/>
<ellipse fill="#FFCFC0" cx="72.645" cy="40.976" rx="2.19" ry="3.815"/>
<path fill="none" stroke="#D3A89C" stroke-width="0.5" stroke-linecap="round" stroke-linejoin="round" stroke-miterlimit="10" d="
	M71.614,42.563c0,0-1.146-3.682,1.032-4.198"/>
<path fill="none" stroke="#D3A89C" stroke-width="0.5" stroke-linecap="round" stroke-linejoin="round" stroke-miterlimit="10" d="
	M102.594,42.563c0,0,1.146-3.682-1.032-4.198"/>
<path fill="#828282" d="M87.37,27.474c-11.802,0-7.536,4.528-12.535,5.044c-2.764,0.344-2.764,4.776-2.764,4.776
	s1.662-0.698,1.433,3.683l-0.545,5.298l0.974-0.057c0,0-0.487-1.927,0.54-3.144c1.026-1.217-1.944-5.683,2.24-9.008
	s15.189,4.528,20.291,0c1.668,1.993,2.088,4.28,2.191,5.44c-0.136,1.477-0.489,2.694-0.023,3.246c1.026,1.217,0.54,3.144,0.54,3.144
	l0.974,0.057l-0.545-5.298c-0.089-1.695-0.1-2.711,0.378-3.137c0.396-0.311,1.086-0.61,1.812-0.009
	C103.368,38.364,99.172,27.474,87.37,27.474z"/>
<path fill="#FF5C61" d="M91.311,48.847c0,1.718-2.044,3.111-4.566,3.111s-4.566-1.393-4.566-3.111"/>
<polygon fill="#FFFFFF" points="83.507,49.163 89.77,49.163 89.181,49.874 83.993,49.874 "/>
<path fill="#FFFFFF" d="M83.937,51.135h5.403C89.34,51.135,87.148,52.531,83.937,51.135z"/>
</svg>
