<?xml version="1.0" encoding="utf-8"?>
<!-- Generator: Adobe Illustrator 17.0.0, SVG Export Plug-In . SVG Version: 6.00 Build 0)  -->
<!DOCTYPE svg PUBLIC "-//W3C//DTD SVG 1.0//EN" "http://www.w3.org/TR/2001/REC-SVG-20010904/DTD/svg10.dtd">
<svg version="1.0" id="Calque_1" xmlns="http://www.w3.org/2000/svg" xmlns:xlink="http://www.w3.org/1999/xlink" x="0px" y="0px"
	 width="267.027px" height="375.038px" viewBox="0 0 267.027 375.038" enable-background="new 0 0 267.027 375.038"
	 xml:space="preserve">
<ellipse fill="#F2F2F2" cx="137.583" cy="345.893" rx="111.349" ry="14.193"/>
<path fill="#FFDBC7" d="M94.294,200.636c-0.336,1.494-2.832,2.204-5.575,1.587l0,0c-2.743-0.617-4.643-2.555-4.307-4.048
	l9.931-44.122c0.336-1.494,2.832-2.204,5.575-1.587l0,0c2.743,0.617,4.694,2.329,4.358,3.822L94.294,200.636z"/>
<path fill="#FFDBC7" d="M89.714,248.764c-0.161,1.652-2.559,2.77-5.358,2.498l0,0c-2.798-0.272-4.936-1.832-4.776-3.484
	l4.771-49.043c0.161-1.652,2.559-2.77,5.358-2.498l0,0c2.798,0.272,4.936,1.832,4.776,3.484L89.714,248.764z"/>
<path fill="#FFDBC7" d="M180.872,200.636c0.336,1.494,2.832,2.204,5.575,1.587l0,0c2.743-0.617,4.643-2.555,4.307-4.048
	l-9.931-44.122c-0.336-1.494-2.832-2.204-5.575-1.587l0,0c-2.743,0.617-4.694,2.329-4.358,3.822L180.872,200.636z"/>
<path fill="#FFDBC7" d="M185.453,248.764c0.161,1.652,2.559,2.77,5.358,2.498l0,0c2.798-0.272,4.936-1.832,4.776-3.484
	l-4.771-49.043c-0.161-1.652-2.559-2.77-5.358-2.498l0,0c-2.798,0.272-4.936,1.832-4.776,3.484L185.453,248.764z"/>
<path fill="#FFDBC7" d="M79.784,245.272c0,0-3.978,5.955-3.183,8.207s12.178,2.643,13.807,2.152c0.77-0.232,0.692-2.206,0.397-4.224
	c0.723-0.175,1.476-0.762,1.93-1.796c0.718-1.632-4.361-6.424-4.361-6.424l-1.341,0.47L79.784,245.272"/>
<path fill="#FFDBC7" d="M195.383,245.272c0,0,3.978,5.955,3.183,8.207c-0.795,2.252-12.178,2.643-13.807,2.152
	c-0.77-0.232-0.692-2.206-0.397-4.224c-0.723-0.175-1.476-0.762-1.93-1.796c-0.718-1.632,4.361-6.424,4.361-6.424l1.341,0.47
	L195.383,245.272"/>
<path fill="#FFDBC7" d="M136.762,221.977h32.564v-83.366c0,0-2.157-12.151-27.031-12.282v-0.006h-0.399c-3.867,0-3.867,0-3.867,0
	h-1.267c0,0,0,0-3.867,0h-0.586v0.009c-24.695,0.192-26.845,12.279-26.845,12.279v83.366H136.762"/>
<path fill="#050505" d="M137.009,221.977h-31.544l8.473,121.933h7.676c0,0-3.998-106.39,15.395-106.39s15.395,106.39,15.395,106.39
	h7.676l9.246-121.933H137.009z"/>
<path fill="#050505" d="M119.583,343.91H95.049c0,0,3.603-9.059,13.039-10.039s11.495,0,11.495,0V343.91z"/>
<rect x="95.146" y="343.91" fill="#FFFFFF" stroke="#050505" stroke-width="0.25" stroke-linecap="square" stroke-linejoin="bevel" stroke-miterlimit="10" width="26.363" height="1.761"/>
<path fill="#050505" d="M154.343,343.91h24.534c0,0-3.603-9.059-13.039-10.039s-11.495,0-11.495,0V343.91z"/>
<rect x="152.417" y="343.91" fill="#FFFFFF" stroke="#050505" stroke-width="0.25" stroke-linecap="square" stroke-linejoin="bevel" stroke-miterlimit="10" width="26.363" height="1.761"/>
<g>
	<path fill="#002CE6" d="M154.455,127.615c-15.684,15.099-34.036,0.13-34.109-0.001c-13.475,3.147-14.88,10.997-14.88,10.997v83.366
		h31.297h32.564v-83.366C169.327,138.611,167.922,130.764,154.455,127.615z"/>
</g>
<path fill="#002CE6" d="M109.01,163.713l-17.426-8.028c0,0,14.447-26.78,28.761-28.071
	C120.207,141.219,109.01,163.713,109.01,163.713z"/>
<path fill="#002CE6" d="M165.77,163.713l17.426-8.028c0,0-14.447-26.78-28.761-28.071
	C154.573,141.219,165.77,163.713,165.77,163.713z"/>
<rect x="105.465" y="218.144" fill="#050505" width="63.862" height="4.307"/>
<rect x="134.007" y="218.144" fill="#FFFFFF" width="6.918" height="3.833"/>
<ellipse fill="#FFDBC7" cx="137.009" cy="72.521" rx="50.123" ry="46.191"/>
<circle fill="#FFFFFF" stroke="#333333" stroke-width="3" stroke-miterlimit="10" cx="116.245" cy="64.683" r="18.457"/>
<circle fill="#FFFFFF" stroke="#333333" stroke-width="3" stroke-miterlimit="10" cx="157.601" cy="64.683" r="18.457"/>
<path fill="#333333" d="M131.639,100.664c0,4.632,10.246,3.847,10.246,0C136.2,100.664,136.2,100.664,131.639,100.664z"/>
<ellipse fill="#FFDBC7" cx="187.132" cy="67.101" rx="7.482" ry="13.033"/>
<path fill="none" stroke="#D3A89C" stroke-linecap="round" stroke-linejoin="round" stroke-miterlimit="10" d="M127.902,82.727
	c4.898,4.898,12.824,4.898,17.721,0"/>
<path fill="#FFDBC7" d="M147.021,126.864v-11.147c0-3.41-4.208-6.174-9.398-6.174h-1.721c-5.19,0-9.398,2.764-9.398,6.174v11.147
	H147.021z"/>
<path fill="none" stroke="#333333" stroke-width="3" stroke-miterlimit="10" d="M132.895,56.71c0,0,3.774-3.102,8.056,0"/>
<g>
	<path fill="#333333" d="M115.08,58.683c-2.907,0-5.264,2.357-5.264,5.264c0,2.907,2.357,5.264,5.264,5.264s5.264-2.357,5.264-5.264
		C117.437,63.947,115.08,61.59,115.08,58.683z"/>
</g>
<g>
	<path fill="#333333" d="M157.601,58.683c-2.907,0-5.264,2.357-5.264,5.264c0,2.907,2.357,5.264,5.264,5.264
		c2.907,0,5.264-2.357,5.264-5.264C159.958,63.947,157.601,61.59,157.601,58.683z"/>
</g>
<path fill="none" stroke="#333333" stroke-width="3" stroke-linecap="round" stroke-linejoin="round" stroke-miterlimit="10" d="
	M85.319,54.068c0,0,7.932-4.672,15.518,0.454"/>
<path fill="none" stroke="#333333" stroke-width="3" stroke-linecap="round" stroke-linejoin="round" stroke-miterlimit="10" d="
	M173.509,54.068c0,0,9.676-5.126,17.261,0"/>
<ellipse fill="#FFDBC7" cx="88.844" cy="67.101" rx="7.482" ry="13.033"/>
<path fill="none" stroke="#D3A89C" stroke-linecap="round" stroke-linejoin="round" stroke-miterlimit="10" d="M85.319,72.521
	c0,0-3.916-12.579,3.524-14.341"/>
<path fill="none" stroke="#D3A89C" stroke-linecap="round" stroke-linejoin="round" stroke-miterlimit="10" d="M191.147,72.521
	c0,0,3.916-12.579-3.524-14.341"/>
<path fill="#8C8C8C" d="M139.144,20.979c-40.315,0-25.742,15.468-42.818,17.23c-9.44,1.175-9.44,16.313-9.44,16.313
	s5.678-2.386,4.895,12.579l-1.86,18.098l3.328-0.196c0,0-1.663-6.583,1.844-10.739c3.506-4.156-6.641-19.414,7.652-30.77
	s51.885,15.468,69.311,0c5.697,6.808,7.131,14.62,7.485,18.584c-0.465,5.044-1.67,9.202-0.08,11.088
	c3.506,4.156,1.844,10.739,1.844,10.739l3.329,0.196l-1.86-18.098c-0.303-5.791-0.34-9.26,1.291-10.715
	c1.352-1.062,3.709-2.082,6.19-0.032C193.789,58.18,179.459,20.979,139.144,20.979z"/>
</svg>
