<?xml version="1.0" encoding="utf-8"?>
<!-- Generator: Adobe Illustrator 17.0.0, SVG Export Plug-In . SVG Version: 6.00 Build 0)  -->
<!DOCTYPE svg PUBLIC "-//W3C//DTD SVG 1.0//EN" "http://www.w3.org/TR/2001/REC-SVG-20010904/DTD/svg10.dtd">
<svg version="1.0" id="Calque_2" xmlns="http://www.w3.org/2000/svg" xmlns:xlink="http://www.w3.org/1999/xlink" x="0px" y="0px"
	 width="110px" height="160px" viewBox="0 0 110 160" enable-background="new 0 0 110 160" xml:space="preserve">
<path fill="#000045" d="M85.25,36C91.187,36,96,31.187,96,25.25v-0.5C96,18.813,91.187,14,85.25,14h-60.5
	C18.813,14,14,18.813,14,24.75v0.5C14,31.187,18.813,36,24.75,36H30v11h-4c-6.627,0-12,5.373-12,12v75c0,6.627,5.373,12,12,12h58
	c6.627,0,12-5.373,12-12V59c0-6.627-5.373-12-12-12h-2V36H85.25z"/>
</svg>
