<?xml version="1.0" encoding="utf-8"?>
<!-- Generator: Adobe Illustrator 17.0.0, SVG Export Plug-In . SVG Version: 6.00 Build 0)  -->
<!DOCTYPE svg PUBLIC "-//W3C//DTD SVG 1.0//EN" "http://www.w3.org/TR/2001/REC-SVG-20010904/DTD/svg10.dtd">
<svg version="1.0" id="Calque_1" xmlns="http://www.w3.org/2000/svg" xmlns:xlink="http://www.w3.org/1999/xlink" x="0px" y="0px"
	 width="286px" height="310px" viewBox="0 0 286 310" enable-background="new 0 0 286 310" xml:space="preserve">
<path fill="#FFDBC7" d="M139.811,40.276c-58.674,0-106.239,43.834-106.239,97.906s47.565,97.906,106.239,97.906
	c58.674,0,106.239-43.834,106.239-97.906S198.485,40.276,139.811,40.276z M95.8,160.691c-21.606,0-39.122-17.515-39.122-39.121
	c0-21.606,17.515-39.122,39.122-39.122s39.121,17.515,39.121,39.122C134.922,143.176,117.407,160.691,95.8,160.691z
	 M183.457,160.691c-21.606,0-39.122-17.515-39.122-39.121c0-21.606,17.515-39.122,39.122-39.122
	c21.606,0,39.121,17.515,39.121,39.122C222.579,143.176,205.064,160.691,183.457,160.691z"/>
<circle fill="none" stroke="#333333" stroke-width="3" stroke-miterlimit="10" cx="95.8" cy="121.569" r="39.121"/>
<circle fill="none" stroke="#333333" stroke-width="3" stroke-miterlimit="10" cx="183.457" cy="121.569" r="39.121"/>
<path fill="#333333" d="M128.43,197.832c0,9.819,21.716,8.154,21.716,0C138.096,197.832,138.096,197.832,128.43,197.832z"/>
<ellipse fill="#FFDBC7" cx="246.05" cy="126.695" rx="15.859" ry="27.625"/>
<path fill="#8C8C8C" d="M139.811,176.097c-8.01-17.003-46.699,7.226-62.483-9.244c0,0,31.004,47.621,62.483,18.553
	c31.479,29.068,62.483-18.553,62.483-18.553C186.51,183.323,147.821,159.094,139.811,176.097z"/>
<path fill="none" stroke="#D3A89C" stroke-linecap="round" stroke-linejoin="round" stroke-miterlimit="10" d="M120.507,159.814
	c10.381,10.381,27.181,10.381,37.561,0"/>
<path fill="#FFDBC7" d="M161.031,253.366v-23.628c0-7.227-8.918-13.086-19.92-13.086h-3.648c-11.001,0-19.92,5.859-19.92,13.086
	v23.628H161.031z"/>
<path fill="none" stroke="#333333" stroke-width="3" stroke-miterlimit="10" d="M131.092,104.669c0,0,8-6.574,17.074,0"/>
<path fill="none" stroke="#333333" stroke-width="3" stroke-linecap="round" stroke-linejoin="round" stroke-miterlimit="10" d="
	M30.251,99.07c0,0,16.813-9.903,32.891,0.962"/>
<path fill="none" stroke="#333333" stroke-width="3" stroke-linecap="round" stroke-linejoin="round" stroke-miterlimit="10" d="
	M217.176,99.07c0,0,20.508-10.865,36.587,0"/>
<ellipse fill="#FFDBC7" cx="37.721" cy="126.695" rx="15.859" ry="27.625"/>
<path fill="none" stroke="#D3A89C" stroke-linecap="round" stroke-linejoin="round" stroke-miterlimit="10" d="M30.251,138.182
	c0,0-8.3-26.662,7.47-30.397"/>
<path fill="none" stroke="#D3A89C" stroke-linecap="round" stroke-linejoin="round" stroke-miterlimit="10" d="M254.559,138.182
	c0,0,8.3-26.662-7.47-30.397"/>
<path fill="#8C8C8C" d="M144.336,28.935c-85.45,0-54.562,32.785-90.756,36.52c-20.009,2.49-20.009,34.577-20.009,34.577
	s12.035-5.057,10.375,26.663l-3.942,38.36l7.055-0.415c0,0-3.524-13.952,3.908-22.761c7.432-8.809-14.075-41.148,16.22-65.218
	s109.974,32.785,146.909,0c12.075,14.431,15.115,30.987,15.864,39.39c-0.987,10.691-3.54,19.505-0.169,23.501
	c7.432,8.809,3.908,22.761,3.908,22.761l7.055,0.415l-3.942-38.36c-0.642-12.274-0.721-19.627,2.736-22.712
	c2.865-2.251,7.861-4.414,13.119-0.067C260.16,107.785,229.786,28.935,144.336,28.935z"/>
<polygon fill="#FFDBC7" points="117.544,253 139.288,286.968 161.031,253 "/>
</svg>
