<?xml version="1.0" encoding="utf-8"?>
<!-- Generator: Adobe Illustrator 17.0.0, SVG Export Plug-In . SVG Version: 6.00 Build 0)  -->
<!DOCTYPE svg PUBLIC "-//W3C//DTD SVG 1.0//EN" "http://www.w3.org/TR/2001/REC-SVG-20010904/DTD/svg10.dtd">
<svg version="1.0" id="Calque_1" xmlns="http://www.w3.org/2000/svg" xmlns:xlink="http://www.w3.org/1999/xlink" x="0px" y="0px"
	 width="510.051px" height="303.03px" viewBox="0 0 510.051 303.03" enable-background="new 0 0 510.051 303.03"
	 xml:space="preserve">
<path fill="#002CE6" d="M480.16,19.196H292.252c-6.1,0-11.046,4.945-11.046,11.046V268.15c0,6.101,4.946,11.046,11.046,11.046
	H480.16c6.1,0,11.046-4.945,11.046-11.046V30.242C491.206,24.141,486.261,19.196,480.16,19.196z M479.206,256.411
	c0,4.688-4.349,8.784-9.715,8.784H304.234c-5.365,0-10.028-4.096-10.028-8.784V72.017c0-4.688,4.662-8.821,10.028-8.821h165.258
	c5.365,0,9.715,4.134,9.715,8.821v184.394H479.206z"/>
<circle fill="#000045" cx="314.206" cy="107.722" r="1.736"/>
<rect x="300.206" y="96.862" fill="none" width="9.667" height="12.667"/>
<g enable-background="new    ">
	<path fill="#000045" d="M305.122,97.849v10.623c0,0.559-0.469,0.99-1.009,0.99c-0.558,0-0.99-0.432-0.99-0.99v-8.858l-0.72,0.414
		c-0.162,0.107-0.343,0.144-0.505,0.144c-0.342,0-0.666-0.18-0.846-0.504c-0.307-0.45-0.145-1.08,0.324-1.351l2.214-1.314
		c0.019-0.018,0.055-0.018,0.072-0.036c0.036,0,0.055-0.035,0.09-0.054c0.036,0,0.072-0.018,0.108-0.018
		c0.018-0.019,0.054-0.019,0.072-0.019c0.036-0.018,0.09-0.018,0.126-0.018c0.018,0,0.036,0,0.054,0h0.019c0.054,0,0.09,0,0.126,0
		c0.018,0.018,0.054,0.018,0.071,0.018c0.055,0,0.072,0.019,0.108,0.036c0.018,0,0.054,0,0.072,0.019
		c0.054,0.035,0.072,0.054,0.107,0.054c0.019,0.018,0.036,0.036,0.072,0.054c0.019,0.019,0.054,0.036,0.072,0.054
		c0.036,0.019,0.054,0.055,0.072,0.072c0.018,0.019,0.036,0.036,0.054,0.072c0.018,0.018,0.054,0.054,0.072,0.072l0.018,0.036
		c0,0.018,0.019,0.035,0.019,0.054c0.018,0.036,0.035,0.054,0.035,0.09c0.019,0.036,0.019,0.072,0.036,0.09
		c0,0.036,0.019,0.072,0.019,0.09c0,0.055,0,0.091,0.036,0.126C305.122,97.813,305.122,97.83,305.122,97.849z"/>
</g>
<circle fill="#000045" cx="314.206" cy="167.722" r="1.736"/>
<rect x="300.206" y="156.862" fill="none" width="11.736" height="12.667"/>
<g enable-background="new    ">
	<path fill="#000045" d="M309.515,168.472c0,0.559-0.432,0.99-0.99,0.99h-6.374c0,0,0,0-0.018,0h-0.018
		c-0.271,0-0.559-0.108-0.738-0.324c-0.379-0.414-0.343-1.026,0.054-1.404l5.329-4.825c0.522-0.469,0.757-1.081,0.757-1.729
		c0-0.576-0.198-1.116-0.595-1.566c-0.468-0.522-1.098-0.757-1.729-0.757c-0.558,0-1.116,0.198-1.566,0.595l-0.558,0.504
		c-0.414,0.378-1.026,0.342-1.404-0.072c-0.36-0.414-0.343-1.026,0.071-1.404l0.559-0.504c0.811-0.757,1.872-1.116,2.898-1.116
		c1.171,0,2.359,0.486,3.205,1.422c0.757,0.811,1.116,1.873,1.116,2.899c0,1.17-0.485,2.358-1.422,3.205l-3.403,3.078h3.835
		C309.083,167.463,309.515,167.913,309.515,168.472z"/>
</g>
<circle fill="#000045" cx="314.206" cy="231.722" r="1.736"/>
<rect x="300.206" y="220.862" fill="none" width="12.402" height="12.667"/>
<g enable-background="new    ">
	<path fill="#000045" d="M308.2,225.81c0.883,0.864,1.314,2.017,1.314,3.151c0,1.134-0.432,2.286-1.314,3.169
		c-0.864,0.864-2.017,1.314-3.169,1.314c-1.134,0-2.286-0.45-3.15-1.314c-0.396-0.396-0.396-1.045,0-1.44
		c0.396-0.396,1.044-0.396,1.44,0c0.468,0.468,1.08,0.702,1.71,0.702c0.631,0,1.243-0.234,1.729-0.702
		c0.486-0.486,0.721-1.099,0.721-1.729c0-0.631-0.234-1.243-0.721-1.711c-0.468-0.486-1.08-0.702-1.71-0.72
		c-0.288,0.018-0.559-0.108-0.738-0.324c-0.018,0-0.018,0-0.018-0.019c-0.415-0.396-0.415-1.026-0.036-1.44l1.836-1.872h-2.917
		c-0.558,0-1.008-0.45-1.008-1.026c0-0.559,0.45-1.009,1.008-1.009h5.312c0.576,0,1.026,0.45,1.026,1.009
		c0,0.18-0.054,0.342-0.126,0.486c-0.054,0.09-0.107,0.18-0.18,0.252l-2.269,2.341C307.408,225.144,307.841,225.432,308.2,225.81z"
		/>
</g>
<path fill="#002CE6" d="M219.16,19.196H31.252c-6.1,0-11.046,4.945-11.046,11.046V268.15c0,6.101,4.946,11.046,11.046,11.046H219.16
	c6.1,0,11.046-4.945,11.046-11.046V30.242C230.206,24.141,225.261,19.196,219.16,19.196z M218.206,256.411
	c0,4.688-4.349,8.784-9.715,8.784H43.234c-5.365,0-10.028-4.096-10.028-8.784V72.017c0-4.688,4.662-8.821,10.028-8.821h165.258
	c5.365,0,9.715,4.134,9.715,8.821v184.394H218.206z"/>
<circle fill="#000045" cx="53.206" cy="107.722" r="1.736"/>
<rect x="89.206" y="28.862" fill="none" width="64" height="25.333"/>
<g enable-background="new    ">
	<path fill="#FFFFFF" d="M105.165,32.193h-4.77v16.019c0,0.931-0.72,1.65-1.65,1.65c-0.9,0-1.65-0.72-1.65-1.65V32.193h-4.74
		c-0.93,0-1.65-0.78-1.65-1.681c0-0.93,0.72-1.649,1.65-1.649h12.81c0.9,0,1.65,0.72,1.65,1.649
		C106.815,31.413,106.065,32.193,105.165,32.193z"/>
	<path fill="#FFFFFF" d="M126.675,31.473c1.86,1.98,3.03,4.62,3.03,7.59s-1.17,5.64-3.03,7.59c-1.77,1.95-4.41,3.21-7.17,3.21
		c-2.88,0-5.52-1.26-7.35-3.21c-1.86-1.95-2.97-4.62-2.97-7.59s1.11-5.609,2.97-7.59c1.83-1.979,4.47-3.21,7.35-3.21
		C122.265,28.263,124.905,29.493,126.675,31.473z M126.285,39.062c0-2.04-0.81-3.93-2.04-5.25c-1.26-1.35-2.94-2.13-4.74-2.13
		c-1.92,0-3.6,0.78-4.859,2.13c-1.26,1.32-2.04,3.21-2.04,5.25s0.78,3.93,2.04,5.22c1.26,1.351,2.939,2.16,4.859,2.16
		c1.8,0,3.48-0.81,4.74-2.16C125.475,42.992,126.285,41.102,126.285,39.062z"/>
	<path fill="#FFFFFF" d="M142.635,41.702h-3.69v6.51c0,0.9-0.75,1.65-1.68,1.65c-0.9,0-1.65-0.75-1.65-1.65V30.513
		c0-0.93,0.75-1.649,1.65-1.649h0.03h5.34c3.57,0,6.45,2.88,6.45,6.449C149.085,38.823,146.205,41.702,142.635,41.702z
		 M138.945,38.373h3.69c1.74,0,3.09-1.38,3.12-3.061c-0.03-1.739-1.38-3.119-3.12-3.119h-3.69V38.373z"/>
</g>
<rect x="346.873" y="28.862" fill="none" width="86" height="25.333"/>
<g enable-background="new    ">
	<path fill="#FFFFFF" d="M349.992,48.212V30.513c0-0.899,0.72-1.649,1.65-1.649h0.029c0,0,0,0,0.061,0h9.72
		c0.869,0,1.649,0.75,1.649,1.649c0,0.931-0.78,1.681-1.649,1.681h-8.13v5.489h6.989c0.9,0,1.65,0.78,1.65,1.65
		c0,0.93-0.75,1.68-1.65,1.68h-6.989v7.199c0,0.9-0.75,1.65-1.68,1.65C350.712,49.862,349.992,49.112,349.992,48.212z"/>
	<path fill="#FFFFFF" d="M368.142,48.212V30.513c0-0.899,0.721-1.649,1.65-1.649s1.68,0.75,1.68,1.649v16.02h8.13
		c0.87,0,1.65,0.75,1.65,1.68c0,0.9-0.78,1.65-1.65,1.65h-9.72c-0.06,0-0.06,0-0.06,0c-0.03,0-0.03,0-0.03,0
		C368.862,49.862,368.142,49.112,368.142,48.212z"/>
	<path fill="#FFFFFF" d="M400.392,31.473c1.859,1.98,3.029,4.62,3.029,7.59s-1.17,5.64-3.029,7.59c-1.771,1.95-4.41,3.21-7.17,3.21
		c-2.88,0-5.52-1.26-7.35-3.21c-1.86-1.95-2.97-4.62-2.97-7.59s1.109-5.609,2.97-7.59c1.83-1.979,4.47-3.21,7.35-3.21
		C395.982,28.263,398.621,29.493,400.392,31.473z M400.001,39.062c0-2.04-0.81-3.93-2.039-5.25c-1.261-1.35-2.94-2.13-4.74-2.13
		c-1.92,0-3.6,0.78-4.859,2.13c-1.261,1.32-2.04,3.21-2.04,5.25s0.779,3.93,2.04,5.22c1.26,1.351,2.939,2.16,4.859,2.16
		c1.8,0,3.479-0.81,4.74-2.16C399.192,42.992,400.001,41.102,400.001,39.062z"/>
	<path fill="#FFFFFF" d="M416.352,41.702h-3.69v6.51c0,0.9-0.75,1.65-1.68,1.65c-0.9,0-1.65-0.75-1.65-1.65V30.513
		c0-0.93,0.75-1.649,1.65-1.649h0.03h5.34c3.569,0,6.449,2.88,6.449,6.449C422.801,38.823,419.921,41.702,416.352,41.702z
		 M412.661,38.373h3.69c1.739,0,3.09-1.38,3.119-3.061c-0.029-1.739-1.38-3.119-3.119-3.119h-3.69V38.373z"/>
</g>
<rect x="39.206" y="96.862" fill="none" width="9.667" height="12.667"/>
<g enable-background="new    ">
	<path fill="#000045" d="M44.122,97.849v10.623c0,0.559-0.468,0.99-1.008,0.99c-0.558,0-0.99-0.432-0.99-0.99v-8.858l-0.72,0.414
		c-0.162,0.107-0.342,0.144-0.504,0.144c-0.342,0-0.666-0.18-0.846-0.504c-0.306-0.45-0.144-1.08,0.324-1.351l2.214-1.314
		c0.018-0.018,0.054-0.018,0.072-0.036c0.036,0,0.054-0.035,0.09-0.054c0.036,0,0.072-0.018,0.108-0.018
		c0.018-0.019,0.054-0.019,0.072-0.019c0.036-0.018,0.09-0.018,0.126-0.018c0.018,0,0.036,0,0.054,0h0.018c0.054,0,0.09,0,0.126,0
		c0.018,0.018,0.054,0.018,0.072,0.018c0.054,0,0.072,0.019,0.108,0.036c0.018,0,0.054,0,0.072,0.019
		c0.054,0.035,0.072,0.054,0.108,0.054c0.018,0.018,0.036,0.036,0.072,0.054c0.018,0.019,0.054,0.036,0.072,0.054
		c0.036,0.019,0.054,0.055,0.072,0.072c0.018,0.019,0.036,0.036,0.054,0.072c0.018,0.018,0.054,0.054,0.072,0.072l0.018,0.036
		c0,0.018,0.018,0.035,0.018,0.054c0.018,0.036,0.036,0.054,0.036,0.09c0.018,0.036,0.018,0.072,0.036,0.09
		c0,0.036,0.018,0.072,0.018,0.09c0,0.055,0,0.091,0.036,0.126C44.122,97.813,44.122,97.83,44.122,97.849z"/>
</g>
<circle fill="#000045" cx="53.206" cy="167.722" r="1.736"/>
<rect x="39.206" y="156.862" fill="none" width="11.736" height="12.667"/>
<g enable-background="new    ">
	<path fill="#000045" d="M48.515,168.472c0,0.559-0.432,0.99-0.99,0.99h-6.374c0,0,0,0-0.018,0h-0.018
		c-0.27,0-0.558-0.108-0.738-0.324c-0.378-0.414-0.342-1.026,0.054-1.404l5.329-4.825c0.522-0.469,0.756-1.081,0.756-1.729
		c0-0.576-0.198-1.116-0.594-1.566c-0.468-0.522-1.098-0.757-1.729-0.757c-0.558,0-1.116,0.198-1.566,0.595l-0.558,0.504
		c-0.414,0.378-1.026,0.342-1.404-0.072c-0.36-0.414-0.342-1.026,0.072-1.404l0.559-0.504c0.81-0.757,1.872-1.116,2.898-1.116
		c1.17,0,2.359,0.486,3.205,1.422c0.756,0.811,1.116,1.873,1.116,2.899c0,1.17-0.486,2.358-1.422,3.205l-3.403,3.078h3.835
		C48.083,167.463,48.515,167.913,48.515,168.472z"/>
</g>
<circle fill="#000045" cx="53.206" cy="231.722" r="1.736"/>
<rect x="39.206" y="220.862" fill="none" width="12.402" height="12.667"/>
<g enable-background="new    ">
	<path fill="#000045" d="M47.2,225.81c0.882,0.864,1.314,2.017,1.314,3.151c0,1.134-0.432,2.286-1.314,3.169
		c-0.864,0.864-2.017,1.314-3.169,1.314c-1.134,0-2.287-0.45-3.151-1.314c-0.396-0.396-0.396-1.045,0-1.44
		c0.396-0.396,1.044-0.396,1.44,0c0.468,0.468,1.081,0.702,1.71,0.702c0.63,0,1.243-0.234,1.729-0.702
		c0.486-0.486,0.721-1.099,0.721-1.729c0-0.631-0.234-1.243-0.721-1.711c-0.468-0.486-1.08-0.702-1.71-0.72
		c-0.288,0.018-0.558-0.108-0.738-0.324c-0.018,0-0.018,0-0.018-0.019c-0.415-0.396-0.415-1.026-0.036-1.44l1.836-1.872h-2.917
		c-0.558,0-1.008-0.45-1.008-1.026c0-0.559,0.45-1.009,1.008-1.009h5.312c0.576,0,1.026,0.45,1.026,1.009
		c0,0.18-0.054,0.342-0.126,0.486c-0.054,0.09-0.108,0.18-0.18,0.252l-2.269,2.341C46.408,225.144,46.84,225.432,47.2,225.81z"/>
</g>
<line fill="none" stroke="#FFFFFF" stroke-width="2" stroke-linecap="round" stroke-linejoin="round" stroke-miterlimit="10" x1="168.873" y1="30.529" x2="157.059" y2="49.182"/>
<path fill="none" stroke="#FFFFFF" stroke-width="2" stroke-linecap="round" stroke-linejoin="round" stroke-miterlimit="10" d="
	M159.206,29.529"/>
<path fill="#FFFFFF" d="M160.175,31.965c-0.426,0.094-0.85-0.172-0.948-0.596c-0.099-0.424,0.164-0.844,0.589-0.939l9.423-1.774
	c0.425-0.095,0.848,0.17,0.948,0.596l2.897,8.395c0.099,0.424-0.165,0.843-0.589,0.939c-0.426,0.095-0.85-0.172-0.947-0.595
	l-2.843-7.431L160.175,31.965z"/>
<line fill="none" stroke="#FFFFFF" stroke-width="2" stroke-linecap="round" stroke-linejoin="round" stroke-miterlimit="10" x1="444.873" y1="47.29" x2="433.059" y2="28.637"/>
<path fill="#FFFFFF" d="M436.175,45.854c-0.427-0.094-0.85,0.172-0.948,0.596c-0.099,0.424,0.164,0.844,0.589,0.939l9.423,1.774
	c0.425,0.095,0.848-0.17,0.948-0.596l2.897-8.395c0.099-0.424-0.165-0.843-0.589-0.939c-0.426-0.095-0.85,0.172-0.947,0.595
	l-2.843,7.431L436.175,45.854z"/>
</svg>
