<?xml version="1.0" encoding="utf-8"?>
<!-- Generator: Adobe Illustrator 16.0.4, SVG Export Plug-In . SVG Version: 6.00 Build 0)  -->
<!DOCTYPE svg PUBLIC "-//W3C//DTD SVG 1.1//EN" "http://www.w3.org/Graphics/SVG/1.1/DTD/svg11.dtd">
<svg version="1.1" id="Calque_1" xmlns="http://www.w3.org/2000/svg" xmlns:xlink="http://www.w3.org/1999/xlink" x="0px" y="0px"
	 width="500px" height="500px" viewBox="0 0 500 500" enable-background="new 0 0 500 500" xml:space="preserve">
<polygon id="Provence-Alpes-Côte_d_x27_Azur" fill="#FFFFFF" stroke="#010101" stroke-width="2" stroke-linecap="round" stroke-linejoin="round" points="
	401.726,297.545 403.143,297.711 405.345,297.711 407.554,298.182 408.811,298.809 409.443,299.599 409.915,301.324 
	410.229,302.269 410.86,302.905 416.843,305.103 417.628,304.949 418.732,304.476 419.988,302.905 420.62,301.643 420.78,300.544 
	420.935,299.754 421.407,299.127 422.197,298.654 424.872,298.809 425.977,298.489 429.284,296.447 431.959,296.128 
	431.959,296.128 430.7,297.237 429.596,298.654 429.596,298.654 431.174,301.018 432.744,302.269 432.902,303.213 432.902,303.213 
	432.744,304.324 433.063,305.422 434.161,307.312 435.104,308.102 438.258,308.41 440.62,310.146 441.094,313.771 441.094,313.771 
	440.933,320.857 440.933,320.857 442.511,323.525 445.498,326.054 451.799,329.667 453.374,330.139 457.939,329.194 459.517,329.36 
	463.921,331.25 465.657,332.974 465.97,333.611 466.13,334.391 466.13,334.391 466.13,334.863 466.13,335.182 466.13,335.182 
	466.13,335.808 466.13,335.808 465.811,335.808 465.498,337.863 465.338,338.017 465.338,338.017 466.442,340.697 466.915,343.838 
	467.228,344.949 469.909,350.145 470.534,351.869 470.534,351.869 468.964,351.869 465.657,350.924 463.921,350.924 
	461.878,352.034 460.302,354.077 459.67,356.593 459.67,356.593 460.614,359.273 460.614,359.273 459.356,360.219 456.21,365.567 
	451.64,369.193 450.694,370.93 450.694,370.93 451.014,374.709 453.057,378.322 455.737,381.156 458.1,383.212 458.1,383.212 
	455.105,384.782 454.474,385.88 453.688,389.825 453.528,390.604 453.374,391.242 453.374,391.242 453.847,392.34 454.161,392.966 
	456.21,395.329 456.835,396.592 457.939,399.108 458.412,400.053 459.197,400.843 461.087,402.26 461.878,403.205 462.351,404.469 
	462.663,405.566 463.136,406.666 463.921,407.609 465.185,408.083 466.283,407.929 467.388,407.609 468.491,407.456 
	469.749,407.775 474.945,410.609 478.565,412.027 488.172,417.849 489.902,418.641 492.264,418.948 493.368,419.42 494,420.365 
	494.626,421.475 495.417,422.255 496.202,422.419 499.822,422.572 515.57,418.003 518.245,417.849 521.871,415.334 524.705,415.806 
	524.705,415.806 523.441,419.893 523.441,419.893 524.546,422.255 526.595,424.309 528.012,427.298 528.012,427.298 
	527.853,429.505 526.748,430.922 525.49,431.867 524.546,432.965 523.914,434.536 523.128,437.371 522.496,438.788 520.454,440.996 
	515.729,444.929 513.993,447.763 510.062,452.181 508.645,454.695 508.645,454.695 509.116,457.848 510.847,463.824 
	509.742,464.769 509.27,464.769 508.957,464.769 508.645,464.935 508.484,465.241 508.645,466.824 508.645,467.295 507.853,467.768 
	507.38,467.604 506.755,467.45 505.81,467.295 504.865,467.768 504.233,468.548 502.184,467.45 500.454,468.075 499.196,469.658 
	498.877,471.229 497.46,471.701 496.516,472.965 496.516,474.381 496.043,475.634 494.313,475.8 494.626,475.327 494.945,474.217 
	490.534,474.688 489.749,474.536 488.485,474.063 487.387,475.008 485.65,477.523 484.865,478.314 483.921,478.787 482.976,479.259 
	481.719,479.259 480.142,479.885 479.197,480.994 478.565,482.094 477.939,482.72 477.62,483.664 477.62,489.499 477.467,490.443 
	477.467,491.069 477.467,491.541 476.994,492.167 476.203,492.333 475.891,491.694 475.73,490.75 475.418,490.443 473.056,491.069 
	470.694,492.333 468.491,492.958 466.442,492.167 465.025,493.277 463.449,494.057 462.191,495.167 460.934,497.21 461.087,497.21 
	461.087,499.253 460.934,499.253 460.774,499.571 457.468,505.394 457.308,505.56 456.995,505.713 456.363,505.713 456.05,506.032 
	455.891,507.756 455.418,508.228 454.946,508.394 454.32,508.394 453.688,508.228 453.528,507.756 453.216,507.13 452.743,507.756 
	452.271,508.7 452.271,509.173 447.707,509.339 445.344,508.7 443.608,507.283 442.352,508.547 441.406,510.756 440.774,512.953 
	440.147,516.732 439.043,517.522 437.626,517.995 436.209,519.259 435.424,520.829 434.951,522.246 434.161,523.19 432.117,523.51 
	429.755,524.763 428.338,525.872 428.179,526.97 428.811,527.123 437.468,526.652 437.626,527.442 436.841,529.486 436.37,530.123 
	436.051,530.276 435.736,530.749 435.578,532.013 435.736,532.639 436.209,533.266 436.683,533.736 436.841,534.056 
	436.209,534.847 432.591,537.835 433.063,539.571 432.117,539.879 430.382,540.669 429.438,540.35 429.123,539.724 428.811,538.779 
	428.491,537.835 427.548,537.043 425.185,536.736 423.456,537.835 422.039,539.252 420.62,540.35 419.676,540.516 417.474,540.35 
	416.369,540.35 414.479,541.142 412.59,542.086 409.756,542.24 408.971,542.878 408.179,544.448 408.179,545.393 408.179,546.185 
	407.708,547.129 409.124,549.019 408.339,549.799 405.032,549.645 404.719,549.172 404.56,547.909 404.087,546.81 403.143,546.338 
	402.038,546.185 400.78,545.547 399.995,545.393 393.854,545.239 392.909,545.393 390.86,546.657 390.229,548.38 390.075,550.589 
	389.131,553.105 390.388,553.742 390.86,553.896 391.646,553.896 391.646,554.687 390.075,555.159 384.088,554.995 382.357,554.687 
	382.357,553.896 385.505,553.896 386.137,553.578 386.609,551.535 386.609,550.271 385.824,549.645 379.211,549.326 
	378.738,548.854 377.002,547.755 374.327,546.965 371.493,547.129 369.443,547.909 369.604,547.282 369.763,546.02 369.916,545.393 
	368.499,545.393 367.082,545.865 364.407,547.129 365.983,547.755 367.873,549.964 369.443,550.589 369.443,551.38 366.456,550.908 
	365.039,550.908 364.407,551.853 364.095,553.423 363.149,554.05 361.101,553.896 356.689,552.006 355.745,551.38 355.272,549.799 
	356.063,548.546 358.898,547.129 358.426,546.657 357.794,546.338 356.063,546.338 355.272,545.865 355.119,544.295 
	354.327,543.822 352.285,543.658 350.549,543.031 347.089,541.142 347.714,538.933 345.984,537.989 341.261,537.835 
	340.947,538.153 340.788,538.779 340.476,539.252 340.003,539.571 339.371,539.406 338.898,539.099 338.426,538.779 
	337.322,538.153 336.536,537.516 334.334,534.528 333.543,534.209 331.973,535.319 330.868,536.1 329.764,536.265 329.138,535.792 
	328.193,535.002 326.145,534.683 323.782,534.847 322.365,535.319 321.106,534.683 318.586,534.847 317.327,534.375 316.696,533.11 
	317.01,531.847 317.642,530.596 318.427,528.706 318.586,527.915 318.746,526.97 318.427,526.97 317.8,526.652 317.169,526.025 
	316.856,525.233 316.856,518.786 314.335,517.05 302.211,519.884 298.272,519.259 297.015,519.731 291.347,519.884 288.984,519.259 
	286.623,516.732 286.15,513.896 287.409,511.382 290.242,509.811 298.272,509.811 300.794,509.173 302.525,507.756 304.415,505.394 
	305.518,502.726 305.2,499.726 302.525,501.462 300.004,502.406 297.642,501.934 295.751,499.726 295.127,497.836 295.127,496.737 
	294.653,496.112 292.764,495.474 291.974,495.32 289.931,495.474 289.611,495.001 288.194,493.277 287.722,492.958 287.095,493.75 
	286.463,495.474 285.992,497.057 285.831,498.001 286.463,500.363 287.248,501.462 288.353,501.934 289.611,503.032 
	290.716,506.185 289.611,509.02 287.567,510.437 285.36,509.811 283.471,510.437 278.592,507.603 276.384,508.7 275.445,509.491 
	273.236,509.964 272.292,510.756 271.5,512.479 271.974,513.117 272.917,513.896 273.556,515.786 270.083,514.841 266.304,512.646 
	263.163,509.811 261.899,506.504 262.054,499.253 261.899,497.21 261.273,495.32 260.329,493.112 259.065,491.388 257.494,490.443 
	257.494,491.222 260.163,495.474 260.636,496.737 260.636,505.713 261.899,509.811 264.262,512.326 267.096,514.369 269.14,516.732 
	265.997,517.995 252.771,517.369 249.146,516.26 246.63,515.16 246.937,514.216 247.728,512.007 248.354,509.491 248.2,507.283 
	245.838,505.394 241.906,504.614 215.605,503.823 216.551,501.934 216.87,500.836 217.023,500.197 217.023,500.197 217.177,500.044 
	217.342,500.044 217.814,499.726 218.594,499.726 219.385,499.419 220.011,498.627 220.648,498.001 222.691,497.683 223.79,497.21 
	225.207,496.265 228.833,493.112 229.305,492.958 230.875,492.486 231.348,492.333 231.514,491.86 231.667,491.069 231.82,490.597 
	232.14,490.124 232.765,489.651 233.237,489.499 234.82,489.499 235.293,489.333 235.765,488.86 236.071,488.234 236.544,486.664 
	236.544,485.873 236.237,485.554 235.446,485.72 234.974,485.72 234.501,485.554 234.029,485.4 233.71,485.081 233.557,484.774 
	233.557,484.302 233.71,483.83 234.501,482.247 234.82,481.621 235.127,480.357 235.6,479.578 237.808,476.271 239.851,474.536 
	242.378,473.744 242.685,473.744 243.157,473.744 243.63,473.744 246.464,474.688 247.256,475.161 247.881,475.634 248.354,475.8 
	248.673,475.952 249.146,475.952 249.464,475.952 249.771,475.48 250.09,474.854 250.562,473.438 250.562,472.646 250.562,472.021 
	250.409,471.701 250.409,471.229 250.409,470.757 250.409,470.284 251.979,466.824 253.077,463.518 253.396,462.254 
	253.396,461.462 253.396,460.518 252.924,457.848 252.924,457.375 252.606,456.585 252.606,455.168 252.606,454.068 
	253.243,453.432 254.341,452.487 257.022,451.069 260.329,448.235 261.58,447.61 264.58,446.346 265.053,445.874 265.36,445.567 
	265.997,445.094 267.096,444.304 267.568,443.831 268.193,443.204 268.667,442.412 268.832,441.941 268.985,441.469 
	268.985,440.996 268.832,439.105 268.832,438.315 268.832,438.008 268.832,438.008 269.304,437.843 269.61,437.843 269.93,437.843 
	269.93,438.008 270.083,438.008 270.557,438.008 270.876,438.008 271.029,438.008 271.029,438.008 271.193,438.008 271.193,437.843 
	271.347,437.688 271.347,437.371 271.5,436.898 271.5,436.426 271.347,435.799 271.029,435.174 269.304,433.284 265.053,427.449 
	264.58,426.979 263.943,426.825 263.47,426.671 262.526,426.506 262.054,426.671 261.58,426.825 260.954,427.143 260.636,427.143 
	260.329,426.825 260.01,426.198 259.69,422.419 259.69,421.782 259.856,421.31 260.01,421.002 260.01,420.365 260.163,418.948 
	260.163,417.849 259.856,414.071 259.69,413.599 259.384,412.972 258.593,412.18 257.329,411.39 257.022,411.082 256.856,410.445 
	256.856,409.5 257.022,408.873 256.856,408.402 256.703,407.929 255.913,406.984 254.967,405.722 254.188,402.732 254.188,397.064 
	256.703,396.592 259.384,396.746 261.899,397.064 262.69,397.383 263.316,397.855 264.733,398.953 265.36,399.898 265.833,400.843 
	267.887,406.83 268.359,407.456 268.985,408.083 269.93,408.402 271.029,408.083 271.974,407.456 273.556,406.193 274.5,405.722 
	275.28,405.566 277.647,405.249 278.433,405.095 280.164,404.469 281.898,403.359 283.629,402.579 289.77,400.843 291.028,400.843 
	295.127,401.788 296.544,401.635 297.642,401.315 298.904,399.898 299.531,399.426 300.163,399.272 300.636,399.745 
	300.794,400.689 300.477,401.635 299.689,403.359 299.689,404.303 299.689,406.039 299.851,406.984 300.163,407.775 
	301.108,408.721 302.364,409.346 305.2,409.818 306.776,409.818 308.034,409.5 309.297,409.5 315.593,411.862 316.856,412.027 
	317.642,411.862 318.586,412.18 319.217,412.652 319.844,413.916 320.163,414.861 320.316,415.806 320.476,416.751 321.106,417.529 
	321.893,418.322 323.47,419.112 326.776,421.947 327.562,422.419 330.709,422.727 333.543,421.002 336.064,418.322 337.169,416.751 
	338.267,415.642 339.53,415.334 341.732,415.642 342.678,416.432 343.15,417.223 343.31,418.003 343.622,418.641 344.254,419.266 
	345.039,419.266 345.672,419.112 345.984,418.322 345.672,415.334 346.616,413.752 346.929,408.721 346.77,405.414 346.297,404.469 
	345.512,403.996 344.095,403.359 343.463,402.732 342.364,401.315 341.732,400.689 341.261,399.898 341.261,399.108 
	341.732,398.009 342.046,397.217 341.573,396.592 340.947,396.438 340.156,396.272 335.904,396.592 335.279,396.272 
	333.543,395.329 332.598,395.021 330.868,394.702 330.396,394.549 329.923,394.229 326.457,391.549 326.145,390.923 
	325.984,390.297 325.831,389.033 325.672,388.408 325.199,387.463 323.94,386.046 323.623,385.409 323.623,384.629 324.728,384.156 
	325.513,384.156 328.034,384.936 328.819,384.936 329.451,384.782 329.923,384.31 330.236,383.838 330.236,382.893 329.923,382.573 
	329.451,382.103 328.819,381.629 328.193,381.156 327.721,380.377 327.401,379.586 327.089,378.641 327.089,377.85 327.247,377.07 
	327.721,376.598 328.819,376.279 329.61,376.279 332.444,376.752 337.954,378.796 338.739,378.96 339.844,378.641 343.782,375.653 
	344.567,374.862 344.407,373.445 343.936,372.5 343.31,371.875 341.101,370.291 340.476,369.347 340.156,368.876 340.003,368.096 
	340.003,367.457 340.003,366.832 340.476,365.887 343.15,361.789 343.782,360.371 344.095,359.12 344.095,358.176 344.407,357.384 
	345.825,356.758 346.77,356.758 347.561,356.912 348.659,357.064 350.235,357.384 351.34,357.064 352.438,356.758 354.015,355.967 
	356.689,355.647 357.321,355.176 358.738,353.758 359.37,352.813 359.996,352.034 359.996,351.09 359.843,350.298 358.898,349.507 
	358.267,348.408 360.469,344.63 361.26,343.685 362.518,343.213 363.462,343.059 366.137,343.213 367.873,342.894 371.493,341.643 
	372.278,341.004 372.75,340.225 372.91,338.961 372.597,338.017 372.438,337.071 372.91,336.28 374.959,334.557 376.529,333.445 
	377.321,333.138 378.106,332.974 379.051,333.138 380.468,333.765 381.413,333.765 382.198,333.445 386.922,330.305 
	387.867,329.986 388.658,329.986 390.388,330.611 391.175,330.611 393.854,329.986 394.799,329.986 396.369,330.305 
	397.314,330.139 400.309,328.888 401.253,328.568 402.038,328.568 402.829,328.722 406.137,329.986 406.762,329.986 
	407.554,329.986 407.866,329.36 408.179,328.568 408.498,326.68 408.651,323.054 408.498,322.108 408.179,321.011 407.081,319.594 
	406.291,318.802 405.504,317.704 405.191,316.759 405.191,313.925 405.032,312.825 404.719,311.881 403.774,311.091 
	402.829,310.938 398.731,311.881 397.474,311.717 396.688,311.41 395.744,311.091 395.425,309.674 395.425,307.465 396.216,303.061 
	396.529,300.852 396.842,299.127 397.161,298.489 399.363,295.975 400.78,297.237 "/>
<path fill="#FFFFFF" stroke="#010101" stroke-width="2" stroke-linecap="round" stroke-linejoin="round" d="M271.347,435.799
	l-0.317-0.625l-1.726-1.89l-4.251-5.835l-0.473-0.471l-0.637-0.308l-0.474-0.165l-0.943-0.154l-0.473,0.154l-0.474,0.165
	l-0.626,0.308h-0.318l-0.307-0.308l-0.166-0.637l-0.307-3.779v-0.626v-0.474l0.153-0.319l0.153-0.471l0.166-1.572v-0.944
	l-0.319-3.777l-0.153-0.473l-0.319-0.627l-0.791-0.792l-1.099-0.79l-0.318-0.308l-0.153-0.637V409.5l0.153-0.627l-0.153-0.471
	l-0.319-0.474l-0.779-0.792l-0.944-1.415l-0.792-2.989l-4.098-1.098l-2.516-1.264l-0.472-0.318l-0.313-0.308l-0.479-0.637
	l-0.307-0.314l-0.638-0.473l-0.307-0.312l-0.16-0.473l-0.472-0.472l-2.675-1.265l-2.209-0.153l-2.675,0.319l-0.944,0.473
	l-0.473,0.778v1.584l-0.159,0.779l-0.313,0.791l-0.632,0.625l-0.785,0.474l-0.944,0.165l-0.945-0.319l-1.104-1.099l-0.312-0.944
	v-0.944l0.159-0.792l0.153-0.79l-0.312-0.78l-0.632-0.637l-1.258-0.154l-2.834,0.791l-0.785,0.307l-2.049,1.89l-2.362,1.418
	l-0.632,0.637l-1.099,1.418l-0.632,0.473l-0.785,0.152l-0.944-0.152l-0.945-0.319l-6.141-3.626l-1.104-0.307l-0.785-0.473
	l-0.472-0.944l-0.473-0.473l-0.945-0.166l-1.576,0.639h-0.785l-0.792-0.166h-0.785l-1.576,0.638l-0.785-0.164l-0.473-0.78
	l-0.312-3.943l-0.473-1.571l0.307-1.099l0.479-0.637l0.473-0.627l-0.16-1.099l-1.257-1.736l-1.258-2.834l-2.521-2.361l-2.521-9.768
	l-0.785-1.889l-1.258-2.362l-1.891-1.251l-0.943-1.89l-1.104-3.473l-0.785-5.196l-1.104-3.613l-0.312-0.473l-0.16-0.473
	l-0.312-1.416l-0.319-1.584l0.319-3.613l-2.209-0.472l-0.472-0.319l-0.626-0.318l-0.474-0.626l-0.473-0.319l-1.263-0.473
	l-1.259-0.625l-2.675-2.362l-2.52-2.681l-0.787-0.626L169,333.765l-5.038-0.791l-0.632-0.307l-0.158-0.639l0.317-0.626l0.473-0.791
	l0.154-0.78l-0.154-0.79l-0.632-0.791l-0.943-0.626l-1.577-0.319h-1.099l-0.945,0.166l-0.632,0.473l-0.473,0.625l-0.159,0.792
	l-0.153,1.724l-0.319,0.791l-0.471,0.626l-0.785,0.473l-0.787,0.164l-2.993,0.155l-0.945,0.152l-0.785,0.319l-1.264,0.785
	l-1.258-0.785l-1.729-1.89l-5.196-9.92l-0.792-2.517l-0.312-1.734l-0.312-0.626l-0.632-0.474l-0.785,0.308l-1.104-0.153
	l-1.104,0.319l-0.626,0.307l-3.624,2.526l-1.1,0.474l-0.944,0.307l-0.792-0.153l-0.785-0.153l-1.258,0.473l-5.043,5.196
	l-1.729,1.098l-1.258,0.319l-0.632-0.791l-1.417-2.209l-0.632-0.307l-0.785,0.153l-0.785,0.626l-0.632,0.944l-0.313,2.834
	l-0.632,2.835l-0.944,0.944l-1.577,0.792l-0.785,1.57l-0.785,2.521l-1.264,5.355l-0.473,4.404l-0.312,0.945l-1.577,2.208
	l-0.785,1.571l-1.258,4.098l-2.993-2.681l-0.632-0.786l-0.473-0.785l-0.626-1.735l-0.473-1.724l-0.165-0.792l-0.153-2.515
	l-0.153-0.792l-0.16-0.792l-0.312-0.778l-0.319-0.792l0.319-0.625l0.626-0.473l0.791-0.473l0.153-0.638l-0.153-0.626l-0.473-0.473
	l-0.472-0.318l-2.056-0.626l-0.779-0.473l-0.638-0.632l-0.473-0.785l-0.625-2.521l-0.473-0.785l-1.89-2.361l-0.944-2.05
	l-0.319-0.159l-0.473-0.153l-0.78,0.153l-2.68,0.637l-0.626-0.164l-0.318-0.626l0.154-1.57v-0.792l-0.154-0.791l-0.319-0.945
	l-0.473-0.778l-1.251-1.417l-0.473-0.792l-0.473-0.791l-0.471-0.473l-0.639-0.153l-11.963,12.754l-0.319,0.792l-0.154,0.778
	l-0.153,1.736l-0.159,0.792l-0.473,0.938l-2.048,2.834l-0.944,2.203l-0.154,0.791l-0.319,2.361l-0.312,0.792l-0.473,0.778
	l-0.473,0.792l-2.675,2.987l-0.944,1.583l-0.945,0.945l-1.576,0.778l-2.994,0.319h-3.46l-0.944-0.153h-0.473l-0.637,0.153
	l-0.78,0.626l-0.639,0.318h-0.471l-0.78-0.625l-0.473-0.639l-0.637-0.625l-0.78-0.153h-1.11l-5.503,1.89l-0.791,0.152l-1.418,0.785
	l-0.791,3.147l-0.944-0.153l-1.099-0.944l-0.473-1.099l-0.472-1.264l-0.626-3.625l-0.319-0.779l-0.791-0.792l-1.417-0.626
	l-0.473-0.472l0.166-0.944l0.778-1.736l1.418-6.933l-0.153-1.253l-0.473-1.582l-1.417-2.834l-3.779-5.975l-0.792-1.736l-0.471-2.209
	l-0.78-7.559l-1.11-2.361h-4.877l-1.89,0.319l-0.473,0.153l-2.363,1.264H9.965l-0.473-0.153l-0.473-0.474l-0.791-0.471H7.437
	l-0.944,0.307l-5.031,2.834l-4.723,1.581l-1.89-0.164l-1.11-0.153l-0.626-0.473l-0.473-0.625l-0.791-0.639l-1.099-0.78l-1.736-0.79
	l-0.779-0.791l-0.319-0.779l-0.319-0.792l-0.472-0.791l-3.142-2.835l-3-2.042l-1.417-0.792l-2.669-0.78l-1.11,0.155l-2.043,0.944
	l-0.471-0.319l-0.154-0.625l-0.166-0.792l-0.473-0.473h-0.625l-0.626,0.473l-0.792,0.944l-0.318,0.319l-1.418,0.319l-0.944,0.779
	l-0.307,0.318l-1.417,0.626l-2.527,1.89l-0.473,2.054l1.89,6.449v1.417l-0.473,1.109l-0.626,0.78v0.944l0.319,1.264v0.792
	l-0.319,0.943l-0.625,0.78l-3.153,3.153l-0.626,0.944l-0.792,1.265l-0.944,2.196l-0.791,1.11l-0.78,0.471h-0.792l-0.944,0.155
	l-0.945,0.472l-1.098,1.571l-0.319,1.109l0.153,0.945l0.473,0.626l0.473,0.791v1.251l-0.626,1.265l-1.417,2.042l-1.099,1.111
	l-1.11,0.625l-1.57,0.626l-0.791,0.638l-1.253,1.252l-0.791,0.473l-0.792,0.318l-1.724,0.319l-0.944,0.307l-1.264,1.265
	l-3.933,7.238l-0.945,1.417l-2.208,2.362l-2.987,2.527l-4.418,2.196l-0.944,1.11l-0.307,0.779l0.154,0.639l0.319,0.472l0.625,0.779
	l0.473,0.791l0.319,0.792l0.154,0.625l-0.154,1.89l0.154,0.792l0.153,0.625l0.319,0.626l0.318,0.639l0.307,1.57l0.319,0.791
	l0.626,0.626l1.583,1.264l0.625,1.098v1.265l-0.318,1.251v3.153l-1.252,1.264l-7.404,0.626l-1.736-0.319l-1.099-0.626l-0.625-0.625
	l-0.945-0.473l-0.791,0.153l-0.626,0.473l-0.319,0.791v0.779v0.792v0.791l-0.153,0.78l-0.318,0.79l-0.946,1.89l-0.153,0.792
	l0.626,1.416l0.473,0.626l0.625,0.473l2.362,0.792l0.637,0.472l0.626,0.626l0.153,0.791v0.78l-0.307,0.79l-3.307,7.405l-0.944,1.1
	l-2.055,1.415v0.627l0.473,0.473l0.791,0.473l0.626,0.637l0.319,0.78v1.109l-0.473,0.627l-0.626,0.473l-0.791,0.151h-0.792
	l-0.78-0.151l-1.582-0.792l-0.78-0.154h-0.792l-0.944,0.474l-0.473,0.473l-0.153,0.63l-0.165,0.785l-0.307,0.945l-0.792,0.632
	l-1.89,0.939l-0.625,0.638l-0.473,0.944l-0.639,1.725l-0.153,0.792l-0.318,1.417l-5.669,3.307l-1.89,0.317l-0.626-0.472
	l-2.515-2.521l-0.946-0.632l-1.888-0.627l-1.418,0.308l-6.141,2.362h-0.791l-0.792-0.153l-1.251-0.473l-0.946,0.153l-0.944,0.473
	l-0.792,0.79l-6.614,3.307l-1.89,0.319l-1.263,0.627l-2.361,1.57l-0.945,0.317h-0.778l-0.639-0.151l-1.724-0.946l-4.25-1.575
	l-0.946,0.158l-0.791,0.472l-0.473,0.626l-1.417,2.521l-0.473,0.786l-0.791,0.791l-1.099,0.786l-0.791,0.158l-0.626-0.158
	l-0.626-1.104l-0.944-0.319h-0.792l-2.361,0.945l-1.264,2.054l0.471,3.143l-0.153,1.109l-0.625,1.099l-0.792,0.473l-0.791,0.153
	l-3.142-0.307l-0.791-0.166l-0.626-0.308l-0.472-0.319l-0.473-0.471l-0.319-0.627v-0.79l0.153-0.627l0.792-0.943l0.318-0.639v-1.098
	l-0.165-0.627l-0.473-0.637l-0.626-0.473l-1.417-0.473l-0.944,0.319l-0.946,0.471l-2.208,1.736l-1.726,2.197l-1.11,0.792
	l-1.098,0.153h-1.736l-3.141-0.626l-1.111,0.626l-3.141,2.361l-0.791,1.109l-0.153,0.946l0.625,0.779l1.418,1.417l0.472,0.791
	l0.473,1.571l0.473,0.791l0.318,0.79v0.78l-0.637,2.209l-1.098,1.57l-0.319,1.11l-0.153,0.943l0.153,1.891l-0.153,1.099v0.791
	l0.473,0.779l0.472,0.791l0.319,0.792l-0.166,0.778l-1.724,4.252l-0.637,0.791l-0.473,0.319h-1.414l-0.785,0.473l-0.159,0.626
	l0.315,0.791l0.473,0.779v1.11l-0.473,1.417l-1.102,1.417l-0.471,0.944l0.156,0.779l1.261,0.945l0.312,0.638l0.316,1.417
	l0.315,0.626l0.629,0.944l2.989-0.318l8.349,1.736l1.735,1.264l0.946,2.361l0.626,0.626l0.944,0.626l0.626,0.638l0.637,0.945
	l2.197,5.349l0.473,1.418l0.164,1.098l-0.318,0.639l-0.626,0.307h-0.791l-0.792-0.154l-0.626,0.473l-0.154,1.099l0.307,2.361
	l0.639,0.792h0.78l0.637-0.626l0.473-0.792l0.625-0.625l0.626-0.473l0.946,0.153l0.471,0.626l0.166,0.791l-0.319,4.57l0.319,1.726
	l1.251,2.833l0.166,1.264l-0.473,0.791l-0.637,0.473l-1.724,0.473l-0.639,0.307l-0.625,0.639l-0.473,0.778l-0.473,1.11l-0.318,1.253
	l-0.153,1.89l0.791,2.36l0.153,0.639v0.627l-0.319,0.79l-0.471,0.78l-0.626,0.79l-1.57,1.417l-0.639,0.792l-0.307,0.944
	l-0.637,2.834l-0.307,1.099l-0.473,0.791l-0.637,0.308l-1.099-0.308l-0.472,0.153l-0.626,0.792l-1.264,2.987l-0.626,1.1l-0.792,0.79
	l-0.791,0.632l-1.89,0.785l-0.626,0.632l-0.625,1.259l-0.166,1.89v1.417l0.637,2.36l-0.471,0.946l-0.792,0.631l-0.944,0.159h-2.678
	l-0.785,0.313l-0.632,0.472l-1.102,1.419l-1.573,1.575l-0.632,1.098l-0.157,0.946l0.157,0.79l0.472,1.73v1.104l-0.156,1.891
	l-0.473,1.098l-0.629,0.945l-0.788,0.79l-0.629,1.098l-0.315,0.946l-0.156,0.943v0.793l0.156,1.57l0.629,3.152l0.315,2.203
	l5.196,3.147l1.102,2.207l2.358,0.314l2.681-0.632l1.572-0.627l-0.154,2.203l0.472,2.048l1.099,1.89l1.417,1.259l0.637,0.632
	l0.154,0.785l0.319,0.785l0.944,0.473l1.099,0.319l0.626,0.626l0.471,0.63l0.473,0.474l3.626,1.418l3.153-0.313l6.92-2.521
	l5.516-0.785l1.735-1.104l1.418-0.159l4.724,1.264l1.417,0.785l1.89,3.465l1.417,1.731l1.251-0.159l2.528-3.62l1.571-1.576
	l1.57-0.626l2.527,2.202l0.153,0.473v0.473v0.473l0.473,0.472l1.736,0.313l1.724-0.155l3.473-0.943l1.57,0.626l11.183-0.312
	l3.143,0.472l1.263-0.472l0.625-0.945l0.166-0.312l0.153-2.049l-0.626-1.892l-1.11-1.417l-1.251-0.471l0.626-1.258l0.318-0.473
	l0.626-0.474l-0.944-1.417l1.264-3.465l-0.166-2.676l0.473-1.735l2.054-0.785l2.516-0.159l1.571,0.159l3.153,1.258l1.57,0.319
	l1.736-0.16l1.57,0.312l3.945,2.362l2.668,1.104l0.792,0.631l1.417,1.417l0.944,0.474l0.792-0.474l0.78-0.631l0.944-0.312
	l0.791,0.312l1.418,1.258l0.625,0.472l7.725,0.473l1.888,0.631l1.572,1.417l0.944,1.731l0.626,1.89l0.944,1.736l1.583,1.098
	l0.944,0.158l2.989-0.943h11.184l2.043,0.632l-0.319,1.73l0.473,0.473h0.791l0.792,0.472l1.57,2.835l1.736,2.361l1.57,4.252
	l1.264,1.729l2.043-0.785l1.417-4.884l2.834,0.16l2.682-0.945l1.417-0.159l4.877,3.307l0.946,0.473l10.238,1.104l-0.791,2.521
	l1.417,0.944l2.043,0.626l0.791,1.104l0.319,0.473l-2.208,0.16l-1.736,1.57l-0.945,2.521l-0.307,2.993l0.307,0.153l0.166,0.319
	v0.313v0.312l1.724,0.632l5.669,0.785l1.89,0.791l5.043,3.46l2.042,0.473l1.736,0.16l1.417,0.631l1.258,2.043l1.104,4.57
	l0.944,1.891l1.731,1.57l1.104,0.791l1.258,0.153l2.361-0.312l1.417-0.473l1.104-0.632l1.57-1.57l2.209-1.577l0.473-0.785
	l0.625-1.89l0.473-0.632l1.417-0.632l4.252,0.473l5.514-1.73l2.835-0.312l2.515,1.417l1.11,0.944l5.196,2.516l2.835,0.632h1.417
	l0.625,1.89l1.418,1.89l1.735,1.417l1.725,0.473l1.89,1.104l0.944,0.312h0.944l0.638-0.632l0.78-1.89l0.791-0.626h1.736l4.086,1.418
	l2.049,0.312l2.361-0.16v-0.472l-1.104-1.258l-0.785-2.362l0.785-1.104l3.778-2.988l1.577-0.791l1.895-0.153l3.614,0.626l1.89-0.313
	l1.417-0.944l2.682-2.675l1.417-0.945l1.417-0.159h1.57l1.583-0.312l2.987-2.362l2.834,1.099l1.571-0.945l0.944,0.16h2.681
	l0.626,0.159l0.639,1.257l0.625,1.104l0.945,0.945l1.098,0.626l1.89,0.631l2.362,0.313l2.361-0.153l6.143-1.104l0.164-0.785v-2.993
	l-3-4.093l-6.294-6.46l-0.945-2.361L112,606.018v-1.416l-0.319-0.633l-0.472-0.312l-1.265,0.16l-0.472-0.16l-0.626-0.945
	l-0.319-0.944l0.16-1.104l0.944-1.259l1.104,1.731l0.473,0.473l0.312-0.785l1.104-6.143l0.153-2.201l-0.153-2.209l-0.473-2.203
	l-0.632-0.943l-0.944-0.473l-2.521-0.786l-1.418-0.158l-0.785-0.473l-0.632-0.786l-0.625-1.735l-0.633-0.785l3.62-3.78l1.104-0.471
	l0.312-0.634l-0.153-2.833l0.312-0.627l0.785,0.153l1.265,0.634l0.625-0.16l1.417-1.417l-0.472-1.259l-2.516-2.048l-0.944-1.89
	l-0.16-1.891l0.785-1.416l1.89-0.312l-1.257,2.202l-0.313,1.104l0.473,0.943l1.098,0.314l0.473-0.945l0.473-1.259l0.632-0.632
	l0.312-0.626l0.319-1.576l0.312-3.147l0.473-1.264l1.731-1.89l0.471-1.57l-0.626-1.104l-1.576-0.944l-1.417-1.73l-0.632-3.466
	l0.472-0.943l1.104-0.314h2.521l0.473,0.473l-0.79,0.944l-1.731,1.258v0.785l1.258,0.791l0.632,0.786l0.473,0.472l0.944-0.159
	l2.521-3.933l0.473-1.417l1.098-1.264l2.049-1.89l0.632-1.098l0.787-2.362l0.631-1.104l1.571-1.889l12.441-9.448l3.307-1.577
	l2.202-0.472l3.625,1.736l1.891-0.792l7.398-9.129l2.994-2.521l10.232-5.509l17.95-14.803v-0.945l-2.993,1.104l-2.675,2.202
	l-4.725,5.196l-4.563,4.092l-2.994,1.577l-2.994,0.159v-0.791l7.559-3.147l1.264-1.417l0.312-1.89l0.631-1.104l5.823-4.877
	l2.362-1.417l5.668-1.736l4.099-2.987l2.675-0.945l5.036-0.791l-0.785,1.89l-1.104,1.264l-1.57,0.785l-2.049,0.473l-4.252,0.312
	l-2.049,0.632l-1.258,1.576l2.994-1.416l5.509-0.633l5.196,0.473l2.362,1.89l0.159,0.473l1.73,6.613l0.472,1.104l0.633,0.785
	l1.889,0.944l2.203,0.473h1.729l0.945-1.73l0.318-1.104l0.153-0.631l0,0v-0.154h0.16l0.472-0.318h0.786l0.632-0.473l0.632-0.785
	l0.785-0.632l2.049-0.313l1.098-0.472l1.418-0.945l3.625-3.147l0.313-0.159l1.729-0.472l0.319-0.16l0.312-0.312l0.16-0.785
	l0.153-0.473l0.318-0.473l0.626-0.318l0.632-0.154l1.577-0.159l0.472-0.159l0.473-0.473l0.473-0.785l0.473-1.576v-0.785
	l-0.319-0.313l-0.945,0.153H235.6l-0.473-0.153l-0.473-0.159l-0.312-0.312l-0.159-0.319v-0.313l0.159-0.473l0.785-1.576l0.319-0.626
	l0.312-1.104l0.473-0.944l2.361-3.307l2.05-1.577l2.361-0.785l0.473-0.159h0.473l0.472,0.159l2.835,0.945l0.785,0.473l0.632,0.472
	l0.473,0.16l0.472,0.153h0.473h0.319l0.307-0.313l0.318-0.632l0.473-1.417l0.153-0.785v-0.632l-0.153-0.312v-0.473v-0.473
	l0.153-0.473l1.583-3.466l1.098-3.307l0.153-1.417v-0.785v-0.945l-0.472-2.674l-0.153-0.473l-0.16-0.946l-0.159-1.416l0.159-0.944
	l0.632-0.634l1.099-0.943l2.681-1.417l3.46-2.834l1.104-0.634l2.994-1.256l0.625-0.473l0.16-0.312l0.632-0.474l1.098-0.631
	l0.632-0.474l0.632-0.785l0.473-0.79l0.153-0.473l0.161-0.473v-0.474l-0.161-1.888v-0.785v-0.314v-0.158h0.319h0.312h0.473l0,0
	h0.159h0.473h0.312h0.16l0,0l0,0l0,0l0.154-0.161l0.158-0.312v-0.473v-0.471L271.347,435.799z M13.896,630.104l-0.944,0.166h-0.319
	l-2.043-0.319l-1.263-0.944l-0.153-1.571l0.945-2.208l0.944-0.473l0.945,1.264l0.944,2.043l0.944,1.736V630.104z"/>
<polygon id="Centre" fill="#FFFFFF" stroke="#010101" stroke-width="2" stroke-linecap="round" stroke-linejoin="round" points="
	97.828,-101.302 99.08,-101.302 100.663,-101.148 104.123,-100.204 105.221,-99.413 106.013,-98.94 106.638,-98.149 
	106.957,-97.204 108.693,-90.591 109.319,-89.493 110.11,-88.547 112.944,-86.339 114.362,-84.769 114.669,-83.823 114.834,-82.879 
	115.141,-80.517 114.669,-78.781 112.944,-74.695 112.153,-73.431 111.362,-72.806 109.473,-71.695 108.527,-70.916 107.11,-69.18 
	106.484,-68.389 105.693,-68.082 104.442,-68.235 104.123,-67.917 103.804,-66.972 104.276,-63.511 104.596,-62.247 
	105.387,-60.677 105.693,-59.885 105.221,-58.787 104.749,-57.997 104.442,-57.37 104.276,-56.579 104.596,-55.634 104.596,-54.69 
	104.596,-53.744 103.804,-52.493 103.024,-51.855 100.024,-50.757 97.19,-48.867 96.246,-48.548 95.467,-48.548 93.73,-48.713 
	91.994,-48.395 91.05,-48.076 90.424,-47.604 89.797,-46.978 89.633,-46.659 89.326,-45.407 89.326,-44.144 89.479,-43.045 
	89.797,-42.254 90.743,-41.628 91.521,-41.628 92.467,-41.309 93.258,-40.683 95.773,-38.321 96.884,-37.211 98.135,-34.696 
	98.607,-33.279 98.607,-32.015 97.663,-30.444 97.828,-29.346 98.301,-28.083 100.97,-24.622 101.761,-22.414 99.871,-21.788 
	96.411,-21.788 95.467,-21.469 91.841,-19.426 91.841,-18.788 91.521,-18.316 93.884,-15.328 94.828,-13.438 95.62,-11.076 
	96.246,-9.978 97.828,-7.923 98.301,-7.144 98.454,-6.506 98.454,-5.562 97.828,-1.782 97.51,-1.31 97.037,-0.058 96.718,0.887 
	96.564,1.359 96.246,1.997 95.301,4.04 94.203,5.457 93.411,7.193 93.258,7.665 93.258,8.138 93.411,8.917 94.05,10.028 
	94.521,10.653 94.828,10.972 95.301,11.279 95.62,11.598 96.564,11.917 96.884,12.07 97.19,12.39 99.553,15.53 100.19,16.168 
	101.607,17.113 102.08,17.585 102.387,18.365 102.706,19.475 103.65,24.199 103.804,24.671 104.442,26.088 105.693,29.868 
	106.804,33.801 106.957,34.272 107.583,36.634 107.583,37.579 107.583,38.678 107.43,40.732 107.276,41.831 107.43,42.776 
	107.902,43.721 108.221,44.192 109.944,45.763 110.264,46.083 110.583,46.401 110.736,46.874 110.89,49.389 110.89,52.696 
	111.209,54.266 111.362,55.211 111.362,56.321 111.056,57.738 110.417,60.726 109.638,62.934 109.473,63.561 109.473,64.187 
	109.638,65.297 109.791,65.922 110.89,67.965 110.89,68.438 111.056,68.91 111.209,69.855 110.89,70.8 110.264,72.217 
	108.221,76.162 107.749,77.26 107.583,77.578 107.276,80.413 104.749,80.413 102.387,80.094 98.301,81.357 92.633,85.137 
	91.994,85.609 91.368,87.026 90.896,87.971 89.951,88.916 89.007,88.75 88.062,88.443 86.964,88.278 86.172,88.75 84.755,90.333 
	83.964,90.486 80.977,89.223 80.504,88.597 80.185,88.125 79.405,87.805 78.934,88.278 77.517,90.014 74.835,92.376 73.264,93.64 
	70.902,93.64 70.431,94.112 70.431,94.738 70.737,96.627 70.265,97.419 69.32,97.572 67.277,97.419 66.651,97.572 66.332,98.044 
	66.332,98.836 66.651,99.461 67.595,100.879 67.902,101.67 67.749,102.143 67.124,103.395 66.958,104.339 67.124,105.13 
	67.595,106.075 69.014,107.811 69.485,108.59 69.792,109.382 69.958,109.854 70.111,110.48 70.111,111.118 69.958,111.743 
	69.638,112.062 62.081,114.259 57.829,114.578 55.314,115.204 54.522,115.204 53.578,115.05 52.161,115.204 50.425,115.676 
	44.921,118.356 43.658,120.565 42.712,121.51 41.922,121.982 41.295,122.136 40.669,122.609 40.198,123.234 39.559,124.817 
	37.198,128.903 28.222,128.431 23.499,129.541 20.511,128.277 15.315,128.277 14.689,128.124 12.799,127.013 11.689,126.706 
	3.659,126.541 2.713,126.706 1.769,127.013 -0.121,128.431 -0.9,128.903 -2.164,128.75 -2.955,127.958 -4.844,125.442 
	-5.624,124.817 -6.415,124.817 -7.207,124.971 -7.986,126.069 -8.151,127.013 -8.151,127.805 -7.986,128.75 -7.986,129.541 
	-8.304,130.32 -8.624,131.112 -9.403,131.737 -10.513,132.056 -14.292,131.112 -15.237,131.43 -16.336,132.209 -17.28,133.001 
	-18.071,133.792 -19.17,133.946 -20.74,133.628 -21.531,132.848 -21.685,132.056 -21.531,131.265 -22.004,130.639 -22.949,130.166 
	-25.311,130.639 -26.574,130.32 -27.52,129.848 -28.463,129.695 -29.88,130.013 -35.703,136.155 -38.537,137.878 -42.636,135.209 
	-43.107,134.418 -43.414,133.473 -44.053,132.682 -44.833,132.056 -45.776,131.902 -47.04,132.529 -47.513,133.319 -47.832,134.099 
	-48.457,134.891 -49.722,135.209 -53.653,135.682 -54.917,135.682 -56.016,135.516 -57.279,134.572 -58.377,134.418 
	-59.949,133.155 -58.377,127.805 -59.476,126.234 -61.212,125.124 -62.156,124.499 -63.102,123.081 -63.255,121.982 
	-62.476,118.829 -62.476,118.356 -62.783,117.566 -63.102,116.939 -63.573,115.996 -64.365,115.204 -65.145,114.578 
	-65.936,114.259 -66.88,113.952 -72.396,113.952 -73.493,113.479 -73.966,112.689 -74.12,110.646 -74.758,110.008 -75.383,109.701 
	-77.119,109.229 -79.635,107.811 -81.678,105.921 -82.788,104.658 -83.568,103.395 -84.04,101.351 -84.359,99.615 -84.359,96.946 
	-84.205,96.155 -84.04,95.363 -83.732,94.419 -83.415,93.64 -83.415,92.376 -83.732,90.805 -84.832,88.443 -85.457,87.18 
	-87.346,84.972 -91.125,81.83 -101.837,65.922 -103.727,60.254 -104.671,58.364 -105.616,57.266 -106.561,56.628 -108.451,55.849 
	-113.494,52.696 -114.591,52.224 -114.745,52.542 -114.911,52.696 -114.745,53.167 -114.745,53.487 -114.745,54.585 
	-114.591,55.058 -114.438,55.376 -114.119,55.684 -113.965,56.156 -113.801,56.475 -113.647,56.947 -113.494,57.419 
	-113.494,57.892 -113.801,58.364 -114.591,58.683 -115.382,58.99 -122.622,59.309 -124.192,59.781 -124.984,60.1 -125.457,60.726 
	-126.082,61.352 -127.027,61.671 -131.125,60.879 -135.058,61.352 -136.793,60.879 -137.738,60.1 -138.364,59.155 -138.684,58.21 
	-138.837,57.266 -138.837,55.376 -138.837,52.849 -138.21,50.18 -138.057,48.598 -138.21,47.818 -138.53,47.181 -139.308,47.027 
	-141.198,46.874 -141.836,46.236 -142.308,44.818 -142.934,44.511 -143.726,44.346 -145.768,45.138 -146.867,45.456 -148.13,45.456 
	-148.922,44.984 -149.076,44.192 -148.922,43.248 -148.604,42.303 -148.45,41.358 -148.604,40.26 -148.922,39.315 -149.701,38.996 
	-151.756,39.788 -153.008,39.788 -153.48,39.15 -153.646,38.524 -153.646,37.579 -153.48,36.788 -153.953,36.008 -154.59,36.008 
	-156.161,36.954 -157.106,37.107 -157.897,36.788 -158.37,36.008 -158.843,35.064 -159.314,34.272 -160.259,32.537 -158.843,22.31 
	-157.26,14.905 -156.787,13.168 -156.314,12.224 -155.217,10.5 -152.701,7.028 -150.174,2.776 -150.174,1.678 -150.646,-0.838 
	-150.493,-2.101 -149.394,-5.408 -149.076,-7.297 -146.241,-13.757 -146.087,-14.702 -146.241,-15.801 -146.867,-18.163 
	-146.867,-19.898 -146.56,-21.469 -144.351,-27.138 -140.419,-26.039 -137.892,-25.721 -132.695,-24.15 -131.444,-24.304 
	-131.125,-24.929 -131.278,-25.721 -131.597,-27.291 -131.751,-28.236 -131.751,-29.181 -131.444,-29.972 -130.334,-30.917 
	-129.388,-30.917 -127.345,-29.653 -126.082,-29.346 -125.457,-29.653 -125.303,-30.444 -124.511,-31.235 -123.094,-32.18 
	-119.468,-32.959 -114.591,-35.487 -113.494,-35.794 -112.229,-35.96 -111.285,-36.267 -110.965,-36.904 -110.965,-37.684 
	-111.131,-38.475 -111.911,-40.364 -110.812,-43.199 -108.769,-45.407 -107.034,-46.505 -105.935,-46.824 -105.769,-46.824 
	-103.727,-47.922 -101.211,-49.658 -99.948,-50.757 -99.002,-51.855 -96.641,-59.26 -96.488,-60.205 -96.488,-61.149 
	-96.488,-62.247 -96.641,-63.192 -96.641,-64.137 -96.641,-65.247 -96.322,-66.5 -95.849,-67.917 -94.751,-68.861 -93.488,-69.806 
	-91.445,-71.861 -90.653,-73.113 -90.346,-74.223 -90.972,-76.112 -90.972,-77.529 -90.818,-79.1 -90.181,-81.934 -90.028,-83.351 
	-90.499,-83.978 -92.071,-84.143 -92.708,-84.296 -93.015,-84.922 -93.334,-85.713 -93.806,-86.658 -94.279,-87.756 
	-94.279,-88.866 -93.652,-89.493 -92.862,-89.646 -90.972,-89.811 -90.181,-89.964 -89.236,-90.591 -89.236,-91.382 
	-89.708,-92.008 -90.499,-92.48 -91.125,-93.118 -91.125,-94.216 -90.818,-94.842 -89.708,-95.479 -86.567,-97.676 -84.678,-98.468 
	-83.886,-99.413 -83.886,-100.204 -84.359,-100.983 -85.149,-101.456 -85.929,-101.621 -88.764,-101.774 -89.708,-102.093 
	-94.125,-105.4 -93.015,-106.026 -92.389,-106.652 -91.764,-107.443 -91.598,-108.542 -91.917,-109.958 -92.389,-111.068 
	-93.959,-113.737 -94.125,-114.057 -94.279,-114.529 -94.432,-115.474 -94.432,-116.572 -94.125,-118.308 -94.279,-119.406 
	-94.598,-120.351 -95.224,-120.823 -95.849,-121.615 -96.322,-122.559 -95.849,-124.13 -95.542,-125.075 -95.071,-125.547 
	-94.432,-125.712 -92.862,-126.019 -91.598,-126.338 -85.457,-128.854 -83.568,-130.118 -80.898,-132.633 -80.426,-133.424 
	-79.954,-135.313 -79.481,-136.105 -79.009,-137.05 -78.218,-137.995 -77.745,-138.939 -77.899,-139.884 -78.843,-141.301 
	-79.635,-142.246 -80.261,-143.025 -80.579,-143.816 -80.733,-145.081 -80.733,-146.025 -80.733,-146.97 -80.426,-147.915 
	-80.426,-148.068 -80.261,-148.541 -80.261,-149.167 -80.426,-150.111 -80.898,-151.056 -85.622,-156.417 -88.292,-157.988 
	-89.401,-159.252 -90.972,-162.239 -91.917,-164.283 -92.542,-170.424 -89.555,-173.577 -88.609,-174.368 -87.512,-174.994 
	-78.843,-177.509 -77.899,-177.509 -76.955,-177.356 -76.009,-177.509 -75.065,-177.982 -74.285,-179.092 -73.812,-180.037 
	-73.175,-180.981 -72.396,-181.607 -71.132,-182.08 -70.187,-182.233 -68.298,-182.08 -68.145,-182.08 -67.825,-182.08 
	-67.199,-182.233 -66.727,-182.706 -66.409,-183.497 -66.409,-185.233 -66.089,-185.859 -65.616,-186.012 -64.519,-185.54 
	-62.156,-183.343 -61.212,-183.024 -60.267,-182.871 -59.322,-182.706 -56.169,-183.024 -55.224,-182.871 -54.445,-182.552 
	-53.653,-181.927 -53.5,-181.927 -53.182,-182.08 -52.709,-182.233 -48.93,-184.442 -46.722,-185.387 -45.776,-186.177 
	-44.833,-187.123 -44.206,-189.012 -43.887,-190.43 -43.261,-191.681 -42.316,-192.945 -40.273,-194.834 -38.856,-195.779 
	-36.647,-196.877 -35.856,-197.515 -35.23,-198.46 -34.913,-199.877 -34.913,-200.822 -35.703,-203.81 -35.549,-204.908 
	-35.077,-205.699 -31.452,-207.908 -26.574,-198.141 -25.157,-196.251 -24.52,-194.987 -24.047,-193.099 -24.047,-191.847 
	-24.213,-190.583 -24.684,-188.693 -24.837,-187.749 -24.837,-187.123 -24.837,-186.485 -24.684,-185.067 -24.52,-184.442 
	-23.894,-183.65 -21.377,-182.08 -21.213,-181.761 -21.213,-181.289 -21.377,-180.19 -21.85,-179.246 -23.267,-177.509 
	-23.74,-176.564 -24.047,-175.62 -23.894,-174.84 -23.74,-174.203 -22.323,-173.423 -21.531,-172.632 -20.74,-170.271 
	-19.96,-168.854 -18.697,-167.436 -14.127,-164.129 -13.028,-163.185 -12.557,-161.921 -12.237,-160.031 -11.93,-159.086 
	-11.14,-158.142 -9.568,-157.197 -8.458,-156.417 -7.514,-155 -7.207,-153.891 -7.041,-152.792 -6.887,-151.848 -6.887,-151.056 
	-7.041,-149.013 -7.041,-148.068 -6.887,-147.915 -6.097,-146.025 -5.151,-144.761 -3.734,-143.498 0.67,-141.135 3.033,-140.356 
	6.339,-140.982 6.965,-140.356 7.13,-137.203 7.283,-136.105 8.229,-134.995 9.02,-134.369 9.799,-133.424 10.59,-132.007 
	10.909,-128.854 11.382,-127.13 12.162,-125.712 13.896,-124.768 14.216,-124.295 14.216,-123.504 12.953,-121.615 12.162,-120.823 
	11.689,-120.197 11.689,-119.406 11.855,-118.627 13.272,-117.682 26.333,-120.67 29.486,-122.087 30.278,-122.878 30.749,-123.658 
	31.529,-125.547 32.167,-126.019 33.112,-126.185 34.209,-125.24 35.155,-124.449 35.628,-123.504 35.781,-122.559 36.252,-121.934 
	37.362,-121.615 39.725,-122.24 40.669,-123.032 41.295,-123.977 41.922,-124.449 42.866,-124.602 46.811,-122.24 50.271,-122.878 
	51.688,-120.988 52.161,-119.725 53.424,-114.682 53.578,-114.21 53.731,-114.057 58.774,-110.596 60.038,-109.333 60.664,-108.234 
	60.664,-107.289 60.345,-106.499 59.4,-104.762 59.4,-104.455 59.4,-104.136 60.038,-103.038 60.191,-102.247 60.038,-101.621 
	59.565,-101.148 59.247,-100.983 56.885,-101.456 56.093,-101.456 55.468,-100.829 54.995,-100.039 54.841,-99.259 54.995,-98.468 
	55.621,-97.676 56.412,-97.051 57.829,-96.732 59.094,-96.732 62.234,-97.676 63.817,-97.842 76.098,-96.897 77.351,-97.204 
	79.087,-98.468 80.031,-99.413 80.657,-100.357 81.602,-101.148 83.019,-101.621 85.381,-101.928 86.491,-101.456 86.798,-100.829 
	86.325,-100.039 86.018,-99.094 86.018,-98.314 87.437,-97.996 88.688,-98.149 "/>
<polygon fill="#FFFFFF" stroke="#010101" stroke-width="2" stroke-linecap="round" stroke-linejoin="round" points="
	479.197,-16.898 479.037,-17.689 478.412,-18.788 477.62,-20.051 472.743,-25.567 471.639,-26.192 470.694,-26.346 469.749,-26.192 
	468.964,-26.192 468.173,-26.666 467.7,-27.61 467.547,-28.708 467.7,-29.346 468.02,-29.972 469.437,-32.015 469.909,-32.959 
	470.381,-33.904 470.694,-34.849 470.854,-35.641 470.854,-36.585 470.854,-37.53 470.534,-40.518 470.062,-42.254 469.117,-43.517 
	467.7,-44.935 454.946,-52.327 454.32,-53.119 453.847,-53.91 453.688,-56.106 451.326,-56.425 444.081,-61.94 442.191,-63.665 
	440.933,-64.456 438.099,-65.554 437.155,-66.346 436.209,-67.29 434.48,-69.806 432.744,-71.695 431.645,-72.333 430.7,-72.486 
	430.069,-72.014 429.596,-71.223 428.652,-69.652 428.179,-68.707 427.394,-68.082 426.289,-67.443 425.185,-67.137 
	423.769,-66.972 422.039,-66.972 421.093,-67.29 420.308,-67.609 412.431,-72.64 408.971,-74.057 404.401,-73.75 402.829,-73.113 
	401.726,-72.168 400.78,-71.542 399.522,-71.223 397.314,-71.223 395.897,-71.861 394.64,-72.959 393.062,-73.431 392.118,-74.057 
	391.806,-74.695 391.806,-76.419 391.806,-77.21 391.333,-78.309 390.388,-79.253 388.499,-80.517 384.247,-81.616 382.83,-81.309 
	381.726,-80.989 381.1,-80.363 379.996,-79.1 378.419,-76.738 377.634,-75.947 375.432,-74.53 374.327,-73.431 373.695,-72.806 
	372.75,-72.486 372.125,-72.959 372.125,-73.585 372.438,-75.321 372.438,-76.266 372.278,-77.057 371.806,-77.529 371.18,-77.683 
	370.708,-77.21 370.076,-76.584 368.658,-73.431 368.346,-72.806 367.241,-71.861 365.512,-71.388 366.137,-69.499 365.983,-68.861 
	365.512,-68.082 364.72,-67.763 363.775,-67.609 362.677,-67.137 362.045,-66.192 360.155,-63.039 359.211,-62.094 349.604,-55.327 
	348.659,-53.744 348.187,-52.493 348.979,-50.284 349.132,-48.713 348.506,-46.187 348.346,-44.616 348.346,-43.352 348.506,-42.1 
	348.659,-40.837 348.346,-39.267 347.561,-38.156 346.616,-37.53 337.954,-34.542 337.009,-34.377 336.064,-34.542 335.119,-34.849 
	330.236,-37.684 328.666,-37.849 327.247,-37.058 325.04,-36.739 324.095,-36.739 322.997,-36.267 322.365,-35.487 321.733,-34.696 
	318.899,-27.764 318.427,-26.819 318.112,-26.346 317.481,-25.874 316.696,-26.039 316.225,-27.138 315.752,-27.764 
	314.806,-27.929 314.175,-27.457 311.499,-25.401 310.714,-25.248 309.924,-25.567 309.297,-26.984 309.139,-28.874 
	308.824,-29.346 308.354,-29.818 307.249,-30.125 305.047,-31.542 303.47,-32.959 302.525,-33.904 302.211,-34.849 302.211,-35.794 
	301.894,-36.432 301.267,-37.058 300.163,-36.904 299.531,-36.267 299.058,-35.641 298.745,-34.849 298.114,-34.07 297.487,-33.597 
	296.697,-33.279 295.751,-33.125 294.966,-33.279 294.022,-33.597 292.291,-34.849 291.347,-35.794 290.401,-37.058 288.984,-39.42 
	288.04,-40.683 286.936,-40.837 286.463,-40.364 285.36,-38.947 284.888,-38.628 284.261,-38.321 283.471,-38.475 282.524,-39.267 
	281.739,-40.837 281.427,-42.1 280.954,-46.033 280.954,-46.824 280.954,-46.978 280.322,-48.076 279.379,-49.021 278.905,-49.965 
	279.064,-51.076 279.69,-51.702 280.481,-52.02 282.371,-52.174 283.156,-52.327 283.788,-52.8 284.103,-53.591 284.103,-54.536 
	283.788,-55.327 282.212,-59.106 280.164,-62.413 275.599,-68.389 274.653,-68.554 274.028,-68.235 273.39,-66.818 272.764,-66.346 
	272.139,-66.5 271.347,-66.972 270.876,-68.235 271.029,-69.18 271.347,-70.125 272.292,-71.542 272.446,-72.333 272.446,-72.806 
	272.139,-73.431 271.193,-74.223 268.04,-75.321 267.096,-75.793 266.776,-76.892 267.568,-78.474 267.415,-79.253 266.47,-79.891 
	260.801,-81.143 257.801,-83.351 255.286,-81.781 254.341,-81.616 252.771,-81.462 249.937,-82.406 248.673,-82.406 
	247.409,-81.781 245.685,-80.044 245.213,-78.946 245.213,-77.836 245.366,-76.892 244.894,-76.266 243.63,-75.64 224.262,-73.113 
	220.802,-70.125 219.704,-70.125 218.912,-70.75 217.814,-71.542 216.231,-73.585 214.98,-76.112 214.508,-76.738 214.035,-76.419 
	213.87,-75.793 213.87,-75.002 213.87,-74.057 213.87,-73.278 213.563,-72.64 213.091,-72.168 212.452,-72.486 211.508,-73.431 
	210.563,-74.057 209.465,-74.223 208.521,-73.75 207.895,-73.113 207.575,-72.333 207.104,-71.695 206.312,-71.388 205.367,-71.223 
	203.478,-71.223 201.754,-71.861 200.962,-72.014 200.171,-71.861 198.919,-70.443 198.128,-69.971 197.336,-69.971 
	196.558,-70.125 195.141,-70.916 194.668,-71.069 193.876,-71.069 190.415,-70.75 188.055,-71.069 187.263,-71.542 186.638,-72.168 
	186.165,-73.431 186.165,-74.376 186.318,-77.21 185.999,-78.001 185.691,-78.474 184.582,-78.627 182.858,-78.001 182.065,-78.001 
	180.178,-78.946 179.552,-79.572 179.386,-80.198 179.552,-80.517 180.024,-80.989 181.441,-81.309 182.065,-81.616 
	182.065,-82.406 181.595,-83.351 175.299,-94.37 173.717,-96.425 172.465,-97.676 171.992,-98.621 171.675,-99.731 
	171.355,-100.676 170.729,-101.621 169.312,-102.247 168.521,-101.928 168.049,-101.302 167.896,-100.676 167.576,-100.039 
	165.852,-99.566 164.589,-99.731 163.172,-100.829 160.336,-103.192 157.029,-104.762 157.029,-105.707 157.502,-106.499 
	159.238,-108.069 159.711,-108.86 159.865,-109.651 159.865,-110.431 159.393,-112.485 159.238,-113.112 159.393,-114.21 
	159.238,-115.155 158.601,-116.418 157.656,-118.308 151.68,-126.019 150.57,-127.283 148.999,-128.547 146.165,-130.118 
	144.749,-130.271 143.177,-129.798 142.54,-130.271 142.232,-131.688 142.066,-132.798 141.76,-134.688 140.177,-135.94 
	137.981,-133.424 136.563,-130.909 135.772,-130.437 134.982,-130.59 133.257,-131.215 132.312,-131.381 123.173,-129.798 
	121.754,-129.964 120.81,-130.271 116.404,-130.59 115.46,-130.437 114.669,-130.118 114.196,-129.798 113.417,-129.173 
	112.944,-129.02 108.374,-129.173 107.749,-128.7 107.43,-128.228 107.11,-127.13 106.957,-126.019 106.804,-125.24 
	106.331,-124.449 106.013,-123.658 105.693,-122.712 105.693,-121.934 105.693,-120.988 105.693,-120.043 106.013,-119.099 
	106.484,-118.155 106.957,-117.363 107.276,-116.572 107.11,-115.627 106.638,-115.001 106.166,-114.21 106.013,-114.057 
	105.221,-112.167 104.749,-111.222 103.65,-110.124 100.816,-108.707 99.718,-108.069 99.246,-107.289 98.773,-106.499 
	98.454,-104.927 98.301,-103.192 97.828,-101.302 99.08,-101.302 100.663,-101.148 104.123,-100.204 105.221,-99.413 
	106.013,-98.94 106.638,-98.149 106.957,-97.204 108.693,-90.591 109.319,-89.493 110.11,-88.547 112.944,-86.339 114.362,-84.769 
	114.669,-83.823 114.834,-82.879 115.141,-80.517 114.669,-78.781 112.944,-74.695 112.153,-73.431 111.362,-72.806 
	109.473,-71.695 108.527,-70.916 107.11,-69.18 106.484,-68.389 105.693,-68.082 104.442,-68.235 104.123,-67.917 103.804,-66.972 
	104.276,-63.511 104.596,-62.247 105.387,-60.677 105.693,-59.885 105.221,-58.787 104.749,-57.997 104.442,-57.37 104.276,-56.579 
	104.596,-55.634 104.596,-54.69 104.596,-53.744 103.804,-52.493 103.024,-51.855 100.024,-50.757 97.19,-48.867 96.246,-48.548 
	95.467,-48.548 93.73,-48.713 91.994,-48.395 91.05,-48.076 90.424,-47.604 89.797,-46.978 89.633,-46.659 89.326,-45.407 
	89.326,-44.144 89.479,-43.045 89.797,-42.254 90.743,-41.628 91.521,-41.628 92.467,-41.309 93.258,-40.683 95.773,-38.321 
	96.884,-37.211 98.135,-34.696 98.607,-33.279 98.607,-32.015 97.663,-30.444 97.828,-29.346 98.301,-28.083 100.97,-24.622 
	101.761,-22.414 99.871,-21.788 96.411,-21.788 95.467,-21.469 91.841,-19.426 91.841,-18.788 91.521,-18.316 93.884,-15.328 
	94.828,-13.438 95.62,-11.076 96.246,-9.978 97.828,-7.923 98.301,-7.144 98.454,-6.506 98.454,-5.562 97.828,-1.782 97.51,-1.31 
	97.037,-0.058 96.718,0.887 96.564,1.359 96.246,1.997 95.301,4.04 94.203,5.457 93.411,7.193 93.258,7.665 93.258,8.138 
	93.411,8.917 94.05,10.028 94.521,10.653 94.828,10.972 95.301,11.279 95.62,11.598 96.564,11.917 96.884,12.07 97.19,12.39 
	99.553,15.53 100.19,16.168 101.607,17.113 102.08,17.585 102.387,18.365 102.706,19.475 103.65,24.199 103.804,24.671 
	104.442,26.088 105.693,29.868 106.804,33.801 106.957,34.272 107.583,36.634 107.583,37.579 107.583,38.678 107.43,40.732 
	107.276,41.831 107.43,42.776 107.902,43.721 108.221,44.192 109.944,45.763 110.264,46.083 110.583,46.401 110.736,46.874 
	110.89,49.389 110.89,52.696 111.209,54.266 111.362,55.211 111.362,56.321 111.056,57.738 110.417,60.726 109.638,62.934 
	109.473,63.561 109.473,64.187 109.638,65.297 109.791,65.922 110.89,67.965 110.89,68.438 111.056,68.91 111.209,69.855 
	110.89,70.8 110.264,72.217 108.221,76.162 107.749,77.26 107.583,77.578 107.276,80.413 107.11,81.664 107.276,82.303 
	107.43,82.775 107.583,83.247 107.902,84.026 109.166,85.609 110.89,87.18 112.626,87.971 113.417,88.597 113.724,88.75 
	114.362,88.75 115.141,88.443 116.251,88.597 117.822,89.069 118.92,89.86 121.283,92.848 122.073,93.474 123.019,93.947 
	123.963,93.947 127.589,92.223 128.84,91.903 130.257,91.903 132.785,92.376 134.202,93.002 136.092,94.112 136.87,94.266 
	137.816,94.112 138.76,93.32 139.706,91.585 140.343,90.958 141.288,90.805 143.649,91.585 144.122,92.223 144.749,93.947 
	145.373,94.738 145.847,95.529 145.847,96.474 145.847,97.253 145.847,98.044 146.165,98.67 146.956,98.836 148.209,98.67 
	149.153,98.363 152.933,95.836 154.195,95.363 155.14,94.738 155.459,93.32 155.459,92.376 155.767,91.431 156.876,90.805 
	157.656,90.167 158.129,89.069 158.129,87.971 158.293,87.18 158.446,86.707 160.963,87.18 163.172,91.278 163.489,92.057 
	163.797,93.474 163.962,94.112 165.062,95.363 165.379,95.683 166.325,97.1 166.632,97.253 167.104,97.572 167.576,97.891 
	167.896,98.67 168.368,100.088 169.938,102.45 171.048,102.922 171.355,103.395 171.675,104.032 171.828,106.229 171.675,109.701 
	171.675,110.173 171.202,111.118 171.202,111.59 171.355,112.062 172.146,112.535 173.562,113.007 173.717,113.161 174.662,113.952 
	174.981,114.106 175.926,114.424 176.398,114.578 176.718,114.896 176.871,115.204 177.188,115.522 177.661,115.676 
	178.913,115.522 179.386,115.522 179.858,115.676 180.331,115.996 181.275,117.259 182.539,118.039 182.692,118.356 
	183.165,118.829 183.484,119.148 183.802,119.456 186.318,120.093 189.152,120.565 189.944,120.873 191.042,121.664 192.305,122.29 
	192.459,122.455 192.778,122.762 192.932,123.399 193.085,124.345 193.085,125.289 193.251,125.916 193.404,126.388 
	193.558,126.706 193.876,127.333 193.876,127.958 193.722,128.596 192.932,132.209 192.932,133.001 192.932,133.792 
	193.085,134.099 193.404,134.418 193.558,134.891 193.722,135.363 193.558,135.835 193.558,136.627 193.558,137.252 
	193.558,137.725 193.722,138.198 194.029,138.669 194.349,139.142 194.668,139.461 194.821,139.615 194.975,139.934 
	194.975,140.405 194.821,140.712 194.821,141.185 193.722,141.976 192.778,142.921 184.582,147.645 185.372,149.381 
	185.526,150.798 185.691,150.952 185.691,151.105 185.372,154.258 185.372,155.049 185.526,155.829 186.165,156.467 
	186.944,156.774 188.998,157.412 189.944,157.884 192.305,159.927 192.932,160.399 194.029,160.718 195.447,160.552 
	200.489,158.511 201.588,158.355 203.171,158.663 206.95,159.927 207.729,159.927 208.674,159.927 211.035,158.982 212.146,158.829 
	216.397,159.927 219.231,161.025 220.011,161.025 220.955,161.025 221.9,160.872 223.011,160.552 224.428,159.927 226.79,158.038 
	229.458,154.412 229.931,153.313 230.568,150.479 231.194,147.326 231.348,146.7 231.667,145.909 232.14,145.436 232.931,145.283 
	236.391,146.854 239.851,147.798 241.587,147.645 242.685,147.172 243.323,146.382 243.949,146.075 244.894,146.075 
	245.838,147.172 246.464,148.118 247.256,149.062 248.2,149.381 249.464,149.381 250.243,148.743 250.716,148.118 250.881,147.172 
	250.881,146.382 251.034,145.602 251.507,144.965 252.452,144.656 254.813,145.602 255.605,146.075 255.759,147.172 
	255.605,148.118 255.605,148.908 255.913,149.535 257.801,150.798 258.273,151.424 258.439,152.522 258.273,154.412 
	258.439,155.204 259.22,157.092 259.856,158.982 261.58,160.552 266.776,161.191 266.623,160.245 266.47,159.927 266.47,159.135 
	266.623,158.511 267.096,157.092 268.359,150.952 268.667,150.161 273.556,139.615 273.709,139.142 273.709,138.669 
	273.709,138.198 273.709,137.252 273.709,136.779 273.863,136.308 274.028,135.835 274.807,134.736 275.911,132.056 276.23,130.958 
	276.543,129.848 277.175,125.442 277.175,124.817 277.328,124.345 278.274,121.982 278.433,121.51 279.064,120.093 279.218,119.621 
	279.379,118.356 279.379,118.203 279.69,117.885 280.164,117.566 281.427,117.259 282.686,117.259 283.941,117.731 287.409,119.302 
	288.825,119.621 290.874,119.456 296.383,117.259 299.058,116.939 300.004,117.259 301.108,117.731 302.684,119.148 
	304.415,121.038 306.776,122.609 313.077,124.345 313.077,128.903 314.021,130.485 316.225,131.112 317.01,131.584 317.954,132.682 
	318.273,133.792 318.427,134.891 318.899,136.627 319.69,137.725 320.476,138.516 322.365,138.988 323.623,139.461 324.728,141.35 
	325.513,141.657 327.401,141.976 327.874,142.602 327.874,143.241 327.721,144.185 327.562,145.129 327.401,146.382 
	327.401,147.645 327.874,148.436 328.666,148.908 331.027,149.688 331.5,149.535 331.812,149.215 332.126,148.908 332.598,148.271 
	334.487,147.492 334.96,147.172 335.279,146.854 336.064,145.755 336.377,145.436 336.696,145.129 337.009,144.965 337.954,144.965 
	338.426,144.811 338.739,144.492 339.058,144.185 339.211,143.075 339.53,142.768 339.844,142.449 340.476,141.976 340.788,141.657 
	341.573,140.559 341.893,140.241 343.463,138.823 343.782,139.142 348.033,142.921 348.979,144.338 349.291,145.436 
	349.132,146.382 349.45,147.492 350.235,147.964 351.021,148.271 360.788,148.743 362.83,148.59 363.775,148.271 364.566,147.798 
	367.714,144.965 368.346,144.338 368.818,143.548 369.443,142.921 370.076,142.295 370.708,141.976 371.021,141.504 
	372.125,139.295 372.438,138.669 375.585,135.516 376.217,134.265 376.849,133.319 380.628,129.222 380.155,128.903 
	381.253,127.958 381.413,127.013 381.253,126.234 381.253,125.289 381.1,124.817 380.94,124.345 380.628,123.707 380.628,122.927 
	381.1,122.136 382.045,121.038 385.192,115.676 388.499,111.743 386.296,109.229 385.978,107.492 387.241,105.921 399.363,94.738 
	405.817,91.278 406.608,90.486 408.971,87.805 411.958,86.235 413.062,85.609 414.007,84.192 414.321,83.247 414.321,80.885 
	413.694,80.247 413.222,79.622 412.904,78.83 413.062,78.204 414.479,73.953 415.111,72.689 415.265,72.382 415.584,71.591 
	415.737,69.702 415.426,68.284 414.321,65.922 413.848,64.824 415.265,60.1 419.518,57.573 429.284,54.585 435.266,50.015 
	437.313,47.027 436.37,44.511 437.468,42.457 438.411,41.512 440.62,40.732 440.933,39.941 441.247,39.788 442.664,38.996 
	442.511,36.788 445.186,35.843 450.853,30.647 451.167,30.34 452.903,27.506 455.418,24.825 461.56,20.42 461.246,17.113 
	461.719,14.278 463.449,12.543 464.24,12.543 464.713,12.224 466.13,10.5 467.074,10.028 468.02,9.708 468.805,9.236 469.59,7.665 
	468.645,6.402 467.228,5.138 465.811,4.04 464.24,4.832 453.528,5.929 454.001,4.193 455.105,2.15 456.363,0.414 458.725,-1.003 
	458.885,-3.518 461.246,-3.991 462.663,-4.935 464.081,-6.034 464.713,-7.144 464.24,-8.714 463.296,-10.604 463.136,-12.021 
	464.713,-12.494 465.657,-13.12 466.442,-13.438 467.228,-13.12 468.02,-12.494 470.381,-12.175 474.945,-12.966 476.994,-12.494 
	478.252,-11.868 478.412,-11.868 478.725,-13.438 479.197,-14.537 479.197,-15.174 479.197,-15.954 "/>
<polygon fill="#FFFFFF" stroke="#010101" stroke-width="2" stroke-linecap="round" stroke-linejoin="round" points="
	479.356,258.809 475.418,257.085 474.313,256.14 473.528,254.723 472.896,253.141 471.951,251.723 468.02,248.736 463.921,246.527 
	463.296,244.637 462.823,239.289 462.504,238.343 461.406,236.926 461.246,235.827 461.56,234.717 462.504,232.521 462.823,231.729 
	462.191,229.84 461.087,229.048 458.253,228.27 456.995,227.478 454.946,225.434 453.688,224.963 451.326,224.49 448.965,222.601 
	447.075,219.92 446.13,214.57 445.817,212.208 445.971,210 446.443,207.791 447.546,205.901 448.965,205.123 451.64,204.65 
	451.64,204.484 451.957,203.858 452.271,203.387 452.743,202.914 453.057,203.067 453.847,203.54 454.161,203.54 454.793,203.387 
	456.995,203.54 458.885,202.914 460.934,201.815 462.823,200.399 463.921,198.19 464.553,196.454 465.338,194.884 466.283,193.786 
	467.547,193.147 466.915,192.05 466.442,190.785 465.811,188.424 464.713,185.754 464.394,184.337 463.921,184.018 457.939,177.087 
	455.891,176.307 455.105,176.614 454.474,177.251 453.688,177.724 452.903,177.559 452.111,177.087 451.957,176.614 
	452.271,176.142 452.111,175.044 452.271,175.044 452.271,173.625 452.111,172.362 451.799,172.528 452.271,171.737 
	453.057,170.945 453.688,169.848 453.688,168.902 452.271,167.639 445.186,165.915 444.4,163.86 445.186,159.301 446.761,154.731 
	449.909,148.436 447.86,144.965 444.713,141.504 442.983,138.516 443.454,137.099 445.817,134.265 446.443,132.056 446.443,130.792 
	446.29,129.695 445.498,128.277 444.081,127.651 430.7,124.179 424.714,124.026 418.891,125.124 411.173,130.485 408.179,131.112 
	405.191,131.265 402.511,132.209 399.522,134.736 397.002,138.198 395.112,140.712 394.64,142.449 394.952,143.866 395.744,146.075 
	395.897,146.547 396.688,148.743 397.161,149.215 398.105,149.688 399.522,149.062 400.148,149.381 400.621,152.369 
	398.259,154.731 392.591,158.663 387.867,164.025 385.032,165.442 381.886,164.178 377.793,164.332 373.695,165.276 
	371.493,166.541 372.75,163.706 373.383,162.442 373.695,161.344 372.125,159.301 371.18,157.565 371.493,155.995 373.695,154.578 
	379.211,151.897 379.211,151.897 379.364,151.897 379.683,151.897 380.309,152.049 380.781,152.215 381.413,152.049 
	383.303,151.424 383.774,150.632 383.615,149.381 383.774,147.964 384.406,144.338 384.72,143.241 385.978,140.405 387.554,136.779 
	387.395,135.363 386.296,133.319 385.032,131.902 380.628,129.222 376.849,133.319 376.217,134.265 375.585,135.516 
	372.438,138.669 372.125,139.295 371.021,141.504 370.708,141.976 370.076,142.295 369.443,142.921 368.818,143.548 
	368.346,144.338 367.714,144.965 364.566,147.798 363.775,148.271 362.83,148.59 360.788,148.743 351.021,148.271 350.235,147.964 
	349.45,147.492 349.132,146.382 349.291,145.436 348.979,144.338 348.033,142.921 343.782,139.142 343.463,138.823 341.893,140.241 
	341.573,140.559 340.788,141.657 340.476,141.976 339.844,142.449 339.53,142.768 339.211,143.075 339.058,144.185 338.739,144.492 
	338.426,144.811 337.954,144.965 337.009,144.965 336.696,145.129 336.377,145.436 336.064,145.755 335.279,146.854 334.96,147.172 
	334.487,147.492 332.598,148.271 332.126,148.908 331.812,149.215 331.5,149.535 331.027,149.688 328.666,148.908 327.874,148.436 
	327.401,147.645 327.401,146.382 327.562,145.129 327.721,144.185 327.874,143.241 327.874,142.602 327.401,141.976 
	325.513,141.657 324.728,141.35 323.623,139.461 322.365,138.988 320.476,138.516 319.69,137.725 318.899,136.627 318.427,134.891 
	318.273,133.792 317.954,132.682 317.01,131.584 316.225,131.112 314.021,130.485 313.077,128.903 313.077,124.345 306.776,122.609 
	304.415,121.038 302.684,119.148 301.108,117.731 300.004,117.259 299.058,116.939 296.383,117.259 290.874,119.456 
	288.825,119.621 287.409,119.302 283.941,117.731 282.686,117.259 281.427,117.259 280.164,117.566 279.69,117.885 279.379,118.203 
	279.379,118.356 279.218,119.621 279.064,120.093 278.433,121.51 278.274,121.982 277.328,124.345 277.175,124.817 277.175,125.442 
	276.543,129.848 276.23,130.958 275.911,132.056 274.807,134.736 274.028,135.835 273.863,136.308 273.709,136.779 273.709,137.252 
	273.709,138.198 273.709,138.669 273.709,139.142 273.556,139.615 268.667,150.161 268.359,150.952 267.096,157.092 
	266.623,158.511 266.47,159.135 266.47,159.927 266.623,160.245 266.776,161.191 261.58,160.552 259.856,158.982 259.22,157.092 
	258.439,155.204 258.273,154.412 258.439,152.522 258.273,151.424 257.801,150.798 255.913,149.535 255.605,148.908 
	255.605,148.118 255.759,147.172 255.605,146.075 254.813,145.602 252.452,144.656 251.507,144.965 251.034,145.602 
	250.881,146.382 250.881,147.172 250.716,148.118 250.243,148.743 249.464,149.381 248.2,149.381 247.256,149.062 246.464,148.118 
	245.838,147.172 244.894,146.075 243.949,146.075 243.323,146.382 242.685,147.172 241.587,147.645 239.851,147.798 
	236.391,146.854 232.931,145.283 232.14,145.436 231.667,145.909 231.348,146.7 231.194,147.326 230.568,150.479 229.931,153.313 
	229.458,154.412 226.79,158.038 224.428,159.927 223.011,160.552 221.9,160.872 220.955,161.025 220.011,161.025 219.231,161.025 
	216.397,159.927 212.146,158.829 211.035,158.982 208.674,159.927 207.729,159.927 206.95,159.927 203.171,158.663 201.588,158.355 
	200.489,158.511 195.447,160.552 194.029,160.718 192.932,160.399 192.305,159.927 189.944,157.884 188.998,157.412 
	186.944,156.774 186.165,156.467 185.526,155.829 185.372,155.049 185.372,154.258 185.691,151.105 185.691,150.952 
	185.526,150.798 185.372,149.381 184.582,147.645 192.778,142.921 193.722,141.976 194.821,141.185 194.821,140.712 
	194.975,140.405 194.975,139.934 194.821,139.615 194.668,139.461 194.349,139.142 194.029,138.669 193.722,138.198 
	193.558,137.725 193.558,137.252 193.558,136.627 193.558,135.835 193.722,135.363 193.558,134.891 193.404,134.418 
	193.085,134.099 192.932,133.792 192.932,133.001 192.932,132.209 193.722,128.596 193.876,127.958 193.876,127.333 
	193.558,126.706 193.404,126.388 193.251,125.916 193.085,125.289 193.085,124.345 192.932,123.399 192.778,122.762 
	192.459,122.455 192.305,122.29 191.042,121.664 189.944,120.873 189.152,120.565 186.318,120.093 183.802,119.456 183.484,119.148 
	183.165,118.829 182.692,118.356 182.539,118.039 181.275,117.259 180.331,115.996 179.858,115.676 179.386,115.522 
	178.913,115.522 177.661,115.676 177.188,115.522 176.871,115.204 176.718,114.896 176.398,114.578 175.926,114.424 
	174.981,114.106 174.662,113.952 173.717,113.161 173.562,113.007 172.146,112.535 171.355,112.062 171.202,111.59 171.202,111.118 
	171.675,110.173 171.675,109.701 171.828,106.229 171.675,104.032 171.355,103.395 171.048,102.922 169.938,102.45 168.368,100.088 
	167.896,98.67 167.576,97.891 167.104,97.572 166.632,97.253 166.325,97.1 165.379,95.683 165.062,95.363 163.962,94.112 
	163.797,93.474 163.489,92.057 163.172,91.278 160.963,87.18 158.446,86.707 158.293,87.18 158.129,87.971 158.129,89.069 
	157.656,90.167 156.876,90.805 155.767,91.431 155.459,92.376 155.459,93.32 155.14,94.738 154.195,95.363 152.933,95.836 
	149.153,98.363 148.209,98.67 146.956,98.836 146.165,98.67 145.847,98.044 145.847,97.253 145.847,96.474 145.847,95.529 
	145.373,94.738 144.749,93.947 144.122,92.223 143.649,91.585 141.288,90.805 140.343,90.958 139.706,91.585 138.76,93.32 
	137.816,94.112 136.87,94.266 136.092,94.112 134.202,93.002 132.785,92.376 130.257,91.903 128.84,91.903 127.589,92.223 
	123.963,93.947 123.019,93.947 122.073,93.474 121.283,92.848 118.92,89.86 117.822,89.069 116.251,88.597 115.141,88.443 
	114.362,88.75 113.724,88.75 113.417,88.597 112.626,87.971 110.89,87.18 109.166,85.609 107.902,84.026 107.583,83.247 
	107.43,82.775 107.276,82.303 107.11,81.664 107.276,80.413 104.749,80.413 102.387,80.094 98.301,81.357 92.633,85.137 
	91.994,85.609 91.368,87.026 90.896,87.971 89.951,88.916 89.007,88.75 88.062,88.443 86.964,88.278 86.172,88.75 84.755,90.333 
	83.964,90.486 80.977,89.223 80.504,88.597 80.185,88.125 79.405,87.805 78.934,88.278 77.517,90.014 74.835,92.376 73.264,93.64 
	70.902,93.64 70.431,94.112 70.431,94.738 70.737,96.627 70.265,97.419 69.32,97.572 67.277,97.419 66.651,97.572 66.332,98.044 
	66.332,98.836 66.651,99.461 67.595,100.879 67.902,101.67 67.749,102.143 67.124,103.395 66.958,104.339 67.124,105.13 
	67.595,106.075 69.014,107.811 69.485,108.59 69.792,109.382 69.958,109.854 70.111,110.48 70.111,111.118 69.958,111.743 
	69.638,112.062 62.081,114.259 57.829,114.578 55.314,115.204 54.522,115.204 53.578,115.05 52.161,115.204 50.425,115.676 
	44.921,118.356 43.658,120.565 42.712,121.51 41.922,121.982 41.295,122.136 40.669,122.609 40.198,123.234 39.559,124.817 
	37.198,128.903 40.351,133.473 42.866,135.835 43.339,137.099 43.504,138.516 44.284,140.712 44.921,141.657 45.866,142.129 
	47.591,142.768 50.118,143.241 50.897,143.866 51.369,144.656 51.842,146.075 52.007,146.854 52.632,147.798 53.259,147.964 
	54.051,147.019 54.841,146.7 56.093,147.172 57.038,148.271 60.664,154.258 61.289,155.522 61.927,158.355 62.234,159.455 
	62.872,160.718 64.761,163.86 65.388,165.915 64.915,171.737 64.915,172.835 65.234,174.417 65.707,175.515 67.124,178.197 
	67.902,180.086 68.222,181.338 68.222,182.282 67.902,183.545 67.902,184.172 67.902,185.437 68.068,187.325 67.595,188.117 
	66.178,189.534 65.541,190.478 65.068,191.577 64.442,192.84 63.817,194.884 63.179,195.981 62.4,196.927 61.762,197.4 
	61.135,198.19 59.872,199.927 59.565,200.399 59.247,200.399 58.774,200.551 57.038,200.233 56.093,200.551 55.314,201.178 
	54.204,202.441 53.259,203.387 51.369,204.484 50.425,205.594 50.271,206.54 50.425,207.484 52.479,210.153 52.952,210.944 
	53.259,211.89 53.578,213.46 53.897,214.404 54.369,214.877 55.148,215.196 55.786,215.35 56.565,215.514 56.731,215.669 
	57.204,216.294 57.982,216.933 60.817,220.546 61.608,222.601 61.762,223.38 61.762,225.27 61.608,227.478 61.455,228.741 
	61.289,229.367 61.135,229.84 60.664,230.466 60.191,230.939 58.455,231.576 57.675,232.047 57.204,232.827 56.258,237.08 
	56.412,238.189 56.885,239.134 58.455,240.704 58.928,242.123 59.094,243.693 59.094,246.054 59.094,247.79 59.4,249.054 
	59.565,249.68 61.135,250.625 59.247,258.502 58.455,261.172 57.829,261.809 57.357,262.115 56.731,262.281 54.051,261.809 
	52.007,260.865 50.744,259.754 49.952,259.28 49.645,259.129 49.008,258.974 48.062,259.129 46.646,259.446 46.019,259.919 
	45.866,260.392 46.019,260.699 46.338,261.017 46.811,261.336 46.965,261.643 47.284,261.963 47.438,262.281 47.591,262.753 
	47.591,263.379 47.591,263.852 47.591,264.323 47.438,264.796 46.338,266.84 45.701,268.576 45.229,268.895 44.756,269.366 
	44.131,269.521 41.142,274.398 40.505,275.035 38.615,276.135 36.891,276.452 36.418,276.76 36.252,277.232 35.781,280.066 
	35.309,280.539 31.848,283.373 31.695,284.165 31.529,285.108 31.695,286.206 31.848,287.152 32.475,288.098 32.946,288.889 
	33.265,290.151 32.946,291.568 31.056,295.655 30.431,296.918 30.112,298.182 29.486,299.754 28.859,300.852 28.069,301.796 
	24.609,304.476 23.972,305.422 23.972,306.367 24.136,307.158 26.025,310.465 26.333,311.244 26.333,311.562 26.499,311.881 
	26.333,312.188 26.179,312.825 25.553,313.298 24.916,313.605 21.609,314.078 19.566,315.023 20.665,317.385 21.456,324.943 
	21.928,327.151 22.719,328.888 26.499,335.027 27.916,337.863 28.388,339.28 28.542,340.531 27.125,347.311 26.499,349.2 
	26.179,350.145 26.652,350.451 28.069,351.09 28.859,351.869 29.168,352.66 29.805,356.286 30.112,357.537 30.749,358.647 
	31.848,359.593 32.792,359.746 33.584,356.593 35.001,355.813 35.946,355.813 41.449,353.924 42.395,353.924 43.339,354.077 
	43.812,354.703 44.284,355.341 44.921,355.967 45.548,355.967 46.172,355.813 46.965,355.176 47.438,355.021 48.062,355.021 
	49.008,355.176 52.479,355.176 55.314,354.869 56.885,353.924 57.829,352.979 58.774,351.396 61.608,348.408 62.081,347.783 
	62.554,346.991 62.707,346.2 63.025,343.685 63.344,342.894 64.289,340.851 66.485,337.863 66.958,336.918 67.124,336.127 
	67.431,334.557 67.595,333.611 67.902,332.82 79.877,320.065 80.504,320.219 81.13,320.691 81.448,321.482 81.921,322.274 
	83.184,323.691 83.811,324.637 84.13,325.415 84.13,326.36 84.13,327.151 84.13,328.722 84.283,329.194 84.908,329.36 
	87.59,328.888 88.381,328.722 88.854,328.888 89.161,329.041 90.271,331.084 92.16,333.445 92.467,334.237 93.258,336.918 
	93.577,337.544 94.203,338.334 94.994,338.808 97.037,339.28 97.356,339.587 97.981,340.059 98.135,340.697 97.981,341.323 
	97.037,341.643 96.411,342.114 96.093,342.74 96.411,343.531 96.884,344.311 97.037,345.102 97.19,346.047 97.356,348.562 
	97.51,349.354 97.828,351.09 98.607,352.813 99.08,353.605 99.718,354.396 102.706,356.912 103.97,352.813 104.914,351.243 
	106.484,349.034 106.804,348.09 107.276,343.685 108.527,338.334 109.319,335.808 110.264,334.237 111.681,333.445 112.626,332.501 
	113.251,329.831 113.57,326.998 114.196,326.054 114.987,325.415 115.779,325.107 116.404,325.415 117.822,327.624 118.447,328.414 
	119.712,328.096 121.447,326.998 126.644,321.801 127.896,321.164 128.533,321.482 129.313,321.482 130.257,321.164 
	131.367,320.691 134.982,318.176 135.619,317.857 136.717,317.551 137.981,317.704 138.76,317.385 139.398,317.857 139.87,318.494 
	140.177,320.065 140.969,322.747 146.012,332.667 147.736,334.557 148.999,335.182 150.263,334.391 151.043,334.084 
	151.987,333.918 155.14,333.765 155.932,333.611 156.712,333.138 157.184,332.348 157.502,331.557 157.656,329.831 157.821,328.888 
	158.293,328.25 158.919,327.777 159.865,327.624 160.963,327.471 162.545,327.777 163.643,328.414 164.27,329.36 164.27,330.139 
	164.116,330.931 163.797,331.721 163.489,332.348 163.643,332.974 164.27,333.293 169.158,334.084 170.256,334.557 171.202,335.182 
	173.562,337.863 176.245,340.225 177.496,341.004 178.913,341.323 179.386,341.643 179.858,342.268 180.495,342.74 181.122,342.894 
	183.331,343.531 182.858,347.145 183.165,348.728 183.484,349.979 183.802,350.451 183.956,350.924 185.055,354.55 185.846,359.746 
	186.791,363.206 187.735,365.096 189.625,366.359 190.888,368.721 191.668,370.764 194.194,380.53 196.711,382.739 198.128,385.573 
	199.226,387.297 199.392,388.408 198.919,389.033 198.447,389.659 198.128,390.923 198.447,392.493 198.754,396.438 
	199.226,397.217 200.018,397.383 201.588,396.746 202.379,396.746 203.324,396.91 204.115,396.91 205.686,396.272 206.631,396.438 
	206.95,396.746 207.575,397.689 208.201,398.162 209.312,398.481 215.452,402.26 216.551,402.579 217.495,402.732 218.287,402.415 
	218.912,401.942 220.011,400.523 220.648,399.898 223.011,398.328 224.9,396.592 225.68,396.119 228.514,395.329 229.624,395.493 
	230.403,396.119 230.568,396.746 230.403,397.689 230.25,398.481 230.25,399.272 230.568,400.217 231.514,401.315 232.458,401.635 
	233.557,401.47 234.348,400.843 234.974,400.217 235.293,399.426 235.446,398.636 235.446,397.064 235.918,396.438 236.863,395.8 
	239.544,395.646 241.74,395.8 244.421,396.91 244.894,397.536 245.047,397.855 245.366,398.162 245.991,398.636 246.311,398.953 
	246.783,399.58 247.103,399.898 247.574,400.217 250.09,401.47 254.188,402.732 254.188,397.064 256.703,396.592 259.384,396.746 
	261.899,397.064 262.69,397.383 263.316,397.855 264.733,398.953 265.36,399.898 265.833,400.843 267.887,406.83 268.359,407.456 
	268.985,408.083 269.93,408.402 271.029,408.083 271.974,407.456 273.556,406.193 274.5,405.722 275.28,405.566 277.647,405.249 
	278.433,405.095 280.164,404.469 281.898,403.359 283.629,402.579 289.77,400.843 291.028,400.843 295.127,401.788 296.544,401.635 
	297.642,401.315 298.904,399.898 299.531,399.426 300.163,399.272 300.636,399.745 300.794,400.689 300.477,401.635 
	299.689,403.359 299.689,404.303 299.689,406.039 299.851,406.984 300.163,407.775 301.108,408.721 302.364,409.346 305.2,409.818 
	306.776,409.818 308.034,409.5 309.297,409.5 315.593,411.862 316.856,412.027 317.642,411.862 318.586,412.18 319.217,412.652 
	319.844,413.916 320.163,414.861 320.316,415.806 320.476,416.751 321.106,417.529 321.893,418.322 323.47,419.112 326.776,421.947 
	327.562,422.419 330.709,422.727 333.543,421.002 336.064,418.322 337.169,416.751 338.267,415.642 339.53,415.334 341.732,415.642 
	342.678,416.432 343.15,417.223 343.31,418.003 343.622,418.793 344.254,419.266 345.039,419.266 345.672,419.112 345.984,418.322 
	345.672,415.334 346.616,413.752 346.929,408.721 346.77,405.414 346.297,404.469 345.512,403.996 344.095,403.359 343.463,402.732 
	342.364,401.315 341.732,400.689 341.261,399.898 341.261,399.108 341.732,398.009 342.046,397.217 341.573,396.592 
	340.947,396.438 340.156,396.272 335.904,396.592 335.279,396.272 333.543,395.329 332.598,395.021 330.868,394.702 
	330.396,394.549 329.923,394.229 326.457,391.549 326.145,390.923 325.984,390.297 325.831,389.033 325.672,388.408 
	325.199,387.463 323.94,386.046 323.623,385.409 323.623,384.629 324.728,384.156 325.513,384.156 328.034,384.936 328.819,384.936 
	329.451,384.782 329.923,384.31 330.236,383.838 330.236,382.893 329.923,382.573 329.451,382.103 328.819,381.629 328.193,381.156 
	327.721,380.377 327.401,379.586 327.089,378.641 327.089,377.85 327.247,377.07 327.721,376.598 328.819,376.279 329.61,376.279 
	332.444,376.752 337.954,378.796 338.739,378.96 339.844,378.641 343.782,375.653 344.567,374.862 344.407,373.445 343.936,372.5 
	343.31,371.875 341.101,370.291 340.476,369.347 340.156,368.876 340.003,368.096 340.003,367.457 340.003,366.832 340.476,365.887 
	343.15,361.789 343.782,360.371 344.095,359.12 344.095,358.176 344.407,357.384 345.825,356.758 346.77,356.758 347.561,356.912 
	348.659,357.064 350.235,357.384 351.34,357.064 352.438,356.758 354.015,355.967 356.689,355.647 357.321,355.176 358.738,353.758 
	359.37,352.813 359.996,352.034 359.996,351.09 359.843,350.298 358.898,349.507 358.267,348.408 360.469,344.63 361.26,343.685 
	362.518,343.213 363.462,343.059 366.137,343.213 367.873,342.894 371.493,341.643 372.278,341.004 372.75,340.225 372.91,338.961 
	372.597,338.017 372.438,337.071 372.91,336.28 374.959,334.557 376.529,333.445 377.321,333.138 378.106,332.974 379.051,333.138 
	380.468,333.765 381.413,333.765 382.198,333.445 386.922,330.305 387.867,329.986 388.658,329.986 390.388,330.611 
	391.175,330.611 393.854,329.986 394.799,329.986 396.369,330.305 397.314,330.139 400.309,328.888 401.253,328.568 
	402.038,328.568 402.829,328.722 406.137,329.986 406.762,329.986 407.554,329.986 407.866,329.36 408.179,328.568 408.498,326.68 
	408.651,323.054 408.498,322.108 408.179,321.011 407.081,319.594 406.291,318.802 405.504,317.704 405.191,316.604 
	405.191,313.925 405.032,312.825 404.719,311.881 403.774,311.091 402.829,310.938 398.731,311.881 397.474,311.717 396.688,311.41 
	395.744,311.091 395.425,309.674 395.425,307.465 396.216,303.061 396.529,300.852 396.842,299.127 397.161,298.489 
	399.363,295.975 400.78,297.237 401.726,297.545 403.143,297.711 405.345,297.711 407.554,298.182 408.811,298.809 409.443,299.599 
	409.915,301.324 410.229,302.269 410.86,302.905 416.843,305.103 417.628,304.949 418.732,304.476 419.988,302.905 420.62,301.643 
	420.78,300.544 420.935,299.754 421.407,299.127 422.197,298.654 424.872,298.809 425.977,298.489 429.284,296.447 431.959,296.128 
	431.959,296.128 432.43,295.82 435.424,294.085 436.37,293.931 437.94,293.931 438.73,293.766 439.357,293.458 441.094,292.195 
	441.718,291.722 444.871,292.349 448.18,294.085 451.486,295.183 454.474,293.766 454.633,292.985 454.001,292.514 453.688,291.722 
	454.161,290.624 454.793,290.305 456.995,290.305 457.78,290.151 459.044,288.889 460.614,286.206 461.878,285.108 465.025,283.538 
	468.173,282.748 468.964,283.065 470.062,284.484 470.534,284.636 471.166,284.011 472.896,280.858 475.258,278.814 475.258,276.76 
	474.313,274.243 473.841,270.465 474.313,269.674 477.308,266.215 479.197,262.906 479.982,261.017 479.982,259.28 "/>
<g>
	<polygon fill="#FFFFFF" stroke="#010101" stroke-width="2" stroke-linecap="round" stroke-linejoin="round" points="
		-301.971,156.62 -300.555,157.092 -295.514,156.148 -286.855,161.817 -282.76,162.608 -282.288,162.761 -281.815,163.234 
		-280.871,162.761 -280.242,162.442 -279.454,162.442 -280.398,160.081 -282.131,158.038 -284.333,156.62 -293.31,155.204 
		-294.887,154.412 -294.887,153.468 -293.626,153.468 -293.626,152.522 -295.831,153.161 -298.349,154.258 -300.711,154.412 
		-302.285,151.578 -301.34,151.742 -299.294,152.522 -298.665,151.897 -298.665,151.105 -299.138,150.325 -299.767,149.854 
		-301.34,149.535 -306.696,150.798 -306.696,151.578 -305.591,152.369 	"/>
	<polygon fill="#FFFFFF" stroke="#010101" stroke-width="2" stroke-linecap="round" stroke-linejoin="round" points="
		-281.188,183.865 -282.131,183.228 -284.333,180.865 -287.169,178.668 -290.162,176.932 -292.997,176.614 -290.947,181.184 
		-290.003,184.172 -290.162,185.437 -290.634,186.7 -289.059,189.061 -287.169,191.423 -285.279,192.84 -279.927,198.815 
		-278.981,200.551 -278.193,202.288 -276.935,206.847 -275.359,207.484 -273.941,205.43 -273.156,202.123 -272.368,196.62 
		-272.524,195.509 -273.156,194.411 -275.831,192.84 -276.776,191.895 -276.303,190.785 -276.303,189.841 -277.249,188.896 
		-277.249,187.644 -277.249,186.227 -277.564,184.645 -278.825,183.228 -280.083,183.393 	"/>
	<polygon fill="#FFFFFF" stroke="#010101" stroke-width="2" stroke-linecap="round" stroke-linejoin="round" points="
		67.902,184.172 67.902,183.545 68.222,182.282 68.222,181.338 67.902,180.086 67.124,178.197 65.707,175.515 65.234,174.417 
		64.915,172.835 64.915,171.737 65.388,165.915 64.761,163.86 62.872,160.718 62.234,159.455 61.927,158.355 61.289,155.522 
		60.664,154.258 57.038,148.271 56.093,147.172 54.841,146.7 54.051,147.019 53.259,147.964 52.632,147.798 52.007,146.854 
		51.842,146.075 51.369,144.656 50.897,143.866 50.118,143.241 47.591,142.768 45.866,142.129 44.921,141.657 44.284,140.712 
		43.504,138.516 43.339,137.099 42.866,135.835 40.351,133.473 37.198,128.903 28.222,128.431 23.499,129.541 20.511,128.277 
		15.315,128.277 14.689,128.124 12.799,127.013 11.689,126.706 3.659,126.541 2.713,126.706 1.769,127.013 -0.121,128.431 
		-0.9,128.903 -2.164,128.75 -2.955,127.958 -4.844,125.442 -5.624,124.817 -6.415,124.817 -7.207,124.971 -7.986,126.069 
		-8.151,127.013 -8.151,127.805 -7.986,128.75 -7.986,129.541 -8.304,130.32 -8.624,131.112 -9.403,131.737 -10.513,132.056 
		-14.292,131.112 -15.237,131.43 -16.336,132.209 -17.28,133.001 -18.071,133.792 -19.17,133.946 -20.74,133.628 -21.531,132.848 
		-21.685,132.056 -21.531,131.265 -22.004,130.639 -22.949,130.166 -25.311,130.639 -26.574,130.32 -27.52,129.848 -28.463,129.695 
		-29.88,130.013 -35.703,136.155 -38.537,137.878 -42.636,135.209 -43.107,134.418 -43.414,133.473 -44.053,132.682 
		-44.833,132.056 -45.776,131.902 -47.04,132.529 -47.513,133.319 -47.832,134.099 -48.457,134.891 -49.722,135.209 
		-53.653,135.682 -54.917,135.682 -56.016,135.516 -57.279,134.572 -58.377,134.418 -59.949,133.155 -58.377,127.805 
		-59.476,126.234 -61.212,125.124 -62.156,124.499 -63.102,123.081 -63.255,121.982 -62.476,118.829 -62.476,118.356 
		-62.783,117.566 -63.102,116.939 -63.573,115.996 -64.365,115.204 -65.145,114.578 -65.936,114.259 -66.88,113.952 
		-72.396,113.952 -73.493,113.479 -73.966,112.689 -74.12,110.646 -74.758,110.008 -75.383,109.701 -77.119,109.229 
		-79.635,107.811 -81.678,105.921 -82.788,104.658 -83.568,103.395 -84.04,101.351 -84.359,99.615 -84.359,96.946 -84.205,96.155 
		-84.04,95.363 -83.732,94.419 -83.415,93.64 -83.415,92.376 -83.732,90.805 -84.832,88.443 -85.457,87.18 -87.346,84.972 
		-91.125,81.83 -101.837,65.922 -103.727,60.254 -104.671,58.364 -105.616,57.266 -106.561,56.628 -108.451,55.849 -113.494,52.696 
		-114.591,52.224 -114.745,52.542 -114.911,52.696 -114.745,53.167 -114.745,53.487 -114.745,54.585 -114.591,55.058 
		-114.438,55.376 -114.119,55.684 -113.965,56.156 -113.801,56.475 -113.647,56.947 -113.494,57.419 -113.494,57.892 
		-113.801,58.364 -114.591,58.683 -115.382,58.99 -122.622,59.309 -124.192,59.781 -124.984,60.1 -125.457,60.726 -126.082,61.352 
		-127.027,61.671 -131.125,60.879 -135.058,61.352 -136.793,60.879 -137.738,60.1 -138.364,59.155 -138.684,58.364 -138.837,57.266 
		-138.837,55.376 -138.837,52.849 -138.21,50.18 -138.057,48.598 -138.21,47.818 -138.53,47.181 -139.308,47.027 -141.198,46.874 
		-141.836,46.236 -142.308,44.818 -142.934,44.511 -143.726,44.346 -145.768,45.138 -146.867,45.456 -148.13,45.456 
		-148.922,44.984 -149.076,44.192 -148.922,43.248 -148.604,42.303 -148.45,41.358 -148.604,40.26 -148.922,39.315 -149.701,38.996 
		-151.756,39.788 -153.008,39.788 -153.48,39.15 -153.646,38.524 -153.646,37.579 -153.48,36.788 -153.953,36.008 -154.59,36.008 
		-156.161,36.954 -157.106,37.107 -157.897,36.788 -158.37,36.008 -158.843,35.064 -159.314,34.272 -160.259,32.537 
		-164.983,31.592 -166.554,32.064 -169.541,35.843 -169.86,36.788 -170.014,37.733 -170.333,38.843 -170.959,40.095 
		-172.069,40.567 -174.584,41.512 -175.21,42.303 -175.683,42.929 -176.946,45.291 -179.155,44.511 -179.626,43.874 
		-179.934,42.929 -180.1,41.984 -180.572,40.732 -181.67,39.788 -182.615,39.469 -183.56,39.623 -185.296,40.095 -190.489,39.941 
		-200.249,41.205 -202.611,42.303 -207.652,43.874 -208.913,44.039 -210.958,42.929 -211.902,42.776 -213.004,42.929 
		-214.736,43.567 -215.526,44.039 -216.311,44.818 -216.626,45.609 -216.47,46.401 -215.365,47.971 -215.365,48.763 
		-215.838,49.542 -219.618,51.432 -221.193,52.849 -221.666,53.167 -223.239,53.794 -229.065,54.432 -234.105,53.959 
		-236.624,53.167 -241.82,54.112 -243.081,54.112 -243.869,53.959 -244.813,53.641 -248.276,51.278 -249.221,50.959 
		-250.638,50.652 -251.111,51.125 -251.426,51.597 -251.426,51.904 -251.583,52.696 -248.276,55.211 -247.016,56.628 
		-245.915,58.99 -244.969,60.407 -242.608,61.824 -241.506,63.407 -241.035,64.659 -240.875,67.34 -240.402,69.548 -239.616,70.965 
		-238.672,71.91 -233.476,75.217 -231.586,76.94 -230.798,78.05 -230.481,78.83 -230.642,79.468 -230.798,80.247 -231.742,81.983 
		-231.586,83.4 -230.798,85.609 -228.436,89.542 -225.918,94.584 -225.602,95.836 -225.285,96.946 -225.285,97.726 -225.285,98.67 
		-225.129,99.781 -224.658,101.198 -223.556,102.45 -223.083,103.56 -222.768,104.504 -222.61,107.173 -221.979,110.953 
		-221.822,112.216 -221.979,113.007 -222.452,113.787 -223.239,114.424 -223.712,115.204 -224.029,116.468 -222.61,123.553 
		-222.452,124.345 -222.61,125.124 -223.239,127.179 -223.397,128.596 -223.083,130.485 -222.452,131.112 -221.822,130.958 
		-221.351,130.639 -220.722,130.639 -217.572,133.155 -216.626,134.418 -216.311,135.516 -216.626,136.461 -217.255,137.099 
		-217.887,137.406 -218.359,137.406 -219.145,137.406 -219.776,137.252 -220.722,137.406 -221.507,137.725 -224.185,140.878 
		-224.814,141.185 -225.446,141.35 -228.121,141.35 -228.909,141.504 -231.427,142.768 -232.059,143.393 -233.476,144.185 
		-234.578,144.338 -240.718,140.559 -242.923,140.086 -244.498,140.086 -245.758,140.559 -246.387,140.878 -249.221,141.35 
		-250.323,141.657 -251.111,141.822 -252.843,141.976 -253.789,141.35 -254.101,140.712 -253.629,140.086 -253,139.295 
		-252.528,138.516 -252.372,137.572 -253,136.461 -253.789,136.461 -255.362,137.099 -256.307,137.406 -258.197,137.572 
		-263.708,138.988 -264.653,139.461 -265.282,140.086 -266.856,142.449 -267.171,143.075 -266.383,144.185 -266.227,146.075 
		-265.754,147.172 -265.754,148.271 -266.383,149.854 -272.684,153.786 -273.628,155.522 -273.156,157.884 -273.941,158.511 
		-274.887,159.608 -275.518,160.872 -275.359,161.969 -274.574,162.915 -273.785,163.081 -272.997,162.915 -272.053,163.234 
		-270.634,163.081 -270.163,163.234 -270.007,163.706 -270.163,164.332 -270.163,164.805 -269.849,165.124 -269.061,165.276 
		-267.015,166.86 -268.117,167.958 -268.117,168.431 -267.488,168.902 -267.015,169.528 -266.7,169.694 -265.598,170.167 
		-265.282,170.319 -265.125,170.792 -265.125,172.055 -264.494,173.78 -264.337,175.197 -264.021,176.142 -262.292,176.78 
		-261.819,177.251 -261.187,177.877 -260.875,178.504 -260.875,179.294 -261.819,181.503 -263.077,182.601 -264.494,182.448 
		-266.383,181.184 -265.125,185.437 -264.181,187.171 -262.764,188.117 -263.236,188.424 -264.021,189.534 -264.494,189.841 
		-264.021,190.631 -263.392,191.73 -262.764,192.994 -262.764,194.411 -263.077,195.828 -263.708,196.147 -264.337,195.981 
		-265.282,196.147 -266.542,196.927 -267.644,197.871 -268.117,198.508 -268.588,199.288 -269.217,200.08 -270.163,200.551 
		-269.377,201.97 -268.746,203.858 -268.432,205.748 -268.273,207.165 -267.8,208.43 -265.439,211.098 -257.251,217.711 
		-255.362,220.073 -261.66,217.085 -262.764,215.987 -263.708,215.35 -269.534,208.583 -271.268,208.43 -277.249,210.319 
		-277.249,212.043 -278.825,221.019 -277.091,221.656 -273.941,220.864 -272.368,222.282 -271.268,223.699 -269.849,224.963 
		-268.432,225.907 -266.7,226.214 -264.021,227.325 -259.141,232.202 -256.151,233.3 -255.678,233.773 -255.206,236.3 
		-254.89,236.772 -242.135,246.054 -238.041,250.943 -235.995,254.086 -234.105,257.71 -231.113,265.742 -230.01,270.785 
		-230.01,270.785 -226.546,295.183 -225.446,299.281 -223.712,302.588 -220.562,305.103 -216.626,306.367 -213.004,308.102 
		-210.802,312.035 -212.848,310.465 -214.894,309.354 -217.255,308.882 -219.933,308.729 -217.887,309.991 -215.838,312.035 
		-214.894,314.869 -215.682,318.33 -215.209,319.911 -214.736,323.372 -214.421,325.262 -215.682,324.317 -216.47,322.274 
		-216.782,319.594 -216.942,316.912 -216.626,314.869 -216.782,313.771 -217.572,312.035 -218.359,311.244 -221.193,309.519 
		-224.658,306.048 -227.807,302.115 -230.798,294.711 -231.113,293.293 -232.844,281.484 -234.105,276.605 -234.261,274.092 
		-235.366,270.312 -237.884,266.532 -248.749,254.252 -250.166,253.932 -253.945,251.723 -260.085,247 -260.875,246.054 
		-261.819,244.483 -262.133,243.858 -262.133,243.066 -261.819,242.44 -261.66,241.969 -261.503,240.552 -261.503,239.606 
		-261.819,238.969 -262.764,238.497 -264.181,239.134 -265.439,241.023 -268.588,247.319 -269.061,249.208 -270.634,276.286 
		-274.414,296.447 -279.927,359.12 -279.298,357.703 -278.508,354.55 -277.564,349.034 -273.47,342.894 -272.84,341.643 
		-272.684,341.477 -272.524,341.004 -272.368,340.378 -272.053,340.059 -271.424,339.906 -270.951,340.225 -270.634,340.531 
		-270.163,340.851 -269.217,341.323 -262.292,347.783 -261.503,349.507 -262.764,349.507 -260.402,351.869 -260.558,353.758 
		-262.292,355.021 -265.439,355.494 -270.951,354.23 -273.313,354.23 -275.045,356.439 -276.62,362.261 -276.935,363.844 
		-277.249,364.623 -279.61,368.096 -279.769,369.193 -278.981,372.819 -278.825,374.543 -279.454,382.42 -281.815,400.053 
		-287.64,435.647 -290.791,451.708 -292.997,458.947 -296.776,479.259 -298.822,486.345 -299.451,490.277 -300.868,494.848 
		-301.656,496.265 -306.38,500.044 -307.168,500.989 -307.641,502.406 -309.53,506.185 -310.315,507.283 -312.048,508.547 
		-314.094,509.646 -316.144,510.437 -324.174,511.7 -325.748,512.479 -326.376,513.271 -327.953,512.326 -328.425,515.786 
		-328.425,518.313 -328.425,519.884 -325.904,521.147 -324.646,522.719 -324.487,525.08 -324.174,525.553 -324.014,526.025 
		-322.913,525.872 -321.968,525.399 -319.922,525.08 -318.189,524.289 -317.245,524.454 -315.671,525.233 -314.726,525.872 
		-314.726,526.497 -315.039,527.289 -314.883,528.387 -314.254,530.43 -313.781,530.902 -312.677,531.54 -311.732,531.695 
		-310.475,531.54 -309.53,530.902 -309.058,529.804 -308.27,527.762 -307.009,526.97 -305.119,526.97 -302.285,527.762 
		-298.665,529.804 -297.561,529.651 -296.616,529.179 -295.514,529.332 -292.997,532.013 -292.524,536.417 -293.626,541.296 
		-294.887,545.239 -296.144,546.81 -299.767,550.743 -300.555,551.853 -299.451,554.522 -297.721,556.412 -295.831,557.521 
		-293.626,558.148 -291.107,558.302 -289.53,557.829 -288.745,556.104 -288.586,552.952 -287.957,550.436 -286.382,548.699 
		-284.333,547.909 -282.288,548.546 -284.177,550.116 -284.965,551.687 -284.494,553.423 -283.076,555.159 -281.344,556.104 
		-276.147,557.049 -272.997,558.773 -270.007,561.136 -266.7,560.828 -265.911,561.136 -264.337,562.08 -263.708,562.718 
		-260.558,563.191 -259.141,563.498 -258.04,564.915 -254.89,567.122 -251.426,568.386 -244.181,568.858 -237.255,567.596 
		-234.893,568.541 -233.159,572.945 -233.159,573.735 -233.476,574.362 -233.632,574.999 -233.003,576.099 -232.215,576.891 
		-231.271,577.042 -230.326,576.891 -229.538,577.042 -226.39,579.086 -224.814,580.349 -221.193,585.074 -221.193,585.546 
		-221.351,586.172 -221.351,586.645 -220.722,586.811 -219.304,586.811 -218.833,586.963 -218.359,587.754 -218.516,588.534 
		-218.516,589.325 -217.572,589.798 -216.942,589.645 -215.365,588.698 -214.58,588.381 -214.421,585.546 -212.059,585.546 
		-207.335,587.908 -204.501,587.589 -202.299,586.338 -198.047,582.865 -197.259,583.656 -196.471,583.504 -195.842,582.393 
		-195.369,581.295 -193.952,582.558 -193.796,582.712 -194.108,580.504 -194.581,577.516 -194.896,575.779 -194.896,574.999 
		-194.74,574.055 -194.425,573.265 -193.796,572.165 -193.007,571.375 -192.378,570.429 -191.906,569.166 -191.746,567.276 
		-191.746,566.179 -192.219,564.289 -192.378,563.498 -192.219,562.553 -191.59,561.608 -190.173,560.036 -189.071,558.773 
		-188.439,558.148 -187.654,557.994 -185.13,557.994 -184.186,557.676 -183.406,557.049 -182.933,556.259 -183.56,553.896 
		-183.56,552.479 -183.56,550.589 -182.769,549.491 -182.143,548.699 -180.406,547.909 -179.626,547.282 -178.683,546.657 
		-178.209,545.547 -176.946,542.405 -176.156,541.615 -175.683,541.46 -174.584,541.767 -173.959,541.615 -173.486,540.669 
		-173.167,539.571 -172.541,536.89 -172.223,535.945 -171.596,535.153 -170.014,533.736 -169.387,532.958 -168.916,532.166 
		-168.597,531.376 -168.597,530.749 -168.763,530.123 -169.541,527.915 -169.387,526.025 -169.069,524.763 -168.763,523.663 
		-168.124,522.873 -167.499,522.246 -166.873,521.927 -165.137,521.454 -164.51,520.982 -164.192,520.203 -164.192,518.939 
		-165.456,516.105 -165.763,514.534 -165.456,509.964 -165.609,509.02 -166.081,508.547 -166.873,508.394 -167.653,508.866 
		-168.124,509.491 -168.763,510.117 -169.234,510.909 -170.014,510.756 -170.652,509.964 -170.959,507.603 -170.652,506.504 
		-170.18,506.032 -169.387,506.185 -168.597,506.185 -167.971,505.866 -167.653,505.24 -167.817,504.143 -168.29,502.726 
		-170.486,497.529 -171.124,496.584 -171.75,495.946 -172.694,495.32 -173.32,494.694 -174.266,492.167 -176.156,490.915 
		-184.504,489.18 -187.495,489.499 -188.283,488.554 -188.439,487.915 -188.756,486.499 -189.071,485.873 -190.329,484.928 
		-190.329,484.137 -190.017,483.191 -188.912,481.774 -188.283,480.357 -188.439,479.413 -188.912,478.468 -189.229,477.688 
		-189.071,477.051 -188.127,476.578 -186.713,476.578 -186.24,476.271 -185.603,475.48 -184.032,471.382 -183.879,470.604 
		-184.186,469.812 -184.657,469.021 -185.13,468.395 -185.13,467.45 -184.977,466.352 -184.977,464.461 -184.823,463.352 
		-184.504,462.254 -183.406,460.682 -182.769,458.475 -182.769,457.683 -183.087,456.904 -183.56,456.112 -184.032,454.541 
		-184.504,453.751 -185.922,452.334 -186.394,451.542 -186.24,450.598 -185.449,449.652 -182.462,447.138 -181.351,446.665 
		-178.044,447.138 -176.32,447.138 -175.21,446.984 -174.266,446.038 -172.541,443.984 -170.18,442.261 -169.387,441.787 
		-168.443,441.622 -167.026,442.095 -166.4,442.567 -165.927,443.204 -165.763,443.831 -165.763,444.456 -166.081,445.094 
		-166.873,446.038 -167.026,446.665 -167.026,447.455 -166.707,448.235 -166.234,448.555 -165.763,448.874 -165.137,449.181 
		-164.346,449.345 -161.204,449.652 -160.413,449.345 -159.621,448.874 -158.996,447.763 -158.843,446.665 -159.314,443.512 
		-158.05,441.314 -155.689,440.371 -155.063,440.371 -154.118,440.678 -153.48,441.787 -152.854,441.941 -152.063,441.787 
		-150.964,441.149 -150.174,440.371 -149.701,439.578 -148.284,437.062 -147.812,436.271 -147.033,435.799 -146.241,435.647 
		-141.99,437.371 -140.254,438.162 -139.627,438.48 -138.837,438.315 -137.892,438.008 -135.53,436.426 -134.278,435.799 
		-132.388,435.481 -125.775,432.175 -125.138,431.395 -124.192,430.922 -123.248,430.756 -121.997,431.229 -121.051,431.395 
		-120.26,431.395 -114.119,429.034 -112.702,428.868 -110.965,429.505 -109.868,430.285 -107.352,432.812 -106.714,433.284 
		-104.825,432.965 -99.321,429.658 -99.002,428.088 -98.849,427.449 -98.211,425.726 -97.739,424.781 -97.112,424.143 
		-95.224,423.199 -94.432,422.572 -94.125,421.629 -93.959,420.836 -93.652,420.212 -93.334,419.738 -92.235,419.266 
		-91.445,419.266 -90.653,419.585 -89.082,420.212 -88.292,420.365 -87.512,420.529 -86.567,420.365 -85.929,419.893 
		-85.457,419.266 -85.457,418.168 -85.775,417.378 -86.402,416.751 -87.192,416.432 -87.666,415.959 -87.512,415.334 
		-85.457,413.916 -84.512,412.807 -81.052,405.414 -80.733,404.622 -80.733,403.83 -80.898,403.052 -81.525,402.415 -82.15,402.107 
		-84.512,401.315 -85.149,400.843 -85.622,400.217 -86.249,398.801 -86.095,398.009 -85.303,395.966 -84.985,395.175 
		-84.832,394.383 -84.832,393.604 -84.985,392.812 -84.832,391.867 -84.678,391.242 -84.04,390.604 -83.261,390.451 
		-82.315,390.923 -81.678,391.549 -80.579,392.187 -78.689,392.493 -71.286,391.867 -70.187,390.451 -70.033,387.463 
		-69.869,386.199 -69.869,384.936 -70.506,383.99 -71.923,382.573 -72.549,381.947 -72.868,381.156 -73.175,379.586 -73.493,378.96 
		-73.812,378.322 -74.12,377.696 -74.12,376.904 -73.966,375.182 -74.12,374.543 -74.592,373.764 -75.065,372.973 -75.702,372.183 
		-76.009,371.709 -76.175,371.083 -75.702,370.291 -74.758,369.193 -70.34,366.984 -67.353,364.47 -65.145,362.107 -64.2,360.69 
		-60.113,353.286 -58.85,352.188 -57.905,351.869 -56.335,351.562 -55.543,351.243 -54.752,350.924 -53.5,349.672 -52.709,349.034 
		-50.973,348.408 -50.029,347.783 -48.93,346.672 -47.513,344.63 -46.886,343.365 -46.886,342.114 -47.359,341.323 -47.832,340.697 
		-47.985,339.752 -47.666,338.643 -46.568,337.071 -45.623,336.444 -44.679,336.444 -43.887,336.444 -43.107,335.808 
		-42.316,334.709 -41.372,332.667 -40.58,331.402 -39.954,330.458 -37.439,328.414 -36.801,327.624 -36.494,326.68 -36.494,325.888 
		-36.801,324.637 -36.801,323.845 -36.176,322.9 -35.703,321.801 -35.703,320.385 -37.593,313.925 -37.12,311.881 -34.605,309.991 
		-33.187,309.354 -32.869,308.882 -31.924,308.102 -30.507,307.784 -30.353,307.465 -29.409,306.52 -28.771,306.048 
		-28.144,306.212 -27.673,306.685 -27.52,307.465 -27.2,308.102 -26.727,308.41 -24.684,307.465 -23.574,307.312 -20.906,308.102 
		-19.489,308.882 -16.489,311.091 -13.347,313.771 -12.875,314.551 -12.71,315.342 -12.237,316.132 -11.458,316.912 -9.721,317.704 
		-8.777,318.33 -7.833,319.121 -7.36,319.594 -6.734,320.065 -5.79,320.385 -3.734,320.385 0.989,318.802 6.02,315.814 
		6.812,315.661 7.603,315.661 8.382,316.132 8.855,316.604 9.492,316.912 10.119,316.912 12.48,315.495 12.953,315.342 
		14.689,315.023 19.566,315.023 21.609,314.078 24.916,313.605 25.553,313.298 26.179,312.825 26.333,312.188 26.499,311.881 
		26.333,311.562 26.333,311.244 26.025,310.465 24.136,307.158 23.972,306.367 23.972,305.422 24.609,304.476 28.069,301.796 
		28.859,300.852 29.486,299.754 30.112,298.182 30.431,296.918 31.056,295.655 32.946,291.568 33.265,290.151 32.946,288.889 
		32.475,288.098 31.848,287.152 31.695,286.206 31.529,285.108 31.695,284.165 31.848,283.373 35.309,280.539 35.781,280.066 
		36.252,277.232 36.418,276.76 36.891,276.452 38.615,276.135 40.505,275.035 41.142,274.398 44.131,269.521 44.756,269.366 
		45.229,268.895 45.701,268.576 46.338,266.84 47.438,264.796 47.591,264.323 47.591,263.852 47.591,263.379 47.591,262.753 
		47.438,262.281 47.284,261.963 46.965,261.643 46.811,261.336 46.338,261.017 46.019,260.699 45.866,260.392 46.019,259.919 
		46.646,259.446 48.062,259.129 49.008,258.974 49.645,259.129 49.952,259.28 50.744,259.754 52.007,260.865 54.051,261.809 
		56.731,262.281 57.357,262.115 57.829,261.809 58.455,261.172 59.247,258.502 61.135,250.625 59.565,249.68 59.4,249.054 
		59.094,247.79 59.094,246.054 59.094,243.693 58.928,242.123 58.455,240.704 56.885,239.134 56.412,238.189 56.258,237.08 
		57.204,232.827 57.675,232.047 58.455,231.576 60.191,230.939 60.664,230.466 61.135,229.84 61.289,229.367 61.455,228.741 
		61.608,227.478 61.762,225.27 61.762,223.38 61.608,222.601 60.817,220.546 57.982,216.933 57.204,216.294 56.731,215.669 
		56.565,215.514 55.786,215.35 55.148,215.196 54.369,214.877 53.897,214.404 53.578,213.46 53.259,211.89 52.952,210.944 
		52.479,210.153 50.425,207.484 50.271,206.54 50.425,205.594 51.369,204.484 53.259,203.387 54.204,202.441 55.314,201.178 
		56.093,200.551 57.038,200.233 58.774,200.551 59.247,200.399 59.565,200.399 59.872,199.927 61.135,198.19 61.762,197.4 
		62.4,196.927 63.179,195.981 63.817,194.884 64.442,192.84 65.068,191.577 65.541,190.478 66.178,189.534 67.595,188.117 
		68.068,187.325 67.902,185.437 	"/>
</g>
</svg>
