<?xml version="1.0" encoding="utf-8"?>
<!-- Generator: Adobe Illustrator 16.0.4, SVG Export Plug-In . SVG Version: 6.00 Build 0)  -->
<!DOCTYPE svg PUBLIC "-//W3C//DTD SVG 1.1//EN" "http://www.w3.org/Graphics/SVG/1.1/DTD/svg11.dtd">
<svg version="1.1" id="Calque_1" xmlns="http://www.w3.org/2000/svg" xmlns:xlink="http://www.w3.org/1999/xlink" x="0px" y="0px"
	 width="500px" height="500px" viewBox="0 0 500 500" enable-background="new 0 0 500 500" xml:space="preserve">
<polygon id="Île-de-France" fill="#FFFFFF" stroke="#010101" stroke-width="2" stroke-linecap="round" stroke-linejoin="round" points="
	88.483,16.009 88.126,19.299 87.756,20.218 87.03,21.137 85.933,21.494 82.451,21.494 81.176,21.863 80.998,22.59 81.354,23.331 
	82.821,24.606 82.999,25.524 82.272,26.25 80.806,27.525 80.079,28.623 79.708,30.268 79.708,31.186 79.901,31.734 80.079,31.734 
	80.627,31.913 81.902,31.734 82.451,31.734 82.643,32.105 82.999,32.461 83.547,33.558 84.288,34.476 85.192,35.024 85.562,35.944 
	85.933,36.848 86.111,37.767 86.659,40.33 86.837,41.976 85.933,45.814 86.111,47.638 86.481,48.912 87.386,49.461 88.305,49.461 
	90.32,48.734 90.869,48.734 91.595,48.912 92.322,50.38 94.707,53.492 90.128,57.509 88.305,60.429 87.386,63.171 86.659,65.008 
	85.562,66.105 84.288,66.461 82.999,66.653 81.354,67.009 80.806,67.38 80.627,68.298 81.176,69.203 82.272,71.041 82.451,71.588 
	82.095,72.493 79.901,74.331 79.352,75.427 79.16,76.332 80.257,78.718 80.449,79.267 80.257,79.993 79.708,82.008 79.352,83.831 
	79.708,85.298 77.159,88.219 75.514,91.139 74.595,91.688 73.677,91.509 71.675,90.783 70.578,90.59 59.967,92.428 58.321,92.236 
	57.225,91.879 52.111,91.509 51.014,91.688 50.096,92.057 49.547,92.428 48.643,93.154 48.094,93.333 42.789,93.154 42.062,93.703 
	41.691,94.251 41.322,95.526 41.144,96.815 40.965,97.719 40.417,98.638 40.046,99.557 39.676,100.654 39.676,101.558 
	39.676,102.655 39.676,103.751 40.046,104.849 40.595,105.946 41.144,106.864 41.513,107.782 41.322,108.88 40.773,109.605 
	40.224,110.525 40.046,110.703 39.128,112.896 38.58,113.993 37.305,115.268 34.014,116.914 32.739,117.654 32.19,118.559 
	31.642,119.477 31.272,121.301 31.094,123.315 30.545,125.509 19.935,129.169 18.481,129.348 16.835,128.978 16.835,128.073 
	17.192,126.976 17.741,126.058 17.385,125.331 16.096,124.783 13.354,125.139 11.708,125.688 10.611,126.605 9.885,127.703 
	8.788,128.8 6.773,130.267 5.319,130.623 -8.938,129.526 -10.776,129.718 -14.422,130.815 -15.89,130.815 -17.534,130.444 
	-18.454,129.718 -19.18,128.8 -19.358,127.881 -19.18,126.976 -18.632,126.058 -17.905,125.331 -16.986,125.331 -14.244,125.879 
	-13.874,125.688 -13.326,125.139 -13.147,124.413 -13.326,123.495 -14.066,122.219 -14.066,121.849 -14.066,121.492 -12.97,119.477 
	-12.599,118.559 -12.599,117.461 -13.326,116.187 -14.793,114.72 -20.647,110.703 -20.826,110.525 -21.003,109.976 -22.47,104.122 
	-23.019,102.655 -24.664,100.461 -28.681,101.202 -33.26,98.46 -34.357,98.638 -35.083,99.187 -35.81,100.283 -36.907,101.202 
	-39.648,101.928 -40.938,101.558 -41.485,100.832 -41.664,99.735 -42.213,98.638 -43.309,97.719 -44.584,96.623 -45.681,96.815 
	-46.421,97.363 -47.326,99.557 -47.875,100.461 -48.792,101.38 -52.454,103.025 -67.616,106.494 -69.262,105.397 -69.454,104.492 
	-69.454,103.574 -68.905,102.847 -67.987,101.928 -66.519,99.735 -66.519,98.816 -66.89,98.268 -68.905,97.171 -69.811,95.526 
	-70.359,93.525 -70.729,89.864 -71.646,88.219 -72.552,87.122 -73.471,86.396 -74.567,85.106 -74.746,83.831 -74.938,80.17 
	-75.665,79.444 -79.503,80.17 -82.246,79.267 -87.359,76.524 -89.003,75.057 -90.1,73.59 -91.02,71.396 -91.197,71.219 
	-91.197,70.122 -91.02,67.75 -91.02,66.832 -91.197,65.735 -91.39,64.459 -91.746,63.171 -92.842,61.525 -94.131,60.621 
	-95.956,59.524 -96.874,58.428 -97.23,57.331 -97.6,55.137 -98.148,53.67 -99.423,52.573 -104.729,48.734 -106.196,47.089 
	-107.101,45.444 -108.02,42.702 -108.938,41.784 -110.583,40.879 -110.761,40.138 -110.94,39.234 -110.583,38.137 -110.035,37.04 
	-108.39,35.024 -107.841,33.928 -107.649,32.652 -107.649,32.105 -107.841,31.734 -110.761,29.911 -111.488,28.992 -111.68,28.266 
	-111.858,26.621 -111.858,25.88 -111.858,25.153 -111.68,24.057 -111.132,21.863 -110.94,20.396 -110.94,18.943 -111.488,16.75 
	-112.228,15.283 -113.874,13.089 -119.535,1.75 -120.084,-0.25 -120.262,-1.169 -120.084,-2.444 -120.084,-3.541 -120.632,-4.089 
	-121.551,-4.46 -122.456,-4.46 -123.374,-4.83 -123.922,-5.734 -123.922,-6.652 -123.922,-7.38 -123.553,-8.847 -123.553,-9.395 
	-123.553,-10.313 -123.745,-11.218 -124.649,-13.604 -124.649,-14.701 -123.553,-15.605 -110.391,-18.718 -106.196,-21.089 
	-101.261,-38.282 -98.148,-44.67 -96.503,-43.217 -96.325,-42.12 -95.956,-40.283 -95.228,-39.186 -93.939,-38.09 -92.664,-37.733 
	-91.567,-37.542 -88.277,-37.542 -83.342,-35.896 -80.229,-35.348 -78.407,-34.621 -74.746,-35.539 -69.811,-35.718 
	-67.808,-36.088 -66.163,-36.993 -61.776,-40.283 -60.488,-41.202 -58.842,-41.75 -57.937,-41.572 -57.197,-40.832 -56.47,-39.927 
	-55.003,-38.83 -52.262,-37.363 -50.808,-37.363 -48.245,-36.814 -41.485,-33.895 -40.019,-33.524 -38.552,-33.703 -34.905,-35.896 
	-33.068,-36.444 -31.422,-35.896 -13.147,-25.847 -12.051,-25.847 -10.227,-26.573 -9.488,-26.217 -8.938,-25.476 -8.39,-24.572 
	-7.485,-23.105 -5.292,-21.282 -0.713,-23.475 1.837,-22.926 3.675,-20.911 4.949,-19.993 6.047,-19.993 8.24,-20.911 
	9.158,-20.542 10.063,-19.636 10.611,-19.088 11.708,-18.718 12.805,-18.718 13.545,-19.088 14.093,-19.636 14.642,-20.542 
	15.739,-21.459 16.835,-21.638 17.932,-21.459 23.595,-19.815 31.821,-21.282 33.466,-22.008 34.562,-21.638 36.029,-20.362 
	36.935,-20.362 38.58,-21.829 40.046,-22.556 41.513,-22.734 43.159,-22.556 44.255,-23.105 46.627,-24.75 53.029,-22.734 
	53.934,-21.638 55.031,-20.362 56.498,-16.702 56.676,-15.249 56.498,-13.604 55.95,-12.507 55.771,-11.588 55.771,-10.862 
	56.128,-9.573 56.868,-8.477 71.853,4.863 73.128,5.233 74.773,4.315 75.692,4.137 76.418,4.863 76.788,5.782 77.337,8.153 
	77.337,9.977 77.515,11.074 78.434,12.719 82.272,15.46 83.918,16.201 85.385,16.558 "/>
<polygon id="Centre" fill="#FFFFFF" stroke="#010101" stroke-width="2" stroke-linecap="round" stroke-linejoin="round" points="
	30.545,125.509 31.999,125.509 33.836,125.688 37.853,126.785 39.128,127.703 40.046,128.251 40.773,129.169 41.144,130.267 
	43.159,137.944 43.885,139.219 44.804,140.316 48.094,142.879 49.739,144.703 50.096,145.8 50.288,146.896 50.644,149.639 
	50.096,151.654 48.094,156.397 47.176,157.864 46.257,158.592 44.063,159.88 42.966,160.784 41.322,162.8 40.595,163.719 
	39.676,164.075 38.223,163.897 37.853,164.267 37.483,165.364 38.032,169.381 38.401,170.848 39.319,172.671 39.676,173.59 
	39.128,174.865 38.58,175.783 38.223,176.51 38.032,177.429 38.401,178.525 38.401,179.622 38.401,180.719 37.483,182.171 
	36.578,182.912 33.096,184.187 29.806,186.381 28.708,186.751 27.803,186.751 25.789,186.559 23.773,186.929 22.676,187.299 
	21.95,187.848 21.223,188.574 21.031,188.944 20.675,190.397 20.675,191.864 20.853,193.141 21.223,194.059 22.319,194.785 
	23.225,194.785 24.322,195.155 25.24,195.881 28.16,198.625 29.449,199.913 30.902,202.832 31.45,204.478 31.45,205.945 
	30.353,207.769 30.545,209.042 31.094,210.509 34.192,214.528 35.111,217.09 32.917,217.817 28.9,217.817 27.803,218.188 
	23.595,220.559 23.595,221.3 23.225,221.848 25.967,225.316 27.063,227.511 27.981,230.252 28.708,231.527 30.545,233.913 
	31.094,234.817 31.272,235.558 31.272,236.655 30.545,241.042 30.175,241.59 29.627,243.043 29.257,244.14 29.079,244.688 
	28.708,245.428 27.612,247.801 26.336,249.445 25.418,251.461 25.24,252.01 25.24,252.559 25.418,253.463 26.159,254.752 
	26.707,255.479 27.063,255.849 27.612,256.205 27.981,256.575 29.079,256.944 29.449,257.124 29.806,257.493 32.547,261.14 
	33.288,261.88 34.933,262.978 35.48,263.526 35.838,264.431 36.208,265.72 37.305,271.203 37.483,271.752 38.223,273.396 
	39.676,277.784 40.965,282.35 41.144,282.897 41.87,285.64 41.87,286.735 41.87,288.011 41.691,290.397 41.513,291.672 
	41.691,292.77 42.24,293.865 42.61,294.413 44.612,296.238 44.982,296.607 45.352,296.978 45.53,297.525 45.709,300.445 
	45.709,304.285 46.079,306.108 46.257,307.205 46.257,308.493 45.9,310.14 45.16,313.608 44.255,316.171 44.063,316.897 
	44.063,317.625 44.255,318.914 44.434,319.64 45.709,322.012 45.709,322.561 45.9,323.108 46.079,324.205 45.709,325.303 
	44.982,326.947 42.61,331.526 42.062,332.802 41.87,333.171 41.513,336.462 38.58,336.462 35.838,336.093 31.094,337.56 
	24.513,341.946 23.773,342.494 23.046,344.14 22.498,345.236 21.401,346.332 20.304,346.14 19.208,345.784 17.932,345.593 
	17.014,346.14 15.369,347.979 14.451,348.156 10.981,346.689 10.433,345.962 10.063,345.414 9.158,345.045 8.61,345.593 
	6.965,347.608 3.853,350.35 2.029,351.816 -0.713,351.816 -1.261,352.366 -1.261,353.092 -0.905,355.286 -1.453,356.203 
	-2.55,356.382 -4.922,356.203 -5.648,356.382 -6.019,356.931 -6.019,357.849 -5.648,358.577 -4.552,360.222 -4.195,361.139 
	-4.373,361.688 -5.1,363.142 -5.292,364.237 -5.1,365.157 -4.552,366.254 -2.906,368.269 -2.358,369.174 -2.001,370.091 
	-1.81,370.641 -1.632,371.367 -1.632,372.107 -1.81,372.834 -2.18,373.203 -10.954,375.754 -15.89,376.125 -18.81,376.852 
	-19.729,376.852 -20.826,376.673 -22.47,376.852 -24.486,377.399 -30.875,380.512 -32.341,383.075 -33.438,384.173 -34.357,384.72 
	-35.083,384.898 -35.81,385.446 -36.358,386.173 -37.098,388.011 -39.841,392.755 -50.259,392.206 -55.744,393.494 -59.212,392.028 
	-65.245,392.028 -65.972,391.85 -68.165,390.562 -69.454,390.205 -78.776,390.013 -79.874,390.205 -80.97,390.562 -83.164,392.206 
	-84.068,392.755 -85.536,392.575 -86.454,391.657 -88.647,388.738 -89.552,388.011 -90.471,388.011 -91.39,388.188 -92.295,389.464 
	-92.486,390.562 -92.486,391.479 -92.295,392.575 -92.295,393.494 -92.664,394.399 -93.035,395.318 -93.939,396.044 
	-95.228,396.416 -99.615,395.318 -100.712,395.688 -101.987,396.594 -103.084,397.511 -104.002,398.43 -105.277,398.609 
	-107.101,398.238 -108.02,397.333 -108.197,396.416 -108.02,395.496 -108.568,394.769 -109.664,394.221 -112.407,394.769 
	-113.874,394.399 -114.971,393.852 -116.067,393.674 -117.712,394.043 -124.471,401.172 -127.761,403.174 -132.519,400.076 
	-133.066,399.156 -133.423,398.061 -134.164,397.141 -135.069,396.416 -136.166,396.235 -137.632,396.963 -138.181,397.883 
	-138.55,398.786 -139.277,399.705 -140.745,400.076 -145.31,400.623 -146.776,400.623 -148.052,400.432 -149.519,399.334 
	-150.793,399.156 -152.617,397.689 -150.793,391.479 -152.069,389.655 -154.084,388.366 -155.181,387.642 -156.278,385.995 
	-156.456,384.72 -155.551,381.062 -155.551,380.512 -155.907,379.592 -156.278,378.866 -156.826,377.77 -157.745,376.852 
	-158.65,376.125 -159.568,375.754 -160.665,375.398 -167.067,375.398 -168.342,374.849 -168.891,373.932 -169.069,371.559 
	-169.809,370.818 -170.536,370.463 -172.551,369.914 -175.471,368.269 -177.843,366.074 -179.132,364.608 -180.037,363.142 
	-180.585,360.769 -180.955,358.754 -180.955,355.655 -180.777,354.736 -180.585,353.819 -180.229,352.722 -179.859,351.816 
	-179.859,350.35 -180.229,348.525 -181.504,345.784 -182.23,344.317 -184.424,341.753 -188.811,338.106 -201.246,319.64 
	-203.439,313.06 -204.536,310.865 -205.632,309.591 -206.729,308.851 -208.923,307.945 -214.777,304.285 -216.052,303.736 
	-216.231,304.106 -216.423,304.285 -216.231,304.833 -216.231,305.204 -216.231,306.479 -216.052,307.026 -215.874,307.397 
	-215.503,307.754 -215.326,308.301 -215.134,308.673 -214.956,309.22 -214.777,309.768 -214.777,310.317 -215.134,310.865 
	-216.052,311.236 -216.97,311.593 -225.375,311.962 -227.199,312.512 -228.117,312.882 -228.666,313.608 -229.392,314.333 
	-230.489,314.704 -235.246,313.786 -239.811,314.333 -241.827,313.786 -242.923,312.882 -243.65,311.784 -244.021,310.687 
	-244.199,309.591 -244.199,307.397 -244.199,304.463 -243.472,301.365 -243.293,299.527 -243.472,298.623 -243.843,297.883 
	-244.747,297.705 -246.94,297.525 -247.681,296.785 -248.229,295.141 -248.956,294.784 -249.875,294.592 -252.247,295.511 
	-253.521,295.881 -254.988,295.881 -255.907,295.332 -256.085,294.413 -255.907,293.317 -255.537,292.221 -255.358,291.124 
	-255.537,289.849 -255.907,288.751 -256.811,288.382 -259.197,289.3 -260.65,289.3 -261.2,288.56 -261.391,287.833 
	-261.391,286.735 -261.2,285.817 -261.747,284.913 -262.487,284.913 -264.311,286.011 -265.408,286.188 -266.326,285.817 
	-266.875,284.913 -267.423,283.815 -267.971,282.897 -269.068,280.883 -267.423,269.01 -265.585,260.413 -265.038,258.398 
	-264.489,257.302 -263.214,255.3 -260.294,251.27 -257.36,246.334 -257.36,245.059 -257.908,242.139 -257.73,240.671 
	-256.455,236.833 -256.085,234.64 -252.794,227.14 -252.617,226.043 -252.794,224.768 -253.521,222.027 -253.521,220.012 
	-253.165,218.188 -250.601,211.606 -246.036,212.882 -243.101,213.252 -237.07,215.075 -235.616,214.897 -235.246,214.17 
	-235.424,213.252 -235.794,211.429 -235.973,210.332 -235.973,209.235 -235.616,208.316 -234.327,207.22 -233.231,207.22 
	-230.859,208.687 -229.392,209.042 -228.666,208.687 -228.487,207.769 -227.569,206.849 -225.923,205.753 -221.714,204.848 
	-216.052,201.914 -214.777,201.558 -213.311,201.365 -212.213,201.009 -211.843,200.269 -211.843,199.363 -212.036,198.445 
	-212.94,196.252 -211.665,192.961 -209.293,190.397 -207.278,189.122 -206.003,188.752 -205.812,188.752 -203.439,187.478 
	-200.519,185.462 -199.052,184.187 -197.955,182.912 -195.214,174.316 -195.036,173.22 -195.036,172.122 -195.036,170.848 
	-195.214,169.75 -195.214,168.654 -195.214,167.366 -194.844,165.912 -194.294,164.267 -193.02,163.17 -191.553,162.073 
	-189.181,159.688 -188.263,158.234 -187.906,156.946 -188.633,154.753 -188.633,153.107 -188.455,151.284 -187.714,147.993 
	-187.537,146.349 -188.084,145.622 -189.908,145.429 -190.648,145.251 -191.004,144.524 -191.375,143.606 -191.924,142.51 
	-192.472,141.235 -192.472,139.946 -191.745,139.219 -190.827,139.041 -188.633,138.849 -187.714,138.671 -186.617,137.944 
	-186.617,137.025 -187.166,136.299 -188.084,135.75 -188.811,135.011 -188.811,133.735 -188.455,133.008 -187.166,132.269 
	-183.519,129.718 -181.326,128.8 -180.407,127.703 -180.407,126.785 -180.955,125.879 -181.874,125.331 -182.778,125.139 
	-186.07,124.961 -187.166,124.591 -192.293,120.752 -191.004,120.025 -190.278,119.299 -189.552,118.38 -189.36,117.105 
	-189.729,115.459 -190.278,114.171 -192.102,111.074 -192.293,110.703 -192.472,110.154 -192.65,109.057 -192.65,107.782 
	-192.293,105.767 -192.472,104.492 -192.842,103.395 -193.568,102.847 -194.294,101.928 -194.844,100.832 -194.294,99.008 
	-193.938,97.911 -193.391,97.363 -192.65,97.171 -190.827,96.815 -189.36,96.444 -182.23,93.525 -180.037,92.057 -176.938,89.137 
	-176.39,88.219 -175.841,86.025 -175.293,85.106 -174.745,84.009 -173.827,82.913 -173.278,81.816 -173.456,80.719 -174.553,79.074 
	-175.471,77.978 -176.198,77.073 -176.568,76.154 -176.746,74.687 -176.746,73.59 -176.746,72.493 -176.39,71.396 -176.39,71.219 
	-176.198,70.67 -176.198,69.943 -176.39,68.847 -176.938,67.75 -182.422,61.525 -185.521,59.703 -186.809,58.235 -188.633,54.767 
	-189.729,52.395 -190.456,45.266 -186.988,41.605 -185.891,40.687 -184.616,39.96 -174.553,37.04 -173.456,37.04 -172.36,37.218 
	-171.263,37.04 -170.166,36.491 -169.261,35.203 -168.713,34.106 -167.972,33.01 -167.067,32.283 -165.6,31.734 -164.503,31.556 
	-162.31,31.734 -162.131,31.734 -161.762,31.734 -161.035,31.556 -160.486,31.008 -160.117,30.089 -160.117,28.074 -159.747,27.347 
	-159.197,27.169 -157.923,27.717 -155.181,30.268 -154.084,30.638 -152.987,30.816 -151.891,31.008 -148.23,30.638 -147.133,30.816 
	-146.229,31.186 -145.31,31.913 -145.132,31.913 -144.761,31.734 -144.213,31.556 -139.826,28.992 -137.263,27.896 -136.166,26.978 
	-135.069,25.88 -134.342,23.687 -133.972,22.042 -133.245,20.588 -132.148,19.122 -129.776,16.927 -128.132,15.831 -125.568,14.557 
	-124.649,13.815 -123.922,12.719 -123.553,11.074 -123.553,9.977 -124.471,6.509 -124.292,5.233 -123.745,4.315 -119.535,1.75 
	-113.874,13.089 -112.228,15.283 -111.488,16.75 -110.94,18.943 -110.94,20.396 -111.132,21.863 -111.68,24.057 -111.858,25.153 
	-111.858,25.88 -111.858,26.621 -111.68,28.266 -111.488,28.992 -110.761,29.911 -107.841,31.734 -107.649,32.105 -107.649,32.652 
	-107.841,33.928 -108.39,35.024 -110.035,37.04 -110.583,38.137 -110.94,39.234 -110.761,40.138 -110.583,40.879 -108.938,41.784 
	-108.02,42.702 -107.101,45.444 -106.196,47.089 -104.729,48.734 -99.423,52.573 -98.148,53.67 -97.6,55.137 -97.23,57.331 
	-96.874,58.428 -95.956,59.524 -94.131,60.621 -92.842,61.525 -91.746,63.171 -91.39,64.459 -91.197,65.735 -91.02,66.832 
	-91.02,67.75 -91.197,70.122 -91.197,71.219 -91.02,71.396 -90.1,73.59 -89.003,75.057 -87.359,76.524 -82.246,79.267 
	-79.503,80.17 -75.665,79.444 -74.938,80.17 -74.746,83.831 -74.567,85.106 -73.471,86.396 -72.552,87.122 -71.646,88.219 
	-70.729,89.864 -70.359,93.525 -69.811,95.526 -68.905,97.171 -66.89,98.268 -66.519,98.816 -66.519,99.735 -67.987,101.928 
	-68.905,102.847 -69.454,103.574 -69.454,104.492 -69.262,105.397 -67.616,106.494 -52.454,103.025 -48.792,101.38 -47.875,100.461 
	-47.326,99.557 -46.421,97.363 -45.681,96.815 -44.584,96.623 -43.309,97.719 -42.213,98.638 -41.664,99.735 -41.485,100.832 
	-40.938,101.558 -39.648,101.928 -36.907,101.202 -35.81,100.283 -35.083,99.187 -34.357,98.638 -33.26,98.46 -28.681,101.202 
	-24.664,100.461 -23.019,102.655 -22.47,104.122 -21.003,109.976 -20.826,110.525 -20.647,110.703 -14.793,114.72 -13.326,116.187 
	-12.599,117.461 -12.599,118.559 -12.97,119.477 -14.066,121.492 -14.066,121.849 -14.066,122.219 -13.326,123.495 -13.147,124.413 
	-13.326,125.139 -13.874,125.688 -14.244,125.879 -16.986,125.331 -17.905,125.331 -18.632,126.058 -19.18,126.976 -19.358,127.881 
	-19.18,128.8 -18.454,129.718 -17.534,130.444 -15.89,130.815 -14.422,130.815 -10.776,129.718 -8.938,129.526 5.319,130.623 
	6.773,130.267 8.788,128.8 9.885,127.703 10.611,126.605 11.708,125.688 13.354,125.139 16.096,124.783 17.385,125.331 
	17.741,126.058 17.192,126.976 16.835,128.073 16.835,128.978 18.481,129.348 19.935,129.169 "/>
<polygon fill="#FFFFFF" stroke="#010101" stroke-width="2" stroke-linecap="round" stroke-linejoin="round" points="
	473.276,223.494 473.091,222.574 472.362,221.3 471.445,219.833 465.782,213.43 464.502,212.704 463.404,212.526 462.308,212.704 
	461.396,212.704 460.478,212.155 459.93,211.058 459.75,209.783 459.93,209.042 460.3,208.316 461.944,205.945 462.493,204.848 
	463.041,203.751 463.404,202.654 463.591,201.736 463.591,200.64 463.591,199.542 463.219,196.073 462.671,194.059 461.574,192.592 
	459.93,190.946 445.123,182.363 444.396,181.445 443.848,180.527 443.662,177.977 440.92,177.607 432.51,171.204 430.316,169.202 
	428.855,168.284 425.565,167.009 424.47,166.091 423.372,164.994 421.363,162.073 419.349,159.88 418.073,159.139 416.976,158.961 
	416.242,159.51 415.695,160.428 414.598,162.251 414.049,163.348 413.138,164.075 411.855,164.815 410.574,165.171 408.929,165.364 
	406.921,165.364 405.823,164.994 404.912,164.623 395.767,158.783 391.751,157.138 386.444,157.494 384.621,158.234 383.34,159.331 
	382.243,160.058 380.781,160.428 378.219,160.428 376.574,159.688 375.113,158.413 373.282,157.864 372.188,157.138 
	371.823,156.397 371.823,154.396 371.823,153.477 371.274,152.202 370.179,151.106 367.985,149.639 363.049,148.363 361.404,148.72 
	360.122,149.09 359.396,149.817 358.113,151.284 356.283,154.026 355.372,154.944 352.814,156.589 351.532,157.864 350.799,158.592 
	349.702,158.961 348.977,158.413 348.977,157.687 349.339,155.671 349.339,154.574 349.154,153.656 348.605,153.107 
	347.879,152.929 347.332,153.477 346.597,154.204 344.952,157.864 344.589,158.592 343.307,159.688 341.299,160.236 342.024,162.43 
	341.847,163.17 341.299,164.075 340.38,164.445 339.283,164.623 338.008,165.171 337.274,166.269 335.081,169.93 333.984,171.025 
	322.831,178.882 321.734,180.719 321.186,182.171 322.104,184.735 322.283,186.559 321.556,189.493 321.371,191.316 
	321.371,192.783 321.556,194.236 321.734,195.703 321.371,197.527 320.459,198.816 319.363,199.542 309.307,203.01 308.21,203.203 
	307.112,203.01 306.017,202.654 300.347,199.363 298.524,199.172 296.879,200.091 294.315,200.461 293.218,200.461 291.943,201.009 
	291.21,201.914 290.477,202.832 287.187,210.88 286.637,211.977 286.273,212.526 285.54,213.073 284.629,212.882 284.082,211.606 
	283.532,210.88 282.436,210.688 281.702,211.237 278.597,213.622 277.686,213.801 276.767,213.43 276.04,211.785 275.854,209.591 
	275.492,209.042 274.943,208.495 273.661,208.138 271.104,206.493 269.274,204.848 268.178,203.751 267.813,202.654 
	267.813,201.558 267.444,200.816 266.718,200.091 265.436,200.269 264.702,201.009 264.153,201.736 263.791,202.654 263.058,203.56 
	262.331,204.107 261.411,204.478 260.314,204.656 259.402,204.478 258.306,204.107 256.298,202.654 255.201,201.558 
	254.104,200.091 252.459,197.349 251.361,195.881 250.081,195.703 249.532,196.252 248.25,197.896 247.702,198.268 246.975,198.625 
	246.057,198.445 244.959,197.527 244.048,195.703 243.685,194.236 243.137,189.671 243.137,188.752 243.137,188.574 
	242.403,187.299 241.306,186.203 240.758,185.106 240.943,183.817 241.67,183.09 242.588,182.72 244.782,182.542 245.693,182.363 
	246.426,181.815 246.79,180.896 246.79,179.8 246.426,178.882 244.596,174.494 242.218,170.656 236.918,163.719 235.822,163.527 
	235.096,163.897 234.355,165.542 233.629,166.091 232.902,165.912 231.983,165.364 231.436,163.897 231.613,162.8 231.983,161.703 
	233.08,160.058 233.258,159.139 233.258,158.592 232.902,157.864 231.805,156.946 228.145,155.671 227.048,155.123 226.678,153.848 
	227.596,152.01 227.418,151.106 226.321,150.365 219.741,148.912 216.258,146.349 213.338,148.172 212.242,148.363 210.418,148.542 
	207.127,147.445 205.661,147.445 204.194,148.172 202.192,150.187 201.644,151.462 201.644,152.75 201.821,153.848 201.273,154.574 
	199.806,155.3 177.322,158.234 173.305,161.703 172.03,161.703 171.112,160.977 169.837,160.058 168,157.687 166.547,154.753 
	165.999,154.026 165.45,154.396 165.258,155.123 165.258,156.041 165.258,157.138 165.258,158.043 164.901,158.783 164.353,159.331 
	163.612,158.961 162.516,157.864 161.419,157.138 160.145,156.946 159.048,157.494 158.321,158.234 157.951,159.139 157.402,159.88 
	156.484,160.236 155.387,160.428 153.193,160.428 151.191,159.688 150.273,159.51 149.354,159.688 147.901,161.333 146.982,161.882 
	146.064,161.882 145.16,161.703 143.514,160.784 142.966,160.606 142.047,160.606 138.03,160.977 135.289,160.606 134.37,160.058 
	133.643,159.331 133.095,157.864 133.095,156.767 133.273,153.477 132.903,152.559 132.547,152.01 131.258,151.833 129.256,152.559 
	128.337,152.559 126.144,151.462 125.417,150.735 125.226,150.009 125.417,149.639 125.965,149.09 127.611,148.72 128.337,148.363 
	128.337,147.445 127.79,146.349 120.481,133.557 118.646,131.172 117.191,129.718 116.643,128.622 116.273,127.333 115.903,126.236 
	115.176,125.139 113.531,124.413 112.613,124.783 112.064,125.509 111.885,126.236 111.516,126.976 109.513,127.525 
	108.046,127.333 106.402,126.058 103.111,123.315 99.272,121.492 99.272,120.395 99.821,119.477 101.836,117.654 102.385,116.735 
	102.563,115.816 102.563,114.912 102.015,112.526 101.836,111.8 102.015,110.525 101.836,109.428 101.096,107.961 100,105.767 
	93.062,96.815 91.773,95.347 89.951,93.88 86.659,92.057 85.015,91.879 83.191,92.428 82.451,91.879 82.095,90.234 81.902,88.945 
	81.546,86.752 79.708,85.298 77.159,88.219 75.514,91.139 74.595,91.688 73.677,91.509 71.675,90.783 70.578,90.59 59.967,92.428 
	58.321,92.236 57.225,91.879 52.111,91.509 51.014,91.688 50.096,92.057 49.547,92.428 48.643,93.154 48.094,93.333 42.789,93.154 
	42.062,93.703 41.691,94.251 41.322,95.526 41.144,96.815 40.965,97.719 40.417,98.638 40.046,99.557 39.676,100.654 
	39.676,101.558 39.676,102.655 39.676,103.751 40.046,104.849 40.595,105.946 41.144,106.864 41.513,107.782 41.322,108.88 
	40.773,109.605 40.224,110.525 40.046,110.703 39.128,112.896 38.58,113.993 37.305,115.268 34.014,116.914 32.739,117.654 
	32.19,118.559 31.642,119.477 31.272,121.301 31.094,123.315 30.545,125.509 31.999,125.509 33.836,125.688 37.853,126.785 
	39.128,127.703 40.046,128.251 40.773,129.169 41.144,130.267 43.159,137.944 43.885,139.219 44.804,140.316 48.094,142.879 
	49.739,144.703 50.096,145.8 50.288,146.896 50.644,149.639 50.096,151.654 48.094,156.397 47.176,157.864 46.257,158.592 
	44.063,159.88 42.966,160.784 41.322,162.8 40.595,163.719 39.676,164.075 38.223,163.897 37.853,164.267 37.483,165.364 
	38.032,169.381 38.401,170.848 39.319,172.671 39.676,173.59 39.128,174.865 38.58,175.783 38.223,176.51 38.032,177.429 
	38.401,178.525 38.401,179.622 38.401,180.719 37.483,182.171 36.578,182.912 33.096,184.187 29.806,186.381 28.708,186.751 
	27.803,186.751 25.789,186.559 23.773,186.929 22.676,187.299 21.95,187.848 21.223,188.574 21.031,188.944 20.675,190.397 
	20.675,191.864 20.853,193.141 21.223,194.059 22.319,194.785 23.225,194.785 24.322,195.155 25.24,195.881 28.16,198.625 
	29.449,199.913 30.902,202.832 31.45,204.478 31.45,205.945 30.353,207.769 30.545,209.042 31.094,210.509 34.192,214.528 
	35.111,217.09 32.917,217.817 28.9,217.817 27.803,218.188 23.595,220.559 23.595,221.3 23.225,221.848 25.967,225.316 
	27.063,227.511 27.981,230.252 28.708,231.527 30.545,233.913 31.094,234.817 31.272,235.558 31.272,236.655 30.545,241.042 
	30.175,241.59 29.627,243.043 29.257,244.14 29.079,244.688 28.708,245.428 27.612,247.801 26.336,249.445 25.418,251.461 
	25.24,252.01 25.24,252.559 25.418,253.463 26.159,254.752 26.707,255.479 27.063,255.849 27.612,256.205 27.981,256.575 
	29.079,256.944 29.449,257.124 29.806,257.493 32.547,261.14 33.288,261.88 34.933,262.978 35.48,263.526 35.838,264.431 
	36.208,265.72 37.305,271.203 37.483,271.752 38.223,273.396 39.676,277.784 40.965,282.35 41.144,282.897 41.87,285.64 
	41.87,286.735 41.87,288.011 41.691,290.397 41.513,291.672 41.691,292.77 42.24,293.865 42.61,294.413 44.612,296.238 
	44.982,296.607 45.352,296.978 45.53,297.525 45.709,300.445 45.709,304.285 46.079,306.108 46.257,307.205 46.257,308.493 
	45.9,310.14 45.16,313.608 44.255,316.171 44.063,316.897 44.063,317.625 44.255,318.914 44.434,319.64 45.709,322.012 
	45.709,322.561 45.9,323.108 46.079,324.205 45.709,325.303 44.982,326.947 42.61,331.526 42.062,332.802 41.87,333.171 
	41.513,336.462 41.322,337.915 41.513,338.654 41.691,339.204 41.87,339.751 42.24,340.657 43.707,342.494 45.709,344.317 
	47.724,345.236 48.643,345.962 48.999,346.14 49.739,346.14 50.644,345.784 51.933,345.962 53.756,346.512 55.031,347.431 
	57.773,350.898 58.692,351.625 59.788,352.173 60.885,352.173 65.094,350.172 66.547,349.801 68.193,349.801 71.126,350.35 
	72.771,351.075 74.965,352.366 75.87,352.542 76.967,352.366 78.063,351.447 79.16,349.432 79.901,348.705 80.998,348.525 
	83.74,349.432 84.288,350.172 85.015,352.173 85.741,353.092 86.29,354.011 86.29,355.108 86.29,356.012 86.29,356.931 
	86.659,357.657 87.579,357.849 89.031,357.657 90.128,357.301 94.516,354.367 95.982,353.819 97.079,353.092 97.449,351.447 
	97.449,350.35 97.806,349.254 99.095,348.525 100,347.787 100.547,346.512 100.547,345.236 100.739,344.317 100.918,343.77 
	103.838,344.317 106.402,349.075 106.772,349.98 107.128,351.625 107.32,352.366 108.595,353.819 108.966,354.188 110.063,355.834 
	110.418,356.012 110.967,356.382 111.516,356.753 111.885,357.657 112.434,359.302 114.257,362.044 115.546,362.593 
	115.903,363.142 116.273,363.881 116.451,366.432 116.273,370.463 116.273,371.01 115.725,372.107 115.725,372.656 115.903,373.203 
	116.821,373.752 118.466,374.301 118.646,374.479 119.741,375.398 120.112,375.576 121.209,375.945 121.757,376.125 
	122.127,376.495 122.305,376.852 122.676,377.221 123.223,377.399 124.677,377.221 125.226,377.221 125.774,377.399 126.323,377.77 
	127.419,379.236 128.886,380.142 129.064,380.512 129.613,381.062 129.983,381.429 130.353,381.786 133.273,382.528 
	136.563,383.075 137.481,383.432 138.757,384.351 140.224,385.077 140.402,385.269 140.772,385.625 140.951,386.365 
	141.128,387.463 141.128,388.559 141.321,389.286 141.499,389.833 141.677,390.205 142.047,390.931 142.047,391.657 
	141.869,392.398 140.951,396.594 140.951,397.511 140.951,398.43 141.128,398.786 141.499,399.156 141.677,399.705 141.869,400.254 
	141.677,400.801 141.677,401.721 141.677,402.446 141.677,402.996 141.869,403.543 142.225,404.093 142.596,404.641 
	142.966,405.011 143.144,405.189 143.322,405.56 143.322,406.107 143.144,406.464 143.144,407.012 141.869,407.931 140.772,409.028 
	131.258,414.511 132.176,416.527 132.354,418.172 132.547,418.351 132.547,418.528 132.176,422.188 132.176,423.107 
	132.354,424.014 133.095,424.752 134,425.109 136.385,425.85 137.481,426.397 140.224,428.771 140.951,429.318 142.225,429.688 
	143.871,429.496 149.725,427.125 151,426.947 152.837,427.303 157.224,428.771 158.128,428.771 159.226,428.771 161.967,427.672 
	163.256,427.495 168.192,428.771 171.482,430.046 172.387,430.046 173.483,430.046 174.581,429.865 175.869,429.496 
	177.514,428.771 180.257,426.576 183.355,422.368 183.903,421.092 184.643,417.803 185.37,414.142 185.548,413.415 185.919,412.497 
	186.467,411.948 187.386,411.771 191.403,413.593 195.419,414.689 197.435,414.511 198.71,413.964 199.45,413.044 200.177,412.688 
	201.273,412.688 202.37,413.964 203.097,415.06 204.016,416.158 205.112,416.527 206.58,416.527 207.483,415.786 208.032,415.06 
	208.225,413.964 208.225,413.044 208.402,412.14 208.951,411.399 210.047,411.043 212.791,412.14 213.708,412.688 213.887,413.964 
	213.708,415.06 213.708,415.978 214.064,416.705 216.258,418.172 216.807,418.898 216.998,420.174 216.807,422.368 216.998,423.285 
	217.904,425.48 218.644,427.672 220.646,429.496 226.678,430.237 226.5,429.141 226.321,428.771 226.321,427.852 226.5,427.125 
	227.048,425.48 228.516,418.351 228.872,417.432 234.547,405.189 234.726,404.641 234.726,404.093 234.726,403.543 234.726,402.446 
	234.726,401.898 234.903,401.351 235.096,400.801 236,399.527 237.282,396.416 237.652,395.141 238.016,393.852 238.749,388.738 
	238.749,388.011 238.927,387.463 240.024,384.72 240.21,384.173 240.943,382.528 241.122,381.979 241.306,380.512 241.306,380.333 
	241.67,379.962 242.218,379.592 243.685,379.236 245.145,379.236 246.605,379.785 250.628,381.608 252.274,381.979 254.653,381.786 
	261.049,379.236 264.153,378.866 265.249,379.236 266.532,379.785 268.362,381.429 270.371,383.623 273.112,385.446 
	280.426,387.463 280.426,392.755 281.523,394.591 284.082,395.318 284.992,395.866 286.089,397.141 286.459,398.43 286.637,399.705 
	287.187,401.721 288.104,402.996 289.016,403.913 291.21,404.463 292.669,405.011 293.951,407.204 294.863,407.562 297.057,407.931 
	297.605,408.656 297.605,409.397 297.428,410.495 297.242,411.592 297.057,413.044 297.057,414.511 297.605,415.431 
	298.524,415.978 301.266,416.884 301.814,416.705 302.177,416.334 302.541,415.978 303.09,415.239 305.283,414.333 305.831,413.964 
	306.201,413.593 307.112,412.317 307.477,411.948 307.846,411.592 308.21,411.399 309.307,411.399 309.855,411.222 310.218,410.851 
	310.589,410.495 310.767,409.206 311.138,408.85 311.5,408.479 312.234,407.931 312.598,407.562 313.509,406.286 313.879,405.916 
	315.702,404.271 316.072,404.641 321.008,409.028 322.104,410.673 322.468,411.948 322.283,413.044 322.652,414.333 
	323.564,414.882 324.477,415.239 335.814,415.786 338.187,415.608 339.283,415.239 340.202,414.689 343.855,411.399 
	344.589,410.673 345.137,409.754 345.863,409.028 346.597,408.301 347.332,407.931 347.694,407.383 348.977,404.819 
	349.339,404.093 352.992,400.432 353.727,398.979 354.46,397.883 358.847,393.124 358.299,392.755 359.573,391.657 359.759,390.562 
	359.573,389.655 359.573,388.559 359.396,388.011 359.211,387.463 358.847,386.722 358.847,385.817 359.396,384.898 
	360.492,383.623 364.146,377.399 367.985,372.834 365.427,369.914 365.058,367.898 366.524,366.074 380.598,353.092 388.09,349.075 
	389.009,348.156 391.751,345.045 395.219,343.22 396.5,342.494 397.598,340.849 397.961,339.751 397.961,337.011 397.233,336.271 
	396.686,335.544 396.316,334.624 396.5,333.899 398.146,328.963 398.879,327.496 399.058,327.139 399.428,326.222 399.607,324.027 
	399.243,322.382 397.961,319.64 397.412,318.364 399.058,312.882 403.994,309.948 415.331,306.479 422.275,301.172 424.653,297.705 
	423.559,294.784 424.832,292.398 425.929,291.303 428.493,290.397 428.855,289.478 429.219,289.3 430.863,288.382 430.686,285.817 
	433.791,284.722 440.373,278.689 440.735,278.332 442.751,275.041 445.671,271.93 452.801,266.815 452.437,262.978 452.985,259.687 
	454.994,257.672 455.912,257.672 456.461,257.302 458.105,255.3 459.202,254.752 460.3,254.381 461.211,253.833 462.123,252.01 
	461.025,250.543 459.381,249.076 457.736,247.801 455.912,248.719 443.477,249.994 444.026,247.979 445.308,245.606 
	446.768,243.591 449.509,241.947 449.694,239.026 452.437,238.478 454.081,237.381 455.728,236.106 456.461,234.817 
	455.912,232.994 454.814,230.8 454.63,229.156 456.461,228.607 457.558,227.88 458.469,227.511 459.381,227.88 460.3,228.607 
	463.041,228.978 468.34,228.059 470.718,228.607 472.179,229.333 472.362,229.333 472.727,227.511 473.276,226.236 473.276,225.494 
	473.276,224.59 "/>
<polygon fill="#FFFFFF" stroke="#010101" stroke-width="2" stroke-linecap="round" stroke-linejoin="round" points="473.46,543.562 
	468.889,541.56 467.606,540.464 466.694,538.817 465.961,536.981 464.865,535.337 460.3,531.868 455.541,529.305 454.814,527.109 
	454.268,520.899 453.896,519.803 452.623,518.157 452.437,516.883 452.801,515.595 453.896,513.044 454.268,512.125 
	453.534,509.932 452.252,509.012 448.961,508.108 447.501,507.189 445.123,504.818 443.662,504.27 440.92,503.721 438.18,501.526 
	435.984,498.416 434.888,492.204 434.525,489.464 434.704,486.899 435.252,484.336 436.532,482.143 438.18,481.236 441.284,480.689 
	441.284,480.497 441.653,479.77 442.018,479.223 442.564,478.673 442.929,478.851 443.848,479.4 444.212,479.4 444.945,479.223 
	447.501,479.4 449.694,478.673 452.073,477.398 454.268,475.754 455.541,473.189 456.274,471.173 457.188,469.351 458.283,468.076 
	459.75,467.335 459.017,466.06 458.469,464.593 457.736,461.852 456.461,458.752 456.091,457.107 455.541,456.738 448.598,448.689 
	446.22,447.785 445.308,448.142 444.573,448.882 443.662,449.43 442.751,449.238 441.832,448.689 441.653,448.142 442.018,447.594 
	441.832,446.319 442.018,446.319 442.018,444.673 441.832,443.206 441.469,443.397 442.018,442.479 442.929,441.562 
	443.662,440.286 443.662,439.189 442.018,437.723 433.791,435.721 432.88,433.335 433.791,428.043 435.621,422.738 439.275,415.431 
	436.896,411.399 433.243,407.383 431.235,403.913 431.783,402.268 434.525,398.979 435.252,396.416 435.252,394.949 
	435.073,393.674 434.154,392.028 432.51,391.3 416.976,387.271 410.026,387.092 403.266,388.366 394.308,394.591 390.831,395.318 
	387.364,395.496 384.251,396.594 380.781,399.527 377.856,403.543 375.663,406.464 375.113,408.479 375.477,410.123 
	376.396,412.688 376.574,413.237 377.492,415.786 378.041,416.334 379.137,416.884 380.781,416.158 381.51,416.527 382.058,419.995 
	379.314,422.738 372.734,427.303 367.251,433.527 363.96,435.173 360.307,433.706 355.557,433.883 350.799,434.981 348.243,436.448 
	349.702,433.157 350.437,431.69 350.799,430.415 348.977,428.043 347.879,426.027 348.243,424.205 350.799,422.561 357.201,419.447 
	357.201,419.447 357.38,419.447 357.75,419.447 358.477,419.625 359.025,419.817 359.759,419.625 361.953,418.898 362.5,417.98 
	362.315,416.527 362.5,414.882 363.233,410.673 363.598,409.397 365.058,406.107 366.888,401.898 366.702,400.254 365.427,397.883 
	363.96,396.235 358.847,393.124 354.46,397.883 353.727,398.979 352.992,400.432 349.339,404.093 348.977,404.819 347.694,407.383 
	347.332,407.931 346.597,408.301 345.863,409.028 345.137,409.754 344.589,410.673 343.855,411.399 340.202,414.689 
	339.283,415.239 338.187,415.608 335.814,415.786 324.477,415.239 323.564,414.882 322.652,414.333 322.283,413.044 
	322.468,411.948 322.104,410.673 321.008,409.028 316.072,404.641 315.702,404.271 313.879,405.916 313.509,406.286 
	312.598,407.562 312.234,407.931 311.5,408.479 311.138,408.85 310.767,409.206 310.589,410.495 310.218,410.851 309.855,411.222 
	309.307,411.399 308.21,411.399 307.846,411.592 307.477,411.948 307.112,412.317 306.201,413.593 305.831,413.964 305.283,414.333 
	303.09,415.239 302.541,415.978 302.177,416.334 301.814,416.705 301.266,416.884 298.524,415.978 297.605,415.431 297.057,414.511 
	297.057,413.044 297.242,411.592 297.428,410.495 297.605,409.397 297.605,408.656 297.057,407.931 294.863,407.562 
	293.951,407.204 292.669,405.011 291.21,404.463 289.016,403.913 288.104,402.996 287.187,401.721 286.637,399.705 286.459,398.43 
	286.089,397.141 284.992,395.866 284.082,395.318 281.523,394.591 280.426,392.755 280.426,387.463 273.112,385.446 
	270.371,383.623 268.362,381.429 266.532,379.785 265.249,379.236 264.153,378.866 261.049,379.236 254.653,381.786 
	252.274,381.979 250.628,381.608 246.605,379.785 245.145,379.236 243.685,379.236 242.218,379.592 241.67,379.962 241.306,380.333 
	241.306,380.512 241.122,381.979 240.943,382.528 240.21,384.173 240.024,384.72 238.927,387.463 238.749,388.011 238.749,388.738 
	238.016,393.852 237.652,395.141 237.282,396.416 236,399.527 235.096,400.801 234.903,401.351 234.726,401.898 234.726,402.446 
	234.726,403.543 234.726,404.093 234.726,404.641 234.547,405.189 228.872,417.432 228.516,418.351 227.048,425.48 226.5,427.125 
	226.321,427.852 226.321,428.771 226.5,429.141 226.678,430.237 220.646,429.496 218.644,427.672 217.904,425.48 216.998,423.285 
	216.807,422.368 216.998,420.174 216.807,418.898 216.258,418.172 214.064,416.705 213.708,415.978 213.708,415.06 213.887,413.964 
	213.708,412.688 212.791,412.14 210.047,411.043 208.951,411.399 208.402,412.14 208.225,413.044 208.225,413.964 208.032,415.06 
	207.483,415.786 206.58,416.527 205.112,416.527 204.016,416.158 203.097,415.06 202.37,413.964 201.273,412.688 200.177,412.688 
	199.45,413.044 198.71,413.964 197.435,414.511 195.419,414.689 191.403,413.593 187.386,411.771 186.467,411.948 185.919,412.497 
	185.548,413.415 185.37,414.142 184.643,417.803 183.903,421.092 183.355,422.368 180.257,426.576 177.514,428.771 175.869,429.496 
	174.581,429.865 173.483,430.046 172.387,430.046 171.482,430.046 168.192,428.771 163.256,427.495 161.967,427.672 
	159.226,428.771 158.128,428.771 157.224,428.771 152.837,427.303 151,426.947 149.725,427.125 143.871,429.496 142.225,429.688 
	140.951,429.318 140.224,428.771 137.481,426.397 136.385,425.85 134,425.109 133.095,424.752 132.354,424.014 132.176,423.107 
	132.176,422.188 132.547,418.528 132.547,418.351 132.354,418.172 132.176,416.527 131.258,414.511 140.772,409.028 
	141.869,407.931 143.144,407.012 143.144,406.464 143.322,406.107 143.322,405.56 143.144,405.189 142.966,405.011 142.596,404.641 
	142.225,404.093 141.869,403.543 141.677,402.996 141.677,402.446 141.677,401.721 141.677,400.801 141.869,400.254 
	141.677,399.705 141.499,399.156 141.128,398.786 140.951,398.43 140.951,397.511 140.951,396.594 141.869,392.398 142.047,391.657 
	142.047,390.931 141.677,390.205 141.499,389.833 141.321,389.286 141.128,388.559 141.128,387.463 140.951,386.365 
	140.772,385.625 140.402,385.269 140.224,385.077 138.757,384.351 137.481,383.432 136.563,383.075 133.273,382.528 
	130.353,381.786 129.983,381.429 129.613,381.062 129.064,380.512 128.886,380.142 127.419,379.236 126.323,377.77 125.774,377.399 
	125.226,377.221 124.677,377.221 123.223,377.399 122.676,377.221 122.305,376.852 122.127,376.495 121.757,376.125 
	121.209,375.945 120.112,375.576 119.741,375.398 118.646,374.479 118.466,374.301 116.821,373.752 115.903,373.203 
	115.725,372.656 115.725,372.107 116.273,371.01 116.273,370.463 116.451,366.432 116.273,363.881 115.903,363.142 115.546,362.593 
	114.257,362.044 112.434,359.302 111.885,357.657 111.516,356.753 110.967,356.382 110.418,356.012 110.063,355.834 
	108.966,354.188 108.595,353.819 107.32,352.366 107.128,351.625 106.772,349.98 106.402,349.075 103.838,344.317 100.918,343.77 
	100.739,344.317 100.547,345.236 100.547,346.512 100,347.787 99.095,348.525 97.806,349.254 97.449,350.35 97.449,351.447 
	97.079,353.092 95.982,353.819 94.516,354.367 90.128,357.301 89.031,357.657 87.579,357.849 86.659,357.657 86.29,356.931 
	86.29,356.012 86.29,355.108 86.29,354.011 85.741,353.092 85.015,352.173 84.288,350.172 83.74,349.432 80.998,348.525 
	79.901,348.705 79.16,349.432 78.063,351.447 76.967,352.366 75.87,352.542 74.965,352.366 72.771,351.075 71.126,350.35 
	68.193,349.801 66.547,349.801 65.094,350.172 60.885,352.173 59.788,352.173 58.692,351.625 57.773,350.898 55.031,347.431 
	53.756,346.512 51.933,345.962 50.644,345.784 49.739,346.14 48.999,346.14 48.643,345.962 47.724,345.236 45.709,344.317 
	43.707,342.494 42.24,340.657 41.87,339.751 41.691,339.204 41.513,338.654 41.322,337.915 41.513,336.462 38.58,336.462 
	35.838,336.093 31.094,337.56 24.513,341.946 23.773,342.494 23.046,344.14 22.498,345.236 21.401,346.332 20.304,346.14 
	19.208,345.784 17.932,345.593 17.014,346.14 15.369,347.979 14.451,348.156 10.981,346.689 10.433,345.962 10.063,345.414 
	9.158,345.045 8.61,345.593 6.965,347.608 3.853,350.35 2.029,351.816 -0.713,351.816 -1.261,352.366 -1.261,353.092 
	-0.905,355.286 -1.453,356.203 -2.55,356.382 -4.922,356.203 -5.648,356.382 -6.019,356.931 -6.019,357.849 -5.648,358.577 
	-4.552,360.222 -4.195,361.139 -4.373,361.688 -5.1,363.142 -5.292,364.237 -5.1,365.157 -4.552,366.254 -2.906,368.269 
	-2.358,369.174 -2.001,370.091 -1.81,370.641 -1.632,371.367 -1.632,372.107 -1.81,372.834 -2.18,373.203 -10.954,375.754 
	-15.89,376.125 -18.81,376.852 -19.729,376.852 -20.826,376.673 -22.47,376.852 -24.486,377.399 -30.875,380.512 -32.341,383.075 
	-33.438,384.173 -34.357,384.72 -35.083,384.898 -35.81,385.446 -36.358,386.173 -37.098,388.011 -39.841,392.755 -36.18,398.061 
	-33.26,400.801 -32.711,402.268 -32.52,403.913 -31.614,406.464 -30.875,407.562 -29.777,408.109 -27.776,408.85 -24.842,409.397 
	-23.937,410.123 -23.389,411.043 -22.84,412.688 -22.648,413.593 -21.922,414.689 -21.195,414.882 -20.276,413.784 -19.358,413.415 
	-17.905,413.964 -16.809,415.239 -12.599,422.188 -11.873,423.655 -11.132,426.947 -10.776,428.221 -10.035,429.688 -7.842,433.335 
	-7.116,435.721 -7.663,442.479 -7.663,443.754 -7.293,445.592 -6.745,446.867 -5.1,449.979 -4.195,452.172 -3.825,453.625 
	-3.825,454.723 -4.195,456.189 -4.195,456.916 -4.195,458.383 -4.003,460.577 -4.552,461.494 -6.196,463.14 -6.937,464.237 
	-7.485,465.513 -8.212,466.979 -8.938,469.351 -9.679,470.626 -10.583,471.723 -11.324,472.271 -12.051,473.189 -13.518,475.206 
	-13.874,475.754 -14.244,475.754 -14.793,475.932 -16.809,475.561 -17.905,475.932 -18.81,476.658 -20.099,478.125 -21.195,479.223 
	-23.389,480.497 -24.486,481.786 -24.664,482.883 -24.486,483.979 -22.1,487.077 -21.552,487.997 -21.195,489.094 -20.826,490.916 
	-20.455,492.013 -19.906,492.562 -19.001,492.932 -18.262,493.11 -17.356,493.302 -17.165,493.479 -16.616,494.207 -15.711,494.946 
	-12.421,499.143 -11.502,501.526 -11.324,502.432 -11.324,504.625 -11.502,507.189 -11.681,508.656 -11.873,509.384 
	-12.051,509.932 -12.599,510.658 -13.147,511.207 -15.163,511.948 -16.067,512.495 -16.616,513.4 -17.712,518.336 -17.534,519.624 
	-16.986,520.722 -15.163,522.544 -14.615,524.191 -14.422,526.013 -14.422,528.755 -14.422,530.771 -14.066,532.238 
	-13.874,532.965 -12.051,534.062 -14.244,543.206 -15.163,546.304 -15.89,547.045 -16.438,547.399 -17.165,547.593 -20.276,547.045 
	-22.648,545.947 -24.116,544.659 -25.034,544.109 -25.391,543.934 -26.131,543.753 -27.228,543.934 -28.873,544.303 -29.6,544.851 
	-29.777,545.4 -29.6,545.756 -29.229,546.126 -28.681,546.495 -28.503,546.853 -28.132,547.223 -27.954,547.593 -27.776,548.141 
	-27.776,548.866 -27.776,549.416 -27.776,549.964 -27.954,550.514 -29.229,552.885 -29.97,554.899 -30.518,555.271 -31.066,555.818 
	-31.793,555.996 -35.261,561.659 -36.002,562.399 -38.195,563.674 -40.197,564.044 -40.745,564.401 -40.938,564.949 
	-41.485,568.239 -42.034,568.787 -46.051,572.078 -46.229,572.998 -46.421,574.094 -46.229,575.369 -46.051,576.465 
	-45.324,577.562 -44.776,578.48 -44.406,579.947 -44.776,581.592 -46.969,586.336 -47.696,587.803 -48.067,589.27 -48.792,591.093 
	-49.52,592.368 -50.438,593.466 -54.455,596.578 -55.195,597.675 -55.195,598.771 -55.003,599.689 -52.809,603.529 -52.454,604.434 
	-52.454,604.803 -52.262,605.174 -52.454,605.531 -52.631,606.27 -53.358,606.818 -54.098,607.176 -57.937,607.725 -60.309,608.82 
	-59.034,611.562 -58.116,620.338 -57.567,622.899 -56.649,624.916 -52.262,632.045 -50.617,635.334 -50.068,636.981 -49.89,638.434 
	-51.535,646.303 -52.262,648.496 -52.631,649.594 -52.083,649.949 -50.438,650.691 -49.52,651.595 -49.163,652.514 -48.423,656.722 
	-48.067,658.176 -47.326,659.463 -46.051,660.562 -44.954,660.739 -44.035,657.079 -42.391,656.174 -41.293,656.174 -34.905,653.98 
	-33.808,653.98 -32.711,654.159 -32.164,654.885 -31.614,655.626 -30.875,656.352 -30.147,656.352 -29.421,656.174 -28.503,655.435 
	-27.954,655.255 -27.228,655.255 -26.131,655.435 -22.1,655.435 -18.81,655.076 -16.986,653.98 -15.89,652.883 -14.793,651.047 
	-11.502,647.577 -10.954,646.851 -10.406,645.933 -10.227,645.015 -9.857,642.095 -9.488,641.175 -8.39,638.804 -5.84,635.334 
	-5.292,634.238 -5.1,633.32 -4.744,631.496 -4.552,630.4 -4.195,629.481 9.706,614.675 10.433,614.853 11.16,615.401 11.53,616.319 
	12.078,617.239 13.545,618.884 14.271,619.979 14.642,620.886 14.642,621.982 14.642,622.899 14.642,624.724 14.821,625.273 
	15.547,625.465 18.659,624.916 19.578,624.724 20.126,624.916 20.483,625.094 21.771,627.466 23.965,630.207 24.322,631.127 
	25.24,634.238 25.609,634.965 26.336,635.884 27.255,636.432 29.627,636.981 29.997,637.337 30.724,637.886 30.902,638.626 
	30.724,639.353 29.627,639.722 28.9,640.271 28.53,640.997 28.9,641.915 29.449,642.821 29.627,643.739 29.806,644.836 
	29.997,647.755 30.175,648.675 30.545,650.691 31.45,652.691 31.999,653.609 32.739,654.529 36.208,657.449 37.674,652.691 
	38.772,650.869 40.595,648.305 40.965,647.208 41.513,642.095 42.966,635.884 43.885,632.95 44.982,631.127 46.627,630.207 
	47.724,629.11 48.45,626.012 48.821,622.722 49.547,621.624 50.466,620.886 51.384,620.529 52.111,620.886 53.756,623.449 
	54.483,624.366 55.95,623.997 57.965,622.722 63.998,616.689 65.45,615.95 66.191,616.319 67.096,616.319 68.193,615.95 
	69.481,615.401 73.677,612.48 74.416,612.11 75.692,611.754 77.159,611.933 78.063,611.562 78.805,612.11 79.352,612.853 
	79.708,614.675 80.627,617.786 86.481,629.302 88.483,631.496 89.951,632.223 91.417,631.305 92.322,630.948 93.418,630.756 
	97.079,630.577 97.997,630.4 98.902,629.852 99.451,628.932 99.821,628.016 100,626.012 100.192,624.916 100.739,624.175 
	101.466,623.627 102.563,623.449 103.838,623.271 105.674,623.627 106.95,624.366 107.677,625.465 107.677,626.368 107.499,627.287 
	107.128,628.207 106.772,628.932 106.95,629.66 107.677,630.029 113.353,630.948 114.627,631.496 115.725,632.223 118.466,635.334 
	121.579,638.077 123.031,638.981 124.677,639.353 125.226,639.722 125.774,640.448 126.514,640.997 127.241,641.175 
	129.804,641.915 129.256,646.11 129.613,647.949 129.983,649.402 130.353,649.949 130.531,650.498 131.806,654.707 132.725,660.739 
	133.822,664.757 134.918,666.95 137.112,668.417 138.579,671.159 139.484,673.53 142.417,684.869 145.338,687.433 146.982,690.724 
	148.258,692.724 148.45,694.013 147.901,694.74 147.353,695.467 146.982,696.934 147.353,698.757 147.71,703.336 148.258,704.239 
	149.177,704.432 151,703.691 151.918,703.691 153.015,703.884 153.934,703.884 155.756,703.145 156.854,703.336 157.224,703.691 
	157.951,704.789 158.677,705.337 159.966,705.706 167.095,710.094 168.37,710.465 169.466,710.643 170.386,710.271 171.112,709.725 
	172.387,708.08 173.127,707.354 175.869,705.53 178.063,703.514 178.968,702.965 182.258,702.047 183.547,702.24 184.452,702.965 
	184.643,703.691 184.452,704.789 184.273,705.706 184.273,706.625 184.643,707.723 185.74,708.998 186.837,709.367 188.112,709.176 
	189.031,708.449 189.757,707.723 190.127,706.806 190.306,705.887 190.306,704.062 190.854,703.336 191.951,702.595 
	195.063,702.417 197.613,702.595 200.725,703.884 201.273,704.611 201.452,704.98 201.821,705.337 202.549,705.887 202.918,706.256 
	203.467,706.982 203.837,707.354 204.385,707.723 207.307,709.176 212.062,710.643 212.062,704.062 214.982,703.514 
	218.095,703.691 221.016,704.062 221.935,704.432 222.661,704.98 224.306,706.256 225.032,707.354 225.581,708.449 227.967,715.4 
	228.516,716.128 229.241,716.854 230.338,717.224 231.613,716.854 232.711,716.128 234.547,714.661 235.645,714.111 
	236.549,713.934 239.298,713.563 240.21,713.386 242.218,712.658 244.233,711.369 246.242,710.465 253.37,708.449 254.831,708.449 
	259.588,709.547 261.233,709.367 262.509,708.998 263.976,707.354 264.702,706.806 265.436,706.625 265.982,707.175 
	266.169,708.272 265.798,709.367 264.887,711.369 264.887,712.467 264.887,714.481 265.071,715.578 265.436,716.497 
	266.532,717.595 267.992,718.321 271.282,718.868 273.112,718.868 274.572,718.499 276.04,718.499 283.347,721.241 284.813,721.433 
	285.726,721.241 286.822,721.61 287.556,722.16 288.282,723.627 288.653,724.723 288.831,725.82 289.016,726.915 289.75,727.821 
	290.662,728.74 292.492,729.659 296.33,732.949 297.242,733.498 300.896,733.854 304.187,731.852 307.112,728.74 308.395,726.915 
	309.671,725.629 311.138,725.271 313.693,725.629 314.79,726.546 315.34,727.465 315.524,728.369 315.887,729.289 316.62,729.836 
	317.533,729.836 318.266,729.659 318.63,728.74 318.266,725.271 319.363,723.435 319.727,717.595 319.541,713.755 318.992,712.658 
	318.081,712.11 316.436,711.369 315.702,710.643 314.427,708.998 313.693,708.272 313.145,707.354 313.145,706.434 313.693,705.158 
	314.057,704.239 313.509,703.514 312.782,703.336 311.864,703.145 306.928,703.514 306.201,703.145 304.187,702.047 303.09,701.69 
	301.08,701.32 300.532,701.143 299.983,700.773 295.961,697.659 295.597,696.934 295.411,696.207 295.233,694.74 295.049,694.013 
	294.5,692.916 293.04,691.271 292.669,690.532 292.669,689.626 293.951,689.077 294.863,689.077 297.79,689.982 298.701,689.982 
	299.435,689.804 299.983,689.257 300.347,688.707 300.347,687.61 299.983,687.24 299.435,686.691 298.701,686.144 297.975,685.596 
	297.428,684.69 297.057,683.771 296.694,682.674 296.694,681.756 296.879,680.853 297.428,680.303 298.701,679.934 299.621,679.934 
	302.91,680.48 309.307,682.854 310.218,683.046 311.5,682.674 316.072,679.206 316.984,678.289 316.799,676.644 316.251,675.546 
	315.524,674.819 312.96,672.982 312.234,671.886 311.864,671.337 311.685,670.434 311.685,669.692 311.685,668.965 312.234,667.868 
	315.34,663.112 316.072,661.465 316.436,660.013 316.436,658.916 316.799,657.996 318.445,657.271 319.541,657.271 320.459,657.449 
	321.734,657.627 323.564,657.996 324.848,657.627 326.122,657.271 327.952,656.352 331.058,655.982 331.791,655.435 
	333.436,653.788 334.169,652.691 334.896,651.786 334.896,650.691 334.718,649.771 333.622,648.853 332.889,647.577 
	335.443,643.191 336.362,642.095 337.822,641.545 338.92,641.367 342.024,641.545 344.04,641.175 348.243,639.722 349.154,638.981 
	349.702,638.077 349.887,636.61 349.523,635.512 349.339,634.417 349.887,633.498 352.266,631.496 354.09,630.207 355.009,629.852 
	355.92,629.66 357.017,629.852 358.661,630.577 359.759,630.577 360.671,630.207 366.154,626.561 367.251,626.19 368.169,626.19 
	370.179,626.918 371.09,626.918 374.201,626.19 375.299,626.19 377.123,626.561 378.219,626.368 381.695,624.916 382.791,624.545 
	383.703,624.545 384.621,624.724 388.461,626.19 389.187,626.19 390.105,626.19 390.469,625.465 390.831,624.545 391.202,622.353 
	391.38,618.144 391.202,617.046 390.831,615.772 389.557,614.127 388.639,613.208 387.728,611.933 387.364,610.657 387.364,607.545 
	387.178,606.27 386.814,605.174 385.718,604.256 384.621,604.076 379.864,605.174 378.403,604.981 377.492,604.625 376.396,604.256 
	376.025,602.609 376.025,600.046 376.943,594.933 377.308,592.368 377.67,590.368 378.041,589.626 380.598,586.708 382.243,588.175 
	383.34,588.53 384.984,588.722 387.542,588.722 390.105,589.27 391.564,589.997 392.299,590.915 392.847,592.918 393.211,594.013 
	393.944,594.755 400.888,597.304 401.799,597.126 403.082,596.578 404.542,594.755 405.275,593.288 405.461,592.013 
	405.639,591.093 406.188,590.368 407.105,589.819 410.211,589.997 411.493,589.626 415.331,587.255 418.437,586.886 
	418.437,586.886 418.984,586.527 422.461,584.513 423.559,584.335 425.381,584.335 426.299,584.142 427.025,583.786 429.041,582.32 
	429.769,581.771 433.429,582.498 437.266,584.513 441.106,585.788 444.573,584.142 444.76,583.238 444.026,582.689 443.662,581.771 
	444.212,580.497 444.945,580.125 447.501,580.125 448.413,579.947 449.881,578.48 451.703,575.369 453.17,574.094 456.824,572.271 
	460.478,571.351 461.396,571.721 462.671,573.367 463.219,573.545 463.952,572.82 465.961,569.158 468.704,566.785 468.704,564.401 
	467.606,561.481 467.058,557.094 467.606,556.174 471.082,552.158 473.276,548.319 474.188,546.126 474.188,544.109 "/>
<polygon fill="#FFFFFF" stroke="#010101" stroke-width="2" stroke-linecap="round" stroke-linejoin="round" points="581.856,-2.444 
	571.623,-4.637 554.985,-13.412 553.155,-13.604 547.122,-13.055 538.535,-15.605 537.252,-15.249 534.881,-13.96 533.599,-13.604 
	532.502,-13.782 530.308,-14.509 529.211,-14.701 527.93,-14.509 526.654,-13.96 525.373,-13.604 525.01,-13.604 523.914,-13.96 
	522.994,-14.701 521.897,-16.895 521.172,-17.799 518.791,-19.088 514.22,-19.815 512.026,-21.282 510.566,-22.926 508.188,-26.765 
	506.727,-28.41 506.727,-28.41 506.912,-28.959 507.276,-29.315 508.01,-29.686 507.276,-32.058 505.445,-32.798 500.88,-33.154 
	500.332,-34.799 498.315,-34.992 495.944,-34.25 494.113,-33.346 493.752,-32.428 493.019,-30.233 492.469,-29.315 491.558,-28.959 
	489.542,-28.589 488.445,-28.41 487.897,-27.492 486.8,-25.298 486.075,-24.572 485.525,-24.75 482.599,-26.025 473.639,-26.217 
	471.993,-26.765 470.349,-27.492 466.332,-30.412 465.782,-30.604 464.865,-29.686 464.865,-29.686 464.865,-28.767 
	465.235,-27.862 465.235,-27.862 465.049,-27.122 461.944,-25.12 459.566,-26.943 458.283,-31.331 458.283,-31.331 458.469,-36.993 
	456.091,-36.993 449.509,-40.653 448.413,-40.832 445.308,-40.653 441.106,-41.572 440.009,-41.38 439.275,-39.186 440.187,-36.444 
	440.558,-33.895 438.727,-31.509 437.446,-31.153 433.243,-32.605 428.672,-32.798 427.396,-33.346 426.114,-35.539 
	426.114,-35.539 426.299,-37.363 426.848,-39.557 426.848,-39.557 426.299,-41.929 425.75,-41.929 424.47,-41.023 423.92,-41.023 
	423.736,-41.572 423.372,-42.847 423.372,-43.217 423.009,-43.943 422.092,-46.864 421.728,-47.234 420.267,-47.782 
	419.718,-48.331 419.533,-48.879 419.896,-50.524 419.718,-51.251 412.589,-58.023 410.944,-60.025 410.211,-61.862 410.76,-63.316 
	412.768,-63.507 413.138,-64.783 413.138,-64.783 412.768,-65.701 407.654,-71.185 406.921,-72.282 407.105,-72.282 
	407.105,-72.282 407.105,-73.187 406.921,-74.475 406.188,-75.928 404.363,-77.574 394.855,-82.331 393.574,-82.51 392.847,-82.331 
	390.831,-80.864 389.735,-80.685 388.822,-80.685 388.822,-80.685 386.631,-81.056 383.888,-82.51 378.952,-86.169 378.768,-86.348 
	375.848,-87.445 372.921,-87.815 366.888,-87.266 366.888,-87.088 367.621,-85.8 367.621,-85.621 364.509,-85.443 363.782,-85.074 
	363.782,-85.074 363.233,-84.154 363.233,-83.057 363.049,-82.331 363.049,-82.331 361.767,-81.782 361.767,-81.782 
	360.855,-80.315 359.211,-79.589 350.25,-79.041 348.605,-78.492 347.146,-83.057 345.137,-85.074 338.371,-86.718 335.814,-87.993 
	333.984,-89.638 330.694,-94.025 330.694,-94.025 329.412,-94.395 327.219,-95.671 326.122,-95.863 324.848,-95.314 
	324.848,-95.314 323.564,-93.477 323.564,-93.477 322.283,-92.928 320.089,-93.299 317.718,-94.395 315.34,-94.945 312.782,-93.669 
	312.782,-93.669 311.5,-92.023 311.315,-90.735 310.951,-90.187 310.951,-90.187 309.307,-90.009 308.573,-90.187 305.283,-91.654 
	303.274,-90.927 300.717,-88.733 297.975,-87.088 295.597,-87.815 295.049,-89.282 295.049,-90.556 295.411,-92.202 
	295.411,-93.848 295.049,-95.314 289.929,-104.445 288.831,-105.363 288.104,-106.283 284.813,-107.379 283.532,-108.105 
	282.984,-108.284 282.984,-108.105 282.62,-107.735 282.072,-106.83 281.523,-106.09 281.523,-106.09 280.79,-105.912 
	279.146,-106.283 278.597,-106.83 278.233,-108.284 278.597,-110.669 279.508,-111.217 279.508,-111.217 279.879,-111.766 
	279.146,-114.138 277.137,-116.701 274.943,-118.704 272.749,-118.704 267.992,-117.428 265.62,-118.155 263.604,-119.622 
	262.145,-121.089 257.758,-127.478 256.476,-128.766 252.637,-129.863 250.628,-130.96 246.79,-134.798 244.782,-135.895 
	244.596,-135.895 242.588,-135.703 238.016,-134.25 235.645,-133.701 232.902,-134.25 231.983,-135.347 231.983,-141.558 
	231.805,-142.476 230.708,-144.121 230.516,-145.026 230.708,-145.944 231.613,-147.041 231.983,-147.96 232.532,-149.783 
	233.08,-151.25 233.45,-152.525 233.258,-154.719 231.613,-157.639 226.678,-159.654 225.225,-162.025 225.581,-164.589 
	229.612,-174.639 229.79,-176.477 229.612,-177.751 229.79,-179.218 231.613,-183.605 231.805,-183.605 232.354,-183.783 
	233.45,-182.508 233.45,-182.508 233.807,-185.25 234.355,-188.719 234.355,-191.639 233.45,-192.736 230.16,-192.188 
	229.063,-192.557 228.516,-195.121 225.772,-193.833 225.772,-193.833 214.435,-182.508 213.887,-181.219 213.708,-179.575 
	213.887,-178.67 214.257,-177.751 214.435,-176.655 213.516,-171.541 212.791,-168.978 211.871,-166.961 211.871,-166.961 
	210.774,-166.235 206.387,-165.508 191.773,-158.379 188.66,-157.831 187.934,-158.009 172.209,-162.396 165.806,-161.478 
	165.806,-161.299 165.999,-158.735 165.806,-155.268 166.547,-153.622 167.644,-152.155 168.919,-149.413 169.289,-147.59 
	169.289,-146.122 169.097,-145.218 168.192,-143.024 166.547,-140.282 165.806,-138.445 165.08,-132.783 165.45,-131.687 
	167.095,-130.042 167.822,-128.217 167.644,-126.024 167.273,-124.557 166.355,-123.46 162.516,-119.991 160.871,-117.977 
	159.966,-117.25 159.048,-116.879 157.951,-115.961 156.854,-114.507 155.387,-111.766 154.112,-110.847 153.015,-110.299 
	150.822,-110.299 149.725,-110.122 148.807,-109.38 147.901,-108.105 148.258,-107.009 148.999,-104.637 149.546,-102.443 
	149.902,-101.347 150.451,-100.25 150.822,-98.783 150.451,-97.508 149.902,-95.863 150.095,-94.574 150.451,-93.121 
	150.643,-91.476 150.095,-90.556 148.258,-88.733 147.532,-87.266 147.532,-85.8 148.258,-84.525 150.095,-81.235 150.643,-79.411 
	148.628,-79.041 147.71,-78.314 147.161,-77.395 146.612,-76.121 148.079,-75.38 148.999,-73.008 148.807,-68.991 148.45,-67.895 
	148.079,-66.428 147.353,-65.701 146.435,-65.331 145.338,-65.701 143.514,-66.977 142.774,-67.154 141.499,-66.977 
	140.402,-65.879 139.305,-65.701 138.208,-65.879 135.289,-68.073 134.191,-68.621 132.903,-68.8 130.353,-68.8 129.064,-68.073 
	128.337,-67.154 128.337,-66.25 128.516,-65.153 128.516,-64.056 128.159,-63.316 127.419,-63.137 120.838,-62.219 112.064,-59.668 
	108.417,-57.831 106.402,-56.187 106.58,-55.09 107.677,-52.718 108.046,-51.443 108.226,-50.346 108.595,-43.396 108.773,-42.298 
	109.144,-41.38 109.513,-40.653 110.418,-40.475 111.337,-40.475 112.256,-40.105 112.804,-39.186 113.531,-38.282 114.257,-37.542 
	116.094,-36.444 116.451,-35.896 116.643,-34.992 116.094,-33.524 115.176,-32.428 114.08,-31.7 113.161,-31.331 111.885,-31.153 
	107.499,-31.879 106.402,-31.879 104.936,-31.331 104.386,-30.604 103.838,-29.864 103.66,-28.959 103.66,-28.04 103.838,-26.943 
	104.208,-24.75 104.208,-23.654 104.03,-22.186 103.111,-20.542 102.193,-19.266 101.289,-18.539 99.821,-17.443 99.643,-16.524 
	99.451,-15.798 99.451,-14.879 99.643,-14.509 99.821,-13.782 100.739,-13.234 101.645,-12.863 105.127,-13.234 106.223,-13.234 
	107.128,-13.055 108.046,-12.507 108.595,-11.767 108.595,-10.313 108.046,-9.217 107.32,-8.477 106.223,-7.75 104.579,-5.927 
	103.29,-3.733 101.466,-2.444 100.192,-1.347 99.821,-0.25 99.272,1.394 98.546,2.669 91.965,9.25 91.046,10.525 89.951,12.541 
	88.483,16.009 88.126,19.299 87.756,20.218 87.03,21.137 85.933,21.494 82.451,21.494 81.176,21.863 80.998,22.59 81.354,23.331 
	82.821,24.606 82.999,25.524 82.272,26.25 80.806,27.525 80.079,28.623 79.708,30.268 79.708,31.186 79.901,31.734 80.079,31.734 
	80.627,31.913 81.902,31.734 82.451,31.734 82.643,32.105 82.999,32.461 83.547,33.558 84.288,34.476 85.192,35.024 85.562,35.944 
	85.933,36.848 86.111,37.767 86.659,40.33 86.837,41.976 85.933,45.814 86.111,47.638 86.481,48.912 87.386,49.461 88.305,49.461 
	90.32,48.734 90.869,48.734 91.595,48.912 92.322,50.38 94.707,53.492 90.128,57.509 88.305,60.429 87.386,63.171 86.659,65.008 
	85.562,66.105 84.288,66.461 82.999,66.653 81.354,67.009 80.806,67.38 80.627,68.298 81.176,69.203 82.272,71.041 82.451,71.588 
	82.095,72.493 79.901,74.331 79.352,75.427 79.16,76.332 80.257,78.718 80.449,79.267 80.257,79.993 79.708,82.008 79.352,83.831 
	79.708,85.298 81.546,86.752 81.902,88.945 82.095,90.234 82.451,91.879 83.191,92.428 85.015,91.879 86.659,92.057 89.951,93.88 
	91.773,95.347 93.062,96.815 100,105.767 101.096,107.961 101.836,109.428 102.015,110.525 101.836,111.8 102.015,112.526 
	102.563,114.912 102.563,115.816 102.385,116.735 101.836,117.654 99.821,119.477 99.272,120.395 99.272,121.492 103.111,123.315 
	106.402,126.058 108.046,127.333 109.513,127.525 111.516,126.976 111.885,126.236 112.064,125.509 112.613,124.783 
	113.531,124.413 115.176,125.139 115.903,126.236 116.273,127.333 116.643,128.622 117.191,129.718 118.646,131.172 
	120.481,133.557 127.79,146.349 128.337,147.445 128.337,148.363 127.611,148.72 125.965,149.09 125.417,149.639 125.226,150.009 
	125.417,150.735 126.144,151.462 128.337,152.559 129.256,152.559 131.258,151.833 132.547,152.01 132.903,152.559 133.273,153.477 
	133.095,156.767 133.095,157.864 133.643,159.331 134.37,160.058 135.289,160.606 138.03,160.977 142.047,160.606 142.966,160.606 
	143.514,160.784 145.16,161.703 146.064,161.882 146.982,161.882 147.901,161.333 149.354,159.688 150.273,159.51 151.191,159.688 
	153.193,160.428 155.387,160.428 156.484,160.236 157.402,159.88 157.951,159.139 158.321,158.234 159.048,157.494 160.145,156.946 
	161.419,157.138 162.516,157.864 163.612,158.961 164.353,159.331 164.901,158.783 165.258,158.043 165.258,157.138 
	165.258,156.041 165.258,155.123 165.45,154.396 165.999,154.026 166.547,154.753 168,157.687 169.837,160.058 171.112,160.977 
	172.03,161.703 173.305,161.703 177.322,158.234 199.806,155.3 201.273,154.574 201.821,153.848 201.644,152.75 201.644,151.462 
	202.192,150.187 204.194,148.172 205.661,147.445 207.127,147.445 210.418,148.542 212.242,148.363 213.338,148.172 
	216.258,146.349 219.741,148.912 226.321,150.365 227.418,151.106 227.596,152.01 226.678,153.848 227.048,155.123 228.145,155.671 
	231.805,156.946 232.902,157.864 233.258,158.592 233.258,159.139 233.08,160.058 231.983,161.703 231.613,162.8 231.436,163.897 
	231.983,165.364 232.902,165.912 233.629,166.091 234.355,165.542 235.096,163.897 235.822,163.527 236.918,163.719 
	242.218,170.656 244.596,174.494 246.426,178.882 246.79,179.8 246.79,180.896 246.426,181.815 245.693,182.363 244.782,182.542 
	242.588,182.72 241.67,183.09 240.943,183.817 240.758,185.106 241.306,186.203 242.403,187.299 243.137,188.574 243.137,188.752 
	243.137,189.671 243.685,194.236 244.048,195.703 244.959,197.527 246.057,198.445 246.975,198.625 247.702,198.268 248.25,197.896 
	249.532,196.252 250.081,195.703 251.361,195.881 252.459,197.349 254.104,200.091 255.201,201.558 256.298,202.654 
	258.306,204.107 259.402,204.478 260.314,204.656 261.411,204.478 262.331,204.107 263.058,203.56 263.791,202.654 264.153,201.736 
	264.702,201.009 265.436,200.269 266.718,200.091 267.444,200.816 267.813,201.558 267.813,202.654 268.178,203.751 
	269.274,204.848 271.104,206.493 273.661,208.138 274.943,208.495 275.492,209.042 275.854,209.591 276.04,211.785 276.767,213.43 
	277.686,213.801 278.597,213.622 281.702,211.237 282.436,210.688 283.532,210.88 284.082,211.606 284.629,212.882 285.54,213.073 
	286.273,212.526 286.637,211.977 287.187,210.88 290.477,202.832 291.21,201.914 291.943,201.009 293.218,200.461 294.315,200.461 
	296.879,200.091 298.524,199.172 300.347,199.363 306.017,202.654 307.112,203.01 308.21,203.203 309.307,203.01 319.363,199.542 
	320.459,198.816 321.371,197.527 321.734,195.703 321.556,194.236 321.371,192.783 321.371,191.316 321.556,189.493 
	322.283,186.559 322.104,184.735 321.186,182.171 321.734,180.719 322.831,178.882 333.984,171.025 335.081,169.93 337.274,166.269 
	338.008,165.171 339.283,164.623 340.38,164.445 341.299,164.075 341.847,163.17 342.024,162.43 341.299,160.236 343.307,159.688 
	344.589,158.592 344.952,157.864 346.597,154.204 347.332,153.477 347.879,152.929 348.605,153.107 349.154,153.656 
	349.339,154.574 349.339,155.671 348.977,157.687 348.977,158.413 349.702,158.961 350.799,158.592 351.532,157.864 
	352.814,156.589 355.372,154.944 356.283,154.026 358.113,151.284 359.396,149.817 360.122,149.09 361.404,148.72 363.049,148.363 
	367.985,149.639 370.179,151.106 371.274,152.202 371.823,153.477 371.823,154.396 371.823,156.397 372.188,157.138 
	373.282,157.864 375.113,158.413 376.574,159.688 378.219,160.428 380.781,160.428 382.243,160.058 383.34,159.331 384.621,158.234 
	386.444,157.494 391.751,157.138 395.767,158.783 404.912,164.623 405.823,164.994 406.921,165.364 408.929,165.364 
	410.574,165.171 411.855,164.815 413.138,164.075 414.049,163.348 414.598,162.251 415.695,160.428 416.242,159.51 416.976,158.961 
	418.073,159.139 419.349,159.88 421.363,162.073 423.372,164.994 424.47,166.091 425.565,167.009 428.855,168.284 430.316,169.202 
	432.51,171.204 440.92,177.607 443.662,177.977 443.848,180.527 444.396,181.445 445.123,182.363 459.93,190.946 461.574,192.592 
	462.671,194.059 463.219,196.073 463.591,199.542 463.591,200.64 463.591,201.736 463.404,202.654 463.041,203.751 462.493,204.848 
	461.944,205.945 460.3,208.316 459.93,209.042 459.75,209.783 459.93,211.058 460.478,212.155 461.396,212.704 462.308,212.704 
	463.404,212.526 464.502,212.704 465.782,213.43 471.445,219.833 472.362,221.3 473.091,222.574 473.276,223.494 473.276,224.59 
	473.276,225.494 473.276,226.236 472.727,227.511 472.362,229.333 473.46,229.526 476.381,229.333 474.373,233.542 475.105,236.106 
	477.299,237.56 480.406,238.478 480.768,238.848 481.139,239.396 481.501,239.944 482.414,240.301 482.961,240.124 486.986,238.478 
	489.727,237.751 497.042,238.107 498.138,237.751 499.963,237.011 501.43,235.01 501.977,234.269 502.341,232.816 502.155,231.896 
	501.607,231.17 501.43,230.8 500.88,229.882 500.88,228.978 501.977,228.607 503.623,229.156 504.171,229.526 505.083,230.074 
	506.364,230.252 508.01,228.785 508.188,228.607 508.373,228.059 508.373,227.689 508.188,227.332 507.462,226.236 507.276,225.686 
	507.462,225.139 508.01,224.768 509.106,224.947 509.833,224.768 510.381,223.85 510.381,222.396 510.018,222.396 508.188,220.93 
	508.01,220.93 512.575,217.09 515.14,215.815 518.791,214.349 518.606,214.349 518.791,214.349 519.155,212.704 519.526,212.155 
	519.341,210.688 518.791,209.962 518.06,209.235 517.331,208.495 515.14,203.751 513.673,201.914 512.026,201.009 511.663,200.269 
	511.3,198.625 510.93,195.333 511.115,195.333 511.478,194.428 513.123,192.592 513.673,191.495 513.856,188.944 512.575,183.46 
	512.759,181.445 514.22,176.332 514.77,175.591 516.236,174.865 516.598,173.041 516.051,170.107 516.051,170.107 516.051,169.559 
	516.051,169.559 515.864,169.01 515.864,168.654 515.864,168.654 516.051,168.105 516.236,167.366 516.962,166.638 517.331,165.912 
	518.06,164.445 518.244,163.719 518.244,163.719 518.06,161.155 518.606,158.961 521.533,156.041 522.447,154.204 522.447,154.204 
	522.267,149.269 517.695,141.413 517.331,134.833 518.06,131.912 518.791,129.526 519.526,128.073 520.253,127.154 520.8,125.879 
	520.986,123.686 521.719,121.67 528.299,112.348 529.396,110.154 530.124,107.59 530.308,104.3 531.041,101.01 532.688,99.557 
	534.695,98.638 536.154,96.267 536.154,94.073 535.607,92.057 535.06,90.042 534.695,88.041 534.695,86.025 535.607,81.816 
	536.154,79.993 536.704,78.526 537.438,77.621 537.986,75.976 538.171,73.042 538.72,71.588 539.995,70.299 542.559,68.298 
	542.559,68.298 542.559,67.202 541.462,63.719 541.462,58.235 542.373,53.122 546.76,46.171 547.857,45.444 549.687,44.896 
	551.333,43.429 554.074,39.96 555.35,39.234 556.816,37.767 557.913,36.3 558.461,35.024 558.461,32.105 559.011,30.638 
	560.285,30.268 563.213,30.268 563.946,29.911 564.672,29.362 564.857,28.444 565.041,26.978 565.591,26.25 565.955,25.702 
	566.317,25.333 567.235,25.333 571.073,23.138 571.623,22.59 572.898,20.396 577.656,7.427 580.945,1.203 582.953,-1.169 
	583.139,-1.347 "/>
</svg>
