<?xml version="1.0" encoding="utf-8"?>
<!-- Generator: Adobe Illustrator 16.0.4, SVG Export Plug-In . SVG Version: 6.00 Build 0)  -->
<!DOCTYPE svg PUBLIC "-//W3C//DTD SVG 1.1//EN" "http://www.w3.org/Graphics/SVG/1.1/DTD/svg11.dtd">
<svg version="1.1" id="Calque_1" xmlns="http://www.w3.org/2000/svg" xmlns:xlink="http://www.w3.org/1999/xlink" x="0px" y="0px"
	 width="500px" height="500px" viewBox="0 0 500 500" enable-background="new 0 0 500 500" xml:space="preserve">
<path id="Pays_de_la_Loire" fill="#FFFFFF" stroke="#010101" stroke-width="2" stroke-linecap="round" stroke-linejoin="round" d="
	M331.143,505.687l-4.37-1.981l-2.17-0.396l-1.991,0.396l-0.787,1.387l1.382,2.972l9.124,0.198l2.572,0.991l-1.189-2.18
	L331.143,505.687z M348.574,466.451l-1.188-1.188l-3.76-1.979l-1.189-1.392l-0.208-2.377l0.401-2.176l-0.193-1.986l-2.378-1.386
	l-1.991-0.396l-6.539,0.396l1.991,2.575l1.783,6.342l1.784,2.575l2.972-1.582l2.972,1.979l2.379,3.764l1.575,3.769l1.783,1.188
	l0.596-2.183l-0.194-3.368L348.574,466.451z M695.15,265.918l-0.997-0.594l-0.98-0.201l-3.566-0.196l-1.189-0.398l-5.559-4.161
	l-3.165,0.795l-2.378-0.595l-2.779-1.783l-1.188-1.188l-0.981-1.389l-2.379-3.961l-1.99-2.379l-1.382-0.795h-1.189l-0.4,0.398
	l-0.193,0.197l-0.194,0.199l-4.368-0.199l-9.704-2.772l-1.593-0.795l-0.192-0.595l0.192-1.584v-0.99l-0.192-1.189l-0.594-1.387
	l-0.787-0.396l-0.997,0.396l-1.59,0.395l-2.378-0.395l-3.166-1.783l-1.782-1.388l-1.188-1.585l-0.996-2.18l-0.595-1.784l-0.387-2.18
	l-0.207-4.756l0.594-4.556v-1.39l-0.194-1.188l-0.595-1.582l-0.786-0.992l-1.397-0.792l-4.756-2.18l-1.782-0.398h-1.576
	l-10.106,2.377l-1.991,1.587l-1.188,0.594l-1.382,0.398l-1.189,0.987l-0.787,1.188l-0.803,1.588l-0.787,1.188l-0.595,0.595
	l-0.596,0.397l-1.188,0.395h-0.787l-0.803,0.199l-0.595,0.198l-0.786,0.594l-0.401,0.792l-0.388,2.18l-0.595,0.793l-1.59,0.199
	l-1.978-0.794l-1.397-0.395h-1.188l-6.731,0.792l-0.401-8.722l-0.594-1.385l-0.982-1.385l-0.995-0.203h-0.996l-1.576-0.79
	l-1.989-1.784l-3.761-4.56l-1.188-2.376l-0.194-1.979l0.595-1.189l0.193-1.98l-0.594-1.19l-0.996-0.795l-7.134-2.771l-0.98,0.594
	l-0.401,0.791l0.192,1.19l0.209,1.188l-0.209,0.992l-0.595,0.988l-0.98,0.795l-1.396,0.594h-2.571l-1.591,0.394l-1.188,0.594
	l-1.189,1.587l-0.595,0.792l-0.594,0.795l-1.575,0.393l-7.729-2.176l-5.752-0.595l-1.382,0.197l-1.188,0.195l-0.996,0.596
	l-3.76,4.16l-0.995,0.797l-1.189,0.594l-9.912,2.377l-0.981-0.397l-0.401-0.792l-0.4-0.992l-0.788-0.792h-1.189l-5.543,1.582
	l-0.803,0.398l-0.387,0.992l-0.207,0.987l-0.789,0.993l-1.382,0.594l-0.995-0.196l-0.788-0.797l-0.803-0.987l-0.787-0.594h-0.996
	l-0.787,0.594l-0.996,0.393l-0.787-0.594l-0.595-0.988l-0.996-3.174l-1.189-2.176l-1.783-1.586l-4.161,0.79l-0.787-0.393h-0.595
	l-0.401-0.397l-2.378-0.994l-1.189,0.203l-0.786,0.394l-0.194,0.398l-0.595,0.196l-3.774,0.992h-3.761l-5.751-0.992v6.937
	l-0.387,2.972v2.973l1.383,12.681l0.193,3.369v1.98l-0.193,0.794l-2.186,4.359l-0.594,1.385l-0.595,1.983l0.208,1.387l0.193,0.792
	l0.402,0.594l0.192,0.398l0.786,1.783l0.209,0.791l0.194,0.991l0.4,3.37l0.193,0.99l0.788,4.954v0.989l-0.193,0.796l-0.401,0.393
	l-0.387,0.398l-0.208,0.397l-0.387,0.79l1.383,10.505l0.193,0.394l0.401,0.796l0.594,0.987l1.783,1.587l0.596,0.992v1.189
	l-0.194,1.979v1.98l0.388,2.972v1.39l-0.193,0.793l-0.194,0.196l-0.803,0.594l-0.98,0.594l-1.188,0.399l-1.784,0.195l-3.967,0.201
	l-1.383,0.197l-1.189,0.596l-1.188,0.789l-0.996,0.993l-1.59,2.181l-0.595,0.988l-0.386,1.188l-0.803,2.379l-1.189,5.749
	l-0.594,2.572l-1.189,2.777l-0.595,1.783l-0.979,4.559l-0.596,1.386l-0.595,0.992l-0.995,1.189l-0.996,4.953l-11.295-1.98
	l-1.576-0.595l-1.589-1.189l-0.402-1.188l-0.786-1.39l-0.997-0.594l-1.188-0.395l-2.378-0.199l-3.358,0.199l-1.188,0.791
	l-1.783,1.784l-11.697,5.547l-2.377,1.783l-0.997,0.991l-0.786,0.992l-0.788,1.189l-0.595,1.188l-1.991,1.585l-3.166,1.782
	l-13.673,4.361h-1.188l-2.185-0.397l-3.567-1.386l-8.114,2.973l-2.378,1.584l-3.968-0.197l-3.566,0.594l-0.788,0.197l-0.402,0.201
	l-1.59,1.386l-3.566,1.979l-0.788,2.973l0.193,0.595l0.401,0.991l-0.193,0.595l-0.208,0.792v0.594l0.208,0.796l-0.208,0.79
	l-0.387,0.792l-0.802,1.985l-1.382,7.328l-1.189,2.183l-1.382,1.188l-1.189,0.394l-1.396,0.991l-0.788,1.387l-0.595,1.784
	l-0.995,1.39l-0.595,0.595l-0.787,0.195l-0.789-0.396l-0.4-0.792l-0.193-0.595v-0.79v-0.993V375.1l-0.4-0.394l-0.997-0.2
	l-1.977,1.188l-1.59,0.597l-1.382,0.2l-0.995-0.398l-0.595-0.398l-0.193-0.196l-0.193-0.196l-0.401-0.397l-0.787-0.397l-1.19,0.2
	l-0.801,0.394l-0.388,0.201l-0.208,0.196l-0.386,0.993l-0.594,1.385l-0.997,1.587l-1.59,2.178l-1.188,0.795l-1.188,0.197
	l-1.189-0.197h-1.188l-2.17,0.595h-0.997l-0.995-0.397l-0.98-0.791l-1.189-0.596l-1.396,0.196l-0.788,0.595l-0.787,1.386h-0.209
	h0.595l1.783,1.189l-0.98,2.378l1.783,0.795h2.766l1.782,0.394l-0.386,1.189l-3.969,2.182l-0.996,1.188l-0.787-0.993l0.401-0.393
	h0.193l0.192-0.991l-1.976-0.399l-1.189-0.594h-1.188l-9.11,5.35l4.756,2.973l1.381,2.578l0.193,4.954h0.803l0.596-1.588v-0.594
	l-0.596-1.19l0.394-0.393l0.396-0.201l0.794-0.394l1.783,2.378l2.178,2.177l0.996,2.183l-1.985,2.377l-2.577,0.397l-4.949-2.378
	l-2.579-0.396v1.188l10.7,5.547l3.367,0.2l0.2-0.397l0.2-0.991l0.395-1.188l0.987-0.792l0.796-0.198h0.988l1.984,0.198l1.782,0.992
	l2.772,3.169l1.783,1.587l1.984,0.79h2.177l2.185-0.79l2.571-2.579l3.373-0.988l1.189-1.188l0.594-0.992l0.395-0.992l0.795-1.189
	l3.567-2.177l15.649-0.991l4.362,1.188l1.582,1.587l0.996,0.394l2.771,0.201l2.178,0.791l3.968,2.378l3.961,3.369l3.365,4.162
	l1.984,1.583l4.756,0.991l2.378,1.587l-6.146-0.2l-2.571-1.188l-2.578-2.772l-1.188-0.795l-4.756-0.988l-4.556-3.37v-1.188h2.378
	l-0.995-1.189l-1.19-0.791l-1.188-0.397h-1.382l0.787,1.188h-1.783l-5.752-1.586l-0.788-0.792l-0.996-1.188l-0.786,0.196
	l-0.788,0.398l-0.803,0.594l-10.492,0.991l-2.779,1.19l-0.995,1.386l-0.788,1.98l-0.401,2.18l-0.193,1.784l0.401,2.576l1.188,2.577
	v2.177l-0.401,2.378l-0.401,1.39l-0.787,0.594l-3.761,0.595l-1.396,0.99l-1.188,1.188l-1.576,0.992l3.952,2.18l13.079,2.379
	l6.748,3.764l1.783,1.784l1.188,1.98l1.188,2.972l0.194,2.775l-1.977,1.587l-1.396,2.974l-1.978,5.944l-1.382,2.573l-4.369,2.776
	l-1.576,1.782l0.596,2.379l-2.973,2.177l-0.802,1.782l-0.194,3.567l0.194,2.776l0.4,3.168l0.787,2.58l1.396,0.987l2.973,0.993
	l3.567,2.573l6.331,6.539l3.374,6.938l0.995,0.992l1.783,0.196l1.978,0.595l1.589,1.188l1.19,4.162l1.382,1.586l1.783,1.583
	l1.783,1.983l0.788,1.98l0.595,2.182l0.995,1.783l1.784,0.792l-0.401,2.775l2.585,12.086l0.981,1.585l0.995,0.595l0.401-0.793
	l-0.208-1.387l-0.595-2.775v-1.98l0.996,1.783l1.188,3.566l0.789,1.387l1.396,0.795l3.165,0.79l3.761,3.372l6.153,0.988l1.784,1.782
	l-0.996,1.984l2.972,0.988l7.535,0.396l3.165,0.595l2.572,1.784l1.783,2.972l0.594,4.161l1.189,3.567l2.972,0.193l5.945-1.978
	l1.59,0.596l2.571,2.185l3.567,2.17l1.188,0.2l1.784,0.595l1.991,3.173l2.17,2.57l2.972,0.796l-0.193-5.149l4.162-2.571l5.157,0.387
	l1.574,2.185l0.595-0.996l1.991-2.973l0.789-0.788l1.188-0.594l6.939-1.784l2.379-0.2l1.181-0.395l2.178-0.995l0.996,0.201
	l0.787,1.188l-0.192,1.19l-0.595,0.987l-0.788,0.795l-0.595,0.987l0.387,0.797l1.189,0.594h2.184l1.19-0.2l1.382-0.595l3.566-0.596
	l0.594-0.393l1.785-0.595h1.783l2.972,0.394l7.729,4.956l1.396-0.393l1.783-0.997l0.788-0.594l2.973-1.575l1.189-0.208h3.373
	l0.787-0.194l0.788-0.594l3.373-3.76l0.995-0.594l0.981-0.209h0.995l0.996,0.209h0.596l0.786-0.402l0.789-0.787l0.4-1.188
	l-0.193-1.188l-1.396-1.592l-3.954-3.168h-0.802l-0.595,0.393l-0.787,0.201l-0.788-0.796l-0.401-2.377l0.193-1.583l0.803-2.578
	l0.193-0.987v-0.994l-1.783-8.719l0.4-1.584l0.788-0.991l0.787-0.792l0.595-0.991l0.208-0.991l-0.208-1.585l-0.98-4.756
	l-0.208-3.369l-0.387-1.188l-0.595-1.386l-1.396-1.784l-0.594-1.783l-0.194-1.389V514.8v-1.188l-0.4-1.386l-0.596-1.587
	l-2.972-6.338l-2.972-4.958l-0.981-2.771l-0.208-1.783l1.189-2.181l0.4-0.994l0.193-0.789l-0.387-0.993l-0.995-1.385l-2.379-2.183
	l-6.538-4.161l-0.996-1.385l-0.98-1.784l-0.803-2.775l-0.193-3.365l-0.401-1.392l-1.383-1.98l-2.972-1.782l-1.189-1.783l-1.59-3.168
	l-1.575-1.784l-4.161-2.972l0.192-0.994v-0.396l0.193-0.791l0.804-0.595l1.575,0.398l1.188,0.393l4.369,2.973l0.98,0.595l1.19,0.2
	h1.59l6.539-1.188l3.166,0.987l6.346,0.594l7.326-0.792l2.185-0.789l0.595-0.399l1.978-1.783l4.963-2.378l0.594-0.79v-0.993
	l-1.397-1.981l-0.192-1.188l0.4-0.992l0.982-0.991l0.995-0.596l2.378-0.791l1.188-0.197l1.19,0.197l2.569,1.387l1.59-0.197
	l6.347-1.981l3.165-1.388l12.082-1.585l6.54,0.198l2.186-0.595h1.188l1.188,0.396l1.383,1.19l0.596,1.582l0.198,1.39l0.396,1.188
	l0.594,0.792l2.778,0.992l1.384-2.775l0.594-0.992l0.996-0.988l3.166-0.992l1.188-0.595l0.995-1.586l0.394-1.189l0.201-1.188
	l0.394-1.188l3.768-4.755l1.976-0.596l5.947,1.189l1.589-12.682l1.978-9.511l0.593-1.98l0.596-1.189l1.188-2.18l3.174-4.359
	l3.172-5.35l0.193-1.391l-0.787-3.168l0.192-1.588l1.39-4.161l0.595-2.378l3.566-8.121l0.201-1.188l-0.201-1.188l-0.795-2.973
	v-2.183l0.401-1.979l2.571-7.133l4.957,1.385l3.172,0.398l6.538,1.979l1.584-0.195l0.595-0.796l-0.2-0.988l-0.395-1.984l-0.2-0.987
	v-1.191l0.401-1.188l1.382-1.189h1.188l2.579,1.583l1.391,0.397l0.786-0.397l0.401-0.791l0.991-0.992l1.782-1.189l4.555-0.989
	l6.146-3.171l1.389-0.395l1.583-0.2l0.989-0.394l0.594-0.795v-0.99l-0.192-0.99l-0.996-2.379l1.39-3.566l2.577-2.775l2.379-1.583
	l1.188-0.396h0.193l2.578-1.19l3.366-2.181l1.591-1.385l1.188-1.387l2.973-9.314l0.193-1.189v-1.188v-1.386l-0.193-1.188v-1.189
	v-1.391l0.401-1.582l0.595-1.783l1.382-1.391l1.59-0.987l2.572-2.579l0.995-1.582l0.386-1.39l-0.787-2.378l-0.193-1.784l0.193-1.979
	l0.996-3.566l0.192-1.785l-0.594-0.991l-1.977-0.198l-0.803-0.195l-0.594-0.797l-0.388-0.986l-0.594-1.189l-0.401-1.39v-1.387
	l0.787-0.79l0.996-0.398h2.378l1.188-0.197l0.996-0.795v-0.792l-0.595-0.789l-0.803-0.596l-0.787-0.796l-0.193-1.385l0.386-0.792
	l1.397-0.795l4.162-2.973l2.17-0.988l0.995-1.188v-0.993L695.15,265.918z"/>
<polygon fill="#FFFFFF" stroke="#010101" stroke-width="2" stroke-linecap="round" stroke-linejoin="round" points="
	1074.42,-32.505 1073.038,-35.477 1071.849,-37.063 1071.048,-38.847 1071.255,-42.61 1071.048,-45.386 1071.048,-45.583 
	1069.264,-45.189 1067.688,-45.583 1061.342,-49.15 1061.342,-49.15 1062.338,-48.952 1062.338,-48.952 1062.338,-49.35 
	1062.13,-51.528 1061.536,-54.303 1060.941,-54.5 1061.342,-56.68 1061.938,-57.869 1062.932,-58.862 1062.932,-58.862 
	1063.527,-59.653 1064.909,-60.842 1064.909,-60.842 1067.48,-62.822 1070.259,-64.011 1070.259,-64.011 1070.259,-65.2 
	1069.472,-66.591 1068.877,-68.374 1066.886,-75.9 1065.697,-76.495 1064.508,-76.297 1062.338,-75.306 1060.747,-76.102 
	1060.941,-79.27 1063.126,-86.405 1063.72,-89.574 1064.314,-91.16 1065.503,-92.747 1068.074,-94.923 1068.074,-94.923 
	1069.264,-96.112 1069.472,-98.097 1068.877,-99.286 1067.48,-100.475 1065.904,-101.463 1064.909,-101.664 1063.527,-101.069 
	1063.527,-101.069 1063.319,-100.077 1063.527,-98.691 1062.932,-98.097 1062.725,-97.896 1060.554,-98.888 1057.582,-105.624 
	1055.204,-107.805 1052.827,-109.191 1049.052,-113.352 1046.881,-114.344 1044.296,-114.147 1037.161,-110.974 1034.591,-110.974 
	1032.615,-111.966 1030.622,-113.352 1028.245,-114.541 1023.489,-115.135 1018.54,-114.742 1016.949,-114.147 1016.949,-114.147 
	1016.162,-113.155 1014.185,-109.589 1013.591,-108.203 1013.383,-107.608 1013.19,-107.608 1012.789,-107.211 1012.596,-107.408 
	1012.402,-107.408 1012.402,-107.408 1012.001,-106.219 1012.001,-106.219 1008.033,-109.986 1007.053,-117.12 1007.053,-125.442 
	1006.056,-132.375 1004.08,-135.745 1001.896,-137.926 999.517,-139.115 996.945,-139.709 989.604,-139.709 988.029,-140.698 
	989.218,-142.682 989.411,-144.264 988.624,-145.06 987.033,-145.654 985.442,-145.454 984.254,-144.662 983.065,-143.67 
	981.49,-142.481 976.527,-140.5 973.762,-140.304 971.771,-140.898 966.822,-143.473 965.439,-144.662 963.656,-146.843 
	963.062,-148.823 962.853,-154.571 959.88,-164.677 958.9,-169.827 960.474,-172.799 959.286,-176.959 958.307,-178.744 
	956.717,-179.141 955.124,-179.337 954.338,-180.527 952.956,-183.897 951.366,-186.673 949.388,-190.039 947.604,-191.822 
	944.632,-192.814 935.507,-190.039 929.562,-188.058 926.992,-186.472 926.992,-186.472 924.807,-184.295 921.447,-178.35 
	921.447,-178.35 920.051,-177.161 918.268,-177.555 917.674,-177.756 908.563,-181.917 906.587,-183.7 905.991,-184.889 
	904.401,-188.456 903.808,-189.645 899.453,-193.605 898.651,-194.995 898.457,-196.184 897.863,-197.172 896.273,-197.967 
	895.291,-198.164 893.107,-197.767 892.112,-197.967 890.536,-198.164 889.733,-198.562 889.14,-199.55 888.159,-201.928 
	887.563,-202.522 886.168,-203.317 885.975,-203.912 885.975,-204.703 886.97,-206.684 886.97,-207.873 884.785,-215.601 
	885.379,-217.384 887.95,-219.962 887.95,-219.962 888.753,-220.951 888.352,-224.517 886.568,-227.293 882.407,-231.852 
	881.412,-235.219 880.224,-243.147 878.647,-247.308 878.439,-247.308 876.864,-246.119 872.302,-243.938 862.982,-241.56 
	856.25,-242.352 855.255,-242.154 854.065,-241.56 834.448,-235.219 816.229,-232.841 812.453,-230.463 810.476,-231.057 
	788.674,-221.545 785.107,-218.179 781.942,-213.621 779.966,-211.64 777.78,-210.845 775.403,-210.648 774.406,-210.25 
	771.643,-207.873 771.643,-207.081 772.029,-204.506 773.812,-197.967 774.615,-193.806 773.812,-190.436 772.623,-187.862 
	770.246,-180.728 769.65,-177.555 769.65,-173.791 770.84,-166.26 771.435,-157.74 772.029,-155.362 775.002,-150.606 
	771.435,-148.032 771.049,-140.698 770.84,-132.375 768.863,-126.234 768.863,-125.045 775.002,-120.092 775.002,-119.1 
	773.218,-119.497 770.647,-119.891 768.269,-115.135 767.481,-108.203 767.273,-102.652 768.269,-101.069 773.218,-98.691 
	774.213,-96.511 775.002,-94.53 776.785,-93.14 778.97,-92.349 781.349,-92.349 781.349,-90.963 778.97,-90.963 779.564,-89.574 
	780.159,-88.783 780.946,-88.585 782.135,-88.585 782.135,-87.397 781.154,-86.405 779.966,-86.405 768.863,-91.951 
	764.896,-91.356 760.942,-86.208 758.564,-76.696 757.568,-75.306 756.187,-74.117 750.242,-66.786 748.057,-65.003 
	764.301,-53.511 783.131,-33.894 784.721,-31.316 786.296,-24.383 787.486,-21.805 789.862,-17.844 790.859,-15.466 
	791.261,-14.277 791.454,-12.292 790.459,-11.103 788.48,-9.915 787.486,-8.725 783.532,-2.388 782.938,-0.207 782.938,1.18 
	784.126,1.381 785.107,0.982 786.296,0.585 787.486,0.191 788.48,0.388 789.269,1.773 788.674,3.36 787.292,5.542 786.104,6.529 
	783.726,7.919 783.131,8.908 783.323,9.9 783.918,10.892 784.513,12.081 784.513,15.446 784.914,20.601 785.315,22.384 
	785.91,24.564 786.296,30.509 786.698,32.49 787.486,33.679 788.08,33.679 788.882,33.481 789.862,32.887 791.053,32.49 
	792.241,32.687 793.044,34.47 792.836,36.057 792.241,38.037 791.261,38.832 790.666,39.226 790.071,39.226 789.862,39.623 
	789.477,40.415 788.674,42.793 787.693,45.371 787.099,47.548 787.693,54.682 790.859,67.166 793.831,74.696 794.619,77.473 
	794.619,77.668 794.426,77.866 793.831,78.264 792.836,78.46 792.048,78.067 791.646,77.866 791.454,77.668 790.264,75.689 
	789.269,74.696 788.08,74.102 786.891,74.299 785.702,74.894 784.32,77.272 784.126,77.668 784.32,78.857 784.914,81.039 
	786.698,82.622 786.891,83.81 787.292,85.795 788.08,86.984 789.477,88.173 790.859,88.566 792.048,88.767 795.615,88.767 
	800.965,90.55 804.338,91.145 806.315,91.936 810.282,90.944 815.633,90.747 817.803,90.35 819.586,89.362 824.342,85.795 
	825.738,84.802 827.522,84.208 828.503,84.404 829.306,85.2 830.093,86.188 831.685,87.378 834.656,88.964 836.231,88.964 
	839.011,89.558 846.337,92.728 847.928,93.124 849.518,92.929 853.472,90.55 855.462,89.957 857.247,90.55 877.058,101.449 
	878.246,101.449 880.224,100.657 881.024,101.049 881.62,101.846 882.214,102.833 883.195,104.421 885.573,106.399 890.536,104.022 
	893.301,104.616 895.291,106.799 896.674,107.791 897.863,107.791 900.241,106.799 901.236,107.196 902.218,108.184 
	902.812,108.778 904.001,109.177 905.19,109.177 905.991,108.778 906.587,108.184 907.182,107.196 908.37,106.204 909.559,106.007 
	910.747,106.204 916.886,107.987 925.804,106.399 927.586,105.609 928.775,106.007 930.365,107.393 931.347,107.393 933.13,105.806 
	934.72,105.015 936.31,104.819 938.094,105.015 939.282,104.421 941.854,102.638 948.794,104.819 949.774,106.007 950.964,107.393 
	952.555,111.357 952.746,112.939 952.555,114.723 951.961,115.911 951.767,116.904 951.767,117.695 952.152,119.084 
	952.956,120.275 969.2,134.739 970.583,135.135 972.365,134.144 973.36,133.946 974.148,134.739 974.55,135.729 975.145,138.305 
	975.145,140.286 975.337,141.475 976.332,143.257 980.494,146.23 982.278,147.025 983.868,147.419 987.227,146.825 988.816,143.061 
	990.006,140.88 991.001,139.494 998.135,132.36 998.923,130.975 999.517,129.19 999.918,128.002 1001.301,126.813 1003.277,125.422 
	1004.674,123.045 1006.457,121.065 1007.646,120.275 1008.435,119.478 1009.028,118.289 1009.028,116.707 1008.435,115.911 
	1007.438,115.316 1006.457,115.121 1005.269,115.121 1001.494,115.519 1000.513,115.121 999.517,114.527 999.324,113.734 
	999.116,113.337 999.116,112.345 999.324,111.554 999.517,110.562 1001.106,109.373 1002.089,108.581 1003.084,107.196 
	1004.08,105.412 1004.272,103.827 1004.272,102.638 1003.871,100.258 1003.679,99.07 1003.679,98.078 1003.871,97.09 
	1004.466,96.294 1005.061,95.502 1006.651,94.908 1007.839,94.908 1012.596,95.7 1013.977,95.502 1014.973,95.104 1016.162,94.314 
	1017.156,93.124 1017.753,91.539 1017.545,90.55 1017.156,89.957 1015.166,88.767 1014.379,87.972 1013.591,86.984 1012.997,85.991 
	1012.001,85.594 1011.005,85.594 1010.024,85.396 1009.623,84.607 1009.221,83.613 1009.028,82.424 1008.627,74.894 
	1008.435,73.704 1008.033,72.318 1006.845,69.744 1006.651,68.554 1008.835,66.771 1012.789,64.788 1022.301,62.016 
	1029.433,61.024 1030.237,60.827 1030.622,60.032 1030.622,58.843 1030.429,57.654 1030.429,56.666 1031.217,55.674 
	1032.615,54.882 1035.377,54.882 1036.775,55.079 1037.965,55.674 1041.129,58.052 1042.318,58.249 1043.507,58.052 
	1044.696,56.863 1046.08,56.666 1046.881,56.863 1048.857,58.249 1050.047,58.646 1051.043,58.249 1051.829,57.457 1052.231,55.871 
	1052.618,54.682 1052.827,50.324 1051.829,47.749 1050.242,46.954 1050.836,45.568 1051.43,44.576 1052.425,43.785 1054.609,43.387 
	1054.016,41.407 1052.024,37.84 1051.234,36.454 1051.234,34.868 1052.024,33.282 1054.016,31.301 1054.609,30.308 1054.401,28.524 
	1054.016,26.942 1053.808,25.552 1054.401,23.769 1054.803,22.384 1054.401,20.796 1053.808,19.607 1053.421,18.418 
	1052.827,16.042 1052.024,13.467 1051.637,12.278 1052.618,10.892 1053.614,10.096 1054.803,9.9 1057.182,9.9 1058.37,9.306 
	1059.752,8.313 1061.342,5.34 1062.531,3.759 1063.72,2.765 1064.716,2.368 1065.697,1.577 1067.48,-0.604 1071.642,-4.368 
	1072.638,-5.557 1073.038,-7.143 1073.231,-9.521 1072.443,-11.502 1070.66,-13.285 1070.259,-14.474 1071.048,-20.614 
	1071.849,-22.599 1073.633,-25.571 1074.613,-27.949 1074.821,-28.938 1074.821,-30.524 "/>
<polygon fill="#FFFFFF" stroke="#010101" stroke-width="2" stroke-linecap="round" stroke-linejoin="round" points="793.831,74.696 
	790.859,67.166 787.693,54.682 787.099,47.548 787.693,45.371 788.674,42.793 789.477,40.415 789.862,39.623 790.071,39.226 
	790.666,39.226 791.261,38.832 792.241,38.037 792.836,36.057 793.044,34.47 792.241,32.687 791.053,32.49 789.862,32.887 
	788.882,33.481 788.08,33.679 787.486,33.679 786.698,32.49 786.296,30.509 785.91,24.564 785.315,22.384 784.914,20.601 
	784.513,15.446 784.513,12.081 783.918,10.892 783.323,9.9 783.131,8.908 783.726,7.919 786.104,6.529 787.292,5.542 788.674,3.36 
	789.269,1.773 788.48,0.388 787.486,0.191 786.296,0.585 785.107,0.982 784.126,1.381 782.938,1.18 782.938,-0.207 783.532,-2.388 
	787.486,-8.725 788.48,-9.915 790.459,-11.103 791.454,-12.292 791.261,-14.277 790.859,-15.466 789.862,-17.844 787.486,-21.805 
	786.296,-24.383 784.721,-31.316 783.131,-33.894 764.301,-53.511 748.057,-65.003 735.38,-54.7 730.817,-49.745 728.038,-48.755 
	725.273,-46.575 678.504,-31.516 668.8,-31.713 659.882,-28.343 655.513,-25.371 651.561,-24.183 637.292,-15.663 636.104,-13.879 
	621.242,-7.143 620.246,-5.954 618.864,-5.954 613.306,-1.396 611.522,0.786 606.976,16.042 601.224,26.741 600.822,28.131 
	600.63,29.915 601.03,31.498 602.605,32.49 603.007,33.679 604.002,35.265 606.382,36.651 608.952,37.443 610.929,37.643 
	613.112,37.643 621.242,40.415 630.753,41.804 640.057,40.415 648.187,35.265 646.21,37.84 644.024,39.82 638.867,42.596 
	624.602,45.765 610.542,48.938 603.007,54.485 600.436,58.646 599.247,59.438 596.661,60.232 593.688,63.004 588.338,65.582 
	570.117,69.744 567.146,72.516 556.639,65.977 550.887,64.591 547.528,62.41 545.536,61.618 537.615,61.618 532.859,59.438 
	530.081,58.646 525.92,61.024 523.154,60.827 518.191,59.24 498.782,58.052 485.302,52.898 470.44,52.107 468.465,53.099 
	466.473,55.079 465.686,57.457 466.874,59.24 466.874,60.429 464.688,61.024 463.5,60.429 462.52,59.24 461.33,58.052 
	460.142,58.249 458.744,59.043 457.957,59.24 457.556,57.457 457.764,56.863 458.358,56.071 458.744,54.682 458.952,52.701 
	458.551,48.938 457.556,46.359 448.847,35.462 447.256,30.509 445.279,27.537 443.689,23.97 444.283,19.809 445.072,19.013 
	446.066,18.62 448.639,18.62 449.039,17.824 449.232,16.242 449.827,14.656 452.8,12.474 452.205,9.501 449.634,4.151 449.232,1.18 
	448.639,-0.01 447.851,-0.403 434.179,-2.982 431.993,-2.781 426.852,-1.198 425.262,0.191 422.289,4.151 420.505,5.739 
	418.529,6.731 417.132,6.529 414.754,5.739 413.565,5.542 412.184,5.935 410.802,7.522 409.611,7.919 408.809,7.522 408.616,6.731 
	408.616,5.935 408.423,5.542 406.64,5.542 398.108,2.765 390.589,1.577 388.211,0.786 387.616,0.585 386.428,0.786 385.833,0.786 
	385.432,-0.207 384.838,-2.187 384.437,-2.982 383.246,-3.375 380.081,-2.982 378.699,-3.375 376.515,-4.963 375.326,-5.36 
	372.354,-4.963 371.951,-3.576 372.16,-0.997 371.164,3.164 376.113,5.145 379.888,5.935 380.869,7.124 381.464,8.908 
	382.46,10.892 383.246,13.27 383.246,16.242 382.653,21.593 382.059,23.375 378.893,26.348 378.104,28.726 378.699,29.915 
	381.671,33.481 382.653,35.265 383.054,36.651 383.246,37.643 383.454,38.434 385.03,41.407 385.432,42.596 385.833,43.785 
	386.026,46.162 385.432,52.107 385.833,54.485 387.021,55.674 388.211,55.477 389.786,54.882 391.376,54.485 390.975,55.079 
	390.781,55.674 390.589,56.863 392.758,58.052 395.345,61.024 397.321,62.213 398.317,59.24 399.104,59.24 400.694,62.807 
	400.694,63.996 398.317,63.996 399.104,66.571 400.486,68.554 403.859,71.13 403.267,71.327 403.073,71.724 402.27,72.516 
	403.859,74.5 405.837,80.838 407.62,83.019 408.616,79.65 410.994,79.851 413.967,81.235 416.344,81.83 416.344,83.019 
	412.184,81.83 410.206,81.83 409.211,83.613 409.403,86.783 409.998,90.152 410.592,93.322 411.588,96.097 412.184,95.307 
	412.584,95.104 413.967,96.097 411.588,97.685 410.994,98.672 409.998,100.853 409.611,103.231 409.403,105.211 409.998,106.399 
	411.588,106.799 411.187,108.581 410.802,110.365 410.802,114.527 411.187,115.911 411.989,117.695 412.777,118.688 
	413.179,117.896 413.967,115.316 416.151,114.128 418.722,114.128 420.906,115.121 420.906,116.112 418.127,114.924 
	416.538,115.715 415.943,118.289 414.562,128.199 415.155,129.19 416.538,129.585 416.938,130.577 416.938,132.163 416.344,134.144 
	415.349,132.558 414.562,134.341 413.565,142.663 412.777,144.646 411.588,146.23 409.998,146.825 409.998,148.213 412.777,148.808 
	414.16,151.581 414.754,155.742 414.754,160.3 415.75,164.461 419.912,168.225 420.906,172.189 421.501,173.377 422.883,174.169 
	426.852,175.359 427.445,176.154 427.832,176.945 427.832,178.133 428.233,178.925 428.828,178.729 429.422,177.938 
	429.422,177.539 433.777,177.938 436.363,179.323 438.146,182.295 433.984,180.709 421.694,183.483 412.777,182.295 
	411.588,182.492 411.781,182.889 412.184,184.275 412.377,185.071 412.584,186.26 413.565,188.638 415.349,192.206 416.151,194.184 
	416.538,194.976 416.938,195.968 417.132,197.948 417.533,199.137 418.529,201.516 421.888,207.661 422.883,208.648 
	425.662,210.633 426.45,211.622 427.64,212.613 429.422,213.208 431.993,213.011 435.173,211.822 436.956,210.633 439.335,208.453 
	440.524,207.661 443.095,206.669 444.09,206.074 445.072,205.283 445.874,204.292 447.449,201.716 448.445,200.724 450.422,200.527 
	453.2,200.724 464.896,204.094 466.68,205.675 469.652,207.066 475.197,208.054 479.164,208.054 482.925,206.866 483.519,206.669 
	483.713,206.271 484.515,205.878 485.897,205.48 488.082,206.669 488.468,206.866 489.271,207.066 490.058,207.264 494.219,206.472 
	496.002,208.255 497.385,210.431 498.782,213.605 499.377,214.593 500.164,215.187 501.16,214.794 501.947,214.2 502.943,214.2 
	503.73,214.794 504.518,215.781 505.32,216.578 506.511,216.774 507.893,216.376 508.68,215.388 508.888,214.2 509.081,213.404 
	510.077,212.81 515.621,211.424 516.615,211.424 517.403,212.417 517.805,213.404 518.191,214.2 519.38,214.593 529.099,212.215 
	530.288,211.622 531.27,210.83 535.237,206.669 536.233,206.074 537.215,205.675 538.805,205.675 544.348,206.074 552.075,208.255 
	553.666,207.857 554.26,207.264 554.854,206.271 555.851,204.688 557.232,204.094 558.823,203.697 561.395,203.697 562.776,203.103 
	563.772,202.311 564.366,201.122 564.768,200.13 564.56,198.942 564.366,197.751 564.768,196.96 565.557,196.366 572.688,199.137 
	573.685,199.932 574.071,201.122 573.878,203.103 573.284,204.292 573.477,206.271 574.667,208.648 578.44,213.011 580.416,214.794 
	582.2,215.586 583.196,215.586 584.178,215.781 584.98,217.172 585.768,218.559 586.17,227.278 592.9,226.286 594.091,226.484 
	595.473,226.684 597.464,227.476 599.039,227.476 599.842,226.684 600.036,224.503 600.436,223.711 601.224,223.116 601.818,222.72 
	602.605,222.522 603.408,222.522 604.791,222.125 605.192,221.728 605.979,221.134 606.767,219.943 607.569,218.361 
	608.356,217.172 609.546,216.18 610.929,215.781 612.117,215.187 613.901,213.605 624.007,211.228 625.597,211.228 627.38,211.622 
	632.136,213.803 633.517,214.593 634.32,215.586 634.914,217.172 635.108,218.361 635.108,219.748 634.513,224.306 634.707,229.062 
	635.108,231.239 635.508,233.022 636.49,235.4 637.679,236.79 639.463,238.176 642.435,240.156 644.812,240.554 646.21,240.156 
	647.399,239.762 648.187,240.156 648.78,241.544 648.973,242.734 648.973,243.723 648.78,245.309 648.973,245.903 650.565,246.695 
	660.27,249.471 664.638,249.668 664.832,249.471 665.025,249.273 665.426,248.876 666.615,248.876 667.997,249.867 669.987,252.246 
	672.366,256.207 673.348,257.596 674.536,258.784 677.315,260.567 679.693,261.162 682.858,260.367 684.256,259.576 
	685.044,258.784 685.831,257.792 686.04,256.406 685.639,254.623 685.044,253.234 683.067,249.867 682.858,249.471 682.666,248.876 
	682.473,247.687 682.473,246.3 682.858,244.12 682.666,242.734 682.264,241.544 681.477,240.95 680.689,239.959 680.095,238.771 
	680.689,236.79 681.076,235.6 681.67,235.006 682.473,234.806 684.449,234.411 686.04,234.015 693.768,230.844 696.146,229.259 
	699.504,226.09 700.1,225.098 700.693,222.72 701.288,221.728 701.882,220.537 702.877,219.349 703.472,218.16 703.279,216.972 
	702.09,215.187 701.095,213.999 700.307,213.011 699.906,212.02 699.711,210.431 699.711,209.243 699.711,208.054 700.1,206.866 
	700.1,206.669 700.307,206.074 700.307,205.283 700.1,204.094 699.504,202.905 693.56,196.166 690.201,194.184 688.804,192.598 
	686.827,188.834 685.639,186.26 684.851,178.532 688.61,174.567 689.8,173.575 691.182,172.783 702.09,169.615 703.279,169.615 
	704.467,169.812 705.657,169.615 706.846,169.019 707.827,167.631 708.421,166.442 709.223,165.252 710.205,164.461 
	711.795,163.867 712.983,163.669 715.361,163.867 715.556,163.867 715.956,163.867 716.743,163.669 717.338,163.075 
	717.739,162.083 717.739,159.903 718.141,159.111 718.734,158.913 720.117,159.508 723.089,162.281 724.277,162.677 
	725.468,162.875 726.656,163.075 730.623,162.677 731.813,162.875 732.794,163.273 733.789,164.063 733.982,164.063 
	734.384,163.867 734.979,163.669 739.733,160.895 742.515,159.706 743.702,158.713 744.892,157.525 745.68,155.147 746.081,153.363 
	746.869,151.781 748.057,150.194 750.628,147.817 752.411,146.627 755.191,145.241 756.187,144.447 756.975,143.257 
	757.375,141.475 757.375,140.286 756.38,136.521 756.573,135.135 757.167,134.144 761.73,131.369 761.136,129.19 760.942,128.199 
	761.136,126.813 761.136,125.625 760.541,125.029 759.546,124.633 758.564,124.633 757.568,124.234 756.975,123.247 
	756.975,122.254 756.975,121.463 757.375,119.877 757.375,119.283 757.375,118.289 757.167,117.301 755.979,114.723 
	756.187,113.534 757.375,112.546 771.643,109.177 776.19,106.6 781.541,87.972 784.914,81.039 784.32,78.857 784.126,77.668 
	784.32,77.272 785.702,74.894 786.891,74.299 788.08,74.102 789.269,74.696 790.264,75.689 791.454,77.668 791.646,77.866 
	792.048,78.067 792.836,78.46 793.831,78.264 794.426,77.866 794.619,77.668 794.619,77.473 "/>
<polygon id="Île-de-France" fill="#FFFFFF" stroke="#010101" stroke-width="2" stroke-linecap="round" stroke-linejoin="round" points="
	987.227,146.825 986.841,150.392 986.439,151.383 985.65,152.375 984.462,152.769 980.688,152.769 979.305,153.167 979.112,153.958 
	979.498,154.752 981.089,156.139 981.283,157.131 980.494,157.922 978.904,159.308 978.116,160.498 977.715,162.281 
	977.715,163.273 977.923,163.867 978.116,163.867 978.711,164.063 980.093,163.867 980.688,163.867 980.896,164.264 
	981.283,164.659 981.877,165.848 982.679,166.839 983.66,167.433 984.061,168.425 984.462,169.414 984.655,170.406 985.25,173.182 
	985.442,174.965 984.462,179.126 984.655,181.105 985.057,182.492 986.039,183.087 987.033,183.087 989.218,182.295 
	989.812,182.295 990.6,182.492 991.389,184.079 993.974,187.449 989.01,191.806 987.033,194.976 986.039,197.948 985.25,199.932 
	984.061,201.122 982.679,201.516 981.283,201.716 979.498,202.11 978.904,202.507 978.711,203.5 979.305,204.487 980.494,206.472 
	980.688,207.066 980.301,208.054 977.923,210.038 977.329,211.228 977.121,212.215 978.311,214.794 978.518,215.388 978.311,216.18 
	977.715,218.361 977.329,220.342 977.715,221.928 974.95,225.098 973.168,228.267 972.173,228.861 971.177,228.664 969.006,227.872 
	967.818,227.673 956.314,229.655 954.53,229.456 953.342,229.062 947.799,228.664 946.61,228.861 945.614,229.259 945.018,229.655 
	944.038,230.448 943.443,230.645 937.693,230.448 936.903,231.042 936.505,231.636 936.103,233.022 935.91,234.411 935.715,235.4 
	935.121,236.392 934.72,237.384 934.318,238.572 934.318,239.562 934.318,240.75 934.318,241.94 934.72,243.128 935.313,244.316 
	935.91,245.309 936.31,246.3 936.103,247.49 935.507,248.281 934.912,249.273 934.72,249.471 933.724,251.848 933.13,253.036 
	931.748,254.423 928.181,256.207 926.798,257.001 926.203,257.99 925.609,258.982 925.208,260.963 925.015,263.143 924.421,265.521 
	912.918,269.486 911.344,269.683 909.559,269.284 909.559,268.297 909.945,267.108 910.54,266.114 910.153,265.324 908.756,264.73 
	905.784,265.123 904.001,265.719 902.812,266.71 902.024,267.898 900.835,269.088 898.651,270.674 897.076,271.068 881.62,269.879 
	879.628,270.08 875.675,271.27 874.085,271.27 872.302,270.871 871.305,270.08 870.519,269.088 870.324,268.096 870.519,267.108 
	871.113,266.114 871.9,265.324 872.896,265.324 875.868,265.918 876.27,265.719 876.864,265.123 877.058,264.332 876.864,263.34 
	876.062,261.954 876.062,261.557 876.062,261.162 877.25,258.982 877.651,257.99 877.651,256.801 876.864,255.415 875.273,253.828 
	868.927,249.471 868.734,249.273 868.541,248.679 866.951,242.336 866.357,240.75 864.572,238.372 860.219,239.167 855.255,236.194 
	854.065,236.392 853.278,236.986 852.49,238.176 851.301,239.167 848.329,239.959 846.932,239.562 846.337,238.771 846.145,237.58 
	845.55,236.392 844.361,235.4 842.979,234.212 841.79,234.411 840.987,235.006 840.006,237.384 839.412,238.372 838.416,239.364 
	834.448,241.147 818.011,244.912 816.229,243.723 816.021,242.734 816.021,241.742 816.614,240.95 817.61,239.959 819.2,237.58 
	819.2,236.59 818.799,235.995 816.614,234.806 815.633,233.022 815.038,230.844 814.637,226.88 813.642,225.098 812.661,223.908 
	811.665,223.116 810.476,221.728 810.282,220.342 810.075,216.376 809.287,215.586 805.126,216.376 802.154,215.388 796.61,212.417 
	794.826,210.83 793.638,209.243 792.643,206.866 792.45,206.669 792.45,205.48 792.643,202.905 792.643,201.914 792.45,200.724 
	792.241,199.338 791.854,197.948 790.666,196.166 789.269,195.177 787.292,193.988 786.296,192.799 785.91,191.61 785.509,189.232 
	784.914,187.645 783.532,186.456 777.78,182.295 776.19,180.511 775.21,178.729 774.213,175.755 773.218,174.764 771.435,173.776 
	771.241,172.981 771.049,171.994 771.435,170.804 772.029,169.615 773.812,167.433 774.406,166.245 774.615,164.858 
	774.615,164.264 774.406,163.867 771.241,161.887 770.454,160.895 770.246,160.103 770.052,158.319 770.052,157.525 
	770.052,156.733 770.246,155.544 770.84,153.167 771.049,151.581 771.049,149.997 770.454,147.619 769.65,146.033 767.867,143.655 
	761.73,131.369 761.136,129.19 760.942,128.199 761.136,126.813 761.136,125.625 760.541,125.029 759.546,124.633 758.564,124.633 
	757.568,124.234 756.975,123.247 756.975,122.254 756.975,121.463 757.375,119.877 757.375,119.283 757.375,118.289 
	757.167,117.301 756.187,114.723 756.187,113.534 757.375,112.546 771.643,109.177 776.19,106.6 781.541,87.972 784.914,81.039 
	786.698,82.622 786.891,83.81 787.292,85.795 788.08,86.984 789.477,88.173 790.859,88.566 792.048,88.767 795.615,88.767 
	800.965,90.55 804.338,91.145 806.315,91.936 810.282,90.944 815.633,90.747 817.803,90.35 819.586,89.362 824.342,85.795 
	825.738,84.802 827.522,84.208 828.503,84.404 829.306,85.2 830.093,86.188 831.685,87.378 834.656,88.964 836.231,88.964 
	839.011,89.558 846.337,92.728 847.928,93.124 849.518,92.929 853.472,90.55 855.462,89.957 857.247,90.55 877.058,101.449 
	878.246,101.449 880.224,100.657 881.024,101.049 881.62,101.846 882.214,102.833 883.195,104.421 885.573,106.399 890.536,104.022 
	893.301,104.616 895.291,106.799 896.674,107.791 897.863,107.791 900.241,106.799 901.236,107.196 902.218,108.184 
	902.812,108.778 904.001,109.177 905.19,109.177 905.991,108.778 906.587,108.184 907.182,107.196 908.37,106.204 909.559,106.007 
	910.747,106.204 916.886,107.987 925.804,106.399 927.586,105.609 928.775,106.007 930.365,107.393 931.347,107.393 933.13,105.806 
	934.72,105.015 936.31,104.819 938.094,105.015 939.282,104.421 941.854,102.638 948.794,104.819 949.774,106.007 950.964,107.393 
	952.555,111.357 952.746,112.939 952.555,114.723 951.961,115.911 951.767,116.904 951.767,117.695 952.152,119.084 
	952.956,120.275 969.2,134.739 970.583,135.135 972.365,134.144 973.36,133.946 974.148,134.739 974.55,135.729 975.145,138.305 
	975.145,140.286 975.337,141.475 976.332,143.257 980.494,146.23 982.278,147.025 983.868,147.419 "/>
<polygon id="Centre" fill="#FFFFFF" stroke="#010101" stroke-width="2" stroke-linecap="round" stroke-linejoin="round" points="
	924.421,265.521 925.996,265.521 927.987,265.719 932.342,266.907 933.724,267.898 934.72,268.492 935.507,269.486 935.91,270.674 
	938.094,278.997 938.882,280.383 939.877,281.57 943.443,284.347 945.227,286.326 945.614,287.516 945.821,288.704 946.208,291.679 
	945.614,293.858 943.443,299.008 942.449,300.595 941.452,301.385 939.074,302.775 937.886,303.763 936.103,305.945 
	935.313,306.938 934.318,307.331 932.743,307.135 932.342,307.531 931.94,308.721 932.535,313.078 932.937,314.665 933.932,316.646 
	934.318,317.638 933.724,319.023 933.13,320.015 932.743,320.807 932.535,321.799 932.937,322.987 932.937,324.177 932.937,325.365 
	931.94,326.949 930.959,327.743 927.186,329.13 923.618,331.507 922.43,331.905 921.447,331.905 919.264,331.704 917.08,332.102 
	915.891,332.499 915.102,333.093 914.314,333.886 914.107,334.282 913.72,335.865 913.72,337.451 913.913,338.838 914.314,339.83 
	915.503,340.621 916.484,340.621 917.674,341.019 918.669,341.811 921.836,344.781 923.231,346.171 924.807,349.342 
	925.402,351.124 925.402,352.711 924.212,354.691 924.421,356.078 925.015,357.663 928.374,362.021 929.369,364.797 
	926.992,365.588 922.638,365.588 921.447,365.985 916.886,368.562 916.886,369.356 916.484,369.951 919.457,373.713 
	920.646,376.092 921.642,379.063 922.43,380.449 924.421,383.029 925.015,384.018 925.208,384.812 925.208,386.001 924.421,390.757 
	924.02,391.352 923.425,392.934 923.023,394.122 922.83,394.717 922.43,395.512 921.24,398.088 919.857,399.871 918.862,402.052 
	918.669,402.646 918.669,403.24 918.862,404.229 919.665,405.618 920.259,406.41 920.646,406.808 921.24,407.2 921.642,407.6 
	922.83,407.996 923.231,408.193 923.618,408.591 926.591,412.553 927.394,413.347 929.176,414.535 929.771,415.13 930.157,416.118 
	930.558,417.508 931.748,423.452 931.94,424.047 932.743,425.83 934.318,430.586 935.715,435.539 935.91,436.133 936.696,439.105 
	936.696,440.295 936.696,441.68 936.505,444.259 936.31,445.645 936.505,446.834 937.099,448.022 937.499,448.616 939.668,450.597 
	940.07,450.995 940.471,451.393 940.666,451.987 940.858,455.156 940.858,459.316 941.261,461.298 941.452,462.487 941.452,463.877 
	941.065,465.66 940.263,469.422 939.282,472.199 939.074,472.99 939.074,473.781 939.282,475.171 939.477,475.963 940.858,478.537 
	940.858,479.131 941.065,479.727 941.261,480.915 940.858,482.104 940.07,483.887 937.499,488.845 936.903,490.231 936.696,490.627 
	936.31,494.194 933.13,494.194 930.157,493.797 925.015,495.383 917.882,500.139 917.08,500.733 916.292,502.517 915.697,503.705 
	914.508,504.895 913.319,504.695 912.13,504.301 910.747,504.1 909.752,504.695 907.97,506.678 906.974,506.875 903.214,505.289 
	902.619,504.497 902.218,503.902 901.236,503.506 900.642,504.1 898.859,506.281 895.485,509.253 893.509,510.839 890.536,510.839 
	889.941,511.434 889.941,512.226 890.328,514.604 889.733,515.595 888.545,515.792 885.975,515.595 885.186,515.792 
	884.785,516.387 884.785,517.378 885.186,518.17 886.375,519.954 886.762,520.945 886.568,521.539 885.78,523.123 885.573,524.312 
	885.78,525.304 886.375,526.492 888.159,528.674 888.753,529.662 889.14,530.654 889.348,531.248 889.541,532.039 889.541,532.833 
	889.348,533.625 888.945,534.023 879.435,536.795 874.085,537.193 870.919,537.984 869.923,537.984 868.734,537.787 
	866.951,537.984 864.766,538.579 857.841,541.948 856.25,544.725 855.062,545.913 854.065,546.508 853.278,546.704 852.49,547.298 
	851.896,548.09 851.093,550.074 848.121,555.224 836.826,554.63 830.881,556.02 827.121,554.432 820.583,554.432 819.794,554.236 
	817.417,552.846 816.021,552.452 805.914,552.251 804.725,552.452 803.536,552.846 801.158,554.63 800.177,555.224 798.587,555.027 
	797.591,554.035 795.215,550.865 794.232,550.074 793.236,550.074 792.241,550.271 791.261,551.657 791.053,552.846 
	791.053,553.837 791.261,555.027 791.261,556.02 790.859,557.007 790.459,557.999 789.477,558.786 788.08,559.188 783.323,557.999 
	782.135,558.399 780.753,559.381 779.564,560.377 778.567,561.374 777.186,561.565 775.21,561.164 774.213,560.183 774.021,559.188 
	774.213,558.191 773.619,557.404 772.431,556.81 769.457,557.404 767.867,557.007 766.679,556.412 765.49,556.216 763.707,556.613 
	756.38,564.346 752.812,566.515 747.655,563.156 747.062,562.16 746.675,560.972 745.872,559.976 744.892,559.188 743.702,558.994 
	742.112,559.781 741.518,560.779 741.116,561.76 740.329,562.754 738.738,563.156 733.789,563.752 732.199,563.752 730.817,563.542 
	729.227,562.354 727.845,562.16 725.869,560.57 727.845,553.837 726.463,551.857 724.277,550.468 723.089,549.676 721.901,547.894 
	721.707,546.508 722.688,542.543 722.688,541.948 722.302,540.956 721.901,540.166 721.306,538.976 720.311,537.984 
	719.329,537.193 718.333,536.795 717.146,536.4 710.205,536.4 708.821,535.807 708.228,534.815 708.035,532.239 707.231,531.445 
	706.445,531.051 704.26,530.457 701.095,528.674 698.523,526.295 697.126,524.709 696.146,523.123 695.552,520.548 695.15,518.367 
	695.15,515.001 695.344,514.009 695.552,513.018 695.938,511.827 696.339,510.839 696.339,509.253 695.938,507.273 694.555,504.301 
	693.768,502.714 691.39,499.938 686.634,495.978 673.154,475.963 670.776,468.828 669.588,466.451 668.398,465.065 667.21,464.271 
	664.832,463.283 658.485,459.316 657.104,458.723 656.911,459.121 656.702,459.316 656.911,459.912 656.911,460.311 
	656.911,461.695 657.104,462.289 657.297,462.688 657.698,463.081 657.891,463.676 658.1,464.072 658.292,464.666 658.485,465.263 
	658.485,465.856 658.1,466.451 657.104,466.849 656.108,467.243 646.998,467.64 645.021,468.234 644.024,468.633 643.43,469.422 
	642.644,470.215 641.455,470.612 636.298,469.62 631.349,470.215 629.162,469.62 627.975,468.633 627.188,467.443 626.786,466.255 
	626.593,465.065 626.593,462.688 626.593,459.515 627.38,456.148 627.572,454.164 627.38,453.177 626.979,452.381 625.998,452.184 
	623.62,451.987 622.816,451.191 622.223,449.408 621.436,449.015 620.44,448.814 617.868,449.807 616.486,450.202 614.896,450.202 
	613.901,449.608 613.707,448.616 613.901,447.428 614.303,446.239 614.496,445.051 614.303,443.664 613.901,442.475 612.92,442.078 
	610.334,443.07 608.758,443.07 608.164,442.275 607.956,441.483 607.956,440.295 608.164,439.303 607.569,438.314 606.767,438.314 
	604.791,439.503 603.601,439.7 602.605,439.303 602.011,438.314 601.417,437.124 600.822,436.133 599.635,433.952 601.417,421.074 
	603.408,411.76 604.002,409.58 604.598,408.39 605.979,406.212 609.146,401.85 612.325,396.5 612.325,395.116 611.731,391.946 
	611.924,390.36 613.306,386.198 613.707,383.82 617.274,375.693 617.467,374.506 617.274,373.119 616.486,370.147 616.486,367.966 
	616.873,365.985 619.652,358.852 624.602,360.237 627.781,360.636 634.32,362.616 635.896,362.419 636.298,361.629 636.104,360.636 
	635.703,358.656 635.508,357.468 635.508,356.276 635.896,355.285 637.292,354.098 638.481,354.098 641.053,355.683 
	642.644,356.078 643.43,355.683 643.623,354.691 644.618,353.699 646.402,352.51 650.966,351.521 657.104,348.35 658.485,347.955 
	660.076,347.755 661.266,347.361 661.666,346.566 661.666,345.576 661.458,344.586 660.478,342.207 661.859,338.641 
	664.431,335.865 666.615,334.479 667.997,334.082 668.205,334.082 670.776,332.695 673.941,330.515 675.532,329.13 676.721,327.743 
	679.693,318.429 679.887,317.239 679.887,316.051 679.887,314.665 679.693,313.477 679.693,312.287 679.693,310.896 
	680.095,309.314 680.689,307.531 682.071,306.343 683.661,305.153 686.233,302.574 687.229,300.992 687.614,299.603 
	686.827,297.225 686.827,295.44 687.02,293.462 687.823,289.896 688.016,288.11 687.422,287.319 685.445,287.119 684.643,286.921 
	684.256,286.131 683.854,285.139 683.26,283.948 682.666,282.564 682.666,281.175 683.453,280.383 684.449,280.187 686.827,279.984 
	687.823,279.788 689.012,278.997 689.012,278.004 688.417,277.215 687.422,276.619 686.634,275.823 686.634,274.438 687.02,273.646 
	688.417,272.852 692.37,270.08 694.749,269.088 695.744,267.898 695.744,266.907 695.15,265.918 694.153,265.324 693.173,265.123 
	689.606,264.927 688.417,264.528 682.858,260.367 684.256,259.576 685.044,258.784 685.831,257.792 686.04,256.406 685.639,254.623 
	685.044,253.234 683.067,249.867 682.858,249.471 682.666,248.876 682.473,247.687 682.473,246.3 682.858,244.12 682.666,242.734 
	682.264,241.544 681.477,240.95 680.689,239.959 680.095,238.771 680.689,236.79 681.076,235.6 681.67,235.006 682.473,234.806 
	684.449,234.411 686.04,234.015 693.768,230.844 696.146,229.259 699.504,226.09 700.1,225.098 700.693,222.72 701.288,221.728 
	701.882,220.537 702.877,219.349 703.472,218.16 703.279,216.972 702.09,215.187 701.095,213.999 700.307,213.011 699.906,212.02 
	699.711,210.431 699.711,209.243 699.711,208.054 700.1,206.866 700.1,206.669 700.307,206.074 700.307,205.283 700.1,204.094 
	699.504,202.905 693.56,196.166 690.201,194.184 688.804,192.598 686.827,188.834 685.639,186.26 684.851,178.532 688.61,174.567 
	689.8,173.575 691.182,172.783 702.09,169.615 703.279,169.615 704.467,169.812 705.657,169.615 706.846,169.019 707.827,167.631 
	708.421,166.442 709.223,165.252 710.205,164.461 711.795,163.867 712.983,163.669 715.361,163.867 715.556,163.867 
	715.956,163.867 716.743,163.669 717.338,163.075 717.739,162.083 717.739,159.903 718.141,159.111 718.734,158.913 
	720.117,159.508 723.089,162.281 724.277,162.677 725.468,162.875 726.656,163.075 730.623,162.677 731.813,162.875 
	732.794,163.273 733.789,164.063 733.982,164.063 734.384,163.867 734.979,163.669 739.733,160.895 742.515,159.706 
	743.702,158.713 744.892,157.525 745.68,155.147 746.081,153.363 746.869,151.781 748.057,150.194 750.628,147.817 752.411,146.627 
	755.191,145.241 756.187,144.447 756.975,143.257 757.375,141.475 757.375,140.286 756.38,136.521 756.573,135.135 757.167,134.144 
	761.73,131.369 767.867,143.655 769.65,146.033 770.454,147.619 771.049,149.997 771.049,151.581 770.84,153.167 770.246,155.544 
	770.052,156.733 770.052,157.525 770.052,158.319 770.246,160.103 770.454,160.895 771.241,161.887 774.406,163.867 
	774.615,164.264 774.615,164.858 774.406,166.245 773.812,167.433 772.029,169.615 771.435,170.804 771.049,171.994 
	771.241,172.981 771.435,173.776 773.218,174.764 774.213,175.755 775.21,178.729 776.19,180.511 777.78,182.295 783.532,186.456 
	784.914,187.645 785.509,189.232 785.91,191.61 786.296,192.799 787.292,193.988 789.269,195.177 790.666,196.166 791.854,197.948 
	792.241,199.338 792.45,200.724 792.643,201.914 792.643,202.905 792.45,205.48 792.45,206.669 792.643,206.866 793.638,209.243 
	794.826,210.83 796.61,212.417 802.154,215.388 805.126,216.376 809.287,215.586 810.075,216.376 810.282,220.342 810.476,221.728 
	811.665,223.116 812.661,223.908 813.642,225.098 814.637,226.88 815.038,230.844 815.633,233.022 816.614,234.806 818.799,235.995 
	819.2,236.59 819.2,237.58 817.61,239.959 816.614,240.95 816.021,241.742 816.021,242.734 816.229,243.723 818.011,244.912 
	834.448,241.147 838.416,239.364 839.412,238.372 840.006,237.384 840.987,235.006 841.79,234.411 842.979,234.212 844.361,235.4 
	845.55,236.392 846.145,237.58 846.337,238.771 846.932,239.562 848.329,239.959 851.301,239.167 852.49,238.176 853.278,236.986 
	854.065,236.392 855.255,236.194 860.219,239.167 864.572,238.372 866.357,240.75 866.951,242.336 868.541,248.679 868.734,249.273 
	868.927,249.471 875.273,253.828 876.864,255.415 877.651,256.801 877.651,257.99 877.25,258.982 876.062,261.162 876.062,261.557 
	876.062,261.954 876.864,263.34 877.058,264.332 876.864,265.123 876.27,265.719 875.868,265.918 872.896,265.324 871.9,265.324 
	871.113,266.114 870.519,267.108 870.324,268.096 870.519,269.088 871.305,270.08 872.302,270.871 874.085,271.27 875.675,271.27 
	879.628,270.08 881.62,269.879 897.076,271.068 898.651,270.674 900.835,269.088 902.024,267.898 902.812,266.71 904.001,265.719 
	905.784,265.123 908.756,264.73 910.153,265.324 910.54,266.114 909.945,267.108 909.559,268.297 909.559,269.284 911.344,269.683 
	912.918,269.486 "/>
<path id="Brittany" fill="#FFFFFF" stroke="#010101" stroke-width="2" stroke-linecap="round" stroke-linejoin="round" d="
	M239.787,405.023l-1.382-0.594l-3.968-3.964l-0.401-0.398l-2.765-2.177l-5.158-2.774l-1.382-0.399l-0.995-0.987h-0.788l-0.401,0.987
	l-0.996,0.993l0.594,2.378l1.189,2.774l0.803,2.771l-0.401,2.578l1.977,1.388l5.945,1.783l8.917,0.791l2.972-0.791l0.401-3.171
	l-1.189-1.389L239.787,405.023z M19.046,211.228l-0.208-0.398l-0.193-0.399l-2.184-0.987l-2.571,0.792l-4.756,2.574v1.189
	l2.972-0.792l1.189,0.398l0.595,1.582h-0.401l-0.788-0.195h-0.401v1.188l1.991-0.399l5.737-2.972v-1.188l-0.788,0.201
	L19.046,211.228z M473.605,286.326v-1.979l0.209-1.983v-1.188l-0.595-0.988l-1.783-1.589l-0.595-0.99l-0.401-0.792l-0.193-0.396
	l-1.397-10.501l0.402-0.795l0.191-0.393l0.403-0.398l0.4-0.397l0.193-0.792v-0.991l-0.788-4.953l-0.209-0.991l-0.385-3.367
	l-0.209-0.992l-0.192-0.792l-0.788-1.782l-0.208-0.397l-0.386-0.595l-0.209-0.791l-0.192-1.39l0.595-1.98l0.594-1.386l2.185-4.362
	l0.193-0.792v-1.98l-0.193-3.369l-1.397-12.681v-2.972l0.402-2.973v-6.936l-2.973-1.387l-1.784-1.586l-11.695-3.372l-2.765-0.393
	l-1.991,0.198l-0.98,0.992l-1.591,2.377l-0.788,0.988l-0.995,0.795l-0.996,0.595l-2.765,0.988l-1.188,0.795l-2.377,2.377
	l-1.784,1.19l-3.181,1.188h-2.57l-1.591-0.397l-1.188-0.994l-0.787-0.987l-2.78-1.984l-0.787-0.987l-3.373-6.147l-0.981-2.376
	l-0.401-1.189l-0.4-1.979l-0.194-0.993l-0.594-0.792l-0.595-1.979l-1.784-3.567l-0.994-2.378l-0.388-1.188l-0.208-0.796
	l-0.387-1.386l-0.208-0.397l-0.595,0.202l-5.542,2.972l-8.919,1.384l-8.321-0.195l-4.756-1.391l-2.571-2.972v-3.96l2.764-4.561
	l-0.786-1.188l-0.401-0.991v-0.792l0.401-0.791l-11.489,2.378l0.788,1.188h-4.354l-0.996,0.594l-0.192,1.189v1.189l-0.401,0.595
	l-1.784,0.594l-1.381,1.188l-0.803,1.582l-0.387,1.391l1.189,2.177l2.169,5.153l0.996,0.993h1.382l1.188,0.393l0.996,0.992
	l0.787,1.981l-1.382-0.987l-0.401-0.595l-0.386-0.795h-0.803l0.401,2.773l1.59,2.975l-0.594,1.384l3.165,2.182l-3.566,2.377
	l-1.189,1.189l0.401-3.765l-0.594-2.377l-2.973-4.362l0.386-0.595l0.401-1.582l-1.382-0.595l-0.995-1.189l-0.596-1.783l-0.192-1.784
	l-2.377-4.361l-0.21-0.792l-5.351,0.594l-5.142,1.784l0.982,2.378l0.593,1.188l0.803,0.994l-1.396-1.588l-1.383-0.196l-1.383,0.989
	l-1.188,1.984l0.981,0.988l0.4,0.202v1.189l-1.783,0.988l-0.995-0.988l-0.595-2.182l-0.388-2.574v2.177l-0.4,1.783l-0.787,1.391
	l-1.189,0.595l-0.208-1.785l-0.387-1.984l-0.803-1.582l-1.188-0.595l-0.387-0.993l-0.594-3.964l-0.595-0.988l-2.586,1.189
	l-2.378,2.377l-2.169,1.386l-1.992-1.586l3.18-3.567l0.596-0.988l0.386-0.993l0.595-0.991l0.803-0.594v-1.188l-1.591,0.201
	l-1.189-0.595l-0.786-1.189l-0.402-1.984l-1.59,3.173l-2.972,2.972l-3.36,2.176l-2.972,1.19l-0.995-2.378l-2.378-0.394l-5.158,1.582
	l2.186,0.992l0.996,0.198v1.188l-1.591,1.783l-7.729,4.756l-1.976,0.594l-1.188,0.992l-0.803,0.993l-2.766,4.162l-2.185,2.377
	l-1.783,0.792l-4.562-0.198l-0.387,1.188v2.378l-0.4,1.583l-1.59-1.386l-0.981-1.188l-0.996-0.994l-0.996-0.594h-1.382l0.788-0.79
	l0.594-0.994l0.402-1.188l0.4-1.583l-6.539-3.173l-2.778-1.98l-1.383-0.792l-0.594-0.594l-0.401-0.993l0.192-0.79l0.4-0.796
	l-0.191-0.792l-0.401-1.386l-1.189-5.153l-7.328-6.342l-0.801-1.783l-1.784-1.98l-1.976-1.784l-1.591-1.189v-0.991l0.401-0.197
	l1.189-0.992l-0.193-1.188v-0.99l0.193-1.389l-2.186-0.792l-5.737-0.198l-2.972-1.188v-1.189h-1.396v-0.991l1.991-1.587l0.788-0.594
	l1.188-0.394v-0.794l-0.193-0.198h-0.208l-0.386,0.992l0.787-1.188l-1.188-0.992l-1.189-0.397l-1.189,0.397l-1.189,0.992
	l-1.783-0.398l-2.184,3.17l-3.76,7.729h-0.788v-1.387l2.378-3.169l0.788-1.389l1.383-4.555l0.802-1.389l-1.59-1.189v-0.989
	l0.789-1.586v-1.783l-0.789-1.586l-1.382-0.988l-1.396,0.394l-2.17,2.578l-1.189-0.594l-0.996,1.188l-2.779,2.378l-3.359,4.162
	l-0.996,1.583l-0.401,2.181l-0.595-1.189l-0.193-0.397l-0.193-0.792l1.382-1.784l0.787-3.169v-3.37l-0.787-2.575l-1.783-0.397
	l-3.374,4.161l-0.981-0.397h-0.803l-1.381,0.991l-9.512,3.567l-0.787,0.594l-1.189,1.386l-0.996,0.594l-1.382,0.2l-2.586-0.2
	l0.401-0.792l0.193-0.594l0.401-0.396l0.595-0.595l-1.59-0.197l-3.954-2.377l-3.566-0.198l-0.996-0.794h-0.788l-0.594,1.389
	l-2.378,4.359l-3.374,1.585l-1.189,1.386l0.401,2.774l3.954,4.954l1.59,0.991l-5.944,0.989l-0.402,1.188l0.402,2.579l1.189,3.96
	l-1.591,0.796h-3.358l-2.78-0.796v-2.972l-3.968,1.188h-1.382l-1.189-0.594l-2.571-2.378l-1.189-0.594l-5.35,0.2l-2.184-0.594
	l-1.382-2.182v1.189v0.992l-0.208,0.792l-0.387,0.791l-1.396-0.989l-0.981,1.981l-0.401,3.37l0.401,2.974l-0.996-0.994l-0.401-0.594
	l-0.386-0.992h-0.803l0.595,3.567l0.401,1.389l0.594,0.988l-0.787,1.19l0.787,1.188l-0.787,1.189l-1.397-1.98l-3.359-2.181
	l-1.397-1.783v-0.987l0.595-0.202l1.188-0.988l-2.17-0.595l-1.589,0.79l-3.167,3.17l0.595-1.98l-0.208-1.783l-0.981-0.398
	l-1.189-0.791v-1.19h0.788v-0.991l-1.382-0.594l-0.208-0.792l0.401-1.188l0.193-1.586l-0.595-0.792l-3.953,1.188l-2.378,1.588
	l-1.396,0.594l-1.576,0.394l0.387,1.585v1.188l-0.387,0.994l-0.802,0.791h-0.788l-0.402-1.188l-0.594-0.792h-0.594l-0.594,0.988
	l-1.976-1.188l-2.78-0.198l-2.572,0.594l-2.184,0.792l-1.977,1.391l-1.976,1.979l-0.595,1.784l2.17,0.594v1.188h-1.575l-2.587-0.992
	l-1.382-0.196l-1.188,0.398l-3.373,2.177l-2.571,0.201l0.787-3.768l-1.976-2.377l-2.972-0.197l-2.973,1.188l-3.166,1.784
	l-3.181,0.594v1.188l0.803,0.198l1.575,0.991h-2.57l-3.76,1.784l-2.586,0.398h-8.917v0.988l0.996,0.594l0.194,0.594l-0.194,0.594
	l-0.401,0.795l3.181,1.188h-2.185l-5.157-1.39l-1.382,0.992l0.788,2.377l2.586,3.568l-1.396,0.397l-3.76-2.182l-2.185-0.594
	l-3.567,0.398l-2.17,0.79l-1.783,1.19l0.788,1.189l-1.189-0.594l-1.189-0.792l-1.977,2.973l-2.779,5.148l-1.189,4.958l2.973,2.176
	v0.993l-2.185,0.594l-1.382,2.378l-0.594,3.169l0.193,3.172l1.992,4.556l0.193,2.18l-2.185,0.198l0.803,3.566l0.981,1.784
	l1.59,0.594h5.751l0.981-0.594l0.208-1.189v-1.189l0.386-0.594l2.185,0.396l3.968,1.587l1.977,0.395l2.184-0.395l3.359-1.784
	l5.558-1.389l7.133-4.556l3.567-1.586l7.728-1.189l2.169-0.792l3.567-1.984l1.991-0.594l-10.909,6.54l-1.188,0.992l-6.54,7.925
	v0.992l1.591-0.197l1.59-0.397l1.382-0.595l0.996-0.991l0.787,1.188l-0.402,0.397h-0.192l-0.402,0.595l2.586-0.398l3.567-2.574
	l1.783,0.792l0.387-0.792l0.801-0.792l0.387-0.794h0.802v1.188h-0.802v1.189l1.784-0.595l2.585-1.783h1.977l-2.184,2.378
	l-1.182,0.794l-0.594,0.792v0.792l-0.988,0.396l-0.402,0.397l-0.988,1.584l4.756-0.396l0.795-0.199l0.594,1.783l1.382,0.594
	l1.59-0.394l0.989-1.389l0.394,1.982l1.389,0.595l3.567-0.2v1.189l-9.311,1.983l-2.377-0.992h1.583l0.795-0.397l0.788-0.791
	l-7.528,0.595l-5.35,1.586l-1.389,0.196l-1.382-0.196l-0.795-0.596l-0.795-0.794l-1.189-0.594l-10.106,0.794l-3.166-1.586
	l1.583-6.342l-1.984-0.792l-1.382,1.386l-1.984,5.351l0.201,0.595l0.193,1.188l-0.193,1.19l-1.389,0.594l-1.189-0.198l-0.988-0.396
	H68.58l-1.189,0.794l0.401,1.783l-0.401,1.782l6.74,0.198l1.389,0.397l0.788,1.783l-0.394,0.595l-0.796,0.791l-0.594,1.98
	l0.201,1.189l0.594,1.389l1.189,1.98l-0.595,1.188l-0.989,3.567l2.973-0.992l1.976-3.169l1.591-3.964l1.583-2.973l3.173-0.988
	l6.138,3.961l2.779-0.988l0.193,1.188l0.595,0.988l0.788,0.795l0.996,0.594l4.755,0.989l1.591,1.586l0.594,3.765l0.386,1.188
	l1.591,1.984l0.594,1.979l-1.188,4.756l-0.595,1.188l-1.583,0.792l-6.539-1.98l-36.463,8.127l-0.595-0.202l-0.788-0.987h-0.401
	l-0.401,0.594l-0.193,0.596v0.594l-0.594,1.189l-0.401,0.987l-0.587,0.991l-0.795,0.596l8.516,2.377l3.775-0.195l1.976,0.394
	l3.374,3.37l1.382-0.792l1.391-1.783l1.582-0.993l1.189,0.595l10.106,7.925l5.35,6.938l1.784,3.167l1.188,4.561l1.784,4.356
	l0.401,2.975l-0.401,1.188l-0.988,0.2h-0.988l-0.803,0.395l-0.193,0.992l0.193,2.377v1.188l16.652,0.792l2.772-0.792l1.783-0.991
	l3.768-3.566v-1.189h-3.173v-0.594l0.401-0.594l0.394-0.595l-1.582-1.19l0.393-1.98l1.583-0.397l2.186,3.768l1.188-1.189
	l0.988-0.796l1.188-0.393l1.391-0.201v-0.987l-1.391-1.392l-1.582-2.377l-0.594-2.574l1.189-1.98l0.393,2.772l1.188,2.578
	l1.391,1.98l1.382,0.791l1.783,0.201l1.59,0.595l3.166,2.574l0.594-1.386l0.795-0.397h1.188l1.39-0.594l-0.401,1.585l-0.595,0.792
	l-0.988,0.198h-1.189l2.378,0.595l2.578-2.773l0.788-2.58l-0.988-3.365l2.973,0.596l2.972,1.98l2.177,2.377l0.401,1.784l1.382,0.991
	l0.795,0.396h0.988l-0.394,1.982l0.394,0.989l0.795,0.594l0.795,0.795l2.178,3.961l0.2,0.595l1.977,0.2l2.578-0.595h2.378
	l1.583,1.584l5.944-3.367l0.997,0.395l0.988,2.377l2.176,0.796l4.363-0.2l0.594,0.396l1.189,1.387l0.988,0.594l0.996,0.2l2.972-0.2
	l3.961,0.992h1.783l1.189-0.992l0.394,1.189l0.401,0.794l1.189,1.387l1.583,3.369l3.366,4.359l0.401,0.99l1.583,0.595l9.311-2.378
	v-0.992l-0.594-0.79l-0.787-0.795l-0.795-0.595l2.377-0.595l3.366-1.98l3.173-2.973l2.378-2.972v1.188l-1.389,1.189l-0.989,1.98
	l-1.389,3.767l-0.788,0.197l-1.985-0.397l-0.393,0.595v1.586l-0.201,0.792l-0.394,0.397l-0.996,0.197v1.188l4.756,0.397l1.983,0.792
	l1.783,1.189v0.99l-4.554-1.585l-1.985-0.197l-1.984,0.792l2.972,0.2l4.957,1.385l2.973,0.791l3.366,3.966l0.796,0.595l0.988-0.793
	l0.401-1.586l0.595-1.586l1.583-0.791l-1.189-1.785l-0.394-0.594l1.583-0.396l0.795-1.189l0.788-0.595l1.39,0.992l0.2-0.595v-0.197
	l0.193-0.2l0.595-0.196l-0.395-2.379l-0.794-1.783l-0.988-1.188l-1.583-0.594l1.783-0.398l1.583,0.795l1.189,0.395l0.988-1.783
	h0.795v1.188v3.567l0.595-0.395l1.389-0.596l0.595-0.396v1.586v1.188l0.193,0.989l0.401,0.794l-8.523,3.961l-1.389,4.757
	l-0.193,2.181l0.394,0.992l0.989,0.594l1.189,0.595l0.995,0.594l1.583,1.783l1.189,2.179l0.795,2.973l0.193,3.964l-0.193,2.182
	l-0.996,2.771l-0.193,1.784l0.193,1.585l1.39,4.756h0.795l0.788-0.789l2.377,0.594h1.59l-2.579-2.973l-1.984-3.965l-0.594-4.756
	l1.189-5.747l-0.595-0.394l-0.394-0.595l-0.594-0.201l0.988-1.782h1.189l1.39,0.795l1.188,0.987l-0.795,0.594l-0.788,0.398
	l1.583,0.993l1.784-0.201l3.567-1.98l0.795,0.79l0.594,0.202l1.583,0.196l-0.594-2.181l0.394-1.783l0.795-0.198l0.395,2.576
	l0.595,2.18l0.995,0.399l0.595-0.993l-0.595-2.181l1.583,1.39l1.188,1.784l0.99,0.987l0.994-0.595l1.189,1.784l0.395,0.594
	l0.393-0.594l0.202-0.394l0.2-1.188l-1.189-1.19l-1.189-1.783l-0.994-1.782l-0.395-1.588v-3.964l-0.201-1.189l-0.595-2.178
	l-0.192-1.389h0.787l0.401,2.182l0.788,1.585l1.189,0.792h1.59l-0.996,0.791l-0.4,1.189l0.207,1.783l0.387,1.985h0.803l0.386-0.796
	l0.4-0.198l1.592-0.197v1.191h-0.803v0.987l3.774-0.987l2.17-0.994l0.995-1.98l1.189-1.188l5.945-0.594l2.377-1.19l-1.59-0.991
	l3.567,0.595l1.396,0.792l1.383,1.983l-2.186-0.794l-2.378-0.395l5.752,3.565l0.595,0.989h1.382l0.596-0.393l0.593-0.795
	l-1.575-1.19l1.383-0.395l0.594-0.794l-0.193-0.988l-1.188-1.19v-0.991l2.571,3.37l-0.594,3.17l-4.355,6.142l0.788,1.188
	l-2.378,1.586l-3.165,0.197l-2.973-0.987l-1.783-2.183l-0.595,2.379l-0.209,0.992l-0.98-0.992l-0.803-0.196l-0.594,0.393
	l-0.595,0.992h-0.788l-1.59-3.369h-4.95l-1.977,1.39l1.977,0.791v0.791l-0.193,0.201l0.388,0.196l1.188,0.197l1.189,0.595l0.4,0.796
	l0.402,0.195l1.784,3.37l0.191,0.595l1.592,1.385l1.382,0.793l1.782,0.2l2.186-0.2l5.944-1.981l1.977-0.196l3.76,1.385l1.591-0.991
	l0.192-3.96l1.189,0.791l1.397,0.398h2.765l-0.194-1.189l-0.4-0.594l-0.595-0.399l-0.98-0.195l1.976-0.398l1.591,0.197l1.576-0.197
	l1.783-1.783l-0.789,2.182l-1.783,1.979l-1.976,1.188l-1.785,0.398l1.189,0.988l0.788-0.198l0.595-0.594l0.995-0.398h4.355
	l3.76-1.188l1.397-0.196l1.783,0.196l8.708,3.37h2.185l2.974-0.595l1.783,0.595l-2.378-0.195l-4.161,1.188l-7.134,0.394
	l-1.189,1.188l1.59,2.182l-0.994,3.169l1.381,0.992l1.783,0.197h0.209l0.787-1.386l0.788-0.595l1.396-0.197l1.189,0.596l0.98,0.79
	l0.995,0.399h0.997l2.17-0.596h1.188l1.189,0.196l1.188-0.196l1.188-0.796l1.59-2.176l0.997-1.588l0.594-1.385l0.386-0.993
	l0.208-0.195l0.388-0.201l0.801-0.394l1.19-0.201l0.787,0.396l0.401,0.399l0.193,0.195l0.193,0.198l0.595,0.397l0.995,0.397
	l1.382-0.201l1.59-0.594l1.977-1.189l0.997,0.201l0.4,0.394v0.396v0.993v0.791l0.193,0.594l0.4,0.792l0.789,0.397l0.787-0.195
	l0.595-0.595l0.995-1.392l0.595-1.782l0.788-1.387l1.396-0.991l1.189-0.394l1.382-1.188l1.189-2.183l1.382-7.329l0.802-1.984
	l0.387-0.792l0.208-0.79l-0.208-0.795v-0.596l0.208-0.791l0.193-0.594l-0.401-0.992l-0.193-0.596l0.788-2.972l3.566-1.981
	l1.59-1.386l0.402-0.2l0.788-0.197l3.566-0.594l3.968,0.197l2.378-1.584l8.114-2.973l3.567,1.387l2.185,0.398h1.188l13.673-4.362
	l3.166-1.783l1.991-1.583l0.595-1.189l0.788-1.188l0.786-0.992l0.997-0.992l2.377-1.783l11.697-5.547l1.783-1.783l1.188-0.792
	l3.358-0.2l2.378,0.2l1.188,0.395l0.997,0.596l0.786,1.388l0.402,1.189l1.589,1.188l1.576,0.594l11.295,1.981l0.996-4.953
	l0.995-1.188l0.595-0.992l0.596-1.386l0.979-4.559l0.595-1.784l1.189-2.775l0.803-2.574l1.188-5.748l0.787-2.378l0.401-1.189
	l0.595-0.987l1.575-2.181l0.997-0.993l1.188-0.79l1.188-0.596l1.382-0.196l3.97-0.201l1.188-0.196l1.188-0.397l0.996-0.595
	l0.787-0.596l0.193-0.195l0.208-0.792v-1.391L473.605,286.326z"/>
</svg>
