<?xml version="1.0" encoding="utf-8"?>
<!-- Generator: Adobe Illustrator 16.0.4, SVG Export Plug-In . SVG Version: 6.00 Build 0)  -->
<!DOCTYPE svg PUBLIC "-//W3C//DTD SVG 1.1//EN" "http://www.w3.org/Graphics/SVG/1.1/DTD/svg11.dtd">
<svg version="1.1" id="Calque_1" xmlns="http://www.w3.org/2000/svg" xmlns:xlink="http://www.w3.org/1999/xlink" x="0px" y="0px"
	 width="500px" height="500px" viewBox="0 0 500 500" enable-background="new 0 0 500 500" xml:space="preserve">
<polygon id="Corsica" fill="#FFFFFF" stroke="#010101" stroke-width="2" stroke-linecap="round" stroke-linejoin="round" points="
	325.979,124.594 325.979,132.284 325.979,132.936 325.315,133.611 324.639,134.288 324.639,135.615 325.315,136.292 
	325.979,136.943 326.981,136.943 327.319,137.294 327.645,139.623 328.321,140.951 328.321,142.304 327.319,144.308 
	328.985,145.635 329.648,147.313 329.987,149.317 331.327,151.321 332.654,152.648 338.003,154.978 337.339,151.321 
	336.662,149.643 333.656,142.629 339.005,150.97 341.009,155.654 341.672,160.338 341.347,175.368 342.011,183.383 344.353,188.719 
	343.351,192.05 342.349,195.732 342.011,199.74 341.672,204.75 342.674,209.759 346.356,219.779 347.02,225.114 345.68,257.177 
	347.02,263.188 346.356,265.191 346.018,269.876 345.68,271.88 344.353,274.209 339.343,278.894 337.001,282.225 334.333,288.588 
	320.97,307.625 318.302,310.631 316.962,312.96 316.962,321.977 315.296,339.687 316.962,357.371 316.623,376.082 316.298,377.084 
	314.958,377.761 312.954,379.414 311.288,381.769 310.286,384.098 312.954,384.098 312.29,388.782 311.288,391.437 309.61,392.79 
	307.606,392.79 305.94,392.79 305.276,394.117 306.278,398.125 303.599,396.798 300.931,396.121 297.925,396.121 295.921,396.446 
	296.259,398.802 294.255,401.131 293.253,403.46 295.921,405.139 302.271,402.458 305.94,402.133 307.606,404.137 306.942,407.819 
	305.276,410.825 302.597,413.154 298.927,413.831 297.261,415.158 295.921,417.839 293.917,420.168 290.573,420.845 
	291.249,422.497 291.575,424.176 291.249,426.18 290.573,427.858 292.915,428.86 293.253,430.864 292.577,432.868 290.573,434.521 
	291.913,436.524 288.907,437.878 283.56,441.208 280.229,441.886 280.229,443.538 281.894,445.216 282.558,447.22 281.894,448.898 
	280.229,450.552 280.229,452.229 282.558,451.228 285.563,448.548 287.905,446.895 287.242,450.902 285.563,455.235 
	283.897,458.918 282.558,460.922 279.552,462.575 276.884,461.924 272.213,457.565 269.207,456.237 263.195,455.235 
	258.511,453.231 260.515,446.544 261.517,445.893 263.195,445.216 260.189,442.536 255.505,440.532 252.499,438.202 255.18,434.521 
	255.18,433.193 252.838,433.87 247.164,438.202 246.162,436.524 246.487,435.874 246.826,435.874 246.826,435.522 247.164,434.521 
	245.16,435.197 244.483,435.874 243.481,436.524 242.154,434.521 240.15,432.868 235.141,431.515 230.456,430.513 227.45,431.189 
	225.446,429.862 223.781,428.184 222.115,426.856 217.77,425.854 217.105,424.853 216.768,423.499 215.766,422.497 214.1,422.172 
	212.422,422.172 210.756,421.847 209.09,420.845 211.758,419.166 211.758,417.487 209.416,416.485 208.088,415.835 206.084,415.835 
	203.404,415.158 201.074,414.156 200.072,413.154 201.074,408.145 200.398,406.466 197.393,405.139 198.732,401.808 
	200.072,396.798 202.076,393.115 205.408,394.794 215.428,390.109 217.105,388.431 218.107,385.1 220.111,383.096 222.779,381.769 
	225.121,379.088 220.775,378.763 208.752,375.406 204.08,375.08 199.396,374.404 197.066,371.749 198.732,366.739 194.061,366.739 
	186.045,369.745 181.699,370.07 182.037,369.068 183.039,366.739 180.359,367.064 178.355,366.389 176.352,365.387 174.021,364.735 
	176.352,363.733 181.699,362.731 184.367,361.379 185.707,359.049 186.709,356.369 186.371,354.039 184.367,352.712 
	184.367,351.033 188.713,351.033 192.383,349.706 198.732,345.698 197.73,343.344 196.391,341.69 194.387,340.688 192.057,340.338 
	198.395,338.334 200.072,337.006 199.396,336.33 198.732,334.677 198.068,333.324 197.393,333.324 199.734,329.667 200.072,329.667 
	200.736,328.314 202.402,326.311 202.74,324.657 202.076,324.657 200.072,322.979 199.07,320.649 198.068,318.971 196.729,318.295 
	194.725,317.645 191.055,317.969 184.367,321.651 180.359,322.979 172.344,323.305 169.012,324.307 166.006,326.311 
	164.666,322.979 167.008,318.646 166.006,314.963 160.658,308.627 170.014,307.95 173.684,306.271 176.352,301.613 174.021,299.935 
	175.688,296.929 179.357,294.248 183.703,292.921 184.705,292.244 189.715,289.59 190.717,289.59 191.055,286.232 190.053,284.58 
	187.047,282.225 183.703,274.886 182.363,272.882 180.359,272.205 175.023,273.559 174.021,272.882 172.344,269.551 
	169.012,267.195 164.666,266.545 160.658,266.545 161.66,264.189 161.998,263.188 160.658,261.86 158.992,261.185 157.314,260.858 
	155.648,261.185 157.652,260.858 158.992,259.856 161.998,257.853 161.998,255.849 156.65,255.849 156.65,254.171 158.992,253.169 
	159.656,250.839 158.992,248.159 156.65,247.157 158.316,244.151 156.65,242.823 154.309,241.821 152.98,240.819 153.645,238.49 
	155.648,237.813 160.658,238.14 161.998,237.488 163.664,236.486 165.33,235.484 173.02,233.806 175.688,232.804 177.691,231.126 
	178.693,230.475 179.695,230.8 180.033,230.475 180.359,228.471 177.354,226.467 177.027,225.791 170.014,222.459 169.676,221.457 
	169.012,219.779 168.01,218.777 165.33,221.106 164.328,220.781 163.664,219.779 163.326,218.101 164.328,217.099 170.014,213.441 
	165.668,210.085 161.66,210.436 154.309,213.441 155.648,211.763 154.309,209.434 153.645,206.753 153.645,203.748 154.309,201.067 
	155.648,202.42 157.652,202.42 159.318,201.418 160.658,199.74 163,201.067 163.664,199.74 164.002,197.736 164.666,196.058 
	165.668,194.73 166.006,193.729 167.008,192.727 173.02,191.725 174.686,190.046 175.023,187.391 175.023,184.385 177.027,181.028 
	178.029,179.024 177.027,178.022 174.686,177.697 174.348,177.021 174.686,176.019 176.352,169.356 178.693,166.676 
	182.037,164.998 185.707,163.996 184.705,161.666 185.707,155.98 184.367,153.325 184.367,151.321 185.707,152.323 186.371,152.323 
	186.371,152.648 187.047,154.978 190.053,153.325 192.057,153.976 194.061,155.98 196.064,156.982 199.07,155.98 201.4,153.325 
	203.078,149.968 204.08,146.312 202.74,144.308 209.754,143.957 222.115,137.619 243.481,132.936 249.493,129.93 250.17,124.92 
	260.515,113.247 262.519,111.895 266.864,110.893 271.536,110.893 273.54,111.569 275.219,111.569 285.238,114.249 289.245,116.578 
	290.573,117.906 291.913,119.584 292.915,121.588 294.581,126.598 295.921,126.598 302.597,114.9 305.603,107.235 303.599,101.549 
	305.276,96.865 304.274,92.206 301.595,87.848 298.263,83.84 303.599,76.826 303.599,74.497 302.271,71.816 302.271,69.812 
	303.272,67.157 304.274,65.479 308.946,60.795 308.282,59.468 307.944,58.466 308.282,57.464 308.946,55.46 306.942,53.13 
	305.603,49.123 305.276,44.438 306.278,41.107 309.284,39.103 317.3,39.103 320.631,37.425 323.312,41.107 324.978,42.76 
	328.646,44.764 328.646,46.768 326.981,48.771 326.643,51.452 327.645,54.458 329.987,57.138 328.985,62.147 332.654,85.844 
	332.329,93.534 325.979,117.906 326.317,120.912 "/>
</svg>
