<?xml version="1.0" encoding="utf-8"?>
<!-- Generator: Adobe Illustrator 16.0.4, SVG Export Plug-In . SVG Version: 6.00 Build 0)  -->
<!DOCTYPE svg PUBLIC "-//W3C//DTD SVG 1.1//EN" "http://www.w3.org/Graphics/SVG/1.1/DTD/svg11.dtd">
<svg version="1.1" id="Calque_1" xmlns="http://www.w3.org/2000/svg" xmlns:xlink="http://www.w3.org/1999/xlink" x="0px" y="0px"
	 width="500px" height="500px" viewBox="0 0 500 500" enable-background="new 0 0 500 500" xml:space="preserve">
<polygon fill="#FFFFFF" stroke="#010101" stroke-width="2" stroke-linecap="round" stroke-linejoin="round" points="105.489,93.999 
	104.318,91.447 103.311,90.083 102.631,88.552 102.808,85.323 102.631,82.942 102.631,82.772 101.12,83.109 99.787,82.772 
	94.413,79.709 94.413,79.709 95.256,79.88 95.256,79.88 95.256,79.54 95.08,77.667 94.578,75.286 94.073,75.116 94.413,73.244 
	94.917,72.225 95.761,71.372 95.761,71.372 96.263,70.693 97.434,69.67 97.434,69.67 99.612,67.972 101.965,66.952 101.965,66.952 
	101.965,65.933 101.297,64.735 100.794,63.208 99.107,56.746 98.101,56.234 97.094,56.404 95.256,57.254 93.91,56.571 94.073,53.85 
	95.923,47.729 96.426,45.008 96.93,43.646 97.936,42.282 100.114,40.414 100.114,40.414 101.12,39.395 101.297,37.689 
	100.794,36.669 99.612,35.649 98.276,34.801 97.434,34.626 96.263,35.142 96.263,35.142 96.088,35.991 96.263,37.181 95.761,37.689 
	95.583,37.864 93.747,37.014 91.229,31.23 89.216,29.359 87.203,28.168 84.006,24.594 82.168,23.742 79.978,23.912 73.938,26.637 
	71.76,26.637 70.087,25.784 68.401,24.594 66.386,23.575 62.359,23.063 58.168,23.4 56.822,23.912 56.822,23.912 56.155,24.765 
	54.481,27.828 53.979,29.017 53.802,29.525 53.639,29.525 53.298,29.866 53.135,29.699 52.971,29.699 52.971,29.699 52.631,30.719 
	52.631,30.719 49.272,27.486 48.44,21.361 48.44,14.216 47.597,8.263 45.924,5.371 44.074,3.502 42.061,2.479 39.882,1.971 
	33.667,1.971 32.332,1.122 33.339,-0.583 33.503,-1.94 32.835,-2.623 31.489,-3.134 30.142,-2.963 29.136,-2.282 28.128,-1.433 
	26.795,-0.409 22.592,1.289 20.25,1.456 18.565,0.948 14.374,-1.262 13.203,-2.282 11.693,-4.154 11.19,-5.855 11.013,-10.791 
	8.497,-19.465 7.667,-23.885 9,-26.439 7.994,-30.01 7.164,-31.541 5.815,-31.882 4.47,-32.049 3.802,-33.072 2.632,-35.964 
	1.285,-38.348 -0.388,-41.236 -1.899,-42.768 -4.415,-43.616 -12.143,-41.236 -17.177,-39.538 -19.354,-38.174 -19.354,-38.174 
	-21.203,-36.305 -24.046,-31.201 -24.046,-31.201 -25.232,-30.185 -26.741,-30.518 -27.245,-30.692 -34.959,-34.262 
	-36.633,-35.793 -37.136,-36.817 -38.481,-39.879 -38.986,-40.899 -42.673,-44.299 -43.353,-45.488 -43.516,-46.512 -44.02,-47.36 
	-45.366,-48.043 -46.197,-48.21 -48.046,-47.869 -48.89,-48.043 -50.225,-48.21 -50.903,-48.551 -51.408,-49.4 -52.238,-51.443 
	-52.741,-51.955 -53.924,-52.637 -54.088,-53.144 -54.088,-53.827 -53.244,-55.524 -53.244,-56.548 -55.094,-63.181 
	-54.592,-64.712 -52.414,-66.925 -52.414,-66.925 -51.735,-67.774 -52.073,-70.836 -53.584,-73.217 -57.108,-77.128 -57.951,-80.02 
	-58.958,-86.827 -60.291,-90.401 -60.468,-90.401 -61.802,-89.378 -65.666,-87.505 -73.556,-85.466 -79.258,-86.145 -80.1,-85.974 
	-81.107,-85.466 -97.718,-80.02 -113.148,-77.978 -116.345,-75.938 -118.018,-76.446 -136.477,-68.282 -139.498,-65.394 
	-142.18,-61.482 -143.859,-59.781 -145.704,-59.095 -147.72,-58.928 -148.559,-58.587 -150.907,-56.548 -150.907,-55.866 
	-150.572,-53.656 -149.062,-48.043 -148.389,-44.472 -149.062,-41.577 -150.069,-39.367 -152.083,-33.243 -152.585,-30.518 
	-152.585,-27.289 -151.58,-20.823 -151.075,-13.507 -150.572,-11.469 -148.056,-7.387 -151.075,-5.177 -151.41,1.122 -151.58,8.263 
	-153.256,13.538 -153.256,14.558 -148.056,18.807 -148.056,19.663 -149.566,19.322 -151.746,18.981 -153.76,23.063 -154.431,29.017 
	-154.601,33.781 -153.76,35.142 -149.566,37.181 -148.726,39.053 -148.056,40.751 -146.546,41.945 -144.699,42.624 -142.686,42.624 
	-142.686,43.813 -144.699,43.813 -144.196,45.008 -143.691,45.686 -143.022,45.857 -142.014,45.857 -142.014,46.876 
	-142.853,47.729 -143.859,47.729 -153.256,42.964 -156.614,43.477 -159.968,47.899 -161.98,56.063 -162.82,57.254 -163.994,58.276 
	-169.028,64.568 -170.875,66.1 -157.117,75.965 -141.175,92.805 -139.831,95.018 -138.49,100.968 -137.484,103.182 -135.47,106.585 
	-134.631,108.624 -134.291,109.647 -134.128,111.349 -134.967,112.369 -136.644,113.393 -137.484,114.412 -140.838,119.851 
	-141.342,121.723 -141.342,122.913 -140.334,123.087 -139.498,122.746 -138.49,122.405 -137.484,122.064 -136.644,122.234 
	-135.975,123.425 -136.477,124.785 -137.652,126.661 -138.657,127.503 -140.672,128.704 -141.175,129.546 -141.009,130.402 
	-140.503,131.254 -140.001,132.274 -140.001,135.159 -139.665,139.586 -139.329,141.116 -138.825,142.992 -138.49,148.094 
	-138.154,149.792 -137.484,150.812 -136.98,150.812 -136.308,150.648 -135.47,150.137 -134.468,149.792 -133.46,149.959 
	-132.78,151.49 -132.958,152.855 -133.46,154.553 -134.291,155.243 -134.793,155.568 -135.302,155.568 -135.47,155.917 
	-135.805,156.591 -136.477,158.632 -137.315,160.852 -137.818,162.717 -137.315,168.842 -134.631,179.556 -132.114,186.025 
	-131.447,188.409 -131.447,188.576 -131.61,188.74 -132.114,189.087 -132.958,189.254 -133.623,188.921 -133.963,188.74 
	-134.128,188.576 -135.134,186.881 -135.975,186.025 -136.98,185.515 -137.988,185.682 -138.996,186.192 -140.167,188.231 
	-140.334,188.576 -140.167,189.596 -139.665,191.472 -138.154,192.825 -137.988,193.845 -137.652,195.554 -136.98,196.577 
	-135.805,197.596 -134.631,197.927 -133.623,198.109 -130.604,198.109 -126.072,199.64 -123.217,200.146 -121.544,200.823 
	-118.183,199.969 -113.652,199.803 -111.815,199.458 -110.305,198.616 -106.277,195.554 -105.094,194.697 -103.583,194.19 
	-102.753,194.355 -102.075,195.046 -101.407,195.888 -100.059,196.906 -97.543,198.271 -96.21,198.271 -93.855,198.783 
	-87.652,201.501 -86.305,201.845 -84.959,201.679 -81.61,199.64 -79.925,199.128 -78.414,199.64 -61.639,208.99 -60.631,208.99 
	-58.958,208.312 -58.278,208.644 -57.775,209.333 -57.272,210.176 -56.442,211.541 -54.427,213.239 -50.225,211.195 
	-47.884,211.708 -46.197,213.579 -45.026,214.436 -44.02,214.436 -42.007,213.579 -41.163,213.928 -40.332,214.77 -39.83,215.277 
	-38.822,215.623 -37.816,215.623 -37.136,215.277 -36.633,214.77 -36.13,213.928 -35.123,213.072 -34.115,212.905 -33.109,213.072 
	-27.911,214.603 -20.36,213.239 -18.85,212.564 -17.844,212.905 -16.496,214.091 -15.667,214.091 -14.156,212.728 -12.81,212.048 
	-11.462,211.884 -9.952,212.048 -8.947,211.541 -6.769,210.009 -0.892,211.884 -0.061,212.905 0.946,214.091 2.292,217.499 
	2.456,218.851 2.292,220.379 1.789,221.402 1.625,222.259 1.625,222.933 1.952,224.131 2.632,225.155 16.387,237.566 
	17.558,237.911 19.068,237.055 19.91,236.889 20.578,237.566 20.917,238.42 21.421,240.629 21.421,242.324 21.584,243.347 
	22.429,244.878 25.952,247.429 27.463,248.118 28.809,248.45 31.652,247.941 33,244.711 34.006,242.835 34.849,241.649 
	40.89,235.524 41.558,234.341 42.061,232.811 42.4,231.787 43.571,230.768 45.244,229.565 46.427,227.528 47.937,225.829 
	48.945,225.155 49.611,224.465 50.115,223.442 50.115,222.092 49.611,221.402 48.768,220.895 47.937,220.728 46.932,220.728 
	43.733,221.068 42.903,220.728 42.061,220.216 41.897,219.538 41.72,219.196 41.72,218.34 41.897,217.666 42.061,216.809 
	43.406,215.79 44.238,215.11 45.082,213.928 45.924,212.397 46.087,211.033 46.087,210.009 45.747,207.97 45.584,206.946 
	45.584,206.09 45.747,205.249 46.251,204.56 46.754,203.885 48.102,203.377 49.108,203.377 53.135,204.052 54.304,203.885 
	55.149,203.544 56.155,202.865 56.998,201.845 57.502,200.481 57.326,199.64 56.998,199.128 55.312,198.109 54.645,197.419 
	53.979,196.577 53.475,195.721 52.631,195.376 51.789,195.376 50.958,195.212 50.618,194.534 50.278,193.681 50.115,192.658 
	49.775,186.192 49.611,185.168 49.272,183.983 48.265,181.776 48.102,180.758 49.951,179.226 53.298,177.513 61.352,175.141 
	67.394,174.287 68.074,174.12 68.401,173.434 68.401,172.412 68.237,171.389 68.237,170.546 68.904,169.694 70.087,169.015 
	72.428,169.015 73.61,169.182 74.616,169.694 77.297,171.736 78.305,171.903 79.312,171.736 80.318,170.713 81.489,170.546 
	82.168,170.713 83.841,171.903 84.849,172.245 85.692,171.903 86.359,171.226 86.698,169.861 87.025,168.842 87.203,165.104 
	86.359,162.895 85.012,162.205 85.515,161.019 86.02,160.163 86.862,159.488 88.713,159.142 88.208,157.448 86.523,154.386 
	85.854,153.196 85.854,151.832 86.523,150.467 88.208,148.77 88.713,147.917 88.536,146.386 88.208,145.032 88.033,143.834 
	88.536,142.303 88.875,141.116 88.536,139.75 88.033,138.733 87.705,137.71 87.203,135.67 86.523,133.461 86.195,132.441 
	87.025,131.254 87.869,130.565 88.875,130.402 90.889,130.402 91.896,129.89 93.067,129.034 94.413,126.487 95.42,125.126 
	96.426,124.277 97.271,123.937 98.101,123.254 99.612,121.381 103.135,118.152 103.978,117.129 104.318,115.769 104.481,113.727 
	103.813,112.028 102.303,110.497 101.965,109.477 102.631,104.206 103.311,102.5 104.821,99.949 105.651,97.906 105.827,97.061 
	105.827,95.7 "/>
<polygon id="Île-de-France" fill="#FFFFFF" stroke="#010101" stroke-width="2" stroke-linecap="round" stroke-linejoin="round" points="
	31.652,247.941 31.326,251.003 30.987,251.855 30.319,252.709 29.311,253.043 26.115,253.043 24.945,253.387 24.782,254.064 
	25.109,254.751 26.456,255.938 26.618,256.795 25.952,257.469 24.605,258.655 23.939,259.676 23.599,261.206 23.599,262.062 
	23.774,262.571 23.939,262.571 24.441,262.738 25.612,262.571 26.115,262.571 26.292,262.919 26.618,263.248 27.123,264.269 
	27.801,265.125 28.633,265.632 28.971,266.488 29.311,267.331 29.476,268.188 29.979,270.57 30.142,272.103 29.311,275.677 
	29.476,277.37 29.816,278.558 30.646,279.069 31.489,279.069 33.339,278.391 33.843,278.391 34.51,278.558 35.176,279.921 
	37.366,282.816 33.162,286.559 31.489,289.274 30.646,291.826 29.979,293.535 28.971,294.56 27.801,294.889 26.618,295.066 
	25.109,295.4 24.605,295.742 24.441,296.597 24.945,297.439 25.952,299.152 26.115,299.659 25.788,300.503 23.774,302.21 
	23.271,303.23 23.094,304.072 24.102,306.292 24.277,306.804 24.102,307.482 23.599,309.354 23.271,311.053 23.599,312.417 
	21.258,315.135 19.748,317.853 18.904,318.361 18.06,318.197 16.224,317.518 15.217,317.345 5.476,319.051 3.965,318.873 
	2.96,318.542 -1.734,318.197 -2.742,318.361 -3.584,318.709 -4.087,319.051 -4.918,319.729 -5.423,319.892 -10.292,319.729 
	-10.96,320.241 -11.3,320.748 -11.639,321.935 -11.803,323.137 -11.967,323.979 -12.47,324.835 -12.81,325.686 -13.15,326.706 
	-13.15,327.548 -13.15,328.57 -13.15,329.591 -12.81,330.61 -12.306,331.635 -11.803,332.485 -11.462,333.34 -11.639,334.362 
	-12.143,335.037 -12.645,335.893 -12.81,336.061 -13.652,338.1 -14.156,339.123 -15.326,340.306 -18.347,341.837 -19.518,342.526 
	-20.021,343.367 -20.525,344.224 -20.863,345.918 -21.028,347.796 -21.531,349.837 -31.271,353.244 -32.605,353.408 
	-34.115,353.062 -34.115,352.222 -33.789,351.201 -33.285,350.349 -33.612,349.671 -34.795,349.163 -37.312,349.492 
	-38.822,350.005 -39.83,350.855 -40.497,351.877 -41.502,352.9 -43.353,354.264 -44.687,354.593 -57.775,353.574 -59.461,353.752 
	-62.809,354.775 -64.154,354.775 -65.666,354.431 -66.508,353.752 -67.176,352.9 -67.34,352.044 -67.176,351.201 -66.673,350.349 
	-66.005,349.671 -65.163,349.671 -62.645,350.182 -62.306,350.005 -61.802,349.492 -61.639,348.817 -61.802,347.961 
	-62.481,346.774 -62.481,346.43 -62.481,346.1 -61.474,344.224 -61.136,343.367 -61.136,342.349 -61.802,341.162 -63.15,339.798 
	-68.523,336.061 -68.687,335.893 -68.849,335.381 -70.196,329.935 -70.7,328.57 -72.21,326.529 -75.896,327.218 -80.1,324.667 
	-81.107,324.835 -81.775,325.342 -82.44,326.361 -83.448,327.218 -85.964,327.893 -87.147,327.548 -87.652,326.873 -87.815,325.85 
	-88.318,324.835 -89.326,323.979 -90.496,322.954 -91.503,323.137 -92.182,323.645 -93.012,325.686 -93.517,326.529 -94.36,327.38 
	-97.718,328.912 -111.638,332.142 -113.148,331.117 -113.324,330.276 -113.324,329.423 -112.821,328.746 -111.978,327.893 
	-110.63,325.85 -110.63,324.997 -110.97,324.485 -112.821,323.467 -113.652,321.935 -114.156,320.073 -114.494,316.666 
	-115.339,315.135 -116.169,314.115 -117.012,313.441 -118.018,312.24 -118.183,311.053 -118.358,307.646 -119.025,306.968 
	-122.549,307.646 -125.067,306.804 -129.761,304.253 -131.27,302.89 -132.277,301.525 -133.12,299.479 -133.285,299.315 
	-133.285,298.296 -133.12,296.09 -133.12,295.233 -133.285,294.21 -133.46,293.027 -133.788,291.826 -134.793,290.296 
	-135.975,289.454 -137.652,288.434 -138.49,287.41 -138.825,286.391 -139.162,284.349 -139.665,282.983 -140.838,281.965 
	-145.704,278.391 -147.049,276.86 -147.886,275.328 -148.726,272.781 -149.566,271.925 -151.075,271.083 -151.243,270.393 
	-151.41,269.552 -151.075,268.528 -150.572,267.512 -149.062,265.632 -148.559,264.613 -148.389,263.427 -148.389,262.919 
	-148.559,262.571 -151.243,260.876 -151.913,260.023 -152.083,259.345 -152.249,257.813 -152.249,257.124 -152.249,256.448 
	-152.083,255.43 -151.58,253.387 -151.41,252.02 -151.41,250.669 -151.913,248.629 -152.585,247.262 -154.096,245.22 
	-159.297,234.672 -159.801,232.811 -159.968,231.954 -159.801,230.768 -159.801,229.748 -160.304,229.236 -161.144,228.891 
	-161.98,228.891 -162.82,228.547 -163.325,227.706 -163.325,226.852 -163.325,226.173 -162.988,224.81 -162.988,224.298 
	-162.988,223.442 -163.157,222.601 -163.994,220.379 -163.994,219.363 -162.988,218.521 -150.907,215.623 -147.049,213.417 
	-142.519,197.419 -139.665,191.472 -138.154,192.825 -137.988,193.845 -137.652,195.554 -136.98,196.577 -135.805,197.596 
	-134.631,197.927 -133.623,198.109 -130.604,198.109 -126.072,199.64 -123.217,200.146 -121.544,200.823 -118.183,199.969 
	-113.652,199.803 -111.815,199.458 -110.305,198.616 -106.277,195.554 -105.094,194.697 -103.583,194.19 -102.753,194.355 
	-102.075,195.046 -101.407,195.888 -100.059,196.906 -97.543,198.271 -96.21,198.271 -93.855,198.783 -87.652,201.501 
	-86.305,201.845 -84.959,201.679 -81.61,199.64 -79.925,199.128 -78.414,199.64 -61.639,208.99 -60.631,208.99 -58.958,208.312 
	-58.278,208.644 -57.775,209.333 -57.272,210.176 -56.442,211.541 -54.427,213.239 -50.225,211.195 -47.884,211.708 
	-46.197,213.579 -45.026,214.436 -44.02,214.436 -42.007,213.579 -41.163,213.928 -40.332,214.77 -39.83,215.277 -38.822,215.623 
	-37.816,215.623 -37.136,215.277 -36.633,214.77 -36.13,213.928 -35.123,213.072 -34.115,212.905 -33.109,213.072 -27.911,214.603 
	-20.36,213.239 -18.85,212.564 -17.844,212.905 -16.496,214.091 -15.667,214.091 -14.156,212.728 -12.81,212.048 -11.462,211.884 
	-9.952,212.048 -8.947,211.541 -6.769,210.009 -0.892,211.884 -0.061,212.905 0.946,214.091 2.292,217.499 2.456,218.851 
	2.292,220.379 1.789,221.402 1.625,222.259 1.625,222.933 1.952,224.131 2.632,225.155 16.387,237.566 17.558,237.911 
	19.068,237.055 19.91,236.889 20.578,237.566 20.917,238.42 21.421,240.629 21.421,242.324 21.584,243.347 22.429,244.878 
	25.952,247.429 27.463,248.118 28.809,248.45 "/>
<polygon fill="#FFFFFF" stroke="#010101" stroke-width="2" stroke-linecap="round" stroke-linejoin="round" points="
	384.868,441.019 384.701,440.163 384.035,438.976 383.191,437.612 377.993,431.654 376.815,430.979 375.81,430.812 374.805,430.979 
	373.967,430.979 373.123,430.468 372.621,429.448 372.456,428.262 372.621,427.573 372.958,426.894 374.468,424.687 
	374.973,423.668 375.477,422.648 375.81,421.626 375.979,420.773 375.979,419.749 375.979,418.73 375.639,415.5 375.138,413.629 
	374.127,412.261 372.621,410.729 359.027,402.743 358.361,401.891 357.857,401.034 357.688,398.661 355.169,398.316 
	347.449,392.359 345.438,390.497 344.096,389.642 341.074,388.455 340.069,387.602 339.062,386.578 337.22,383.86 335.369,381.822 
	334.199,381.133 333.192,380.966 332.517,381.476 332.015,382.329 331.006,384.027 330.505,385.048 329.668,385.727 
	328.491,386.416 327.312,386.745 325.805,386.923 323.958,386.923 322.953,386.578 322.116,386.234 313.722,380.803 
	310.036,379.271 305.165,379.601 303.49,380.29 302.315,381.311 301.307,381.989 299.969,382.329 297.612,382.329 296.103,381.644 
	294.764,380.457 293.084,379.946 292.076,379.271 291.742,378.582 291.742,376.717 291.742,375.863 291.238,374.678 
	290.232,373.657 288.221,372.29 283.689,371.104 282.18,371.438 281.001,371.782 280.336,372.456 279.159,373.822 277.479,376.371 
	276.643,377.228 274.296,378.76 273.117,379.946 272.444,380.619 271.438,380.966 270.769,380.457 270.769,379.778 271.104,377.903 
	271.104,376.883 270.935,376.031 270.433,375.52 269.764,375.353 269.263,375.863 268.586,376.538 267.076,379.946 266.743,380.619 
	265.568,381.644 263.723,382.152 264.391,384.194 264.227,384.884 263.723,385.727 262.881,386.07 261.875,386.234 260.705,386.745 
	260.028,387.766 258.017,391.172 257.011,392.192 246.77,399.504 245.764,401.212 245.26,402.565 246.105,404.954 246.27,406.646 
	245.6,409.38 245.432,411.074 245.432,412.442 245.6,413.792 245.764,415.158 245.432,416.854 244.595,418.055 243.589,418.73 
	234.358,421.958 233.349,422.138 232.343,421.958 231.337,421.626 226.134,418.562 224.458,418.386 222.947,419.242 
	220.595,419.587 219.589,419.587 218.418,420.094 217.744,420.936 217.071,421.792 214.05,429.28 213.547,430.301 213.214,430.812 
	212.542,431.319 211.704,431.143 211.201,429.956 210.696,429.28 209.69,429.104 209.018,429.611 206.167,431.831 205.329,431.999 
	204.487,431.654 203.818,430.124 203.649,428.08 203.316,427.573 202.812,427.061 201.636,426.73 199.29,425.199 197.609,423.668 
	196.602,422.648 196.269,421.626 196.269,420.605 195.929,419.917 195.261,419.242 194.085,419.404 193.412,420.094 
	192.908,420.773 192.575,421.626 191.902,422.468 191.234,422.979 190.392,423.324 189.384,423.49 188.549,423.324 187.541,422.979 
	185.697,421.626 184.69,420.605 183.684,419.242 182.174,416.687 181.167,415.323 179.99,415.158 179.486,415.668 178.31,417.198 
	177.808,417.543 177.14,417.874 176.297,417.71 175.29,416.854 174.452,415.158 174.119,413.792 173.616,409.542 173.616,408.689 
	173.616,408.523 172.943,407.337 171.936,406.316 171.433,405.298 171.603,404.098 172.268,403.422 173.112,403.076 175.126,402.91 
	175.962,402.743 176.637,402.235 176.969,401.379 176.969,400.36 176.637,399.504 174.956,395.42 172.773,391.851 167.909,385.393 
	166.901,385.215 166.234,385.56 165.556,387.091 164.888,387.602 164.221,387.435 163.378,386.923 162.875,385.56 163.038,384.538 
	163.378,383.52 164.385,381.989 164.549,381.133 164.549,380.619 164.221,379.946 163.215,379.09 159.854,377.903 158.847,377.395 
	158.508,376.209 159.352,374.499 159.187,373.657 158.181,372.968 152.139,371.615 148.943,369.229 146.263,370.926 
	145.257,371.104 143.581,371.271 140.562,370.25 139.215,370.25 137.87,370.926 136.031,372.801 135.528,373.987 135.528,375.186 
	135.691,376.209 135.188,376.883 133.841,377.559 113.202,380.29 109.515,383.52 108.345,383.52 107.502,382.842 106.331,381.989 
	104.646,379.778 103.311,377.05 102.808,376.371 102.303,376.717 102.127,377.395 102.127,378.248 102.127,379.271 102.127,380.112 
	101.8,380.803 101.297,381.311 100.617,380.966 99.612,379.946 98.604,379.271 97.434,379.09 96.426,379.601 95.761,380.29 
	95.42,381.133 94.917,381.822 94.073,382.152 93.067,382.329 91.054,382.329 89.216,381.644 88.373,381.476 87.53,381.644 
	86.195,383.175 85.352,383.682 84.509,383.682 83.679,383.52 82.168,382.663 81.666,382.497 80.821,382.497 77.134,382.842 
	74.616,382.497 73.773,381.989 73.108,381.311 72.603,379.946 72.603,378.926 72.768,375.863 72.428,375.007 72.101,374.499 
	70.917,374.334 69.079,375.007 68.237,375.007 66.223,373.987 65.555,373.312 65.38,372.634 65.555,372.29 66.061,371.782 
	67.568,371.438 68.237,371.104 68.237,370.25 67.733,369.229 61.026,357.327 59.339,355.104 58.005,353.752 57.502,352.733 
	57.163,351.535 56.822,350.512 56.155,349.492 54.645,348.817 53.802,349.163 53.298,349.837 53.135,350.512 52.794,351.201 
	50.958,351.712 49.611,351.535 48.102,350.349 45.082,347.796 41.558,346.1 41.558,345.08 42.061,344.224 43.911,342.526 
	44.414,341.67 44.577,340.817 44.577,339.975 44.074,337.755 43.911,337.079 44.074,335.893 43.911,334.87 43.23,333.506 
	42.224,331.467 35.856,323.137 34.673,321.771 33,320.403 29.979,318.709 28.468,318.542 26.795,319.051 26.115,318.542 
	25.788,317.011 25.612,315.812 25.285,313.771 23.599,312.417 21.258,315.135 19.748,317.853 18.904,318.361 18.06,318.197 
	16.224,317.518 15.217,317.345 5.476,319.051 3.965,318.873 2.96,318.542 -1.734,318.197 -2.742,318.361 -3.584,318.709 
	-4.087,319.051 -4.918,319.729 -5.423,319.892 -10.292,319.729 -10.96,320.241 -11.3,320.748 -11.639,321.935 -11.803,323.137 
	-11.967,323.979 -12.47,324.835 -12.81,325.686 -13.15,326.706 -13.15,327.548 -13.15,328.57 -13.15,329.591 -12.81,330.61 
	-12.306,331.635 -11.803,332.485 -11.462,333.34 -11.639,334.362 -12.143,335.037 -12.645,335.893 -12.81,336.061 -13.652,338.1 
	-14.156,339.123 -15.326,340.306 -18.347,341.837 -19.518,342.526 -20.021,343.367 -20.525,344.224 -20.863,345.918 
	-21.028,347.796 -21.531,349.837 -20.198,349.837 -18.509,350.005 -14.823,351.023 -13.652,351.877 -12.81,352.388 -12.143,353.244 
	-11.803,354.264 -9.952,361.408 -9.287,362.596 -8.441,363.615 -5.423,366.002 -3.912,367.696 -3.584,368.719 -3.41,369.738 
	-3.082,372.29 -3.584,374.166 -5.423,378.582 -6.266,379.946 -7.108,380.619 -9.122,381.822 -10.129,382.663 -11.639,384.538 
	-12.306,385.393 -13.15,385.727 -14.483,385.56 -14.823,385.904 -15.164,386.923 -14.658,390.66 -14.321,392.028 -13.477,393.723 
	-13.15,394.579 -13.652,395.766 -14.156,396.622 -14.483,397.298 -14.658,398.148 -14.321,399.173 -14.321,400.192 -14.321,401.212 
	-15.164,402.565 -15.994,403.254 -19.19,404.441 -22.211,406.484 -23.216,406.825 -24.046,406.825 -25.897,406.646 -27.748,406.992 
	-28.756,407.337 -29.421,407.849 -30.089,408.523 -30.264,408.867 -30.592,410.221 -30.592,411.586 -30.429,412.772 
	-30.089,413.629 -29.081,414.303 -28.251,414.303 -27.245,414.648 -26.402,415.323 -23.722,417.874 -22.538,419.075 
	-21.203,421.792 -20.7,423.324 -20.7,424.687 -21.706,426.387 -21.531,427.573 -21.028,428.936 -18.185,432.673 -17.34,435.062 
	-19.354,435.736 -23.042,435.736 -24.046,436.08 -27.911,438.287 -27.911,438.976 -28.251,439.487 -25.734,442.713 -24.728,444.757 
	-23.884,447.308 -23.216,448.494 -21.531,450.714 -21.028,451.557 -20.863,452.245 -20.863,453.266 -21.531,457.347 
	-21.871,457.857 -22.374,459.213 -22.714,460.231 -22.876,460.743 -23.216,461.43 -24.224,463.639 -25.395,465.169 -26.237,467.046 
	-26.402,467.554 -26.402,468.064 -26.237,468.906 -25.557,470.107 -25.055,470.783 -24.728,471.129 -24.224,471.457 
	-23.884,471.802 -22.876,472.147 -22.538,472.313 -22.211,472.658 -19.693,476.051 -19.015,476.739 -17.504,477.761 -17,478.271 
	-16.674,479.113 -16.334,480.312 -15.326,485.417 -15.164,485.928 -14.483,487.456 -13.15,491.54 -11.967,495.789 -11.803,496.299 
	-11.135,498.85 -11.135,499.871 -11.135,501.059 -11.3,503.275 -11.462,504.462 -11.3,505.484 -10.797,506.504 -10.458,507.018 
	-8.619,508.711 -8.279,509.055 -7.938,509.399 -7.776,509.911 -7.611,512.63 -7.611,516.199 -7.271,517.898 -7.108,518.918 
	-7.108,520.118 -7.436,521.649 -8.116,524.876 -8.947,527.263 -9.122,527.938 -9.122,528.612 -8.947,529.813 -8.782,530.488 
	-7.611,532.697 -7.611,533.206 -7.436,533.718 -7.271,534.737 -7.611,535.76 -8.279,537.288 -10.458,541.552 -10.96,542.737 
	-11.135,543.082 -11.462,546.145 -11.639,547.495 -11.462,548.184 -11.3,548.695 -11.135,549.208 -10.797,550.05 -9.449,551.759 
	-7.611,553.451 -5.763,554.308 -4.918,554.983 -4.592,555.151 -3.912,555.151 -3.082,554.82 -1.899,554.983 -0.224,555.495 
	0.946,556.352 3.463,559.577 4.306,560.251 5.313,560.764 6.319,560.764 10.183,558.902 11.518,558.557 13.028,558.557 
	15.72,559.07 17.23,559.744 19.243,560.941 20.075,561.107 21.081,560.941 22.088,560.089 23.094,558.214 23.774,557.538 
	24.782,557.371 27.298,558.214 27.801,558.902 28.468,560.764 29.136,561.62 29.639,562.474 29.639,563.496 29.639,564.338 
	29.639,565.19 29.979,565.869 30.822,566.047 32.157,565.869 33.162,565.536 37.189,562.808 38.537,562.295 39.544,561.62 
	39.882,560.089 39.882,559.07 40.209,558.046 41.393,557.371 42.224,556.682 42.728,555.495 42.728,554.308 42.903,553.451 
	43.068,552.944 45.747,553.451 48.102,557.88 48.44,558.725 48.768,560.251 48.945,560.941 50.115,562.295 50.453,562.64 
	51.46,564.171 51.789,564.338 52.291,564.683 52.794,565.027 53.135,565.869 53.639,567.4 55.312,569.952 56.495,570.459 
	56.822,570.971 57.163,571.659 57.326,574.033 57.163,577.785 57.163,578.293 56.658,579.315 56.658,579.825 56.822,580.334 
	57.666,580.847 59.176,581.355 59.339,581.521 60.346,582.378 60.686,582.541 61.692,582.886 62.197,583.053 62.536,583.397 
	62.7,583.729 63.04,584.074 63.542,584.24 64.877,584.074 65.38,584.074 65.883,584.24 66.386,584.585 67.394,585.949 
	68.739,586.79 68.904,587.134 69.406,587.646 69.747,587.99 70.087,588.322 72.768,589.012 75.787,589.519 76.632,589.853 
	77.802,590.709 79.148,591.383 79.312,591.562 79.65,591.893 79.815,592.581 79.978,593.605 79.978,594.624 80.155,595.3 
	80.318,595.811 80.482,596.156 80.821,596.83 80.821,597.509 80.658,598.197 79.815,602.1 79.815,602.956 79.815,603.812 
	79.978,604.142 80.318,604.485 80.482,604.997 80.658,605.505 80.482,606.018 80.482,606.87 80.482,607.548 80.482,608.056 
	80.658,608.568 80.986,609.079 81.326,609.588 81.666,609.933 81.828,610.1 81.991,610.444 81.991,610.956 81.828,611.285 
	81.828,611.797 80.658,612.651 79.65,613.673 70.917,618.775 71.76,620.65 71.925,622.183 72.101,622.349 72.101,622.513 
	71.76,625.919 71.76,626.775 71.925,627.616 72.603,628.307 73.434,628.637 75.625,629.327 76.632,629.839 79.148,632.045 
	79.815,632.552 80.986,632.896 82.496,632.72 87.869,630.513 89.039,630.346 90.727,630.68 94.753,632.045 95.583,632.045 
	96.591,632.045 99.107,631.021 100.29,630.857 104.821,632.045 107.842,633.23 108.672,633.23 109.678,633.23 110.686,633.063 
	111.869,632.72 113.378,632.045 115.895,630.001 118.74,626.086 119.243,624.898 119.923,621.838 120.589,618.43 120.753,617.757 
	121.094,616.9 121.597,616.391 122.439,616.225 126.127,617.919 129.814,618.941 131.665,618.775 132.835,618.264 133.515,617.409 
	134.181,617.077 135.188,617.077 136.194,618.264 136.861,619.286 137.705,620.306 138.712,620.65 140.058,620.65 140.888,619.96 
	141.393,619.286 141.568,618.264 141.568,617.409 141.733,616.568 142.236,615.879 143.242,615.545 145.759,616.568 
	146.602,617.077 146.765,618.264 146.602,619.286 146.602,620.14 146.93,620.816 148.943,622.183 149.445,622.856 149.623,624.043 
	149.445,626.086 149.623,626.938 150.454,628.982 151.134,631.021 152.969,632.72 158.508,633.408 158.344,632.388 158.181,632.045 
	158.181,631.188 158.344,630.513 158.847,628.982 160.194,622.349 160.521,621.492 165.731,610.1 165.896,609.588 165.896,609.079 
	165.896,608.568 165.896,607.548 165.896,607.037 166.059,606.528 166.234,606.018 167.066,604.831 168.243,601.935 
	168.582,600.748 168.915,599.548 169.589,594.79 169.589,594.113 169.752,593.605 170.76,591.051 170.928,590.541 171.603,589.012 
	171.766,588.5 171.936,587.134 171.936,586.968 172.268,586.625 172.773,586.278 174.119,585.949 175.459,585.949 176.8,586.46 
	180.493,588.155 182.003,588.5 184.187,588.322 190.059,585.949 192.908,585.604 193.916,585.949 195.092,586.46 196.771,587.99 
	198.615,590.03 201.133,591.729 207.847,593.605 207.847,598.527 208.853,600.237 211.201,600.912 212.037,601.424 213.044,602.61 
	213.384,603.812 213.547,604.997 214.05,606.87 214.895,608.056 215.73,608.912 217.744,609.425 219.084,609.933 220.261,611.976 
	221.099,612.304 223.112,612.651 223.615,613.328 223.615,614.017 223.453,615.038 223.283,616.057 223.112,617.409 
	223.112,618.775 223.615,619.632 224.458,620.14 226.974,620.981 227.479,620.816 227.812,620.473 228.145,620.14 228.649,619.449 
	230.664,618.607 231.166,618.264 231.506,617.919 232.343,616.732 232.675,616.391 233.016,616.057 233.349,615.879 
	234.358,615.879 234.86,615.713 235.192,615.367 235.533,615.038 235.697,613.837 236.037,613.508 236.37,613.16 237.042,612.651 
	237.375,612.304 238.212,611.119 238.553,610.774 240.229,609.244 240.568,609.588 245.099,613.673 246.105,615.2 246.438,616.391 
	246.27,617.409 246.606,618.607 247.444,619.119 248.281,619.449 258.689,619.96 260.865,619.794 261.875,619.449 262.717,618.941 
	266.07,615.879 266.743,615.2 267.247,614.348 267.913,613.673 268.586,612.994 269.263,612.651 269.595,612.142 270.769,609.756 
	271.104,609.079 274.459,605.672 275.133,604.319 275.806,603.3 279.832,598.872 279.327,598.527 280.497,597.509 280.669,596.484 
	280.497,595.645 280.497,594.624 280.336,594.113 280.164,593.605 279.832,592.915 279.832,592.074 280.336,591.217 281.342,590.03 
	284.695,584.24 288.221,579.99 285.874,577.273 285.533,575.396 286.879,573.699 299.797,561.62 306.675,557.88 307.52,557.026 
	310.036,554.131 313.217,552.433 314.396,551.759 315.401,550.227 315.737,549.208 315.737,546.654 315.068,545.963 
	314.566,545.288 314.227,544.432 314.396,543.758 315.906,539.163 316.578,537.8 316.743,537.47 317.083,536.613 317.247,534.569 
	316.911,533.044 315.737,530.488 315.233,529.302 316.743,524.2 321.273,521.469 331.683,518.243 338.053,513.303 340.24,510.078 
	339.23,507.359 340.401,505.14 341.412,504.121 343.763,503.275 344.096,502.422 344.428,502.255 345.938,501.403 345.777,499.015 
	348.626,497.996 354.667,492.382 355.001,492.05 356.851,488.986 359.533,486.092 366.076,481.333 365.742,477.761 366.248,474.698 
	368.09,472.823 368.932,472.823 369.436,472.481 370.946,470.616 371.952,470.107 372.958,469.763 373.795,469.251 374.632,467.554 
	373.628,466.189 372.115,464.825 370.605,463.639 368.932,464.491 357.517,465.679 358.021,463.801 359.199,461.596 360.537,459.72 
	363.054,458.188 363.226,455.472 365.742,454.963 367.252,453.943 368.762,452.758 369.436,451.557 368.932,449.857 
	367.925,447.818 367.758,446.287 369.436,445.775 370.441,445.102 371.278,444.757 372.115,445.102 372.958,445.775 375.477,446.12 
	380.343,445.269 382.524,445.775 383.863,446.455 384.035,446.455 384.369,444.757 384.868,443.569 384.868,442.88 384.868,442.038 
	"/>
<polygon fill="#FFFFFF" stroke="#010101" stroke-width="2" stroke-linecap="round" stroke-linejoin="round" points="
	484.542,230.768 475.149,228.724 459.877,220.561 458.195,220.379 452.659,220.895 444.774,218.521 443.6,218.851 441.421,220.049 
	440.246,220.379 439.237,220.216 437.225,219.538 436.216,219.363 435.043,219.538 433.871,220.049 432.694,220.379 
	432.361,220.379 431.353,220.049 430.51,219.363 429.501,217.321 428.836,216.479 426.652,215.277 422.455,214.603 420.443,213.239 
	419.102,211.708 416.917,208.134 415.578,206.602 415.578,206.602 415.748,206.09 416.08,205.761 416.757,205.416 416.08,203.209 
	414.401,202.521 410.209,202.186 409.71,200.66 407.858,200.481 405.679,201.17 404,202.012 403.666,202.865 402.995,204.909 
	402.49,205.761 401.652,206.09 399.802,206.439 398.796,206.602 398.292,207.458 397.285,209.5 396.619,210.176 396.114,210.009 
	393.427,208.823 385.206,208.644 383.695,208.134 382.185,207.458 378.498,204.741 377.993,204.56 377.148,205.416 377.148,205.416 
	377.148,206.272 377.488,207.113 377.488,207.113 377.32,207.803 374.468,209.665 372.285,207.97 371.111,203.885 371.111,203.885 
	371.278,198.616 369.097,198.616 363.054,195.212 362.05,195.046 359.199,195.212 355.341,194.355 354.335,194.534 353.659,196.577 
	354.496,199.128 354.837,201.501 353.157,203.718 351.979,204.052 348.122,202.701 343.929,202.521 342.756,202.012 
	341.579,199.969 341.579,199.969 341.747,198.271 342.252,196.229 342.252,196.229 341.747,194.023 341.246,194.023 
	340.069,194.864 339.564,194.864 339.396,194.355 339.062,193.171 339.062,192.825 338.729,192.15 337.885,189.429 337.553,189.087 
	336.211,188.576 335.709,188.064 335.537,187.557 335.871,186.025 335.709,185.351 329.163,179.045 327.652,177.183 
	326.979,175.475 327.484,174.12 329.328,173.943 329.668,172.757 329.668,172.757 329.328,171.903 324.635,166.798 323.958,165.78 
	324.131,165.78 324.131,165.78 324.131,164.937 323.958,163.737 323.286,162.382 321.614,160.852 312.885,156.424 311.707,156.259 
	311.042,156.424 309.19,157.789 308.186,157.957 307.349,157.957 307.349,157.957 305.337,157.615 302.817,156.259 298.289,152.855 
	298.117,152.688 295.437,151.668 292.749,151.324 287.212,151.832 287.212,151.999 287.885,153.196 287.885,153.363 285.029,153.53 
	284.362,153.875 284.362,153.875 283.858,154.726 283.858,155.75 283.689,156.424 283.689,156.424 282.513,156.937 282.513,156.937 
	281.676,158.301 280.164,158.979 271.939,159.488 270.433,159.999 269.091,155.75 267.247,153.875 261.037,152.342 258.689,151.156 
	257.011,149.626 253.99,145.543 253.99,145.543 252.812,145.199 250.797,144.012 249.792,143.834 248.622,144.342 248.622,144.342 
	247.444,146.055 247.444,146.055 246.27,146.563 244.255,146.222 242.079,145.199 239.895,144.69 237.547,145.874 237.547,145.874 
	236.37,147.404 236.202,148.606 235.865,149.117 235.865,149.117 234.358,149.28 233.681,149.117 230.664,147.753 228.817,148.428 
	226.473,150.467 223.955,151.999 221.772,151.324 221.27,149.959 221.27,148.77 221.602,147.238 221.602,145.71 221.27,144.342 
	216.568,135.849 215.561,134.992 214.895,134.139 211.875,133.117 210.696,132.441 210.194,132.274 210.194,132.441 209.86,132.786 
	209.356,133.627 208.853,134.317 208.853,134.317 208.181,134.481 206.67,134.139 206.167,133.627 205.833,132.274 206.167,130.054 
	207.002,129.546 207.002,129.546 207.342,129.034 206.67,126.829 204.826,124.444 202.812,122.576 200.8,122.576 196.431,123.766 
	194.255,123.087 192.405,121.723 191.064,120.362 187.038,114.412 185.86,113.218 182.337,112.199 180.493,111.179 176.969,107.604 
	175.126,106.585 174.956,106.585 173.112,106.756 168.915,108.116 166.739,108.624 164.221,108.116 163.378,107.093 163.378,101.31 
	163.215,100.46 162.208,98.93 162.032,98.08 162.208,97.231 163.038,96.208 163.378,95.359 163.88,93.657 164.385,92.297 
	164.725,91.106 164.549,89.063 163.038,86.346 158.508,84.474 157.174,82.261 157.501,79.88 161.2,70.525 161.365,68.821 
	161.2,67.631 161.365,66.267 163.038,62.188 163.215,62.188 163.718,62.018 164.725,63.208 164.725,63.208 165.051,60.658 
	165.556,57.424 165.556,54.706 164.725,53.683 161.705,54.191 160.698,53.85 160.194,51.47 157.676,52.66 157.676,52.66 
	147.27,63.208 146.765,64.402 146.602,65.933 146.765,66.781 147.105,67.631 147.27,68.654 146.427,73.414 145.759,75.795 
	144.917,77.667 144.917,77.667 143.909,78.349 139.883,79.028 126.466,85.661 123.61,86.172 122.942,86.001 108.507,81.919 
	102.631,82.772 102.631,82.942 102.808,85.323 102.631,88.552 103.311,90.083 104.318,91.447 105.489,93.999 105.827,95.7 
	105.827,97.061 105.651,97.906 104.821,99.949 103.311,102.5 102.631,104.206 101.965,109.477 102.303,110.497 103.813,112.028 
	104.481,113.727 104.318,115.769 103.978,117.129 103.135,118.152 99.612,121.381 98.101,123.254 97.271,123.937 96.426,124.277 
	95.42,125.126 94.413,126.487 93.067,129.034 91.896,129.89 90.889,130.402 88.875,130.402 87.869,130.565 87.025,131.254 
	86.195,132.441 86.523,133.461 87.203,135.67 87.705,137.71 88.033,138.733 88.536,139.75 88.875,141.116 88.536,142.303 
	88.033,143.834 88.208,145.032 88.536,146.386 88.713,147.917 88.208,148.77 86.523,150.467 85.854,151.832 85.854,153.196 
	86.523,154.386 88.208,157.448 88.713,159.142 86.862,159.488 86.02,160.163 85.515,161.019 85.012,162.205 86.359,162.895 
	87.203,165.104 87.025,168.842 86.698,169.861 86.359,171.226 85.692,171.903 84.849,172.245 83.841,171.903 82.168,170.713 
	81.489,170.546 80.318,170.713 79.312,171.736 78.305,171.903 77.297,171.736 74.616,169.694 73.61,169.182 72.428,169.015 
	70.087,169.015 68.904,169.694 68.237,170.546 68.237,171.389 68.401,172.412 68.401,173.434 68.074,174.12 67.394,174.287 
	61.352,175.141 53.298,177.513 49.951,179.226 48.102,180.758 48.265,181.776 49.272,183.983 49.611,185.168 49.775,186.192 
	50.115,192.658 50.278,193.681 50.618,194.534 50.958,195.212 51.789,195.376 52.631,195.376 53.475,195.721 53.979,196.577 
	54.645,197.419 55.312,198.109 56.998,199.128 57.326,199.64 57.502,200.481 56.998,201.845 56.155,202.865 55.149,203.544 
	54.304,203.885 53.135,204.052 49.108,203.377 48.102,203.377 46.754,203.885 46.251,204.56 45.747,205.249 45.584,206.09 
	45.584,206.946 45.747,207.97 46.087,210.009 46.087,211.033 45.924,212.397 45.082,213.928 44.238,215.11 43.406,215.79 
	42.061,216.809 41.897,217.666 41.72,218.34 41.72,219.196 41.897,219.538 42.061,220.216 42.903,220.728 43.733,221.068 
	46.932,220.728 47.937,220.728 48.768,220.895 49.611,221.402 50.115,222.092 50.115,223.442 49.611,224.465 48.945,225.155 
	47.937,225.829 46.427,227.528 45.244,229.565 43.571,230.768 42.4,231.787 42.061,232.811 41.558,234.341 40.89,235.524 
	34.849,241.649 34.006,242.835 33,244.711 31.652,247.941 31.326,251.003 30.987,251.855 30.319,252.709 29.311,253.043 
	26.115,253.043 24.945,253.387 24.782,254.064 25.109,254.751 26.456,255.938 26.618,256.795 25.952,257.469 24.605,258.655 
	23.939,259.676 23.599,261.206 23.599,262.062 23.774,262.571 23.939,262.571 24.441,262.738 25.612,262.571 26.115,262.571 
	26.292,262.919 26.618,263.248 27.123,264.269 27.801,265.125 28.633,265.632 28.971,266.488 29.311,267.331 29.476,268.188 
	29.979,270.57 30.142,272.103 29.311,275.677 29.476,277.37 29.816,278.558 30.646,279.069 31.489,279.069 33.339,278.391 
	33.843,278.391 34.51,278.558 35.176,279.921 37.366,282.816 33.162,286.559 31.489,289.274 30.646,291.826 29.979,293.535 
	28.971,294.56 27.801,294.889 26.618,295.066 25.109,295.4 24.605,295.742 24.441,296.597 24.945,297.439 25.952,299.152 
	26.115,299.659 25.788,300.503 23.774,302.21 23.271,303.23 23.094,304.072 24.102,306.292 24.277,306.804 24.102,307.482 
	23.599,309.354 23.271,311.053 23.599,312.417 25.285,313.771 25.612,315.812 25.788,317.011 26.115,318.542 26.795,319.051 
	28.468,318.542 29.979,318.709 33,320.403 34.673,321.771 35.856,323.137 42.224,331.467 43.23,333.506 43.911,334.87 
	44.074,335.893 43.911,337.079 44.074,337.755 44.577,339.975 44.577,340.817 44.414,341.67 43.911,342.526 42.061,344.224 
	41.558,345.08 41.558,346.1 45.082,347.796 48.102,350.349 49.611,351.535 50.958,351.712 52.794,351.201 53.135,350.512 
	53.298,349.837 53.802,349.163 54.645,348.817 56.155,349.492 56.822,350.512 57.163,351.535 57.502,352.733 58.005,353.752 
	59.339,355.104 61.026,357.327 67.733,369.229 68.237,370.25 68.237,371.104 67.568,371.438 66.061,371.782 65.555,372.29 
	65.38,372.634 65.555,373.312 66.223,373.987 68.237,375.007 69.079,375.007 70.917,374.334 72.101,374.499 72.428,375.007 
	72.768,375.863 72.603,378.926 72.603,379.946 73.108,381.311 73.773,381.989 74.616,382.497 77.134,382.842 80.821,382.497 
	81.666,382.497 82.168,382.663 83.679,383.52 84.509,383.682 85.352,383.682 86.195,383.175 87.53,381.644 88.373,381.476 
	89.216,381.644 91.054,382.329 93.067,382.329 94.073,382.152 94.917,381.822 95.42,381.133 95.761,380.29 96.426,379.601 
	97.434,379.09 98.604,379.271 99.612,379.946 100.617,380.966 101.297,381.311 101.8,380.803 102.127,380.112 102.127,379.271 
	102.127,378.248 102.127,377.395 102.303,376.717 102.808,376.371 103.311,377.05 104.646,379.778 106.331,381.989 107.502,382.842 
	108.345,383.52 109.515,383.52 113.202,380.29 133.841,377.559 135.188,376.883 135.691,376.209 135.528,375.186 135.528,373.987 
	136.031,372.801 137.87,370.926 139.215,370.25 140.562,370.25 143.581,371.271 145.257,371.104 146.263,370.926 148.943,369.229 
	152.139,371.615 158.181,372.968 159.187,373.657 159.352,374.499 158.508,376.209 158.847,377.395 159.854,377.903 163.215,379.09 
	164.221,379.946 164.549,380.619 164.549,381.133 164.385,381.989 163.378,383.52 163.038,384.538 162.875,385.56 163.378,386.923 
	164.221,387.435 164.888,387.602 165.556,387.091 166.234,385.56 166.901,385.215 167.909,385.393 172.773,391.851 174.956,395.42 
	176.637,399.504 176.969,400.36 176.969,401.379 176.637,402.235 175.962,402.743 175.126,402.91 173.112,403.076 172.268,403.422 
	171.603,404.098 171.433,405.298 171.936,406.316 172.943,407.337 173.616,408.523 173.616,408.689 173.616,409.542 
	174.119,413.792 174.452,415.158 175.29,416.854 176.297,417.71 177.14,417.874 177.808,417.543 178.31,417.198 179.486,415.668 
	179.99,415.158 181.167,415.323 182.174,416.687 183.684,419.242 184.69,420.605 185.697,421.626 187.541,422.979 188.549,423.324 
	189.384,423.49 190.392,423.324 191.234,422.979 191.902,422.468 192.575,421.626 192.908,420.773 193.412,420.094 194.085,419.404 
	195.261,419.242 195.929,419.917 196.269,420.605 196.269,421.626 196.602,422.648 197.609,423.668 199.29,425.199 201.636,426.73 
	202.812,427.061 203.316,427.573 203.649,428.08 203.818,430.124 204.487,431.654 205.329,431.999 206.167,431.831 209.018,429.611 
	209.69,429.104 210.696,429.28 211.201,429.956 211.704,431.143 212.542,431.319 213.214,430.812 213.547,430.301 214.05,429.28 
	217.071,421.792 217.744,420.936 218.418,420.094 219.589,419.587 220.595,419.587 222.947,419.242 224.458,418.386 
	226.134,418.562 231.337,421.626 232.343,421.958 233.349,422.138 234.358,421.958 243.589,418.73 244.595,418.055 245.432,416.854 
	245.764,415.158 245.6,413.792 245.432,412.442 245.432,411.074 245.6,409.38 246.27,406.646 246.105,404.954 245.26,402.565 
	245.764,401.212 246.77,399.504 257.011,392.192 258.017,391.172 260.028,387.766 260.705,386.745 261.875,386.234 262.881,386.07 
	263.723,385.727 264.227,384.884 264.391,384.194 263.723,382.152 265.568,381.644 266.743,380.619 267.076,379.946 
	268.586,376.538 269.263,375.863 269.764,375.353 270.433,375.52 270.935,376.031 271.104,376.883 271.104,377.903 270.769,379.778 
	270.769,380.457 271.438,380.966 272.444,380.619 273.117,379.946 274.296,378.76 276.643,377.228 277.479,376.371 279.159,373.822 
	280.336,372.456 281.001,371.782 282.18,371.438 283.689,371.104 288.221,372.29 290.232,373.657 291.238,374.678 291.742,375.863 
	291.742,376.717 291.742,378.582 292.076,379.271 293.084,379.946 294.764,380.457 296.103,381.644 297.612,382.329 
	299.969,382.329 301.307,381.989 302.315,381.311 303.49,380.29 305.165,379.601 310.036,379.271 313.722,380.803 322.116,386.234 
	322.953,386.578 323.958,386.923 325.805,386.923 327.312,386.745 328.491,386.416 329.668,385.727 330.505,385.048 
	331.006,384.027 332.015,382.329 332.517,381.476 333.192,380.966 334.199,381.133 335.369,381.822 337.22,383.86 339.062,386.578 
	340.069,387.602 341.074,388.455 344.096,389.642 345.438,390.497 347.449,392.359 355.169,398.316 357.688,398.661 
	357.857,401.034 358.361,401.891 359.027,402.743 372.621,410.729 374.127,412.261 375.138,413.629 375.639,415.5 375.979,418.73 
	375.979,419.749 375.979,420.773 375.81,421.626 375.477,422.648 374.973,423.668 374.468,424.687 372.958,426.894 372.621,427.573 
	372.456,428.262 372.621,429.448 373.123,430.468 373.967,430.979 374.805,430.979 375.81,430.812 376.815,430.979 377.993,431.654 
	383.191,437.612 384.035,438.976 384.701,440.163 384.868,441.019 384.868,442.038 384.868,442.88 384.868,443.569 384.369,444.757 
	384.035,446.455 385.041,446.632 387.723,446.455 385.879,450.369 386.551,452.758 388.562,454.106 391.416,454.963 
	391.749,455.307 392.088,455.816 392.421,456.328 393.259,456.662 393.764,456.494 397.457,454.963 399.974,454.288 
	406.688,454.618 407.692,454.288 409.369,453.6 410.715,451.734 411.22,451.045 411.552,449.694 411.38,448.838 410.879,448.164 
	410.715,447.818 410.209,446.962 410.209,446.12 411.22,445.775 412.726,446.287 413.231,446.632 414.068,447.141 415.246,447.308 
	416.757,445.943 416.917,445.775 417.09,445.269 417.09,444.924 416.917,444.59 416.252,443.569 416.08,443.06 416.252,442.55 
	416.757,442.206 417.763,442.368 418.427,442.206 418.932,441.35 418.932,439.997 418.6,439.997 416.917,438.631 416.757,438.631 
	420.947,435.062 423.3,433.875 426.652,432.507 426.483,432.507 426.652,432.507 426.986,430.979 427.326,430.468 427.156,429.104 
	426.652,428.424 425.979,427.75 425.314,427.061 423.3,422.648 421.953,420.936 420.443,420.094 420.109,419.404 419.773,417.874 
	419.437,414.813 419.605,414.813 419.938,413.971 421.448,412.261 421.953,411.241 422.121,408.867 420.947,403.766 
	421.116,401.891 422.455,397.13 422.958,396.441 424.304,395.766 424.642,394.067 424.137,391.339 424.137,391.339 424.137,390.826 
	424.137,390.826 423.965,390.319 423.965,389.985 423.965,389.985 424.137,389.479 424.304,388.787 424.974,388.109 
	425.314,387.435 425.979,386.07 426.148,385.393 426.148,385.393 425.979,383.008 426.483,380.966 429.168,378.248 430.006,376.538 
	430.006,376.538 429.843,371.944 425.646,364.638 425.314,358.512 425.979,355.796 426.652,353.574 427.326,352.222 
	427.995,351.368 428.496,350.182 428.668,348.14 429.341,346.264 435.378,337.591 436.388,335.549 437.053,333.164 437.225,330.102 
	437.897,327.04 439.409,325.686 441.251,324.835 442.591,322.624 442.591,320.58 442.089,318.709 441.585,316.829 441.251,314.972 
	441.251,313.092 442.089,309.178 442.591,307.482 443.095,306.115 443.768,305.273 444.272,303.742 444.44,301.01 444.945,299.659 
	446.116,298.463 448.468,296.597 448.468,296.597 448.468,295.578 447.462,292.337 447.462,287.232 448.299,282.475 
	452.325,276.006 453.332,275.328 455.014,274.82 456.523,273.455 459.04,270.228 460.211,269.552 461.557,268.188 462.563,266.822 
	463.066,265.632 463.066,262.919 463.571,261.551 464.742,261.206 467.427,261.206 468.1,260.876 468.769,260.364 468.937,259.508 
	469.108,258.143 469.61,257.469 469.945,256.962 470.278,256.613 471.12,256.613 474.646,254.573 475.149,254.064 476.316,252.02 
	480.687,239.951 483.704,234.16 485.551,231.954 485.72,231.787 "/>
</svg>
