<?xml version="1.0" encoding="utf-8"?>
<!-- Generator: Adobe Illustrator 16.0.4, SVG Export Plug-In . SVG Version: 6.00 Build 0)  -->
<!DOCTYPE svg PUBLIC "-//W3C//DTD SVG 1.1//EN" "http://www.w3.org/Graphics/SVG/1.1/DTD/svg11.dtd">
<svg version="1.1" id="Calque_1" xmlns="http://www.w3.org/2000/svg" xmlns:xlink="http://www.w3.org/1999/xlink" x="0px" y="0px"
	 width="500px" height="500px" viewBox="0 0 500 500" enable-background="new 0 0 500 500" xml:space="preserve">
<polygon fill="#FFFFFF" stroke="#010101" stroke-width="2" stroke-linecap="round" stroke-linejoin="round" points="
	452.451,274.309 450.777,270.702 449.335,268.78 448.358,266.616 448.611,262.047 448.358,258.68 448.358,258.441 446.194,258.919 
	444.283,258.441 436.582,254.111 436.582,254.111 437.792,254.354 437.792,254.354 437.792,253.87 437.538,251.228 436.816,247.86 
	436.098,247.621 436.582,244.976 437.306,243.531 438.513,242.329 438.513,242.329 439.233,241.37 440.912,239.927 440.912,239.927 
	444.029,237.523 447.402,236.081 447.402,236.081 447.402,234.637 446.449,232.95 445.728,230.789 443.31,221.655 441.869,220.933 
	440.423,221.171 437.792,222.375 435.862,221.411 436.098,217.565 438.747,208.91 439.471,205.064 440.19,203.139 441.632,201.214 
	444.752,198.571 444.752,198.571 446.194,197.129 446.449,194.722 445.728,193.28 444.029,191.836 442.121,190.638 440.912,190.394 
	439.233,191.116 439.233,191.116 438.981,192.319 439.233,194 438.513,194.722 438.261,194.964 435.627,193.762 432.021,185.589 
	429.138,182.942 426.25,181.26 421.673,176.21 419.036,175.008 415.898,175.247 407.245,179.096 404.124,179.096 401.725,177.893 
	399.308,176.21 396.425,174.769 390.654,174.047 384.649,174.524 382.722,175.247 382.722,175.247 381.765,176.45 379.366,180.777 
	378.644,182.46 378.392,183.181 378.156,183.181 377.669,183.664 377.435,183.425 377.202,183.425 377.202,183.425 376.712,184.867 
	376.712,184.867 371.901,180.296 370.709,171.641 370.709,161.541 369.5,153.129 367.102,149.04 364.451,146.394 361.565,144.95 
	358.446,144.23 349.539,144.23 347.627,143.029 349.068,140.624 349.306,138.703 348.349,137.739 346.418,137.018 344.491,137.262 
	343.048,138.22 341.604,139.423 339.693,140.865 333.67,143.269 330.315,143.508 327.899,142.788 321.894,139.662 320.216,138.22 
	318.054,135.576 317.331,133.171 317.079,126.197 313.474,113.934 312.282,107.686 314.195,104.08 312.751,99.032 311.562,96.867 
	309.633,96.384 307.703,96.145 306.745,94.701 305.069,90.613 303.14,87.246 300.74,83.16 298.576,80.998 294.971,79.793 
	283.9,83.16 276.688,85.565 273.566,87.488 273.566,87.488 270.917,90.131 266.839,97.345 266.839,97.345 265.145,98.787 
	262.98,98.308 262.26,98.065 251.205,93.017 248.806,90.853 248.087,89.41 246.156,85.083 245.433,83.639 240.151,78.833 
	239.177,77.146 238.942,75.705 238.221,74.504 236.292,73.54 235.103,73.301 232.451,73.785 231.243,73.54 229.33,73.301 
	228.357,72.819 227.636,71.621 226.446,68.735 225.725,68.014 224.03,67.049 223.797,66.327 223.797,65.367 225.003,62.965 
	225.003,61.522 222.352,52.146 223.073,49.981 226.194,46.852 226.194,46.852 227.166,45.653 226.681,41.326 224.517,37.958 
	219.467,32.425 218.26,28.341 216.817,18.72 214.904,13.671 214.652,13.671 212.739,15.114 207.206,17.76 195.897,20.646 
	187.73,19.686 186.522,19.925 185.077,20.646 161.275,28.341 139.167,31.227 134.587,34.112 132.188,33.392 105.738,44.932 
	101.411,49.016 97.565,54.547 95.163,56.951 92.517,57.915 89.63,58.154 88.427,58.636 85.064,61.522 85.064,62.481 85.542,65.606 
	87.705,73.54 88.671,78.59 87.705,82.679 86.263,85.804 83.378,94.459 82.656,98.308 82.656,102.876 84.098,112.013 84.82,122.351 
	85.542,125.237 89.149,131.006 84.82,134.13 84.343,143.029 84.098,153.129 81.697,160.582 81.697,162.024 89.149,168.034 
	89.149,169.237 86.985,168.754 83.859,168.275 80.974,174.047 80.014,182.46 79.772,189.195 80.974,191.116 86.985,194 
	88.188,196.648 89.149,199.049 91.312,200.735 93.958,201.697 96.844,201.697 96.844,203.378 93.958,203.378 94.679,205.064 
	95.401,206.023 96.362,206.262 97.804,206.262 97.804,207.707 96.605,208.91 95.163,208.91 81.697,202.178 76.885,202.9 
	72.08,209.149 69.194,220.689 67.991,222.375 66.31,223.816 59.096,232.714 56.451,234.875 76.165,248.821 99.008,272.623 
	100.934,275.751 102.854,284.164 104.295,287.294 107.18,292.102 108.385,294.984 108.871,296.427 109.105,298.836 107.902,300.277 
	105.499,301.721 104.295,303.161 99.491,310.853 98.769,313.502 98.769,315.182 100.211,315.424 101.411,314.943 102.854,314.46 
	104.295,313.982 105.499,314.221 106.46,315.902 105.738,317.827 104.056,320.475 102.614,321.672 99.73,323.359 99.008,324.56 
	99.248,325.763 99.966,326.965 100.689,328.408 100.689,332.492 101.172,338.747 101.653,340.908 102.375,343.556 102.854,350.771 
	103.336,353.174 104.295,354.617 105.018,354.617 105.981,354.377 107.18,353.654 108.619,353.174 110.062,353.41 111.036,355.574 
	110.784,357.501 110.062,359.903 108.871,360.867 108.149,361.346 107.424,361.346 107.18,361.829 106.704,362.787 105.738,365.675 
	104.54,368.804 103.818,371.443 104.54,380.102 108.385,395.247 111.992,404.387 112.948,407.755 112.948,407.992 112.712,408.232 
	111.992,408.715 110.784,408.952 109.828,408.477 109.341,408.232 109.105,407.992 107.664,405.589 106.46,404.387 105.018,403.663 
	103.576,403.903 102.131,404.625 100.45,407.509 100.211,407.992 100.45,409.435 101.172,412.083 103.336,413.997 103.576,415.44 
	104.056,417.855 105.018,419.298 106.704,420.739 108.385,421.21 109.828,421.462 114.156,421.462 120.648,423.629 124.74,424.35 
	127.139,425.303 131.953,424.097 138.447,423.861 141.079,423.376 143.243,422.185 149.013,417.855 150.708,416.646 
	152.873,415.927 154.063,416.162 155.035,417.137 155.991,418.327 157.922,419.768 161.528,421.697 163.44,421.697 166.811,422.421 
	175.702,426.259 177.63,426.749 179.562,426.513 184.358,423.629 186.774,422.904 188.937,423.629 212.977,436.847 214.419,436.847 
	216.817,435.89 217.79,436.359 218.511,437.331 219.234,438.521 220.424,440.452 223.308,442.85 229.33,439.967 232.687,440.686 
	235.103,443.337 236.779,444.544 238.221,444.544 241.107,443.337 242.316,443.825 243.505,445.016 244.227,445.735 
	245.669,446.224 247.111,446.224 248.087,445.735 248.806,445.016 249.529,443.825 250.971,442.617 252.413,442.38 253.855,442.617 
	261.305,444.78 272.125,442.85 274.287,441.895 275.731,442.38 277.66,444.061 278.849,444.061 281.014,442.127 282.944,441.174 
	284.871,440.938 287.036,441.174 288.479,440.452 291.6,438.288 300.021,440.938 301.211,442.38 302.652,444.061 304.585,448.875 
	304.817,450.786 304.585,452.947 303.861,454.393 303.627,455.602 303.627,456.556 304.095,458.25 305.069,459.692 324.778,477.238 
	326.458,477.726 328.621,476.519 329.83,476.284 330.784,477.238 331.272,478.445 331.992,481.566 331.992,483.964 332.229,485.407 
	333.438,487.572 338.484,491.178 340.65,492.151 342.577,492.62 346.655,491.901 348.583,487.34 350.025,484.687 351.232,483.011 
	359.889,474.354 360.844,472.678 361.565,470.514 362.053,469.071 363.73,467.625 366.13,465.933 367.824,463.047 369.988,460.65 
	371.431,459.692 372.387,458.718 373.106,457.277 373.106,455.364 372.387,454.393 371.18,453.671 369.988,453.437 368.546,453.437 
	363.967,453.921 362.774,453.437 361.565,452.715 361.333,451.757 361.082,451.272 361.082,450.062 361.333,449.108 
	361.565,447.898 363.495,446.456 364.688,445.503 365.894,443.825 367.102,441.66 367.339,439.729 367.339,438.288 366.85,435.403 
	366.616,433.961 366.616,432.752 366.85,431.564 367.571,430.589 368.295,429.633 370.222,428.908 371.664,428.908 377.435,429.865 
	379.114,429.633 380.32,429.146 381.765,428.189 382.972,426.749 383.692,424.817 383.44,423.629 382.972,422.904 380.558,421.462 
	379.6,420.488 378.644,419.298 377.922,418.09 376.712,417.604 375.507,417.604 374.314,417.37 373.829,416.413 373.345,415.208 
	373.106,413.765 372.619,404.625 372.387,403.183 371.901,401.502 370.457,398.376 370.222,396.934 372.873,394.77 377.669,392.362 
	389.211,388.998 397.867,387.796 398.842,387.556 399.308,386.593 399.308,385.149 399.075,383.707 399.075,382.508 
	400.032,381.305 401.725,380.343 405.08,380.343 406.774,380.583 408.218,381.305 412.059,384.189 413.502,384.428 414.943,384.189 
	416.387,382.746 418.064,382.508 419.036,382.746 421.437,384.428 422.879,384.911 424.087,384.428 425.044,383.469 
	425.529,381.542 425.998,380.102 426.25,374.813 425.044,371.688 423.112,370.724 423.836,369.043 424.556,367.837 425.766,366.88 
	428.414,366.394 427.695,363.991 425.278,359.664 424.322,357.983 424.322,356.059 425.278,354.133 427.695,351.729 
	428.414,350.526 428.161,348.361 427.695,346.441 427.442,344.755 428.161,342.592 428.65,340.908 428.161,338.983 427.442,337.542 
	426.972,336.1 426.25,333.218 425.278,330.09 424.808,328.647 425.998,326.965 427.205,326.001 428.65,325.763 431.534,325.763 
	432.978,325.041 434.655,323.838 436.582,320.23 438.025,318.312 439.471,317.108 440.676,316.623 441.869,315.663 444.029,313.018 
	449.082,308.45 450.29,307.008 450.777,305.081 451.01,302.197 450.054,299.795 447.888,297.63 447.402,296.188 448.358,288.736 
	449.335,286.331 451.497,282.723 452.688,279.836 452.94,278.637 452.94,276.713 "/>
<polygon fill="#FFFFFF" stroke="#010101" stroke-width="2" stroke-linecap="round" stroke-linejoin="round" points="
	111.992,404.387 108.385,395.247 104.54,380.102 103.818,371.443 104.54,368.804 105.738,365.675 106.704,362.787 107.18,361.829 
	107.424,361.346 108.149,361.346 108.871,360.867 110.062,359.903 110.784,357.501 111.036,355.574 110.062,353.41 108.619,353.174 
	107.18,353.654 105.981,354.377 105.018,354.617 104.295,354.617 103.336,353.174 102.854,350.771 102.375,343.556 101.653,340.908 
	101.172,338.747 100.689,332.492 100.689,328.408 99.966,326.965 99.248,325.763 99.008,324.56 99.73,323.359 102.614,321.672 
	104.056,320.475 105.738,317.827 106.46,315.902 105.499,314.221 104.295,313.982 102.854,314.46 101.411,314.943 100.211,315.424 
	98.769,315.182 98.769,313.502 99.491,310.853 104.295,303.161 105.499,301.721 107.902,300.277 109.105,298.836 108.871,296.427 
	108.385,294.984 107.18,292.102 104.295,287.294 102.854,284.164 100.934,275.751 99.008,272.623 76.165,248.821 56.451,234.875 
	41.063,247.376 35.531,253.392 32.163,254.589 28.801,257.237 -27.944,275.511 -39.725,275.271 -50.544,279.362 -55.837,282.965 
	-60.643,284.41 -77.953,294.746 -79.396,296.911 -97.43,305.081 -98.632,306.526 -100.315,306.526 -107.05,312.057 
	-109.213,314.704 -114.741,333.218 -121.716,346.197 -122.198,347.884 -122.437,350.049 -121.953,351.968 -120.033,353.174 
	-119.551,354.617 -118.347,356.542 -115.463,358.223 -112.338,359.181 -109.935,359.425 -107.289,359.425 -97.43,362.787 
	-85.889,364.476 -74.591,362.787 -64.731,356.542 -67.135,359.664 -69.78,362.067 -76.033,365.437 -93.346,369.282 -110.413,373.13 
	-119.551,379.862 -122.676,384.911 -124.118,385.87 -127.247,386.836 -130.853,390.198 -137.345,393.326 -159.462,398.376 
	-163.07,401.74 -175.813,393.805 -182.788,392.124 -186.872,389.475 -189.28,388.519 -198.897,388.519 -204.667,385.87 
	-208.034,384.911 -213.083,387.796 -216.447,387.556 -222.461,385.631 -246.02,384.189 -262.372,377.937 -280.405,376.976 
	-282.809,378.181 -285.214,380.583 -286.177,383.469 -284.732,385.631 -284.732,387.075 -287.379,387.796 -288.821,387.075 
	-290.022,385.631 -291.464,384.189 -292.907,384.428 -294.592,385.394 -295.553,385.631 -296.034,383.469 -295.791,382.746 
	-295.071,381.785 -294.592,380.102 -294.35,377.697 -294.832,373.13 -296.034,370.001 -306.61,356.778 -308.536,350.771 
	-310.938,347.164 -312.864,342.834 -312.143,337.785 -311.183,336.821 -309.979,336.343 -306.854,336.343 -306.372,335.379 
	-306.133,333.457 -305.412,331.534 -301.806,328.887 -302.526,325.279 -305.651,318.788 -306.133,315.182 -306.854,313.741 
	-307.816,313.263 -324.405,310.133 -327.052,310.376 -333.299,312.295 -335.225,313.982 -338.832,318.788 -340.996,320.714 
	-343.398,321.917 -345.084,321.672 -347.971,320.714 -349.413,320.475 -351.094,320.953 -352.776,322.877 -354.218,323.359 
	-355.183,322.877 -355.422,321.917 -355.422,320.953 -355.66,320.475 -357.825,320.475 -368.167,317.108 -377.3,315.663 
	-380.185,314.704 -380.906,314.46 -382.35,314.704 -383.07,314.704 -383.553,313.502 -384.273,311.099 -384.757,310.133 
	-386.199,309.655 -390.045,310.133 -391.726,309.655 -394.372,307.73 -395.816,307.247 -399.423,307.73 -399.905,309.411 
	-399.661,312.539 -400.865,317.589 -394.854,319.992 -390.284,320.953 -389.085,322.396 -388.364,324.56 -387.159,326.965 
	-386.199,329.85 -386.199,333.457 -386.92,339.95 -387.642,342.114 -391.487,345.721 -392.448,348.605 -391.726,350.049 
	-388.12,354.377 -386.92,356.542 -386.438,358.223 -386.199,359.425 -385.957,360.387 -384.035,363.991 -383.553,365.437 
	-383.07,366.88 -382.831,369.763 -383.553,376.976 -383.07,379.862 -381.628,381.305 -380.185,381.065 -378.265,380.343 
	-376.339,379.862 -376.822,380.583 -377.061,381.305 -377.3,382.746 -374.658,384.189 -371.53,387.796 -369.126,389.238 
	-367.923,385.631 -366.963,385.631 -365.038,389.96 -365.038,391.401 -367.923,391.401 -366.963,394.527 -365.28,396.934 
	-361.192,400.058 -361.913,400.296 -362.152,400.779 -363.118,401.74 -361.192,404.146 -358.79,411.838 -356.626,414.483 
	-355.422,410.396 -352.538,410.638 -348.93,412.322 -346.044,413.042 -346.044,414.483 -351.094,413.042 -353.497,413.042 
	-354.7,415.208 -354.461,419.045 -353.74,423.142 -353.019,426.982 -351.816,430.355 -351.094,429.397 -350.612,429.146 
	-348.93,430.355 -351.816,432.283 -352.538,433.473 -353.74,436.124 -354.218,439.011 -354.461,441.408 -353.74,442.85 
	-351.816,443.337 -352.298,445.503 -352.776,447.665 -352.776,452.715 -352.298,454.393 -351.332,456.556 -350.373,457.763 
	-349.89,456.807 -348.93,453.671 -346.284,452.229 -343.159,452.229 -340.513,453.437 -340.513,454.644 -343.88,453.2 
	-345.806,454.157 -346.527,457.277 -348.209,469.306 -347.487,470.514 -345.806,470.981 -345.323,472.188 -345.323,474.12 
	-346.044,476.519 -347.248,474.587 -348.209,476.752 -349.413,486.853 -350.373,489.266 -351.816,491.178 -353.74,491.901 
	-353.74,493.594 -350.373,494.317 -348.691,497.672 -347.971,502.721 -347.971,508.255 -346.766,513.304 -341.717,517.866 
	-340.513,522.68 -339.792,524.123 -338.11,525.08 -333.299,526.522 -332.578,527.496 -332.1,528.452 -332.1,529.895 
	-331.618,530.852 -330.897,530.616 -330.176,529.662 -330.176,529.174 -324.888,529.662 -321.759,531.337 -319.595,534.941 
	-324.644,533.015 -339.553,536.39 -350.373,534.941 -351.816,535.18 -351.577,535.666 -351.094,537.345 -350.854,538.316 
	-350.612,539.758 -349.413,542.645 -347.248,546.973 -346.284,549.369 -345.806,550.324 -345.323,551.534 -345.084,553.934 
	-344.602,555.374 -343.398,558.262 -339.313,565.727 -338.11,566.917 -334.743,569.333 -333.782,570.524 -332.339,571.731 
	-330.176,572.453 -327.052,572.218 -323.201,570.775 -321.038,569.333 -318.152,566.683 -316.71,565.727 -313.585,564.518 
	-312.382,563.796 -311.183,562.84 -310.218,561.634 -308.297,558.513 -307.093,557.306 -304.691,557.072 -301.323,557.306 
	-287.135,561.397 -284.972,563.312 -281.365,565.003 -274.634,566.193 -269.825,566.193 -265.257,564.753 -264.537,564.518 
	-264.298,564.031 -263.332,563.563 -261.651,563.076 -259.005,564.518 -258.526,564.753 -257.562,565.003 -256.602,565.24 
	-251.552,564.285 -249.387,566.446 -247.707,569.081 -246.02,572.94 -245.299,574.13 -244.339,574.853 -243.136,574.382 
	-242.175,573.659 -240.971,573.659 -240.012,574.382 -239.052,575.572 -238.086,576.547 -236.644,576.781 -234.962,576.296 
	-234.001,575.104 -233.759,573.659 -233.52,572.687 -232.316,571.967 -225.585,570.288 -224.382,570.288 -223.42,571.499 
	-222.938,572.687 -222.461,573.659 -221.019,574.13 -209.232,571.246 -207.791,570.524 -206.592,569.566 -201.783,564.518 
	-200.578,563.796 -199.379,563.312 -197.453,563.312 -190.724,563.796 -181.346,566.446 -179.42,565.96 -178.699,565.24 
	-177.979,564.031 -176.775,562.121 -175.092,561.397 -173.168,560.91 -170.043,560.91 -168.361,560.191 -167.158,559.234 
	-166.437,557.791 -165.955,556.582 -166.198,555.141 -166.437,553.698 -165.955,552.741 -164.994,552.022 -156.338,555.374 
	-155.135,556.349 -154.658,557.791 -154.897,560.191 -155.617,561.634 -155.377,564.031 -153.935,566.917 -149.364,572.218 
	-146.961,574.382 -144.797,575.339 -143.593,575.339 -142.395,575.572 -141.43,577.267 -140.47,578.944 -139.986,589.529 
	-131.813,588.322 -130.371,588.555 -128.69,588.809 -126.282,589.765 -124.361,589.765 -123.397,588.809 -123.158,586.156 
	-122.676,585.203 -121.716,584.479 -120.994,583.994 -120.033,583.76 -119.069,583.76 -117.388,583.27 -116.905,582.784 
	-115.945,582.065 -114.984,580.62 -114.02,578.712 -113.06,577.267 -111.617,576.058 -109.935,575.572 -108.493,574.853 
	-106.329,572.94 -94.066,570.053 -92.141,570.053 -89.977,570.524 -84.207,573.173 -82.525,574.13 -81.56,575.339 -80.838,577.267 
	-80.6,578.712 -80.6,580.387 -81.322,585.924 -81.083,591.692 -80.6,594.328 -80.118,596.493 -78.918,599.375 -77.477,601.07 
	-75.312,602.747 -71.705,605.146 -68.82,605.634 -67.135,605.146 -65.691,604.677 -64.731,605.146 -64.01,606.841 -63.771,608.283 
	-63.771,609.474 -64.01,611.403 -63.771,612.123 -61.846,613.079 -50.066,616.451 -44.773,616.687 -44.534,616.451 -44.294,616.219 
	-43.812,615.732 -42.371,615.732 -40.688,616.939 -38.282,619.826 -35.397,624.621 -34.197,626.316 -32.754,627.759 
	-29.387,629.922 -26.5,630.646 -22.657,629.67 -20.971,628.714 -20.01,627.759 -19.05,626.55 -18.807,624.874 -19.288,622.71 
	-20.01,621.015 -22.413,616.939 -22.657,616.451 -22.894,615.732 -23.134,614.289 -23.134,612.613 -22.657,609.962 -22.894,608.283 
	-23.377,606.841 -24.338,606.119 -25.298,604.91 -26.019,603.468 -25.298,601.07 -24.819,599.628 -24.098,598.905 -23.134,598.654 
	-20.732,598.186 -18.807,597.698 -9.429,593.857 -6.544,591.929 -2.458,588.086 -1.739,586.88 -1.018,583.994 -0.295,582.784 
	0.426,581.341 1.63,579.902 2.351,578.459 2.112,577.016 0.669,574.853 -0.534,573.406 -1.494,572.218 -1.978,571.008 
	-2.216,569.081 -2.216,567.64 -2.216,566.193 -1.739,564.753 -1.739,564.518 -1.494,563.796 -1.494,562.84 -1.739,561.397 
	-2.458,559.955 -9.673,551.769 -13.757,549.369 -15.443,547.442 -17.846,542.881 -19.288,539.758 -20.249,530.383 -15.681,525.57 
	-14.239,524.36 -12.559,523.403 0.669,519.562 2.112,519.562 3.555,519.799 4.997,519.562 6.44,518.841 7.64,517.146 8.36,515.706 
	9.324,514.26 10.524,513.304 12.449,512.584 13.893,512.351 16.777,512.584 17.016,512.584 17.499,512.584 18.46,512.351 
	19.18,511.627 19.663,510.419 19.663,507.77 20.145,506.812 20.867,506.579 22.548,507.298 26.154,510.653 27.596,511.143 
	29.04,511.375 30.482,511.627 35.292,511.143 36.734,511.375 37.935,511.861 39.138,512.818 39.377,512.818 39.859,512.584 
	40.58,512.351 46.351,508.976 49.719,507.536 51.162,506.327 52.605,504.885 53.564,501.998 54.047,499.834 55.007,497.923 
	56.451,495.992 59.574,493.108 61.738,491.664 65.106,489.988 66.31,489.014 67.271,487.572 67.752,485.407 67.752,483.964 
	66.549,479.401 66.788,477.726 67.51,476.519 73.039,473.146 72.319,470.514 72.08,469.306 72.319,467.625 72.319,466.186 
	71.598,465.465 70.394,464.976 69.194,464.976 67.991,464.49 67.271,463.299 67.271,462.092 67.271,461.135 67.752,459.208 
	67.752,458.485 67.752,457.277 67.51,456.086 66.065,452.947 66.31,451.505 67.752,450.315 85.064,446.224 90.592,443.104 
	97.083,420.488 101.172,412.083 100.45,409.435 100.211,407.992 100.45,407.509 102.131,404.625 103.576,403.903 105.018,403.663 
	106.46,404.387 107.664,405.589 109.105,407.992 109.341,408.232 109.828,408.477 110.784,408.952 111.992,408.715 112.712,408.232 
	112.948,407.992 112.948,407.755 "/>
<polygon id="Île-de-France" fill="#FFFFFF" stroke="#010101" stroke-width="2" stroke-linecap="round" stroke-linejoin="round" points="
	346.655,491.901 346.185,496.227 345.698,497.435 344.742,498.644 343.3,499.115 338.72,499.115 337.043,499.602 336.807,500.558 
	337.278,501.53 339.205,503.207 339.442,504.414 338.484,505.369 336.555,507.046 335.599,508.49 335.113,510.653 335.113,511.861 
	335.365,512.584 335.599,512.584 336.322,512.818 337.997,512.584 338.72,512.584 338.972,513.07 339.442,513.54 340.161,514.983 
	341.136,516.19 342.326,516.91 342.811,518.118 343.3,519.309 343.534,520.517 344.257,523.89 344.491,526.053 343.3,531.102 
	343.534,533.501 344.02,535.18 345.21,535.898 346.418,535.898 349.068,534.941 349.79,534.941 350.747,535.18 351.704,537.107 
	354.84,541.2 348.817,546.485 346.418,550.324 345.21,553.934 344.257,556.349 342.811,557.791 341.136,558.262 339.442,558.513 
	337.278,558.981 336.555,559.471 336.322,560.678 337.043,561.868 338.484,564.285 338.72,565.003 338.249,566.193 335.365,568.611 
	334.642,570.053 334.39,571.246 335.834,574.382 336.087,575.104 335.834,576.058 335.113,578.712 334.642,581.108 335.113,583.037 
	331.758,586.88 329.594,590.72 328.385,591.439 327.178,591.207 324.545,590.25 323.103,589.998 309.144,592.415 306.983,592.164 
	305.538,591.692 298.813,591.207 297.371,591.439 296.163,591.929 295.439,592.415 294.25,593.371 293.527,593.605 286.551,593.371 
	285.594,594.093 285.107,594.812 284.619,596.493 284.386,598.186 284.152,599.375 283.43,600.585 282.944,601.794 282.457,603.234 
	282.457,604.424 282.457,605.866 282.457,607.312 282.944,608.755 283.664,610.195 284.386,611.403 284.871,612.613 
	284.619,614.055 283.9,615.01 283.178,616.219 282.944,616.451 281.736,619.337 281.014,620.781 279.339,622.457 275.009,624.621 
	273.334,625.597 272.609,626.787 271.888,627.994 271.402,630.394 271.168,633.043 270.445,635.928 256.49,640.744 254.577,640.977 
	252.413,640.491 252.413,639.301 252.883,637.858 253.604,636.649 253.135,635.694 251.441,634.973 247.834,635.442 
	245.669,636.163 244.227,637.369 243.272,638.815 241.827,640.258 239.177,642.185 237.267,642.654 218.511,641.211 
	216.095,641.465 211.298,642.907 209.371,642.907 207.206,642.421 205.997,641.465 205.042,640.258 204.808,639.048 
	205.042,637.858 205.764,636.649 206.717,635.694 207.925,635.694 211.532,636.417 212.02,636.163 212.739,635.442 212.977,634.485 
	212.739,633.277 211.768,631.602 211.768,631.113 211.768,630.646 213.211,627.994 213.698,626.787 213.698,625.344 
	212.739,623.667 210.812,621.737 203.11,616.451 202.876,616.219 202.644,615.496 200.712,607.798 199.993,605.866 197.828,602.982 
	192.543,603.957 186.522,600.352 185.077,600.585 184.124,601.308 183.167,602.747 181.723,603.957 178.117,604.91 176.422,604.424 
	175.702,603.468 175.466,602.026 174.746,600.585 173.304,599.375 171.626,597.935 170.183,598.186 169.209,598.905 
	168.019,601.794 167.299,602.982 166.091,604.19 161.275,606.355 141.331,610.917 139.167,609.474 138.915,608.283 138.915,607.076 
	139.637,606.119 140.845,604.91 142.772,602.026 142.772,600.817 142.287,600.099 139.637,598.654 138.447,596.493 137.724,593.857 
	137.239,589.043 136.029,586.88 134.841,585.436 133.631,584.479 132.188,582.784 131.953,581.108 131.701,576.296 130.745,575.339 
	125.696,576.296 122.089,575.104 115.362,571.499 113.201,569.566 111.756,567.64 110.548,564.753 110.314,564.518 110.314,563.076 
	110.548,559.955 110.548,558.748 110.314,557.306 110.062,555.626 109.594,553.934 108.149,551.769 106.46,550.578 104.056,549.135 
	102.854,547.693 102.375,546.253 101.893,543.365 101.172,541.437 99.491,539.995 92.517,534.941 90.592,532.782 89.391,530.616 
	88.188,527.01 86.985,525.803 84.82,524.613 84.582,523.637 84.343,522.447 84.82,521.006 85.542,519.562 87.705,516.91 
	88.427,515.468 88.671,513.791 88.671,513.07 88.427,512.584 84.582,510.185 83.62,508.976 83.378,508.022 83.139,505.856 
	83.139,504.885 83.139,503.931 83.378,502.484 84.098,499.602 84.343,497.672 84.343,495.759 83.62,492.871 82.656,490.945 
	80.492,488.06 73.039,473.146 72.319,470.514 72.08,469.306 72.319,467.625 72.319,466.186 71.598,465.465 70.394,464.976 
	69.194,464.976 67.991,464.49 67.271,463.299 67.271,462.092 67.271,461.135 67.752,459.208 67.752,458.485 67.752,457.277 
	67.51,456.086 66.31,452.947 66.31,451.505 67.752,450.315 85.064,446.224 90.592,443.104 97.083,420.488 101.172,412.083 
	103.336,413.997 103.576,415.44 104.056,417.855 105.018,419.298 106.704,420.739 108.385,421.21 109.828,421.462 114.156,421.462 
	120.648,423.629 124.74,424.35 127.139,425.303 131.953,424.097 138.447,423.861 141.079,423.376 143.243,422.185 149.013,417.855 
	150.708,416.646 152.873,415.927 154.063,416.162 155.035,417.137 155.991,418.327 157.922,419.768 161.528,421.697 163.44,421.697 
	166.811,422.421 175.702,426.259 177.63,426.749 179.562,426.513 184.358,423.629 186.774,422.904 188.937,423.629 212.977,436.847 
	214.419,436.847 216.817,435.89 217.79,436.359 218.511,437.331 219.234,438.521 220.424,440.452 223.308,442.85 229.33,439.967 
	232.687,440.686 235.103,443.337 236.779,444.544 238.221,444.544 241.107,443.337 242.316,443.825 243.505,445.016 
	244.227,445.735 245.669,446.224 247.111,446.224 248.087,445.735 248.806,445.016 249.529,443.825 250.971,442.617 252.413,442.38 
	253.855,442.617 261.305,444.78 272.125,442.85 274.287,441.895 275.731,442.38 277.66,444.061 278.849,444.061 281.014,442.127 
	282.944,441.174 284.871,440.938 287.036,441.174 288.479,440.452 291.6,438.288 300.021,440.938 301.211,442.38 302.652,444.061 
	304.585,448.875 304.817,450.786 304.585,452.947 303.861,454.393 303.627,455.602 303.627,456.556 304.095,458.25 305.069,459.692 
	324.778,477.238 326.458,477.726 328.621,476.519 329.83,476.284 330.784,477.238 331.272,478.445 331.992,481.566 331.992,483.964 
	332.229,485.407 333.438,487.572 338.484,491.178 340.65,492.151 342.577,492.62 "/>
<polygon fill="#FFFFFF" stroke="#010101" stroke-width="2" stroke-linecap="round" stroke-linejoin="round" points="
	995.604,467.625 982.142,464.742 960.26,453.2 957.851,452.947 949.918,453.671 938.62,450.315 936.933,450.786 933.813,452.48 
	932.126,452.947 930.685,452.715 927.8,451.757 926.358,451.505 924.67,451.757 922.994,452.48 921.31,452.947 920.833,452.947 
	919.387,452.48 918.179,451.505 916.736,448.622 915.78,447.432 912.651,445.735 906.638,444.78 903.751,442.85 901.833,440.686 
	898.703,435.637 896.784,433.473 896.784,433.473 897.026,432.752 897.504,432.283 898.469,431.799 897.504,428.675 
	895.097,427.702 889.093,427.233 888.373,425.069 885.721,424.817 882.601,425.793 880.192,426.982 879.716,428.189 878.75,431.074 
	878.03,432.283 876.83,432.752 874.181,433.238 872.738,433.473 872.015,434.682 870.573,437.567 869.616,438.521 868.894,438.288 
	865.046,436.61 853.26,436.359 851.099,435.637 848.935,434.682 843.651,430.841 842.928,430.589 841.722,431.799 841.722,431.799 
	841.722,433.004 842.207,434.193 842.207,434.193 841.963,435.166 837.88,437.802 834.752,435.403 833.065,429.633 833.065,429.633 
	833.307,422.185 830.179,422.185 821.521,417.37 820.083,417.137 815.996,417.37 810.469,416.162 809.026,416.413 808.062,419.298 
	809.261,422.904 809.746,426.259 807.342,429.397 805.653,429.865 800.127,427.954 794.115,427.702 792.436,426.982 
	790.751,424.097 790.751,424.097 790.996,421.697 791.712,418.812 791.712,418.812 790.996,415.692 790.272,415.692 
	788.584,416.884 787.866,416.884 787.62,416.162 787.145,414.483 787.145,413.997 786.667,413.042 785.458,409.196 784.979,408.715 
	783.058,407.992 782.339,407.271 782.095,406.551 782.572,404.387 782.339,403.425 772.963,394.527 770.796,391.884 
	769.834,389.475 770.551,387.556 773.195,387.314 773.681,385.631 773.681,385.631 773.195,384.428 766.467,377.214 
	765.505,375.771 765.747,375.771 765.747,375.771 765.747,374.572 765.505,372.888 764.54,370.968 762.142,368.804 749.635,362.549 
	747.948,362.31 746.993,362.549 744.343,364.476 742.901,364.715 741.699,364.715 741.699,364.715 738.815,364.232 735.21,362.31 
	728.718,357.501 728.474,357.262 724.635,355.818 720.782,355.336 712.848,356.059 712.848,356.297 713.814,357.983 
	713.814,358.223 709.719,358.461 708.765,358.942 708.765,358.942 708.044,360.148 708.044,361.59 707.798,362.549 707.798,362.549 
	706.111,363.271 706.111,363.271 704.914,365.196 702.749,366.155 690.965,366.88 688.803,367.6 686.882,361.59 684.239,358.942 
	675.339,356.778 671.977,355.097 669.57,352.934 665.241,347.164 665.241,347.164 663.555,346.681 660.67,344.998 659.226,344.755 
	657.55,345.478 657.55,345.478 655.862,347.884 655.862,347.884 654.178,348.605 651.292,348.123 648.173,346.681 645.043,345.961 
	641.683,347.643 641.683,347.643 639.995,349.809 639.75,351.489 639.271,352.213 639.271,352.213 637.112,352.452 636.144,352.213 
	631.817,350.287 629.175,351.248 625.812,354.133 622.205,356.297 619.079,355.336 618.355,353.41 618.355,351.729 618.833,349.564 
	618.833,347.404 618.355,345.478 611.621,333.457 610.179,332.255 609.222,331.052 604.892,329.608 603.206,328.647 
	602.487,328.408 602.487,328.647 602.009,329.13 601.286,330.328 600.566,331.295 600.566,331.295 599.601,331.534 597.438,331.052 
	596.715,330.328 596.238,328.408 596.715,325.279 597.917,324.56 597.917,324.56 598.402,323.838 597.438,320.714 594.796,317.348 
	591.911,314.704 589.023,314.704 582.769,316.387 579.646,315.424 576.996,313.502 575.076,311.576 569.306,303.161 
	567.619,301.475 562.568,300.032 559.931,298.591 554.878,293.542 552.239,292.102 551.994,292.102 549.353,292.342 543.34,294.262 
	540.219,294.984 536.612,294.262 535.403,292.819 535.403,284.648 535.17,283.441 533.729,281.281 533.476,280.08 533.729,278.877 
	534.918,277.437 535.403,276.229 536.126,273.829 536.847,271.904 537.334,270.223 537.081,267.335 534.918,263.489 
	528.424,260.846 526.517,257.722 526.981,254.354 532.284,241.13 532.519,238.721 532.284,237.041 532.519,235.115 534.918,229.346 
	535.17,229.346 535.89,229.107 537.334,230.789 537.334,230.789 537.802,227.181 538.523,222.614 538.523,218.769 537.334,217.326 
	533.006,218.048 531.564,217.565 530.842,214.198 527.234,215.884 527.234,215.884 512.321,230.789 511.6,232.475 511.364,234.637 
	511.6,235.837 512.088,237.041 512.321,238.482 511.112,245.215 510.158,248.582 508.949,251.228 508.949,251.228 507.506,252.189 
	501.736,253.147 482.514,262.524 478.421,263.248 477.465,263.01 456.781,257.237 448.358,258.441 448.358,258.68 448.611,262.047 
	448.358,266.616 449.335,268.78 450.777,270.702 452.451,274.309 452.94,276.713 452.94,278.637 452.688,279.836 451.497,282.723 
	449.335,286.331 448.358,288.736 447.402,296.188 447.888,297.63 450.054,299.795 451.01,302.197 450.777,305.081 450.29,307.008 
	449.082,308.45 444.029,313.018 441.869,315.663 440.676,316.623 439.471,317.108 438.025,318.312 436.582,320.23 434.655,323.838 
	432.978,325.041 431.534,325.763 428.65,325.763 427.205,326.001 425.998,326.965 424.808,328.647 425.278,330.09 426.25,333.218 
	426.972,336.1 427.442,337.542 428.161,338.983 428.65,340.908 428.161,342.592 427.442,344.755 427.695,346.441 428.161,348.361 
	428.414,350.526 427.695,351.729 425.278,354.133 424.322,356.059 424.322,357.983 425.278,359.664 427.695,363.991 
	428.414,366.394 425.766,366.88 424.556,367.837 423.836,369.043 423.112,370.724 425.044,371.688 426.25,374.813 425.998,380.102 
	425.529,381.542 425.044,383.469 424.087,384.428 422.879,384.911 421.437,384.428 419.036,382.746 418.064,382.508 
	416.387,382.746 414.943,384.189 413.502,384.428 412.059,384.189 408.218,381.305 406.774,380.583 405.08,380.343 401.725,380.343 
	400.032,381.305 399.075,382.508 399.075,383.707 399.308,385.149 399.308,386.593 398.842,387.556 397.867,387.796 
	389.211,388.998 377.669,392.362 372.873,394.77 370.222,396.934 370.457,398.376 371.901,401.502 372.387,403.183 372.619,404.625 
	373.106,413.765 373.345,415.208 373.829,416.413 374.314,417.37 375.507,417.604 376.712,417.604 377.922,418.09 378.644,419.298 
	379.6,420.488 380.558,421.462 382.972,422.904 383.44,423.629 383.692,424.817 382.972,426.749 381.765,428.189 380.32,429.146 
	379.114,429.633 377.435,429.865 371.664,428.908 370.222,428.908 368.295,429.633 367.571,430.589 366.85,431.564 366.616,432.752 
	366.616,433.961 366.85,435.403 367.339,438.288 367.339,439.729 367.102,441.66 365.894,443.825 364.688,445.503 363.495,446.456 
	361.565,447.898 361.333,449.108 361.082,450.062 361.082,451.272 361.333,451.757 361.565,452.715 362.774,453.437 
	363.967,453.921 368.546,453.437 369.988,453.437 371.18,453.671 372.387,454.393 373.106,455.364 373.106,457.277 372.387,458.718 
	371.431,459.692 369.988,460.65 367.824,463.047 366.13,465.933 363.73,467.625 362.053,469.071 361.565,470.514 360.844,472.678 
	359.889,474.354 351.232,483.011 350.025,484.687 348.583,487.34 346.655,491.901 346.185,496.227 345.698,497.435 344.742,498.644 
	343.3,499.115 338.72,499.115 337.043,499.602 336.807,500.558 337.278,501.53 339.205,503.207 339.442,504.414 338.484,505.369 
	336.555,507.046 335.599,508.49 335.113,510.653 335.113,511.861 335.365,512.584 335.599,512.584 336.322,512.818 337.997,512.584 
	338.72,512.584 338.972,513.07 339.442,513.54 340.161,514.983 341.136,516.19 342.326,516.91 342.811,518.118 343.3,519.309 
	343.534,520.517 344.257,523.89 344.491,526.053 343.3,531.102 343.534,533.501 344.02,535.18 345.21,535.898 346.418,535.898 
	349.068,534.941 349.79,534.941 350.747,535.18 351.704,537.107 354.84,541.2 348.817,546.485 346.418,550.324 345.21,553.934 
	344.257,556.349 342.811,557.791 341.136,558.262 339.442,558.513 337.278,558.981 336.555,559.471 336.322,560.678 
	337.043,561.868 338.484,564.285 338.72,565.003 338.249,566.193 335.365,568.611 334.642,570.053 334.39,571.246 335.834,574.382 
	336.087,575.104 335.834,576.058 335.113,578.712 334.642,581.108 335.113,583.037 337.529,584.951 337.997,587.834 
	338.249,589.529 338.72,591.692 339.693,592.415 342.092,591.692 344.257,591.929 348.583,594.328 350.98,596.256 352.677,598.186 
	361.801,609.962 363.244,612.847 364.218,614.776 364.451,616.219 364.218,617.895 364.451,618.852 365.174,621.991 365.174,623.18 
	364.939,624.388 364.218,625.597 361.565,627.994 360.844,629.204 360.844,630.646 365.894,633.043 370.222,636.649 
	372.387,638.325 374.314,638.578 376.949,637.858 377.435,636.882 377.669,635.928 378.392,634.973 379.6,634.485 381.765,635.442 
	382.722,636.882 383.206,638.325 383.692,640.021 384.414,641.465 386.327,643.377 388.743,646.514 398.353,663.338 
	399.075,664.779 399.075,665.99 398.118,666.459 395.955,666.944 395.234,667.668 394.982,668.154 395.234,669.11 396.19,670.063 
	399.075,671.507 400.283,671.507 402.916,670.552 404.61,670.786 405.08,671.507 405.566,672.717 405.332,677.042 405.332,678.488 
	406.056,680.416 407.011,681.371 408.218,682.095 411.823,682.581 417.106,682.095 418.315,682.095 419.036,682.327 
	421.199,683.535 422.39,683.77 423.6,683.77 424.808,683.048 426.719,680.885 427.928,680.648 429.138,680.885 431.768,681.858 
	434.655,681.858 436.098,681.605 437.306,681.138 438.025,680.163 438.513,678.973 439.471,677.998 440.912,677.279 
	442.589,677.533 444.029,678.488 445.477,679.929 446.449,680.416 447.169,679.692 447.637,678.722 447.637,677.533 
	447.637,676.087 447.637,674.88 447.888,673.925 448.611,673.437 449.335,674.393 451.243,678.251 453.66,681.371 455.338,682.581 
	456.547,683.535 458.222,683.535 463.509,678.973 493.08,675.113 495.011,674.158 495.731,673.203 495.497,671.76 495.497,670.063 
	496.22,668.388 498.852,665.736 500.78,664.779 502.71,664.779 507.039,666.223 509.438,665.99 510.879,665.736 514.72,663.338 
	519.302,666.711 527.955,668.62 529.398,669.597 529.632,670.786 528.424,673.203 528.912,674.88 530.354,675.6 535.17,677.279 
	536.612,678.488 537.081,679.441 537.081,680.163 536.847,681.371 535.403,683.535 534.918,684.979 534.684,686.42 535.403,688.351 
	536.612,689.071 537.568,689.304 538.523,688.585 539.497,686.42 540.453,685.935 541.897,686.187 548.866,695.312 551.994,700.36 
	554.4,706.132 554.878,707.34 554.878,708.781 554.4,709.991 553.437,710.711 552.239,710.944 549.353,711.18 548.144,711.667 
	547.188,712.623 546.945,714.316 547.665,715.76 549.11,717.203 550.073,718.88 550.073,719.113 550.073,720.322 550.794,726.326 
	551.271,728.258 552.473,730.654 553.914,731.863 555.124,732.098 556.079,731.631 556.8,731.141 558.485,728.979 559.208,728.258 
	560.896,728.491 562.336,730.421 564.502,734.028 565.942,735.957 567.385,737.399 570.028,739.311 571.469,739.797 
	572.671,740.033 574.112,739.797 575.32,739.311 576.276,738.591 577.241,737.399 577.72,736.19 578.439,735.236 579.405,734.262 
	581.093,734.028 582.045,734.983 582.534,735.957 582.534,737.399 583.011,738.843 584.454,740.286 586.861,742.451 
	590.226,744.612 591.911,745.082 592.632,745.802 593.109,746.525 593.353,749.411 594.31,751.573 595.518,752.062 596.715,751.824 
	600.799,748.688 601.765,747.966 603.206,748.219 603.931,749.175 604.65,750.854 605.848,751.104 606.813,750.385 607.292,749.665 
	608.014,748.219 612.342,737.636 613.306,736.426 614.271,735.236 615.95,734.514 617.39,734.514 620.763,734.028 622.926,732.82 
	625.324,733.074 632.783,737.399 634.226,737.868 635.666,738.123 637.112,737.868 650.337,733.307 651.779,732.351 
	652.979,730.654 653.458,728.258 653.222,726.326 652.979,724.418 652.979,722.485 653.222,720.088 654.178,716.229 653.944,713.83 
	652.735,710.458 653.458,708.547 654.9,706.132 669.57,695.799 671.013,694.356 673.896,689.54 674.86,688.098 676.538,687.376 
	677.98,687.144 679.19,686.654 679.912,685.463 680.146,684.492 679.19,681.605 681.832,680.885 683.52,679.441 683.998,678.488 
	686.158,673.673 687.125,672.717 687.846,671.994 688.803,672.228 689.523,672.949 689.766,674.158 689.766,675.6 689.288,678.251 
	689.288,679.206 690.242,679.929 691.686,679.441 692.653,678.488 694.339,676.81 697.699,674.646 698.898,673.437 701.308,669.83 
	702.993,667.901 703.95,666.944 705.634,666.459 707.798,665.99 714.293,667.668 717.176,669.597 718.618,671.037 719.34,672.717 
	719.34,673.925 719.34,676.556 719.818,677.533 721.261,678.488 723.667,679.206 725.59,680.885 727.753,681.858 731.125,681.858 
	733.044,681.371 734.486,680.416 736.174,678.973 738.57,677.998 745.55,677.533 750.836,679.692 762.86,687.376 764.063,687.862 
	765.505,688.351 768.146,688.351 770.311,688.098 771.997,687.629 773.681,686.654 774.879,685.701 775.601,684.256 
	777.046,681.858 777.765,680.648 778.732,679.929 780.174,680.163 781.851,681.138 784.5,684.022 787.145,687.862 788.584,689.304 
	790.026,690.514 794.357,692.19 796.276,693.4 799.164,696.032 810.225,704.454 813.83,704.939 814.075,708.295 814.799,709.502 
	815.752,710.711 835.23,722 837.39,724.166 838.836,726.093 839.556,728.744 840.041,733.307 840.041,734.747 840.041,736.19 
	839.8,737.399 839.322,738.843 838.6,740.286 837.88,741.729 835.715,744.849 835.23,745.802 834.992,746.777 835.23,748.455 
	835.949,749.897 837.157,750.618 838.356,750.618 839.8,750.385 841.244,750.618 842.928,751.573 850.377,759.995 851.582,761.926 
	852.538,763.601 852.784,764.811 852.784,766.253 852.784,767.441 852.784,768.415 852.061,770.096 851.582,772.492 
	853.025,772.745 856.869,772.492 854.228,778.028 855.191,781.401 858.077,783.312 862.159,784.521 862.637,785.008 
	863.125,785.727 863.603,786.449 864.801,786.919 865.525,786.683 870.818,784.521 874.424,783.564 884.044,784.032 
	885.484,783.564 887.884,782.59 889.813,779.959 890.533,778.983 891.012,777.072 890.771,775.863 890.048,774.906 889.813,774.421 
	889.093,773.212 889.093,772.024 890.533,771.537 892.698,772.257 893.421,772.745 894.618,773.464 896.307,773.7 898.469,771.771 
	898.703,771.537 898.947,770.813 898.947,770.328 898.703,769.858 897.747,768.415 897.504,767.694 897.747,766.974 
	898.469,766.488 899.912,766.721 900.867,766.488 901.589,765.279 901.589,763.368 901.114,763.368 898.703,761.436 
	898.469,761.436 904.475,756.387 907.847,754.714 912.651,752.781 912.41,752.781 912.651,752.781 913.13,750.618 913.619,749.897 
	913.374,747.966 912.651,747.011 911.688,746.057 910.731,745.082 907.847,738.843 905.917,736.426 903.751,735.236 
	903.272,734.262 902.799,732.098 902.309,727.771 902.553,727.771 903.031,726.578 905.197,724.166 905.917,722.72 906.16,719.365 
	904.475,712.153 904.719,709.502 906.638,702.778 907.36,701.802 909.289,700.847 909.768,698.449 909.046,694.589 909.046,694.589 
	909.046,693.866 909.046,693.866 908.803,693.147 908.803,692.678 908.803,692.678 909.046,691.958 909.289,690.984 
	910.245,690.027 910.731,689.071 911.688,687.144 911.932,686.187 911.932,686.187 911.688,682.813 912.41,679.929 916.259,676.087 
	917.458,673.673 917.458,673.673 917.223,667.179 911.209,656.85 910.731,648.189 911.688,644.351 912.651,641.211 913.619,639.301 
	914.573,638.092 915.294,636.417 915.538,633.53 916.503,630.88 925.158,618.617 926.601,615.732 927.557,612.361 927.8,608.03 
	928.763,603.705 930.929,601.794 933.572,600.585 935.49,597.466 935.49,594.579 934.77,591.929 934.049,589.279 933.572,586.644 
	933.572,583.994 934.77,578.459 935.49,576.058 936.212,574.13 937.178,572.94 937.897,570.775 938.142,566.917 938.862,565.003 
	940.539,563.312 943.914,560.678 943.914,560.678 943.914,559.234 942.472,554.656 942.472,547.442 943.669,540.715 949.44,531.574 
	950.883,530.616 953.287,529.895 955.453,527.966 959.06,523.403 960.738,522.447 962.665,520.517 964.11,518.589 964.831,516.91 
	964.831,513.07 965.553,511.143 967.229,510.653 971.08,510.653 972.044,510.185 973.001,509.462 973.244,508.255 973.487,506.327 
	974.208,505.369 974.686,504.648 975.163,504.163 976.374,504.163 981.422,501.277 982.142,500.558 983.818,497.672 990.077,480.61 
	994.405,472.425 997.045,469.306 997.29,469.071 "/>
</svg>
