<?xml version="1.0" encoding="utf-8"?>
<!-- Generator: Adobe Illustrator 16.0.4, SVG Export Plug-In . SVG Version: 6.00 Build 0)  -->
<!DOCTYPE svg PUBLIC "-//W3C//DTD SVG 1.1//EN" "http://www.w3.org/Graphics/SVG/1.1/DTD/svg11.dtd">
<svg version="1.1" id="Calque_1" xmlns="http://www.w3.org/2000/svg" xmlns:xlink="http://www.w3.org/1999/xlink" x="0px" y="0px"
	 width="500px" height="500px" viewBox="0 0 500 500" enable-background="new 0 0 500 500" xml:space="preserve">
<polygon fill="#FFFFFF" stroke="#010101" stroke-width="2" stroke-linecap="round" stroke-linejoin="round" points="
	634.064,-168.237 631.414,-174.406 629.13,-177.706 627.591,-181.407 627.991,-189.21 627.591,-194.979 627.591,-195.379 
	624.168,-194.577 621.145,-195.379 608.964,-202.782 608.964,-202.782 610.874,-202.38 610.874,-202.38 610.874,-203.212 
	610.478,-207.717 609.336,-213.484 608.193,-213.885 608.964,-218.42 610.106,-220.887 612.017,-222.952 612.017,-222.952 
	613.158,-224.586 615.81,-227.055 615.81,-227.055 620.745,-231.157 626.078,-233.625 626.078,-233.625 626.078,-236.091 
	624.565,-238.992 623.426,-242.692 619.604,-258.299 617.323,-259.533 615.042,-259.131 610.874,-257.064 607.826,-258.73 
	608.193,-265.299 612.388,-280.105 613.53,-286.674 614.668,-289.974 616.952,-293.275 621.884,-297.776 621.884,-297.776 
	624.168,-300.247 624.565,-304.378 623.426,-306.846 620.745,-309.313 617.723,-311.349 615.81,-311.781 613.158,-310.546 
	613.158,-310.546 612.759,-308.48 613.158,-305.611 612.017,-304.378 611.619,-303.946 607.455,-306.013 601.748,-319.985 
	597.184,-324.519 592.622,-327.387 585.377,-336.023 581.213,-338.088 576.248,-337.688 562.561,-331.088 557.626,-331.088 
	553.832,-333.153 550.009,-336.023 545.445,-338.49 536.319,-339.723 526.822,-338.923 523.771,-337.688 523.771,-337.688 
	522.258,-335.623 518.463,-328.219 517.321,-325.351 516.925,-324.119 516.554,-324.119 515.783,-323.285 515.412,-323.686 
	515.042,-323.686 515.042,-323.686 514.273,-321.218 514.273,-321.218 506.656,-329.052 504.772,-343.857 504.772,-361.129 
	502.864,-375.503 499.07,-382.502 494.877,-387.037 490.312,-389.504 485.377,-390.74 471.289,-390.74 468.263,-392.774 
	470.547,-396.906 470.918,-400.175 469.405,-401.842 466.354,-403.074 463.303,-402.644 461.021,-401.009 458.74,-398.943 
	455.716,-396.475 446.188,-392.372 440.882,-391.972 437.063,-393.206 427.564,-398.542 424.911,-401.009 421.486,-405.542 
	420.349,-409.644 419.946,-421.581 414.245,-442.554 412.359,-453.227 415.384,-459.395 413.104,-468.03 411.222,-471.731 
	408.167,-472.564 405.118,-472.964 403.605,-475.434 400.953,-482.433 397.899,-488.203 394.108,-495.172 390.684,-498.874 
	384.981,-500.94 367.468,-495.172 356.058,-491.07 351.124,-487.77 351.124,-487.77 346.93,-483.268 340.487,-470.928 
	340.487,-470.928 337.805,-468.462 334.381,-469.265 333.241,-469.696 315.758,-478.333 311.963,-482.033 310.821,-484.501 
	307.771,-491.903 306.63,-494.371 298.272,-502.574 296.732,-505.473 296.361,-507.941 295.219,-509.976 292.169,-511.642 
	290.288,-512.043 286.093,-511.211 284.181,-511.642 281.159,-512.043 279.618,-512.875 278.479,-514.91 276.596,-519.847 
	275.454,-521.08 272.772,-522.745 272.401,-523.979 272.401,-525.614 274.312,-529.716 274.312,-532.183 270.121,-548.222 
	271.262,-551.923 276.195,-557.29 276.195,-557.29 277.735,-559.325 276.965,-566.727 273.543,-572.495 265.559,-581.964 
	263.646,-588.934 261.365,-605.403 258.342,-614.041 257.941,-614.041 254.92,-611.573 246.161,-607.04 228.279,-602.104 
	215.357,-603.739 213.447,-603.339 211.166,-602.104 173.515,-588.934 138.546,-584 131.301,-579.064 127.511,-580.298 
	85.674,-560.558 78.83,-553.588 72.747,-544.12 68.944,-540.018 64.759,-538.352 60.198,-537.951 58.293,-537.119 52.973,-532.183 
	52.973,-530.549 53.729,-525.213 57.15,-511.642 58.679,-503.005 57.15,-496.006 54.87,-490.668 50.307,-475.864 49.165,-469.265 
	49.165,-461.461 51.449,-445.823 52.587,-428.151 53.729,-423.216 59.435,-413.347 52.587,-408.009 51.833,-392.774 
	51.449,-375.503 47.646,-362.764 47.646,-360.297 59.435,-350.026 59.435,-347.958 56.012,-348.792 51.071,-349.593 
	46.506,-339.723 44.988,-325.351 44.602,-313.816 46.506,-310.546 56.012,-305.611 57.914,-301.078 59.435,-296.976 
	62.855,-294.076 67.042,-292.441 71.605,-292.441 71.605,-289.574 67.042,-289.574 68.184,-286.674 69.325,-285.039 
	70.842,-284.638 73.125,-284.638 73.125,-282.172 71.228,-280.105 68.944,-280.105 47.646,-291.609 40.038,-290.376 
	32.438,-279.704 27.875,-259.964 25.968,-257.064 23.312,-254.596 11.902,-239.392 7.715,-235.692 38.897,-211.85 75.027,-171.137 
	78.071,-165.771 81.11,-151.397 83.394,-146.031 87.958,-137.828 89.86,-132.892 90.63,-130.423 91.002,-126.292 89.096,-123.824 
	85.297,-121.356 83.394,-118.889 75.792,-105.751 74.65,-101.216 74.65,-98.348 76.934,-97.917 78.83,-98.748 81.11,-99.581 
	83.394,-100.383 85.297,-99.981 86.815,-97.114 85.674,-93.814 83.013,-89.279 80.732,-87.244 76.169,-84.345 75.027,-82.31 
	75.406,-80.243 76.547,-78.177 77.688,-75.709 77.688,-68.738 78.452,-58.037 79.213,-54.334 80.355,-49.8 81.11,-37.465 
	81.874,-33.362 83.394,-30.895 84.533,-30.895 86.061,-31.295 87.958,-32.529 90.231,-33.362 92.512,-32.961 94.051,-29.26 
	93.654,-25.96 92.512,-21.858 90.63,-20.192 89.489,-19.39 88.341,-19.39 87.958,-18.558 87.199,-16.922 85.674,-11.988 
	83.776,-6.621 82.636,-2.118 83.776,12.687 89.86,38.594 95.565,54.232 97.076,59.998 97.076,60.4 96.704,60.801 95.565,61.633 
	93.654,62.035 92.14,61.233 91.371,60.801 91.002,60.4 88.718,56.297 86.815,54.232 84.533,53 82.252,53.398 79.968,54.633 
	77.311,59.569 76.934,60.4 77.311,62.866 78.452,67.401 81.874,70.671 82.252,73.139 83.013,77.271 84.533,79.738 87.199,82.207 
	89.86,83.007 92.14,83.441 98.987,83.441 109.256,87.141 115.729,88.374 119.523,90.011 127.139,87.943 137.407,87.542 
	141.57,86.708 144.992,84.674 154.119,77.271 156.8,75.207 160.226,73.971 162.108,74.372 163.647,76.038 165.159,78.074 
	168.211,80.542 173.913,83.841 176.938,83.841 182.271,85.076 196.333,91.644 199.387,92.477 202.436,92.075 210.024,87.141 
	213.847,85.909 217.269,87.141 255.289,109.749 257.572,109.749 261.365,108.112 262.904,108.917 264.047,110.583 265.186,112.619 
	267.067,115.918 271.632,120.018 281.159,115.084 286.464,116.317 290.288,120.854 292.939,122.919 295.219,122.919 
	299.783,120.854 301.693,121.686 303.576,123.721 304.718,124.954 306.999,125.788 309.282,125.788 310.821,124.954 
	311.963,123.721 313.104,121.686 315.386,119.618 317.669,119.218 319.949,119.618 331.728,123.32 348.841,120.018 352.266,118.386 
	354.546,119.218 357.6,122.086 359.482,122.086 362.905,118.786 365.956,117.15 369.007,116.75 372.43,117.15 374.713,115.918 
	379.645,112.215 392.966,116.75 394.849,119.218 397.13,122.086 400.182,130.323 400.554,133.589 400.182,137.292 399.04,139.757 
	398.673,141.825 398.673,143.46 399.412,146.36 400.953,148.828 432.128,178.836 434.779,179.669 438.202,177.604 440.113,177.202 
	441.625,178.836 442.396,180.902 443.535,186.239 443.535,190.342 443.909,192.808 445.817,196.51 453.805,202.676 457.227,204.344 
	460.279,205.146 466.725,203.912 469.776,196.108 472.06,191.575 473.97,188.707 487.66,173.902 489.17,171.035 490.312,167.333 
	491.083,164.865 493.734,162.397 497.529,159.498 500.209,154.562 503.631,150.46 505.915,148.828 507.425,147.161 508.567,144.694 
	508.567,141.424 507.425,139.757 505.515,138.525 503.631,138.125 501.351,138.125 494.105,138.956 492.226,138.125 
	490.312,136.891 489.941,135.256 489.544,134.422 489.544,132.356 489.941,130.722 490.312,128.656 493.367,126.189 
	495.248,124.553 497.157,121.686 499.07,117.983 499.441,114.683 499.441,112.215 498.671,107.281 498.3,104.814 498.3,102.748 
	498.671,100.712 499.808,99.045 500.949,97.41 504.002,96.178 506.283,96.178 515.412,97.814 518.064,97.41 519.974,96.579 
	522.258,94.945 524.17,92.477 525.309,89.177 524.909,87.141 524.17,85.909 520.348,83.441 518.836,81.774 517.321,79.738 
	516.183,77.673 514.273,76.84 512.361,76.84 510.479,76.439 509.709,74.802 508.938,72.737 508.567,70.271 507.797,54.633 
	507.425,52.164 506.656,49.296 504.373,43.961 504.002,41.495 508.195,37.793 515.783,33.66 534.038,27.924 547.729,25.857 
	549.268,25.455 550.009,23.79 550.009,21.322 549.639,18.855 549.639,16.82 551.15,14.752 553.832,13.119 559.135,13.119 
	561.815,13.519 564.1,14.752 570.175,19.688 572.459,20.089 574.738,19.688 577.022,17.219 579.675,16.82 581.213,17.219 
	585.006,20.089 587.287,20.922 589.199,20.089 590.713,18.455 591.481,15.155 592.224,12.687 592.622,3.65 590.713,-1.685 
	587.658,-3.353 588.801,-6.22 589.942,-8.287 591.852,-9.922 596.047,-10.755 594.904,-14.857 591.081,-22.257 589.571,-25.127 
	589.571,-28.426 591.081,-31.728 594.904,-35.831 596.047,-37.895 595.646,-41.597 594.904,-44.865 594.502,-47.765 
	595.646,-51.467 596.417,-54.334 595.646,-57.635 594.502,-60.104 593.762,-62.569 592.622,-67.503 591.081,-72.841 
	590.342,-75.307 592.224,-78.177 594.136,-79.842 596.417,-80.243 600.978,-80.243 603.262,-81.476 605.914,-83.543 
	608.964,-89.712 611.248,-92.981 613.53,-95.047 615.438,-95.881 617.323,-97.516 620.745,-102.048 628.732,-109.852 
	630.644,-112.32 631.414,-115.62 631.78,-120.554 630.272,-124.656 626.85,-128.358 626.078,-130.825 627.591,-143.562 
	629.13,-147.697 632.556,-153.865 634.437,-158.799 634.835,-160.835 634.835,-164.135 "/>
<polygon fill="#FFFFFF" stroke="#010101" stroke-width="2" stroke-linecap="round" stroke-linejoin="round" points="95.565,54.232 
	89.86,38.594 83.776,12.687 82.636,-2.118 83.776,-6.621 85.674,-11.988 87.199,-16.922 87.958,-18.558 88.341,-19.39 
	89.489,-19.39 90.63,-20.192 92.512,-21.858 93.654,-25.96 94.051,-29.26 92.512,-32.961 90.231,-33.362 87.958,-32.529 
	86.061,-31.295 84.533,-30.895 83.394,-30.895 81.874,-33.362 81.11,-37.465 80.355,-49.8 79.213,-54.334 78.452,-58.037 
	77.688,-68.738 77.688,-75.709 76.547,-78.177 75.406,-80.243 75.027,-82.31 76.169,-84.345 80.732,-87.244 83.013,-89.279 
	85.674,-93.814 86.815,-97.114 85.297,-99.981 83.394,-100.383 81.11,-99.581 78.83,-98.748 76.934,-97.917 74.65,-98.348 
	74.65,-101.216 75.792,-105.751 83.394,-118.889 85.297,-121.356 89.096,-123.824 91.002,-126.292 90.63,-130.423 89.86,-132.892 
	87.958,-137.828 83.394,-146.031 81.11,-151.397 78.071,-165.771 75.027,-171.137 38.897,-211.85 7.715,-235.692 -16.622,-214.317 
	-25.369,-204.014 -30.697,-201.979 -36.015,-197.445 -125.769,-166.202 -144.4,-166.603 -161.513,-159.603 -169.885,-153.433 
	-177.487,-150.966 -204.868,-133.293 -207.148,-129.592 -235.672,-115.62 -237.576,-113.154 -240.236,-113.154 -250.888,-103.684 
	-254.312,-99.15 -263.054,-67.503 -274.084,-45.299 -274.848,-42.399 -275.226,-38.698 -274.462,-35.43 -271.425,-33.362 
	-270.661,-30.895 -268.757,-27.595 -264.195,-24.727 -259.253,-23.092 -255.453,-22.661 -251.266,-22.661 -235.672,-16.922 
	-217.418,-14.023 -199.548,-16.922 -183.954,-27.595 -187.753,-22.257 -191.941,-18.157 -201.831,-12.389 -229.212,-5.819 
	-256.209,0.781 -270.661,12.286 -275.603,20.922 -277.885,22.555 -282.834,24.222 -288.539,29.959 -298.806,35.324 -333.789,43.961 
	-339.494,49.698 -359.651,36.127 -370.683,33.259 -377.143,28.724 -380.95,27.09 -396.16,27.09 -405.287,22.555 -410.613,20.922 
	-418.601,25.857 -423.919,25.455 -433.432,22.155 -470.695,19.688 -496.557,8.985 -525.082,7.352 -528.881,9.416 -532.689,13.519 
	-534.208,18.455 -531.928,22.155 -531.928,24.622 -536.111,25.857 -538.393,24.622 -540.291,22.155 -542.572,19.688 
	-544.854,20.089 -547.52,21.755 -549.04,22.155 -549.802,18.455 -549.417,17.219 -548.276,15.584 -547.52,12.687 -547.136,8.584 
	-547.9,0.781 -549.802,-4.585 -566.531,-27.193 -569.575,-37.465 -573.377,-43.632 -576.421,-51.034 -575.279,-59.67 
	-573.762,-61.337 -571.858,-62.139 -566.916,-62.139 -566.153,-63.804 -565.774,-67.074 -564.635,-70.374 -558.929,-74.907 
	-560.07,-81.077 -565.013,-92.178 -565.774,-98.348 -566.916,-100.815 -568.434,-101.617 -594.676,-106.984 -598.861,-106.552 
	-608.744,-103.283 -611.789,-100.383 -617.494,-92.178 -620.915,-88.878 -624.716,-86.812 -627.384,-87.244 -631.946,-88.878 
	-634.229,-89.279 -636.887,-88.479 -639.548,-85.177 -641.829,-84.345 -643.356,-85.177 -643.733,-86.812 -643.733,-88.479 
	-644.111,-89.279 -647.534,-89.279 -663.893,-95.047 -678.339,-97.516 -682.902,-99.15 -684.042,-99.581 -686.325,-99.15 
	-687.465,-99.15 -688.229,-101.216 -689.37,-105.319 -690.132,-106.984 -692.413,-107.787 -698.497,-106.984 -701.157,-107.787 
	-705.342,-111.086 -707.624,-111.918 -713.327,-111.086 -714.091,-108.217 -713.706,-102.851 -715.609,-94.214 -706.105,-90.112 
	-698.874,-88.479 -696.978,-86.012 -695.835,-82.31 -693.933,-78.177 -692.413,-73.242 -692.413,-67.074 -693.554,-55.97 
	-694.696,-52.269 -700.779,-46.1 -702.297,-41.165 -701.157,-38.698 -695.452,-31.295 -693.554,-27.595 -692.791,-24.727 
	-692.413,-22.661 -692.029,-21.024 -688.99,-14.857 -688.229,-12.389 -687.465,-9.922 -687.088,-4.987 -688.229,7.352 
	-687.465,12.286 -685.184,14.752 -682.902,14.353 -679.865,13.119 -676.819,12.286 -677.582,13.519 -677.961,14.752 
	-678.339,17.219 -674.16,19.688 -669.212,25.857 -665.41,28.325 -663.506,22.155 -661.988,22.155 -658.944,29.557 -658.944,32.024 
	-663.506,32.024 -661.988,37.359 -659.33,41.495 -652.861,46.829 -654.001,47.229 -654.379,48.063 -655.905,49.698 -652.861,53.832 
	-649.06,66.968 -645.638,71.504 -643.733,64.503 -639.17,64.935 -633.464,67.801 -628.902,69.036 -628.902,71.504 -636.887,69.036 
	-640.688,69.036 -642.592,72.737 -642.214,79.307 -641.074,86.309 -639.932,92.879 -638.028,98.645 -636.887,97.011 
	-636.125,96.579 -633.464,98.645 -638.028,101.946 -639.17,103.98 -641.074,108.516 -641.829,113.45 -642.214,117.552 
	-641.074,120.018 -638.028,120.854 -638.792,124.553 -639.548,128.254 -639.548,136.891 -638.792,139.757 -637.266,143.46 
	-635.748,145.526 -634.983,143.892 -633.464,138.525 -629.281,136.057 -624.339,136.057 -620.153,138.125 -620.153,140.191 
	-625.48,137.723 -628.524,139.358 -629.664,144.694 -632.325,165.264 -631.185,167.333 -628.524,168.134 -627.761,170.2 
	-627.761,173.5 -628.902,177.604 -630.806,174.302 -632.325,178.005 -634.229,195.277 -635.748,199.41 -638.028,202.676 
	-641.074,203.912 -641.074,206.81 -635.748,208.045 -633.087,213.783 -631.946,222.417 -631.946,231.886 -630.042,240.523 
	-622.057,248.326 -620.153,256.561 -619.011,259.027 -616.352,260.664 -608.744,263.131 -607.603,264.797 -606.848,266.43 
	-606.848,268.898 -606.084,270.533 -604.942,270.131 -603.802,268.496 -603.802,267.664 -595.438,268.496 -590.49,271.365 
	-587.067,277.533 -595.053,274.234 -618.634,280 -635.748,277.533 -638.028,277.936 -637.651,278.768 -636.887,281.637 
	-636.511,283.301 -636.125,285.771 -634.229,290.703 -630.806,298.105 -629.281,302.207 -628.524,303.844 -627.761,305.91 
	-627.384,310.012 -626.62,312.48 -624.716,317.414 -618.256,330.182 -616.352,332.219 -611.025,336.352 -609.506,338.387 
	-607.224,340.451 -603.802,341.688 -598.861,341.285 -592.772,338.82 -589.348,336.352 -584.785,331.816 -582.505,330.182 
	-577.561,328.115 -575.659,326.883 -573.762,325.246 -572.234,323.182 -569.198,317.846 -567.294,315.777 -563.493,315.379 
	-558.166,315.777 -535.726,322.779 -532.304,326.051 -526.599,328.949 -515.955,330.986 -508.345,330.986 -501.122,328.518 
	-499.981,328.115 -499.604,327.283 -498.077,326.48 -495.417,325.648 -491.232,328.115 -490.476,328.518 -488.95,328.949 
	-487.431,329.35 -479.446,327.713 -476.021,331.418 -473.362,335.92 -470.695,342.518 -469.555,344.555 -468.036,345.791 
	-466.132,344.986 -464.613,343.754 -462.709,343.754 -461.191,344.986 -459.672,347.023 -458.147,348.689 -455.864,349.09 
	-453.206,348.258 -451.686,346.219 -451.301,343.754 -450.923,342.088 -449.019,340.855 -438.373,337.988 -436.469,337.988 
	-434.95,340.055 -434.187,342.088 -433.432,343.754 -431.149,344.555 -412.51,339.619 -410.228,338.387 -408.332,336.754 
	-400.724,328.115 -398.82,326.883 -396.923,326.051 -393.879,326.051 -383.231,326.883 -368.4,331.418 -365.356,330.582 
	-364.215,329.35 -363.074,327.283 -361.169,324.014 -358.511,322.779 -355.465,321.947 -350.523,321.947 -347.865,320.713 
	-345.96,319.08 -344.82,316.613 -344.057,314.545 -344.442,312.078 -344.82,309.611 -344.057,307.977 -342.538,306.742 
	-328.847,312.48 -326.943,314.145 -326.188,316.613 -326.566,320.713 -327.705,323.182 -327.329,327.283 -325.047,332.219 
	-317.816,341.285 -314.017,344.986 -310.592,346.621 -308.688,346.621 -306.792,347.023 -305.268,349.922 -303.748,352.789 
	-302.985,370.895 -290.057,368.828 -287.774,369.229 -285.115,369.662 -281.308,371.297 -278.271,371.297 -276.745,369.662 
	-276.366,365.125 -275.603,363.494 -274.084,362.258 -272.944,361.43 -271.425,361.023 -269.898,361.023 -267.239,360.193 
	-266.477,359.361 -264.957,358.125 -263.439,355.658 -261.912,352.391 -260.394,349.922 -258.111,347.855 -255.453,347.023 
	-253.17,345.791 -249.748,342.518 -230.352,337.586 -227.308,337.586 -223.885,338.387 -214.758,342.924 -212.099,344.555 
	-210.573,346.621 -209.431,349.922 -209.053,352.391 -209.053,355.258 -210.195,364.727 -209.816,374.596 -209.053,379.1 
	-208.292,382.801 -206.394,387.732 -204.112,390.637 -200.69,393.502 -194.986,397.605 -190.421,398.438 -187.753,397.605 
	-185.473,396.803 -183.954,397.605 -182.812,400.506 -182.434,402.975 -182.434,405.008 -182.812,408.307 -182.434,409.541 
	-179.39,411.176 -160.758,416.943 -152.386,417.346 -152.009,416.943 -151.63,416.545 -150.869,415.711 -148.586,415.711 
	-145.925,417.775 -142.12,422.713 -137.557,430.914 -135.659,433.814 -133.376,436.283 -128.052,439.984 -123.488,441.217 
	-117.405,439.553 -114.739,437.916 -113.22,436.283 -111.699,434.215 -111.313,431.348 -112.077,427.646 -113.22,424.746 
	-117.019,417.775 -117.405,416.943 -117.783,415.711 -118.161,413.244 -118.161,410.373 -117.405,405.84 -117.783,402.975 
	-118.546,400.506 -120.063,399.271 -121.582,397.203 -122.724,394.738 -121.582,390.637 -120.828,388.17 -119.685,386.934 
	-118.161,386.502 -114.36,385.699 -111.313,384.865 -96.483,378.299 -91.921,374.998 -85.461,368.43 -84.318,366.361 
	-83.176,361.43 -82.039,359.361 -80.896,356.893 -78.994,354.424 -77.852,351.957 -78.23,349.492 -80.51,345.791 -82.416,343.324 
	-83.935,341.285 -84.696,339.221 -85.073,335.92 -85.073,333.451 -85.073,330.986 -84.318,328.518 -84.318,328.115 -83.935,326.883 
	-83.935,325.246 -84.318,322.779 -85.461,320.312 -96.867,306.311 -103.328,302.207 -105.995,298.91 -109.797,291.105 
	-112.077,285.771 -113.596,269.73 -106.372,261.496 -104.092,259.43 -101.432,257.795 -80.51,251.227 -78.23,251.227 
	-75.946,251.627 -73.666,251.227 -71.383,249.992 -69.486,247.092 -68.348,244.625 -66.82,242.156 -64.922,240.523 -61.878,239.29 
	-59.597,238.889 -55.034,239.29 -54.656,239.29 -53.892,239.29 -52.373,238.889 -51.235,237.655 -50.471,235.588 -50.471,231.054 
	-49.707,229.417 -48.565,229.019 -45.906,230.25 -40.201,235.988 -37.921,236.821 -35.638,237.22 -33.358,237.655 -25.75,236.821 
	-23.466,237.22 -21.57,238.054 -19.667,239.689 -19.289,239.689 -18.525,239.29 -17.383,238.889 -8.256,233.119 -2.931,230.653 
	-0.648,228.586 1.632,226.12 3.152,221.184 3.915,217.483 5.435,214.213 7.715,210.913 12.656,205.979 16.079,203.512 
	21.406,200.642 23.312,198.978 24.828,196.51 25.592,192.808 25.592,190.342 23.688,182.537 24.066,179.669 25.206,177.604 
	33.956,171.834 32.816,167.333 32.438,165.264 32.816,162.397 32.816,159.929 31.675,158.696 29.772,157.865 27.875,157.865 
	25.968,157.031 24.828,154.995 24.828,152.93 24.828,151.294 25.592,147.995 25.592,146.759 25.592,144.694 25.206,142.657 
	22.925,137.292 23.312,134.822 25.592,132.788 52.973,125.788 61.714,120.453 71.983,81.774 78.452,67.401 77.311,62.866 
	76.934,60.4 77.311,59.569 79.968,54.633 82.252,53.398 84.533,53 86.815,54.232 88.718,56.297 91.002,60.4 91.371,60.801 
	92.14,61.233 93.654,62.035 95.565,61.633 96.704,60.801 97.076,60.4 97.076,59.998 "/>
<polygon id="Île-de-France" fill="#FFFFFF" stroke="#010101" stroke-width="2" stroke-linecap="round" stroke-linejoin="round" points="
	466.725,203.912 465.983,211.314 465.212,213.38 463.701,215.447 461.422,216.25 454.177,216.25 451.524,217.082 451.153,218.716 
	451.893,220.382 454.945,223.25 455.314,225.315 453.805,226.952 450.751,229.82 449.24,232.288 448.47,235.988 448.47,238.054 
	448.869,239.29 449.24,239.29 450.382,239.689 453.034,239.29 454.177,239.29 454.573,240.123 455.314,240.924 456.456,243.393 
	457.994,245.457 459.879,246.689 460.65,248.758 461.422,250.793 461.789,252.857 462.931,258.627 463.303,262.328 461.422,270.967 
	461.789,275.066 462.56,277.936 464.44,279.168 466.354,279.168 470.547,277.533 471.686,277.533 473.199,277.936 474.712,281.236 
	479.677,288.236 470.146,297.271 466.354,303.844 464.44,310.012 462.931,314.145 460.65,316.613 457.994,317.414 455.314,317.846 
	451.893,318.648 450.751,319.48 450.382,321.547 451.524,323.582 453.805,327.713 454.177,328.949 453.434,330.986 448.869,335.117 
	447.73,337.586 447.328,339.619 449.611,344.986 450.011,346.219 449.611,347.855 448.47,352.391 447.73,356.492 448.47,359.793 
	443.167,366.361 439.742,372.93 437.833,374.164 435.921,373.764 431.757,372.131 429.476,371.697 407.398,375.83 403.977,375.4 
	401.693,374.596 391.055,373.764 388.771,374.164 386.863,374.998 385.723,375.83 383.841,377.465 382.698,377.865 371.659,377.465 
	370.147,378.699 369.378,379.934 368.609,382.801 368.236,385.699 367.865,387.732 366.728,389.803 365.956,391.867 
	365.185,394.336 365.185,396.371 365.185,398.84 365.185,401.307 365.956,403.771 367.096,406.242 368.236,408.307 369.007,410.373 
	368.609,412.84 367.468,414.475 366.325,416.545 365.956,416.943 364.045,421.879 362.905,424.348 360.252,427.213 353.404,430.914 
	350.753,432.58 349.609,434.617 348.472,436.684 347.703,440.783 347.33,445.32 346.188,450.254 324.114,458.49 321.091,458.891 
	317.669,458.059 317.669,456.023 318.408,453.555 319.551,451.49 318.807,449.854 316.126,448.619 310.424,449.422 306.999,450.654 
	304.718,452.721 303.205,455.191 300.925,457.656 296.732,460.957 293.709,461.76 264.047,459.293 260.225,459.723 252.637,462.188 
	249.583,462.188 246.161,461.357 244.25,459.723 242.739,457.656 242.368,455.588 242.739,453.555 243.881,451.49 245.392,449.854 
	247.303,449.854 253.009,451.088 253.777,450.654 254.92,449.422 255.289,447.787 254.92,445.719 253.377,442.852 253.377,442.02 
	253.377,441.217 255.66,436.684 256.431,434.617 256.431,432.15 254.92,429.279 251.865,425.979 239.687,416.943 239.317,416.545 
	238.945,415.309 235.894,402.141 234.753,398.84 231.333,393.904 222.975,395.568 213.447,389.402 211.166,389.803 209.652,391.037 
	208.142,393.502 205.859,395.568 200.156,397.203 197.475,396.371 196.333,394.738 195.962,392.27 194.822,389.803 192.54,387.732 
	189.888,385.268 187.608,385.699 186.065,386.934 184.183,391.867 183.041,393.904 181.131,395.971 173.515,399.672 141.97,407.475 
	138.546,405.008 138.147,402.975 138.147,400.906 139.29,399.271 141.198,397.203 144.252,392.27 144.252,390.203 143.481,388.969 
	139.29,386.502 137.407,382.801 136.266,378.299 135.496,370.062 133.584,366.361 131.702,363.895 129.791,362.258 127.511,359.361 
	127.139,356.492 126.737,348.258 125.228,346.621 117.241,348.258 111.537,346.219 100.898,340.055 97.474,336.754 95.193,333.451 
	93.282,328.518 92.914,328.115 92.914,325.648 93.282,320.312 93.282,318.248 92.914,315.777 92.512,312.91 91.771,310.012 
	89.489,306.311 86.815,304.275 83.013,301.809 81.11,299.34 80.355,296.873 79.592,291.938 78.452,288.639 75.792,286.17 
	64.759,277.533 61.714,273.834 59.817,270.131 57.914,263.961 56.012,261.898 52.587,259.861 52.209,258.195 51.833,256.158 
	52.587,253.695 53.729,251.227 57.15,246.689 58.293,244.225 58.679,241.354 58.679,240.123 58.293,239.29 52.209,235.187 
	50.69,233.119 50.307,231.486 49.929,227.784 49.929,226.12 49.929,224.484 50.307,222.017 51.449,217.082 51.833,213.783 
	51.833,210.51 50.69,205.578 49.165,202.277 45.743,197.341 33.956,171.834 32.816,167.333 32.438,165.264 32.816,162.397 
	32.816,159.929 31.675,158.696 29.772,157.865 27.875,157.865 25.968,157.031 24.828,154.995 24.828,152.93 24.828,151.294 
	25.592,147.995 25.592,146.759 25.592,144.694 25.206,142.657 23.312,137.292 23.312,134.822 25.592,132.788 52.973,125.788 
	61.714,120.453 71.983,81.774 78.452,67.401 81.874,70.671 82.252,73.139 83.013,77.271 84.533,79.738 87.199,82.207 89.86,83.007 
	92.14,83.441 98.987,83.441 109.256,87.141 115.729,88.374 119.523,90.011 127.139,87.943 137.407,87.542 141.57,86.708 
	144.992,84.674 154.119,77.271 156.8,75.207 160.226,73.971 162.108,74.372 163.647,76.038 165.159,78.074 168.211,80.542 
	173.913,83.841 176.938,83.841 182.271,85.076 196.333,91.644 199.387,92.477 202.436,92.075 210.024,87.141 213.847,85.909 
	217.269,87.141 255.289,109.749 257.572,109.749 261.365,108.112 262.904,108.917 264.047,110.583 265.186,112.619 267.067,115.918 
	271.632,120.018 281.159,115.084 286.464,116.317 290.288,120.854 292.939,122.919 295.219,122.919 299.783,120.854 
	301.693,121.686 303.576,123.721 304.718,124.954 306.999,125.788 309.282,125.788 310.821,124.954 311.963,123.721 
	313.104,121.686 315.386,119.618 317.669,119.218 319.949,119.618 331.728,123.32 348.841,120.018 352.266,118.386 354.546,119.218 
	357.6,122.086 359.482,122.086 362.905,118.786 365.956,117.15 369.007,116.75 372.43,117.15 374.713,115.918 379.645,112.215 
	392.966,116.75 394.849,119.218 397.13,122.086 400.182,130.323 400.554,133.589 400.182,137.292 399.04,139.757 398.673,141.825 
	398.673,143.46 399.412,146.36 400.953,148.828 432.128,178.836 434.779,179.669 438.202,177.604 440.113,177.202 441.625,178.836 
	442.396,180.902 443.535,186.239 443.535,190.342 443.909,192.808 445.817,196.51 453.805,202.676 457.227,204.344 460.279,205.146 
	"/>
<polygon id="Centre" fill="#FFFFFF" stroke="#010101" stroke-width="2" stroke-linecap="round" stroke-linejoin="round" points="
	346.188,450.254 349.213,450.254 353.037,450.654 361.394,453.121 364.045,455.191 365.956,456.422 367.468,458.49 368.236,460.957 
	372.43,478.227 373.942,481.098 375.853,483.564 382.698,489.334 386.119,493.436 386.863,495.902 387.26,498.369 388.002,504.541 
	386.863,509.07 382.698,519.742 380.787,523.045 378.875,524.678 374.311,527.576 372.03,529.611 368.609,534.148 367.096,536.213 
	365.185,537.016 362.163,536.613 361.394,537.447 360.62,539.916 361.762,548.951 362.531,552.252 364.442,556.354 365.185,558.42 
	364.045,561.289 362.905,563.355 362.163,564.988 361.762,567.057 362.531,569.527 362.531,571.992 362.531,574.457 360.62,577.727 
	358.738,579.391 351.497,582.262 344.649,587.199 342.369,588.027 340.487,588.027 336.292,587.596 332.099,588.43 329.816,589.262 
	328.305,590.498 326.797,592.129 326.395,592.965 325.654,596.232 325.654,599.533 326.021,602.402 326.797,604.469 
	329.076,606.102 330.958,606.102 333.241,606.939 335.15,608.57 341.227,614.742 343.909,617.637 346.93,624.209 348.072,627.91 
	348.072,631.211 345.792,635.309 346.188,638.18 347.33,641.479 353.776,650.518 355.688,656.283 351.124,657.92 342.767,657.92 
	340.487,658.752 331.728,664.09 331.728,665.754 330.958,666.984 336.664,674.789 338.943,679.727 340.855,685.893 342.369,688.76 
	346.188,694.129 347.33,696.166 347.703,697.828 347.703,700.295 346.188,710.166 345.419,711.398 344.278,714.672 343.508,717.139 
	343.139,718.371 342.369,720.035 340.086,725.373 337.434,729.074 335.521,733.609 335.15,734.844 335.15,736.074 335.521,738.111 
	337.062,741.01 338.204,742.646 338.943,743.479 340.086,744.279 340.855,745.111 343.139,745.943 343.909,746.348 344.649,747.178 
	350.355,755.385 351.895,757.051 355.316,759.516 356.457,760.75 357.198,762.785 357.969,765.684 360.252,778.021 360.62,779.252 
	362.163,782.953 365.185,792.826 367.865,803.096 368.236,804.33 369.748,810.496 369.748,812.967 369.748,815.834 369.378,821.203 
	369.007,824.07 369.378,826.537 370.521,829.006 371.29,830.238 375.452,834.34 376.223,835.174 376.992,836.002 377.364,837.238 
	377.736,843.811 377.736,852.445 378.506,856.547 378.875,859.012 378.875,861.914 378.134,865.615 376.595,873.42 374.713,879.186 
	374.311,880.822 374.311,882.459 374.713,885.352 375.084,886.988 377.736,892.326 377.736,893.557 378.134,894.791 
	378.506,897.258 377.736,899.729 376.223,903.43 371.29,913.73 370.147,916.598 369.748,917.432 369.007,924.832 362.905,924.832 
	357.198,923.998 347.33,927.303 333.64,937.172 332.099,938.402 330.587,942.107 329.447,944.572 327.166,947.039 324.885,946.605 
	322.602,945.805 319.949,945.377 318.037,946.605 314.615,950.74 312.704,951.143 305.487,947.842 304.347,946.211 303.576,944.975 
	301.693,944.143 300.554,945.377 297.131,949.91 290.655,956.078 286.861,959.379 281.159,959.379 280.018,960.613 280.018,962.244 
	280.758,967.18 279.618,969.246 277.337,969.648 272.401,969.246 270.891,969.648 270.121,970.883 270.121,972.951 270.891,974.582 
	273.171,978.285 273.914,980.35 273.543,981.586 272.032,984.854 271.632,987.322 272.032,989.387 273.171,991.854 276.596,996.389 
	277.735,998.426 278.479,1000.492 278.875,1001.723 279.249,1003.361 279.249,1005.025 278.875,1006.658 278.106,1007.492 
	259.852,1013.227 249.583,1014.062 243.51,1015.695 241.598,1015.695 239.317,1015.295 235.894,1015.695 231.701,1016.932 
	218.411,1023.932 215.357,1029.699 213.077,1032.168 211.166,1033.398 209.652,1033.801 208.142,1035.033 207.001,1036.67 
	205.461,1040.801 199.756,1051.475 178.08,1050.24 166.671,1053.139 159.453,1049.838 146.904,1049.838 145.393,1049.438 
	140.829,1046.539 138.147,1045.738 118.751,1045.305 116.471,1045.738 114.188,1046.539 109.625,1050.24 107.743,1051.475 
	104.693,1051.074 102.781,1049.006 98.218,1042.438 96.334,1040.801 94.424,1040.801 92.512,1041.203 90.63,1044.07 
	90.231,1046.539 90.231,1048.604 90.63,1051.074 90.63,1053.139 89.86,1055.176 89.096,1057.242 87.199,1058.875 84.533,1059.707 
	75.406,1057.242 73.125,1058.076 70.464,1060.109 68.184,1062.178 66.278,1064.244 63.62,1064.645 59.817,1063.811 57.914,1061.775 
	57.538,1059.707 57.914,1057.645 56.773,1056.008 54.492,1054.773 48.788,1056.008 45.743,1055.176 43.46,1053.941 41.18,1053.541 
	37.757,1054.375 23.688,1070.41 16.842,1074.914 6.954,1067.943 5.813,1065.879 5.057,1063.412 3.529,1061.344 1.632,1059.707 
	-0.648,1059.311 -3.692,1060.943 -4.834,1063.01 -5.599,1065.045 -7.115,1067.109 -10.162,1067.943 -19.667,1069.178 
	-22.712,1069.178 -25.369,1068.746 -28.417,1066.281 -31.073,1065.879 -34.874,1062.576 -31.073,1048.604 -33.734,1044.502 
	-37.921,1041.605 -40.201,1039.971 -42.484,1036.268 -42.862,1033.398 -40.965,1025.162 -40.965,1023.932 -41.721,1021.863 
	-42.484,1020.232 -43.624,1017.764 -45.53,1015.695 -47.426,1014.062 -49.329,1013.227 -51.612,1012.426 -64.922,1012.426 
	-67.583,1011.191 -68.725,1009.127 -69.102,1003.789 -70.628,1002.127 -72.146,1001.32 -76.333,1000.09 -82.416,996.389 
	-87.357,991.455 -90.023,988.152 -91.921,984.854 -93.063,979.52 -93.823,974.984 -93.823,968.012 -93.445,965.945 -93.063,963.881 
	-92.304,961.412 -91.542,959.379 -91.542,956.078 -92.304,951.975 -94.965,945.805 -96.483,942.504 -101.048,936.738 
	-110.176,928.533 -136.038,886.988 -140.601,872.184 -142.881,867.248 -145.164,864.381 -147.445,862.717 -152.009,860.68 
	-164.18,852.445 -166.841,851.213 -167.218,852.043 -167.605,852.445 -167.218,853.68 -167.218,854.514 -167.218,857.379 
	-166.841,858.615 -166.463,859.449 -165.699,860.246 -165.321,861.482 -164.938,862.314 -164.561,863.547 -164.18,864.783 
	-164.18,866.016 -164.938,867.248 -166.841,868.082 -168.743,868.883 -186.236,869.715 -190.036,870.949 -191.941,871.783 
	-193.082,873.42 -194.601,875.053 -196.883,875.885 -206.772,873.82 -216.276,875.053 -220.463,873.82 -222.745,871.783 
	-224.264,869.316 -225.025,866.848 -225.404,864.381 -225.404,859.449 -225.404,852.846 -223.885,845.875 -223.507,841.742 
	-223.885,839.707 -224.649,838.041 -226.546,837.641 -231.109,837.238 -232.634,835.574 -233.776,831.875 -235.295,831.072 
	-237.197,830.639 -242.138,832.703 -244.799,833.537 -247.844,833.537 -249.748,832.303 -250.126,830.238 -249.748,827.771 
	-248.986,825.305 -248.607,822.834 -248.986,819.969 -249.748,817.502 -251.645,816.668 -256.593,818.732 -259.631,818.732 
	-260.772,817.07 -261.158,815.434 -261.158,812.967 -260.772,810.898 -261.912,808.863 -263.439,808.863 -267.239,811.332 
	-269.521,811.732 -271.425,810.898 -272.566,808.863 -273.706,806.398 -274.848,804.33 -277.13,799.799 -273.706,773.086 
	-269.898,753.748 -268.757,749.215 -267.617,746.748 -264.957,742.242 -258.875,733.176 -252.785,722.072 -252.785,719.201 
	-253.927,712.635 -253.548,709.334 -250.888,700.697 -250.126,695.762 -243.28,678.891 -242.903,676.426 -243.28,673.559 
	-244.799,667.387 -244.799,662.855 -244.043,658.752 -238.718,643.949 -229.212,646.816 -223.122,647.65 -210.573,651.752 
	-207.536,651.348 -206.772,649.715 -207.148,647.65 -207.913,643.545 -208.292,641.078 -208.292,638.611 -207.536,636.543 
	-204.868,634.076 -202.585,634.076 -197.645,637.377 -194.601,638.18 -193.082,637.377 -192.703,635.309 -190.799,633.246 
	-187.375,630.777 -178.629,628.74 -166.841,622.141 -164.18,621.34 -161.136,620.906 -158.855,620.105 -158.092,618.439 
	-158.092,616.406 -158.478,614.34 -160.375,609.404 -157.714,601.998 -152.772,596.232 -148.586,593.363 -145.925,592.531 
	-145.542,592.531 -140.601,589.664 -134.518,585.131 -131.473,582.262 -129.19,579.391 -123.488,560.055 -123.107,557.588 
	-123.107,555.119 -123.107,552.252 -123.488,549.787 -123.488,547.316 -123.488,544.418 -122.724,541.148 -121.582,537.447 
	-118.925,534.979 -115.881,532.512 -110.936,527.143 -109.034,523.879 -108.278,520.977 -109.797,516.043 -109.797,512.344 
	-109.419,508.24 -107.892,500.836 -107.515,497.135 -108.655,495.5 -112.456,495.068 -113.984,494.668 -114.739,493.031 
	-115.5,490.965 -116.641,488.502 -117.783,485.633 -117.783,482.734 -116.264,481.098 -114.36,480.697 -109.797,480.264 
	-107.892,479.861 -105.611,478.227 -105.611,476.162 -106.753,474.527 -108.655,473.295 -110.176,471.627 -110.176,468.76 
	-109.419,467.129 -106.753,465.459 -99.151,459.723 -94.586,457.656 -92.682,455.191 -92.682,453.121 -93.823,451.088 
	-95.729,449.854 -97.625,449.422 -104.47,449.02 -106.753,448.189 -117.405,439.553 -114.739,437.916 -113.22,436.283 
	-111.699,434.215 -111.313,431.348 -112.077,427.646 -113.22,424.746 -117.019,417.775 -117.405,416.943 -117.783,415.711 
	-118.161,413.244 -118.161,410.373 -117.405,405.84 -117.783,402.975 -118.546,400.506 -120.063,399.271 -121.582,397.203 
	-122.724,394.738 -121.582,390.637 -120.828,388.17 -119.685,386.934 -118.161,386.502 -114.36,385.699 -111.313,384.865 
	-96.483,378.299 -91.921,374.998 -85.461,368.43 -84.318,366.361 -83.176,361.43 -82.039,359.361 -80.896,356.893 -78.994,354.424 
	-77.852,351.957 -78.23,349.492 -80.51,345.791 -82.416,343.324 -83.935,341.285 -84.696,339.221 -85.073,335.92 -85.073,333.451 
	-85.073,330.986 -84.318,328.518 -84.318,328.115 -83.935,326.883 -83.935,325.246 -84.318,322.779 -85.461,320.312 
	-96.867,306.311 -103.328,302.207 -105.995,298.91 -109.797,291.105 -112.077,285.771 -113.596,269.73 -106.372,261.496 
	-104.092,259.43 -101.432,257.795 -80.51,251.227 -78.23,251.227 -75.946,251.627 -73.666,251.227 -71.383,249.992 -69.486,247.092 
	-68.348,244.625 -66.82,242.156 -64.922,240.523 -61.878,239.29 -59.597,238.889 -55.034,239.29 -54.656,239.29 -53.892,239.29 
	-52.373,238.889 -51.235,237.655 -50.471,235.588 -50.471,231.054 -49.707,229.417 -48.565,229.019 -45.906,230.25 -40.201,235.988 
	-37.921,236.821 -35.638,237.22 -33.358,237.655 -25.75,236.821 -23.466,237.22 -21.57,238.054 -19.667,239.689 -19.289,239.689 
	-18.525,239.29 -17.383,238.889 -8.256,233.119 -2.931,230.653 -0.648,228.586 1.632,226.12 3.152,221.184 3.915,217.483 
	5.435,214.213 7.715,210.913 12.656,205.979 16.079,203.512 21.406,200.642 23.312,198.978 24.828,196.51 25.592,192.808 
	25.592,190.342 23.688,182.537 24.066,179.669 25.206,177.604 33.956,171.834 45.743,197.341 49.165,202.277 50.69,205.578 
	51.833,210.51 51.833,213.783 51.449,217.082 50.307,222.017 49.929,224.484 49.929,226.12 49.929,227.784 50.307,231.486 
	50.69,233.119 52.209,235.187 58.293,239.29 58.679,240.123 58.679,241.354 58.293,244.225 57.15,246.689 53.729,251.227 
	52.587,253.695 51.833,256.158 52.209,258.195 52.587,259.861 56.012,261.898 57.914,263.961 59.817,270.131 61.714,273.834 
	64.759,277.533 75.792,286.17 78.452,288.639 79.592,291.938 80.355,296.873 81.11,299.34 83.013,301.809 86.815,304.275 
	89.489,306.311 91.771,310.012 92.512,312.91 92.914,315.777 93.282,318.248 93.282,320.312 92.914,325.648 92.914,328.115 
	93.282,328.518 95.193,333.451 97.474,336.754 100.898,340.055 111.537,346.219 117.241,348.258 125.228,346.621 126.737,348.258 
	127.139,356.492 127.511,359.361 129.791,362.258 131.702,363.895 133.584,366.361 135.496,370.062 136.266,378.299 
	137.407,382.801 139.29,386.502 143.481,388.969 144.252,390.203 144.252,392.27 141.198,397.203 139.29,399.271 138.147,400.906 
	138.147,402.975 138.546,405.008 141.97,407.475 173.515,399.672 181.131,395.971 183.041,393.904 184.183,391.867 186.065,386.934 
	187.608,385.699 189.888,385.268 192.54,387.732 194.822,389.803 195.962,392.27 196.333,394.738 197.475,396.371 200.156,397.203 
	205.859,395.568 208.142,393.502 209.652,391.037 211.166,389.803 213.447,389.402 222.975,395.568 231.333,393.904 234.753,398.84 
	235.894,402.141 238.945,415.309 239.317,416.545 239.687,416.943 251.865,425.979 254.92,429.279 256.431,432.15 256.431,434.617 
	255.66,436.684 253.377,441.217 253.377,442.02 253.377,442.852 254.92,445.719 255.289,447.787 254.92,449.422 253.777,450.654 
	253.009,451.088 247.303,449.854 245.392,449.854 243.881,451.49 242.739,453.555 242.368,455.588 242.739,457.656 244.25,459.723 
	246.161,461.357 249.583,462.188 252.637,462.188 260.225,459.723 264.047,459.293 293.709,461.76 296.732,460.957 300.925,457.656 
	303.205,455.191 304.718,452.721 306.999,450.654 310.424,449.422 316.126,448.619 318.807,449.854 319.551,451.49 318.408,453.555 
	317.669,456.023 317.669,458.059 321.091,458.891 324.114,458.49 "/>
<polygon fill="#FFFFFF" stroke="#010101" stroke-width="2" stroke-linecap="round" stroke-linejoin="round" points="
	1267.258,670.686 1266.877,668.621 1265.363,665.754 1263.45,662.453 1251.673,648.051 1249.006,646.414 1246.727,646.014 
	1244.442,646.414 1242.543,646.414 1240.633,645.18 1239.495,642.715 1239.123,639.846 1239.495,638.18 1240.263,636.543 
	1243.685,631.211 1244.827,628.74 1245.969,626.275 1246.727,623.807 1247.107,621.738 1247.107,619.271 1247.107,616.807 
	1246.337,609.002 1245.195,604.469 1242.914,601.168 1239.495,597.467 1208.689,578.158 1207.179,576.094 1206.036,574.025 
	1205.651,568.293 1199.947,567.459 1182.448,553.055 1177.885,548.551 1174.848,546.486 1168.003,543.615 1165.722,541.551 
	1163.438,539.08 1159.26,532.512 1155.068,527.576 1152.413,525.912 1150.134,525.512 1148.608,526.746 1147.467,528.811 
	1145.183,532.912 1144.045,535.379 1142.148,537.016 1139.48,538.682 1136.814,539.482 1133.391,539.916 1129.213,539.916 
	1126.931,539.08 1125.032,538.246 1106.009,525.109 1097.651,521.408 1086.614,522.211 1082.822,523.879 1080.153,526.344 
	1077.871,527.98 1074.835,528.811 1069.504,528.811 1066.077,527.143 1063.04,524.279 1059.232,523.045 1056.951,521.408 
	1056.194,519.742 1056.194,515.236 1056.194,513.174 1055.053,510.305 1052.772,507.84 1048.209,504.541 1037.941,501.668 
	1034.518,502.473 1031.852,503.305 1030.338,504.938 1027.671,508.24 1023.864,514.408 1021.969,516.473 1016.65,520.178 
	1013.982,523.045 1012.454,524.678 1010.173,525.512 1008.66,524.279 1008.66,522.643 1009.417,518.109 1009.417,515.639 
	1009.035,513.574 1007.894,512.344 1006.381,511.941 1005.239,513.174 1003.714,514.809 1000.29,523.045 999.534,524.678 
	996.868,527.143 992.689,528.377 994.202,533.312 993.831,534.979 992.689,537.016 990.78,537.85 988.495,538.246 985.845,539.482 
	984.316,541.951 979.756,550.184 977.476,552.648 954.27,570.326 951.99,574.457 950.847,577.727 952.761,583.494 953.127,587.596 
	951.618,594.199 951.232,598.301 951.232,601.602 951.618,604.869 951.99,608.17 951.232,612.271 949.338,615.17 947.054,616.807 
	926.132,624.609 923.851,625.041 921.571,624.609 919.288,623.807 907.495,616.406 903.702,615.971 900.275,618.037 
	894.942,618.871 892.664,618.871 890.012,620.105 888.482,622.141 886.957,624.209 880.114,642.314 878.973,644.779 
	878.216,646.014 876.688,647.246 874.793,646.816 873.654,643.949 872.512,642.314 870.229,641.881 868.704,643.115 862.241,648.48 
	860.346,648.883 858.433,648.051 856.924,644.352 856.538,639.414 855.781,638.18 854.644,636.947 851.977,636.145 846.655,632.445 
	842.849,628.74 840.567,626.275 839.811,623.807 839.811,621.34 839.04,619.672 837.526,618.037 834.86,618.439 833.337,620.105 
	832.195,621.738 831.438,623.807 829.914,625.842 828.4,627.076 826.491,627.91 824.21,628.312 822.312,627.91 820.031,627.076 
	815.853,623.807 813.572,621.34 811.288,618.037 807.865,611.869 805.584,608.57 802.916,608.17 801.777,609.404 799.111,613.105 
	797.969,613.936 796.459,614.742 794.547,614.34 792.265,612.271 790.366,608.17 789.61,604.869 788.471,594.6 788.471,592.531 
	788.471,592.129 786.944,589.262 784.664,586.797 783.521,584.326 783.906,581.43 785.42,579.795 787.33,578.963 791.89,578.561 
	793.788,578.158 795.317,576.926 796.072,574.859 796.072,572.389 795.317,570.326 791.508,560.457 786.558,551.82 775.537,536.213 
	773.253,535.781 771.745,536.613 770.2,540.316 768.689,541.551 767.18,541.148 765.268,539.916 764.127,536.613 764.499,534.148 
	765.268,531.678 767.55,527.98 767.922,525.912 767.922,524.678 767.18,523.045 764.895,520.977 757.282,518.109 754.999,516.873 
	754.23,514.006 756.141,509.873 755.77,507.84 753.488,506.172 739.798,502.904 732.554,497.135 726.476,501.24 724.195,501.668 
	720.401,502.07 713.556,499.604 710.506,499.604 707.453,501.24 703.288,505.771 702.146,508.637 702.146,511.537 702.521,514.006 
	701.379,515.639 698.323,517.273 651.55,523.879 643.19,531.678 640.54,531.678 638.629,530.047 635.977,527.98 632.152,522.643 
	629.13,516.043 627.991,514.408 626.85,515.236 626.449,516.873 626.449,518.943 626.449,521.408 626.449,523.443 625.707,525.109 
	624.565,526.344 623.026,525.512 620.745,523.045 618.461,521.408 615.81,520.977 613.53,522.211 612.017,523.879 611.248,525.912 
	610.106,527.576 608.193,528.377 605.914,528.811 601.349,528.811 597.184,527.143 595.275,526.746 593.365,527.143 
	590.342,530.848 588.429,532.084 586.519,532.084 584.636,531.678 581.213,529.611 580.071,529.211 578.16,529.211 569.807,530.047 
	564.1,529.211 562.19,527.98 560.678,526.344 559.536,523.045 559.536,520.574 559.905,513.174 559.135,511.107 558.396,509.873 
	555.714,509.471 551.552,511.107 549.639,511.107 545.076,508.637 543.563,507.006 543.164,505.367 543.563,504.541 
	544.705,503.305 548.125,502.473 549.639,501.668 549.639,499.604 548.5,497.135 533.297,468.357 529.474,462.994 526.451,459.723 
	525.309,457.256 524.538,454.355 523.771,451.887 522.258,449.422 518.836,447.787 516.925,448.619 515.783,450.254 
	515.412,451.887 514.641,453.555 510.479,454.789 507.425,454.355 504.002,451.49 497.157,445.32 489.17,441.217 489.17,438.75 
	490.312,436.684 494.505,432.58 495.647,430.514 496.019,428.451 496.019,426.412 494.877,421.045 494.505,419.41 494.877,416.545 
	494.505,414.074 492.964,410.777 490.683,405.84 476.251,385.699 473.569,382.398 469.776,379.1 462.931,374.998 459.509,374.596 
	455.716,375.83 454.177,374.596 453.434,370.895 453.034,367.996 452.293,363.062 448.47,359.793 443.167,366.361 439.742,372.93 
	437.833,374.164 435.921,373.764 431.757,372.131 429.476,371.697 407.398,375.83 403.977,375.4 401.693,374.596 391.055,373.764 
	388.771,374.164 386.863,374.998 385.723,375.83 383.841,377.465 382.698,377.865 371.659,377.465 370.147,378.699 369.378,379.934 
	368.609,382.801 368.236,385.699 367.865,387.732 366.728,389.803 365.956,391.867 365.185,394.336 365.185,396.371 365.185,398.84 
	365.185,401.307 365.956,403.771 367.096,406.242 368.236,408.307 369.007,410.373 368.609,412.84 367.468,414.475 366.325,416.545 
	365.956,416.943 364.045,421.879 362.905,424.348 360.252,427.213 353.404,430.914 350.753,432.58 349.609,434.617 348.472,436.684 
	347.703,440.783 347.33,445.32 346.188,450.254 349.213,450.254 353.037,450.654 361.394,453.121 364.045,455.191 365.956,456.422 
	367.468,458.49 368.236,460.957 372.43,478.227 373.942,481.098 375.853,483.564 382.698,489.334 386.119,493.436 386.863,495.902 
	387.26,498.369 388.002,504.541 386.863,509.07 382.698,519.742 380.787,523.045 378.875,524.678 374.311,527.576 372.03,529.611 
	368.609,534.148 367.096,536.213 365.185,537.016 362.163,536.613 361.394,537.447 360.62,539.916 361.762,548.951 362.531,552.252 
	364.442,556.354 365.185,558.42 364.045,561.289 362.905,563.355 362.163,564.988 361.762,567.057 362.531,569.527 362.531,571.992 
	362.531,574.457 360.62,577.727 358.738,579.391 351.497,582.262 344.649,587.199 342.369,588.027 340.487,588.027 336.292,587.596 
	332.099,588.43 329.816,589.262 328.305,590.498 326.797,592.129 326.395,592.965 325.654,596.232 325.654,599.533 326.021,602.402 
	326.797,604.469 329.076,606.102 330.958,606.102 333.241,606.939 335.15,608.57 341.227,614.742 343.909,617.637 346.93,624.209 
	348.072,627.91 348.072,631.211 345.792,635.309 346.188,638.18 347.33,641.479 353.776,650.518 355.688,656.283 351.124,657.92 
	342.767,657.92 340.487,658.752 331.728,664.09 331.728,665.754 330.958,666.984 336.664,674.789 338.943,679.727 340.855,685.893 
	342.369,688.76 346.188,694.129 347.33,696.166 347.703,697.828 347.703,700.295 346.188,710.166 345.419,711.398 344.278,714.672 
	343.508,717.139 343.139,718.371 342.369,720.035 340.086,725.373 337.434,729.074 335.521,733.609 335.15,734.844 335.15,736.074 
	335.521,738.111 337.062,741.01 338.204,742.646 338.943,743.479 340.086,744.279 340.855,745.111 343.139,745.943 343.909,746.348 
	344.649,747.178 350.355,755.385 351.895,757.051 355.316,759.516 356.457,760.75 357.198,762.785 357.969,765.684 360.252,778.021 
	360.62,779.252 362.163,782.953 365.185,792.826 367.865,803.096 368.236,804.33 369.748,810.496 369.748,812.967 369.748,815.834 
	369.378,821.203 369.007,824.07 369.378,826.537 370.521,829.006 371.29,830.238 375.452,834.34 376.223,835.174 376.992,836.002 
	377.364,837.238 377.736,843.811 377.736,852.445 378.506,856.547 378.875,859.012 378.875,861.914 378.134,865.615 376.595,873.42 
	374.713,879.186 374.311,880.822 374.311,882.459 374.713,885.352 375.084,886.988 377.736,892.326 377.736,893.557 
	378.134,894.791 378.506,897.258 377.736,899.729 376.223,903.43 371.29,913.73 370.147,916.598 369.748,917.432 369.007,924.832 
	368.609,928.102 369.007,929.768 369.378,931.002 369.748,932.236 370.521,934.271 373.57,938.402 377.736,942.504 381.929,944.572 
	383.841,946.211 384.581,946.605 386.119,946.605 388.002,945.805 390.684,946.211 394.478,947.445 397.13,949.506 402.834,957.312 
	404.747,958.945 407.027,960.178 409.31,960.178 418.066,955.676 421.089,954.844 424.511,954.844 430.614,956.078 434.039,957.711 
	438.603,960.613 440.485,961.014 442.767,960.613 445.047,958.543 447.328,954.01 448.869,952.375 451.153,951.975 456.857,954.01 
	457.994,955.676 459.509,960.178 461.021,962.244 462.161,964.312 462.161,966.779 462.161,968.818 462.161,970.883 
	462.931,972.518 464.844,972.951 467.867,972.518 470.146,971.717 479.273,965.117 482.328,963.881 484.607,962.244 
	485.377,958.543 485.377,956.078 486.121,953.609 488.799,951.975 490.683,950.309 491.824,947.445 491.824,944.572 
	492.226,942.504 492.593,941.273 498.671,942.504 504.002,953.211 504.772,955.244 505.515,958.945 505.915,960.613 
	508.567,963.881 509.338,964.715 511.618,968.412 512.361,968.818 513.503,969.648 514.641,970.48 515.412,972.518 516.554,976.217 
	520.348,982.387 523.028,983.623 523.771,984.854 524.538,986.52 524.909,992.256 524.538,1001.32 524.538,1002.555 
	523.399,1005.025 523.399,1006.262 523.771,1007.492 525.681,1008.727 529.103,1009.961 529.474,1010.363 531.755,1012.426 
	532.525,1012.828 534.807,1013.66 535.949,1014.062 536.72,1014.895 537.091,1015.695 537.861,1016.529 538.998,1016.932 
	542.022,1016.529 543.164,1016.529 544.306,1016.932 545.445,1017.764 547.729,1021.061 550.779,1023.098 551.15,1023.932 
	552.293,1025.162 553.062,1026.002 553.832,1026.801 559.905,1028.465 566.752,1029.699 568.664,1030.5 571.316,1032.568 
	574.366,1034.201 574.738,1034.635 575.508,1035.436 575.881,1037.1 576.248,1039.57 576.248,1042.037 576.648,1043.672 
	577.022,1044.902 577.39,1045.738 578.16,1047.375 578.16,1049.006 577.79,1050.67 575.881,1060.109 575.881,1062.178 
	575.881,1064.244 576.248,1065.045 577.022,1065.879 577.39,1067.109 577.79,1068.344 577.39,1069.576 577.39,1071.645 
	577.39,1073.281 577.39,1074.512 577.79,1075.746 578.533,1076.982 579.303,1078.213 580.071,1079.047 580.442,1079.447 
	580.816,1080.281 580.816,1081.514 580.442,1082.314 580.442,1083.551 577.79,1085.619 575.508,1088.084 555.714,1100.422 
	557.626,1104.953 557.998,1108.66 558.396,1109.055 558.396,1109.459 557.626,1117.693 557.626,1119.76 557.998,1121.795 
	559.536,1123.459 561.418,1124.262 566.381,1125.93 568.664,1127.164 574.366,1132.498 575.881,1133.732 578.533,1134.562 
	581.955,1134.135 594.136,1128.797 596.787,1128.396 600.609,1129.199 609.736,1132.498 611.619,1132.498 613.9,1132.498 
	619.604,1130.033 622.284,1129.629 632.556,1132.498 639.397,1135.365 641.281,1135.365 643.565,1135.365 645.846,1134.965 
	648.526,1134.135 651.949,1132.498 657.652,1127.561 664.098,1118.096 665.239,1115.227 666.781,1107.82 668.291,1099.59 
	668.662,1097.953 669.433,1095.885 670.575,1094.654 672.485,1094.252 680.843,1098.354 689.197,1100.824 693.391,1100.422 
	696.043,1099.188 697.584,1097.119 699.098,1096.32 701.379,1096.32 703.658,1099.188 705.172,1101.654 707.082,1104.121 
	709.363,1104.953 712.418,1104.953 714.298,1103.291 715.439,1101.654 715.837,1099.188 715.837,1097.119 716.21,1095.086 
	717.349,1093.42 719.633,1092.619 725.337,1095.086 727.245,1096.32 727.617,1099.188 727.245,1101.654 727.245,1103.721 
	727.989,1105.357 732.554,1108.66 733.696,1110.291 734.092,1113.158 733.696,1118.096 734.092,1120.16 735.975,1125.096 
	737.514,1130.033 741.68,1134.135 754.23,1135.797 753.858,1133.33 753.488,1132.498 753.488,1130.434 753.858,1128.797 
	754.999,1125.096 758.053,1109.055 758.792,1106.992 770.602,1079.447 770.969,1078.213 770.969,1076.982 770.969,1075.746 
	770.969,1073.281 770.969,1072.047 771.345,1070.811 771.745,1069.576 773.624,1066.709 776.291,1059.707 777.062,1056.84 
	777.817,1053.941 779.342,1042.438 779.342,1040.801 779.713,1039.57 781.994,1033.398 782.383,1032.168 783.906,1028.465 
	784.277,1027.23 784.664,1023.932 784.664,1023.531 785.42,1022.697 786.558,1021.863 789.61,1021.061 792.65,1021.061 
	795.685,1022.295 804.058,1026.398 807.479,1027.23 812.431,1026.801 825.735,1021.061 832.195,1020.232 834.479,1021.061 
	837.145,1022.295 840.952,1026.002 845.131,1030.932 850.835,1035.033 866.053,1039.57 866.053,1051.475 868.333,1055.609 
	873.654,1057.242 875.551,1058.473 877.83,1061.344 878.601,1064.244 878.973,1067.109 880.114,1071.645 882.023,1074.512 
	883.919,1076.58 888.482,1077.814 891.521,1079.047 894.188,1083.979 896.084,1084.785 900.649,1085.619 901.789,1087.252 
	901.789,1088.92 901.418,1091.385 901.036,1093.852 900.649,1097.119 900.649,1100.422 901.789,1102.488 903.702,1103.721 
	909.404,1105.758 910.547,1105.357 911.3,1104.525 912.056,1103.721 913.199,1102.055 917.762,1100.02 918.901,1099.188 
	919.672,1098.354 921.571,1095.488 922.324,1094.654 923.095,1093.852 923.851,1093.42 926.132,1093.42 927.274,1093.021 
	928.031,1092.184 928.798,1091.385 929.173,1088.486 929.939,1087.684 930.697,1086.852 932.221,1085.619 932.977,1084.785 
	934.873,1081.918 935.646,1081.084 939.437,1077.383 940.209,1078.213 950.476,1088.084 952.761,1091.785 953.514,1094.654 
	953.127,1097.119 953.897,1100.02 955.793,1101.254 957.692,1102.055 981.279,1103.291 986.216,1102.891 988.495,1102.055 
	990.407,1100.824 998.011,1093.42 999.534,1091.785 1000.676,1089.719 1002.189,1088.084 1003.714,1086.447 1005.239,1085.619 
	1005.994,1084.385 1008.66,1078.615 1009.417,1076.982 1017.019,1068.746 1018.543,1065.479 1020.073,1063.01 1029.199,1052.307 
	1028.059,1051.475 1030.709,1049.006 1031.095,1046.539 1030.709,1044.502 1030.709,1042.037 1030.338,1040.801 1029.955,1039.57 
	1029.199,1037.902 1029.199,1035.869 1030.338,1033.801 1032.622,1030.932 1040.225,1016.932 1048.209,1006.658 1042.891,1000.09 
	1042.12,995.555 1045.17,991.455 1074.45,962.244 1090.036,953.211 1091.949,951.143 1097.651,944.143 1104.867,940.039 
	1107.535,938.402 1109.815,934.701 1110.571,932.236 1110.571,926.066 1109.061,924.4 1107.919,922.764 1107.148,920.699 
	1107.535,919.066 1110.956,907.965 1112.484,904.664 1112.855,903.861 1113.626,901.793 1113.997,896.861 1113.237,893.154 
	1110.571,886.988 1109.433,884.121 1112.855,871.783 1123.124,865.184 1146.711,857.379 1161.157,845.443 1166.104,837.641 
	1163.823,831.072 1166.476,825.703 1168.758,823.236 1174.091,821.203 1174.848,819.137 1175.604,818.732 1179.026,816.668 
	1178.656,810.898 1185.115,808.432 1198.806,794.857 1199.562,794.061 1203.756,786.658 1209.829,779.658 1224.662,768.154 
	1223.907,759.516 1225.049,752.113 1229.225,747.578 1231.138,747.578 1232.279,746.748 1235.701,742.242 1237.982,741.01 
	1240.263,740.178 1242.161,738.941 1244.057,734.844 1241.775,731.541 1238.354,728.24 1234.931,725.373 1231.138,727.441 
	1205.266,730.309 1206.408,725.773 1209.074,720.436 1212.111,715.906 1217.818,712.201 1218.202,705.633 1223.907,704.396 
	1227.328,701.932 1230.75,699.064 1232.279,696.166 1231.138,692.064 1228.854,687.127 1228.472,683.426 1232.279,682.195 
	1234.56,680.555 1236.454,679.727 1238.354,680.555 1240.263,682.195 1245.969,683.023 1256.99,680.959 1261.94,682.195 
	1264.979,683.826 1265.363,683.826 1266.116,679.727 1267.258,676.857 1267.258,675.189 1267.258,673.154 "/>
<polygon fill="#FFFFFF" stroke="#010101" stroke-width="2" stroke-linecap="round" stroke-linejoin="round" points="
	1493.157,162.397 1471.864,157.461 1437.253,137.723 1433.445,137.292 1420.894,138.525 1403.028,132.788 1400.358,133.589 
	1395.425,136.491 1392.756,137.292 1390.476,136.891 1385.915,135.256 1383.63,134.822 1380.964,135.256 1378.31,136.491 
	1375.645,137.292 1374.889,137.292 1372.605,136.491 1370.697,134.822 1368.413,129.888 1366.903,127.853 1361.952,124.954 
	1352.442,123.32 1347.881,120.018 1344.839,116.317 1339.89,107.684 1336.855,103.98 1336.855,103.98 1337.237,102.748 
	1337.994,101.946 1339.521,101.113 1337.994,95.778 1334.188,94.111 1324.689,93.308 1323.548,89.607 1319.356,89.177 
	1314.42,90.842 1310.613,92.879 1309.857,94.945 1308.332,99.878 1307.189,101.946 1305.293,102.748 1301.102,103.581 
	1298.822,103.98 1297.68,106.048 1295.396,110.981 1293.886,112.619 1292.744,112.215 1286.655,109.347 1268.015,108.917 
	1264.593,107.684 1261.17,106.048 1252.814,99.478 1251.673,99.045 1249.76,101.113 1249.76,101.113 1249.76,103.179 
	1250.531,105.214 1250.531,105.214 1250.145,106.879 1243.685,111.383 1238.735,107.281 1236.069,97.41 1236.069,97.41 
	1236.454,84.674 1231.509,84.674 1217.818,76.439 1215.534,76.038 1209.074,76.439 1200.332,74.372 1198.049,74.802 
	1196.525,79.738 1198.42,85.909 1199.191,91.644 1195.383,97.011 1192.717,97.814 1183.977,94.543 1174.462,94.111 1171.811,92.879 
	1169.145,87.943 1169.145,87.943 1169.529,83.841 1170.669,78.905 1170.669,78.905 1169.529,73.57 1168.388,73.57 1165.722,75.607 
	1164.58,75.607 1164.193,74.372 1163.438,71.504 1163.438,70.671 1162.681,69.036 1160.772,62.466 1160.016,61.633 1156.979,60.4 
	1155.839,59.167 1155.453,57.932 1156.207,54.232 1155.839,52.597 1141.007,37.359 1137.585,32.858 1136.057,28.724 
	1137.198,25.455 1141.374,25.025 1142.148,22.155 1142.148,22.155 1141.374,20.089 1130.736,7.753 1129.213,5.285 1129.596,5.285 
	1129.596,5.285 1129.596,3.25 1129.213,0.35 1127.688,-2.92 1123.895,-6.621 1104.111,-17.323 1101.445,-17.724 1099.934,-17.323 
	1095.742,-14.023 1093.458,-13.623 1091.562,-13.623 1091.562,-13.623 1086.998,-14.455 1081.295,-17.724 1071.027,-25.96 
	1070.641,-26.36 1064.567,-28.827 1058.479,-29.662 1045.927,-28.426 1045.927,-28.025 1047.455,-25.127 1047.455,-24.727 
	1040.98,-24.324 1039.465,-23.492 1039.465,-23.492 1038.326,-21.425 1038.326,-18.958 1037.941,-17.323 1037.941,-17.323 
	1035.273,-16.09 1035.273,-16.09 1033.375,-12.79 1029.955,-11.155 1011.314,-9.922 1007.894,-8.688 1004.856,-18.958 
	1000.676,-23.492 986.601,-27.193 981.279,-30.062 977.476,-33.763 970.629,-43.632 970.629,-43.632 967.961,-44.465 
	963.398,-47.335 961.116,-47.765 958.463,-46.532 958.463,-46.532 955.793,-42.399 955.793,-42.399 953.127,-41.165 
	948.566,-41.997 943.631,-44.465 938.684,-45.699 933.362,-42.829 933.362,-42.829 930.697,-39.13 930.312,-36.23 929.555,-34.997 
	929.555,-34.997 926.132,-34.596 924.608,-34.997 917.762,-38.296 913.584,-36.662 908.266,-31.728 902.56,-28.025 897.609,-29.662 
	896.472,-32.961 896.472,-35.831 897.227,-39.53 897.227,-43.232 896.472,-46.532 885.816,-67.074 883.537,-69.14 882.023,-71.207 
	875.178,-73.673 872.512,-75.307 871.37,-75.709 871.37,-75.307 870.614,-74.475 869.471,-72.44 868.333,-70.774 868.333,-70.774 
	866.806,-70.374 863.385,-71.207 862.241,-72.44 861.487,-75.709 862.241,-81.077 864.14,-82.31 864.14,-82.31 864.91,-83.543 
	863.385,-88.878 859.209,-94.646 854.644,-99.15 850.079,-99.15 840.182,-96.281 835.245,-97.917 831.056,-101.216 
	828.016,-104.517 818.89,-118.889 816.224,-121.789 808.236,-124.256 804.058,-126.723 796.072,-135.358 791.89,-137.828 
	791.508,-137.828 787.33,-137.394 777.817,-134.125 772.882,-132.892 767.18,-134.125 765.268,-136.593 765.268,-150.565 
	764.895,-152.63 762.615,-156.333 762.215,-158.369 762.615,-160.436 764.499,-162.901 765.268,-164.968 766.409,-169.071 
	767.55,-172.371 768.317,-175.24 767.922,-180.175 764.499,-186.743 754.23,-191.278 751.204,-196.613 751.946,-202.38 
	760.334,-224.988 760.705,-229.122 760.334,-231.989 760.705,-235.291 764.499,-245.159 764.895,-245.159 766.038,-245.56 
	768.317,-242.692 768.317,-242.692 769.063,-248.862 770.2,-256.664 770.2,-263.234 768.317,-265.702 761.477,-264.467 
	759.192,-265.299 758.053,-271.068 752.347,-268.168 752.347,-268.168 728.76,-242.692 727.617,-239.792 727.245,-236.091 
	727.617,-234.056 728.389,-231.989 728.76,-229.523 726.847,-218.018 725.337,-212.25 723.424,-207.717 723.424,-207.717 
	721.144,-206.082 712.018,-204.447 681.613,-188.41 675.137,-187.175 673.623,-187.576 640.91,-197.445 627.591,-195.379 
	627.591,-194.979 627.991,-189.21 627.591,-181.407 629.13,-177.706 631.414,-174.406 634.064,-168.237 634.835,-164.135 
	634.835,-160.835 634.437,-158.799 632.556,-153.865 629.13,-147.697 627.591,-143.562 626.078,-130.825 626.85,-128.358 
	630.272,-124.656 631.78,-120.554 631.414,-115.62 630.644,-112.32 628.732,-109.852 620.745,-102.048 617.323,-97.516 
	615.438,-95.881 613.53,-95.047 611.248,-92.981 608.964,-89.712 605.914,-83.543 603.262,-81.476 600.978,-80.243 596.417,-80.243 
	594.136,-79.842 592.224,-78.177 590.342,-75.307 591.081,-72.841 592.622,-67.503 593.762,-62.569 594.502,-60.104 
	595.646,-57.635 596.417,-54.334 595.646,-51.467 594.502,-47.765 594.904,-44.865 595.646,-41.597 596.047,-37.895 
	594.904,-35.831 591.081,-31.728 589.571,-28.426 589.571,-25.127 591.081,-22.257 594.904,-14.857 596.047,-10.755 591.852,-9.922 
	589.942,-8.287 588.801,-6.22 587.658,-3.353 590.713,-1.685 592.622,3.65 592.224,12.687 591.481,15.155 590.713,18.455 
	589.199,20.089 587.287,20.922 585.006,20.089 581.213,17.219 579.675,16.82 577.022,17.219 574.738,19.688 572.459,20.089 
	570.175,19.688 564.1,14.752 561.815,13.519 559.135,13.119 553.832,13.119 551.15,14.752 549.639,16.82 549.639,18.855 
	550.009,21.322 550.009,23.79 549.268,25.455 547.729,25.857 534.038,27.924 515.783,33.66 508.195,37.793 504.002,41.495 
	504.373,43.961 506.656,49.296 507.425,52.164 507.797,54.633 508.567,70.271 508.938,72.737 509.709,74.802 510.479,76.439 
	512.361,76.84 514.273,76.84 516.183,77.673 517.321,79.738 518.836,81.774 520.348,83.441 524.17,85.909 524.909,87.141 
	525.309,89.177 524.17,92.477 522.258,94.945 519.974,96.579 518.064,97.41 515.412,97.814 506.283,96.178 504.002,96.178 
	500.949,97.41 499.808,99.045 498.671,100.712 498.3,102.748 498.3,104.814 498.671,107.281 499.441,112.215 499.441,114.683 
	499.07,117.983 497.157,121.686 495.248,124.553 493.367,126.189 490.312,128.656 489.941,130.722 489.544,132.356 489.544,134.422 
	489.941,135.256 490.312,136.891 492.226,138.125 494.105,138.956 501.351,138.125 503.631,138.125 505.515,138.525 
	507.425,139.757 508.567,141.424 508.567,144.694 507.425,147.161 505.915,148.828 503.631,150.46 500.209,154.562 497.529,159.498 
	493.734,162.397 491.083,164.865 490.312,167.333 489.17,171.035 487.66,173.902 473.97,188.707 472.06,191.575 469.776,196.108 
	466.725,203.912 465.983,211.314 465.212,213.38 463.701,215.447 461.422,216.25 454.177,216.25 451.524,217.082 451.153,218.716 
	451.893,220.382 454.945,223.25 455.314,225.315 453.805,226.952 450.751,229.82 449.24,232.288 448.47,235.988 448.47,238.054 
	448.869,239.29 449.24,239.29 450.382,239.689 453.034,239.29 454.177,239.29 454.573,240.123 455.314,240.924 456.456,243.393 
	457.994,245.457 459.879,246.689 460.65,248.758 461.422,250.793 461.789,252.857 462.931,258.627 463.303,262.328 461.422,270.967 
	461.789,275.066 462.56,277.936 464.44,279.168 466.354,279.168 470.547,277.533 471.686,277.533 473.199,277.936 474.712,281.236 
	479.677,288.236 470.146,297.271 466.354,303.844 464.44,310.012 462.931,314.145 460.65,316.613 457.994,317.414 455.314,317.846 
	451.893,318.648 450.751,319.48 450.382,321.547 451.524,323.582 453.805,327.713 454.177,328.949 453.434,330.986 448.869,335.117 
	447.73,337.586 447.328,339.619 449.611,344.986 450.011,346.219 449.611,347.855 448.47,352.391 447.73,356.492 448.47,359.793 
	452.293,363.062 453.034,367.996 453.434,370.895 454.177,374.596 455.716,375.83 459.509,374.596 462.931,374.998 469.776,379.1 
	473.569,382.398 476.251,385.699 490.683,405.84 492.964,410.777 494.505,414.074 494.877,416.545 494.505,419.41 494.877,421.045 
	496.019,426.412 496.019,428.451 495.647,430.514 494.505,432.58 490.312,436.684 489.17,438.75 489.17,441.217 497.157,445.32 
	504.002,451.49 507.425,454.355 510.479,454.789 514.641,453.555 515.412,451.887 515.783,450.254 516.925,448.619 518.836,447.787 
	522.258,449.422 523.771,451.887 524.538,454.355 525.309,457.256 526.451,459.723 529.474,462.994 533.297,468.357 548.5,497.135 
	549.639,499.604 549.639,501.668 548.125,502.473 544.705,503.305 543.563,504.541 543.164,505.367 543.563,507.006 
	545.076,508.637 549.639,511.107 551.552,511.107 555.714,509.471 558.396,509.873 559.135,511.107 559.905,513.174 
	559.536,520.574 559.536,523.045 560.678,526.344 562.19,527.98 564.1,529.211 569.807,530.047 578.16,529.211 580.071,529.211 
	581.213,529.611 584.636,531.678 586.519,532.084 588.429,532.084 590.342,530.848 593.365,527.143 595.275,526.746 
	597.184,527.143 601.349,528.811 605.914,528.811 608.193,528.377 610.106,527.576 611.248,525.912 612.017,523.879 613.53,522.211 
	615.81,520.977 618.461,521.408 620.745,523.045 623.026,525.512 624.565,526.344 625.707,525.109 626.449,523.443 626.449,521.408 
	626.449,518.943 626.449,516.873 626.85,515.236 627.991,514.408 629.13,516.043 632.152,522.643 635.977,527.98 638.629,530.047 
	640.54,531.678 643.19,531.678 651.55,523.879 698.323,517.273 701.379,515.639 702.521,514.006 702.146,511.537 702.146,508.637 
	703.288,505.771 707.453,501.24 710.506,499.604 713.556,499.604 720.401,502.07 724.195,501.668 726.476,501.24 732.554,497.135 
	739.798,502.904 753.488,506.172 755.77,507.84 756.141,509.873 754.23,514.006 754.999,516.873 757.282,518.109 764.895,520.977 
	767.18,523.045 767.922,524.678 767.922,525.912 767.55,527.98 765.268,531.678 764.499,534.148 764.127,536.613 765.268,539.916 
	767.18,541.148 768.689,541.551 770.2,540.316 771.745,536.613 773.253,535.781 775.537,536.213 786.558,551.82 791.508,560.457 
	795.317,570.326 796.072,572.389 796.072,574.859 795.317,576.926 793.788,578.158 791.89,578.561 787.33,578.963 785.42,579.795 
	783.906,581.43 783.521,584.326 784.664,586.797 786.944,589.262 788.471,592.129 788.471,592.531 788.471,594.6 789.61,604.869 
	790.366,608.17 792.265,612.271 794.547,614.34 796.459,614.742 797.969,613.936 799.111,613.105 801.777,609.404 802.916,608.17 
	805.584,608.57 807.865,611.869 811.288,618.037 813.572,621.34 815.853,623.807 820.031,627.076 822.312,627.91 824.21,628.312 
	826.491,627.91 828.4,627.076 829.914,625.842 831.438,623.807 832.195,621.738 833.337,620.105 834.86,618.439 837.526,618.037 
	839.04,619.672 839.811,621.34 839.811,623.807 840.567,626.275 842.849,628.74 846.655,632.445 851.977,636.145 854.644,636.947 
	855.781,638.18 856.538,639.414 856.924,644.352 858.433,648.051 860.346,648.883 862.241,648.48 868.704,643.115 870.229,641.881 
	872.512,642.314 873.654,643.949 874.793,646.816 876.688,647.246 878.216,646.014 878.973,644.779 880.114,642.314 
	886.957,624.209 888.482,622.141 890.012,620.105 892.664,618.871 894.942,618.871 900.275,618.037 903.702,615.971 
	907.495,616.406 919.288,623.807 921.571,624.609 923.851,625.041 926.132,624.609 947.054,616.807 949.338,615.17 951.232,612.271 
	951.99,608.17 951.618,604.869 951.232,601.602 951.232,598.301 951.618,594.199 953.127,587.596 952.761,583.494 950.847,577.727 
	951.99,574.457 954.27,570.326 977.476,552.648 979.756,550.184 984.316,541.951 985.845,539.482 988.495,538.246 990.78,537.85 
	992.689,537.016 993.831,534.979 994.202,533.312 992.689,528.377 996.868,527.143 999.534,524.678 1000.29,523.045 
	1003.714,514.809 1005.239,513.174 1006.381,511.941 1007.894,512.344 1009.035,513.574 1009.417,515.639 1009.417,518.109 
	1008.66,522.643 1008.66,524.279 1010.173,525.512 1012.454,524.678 1013.982,523.045 1016.65,520.178 1021.969,516.473 
	1023.864,514.408 1027.671,508.24 1030.338,504.938 1031.852,503.305 1034.518,502.473 1037.941,501.668 1048.209,504.541 
	1052.772,507.84 1055.053,510.305 1056.194,513.174 1056.194,515.236 1056.194,519.742 1056.951,521.408 1059.232,523.045 
	1063.04,524.279 1066.077,527.143 1069.504,528.811 1074.835,528.811 1077.871,527.98 1080.153,526.344 1082.822,523.879 
	1086.614,522.211 1097.651,521.408 1106.009,525.109 1125.032,538.246 1126.931,539.08 1129.213,539.916 1133.391,539.916 
	1136.814,539.482 1139.48,538.682 1142.148,537.016 1144.045,535.379 1145.183,532.912 1147.467,528.811 1148.608,526.746 
	1150.134,525.512 1152.413,525.912 1155.068,527.576 1159.26,532.512 1163.438,539.08 1165.722,541.551 1168.003,543.615 
	1174.848,546.486 1177.885,548.551 1182.448,553.055 1199.947,567.459 1205.651,568.293 1206.036,574.025 1207.179,576.094 
	1208.689,578.158 1239.495,597.467 1242.914,601.168 1245.195,604.469 1246.337,609.002 1247.107,616.807 1247.107,619.271 
	1247.107,621.738 1246.727,623.807 1245.969,626.275 1244.827,628.74 1243.685,631.211 1240.263,636.543 1239.495,638.18 
	1239.123,639.846 1239.495,642.715 1240.633,645.18 1242.543,646.414 1244.442,646.414 1246.727,646.014 1249.006,646.414 
	1251.673,648.051 1263.45,662.453 1265.363,665.754 1266.877,668.621 1267.258,670.686 1267.258,673.154 1267.258,675.189 
	1267.258,676.857 1266.116,679.727 1265.363,683.826 1267.647,684.26 1273.721,683.826 1269.543,693.299 1271.066,699.064 
	1275.632,702.332 1282.092,704.396 1282.847,705.234 1283.617,706.467 1284.37,707.701 1286.27,708.5 1287.412,708.104 
	1295.781,704.396 1301.488,702.766 1316.702,703.566 1318.982,702.766 1322.779,701.1 1325.832,696.594 1326.974,694.93 
	1327.727,691.662 1327.341,689.598 1326.199,687.961 1325.832,687.127 1324.689,685.061 1324.689,683.023 1326.974,682.195 
	1330.396,683.426 1331.535,684.26 1333.43,685.494 1336.101,685.893 1339.521,682.592 1339.89,682.195 1340.278,680.959 
	1340.278,680.125 1339.89,679.324 1338.379,676.857 1337.994,675.623 1338.379,674.391 1339.521,673.559 1341.802,673.955 
	1343.315,673.559 1344.454,671.49 1344.454,668.221 1343.701,668.221 1339.89,664.92 1339.521,664.92 1349.019,656.283 
	1354.351,653.416 1361.952,650.117 1361.57,650.117 1361.952,650.117 1362.709,646.414 1363.479,645.18 1363.096,641.881 
	1361.952,640.248 1360.428,638.611 1358.914,636.947 1354.351,626.275 1351.303,622.141 1347.881,620.105 1347.12,618.439 
	1346.367,614.742 1345.597,607.336 1345.981,607.336 1346.738,605.303 1350.16,601.168 1351.303,598.701 1351.685,592.965 
	1349.019,580.625 1349.404,576.094 1352.442,564.588 1353.582,562.924 1356.635,561.289 1357.389,557.188 1356.249,550.586 
	1356.249,550.586 1356.249,549.354 1356.249,549.354 1355.864,548.119 1355.864,547.316 1355.864,547.316 1356.249,546.08 
	1356.635,544.418 1358.144,542.781 1358.914,541.148 1360.428,537.85 1360.811,536.213 1360.811,536.213 1360.428,530.447 
	1361.57,525.512 1367.658,518.943 1369.556,514.809 1369.556,514.809 1369.184,503.705 1359.673,486.029 1358.914,471.227 
	1360.428,464.658 1361.952,459.293 1363.479,456.023 1364.992,453.955 1366.133,451.088 1366.517,446.152 1368.041,441.619 
	1381.732,420.646 1384.017,415.711 1385.525,409.943 1385.915,402.541 1387.438,395.139 1390.86,391.867 1395.04,389.803 
	1398.076,384.465 1398.076,379.529 1396.936,374.998 1395.798,370.463 1395.04,365.959 1395.04,361.43 1396.936,351.957 
	1398.076,347.855 1399.217,344.555 1400.747,342.518 1401.884,338.82 1402.271,332.219 1403.413,328.949 1406.065,326.051 
	1411.396,321.547 1411.396,321.547 1411.396,319.08 1409.115,311.246 1409.115,298.91 1411.011,287.404 1420.14,271.766 
	1422.421,270.131 1426.229,268.898 1429.652,265.598 1435.354,257.795 1438.01,256.158 1441.06,252.857 1443.344,249.561 
	1444.481,246.689 1444.481,240.123 1445.622,236.821 1448.275,235.988 1454.367,235.988 1455.894,235.187 1457.403,233.954 
	1457.79,231.886 1458.174,228.586 1459.313,226.952 1460.068,225.719 1460.827,224.887 1462.736,224.887 1470.724,219.951 
	1471.864,218.716 1474.517,213.783 1484.417,184.604 1491.259,170.602 1495.437,165.264 1495.823,164.865 "/>
</svg>
