<?xml version="1.0" encoding="utf-8"?>
<!-- Generator: Adobe Illustrator 16.0.4, SVG Export Plug-In . SVG Version: 6.00 Build 0)  -->
<!DOCTYPE svg PUBLIC "-//W3C//DTD SVG 1.1//EN" "http://www.w3.org/Graphics/SVG/1.1/DTD/svg11.dtd">
<svg version="1.1" id="Calque_1" xmlns="http://www.w3.org/2000/svg" xmlns:xlink="http://www.w3.org/1999/xlink" x="0px" y="0px"
	 width="500px" height="500px" viewBox="0 0 500 500" enable-background="new 0 0 500 500" xml:space="preserve">
<path id="Pays_de_la_Loire" fill="#FFFFFF" stroke="#010101" stroke-width="2" stroke-linecap="round" stroke-linejoin="round" d="
	M-22.957,710.133l-4.761-2.158l-2.365-0.433l-2.17,0.433l-0.858,1.511l1.506,3.238l9.943,0.216l2.802,1.08l-1.296-2.375
	L-22.957,710.133z M-3.96,667.377l-1.295-1.295l-4.097-2.157l-1.296-1.516l-0.227-2.591l0.438-2.371l-0.211-2.164l-2.591-1.511
	l-2.17-0.432l-7.125,0.432l2.17,2.807l1.943,6.911l1.943,2.806l3.239-1.724l3.239,2.157l2.591,4.102l1.717,4.106l1.943,1.295
	l0.648-2.378l-0.211-3.671L-3.96,667.377z M373.713,448.852l-1.086-0.647l-1.068-0.22l-3.887-0.214l-1.296-0.434l-6.058-4.534
	l-3.449,0.865l-2.591-0.647l-3.028-1.943l-1.296-1.295l-1.069-1.514l-2.592-4.316l-2.169-2.592l-1.506-0.866h-1.296l-0.437,0.434
	l-0.211,0.215l-0.212,0.218l-4.76-0.218l-10.575-3.021l-1.735-0.866l-0.21-0.648l0.21-1.726v-1.08l-0.21-1.296l-0.647-1.511
	l-0.857-0.433l-1.086,0.433l-1.732,0.43l-2.592-0.43l-3.45-1.943l-1.942-1.513l-1.295-1.727l-1.085-2.375l-0.648-1.944l-0.422-2.376
	l-0.226-5.183l0.647-4.965v-1.515l-0.212-1.295l-0.647-1.724l-0.857-1.081l-1.522-0.863l-5.183-2.376l-1.942-0.434h-1.718
	l-11.013,2.591l-2.17,1.729l-1.295,0.647l-1.506,0.434l-1.297,1.076l-0.857,1.295l-0.875,1.73l-0.857,1.295l-0.648,0.648
	l-0.648,0.433l-1.296,0.43h-0.857l-0.875,0.218l-0.647,0.216l-0.857,0.647l-0.438,0.862l-0.422,2.376l-0.648,0.863l-1.732,0.218
	l-2.154-0.865l-1.523-0.43h-1.295l-7.336,0.862l-0.437-9.504l-0.647-1.509l-1.07-1.51l-1.085-0.221h-1.085l-1.717-0.86l-2.169-1.944
	l-4.098-4.969l-1.295-2.59l-0.211-2.157l0.647-1.296l0.211-2.158l-0.647-1.297l-1.085-0.866l-7.774-3.02l-1.069,0.647l-0.438,0.862
	l0.21,1.297l0.228,1.295l-0.228,1.081l-0.647,1.076l-1.069,0.867l-1.522,0.647h-2.801l-1.733,0.429l-1.295,0.647l-1.296,1.729
	l-0.648,0.862l-0.647,0.867l-1.716,0.428l-8.422-2.371l-6.268-0.648l-1.506,0.215l-1.295,0.213l-1.085,0.649l-4.098,4.533
	l-1.085,0.868l-1.295,0.647l-10.802,2.591l-1.069-0.433l-0.438-0.862l-0.437-1.081l-0.858-0.862h-1.296l-6.041,1.724l-0.874,0.434
	l-0.422,1.081l-0.226,1.076l-0.858,1.082l-1.506,0.647l-1.085-0.214l-0.858-0.868l-0.875-1.076l-0.857-0.647h-1.086l-0.857,0.647
	l-1.085,0.429l-0.858-0.647l-0.647-1.076l-1.085-3.459l-1.296-2.371l-1.944-1.729l-4.534,0.861l-0.858-0.429h-0.648l-0.437-0.433
	l-2.591-1.083l-1.295,0.221l-0.858,0.429l-0.211,0.434l-0.647,0.214l-4.113,1.081h-4.098l-6.268-1.081v7.56l-0.421,3.238v3.24
	l1.506,13.818l0.211,3.672v2.158l-0.211,0.865l-2.381,4.75l-0.647,1.51l-0.647,2.161l0.227,1.511l0.211,0.863l0.438,0.647
	l0.21,0.434l0.857,1.943l0.227,0.862l0.211,1.08l0.437,3.672l0.211,1.079l0.858,5.399v1.078l-0.211,0.867l-0.437,0.428l-0.421,0.434
	l-0.227,0.434l-0.421,0.861l1.506,11.447l0.211,0.429l0.437,0.867l0.647,1.076l1.944,1.729l0.647,1.082v1.296l-0.21,2.157v2.158
	l0.421,3.238v1.515l-0.211,0.863l-0.21,0.214l-0.875,0.647l-1.069,0.647l-1.295,0.435l-1.944,0.213l-4.324,0.22l-1.506,0.215
	l-1.296,0.648l-1.295,0.86l-1.086,1.082l-1.733,2.377l-0.647,1.076l-0.42,1.295l-0.875,2.592l-1.296,6.265l-0.648,2.804
	l-1.295,3.026l-0.648,1.943l-1.068,4.967l-0.648,1.511l-0.648,1.081l-1.084,1.296l-1.085,5.397l-12.309-2.158l-1.717-0.647
	l-1.732-1.297l-0.438-1.295l-0.858-1.514l-1.085-0.647l-1.295-0.43l-2.591-0.218l-3.66,0.218l-1.296,0.861l-1.943,1.944
	l-12.746,6.045l-2.591,1.943l-1.086,1.08l-0.857,1.081l-0.858,1.296l-0.648,1.295l-2.171,1.727l-3.449,1.942l-14.899,4.753h-1.296
	l-2.38-0.434l-3.887-1.51l-8.843,3.239l-2.591,1.726l-4.324-0.215l-3.887,0.647l-0.858,0.215l-0.438,0.219l-1.732,1.511
	l-3.887,2.157l-0.858,3.239l0.21,0.647l0.438,1.081l-0.21,0.647l-0.227,0.863v0.647l0.227,0.867l-0.227,0.86l-0.421,0.863
	l-0.874,2.163l-1.506,7.986l-1.296,2.378l-1.506,1.296l-1.296,0.429l-1.522,1.08l-0.859,1.511l-0.647,1.944l-1.085,1.515
	l-0.648,0.647l-0.858,0.213L-10,571.717l-0.437-0.863l-0.211-0.648v-0.86v-1.082v-0.434l-0.437-0.429l-1.085-0.219l-2.154,1.295
	l-1.732,0.649l-1.506,0.219l-1.085-0.435l-0.648-0.434l-0.211-0.214l-0.21-0.214l-0.437-0.434l-0.858-0.434l-1.296,0.219
	l-0.874,0.429l-0.421,0.22l-0.227,0.214l-0.421,1.082l-0.648,1.509l-1.085,1.729l-1.732,2.373l-1.296,0.866l-1.295,0.215
	l-1.296-0.215H-32.9l-2.365,0.648h-1.085l-1.085-0.434l-1.068-0.862l-1.295-0.648l-1.522,0.214l-0.858,0.647l-0.858,1.511h-0.228
	h0.648l1.943,1.296l-1.068,2.592l1.943,0.866h3.013l1.943,0.429l-0.421,1.296l-4.324,2.377l-1.085,1.296l-0.857-1.083l0.437-0.428
	h0.211l0.21-1.08l-2.153-0.435l-1.295-0.647h-1.296l-9.928,5.83l5.183,3.239l1.505,2.81l0.211,5.398h0.875l0.647-1.73v-0.647
	l-0.647-1.297l0.428-0.428l0.43-0.22l0.866-0.429l1.943,2.592l2.374,2.372l1.085,2.378l-2.163,2.591l-2.809,0.433l-5.393-2.591
	l-2.811-0.433v1.295l11.661,6.045l3.669,0.219l0.219-0.434l0.218-1.08l0.429-1.295l1.077-0.863l0.867-0.216h1.077l2.162,0.216
	l1.943,1.081l3.021,3.453l1.943,1.729l2.162,0.861h2.373l2.381-0.861l2.802-2.811l3.676-1.077l1.295-1.295l0.648-1.081l0.429-1.081
	l0.866-1.296l3.887-2.373l17.053-1.08l4.754,1.295l1.725,1.729l1.084,0.43l3.021,0.219l2.373,0.862l4.324,2.591l4.316,3.672
	l3.668,4.535l2.162,1.725l5.183,1.081l2.591,1.729l-6.697-0.218l-2.802-1.295l-2.81-3.021l-1.295-0.866l-5.183-1.077l-4.964-3.672
	v-1.296h2.591l-1.085-1.296l-1.296-0.862l-1.295-0.433h-1.506l0.859,1.295H20.01l-6.268-1.729l-0.859-0.862l-1.085-1.296
	l-0.858,0.215l-0.858,0.434l-0.875,0.647l-11.434,1.08l-3.029,1.297l-1.084,1.51l-0.859,2.158l-0.437,2.376l-0.21,1.944l0.437,2.807
	l1.295,2.809v2.372l-0.437,2.592l-0.438,1.514l-0.858,0.647l-4.098,0.647l-1.522,1.079l-1.295,1.295l-1.717,1.081l4.308,2.375
	l14.252,2.592l7.353,4.102l1.943,1.944l1.295,2.158l1.295,3.238l0.21,3.024l-2.153,1.729l-1.523,3.24l-2.154,6.478l-1.506,2.805
	l-4.761,3.025l-1.718,1.942l0.648,2.592l-3.239,2.372l-0.875,1.942l-0.211,3.888l0.211,3.025l0.437,3.452l0.858,2.812l1.522,1.076
	l3.239,1.082l3.888,2.805l6.899,7.125l3.677,7.561l1.085,1.081l1.943,0.214l2.154,0.648l1.733,1.295l1.296,4.535l1.506,1.729
	l1.943,1.725l1.943,2.162l0.859,2.158l0.647,2.377l1.085,1.943l1.944,0.862l-0.438,3.024l2.817,13.171l1.069,1.728l1.085,0.647
	l0.437-0.864l-0.226-1.511l-0.648-3.024v-2.158l1.085,1.943l1.296,3.887l0.859,1.511l1.522,0.866l3.449,0.861l4.098,3.675
	l6.705,1.076l1.944,1.942l-1.085,2.162l3.239,1.077l8.21,0.433l3.45,0.647l2.802,1.944l1.944,3.238l0.647,4.535l1.296,3.887
	l3.239,0.211l6.478-2.155l1.732,0.649l2.802,2.381l3.887,2.364l1.296,0.219l1.943,0.647l2.17,3.458l2.364,2.801l3.239,0.867
	l-0.211-5.611l4.535-2.802l5.62,0.421l1.716,2.381l0.648-1.086l2.17-3.239l0.859-0.858l1.295-0.647l7.562-1.944l2.591-0.218
	l1.288-0.43l2.373-1.085l1.085,0.22l0.859,1.295l-0.21,1.297l-0.648,1.076l-0.858,0.866l-0.648,1.076l0.421,0.868l1.296,0.647h2.38
	l1.296-0.219l1.506-0.647l3.887-0.649l0.647-0.428l1.944-0.648h1.943l3.239,0.429l8.421,5.401l1.523-0.428l1.943-1.087l0.858-0.647
	l3.24-1.716l1.295-0.227h3.676l0.859-0.212l0.858-0.647l3.676-4.097l1.085-0.647l1.069-0.228h1.084l1.085,0.228h0.648l0.858-0.438
	l0.859-0.857l0.437-1.295l-0.211-1.295l-1.521-1.735l-4.309-3.452h-0.874l-0.648,0.428l-0.858,0.22l-0.858-0.867l-0.438-2.591
	l0.211-1.725l0.874-2.81l0.211-1.076v-1.083l-1.943-9.501l0.437-1.727l0.859-1.08l0.858-0.863l0.648-1.08l0.227-1.08l-0.227-1.727
	l-1.069-5.183l-0.226-3.672l-0.421-1.295l-0.648-1.511l-1.522-1.943l-0.647-1.943l-0.211-1.514v-1.296v-1.295l-0.437-1.511
	l-0.648-1.729l-3.239-6.907l-3.239-5.402l-1.069-3.02l-0.227-1.943l1.296-2.376l0.437-1.083l0.211-0.86l-0.422-1.082l-1.085-1.51
	l-2.591-2.378l-7.125-4.534l-1.085-1.509l-1.069-1.944l-0.875-3.025l-0.21-3.667l-0.438-1.516l-1.506-2.158l-3.239-1.942
	l-1.296-1.943l-1.732-3.452l-1.716-1.944l-4.535-3.238l0.21-1.083v-0.433l0.211-0.862l0.874-0.647l1.717,0.434l1.295,0.428
	l4.762,3.24l1.068,0.647l1.296,0.219h1.733l7.126-1.295l3.45,1.076l6.916,0.647l7.984-0.863l2.38-0.86l0.648-0.435l2.154-1.943
	l5.409-2.592l0.647-0.86v-1.082l-1.522-2.159l-0.21-1.295l0.437-1.081l1.069-1.08l1.085-0.648l2.591-0.862l1.295-0.215l1.296,0.215
	l2.802,1.511l1.732-0.215l6.916-2.159l3.449-1.513l13.167-1.727l7.127,0.216l2.38-0.648h1.296l1.295,0.433l1.506,1.297l0.649,1.725
	l0.217,1.514l0.43,1.295l0.647,0.863l3.028,1.081l1.507-3.024l0.647-1.081l1.085-1.077l3.45-1.081l1.295-0.647l1.085-1.729
	l0.429-1.296l0.219-1.295l0.429-1.296l4.106-5.182l2.152-0.648l6.48,1.296l1.732-13.819l2.154-10.364l0.646-2.158l0.648-1.296
	l1.296-2.376l3.458-4.75l3.457-5.83l0.21-1.515l-0.857-3.453l0.21-1.729l1.514-4.535l0.648-2.591l3.887-8.85l0.219-1.296
	l-0.219-1.295l-0.866-3.239v-2.378l0.438-2.157l2.802-7.773l5.401,1.51l3.457,0.434l7.125,2.157l1.726-0.213l0.648-0.867
	l-0.219-1.077l-0.43-2.162l-0.218-1.076v-1.298l0.437-1.295l1.506-1.296h1.295l2.811,1.726l1.515,0.433l0.857-0.433l0.438-0.862
	l1.079-1.081l1.942-1.296l4.964-1.078l6.696-3.456l1.514-0.43l1.726-0.218l1.077-0.43l0.647-0.866v-1.078l-0.21-1.08l-1.085-2.592
	l1.514-3.887l2.809-3.024l2.593-1.725l1.295-0.433h0.211l2.81-1.297l3.668-2.376l1.733-1.51l1.295-1.511l3.239-10.15l0.211-1.296
	v-1.295v-1.511l-0.211-1.295v-1.296v-1.516l0.438-1.724l0.648-1.943l1.506-1.516l1.732-1.076l2.803-2.81l1.085-1.725l0.42-1.515
	l-0.857-2.591l-0.211-1.944l0.211-2.156l1.085-3.887l0.21-1.945l-0.647-1.08l-2.153-0.216l-0.875-0.213l-0.647-0.868l-0.422-1.075
	l-0.647-1.296l-0.438-1.515v-1.511l0.858-0.861l1.085-0.434h2.592l1.295-0.215l1.085-0.866v-0.863l-0.647-0.86l-0.875-0.648
	l-0.857-0.867l-0.211-1.51l0.421-0.862l1.522-0.867l4.535-3.239l2.365-1.076l1.084-1.295v-1.082L373.713,448.852z"/>
<polygon fill="#FFFFFF" stroke="#010101" stroke-width="2" stroke-linecap="round" stroke-linejoin="round" points="
	787.014,123.651 785.508,120.413 784.212,118.684 783.339,116.741 783.564,112.639 783.339,109.615 783.339,109.4 781.395,109.83 
	779.678,109.4 772.762,105.513 772.762,105.513 773.848,105.729 773.848,105.729 773.848,105.295 773.621,102.922 772.974,99.897 
	772.326,99.683 772.762,97.307 773.411,96.011 774.495,94.929 774.495,94.929 775.144,94.067 776.649,92.772 776.649,92.772 
	779.451,90.614 782.479,89.318 782.479,89.318 782.479,88.022 781.621,86.507 780.974,84.564 778.804,76.362 777.509,75.714 
	776.212,75.93 773.848,77.01 772.114,76.143 772.326,72.69 774.706,64.916 775.354,61.462 776.001,59.733 777.297,58.004 
	780.099,55.632 780.099,55.632 781.395,54.337 781.621,52.174 780.974,50.879 779.451,49.583 777.734,48.506 776.649,48.288 
	775.144,48.936 775.144,48.936 774.917,50.017 775.144,51.527 774.495,52.174 774.269,52.393 771.903,51.312 768.665,43.972 
	766.073,41.595 763.483,40.085 759.369,35.55 757.004,34.469 754.187,34.684 746.412,38.142 743.61,38.142 741.458,37.061 
	739.286,35.55 736.695,34.254 731.513,33.607 726.12,34.036 724.387,34.684 724.387,34.684 723.528,35.765 721.374,39.651 
	720.727,41.162 720.5,41.81 720.29,41.81 719.853,42.242 719.642,42.028 719.432,42.028 719.432,42.028 718.994,43.324 
	718.994,43.324 714.67,39.218 713.602,31.445 713.602,22.375 712.516,14.82 710.362,11.148 707.981,8.771 705.39,7.476 
	702.588,6.828 694.588,6.828 692.871,5.75 694.167,3.588 694.377,1.864 693.52,0.998 691.786,0.35 690.053,0.568 688.758,1.431 
	687.462,2.512 685.745,3.807 680.337,5.966 677.324,6.18 675.154,5.532 669.762,2.727 668.255,1.431 666.312,-0.946 665.664,-3.104 
	665.436,-9.367 662.196,-20.38 661.129,-25.992 662.844,-29.23 661.549,-33.765 660.481,-35.708 658.749,-36.142 657.014,-36.356 
	656.157,-37.652 654.651,-41.324 652.919,-44.349 650.763,-48.018 648.819,-49.96 645.58,-51.042 635.637,-48.018 629.158,-45.859 
	626.357,-44.13 626.357,-44.13 623.977,-41.758 620.315,-35.28 620.315,-35.28 618.794,-33.984 616.851,-34.413 616.203,-34.632 
	606.275,-39.167 604.121,-41.11 603.473,-42.405 601.74,-46.292 601.093,-47.588 596.348,-51.904 595.474,-53.418 595.263,-54.714 
	594.615,-55.791 592.883,-56.657 591.812,-56.872 589.433,-56.439 588.348,-56.657 586.631,-56.872 585.756,-57.305 
	585.108,-58.382 584.04,-60.973 583.392,-61.621 581.87,-62.487 581.659,-63.135 581.659,-63.998 582.744,-66.156 582.744,-67.451 
	580.363,-75.873 581.011,-77.816 583.812,-80.625 583.812,-80.625 584.688,-81.703 584.25,-85.589 582.307,-88.614 577.772,-93.583 
	576.688,-97.251 575.393,-105.891 573.675,-110.425 573.448,-110.425 571.731,-109.13 566.76,-106.753 556.604,-104.162 
	549.269,-105.024 548.184,-104.809 546.888,-104.162 525.51,-97.251 505.655,-94.66 501.541,-92.068 499.387,-92.716 
	475.629,-82.351 471.742,-78.683 468.293,-73.715 466.139,-71.557 463.758,-70.69 461.167,-70.476 460.081,-70.042 457.069,-67.451 
	457.069,-66.589 457.49,-63.783 459.434,-56.657 460.309,-52.123 459.434,-48.45 458.138,-45.645 455.547,-37.871 454.898,-34.413 
	454.898,-30.312 456.194,-22.104 456.843,-12.821 457.49,-10.229 460.729,-5.047 456.843,-2.242 456.422,5.75 456.194,14.82 
	454.04,21.513 454.04,22.808 460.729,28.206 460.729,29.287 458.785,28.854 455.984,28.424 453.393,33.607 452.534,41.162 
	452.308,47.21 453.393,48.936 458.785,51.527 459.87,53.903 460.729,56.062 462.673,57.576 465.054,58.438 467.646,58.438 
	467.646,59.948 465.054,59.948 465.701,61.462 466.35,62.324 467.207,62.539 468.503,62.539 468.503,63.834 467.435,64.916 
	466.139,64.916 454.04,58.872 449.717,59.52 445.409,65.13 442.817,75.496 441.732,77.01 440.227,78.306 433.748,86.294 
	431.367,88.237 449.068,100.761 469.588,122.138 471.32,124.947 473.037,132.502 474.334,135.312 476.924,139.628 478.01,142.22 
	478.447,143.515 478.658,145.678 477.573,146.974 475.418,148.269 474.334,149.565 470.025,156.471 469.378,158.848 
	469.378,160.358 470.673,160.578 471.742,160.143 473.037,159.71 474.334,159.282 475.418,159.496 476.276,161.006 475.629,162.734 
	474.123,165.112 472.828,166.188 470.236,167.703 469.588,168.78 469.798,169.861 470.445,170.942 471.094,172.238 471.094,175.905 
	471.531,181.522 471.969,183.465 472.617,185.842 473.037,192.319 473.476,194.478 474.334,195.774 474.981,195.774 
	475.855,195.559 476.924,194.911 478.221,194.478 479.516,194.693 480.391,196.636 480.164,198.365 479.516,200.523 
	478.447,201.389 477.799,201.819 477.151,201.819 476.924,202.251 476.503,203.114 475.629,205.706 474.561,208.515 
	473.912,210.888 474.561,218.662 478.01,232.265 481.248,240.472 482.107,243.497 482.107,243.71 481.896,243.926 481.248,244.359 
	480.164,244.573 479.306,244.145 478.868,243.926 478.658,243.71 477.361,241.553 476.276,240.472 474.981,239.824 473.686,240.039 
	472.39,240.687 470.884,243.278 470.673,243.71 470.884,245.006 471.531,247.383 473.476,249.108 473.686,250.403 474.123,252.566 
	474.981,253.862 476.503,255.157 478.01,255.586 479.306,255.805 483.192,255.805 489.022,257.748 492.698,258.396 494.853,259.258 
	499.176,258.178 505.006,257.962 507.371,257.529 509.314,256.453 514.497,252.566 516.019,251.484 517.963,250.837 
	519.031,251.051 519.906,251.918 520.764,252.994 522.498,254.291 525.736,256.02 527.453,256.02 530.481,256.667 538.466,260.121 
	540.199,260.553 541.932,260.34 546.24,257.748 548.409,257.102 550.354,257.748 571.942,269.625 573.237,269.625 575.393,268.762 
	576.266,269.189 576.914,270.058 577.562,271.133 578.631,272.863 581.223,275.02 586.631,272.429 589.644,273.076 591.812,275.455 
	593.319,276.535 594.615,276.535 597.206,275.455 598.291,275.888 599.36,276.964 600.008,277.611 601.304,278.046 602.6,278.046 
	603.473,277.611 604.121,276.964 604.77,275.888 606.064,274.807 607.36,274.592 608.655,274.807 615.345,276.75 625.062,275.02 
	627.005,274.158 628.301,274.592 630.033,276.102 631.103,276.102 633.046,274.373 634.778,273.511 636.511,273.297 
	638.455,273.511 639.75,272.863 642.554,270.92 650.115,273.297 651.184,274.592 652.48,276.102 654.214,280.422 654.423,282.146 
	654.214,284.09 653.566,285.385 653.355,286.467 653.355,287.328 653.775,288.843 654.651,290.14 672.353,305.901 673.859,306.333 
	675.802,305.253 676.887,305.038 677.745,305.901 678.183,306.98 678.83,309.788 678.83,311.946 679.04,313.242 680.125,315.185 
	684.66,318.424 686.604,319.29 688.337,319.72 691.997,319.072 693.729,314.971 695.025,312.594 696.109,311.083 703.884,303.31 
	704.742,301.8 705.39,299.855 705.827,298.561 707.334,297.265 709.487,295.749 711.01,293.158 712.952,291.001 714.249,290.14 
	715.107,289.271 715.755,287.976 715.755,286.252 715.107,285.385 714.022,284.736 712.952,284.523 711.657,284.523 
	707.545,284.957 706.475,284.523 705.39,283.876 705.18,283.013 704.953,282.58 704.953,281.498 705.18,280.637 705.39,279.555 
	707.122,278.26 708.192,277.396 709.277,275.888 710.362,273.943 710.572,272.216 710.572,270.92 710.135,268.327 709.925,267.032 
	709.925,265.951 710.135,264.875 710.783,264.008 711.431,263.145 713.164,262.497 714.459,262.497 719.642,263.359 
	721.147,263.145 722.232,262.711 723.528,261.85 724.612,260.553 725.262,258.825 725.035,257.748 724.612,257.102 722.443,255.805 
	721.585,254.938 720.727,253.862 720.079,252.779 718.994,252.348 717.908,252.348 716.84,252.132 716.402,251.271 715.965,250.189 
	715.755,248.893 715.317,240.687 715.107,239.391 714.67,237.88 713.375,235.075 713.164,233.778 715.544,231.835 719.853,229.674 
	730.218,226.653 737.99,225.572 738.866,225.357 739.286,224.492 739.286,223.196 739.075,221.9 739.075,220.823 739.935,219.742 
	741.458,218.879 744.468,218.879 745.991,219.094 747.288,219.742 750.735,222.333 752.032,222.548 753.327,222.333 
	754.623,221.038 756.131,220.823 757.004,221.038 759.157,222.548 760.453,222.981 761.539,222.548 762.396,221.686 
	762.834,219.957 763.256,218.662 763.483,213.912 762.396,211.106 760.666,210.24 761.313,208.729 761.961,207.649 763.045,206.787 
	765.426,206.354 764.778,204.195 762.608,200.308 761.748,198.798 761.748,197.069 762.608,195.341 764.778,193.183 765.426,192.1 
	765.199,190.157 764.778,188.433 764.552,186.918 765.199,184.974 765.637,183.465 765.199,181.735 764.552,180.44 764.131,179.144 
	763.483,176.554 762.608,173.749 762.187,172.453 763.256,170.942 764.341,170.075 765.637,169.861 768.229,169.861 
	769.523,169.214 771.029,168.132 772.762,164.893 774.059,163.169 775.354,162.086 776.438,161.654 777.509,160.791 
	779.451,158.415 783.986,154.313 785.071,153.018 785.508,151.289 785.719,148.698 784.859,146.539 782.916,144.596 782.479,143.3 
	783.339,136.609 784.212,134.446 786.156,131.208 787.225,128.616 787.451,127.538 787.451,125.81 "/>
<polygon fill="#FFFFFF" stroke="#010101" stroke-width="2" stroke-linecap="round" stroke-linejoin="round" points="
	481.248,240.472 478.01,232.265 474.561,218.662 473.912,210.888 474.561,208.515 475.629,205.706 476.503,203.114 476.924,202.251 
	477.151,201.819 477.799,201.819 478.447,201.389 479.516,200.523 480.164,198.365 480.391,196.636 479.516,194.693 
	478.221,194.478 476.924,194.911 475.855,195.559 474.981,195.774 474.334,195.774 473.476,194.478 473.037,192.319 
	472.617,185.842 471.969,183.465 471.531,181.522 471.094,175.905 471.094,172.238 470.445,170.942 469.798,169.861 469.588,168.78 
	470.236,167.703 472.828,166.188 474.123,165.112 475.629,162.734 476.276,161.006 475.418,159.496 474.334,159.282 473.037,159.71 
	471.742,160.143 470.673,160.578 469.378,160.358 469.378,158.848 470.025,156.471 474.334,149.565 475.418,148.269 
	477.573,146.974 478.658,145.678 478.447,143.515 478.01,142.22 476.924,139.628 474.334,135.312 473.037,132.502 471.32,124.947 
	469.588,122.138 449.068,100.761 431.367,88.237 417.553,99.465 412.581,104.865 409.552,105.943 406.539,108.319 355.573,124.729 
	344.998,124.514 335.28,128.187 330.52,131.425 326.213,132.721 310.664,142.005 309.368,143.949 293.174,151.289 292.088,152.585 
	290.582,152.585 284.525,157.552 282.582,159.93 277.627,176.554 271.359,188.214 270.922,189.729 270.712,191.672 271.148,193.397 
	272.865,194.478 273.302,195.774 274.387,197.502 276.979,199.013 279.781,199.875 281.935,200.093 284.314,200.093 
	293.174,203.114 303.538,204.628 313.677,203.114 322.535,197.502 320.382,200.308 318,202.466 312.38,205.491 296.834,208.944 
	281.514,212.401 273.302,218.447 270.5,222.981 269.205,223.844 266.387,224.709 263.146,227.73 257.316,230.54 237.462,235.075 
	234.223,238.096 222.773,230.97 216.505,229.459 212.846,227.083 210.675,226.22 202.043,226.22 196.86,223.844 193.833,222.981 
	189.298,225.572 186.285,225.357 180.876,223.629 159.726,222.333 145.036,216.718 128.841,215.855 126.688,216.936 
	124.517,219.094 123.659,221.686 124.954,223.629 124.954,224.924 122.573,225.572 121.277,224.924 120.209,223.629 
	118.914,222.333 117.618,222.548 116.095,223.414 115.237,223.629 114.8,221.686 115.026,221.038 115.675,220.175 116.095,218.662 
	116.322,216.503 115.885,212.401 114.8,209.592 105.309,197.717 103.576,192.319 101.422,189.081 99.689,185.194 100.337,180.659 
	101.196,179.792 102.281,179.363 105.083,179.363 105.52,178.497 105.73,176.772 106.378,175.044 109.617,172.667 108.97,169.427 
	106.167,163.597 105.73,160.358 105.083,159.062 104.224,158.634 89.325,155.824 86.944,156.043 81.34,157.767 79.608,159.282 
	76.369,163.597 74.425,165.327 72.271,166.408 70.75,166.188 68.158,165.327 66.862,165.112 65.356,165.541 63.85,167.271 
	62.554,167.703 61.679,167.271 61.469,166.408 61.469,165.541 61.259,165.112 59.315,165.112 50.019,162.086 41.824,160.791 
	39.233,159.93 38.585,159.71 37.29,159.93 36.642,159.93 36.205,158.848 35.557,156.69 35.12,155.824 33.824,155.395 
	30.375,155.824 28.868,155.395 26.487,153.665 25.192,153.232 21.953,153.665 21.515,155.176 21.742,157.986 20.657,162.521 
	26.049,164.679 30.164,165.541 31.232,166.836 31.881,168.78 32.966,170.942 33.824,173.533 33.824,176.772 33.176,182.603 
	32.528,184.546 29.079,187.785 28.22,190.376 28.868,191.672 32.107,195.559 33.176,197.502 33.613,199.013 33.824,200.093 
	34.05,200.956 35.768,204.195 36.205,205.491 36.642,206.787 36.852,209.377 36.205,215.855 36.642,218.447 37.937,219.742 
	39.233,219.527 40.95,218.879 42.683,218.447 42.245,219.094 42.035,219.742 41.824,221.038 44.189,222.333 47.007,225.572 
	49.161,226.868 50.246,223.629 51.104,223.629 52.837,227.516 52.837,228.812 50.246,228.812 51.104,231.618 52.61,233.778 
	56.287,236.585 55.639,236.8 55.429,237.233 54.554,238.096 56.287,240.257 58.44,247.165 60.384,249.541 61.469,245.87 
	64.061,246.088 67.299,247.598 69.891,248.246 69.891,249.541 65.356,248.246 63.202,248.246 62.117,250.189 62.327,253.643 
	62.975,257.314 63.623,260.769 64.708,263.792 65.356,262.932 65.793,262.711 67.299,263.792 64.708,265.522 64.061,266.599 
	62.975,268.975 62.554,271.566 62.327,273.725 62.975,275.02 64.708,275.455 64.271,277.396 63.85,279.341 63.85,283.876 
	64.271,285.385 65.146,287.328 66.004,288.41 66.441,287.548 67.299,284.736 69.68,283.441 72.482,283.441 74.863,284.523 
	74.863,285.604 71.834,284.309 70.102,285.171 69.454,287.976 67.948,298.775 68.595,299.855 70.102,300.285 70.539,301.366 
	70.539,303.095 69.891,305.253 68.806,303.524 67.948,305.468 66.862,314.537 66.004,316.698 64.708,318.424 62.975,319.072 
	62.975,320.585 66.004,321.233 67.51,324.255 68.158,328.789 68.158,333.756 69.243,338.291 73.778,342.393 74.863,346.712 
	75.51,348.007 77.017,348.87 81.34,350.167 81.988,351.033 82.41,351.895 82.41,353.189 82.847,354.053 83.495,353.839 
	84.142,352.977 84.142,352.542 88.887,352.977 91.706,354.486 93.649,357.725 89.114,355.997 75.721,359.02 66.004,357.725 
	64.708,357.939 64.918,358.372 65.356,359.883 65.567,360.75 65.793,362.046 66.862,364.637 68.806,368.524 69.68,370.681 
	70.102,371.543 70.539,372.625 70.75,374.782 71.187,376.078 72.271,378.67 75.932,385.367 77.017,386.442 80.045,388.605 
	80.903,389.683 82.199,390.764 84.142,391.411 86.944,391.197 90.41,389.901 92.353,388.605 94.944,386.229 96.24,385.367 
	99.042,384.286 100.126,383.638 101.196,382.775 102.07,381.695 103.787,378.889 104.872,377.808 107.026,377.593 110.054,377.808 
	122.8,381.479 124.744,383.203 127.982,384.719 134.024,385.795 138.348,385.795 142.445,384.5 143.093,384.286 143.303,383.853 
	144.178,383.424 145.684,382.99 148.065,384.286 148.486,384.5 149.361,384.719 150.218,384.934 154.753,384.071 156.697,386.015 
	158.203,388.386 159.726,391.845 160.374,392.921 161.232,393.568 162.317,393.14 163.175,392.492 164.26,392.492 165.119,393.14 
	165.976,394.216 166.851,395.084 168.147,395.298 169.653,394.864 170.512,393.787 170.738,392.492 170.949,391.625 
	172.034,390.978 178.075,389.468 179.16,389.468 180.018,390.549 180.455,391.625 180.876,392.492 182.172,392.921 192.763,390.33 
	194.059,389.683 195.128,388.82 199.452,384.286 200.537,383.638 201.606,383.203 203.339,383.203 209.379,383.638 217.801,386.015 
	219.534,385.581 220.182,384.934 220.829,383.853 221.915,382.127 223.421,381.479 225.154,381.047 227.956,381.047 
	229.461,380.399 230.547,379.536 231.195,378.241 231.632,377.16 231.405,375.865 231.195,374.568 231.632,373.706 232.491,373.059 
	240.264,376.078 241.349,376.944 241.77,378.241 241.56,380.399 240.912,381.695 241.123,383.853 242.419,386.442 246.531,391.197 
	248.685,393.14 250.629,394.003 251.714,394.003 252.783,394.216 253.658,395.731 254.516,397.242 254.954,406.744 262.289,405.663 
	263.586,405.879 265.092,406.097 267.262,406.959 268.979,406.959 269.854,406.097 270.064,403.72 270.5,402.857 271.359,402.209 
	272.007,401.776 272.865,401.562 273.739,401.562 275.246,401.129 275.684,400.696 276.542,400.049 277.399,398.751 
	278.274,397.027 279.132,395.731 280.428,394.65 281.935,394.216 283.229,393.568 285.174,391.845 296.187,389.254 297.919,389.254 
	299.862,389.683 305.045,392.06 306.55,392.921 307.425,394.003 308.072,395.731 308.284,397.027 308.284,398.538 307.635,403.505 
	307.847,408.688 308.284,411.061 308.72,413.004 309.79,415.595 311.085,417.109 313.029,418.619 316.268,420.777 318.859,421.211 
	320.382,420.777 321.678,420.348 322.535,420.777 323.183,422.29 323.393,423.587 323.393,424.664 323.183,426.393 323.393,427.041 
	325.128,427.903 335.703,430.928 340.463,431.143 340.675,430.928 340.886,430.713 341.322,430.28 342.618,430.28 344.124,431.36 
	346.293,433.952 348.885,438.269 349.954,439.782 351.25,441.077 354.278,443.021 356.869,443.668 360.318,442.803 361.842,441.94 
	362.7,441.077 363.558,439.996 363.785,438.485 363.349,436.543 362.7,435.029 360.546,431.36 360.318,430.928 360.108,430.28 
	359.898,428.983 359.898,427.473 360.318,425.098 360.108,423.587 359.671,422.29 358.812,421.643 357.955,420.562 357.307,419.268 
	357.955,417.109 358.376,415.812 359.023,415.165 359.898,414.947 362.052,414.518 363.785,414.085 372.206,410.63 374.798,408.902 
	378.458,405.449 379.106,404.368 379.754,401.776 380.401,400.696 381.049,399.398 382.134,398.104 382.781,396.808 
	382.571,395.513 381.275,393.568 380.191,392.273 379.332,391.197 378.896,390.116 378.684,388.386 378.684,387.091 
	378.684,385.795 379.106,384.5 379.106,384.286 379.332,383.638 379.332,382.775 379.106,381.479 378.458,380.185 371.979,372.84 
	368.32,370.681 366.797,368.952 364.644,364.851 363.349,362.046 362.489,353.624 366.587,349.304 367.883,348.223 369.389,347.359 
	381.275,343.907 382.571,343.907 383.866,344.121 385.163,343.907 386.458,343.258 387.527,341.745 388.175,340.449 
	389.049,339.153 390.119,338.291 391.852,337.644 393.146,337.428 395.738,337.644 395.949,337.644 396.386,337.644 
	397.244,337.428 397.892,336.78 398.329,335.699 398.329,333.323 398.767,332.461 399.414,332.245 400.921,332.894 404.159,335.915 
	405.454,336.347 406.751,336.562 408.046,336.78 412.369,336.347 413.666,336.562 414.734,336.996 415.819,337.857 416.03,337.857 
	416.467,337.644 417.115,337.428 422.297,334.404 425.327,333.108 426.622,332.027 427.918,330.732 428.776,328.142 
	429.214,326.197 430.072,324.473 431.367,322.743 434.169,320.153 436.112,318.856 439.142,317.346 440.227,316.48 441.085,315.185 
	441.521,313.242 441.521,311.946 440.437,307.844 440.647,306.333 441.295,305.253 446.268,302.229 445.619,299.855 
	445.409,298.775 445.619,297.265 445.619,295.97 444.972,295.32 443.887,294.889 442.817,294.889 441.732,294.454 441.085,293.378 
	441.085,292.297 441.085,291.435 441.521,289.706 441.521,289.059 441.521,287.976 441.295,286.899 440,284.09 440.227,282.794 
	441.521,281.718 457.069,278.046 462.025,275.238 467.855,254.938 471.531,247.383 470.884,245.006 470.673,243.71 470.884,243.278 
	472.39,240.687 473.686,240.039 474.981,239.824 476.276,240.472 477.361,241.553 478.658,243.71 478.868,243.926 479.306,244.145 
	480.164,244.573 481.248,244.359 481.896,243.926 482.107,243.71 482.107,243.497 "/>
<polygon id="Île-de-France" fill="#FFFFFF" stroke="#010101" stroke-width="2" stroke-linecap="round" stroke-linejoin="round" points="
	691.997,319.072 691.576,322.959 691.139,324.039 690.279,325.12 688.984,325.55 684.872,325.55 683.364,325.983 683.154,326.845 
	683.575,327.711 685.309,329.222 685.52,330.303 684.66,331.165 682.928,332.675 682.069,333.972 681.632,335.915 681.632,336.996 
	681.858,337.644 682.069,337.644 682.717,337.857 684.223,337.644 684.872,337.644 685.098,338.076 685.52,338.506 686.167,339.802 
	687.041,340.882 688.11,341.529 688.547,342.61 688.984,343.688 689.194,344.769 689.843,347.794 690.053,349.737 688.984,354.271 
	689.194,356.429 689.632,357.939 690.702,358.588 691.786,358.588 694.167,357.725 694.814,357.725 695.673,357.939 
	696.532,359.669 699.35,363.342 693.94,368.089 691.786,371.543 690.702,374.782 689.843,376.944 688.547,378.241 687.041,378.67 
	685.52,378.889 683.575,379.317 682.928,379.751 682.717,380.832 683.364,381.908 684.66,384.071 684.872,384.719 684.449,385.795 
	681.858,387.957 681.211,389.254 680.984,390.33 682.28,393.14 682.507,393.787 682.28,394.65 681.632,397.027 681.211,399.186 
	681.632,400.914 678.619,404.368 676.677,407.821 675.592,408.47 674.507,408.255 672.142,407.392 670.847,407.174 658.311,409.335 
	656.366,409.117 655.071,408.688 649.031,408.255 647.736,408.47 646.65,408.902 646.001,409.335 644.933,410.198 644.285,410.413 
	638.019,410.198 637.158,410.846 636.724,411.493 636.285,413.004 636.076,414.518 635.863,415.595 635.216,416.676 
	634.778,417.757 634.341,419.052 634.341,420.13 634.341,421.425 634.341,422.722 634.778,424.017 635.426,425.312 636.076,426.393 
	636.511,427.473 636.285,428.77 635.637,429.632 634.988,430.713 634.778,430.928 633.693,433.519 633.046,434.813 631.54,436.324 
	627.652,438.269 626.146,439.134 625.498,440.212 624.851,441.293 624.413,443.451 624.203,445.826 623.556,448.418 
	611.021,452.739 609.305,452.953 607.36,452.52 607.36,451.443 607.781,450.148 608.43,449.065 608.008,448.204 606.485,447.557 
	603.247,447.984 601.304,448.634 600.008,449.714 599.149,451.009 597.854,452.306 595.474,454.034 593.757,454.464 
	576.914,453.167 574.743,453.387 570.436,454.683 568.703,454.683 566.76,454.248 565.674,453.387 564.816,452.306 564.605,451.225 
	564.816,450.148 565.465,449.065 566.322,448.204 567.407,448.204 570.646,448.852 571.084,448.634 571.731,447.984 
	571.942,447.123 571.731,446.042 570.857,444.531 570.857,444.099 570.857,443.668 572.152,441.293 572.59,440.212 572.59,438.916 
	571.731,437.405 569.998,435.677 563.082,430.928 562.873,430.713 562.662,430.064 560.93,423.153 560.282,421.425 558.337,418.834 
	553.593,419.7 548.184,416.46 546.888,416.676 546.029,417.323 545.171,418.619 543.875,419.7 540.637,420.562 539.113,420.13 
	538.466,419.268 538.256,417.971 537.607,416.676 536.312,415.595 534.807,414.3 533.511,414.518 532.636,415.165 531.566,417.757 
	530.919,418.834 529.834,419.915 525.51,421.858 507.598,425.96 505.655,424.664 505.429,423.587 505.429,422.506 506.076,421.643 
	507.161,420.562 508.894,417.971 508.894,416.892 508.456,416.243 506.076,414.947 505.006,413.004 504.358,410.63 503.921,406.311 
	502.837,404.368 501.768,403.072 500.683,402.209 499.387,400.696 499.176,399.186 498.95,394.864 498.091,394.003 493.557,394.864 
	490.318,393.787 484.277,390.549 482.333,388.82 481.038,387.091 479.953,384.5 479.743,384.286 479.743,382.99 479.953,380.185 
	479.953,379.104 479.743,377.808 479.516,376.297 479.095,374.782 477.799,372.84 476.276,371.763 474.123,370.467 473.037,369.172 
	472.617,367.876 472.18,365.284 471.531,363.555 470.025,362.259 463.758,357.725 462.025,355.781 460.956,353.839 459.87,350.599 
	458.785,349.518 456.843,348.441 456.632,347.575 456.422,346.499 456.843,345.203 457.49,343.907 459.434,341.529 460.081,340.234 
	460.309,338.724 460.309,338.076 460.081,337.644 456.632,335.485 455.773,334.404 455.547,333.541 455.336,331.598 
	455.336,330.732 455.336,329.869 455.547,328.574 456.194,325.983 456.422,324.255 456.422,322.528 455.773,319.938 
	454.898,318.209 452.955,315.618 446.268,302.229 445.619,299.855 445.409,298.775 445.619,297.265 445.619,295.97 444.972,295.32 
	443.887,294.889 442.817,294.889 441.732,294.454 441.085,293.378 441.085,292.297 441.085,291.435 441.521,289.706 
	441.521,289.059 441.521,287.976 441.295,286.899 440.227,284.09 440.227,282.794 441.521,281.718 457.069,278.046 462.025,275.238 
	467.855,254.938 471.531,247.383 473.476,249.108 473.686,250.403 474.123,252.566 474.981,253.862 476.503,255.157 478.01,255.586 
	479.306,255.805 483.192,255.805 489.022,257.748 492.698,258.396 494.853,259.258 499.176,258.178 505.006,257.962 
	507.371,257.529 509.314,256.453 514.497,252.566 516.019,251.484 517.963,250.837 519.031,251.051 519.906,251.918 
	520.764,252.994 522.498,254.291 525.736,256.02 527.453,256.02 530.481,256.667 538.466,260.121 540.199,260.553 541.932,260.34 
	546.24,257.748 548.409,257.102 550.354,257.748 571.942,269.625 573.237,269.625 575.393,268.762 576.266,269.189 576.914,270.058 
	577.562,271.133 578.631,272.863 581.223,275.02 586.631,272.429 589.644,273.076 591.812,275.455 593.319,276.535 594.615,276.535 
	597.206,275.455 598.291,275.888 599.36,276.964 600.008,277.611 601.304,278.046 602.6,278.046 603.473,277.611 604.121,276.964 
	604.77,275.888 606.064,274.807 607.36,274.592 608.655,274.807 615.345,276.75 625.062,275.02 627.005,274.158 628.301,274.592 
	630.033,276.102 631.103,276.102 633.046,274.373 634.778,273.511 636.511,273.297 638.455,273.511 639.75,272.863 642.554,270.92 
	650.115,273.297 651.184,274.592 652.48,276.102 654.214,280.422 654.423,282.146 654.214,284.09 653.566,285.385 653.355,286.467 
	653.355,287.328 653.775,288.843 654.651,290.14 672.353,305.901 673.859,306.333 675.802,305.253 676.887,305.038 677.745,305.901 
	678.183,306.98 678.83,309.788 678.83,311.946 679.04,313.242 680.125,315.185 684.66,318.424 686.604,319.29 688.337,319.72 "/>
<polygon id="Centre" fill="#FFFFFF" stroke="#010101" stroke-width="2" stroke-linecap="round" stroke-linejoin="round" points="
	623.556,448.418 625.272,448.418 627.442,448.634 632.188,449.929 633.693,451.009 634.778,451.656 635.637,452.739 
	636.076,454.034 638.455,463.104 639.314,464.613 640.398,465.908 644.285,468.934 646.229,471.091 646.65,472.387 646.876,473.682 
	647.298,476.923 646.65,479.299 644.285,484.91 643.201,486.64 642.115,487.5 639.523,489.016 638.229,490.092 636.285,492.47 
	635.426,493.551 634.341,493.979 632.625,493.766 632.188,494.198 631.75,495.494 632.398,500.243 632.835,501.972 633.92,504.13 
	634.341,505.211 633.693,506.722 633.046,507.802 632.625,508.665 632.398,509.746 632.835,511.041 632.835,512.337 
	632.835,513.632 631.75,515.358 630.681,516.224 626.568,517.734 622.681,520.325 621.386,520.759 620.315,520.759 617.936,520.54 
	615.556,520.973 614.26,521.406 613.4,522.054 612.543,522.917 612.316,523.35 611.895,525.074 611.895,526.803 612.105,528.313 
	612.543,529.395 613.838,530.257 614.907,530.257 616.203,530.69 617.288,531.553 620.738,534.791 622.26,536.305 623.977,539.76 
	624.625,541.702 624.625,543.432 623.328,545.59 623.556,547.101 624.203,548.828 627.863,553.578 628.948,556.603 626.357,557.464 
	621.612,557.464 620.315,557.897 615.345,560.704 615.345,561.57 614.907,562.219 618.146,566.318 619.442,568.91 620.527,572.148 
	621.386,573.659 623.556,576.471 624.203,577.547 624.413,578.413 624.413,579.709 623.556,584.892 623.118,585.539 
	622.471,587.264 622.033,588.559 621.822,589.207 621.386,590.073 620.09,592.88 618.583,594.823 617.498,597.2 617.288,597.848 
	617.288,598.495 617.498,599.571 618.373,601.086 619.021,601.949 619.442,602.382 620.09,602.81 620.527,603.245 621.822,603.678 
	622.26,603.893 622.681,604.325 625.92,608.643 626.795,609.508 628.737,610.804 629.386,611.451 629.807,612.528 630.243,614.043 
	631.54,620.521 631.75,621.168 632.625,623.111 634.341,628.294 635.863,633.691 636.076,634.339 636.933,637.578 636.933,638.874 
	636.933,640.384 636.724,643.193 636.511,644.704 636.724,646 637.371,647.295 637.808,647.942 640.171,650.101 640.609,650.534 
	641.046,650.968 641.259,651.616 641.468,655.069 641.468,659.603 641.906,661.762 642.115,663.058 642.115,664.572 
	641.693,666.516 640.819,670.615 639.75,673.642 639.523,674.503 639.523,675.365 639.75,676.88 639.962,677.742 641.468,680.548 
	641.468,681.195 641.693,681.844 641.906,683.139 641.468,684.435 640.609,686.378 637.808,691.78 637.158,693.291 636.933,693.723 
	636.511,697.61 633.046,697.61 629.807,697.177 624.203,698.905 616.43,704.088 615.556,704.735 614.697,706.679 614.049,707.975 
	612.753,709.271 611.458,709.053 610.162,708.623 608.655,708.404 607.57,709.053 605.628,711.213 604.543,711.429 600.445,709.7 
	599.798,708.837 599.36,708.189 598.291,707.757 597.643,708.404 595.7,710.781 592.023,714.02 589.87,715.748 586.631,715.748 
	585.982,716.396 585.982,717.259 586.404,719.851 585.756,720.931 584.461,721.146 581.659,720.931 580.8,721.146 580.363,721.794 
	580.363,722.874 580.8,723.736 582.096,725.681 582.518,726.761 582.307,727.408 581.448,729.135 581.223,730.43 581.448,731.511 
	582.096,732.806 584.04,735.183 584.688,736.26 585.108,737.341 585.335,737.988 585.546,738.851 585.546,739.716 585.335,740.579 
	584.897,741.013 574.533,744.033 568.703,744.467 565.253,745.329 564.168,745.329 562.873,745.114 560.93,745.329 558.548,745.978 
	551.002,749.648 549.269,752.674 547.973,753.97 546.888,754.617 546.029,754.831 545.171,755.479 544.523,756.342 543.648,758.504 
	540.409,764.115 528.102,763.468 521.623,764.982 517.525,763.252 510.4,763.252 509.541,763.039 506.95,761.524 505.429,761.095 
	494.416,760.876 493.119,761.095 491.824,761.524 489.233,763.468 488.163,764.115 486.431,763.901 485.346,762.82 482.756,759.366 
	481.686,758.504 480.601,758.504 479.516,758.719 478.447,760.229 478.221,761.524 478.221,762.604 478.447,763.901 
	478.447,764.982 478.01,766.059 477.573,767.14 476.503,767.997 474.981,768.435 469.798,767.14 468.503,767.576 466.997,768.646 
	465.701,769.731 464.615,770.817 463.109,771.026 460.956,770.589 459.87,769.52 459.66,768.435 459.87,767.35 459.223,766.491 
	457.928,765.844 454.688,766.491 452.955,766.059 451.66,765.41 450.364,765.196 448.421,765.63 440.437,774.056 436.55,776.419 
	430.93,772.76 430.282,771.674 429.861,770.379 428.986,769.294 427.918,768.435 426.622,768.224 424.889,769.082 424.241,770.17 
	423.804,771.237 422.946,772.321 421.212,772.76 415.819,773.408 414.087,773.408 412.581,773.18 410.848,771.885 409.342,771.674 
	407.188,769.941 409.342,762.604 407.836,760.447 405.454,758.933 404.159,758.069 402.864,756.127 402.653,754.617 
	403.722,750.297 403.722,749.648 403.301,748.567 402.864,747.706 402.216,746.409 401.131,745.329 400.062,744.467 
	398.977,744.033 397.682,743.604 390.119,743.604 388.611,742.956 387.964,741.876 387.754,739.068 386.879,738.203 
	386.021,737.773 383.641,737.126 380.191,735.183 377.389,732.591 375.866,730.862 374.798,729.135 374.15,726.328 373.713,723.952 
	373.713,720.283 373.924,719.202 374.15,718.122 374.571,716.825 375.009,715.748 375.009,714.02 374.571,711.862 373.064,708.623 
	372.206,706.894 369.615,703.868 364.433,699.553 349.743,677.742 347.152,669.968 345.857,667.377 344.561,665.867 
	343.266,665.001 340.675,663.925 333.759,659.603 332.253,658.955 332.043,659.39 331.815,659.603 332.043,660.252 332.043,660.686 
	332.043,662.194 332.253,662.842 332.463,663.277 332.9,663.705 333.11,664.354 333.338,664.785 333.548,665.433 333.759,666.082 
	333.759,666.729 333.338,667.377 332.253,667.811 331.168,668.24 321.24,668.673 319.086,669.32 318,669.755 317.353,670.615 
	316.495,671.479 315.2,671.912 309.58,670.831 304.187,671.479 301.805,670.831 300.51,669.755 299.652,668.459 299.215,667.163 
	299.004,665.867 299.004,663.277 299.004,659.818 299.862,656.15 300.072,653.988 299.862,652.912 299.425,652.045 298.356,651.83 
	295.765,651.616 294.89,650.749 294.242,648.806 293.385,648.376 292.3,648.158 289.497,649.239 287.991,649.671 286.258,649.671 
	285.174,649.023 284.963,647.942 285.174,646.647 285.611,645.352 285.822,644.057 285.611,642.546 285.174,641.249 
	284.104,640.817 281.287,641.898 279.569,641.898 278.922,641.032 278.695,640.169 278.695,638.874 278.922,637.793 
	278.274,636.716 277.399,636.716 275.246,638.011 273.949,638.227 272.865,637.793 272.217,636.716 271.569,635.419 
	270.922,634.339 269.627,631.963 271.569,617.929 273.739,607.779 274.387,605.403 275.035,604.106 276.542,601.733 
	279.992,596.979 283.457,591.149 283.457,589.642 282.81,586.188 283.02,584.459 284.525,579.924 284.963,577.332 288.85,568.477 
	289.06,567.182 288.85,565.671 287.991,562.433 287.991,560.056 288.412,557.897 291.441,550.123 296.834,551.634 300.3,552.067 
	307.425,554.226 309.143,554.011 309.58,553.149 309.368,552.067 308.932,549.91 308.72,548.615 308.72,547.317 309.143,546.237 
	310.664,544.942 311.96,544.942 314.762,546.67 316.495,547.101 317.353,546.67 317.562,545.59 318.647,544.509 320.592,543.213 
	325.564,542.135 332.253,538.679 333.759,538.249 335.492,538.031 336.788,537.602 337.225,536.735 337.225,535.657 
	336.998,534.577 335.93,531.985 337.436,528.099 340.237,525.074 342.618,523.564 344.124,523.131 344.351,523.131 347.152,521.62 
	350.602,519.244 352.335,517.734 353.63,516.224 356.869,506.073 357.08,504.777 357.08,503.482 357.08,501.972 356.869,500.677 
	356.869,499.381 356.869,497.865 357.307,496.142 357.955,494.198 359.461,492.903 361.193,491.606 363.996,488.797 
	365.081,487.072 365.501,485.558 364.644,482.967 364.644,481.022 364.854,478.866 365.729,474.979 365.938,473.034 
	365.291,472.173 363.138,471.954 362.263,471.738 361.842,470.878 361.403,469.796 360.756,468.499 360.108,466.991 
	360.108,465.477 360.967,464.613 362.052,464.399 364.644,464.18 365.729,463.966 367.023,463.104 367.023,462.021 366.376,461.161 
	365.291,460.513 364.433,459.646 364.433,458.136 364.854,457.273 366.376,456.406 370.684,453.387 373.276,452.306 374.36,451.009 
	374.36,449.929 373.713,448.852 372.627,448.204 371.559,447.984 367.672,447.771 366.376,447.337 360.318,442.803 361.842,441.94 
	362.7,441.077 363.558,439.996 363.785,438.485 363.349,436.543 362.7,435.029 360.546,431.36 360.318,430.928 360.108,430.28 
	359.898,428.983 359.898,427.473 360.318,425.098 360.108,423.587 359.671,422.29 358.812,421.643 357.955,420.562 357.307,419.268 
	357.955,417.109 358.376,415.812 359.023,415.165 359.898,414.947 362.052,414.518 363.785,414.085 372.206,410.63 374.798,408.902 
	378.458,405.449 379.106,404.368 379.754,401.776 380.401,400.696 381.049,399.398 382.134,398.104 382.781,396.808 
	382.571,395.513 381.275,393.568 380.191,392.273 379.332,391.197 378.896,390.116 378.684,388.386 378.684,387.091 
	378.684,385.795 379.106,384.5 379.106,384.286 379.332,383.638 379.332,382.775 379.106,381.479 378.458,380.185 371.979,372.84 
	368.32,370.681 366.797,368.952 364.644,364.851 363.349,362.046 362.489,353.624 366.587,349.304 367.883,348.223 369.389,347.359 
	381.275,343.907 382.571,343.907 383.866,344.121 385.163,343.907 386.458,343.258 387.527,341.745 388.175,340.449 
	389.049,339.153 390.119,338.291 391.852,337.644 393.146,337.428 395.738,337.644 395.949,337.644 396.386,337.644 
	397.244,337.428 397.892,336.78 398.329,335.699 398.329,333.323 398.767,332.461 399.414,332.245 400.921,332.894 404.159,335.915 
	405.454,336.347 406.751,336.562 408.046,336.78 412.369,336.347 413.666,336.562 414.734,336.996 415.819,337.857 416.03,337.857 
	416.467,337.644 417.115,337.428 422.297,334.404 425.327,333.108 426.622,332.027 427.918,330.732 428.776,328.142 
	429.214,326.197 430.072,324.473 431.367,322.743 434.169,320.153 436.112,318.856 439.142,317.346 440.227,316.48 441.085,315.185 
	441.521,313.242 441.521,311.946 440.437,307.844 440.647,306.333 441.295,305.253 446.268,302.229 452.955,315.618 
	454.898,318.209 455.773,319.938 456.422,322.528 456.422,324.255 456.194,325.983 455.547,328.574 455.336,329.869 
	455.336,330.732 455.336,331.598 455.547,333.541 455.773,334.404 456.632,335.485 460.081,337.644 460.309,338.076 
	460.309,338.724 460.081,340.234 459.434,341.529 457.49,343.907 456.843,345.203 456.422,346.499 456.632,347.575 456.843,348.441 
	458.785,349.518 459.87,350.599 460.956,353.839 462.025,355.781 463.758,357.725 470.025,362.259 471.531,363.555 472.18,365.284 
	472.617,367.876 473.037,369.172 474.123,370.467 476.276,371.763 477.799,372.84 479.095,374.782 479.516,376.297 479.743,377.808 
	479.953,379.104 479.953,380.185 479.743,382.99 479.743,384.286 479.953,384.5 481.038,387.091 482.333,388.82 484.277,390.549 
	490.318,393.787 493.557,394.864 498.091,394.003 498.95,394.864 499.176,399.186 499.387,400.696 500.683,402.209 501.768,403.072 
	502.837,404.368 503.921,406.311 504.358,410.63 505.006,413.004 506.076,414.947 508.456,416.243 508.894,416.892 508.894,417.971 
	507.161,420.562 506.076,421.643 505.429,422.506 505.429,423.587 505.655,424.664 507.598,425.96 525.51,421.858 529.834,419.915 
	530.919,418.834 531.566,417.757 532.636,415.165 533.511,414.518 534.807,414.3 536.312,415.595 537.607,416.676 538.256,417.971 
	538.466,419.268 539.113,420.13 540.637,420.562 543.875,419.7 545.171,418.619 546.029,417.323 546.888,416.676 548.184,416.46 
	553.593,419.7 558.337,418.834 560.282,421.425 560.93,423.153 562.662,430.064 562.873,430.713 563.082,430.928 569.998,435.677 
	571.731,437.405 572.59,438.916 572.59,440.212 572.152,441.293 570.857,443.668 570.857,444.099 570.857,444.531 571.731,446.042 
	571.942,447.123 571.731,447.984 571.084,448.634 570.646,448.852 567.407,448.204 566.322,448.204 565.465,449.065 
	564.816,450.148 564.605,451.225 564.816,452.306 565.674,453.387 566.76,454.248 568.703,454.683 570.436,454.683 574.743,453.387 
	576.914,453.167 593.757,454.464 595.474,454.034 597.854,452.306 599.149,451.009 600.008,449.714 601.304,448.634 
	603.247,447.984 606.485,447.557 608.008,448.204 608.43,449.065 607.781,450.148 607.36,451.443 607.36,452.52 609.305,452.953 
	611.021,452.739 "/>
<path id="Brittany" fill="#FFFFFF" stroke="#010101" stroke-width="2" stroke-linecap="round" stroke-linejoin="round" d="
	M-122.508,600.438l-1.506-0.647l-4.324-4.319l-0.437-0.435l-3.013-2.372l-5.62-3.023l-1.506-0.435l-1.084-1.076h-0.859l-0.437,1.076
	l-1.085,1.082l0.647,2.591l1.296,3.023l0.875,3.021l-0.437,2.81l2.154,1.512l6.478,1.943l9.717,0.862l3.239-0.862l0.437-3.455
	l-1.296-1.514L-122.508,600.438z M-363.055,389.254l-0.228-0.434l-0.21-0.435l-2.38-1.076l-2.802,0.863l-5.183,2.805v1.296
	l3.239-0.862l1.296,0.434l0.648,1.724h-0.438l-0.858-0.213h-0.438v1.295l2.17-0.435l6.251-3.238v-1.295l-0.858,0.219
	L-363.055,389.254z M132.291,471.091v-2.157l0.227-2.162v-1.295l-0.648-1.077l-1.943-1.73l-0.648-1.08l-0.437-0.862l-0.211-0.433
	l-1.523-11.442l0.438-0.867l0.21-0.428l0.438-0.434l0.437-0.434l0.211-0.863v-1.08l-0.859-5.397l-0.227-1.08l-0.42-3.669
	l-0.228-1.081l-0.209-0.863l-0.859-1.942l-0.227-0.433l-0.421-0.648l-0.228-0.862l-0.21-1.514l0.648-2.158l0.647-1.511l2.38-4.753
	l0.211-0.863v-2.158l-0.211-3.672l-1.523-13.818v-3.238l0.438-3.239v-7.559l-3.239-1.511l-1.944-1.729l-12.746-3.674l-3.013-0.429
	l-2.17,0.216l-1.069,1.081l-1.733,2.591l-0.858,1.076l-1.085,0.867l-1.085,0.648l-3.013,1.076l-1.295,0.867l-2.591,2.59
	l-1.944,1.297l-3.465,1.295h-2.802l-1.733-0.433l-1.295-1.083l-0.858-1.076l-3.028-2.162l-0.859-1.076l-3.676-6.698l-1.069-2.59
	l-0.437-1.296l-0.437-2.157l-0.211-1.082l-0.647-0.863l-0.648-2.156l-1.943-3.887l-1.085-2.592l-0.421-1.295l-0.228-0.867
	l-0.42-1.511l-0.227-0.433l-0.648,0.22l-6.04,3.238l-9.718,1.509l-9.069-0.213l-5.183-1.516l-2.802-3.238v-4.315l3.012-4.97
	l-0.858-1.295l-0.438-1.08v-0.863l0.438-0.861l-12.519,2.592l0.858,1.295H16.56l-1.085,0.647l-0.21,1.296v1.296l-0.438,0.648
	l-1.944,0.647l-1.505,1.295l-0.875,1.724l-0.42,1.516l1.295,2.372l2.364,5.615l1.085,1.082h1.506l1.295,0.428l1.086,1.081
	l0.857,2.159l-1.506-1.076l-0.438-0.648l-0.42-0.866h-0.875l0.438,3.022l1.733,3.241l-0.648,1.509l3.449,2.378l-3.886,2.591
	l-1.296,1.296l0.438-4.103l-0.647-2.59l-3.239-4.754l0.421-0.648l0.438-1.724l-1.506-0.648l-1.085-1.296l-0.648-1.942l-0.209-1.944
	l-2.591-4.753l-0.228-0.863l-5.83,0.647l-5.604,1.943l1.069,2.592l0.647,1.295l0.875,1.083l-1.522-1.73l-1.506-0.214l-1.506,1.077
	l-1.295,2.162l1.069,1.076l0.437,0.22v1.296l-1.943,1.076l-1.085-1.076l-0.648-2.378L-10,362.046v2.372l-0.437,1.942l-0.859,1.516
	l-1.295,0.648l-0.227-1.944l-0.421-2.162l-0.875-1.724l-1.296-0.648l-0.421-1.082l-0.648-4.319l-0.648-1.077l-2.817,1.296
	l-2.591,2.591l-2.365,1.51l-2.17-1.729l3.465-3.888l0.648-1.076l0.421-1.082l0.648-1.08l0.874-0.647v-1.295l-1.733,0.219
	l-1.295-0.648l-0.858-1.296l-0.438-2.162l-1.732,3.458l-3.239,3.239l-3.661,2.371l-3.239,1.297l-1.085-2.592l-2.591-0.429
	l-5.62,1.724l2.381,1.081l1.085,0.216v1.295l-1.733,1.943l-8.422,5.183l-2.153,0.647l-1.295,1.081l-0.875,1.082l-3.013,4.535
	l-2.38,2.591l-1.943,0.863l-4.972-0.216l-0.421,1.295v2.592l-0.437,1.725l-1.732-1.51l-1.069-1.295l-1.085-1.083l-1.085-0.647
	h-1.506l0.858-0.86l0.647-1.083l0.438-1.295l0.437-1.725l-7.126-3.458l-3.028-2.158l-1.506-0.862l-0.648-0.647l-0.438-1.082
	l0.21-0.86l0.437-0.867l-0.21-0.863l-0.438-1.51l-1.296-5.615l-7.984-6.911l-0.874-1.943l-1.944-2.158l-2.154-1.944l-1.733-1.296
	v-1.08l0.438-0.215l1.295-1.081l-0.211-1.295v-1.078l0.211-1.514l-2.38-0.862l-6.251-0.216l-3.239-1.295v-1.296h-1.522v-1.08
	l2.17-1.729l0.858-0.647l1.295-0.43v-0.865l-0.21-0.216h-0.227l-0.421,1.081l0.858-1.295l-1.295-1.081l-1.296-0.433l-1.295,0.433
	l-1.295,1.081l-1.943-0.434l-2.38,3.454l-4.098,8.422h-0.858v-1.511l2.591-3.454l0.858-1.514l1.507-4.964l0.874-1.514l-1.733-1.296
	v-1.078l0.859-1.729v-1.943l-0.859-1.729l-1.506-1.077l-1.522,0.43l-2.365,2.809l-1.295-0.647l-1.085,1.295l-3.028,2.592
	l-3.66,4.535l-1.085,1.725l-0.437,2.377l-0.648-1.296l-0.211-0.433l-0.21-0.862l1.506-1.944l0.858-3.453v-3.672l-0.858-2.807
	l-1.943-0.433l-3.677,4.534l-1.069-0.433h-0.875l-1.505,1.08l-10.365,3.888l-0.858,0.647l-1.295,1.511l-1.086,0.647l-1.506,0.218
	l-2.818-0.218l0.437-0.863l0.21-0.647l0.437-0.432l0.648-0.648l-1.732-0.215l-4.308-2.591l-3.887-0.216l-1.085-0.865h-0.858
	l-0.647,1.514l-2.591,4.75l-3.676,1.728l-1.296,1.511l0.437,3.023l4.308,5.398l1.732,1.08l-6.478,1.078l-0.438,1.295l0.438,2.811
	l1.296,4.315l-1.734,0.867h-3.66l-3.029-0.867v-3.238l-4.324,1.295h-1.506l-1.295-0.647l-2.802-2.592l-1.295-0.647l-5.83,0.218
	l-2.38-0.647l-1.506-2.377v1.296v1.081l-0.227,0.863l-0.421,0.861l-1.522-1.077l-1.069,2.158l-0.437,3.673l0.437,3.24l-1.085-1.083
	l-0.437-0.647l-0.421-1.081h-0.875l0.648,3.888l0.437,1.514l0.647,1.076l-0.858,1.297l0.858,1.295l-0.858,1.296l-1.522-2.158
	l-3.661-2.377l-1.522-1.942v-1.076l0.648-0.22l1.295-1.076l-2.364-0.648l-1.732,0.861l-3.45,3.454l0.648-2.158l-0.227-1.943
	l-1.069-0.434l-1.296-0.861v-1.297h0.858v-1.08l-1.506-0.647l-0.226-0.863l0.437-1.295l0.211-1.729l-0.648-0.863l-4.308,1.295
	l-2.591,1.73l-1.522,0.647l-1.717,0.43l0.421,1.728v1.295l-0.421,1.083l-0.875,0.861h-0.858l-0.438-1.295l-0.647-0.862h-0.648
	l-0.647,1.076l-2.153-1.295l-3.029-0.216l-2.802,0.647l-2.38,0.863l-2.154,1.516l-2.153,2.156l-0.648,1.944l2.365,0.647v1.295
	h-1.716l-2.819-1.081l-1.506-0.214l-1.295,0.434l-3.676,2.372l-2.802,0.22l0.858-4.106l-2.154-2.591l-3.239-0.215l-3.239,1.295
	l-3.45,1.944l-3.466,0.647v1.295l0.875,0.216l1.716,1.08h-2.801l-4.097,1.944l-2.818,0.434h-9.717v1.077l1.085,0.647l0.211,0.647
	l-0.211,0.647l-0.437,0.867l3.466,1.295h-2.381l-5.62-1.515l-1.506,1.081l0.858,2.591l2.818,3.888l-1.522,0.434l-4.098-2.378
	l-2.38-0.647l-3.887,0.435l-2.365,0.86l-1.943,1.297l0.858,1.296l-1.296-0.647l-1.295-0.863l-2.154,3.24l-3.028,5.61l-1.296,5.402
	l3.239,2.371v1.082l-2.381,0.647l-1.506,2.592l-0.647,3.453l0.21,3.457l2.17,4.965l0.21,2.376l-2.381,0.216l0.875,3.887l1.069,1.943
	l1.733,0.647h6.267l1.069-0.647l0.227-1.296v-1.296l0.421-0.647l2.381,0.433l4.324,1.729l2.155,0.43l2.38-0.43l3.661-1.944
	l6.057-1.514l7.773-4.964l3.887-1.729l8.421-1.296l2.364-0.863l3.887-2.162l2.17-0.647l-11.888,7.127l-1.295,1.081l-7.126,8.636
	v1.081l1.733-0.215l1.733-0.433l1.506-0.648l1.085-1.08l0.858,1.295l-0.438,0.434h-0.209l-0.438,0.647l2.818-0.434l3.887-2.806
	l1.943,0.863l0.422-0.863l0.874-0.863l0.422-0.865h0.874v1.296h-0.874v1.296l1.943-0.648l2.817-1.943h2.154l-2.38,2.592
	l-1.288,0.865l-0.647,0.863v0.862l-1.077,0.433l-0.438,0.433l-1.077,1.727l5.183-0.432l0.866-0.217l0.647,1.943l1.506,0.647
	l1.733-0.43l1.077-1.513l0.429,2.16l1.514,0.648l3.887-0.219v1.296l-10.146,2.162l-2.591-1.081h1.725l0.866-0.434l0.859-0.862
	l-8.203,0.648l-5.83,1.729l-1.514,0.214l-1.506-0.214l-0.866-0.649l-0.866-0.865l-1.296-0.647l-11.013,0.865l-3.45-1.728
	l1.726-6.911l-2.163-0.863l-1.506,1.511l-2.162,5.83l0.218,0.648l0.211,1.295l-0.211,1.297l-1.514,0.647l-1.296-0.216l-1.077-0.432
	h-1.085l-1.296,0.865l0.437,1.943l-0.437,1.942l7.345,0.216l1.513,0.434l0.859,1.942l-0.429,0.648l-0.867,0.862l-0.647,2.158
	l0.219,1.296l0.647,1.514l1.296,2.158l-0.648,1.295l-1.078,3.888l3.24-1.081l2.153-3.454l1.733-4.319l1.725-3.239l3.458-1.077
	l6.689,4.316l3.028-1.077l0.21,1.295l0.648,1.077l0.858,0.866l1.085,0.647l5.182,1.078l1.733,1.728l0.647,4.103l0.421,1.296
	l1.733,2.162l0.647,2.157l-1.295,5.183l-0.648,1.295l-1.725,0.863l-7.126-2.158l-39.735,8.855l-0.648-0.22l-0.858-1.076h-0.437
	l-0.438,0.647l-0.21,0.648v0.647l-0.647,1.296l-0.438,1.076l-0.64,1.08l-0.867,0.649l9.28,2.59l4.113-0.213l2.154,0.429l3.676,3.673
	l1.506-0.863l1.515-1.942l1.724-1.083l1.296,0.648l11.013,8.636l5.831,7.561l1.943,3.452l1.295,4.97l1.943,4.747l0.437,3.241
	l-0.437,1.295l-1.077,0.219h-1.077l-0.875,0.43l-0.21,1.081l0.21,2.59v1.296l18.146,0.863l3.021-0.863l1.943-1.08l4.106-3.887
	v-1.296h-3.458v-0.647l0.438-0.647l0.429-0.647l-1.724-1.297l0.428-2.158l1.725-0.434l2.381,4.105l1.295-1.296l1.077-0.867
	l1.295-0.428l1.515-0.22v-1.076l-1.515-1.516l-1.724-2.591l-0.647-2.805l1.296-2.158l0.428,3.021l1.295,2.81l1.515,2.158
	l1.506,0.862l1.943,0.219l1.733,0.648l3.45,2.806l0.647-1.511l0.867-0.433h1.295l1.515-0.647l-0.437,1.728l-0.648,0.863
	l-1.077,0.216h-1.296l2.591,0.647l2.81-3.021l0.859-2.812l-1.077-3.667l3.239,0.648l3.239,2.158l2.373,2.591l0.438,1.943l1.506,1.08
	l0.867,0.432h1.077l-0.429,2.16l0.429,1.078l0.866,0.647l0.866,0.865l2.373,4.317l0.218,0.647l2.154,0.218l2.81-0.647h2.591
	l1.725,1.726l6.478-3.669l1.086,0.43l1.077,2.591l2.372,0.867l4.754-0.219l0.647,0.433l1.295,1.511l1.077,0.647l1.085,0.218
	l3.239-0.218l4.316,1.081h1.943l1.295-1.081l0.429,1.296l0.437,0.865l1.296,1.511l1.725,3.672l3.668,4.75l0.437,1.08l1.725,0.647
	l10.146-2.591v-1.081l-0.648-0.861l-0.857-0.866l-0.867-0.648l2.59-0.647l3.668-2.158l3.458-3.239l2.591-3.239v1.296l-1.513,1.296
	l-1.078,2.158l-1.513,4.104l-0.858,0.215l-2.163-0.433l-0.428,0.647v1.729l-0.219,0.863l-0.429,0.433l-1.085,0.215v1.296
	l5.183,0.433l2.161,0.863l1.943,1.296v1.079l-4.963-1.728l-2.163-0.215l-2.162,0.863l3.239,0.218l5.401,1.51l3.239,0.862
	l3.668,4.321l0.867,0.647l1.077-0.863l0.437-1.729l0.648-1.729l1.725-0.862l-1.295-1.944l-0.429-0.647l1.725-0.433l0.867-1.296
	l0.858-0.647l1.514,1.081l0.218-0.648v-0.215l0.211-0.218l0.648-0.215l-0.43-2.592l-0.866-1.943l-1.077-1.295l-1.725-0.647
	l1.943-0.434l1.725,0.866l1.296,0.43l1.077-1.943h0.867v1.295v3.888l0.648-0.43l1.514-0.649l0.648-0.432v1.729v1.295l0.21,1.078
	l0.437,0.865l-9.288,4.316l-1.514,5.183l-0.21,2.377l0.429,1.081l1.078,0.647l1.295,0.647l1.084,0.647l1.725,1.943l1.295,2.374
	l0.867,3.239l0.21,4.319l-0.21,2.378l-1.085,3.019l-0.21,1.944l0.21,1.728l1.515,5.183h0.866l0.859-0.86l2.591,0.647h1.733
	l-2.81-3.239l-2.162-4.321l-0.647-5.183l1.296-6.263l-0.648-0.429l-0.429-0.647l-0.647-0.22l1.077-1.942h1.296l1.514,0.866
	l1.295,1.076l-0.866,0.647l-0.858,0.434l1.725,1.082l1.944-0.219l3.887-2.158l0.866,0.861l0.647,0.22l1.725,0.214l-0.648-2.376
	l0.429-1.943l0.866-0.216l0.43,2.807l0.648,2.376l1.084,0.435l0.648-1.082l-0.648-2.376l1.725,1.515l1.295,1.943l1.077,1.076
	l1.085-0.647l1.295,1.943l0.43,0.647l0.429-0.647l0.219-0.429l0.218-1.295l-1.296-1.297l-1.295-1.943l-1.085-1.942l-0.429-1.73
	v-4.319l-0.219-1.296l-0.648-2.373l-0.21-1.514h0.858l0.437,2.377l0.859,1.728l1.295,0.863h1.733l-1.085,0.862l-0.437,1.296
	l0.226,1.943l0.421,2.163h0.875l0.421-0.867l0.437-0.216l1.733-0.215v1.298h-0.875v1.076l4.114-1.076l2.364-1.083l1.084-2.158
	l1.296-1.295l6.479-0.647l2.591-1.297l-1.733-1.08l3.887,0.647l1.523,0.863l1.506,2.161l-2.381-0.865l-2.591-0.43l6.268,3.886
	l0.647,1.078h1.506l0.648-0.428l0.647-0.867l-1.717-1.297l1.506-0.43l0.647-0.865l-0.21-1.077l-1.296-1.297v-1.08l2.802,3.672
	l-0.648,3.454l-4.745,6.693l0.858,1.295l-2.591,1.729l-3.45,0.215l-3.239-1.076l-1.943-2.378l-0.648,2.592l-0.227,1.081
	l-1.068-1.081l-0.875-0.214l-0.648,0.428l-0.648,1.081h-0.858l-1.732-3.671h-5.394l-2.154,1.514l2.154,0.862v0.862l-0.21,0.219
	l0.421,0.214l1.295,0.216l1.296,0.647l0.437,0.867l0.438,0.213l1.944,3.673l0.209,0.648l1.734,1.509l1.506,0.863l1.943,0.219
	l2.381-0.219l6.478-2.158l2.154-0.214l4.098,1.509l1.733-1.08l0.21-4.315l1.295,0.862l1.522,0.434h3.013l-0.211-1.296l-0.437-0.647
	l-0.647-0.435l-1.069-0.213l2.154-0.435l1.733,0.215l1.717-0.215l1.943-1.943l-0.858,2.378l-1.943,2.157l-2.154,1.295l-1.944,0.434
	l1.295,1.077l0.859-0.216l0.647-0.647l1.085-0.434h4.745l4.098-1.295l1.523-0.214l1.943,0.214l9.49,3.672h2.381l3.24-0.647
	l1.943,0.647l-2.591-0.213l-4.534,1.295l-7.773,0.429l-1.297,1.295l1.734,2.377l-1.085,3.453l1.505,1.081l1.943,0.216h0.228
	l0.858-1.511l0.858-0.647l1.522-0.215l1.295,0.648l1.068,0.861l1.085,0.435h1.085l2.365-0.648h1.295l1.296,0.214l1.295-0.214
	l1.296-0.867l1.732-2.371l1.085-1.73l0.648-1.509l0.421-1.083l0.227-0.213l0.421-0.219l0.874-0.429l1.296-0.22l0.858,0.433
	l0.437,0.435l0.21,0.213l0.211,0.216l0.648,0.434l1.085,0.434l1.506-0.22l1.732-0.647l2.154-1.296l1.085,0.22l0.437,0.429v0.432
	v1.083v0.861l0.211,0.647l0.437,0.863l0.858,0.433l0.858-0.213l0.648-0.648l1.085-1.516l0.647-1.942l0.859-1.511l1.522-1.081
	l1.296-0.429l1.506-1.295l1.296-2.378l1.506-7.987l0.874-2.162l0.421-0.863l0.227-0.86l-0.227-0.867v-0.648l0.227-0.862l0.21-0.647
	l-0.438-1.081l-0.21-0.648l0.858-3.239l3.887-2.158l1.732-1.511l0.438-0.218l0.858-0.215l3.887-0.647l4.324,0.215l2.591-1.726
	l8.843-3.239l3.887,1.511l2.38,0.434h1.296l14.899-4.753l3.449-1.943l2.171-1.726l0.648-1.296l0.858-1.295l0.857-1.081l1.086-1.081
	l2.591-1.943l12.746-6.045l1.943-1.943l1.296-0.863l3.66-0.218l2.591,0.218l1.295,0.431l1.085,0.648l0.858,1.513l0.438,1.296
	l1.732,1.295l1.717,0.647l12.309,2.159l1.085-5.397l1.084-1.295l0.648-1.081l0.648-1.511l1.068-4.968l0.648-1.943l1.295-3.025
	l0.875-2.805l1.295-6.264l0.858-2.592l0.438-1.296l0.648-1.076l1.716-2.376l1.086-1.082l1.296-0.861l1.295-0.648l1.506-0.214
	l4.325-0.22l1.295-0.214l1.295-0.434l1.085-0.647l0.859-0.649l0.21-0.213l0.227-0.863v-1.515L132.291,471.091z"/>
</svg>
