<?xml version="1.0" encoding="utf-8"?>
<!-- Generator: Adobe Illustrator 16.0.4, SVG Export Plug-In . SVG Version: 6.00 Build 0)  -->
<!DOCTYPE svg PUBLIC "-//W3C//DTD SVG 1.1//EN" "http://www.w3.org/Graphics/SVG/1.1/DTD/svg11.dtd">
<svg version="1.1" id="Calque_1" xmlns="http://www.w3.org/2000/svg" xmlns:xlink="http://www.w3.org/1999/xlink" x="0px" y="0px"
	 width="500px" height="500px" viewBox="0 0 500 500" enable-background="new 0 0 500 500" xml:space="preserve">
<path id="Pays_de_la_Loire" fill="#FFFFFF" stroke="#010101" stroke-width="2" stroke-linecap="round" stroke-linejoin="round" d="
	M75.834,57.277l-2.951-1.346l-1.473-0.272l-1.343,0.272l-0.536,0.941l0.938,2.024l6.168,0.132l1.742,0.678l-0.804-1.488
	L75.834,57.277z M87.632,30.565l-0.804-0.81l-2.547-1.345l-0.804-0.951l-0.136-1.619l0.27-1.478l-0.134-1.356l-1.609-0.941
	l-1.343-0.273l-4.424,0.273l1.343,1.75l1.206,4.32l1.207,1.75l2.011-1.072l2.011,1.346l1.609,2.56l1.072,2.57l1.206,0.81
	l0.402-1.488l-0.133-2.297L87.632,30.565z M322.127-105.96l-0.673-0.405l-0.664-0.142l-2.413-0.131l-0.805-0.273l-3.761-2.833
	l-2.141,0.547l-1.61-0.405l-1.88-1.215l-0.804-0.809l-0.665-0.951l-1.607-2.691l-1.348-1.619l-0.935-0.546h-0.806l-0.271,0.274
	l-0.131,0.131l-0.13,0.141l-2.957-0.141l-6.565-1.882l-1.077-0.547l-0.131-0.405l0.131-1.072v-0.678l-0.131-0.81l-0.4-0.941
	l-0.534-0.273l-0.673,0.273l-1.077,0.264l-1.608-0.264l-2.142-1.214l-1.208-0.951l-0.804-1.072l-0.674-1.488l-0.402-1.214
	l-0.261-1.487l-0.14-3.238l0.4-3.096v-0.951l-0.13-0.809l-0.402-1.072l-0.532-0.678l-0.945-0.537l-3.219-1.487l-1.207-0.273h-1.064
	l-6.84,1.619l-1.347,1.083l-0.804,0.405l-0.935,0.272l-0.806,0.668l-0.533,0.809l-0.542,1.083l-0.532,0.81l-0.403,0.405
	l-0.402,0.273l-0.804,0.263h-0.534l-0.542,0.142l-0.402,0.132l-0.533,0.404l-0.271,0.536l-0.262,1.487l-0.401,0.536l-1.077,0.142
	l-1.338-0.546l-0.944-0.264h-0.804l-4.557,0.536l-0.271-5.939l-0.402-0.94l-0.664-0.941l-0.674-0.142h-0.673l-1.066-0.536
	l-1.348-1.214l-2.544-3.106l-0.804-1.619l-0.131-1.346l0.401-0.81l0.131-1.345l-0.401-0.809l-0.674-0.547l-4.827-1.882l-0.663,0.404
	l-0.271,0.537l0.13,0.81l0.142,0.809l-0.142,0.678l-0.401,0.668l-0.664,0.546l-0.945,0.405h-1.74l-1.077,0.263l-0.804,0.404
	l-0.804,1.083l-0.402,0.536l-0.403,0.546l-1.066,0.263l-5.231-1.477l-3.889-0.405l-0.938,0.131l-0.804,0.132l-0.671,0.405
	l-2.547,2.833l-0.671,0.546l-0.805,0.405l-6.704,1.619l-0.668-0.273l-0.27-0.537l-0.269-0.677l-0.535-0.537h-0.806l-3.753,1.072
	l-0.539,0.273l-0.265,0.678l-0.136,0.667l-0.535,0.679l-0.938,0.404l-0.671-0.132l-0.535-0.546l-0.539-0.667l-0.535-0.405h-0.673
	l-0.536,0.405l-0.671,0.262l-0.535-0.404l-0.403-0.667l-0.67-2.166l-0.804-1.477l-1.207-1.083l-2.816,0.537l-0.536-0.264h-0.401
	l-0.27-0.273l-1.609-0.678l-0.804,0.142l-0.535,0.263l-0.134,0.273l-0.401,0.131l-2.55,0.678h-2.547l-3.889-0.678v4.726
	l-0.266,2.023v2.024l0.937,8.63l0.134,2.297v1.345l-0.134,0.547l-1.475,2.964l-0.403,0.941l-0.403,1.356l0.136,0.941l0.135,0.537
	l0.268,0.404l0.134,0.274l0.536,1.214l0.136,0.536l0.133,0.678l0.269,2.296l0.134,0.668l0.535,3.379v0.668l-0.134,0.545
	l-0.268,0.264l-0.267,0.273l-0.136,0.273l-0.266,0.537l0.937,7.154l0.134,0.263l0.269,0.546l0.403,0.667l1.206,1.083l0.403,0.677
	v0.81l-0.133,1.346v1.345l0.266,2.024v0.951l-0.133,0.537l-0.133,0.131l-0.538,0.404l-0.67,0.405l-0.804,0.273l-1.206,0.131
	l-2.683,0.142l-0.938,0.132l-0.804,0.405l-0.805,0.536l-0.671,0.677l-1.074,1.488l-0.402,0.668l-0.266,0.809l-0.539,1.619
	l-0.805,3.916l-0.401,1.751l-0.806,1.892l-0.402,1.214l-0.669,3.106l-0.402,0.941l-0.401,0.678l-0.672,0.81l-0.671,3.369
	l-7.642-1.346l-1.071-0.404l-1.073-0.81l-0.268-0.809l-0.536-0.951l-0.673-0.405l-0.804-0.263l-1.609-0.142l-2.277,0.142
	l-0.805,0.536l-1.207,1.214l-7.911,3.773l-1.608,1.215l-0.673,0.678l-0.536,0.677l-0.535,0.81l-0.401,0.81l-1.343,1.072
	l-2.145,1.214l-9.251,2.975h-0.804l-1.476-0.273l-2.413-0.941l-5.496,2.024l-1.609,1.072l-2.683-0.131l-2.413,0.404l-0.536,0.132
	l-0.269,0.142l-1.073,0.941l-2.413,1.346l-0.536,2.023l0.133,0.404l0.269,0.679l-0.133,0.404l-0.136,0.537v0.404l0.136,0.547
	l-0.136,0.537l-0.267,0.536l-0.538,1.355l-0.937,4.989l-0.804,1.487l-0.938,0.81L87.9-33.251l-0.94,0.678l-0.535,0.941l-0.403,1.213
	l-0.671,0.951l-0.402,0.405l-0.535,0.131l-0.536-0.274L83.61-29.74l-0.134-0.405v-0.536v-0.678v-0.272l-0.269-0.264l-0.671-0.142
	l-1.34,0.809l-1.073,0.405l-0.938,0.142l-0.671-0.273l-0.402-0.274l-0.134-0.131l-0.133-0.131l-0.268-0.274l-0.537-0.272
	l-0.804,0.142l-0.538,0.264l-0.267,0.141l-0.135,0.131l-0.267,0.678l-0.403,0.941l-0.671,1.082l-1.073,1.478l-0.805,0.547
	l-0.804,0.132l-0.804-0.132h-0.806l-1.472,0.404h-0.672l-0.671-0.272l-0.669-0.537l-0.805-0.405l-0.94,0.131l-0.535,0.405
	l-0.536,0.941H63.23h0.401l1.207,0.809l-0.668,1.62l1.206,0.546h1.876l1.206,0.263l-0.266,0.81l-2.683,1.488l-0.671,0.809
	L64.303-20.3l0.269-0.263h0.133l0.133-0.678l-1.34-0.272l-0.804-0.405H61.89l-6.167,3.642l3.218,2.024l0.938,1.76l0.133,3.37h0.538
	l0.402-1.083v-0.405l-0.402-0.809l0.269-0.263l0.267-0.142l0.538-0.264l1.207,1.619l1.473,1.478l0.671,1.487l-1.34,1.619
	L61.89-7.611L58.539-9.23l-1.742-0.273v0.81l7.24,3.774l2.278,0.142l0.135-0.273l0.133-0.678l0.269-0.81l0.668-0.536l0.538-0.131
	h0.669l1.343,0.131l1.207,0.678l1.875,2.155l1.207,1.083l1.342,0.536h1.474l1.475-0.536l1.743-1.761l2.28-0.667l0.805-0.809
	l0.402-0.678l0.269-0.678l0.535-0.81l2.414-1.478l10.591-0.678l2.952,0.81l1.071,1.083l0.67,0.263l1.879,0.142l1.472,0.537
	l2.682,1.619l2.683,2.297l2.278,2.833l1.342,1.072l3.218,0.678l1.609,1.083l-4.159-0.142l-1.742-0.809l-1.742-1.882l-0.805-0.547
	l-3.218-0.667l-3.084-2.297v-0.809h1.608l-0.672-0.81l-0.804-0.537l-0.804-0.273h-0.939l0.536,0.81h-1.207l-3.889-1.083L98.09-7.884
	l-0.672-0.81l-0.535,0.131l-0.536,0.273L95.81-7.884l-7.104,0.678l-1.877,0.81l-0.672,0.941L85.621-4.11l-0.27,1.487l-0.133,1.215
	l0.269,1.75l0.805,1.761v1.477l-0.27,1.62l-0.268,0.951l-0.536,0.405l-2.547,0.405l-0.939,0.667l-0.805,0.81l-1.071,0.678
	l2.68,1.487l8.848,1.62l4.561,2.56l1.206,1.214l0.805,1.346l0.805,2.023l0.133,1.892l-1.34,1.083l-0.94,2.023l-1.34,4.047
	l-0.938,1.75l-2.952,1.892l-1.071,1.214l0.403,1.619l-2.011,1.478l-0.539,1.214l-0.133,2.429l0.133,1.893l0.269,2.155l0.537,1.76
	l0.939,0.668l2.011,0.678l2.414,1.75l4.289,4.452l2.28,4.726l0.671,0.677l1.207,0.132l1.341,0.405l1.072,0.81l0.806,2.833
	l0.938,1.083l1.207,1.073l1.206,1.356l0.536,1.346l0.403,1.487l0.671,1.214l1.206,0.536l-0.268,1.893l1.744,8.226l0.668,1.082
	l0.671,0.405l0.27-0.546l-0.136-0.941l-0.403-1.892v-1.346l0.671,1.214l0.806,2.428l0.535,0.941l0.939,0.547l2.145,0.536
	l2.547,2.297l4.159,0.668l1.206,1.214l-0.671,1.356l2.01,0.667l5.097,0.273l2.144,0.405l1.742,1.214l1.207,2.023l0.403,2.833
	l0.804,2.428l2.011,0.131l4.022-1.345l1.074,0.404l1.743,1.488l2.413,1.477l0.805,0.137l1.207,0.405l1.342,2.16l1.473,1.75
	l2.011,0.541l-0.134-3.505l2.815-1.751l3.488,0.263l1.071,1.488l0.403-0.678l1.342-2.024l0.536-0.536l0.805-0.405l4.693-1.214
	l1.609-0.136l0.802-0.269l1.475-0.678l0.673,0.137l0.536,0.811l-0.135,0.809l-0.401,0.673l-0.537,0.542l-0.401,0.673l0.265,0.541
	l0.806,0.405h1.475l0.806-0.137l0.938-0.404l2.413-0.404l0.403-0.269l1.207-0.404h1.206l2.012,0.268l5.229,3.375l0.939-0.268
	l1.207-0.678l0.537-0.404l2.01-1.074l0.805-0.141h2.28l0.535-0.131l0.536-0.405l2.28-2.56l0.671-0.404l0.669-0.142h0.671
	l0.671,0.142h0.403l0.535-0.273l0.536-0.536l0.268-0.81l-0.133-0.81l-0.94-1.083l-2.68-2.155h-0.538l-0.401,0.263l-0.535,0.143
	l-0.536-0.546l-0.27-1.619l0.133-1.073l0.538-1.76l0.134-0.668v-0.678l-1.208-5.939l0.27-1.072l0.536-0.678l0.535-0.537l0.403-0.677
	l0.136-0.678l-0.136-1.072l-0.669-3.238l-0.135-2.297l-0.266-0.81l-0.403-0.94l-0.94-1.214l-0.403-1.214l-0.132-0.951v-0.81V62.67
	l-0.269-0.941l-0.403-1.083l-2.011-4.311l-2.01-3.379l-0.67-1.883l-0.136-1.214l0.806-1.488l0.268-0.677l0.133-0.536l-0.266-0.678
	l-0.67-0.941l-1.609-1.487L190.6,41.22l-0.671-0.941l-0.668-1.214l-0.538-1.893l-0.133-2.287l-0.27-0.951l-0.937-1.346l-2.011-1.214
	l-0.805-1.214l-1.073-2.155l-1.071-1.214l-2.816-2.024l0.133-0.677v-0.273l0.134-0.536l0.538-0.405l1.071,0.273l0.804,0.264
	l2.952,2.023l0.668,0.405l0.804,0.141h1.074l4.424-0.81l2.145,0.668l4.292,0.404l4.959-0.537l1.476-0.536l0.402-0.272l1.339-1.215
	l3.354-1.619l0.402-0.536v-0.678l-0.94-1.346l-0.133-0.81l0.27-0.678l0.668-0.677l0.671-0.405l1.609-0.536l0.806-0.132l0.803,0.132
	l1.742,0.941l1.073-0.131l4.292-1.346l2.144-0.951l8.175-1.073l4.426,0.132l1.478-0.405h0.804l0.806,0.273l0.935,0.81l0.403,1.072
	l0.136,0.951l0.265,0.81l0.403,0.536l1.88,0.678l0.935-1.892l0.403-0.678l0.674-0.668l2.142-0.677l0.805-0.405l0.674-1.083
	l0.266-0.81l0.136-0.81l0.267-0.81l2.55-3.238l1.337-0.404l4.022,0.809l1.076-8.631l1.337-6.475l0.402-1.346l0.403-0.809
	l0.803-1.488l2.147-2.964l2.147-3.642l0.129-0.952l-0.531-2.154l0.13-1.083l0.94-2.834l0.403-1.619l2.412-5.524l0.136-0.81
	l-0.136-0.809l-0.538-2.023v-1.488l0.273-1.346l1.738-4.857l3.354,0.941l2.146,0.273l4.425,1.346l1.071-0.132l0.401-0.546
	l-0.135-0.668l-0.267-1.356l-0.137-0.667v-0.809l0.271-0.809l0.936-0.81h0.805l1.745,1.072l0.938,0.273l0.534-0.273l0.271-0.537
	l0.668-0.678l1.207-0.809l3.082-0.668l4.159-2.166l0.939-0.263l1.07-0.141l0.669-0.264l0.403-0.546v-0.667l-0.132-0.678
	l-0.674-1.619l0.94-2.428l1.745-1.892l1.609-1.072l0.803-0.273h0.132l1.745-0.809l2.276-1.488l1.077-0.941l0.804-0.94l2.012-6.345
	l0.13-0.81v-0.809v-0.941l-0.13-0.81v-0.809v-0.951l0.271-1.072l0.403-1.215l0.935-0.951l1.076-0.667l1.739-1.761l0.674-1.072
	l0.261-0.951l-0.532-1.62l-0.131-1.214l0.131-1.346l0.674-2.429l0.13-1.214l-0.4-0.678l-1.339-0.132l-0.544-0.131l-0.4-0.546
	l-0.262-0.668l-0.402-0.81l-0.271-0.951v-0.941l0.533-0.537l0.674-0.272h1.608l0.804-0.132l0.674-0.547v-0.536l-0.402-0.537
	l-0.543-0.404l-0.532-0.547l-0.131-0.941l0.262-0.537l0.944-0.547l2.816-2.023l1.469-0.667l0.673-0.81v-0.678L322.127-105.96z"/>
<path fill="#FFFFFF" stroke="#010101" stroke-width="2" stroke-linecap="round" stroke-linejoin="round" d="M625.003,353.944
	l-0.271-0.537l-1.469-1.617l-3.62-4.999l-0.402-0.405l-0.543-0.263l-0.402-0.143l-0.805-0.131l-0.401,0.131l-0.402,0.143
	l-0.532,0.263h-0.273l-0.261-0.263l-0.14-0.546l-0.263-3.238v-0.536v-0.404l0.131-0.273l0.132-0.405l0.14-1.346v-0.809l-0.271-3.238
	l-0.131-0.405l-0.271-0.536l-0.674-0.678l-0.935-0.678l-0.271-0.263l-0.13-0.547v-0.809l0.13-0.538l-0.13-0.404l-0.272-0.404
	l-0.663-0.679l-0.805-1.214l-0.674-2.56l-3.49-0.94l-2.142-1.084l-0.402-0.273l-0.267-0.262l-0.407-0.547l-0.261-0.268l-0.542-0.405
	l-0.262-0.269l-0.137-0.403l-0.401-0.406l-2.279-1.082l-1.88-0.132l-2.277,0.273l-0.805,0.404l-0.401,0.668v1.355l-0.136,0.669
	l-0.267,0.677l-0.538,0.537l-0.668,0.405l-0.806,0.142l-0.804-0.273l-0.941-0.94l-0.265-0.811v-0.809l0.135-0.678l0.13-0.679
	l-0.265-0.668l-0.539-0.547l-1.069-0.131l-2.415,0.678l-0.668,0.263l-1.745,1.619l-2.012,1.215l-0.537,0.547l-0.937,1.214
	l-0.537,0.403l-0.668,0.132l-0.806-0.132l-0.805-0.272l-5.229-3.106l-0.94-0.264l-0.669-0.404l-0.4-0.81l-0.402-0.404l-0.806-0.142
	l-1.342,0.546h-0.668l-0.675-0.142h-0.669l-1.342,0.547l-0.668-0.142l-0.403-0.668l-0.268-3.379l-0.4-1.346l0.261-0.941l0.407-0.546
	l0.403-0.537l-0.137-0.941l-1.07-1.487l-1.072-2.428l-2.146-2.023l-2.146-8.368l-0.669-1.618l-1.07-2.023l-1.61-1.074l-0.803-1.618
	l-0.941-2.975l-0.668-4.451l-0.94-3.098l-0.266-0.404l-0.137-0.404l-0.266-1.215l-0.271-1.355l0.271-3.097l-1.881-0.405
	l-0.402-0.271l-0.533-0.274l-0.402-0.536l-0.402-0.271l-1.075-0.406l-1.07-0.536l-2.279-2.023l-2.147-2.297l-0.668-0.536
	l-0.94-0.404l-4.289-0.68l-0.536-0.262l-0.137-0.547l0.272-0.535l0.4-0.68l0.132-0.668l-0.132-0.678l-0.536-0.678l-0.805-0.535
	l-1.342-0.273h-0.936l-0.806,0.141l-0.538,0.405l-0.401,0.536l-0.135,0.678l-0.132,1.478l-0.271,0.678l-0.402,0.537l-0.668,0.403
	l-0.67,0.143l-2.549,0.132l-0.805,0.132l-0.668,0.273l-1.076,0.672l-1.07-0.672l-1.474-1.62l-4.424-8.499l-0.675-2.154l-0.265-1.488
	l-0.268-0.536l-0.538-0.405l-0.668,0.264l-0.941-0.132l-0.939,0.273l-0.533,0.265l-3.087,2.163l-0.936,0.406l-0.805,0.263
	l-0.673-0.131l-0.669-0.132l-1.071,0.403l-4.295,4.453l-1.471,0.94l-1.073,0.272l-0.536-0.678l-1.207-1.891l-0.538-0.264
	l-0.669,0.131l-0.668,0.537l-0.538,0.809l-0.268,2.429l-0.538,2.429l-0.804,0.81l-1.343,0.678l-0.669,1.346l-0.668,2.161
	l-1.077,4.587l-0.4,3.774l-0.268,0.811l-1.342,1.892l-0.669,1.347l-1.071,3.511l-2.549-2.298l-0.538-0.673l-0.402-0.673
	l-0.532-1.487l-0.402-1.478l-0.143-0.678l-0.129-2.156l-0.131-0.676l-0.137-0.678l-0.267-0.67l-0.271-0.678l0.271-0.535l0.534-0.405
	l0.674-0.405l0.13-0.546l-0.13-0.536l-0.402-0.404l-0.402-0.273l-1.75-0.536l-0.663-0.405l-0.544-0.541l-0.401-0.673l-0.534-2.16
	l-0.4-0.673l-1.609-2.023l-0.805-1.756l-0.271-0.137l-0.402-0.131l-0.665,0.131l-2.281,0.547l-0.534-0.143l-0.271-0.535l0.131-1.346
	v-0.678l-0.131-0.678l-0.271-0.811l-0.403-0.668l-1.064-1.215l-0.402-0.676l-0.403-0.68l-0.401-0.403l-0.543-0.133l-10.187,10.928
	l-0.271,0.679l-0.132,0.668l-0.13,1.486l-0.136,0.679l-0.402,0.804l-1.745,2.43l-0.804,1.886l-0.131,0.678l-0.271,2.024
	l-0.268,0.678l-0.402,0.668l-0.401,0.678l-2.278,2.56l-0.803,1.356l-0.806,0.81l-1.342,0.667l-2.55,0.274h-2.945l-0.806-0.133
	h-0.402l-0.543,0.133l-0.663,0.535l-0.542,0.274h-0.403l-0.664-0.537l-0.402-0.547l-0.543-0.535l-0.663-0.132h-0.945l-4.686,1.619
	l-0.675,0.132l-1.205,0.672l-0.675,2.697l-0.805-0.132l-0.935-0.81l-0.403-0.94l-0.401-1.083l-0.532-3.105l-0.273-0.669
	l-0.673-0.678l-1.207-0.536l-0.402-0.405l0.143-0.81l0.663-1.486l1.207-5.94l-0.131-1.072l-0.402-1.356l-1.207-2.429l-3.217-5.119
	l-0.675-1.487l-0.402-1.892l-0.663-6.476l-0.945-2.024h-4.154l-1.608,0.273l-0.402,0.132l-2.011,1.082h-0.532l-0.402-0.131
	l-0.402-0.405l-0.674-0.404h-0.674l-0.804,0.263l-4.285,2.428l-4.021,1.357l-1.608-0.142l-0.945-0.133l-0.534-0.405l-0.4-0.535
	l-0.674-0.545l-0.936-0.67l-1.479-0.678l-0.664-0.678l-0.271-0.667l-0.271-0.679l-0.402-0.677l-2.674-2.428l-2.554-1.751
	l-1.208-0.678l-2.271-0.668l-0.945,0.132l-1.74,0.809l-0.403-0.273l-0.13-0.536l-0.142-0.678l-0.402-0.404h-0.531l-0.533,0.404
	l-0.674,0.811l-0.271,0.272l-1.207,0.273l-0.805,0.667l-0.262,0.273l-1.206,0.536l-2.152,1.62l-0.401,1.761l1.608,5.525v1.214
	l-0.402,0.951l-0.531,0.668v0.809l0.271,1.083v0.678l-0.271,0.81l-0.534,0.668l-2.685,2.702l-0.534,0.81l-0.674,1.082l-0.804,1.882
	l-0.674,0.951l-0.664,0.405h-0.673l-0.805,0.131l-0.805,0.404l-0.935,1.346l-0.271,0.951l0.131,0.81l0.4,0.536l0.403,0.679v1.073
	l-0.532,1.082l-1.207,1.75l-0.935,0.951l-0.946,0.536l-1.336,0.536l-0.674,0.547l-1.067,1.072l-0.674,0.404l-0.673,0.273
	l-1.469,0.273l-0.805,0.263l-1.075,1.082l-3.349,6.203l-0.805,1.214l-1.88,2.023l-2.544,2.166l-3.762,1.882l-0.805,0.951
	l-0.261,0.668l0.13,0.546l0.273,0.405l0.532,0.668l0.402,0.678l0.271,0.679l0.13,0.535l-0.13,1.618l0.13,0.68l0.132,0.535
	l0.271,0.537l0.271,0.546l0.261,1.346l0.272,0.678l0.533,0.536l1.348,1.083l0.532,0.94v1.083l-0.271,1.073v2.701l-1.066,1.083
	l-6.304,0.536l-1.479-0.273l-0.935-0.536l-0.534-0.536l-0.804-0.404l-0.674,0.131l-0.532,0.403l-0.272,0.68v0.667v0.679v0.678
	l-0.13,0.667l-0.271,0.679l-0.806,1.618l-0.13,0.678l0.533,1.216l0.402,0.536l0.533,0.404l2.011,0.677l0.543,0.406l0.531,0.536
	l0.132,0.678v0.667l-0.261,0.679l-2.815,6.344l-0.806,0.941l-1.748,1.214v0.536l0.4,0.405l0.674,0.404l0.533,0.546l0.272,0.668
	v0.951l-0.402,0.536l-0.533,0.404l-0.673,0.133h-0.674l-0.665-0.133l-1.348-0.678l-0.663-0.13h-0.674l-0.804,0.403l-0.402,0.404
	l-0.131,0.542l-0.141,0.673l-0.262,0.811l-0.674,0.541l-1.608,0.804l-0.533,0.547l-0.402,0.808l-0.543,1.479l-0.132,0.679
	l-0.27,1.213l-4.827,2.833l-1.609,0.273l-0.532-0.403l-2.144-2.161l-0.804-0.542l-1.609-0.534l-1.206,0.263l-5.229,2.022h-0.674
	l-0.674-0.131l-1.064-0.405l-0.806,0.132l-0.804,0.404l-0.674,0.678l-5.632,2.834l-1.607,0.273l-1.077,0.536l-2.011,1.345
	l-0.805,0.273h-0.663l-0.544-0.132l-1.468-0.809l-3.62-1.352l-0.804,0.138l-0.674,0.403l-0.403,0.537l-1.206,2.159l-0.403,0.674
	l-0.673,0.679l-0.936,0.672l-0.673,0.137l-0.533-0.137l-0.532-0.945l-0.806-0.274h-0.672l-2.013,0.81l-1.075,1.762l0.402,2.691
	l-0.131,0.951l-0.533,0.94l-0.674,0.404l-0.675,0.133l-2.673-0.264l-0.675-0.142l-0.533-0.264l-0.401-0.274l-0.402-0.403
	l-0.271-0.537v-0.677l0.13-0.537l0.674-0.809l0.271-0.547v-0.941l-0.14-0.536l-0.403-0.545l-0.532-0.406l-1.206-0.404l-0.806,0.272
	l-0.804,0.405l-1.882,1.488l-1.467,1.882l-0.945,0.678l-0.936,0.132h-1.478l-2.675-0.536l-0.945,0.536l-2.676,2.023l-0.674,0.95
	l-0.13,0.81l0.532,0.668l1.207,1.214l0.402,0.678l0.402,1.346l0.402,0.679l0.271,0.679v0.667l-0.544,1.893l-0.935,1.347
	l-0.271,0.949l-0.13,0.81l0.13,1.619l-0.13,0.94v0.678l0.401,0.669l0.402,0.678l0.271,0.678l-0.141,0.668l-1.469,3.643l-0.542,0.678
	l-0.403,0.274h-1.206l-0.664,0.403l-0.14,0.536l0.271,0.678l0.402,0.668v0.951l-0.402,1.215l-0.936,1.214l-0.402,0.81l0.131,0.668
	l1.075,0.811l0.262,0.545l0.272,1.214l0.271,0.536l0.532,0.811l2.544-0.273l7.11,1.486l1.478,1.084l0.805,2.024l0.533,0.535
	l0.804,0.536l0.533,0.545l0.543,0.811l1.87,4.584l0.402,1.215l0.14,0.94l-0.271,0.546l-0.533,0.264h-0.674l-0.674-0.132
	l-0.532,0.406l-0.132,0.94l0.262,2.022l0.544,0.678h0.664l0.542-0.536l0.403-0.678l0.532-0.535l0.532-0.406l0.806,0.133l0.402,0.535
	l0.14,0.679l-0.271,3.916l0.271,1.477l1.066,2.429l0.14,1.082l-0.4,0.678l-0.544,0.406l-1.468,0.403l-0.543,0.265l-0.533,0.546
	l-0.401,0.668l-0.402,0.951l-0.271,1.072l-0.132,1.617l0.674,2.024l0.132,0.548v0.536l-0.273,0.678l-0.4,0.668l-0.534,0.678
	l-1.336,1.214l-0.544,0.678l-0.262,0.81l-0.542,2.427l-0.262,0.943l-0.402,0.678l-0.543,0.263l-0.937-0.263l-0.4,0.131l-0.534,0.678
	l-1.075,2.561l-0.534,0.94l-0.673,0.679l-0.673,0.541l-1.609,0.673l-0.534,0.54l-0.532,1.078l-0.142,1.619v1.214l0.544,2.024
	l-0.402,0.809l-0.674,0.542l-0.804,0.136h-2.283l-0.663,0.269l-0.543,0.406l-0.936,1.213l-1.337,1.351l-0.544,0.941l-0.13,0.81
	l0.13,0.679l0.403,1.481v0.945l-0.13,1.62l-0.403,0.94l-0.532,0.81l-0.674,0.677l-0.534,0.943l-0.271,0.808l-0.13,0.81v0.678
	l0.13,1.346l0.532,2.702l0.272,1.888l4.425,2.695l0.935,1.894l2.012,0.268l2.281-0.541l1.338-0.537l-0.13,1.888l0.401,1.756
	l0.935,1.618l1.208,1.078l0.543,0.541l0.131,0.672l0.271,0.673l0.804,0.405l0.935,0.273l0.534,0.537l0.401,0.541l0.402,0.403
	l3.087,1.216l2.686-0.269l5.892-2.16l4.697-0.672l1.477-0.948l1.207-0.136l4.022,1.084l1.207,0.672l1.608,2.969l1.207,1.482
	l1.066-0.136l2.151-3.103l1.338-1.351l1.338-0.534l2.15,1.885l0.131,0.405v0.405v0.405l0.402,0.404l1.479,0.269l1.468-0.133
	l2.956-0.809l1.338,0.535l9.522-0.267l2.674,0.404l1.077-0.404l0.531-0.811l0.143-0.269l0.129-1.756l-0.532-1.618l-0.945-1.214
	l-1.066-0.404l0.534-1.079l0.271-0.403l0.532-0.404l-0.804-1.215l1.075-2.971l-0.14-2.291l0.4-1.487l1.751-0.673l2.142-0.137
	l1.337,0.137l2.686,1.076l1.337,0.273l1.479-0.135l1.338,0.268l3.357,2.023l2.272,0.945l0.675,0.542l1.205,1.214l0.806,0.404
	l0.674-0.404l0.662-0.541l0.806-0.269l0.674,0.269l1.207,1.078l0.532,0.404l6.577,0.404l1.608,0.542l1.337,1.214l0.805,1.482
	l0.533,1.619l0.805,1.487l1.348,0.941l0.805,0.137l2.544-0.81h9.522l1.739,0.541l-0.271,1.482l0.401,0.405h0.674l0.673,0.404
	l1.338,2.429l1.478,2.022l1.338,3.644l1.076,1.482l1.739-0.672l1.206-4.186l2.414,0.136l2.283-0.808l1.207-0.138l4.152,2.834
	l0.806,0.405l8.717,0.945l-0.674,2.16l1.208,0.809l1.738,0.537l0.675,0.945l0.271,0.404l-1.881,0.138l-1.477,1.346l-0.806,2.16
	l-0.262,2.564l0.262,0.133l0.141,0.272v0.267v0.269l1.469,0.542l4.827,0.672l1.608,0.679l4.293,2.965l1.74,0.405l1.478,0.137
	l1.207,0.542l1.071,1.749l0.94,3.916l0.804,1.619l1.474,1.347l0.939,0.678l1.071,0.131l2.011-0.268l1.207-0.405l0.94-0.542
	l1.339-1.345l1.88-1.352l0.401-0.674l0.533-1.617l0.402-0.542l1.207-0.541l3.618,0.405l4.697-1.482l2.413-0.27l2.141,1.215
	l0.945,0.811l4.426,2.154l2.413,0.541h1.207l0.533,1.62l1.206,1.618l1.478,1.214l1.469,0.405l1.608,0.945l0.806,0.269h0.803
	l0.544-0.542l0.664-1.618l0.674-0.537h1.478l3.479,1.215l1.745,0.269l2.013-0.136v-0.406l-0.942-1.077l-0.668-2.024l0.668-0.945
	l3.219-2.56l1.342-0.678l1.614-0.133l3.076,0.536l1.61-0.268l1.205-0.81l2.284-2.292l1.206-0.809l1.208-0.138h1.336l1.347-0.267
	l2.545-2.024l2.415,0.941l1.336-0.81l0.804,0.137h2.284l0.532,0.137l0.542,1.077l0.534,0.946l0.805,0.809l0.935,0.536l1.608,0.542
	l2.013,0.269l2.011-0.133l5.229-0.945l0.141-0.673v-2.564l-2.554-3.507l-5.359-5.534l-0.806-2.023l-0.935-7.958v-1.214l-0.271-0.542
	l-0.402-0.269l-1.075,0.137l-0.403-0.137l-0.533-0.81l-0.271-0.809l0.136-0.945l0.806-1.078l0.938,1.481l0.403,0.404l0.267-0.672
	l0.939-5.262l0.131-1.887l-0.131-1.893l-0.4-1.887l-0.539-0.811l-0.805-0.403l-2.146-0.674l-1.208-0.137l-0.668-0.405l-0.538-0.672
	l-0.532-1.487l-0.538-0.673l3.082-3.237l0.939-0.405l0.268-0.541l-0.132-2.429l0.267-0.536l0.67,0.133l1.075,0.539l0.531-0.136
	l1.209-1.214l-0.403-1.078l-2.142-1.755l-0.804-1.619l-0.137-1.619l0.67-1.214l1.606-0.268l-1.069,1.887l-0.267,0.945l0.401,0.81
	l0.935,0.268l0.403-0.809l0.402-1.077l0.539-0.542l0.266-0.535l0.272-1.353l0.265-2.696l0.403-1.082l1.474-1.618l0.402-1.346
	l-0.534-0.948l-1.342-0.808l-1.206-1.483l-0.539-2.969l0.403-0.811l0.938-0.268h2.147l0.403,0.404l-0.674,0.811l-1.474,1.076v0.674
	l1.07,0.678l0.538,0.674l0.403,0.403l0.804-0.137l2.147-3.368l0.402-1.215l0.935-1.082l1.745-1.62l0.538-0.94l0.668-2.023
	l0.539-0.945l1.337-1.619l10.593-8.095l2.815-1.352l1.877-0.404l3.085,1.487l1.61-0.679l6.3-7.82l2.548-2.161l8.713-4.72
	l15.286-12.684v-0.809l-2.55,0.945l-2.276,1.888l-4.024,4.451l-3.885,3.508l-2.551,1.35l-2.548,0.136v-0.678l6.436-2.696
	l1.076-1.213l0.266-1.62l0.538-0.946l4.957-4.179l2.012-1.214l4.826-1.487l3.49-2.56l2.276-0.811l4.289-0.678l-0.668,1.619
	l-0.94,1.083l-1.336,0.673l-1.745,0.404l-3.621,0.269l-1.745,0.542l-1.07,1.35l2.549-1.214l4.69-0.54l4.425,0.404l2.012,1.617
	l0.136,0.405l1.474,5.668l0.402,0.945l0.536,0.673l1.61,0.809l1.875,0.405h1.474l0.804-1.482l0.272-0.946l0.129-0.541l0,0v-0.131
	h0.137l0.402-0.273h0.668l0.538-0.405l0.539-0.673l0.668-0.541l1.745-0.269l0.935-0.405l1.208-0.809l3.087-2.697l0.267-0.136
	l1.473-0.405l0.271-0.137l0.266-0.269l0.135-0.672l0.132-0.405l0.271-0.405l0.532-0.273l0.538-0.13l1.344-0.137l0.401-0.137
	l0.402-0.404l0.403-0.674l0.402-1.352v-0.672l-0.272-0.269l-0.805,0.133h-0.402l-0.402-0.133l-0.401-0.136l-0.267-0.269
	l-0.136-0.273v-0.269l0.136-0.403l0.668-1.352l0.272-0.536l0.266-0.945l0.403-0.811l2.011-2.833l1.745-1.35l2.01-0.674l0.403-0.137
	h0.401l0.402,0.137l2.413,0.81l0.668,0.403l0.539,0.406l0.402,0.136l0.402,0.133h0.402h0.271l0.262-0.269l0.271-0.542l0.402-1.214
	l0.129-0.673v-0.542l-0.129-0.269v-0.404v-0.403l0.129-0.406l1.349-2.969l0.936-2.833l0.131-1.215v-0.672v-0.811l-0.402-2.291
	l-0.132-0.406l-0.136-0.808l-0.136-1.215l0.136-0.811l0.539-0.541l0.935-0.809l2.282-1.214l2.947-2.43l0.939-0.542l2.55-1.076
	l0.533-0.405l0.135-0.268l0.538-0.405l0.936-0.541l0.538-0.403l0.537-0.675l0.403-0.678l0.13-0.403l0.136-0.405v-0.405l-0.136-1.619
	v-0.672v-0.269v-0.136h0.271h0.268h0.401l0,0h0.137h0.402h0.266h0.135l0,0l0,0l0,0l0.132-0.138l0.136-0.269v-0.403V355.7
	L625.003,353.944z M405.791,520.42l-0.806,0.143h-0.271l-1.739-0.275l-1.075-0.808l-0.132-1.347l0.805-1.893l0.806-0.404
	l0.804,1.084l0.804,1.75l0.806,1.487V520.42z"/>
<polygon id="Centre" fill="#FFFFFF" stroke="#010101" stroke-width="2" stroke-linecap="round" stroke-linejoin="round" points="
	477.256,-106.234 478.322,-106.234 479.669,-106.102 482.614,-105.293 483.55,-104.615 484.225,-104.21 484.756,-103.532 
	485.029,-102.723 486.507,-97.057 487.04,-96.115 487.713,-95.307 490.128,-93.414 491.334,-92.068 491.596,-91.259 
	491.736,-90.449 491.998,-88.425 491.596,-86.938 490.128,-83.438 489.454,-82.354 488.779,-81.819 487.17,-80.868 486.365,-80.2 
	485.159,-78.712 484.627,-78.034 483.953,-77.771 482.886,-77.903 482.614,-77.63 482.343,-76.82 482.746,-73.855 483.018,-72.773 
	483.691,-71.427 483.953,-70.749 483.55,-69.808 483.147,-69.13 482.886,-68.594 482.746,-67.916 483.018,-67.106 483.018,-66.297 
	483.018,-65.488 482.343,-64.415 481.68,-63.868 479.126,-62.928 476.713,-61.309 475.908,-61.036 475.243,-61.036 473.767,-61.177 
	472.288,-60.904 471.483,-60.631 470.951,-60.226 470.418,-59.69 470.278,-59.417 470.017,-58.344 470.017,-57.262 470.146,-56.32 
	470.418,-55.643 471.222,-55.106 471.887,-55.106 472.689,-54.833 473.363,-54.296 475.505,-52.273 476.45,-51.323 477.517,-49.167 
	477.919,-47.953 477.919,-46.87 477.113,-45.524 477.256,-44.583 477.658,-43.5 479.93,-40.536 480.604,-38.644 478.994,-38.107 
	476.049,-38.107 475.243,-37.835 472.157,-36.084 472.157,-35.538 471.887,-35.132 473.896,-32.573 474.702,-30.954 475.375,-28.93 
	475.908,-27.989 477.256,-26.229 477.658,-25.561 477.788,-25.015 477.788,-24.205 477.256,-20.967 476.984,-20.562 476.582,-19.49 
	476.311,-18.681 476.179,-18.276 475.908,-17.729 475.104,-15.979 474.169,-14.765 473.495,-13.278 473.363,-12.873 
	473.363,-12.468 473.495,-11.8 474.038,-10.849 474.44,-10.312 474.702,-10.04 475.104,-9.776 475.375,-9.503 476.179,-9.23 
	476.45,-9.099 476.713,-8.825 478.724,-6.134 479.268,-5.587 480.473,-4.778 480.876,-4.373 481.138,-3.706 481.409,-2.754 
	482.213,1.293 482.343,1.698 482.886,2.912 483.953,6.149 484.898,9.519 485.029,9.924 485.562,11.947 485.562,12.757 
	485.562,13.697 485.43,15.458 485.301,16.399 485.43,17.209 485.833,18.018 486.104,18.423 487.573,19.77 487.844,20.042 
	488.115,20.315 488.245,20.72 488.377,22.875 488.377,25.708 488.648,27.054 488.779,27.864 488.779,28.814 488.519,30.029 
	487.975,32.589 487.311,34.481 487.17,35.017 487.17,35.553 487.311,36.504 487.441,37.041 488.377,38.791 488.377,39.195 
	488.519,39.601 488.648,40.41 488.377,41.22 487.844,42.434 486.104,45.813 485.701,46.754 485.562,47.028 485.301,49.455 
	483.147,49.455 481.138,49.183 477.658,50.266 472.832,53.502 472.288,53.908 471.755,55.122 471.353,55.931 470.548,56.741 
	469.744,56.6 468.939,56.336 468.005,56.194 467.331,56.6 466.124,57.955 465.45,58.087 462.907,57.004 462.504,56.468 
	462.232,56.062 461.568,55.79 461.166,56.194 459.96,57.682 457.677,59.706 456.339,60.788 454.329,60.788 453.926,61.193 
	453.926,61.729 454.188,63.348 453.785,64.026 452.98,64.158 451.241,64.026 450.709,64.158 450.438,64.562 450.438,65.24 
	450.709,65.777 451.514,66.99 451.775,67.669 451.644,68.073 451.111,69.146 450.97,69.956 451.111,70.633 451.514,71.443 
	452.721,72.93 453.123,73.598 453.384,74.276 453.523,74.681 453.655,75.217 453.655,75.764 453.523,76.299 453.252,76.573 
	446.816,78.455 443.198,78.728 441.056,79.265 440.381,79.265 439.577,79.133 438.371,79.265 436.892,79.668 432.206,81.966 
	431.129,83.858 430.326,84.667 429.652,85.072 429.119,85.204 428.587,85.608 428.185,86.145 427.641,87.501 425.631,91.001 
	417.988,90.596 413.966,91.547 411.422,90.465 406.996,90.465 406.465,90.334 404.855,89.383 403.91,89.12 397.072,88.978 
	396.269,89.12 395.463,89.383 393.854,90.596 393.189,91.001 392.115,90.87 391.441,90.192 389.833,88.037 389.169,87.501 
	388.494,87.501 387.82,87.632 387.157,88.573 387.018,89.383 387.018,90.061 387.157,90.87 387.157,91.547 386.886,92.215 
	386.614,92.894 385.95,93.43 385.006,93.703 381.788,92.894 380.983,93.167 380.049,93.834 379.243,94.513 378.569,95.19 
	377.635,95.322 376.297,95.048 375.625,94.381 375.493,93.703 375.625,93.025 375.222,92.488 374.417,92.084 372.406,92.488 
	371.33,92.215 370.524,91.81 369.722,91.68 368.515,91.953 363.557,97.214 361.145,98.691 357.655,96.405 357.252,95.726 
	356.99,94.917 356.448,94.239 355.785,93.703 354.979,93.572 353.903,94.107 353.502,94.785 353.23,95.454 352.696,96.131 
	351.621,96.405 348.272,96.809 347.197,96.809 346.26,96.667 345.186,95.858 344.25,95.726 342.913,94.644 344.25,90.061 
	343.315,88.714 341.836,87.764 341.033,87.227 340.228,86.013 340.098,85.072 340.762,82.371 340.762,81.966 340.5,81.288 
	340.228,80.752 339.826,79.942 339.152,79.265 338.488,78.728 337.814,78.455 337.01,78.192 332.313,78.192 331.379,77.787 
	330.977,77.109 330.847,75.358 330.303,74.812 329.77,74.549 328.292,74.145 326.151,72.93 324.411,71.311 323.466,70.229 
	322.802,69.146 322.398,67.396 322.127,65.908 322.127,63.621 322.259,62.943 322.398,62.266 322.66,61.456 322.933,60.788 
	322.933,59.706 322.66,58.36 321.726,56.336 321.192,55.253 319.584,53.361 316.366,50.67 307.246,37.041 305.637,32.184 
	304.832,30.565 304.028,29.624 303.223,29.078 301.614,28.41 297.321,25.708 296.386,25.304 296.255,25.577 296.114,25.708 
	296.255,26.113 296.255,26.386 296.255,27.327 296.386,27.732 296.516,28.005 296.788,28.268 296.919,28.673 297.06,28.946 
	297.19,29.351 297.321,29.755 297.321,30.16 297.06,30.565 296.386,30.839 295.712,31.101 289.548,31.375 288.209,31.779 
	287.538,32.052 287.135,32.589 286.602,33.125 285.798,33.397 282.308,32.72 278.958,33.125 277.481,32.72 276.677,32.052 
	276.143,31.243 275.873,30.434 275.742,29.624 275.742,28.005 275.742,25.84 276.274,23.553 276.404,22.197 276.274,21.53 
	276.003,20.983 275.34,20.852 273.731,20.72 273.188,20.173 272.786,18.959 272.252,18.696 271.579,18.555 269.839,19.233 
	268.904,19.506 267.827,19.506 267.153,19.101 267.023,18.423 267.153,17.614 267.426,16.804 267.557,15.995 267.426,15.054 
	267.153,14.245 266.491,13.971 264.741,14.649 263.675,14.649 263.273,14.103 263.132,13.566 263.132,12.757 263.273,12.079 
	262.871,11.412 262.328,11.412 260.99,12.221 260.186,12.353 259.512,12.079 259.109,11.412 258.708,10.602 258.306,9.924 
	257.501,8.436 258.708,-0.326 260.055,-6.67 260.457,-8.158 260.859,-8.968 261.794,-10.444 263.937,-13.419 266.089,-17.062 
	266.089,-18.002 265.687,-20.158 265.817,-21.241 266.752,-24.073 267.023,-25.692 269.437,-31.228 269.567,-32.037 
	269.437,-32.978 268.904,-35.001 268.904,-36.489 269.165,-37.835 271.046,-42.691 274.395,-41.75 276.546,-41.477 280.971,-40.131 
	282.037,-40.263 282.308,-40.799 282.177,-41.477 281.905,-42.823 281.775,-43.632 281.775,-44.441 282.037,-45.119 
	282.982,-45.929 283.785,-45.929 285.526,-44.847 286.602,-44.583 287.135,-44.847 287.265,-45.524 287.939,-46.202 
	289.146,-47.011 292.233,-47.679 296.386,-49.845 297.321,-50.108 298.397,-50.249 299.201,-50.513 299.473,-51.059 
	299.473,-51.727 299.333,-52.405 298.669,-54.024 299.604,-56.452 301.343,-58.344 302.822,-59.285 303.757,-59.558 
	303.896,-59.558 305.637,-60.499 307.778,-61.987 308.855,-62.928 309.659,-63.868 311.671,-70.213 311.801,-71.022 
	311.801,-71.832 311.801,-72.773 311.671,-73.583 311.671,-74.392 311.671,-75.343 311.941,-76.415 312.345,-77.63 313.279,-78.439 
	314.355,-79.249 316.095,-81.009 316.769,-82.082 317.029,-83.032 316.497,-84.652 316.497,-85.866 316.628,-87.211 317.171,-89.64 
	317.301,-90.854 316.9,-91.39 315.562,-91.532 315.018,-91.664 314.757,-92.2 314.486,-92.878 314.083,-93.688 313.682,-94.628 
	313.682,-95.579 314.215,-96.115 314.889,-96.248 316.497,-96.389 317.171,-96.52 317.975,-97.057 317.975,-97.734 317.572,-98.271 
	316.9,-98.675 316.366,-99.222 316.366,-100.163 316.628,-100.699 317.572,-101.246 320.247,-103.127 321.857,-103.806 
	322.53,-104.615 322.53,-105.293 322.127,-105.96 321.454,-106.366 320.79,-106.507 318.377,-106.639 317.572,-106.912 
	313.812,-109.745 314.757,-110.281 315.29,-110.818 315.823,-111.496 315.963,-112.437 315.692,-113.65 315.29,-114.602 
	313.953,-116.889 313.812,-117.161 313.682,-117.566 313.551,-118.376 313.551,-119.317 313.812,-120.805 313.682,-121.745 
	313.409,-122.555 312.876,-122.959 312.345,-123.637 311.941,-124.447 312.345,-125.793 312.605,-126.602 313.008,-127.007 
	313.551,-127.148 314.889,-127.412 315.963,-127.685 321.192,-129.839 322.802,-130.923 325.074,-133.078 325.477,-133.755 
	325.879,-135.375 326.281,-136.053 326.684,-136.862 327.356,-137.671 327.759,-138.481 327.628,-139.291 326.824,-140.505 
	326.151,-141.314 325.617,-141.982 325.346,-142.659 325.214,-143.742 325.214,-144.552 325.214,-145.361 325.477,-146.171 
	325.477,-146.302 325.617,-146.707 325.617,-147.243 325.477,-148.053 325.074,-148.862 321.052,-153.456 318.78,-154.802 
	317.835,-155.884 316.497,-158.444 315.692,-160.194 315.16,-165.456 317.703,-168.158 318.508,-168.836 319.444,-169.372 
	326.824,-171.527 327.628,-171.527 328.433,-171.396 329.237,-171.527 330.041,-171.932 330.705,-172.883 331.108,-173.692 
	331.65,-174.501 332.313,-175.038 333.391,-175.442 334.193,-175.577 335.804,-175.442 335.935,-175.442 336.206,-175.442 
	336.738,-175.577 337.141,-175.981 337.412,-176.657 337.412,-178.142 337.684,-178.68 338.086,-178.814 339.021,-178.41 
	341.033,-176.522 341.836,-176.252 342.642,-176.118 343.445,-175.981 346.131,-176.252 346.935,-176.118 347.599,-175.848 
	348.272,-175.309 348.404,-175.309 348.676,-175.442 349.078,-175.577 352.295,-177.467 354.175,-178.276 354.979,-178.951 
	355.785,-179.761 356.316,-181.38 356.588,-182.594 357.121,-183.671 357.926,-184.751 359.665,-186.37 360.873,-187.18 
	362.753,-188.124 363.427,-188.665 363.959,-189.474 364.23,-190.688 364.23,-191.498 363.557,-194.06 363.688,-195.004 
	364.09,-195.679 367.177,-197.569 371.33,-189.203 372.537,-187.585 373.078,-186.505 373.481,-184.885 373.481,-183.808 
	373.342,-182.728 372.939,-181.109 372.809,-180.3 372.809,-179.761 372.809,-179.219 372.939,-178.005 373.078,-177.467 
	373.612,-176.791 375.754,-175.442 375.896,-175.172 375.896,-174.767 375.754,-173.824 375.352,-173.014 374.146,-171.527 
	373.743,-170.718 373.481,-169.908 373.612,-169.24 373.743,-168.693 374.951,-168.026 375.625,-167.349 376.297,-165.324 
	376.961,-164.11 378.038,-162.896 381.929,-160.062 382.864,-159.253 383.265,-158.171 383.537,-156.552 383.799,-155.743 
	384.474,-154.933 385.81,-154.124 386.756,-153.456 387.56,-152.242 387.82,-151.291 387.963,-150.35 388.092,-149.541 
	388.092,-148.862 387.963,-147.112 387.963,-146.302 388.092,-146.171 388.766,-144.552 389.571,-143.47 390.777,-142.386 
	394.528,-140.363 396.54,-139.695 399.355,-140.231 399.887,-139.695 400.029,-136.994 400.159,-136.053 400.964,-135.102 
	401.638,-134.565 402.301,-133.755 402.975,-132.542 403.246,-129.839 403.649,-128.362 404.312,-127.148 405.791,-126.338 
	406.062,-125.935 406.062,-125.256 404.985,-123.637 404.312,-122.959 403.91,-122.423 403.91,-121.745 404.051,-121.077 
	405.258,-120.268 416.38,-122.828 419.062,-124.042 419.737,-124.72 420.14,-125.388 420.804,-127.007 421.347,-127.412 
	422.152,-127.553 423.087,-126.744 423.891,-126.066 424.292,-125.256 424.424,-124.447 424.825,-123.91 425.771,-123.637 
	427.782,-124.174 428.587,-124.852 429.119,-125.661 429.652,-126.066 430.458,-126.197 433.815,-124.174 436.762,-124.72 
	437.969,-123.101 438.371,-122.019 439.445,-117.698 439.577,-117.292 439.708,-117.161 444.001,-114.197 445.078,-113.114 
	445.61,-112.173 445.61,-111.364 445.34,-110.686 444.534,-109.198 444.534,-108.936 444.534,-108.662 445.078,-107.721 
	445.208,-107.043 445.078,-106.507 444.675,-106.102 444.404,-105.96 442.393,-106.366 441.719,-106.366 441.186,-105.829 
	440.784,-105.151 440.653,-104.483 440.784,-103.806 441.317,-103.127 441.99,-102.591 443.198,-102.318 444.272,-102.318 
	446.948,-103.127 448.296,-103.27 458.753,-102.46 459.82,-102.723 461.297,-103.806 462.102,-104.615 462.636,-105.424 
	463.438,-106.102 464.646,-106.507 466.657,-106.77 467.603,-106.366 467.862,-105.829 467.462,-105.151 467.199,-104.342 
	467.199,-103.675 468.406,-103.401 469.473,-103.532 "/>
<polygon fill="#FFFFFF" stroke="#010101" stroke-width="2" stroke-linecap="round" stroke-linejoin="round" points="
	802.115,202.302 798.762,200.825 797.823,200.015 797.153,198.801 796.614,197.445 795.812,196.231 792.462,193.671 
	788.974,191.779 788.44,190.161 788.038,185.576 787.767,184.768 786.832,183.553 786.695,182.612 786.963,181.661 787.767,179.779 
	788.038,179.101 787.5,177.482 786.561,176.804 784.146,176.136 783.076,175.459 781.331,173.708 780.26,173.303 778.249,172.898 
	776.239,171.28 774.629,168.983 773.824,164.398 773.559,162.376 773.688,160.483 774.092,158.591 775.031,156.972 776.239,156.304 
	778.516,155.9 778.516,155.758 778.787,155.222 779.054,154.817 779.456,154.412 779.723,154.544 780.396,154.949 780.663,154.949 
	781.201,154.817 783.076,154.949 784.685,154.412 786.429,153.471 788.038,152.257 788.974,150.365 789.512,148.878 790.18,147.532 
	790.984,146.591 792.062,146.045 791.522,145.103 791.12,144.021 790.582,141.997 789.647,139.71 789.376,138.497 788.974,138.224 
	783.88,132.284 782.137,131.616 781.466,131.879 780.929,132.426 780.26,132.83 779.592,132.689 778.918,132.284 778.787,131.879 
	779.054,131.475 778.918,130.534 779.054,130.534 779.054,129.319 778.918,128.237 778.65,128.378 779.054,127.7 779.723,127.022 
	780.26,126.081 780.26,125.272 779.054,124.189 773.021,122.712 772.352,120.951 773.021,117.046 774.362,113.13 777.042,107.737 
	775.297,104.762 772.618,101.797 771.145,99.237 771.547,98.023 773.559,95.595 774.092,93.703 774.092,92.621 773.96,91.68 
	773.286,90.465 772.08,89.929 760.688,86.954 755.59,86.823 750.631,87.764 744.061,92.357 741.511,92.894 738.967,93.025 
	736.684,93.834 734.14,96 731.993,98.964 730.384,101.119 729.983,102.607 730.248,103.821 730.923,105.713 731.054,106.118 
	731.727,108 732.128,108.404 732.934,108.81 734.14,108.273 734.673,108.546 735.075,111.106 733.065,113.13 728.238,116.5 
	724.215,121.093 721.802,122.308 719.123,121.225 715.638,121.355 712.148,122.166 710.273,123.249 711.345,120.82 711.882,119.737 
	712.148,118.796 710.811,117.046 710.007,115.559 710.273,114.212 712.148,112.999 716.844,110.702 716.844,110.702 
	716.976,110.702 717.246,110.702 717.779,110.833 718.182,110.974 718.72,110.833 720.328,110.297 720.732,109.619 720.596,108.546 
	720.732,107.332 721.271,104.226 721.535,103.285 722.606,100.856 723.949,97.75 723.814,96.536 722.878,94.785 721.802,93.572 
	718.052,91.274 714.834,94.785 714.296,95.595 713.758,96.667 711.077,99.37 710.811,99.905 709.872,101.797 709.605,102.202 
	709.066,102.476 708.528,103.012 707.995,103.548 707.593,104.226 707.057,104.762 704.376,107.19 703.703,107.595 702.897,107.868 
	701.158,108 692.842,107.595 692.173,107.332 691.505,106.927 691.233,105.976 691.37,105.167 691.103,104.226 690.299,103.012 
	686.678,99.773 686.407,99.501 685.069,100.715 684.798,100.989 684.128,101.93 683.862,102.202 683.325,102.607 683.058,102.881 
	682.787,103.143 682.656,104.094 682.383,104.357 682.118,104.631 681.715,104.762 680.912,104.762 680.645,104.903 
	680.373,105.167 680.106,105.44 679.438,106.381 679.166,106.654 678.765,106.927 677.156,107.595 676.753,108.142 676.486,108.404 
	676.221,108.678 675.817,108.81 673.807,108.142 673.132,107.737 672.731,107.059 672.731,105.976 672.867,104.903 673.003,104.094 
	673.132,103.285 673.132,102.738 672.731,102.202 671.122,101.93 670.453,101.666 669.514,100.047 668.442,99.643 666.834,99.237 
	666.164,98.56 665.491,97.618 665.09,96.131 664.958,95.19 664.687,94.239 663.881,93.299 663.213,92.894 661.337,92.357 
	660.534,91.001 660.534,87.096 655.168,85.608 653.158,84.263 651.685,82.644 650.342,81.43 649.402,81.025 648.598,80.752 
	646.32,81.025 641.628,82.907 639.885,83.048 638.678,82.775 635.727,81.43 634.656,81.025 633.584,81.025 632.509,81.288 
	632.106,81.561 631.84,81.834 631.84,81.966 631.703,83.048 631.574,83.453 631.035,84.667 630.9,85.072 630.095,87.096 
	629.965,87.501 629.965,88.037 629.427,91.81 629.16,92.762 628.889,93.703 627.949,96 627.285,96.941 627.145,97.345 
	627.013,97.75 627.013,98.155 627.013,98.964 627.013,99.37 627.013,99.773 626.883,100.178 622.72,109.214 622.458,109.892 
	621.382,115.153 620.979,116.368 620.85,116.904 620.85,117.582 620.979,117.855 621.11,118.665 616.687,118.119 615.218,116.772 
	614.675,115.153 614.011,113.535 613.871,112.857 614.011,111.238 613.871,110.297 613.468,109.761 611.859,108.678 
	611.598,108.142 611.598,107.464 611.728,106.654 611.598,105.713 610.925,105.308 608.912,104.5 608.109,104.762 607.707,105.308 
	607.575,105.976 607.575,106.654 607.436,107.464 607.032,108 606.369,108.546 605.294,108.546 604.488,108.273 603.814,107.464 
	603.282,106.654 602.478,105.713 601.673,105.713 601.141,105.976 600.597,106.654 599.661,107.059 598.185,107.19 595.237,106.381 
	592.291,105.035 591.616,105.167 591.216,105.572 590.944,106.25 590.813,106.786 590.28,109.487 589.736,111.917 589.335,112.857 
	587.063,115.963 585.051,117.582 583.845,118.119 582.899,118.391 582.095,118.523 581.291,118.523 580.627,118.523 
	578.213,117.582 574.594,116.641 573.648,116.772 571.638,117.582 570.833,117.582 570.17,117.582 566.952,116.5 565.604,116.236 
	564.669,116.368 560.374,118.119 559.168,118.26 558.232,117.987 557.701,117.582 555.688,115.832 554.886,115.427 553.135,114.88 
	552.472,114.617 551.929,114.071 551.797,113.403 551.797,112.725 552.068,110.024 552.068,109.892 551.929,109.761 
	551.797,108.546 551.123,107.059 558.102,103.012 558.906,102.202 559.843,101.524 559.843,101.119 559.974,100.856 
	559.974,100.452 559.843,100.178 559.711,100.047 559.439,99.773 559.168,99.37 558.906,98.964 558.766,98.56 558.766,98.155 
	558.766,97.618 558.766,96.941 558.906,96.536 558.766,96.131 558.636,95.726 558.364,95.454 558.232,95.19 558.232,94.513 
	558.232,93.834 558.906,90.738 559.038,90.192 559.038,89.655 558.766,89.12 558.636,88.846 558.504,88.442 558.364,87.905 
	558.364,87.096 558.232,86.286 558.102,85.739 557.83,85.477 557.701,85.335 556.624,84.799 555.688,84.121 555.016,83.858 
	552.603,83.453 550.459,82.907 550.188,82.644 549.917,82.371 549.515,81.966 549.385,81.693 548.308,81.025 547.505,79.942 
	547.102,79.668 546.699,79.537 546.297,79.537 545.231,79.668 544.829,79.537 544.558,79.265 544.426,79.001 544.155,78.728 
	543.752,78.596 542.949,78.323 542.678,78.192 541.872,77.514 541.742,77.382 540.536,76.978 539.862,76.573 539.73,76.167 
	539.73,75.764 540.134,74.954 540.134,74.549 540.264,71.574 540.134,69.692 539.862,69.146 539.6,68.741 538.654,68.336 
	537.318,66.313 536.915,65.099 536.644,64.431 536.241,64.158 535.839,63.884 535.578,63.753 534.773,62.539 534.501,62.266 
	533.565,61.193 533.426,60.647 533.165,59.432 532.893,58.764 531.012,55.253 528.87,54.849 528.741,55.253 528.599,55.931 
	528.599,56.872 528.197,57.813 527.533,58.36 526.588,58.896 526.327,59.706 526.327,60.515 526.056,61.729 525.25,62.266 
	524.175,62.67 520.958,64.836 520.152,65.099 519.086,65.24 518.413,65.099 518.143,64.562 518.143,63.884 518.143,63.217 
	518.143,62.407 517.739,61.729 517.207,61.051 516.674,59.575 516.271,59.028 514.261,58.36 513.455,58.491 512.913,59.028 
	512.108,60.515 511.303,61.193 510.5,61.324 509.836,61.193 508.227,60.242 507.021,59.706 504.867,59.301 503.661,59.301 
	502.595,59.575 499.508,61.051 498.705,61.051 497.899,60.647 497.226,60.11 495.215,57.55 494.28,56.872 492.942,56.468 
	491.998,56.336 491.334,56.6 490.79,56.6 490.528,56.468 489.854,55.931 488.377,55.253 486.909,53.908 485.833,52.552 
	485.562,51.884 485.43,51.479 485.301,51.074 485.159,50.529 485.301,49.455 483.147,49.455 481.138,49.183 477.658,50.266 
	472.832,53.502 472.288,53.908 471.755,55.122 471.353,55.931 470.548,56.741 469.744,56.6 468.939,56.336 468.005,56.194 
	467.331,56.6 466.124,57.955 465.45,58.087 462.907,57.004 462.504,56.468 462.232,56.062 461.568,55.79 461.166,56.194 
	459.96,57.682 457.677,59.706 456.339,60.788 454.329,60.788 453.926,61.193 453.926,61.729 454.188,63.348 453.785,64.026 
	452.98,64.158 451.241,64.026 450.709,64.158 450.438,64.562 450.438,65.24 450.709,65.777 451.514,66.99 451.775,67.669 
	451.644,68.073 451.111,69.146 450.97,69.956 451.111,70.633 451.514,71.443 452.721,72.93 453.123,73.598 453.384,74.276 
	453.523,74.681 453.655,75.217 453.655,75.764 453.523,76.299 453.252,76.573 446.816,78.455 443.198,78.728 441.056,79.265 
	440.381,79.265 439.577,79.133 438.371,79.265 436.892,79.668 432.206,81.966 431.129,83.858 430.326,84.667 429.652,85.072 
	429.119,85.204 428.587,85.608 428.185,86.145 427.641,87.501 425.631,91.001 428.314,94.917 430.458,96.941 430.859,98.023 
	431,99.237 431.663,101.119 432.206,101.93 433.012,102.333 434.479,102.881 436.63,103.285 437.295,103.821 437.697,104.5 
	438.1,105.713 438.24,106.381 438.773,107.19 439.306,107.332 439.979,106.523 440.653,106.25 441.719,106.654 442.524,107.595 
	445.61,112.725 446.143,113.808 446.687,116.236 446.948,117.177 447.49,118.26 449.1,120.951 449.632,122.712 449.23,127.7 
	449.23,128.641 449.502,129.997 449.904,130.938 451.111,133.235 451.775,134.854 452.046,135.926 452.046,136.736 451.775,137.818 
	451.775,138.354 451.775,139.438 451.915,141.056 451.514,141.735 450.307,142.948 449.764,143.758 449.361,144.699 
	448.828,145.781 448.296,147.532 447.752,148.473 447.088,149.282 446.545,149.687 446.014,150.365 444.937,151.852 
	444.675,152.257 444.404,152.257 444.001,152.389 442.524,152.116 441.719,152.389 441.056,152.925 440.11,154.008 439.306,154.817 
	437.697,155.758 436.892,156.709 436.762,157.519 436.892,158.328 438.643,160.615 439.045,161.293 439.306,162.103 
	439.577,163.448 439.849,164.257 440.251,164.662 440.914,164.936 441.457,165.067 442.121,165.209 442.263,165.34 442.664,165.876 
	443.327,166.423 445.742,169.519 446.415,171.28 446.545,171.947 446.545,173.566 446.415,175.459 446.285,176.542 446.143,177.078 
	446.014,177.482 445.61,178.019 445.208,178.423 443.729,178.969 443.066,179.374 442.664,180.042 441.859,183.685 441.99,184.636 
	442.393,185.445 443.729,186.791 444.133,188.005 444.272,189.351 444.272,191.374 444.272,192.862 444.534,193.944 444.675,194.48 
	446.014,195.291 444.404,202.039 443.729,204.326 443.198,204.872 442.795,205.135 442.263,205.277 439.979,204.872 438.24,204.062 
	437.164,203.111 436.49,202.707 436.229,202.575 435.686,202.444 434.882,202.575 433.674,202.849 433.142,203.253 433.012,203.658 
	433.142,203.921 433.413,204.194 433.815,204.468 433.947,204.73 434.219,205.004 434.348,205.277 434.479,205.681 434.479,206.218 
	434.479,206.622 434.479,207.027 434.348,207.432 433.413,209.182 432.87,210.67 432.468,210.943 432.066,211.348 431.532,211.479 
	428.989,215.658 428.446,216.205 426.837,217.146 425.369,217.418 424.967,217.681 424.825,218.087 424.424,220.515 424.022,220.92 
	421.075,223.348 420.943,224.026 420.804,224.835 420.943,225.776 421.075,226.586 421.607,227.396 422.01,228.074 422.281,229.156 
	422.01,230.37 420.401,233.872 419.868,234.953 419.597,236.036 419.062,237.383 418.531,238.323 417.857,239.133 414.91,241.429 
	414.367,242.24 414.367,243.048 414.51,243.726 416.118,246.559 416.38,247.227 416.38,247.501 416.52,247.774 416.38,248.037 
	416.248,248.583 415.716,248.988 415.173,249.251 412.356,249.656 410.617,250.465 411.553,252.49 412.226,258.965 412.629,260.856 
	413.302,262.344 416.52,267.605 417.726,270.033 418.128,271.248 418.26,272.32 417.053,278.129 416.52,279.747 416.248,280.557 
	416.651,280.819 417.857,281.366 418.531,282.035 418.793,282.712 419.336,285.818 419.597,286.891 420.14,287.842 421.075,288.651 
	421.881,288.783 422.553,286.082 423.761,285.413 424.563,285.413 429.249,283.794 430.055,283.794 430.859,283.927 
	431.261,284.462 431.663,285.009 432.206,285.546 432.739,285.546 433.273,285.413 433.947,284.867 434.348,284.736 
	434.882,284.736 435.686,284.867 438.643,284.867 441.056,284.604 442.393,283.794 443.198,282.985 444.001,281.629 
	446.415,279.069 446.816,278.533 447.22,277.855 447.351,277.178 447.622,275.021 447.894,274.344 448.696,272.594 450.569,270.033 
	450.97,269.225 451.111,268.547 451.372,267.201 451.514,266.392 451.775,265.713 461.971,254.785 462.504,254.916 463.036,255.322 
	463.309,256 463.71,256.678 464.787,257.893 465.318,258.701 465.59,259.369 465.59,260.179 465.59,260.856 465.59,262.202 
	465.722,262.606 466.254,262.748 468.537,262.344 469.211,262.202 469.613,262.344 469.875,262.475 470.819,264.226 472.429,266.25 
	472.689,266.928 473.363,269.225 473.635,269.761 474.169,270.438 474.842,270.844 476.582,271.248 476.854,271.511 
	477.385,271.916 477.517,272.462 477.385,272.998 476.582,273.271 476.049,273.677 475.777,274.212 476.049,274.891 476.45,275.559 
	476.582,276.236 476.713,277.045 476.854,279.201 476.984,279.879 477.256,281.366 477.919,282.843 478.322,283.521 
	478.864,284.199 481.409,286.354 482.485,282.843 483.288,281.497 484.627,279.605 484.898,278.797 485.301,275.021 
	486.365,270.438 487.04,268.273 487.844,266.928 489.051,266.25 489.854,265.44 490.389,263.152 490.659,260.725 491.192,259.916 
	491.866,259.369 492.541,259.105 493.072,259.369 494.28,261.262 494.812,261.939 495.888,261.666 497.366,260.725 501.791,256.273 
	502.857,255.727 503.4,256 504.064,256 504.867,255.727 505.812,255.322 508.892,253.166 509.433,252.893 510.368,252.63 
	511.445,252.762 512.108,252.49 512.651,252.893 513.054,253.44 513.315,254.785 513.989,257.082 518.282,265.582 519.751,267.201 
	520.826,267.736 521.902,267.059 522.566,266.795 523.369,266.653 526.056,266.523 526.729,266.392 527.394,265.986 
	527.795,265.309 528.067,264.631 528.197,263.152 528.339,262.344 528.741,261.797 529.273,261.393 530.077,261.262 
	531.012,261.129 532.359,261.393 533.294,261.939 533.828,262.748 533.828,263.417 533.697,264.094 533.426,264.771 
	533.165,265.309 533.294,265.844 533.828,266.118 537.992,266.795 538.927,267.201 539.73,267.736 541.742,270.033 544.024,272.057 
	545.091,272.727 546.297,272.998 546.699,273.271 547.102,273.809 547.645,274.212 548.179,274.344 550.059,274.891 
	549.656,277.986 549.917,279.343 550.188,280.415 550.459,280.819 550.592,281.225 551.526,284.33 552.2,288.783 553.003,291.747 
	553.809,293.367 555.417,294.448 556.494,296.473 557.157,298.224 559.31,306.591 561.451,308.483 562.658,310.912 563.593,312.389 
	563.733,313.339 563.331,313.875 562.928,314.413 562.658,315.495 562.928,316.841 563.189,320.22 563.593,320.888 564.267,321.029 
	565.604,320.483 566.277,320.483 567.082,320.625 567.755,320.625 569.093,320.078 569.898,320.22 570.17,320.483 570.702,321.292 
	571.234,321.697 572.18,321.972 577.408,325.208 578.344,325.482 579.149,325.613 579.821,325.341 580.355,324.936 581.291,323.722 
	581.834,323.185 583.845,321.84 585.454,320.352 586.118,319.947 588.53,319.269 589.475,319.41 590.14,319.947 590.28,320.483 
	590.14,321.292 590.008,321.972 590.008,322.648 590.28,323.459 591.085,324.399 591.89,324.673 592.824,324.531 593.499,323.995 
	594.031,323.459 594.303,322.781 594.434,322.103 594.434,320.756 594.835,320.22 595.641,319.674 597.923,319.542 599.793,319.674 
	602.075,320.625 602.478,321.162 602.608,321.434 602.88,321.697 603.413,322.103 603.686,322.375 604.086,322.912 604.359,323.185 
	604.76,323.459 606.902,324.531 610.392,325.613 610.392,320.756 612.533,320.352 614.816,320.483 616.958,320.756 617.632,321.029 
	618.164,321.434 619.37,322.375 619.904,323.185 620.305,323.995 622.056,329.124 622.458,329.66 622.991,330.196 623.796,330.47 
	624.731,330.196 625.534,329.66 626.883,328.578 627.687,328.173 628.35,328.042 630.366,327.769 631.035,327.637 632.509,327.101 
	633.987,326.148 635.461,325.482 640.688,323.995 641.76,323.995 645.249,324.804 646.455,324.673 647.391,324.399 648.468,323.185 
	648.999,322.781 649.538,322.648 649.941,323.054 650.076,323.863 649.805,324.673 649.136,326.148 649.136,326.959 
	649.136,328.446 649.271,329.256 649.538,329.934 650.342,330.743 651.412,331.28 653.826,331.684 655.168,331.684 656.239,331.412 
	657.315,331.412 662.676,333.436 663.751,333.575 664.42,333.436 665.225,333.708 665.764,334.112 666.295,335.195 666.566,336.005 
	666.698,336.814 666.834,337.625 667.371,338.293 668.04,338.969 669.382,339.647 672.197,342.076 672.867,342.48 675.546,342.744 
	677.959,341.266 680.106,338.969 681.047,337.625 681.982,336.672 683.058,336.408 684.934,336.672 685.737,337.35 686.141,338.028 
	686.275,338.696 686.543,339.374 687.081,339.778 687.749,339.778 688.287,339.647 688.555,338.969 688.287,336.408 
	689.091,335.054 689.357,330.743 689.223,327.91 688.819,327.101 688.151,326.696 686.944,326.148 686.407,325.613 685.473,324.399 
	684.934,323.863 684.53,323.185 684.53,322.507 684.934,321.565 685.201,320.888 684.798,320.352 684.266,320.22 683.592,320.078 
	679.972,320.352 679.438,320.078 677.959,319.269 677.156,319.006 675.683,318.732 675.279,318.602 674.877,318.328 
	671.927,316.031 671.661,315.495 671.523,314.958 671.394,313.875 671.259,313.339 670.855,312.531 669.785,311.315 669.514,310.77 
	669.514,310.102 670.453,309.697 671.122,309.697 673.269,310.365 673.938,310.365 674.477,310.233 674.877,309.829 
	675.145,309.424 675.145,308.614 674.877,308.342 674.477,307.937 673.938,307.532 673.406,307.127 673.003,306.46 672.731,305.782 
	672.464,304.972 672.464,304.295 672.601,303.626 673.003,303.223 673.938,302.948 674.611,302.948 677.024,303.354 
	681.715,305.104 682.383,305.246 683.325,304.972 686.678,302.412 687.346,301.734 687.211,300.52 686.81,299.711 686.275,299.174 
	684.396,297.818 683.862,297.009 683.592,296.604 683.46,295.937 683.46,295.391 683.46,294.854 683.862,294.045 686.141,290.533 
	686.678,289.319 686.944,288.247 686.944,287.438 687.211,286.76 688.417,286.224 689.223,286.224 689.896,286.354 690.831,286.486 
	692.173,286.76 693.113,286.486 694.049,286.224 695.392,285.546 697.668,285.271 698.207,284.867 699.414,283.652 699.95,282.843 
	700.484,282.176 700.484,281.366 700.354,280.688 699.55,280.011 699.011,279.069 700.886,275.832 701.561,275.021 702.631,274.617 
	703.437,274.485 705.713,274.617 707.192,274.344 710.273,273.271 710.942,272.727 711.345,272.057 711.48,270.975 711.214,270.165 
	711.077,269.355 711.48,268.678 713.225,267.201 714.562,266.25 715.235,265.986 715.904,265.844 716.709,265.986 717.917,266.523 
	718.72,266.523 719.388,266.25 723.411,263.559 724.215,263.285 724.889,263.285 726.362,263.82 727.03,263.82 729.312,263.285 
	730.118,263.285 731.457,263.559 732.26,263.417 734.81,262.344 735.613,262.07 736.281,262.07 736.955,262.202 739.771,263.285 
	740.305,263.285 740.979,263.285 741.244,262.748 741.511,262.07 741.782,260.451 741.913,257.346 741.782,256.535 741.511,255.594 
	740.576,254.381 739.902,253.703 739.234,252.762 738.967,251.82 738.967,249.524 738.831,248.583 738.564,247.774 737.761,247.096 
	736.955,246.964 733.467,247.774 732.395,247.632 731.727,247.369 730.923,247.096 730.651,245.882 730.651,243.989 
	731.325,240.215 731.592,238.323 731.857,236.846 732.128,236.299 734.005,234.144 735.211,235.227 736.016,235.491 
	737.223,235.632 739.098,235.632 740.979,236.036 742.05,236.573 742.588,237.25 742.989,238.728 743.256,239.538 743.793,240.084 
	748.887,241.966 749.556,241.834 750.495,241.429 751.567,240.084 752.104,239.001 752.24,238.061 752.371,237.383 752.774,236.846 
	753.448,236.442 755.725,236.573 756.665,236.299 759.48,234.549 761.759,234.275 761.759,234.275 762.16,234.013 764.709,232.525 
	765.515,232.394 766.852,232.394 767.525,232.252 768.058,231.989 769.536,230.907 770.07,230.502 772.753,231.038 775.568,232.525 
	778.384,233.466 780.929,232.252 781.065,231.584 780.527,231.18 780.26,230.502 780.663,229.56 781.201,229.288 783.076,229.288 
	783.745,229.156 784.819,228.074 786.158,225.776 787.234,224.835 789.914,223.49 792.594,222.812 793.268,223.085 794.203,224.299 
	794.605,224.431 795.143,223.894 796.614,221.193 798.627,219.443 798.627,217.681 797.823,215.527 797.42,212.289 797.823,211.611 
	800.372,208.646 801.98,205.813 802.648,204.194 802.648,202.707 "/>
<g>
	<polygon fill="#FFFFFF" stroke="#010101" stroke-width="2" stroke-linecap="round" stroke-linejoin="round" points="
		136.837,114.749 138.043,115.153 142.334,114.344 149.707,119.201 153.195,119.879 153.596,120.011 153.999,120.415 
		154.804,120.011 155.339,119.737 156.01,119.737 155.205,117.713 153.73,115.963 151.854,114.749 144.212,113.535 142.87,112.857 
		142.87,112.047 143.944,112.047 143.944,111.238 142.065,111.784 139.92,112.725 137.911,112.857 136.57,110.428 137.375,110.57 
		139.117,111.238 139.652,110.702 139.652,110.024 139.25,109.356 138.714,108.951 137.375,108.678 132.813,109.761 
		132.813,110.428 133.755,111.106 	"/>
	<polygon fill="#FFFFFF" stroke="#010101" stroke-width="2" stroke-linecap="round" stroke-linejoin="round" points="
		154.534,138.091 153.73,137.545 151.854,135.521 149.441,133.64 146.892,132.152 144.479,131.879 146.224,135.794 147.027,138.354 
		146.892,139.438 146.489,140.52 147.833,142.543 149.441,144.567 151.051,145.781 155.607,150.901 156.413,152.389 
		157.084,153.876 158.155,157.782 159.496,158.328 160.703,156.567 161.372,153.734 162.043,149.019 161.911,148.068 
		161.372,147.127 159.094,145.781 158.29,144.973 158.692,144.021 158.692,143.211 157.888,142.402 157.888,141.33 157.888,140.115 
		157.619,138.76 156.545,137.545 155.475,137.688 	"/>
	<polygon fill="#FFFFFF" stroke="#010101" stroke-width="2" stroke-linecap="round" stroke-linejoin="round" points="
		451.775,138.354 451.775,137.818 452.046,136.736 452.046,135.926 451.775,134.854 451.111,133.235 449.904,130.938 
		449.502,129.997 449.23,128.641 449.23,127.7 449.632,122.712 449.1,120.951 447.49,118.26 446.948,117.177 446.687,116.236 
		446.143,113.808 445.61,112.725 442.524,107.595 441.719,106.654 440.653,106.25 439.979,106.523 439.306,107.332 438.773,107.19 
		438.24,106.381 438.1,105.713 437.697,104.5 437.295,103.821 436.63,103.285 434.479,102.881 433.012,102.333 432.206,101.93 
		431.663,101.119 431,99.237 430.859,98.023 430.458,96.941 428.314,94.917 425.631,91.001 417.988,90.596 413.966,91.547 
		411.422,90.465 406.996,90.465 406.465,90.334 404.855,89.383 403.91,89.12 397.072,88.978 396.269,89.12 395.463,89.383 
		393.854,90.596 393.189,91.001 392.115,90.87 391.441,90.192 389.833,88.037 389.169,87.501 388.494,87.501 387.82,87.632 
		387.157,88.573 387.018,89.383 387.018,90.061 387.157,90.87 387.157,91.547 386.886,92.215 386.614,92.894 385.95,93.43 
		385.006,93.703 381.788,92.894 380.983,93.167 380.049,93.834 379.243,94.513 378.569,95.19 377.635,95.322 376.297,95.048 
		375.625,94.381 375.493,93.703 375.625,93.025 375.222,92.488 374.417,92.084 372.406,92.488 371.33,92.215 370.524,91.81 
		369.722,91.68 368.515,91.953 363.557,97.214 361.145,98.691 357.655,96.405 357.252,95.726 356.99,94.917 356.448,94.239 
		355.785,93.703 354.979,93.572 353.903,94.107 353.502,94.785 353.23,95.454 352.696,96.131 351.621,96.405 348.272,96.809 
		347.197,96.809 346.26,96.667 345.186,95.858 344.25,95.726 342.913,94.644 344.25,90.061 343.315,88.714 341.836,87.764 
		341.033,87.227 340.228,86.013 340.098,85.072 340.762,82.371 340.762,81.966 340.5,81.288 340.228,80.752 339.826,79.942 
		339.152,79.265 338.488,78.728 337.814,78.455 337.01,78.192 332.313,78.192 331.379,77.787 330.977,77.109 330.847,75.358 
		330.303,74.812 329.77,74.549 328.292,74.145 326.151,72.93 324.411,71.311 323.466,70.229 322.802,69.146 322.398,67.396 
		322.127,65.908 322.127,63.621 322.259,62.943 322.398,62.266 322.66,61.456 322.933,60.788 322.933,59.706 322.66,58.36 
		321.726,56.336 321.192,55.253 319.584,53.361 316.366,50.67 307.246,37.041 305.637,32.184 304.832,30.565 304.028,29.624 
		303.223,29.078 301.614,28.41 297.321,25.708 296.386,25.304 296.255,25.577 296.114,25.708 296.255,26.113 296.255,26.386 
		296.255,27.327 296.386,27.732 296.516,28.005 296.788,28.268 296.919,28.673 297.06,28.946 297.19,29.351 297.321,29.755 
		297.321,30.16 297.06,30.565 296.386,30.839 295.712,31.101 289.548,31.375 288.209,31.779 287.538,32.052 287.135,32.589 
		286.602,33.125 285.798,33.397 282.308,32.72 278.958,33.125 277.481,32.72 276.677,32.052 276.143,31.243 275.873,30.565 
		275.742,29.624 275.742,28.005 275.742,25.84 276.274,23.553 276.404,22.197 276.274,21.53 276.003,20.983 275.34,20.852 
		273.731,20.72 273.188,20.173 272.786,18.959 272.252,18.696 271.579,18.555 269.839,19.233 268.904,19.506 267.827,19.506 
		267.153,19.101 267.023,18.423 267.153,17.614 267.426,16.804 267.557,15.995 267.426,15.054 267.153,14.245 266.491,13.971 
		264.741,14.649 263.675,14.649 263.273,14.103 263.132,13.566 263.132,12.757 263.273,12.079 262.871,11.412 262.328,11.412 
		260.99,12.221 260.186,12.353 259.512,12.079 259.109,11.412 258.708,10.602 258.306,9.924 257.501,8.436 253.479,7.626 
		252.142,8.032 249.598,11.27 249.325,12.079 249.195,12.888 248.924,13.839 248.39,14.912 247.445,15.317 245.304,16.126 
		244.771,16.804 244.368,17.341 243.292,19.364 241.412,18.696 241.009,18.15 240.748,17.341 240.608,16.531 240.205,15.458 
		239.271,14.649 238.465,14.376 237.661,14.507 236.184,14.912 231.758,14.781 223.451,15.863 221.439,16.804 217.147,18.15 
		216.074,18.292 214.332,17.341 213.529,17.209 212.59,17.341 211.114,17.887 210.443,18.292 209.775,18.959 209.505,19.637 
		209.638,20.315 210.579,21.661 210.579,22.339 210.176,23.006 206.958,24.625 205.616,25.84 205.214,26.113 203.875,26.649 
		198.915,27.195 194.624,26.791 192.479,26.113 188.055,26.922 186.981,26.922 186.31,26.791 185.505,26.518 182.557,24.494 
		181.752,24.221 180.546,23.958 180.143,24.363 179.875,24.767 179.875,25.03 179.74,25.708 182.557,27.864 183.631,29.078 
		184.567,31.101 185.373,32.315 187.384,33.53 188.321,34.885 188.723,35.958 188.858,38.254 189.261,40.146 189.929,41.361 
		190.735,42.171 195.159,45.004 196.768,46.481 197.439,47.432 197.708,48.1 197.572,48.646 197.439,49.314 196.635,50.801 
		196.768,52.015 197.439,53.908 199.45,57.277 201.595,61.598 201.863,62.67 202.133,63.621 202.133,64.289 202.133,65.099 
		202.266,66.049 202.668,67.264 203.605,68.336 204.008,69.288 204.277,70.097 204.41,72.384 204.948,75.622 205.081,76.705 
		204.948,77.382 204.545,78.05 203.875,78.596 203.472,79.265 203.204,80.347 204.41,86.417 204.545,87.096 204.41,87.764 
		203.875,89.524 203.742,90.738 204.008,92.357 204.545,92.894 205.081,92.762 205.483,92.488 206.019,92.488 208.701,94.644 
		209.505,95.726 209.775,96.667 209.505,97.477 208.97,98.023 208.432,98.286 208.031,98.286 207.361,98.286 206.823,98.155 
		206.019,98.286 205.35,98.56 203.069,101.261 202.534,101.524 201.996,101.666 199.719,101.666 199.048,101.797 196.904,102.881 
		196.365,103.416 195.159,104.094 194.221,104.226 188.991,100.989 187.114,100.583 185.775,100.583 184.702,100.989 
		184.166,101.261 181.752,101.666 180.814,101.93 180.143,102.071 178.668,102.202 177.863,101.666 177.596,101.119 
		177.999,100.583 178.534,99.905 178.937,99.237 179.069,98.429 178.534,97.477 177.863,97.477 176.524,98.023 175.719,98.286 
		174.11,98.429 169.417,99.643 168.612,100.047 168.077,100.583 166.737,102.607 166.467,103.143 167.139,104.094 167.273,105.713 
		167.674,106.654 167.674,107.595 167.139,108.951 161.775,112.32 160.97,113.808 161.372,115.832 160.703,116.368 159.899,117.309 
		159.36,118.391 159.496,119.332 160.166,120.142 160.837,120.283 161.508,120.142 162.312,120.415 163.519,120.283 
		163.921,120.415 164.055,120.82 163.921,121.355 163.921,121.761 164.188,122.034 164.858,122.166 166.6,123.521 165.664,124.462 
		165.664,124.867 166.199,125.272 166.6,125.808 166.87,125.95 167.808,126.355 168.077,126.485 168.209,126.891 168.209,127.974 
		168.748,129.451 168.881,130.665 169.15,131.475 170.623,132.021 171.026,132.426 171.562,132.961 171.83,133.498 171.83,134.176 
		171.026,136.068 169.954,137.009 168.748,136.877 167.139,135.794 168.209,139.438 169.015,140.925 170.221,141.735 
		169.818,141.997 169.15,142.948 168.748,143.211 169.15,143.89 169.686,144.831 170.221,145.914 170.221,147.127 169.954,148.341 
		169.417,148.615 168.881,148.473 168.077,148.615 167.003,149.282 166.065,150.092 165.664,150.638 165.261,151.306 
		164.726,151.984 163.921,152.389 164.59,153.603 165.128,155.222 165.394,156.841 165.529,158.055 165.932,159.138 
		167.944,161.425 174.915,167.091 176.524,169.114 171.162,166.554 170.221,165.613 169.417,165.067 164.456,159.269 
		162.981,159.138 157.888,160.756 157.888,162.234 156.545,169.924 158.021,170.471 160.703,169.792 162.043,171.006 
		162.981,172.221 164.188,173.303 165.394,174.113 166.87,174.375 169.15,175.327 173.306,179.506 175.852,180.446 176.254,180.852 
		176.657,183.016 176.925,183.421 187.785,191.374 191.272,195.563 193.014,198.255 194.624,201.361 197.171,208.241 
		198.11,212.562 198.11,212.562 201.06,233.466 201.996,236.977 203.472,239.81 206.155,241.966 209.505,243.048 212.59,244.535 
		214.465,247.905 212.723,246.559 210.981,245.608 208.97,245.203 206.69,245.073 208.432,246.154 210.176,247.905 210.981,250.333 
		210.311,253.298 210.712,254.653 211.114,257.619 211.384,259.238 210.311,258.428 209.638,256.678 209.372,254.381 
		209.237,252.084 209.505,250.333 209.372,249.393 208.701,247.905 208.031,247.227 205.616,245.75 202.668,242.775 
		199.986,239.406 197.439,233.062 197.171,231.848 195.697,221.729 194.624,217.55 194.491,215.396 193.55,212.157 191.406,208.919 
		182.154,198.397 180.948,198.123 177.73,196.231 172.5,192.184 171.83,191.374 171.026,190.029 170.759,189.492 170.759,188.814 
		171.026,188.278 171.162,187.874 171.294,186.66 171.294,185.85 171.026,185.303 170.221,184.899 169.015,185.445 167.944,187.063 
		165.261,192.457 164.858,194.077 163.519,217.277 160.302,234.549 155.607,288.247 156.143,287.032 156.814,284.33 
		157.619,279.605 161.105,274.344 161.641,273.271 161.775,273.129 161.911,272.727 162.043,272.188 162.312,271.916 
		162.847,271.784 163.25,272.057 163.519,272.32 163.921,272.594 164.726,272.998 170.623,278.533 171.294,280.011 170.221,280.011 
		172.232,282.035 172.099,283.652 170.623,284.736 167.944,285.141 163.25,284.059 161.238,284.059 159.763,285.95 158.423,290.938 
		158.155,292.295 157.888,292.961 155.877,295.937 155.74,296.878 156.413,299.983 156.545,301.461 156.01,308.21 153.999,323.315 
		149.039,353.813 146.356,367.573 144.479,373.776 141.261,391.18 139.52,397.251 138.984,400.619 137.776,404.536 137.105,405.75 
		133.083,408.987 132.413,409.798 132.01,411.012 130.401,414.249 129.733,415.19 128.257,416.273 126.515,417.215 124.771,417.892 
		117.932,418.974 116.591,419.643 116.056,420.32 114.714,419.511 114.311,422.476 114.311,424.64 114.311,425.986 116.458,427.068 
		117.529,428.415 117.665,430.438 117.932,430.844 118.068,431.248 119.005,431.115 119.81,430.712 121.553,430.438 123.027,429.76 
		123.832,429.902 125.172,430.57 125.977,431.115 125.977,431.652 125.709,432.331 125.843,433.272 126.377,435.021 126.78,435.427 
		127.721,435.973 128.525,436.105 129.596,435.973 130.401,435.427 130.804,434.485 131.475,432.735 132.548,432.057 
		134.157,432.057 136.57,432.735 139.652,434.485 140.592,434.354 141.396,433.948 142.334,434.081 144.479,436.378 144.88,440.152 
		143.944,444.331 142.87,447.711 141.799,449.056 138.714,452.426 138.043,453.376 138.984,455.664 140.456,457.283 
		142.065,458.233 143.944,458.769 146.088,458.901 147.43,458.497 148.098,457.02 148.235,454.317 148.771,452.162 150.109,450.674 
		151.854,449.997 153.596,450.544 151.987,451.89 151.316,453.234 151.719,454.723 152.925,456.209 154.401,457.02 158.825,457.828 
		161.508,459.306 164.055,461.329 166.87,461.066 167.541,461.329 168.881,462.139 169.417,462.686 172.099,463.09 173.306,463.353 
		174.243,464.567 176.925,466.459 179.875,467.543 186.043,467.947 191.941,466.864 193.953,467.673 195.427,471.447 
		195.427,472.127 195.159,472.662 195.026,473.208 195.562,474.149 196.232,474.827 197.036,474.959 197.842,474.827 
		198.512,474.959 201.192,476.709 202.534,477.792 205.616,481.839 205.616,482.244 205.483,482.78 205.483,483.185 
		206.019,483.327 207.225,483.327 207.628,483.458 208.031,484.136 207.896,484.804 207.896,485.481 208.701,485.887 
		209.237,485.754 210.579,484.946 211.247,484.673 211.384,482.244 213.394,482.244 217.417,484.269 219.83,483.995 
		221.706,482.922 225.324,479.947 225.996,480.625 226.67,480.492 227.204,479.541 227.605,478.601 228.812,479.685 
		228.942,479.815 228.681,477.924 228.279,475.364 228.008,473.876 228.008,473.208 228.139,472.398 228.41,471.721 228.942,470.78 
		229.617,470.103 230.149,469.292 230.552,468.21 230.693,466.592 230.693,465.65 230.291,464.031 230.149,463.353 230.291,462.544 
		230.823,461.734 232.03,460.389 232.966,459.306 233.509,458.769 234.172,458.639 236.323,458.639 237.129,458.364 
		237.791,457.828 238.193,457.15 237.661,455.127 237.661,453.912 237.661,452.294 238.335,451.353 238.867,450.674 
		240.347,449.997 241.009,449.46 241.814,448.925 242.217,447.974 243.292,445.281 243.966,444.604 244.368,444.474 
		245.304,444.735 245.836,444.604 246.238,443.794 246.51,442.854 247.042,440.557 247.314,439.746 247.848,439.068 
		249.195,437.854 249.728,437.187 250.131,436.509 250.401,435.832 250.401,435.295 250.26,434.759 249.598,432.867 
		249.728,431.248 249.999,430.164 250.26,429.224 250.805,428.546 251.337,428.01 251.869,427.737 253.348,427.332 253.881,426.927 
		254.151,426.261 254.151,425.177 253.077,422.747 252.814,421.403 253.077,417.487 252.946,416.678 252.543,416.273 
		251.869,416.141 251.205,416.547 250.805,417.082 250.26,417.618 249.859,418.296 249.195,418.166 248.651,417.487 248.39,415.463 
		248.651,414.522 249.054,414.117 249.728,414.249 250.401,414.249 250.935,413.976 251.205,413.438 251.065,412.498 
		250.663,411.285 248.793,406.832 248.25,406.021 247.717,405.477 246.913,404.94 246.38,404.405 245.575,402.238 243.966,401.167 
		236.856,399.679 234.312,399.951 233.64,399.144 233.509,398.597 233.237,397.382 232.966,396.846 231.899,396.037 
		231.899,395.358 232.161,394.549 233.105,393.335 233.64,392.121 233.509,391.311 233.105,390.502 232.834,389.834 
		232.966,389.288 233.77,388.884 234.976,388.884 235.379,388.62 235.921,387.942 237.259,384.431 237.39,383.763 237.129,383.085 
		236.727,382.407 236.323,381.871 236.323,381.061 236.455,380.12 236.455,378.501 236.585,377.55 236.856,376.609 237.791,375.264 
		238.335,373.371 238.335,372.692 238.063,372.025 237.661,371.348 237.259,370.003 236.856,369.325 235.649,368.111 
		235.247,367.433 235.379,366.622 236.052,365.813 238.597,363.658 239.542,363.254 242.356,363.658 243.826,363.658 
		244.771,363.526 245.575,362.716 247.042,360.957 249.054,359.479 249.728,359.075 250.533,358.933 251.739,359.337 
		252.271,359.743 252.675,360.288 252.814,360.824 252.814,361.361 252.543,361.908 251.869,362.716 251.739,363.254 
		251.739,363.932 252.011,364.598 252.413,364.872 252.814,365.146 253.348,365.408 254.022,365.55 256.695,365.813 257.37,365.55 
		258.044,365.146 258.577,364.194 258.708,363.254 258.306,360.551 259.381,358.669 261.394,357.861 261.926,357.861 
		262.729,358.124 263.273,359.075 263.807,359.205 264.479,359.075 265.415,358.527 266.089,357.861 266.491,357.184 
		267.697,355.026 268.101,354.35 268.763,353.944 269.437,353.813 273.058,355.289 274.534,355.967 275.068,356.241 275.742,356.1 
		276.546,355.837 278.558,354.48 279.623,353.944 281.231,353.672 286.863,350.838 287.406,350.17 288.209,349.767 289.015,349.624 
		290.082,350.028 290.885,350.17 291.559,350.17 296.788,348.146 297.994,348.005 299.473,348.553 300.407,349.219 302.549,351.385 
		303.094,351.79 304.702,351.516 309.388,348.683 309.659,347.337 309.791,346.791 310.332,345.313 310.735,344.504 
		311.268,343.958 312.876,343.147 313.551,342.612 313.812,341.803 313.953,341.125 314.215,340.588 314.486,340.185 
		315.421,339.778 316.095,339.778 316.769,340.052 318.105,340.588 318.78,340.72 319.444,340.861 320.247,340.72 320.79,340.314 
		321.192,339.778 321.192,338.838 320.922,338.16 320.389,337.625 319.716,337.35 319.312,336.945 319.444,336.408 321.192,335.195 
		321.998,334.244 324.942,327.91 325.214,327.232 325.214,326.555 325.074,325.887 324.542,325.341 324.008,325.076 
		321.998,324.399 321.454,323.995 321.052,323.459 320.519,322.243 320.65,321.565 321.324,319.815 321.596,319.138 321.726,318.46 
		321.726,317.792 321.596,317.114 321.726,316.305 321.857,315.769 322.398,315.223 323.062,315.091 323.868,315.495 
		324.411,316.031 325.346,316.578 326.955,316.841 333.259,316.305 334.193,315.091 334.325,312.531 334.465,311.447 
		334.465,310.365 333.924,309.556 332.717,308.342 332.184,307.806 331.911,307.127 331.65,305.782 331.379,305.246 
		331.108,304.698 330.847,304.163 330.847,303.485 330.977,302.007 330.847,301.461 330.443,300.793 330.041,300.115 
		329.498,299.438 329.237,299.032 329.096,298.496 329.498,297.818 330.303,296.878 334.064,294.985 336.608,292.83 
		338.488,290.807 339.293,289.592 342.771,283.248 343.849,282.307 344.653,282.035 345.99,281.771 346.663,281.497 
		347.337,281.225 348.404,280.152 349.078,279.605 350.555,279.069 351.36,278.533 352.295,277.582 353.502,275.832 354.034,274.75 
		354.034,273.677 353.631,272.998 353.23,272.462 353.1,271.652 353.371,270.701 354.306,269.355 355.11,268.82 355.915,268.82 
		356.588,268.82 357.252,268.273 357.926,267.332 358.729,265.582 359.403,264.5 359.938,263.69 362.079,261.939 362.622,261.262 
		362.883,260.451 362.883,259.773 362.622,258.701 362.622,258.023 363.156,257.215 363.557,256.273 363.557,255.06 
		361.947,249.524 362.351,247.774 364.492,246.154 365.7,245.608 365.972,245.203 366.774,244.535 367.981,244.262 368.111,243.989 
		368.916,243.181 369.46,242.775 369.993,242.917 370.396,243.321 370.524,243.989 370.798,244.535 371.198,244.799 
		372.939,243.989 373.884,243.857 376.157,244.535 377.363,245.203 379.918,247.096 382.593,249.393 382.994,250.061 
		383.135,250.738 383.537,251.416 384.202,252.084 385.679,252.762 386.483,253.298 387.289,253.976 387.691,254.381 
		388.224,254.785 389.027,255.06 390.777,255.06 394.8,253.703 399.084,251.143 399.758,251.012 400.431,251.012 401.095,251.416 
		401.497,251.82 402.04,252.084 402.572,252.084 404.585,250.87 404.985,250.738 406.465,250.465 410.617,250.465 412.356,249.656 
		415.173,249.251 415.716,248.988 416.248,248.583 416.38,248.037 416.52,247.774 416.38,247.501 416.38,247.227 416.118,246.559 
		414.51,243.726 414.367,243.048 414.367,242.24 414.91,241.429 417.857,239.133 418.531,238.323 419.062,237.383 419.597,236.036 
		419.868,234.953 420.401,233.872 422.01,230.37 422.281,229.156 422.01,228.074 421.607,227.396 421.075,226.586 420.943,225.776 
		420.804,224.835 420.943,224.026 421.075,223.348 424.022,220.92 424.424,220.515 424.825,218.087 424.967,217.681 
		425.369,217.418 426.837,217.146 428.446,216.205 428.989,215.658 431.532,211.479 432.066,211.348 432.468,210.943 432.87,210.67 
		433.413,209.182 434.348,207.432 434.479,207.027 434.479,206.622 434.479,206.218 434.479,205.681 434.348,205.277 
		434.219,205.004 433.947,204.73 433.815,204.468 433.413,204.194 433.142,203.921 433.012,203.658 433.142,203.253 
		433.674,202.849 434.882,202.575 435.686,202.444 436.229,202.575 436.49,202.707 437.164,203.111 438.24,204.062 439.979,204.872 
		442.263,205.277 442.795,205.135 443.198,204.872 443.729,204.326 444.404,202.039 446.014,195.291 444.675,194.48 
		444.534,193.944 444.272,192.862 444.272,191.374 444.272,189.351 444.133,188.005 443.729,186.791 442.393,185.445 
		441.99,184.636 441.859,183.685 442.664,180.042 443.066,179.374 443.729,178.969 445.208,178.423 445.61,178.019 446.014,177.482 
		446.143,177.078 446.285,176.542 446.415,175.459 446.545,173.566 446.545,171.947 446.415,171.28 445.742,169.519 
		443.327,166.423 442.664,165.876 442.263,165.34 442.121,165.209 441.457,165.067 440.914,164.936 440.251,164.662 
		439.849,164.257 439.577,163.448 439.306,162.103 439.045,161.293 438.643,160.615 436.892,158.328 436.762,157.519 
		436.892,156.709 437.697,155.758 439.306,154.817 440.11,154.008 441.056,152.925 441.719,152.389 442.524,152.116 
		444.001,152.389 444.404,152.257 444.675,152.257 444.937,151.852 446.014,150.365 446.545,149.687 447.088,149.282 
		447.752,148.473 448.296,147.532 448.828,145.781 449.361,144.699 449.764,143.758 450.307,142.948 451.514,141.735 
		451.915,141.056 451.775,139.438 	"/>
</g>
</svg>
