<?xml version="1.0" encoding="utf-8"?>
<!-- Generator: Adobe Illustrator 16.0.4, SVG Export Plug-In . SVG Version: 6.00 Build 0)  -->
<!DOCTYPE svg PUBLIC "-//W3C//DTD SVG 1.1//EN" "http://www.w3.org/Graphics/SVG/1.1/DTD/svg11.dtd">
<svg version="1.1" id="Calque_1" xmlns="http://www.w3.org/2000/svg" xmlns:xlink="http://www.w3.org/1999/xlink" x="0px" y="0px"
	 width="500px" height="500px" viewBox="0 0 500 500" enable-background="new 0 0 500 500" xml:space="preserve">
<polygon id="Provence-Alpes-Côte_d_x27_Azur" fill="#FFFFFF" stroke="#010101" stroke-width="2" stroke-linecap="round" stroke-linejoin="round" points="
	614.739,59.836 616.129,59.998 618.288,59.998 620.453,60.461 621.687,61.075 622.306,61.851 622.769,63.541 623.075,64.468 
	623.695,65.092 629.559,67.246 630.329,67.095 631.412,66.633 632.645,65.092 633.264,63.854 633.421,62.777 633.571,62.002 
	634.033,61.388 634.811,60.924 637.432,61.075 638.515,60.763 641.757,58.759 644.379,58.447 644.379,58.447 643.146,59.535 
	642.062,60.924 642.062,60.924 643.609,63.241 645.148,64.468 645.306,65.394 645.306,65.394 645.148,66.482 645.461,67.558 
	646.538,69.411 647.465,70.187 650.556,70.487 652.872,72.189 653.335,75.745 653.335,75.745 653.178,82.69 653.178,82.69 
	654.724,85.308 657.652,87.785 663.83,91.328 665.375,91.792 669.851,90.865 671.396,91.028 675.715,92.879 677.417,94.57 
	677.724,95.196 677.881,95.959 677.881,95.959 677.881,96.423 677.881,96.735 677.881,96.735 677.881,97.349 677.881,97.349 
	677.567,97.349 677.261,99.364 677.104,99.515 677.104,99.515 678.187,102.142 678.65,105.222 678.957,106.311 681.585,111.405 
	682.198,113.096 682.198,113.096 680.658,113.096 677.417,112.169 675.715,112.169 673.711,113.257 672.166,115.26 671.547,117.727 
	671.547,117.727 672.474,120.354 672.474,120.354 671.239,121.281 668.155,126.526 663.674,130.08 662.747,131.782 662.747,131.782 
	663.061,135.486 665.063,139.03 667.691,141.809 670.007,143.823 670.007,143.823 667.071,145.363 666.453,146.44 665.682,150.307 
	665.526,151.071 665.375,151.696 665.375,151.696 665.839,152.773 666.146,153.386 668.155,155.703 668.768,156.941 
	669.851,159.407 670.314,160.333 671.084,161.109 672.936,162.499 673.711,163.424 674.175,164.663 674.482,165.74 674.945,166.816 
	675.715,167.743 676.954,168.207 678.03,168.056 679.113,167.743 680.195,167.593 681.429,167.906 686.522,170.684 690.072,172.074 
	699.49,177.781 701.188,178.558 703.502,178.858 704.584,179.322 705.204,180.248 705.817,181.336 706.594,182.1 707.363,182.263 
	710.911,182.412 726.352,177.932 728.974,177.781 732.528,175.315 735.308,175.778 735.308,175.778 734.068,179.785 
	734.068,179.785 735.15,182.1 737.159,184.114 738.549,187.043 738.549,187.043 738.392,189.208 737.31,190.599 736.077,191.525 
	735.15,192.601 734.53,194.142 733.761,196.92 733.142,198.31 731.139,200.475 726.509,204.331 724.807,207.108 720.95,211.439 
	719.561,213.905 719.561,213.905 720.024,216.997 721.721,222.855 720.637,223.782 720.174,223.782 719.867,223.782 
	719.561,223.943 719.404,224.244 719.561,225.796 719.561,226.259 718.785,226.721 718.322,226.56 717.708,226.409 716.781,226.259 
	715.856,226.721 715.236,227.486 713.228,226.409 711.531,227.023 710.299,228.574 709.986,230.114 708.597,230.577 707.67,231.815 
	707.67,233.206 707.207,234.433 705.511,234.595 705.817,234.132 706.131,233.044 701.806,233.507 701.036,233.356 699.798,232.893 
	698.72,233.819 697.018,236.285 696.248,237.061 695.322,237.524 694.396,237.987 693.162,237.987 691.617,238.601 690.69,239.689 
	690.072,240.766 689.458,241.38 689.146,242.306 689.146,248.025 688.994,248.952 688.994,249.565 688.994,250.028 688.531,250.642 
	687.756,250.804 687.449,250.179 687.292,249.252 686.986,248.952 684.671,249.565 682.354,250.804 680.195,251.418 
	678.187,250.642 676.797,251.73 675.252,252.495 674.019,253.583 672.786,255.586 672.936,255.586 672.936,257.588 672.786,257.588 
	672.629,257.901 669.388,263.609 669.231,263.771 668.925,263.922 668.305,263.922 667.998,264.235 667.841,265.926 
	667.379,266.389 666.916,266.55 666.302,266.55 665.682,266.389 665.526,265.926 665.22,265.312 664.757,265.926 664.293,266.852 
	664.293,267.313 659.817,267.477 657.503,266.852 655.801,265.462 654.567,266.701 653.642,268.866 653.022,271.02 652.408,274.725 
	651.325,275.5 649.937,275.963 648.547,277.202 647.777,278.741 647.314,280.131 646.538,281.058 644.536,281.37 642.22,282.597 
	640.83,283.687 640.675,284.763 641.293,284.913 649.78,284.45 649.937,285.226 649.167,287.229 648.704,287.854 648.391,288.004 
	648.084,288.467 647.928,289.706 648.084,290.32 648.547,290.934 649.01,291.396 649.167,291.71 648.547,292.485 644.998,295.414 
	645.461,297.116 644.536,297.417 642.834,298.192 641.907,297.88 641.601,297.266 641.293,296.341 640.98,295.414 640.055,294.639 
	637.739,294.337 636.043,295.414 634.653,296.804 633.264,297.88 632.339,298.043 630.179,297.88 629.096,297.88 627.244,298.656 
	625.392,299.582 622.611,299.733 621.842,300.357 621.066,301.898 621.066,302.824 621.066,303.6 620.604,304.525 621.993,306.379 
	621.224,307.143 617.981,306.992 617.674,306.529 617.518,305.291 617.056,304.214 616.129,303.75 615.046,303.6 613.812,302.975 
	613.043,302.824 607.022,302.674 606.097,302.824 604.087,304.062 603.468,305.753 603.317,307.918 602.391,310.384 603.625,311.01 
	604.087,311.161 604.858,311.161 604.858,311.937 603.317,312.399 597.447,312.237 595.751,311.937 595.751,311.161 
	598.837,311.161 599.456,310.848 599.919,308.845 599.919,307.605 599.149,306.992 592.665,306.68 592.203,306.216 590.501,305.14 
	587.879,304.364 585.099,304.525 583.091,305.291 583.247,304.677 583.403,303.438 583.554,302.824 582.164,302.824 
	580.775,303.287 578.153,304.525 579.698,305.14 581.551,307.306 583.091,307.918 583.091,308.693 580.161,308.23 578.771,308.23 
	578.153,309.157 577.847,310.697 576.92,311.311 574.911,311.161 570.587,309.308 569.66,308.693 569.197,307.143 569.973,305.916 
	572.752,304.525 572.288,304.062 571.669,303.75 569.973,303.75 569.197,303.287 569.046,301.748 568.271,301.284 566.268,301.122 
	564.565,300.509 561.174,298.656 561.788,296.49 560.091,295.565 555.46,295.414 555.152,295.727 554.996,296.341 554.689,296.804 
	554.228,297.116 553.607,296.954 553.145,296.653 552.681,296.341 551.599,295.727 550.828,295.102 548.669,292.173 
	547.893,291.859 546.354,292.948 545.271,293.712 544.188,293.874 543.574,293.412 542.649,292.635 540.64,292.322 538.324,292.485 
	536.936,292.948 535.701,292.322 533.229,292.485 531.997,292.022 531.377,290.783 531.685,289.544 532.304,288.317 
	533.074,286.465 533.229,285.688 533.387,284.763 533.074,284.763 532.46,284.45 531.841,283.836 531.533,283.061 531.533,276.739 
	529.062,275.037 517.177,277.816 513.315,277.202 512.083,277.665 506.524,277.816 504.21,277.202 501.894,274.725 501.431,271.945 
	502.663,269.479 505.442,267.939 513.315,267.939 515.787,267.313 517.484,265.926 519.336,263.609 520.42,260.992 520.106,258.052 
	517.484,259.754 515.012,260.68 512.696,260.217 510.844,258.052 510.23,256.199 510.23,255.122 509.767,254.51 507.915,253.884 
	507.139,253.733 505.137,253.884 504.823,253.42 503.435,251.73 502.971,251.418 502.356,252.193 501.737,253.884 501.274,255.435 
	501.118,256.361 501.737,258.678 502.508,259.754 503.59,260.217 504.823,261.294 505.906,264.385 504.823,267.164 502.82,268.553 
	500.655,267.939 498.802,268.553 494.021,265.774 491.855,266.852 490.936,267.627 488.771,268.091 487.845,268.866 
	487.069,270.557 487.531,271.182 488.458,271.945 489.082,273.798 485.68,272.871 481.975,270.718 478.895,267.939 477.656,264.698 
	477.807,257.588 477.656,255.586 477.042,253.733 476.115,251.568 474.876,249.878 473.337,248.952 473.337,249.716 
	475.954,253.884 476.416,255.122 476.416,263.922 477.656,267.939 479.971,270.405 482.75,272.408 484.753,274.725 481.673,275.963 
	468.706,275.35 465.15,274.261 462.685,273.185 462.985,272.259 463.761,270.093 464.375,267.627 464.226,265.462 461.909,263.609 
	458.054,262.846 432.27,262.069 433.196,260.217 433.508,259.141 433.659,258.515 433.659,258.515 433.81,258.365 433.972,258.365 
	434.435,258.052 435.198,258.052 435.974,257.751 436.588,256.976 437.214,256.361 439.217,256.049 440.293,255.586 
	441.683,254.659 445.236,251.568 445.701,251.418 447.24,250.955 447.702,250.804 447.865,250.341 448.016,249.565 448.167,249.103 
	448.479,248.64 449.093,248.176 449.556,248.025 451.106,248.025 451.571,247.864 452.033,247.4 452.335,246.787 452.797,245.247 
	452.797,244.472 452.496,244.158 451.721,244.321 451.257,244.321 450.794,244.158 450.331,244.008 450.019,243.695 
	449.869,243.394 449.869,242.931 450.019,242.468 450.794,240.917 451.106,240.302 451.408,239.063 451.871,238.3 454.037,235.058 
	456.039,233.356 458.517,232.581 458.817,232.581 459.281,232.581 459.744,232.581 462.523,233.507 463.299,233.969 
	463.912,234.433 464.375,234.595 464.688,234.746 465.15,234.746 465.463,234.746 465.765,234.283 466.077,233.668 466.54,232.279 
	466.54,231.503 466.54,230.891 466.39,230.577 466.39,230.114 466.39,229.651 466.39,229.188 467.931,225.796 469.007,222.553 
	469.32,221.314 469.32,220.539 469.32,219.612 468.855,216.997 468.855,216.534 468.544,215.757 468.544,214.368 468.544,213.291 
	469.169,212.667 470.245,211.74 472.874,210.35 476.115,207.572 477.343,206.958 480.284,205.719 480.746,205.256 481.048,204.955 
	481.673,204.492 482.75,203.716 483.212,203.253 483.826,202.639 484.29,201.863 484.452,201.4 484.602,200.938 484.602,200.475 
	484.452,198.622 484.452,197.846 484.452,197.546 484.452,197.546 484.914,197.383 485.216,197.383 485.528,197.383 
	485.528,197.546 485.68,197.546 486.143,197.546 486.455,197.546 486.604,197.546 486.604,197.546 486.768,197.546 486.768,197.383 
	486.918,197.232 486.918,196.92 487.069,196.457 487.069,195.993 486.918,195.38 486.604,194.766 484.914,192.915 480.746,187.194 
	480.284,186.731 479.658,186.582 479.195,186.431 478.269,186.268 477.807,186.431 477.343,186.582 476.729,186.894 
	476.416,186.894 476.115,186.582 475.803,185.967 475.49,182.263 475.49,181.637 475.652,181.173 475.803,180.873 475.803,180.248 
	475.954,178.858 475.954,177.781 475.652,174.076 475.49,173.613 475.19,173 474.414,172.225 473.175,171.448 472.874,171.147 
	472.712,170.522 472.712,169.596 472.874,168.982 472.712,168.519 472.562,168.056 471.786,167.13 470.859,165.892 470.096,162.961 
	470.096,157.405 472.562,156.941 475.19,157.091 477.656,157.405 478.432,157.717 479.044,158.18 480.434,159.256 481.048,160.183 
	481.51,161.109 483.525,166.979 483.988,167.593 484.602,168.207 485.528,168.519 486.604,168.207 487.531,167.593 489.082,166.354 
	490.009,165.892 490.773,165.74 493.095,165.428 493.865,165.277 495.561,164.663 497.263,163.575 498.959,162.812 504.979,161.109 
	506.213,161.109 510.23,162.036 511.619,161.885 512.696,161.573 513.936,160.183 514.55,159.72 515.168,159.569 515.632,160.032 
	515.787,160.958 515.475,161.885 514.705,163.575 514.705,164.501 514.705,166.204 514.86,167.13 515.168,167.906 516.094,168.832 
	517.328,169.445 520.106,169.908 521.652,169.908 522.886,169.596 524.123,169.596 530.295,171.911 531.533,172.074 
	532.304,171.911 533.229,172.225 533.85,172.687 534.463,173.925 534.776,174.852 534.926,175.778 535.083,176.705 535.701,177.469 
	536.472,178.244 538.018,179.02 541.259,181.799 542.029,182.263 545.115,182.563 547.893,180.873 550.366,178.244 551.448,176.705 
	552.525,175.617 553.763,175.315 555.923,175.617 556.849,176.393 557.312,177.168 557.469,177.932 557.775,178.558 
	558.396,179.171 559.165,179.171 559.784,179.02 560.091,178.244 559.784,175.315 560.71,173.764 561.017,168.832 560.861,165.59 
	560.398,164.663 559.628,164.201 558.238,163.575 557.62,162.961 556.542,161.573 555.923,160.958 555.46,160.183 555.46,159.407 
	555.923,158.33 556.229,157.554 555.767,156.941 555.152,156.791 554.377,156.629 550.209,156.941 549.595,156.629 547.893,155.703 
	546.967,155.401 545.271,155.088 544.809,154.938 544.345,154.625 540.947,151.997 540.64,151.384 540.483,150.77 540.333,149.531 
	540.177,148.918 539.714,147.991 538.479,146.602 538.169,145.977 538.169,145.212 539.251,144.75 540.021,144.75 542.492,145.514 
	543.263,145.514 543.882,145.363 544.345,144.899 544.651,144.437 544.651,143.511 544.345,143.198 543.882,142.734 
	543.263,142.272 542.649,141.809 542.186,141.044 541.872,140.269 541.565,139.342 541.565,138.566 541.723,137.803 
	542.186,137.339 543.263,137.027 544.039,137.027 546.816,137.49 552.218,139.493 552.987,139.656 554.07,139.342 557.931,136.413 
	558.702,135.637 558.545,134.248 558.082,133.322 557.469,132.708 555.304,131.157 554.689,130.23 554.377,129.767 554.228,129.003 
	554.228,128.377 554.228,127.765 554.689,126.838 557.312,122.821 557.931,121.432 558.238,120.205 558.238,119.278 
	558.545,118.502 559.935,117.888 560.861,117.888 561.637,118.039 562.714,118.19 564.259,118.502 565.342,118.19 566.418,117.888 
	567.964,117.113 570.587,116.8 571.206,116.337 572.596,114.947 573.214,114.021 573.828,113.257 573.828,112.331 573.679,111.555 
	572.752,110.779 572.132,109.703 574.292,105.998 575.067,105.072 576.3,104.609 577.227,104.458 579.849,104.609 581.551,104.295 
	585.099,103.068 585.869,102.443 586.332,101.68 586.489,100.441 586.183,99.515 586.025,98.588 586.489,97.812 588.497,96.122 
	590.038,95.033 590.813,94.732 591.583,94.57 592.51,94.732 593.898,95.347 594.825,95.347 595.596,95.033 600.226,91.954 
	601.152,91.641 601.928,91.641 603.625,92.255 604.395,92.255 607.022,91.641 607.948,91.641 609.489,91.954 610.414,91.792 
	613.35,90.564 614.275,90.252 615.046,90.252 615.822,90.402 619.063,91.641 619.677,91.641 620.453,91.641 620.76,91.028 
	621.066,90.252 621.379,88.399 621.529,84.844 621.379,83.919 621.066,82.841 619.99,81.452 619.215,80.676 618.443,79.6 
	618.138,78.674 618.138,75.896 617.981,74.818 617.674,73.892 616.748,73.116 615.822,72.966 611.804,73.892 610.571,73.73 
	609.802,73.428 608.875,73.116 608.562,71.728 608.562,69.562 609.338,65.243 609.645,63.078 609.952,61.388 610.265,60.763 
	612.424,58.296 613.812,59.535 "/>
<path fill="#FFFFFF" stroke="#010101" stroke-width="2" stroke-linecap="round" stroke-linejoin="round" d="M486.918,195.38
	l-0.313-0.614l-1.69-1.852l-4.168-5.72l-0.462-0.463l-0.626-0.3l-0.463-0.163l-0.927-0.149l-0.462,0.149l-0.464,0.163l-0.613,0.3
	h-0.313l-0.301-0.3l-0.161-0.626l-0.302-3.705v-0.613v-0.463l0.15-0.312l0.151-0.463l0.161-1.541v-0.926l-0.312-3.705l-0.15-0.463
	L475.34,173l-0.775-0.775l-1.076-0.777l-0.313-0.3l-0.151-0.625v-0.926l0.151-0.614l-0.151-0.463l-0.312-0.463l-0.765-0.776
	l-0.925-1.388l-0.777-2.931l-4.017-1.076l-2.468-1.239l-0.462-0.312l-0.307-0.301l-0.469-0.625l-0.302-0.307l-0.625-0.463
	l-0.302-0.308l-0.155-0.462l-0.463-0.463l-2.623-1.239l-2.165-0.151l-2.623,0.312l-0.927,0.463l-0.462,0.764v1.552l-0.156,0.764
	l-0.307,0.775l-0.62,0.614l-0.77,0.462l-0.927,0.163l-0.926-0.312l-1.082-1.078l-0.307-0.926v-0.925l0.155-0.776l0.151-0.776
	l-0.307-0.764l-0.62-0.625l-1.233-0.151l-2.778,0.775l-0.77,0.302l-2.008,1.852l-2.316,1.39l-0.62,0.625l-1.076,1.39l-0.62,0.463
	l-0.77,0.151l-0.927-0.151l-0.925-0.312l-6.021-3.555l-1.083-0.301l-0.77-0.463l-0.464-0.926l-0.463-0.463l-0.927-0.161
	l-1.545,0.625h-0.77l-0.775-0.162h-0.771l-1.544,0.625l-0.771-0.163l-0.464-0.764l-0.307-3.867l-0.463-1.54l0.302-1.077l0.468-0.625
	l0.464-0.614l-0.156-1.076l-1.232-1.702l-1.233-2.778l-2.473-2.316l-2.472-9.575l-0.77-1.853l-1.233-2.315l-1.853-1.227
	l-0.927-1.853l-1.082-3.404l-0.77-5.094l-1.083-3.543l-0.307-0.462l-0.155-0.463l-0.309-1.39l-0.312-1.551l0.312-3.543l-2.165-0.463
	l-0.462-0.312l-0.614-0.312l-0.463-0.614l-0.463-0.312l-1.239-0.463l-1.232-0.614l-2.623-2.315l-2.472-2.628l-0.77-0.614
	l-1.084-0.462l-4.938-0.777l-0.618-0.301l-0.157-0.625l0.312-0.614l0.463-0.775l0.15-0.764l-0.15-0.775l-0.618-0.777l-0.927-0.613
	l-1.547-0.312h-1.076l-0.926,0.162l-0.619,0.463l-0.465,0.614l-0.155,0.776l-0.15,1.69l-0.312,0.776l-0.464,0.614l-0.77,0.462
	l-0.77,0.163l-2.935,0.151l-0.927,0.15l-0.77,0.313l-1.239,0.77l-1.232-0.77l-1.697-1.853l-5.094-9.726l-0.776-2.466l-0.307-1.702
	l-0.307-0.614l-0.62-0.463l-0.77,0.301l-1.082-0.15l-1.083,0.312l-0.613,0.302l-3.555,2.478l-1.076,0.463l-0.927,0.301l-0.775-0.151
	l-0.77-0.15l-1.233,0.462l-4.943,5.095l-1.697,1.077l-1.233,0.312l-0.618-0.776l-1.39-2.165l-0.62-0.301l-0.769,0.151l-0.771,0.613
	l-0.62,0.926l-0.306,2.778l-0.619,2.779l-0.927,0.927l-1.545,0.775l-0.771,1.54l-0.771,2.472l-1.238,5.251l-0.462,4.319
	l-0.308,0.925l-1.546,2.166l-0.771,1.541l-1.233,4.017l-2.935-2.629l-0.619-0.77l-0.463-0.77l-0.613-1.702l-0.464-1.69l-0.162-0.775
	l-0.15-2.466l-0.15-0.777l-0.156-0.776l-0.307-0.764l-0.312-0.775l0.312-0.614l0.613-0.463l0.776-0.462l0.149-0.626l-0.149-0.613
	l-0.464-0.463l-0.463-0.313l-2.016-0.613l-0.764-0.463l-0.624-0.62l-0.464-0.77l-0.614-2.472l-0.462-0.77l-1.853-2.316l-0.927-2.008
	l-0.312-0.156l-0.463-0.151l-0.764,0.151l-2.629,0.625l-0.614-0.163l-0.312-0.613l0.15-1.541v-0.776l-0.15-0.775l-0.312-0.926
	l-0.464-0.764l-1.228-1.39l-0.463-0.775l-0.463-0.776l-0.463-0.463l-0.625-0.15l-11.729,12.504l-0.312,0.775l-0.15,0.764
	l-0.151,1.702l-0.155,0.776l-0.463,0.92l-2.009,2.779l-0.927,2.16l-0.149,0.775l-0.313,2.315l-0.307,0.776l-0.463,0.765
	l-0.464,0.776l-2.621,2.929l-0.927,1.551l-0.926,0.927l-1.547,0.764l-2.935,0.312h-3.393l-0.927-0.15h-0.462l-0.626,0.15
	l-0.764,0.614l-0.626,0.312h-0.462l-0.766-0.613l-0.463-0.626l-0.625-0.613l-0.764-0.151h-1.089l-5.396,1.853l-0.775,0.149
	l-1.389,0.77l-0.776,3.085l-0.927-0.151l-1.076-0.925l-0.463-1.078l-0.463-1.239l-0.614-3.554l-0.312-0.765l-0.775-0.775
	l-1.39-0.613l-0.462-0.463l0.162-0.927l0.764-1.702l1.39-6.796l-0.151-1.227l-0.462-1.551l-1.391-2.779l-3.703-5.858l-0.776-1.702
	l-0.464-2.166l-0.764-7.409l-1.088-2.316h-4.782l-1.853,0.313l-0.462,0.15l-2.316,1.239h-0.614l-0.462-0.149l-0.464-0.463
	l-0.775-0.463h-0.776l-0.926,0.301l-4.932,2.779l-4.631,1.551l-1.852-0.163l-1.089-0.15l-0.613-0.463l-0.463-0.614l-0.777-0.625
	l-1.076-0.765l-1.702-0.776l-0.764-0.775l-0.312-0.764l-0.313-0.775l-0.462-0.775l-3.08-2.78l-2.941-2.002l-1.39-0.775l-2.617-0.765
	l-1.088,0.151l-2.004,0.926l-0.462-0.312l-0.151-0.614l-0.163-0.776l-0.462-0.463h-0.614l-0.614,0.463l-0.775,0.927l-0.312,0.312
	l-1.39,0.312l-0.926,0.765l-0.301,0.312l-1.39,0.613l-2.478,1.853l-0.462,2.014l1.852,6.322v1.39l-0.463,1.088l-0.613,0.765v0.925
	l0.312,1.239v0.777l-0.312,0.925l-0.614,0.765l-3.092,3.091l-0.613,0.926l-0.776,1.239l-0.926,2.154l-0.775,1.088l-0.764,0.463
	h-0.775l-0.927,0.151l-0.926,0.463l-1.077,1.54l-0.312,1.089l0.151,0.925l0.463,0.614l0.463,0.775v1.227l-0.613,1.239l-1.39,2.003
	l-1.076,1.088l-1.089,0.614l-1.54,0.613l-0.775,0.625l-1.228,1.227l-0.776,0.463l-0.775,0.312l-1.69,0.312l-0.926,0.302
	l-1.239,1.239l-3.856,7.097l-0.926,1.389l-2.165,2.316l-2.929,2.478l-4.331,2.153l-0.926,1.088l-0.301,0.765l0.151,0.625
	l0.312,0.463l0.613,0.764l0.463,0.776l0.312,0.775l0.151,0.614l-0.151,1.853l0.151,0.775l0.15,0.613l0.312,0.614l0.313,0.625
	l0.301,1.541l0.312,0.775l0.614,0.614l1.552,1.239l0.613,1.076v1.239l-0.313,1.227v3.092l-1.227,1.239l-7.26,0.614l-1.702-0.313
	l-1.077-0.613l-0.614-0.614l-0.926-0.463l-0.775,0.151l-0.614,0.463l-0.313,0.775v0.764v0.776v0.775l-0.15,0.765l-0.313,0.775
	l-0.926,1.852l-0.151,0.776l0.614,1.389l0.462,0.614l0.614,0.463l2.316,0.775l0.625,0.463l0.614,0.613l0.15,0.777v0.764
	l-0.301,0.775l-3.242,7.26l-0.926,1.076l-2.015,1.39v0.613l0.463,0.463l0.775,0.463l0.614,0.626l0.312,0.764v1.088l-0.462,0.614
	l-0.614,0.463l-0.775,0.151h-0.776l-0.764-0.151l-1.551-0.776l-0.764-0.151h-0.776l-0.926,0.463l-0.463,0.463l-0.15,0.619
	l-0.162,0.771l-0.301,0.925l-0.776,0.62l-1.852,0.92l-0.614,0.625l-0.463,0.927l-0.625,1.69l-0.15,0.775l-0.313,1.39l-5.558,3.242
	l-1.853,0.312l-0.613-0.462l-2.466-2.473l-0.927-0.619l-1.852-0.614l-1.389,0.302l-6.021,2.315h-0.775l-0.776-0.149l-1.228-0.463
	l-0.926,0.15l-0.927,0.463l-0.775,0.776l-6.484,3.243l-1.853,0.312l-1.239,0.613l-2.315,1.541l-0.927,0.312h-0.764l-0.625-0.151
	L82,197.546l-4.169-1.547l-0.926,0.157l-0.775,0.463l-0.463,0.613l-1.389,2.472l-0.463,0.771l-0.776,0.776l-1.077,0.77l-0.776,0.157
	l-0.613-0.157l-0.614-1.082l-0.926-0.313h-0.776l-2.315,0.926l-1.239,2.015l0.463,3.08l-0.15,1.088l-0.614,1.077l-0.775,0.463
	l-0.776,0.151l-3.08-0.302l-0.776-0.162l-0.613-0.302l-0.463-0.312l-0.463-0.463l-0.312-0.613v-0.777l0.15-0.613l0.776-0.927
	l0.313-0.625v-1.078l-0.162-0.614l-0.463-0.625l-0.613-0.463l-1.39-0.463l-0.926,0.312l-0.926,0.463l-2.166,1.702l-1.69,2.153
	l-1.088,0.776l-1.077,0.151h-1.701l-3.08-0.613l-1.089,0.613l-3.079,2.316l-0.776,1.088l-0.15,0.927l0.614,0.764l1.39,1.39
	l0.463,0.776l0.463,1.539l0.463,0.776l0.313,0.777v0.764l-0.625,2.165l-1.077,1.54l-0.312,1.088l-0.151,0.927l0.151,1.853
	l-0.151,1.076v0.776l0.463,0.765l0.463,0.775l0.312,0.775l-0.162,0.764l-1.69,4.168l-0.625,0.775l-0.463,0.313h-1.389l-0.765,0.463
	l-0.162,0.613l0.313,0.776l0.463,0.765v1.088l-0.463,1.39l-1.077,1.389l-0.463,0.927l0.15,0.764l1.239,0.926l0.301,0.626
	l0.312,1.389l0.312,0.614l0.614,0.927l2.929-0.312l8.186,1.701l1.702,1.239l0.926,2.316l0.614,0.613l0.926,0.613l0.614,0.626
	l0.625,0.926l2.153,5.245l0.463,1.39l0.163,1.076l-0.313,0.626l-0.613,0.3h-0.776l-0.775-0.15l-0.614,0.463l-0.15,1.078l0.301,2.314
	l0.625,0.775h0.764l0.625-0.612l0.463-0.776l0.614-0.613l0.613-0.464l0.927,0.151l0.463,0.612l0.162,0.777l-0.312,4.48l0.312,1.689
	l1.228,2.778l0.162,1.239l-0.463,0.776l-0.625,0.462l-1.69,0.464l-0.625,0.302l-0.614,0.624l-0.463,0.765l-0.462,1.089l-0.313,1.227
	l-0.15,1.854l0.776,2.314l0.15,0.626v0.613l-0.312,0.775l-0.463,0.765l-0.613,0.776l-1.54,1.389l-0.625,0.775l-0.301,0.926
	l-0.625,2.78l-0.301,1.076l-0.463,0.775l-0.625,0.302l-1.077-0.302l-0.463,0.15l-0.614,0.775l-1.239,2.93l-0.613,1.077l-0.776,0.775
	l-0.775,0.619l-1.853,0.771l-0.613,0.619l-0.614,1.233l-0.162,1.853v1.39l0.625,2.315l-0.463,0.926l-0.775,0.619l-0.927,0.156
	h-2.628l-0.764,0.307l-0.625,0.464l-1.077,1.39l-1.54,1.545l-0.625,1.077l-0.15,0.927l0.15,0.775l0.463,1.696v1.082l-0.15,1.853
	l-0.463,1.076l-0.614,0.927l-0.775,0.775l-0.614,1.078l-0.312,0.925l-0.15,0.927v0.775l0.15,1.541l0.614,3.09l0.313,2.16
	l5.094,3.085l1.076,2.166l2.316,0.307l2.628-0.619l1.54-0.614l-0.151,2.159l0.463,2.009l1.077,1.853l1.39,1.233l0.625,0.619
	l0.15,0.771l0.312,0.77l0.926,0.464l1.077,0.312l0.614,0.613l0.463,0.62l0.463,0.463l3.555,1.389l3.091-0.307l6.785-2.472
	l5.408-0.77l1.701-1.082l1.39-0.156l4.631,1.238l1.389,0.77l1.853,3.398L82,359.944l1.227-0.157l2.478-3.548l1.54-1.546l1.54-0.613
	l2.478,2.159l0.15,0.464v0.463v0.462l0.463,0.465l1.702,0.306l1.69-0.15l3.404-0.927l1.54,0.614l10.964-0.308l3.08,0.465
	l1.239-0.465l0.614-0.925l0.162-0.308l0.151-2.009l-0.614-1.852l-1.088-1.39l-1.227-0.464l0.613-1.232l0.312-0.464l0.613-0.463
	l-0.926-1.39l1.239-3.397l-0.162-2.622l0.463-1.702l2.015-0.77l2.466-0.157l1.54,0.157l3.091,1.232l1.54,0.312l1.702-0.156
	l1.54,0.306l3.867,2.316l2.616,1.083l0.776,0.619l1.389,1.39l0.926,0.463l0.776-0.463l0.764-0.62l0.926-0.307l0.776,0.307
	l1.389,1.233l0.614,0.463l7.572,0.463l1.853,0.62l1.54,1.389l0.926,1.696l0.613,1.854l0.927,1.701l1.552,1.076l0.926,0.157
	l2.929-0.927h10.964l2.003,0.62l-0.313,1.696l0.463,0.462h0.777l0.775,0.465l1.54,2.778l1.702,2.314l1.54,4.169l1.239,1.695
	l2.002-0.77l1.39-4.787l2.778,0.155l2.628-0.926l1.39-0.156l4.782,3.242l0.926,0.463l10.038,1.083l-0.775,2.472l1.388,0.926
	l2.004,0.614l0.776,1.083l0.312,0.462l-2.165,0.157l-1.702,1.539l-0.926,2.472l-0.301,2.936l0.301,0.15l0.163,0.312v0.308v0.307
	l1.69,0.62l5.558,0.77l1.852,0.775l4.945,3.393l2.002,0.463l1.702,0.155l1.39,0.62l1.233,2.003l1.082,4.48l0.926,1.853l1.696,1.54
	l1.082,0.776l1.233,0.149l2.316-0.307l1.39-0.463l1.082-0.619l1.54-1.54l2.167-1.546l0.462-0.77l0.614-1.853l0.463-0.619l1.389-0.62
	l4.168,0.464l5.407-1.696l2.779-0.307l2.467,1.389l1.088,0.927l5.094,2.466l2.779,0.619h1.389l0.614,1.854l1.389,1.852l1.702,1.39
	l1.69,0.464l1.853,1.082l0.927,0.308h0.927l0.625-0.62l0.764-1.854l0.775-0.612h1.702l4.006,1.388l2.009,0.309l2.316-0.157v-0.463
	l-1.083-1.233l-0.771-2.314l0.771-1.084l3.704-2.929l1.547-0.775l1.857-0.151l3.543,0.614l1.854-0.307l1.389-0.926l2.628-2.623
	l1.389-0.927l1.391-0.155h1.54l1.551-0.308l2.929-2.315l2.778,1.076l1.541-0.925l0.927,0.155h2.627l0.614,0.157l0.626,1.232
	l0.612,1.082l0.927,0.927l1.077,0.614l1.853,0.619l2.315,0.306l2.315-0.149l6.021-1.083l0.162-0.77v-2.936l-2.941-4.012
	l-6.171-6.333l-0.926-2.315l-1.076-9.105v-1.39l-0.313-0.62l-0.462-0.307l-1.24,0.156l-0.462-0.156l-0.614-0.927l-0.312-0.925
	l0.155-1.084l0.927-1.232l1.082,1.696l0.465,0.463l0.306-0.77l1.082-6.021l0.151-2.16l-0.151-2.165l-0.463-2.159l-0.619-0.926
	l-0.926-0.464l-2.472-0.77l-1.39-0.156l-0.771-0.463l-0.618-0.77l-0.614-1.702l-0.619-0.77l3.548-3.706l1.082-0.463l0.307-0.619
	l-0.149-2.779l0.307-0.613l0.77,0.151l1.24,0.618l0.612-0.156l1.39-1.389l-0.463-1.233l-2.466-2.01l-0.927-1.852l-0.156-1.853
	l0.77-1.389l1.853-0.308l-1.232,2.159l-0.307,1.083l0.462,0.926l1.077,0.308l0.464-0.927l0.463-1.232l0.62-0.62l0.307-0.613
	l0.312-1.546l0.307-3.086l0.464-1.238l1.696-1.853l0.463-1.539l-0.613-1.084l-1.546-0.926l-1.389-1.696l-0.62-3.398l0.463-0.925
	l1.082-0.309h2.472l0.464,0.464l-0.775,0.927l-1.696,1.232v0.77l1.232,0.775l0.62,0.771l0.462,0.462l0.927-0.155l2.473-3.855
	l0.462-1.391l1.078-1.238l2.008-1.852l0.62-1.078l0.77-2.314l0.619-1.083l1.541-1.853l12.197-9.262l3.241-1.547l2.159-0.463
	l3.554,1.702l1.854-0.775l7.254-8.95l2.935-2.472l10.033-5.401l17.599-14.514V252.5l-2.936,1.083l-2.622,2.159l-4.632,5.095
	l-4.475,4.011l-2.935,1.547l-2.935,0.155v-0.775l7.409-3.086l1.238-1.389l0.307-1.853l0.619-1.082l5.708-4.782l2.316-1.39
	l5.557-1.702l4.019-2.929l2.622-0.926l4.938-0.776l-0.77,1.853l-1.082,1.239l-1.54,0.77l-2.009,0.463l-4.168,0.307l-2.01,0.62
	l-1.233,1.545l2.936-1.39l5.402-0.619l5.093,0.463l2.316,1.852l0.156,0.463l1.696,6.484l0.464,1.082l0.618,0.771l1.854,0.925
	l2.159,0.463h1.696l0.926-1.695l0.312-1.083l0.15-0.619l0,0v-0.15h0.156l0.463-0.313h0.771l0.618-0.462l0.62-0.771l0.771-0.619
	l2.008-0.308l1.076-0.462l1.39-0.927l3.556-3.086l0.306-0.156l1.695-0.462l0.313-0.157l0.307-0.307l0.157-0.771l0.149-0.462
	l0.313-0.463l0.613-0.313l0.619-0.15l1.546-0.157l0.463-0.156l0.464-0.463l0.463-0.771l0.463-1.545v-0.77l-0.312-0.307l-0.926,0.15
	h-0.464l-0.463-0.15l-0.463-0.157l-0.307-0.307l-0.157-0.312v-0.308l0.157-0.463l0.77-1.545l0.312-0.614l0.308-1.082l0.462-0.926
	l2.316-3.242l2.009-1.545l2.315-0.771l0.462-0.156h0.465l0.462,0.156l2.779,0.926l0.77,0.463l0.619,0.463l0.463,0.157l0.464,0.149
	h0.463h0.312l0.302-0.306l0.312-0.62l0.463-1.389l0.151-0.77v-0.62l-0.151-0.306v-0.463v-0.463l0.151-0.463l1.551-3.398l1.076-3.242
	l0.151-1.39v-0.77v-0.927l-0.464-2.623l-0.15-0.463l-0.156-0.925l-0.156-1.39l0.156-0.926l0.619-0.62l1.077-0.925l2.628-1.39
	l3.393-2.778l1.083-0.62l2.935-1.233l0.614-0.463l0.155-0.307l0.62-0.463l1.076-0.62l0.619-0.463l0.62-0.77l0.463-0.776l0.151-0.463
	l0.156-0.463v-0.463l-0.156-1.852v-0.77v-0.308v-0.155h0.312h0.307h0.464l0,0h0.156h0.462h0.308h0.157l0,0l0,0l0,0l0.149-0.157
	l0.157-0.307v-0.463v-0.463L486.918,195.38z M234.518,385.874l-0.926,0.161h-0.313l-2.003-0.312l-1.239-0.927l-0.151-1.539
	l0.927-2.165l0.926-0.464l0.927,1.239l0.926,2.004l0.926,1.701V385.874z"/>
<polygon fill="#FFFFFF" stroke="#010101" stroke-width="2" stroke-linecap="round" stroke-linejoin="round" points="690.848,21.861 
	686.986,20.17 685.904,19.244 685.133,17.854 684.515,16.303 683.588,14.914 679.732,11.984 675.715,9.819 675.101,7.967 
	674.638,2.722 674.325,1.795 673.249,0.406 673.093,-0.67 673.399,-1.759 674.325,-3.913 674.638,-4.688 674.019,-6.541 
	672.936,-7.316 670.157,-8.081 668.925,-8.856 666.916,-10.859 665.682,-11.322 663.367,-11.786 661.052,-13.638 659.199,-16.266 
	658.272,-21.511 657.966,-23.827 658.117,-25.992 658.579,-28.157 659.662,-30.009 661.052,-30.773 663.674,-31.237 
	663.674,-31.399 663.987,-32.012 664.293,-32.476 664.757,-32.938 665.063,-32.788 665.839,-32.325 666.146,-32.325 
	666.765,-32.476 668.925,-32.325 670.776,-32.938 672.786,-34.015 674.638,-35.405 675.715,-37.569 676.334,-39.271 
	677.104,-40.812 678.03,-41.888 679.269,-42.514 678.65,-43.59 678.187,-44.829 677.567,-47.145 676.491,-49.761 676.179,-51.15 
	675.715,-51.463 669.851,-58.259 667.841,-59.024 667.071,-58.723 666.453,-58.097 665.682,-57.635 664.912,-57.797 
	664.137,-58.259 663.987,-58.723 664.293,-59.186 664.137,-60.263 664.293,-60.263 664.293,-61.652 664.137,-62.891 663.83,-62.729 
	664.293,-63.505 665.063,-64.28 665.682,-65.357 665.682,-66.283 664.293,-67.522 657.346,-69.212 656.576,-71.227 657.346,-75.696 
	658.893,-80.177 661.978,-86.348 659.969,-89.751 656.883,-93.144 655.187,-96.073 655.649,-97.463 657.966,-100.242 
	658.579,-102.406 658.579,-103.645 658.43,-104.722 657.652,-106.112 656.264,-106.728 643.146,-110.126 637.276,-110.28 
	631.567,-109.2 624.001,-103.946 621.066,-103.333 618.138,-103.183 615.509,-102.256 612.58,-99.778 610.108,-96.386 
	608.255,-93.919 607.793,-92.218 608.1,-90.829 608.875,-88.664 609.025,-88.201 609.802,-86.047 610.265,-85.584 611.19,-85.121 
	612.58,-85.734 613.193,-85.422 613.657,-82.493 611.341,-80.177 605.783,-76.321 601.152,-71.065 598.374,-69.676 595.288,-70.915 
	591.276,-70.764 587.259,-69.838 585.099,-68.599 586.332,-71.377 586.952,-72.616 587.259,-73.693 585.719,-75.696 
	584.793,-77.398 585.099,-78.938 587.259,-80.327 592.665,-82.955 592.665,-82.955 592.816,-82.955 593.129,-82.955 
	593.742,-82.805 594.206,-82.643 594.825,-82.805 596.678,-83.418 597.141,-84.195 596.984,-85.422 597.141,-86.811 597.76,-90.365 
	598.067,-91.442 599.3,-94.221 600.846,-97.775 600.688,-99.165 599.612,-101.167 598.374,-102.557 594.055,-105.185 
	590.351,-101.167 589.73,-100.242 589.111,-99.014 586.025,-95.923 585.719,-95.31 584.636,-93.144 584.329,-92.681 
	583.711,-92.369 583.091,-91.755 582.477,-91.142 582.015,-90.365 581.395,-89.751 578.309,-86.973 577.533,-86.51 576.606,-86.197 
	574.604,-86.047 565.029,-86.51 564.259,-86.811 563.489,-87.274 563.176,-88.363 563.333,-89.289 563.025,-90.365 562.1,-91.755 
	557.931,-95.459 557.62,-95.772 556.079,-94.383 555.767,-94.07 554.996,-92.994 554.689,-92.681 554.07,-92.218 553.763,-91.905 
	553.45,-91.604 553.301,-90.516 552.987,-90.215 552.681,-89.902 552.218,-89.751 551.292,-89.751 550.984,-89.59 550.673,-89.289 
	550.366,-88.976 549.595,-87.899 549.282,-87.587 548.819,-87.274 546.967,-86.51 546.505,-85.885 546.198,-85.584 545.891,-85.271 
	545.427,-85.121 543.112,-85.885 542.337,-86.348 541.872,-87.124 541.872,-88.363 542.029,-89.59 542.186,-90.516 542.337,-91.442 
	542.337,-92.067 541.872,-92.681 540.021,-92.994 539.251,-93.295 538.169,-95.147 536.936,-95.61 535.083,-96.073 534.312,-96.849 
	533.536,-97.926 533.074,-99.628 532.923,-100.705 532.609,-101.793 531.685,-102.87 530.915,-103.333 528.756,-103.946 
	527.829,-105.495 527.829,-109.97 521.652,-111.669 519.336,-113.211 517.64,-115.064 516.094,-116.454 515.012,-116.917 
	514.085,-117.227 511.464,-116.917 506.062,-114.757 504.053,-114.602 502.663,-114.911 499.267,-116.454 498.033,-116.917 
	496.801,-116.917 495.561,-116.61 495.099,-116.3 494.791,-115.99 494.791,-115.837 494.634,-114.602 494.484,-114.138 
	493.865,-112.749 493.709,-112.286 492.782,-109.97 492.632,-109.507 492.632,-108.891 492.013,-104.569 491.706,-103.483 
	491.393,-102.406 490.311,-99.778 489.547,-98.702 489.384,-98.238 489.233,-97.775 489.233,-97.312 489.233,-96.386 
	489.233,-95.923 489.233,-95.459 489.082,-94.997 484.29,-84.657 483.988,-83.882 482.75,-77.861 482.287,-76.472 482.136,-75.858 
	482.136,-75.083 482.287,-74.77 482.437,-73.844 477.343,-74.469 475.652,-76.008 475.027,-77.861 474.264,-79.714 474.101,-80.489 
	474.264,-82.342 474.101,-83.418 473.638,-84.033 471.786,-85.271 471.484,-85.885 471.484,-86.661 471.635,-87.587 
	471.484,-88.664 470.708,-89.126 468.394,-90.053 467.467,-89.751 467.004,-89.126 466.853,-88.363 466.853,-87.587 
	466.691,-86.661 466.229,-86.047 465.463,-85.422 464.226,-85.422 463.299,-85.734 462.523,-86.661 461.909,-87.587 
	460.983,-88.664 460.058,-88.664 459.443,-88.363 458.817,-87.587 457.741,-87.124 456.039,-86.973 452.647,-87.899 
	449.255,-89.439 448.479,-89.289 448.016,-88.826 447.702,-88.05 447.553,-87.436 446.938,-84.345 446.313,-81.566 445.851,-80.489 
	443.233,-76.935 440.918,-75.083 439.529,-74.469 438.44,-74.156 437.515,-74.006 436.588,-74.006 435.824,-74.006 433.045,-75.083 
	428.877,-76.159 427.789,-76.008 425.473,-75.083 424.548,-75.083 423.782,-75.083 420.078,-76.321 418.526,-76.623 
	417.449,-76.472 412.506,-74.469 411.116,-74.307 410.04,-74.619 409.426,-75.083 407.109,-77.085 406.185,-77.548 404.17,-78.174 
	403.406,-78.475 402.78,-79.1 402.631,-79.864 402.631,-80.64 402.941,-83.731 402.941,-83.882 402.78,-84.033 402.631,-85.422 
	401.854,-87.124 409.89,-91.755 410.815,-92.681 411.893,-93.457 411.893,-93.919 412.043,-94.221 412.043,-94.684 411.893,-94.997 
	411.742,-95.147 411.429,-95.459 411.116,-95.923 410.815,-96.386 410.653,-96.849 410.653,-97.312 410.653,-97.926 
	410.653,-98.702 410.815,-99.165 410.653,-99.628 410.503,-100.091 410.19,-100.404 410.04,-100.705 410.04,-101.48 
	410.04,-102.256 410.815,-105.802 410.967,-106.421 410.967,-107.038 410.653,-107.655 410.503,-107.964 410.353,-108.427 
	410.19,-109.044 410.19,-109.97 410.04,-110.896 409.89,-111.516 409.577,-111.823 409.426,-111.979 408.188,-112.595 
	407.109,-113.368 406.334,-113.675 403.556,-114.138 401.09,-114.757 400.777,-115.064 400.464,-115.374 400.002,-115.837 
	399.852,-116.146 398.612,-116.917 397.686,-118.153 397.223,-118.462 396.76,-118.616 396.296,-118.616 395.069,-118.462 
	394.606,-118.616 394.294,-118.925 394.144,-119.232 393.83,-119.542 393.367,-119.696 392.441,-120.005 392.128,-120.158 
	391.202,-120.932 391.052,-121.085 389.662,-121.548 388.887,-122.011 388.736,-122.474 388.736,-122.937 389.199,-123.864 
	389.199,-124.327 389.351,-127.725 389.199,-129.884 388.887,-130.503 388.585,-130.967 387.497,-131.43 385.958,-133.746 
	385.494,-135.135 385.183,-135.905 384.719,-136.214 384.256,-136.524 383.955,-136.677 383.028,-138.067 382.715,-138.376 
	381.639,-139.609 381.478,-140.229 381.176,-141.619 380.863,-142.388 378.698,-146.403 376.232,-146.866 376.081,-146.403 
	375.919,-145.63 375.919,-144.551 375.457,-143.471 374.692,-142.852 373.604,-142.235 373.303,-141.309 373.303,-140.383 
	372.99,-138.993 372.064,-138.376 370.824,-137.914 367.121,-135.441 366.194,-135.135 364.966,-134.979 364.19,-135.135 
	363.878,-135.751 363.878,-136.524 363.878,-137.294 363.878,-138.22 363.415,-138.993 362.802,-139.766 362.188,-141.462 
	361.725,-142.082 359.409,-142.852 358.483,-142.698 357.858,-142.082 356.932,-140.383 356.006,-139.609 355.079,-139.456 
	354.315,-139.609 352.462,-140.692 351.073,-141.309 348.596,-141.772 347.205,-141.772 345.979,-141.462 342.424,-139.766 
	341.498,-139.766 340.571,-140.229 339.796,-140.845 337.48,-143.778 336.403,-144.551 334.864,-145.014 333.774,-145.167 
	333.011,-144.86 332.387,-144.86 332.085,-145.014 331.309,-145.63 329.607,-146.403 327.917,-147.946 326.678,-149.491 
	326.365,-150.262 326.215,-150.725 326.063,-151.188 325.902,-151.807 326.063,-153.041 323.586,-153.041 321.271,-153.35 
	317.266,-152.114 311.707,-148.409 311.082,-147.946 310.47,-146.556 310.005,-145.63 309.08,-144.704 308.153,-144.86 
	307.227,-145.167 306.15,-145.323 305.375,-144.86 303.985,-143.315 303.21,-143.161 300.28,-144.397 299.817,-145.014 
	299.505,-145.477 298.74,-145.787 298.276,-145.323 296.889,-143.624 294.26,-141.309 292.721,-140.073 290.404,-140.073 
	289.94,-139.609 289.94,-138.993 290.242,-137.141 289.778,-136.368 288.853,-136.214 286.851,-136.368 286.236,-136.214 
	285.924,-135.751 285.924,-134.979 286.236,-134.362 287.161,-132.973 287.463,-132.2 287.312,-131.737 286.699,-130.503 
	286.537,-129.578 286.699,-128.804 287.161,-127.878 288.553,-126.179 289.015,-125.409 289.316,-124.636 289.478,-124.173 
	289.629,-123.557 289.629,-122.937 289.478,-122.321 289.165,-122.011 281.756,-119.852 277.588,-119.542 275.121,-118.925 
	274.346,-118.925 273.419,-119.079 272.029,-118.925 270.327,-118.462 264.932,-115.837 263.693,-113.675 262.767,-112.749 
	261.991,-112.286 261.379,-112.132 260.764,-111.669 260.301,-111.052 259.676,-109.507 257.361,-105.495 260.451,-101.017 
	262.918,-98.702 263.381,-97.463 263.543,-96.073 264.308,-93.919 264.932,-92.994 265.858,-92.53 267.549,-91.905 270.026,-91.442 
	270.791,-90.829 271.254,-90.053 271.718,-88.664 271.879,-87.899 272.493,-86.973 273.106,-86.811 273.882,-87.737 274.657,-88.05 
	275.886,-87.587 276.812,-86.51 280.366,-80.64 280.98,-79.401 281.605,-76.623 281.905,-75.546 282.531,-74.307 284.383,-71.227 
	284.997,-69.212 284.534,-63.505 284.534,-62.428 284.847,-60.876 285.31,-59.799 286.699,-57.171 287.463,-55.318 287.775,-54.091 
	287.775,-53.165 287.463,-51.926 287.463,-51.312 287.463,-50.074 287.626,-48.222 287.161,-47.446 285.772,-46.056 285.148,-45.13 
	284.684,-44.054 284.071,-42.814 283.458,-40.812 282.832,-39.735 282.068,-38.808 281.442,-38.346 280.829,-37.569 
	279.591,-35.868 279.29,-35.405 278.977,-35.405 278.514,-35.254 276.812,-35.567 275.886,-35.254 275.121,-34.64 274.033,-33.401 
	273.106,-32.476 271.254,-31.399 270.327,-30.311 270.178,-29.384 270.327,-28.458 272.343,-25.841 272.805,-25.065 
	273.106,-24.139 273.419,-22.599 273.731,-21.673 274.195,-21.21 274.959,-20.897 275.584,-20.747 276.348,-20.585 276.511,-20.435 
	276.974,-19.82 277.737,-19.196 280.516,-15.652 281.291,-13.638 281.442,-12.874 281.442,-11.021 281.291,-8.856 281.142,-7.617 
	280.98,-7.003 280.829,-6.541 280.366,-5.927 279.903,-5.463 278.201,-4.839 277.438,-4.375 276.974,-3.611 276.048,0.557 
	276.197,1.645 276.661,2.571 278.201,4.112 278.664,5.5 278.825,7.041 278.825,9.356 278.825,11.058 279.127,12.297 279.29,12.911 
	280.829,13.837 278.977,21.559 278.201,24.176 277.588,24.802 277.124,25.102 276.511,25.264 273.882,24.802 271.879,23.875 
	270.641,22.786 269.865,22.324 269.563,22.173 268.938,22.022 268.012,22.173 266.623,22.485 266.01,22.949 265.858,23.412 
	266.01,23.712 266.322,24.025 266.785,24.338 266.935,24.639 267.248,24.951 267.398,25.264 267.549,25.727 267.549,26.341 
	267.549,26.804 267.549,27.268 267.398,27.731 266.322,29.733 265.697,31.436 265.234,31.748 264.771,32.211 264.156,32.362 
	261.228,37.143 260.603,37.769 258.75,38.845 257.06,39.158 256.596,39.459 256.435,39.922 255.971,42.7 255.508,43.164 
	252.115,45.943 251.965,46.719 251.803,47.645 251.965,48.721 252.115,49.648 252.729,50.574 253.191,51.35 253.504,52.589 
	253.191,53.977 251.34,57.983 250.726,59.223 250.414,60.461 249.8,62.002 249.186,63.078 248.41,64.004 245.018,66.633 
	244.393,67.558 244.393,68.485 244.556,69.26 246.407,72.503 246.708,73.267 246.708,73.579 246.871,73.892 246.708,74.193 
	246.558,74.818 245.944,75.281 245.319,75.582 242.078,76.045 240.074,76.972 241.151,79.288 241.927,86.697 242.39,88.862 
	243.166,90.564 246.871,96.585 248.26,99.364 248.724,100.753 248.875,101.98 247.483,108.626 246.871,110.479 246.558,111.405 
	247.021,111.706 248.41,112.331 249.186,113.096 249.487,113.871 250.112,117.425 250.414,118.652 251.039,119.741 252.115,120.667 
	253.043,120.817 253.818,117.727 255.207,116.962 256.133,116.962 261.529,115.11 262.455,115.11 263.381,115.26 263.844,115.874 
	264.308,116.499 264.932,117.113 265.547,117.113 266.159,116.962 266.935,116.337 267.398,116.186 268.012,116.186 
	268.938,116.337 272.343,116.337 275.121,116.037 276.661,115.11 277.588,114.184 278.514,112.632 281.291,109.703 281.756,109.089 
	282.218,108.313 282.369,107.538 282.683,105.072 282.993,104.295 283.92,102.292 286.074,99.364 286.537,98.437 286.699,97.662 
	287,96.122 287.161,95.196 287.463,94.42 299.203,81.915 299.817,82.066 300.432,82.529 300.742,83.305 301.207,84.081 
	302.444,85.47 303.059,86.396 303.371,87.16 303.371,88.087 303.371,88.862 303.371,90.402 303.522,90.865 304.135,91.028 
	306.764,90.564 307.539,90.402 308.004,90.564 308.304,90.715 309.392,92.718 311.245,95.033 311.546,95.809 312.321,98.437 
	312.634,99.051 313.248,99.827 314.023,100.29 316.025,100.753 316.339,101.054 316.952,101.517 317.104,102.142 316.952,102.756 
	316.025,103.068 315.413,103.531 315.1,104.146 315.413,104.921 315.876,105.685 316.025,106.46 316.177,107.387 316.339,109.853 
	316.489,110.628 316.802,112.331 317.566,114.021 318.029,114.798 318.654,115.573 321.583,118.039 322.822,114.021 
	323.749,112.481 325.288,110.316 325.602,109.39 326.063,105.072 327.292,99.827 328.067,97.349 328.994,95.809 330.383,95.033 
	331.309,94.108 331.923,91.491 332.235,88.711 332.849,87.785 333.625,87.16 334.4,86.86 335.015,87.16 336.403,89.326 
	337.018,90.101 338.257,89.789 339.958,88.711 345.053,83.617 346.28,82.992 346.904,83.305 347.67,83.305 348.596,82.992 
	349.683,82.529 353.226,80.063 353.852,79.751 354.928,79.449 356.167,79.6 356.932,79.288 357.557,79.751 358.02,80.375 
	358.32,81.915 359.096,84.543 364.04,94.269 365.731,96.122 366.97,96.735 368.209,95.959 368.973,95.659 369.899,95.496 
	372.99,95.347 373.767,95.196 374.53,94.732 374.993,93.957 375.306,93.181 375.457,91.491 375.618,90.564 376.081,89.938 
	376.695,89.477 377.621,89.326 378.698,89.175 380.249,89.477 381.326,90.101 381.939,91.028 381.939,91.792 381.789,92.567 
	381.478,93.343 381.176,93.957 381.326,94.57 381.939,94.883 386.733,95.659 387.81,96.122 388.736,96.735 391.052,99.364 
	393.68,101.68 394.907,102.443 396.296,102.756 396.76,103.068 397.223,103.683 397.848,104.146 398.462,104.295 400.627,104.921 
	400.163,108.464 400.464,110.016 400.777,111.243 401.09,111.706 401.239,112.169 402.317,115.723 403.093,120.817 404.02,124.209 
	404.945,126.062 406.799,127.301 408.036,129.616 408.801,131.62 411.279,141.195 413.745,143.36 415.135,146.139 416.211,147.829 
	416.373,148.918 415.91,149.531 415.446,150.145 415.135,151.384 415.446,152.923 415.747,156.791 416.211,157.554 416.987,157.717 
	418.526,157.091 419.303,157.091 420.229,157.254 421.005,157.254 422.544,156.629 423.471,156.791 423.782,157.091 
	424.396,158.018 425.01,158.481 426.099,158.793 432.12,162.499 433.196,162.812 434.122,162.961 434.897,162.649 435.512,162.186 
	436.588,160.797 437.214,160.183 439.529,158.644 441.382,156.941 442.146,156.478 444.924,155.703 446.012,155.864 
	446.777,156.478 446.938,157.091 446.777,158.018 446.626,158.793 446.626,159.569 446.938,160.495 447.865,161.573 
	448.791,161.885 449.869,161.722 450.645,161.109 451.257,160.495 451.571,159.72 451.721,158.944 451.721,157.405 452.184,156.791 
	453.11,156.166 455.739,156.015 457.892,156.166 460.52,157.254 460.983,157.868 461.134,158.18 461.446,158.481 462.06,158.944 
	462.373,159.256 462.836,159.871 463.148,160.183 463.611,160.495 466.077,161.722 470.096,162.961 470.096,157.405 
	472.562,156.941 475.19,157.091 477.656,157.405 478.432,157.717 479.044,158.18 480.434,159.256 481.048,160.183 481.51,161.109 
	483.525,166.979 483.988,167.593 484.602,168.207 485.528,168.519 486.604,168.207 487.531,167.593 489.082,166.354 
	490.009,165.892 490.773,165.74 493.095,165.428 493.865,165.277 495.561,164.663 497.263,163.575 498.959,162.812 504.979,161.109 
	506.213,161.109 510.23,162.036 511.619,161.885 512.696,161.573 513.936,160.183 514.55,159.72 515.168,159.569 515.632,160.032 
	515.787,160.958 515.475,161.885 514.705,163.575 514.705,164.501 514.705,166.204 514.86,167.13 515.168,167.906 516.094,168.832 
	517.328,169.445 520.106,169.908 521.652,169.908 522.886,169.596 524.123,169.596 530.295,171.911 531.533,172.074 
	532.304,171.911 533.229,172.225 533.85,172.687 534.463,173.925 534.776,174.852 534.926,175.778 535.083,176.705 535.701,177.469 
	536.472,178.244 538.018,179.02 541.259,181.799 542.029,182.263 545.115,182.563 547.893,180.873 550.366,178.244 551.448,176.705 
	552.525,175.617 553.763,175.315 555.923,175.617 556.849,176.393 557.312,177.168 557.469,177.932 557.775,178.708 
	558.396,179.171 559.165,179.171 559.784,179.02 560.091,178.244 559.784,175.315 560.71,173.764 561.017,168.832 560.861,165.59 
	560.398,164.663 559.628,164.201 558.238,163.575 557.62,162.961 556.542,161.573 555.923,160.958 555.46,160.183 555.46,159.407 
	555.923,158.33 556.229,157.554 555.767,156.941 555.152,156.791 554.377,156.629 550.209,156.941 549.595,156.629 547.893,155.703 
	546.967,155.401 545.271,155.088 544.809,154.938 544.345,154.625 540.947,151.997 540.64,151.384 540.483,150.77 540.333,149.531 
	540.177,148.918 539.714,147.991 538.479,146.602 538.169,145.977 538.169,145.212 539.251,144.75 540.021,144.75 542.492,145.514 
	543.263,145.514 543.882,145.363 544.345,144.899 544.651,144.437 544.651,143.511 544.345,143.198 543.882,142.734 
	543.263,142.272 542.649,141.809 542.186,141.044 541.872,140.269 541.565,139.342 541.565,138.566 541.723,137.803 
	542.186,137.339 543.263,137.027 544.039,137.027 546.816,137.49 552.218,139.493 552.987,139.656 554.07,139.342 557.931,136.413 
	558.702,135.637 558.545,134.248 558.082,133.322 557.469,132.708 555.304,131.157 554.689,130.23 554.377,129.767 554.228,129.003 
	554.228,128.377 554.228,127.765 554.689,126.838 557.312,122.821 557.931,121.432 558.238,120.205 558.238,119.278 
	558.545,118.502 559.935,117.888 560.861,117.888 561.637,118.039 562.714,118.19 564.259,118.502 565.342,118.19 566.418,117.888 
	567.964,117.113 570.587,116.8 571.206,116.337 572.596,114.947 573.214,114.021 573.828,113.257 573.828,112.331 573.679,111.555 
	572.752,110.779 572.132,109.703 574.292,105.998 575.067,105.072 576.3,104.609 577.227,104.458 579.849,104.609 581.551,104.295 
	585.099,103.068 585.869,102.443 586.332,101.68 586.489,100.441 586.183,99.515 586.025,98.588 586.489,97.812 588.497,96.122 
	590.038,95.033 590.813,94.732 591.583,94.57 592.51,94.732 593.898,95.347 594.825,95.347 595.596,95.033 600.226,91.954 
	601.152,91.641 601.928,91.641 603.625,92.255 604.395,92.255 607.022,91.641 607.948,91.641 609.489,91.954 610.414,91.792 
	613.35,90.564 614.275,90.252 615.046,90.252 615.822,90.402 619.063,91.641 619.677,91.641 620.453,91.641 620.76,91.028 
	621.066,90.252 621.379,88.399 621.529,84.844 621.379,83.919 621.066,82.841 619.99,81.452 619.215,80.676 618.443,79.6 
	618.138,78.523 618.138,75.896 617.981,74.818 617.674,73.892 616.748,73.116 615.822,72.966 611.804,73.892 610.571,73.73 
	609.802,73.428 608.875,73.116 608.562,71.728 608.562,69.562 609.338,65.243 609.645,63.078 609.952,61.388 610.265,60.763 
	612.424,58.296 613.812,59.535 614.739,59.836 616.129,59.998 618.288,59.998 620.453,60.461 621.687,61.075 622.306,61.851 
	622.769,63.541 623.075,64.468 623.695,65.092 629.559,67.246 630.329,67.095 631.412,66.633 632.645,65.092 633.264,63.854 
	633.421,62.777 633.571,62.002 634.033,61.388 634.811,60.924 637.432,61.075 638.515,60.763 641.757,58.759 644.379,58.447 
	644.379,58.447 644.842,58.146 647.777,56.444 648.704,56.293 650.243,56.293 651.019,56.131 651.633,55.83 653.335,54.591 
	653.948,54.128 657.04,54.742 660.281,56.444 663.523,57.521 666.453,56.131 666.608,55.367 665.989,54.904 665.682,54.128 
	666.146,53.052 666.765,52.738 668.925,52.738 669.694,52.589 670.933,51.35 672.474,48.721 673.711,47.645 676.797,46.104 
	679.883,45.329 680.658,45.641 681.736,47.031 682.198,47.182 682.818,46.568 684.515,43.476 686.83,41.473 686.83,39.459 
	685.904,36.993 685.44,33.289 685.904,32.512 688.839,29.119 690.69,25.878 691.46,24.025 691.46,22.324 "/>
<g>
	<polygon fill="#FFFFFF" stroke="#010101" stroke-width="2" stroke-linecap="round" stroke-linejoin="round" points="
		-75.158,-78.324 -73.768,-77.861 -68.827,-78.787 -60.337,-73.23 -56.323,-72.454 -55.86,-72.304 -55.396,-71.84 -54.471,-72.304 
		-53.857,-72.616 -53.082,-72.616 -54.007,-74.932 -55.709,-76.935 -57.866,-78.324 -66.665,-79.714 -68.211,-80.489 
		-68.211,-81.416 -66.975,-81.416 -66.975,-82.342 -69.137,-81.716 -71.606,-80.64 -73.922,-80.489 -75.464,-83.268 
		-74.538,-83.106 -72.532,-82.342 -71.916,-82.955 -71.916,-83.731 -72.379,-84.495 -72.995,-84.958 -74.538,-85.271 
		-79.789,-84.033 -79.789,-83.268 -78.706,-82.493 	"/>
	<polygon fill="#FFFFFF" stroke="#010101" stroke-width="2" stroke-linecap="round" stroke-linejoin="round" points="
		-54.783,-51.614 -55.709,-52.239 -57.866,-54.555 -60.644,-56.708 -63.58,-58.41 -66.358,-58.723 -64.349,-54.242 -63.423,-51.312 
		-63.58,-50.074 -64.042,-48.835 -62.497,-46.52 -60.644,-44.204 -58.792,-42.814 -53.544,-36.956 -52.618,-35.254 -51.842,-33.552 
		-50.615,-29.083 -49.063,-28.458 -47.674,-30.472 -46.91,-33.714 -46.134,-39.109 -46.285,-40.198 -46.91,-41.275 -49.526,-42.814 
		-50.453,-43.741 -49.99,-44.829 -49.99,-45.755 -50.916,-46.682 -50.916,-47.909 -50.916,-49.298 -51.229,-50.85 -52.467,-52.239 
		-53.694,-52.077 	"/>
	<polygon fill="#FFFFFF" stroke="#010101" stroke-width="2" stroke-linecap="round" stroke-linejoin="round" points="
		287.463,-51.312 287.463,-51.926 287.775,-53.165 287.775,-54.091 287.463,-55.318 286.699,-57.171 285.31,-59.799 
		284.847,-60.876 284.534,-62.428 284.534,-63.505 284.997,-69.212 284.383,-71.227 282.531,-74.307 281.905,-75.546 
		281.605,-76.623 280.98,-79.401 280.366,-80.64 276.812,-86.51 275.886,-87.587 274.657,-88.05 273.882,-87.737 273.106,-86.811 
		272.493,-86.973 271.879,-87.899 271.718,-88.664 271.254,-90.053 270.791,-90.829 270.026,-91.442 267.549,-91.905 
		265.858,-92.53 264.932,-92.994 264.308,-93.919 263.543,-96.073 263.381,-97.463 262.918,-98.702 260.451,-101.017 
		257.361,-105.495 248.561,-105.958 243.93,-104.876 241,-106.112 235.906,-106.112 235.293,-106.265 233.44,-107.348 
		232.351,-107.655 224.479,-107.811 223.553,-107.655 222.627,-107.348 220.774,-105.958 220.01,-105.495 218.77,-105.648 
		217.995,-106.421 216.143,-108.891 215.378,-109.507 214.602,-109.507 213.827,-109.354 213.063,-108.274 212.9,-107.348 
		212.9,-106.575 213.063,-105.648 213.063,-104.876 212.75,-104.105 212.438,-103.333 211.674,-102.719 210.585,-102.406 
		206.88,-103.333 205.954,-103.021 204.878,-102.256 203.951,-101.48 203.176,-100.705 202.099,-100.554 200.559,-100.867 
		199.783,-101.631 199.632,-102.406 199.783,-103.183 199.32,-103.796 198.394,-104.259 196.078,-103.796 194.84,-104.105 
		193.914,-104.569 192.987,-104.722 191.597,-104.413 185.889,-98.389 183.11,-96.698 179.092,-99.315 178.63,-100.091 
		178.329,-101.017 177.704,-101.793 176.94,-102.406 176.014,-102.557 174.774,-101.944 174.312,-101.167 173.999,-100.404 
		173.385,-99.628 172.146,-99.315 168.291,-98.852 167.052,-98.852 165.975,-99.014 164.736,-99.94 163.659,-100.091 
		162.12,-101.33 163.659,-106.575 162.583,-108.117 160.881,-109.2 159.955,-109.816 159.028,-111.206 158.878,-112.286 
		159.642,-115.374 159.642,-115.837 159.341,-116.61 159.028,-117.227 158.565,-118.153 157.79,-118.925 157.025,-119.542 
		156.25,-119.852 155.323,-120.158 149.917,-120.158 148.839,-120.622 148.377,-121.394 148.226,-123.4 147.601,-124.02 
		146.987,-124.327 145.286,-124.79 142.819,-126.179 140.816,-128.032 139.728,-129.268 138.963,-130.503 138.5,-132.51 
		138.188,-134.208 138.188,-136.831 138.338,-137.604 138.5,-138.376 138.801,-139.303 139.114,-140.073 139.114,-141.309 
		138.801,-142.852 137.725,-145.167 137.111,-146.403 135.259,-148.565 131.554,-151.651 121.052,-167.243 119.2,-172.801 
		118.273,-174.653 117.348,-175.733 116.421,-176.353 114.569,-177.123 109.625,-180.211 108.548,-180.674 108.397,-180.364 
		108.236,-180.211 108.397,-179.748 108.397,-179.438 108.397,-178.358 108.548,-177.896 108.699,-177.585 109.011,-177.279 
		109.162,-176.815 109.324,-176.506 109.475,-176.043 109.625,-175.58 109.625,-175.117 109.324,-174.653 108.548,-174.344 
		107.772,-174.037 100.675,-173.728 99.135,-173.264 98.36,-172.954 97.896,-172.338 97.282,-171.721 96.356,-171.412 
		92.339,-172.185 88.483,-171.721 86.781,-172.185 85.855,-172.954 85.242,-173.881 84.929,-174.653 84.779,-175.733 
		84.779,-177.585 84.779,-180.058 85.392,-182.68 85.542,-184.226 85.392,-184.995 85.079,-185.615 84.315,-185.769 
		82.463,-185.922 81.838,-186.541 81.375,-187.93 80.761,-188.237 79.985,-188.394 77.982,-187.621 76.905,-187.311 
		75.667,-187.311 74.891,-187.774 74.74,-188.547 74.891,-189.473 75.203,-190.4 75.354,-191.326 75.203,-192.405 74.891,-193.332 
		74.126,-193.641 72.112,-192.869 70.885,-192.869 70.422,-193.488 70.26,-194.104 70.26,-195.031 70.422,-195.804 69.958,-196.574 
		69.333,-196.574 67.793,-195.647 66.867,-195.494 66.091,-195.804 65.628,-196.574 65.166,-197.5 64.702,-198.272 63.776,-199.972 
		59.145,-200.898 57.604,-200.435 54.675,-196.73 54.363,-195.804 54.212,-194.877 53.9,-193.795 53.286,-192.562 52.198,-192.099 
		49.732,-191.172 49.118,-190.4 48.655,-189.783 47.417,-187.468 45.251,-188.237 44.788,-188.857 44.487,-189.783 44.325,-190.709 
		43.862,-191.942 42.785,-192.869 41.859,-193.179 40.933,-193.025 39.231,-192.562 34.136,-192.715 24.573,-191.479 22.257,-190.4 
		17.313,-188.857 16.074,-188.701 14.072,-189.783 13.145,-189.937 12.068,-189.783 10.366,-189.164 9.591,-188.701 8.826,-187.93 
		8.514,-187.158 8.665,-186.385 9.753,-184.842 9.753,-184.069 9.29,-183.299 5.585,-181.447 4.033,-180.058 3.57,-179.748 
		2.03,-179.131 -3.678,-178.512 -8.622,-178.975 -11.087,-179.748 -16.182,-178.822 -17.42,-178.822 -18.196,-178.975 
		-19.123,-179.285 -22.515,-181.6 -23.441,-181.91 -24.831,-182.217 -25.294,-181.754 -25.607,-181.291 -25.607,-180.983 
		-25.757,-180.211 -22.515,-177.742 -21.276,-176.353 -20.199,-174.037 -19.273,-172.647 -16.958,-171.258 -15.881,-169.713 
		-15.418,-168.479 -15.255,-165.854 -14.792,-163.692 -14.028,-162.303 -13.102,-161.376 -8.008,-158.135 -6.156,-156.438 
		-5.379,-155.356 -5.067,-154.585 -5.229,-153.966 -5.379,-153.197 -6.306,-151.498 -6.156,-150.108 -5.379,-147.946 
		-3.064,-144.087 -0.598,-139.146 -0.286,-137.914 0.027,-136.831 0.027,-136.061 0.027,-135.135 0.178,-134.052 0.641,-132.663 
		1.718,-131.43 2.181,-130.347 2.494,-129.421 2.644,-126.799 3.27,-123.093 3.419,-121.857 3.27,-121.085 2.806,-120.315 
		2.03,-119.696 1.567,-118.925 1.255,-117.689 2.644,-110.743 2.806,-109.97 2.644,-109.2 2.03,-107.191 1.88,-105.802 
		2.181,-103.946 2.806,-103.333 3.419,-103.483 3.883,-103.796 4.497,-103.796 7.587,-101.33 8.514,-100.091 8.826,-99.014 
		8.514,-98.088 7.9,-97.463 7.275,-97.162 6.812,-97.162 6.047,-97.162 5.423,-97.312 4.497,-97.162 3.732,-96.849 1.104,-93.757 
		0.491,-93.457 -0.135,-93.295 -2.751,-93.295 -3.527,-93.144 -5.993,-91.905 -6.618,-91.292 -8.008,-90.516 -9.085,-90.365 
		-15.105,-94.07 -17.271,-94.534 -18.811,-94.534 -20.049,-94.07 -20.663,-93.757 -23.441,-93.295 -24.518,-92.994 -25.294,-92.832 
		-26.996,-92.681 -27.922,-93.295 -28.223,-93.919 -27.76,-94.534 -27.146,-95.31 -26.683,-96.073 -26.533,-97 -27.146,-98.088 
		-27.922,-98.088 -29.462,-97.463 -30.388,-97.162 -32.241,-97 -37.647,-95.61 -38.574,-95.147 -39.188,-94.534 -40.728,-92.218 
		-41.04,-91.604 -40.264,-90.516 -40.114,-88.664 -39.65,-87.587 -39.65,-86.51 -40.264,-84.958 -46.447,-81.103 -47.373,-79.401 
		-46.91,-77.085 -47.674,-76.472 -48.601,-75.395 -49.226,-74.156 -49.063,-73.08 -48.299,-72.153 -47.524,-71.991 -46.748,-72.153 
		-45.822,-71.84 -44.432,-71.991 -43.969,-71.84 -43.818,-71.377 -43.969,-70.764 -43.969,-70.301 -43.668,-69.988 -42.893,-69.838 
		-40.89,-68.286 -41.966,-67.209 -41.966,-66.746 -41.353,-66.283 -40.89,-65.669 -40.577,-65.507 -39.5,-65.044 -39.188,-64.894 
		-39.037,-64.431 -39.037,-63.192 -38.412,-61.501 -38.261,-60.112 -37.949,-59.186 -36.258,-58.561 -35.795,-58.097 
		-35.17,-57.484 -34.869,-56.87 -34.869,-56.095 -35.795,-53.929 -37.022,-52.853 -38.412,-53.003 -40.264,-54.242 -39.037,-50.074 
		-38.11,-48.372 -36.722,-47.446 -37.184,-47.145 -37.949,-46.056 -38.412,-45.755 -37.949,-44.979 -37.335,-43.903 
		-36.722,-42.664 -36.722,-41.275 -37.022,-39.885 -37.647,-39.573 -38.261,-39.735 -39.188,-39.573 -40.426,-38.808 
		-41.503,-37.882 -41.966,-37.257 -42.429,-36.493 -43.043,-35.717 -43.969,-35.254 -43.205,-33.865 -42.58,-32.012 -42.278,-30.16 
		-42.117,-28.771 -41.654,-27.531 -39.337,-24.915 -31.314,-18.431 -29.462,-16.116 -35.633,-19.045 -36.722,-20.122 
		-37.647,-20.747 -43.356,-27.381 -45.057,-27.531 -50.916,-25.679 -50.916,-23.989 -52.467,-15.189 -50.765,-14.564 
		-47.674,-15.34 -46.134,-13.95 -45.057,-12.561 -43.668,-11.322 -42.278,-10.396 -40.577,-10.095 -37.949,-9.007 -33.167,-4.225 
		-30.238,-3.148 -29.775,-2.686 -29.312,-0.207 -28.999,0.255 -16.495,9.356 -12.477,14.149 -10.474,17.229 -8.622,20.783 
		-5.692,28.656 -4.604,33.601 -4.604,33.601 -1.211,57.521 -0.135,61.539 1.567,64.78 4.659,67.246 8.514,68.485 12.068,70.187 
		14.222,74.042 12.219,72.503 10.216,71.414 7.9,70.951 5.272,70.801 7.275,72.04 9.29,74.042 10.216,76.821 9.44,80.213 
		9.903,81.765 10.366,85.158 10.679,87.009 9.44,86.084 8.665,84.081 8.364,81.452 8.201,78.824 8.514,76.821 8.364,75.745 
		7.587,74.042 6.812,73.267 4.033,71.577 0.641,68.172 -2.45,64.317 -5.379,57.057 -5.692,55.668 -7.383,44.09 -8.622,39.308 
		-8.772,36.842 -9.86,33.138 -12.326,29.433 -22.978,17.391 -24.367,17.079 -28.073,14.914 -34.093,10.282 -34.869,9.356 
		-35.795,7.816 -36.096,7.202 -36.096,6.427 -35.795,5.814 -35.633,5.351 -35.482,3.961 -35.482,3.034 -35.795,2.41 -36.722,1.946 
		-38.11,2.571 -39.337,4.424 -42.429,10.595 -42.893,12.448 -44.432,38.996 -48.137,58.759 -53.544,120.205 -52.931,118.815 
		-52.155,115.723 -51.229,110.316 -47.211,104.295 -46.597,103.068 -46.447,102.907 -46.285,102.443 -46.134,101.83 
		-45.822,101.517 -45.208,101.366 -44.745,101.68 -44.432,101.98 -43.969,102.292 -43.043,102.756 -36.258,109.089 -35.482,110.779 
		-36.722,110.779 -34.406,113.096 -34.556,114.947 -36.258,116.186 -39.337,116.649 -44.745,115.411 -47.061,115.411 
		-48.763,117.576 -50.302,123.283 -50.615,124.835 -50.916,125.6 -53.232,129.003 -53.394,130.08 -52.618,133.635 -52.467,135.325 
		-53.082,143.048 -55.396,160.333 -61.107,195.229 -64.196,210.976 -66.358,218.073 -70.063,237.987 -72.069,244.934 
		-72.686,248.789 -74.075,253.271 -74.848,254.659 -79.479,258.365 -80.252,259.29 -80.715,260.68 -82.567,264.385 -83.337,265.462 
		-85.036,266.701 -87.042,267.777 -89.051,268.553 -96.924,269.791 -98.467,270.557 -99.083,271.332 -100.629,270.405 
		-101.092,273.798 -101.092,276.275 -101.092,277.816 -98.621,279.055 -97.387,280.595 -97.231,282.909 -96.924,283.373 
		-96.768,283.836 -95.688,283.687 -94.762,283.223 -92.756,282.909 -91.057,282.134 -90.131,282.297 -88.588,283.061 
		-87.661,283.687 -87.661,284.299 -87.968,285.074 -87.815,286.152 -87.199,288.154 -86.735,288.618 -85.653,289.242 
		-84.727,289.394 -83.494,289.242 -82.567,288.618 -82.104,287.542 -81.332,285.538 -80.095,284.763 -78.243,284.763 
		-75.464,285.538 -71.916,287.542 -70.833,287.391 -69.907,286.928 -68.827,287.078 -66.358,289.706 -65.895,294.024 
		-66.975,298.807 -68.211,302.674 -69.444,304.214 -72.995,308.069 -73.768,309.157 -72.686,311.773 -70.99,313.627 
		-69.137,314.715 -66.975,315.329 -64.505,315.479 -62.96,315.017 -62.19,313.325 -62.034,310.234 -61.417,307.769 -59.875,306.066 
		-57.866,305.291 -55.86,305.916 -57.712,307.455 -58.485,308.995 -58.022,310.697 -56.635,312.399 -54.933,313.325 
		-49.839,314.251 -46.748,315.941 -43.818,318.258 -40.577,317.957 -39.801,318.258 -38.261,319.185 -37.647,319.809 
		-34.556,320.272 -33.167,320.573 -32.09,321.963 -28.999,324.128 -25.607,325.366 -18.498,325.83 -11.713,324.591 -9.397,325.518 
		-7.695,329.835 -7.695,330.612 -8.008,331.225 -8.158,331.851 -7.545,332.927 -6.769,333.702 -5.843,333.854 -4.917,333.702 
		-4.141,333.854 -1.061,335.856 0.491,337.095 4.033,341.726 4.033,342.189 3.883,342.804 3.883,343.267 4.497,343.428 
		5.886,343.428 6.349,343.579 6.812,344.354 6.662,345.118 6.662,345.894 7.587,346.357 8.201,346.207 9.753,345.281 
		10.517,344.969 10.679,342.189 12.995,342.189 17.626,344.506 20.404,344.193 22.558,342.965 26.727,339.561 27.502,340.336 
		28.277,340.187 28.891,339.099 29.354,338.021 30.744,339.26 30.894,339.411 30.593,337.246 30.13,334.316 29.817,332.614 
		29.817,331.851 29.968,330.924 30.281,330.148 30.894,329.071 31.67,328.296 32.283,327.369 32.747,326.131 32.909,324.278 
		32.909,323.201 32.446,321.35 32.283,320.573 32.446,319.647 33.06,318.721 34.449,317.181 35.525,315.941 36.151,315.329 
		36.915,315.178 39.392,315.178 40.319,314.865 41.083,314.251 41.546,313.476 40.933,311.161 40.933,309.771 40.933,307.918 
		41.708,306.842 42.322,306.066 44.024,305.291 44.788,304.677 45.714,304.062 46.178,302.975 47.417,299.895 48.192,299.119 
		48.655,298.968 49.732,299.27 50.345,299.119 50.809,298.192 51.121,297.116 51.734,294.488 52.047,293.562 52.661,292.786 
		54.212,291.396 54.826,290.633 55.29,289.856 55.602,289.081 55.602,288.467 55.44,287.854 54.675,285.688 54.826,283.836 
		55.139,282.597 55.44,281.521 56.065,280.745 56.679,280.131 57.292,279.818 58.994,279.355 59.608,278.893 59.921,278.129 
		59.921,276.89 58.682,274.11 58.381,272.571 58.682,268.091 58.531,267.164 58.068,266.701 57.292,266.55 56.528,267.014 
		56.065,267.627 55.44,268.24 54.977,269.016 54.212,268.866 53.587,268.091 53.286,265.774 53.587,264.698 54.051,264.235 
		54.826,264.385 55.602,264.385 56.215,264.072 56.528,263.459 56.366,262.382 55.903,260.992 53.75,255.898 53.124,254.973 
		52.51,254.347 51.584,253.733 50.971,253.12 50.044,250.642 48.192,249.415 40.006,247.713 37.077,248.025 36.301,247.099 
		36.151,246.474 35.838,245.084 35.525,244.472 34.298,243.545 34.298,242.77 34.6,241.843 35.688,240.453 36.301,239.063 
		36.151,238.138 35.688,237.212 35.375,236.447 35.525,235.822 36.452,235.359 37.841,235.359 38.304,235.058 38.93,234.283 
		40.47,230.265 40.62,229.5 40.319,228.725 39.855,227.95 39.392,227.335 39.392,226.409 39.543,225.333 39.543,223.48 
		39.694,222.392 40.006,221.314 41.083,219.775 41.708,217.61 41.708,216.834 41.396,216.07 40.933,215.295 40.47,213.754 
		40.006,212.979 38.617,211.589 38.153,210.813 38.304,209.887 39.08,208.961 42.009,206.495 43.098,206.032 46.339,206.495 
		48.03,206.495 49.118,206.345 50.044,205.418 51.734,203.404 54.051,201.714 54.826,201.25 55.752,201.088 57.142,201.551 
		57.755,202.014 58.219,202.639 58.381,203.253 58.381,203.867 58.068,204.492 57.292,205.418 57.142,206.032 57.142,206.808 
		57.454,207.572 57.917,207.884 58.381,208.197 58.994,208.499 59.77,208.66 62.85,208.961 63.625,208.66 64.401,208.197 
		65.015,207.108 65.166,206.032 64.702,202.941 65.941,200.787 68.256,199.861 68.87,199.861 69.796,200.161 70.422,201.25 
		71.035,201.4 71.811,201.25 72.888,200.625 73.663,199.861 74.126,199.085 75.516,196.619 75.979,195.844 76.743,195.38 
		77.519,195.229 81.687,196.92 83.389,197.695 84.003,198.008 84.779,197.846 85.705,197.546 88.02,195.993 89.248,195.38 
		91.1,195.068 97.583,191.825 98.209,191.062 99.135,190.599 100.061,190.436 101.289,190.899 102.215,191.062 102.991,191.062 
		109.011,188.746 110.4,188.584 112.103,189.208 113.179,189.974 115.646,192.451 116.271,192.915 118.123,192.601 123.518,189.359 
		123.831,187.82 123.981,187.194 124.607,185.504 125.07,184.578 125.684,183.953 127.536,183.026 128.312,182.412 128.613,181.487 
		128.775,180.711 129.076,180.097 129.388,179.634 130.466,179.171 131.241,179.171 132.017,179.483 133.557,180.097 
		134.333,180.248 135.097,180.41 136.022,180.248 136.648,179.785 137.111,179.171 137.111,178.095 136.799,177.318 
		136.185,176.705 135.409,176.393 134.946,175.929 135.097,175.315 137.111,173.925 138.038,172.837 141.43,165.59 141.742,164.814 
		141.742,164.039 141.58,163.274 140.967,162.649 140.353,162.348 138.038,161.573 137.412,161.109 136.949,160.495 
		136.335,159.106 136.486,158.33 137.261,156.327 137.574,155.552 137.725,154.776 137.725,154.012 137.574,153.237 137.725,152.31 
		137.875,151.696 138.5,151.071 139.265,150.92 140.191,151.384 140.816,151.997 141.893,152.623 143.745,152.923 151.005,152.31 
		152.082,150.92 152.231,147.991 152.395,146.752 152.395,145.514 151.769,144.587 150.379,143.198 149.766,142.584 
		149.454,141.809 149.152,140.269 148.839,139.656 148.527,139.03 148.226,138.417 148.226,137.64 148.377,135.95 148.226,135.325 
		147.763,134.561 147.3,133.786 146.675,133.009 146.374,132.547 146.211,131.933 146.675,131.157 147.601,130.08 151.931,127.916 
		154.86,125.449 157.025,123.133 157.951,121.744 161.957,114.484 163.196,113.408 164.123,113.096 165.663,112.794 
		166.438,112.481 167.214,112.169 168.441,110.942 169.217,110.316 170.919,109.703 171.846,109.089 172.922,108.001 
		174.312,105.998 174.925,104.758 174.925,103.531 174.462,102.756 173.999,102.142 173.848,101.216 174.161,100.127 
		175.238,98.588 176.164,97.974 177.091,97.974 177.866,97.974 178.63,97.349 179.406,96.272 180.332,94.269 181.108,93.03 
		181.721,92.104 184.187,90.101 184.812,89.326 185.113,88.399 185.113,87.624 184.812,86.396 184.812,85.621 185.427,84.694 
		185.889,83.617 185.889,82.229 184.037,75.896 184.5,73.892 186.966,72.04 188.356,71.414 188.668,70.951 189.595,70.187 
		190.983,69.875 191.134,69.562 192.061,68.636 192.685,68.172 193.299,68.334 193.763,68.797 193.914,69.562 194.226,70.187 
		194.689,70.487 196.691,69.562 197.78,69.411 200.396,70.187 201.786,70.951 204.727,73.116 207.806,75.745 208.27,76.508 
		208.432,77.284 208.895,78.06 209.659,78.824 211.361,79.6 212.287,80.213 213.214,80.99 213.677,81.452 214.29,81.915 
		215.216,82.229 217.23,82.229 221.862,80.676 226.795,77.747 227.57,77.598 228.346,77.598 229.11,78.06 229.573,78.523 
		230.199,78.824 230.812,78.824 233.127,77.435 233.591,77.284 235.293,76.972 240.074,76.972 242.078,76.045 245.319,75.582 
		245.944,75.281 246.558,74.818 246.708,74.193 246.871,73.892 246.708,73.579 246.708,73.267 246.407,72.503 244.556,69.26 
		244.393,68.485 244.393,67.558 245.018,66.633 248.41,64.004 249.186,63.078 249.8,62.002 250.414,60.461 250.726,59.223 
		251.34,57.983 253.191,53.977 253.504,52.589 253.191,51.35 252.729,50.574 252.115,49.648 251.965,48.721 251.803,47.645 
		251.965,46.719 252.115,45.943 255.508,43.164 255.971,42.7 256.435,39.922 256.596,39.459 257.06,39.158 258.75,38.845 
		260.603,37.769 261.228,37.143 264.156,32.362 264.771,32.211 265.234,31.748 265.697,31.436 266.322,29.733 267.398,27.731 
		267.549,27.268 267.549,26.804 267.549,26.341 267.549,25.727 267.398,25.264 267.248,24.951 266.935,24.639 266.785,24.338 
		266.322,24.025 266.01,23.712 265.858,23.412 266.01,22.949 266.623,22.485 268.012,22.173 268.938,22.022 269.563,22.173 
		269.865,22.324 270.641,22.786 271.879,23.875 273.882,24.802 276.511,25.264 277.124,25.102 277.588,24.802 278.201,24.176 
		278.977,21.559 280.829,13.837 279.29,12.911 279.127,12.297 278.825,11.058 278.825,9.356 278.825,7.041 278.664,5.5 
		278.201,4.112 276.661,2.571 276.197,1.645 276.048,0.557 276.974,-3.611 277.438,-4.375 278.201,-4.839 279.903,-5.463 
		280.366,-5.927 280.829,-6.541 280.98,-7.003 281.142,-7.617 281.291,-8.856 281.442,-11.021 281.442,-12.874 281.291,-13.638 
		280.516,-15.652 277.737,-19.196 276.974,-19.82 276.511,-20.435 276.348,-20.585 275.584,-20.747 274.959,-20.897 274.195,-21.21 
		273.731,-21.673 273.419,-22.599 273.106,-24.139 272.805,-25.065 272.343,-25.841 270.327,-28.458 270.178,-29.384 
		270.327,-30.311 271.254,-31.399 273.106,-32.476 274.033,-33.401 275.121,-34.64 275.886,-35.254 276.812,-35.567 
		278.514,-35.254 278.977,-35.405 279.29,-35.405 279.591,-35.868 280.829,-37.569 281.442,-38.346 282.068,-38.808 
		282.832,-39.735 283.458,-40.812 284.071,-42.814 284.684,-44.054 285.148,-45.13 285.772,-46.056 287.161,-47.446 
		287.626,-48.222 287.463,-50.074 	"/>
</g>
</svg>
