<?xml version="1.0" encoding="utf-8"?>
<!-- Generator: Adobe Illustrator 16.0.4, SVG Export Plug-In . SVG Version: 6.00 Build 0)  -->
<!DOCTYPE svg PUBLIC "-//W3C//DTD SVG 1.1//EN" "http://www.w3.org/Graphics/SVG/1.1/DTD/svg11.dtd">
<svg version="1.1" id="Calque_1" xmlns="http://www.w3.org/2000/svg" xmlns:xlink="http://www.w3.org/1999/xlink" x="0px" y="0px"
	 width="500px" height="500px" viewBox="0 0 500 500" enable-background="new 0 0 500 500" xml:space="preserve">
<path id="Pays_de_la_Loire" fill="#FFFFFF" stroke="#010101" stroke-width="2" stroke-linecap="round" stroke-linejoin="round" d="
	M54.991,379.155l-4.995-2.265l-2.482-0.455l-2.277,0.455l-0.9,1.584l1.58,3.4l10.433,0.224l2.94,1.136l-1.36-2.494L54.991,379.155z
	 M74.923,334.295l-1.359-1.36l-4.299-2.263l-1.359-1.591l-0.237-2.718l0.458-2.49l-0.221-2.269l-2.719-1.585l-2.276-0.455
	l-7.478,0.455l2.277,2.945l2.04,7.252l2.039,2.943l3.398-1.811l3.398,2.266l2.719,4.304l1.801,4.306l2.039,1.361l0.68-2.494
	l-0.221-3.854L74.923,334.295z M471.189,105.009l-1.138-0.68l-1.121-0.229l-4.08-0.226l-1.358-0.455l-6.354-4.758l-3.619,0.91
	l-2.72-0.68l-3.178-2.04l-1.358-1.36l-1.122-1.588l-2.719-4.529l-2.277-2.719l-1.58-0.91h-1.36l-0.457,0.455l-0.222,0.225
	l-0.222,0.23l-4.995-0.23l-11.096-3.169l-1.819-0.909l-0.221-0.68l0.221-1.81v-1.134l-0.221-1.359l-0.681-1.585l-0.899-0.454
	l-1.139,0.454l-1.818,0.45l-2.719-0.45l-3.618-2.039l-2.04-1.589l-1.359-1.81l-1.139-2.493l-0.679-2.04l-0.443-2.493l-0.237-5.438
	l0.681-5.208v-1.589l-0.221-1.359l-0.681-1.81l-0.9-1.134l-1.598-0.905l-5.438-2.493l-2.039-0.456h-1.802l-11.554,2.719
	l-2.277,1.814l-1.359,0.68l-1.58,0.455l-1.36,1.13l-0.901,1.359l-0.917,1.814l-0.9,1.36l-0.679,0.68l-0.681,0.454l-1.359,0.45
	h-0.901l-0.917,0.23l-0.68,0.225l-0.899,0.68l-0.46,0.905l-0.441,2.494l-0.681,0.905l-1.817,0.229l-2.26-0.909l-1.597-0.451h-1.36
	l-7.698,0.905l-0.458-9.97l-0.679-1.584l-1.124-1.584l-1.138-0.229h-1.138l-1.801-0.905l-2.278-2.039l-4.299-5.212l-1.359-2.719
	l-0.221-2.264l0.68-1.36l0.221-2.264l-0.68-1.36l-1.138-0.909l-8.157-3.169l-1.121,0.68l-0.459,0.905l0.222,1.359l0.237,1.359
	l-0.237,1.134l-0.681,1.13l-1.12,0.91l-1.599,0.679h-2.939l-1.818,0.451l-1.359,0.679l-1.358,1.815l-0.681,0.904l-0.681,0.91
	l-1.801,0.45l-8.835-2.489l-6.578-0.68l-1.579,0.225l-1.358,0.226l-1.14,0.679l-4.299,4.758l-1.139,0.91l-1.358,0.68l-11.335,2.719
	l-1.121-0.455l-0.459-0.905l-0.46-1.133l-0.899-0.905h-1.359l-6.338,1.81l-0.918,0.455l-0.44,1.134l-0.239,1.129l-0.901,1.135
	l-1.58,0.68l-1.139-0.225l-0.9-0.909l-0.917-1.13l-0.9-0.679h-1.139l-0.901,0.679l-1.139,0.45l-0.9-0.679l-0.68-1.13l-1.138-3.628
	l-1.359-2.489l-2.039-1.814l-4.759,0.905l-0.9-0.451h-0.68l-0.459-0.455l-2.719-1.134l-1.358,0.229l-0.901,0.45l-0.221,0.455
	l-0.68,0.225l-4.316,1.135h-4.299l-6.576-1.135v7.932l-0.442,3.398v3.398l1.58,14.499l0.222,3.854v2.265l-0.222,0.909l-2.497,4.983
	l-0.68,1.584l-0.68,2.269l0.237,1.584l0.222,0.905l0.458,0.679l0.221,0.455l0.901,2.039l0.237,0.905l0.221,1.134l0.459,3.853
	l0.221,1.13l0.901,5.667v1.13l-0.222,0.909l-0.458,0.45l-0.442,0.455l-0.237,0.455l-0.442,0.905l1.58,12.009l0.222,0.451l0.459,0.91
	l0.68,1.13l2.039,1.813l0.68,1.134v1.359l-0.221,2.264v2.265l0.441,3.399v1.588l-0.221,0.905l-0.221,0.226l-0.918,0.679l-1.121,0.68
	l-1.36,0.454l-2.039,0.226l-4.536,0.229l-1.58,0.226l-1.359,0.679l-1.36,0.905l-1.139,1.135l-1.817,2.493l-0.68,1.13l-0.442,1.359
	l-0.918,2.719l-1.359,6.572l-0.68,2.943l-1.359,3.174l-0.68,2.039l-1.121,5.212l-0.68,1.585l-0.68,1.134l-1.139,1.359l-1.139,5.663
	l-12.914-2.263l-1.801-0.68l-1.819-1.36l-0.458-1.359l-0.901-1.589l-1.138-0.679l-1.359-0.451l-2.719-0.229l-3.84,0.229
	l-1.359,0.905l-2.039,2.039l-13.373,6.342l-2.719,2.04l-1.138,1.134l-0.901,1.135l-0.9,1.36l-0.68,1.358l-2.277,1.809l-3.619,2.04
	l-15.633,4.988h-1.359l-2.499-0.455l-4.078-1.584l-9.278,3.397l-2.719,1.81l-4.537-0.225l-4.078,0.68l-0.9,0.224l-0.459,0.23
	l-1.818,1.585l-4.078,2.264l-0.9,3.399l0.221,0.678l0.458,1.135l-0.221,0.68l-0.238,0.904v0.68l0.238,0.91l-0.238,0.904
	l-0.442,0.906l-0.917,2.269l-1.58,8.381l-1.359,2.493l-1.58,1.359l-1.36,0.451l-1.598,1.135l-0.9,1.584l-0.68,2.039l-1.138,1.589
	l-0.68,0.68l-0.901,0.225l-0.901-0.454l-0.459-0.906l-0.221-0.68v-0.904v-1.134v-0.456l-0.458-0.45l-1.139-0.229l-2.26,1.359
	l-1.818,0.68l-1.581,0.229l-1.138-0.456l-0.679-0.454l-0.221-0.224l-0.222-0.226l-0.458-0.454l-0.9-0.456l-1.36,0.229l-0.917,0.45
	l-0.441,0.23l-0.238,0.226l-0.441,1.134l-0.68,1.584l-1.139,1.815l-1.817,2.488l-1.36,0.909l-1.359,0.226l-1.359-0.226h-1.36
	l-2.48,0.68h-1.139l-1.137-0.454l-1.123-0.906l-1.359-0.68l-1.597,0.226l-0.9,0.68l-0.9,1.584h-0.239h0.68l2.04,1.359l-1.122,2.719
	l2.039,0.91h3.161l2.039,0.451l-0.441,1.359l-4.537,2.493l-1.139,1.359l-0.9-1.135l0.459-0.451h0.221l0.221-1.133l-2.26-0.456
	l-1.359-0.678h-1.359l-10.416,6.116l5.438,3.399l1.58,2.948l0.221,5.662h0.917l0.68-1.814v-0.679l-0.68-1.36l0.45-0.45l0.45-0.229
	l0.91-0.45l2.039,2.719l2.49,2.49l1.138,2.493l-2.268,2.719l-2.949,0.455l-5.659-2.72l-2.948-0.454v1.359l12.235,6.344l3.848,0.229
	l0.229-0.455l0.229-1.135l0.45-1.358l1.13-0.903l0.909-0.227h1.13l2.269,0.227l2.039,1.133l3.169,3.623l2.039,1.814l2.269,0.904
	h2.49l2.498-0.904l2.939-2.947l3.857-1.131l1.359-1.359l0.68-1.133l0.451-1.137l0.909-1.359l4.079-2.488l17.892-1.135l4.989,1.359
	l1.809,1.814l1.139,0.449l3.169,0.23l2.489,0.904l4.537,2.719l4.529,3.852l3.849,4.76l2.268,1.809l5.438,1.135l2.719,1.815
	l-7.027-0.229l-2.939-1.359l-2.947-3.17l-1.359-0.909l-5.438-1.13l-5.208-3.854v-1.359h2.719l-1.139-1.359l-1.359-0.904l-1.36-0.453
	h-1.58l0.901,1.357h-2.039l-6.576-1.814l-0.901-0.904l-1.139-1.359l-0.9,0.225l-0.9,0.457l-0.917,0.678l-11.997,1.135l-3.178,1.359
	l-1.139,1.584l-0.9,2.266l-0.458,2.492l-0.222,2.04l0.459,2.944l1.36,2.947v2.49l-0.459,2.717l-0.458,1.592l-0.901,0.678
	l-4.299,0.681l-1.597,1.129l-1.36,1.36l-1.8,1.134l4.52,2.495l14.954,2.717l7.714,4.305l2.04,2.039l1.359,2.265l1.36,3.397
	l0.22,3.174l-2.26,1.813l-1.597,3.397l-2.26,6.799l-1.581,2.943l-4.996,3.172l-1.802,2.04l0.68,2.72l-3.398,2.49l-0.918,2.039
	l-0.221,4.076l0.221,3.173l0.459,3.626l0.9,2.947l1.597,1.129l3.398,1.136l4.078,2.942l7.24,7.477l3.857,7.933l1.138,1.133
	l2.04,0.228l2.26,0.679l1.819,1.358l1.359,4.76l1.581,1.813l2.039,1.81l2.039,2.27l0.901,2.262l0.679,2.495l1.139,2.039l2.04,0.906
	l-0.459,3.173l2.957,13.817l1.122,1.813l1.139,0.681l0.458-0.91l-0.237-1.584l-0.68-3.173v-2.265l1.137,2.039l1.36,4.079l0.9,1.584
	l1.598,0.91l3.619,0.903l4.299,3.854l7.035,1.131l2.039,2.037l-1.138,2.27l3.398,1.131l8.615,0.453l3.62,0.681l2.94,2.039
	l2.039,3.398l0.679,4.757l1.36,4.078l3.398,0.222l6.797-2.261l1.818,0.681l2.939,2.499l4.078,2.481l1.359,0.229l2.039,0.678
	l2.277,3.628l2.48,2.941l3.398,0.908l-0.221-5.889l4.759-2.94l5.896,0.444l1.801,2.496l0.68-1.138l2.278-3.398l0.899-0.901
	l1.359-0.681l7.937-2.039l2.719-0.228l1.351-0.45l2.488-1.139l1.14,0.23l0.9,1.358l-0.221,1.359l-0.68,1.129l-0.9,0.91l-0.68,1.129
	l0.44,0.91l1.36,0.681h2.498l1.359-0.229l1.58-0.681l4.078-0.681l0.68-0.448l2.039-0.681h2.04l3.398,0.45l8.836,5.665l1.597-0.448
	l2.039-1.138l0.901-0.681l3.398-1.803l1.358-0.236h3.858l0.9-0.221l0.9-0.681l3.856-4.3l1.14-0.678l1.121-0.237h1.138l1.141,0.237
	h0.679l0.9-0.46l0.901-0.901l0.459-1.358l-0.222-1.359l-1.599-1.818l-4.519-3.623h-0.917l-0.68,0.45l-0.901,0.229l-0.901-0.91
	l-0.457-2.718l0.221-1.812l0.917-2.947l0.221-1.131v-1.134l-2.039-9.969l0.46-1.81l0.898-1.136l0.901-0.903l0.681-1.134l0.236-1.136
	l-0.236-1.81l-1.122-5.438l-0.238-3.853l-0.442-1.359l-0.678-1.584l-1.599-2.039l-0.68-2.039l-0.221-1.592v-1.358v-1.358
	l-0.46-1.584l-0.679-1.814l-3.397-7.249l-3.399-5.665l-1.121-3.171l-0.239-2.039l1.36-2.492l0.458-1.136l0.222-0.903l-0.442-1.136
	l-1.138-1.584l-2.72-2.492l-7.477-4.76l-1.139-1.584l-1.12-2.039l-0.918-3.173l-0.222-3.849l-0.458-1.589l-1.581-2.265l-3.397-2.039
	l-1.36-2.039l-1.818-3.624l-1.801-2.039l-4.758-3.397l0.221-1.137v-0.453l0.222-0.905l0.916-0.679l1.802,0.453l1.359,0.451
	l4.996,3.398l1.122,0.68l1.359,0.229h1.817l7.478-1.357l3.619,1.129l7.256,0.681l8.378-0.905l2.496-0.904l0.681-0.455l2.261-2.039
	l5.674-2.721l0.681-0.902v-1.137l-1.598-2.262l-0.22-1.361l0.457-1.133l1.123-1.134l1.139-0.681l2.718-0.904l1.359-0.227l1.36,0.227
	l2.939,1.585l1.818-0.226l7.255-2.265l3.618-1.591l13.815-1.807l7.478,0.225l2.499-0.68h1.358l1.36,0.455l1.58,1.358l0.68,1.81
	l0.229,1.588l0.451,1.359l0.68,0.906l3.178,1.133l1.579-3.173l0.681-1.134l1.139-1.131l3.62-1.133l1.358-0.682l1.138-1.813
	l0.451-1.358l0.229-1.359l0.45-1.361l4.309-5.437l2.261-0.679l6.796,1.359l1.818-14.501l2.26-10.872l0.68-2.266l0.68-1.36
	l1.358-2.493l3.629-4.983l3.627-6.116l0.222-1.59l-0.899-3.623l0.221-1.815l1.589-4.757l0.679-2.719l4.079-9.286l0.229-1.36
	l-0.229-1.359l-0.909-3.398v-2.494l0.46-2.264l2.938-8.156l5.668,1.584l3.628,0.456l7.477,2.263l1.81-0.225l0.681-0.908l-0.23-1.13
	l-0.45-2.27l-0.229-1.13v-1.359l0.459-1.359l1.581-1.36h1.359l2.947,1.81l1.589,0.455l0.9-0.455l0.46-0.904l1.13-1.134l2.039-1.359
	l5.208-1.13l7.025-3.628l1.589-0.451l1.811-0.229l1.129-0.45l0.681-0.909v-1.13l-0.221-1.134l-1.139-2.719l1.589-4.078l2.948-3.173
	l2.719-1.81l1.359-0.455h0.221l2.949-1.36l3.849-2.493l1.817-1.585l1.359-1.584l3.399-10.65l0.22-1.359v-1.36v-1.584l-0.22-1.359
	v-1.36v-1.588l0.459-1.81l0.678-2.039l1.581-1.589l1.818-1.13l2.939-2.949l1.139-1.809l0.442-1.589l-0.9-2.719l-0.221-2.04
	l0.221-2.265l1.138-4.078l0.221-2.039l-0.679-1.134l-2.261-0.225l-0.917-0.225l-0.681-0.909l-0.441-1.13l-0.68-1.359l-0.458-1.588
	v-1.585l0.899-0.905l1.139-0.455h2.72l1.358-0.225l1.14-0.909v-0.905l-0.681-0.905l-0.917-0.68l-0.9-0.909l-0.221-1.584l0.441-0.905
	l1.597-0.909l4.758-3.398l2.48-1.13l1.14-1.36v-1.134L471.189,105.009z"/>
<polygon id="Centre" fill="#FFFFFF" stroke="#010101" stroke-width="2" stroke-linecap="round" stroke-linejoin="round" points="
	733.335,104.555 735.136,104.555 737.414,104.78 742.392,106.139 743.971,107.274 745.11,107.953 746.01,109.088 746.47,110.447 
	748.969,119.963 749.869,121.547 751.006,122.907 755.085,126.08 757.123,128.345 757.565,129.704 757.805,131.063 758.246,134.462 
	757.565,136.955 755.085,142.843 753.947,144.657 752.808,145.562 750.089,147.151 748.73,148.281 746.69,150.775 745.789,151.909 
	744.652,152.36 742.85,152.134 742.392,152.589 741.933,153.948 742.612,158.931 743.07,160.745 744.21,163.009 744.652,164.144 
	743.971,165.729 743.293,166.862 742.85,167.768 742.612,168.901 743.07,170.261 743.07,171.62 743.07,172.979 741.933,174.79 
	740.811,175.699 736.495,177.283 732.416,180.001 731.058,180.457 729.936,180.457 727.438,180.227 724.94,180.681 723.58,181.137 
	722.68,181.816 721.779,182.721 721.542,183.176 721.1,184.985 721.1,186.799 721.32,188.384 721.779,189.519 723.139,190.423 
	724.262,190.423 725.619,190.877 726.759,191.782 730.379,195.182 731.976,196.769 733.775,200.393 734.457,202.432 
	734.457,204.247 733.098,206.511 733.335,208.094 734.015,209.91 737.854,214.893 738.993,218.065 736.274,218.97 731.296,218.97 
	729.936,219.426 724.72,222.369 724.72,223.278 724.262,223.958 727.659,228.261 729.019,230.979 730.156,234.378 731.058,235.964 
	733.335,238.911 734.015,240.041 734.235,240.95 734.235,242.31 733.335,247.748 732.875,248.426 732.196,250.236 731.737,251.596 
	731.516,252.275 731.058,253.186 729.698,256.128 728.118,258.168 726.979,260.662 726.759,261.342 726.759,262.021 
	726.979,263.152 727.896,264.74 728.577,265.645 729.019,266.1 729.698,266.55 730.156,267.004 731.516,267.458 731.976,267.684 
	732.416,268.139 735.814,272.668 736.732,273.576 738.772,274.936 739.452,275.615 739.894,276.746 740.353,278.333 
	741.711,285.131 741.933,285.812 742.85,287.849 744.652,293.289 746.249,298.951 746.47,299.629 747.37,303.027 747.37,304.387 
	747.37,305.973 747.149,308.92 746.928,310.506 747.149,311.865 747.83,313.225 748.287,313.902 750.77,316.17 751.229,316.622 
	751.687,317.077 751.907,317.756 752.128,321.381 752.128,326.139 752.587,328.402 752.808,329.762 752.808,331.35 752.366,333.39 
	751.449,337.693 750.327,340.866 750.089,341.771 750.089,342.676 750.327,344.264 750.548,345.17 752.128,348.115 752.128,348.793 
	752.366,349.472 752.587,350.833 752.128,352.191 751.229,354.23 748.287,359.898 747.609,361.482 747.37,361.938 746.928,366.017 
	743.293,366.017 739.894,365.561 734.015,367.375 725.858,372.812 724.94,373.493 724.04,375.532 723.359,376.891 722.001,378.25 
	720.642,378.022 719.282,377.569 717.701,377.342 716.563,378.022 714.523,380.289 713.385,380.515 709.087,378.7 708.407,377.795 
	707.947,377.116 706.826,376.661 706.147,377.342 704.107,379.834 700.251,383.234 697.991,385.048 694.592,385.048 
	693.912,385.727 693.912,386.633 694.353,389.35 693.675,390.485 692.314,390.711 689.374,390.485 688.474,390.711 688.017,391.39 
	688.017,392.525 688.474,393.429 689.834,395.468 690.275,396.604 690.056,397.282 689.153,399.091 688.916,400.45 689.153,401.586 
	689.834,402.944 691.873,405.439 692.553,406.568 692.994,407.701 693.231,408.382 693.452,409.288 693.452,410.196 
	693.231,411.102 692.773,411.555 681.897,414.726 675.78,415.178 672.162,416.084 671.022,416.084 669.664,415.858 667.624,416.084 
	665.127,416.765 657.208,420.618 655.39,423.791 654.029,425.149 652.893,425.83 651.99,426.055 651.09,426.733 650.411,427.64 
	649.494,429.906 646.095,435.797 633.181,435.116 626.383,436.705 622.084,434.891 614.608,434.891 613.707,434.665 
	610.988,433.077 609.392,432.626 597.836,432.396 596.477,432.626 595.117,433.077 592.397,435.116 591.276,435.797 
	589.458,435.569 588.32,434.436 585.602,430.812 584.48,429.906 583.342,429.906 582.202,430.134 581.081,431.718 580.842,433.077 
	580.842,434.21 581.081,435.569 581.081,436.705 580.621,437.836 580.164,438.97 579.042,439.868 577.445,440.328 572.007,438.97 
	570.646,439.429 569.067,440.549 567.709,441.689 566.569,442.825 564.99,443.048 562.729,442.588 561.591,441.466 561.37,440.328 
	561.591,439.19 560.911,438.289 559.551,437.608 556.153,438.289 554.335,437.836 552.975,437.155 551.616,436.93 549.578,437.385 
	541.199,446.226 537.122,448.706 531.224,444.864 530.546,443.727 530.104,442.367 529.186,441.229 528.063,440.328 
	526.705,440.107 524.887,441.009 524.207,442.146 523.748,443.269 522.847,444.406 521.028,444.864 515.371,445.545 
	513.552,445.545 511.973,445.308 510.155,443.947 508.573,443.727 506.312,441.907 508.573,434.21 506.993,431.945 504.496,430.356 
	503.137,429.453 501.777,427.414 501.557,425.83 502.677,421.296 502.677,420.618 502.235,419.484 501.777,418.578 501.098,417.218 
	499.958,416.084 498.838,415.178 497.698,414.726 496.34,414.274 488.403,414.274 486.823,413.594 486.143,412.461 485.922,409.516 
	485.005,408.607 484.104,408.156 481.605,407.477 477.986,405.439 475.047,402.719 473.449,400.905 472.329,399.091 
	471.649,396.148 471.189,393.654 471.189,389.805 471.41,388.672 471.649,387.538 472.091,386.177 472.55,385.048 472.55,383.234 
	472.091,380.97 470.51,377.569 469.61,375.755 466.892,372.582 461.454,368.053 446.041,345.17 443.323,337.013 441.963,334.295 
	440.604,332.711 439.243,331.801 436.525,330.672 429.27,326.139 427.689,325.457 427.469,325.913 427.23,326.139 427.469,326.818 
	427.469,327.271 427.469,328.857 427.689,329.536 427.91,329.991 428.368,330.441 428.59,331.12 428.827,331.576 429.048,332.256 
	429.27,332.935 429.27,333.615 428.827,334.295 427.689,334.75 426.551,335.199 416.134,335.654 413.874,336.334 412.735,336.787 
	412.057,337.693 411.155,338.598 409.796,339.053 403.899,337.919 398.241,338.598 395.743,337.919 394.385,336.787 
	393.483,335.429 393.024,334.07 392.804,332.711 392.804,329.991 392.804,326.363 393.704,322.515 393.925,320.246 393.704,319.117 
	393.245,318.206 392.124,317.98 389.404,317.756 388.487,316.848 387.808,314.809 386.906,314.357 385.77,314.13 382.829,315.264 
	381.248,315.719 379.431,315.719 378.292,315.038 378.07,313.902 378.292,312.543 378.75,311.185 378.971,309.826 378.75,308.24 
	378.292,306.881 377.171,306.428 374.214,307.562 372.412,307.562 371.732,306.653 371.494,305.748 371.494,304.387 
	371.732,303.253 371.053,302.124 370.136,302.124 367.876,303.482 366.516,303.708 365.378,303.253 364.698,302.124 
	364.018,300.766 363.338,299.629 361.979,297.137 364.018,282.412 366.295,271.762 366.975,269.268 367.655,267.908 
	369.234,265.421 372.854,260.432 376.49,254.314 376.49,252.73 375.81,249.106 376.03,247.293 377.612,242.535 378.07,239.816 
	382.148,230.525 382.369,229.166 382.148,227.582 381.248,224.183 381.248,221.689 381.689,219.426 384.868,211.268 
	390.526,212.853 394.162,213.307 401.639,215.572 403.44,215.346 403.899,214.442 403.678,213.307 403.22,211.043 402.999,209.684 
	402.999,208.324 403.44,207.19 405.038,205.831 406.397,205.831 409.338,207.645 411.155,208.094 412.057,207.645 412.277,206.511 
	413.415,205.377 415.454,204.018 420.671,202.887 427.689,199.259 429.27,198.808 431.087,198.579 432.447,198.129 432.906,197.22 
	432.906,196.089 432.668,194.956 431.546,192.236 433.127,188.159 436.067,184.985 438.564,183.4 440.145,182.946 440.383,182.946 
	443.323,181.361 446.942,178.868 448.76,177.283 450.119,175.699 453.519,165.049 453.738,163.689 453.738,162.33 453.738,160.745 
	453.519,159.386 453.519,158.026 453.519,156.438 453.978,154.628 454.655,152.589 456.236,151.229 458.055,149.87 460.994,146.921 
	462.133,145.112 462.575,143.523 461.675,140.805 461.675,138.765 461.896,136.5 462.812,132.423 463.033,130.384 462.354,129.479 
	460.094,129.25 459.177,129.024 458.734,128.119 458.275,126.985 457.596,125.626 456.917,124.041 456.917,122.452 457.816,121.547 
	458.955,121.322 461.675,121.093 462.812,120.867 464.173,119.963 464.173,118.829 463.492,117.924 462.354,117.244 
	461.454,116.334 461.454,114.75 461.896,113.846 463.492,112.937 468.012,109.768 470.73,108.633 471.87,107.274 471.87,106.139 
	471.189,105.009 470.052,104.33 468.931,104.101 464.851,103.875 463.492,103.42 457.138,98.663 458.734,97.758 459.636,96.853 
	460.535,95.719 460.773,94.134 460.314,92.095 459.636,90.506 457.375,86.658 457.138,86.203 456.917,85.523 456.694,84.164 
	456.694,82.58 457.138,80.085 456.917,78.501 456.458,77.142 455.557,76.462 454.655,75.328 453.978,73.968 454.655,71.704 
	455.098,70.344 455.777,69.665 456.694,69.436 458.955,68.985 460.773,68.531 469.61,64.907 472.329,63.093 476.17,59.469 
	476.849,58.335 477.528,55.616 478.208,54.482 478.889,53.123 480.026,51.763 480.705,50.404 480.484,49.045 479.126,47.005 
	477.986,45.646 477.087,44.516 476.628,43.382 476.406,41.567 476.406,40.209 476.406,38.849 476.849,37.489 476.849,37.264 
	477.087,36.585 477.087,35.68 476.849,34.32 476.17,32.961 469.372,25.255 465.531,22.991 463.935,21.177 461.675,16.874 
	460.314,13.929 459.414,5.093 463.714,0.56 465.072,-0.573 466.653,-1.479 479.126,-5.103 480.484,-5.103 481.845,-4.877 
	483.203,-5.103 484.563,-5.782 485.685,-7.371 486.365,-8.73 487.282,-10.09 488.403,-10.995 490.222,-11.675 491.582,-11.899 
	494.3,-11.675 494.521,-11.675 494.979,-11.675 495.881,-11.899 496.561,-12.579 497.019,-13.713 497.019,-16.207 497.478,-17.111 
	498.157,-17.337 499.737,-16.657 503.137,-13.488 504.496,-13.034 505.854,-12.809 507.215,-12.579 511.752,-13.034 
	513.111,-12.809 514.232,-12.354 515.371,-11.449 515.592,-11.449 516.05,-11.675 516.73,-11.899 522.168,-15.073 525.345,-16.432 
	526.705,-17.566 528.063,-18.926 528.964,-21.644 529.424,-23.684 530.324,-25.494 531.684,-27.308 534.623,-30.026 
	536.662,-31.386 539.84,-32.97 540.979,-33.879 541.879,-35.239 542.339,-37.277 542.339,-38.638 541.199,-42.94 541.42,-44.525 
	542.1,-45.66 547.317,-48.833 554.335,-34.784 556.374,-32.065 557.291,-30.251 557.971,-27.533 557.971,-25.723 557.734,-23.909 
	557.054,-21.19 556.831,-19.831 556.831,-18.926 556.831,-18.017 557.054,-15.978 557.291,-15.073 558.191,-13.939 561.812,-11.675 
	562.049,-11.22 562.049,-10.54 561.812,-8.956 561.132,-7.596 559.093,-5.103 558.413,-3.743 557.971,-2.383 558.191,-1.253 
	558.413,-0.345 560.451,0.785 561.591,1.92 562.729,5.318 563.851,7.357 565.669,9.396 572.246,14.155 573.825,15.514 
	574.505,17.328 574.963,20.047 575.406,21.406 576.544,22.766 578.804,24.125 580.402,25.255 581.761,27.294 582.202,28.883 
	582.441,30.467 582.661,31.827 582.661,32.961 582.441,35.905 582.441,37.264 582.661,37.489 583.8,40.209 585.158,42.022 
	587.198,43.836 593.537,47.235 596.936,48.365 601.692,47.46 602.593,48.365 602.832,52.897 603.053,54.482 604.411,56.071 
	605.55,56.976 606.672,58.335 607.81,60.374 608.27,64.907 608.949,67.396 610.069,69.436 612.568,70.795 613.027,71.475 
	613.027,72.609 611.209,75.328 610.069,76.462 609.392,77.367 609.392,78.501 609.628,79.631 611.667,80.991 630.461,76.687 
	634.999,74.648 636.137,73.514 636.817,72.384 637.938,69.665 638.855,68.985 640.216,68.756 641.795,70.116 643.155,71.249 
	643.834,72.609 644.055,73.968 644.734,74.874 646.332,75.328 649.73,74.422 651.09,73.289 651.99,71.929 652.893,71.249 
	654.25,71.024 659.927,74.422 664.905,73.514 666.945,76.232 667.624,78.046 669.441,85.298 669.664,85.978 669.885,86.203 
	677.141,91.187 678.958,93 679.859,94.584 679.859,95.944 679.4,97.079 678.041,99.572 678.041,100.022 678.041,100.477 
	678.958,102.061 679.179,103.196 678.958,104.101 678.278,104.78 677.82,105.009 674.422,104.33 673.283,104.33 672.383,105.235 
	671.702,106.369 671.481,107.499 671.702,108.633 672.602,109.768 673.741,110.672 675.78,111.126 677.6,111.126 682.119,109.768 
	684.396,109.538 702.068,110.898 703.87,110.447 706.368,108.633 707.727,107.274 708.628,105.915 709.986,104.78 712.025,104.101 
	715.424,103.65 717.021,104.33 717.463,105.235 716.784,106.369 716.343,107.729 716.343,108.858 718.382,109.313 720.182,109.088 
	"/>
<path id="Brittany" fill="#FFFFFF" stroke="#010101" stroke-width="2" stroke-linecap="round" stroke-linejoin="round" d="
	M-49.463,264.061l-1.58-0.679l-4.537-4.534l-0.459-0.455l-3.16-2.49l-5.896-3.172l-1.581-0.455l-1.138-1.129h-0.901l-0.459,1.129
	l-1.138,1.135l0.68,2.718l1.359,3.174l0.918,3.169l-0.459,2.95l2.26,1.583l6.796,2.041l10.196,0.902l3.398-0.902l0.459-3.624
	l-1.359-1.59L-49.463,264.061z M-301.853,42.477l-0.238-0.455l-0.221-0.455l-2.498-1.13l-2.94,0.905l-5.438,2.944v1.359l3.399-0.904
	l1.358,0.454l0.68,1.81h-0.458l-0.901-0.225h-0.459v1.359l2.276-0.455l6.56-3.398v-1.36l-0.9,0.23L-301.853,42.477z
	 M217.882,128.345v-2.265l0.237-2.268v-1.36l-0.679-1.13l-2.04-1.813l-0.679-1.134l-0.46-0.905l-0.221-0.455l-1.597-12.005
	l0.458-0.909l0.222-0.45l0.458-0.455l0.459-0.455l0.221-0.905v-1.134l-0.9-5.663l-0.237-1.134l-0.442-3.85l-0.237-1.134
	l-0.222-0.905l-0.9-2.04l-0.237-0.454l-0.442-0.68l-0.237-0.905l-0.221-1.589l0.679-2.265l0.681-1.583l2.497-4.988l0.221-0.905
	v-2.265l-0.221-3.853l-1.597-14.499v-3.398l0.458-3.399v-7.931l-3.397-1.584l-2.039-1.813l-13.374-3.853l-3.161-0.451l-2.276,0.226
	l-1.121,1.134l-1.818,2.718l-0.9,1.13l-1.139,0.91l-1.139,0.68l-3.16,1.13l-1.359,0.91l-2.719,2.719l-2.039,1.359l-3.637,1.359
	h-2.94l-1.819-0.454l-1.359-1.135l-0.901-1.13l-3.177-2.269l-0.9-1.13l-3.858-7.026l-1.121-2.719l-0.459-1.359l-0.459-2.264
	l-0.221-1.134l-0.679-0.905l-0.68-2.264l-2.039-4.078l-1.139-2.719l-0.441-1.359l-0.238-0.91l-0.442-1.585l-0.238-0.454l-0.68,0.229
	l-6.338,3.398l-10.195,1.585l-9.516-0.226l-5.438-1.588l-2.939-3.399V4.413l3.16-5.212l-0.9-1.359l-0.459-1.134v-0.905l0.459-0.905
	l-13.135,2.719l0.9,1.359h-4.978l-1.139,0.68l-0.221,1.36v1.359l-0.459,0.68l-2.039,0.679l-1.58,1.36l-0.917,1.81l-0.442,1.589
	l1.359,2.489l2.481,5.893l1.138,1.134h1.58l1.36,0.45l1.138,1.134l0.901,2.264l-1.58-1.13l-0.459-0.679l-0.442-0.909h-0.918
	l0.459,3.172l1.817,3.399l-0.679,1.584l3.619,2.494l-4.078,2.719l-1.359,1.359l0.459-4.304l-0.68-2.718l-3.398-4.988l0.442-0.679
	l0.458-1.81l-1.58-0.679l-1.139-1.359l-0.68-2.04l-0.221-2.039l-2.719-4.987l-0.238-0.905l-6.117,0.68l-5.88,2.039l1.121,2.719
	l0.679,1.359l0.918,1.134l-1.597-1.814l-1.58-0.225l-1.58,1.13l-1.36,2.268l1.121,1.13l0.459,0.229v1.359l-2.04,1.13l-1.137-1.13
	l-0.68-2.493l-0.442-2.945v2.49l-0.459,2.039l-0.9,1.589l-1.359,0.679l-0.238-2.039l-0.442-2.269l-0.917-1.81l-1.359-0.68
	l-0.442-1.133l-0.679-4.533l-0.68-1.13l-2.957,1.359l-2.719,2.718l-2.48,1.585l-2.278-1.814l3.637-4.078l0.679-1.13l0.441-1.134
	l0.68-1.134l0.918-0.68V1.465l-1.818,0.229l-1.36-0.68l-0.9-1.36l-0.459-2.268l-1.818,3.628l-3.398,3.398l-3.84,2.49l-3.398,1.36
	l-1.139-2.719l-2.719-0.45l-5.896,1.81l2.498,1.134l1.139,0.226v1.359l-1.819,2.039l-8.836,5.438l-2.26,0.68l-1.36,1.134
	l-0.917,1.135l-3.161,4.757l-2.498,2.719l-2.039,0.905l-5.217-0.225l-0.441,1.359v2.719l-0.458,1.81l-1.819-1.584l-1.121-1.36
	l-1.139-1.134l-1.139-0.68h-1.58l0.901-0.905l0.679-1.134l0.458-1.36l0.459-1.81l-7.477-3.628l-3.178-2.264l-1.58-0.905l-0.68-0.68
	l-0.458-1.134l0.221-0.905l0.459-0.909l-0.222-0.905l-0.458-1.585l-1.359-5.893l-8.378-7.251l-0.917-2.04l-2.04-2.264l-2.26-2.039
	l-1.818-1.36v-1.134l0.459-0.225l1.359-1.134l-0.221-1.359v-1.13l0.221-1.589l-2.498-0.904l-6.559-0.226l-3.399-1.359v-1.36h-1.597
	v-1.134l2.276-1.814l0.9-0.68l1.36-0.45v-0.909l-0.221-0.225h-0.239l-0.441,1.134l0.901-1.359l-1.36-1.134l-1.359-0.455l-1.36,0.455
	l-1.359,1.134l-2.039-0.455l-2.499,3.624l-4.3,8.836h-0.9v-1.584l2.719-3.624l0.9-1.589l1.58-5.208l0.917-1.588l-1.818-1.359v-1.13
	l0.9-1.814v-2.039l-0.9-1.814l-1.58-1.13l-1.598,0.45l-2.481,2.949l-1.359-0.679l-1.139,1.359l-3.177,2.718l-3.841,4.758
	l-1.139,1.81l-0.458,2.493l-0.679-1.359l-0.221-0.454l-0.222-0.905l1.58-2.04l0.901-3.624v-3.853l-0.901-2.944l-2.039-0.455
	l-3.857,4.758l-1.121-0.454h-0.917l-1.581,1.134l-10.875,4.079l-0.901,0.679l-1.359,1.585l-1.138,0.679l-1.581,0.23l-2.957-0.23
	l0.458-0.905l0.221-0.68l0.458-0.455l0.68-0.679l-1.818-0.225l-4.52-2.719l-4.078-0.225l-1.139-0.909h-0.9l-0.68,1.589l-2.719,4.983
	l-3.857,1.814l-1.36,1.584l0.459,3.173l4.52,5.663l1.819,1.135l-6.798,1.13l-0.459,1.359l0.459,2.948l1.36,4.529l-1.819,0.909
	h-3.839l-3.178-0.909v-3.399l-4.537,1.36h-1.58l-1.36-0.68l-2.939-2.719l-1.359-0.68l-6.118,0.229l-2.498-0.68l-1.58-2.493v1.36
	v1.133l-0.238,0.906l-0.442,0.904l-1.597-1.13l-1.122,2.265l-0.458,3.853l0.458,3.399l-1.138-1.134l-0.459-0.68l-0.441-1.135h-0.918
	l0.68,4.079l0.459,1.588l0.68,1.13l-0.901,1.36l0.901,1.359l-0.901,1.359l-1.598-2.264l-3.84-2.494l-1.597-2.039v-1.13l0.679-0.229
	l1.36-1.13l-2.481-0.68l-1.817,0.905l-3.62,3.624l0.68-2.264l-0.239-2.039l-1.121-0.455l-1.359-0.904v-1.36h0.9v-1.133l-1.58-0.68
	l-0.238-0.905l0.458-1.36l0.221-1.813l-0.679-0.905l-4.521,1.359l-2.718,1.813l-1.598,0.68l-1.802,0.45l0.442,1.814v1.359
	l-0.442,1.135l-0.917,0.905h-0.901l-0.458-1.359l-0.68-0.905h-0.68l-0.68,1.13l-2.26-1.359l-3.178-0.226l-2.939,0.68l-2.498,0.905
	l-2.26,1.589l-2.26,2.265l-0.679,2.039l2.48,0.68v1.359h-1.801l-2.957-1.134l-1.58-0.225l-1.359,0.455l-3.857,2.489l-2.94,0.229
	l0.901-4.307l-2.26-2.719l-3.399-0.225l-3.399,1.359l-3.619,2.039l-3.637,0.68v1.359l0.918,0.226l1.801,1.133h-2.94l-4.299,2.04
	l-2.957,0.455h-10.195v1.129l1.139,0.68l0.221,0.68l-0.221,0.679l-0.459,0.91l3.637,1.359h-2.498l-5.896-1.589l-1.581,1.135
	l0.9,2.719l2.958,4.079l-1.599,0.454l-4.299-2.493l-2.498-0.68l-4.078,0.455l-2.481,0.904l-2.04,1.36l0.901,1.358l-1.359-0.679
	l-1.36-0.905l-2.26,3.399l-3.179,5.887l-1.359,5.667l3.399,2.489v1.134l-2.498,0.68l-1.581,2.719l-0.68,3.624l0.222,3.627
	l2.276,5.208l0.22,2.494l-2.497,0.226l0.917,4.078l1.123,2.039l1.817,0.68h6.576l1.122-0.68l0.237-1.359v-1.359l0.442-0.68
	l2.498,0.455l4.537,1.813l2.26,0.451l2.498-0.451l3.84-2.039l6.355-1.588l8.156-5.208l4.079-1.814l8.836-1.359l2.481-0.905
	l4.079-2.268l2.276-0.68l-12.472,7.477l-1.36,1.135l-7.476,9.061v1.134l1.817-0.225l1.818-0.455l1.581-0.68l1.138-1.134l0.901,1.359
	l-0.459,0.455h-0.22l-0.459,0.68l2.957-0.455l4.079-2.944l2.039,0.905l0.441-0.905l0.918-0.905l0.442-0.909h0.917v1.359h-0.917
	v1.359l2.04-0.68l2.957-2.039h2.26l-2.498,2.719l-1.351,0.909l-0.68,0.905v0.905l-1.13,0.455l-0.458,0.454l-1.13,1.81l5.438-0.45
	l0.909-0.229l0.68,2.039l1.58,0.679l1.818-0.45l1.13-1.589l0.45,2.269l1.589,0.679l4.079-0.229v1.358l-10.646,2.27l-2.719-1.135
	h1.81l0.909-0.455l0.9-0.904l-8.607,0.679l-6.117,1.815l-1.589,0.225l-1.58-0.225l-0.909-0.68l-0.909-0.909l-1.359-0.68
	l-11.556,0.91l-3.619-1.813l1.81-7.252l-2.269-0.905l-1.58,1.584l-2.268,6.118l0.229,0.68l0.221,1.359L-240,77.592l-1.589,0.68
	l-1.359-0.225l-1.13-0.455h-1.139l-1.359,0.91l0.459,2.038l-0.459,2.04l7.706,0.225l1.589,0.455l0.9,2.039l-0.45,0.68l-0.909,0.905
	l-0.68,2.265l0.229,1.359l0.679,1.589l1.359,2.265l-0.679,1.359l-1.13,4.078l3.399-1.134l2.259-3.624l1.819-4.533l1.809-3.398
	l3.628-1.13l7.019,4.529l3.177-1.13l0.221,1.359l0.679,1.13l0.901,0.909l1.139,0.68l5.438,1.129l1.818,1.814l0.679,4.304
	l0.442,1.359l1.818,2.269l0.68,2.264l-1.36,5.438l-0.679,1.359l-1.81,0.905l-7.476-2.264l-41.692,9.29l-0.68-0.229l-0.9-1.13h-0.459
	l-0.458,0.679l-0.221,0.679v0.68l-0.68,1.36l-0.459,1.129l-0.671,1.135l-0.909,0.679l9.736,2.719l4.316-0.225l2.26,0.45l3.857,3.853
	l1.581-0.905l1.588-2.039l1.81-1.134l1.36,0.68l11.555,9.061l6.118,7.931l2.038,3.624l1.36,5.213l2.039,4.983l0.459,3.398
	l-0.459,1.359l-1.13,0.23h-1.13l-0.918,0.45l-0.221,1.134l0.221,2.719v1.359l19.04,0.905l3.169-0.905l2.039-1.135l4.308-4.078
	v-1.359h-3.627v-0.68l0.458-0.68l0.45-0.679l-1.81-1.36l0.451-2.264l1.81-0.455l2.497,4.308l1.36-1.359l1.13-0.909l1.36-0.45
	l1.588-0.23v-1.13l-1.588-1.589l-1.81-2.718l-0.68-2.944l1.359-2.264l0.45,3.169l1.36,2.948l1.588,2.263l1.581,0.905l2.038,0.229
	l1.819,0.68l3.619,2.944l0.68-1.584l0.909-0.455h1.359l1.588-0.68l-0.458,1.814l-0.68,0.905l-1.13,0.226h-1.359l2.719,0.679
	l2.948-3.168l0.9-2.949l-1.129-3.848l3.399,0.68l3.398,2.265l2.489,2.718l0.459,2.04l1.58,1.133l0.909,0.451h1.13l-0.45,2.268
	l0.45,1.13l0.909,0.68l0.909,0.909l2.49,4.529l0.229,0.68l2.26,0.229l2.949-0.679h2.719l1.809,1.809l6.797-3.848l1.139,0.45
	l1.129,2.719l2.49,0.909l4.987-0.23l0.68,0.455l1.359,1.585l1.13,0.68l1.138,0.229l3.399-0.229l4.528,1.135h2.04l1.359-1.135
	l0.45,1.359l0.459,0.91l1.359,1.583l1.81,3.853l3.848,4.984l0.458,1.134l1.81,0.68l10.646-2.719v-1.133l-0.679-0.906l-0.901-0.91
	l-0.909-0.679l2.719-0.679l3.849-2.265l3.627-3.397l2.719-3.399v1.36l-1.589,1.359l-1.13,2.264l-1.588,4.307l-0.901,0.226
	l-2.268-0.454l-0.45,0.679v1.814l-0.23,0.904l-0.45,0.455l-1.139,0.225v1.359l5.438,0.454l2.268,0.906l2.039,1.359v1.134
	l-5.208-1.814l-2.268-0.226l-2.27,0.906l3.399,0.229l5.666,1.584l3.399,0.906l3.849,4.532l0.909,0.679l1.13-0.904l0.458-1.813
	l0.68-1.815l1.81-0.904l-1.36-2.04l-0.45-0.68l1.81-0.454l0.909-1.359l0.9-0.68l1.589,1.134l0.229-0.68v-0.224l0.221-0.23
	l0.68-0.224l-0.45-2.719l-0.909-2.039l-1.13-1.36l-1.81-0.68l2.039-0.454l1.81,0.909l1.359,0.45l1.13-2.039h0.909v1.359v4.077
	l0.68-0.45l1.589-0.68l0.68-0.454v1.814v1.359l0.22,1.13l0.459,0.91l-9.745,4.529l-1.589,5.437l-0.22,2.494l0.45,1.135l1.13,0.678
	l1.359,0.68l1.139,0.68l1.81,2.039l1.36,2.489l0.909,3.399l0.221,4.533l-0.221,2.493l-1.139,3.169l-0.221,2.038l0.221,1.815
	l1.589,5.437h0.909l0.901-0.904l2.718,0.679h1.819l-2.949-3.398l-2.269-4.533l-0.68-5.438l1.36-6.572l-0.68-0.45l-0.45-0.68
	l-0.68-0.229l1.13-2.04h1.359l1.589,0.909l1.36,1.13l-0.91,0.679l-0.9,0.454l1.81,1.135l2.039-0.229l4.078-2.265l0.909,0.905
	l0.68,0.23l1.809,0.224l-0.68-2.494l0.451-2.039l0.909-0.224l0.45,2.943l0.68,2.493l1.138,0.456l0.68-1.135l-0.68-2.494l1.81,1.589
	l1.359,2.04l1.13,1.13l1.139-0.679l1.359,2.038l0.45,0.68l0.451-0.68l0.229-0.45l0.229-1.359l-1.359-1.358l-1.359-2.039l-1.139-2.04
	l-0.45-1.813v-4.533l-0.23-1.36l-0.679-2.489l-0.221-1.589h0.9l0.459,2.494l0.901,1.815l1.359,0.904h1.818l-1.138,0.906
	l-0.459,1.359l0.238,2.038l0.441,2.269h0.917l0.442-0.909l0.459-0.224l1.817-0.226v1.359h-0.917v1.13l4.316-1.13l2.48-1.133
	l1.139-2.265l1.359-1.36l6.796-0.678l2.72-1.359l-1.819-1.135l4.079,0.679l1.597,0.906l1.58,2.268l-2.497-0.908l-2.719-0.45
	l6.576,4.078l0.68,1.13h1.58l0.68-0.45l0.68-0.91l-1.801-1.359l1.58-0.45l0.68-0.908l-0.221-1.13l-1.359-1.359v-1.135l2.939,3.853
	l-0.679,3.625l-4.979,7.021l0.9,1.359l-2.719,1.815l-3.619,0.224l-3.398-1.13l-2.04-2.493l-0.68,2.719l-0.238,1.134l-1.122-1.134
	l-0.917-0.226l-0.68,0.45l-0.68,1.135h-0.9l-1.819-3.854h-5.658l-2.26,1.589l2.26,0.905v0.904l-0.221,0.229l0.442,0.226l1.359,0.225
	l1.359,0.68l0.459,0.909l0.459,0.224l2.039,3.854l0.222,0.679l1.818,1.585l1.58,0.904l2.039,0.229l2.499-0.229l6.797-2.264
	l2.26-0.226l4.299,1.585l1.818-1.135l0.221-4.528l1.359,0.905l1.597,0.455h3.161l-0.221-1.36l-0.459-0.679l-0.679-0.455
	l-1.122-0.225l2.26-0.455l1.818,0.226l1.801-0.226l2.04-2.038l-0.901,2.493l-2.039,2.264l-2.26,1.359l-2.04,0.454l1.359,1.13
	l0.901-0.225l0.68-0.679l1.138-0.454h4.979l4.299-1.36l1.598-0.226l2.039,0.226l9.958,3.853h2.497l3.399-0.68l2.039,0.68
	l-2.719-0.226l-4.758,1.359l-8.157,0.451l-1.359,1.359l1.818,2.494l-1.139,3.624l1.581,1.135l2.039,0.225h0.239l0.9-1.584l0.9-0.68
	l1.597-0.226l1.359,0.68l1.123,0.905l1.137,0.454h1.139l2.48-0.68h1.36l1.359,0.226l1.359-0.226l1.36-0.908l1.817-2.49l1.139-1.814
	l0.68-1.584l0.441-1.134l0.238-0.226l0.441-0.229l0.917-0.45l1.36-0.23l0.9,0.456l0.458,0.454l0.222,0.226l0.221,0.225l0.679,0.456
	l1.138,0.454l1.581-0.23l1.818-0.68l2.26-1.36l1.139,0.23l0.458,0.45v0.455v1.134v0.904l0.221,0.68l0.459,0.905l0.901,0.454
	l0.901-0.224l0.68-0.68l1.138-1.589l0.68-2.039l0.9-1.584l1.598-1.134l1.36-0.451l1.58-1.358l1.359-2.494l1.58-8.381l0.917-2.27
	l0.442-0.904l0.238-0.905l-0.238-0.91v-0.679l0.238-0.904l0.221-0.68l-0.458-1.134l-0.221-0.679l0.9-3.399l4.078-2.264l1.818-1.585
	l0.459-0.229l0.9-0.225l4.078-0.679l4.537,0.224l2.719-1.809l9.278-3.399l4.078,1.584l2.499,0.455h1.359l15.633-4.988l3.619-2.04
	l2.277-1.808l0.68-1.36l0.9-1.359l0.901-1.135l1.138-1.134l2.719-2.039l13.373-6.342l2.039-2.04l1.359-0.905l3.84-0.23l2.719,0.23
	l1.359,0.45l1.138,0.68l0.901,1.589l0.458,1.359l1.819,1.359l1.801,0.68l12.914,2.264l1.139-5.663l1.139-1.36l0.68-1.134l0.68-1.585
	l1.121-5.212l0.68-2.04l1.359-3.173l0.918-2.944l1.359-6.572l0.9-2.719l0.459-1.359l0.68-1.131l1.801-2.493l1.139-1.135l1.359-0.905
	l1.36-0.679l1.58-0.226l4.536-0.229l1.359-0.225l1.36-0.455l1.139-0.68l0.9-0.68l0.221-0.225l0.238-0.905v-1.588L217.882,128.345z"
	/>
<g>
	<polygon fill="#FFFFFF" stroke="#010101" stroke-width="2" stroke-linecap="round" stroke-linejoin="round" points="
		158.067,475.672 160.107,476.353 167.363,474.992 179.818,483.149 185.715,484.287 186.395,484.508 187.074,485.188 
		188.434,484.508 189.334,484.051 190.473,484.051 189.113,480.652 186.615,477.712 183.455,475.672 170.54,473.635 
		168.264,472.495 168.264,471.136 170.082,471.136 170.082,469.775 166.903,470.694 163.284,472.274 159.886,472.495 
		157.626,468.416 158.985,468.655 161.925,469.775 162.826,468.876 162.826,467.736 162.146,466.616 161.246,465.936 
		158.985,465.476 151.271,467.297 151.271,468.416 152.868,469.557 	"/>
	<polygon fill="#FFFFFF" stroke="#010101" stroke-width="2" stroke-linecap="round" stroke-linejoin="round" points="
		187.975,514.874 186.615,513.957 183.455,510.559 179.377,507.397 175.06,504.898 170.983,504.441 173.938,511.017 
		175.299,515.316 175.06,517.135 174.381,518.953 176.658,522.352 179.377,525.749 182.096,527.788 189.793,536.387 
		191.152,538.884 192.291,541.383 194.092,547.942 196.369,548.859 198.408,545.903 199.529,541.145 200.668,533.226 
		200.447,531.631 199.529,530.049 195.689,527.788 194.33,526.43 195.01,524.832 195.01,523.473 193.65,522.114 193.65,520.312 
		193.65,518.272 193.191,515.996 191.373,513.957 189.572,514.193 	"/>
	<polygon fill="#FFFFFF" stroke="#010101" stroke-width="2" stroke-linecap="round" stroke-linejoin="round" points="
		690.275,515.316 690.275,514.417 690.734,512.599 690.734,511.237 690.275,509.437 689.153,506.72 687.114,502.861 
		686.436,501.282 685.976,499.004 685.976,497.424 686.656,489.046 685.756,486.09 683.036,481.569 682.119,479.751 
		681.678,478.171 680.761,474.093 679.859,472.274 674.642,463.659 673.283,462.08 671.481,461.399 670.343,461.856 
		669.205,463.218 668.305,462.979 667.403,461.62 667.166,460.498 666.485,458.459 665.806,457.32 664.685,456.42 661.048,455.741 
		658.567,454.824 657.208,454.144 656.29,452.785 655.169,449.623 654.931,447.584 654.25,445.766 650.632,442.367 646.095,435.797 
		633.181,435.116 626.383,436.705 622.084,434.891 614.608,434.891 613.707,434.665 610.988,433.077 609.392,432.626 
		597.836,432.396 596.477,432.626 595.117,433.077 592.397,435.116 591.276,435.797 589.458,435.569 588.32,434.436 
		585.602,430.812 584.48,429.906 583.342,429.906 582.202,430.134 581.081,431.718 580.842,433.077 580.842,434.21 581.081,435.569 
		581.081,436.705 580.621,437.836 580.164,438.97 579.042,439.868 577.445,440.328 572.007,438.97 570.646,439.429 569.067,440.549 
		567.709,441.689 566.569,442.825 564.99,443.048 562.729,442.588 561.591,441.466 561.37,440.328 561.591,439.19 560.911,438.289 
		559.551,437.608 556.153,438.289 554.335,437.836 552.975,437.155 551.616,436.93 549.578,437.385 541.199,446.226 
		537.122,448.706 531.224,444.864 530.546,443.727 530.104,442.367 529.186,441.229 528.063,440.328 526.705,440.107 
		524.887,441.009 524.207,442.146 523.748,443.269 522.847,444.406 521.028,444.864 515.371,445.545 513.552,445.545 
		511.973,445.308 510.155,443.947 508.573,443.727 506.312,441.907 508.573,434.21 506.993,431.945 504.496,430.356 
		503.137,429.453 501.777,427.414 501.557,425.83 502.677,421.296 502.677,420.618 502.235,419.484 501.777,418.578 
		501.098,417.218 499.958,416.084 498.838,415.178 497.698,414.726 496.34,414.274 488.403,414.274 486.823,413.594 
		486.143,412.461 485.922,409.516 485.005,408.607 484.104,408.156 481.605,407.477 477.986,405.439 475.047,402.719 
		473.449,400.905 472.329,399.091 471.649,396.148 471.189,393.654 471.189,389.805 471.41,388.672 471.649,387.538 
		472.091,386.177 472.55,385.048 472.55,383.234 472.091,380.97 470.51,377.569 469.61,375.755 466.892,372.582 461.454,368.053 
		446.041,345.17 443.323,337.013 441.963,334.295 440.604,332.711 439.243,331.801 436.525,330.672 429.27,326.139 427.689,325.457 
		427.469,325.913 427.23,326.139 427.469,326.818 427.469,327.271 427.469,328.857 427.689,329.536 427.91,329.991 428.368,330.441 
		428.59,331.12 428.827,331.576 429.048,332.256 429.27,332.935 429.27,333.615 428.827,334.295 427.689,334.75 426.551,335.199 
		416.134,335.654 413.874,336.334 412.735,336.787 412.057,337.693 411.155,338.598 409.796,339.053 403.899,337.919 
		398.241,338.598 395.743,337.919 394.385,336.787 393.483,335.429 393.024,334.295 392.804,332.711 392.804,329.991 
		392.804,326.363 393.704,322.515 393.925,320.246 393.704,319.117 393.245,318.206 392.124,317.98 389.404,317.756 
		388.487,316.848 387.808,314.809 386.906,314.357 385.77,314.13 382.829,315.264 381.248,315.719 379.431,315.719 378.292,315.038 
		378.07,313.902 378.292,312.543 378.75,311.185 378.971,309.826 378.75,308.24 378.292,306.881 377.171,306.428 374.214,307.562 
		372.412,307.562 371.732,306.653 371.494,305.748 371.494,304.387 371.732,303.253 371.053,302.124 370.136,302.124 
		367.876,303.482 366.516,303.708 365.378,303.253 364.698,302.124 364.018,300.766 363.338,299.629 361.979,297.137 
		355.183,295.776 352.922,296.457 348.623,301.895 348.163,303.253 347.943,304.613 347.483,306.203 346.583,308.01 344.987,308.69 
		341.367,310.051 340.466,311.185 339.787,312.091 337.969,315.488 334.791,314.357 334.111,313.449 333.669,312.091 
		333.432,310.729 332.752,308.92 331.172,307.562 329.812,307.105 328.453,307.332 325.954,308.01 318.477,307.787 304.442,309.601 
		301.043,311.185 293.788,313.449 291.97,313.68 289.03,312.091 287.67,311.865 286.089,312.091 283.593,312.998 282.454,313.68 
		281.331,314.809 280.874,315.941 281.094,317.077 282.691,319.342 282.691,320.476 282.011,321.604 276.574,324.324 
		274.297,326.363 273.618,326.818 271.356,327.725 262.979,328.631 255.724,327.952 252.104,326.818 244.628,328.178 
		242.81,328.178 241.672,327.952 240.312,327.497 235.333,324.099 233.973,323.644 231.935,323.195 231.255,323.873 
		230.797,324.555 230.797,325.005 230.575,326.139 235.333,329.762 237.151,331.801 238.731,335.199 240.092,337.238 
		243.489,339.277 245.07,341.547 245.75,343.356 245.987,347.209 246.668,350.383 247.788,352.422 249.147,353.78 256.624,358.539 
		259.344,361.027 260.481,362.618 260.94,363.747 260.703,364.657 260.481,365.786 259.123,368.281 259.344,370.32 260.481,373.493 
		263.88,379.155 267.499,386.407 267.959,388.217 268.418,389.805 268.418,390.934 268.418,392.295 268.639,393.884 
		269.318,395.923 270.899,397.732 271.578,399.321 272.037,400.68 272.258,404.528 273.175,409.966 273.396,411.782 
		273.175,412.916 272.496,414.045 271.356,414.955 270.679,416.084 270.219,417.898 272.258,428.095 272.496,429.228 
		272.258,430.356 271.356,433.307 271.136,435.346 271.578,438.068 272.496,438.97 273.396,438.748 274.076,438.289 
		274.977,438.289 279.514,441.907 280.874,443.727 281.331,445.308 280.874,446.667 279.973,447.584 279.054,448.025 
		278.375,448.025 277.254,448.025 276.337,447.805 274.977,448.025 273.855,448.485 269.998,453.021 269.097,453.463 
		268.18,453.702 264.34,453.702 263.202,453.923 259.582,455.741 258.663,456.641 256.624,457.78 255.045,458.001 246.208,452.563 
		243.031,451.884 240.771,451.884 238.952,452.563 238.052,453.021 233.973,453.702 232.393,454.144 231.255,454.38 
		228.757,454.601 227.397,453.702 226.956,452.785 227.636,451.884 228.536,450.745 229.216,449.623 229.437,448.265 
		228.536,446.667 227.397,446.667 225.137,447.584 223.777,448.025 221.059,448.265 213.124,450.304 211.765,450.984 
		210.863,451.884 208.604,455.281 208.145,456.183 209.283,457.78 209.505,460.498 210.185,462.08 210.185,463.659 209.283,465.936 
		200.21,471.596 198.85,474.093 199.529,477.491 198.408,478.393 197.05,479.972 196.131,481.79 196.369,483.37 197.49,484.73 
		198.63,484.968 199.768,484.73 201.127,485.188 203.166,484.968 203.846,485.188 204.066,485.869 203.846,486.771 203.846,487.448 
		204.288,487.908 205.426,488.129 208.365,490.405 206.785,491.986 206.785,492.665 207.686,493.346 208.365,494.247 
		208.825,494.483 210.405,495.164 210.863,495.385 211.085,496.063 211.085,497.882 212.002,500.362 212.223,502.401 
		212.682,503.763 215.163,504.678 215.843,505.358 216.761,506.26 217.202,507.161 217.202,508.299 215.843,511.477 
		214.041,513.059 212.002,512.835 209.283,511.017 211.085,517.135 212.444,519.634 214.483,520.992 213.804,521.434 
		212.682,523.031 212.002,523.473 212.682,524.611 213.582,526.193 214.483,528.009 214.483,530.049 214.041,532.088 
		213.124,532.548 212.223,532.309 210.863,532.548 209.046,533.67 207.466,535.028 206.785,535.945 206.105,537.067 
		205.205,538.206 203.846,538.884 204.968,540.924 205.886,543.644 206.326,546.36 206.564,548.4 207.245,550.219 210.643,554.061 
		222.419,563.576 225.137,566.975 216.081,562.675 214.483,561.096 213.124,560.176 204.746,550.439 202.249,550.219 
		193.65,552.938 193.65,555.419 191.373,568.333 193.871,569.251 198.408,568.112 200.668,570.152 202.249,572.191 204.288,574.008 
		206.326,575.368 208.825,575.811 212.682,577.408 219.7,584.425 223.999,586.007 224.679,586.685 225.358,590.322 225.817,591.002 
		244.169,604.358 250.065,611.394 253.005,615.913 255.724,621.13 260.023,632.686 261.62,639.941 261.62,639.941 266.6,675.047 
		268.18,680.943 270.679,685.7 275.215,689.321 280.874,691.138 286.089,693.637 289.251,699.295 286.311,697.035 283.371,695.438 
		279.973,694.759 276.116,694.538 279.054,696.354 282.011,699.295 283.371,703.374 282.232,708.352 282.912,710.63 
		283.593,715.607 284.05,718.327 282.232,716.969 281.094,714.027 280.652,710.17 280.415,706.312 280.874,703.374 280.652,701.794 
		279.514,699.295 278.375,698.157 274.297,695.674 269.318,690.681 264.781,685.022 260.481,674.366 260.023,672.327 
		257.544,655.336 255.724,648.317 255.503,644.698 253.906,639.261 250.287,633.823 234.653,616.15 232.614,615.692 
		227.177,612.513 218.341,605.717 217.202,604.358 215.843,602.098 215.4,601.196 215.4,600.059 215.843,599.157 216.081,598.479 
		216.302,596.439 216.302,595.079 215.843,594.161 214.483,593.483 212.444,594.4 210.643,597.118 206.105,606.177 205.426,608.895 
		203.166,647.859 197.729,676.865 189.793,767.043 190.693,765.006 191.832,760.468 193.191,752.533 199.088,743.695 
		199.989,741.896 200.21,741.658 200.447,740.979 200.668,740.077 201.127,739.619 202.027,739.396 202.707,739.856 203.166,740.3 
		203.846,740.758 205.205,741.436 215.163,750.73 216.302,753.212 214.483,753.212 217.882,756.612 217.661,759.33 215.163,761.148 
		210.643,761.829 202.707,760.01 199.31,760.01 196.811,763.188 194.551,771.565 194.092,773.842 193.65,774.964 190.252,779.959 
		190.015,781.539 191.152,786.756 191.373,789.236 190.473,800.571 187.074,825.941 178.696,877.156 174.159,900.265 
		170.983,910.683 165.544,939.911 162.604,950.105 161.704,955.764 159.665,962.341 158.527,964.378 151.73,969.817 
		150.591,971.177 149.912,973.216 147.193,978.653 146.072,980.232 143.573,982.051 140.633,983.633 137.677,984.771 
		126.122,986.59 123.862,987.709 122.961,988.85 120.685,987.488 120.004,992.469 120.004,996.105 120.004,998.365 
		123.641,1000.185 125.442,1002.444 125.68,1005.84 126.122,1006.521 126.36,1007.201 127.94,1006.98 129.299,1006.3 
		132.239,1005.84 134.737,1004.702 136.097,1004.941 138.356,1006.063 139.716,1006.98 139.716,1007.88 139.274,1009.02 
		139.495,1010.6 140.396,1013.54 141.075,1014.218 142.672,1015.136 144.032,1015.356 145.833,1015.136 147.193,1014.218 
		147.872,1012.639 149.011,1009.7 150.829,1008.561 153.548,1008.561 157.626,1009.7 162.826,1012.639 164.423,1012.418 
		165.783,1011.737 167.363,1011.958 170.983,1015.816 171.662,1022.154 170.082,1029.172 168.264,1034.848 166.462,1037.108 
		161.246,1042.767 160.107,1044.364 161.704,1048.203 164.186,1050.924 166.903,1052.519 170.082,1053.42 173.701,1053.641 
		175.979,1052.963 177.1,1050.482 177.337,1045.943 178.238,1042.324 180.498,1039.825 183.455,1038.688 186.395,1039.607 
		183.676,1041.865 182.537,1044.125 183.217,1046.624 185.256,1049.121 187.754,1050.482 195.23,1051.841 199.768,1054.321 
		204.066,1057.72 208.825,1057.278 209.964,1057.72 212.223,1059.078 213.124,1059.998 217.661,1060.676 219.7,1061.117 
		221.28,1063.157 225.817,1066.334 230.797,1068.152 241.229,1068.833 251.187,1067.015 254.586,1068.374 257.084,1074.713 
		257.084,1075.851 256.624,1076.752 256.403,1077.669 257.305,1079.248 258.442,1080.389 259.803,1080.609 261.162,1080.389 
		262.301,1080.609 266.82,1083.548 269.097,1085.366 274.297,1092.165 274.297,1092.843 274.076,1093.744 274.076,1094.425 
		274.977,1094.662 277.015,1094.662 277.695,1094.883 278.375,1096.021 278.155,1097.143 278.155,1098.28 279.514,1098.961 
		280.415,1098.74 282.691,1097.382 283.813,1096.922 284.05,1092.843 287.45,1092.843 294.246,1096.241 298.325,1095.783 
		301.485,1093.981 307.603,1088.985 308.741,1090.125 309.879,1089.904 310.78,1088.305 311.46,1086.725 313.499,1088.544 
		313.72,1088.765 313.278,1085.587 312.598,1081.288 312.14,1078.791 312.14,1077.669 312.361,1076.311 312.818,1075.17 
		313.72,1073.59 314.858,1072.452 315.76,1071.094 316.438,1069.275 316.677,1066.558 316.677,1064.976 315.996,1062.258 
		315.76,1061.117 315.996,1059.759 316.897,1058.397 318.937,1056.141 320.517,1054.321 321.435,1053.42 322.556,1053.199 
		326.192,1053.199 327.552,1052.742 328.674,1051.841 329.353,1050.703 328.453,1047.303 328.453,1045.263 328.453,1042.545 
		329.591,1040.966 330.492,1039.825 332.989,1038.688 334.111,1037.786 335.47,1036.888 336.15,1035.289 337.969,1030.77 
		339.106,1029.631 339.787,1029.41 341.367,1029.853 342.269,1029.631 342.946,1028.272 343.406,1026.69 344.308,1022.835 
		344.765,1021.475 345.666,1020.336 347.943,1018.297 348.844,1017.175 349.524,1016.037 349.981,1014.898 349.981,1013.997 
		349.744,1013.096 348.623,1009.919 348.844,1007.201 349.304,1005.383 349.744,1003.801 350.662,1002.663 351.563,1001.764 
		352.463,1001.304 354.962,1000.623 355.86,999.945 356.32,998.823 356.32,997.005 354.502,992.929 354.061,990.668 
		354.502,984.091 354.281,982.731 353.602,982.051 352.463,981.83 351.342,982.511 350.662,983.41 349.744,984.312 349.064,985.449 
		347.943,985.229 347.025,984.091 346.583,980.692 347.025,979.113 347.705,978.433 348.844,978.653 349.981,978.653 
		350.883,978.193 351.342,977.295 351.104,975.713 350.423,973.673 347.264,966.199 346.346,964.838 345.444,963.921 
		344.086,963.021 343.186,962.12 341.825,958.483 339.106,956.683 327.093,954.184 322.793,954.644 321.656,953.282 
		321.435,952.365 320.976,950.326 320.517,949.427 318.716,948.065 318.716,946.928 319.157,945.569 320.755,943.529 
		321.656,941.49 321.435,940.132 320.755,938.771 320.296,937.65 320.517,936.731 321.876,936.053 323.915,936.053 324.595,935.611 
		325.512,934.471 327.772,928.576 327.993,927.454 327.552,926.316 326.872,925.176 326.192,924.277 326.192,922.918 
		326.413,921.336 326.413,918.619 326.634,917.021 327.093,915.441 328.674,913.182 329.591,910.004 329.591,908.863 
		329.132,907.744 328.453,906.604 327.772,904.344 327.093,903.205 325.054,901.169 324.374,900.028 324.595,898.67 
		325.732,897.309 330.032,893.689 331.63,893.009 336.388,893.689 338.868,893.689 340.466,893.469 341.825,892.11 344.308,889.153 
		347.705,886.673 348.844,885.992 350.202,885.756 352.241,886.434 353.143,887.114 353.822,888.031 354.061,888.933 
		354.061,889.834 353.602,890.751 352.463,892.11 352.241,893.009 352.241,894.149 352.7,895.27 353.38,895.729 354.061,896.188 
		354.962,896.63 356.1,896.869 360.62,897.309 361.758,896.869 362.896,896.188 363.797,894.591 364.018,893.009 363.338,888.473 
		365.155,885.313 368.555,883.953 369.455,883.953 370.813,884.396 371.732,885.992 372.634,886.213 373.771,885.992 
		375.353,885.075 376.49,883.953 377.171,882.814 379.21,879.196 379.89,878.058 381.011,877.377 382.148,877.156 388.267,879.638 
		390.765,880.775 391.664,881.235 392.804,880.996 394.162,880.555 397.562,878.278 399.362,877.377 402.082,876.918 
		411.597,872.161 412.515,871.039 413.874,870.358 415.233,870.121 417.034,870.802 418.394,871.039 419.532,871.039 
		428.368,867.641 430.408,867.401 432.906,868.321 434.485,869.441 438.105,873.078 439.023,873.759 441.741,873.299 
		449.661,868.542 450.119,866.282 450.34,865.362 451.259,862.884 451.938,861.522 452.838,860.605 455.557,859.247 
		456.694,858.346 457.138,856.986 457.375,855.849 457.816,854.947 458.275,854.267 459.856,853.589 460.994,853.589 
		462.133,854.046 464.394,854.947 465.531,855.168 466.653,855.407 468.012,855.168 468.931,854.487 469.61,853.589 469.61,852.007 
		469.15,850.869 468.25,849.968 467.112,849.51 466.433,848.829 466.653,847.931 469.61,845.891 470.97,844.293 475.947,833.655 
		476.406,832.518 476.406,831.379 476.17,830.257 475.269,829.34 474.368,828.896 470.97,827.76 470.052,827.08 469.372,826.179 
		468.471,824.139 468.691,823.001 469.831,820.061 470.289,818.923 470.51,817.784 470.51,816.662 470.289,815.524 470.51,814.166 
		470.73,813.265 471.649,812.347 472.771,812.126 474.13,812.805 475.047,813.706 476.628,814.623 479.347,815.064 490.001,814.166 
		491.582,812.126 491.803,807.827 492.04,806.009 492.04,804.189 491.122,802.831 489.084,800.792 488.183,799.893 487.725,798.753 
		487.282,796.492 486.823,795.594 486.365,794.674 485.922,793.774 485.922,792.637 486.143,790.153 485.922,789.236 
		485.243,788.114 484.563,786.977 483.645,785.838 483.203,785.158 482.966,784.259 483.645,783.118 485.005,781.539 
		491.36,778.361 495.659,774.743 498.838,771.343 500.196,769.306 506.076,758.651 507.894,757.069 509.254,756.612 
		511.513,756.171 512.651,755.711 513.79,755.251 515.592,753.451 516.73,752.533 519.229,751.632 520.588,750.73 522.168,749.136 
		524.207,746.194 525.107,744.376 525.107,742.576 524.428,741.436 523.748,740.536 523.527,739.176 523.985,737.58 525.566,735.32 
		526.927,734.419 528.285,734.419 529.424,734.419 530.546,733.501 531.684,731.922 533.044,728.981 534.181,727.163 
		535.083,725.804 538.702,722.863 539.619,721.726 540.061,720.366 540.061,719.229 539.619,717.426 539.619,716.288 
		540.52,714.929 541.199,713.348 541.199,711.308 538.481,702.013 539.16,699.074 542.779,696.354 544.818,695.438 545.278,694.759 
		546.636,693.637 548.678,693.178 548.897,692.72 550.256,691.358 551.174,690.681 552.074,690.917 552.754,691.598 552.975,692.72 
		553.435,693.637 554.114,694.078 557.054,692.72 558.651,692.499 562.49,693.637 564.53,694.759 568.847,697.937 573.367,701.794 
		574.046,702.914 574.285,704.055 574.963,705.192 576.085,706.312 578.582,707.452 579.942,708.352 581.302,709.489 
		581.981,710.17 582.882,710.851 584.241,711.308 587.198,711.308 593.995,709.032 601.234,704.732 602.372,704.512 
		603.512,704.512 604.632,705.192 605.312,705.871 606.231,706.312 607.131,706.312 610.528,704.272 611.209,704.055 
		613.707,703.595 620.725,703.595 623.664,702.233 628.422,701.556 629.34,701.113 630.24,700.434 630.461,699.516 630.699,699.074 
		630.461,698.614 630.461,698.157 630.02,697.035 627.3,692.278 627.063,691.138 627.063,689.779 627.98,688.42 632.959,684.562 
		634.099,683.204 634.999,681.622 635.899,679.362 636.358,677.546 637.259,675.728 639.978,669.848 640.437,667.809 
		639.978,665.99 639.298,664.853 638.396,663.491 638.176,662.133 637.938,660.553 638.176,659.191 638.396,658.054 
		643.376,653.976 644.055,653.297 644.734,649.219 644.974,648.538 645.654,648.097 648.134,647.637 650.852,646.057 
		651.771,645.14 656.069,638.12 656.971,637.899 657.649,637.222 658.329,636.764 659.246,634.265 660.827,631.324 661.048,630.646 
		661.048,629.966 661.048,629.285 661.048,628.386 660.827,627.705 660.606,627.246 660.146,626.788 659.927,626.347 
		659.246,625.887 658.788,625.43 658.567,624.985 658.788,624.308 659.689,623.627 661.729,623.169 663.088,622.948 
		664.006,623.169 664.446,623.391 665.585,624.068 667.403,625.666 670.343,627.025 674.201,627.705 675.102,627.469 
		675.78,627.025 676.682,626.107 677.82,622.268 680.538,610.934 678.278,609.575 678.041,608.674 677.6,606.854 677.6,604.358 
		677.6,600.958 677.361,598.697 676.682,596.658 674.422,594.4 673.741,593.042 673.521,591.444 674.88,585.326 675.561,584.204 
		676.682,583.525 679.179,582.606 679.859,581.928 680.538,581.026 680.761,580.346 680.997,579.447 681.218,577.629 
		681.438,574.451 681.438,571.731 681.218,570.611 680.08,567.655 676.001,562.454 674.88,561.537 674.201,560.636 673.962,560.415 
		672.841,560.176 671.924,559.955 670.802,559.498 670.122,558.817 669.664,557.459 669.205,555.198 668.763,553.84 
		668.083,552.699 665.127,548.859 664.905,547.501 665.127,546.14 666.485,544.545 669.205,542.965 670.564,541.604 
		672.162,539.785 673.283,538.884 674.642,538.427 677.141,538.884 677.82,538.666 678.278,538.666 678.721,537.985 
		680.538,535.486 681.438,534.348 682.357,533.67 683.479,532.309 684.396,530.729 685.297,527.788 686.196,525.97 686.877,524.391 
		687.796,523.031 689.834,520.992 690.513,519.854 690.275,517.135 	"/>
</g>
</svg>
