<?xml version="1.0" encoding="utf-8"?>
<!-- Generator: Adobe Illustrator 16.0.4, SVG Export Plug-In . SVG Version: 6.00 Build 0)  -->
<!DOCTYPE svg PUBLIC "-//W3C//DTD SVG 1.1//EN" "http://www.w3.org/Graphics/SVG/1.1/DTD/svg11.dtd">
<svg version="1.1" id="Calque_1" xmlns="http://www.w3.org/2000/svg" xmlns:xlink="http://www.w3.org/1999/xlink" x="0px" y="0px"
	 width="500px" height="500px" viewBox="0 0 500 500" enable-background="new 0 0 500 500" xml:space="preserve">
<polygon id="Provence-Alpes-Côte_d_x27_Azur" fill="#FFFFFF" stroke="#010101" stroke-width="2" stroke-linecap="round" stroke-linejoin="round" points="
	296.987,61.917 299.021,62.153 302.181,62.153 305.348,62.828 307.152,63.723 308.058,64.854 308.735,67.317 309.185,68.667 
	310.091,69.579 318.671,72.717 319.798,72.498 321.381,71.823 323.186,69.579 324.093,67.773 324.321,66.203 324.542,65.073 
	325.22,64.178 326.354,63.503 330.19,63.723 331.775,63.267 336.52,60.348 340.354,59.892 340.354,59.892 338.552,61.479 
	336.968,63.503 336.968,63.503 339.229,66.878 341.482,68.667 341.71,70.017 341.71,70.017 341.482,71.603 341.939,73.173 
	343.515,75.873 344.869,77.003 349.394,77.442 352.781,79.923 353.459,85.104 353.459,85.104 353.23,95.229 353.23,95.229 
	355.493,99.043 359.779,102.655 368.816,107.818 371.077,108.493 377.625,107.144 379.887,107.379 386.206,110.08 388.696,112.543 
	389.145,113.455 389.374,114.569 389.374,114.569 389.374,115.244 389.374,115.699 389.374,115.699 389.374,116.594 
	389.374,116.594 388.916,116.594 388.469,119.529 388.24,119.75 388.24,119.75 389.822,123.581 390.5,128.069 390.948,129.655 
	394.795,137.081 395.692,139.544 395.692,139.544 393.439,139.544 388.696,138.194 386.206,138.194 383.275,139.78 381.014,142.7 
	380.108,146.294 380.108,146.294 381.463,150.125 381.463,150.125 379.658,151.476 375.144,159.12 368.588,164.301 367.232,166.782 
	367.232,166.782 367.688,172.182 370.619,177.346 374.466,181.396 377.854,184.333 377.854,184.333 373.56,186.577 372.652,188.146 
	371.526,193.783 371.297,194.897 371.077,195.808 371.077,195.808 371.755,197.377 372.204,198.271 375.144,201.646 
	376.041,203.452 377.625,207.047 378.303,208.396 379.431,209.528 382.14,211.552 383.275,212.902 383.951,214.708 384.401,216.277 
	385.079,217.847 386.206,219.197 388.019,219.872 389.593,219.653 391.178,219.197 392.762,218.978 394.565,219.433 402.02,223.484 
	407.212,225.508 420.993,233.828 423.475,234.958 426.863,235.397 428.447,236.073 429.354,237.422 430.251,239.008 
	431.387,240.122 432.514,240.359 437.706,240.579 460.296,234.048 464.134,233.828 469.333,230.233 473.4,230.909 473.4,230.909 
	471.586,236.747 471.586,236.747 473.17,240.122 476.109,243.06 478.143,247.33 478.143,247.33 477.914,250.484 476.331,252.51 
	474.526,253.86 473.17,255.429 472.264,257.674 471.137,261.723 470.23,263.749 467.3,266.904 460.524,272.523 458.035,276.574 
	452.394,282.886 450.359,286.48 450.359,286.48 451.037,290.985 453.52,299.524 451.935,300.875 451.257,300.875 450.809,300.875 
	450.359,301.11 450.131,301.55 450.359,303.812 450.359,304.485 449.224,305.161 448.548,304.925 447.648,304.705 446.294,304.485 
	444.938,305.161 444.033,306.275 441.094,304.705 438.611,305.601 436.808,307.86 436.351,310.105 434.317,310.781 432.962,312.587 
	432.962,314.611 432.284,316.399 429.802,316.636 430.251,315.962 430.71,314.376 424.382,315.05 423.255,314.831 421.443,314.156 
	419.867,315.507 417.376,319.1 416.25,320.23 414.895,320.906 413.54,321.581 411.736,321.581 409.474,322.475 408.119,324.062 
	407.212,325.631 406.313,326.525 405.856,327.875 405.856,336.212 405.636,337.562 405.636,338.457 405.636,339.132 
	404.958,340.026 403.824,340.263 403.375,339.351 403.146,338.001 402.697,337.562 399.31,338.457 395.921,340.263 392.762,341.157 
	389.822,340.026 387.791,341.613 385.528,342.726 383.724,344.312 381.92,347.231 382.14,347.231 382.14,350.151 381.92,350.151 
	381.691,350.606 376.947,358.927 376.719,359.163 376.27,359.382 375.363,359.382 374.914,359.838 374.686,362.303 374.008,362.978 
	373.33,363.214 372.433,363.214 371.526,362.978 371.297,362.303 370.849,361.406 370.171,362.303 369.493,363.653 369.493,364.327 
	362.946,364.562 359.558,363.653 357.068,361.627 355.265,363.433 353.908,366.588 353.001,369.727 352.104,375.127 350.52,376.258 
	348.488,376.933 346.455,378.738 345.327,380.983 344.649,383.008 343.515,384.358 340.584,384.813 337.196,386.603 
	335.164,388.188 334.936,389.759 335.842,389.978 348.259,389.304 348.488,390.434 347.36,393.353 346.683,394.265 346.226,394.483 
	345.777,395.158 345.548,396.963 345.777,397.858 346.455,398.752 347.133,399.427 347.36,399.884 346.455,401.015 341.262,405.284 
	341.939,407.765 340.584,408.203 338.094,409.334 336.739,408.878 336.291,407.984 335.842,406.634 335.384,405.284 
	334.029,404.152 330.641,403.715 328.158,405.284 326.126,407.309 324.093,408.878 322.736,409.114 319.577,408.878 
	317.993,408.878 315.283,410.01 312.573,411.359 308.507,411.579 307.381,412.49 306.246,414.734 306.246,416.084 306.246,417.215 
	305.568,418.565 307.602,421.266 306.475,422.379 301.731,422.159 301.282,421.483 301.053,419.678 300.375,418.109 
	299.021,417.435 297.437,417.215 295.632,416.303 294.505,416.084 285.696,415.864 284.341,416.084 281.402,417.891 
	280.496,420.354 280.275,423.509 278.921,427.104 280.725,428.015 281.402,428.234 282.529,428.234 282.529,429.365 280.275,430.04 
	271.687,429.804 269.205,429.365 269.205,428.234 273.719,428.234 274.626,427.778 275.304,424.858 275.304,423.054 
	274.177,422.159 264.689,421.703 264.012,421.028 261.521,419.458 257.686,418.327 253.619,418.565 250.681,419.678 
	250.908,418.784 251.138,416.978 251.358,416.084 249.325,416.084 247.291,416.76 243.454,418.565 245.716,419.458 248.427,422.614 
	250.681,423.509 250.681,424.64 246.395,423.965 244.36,423.965 243.454,425.314 243.006,427.56 241.65,428.453 238.711,428.234 
	232.385,425.534 231.029,424.64 230.352,422.379 231.486,420.591 235.553,418.565 234.874,417.891 233.968,417.435 231.486,417.435 
	230.352,416.76 230.131,414.514 228.997,413.839 226.065,413.604 223.576,412.709 218.611,410.01 219.51,406.853 217.027,405.503 
	210.251,405.284 209.801,405.738 209.574,406.634 209.124,407.309 208.447,407.765 207.541,407.527 206.864,407.089 
	206.187,406.634 204.601,405.738 203.475,404.828 200.316,400.558 199.181,400.103 196.928,401.689 195.343,402.803 193.759,403.04 
	192.861,402.364 191.507,401.233 188.567,400.777 185.179,401.015 183.146,401.689 181.342,400.777 177.725,401.015 
	175.921,400.339 175.015,398.533 175.464,396.728 176.37,394.939 177.496,392.24 177.725,391.108 177.954,389.759 177.496,389.759 
	176.599,389.304 175.692,388.409 175.243,387.277 175.243,378.062 171.625,375.583 154.237,379.633 148.587,378.738 
	146.783,379.413 138.651,379.633 135.262,378.738 131.875,375.127 131.197,371.077 133.001,367.483 137.067,365.238 
	148.587,365.238 152.204,364.327 154.686,362.303 157.396,358.927 158.979,355.112 158.523,350.826 154.686,353.307 
	151.069,354.656 147.681,353.981 144.97,350.826 144.072,348.125 144.072,346.557 143.395,345.663 140.684,344.75 139.55,344.531 
	136.618,344.75 136.161,344.076 134.128,341.613 133.451,341.157 132.552,342.288 131.646,344.75 130.969,347.012 130.739,348.362 
	131.646,351.737 132.773,353.307 134.357,353.981 136.161,355.552 137.745,360.058 136.161,364.107 133.23,366.133 130.062,365.238 
	127.352,366.133 120.355,362.082 117.187,363.653 115.841,364.782 112.672,365.458 111.318,366.588 110.183,369.052 
	110.861,369.963 112.216,371.077 113.13,373.776 108.149,372.428 102.729,369.288 98.222,365.238 96.41,360.513 96.63,350.151 
	96.41,347.231 95.512,344.531 94.157,341.375 92.343,338.912 90.091,337.562 90.091,338.676 93.919,344.75 94.597,346.557 
	94.597,359.382 96.41,365.238 99.798,368.832 103.864,371.752 106.794,375.127 102.289,376.933 83.314,376.038 78.114,374.452 
	74.505,372.882 74.946,371.531 76.081,368.376 76.979,364.782 76.759,361.627 73.37,358.927 67.729,357.812 30.002,356.683 
	31.357,353.981 31.815,352.412 32.035,351.501 32.035,351.501 32.255,351.281 32.493,351.281 33.17,350.826 34.288,350.826 
	35.423,350.388 36.321,349.256 37.236,348.362 40.167,347.906 41.742,347.231 43.775,345.881 48.976,341.375 49.654,341.157 
	51.907,340.481 52.584,340.263 52.822,339.588 53.042,338.457 53.262,337.782 53.719,337.106 54.617,336.432 55.294,336.212 
	57.564,336.212 58.242,335.976 58.92,335.301 59.36,334.407 60.038,332.162 60.038,331.032 59.598,330.575 58.462,330.812 
	57.785,330.812 57.107,330.575 56.43,330.356 55.972,329.9 55.752,329.462 55.752,328.786 55.972,328.111 57.107,325.85 
	57.564,324.956 58.005,323.15 58.683,322.037 61.851,317.312 64.781,314.831 68.407,313.7 68.847,313.7 69.524,313.7 70.202,313.7 
	74.268,315.05 75.403,315.725 76.301,316.399 76.979,316.636 77.437,316.856 78.114,316.856 78.571,316.856 79.011,316.182 
	79.469,315.287 80.146,313.262 80.146,312.131 80.146,311.236 79.926,310.781 79.926,310.105 79.926,309.431 79.926,308.757 
	82.179,303.812 83.755,299.085 84.212,297.28 84.212,296.149 84.212,294.799 83.535,290.985 83.535,290.311 83.078,289.181 
	83.078,287.155 83.078,285.585 83.992,284.675 85.567,283.325 89.413,281.299 94.157,277.249 95.953,276.354 100.255,274.549 
	100.933,273.874 101.374,273.435 102.289,272.76 103.864,271.629 104.542,270.953 105.439,270.06 106.117,268.929 106.354,268.254 
	106.574,267.579 106.574,266.904 106.354,264.205 106.354,263.074 106.354,262.636 106.354,262.636 107.031,262.398 
	107.472,262.398 107.93,262.398 107.93,262.636 108.149,262.636 108.827,262.636 109.285,262.636 109.505,262.636 109.505,262.636 
	109.742,262.636 109.742,262.398 109.962,262.179 109.962,261.723 110.183,261.048 110.183,260.373 109.962,259.479 
	109.505,258.584 107.031,255.885 100.933,247.547 100.255,246.873 99.34,246.654 98.663,246.435 97.308,246.197 96.63,246.435 
	95.953,246.654 95.054,247.109 94.597,247.109 94.157,246.654 93.699,245.759 93.242,240.359 93.242,239.448 93.479,238.772 
	93.699,238.333 93.699,237.422 93.919,235.397 93.919,233.828 93.479,228.428 93.242,227.753 92.801,226.858 91.667,225.728 
	89.854,224.598 89.413,224.159 89.176,223.247 89.176,221.897 89.413,221.003 89.176,220.328 88.956,219.653 87.82,218.303 
	86.466,216.497 85.347,212.227 85.347,204.127 88.956,203.452 92.801,203.672 96.41,204.127 97.544,204.583 98.442,205.258 
	100.476,206.827 101.374,208.178 102.051,209.528 104.999,218.083 105.676,218.978 106.574,219.872 107.93,220.328 109.505,219.872 
	110.861,218.978 113.13,217.172 114.485,216.497 115.604,216.277 119,215.822 120.127,215.602 122.608,214.708 125.099,213.122 
	127.582,212.009 136.39,209.528 138.194,209.528 144.072,210.877 146.104,210.658 147.681,210.202 149.493,208.178 150.392,207.502 
	151.297,207.283 151.975,207.958 152.204,209.308 151.747,210.658 150.62,213.122 150.62,214.472 150.62,216.953 150.848,218.303 
	151.297,219.433 152.653,220.784 154.457,221.678 158.523,222.353 160.784,222.353 162.589,221.897 164.402,221.897 173.43,225.271 
	175.243,225.508 176.37,225.271 177.725,225.728 178.631,226.403 179.529,228.208 179.987,229.558 180.207,230.909 180.436,232.259 
	181.342,233.373 182.468,234.503 184.73,235.634 189.474,239.684 190.601,240.359 195.114,240.797 199.181,238.333 202.797,234.503 
	204.381,232.259 205.956,230.672 207.769,230.233 210.929,230.672 212.284,231.803 212.962,232.934 213.19,234.048 213.64,234.958 
	214.545,235.854 215.673,235.854 216.579,235.634 217.027,234.503 216.579,230.233 217.934,227.973 218.383,220.784 
	218.154,216.058 217.476,214.708 216.35,214.033 214.317,213.122 213.411,212.227 211.835,210.202 210.929,209.308 210.251,208.178 
	210.251,207.047 210.929,205.477 211.377,204.347 210.7,203.452 209.801,203.233 208.667,202.997 202.569,203.452 201.67,202.997 
	199.181,201.646 197.825,201.208 195.343,200.752 194.666,200.533 193.988,200.077 189.016,196.246 188.567,195.352 
	188.338,194.458 188.119,192.652 187.889,191.757 187.212,190.407 185.408,188.382 184.95,187.471 184.95,186.357 186.535,185.683 
	187.661,185.683 191.277,186.796 192.404,186.796 193.31,186.577 193.988,185.901 194.436,185.227 194.436,183.877 193.988,183.421 
	193.31,182.746 192.404,182.071 191.507,181.396 190.829,180.282 190.371,179.152 189.923,177.801 189.923,176.671 190.151,175.557 
	190.829,174.882 192.404,174.425 193.539,174.425 197.604,175.101 205.508,178.021 206.634,178.257 208.218,177.801 
	213.868,173.532 214.995,172.401 214.766,170.376 214.088,169.026 213.19,168.132 210.022,165.871 209.124,164.521 208.667,163.846 
	208.447,162.732 208.447,161.82 208.447,160.926 209.124,159.576 212.962,153.72 213.868,151.695 214.317,149.906 214.317,148.556 
	214.766,147.426 216.799,146.531 218.154,146.531 219.288,146.75 220.864,146.969 223.126,147.426 224.709,146.969 226.286,146.531 
	228.547,145.4 232.385,144.945 233.29,144.27 235.323,142.244 236.23,140.895 237.128,139.78 237.128,138.431 236.908,137.3 
	235.553,136.169 234.646,134.6 237.806,129.2 238.939,127.85 240.744,127.174 242.099,126.955 245.937,127.174 248.427,126.719 
	253.619,124.931 254.746,124.019 255.424,122.905 255.652,121.1 255.203,119.75 254.975,118.399 255.652,117.269 258.592,114.805 
	260.844,113.219 261.98,112.78 263.105,112.543 264.461,112.78 266.494,113.674 267.849,113.674 268.976,113.219 275.752,108.73 
	277.107,108.274 278.242,108.274 280.725,109.168 281.852,109.168 285.696,108.274 287.052,108.274 289.305,108.73 290.659,108.493 
	294.954,106.705 296.31,106.249 297.437,106.249 298.57,106.469 303.315,108.274 304.213,108.274 305.348,108.274 305.797,107.379 
	306.246,106.249 306.703,103.549 306.924,98.368 306.703,97.018 306.246,95.448 304.67,93.424 303.535,92.293 302.409,90.724 
	301.96,89.374 301.96,85.323 301.731,83.754 301.282,82.404 299.926,81.274 298.57,81.054 292.693,82.404 290.889,82.167 
	289.762,81.729 288.407,81.274 287.949,79.248 287.949,76.093 289.084,69.798 289.533,66.643 289.981,64.178 290.439,63.267 
	293.6,59.673 295.632,61.479 "/>
<path fill="#FFFFFF" stroke="#010101" stroke-width="2" stroke-linecap="round" stroke-linejoin="round" d="M109.962,259.479
	l-0.458-0.896l-2.474-2.699l-6.098-8.337l-0.678-0.675l-0.915-0.438l-0.678-0.237l-1.355-0.218l-0.677,0.218l-0.678,0.237
	l-0.898,0.438h-0.457l-0.44-0.438l-0.238-0.912l-0.44-5.4v-0.893v-0.675l0.22-0.457l0.22-0.675l0.238-2.244v-1.35l-0.458-5.4
	l-0.22-0.674l-0.458-0.895l-1.135-1.131l-1.576-1.13l-0.458-0.438l-0.22-0.912v-1.35l0.22-0.894l-0.22-0.675l-0.458-0.674
	l-1.118-1.131l-1.355-2.025l-1.135-4.27l-5.878-1.569l-3.608-1.805l-0.678-0.457l-0.449-0.438l-0.687-0.912l-0.44-0.448
	l-0.914-0.674l-0.441-0.448l-0.229-0.675l-0.678-0.675l-3.837-1.805l-3.168-0.22l-3.837,0.456l-1.356,0.675l-0.677,1.114v2.261
	l-0.229,1.114l-0.449,1.131l-0.906,0.893l-1.127,0.675l-1.354,0.237l-1.355-0.456l-1.584-1.569l-0.449-1.35v-1.351l0.229-1.13
	l0.22-1.13l-0.449-1.114l-0.906-0.911l-1.804-0.22l-4.065,1.131l-1.127,0.439l-2.939,2.7l-3.388,2.025l-0.906,0.911l-1.576,2.025
	l-0.906,0.675l-1.126,0.219l-1.355-0.219l-1.355-0.456l-8.809-5.181l-1.584-0.439l-1.126-0.675l-0.678-1.35l-0.677-0.675
	l-1.355-0.236l-2.262,0.911h-1.126l-1.136-0.236H9.901l-2.261,0.912l-1.127-0.236l-0.677-1.114l-0.449-5.637l-0.678-2.244
	l0.44-1.569l0.687-0.911l0.677-0.895l-0.229-1.57l-1.803-2.48l-1.804-4.049l-3.617-3.375l-3.617-13.957l-1.126-2.7l-1.804-3.376
	l-2.71-1.788l-1.356-2.701l-1.583-4.961l-1.126-7.425l-1.584-5.164l-0.449-0.675l-0.229-0.675l-0.448-2.025l-0.458-2.261
	l0.458-5.165l-3.168-0.675l-0.678-0.455l-0.897-0.456l-0.678-0.895l-0.677-0.456l-1.813-0.675l-1.804-0.894l-3.838-3.375
	l-3.616-3.831l-1.127-0.895l-1.583-0.675l-7.226-1.131l-0.906-0.438l-0.229-0.912l0.457-0.894l0.678-1.131l0.221-1.114l-0.221-1.131
	l-0.906-1.13l-1.355-0.896l-2.262-0.455h-1.576l-1.355,0.236l-0.906,0.675l-0.677,0.894l-0.229,1.13l-0.22,2.464l-0.458,1.13
	l-0.678,0.894l-1.126,0.675l-1.126,0.236l-4.294,0.22l-1.355,0.219l-1.126,0.456l-1.813,1.122l-1.804-1.122l-2.482-2.7
	l-7.454-14.175l-1.135-3.594l-0.45-2.48l-0.449-0.896l-0.906-0.674l-1.127,0.439l-1.584-0.22l-1.583,0.455l-0.897,0.439l-5.2,3.612
	l-1.577,0.674l-1.355,0.438l-1.135-0.219l-1.126-0.22l-1.803,0.675l-7.234,7.425l-2.482,1.569l-1.804,0.456l-0.906-1.13
	l-2.033-3.156l-0.906-0.439l-1.126,0.22l-1.127,0.894l-0.906,1.35l-0.449,4.051l-0.907,4.048l-1.356,1.351l-2.26,1.131l-1.127,2.245
	l-1.126,3.602l-1.813,7.653l-0.678,6.296l-0.449,1.349l-2.261,3.156l-1.127,2.245l-1.805,5.855l-4.294-3.83l-0.906-1.122
	l-0.678-1.123l-0.898-2.481l-0.678-2.463l-0.237-1.131l-0.22-3.595l-0.22-1.13l-0.229-1.131l-0.449-1.114l-0.457-1.13l0.457-0.894
	l0.898-0.675l1.135-0.675l0.22-0.912l-0.22-0.894l-0.678-0.675l-0.678-0.455l-2.947-0.895l-1.119-0.675l-0.915-0.903l-0.677-1.122
	l-0.899-3.603l-0.677-1.123l-2.71-3.375l-1.355-2.928l-0.457-0.228l-0.678-0.22l-1.119,0.22l-3.845,0.911l-0.898-0.236l-0.457-0.896
	l0.22-2.244v-1.131l-0.22-1.13l-0.458-1.35l-0.678-1.113l-1.795-2.025l-0.677-1.13l-0.678-1.13l-0.678-0.675l-0.914-0.22
	l-17.161,18.226l-0.458,1.131l-0.22,1.114l-0.22,2.48l-0.229,1.13l-0.677,1.342l-2.939,4.05l-1.355,3.147l-0.22,1.13l-0.457,3.376
	l-0.45,1.13l-0.677,1.114l-0.678,1.13l-3.837,4.27l-1.355,2.261l-1.355,1.351l-2.261,1.113l-4.295,0.456h-4.964l-1.355-0.22h-0.678
	l-0.915,0.22l-1.118,0.895l-0.915,0.456h-0.678l-1.118-0.895l-0.677-0.912l-0.915-0.894l-1.119-0.219h-1.592l-7.894,2.7l-1.135,0.22
	l-2.033,1.122l-1.135,4.497l-1.355-0.22l-1.576-1.35l-0.678-1.57l-0.678-1.806l-0.897-5.181l-0.457-1.114l-1.136-1.131l-2.032-0.894
	l-0.677-0.675l0.236-1.35l1.119-2.481l2.032-9.906l-0.22-1.789l-0.678-2.261l-2.032-4.05l-5.421-8.539l-1.136-2.481l-0.677-3.156
	l-1.118-10.8l-1.593-3.375h-6.997l-2.71,0.455l-0.678,0.22l-3.388,1.805h-0.897l-0.678-0.219l-0.678-0.674l-1.135-0.675h-1.136
	l-1.354,0.438l-7.217,4.05l-6.776,2.262l-2.71-0.236l-1.593-0.22l-0.897-0.675l-0.678-0.895l-1.136-0.911l-1.576-1.114l-2.49-1.131
	l-1.118-1.13l-0.458-1.113l-0.458-1.131l-0.678-1.131l-4.506-4.05l-4.303-2.92l-2.033-1.13l-3.828-1.113l-1.592,0.219l-2.931,1.35
	l-0.678-0.455l-0.22-0.895l-0.238-1.131l-0.677-0.675h-0.897l-0.899,0.675l-1.134,1.351l-0.458,0.455l-2.032,0.457l-1.355,1.114
	l-0.44,0.455l-2.033,0.895l-3.625,2.7l-0.678,2.937l2.71,9.214v2.024l-0.678,1.587l-0.898,1.113v1.35l0.458,1.806v1.13l-0.458,1.35
	l-0.898,1.114l-4.523,4.506l-0.897,1.35l-1.135,1.806l-1.355,3.139l-1.135,1.585l-1.119,0.675h-1.135l-1.355,0.22l-1.355,0.675
	l-1.576,2.244l-0.457,1.587l0.22,1.35l0.678,0.894l0.678,1.13v1.789l-0.898,1.806l-2.033,2.919l-1.575,1.586l-1.593,0.894
	l-2.252,0.895l-1.136,0.911l-1.796,1.789l-1.134,0.675l-1.136,0.456l-2.473,0.455l-1.356,0.439l-1.812,1.806l-5.642,10.344
	l-1.355,2.026l-3.167,3.375l-4.286,3.611l-6.332,3.139l-1.355,1.586l-0.448,1.114l0.224,0.911l0.453,0.674l0.902,1.114l0.677,1.13
	l0.454,1.131l0.224,0.895l-0.224,2.699l0.224,1.131l0.225,0.894l0.453,0.895l0.453,0.911l0.45,2.245l0.453,1.131l0.898,0.895
	l2.271,1.806l0.898,1.569v1.806l-0.457,1.789v4.506l-1.796,1.806l-10.622,0.895l-2.486-0.456l-1.58-0.894l-0.902-0.895l-1.355-0.675
	l-1.131,0.22l-0.903,0.675l-0.453,1.13v1.114v1.131v1.13l-0.224,1.114l-0.454,1.13l-1.355,2.7l-0.224,1.131l0.902,2.025l0.677,0.895
	l0.902,0.674l3.388,1.131l0.907,0.675l0.902,0.894l0.224,1.131v1.114l-0.449,1.13l-4.744,10.581l-1.354,1.569l-2.94,2.025v0.895
	l0.678,0.675l1.131,0.675l0.903,0.912l0.452,1.113v1.586l-0.677,0.895l-0.902,0.675l-1.131,0.219h-1.131l-1.126-0.219l-2.262-1.131
	l-1.127-0.219h-1.131l-1.355,0.675l-0.677,0.675l-0.225,0.902l-0.229,1.123l-0.449,1.35l-1.13,0.902l-2.711,1.342l-0.902,0.911
	l-0.678,1.351l-0.906,2.463l-0.225,1.131l-0.454,2.025l-8.131,4.726l-2.71,0.455l-0.903-0.675l-3.612-3.604l-1.355-0.902
	l-2.71-0.895l-2.032,0.438l-8.81,3.376h-1.131l-1.13-0.22l-1.804-0.676l-1.355,0.22l-1.355,0.676l-1.131,1.13l-9.486,4.725
	l-2.711,0.457l-1.808,0.894l-3.389,2.245l-1.354,0.456h-1.127l-0.907-0.22l-2.481-1.35l-6.099-2.255l-1.355,0.229l-1.131,0.675
	l-0.678,0.894l-2.032,3.604l-0.678,1.121l-1.131,1.131l-1.58,1.122l-1.13,0.229l-0.902-0.229l-0.902-1.578l-1.355-0.456h-1.131
	l-3.388,1.351l-1.809,2.937l0.677,4.488l-0.224,1.586l-0.903,1.57l-1.13,0.676l-1.131,0.219l-4.514-0.438l-1.131-0.237l-0.902-0.438
	l-0.678-0.455l-0.678-0.675l-0.453-0.896v-1.131l0.224-0.894l1.132-1.351l0.453-0.911v-1.57l-0.229-0.894l-0.678-0.912l-0.902-0.674
	l-2.033-0.675l-1.355,0.455l-1.354,0.675l-3.165,2.481l-2.482,3.139l-1.583,1.13l-1.58,0.22h-2.486l-4.515-0.895l-1.583,0.895
	l-4.515,3.375l-1.131,1.586l-0.225,1.351l0.902,1.115l2.033,2.024l0.677,1.131l0.678,2.244l0.678,1.131l0.453,1.13v1.114
	l-0.906,3.155l-1.58,2.245l-0.453,1.585l-0.225,1.351l0.225,2.7l-0.225,1.569v1.131l0.678,1.113l0.677,1.132l0.453,1.13
	l-0.228,1.114l-2.482,6.074l-0.907,1.133l-0.677,0.454h-2.033l-1.126,0.676l-0.229,0.894l0.454,1.132l0.678,1.112v1.587
	l-0.678,2.024l-1.581,2.025l-0.677,1.35l0.224,1.114l1.809,1.351l0.448,0.911l0.454,2.025l0.453,0.894l0.902,1.351l4.291-0.456
	l11.972,2.481l2.486,1.806l1.356,3.375l0.901,0.894l1.355,0.895l0.902,0.911l0.907,1.35l3.159,7.646l0.677,2.025l0.229,1.569
	l-0.453,0.911l-0.902,0.439h-1.131l-1.131-0.22l-0.902,0.675l-0.225,1.57l0.449,3.375l0.907,1.131h1.127l0.906-0.896l0.677-1.131
	l0.902-0.895l0.902-0.674l1.356,0.219l0.677,0.895l0.229,1.131l-0.453,6.53l0.453,2.464l1.804,4.05l0.229,1.806l-0.677,1.131
	l-0.907,0.676l-2.481,0.675l-0.907,0.438l-0.902,0.911l-0.678,1.114l-0.678,1.585l-0.453,1.79l-0.225,2.699l1.131,3.375l0.224,0.911
	v0.896l-0.453,1.13l-0.678,1.113l-0.903,1.132l-2.257,2.024l-0.907,1.132l-0.449,1.351l-0.906,4.049l-0.449,1.57l-0.678,1.131
	l-0.906,0.438l-1.58-0.438l-0.678,0.219l-0.902,1.131l-1.809,4.27l-0.902,1.567l-1.131,1.131l-1.13,0.904l-2.711,1.121l-0.901,0.903
	l-0.902,1.797l-0.228,2.701v2.025l0.906,3.374l-0.678,1.351l-1.131,0.903l-1.355,0.227h-3.841l-1.127,0.449l-0.907,0.675
	l-1.58,2.023l-2.256,2.254l-0.907,1.568l-0.224,1.351l0.224,1.132l0.678,2.47v1.578l-0.224,2.701l-0.678,1.569l-0.902,1.35
	l-1.13,1.13l-0.903,1.571l-0.453,1.349l-0.225,1.351v1.131l0.225,2.244l0.902,4.506l0.454,3.146l7.454,4.499l1.58,3.155l3.388,0.446
	l3.841-0.903l2.257-0.894l-0.225,3.147l0.678,2.929l1.579,2.699l2.033,1.797l0.907,0.903l0.224,1.122l0.453,1.123l1.355,0.675
	l1.58,0.456l0.902,0.895l0.678,0.902l0.677,0.676l5.196,2.025l4.52-0.448l9.936-3.603l7.907-1.122l2.485-1.579l2.034-0.227
	l6.775,1.806l2.033,1.122l2.711,4.952l2.033,2.472l1.804-0.228l3.618-5.171l2.257-2.254l2.257-0.894l3.617,3.147l0.225,0.675v0.676
	v0.675l0.678,0.674l2.486,0.447l2.482-0.22l4.972-1.35l2.257,0.894l16.039-0.445l4.515,0.674l1.808-0.674l0.903-1.351l0.228-0.448
	l0.225-2.928l-0.902-2.7l-1.583-2.025l-1.804-0.675l0.902-1.796l0.453-0.675l0.901-0.676l-1.354-2.025l1.808-4.953l-0.229-3.821
	l0.678-2.481l2.939-1.122l3.613-0.228l2.257,0.228l4.519,1.796l2.257,0.457l2.487-0.229l2.257,0.447l5.65,3.376l3.837,1.578
	l1.13,0.902l2.033,2.025l1.356,0.675l1.13-0.675l1.126-0.903l1.355-0.447l1.13,0.447l2.034,1.797l0.902,0.676l11.075,0.675
	l2.71,0.903l2.253,2.025l1.355,2.472l0.898,2.701l1.355,2.48l2.27,1.568l1.356,0.229l4.285-1.35h16.043l2.931,0.901l-0.457,2.475
	l0.678,0.675h1.135l1.135,0.674l2.253,4.05l2.49,3.376l2.253,6.074l1.812,2.473l2.931-1.122l2.033-6.979l4.065,0.227l3.846-1.349
	l2.034-0.229l6.997,4.727l1.355,0.675l14.688,1.577l-1.135,3.603l2.033,1.351l2.931,0.896l1.135,1.577l0.457,0.675l-3.168,0.228
	l-2.49,2.243l-1.355,3.604l-0.44,4.278l0.44,0.221l0.237,0.454v0.448v0.446l2.474,0.904l8.131,1.121l2.711,1.131l7.234,4.944
	l2.93,0.675l2.491,0.229l2.033,0.903l1.805,2.919l1.583,6.53l1.356,2.699l2.481,2.246l1.584,1.13l1.804,0.221l3.388-0.447
	l2.032-0.676l1.585-0.902l2.252-2.246l3.168-2.253l0.677-1.12l0.899-2.701l0.677-0.903l2.033-0.901l6.099,0.674l7.911-2.472
	l4.066-0.446l3.608,2.025l1.593,1.349l7.454,3.595l4.065,0.901h2.033l0.898,2.701l2.033,2.7l2.49,2.023l2.473,0.676l2.71,1.579
	l1.355,0.446h1.356l0.914-0.902l1.119-2.699l1.136-0.896h2.49l5.861,2.026l2.939,0.446l3.389-0.228v-0.675l-1.584-1.797
	l-1.126-3.376l1.126-1.578l5.421-4.269l2.262-1.131l2.719-0.22l5.184,0.896l2.711-0.448l2.033-1.349l3.845-3.823l2.033-1.35
	l2.032-0.229h2.253l2.271-0.447l4.286-3.375l4.065,1.57l2.253-1.351l1.355,0.229h3.846l0.897,0.227l0.915,1.799l0.897,1.577
	l1.355,1.35l1.575,0.895l2.71,0.902l3.388,0.448l3.388-0.219l8.81-1.578l0.237-1.123v-4.277l-4.303-5.849l-9.03-9.23l-1.354-3.374
	l-1.576-13.273v-2.025l-0.458-0.903l-0.678-0.447l-1.812,0.229l-0.678-0.229l-0.897-1.351l-0.458-1.349l0.229-1.579l1.356-1.796
	l1.584,2.472l0.677,0.675l0.449-1.12l1.584-8.777l0.22-3.146l-0.22-3.157l-0.678-3.146l-0.906-1.351l-1.355-0.675l-3.617-1.124
	l-2.032-0.227l-1.127-0.675l-0.907-1.121l-0.898-2.481l-0.906-1.122l5.192-5.4l1.583-0.676l0.449-0.902l-0.219-4.05l0.448-0.896
	l1.127,0.221l1.812,0.902l0.898-0.228l2.033-2.025l-0.678-1.797l-3.608-2.93l-1.355-2.698l-0.229-2.701l1.127-2.024l2.71-0.446
	l-1.804,3.146l-0.448,1.577l0.677,1.35l1.575,0.449l0.678-1.351l0.678-1.799l0.907-0.902l0.449-0.893l0.457-2.254l0.449-4.497
	l0.678-1.806l2.481-2.701l0.678-2.244l-0.897-1.578l-2.262-1.351l-2.033-2.472l-0.907-4.952l0.678-1.351l1.584-0.446h3.617
	l0.678,0.675l-1.136,1.351l-2.481,1.796v1.122l1.804,1.131l0.906,1.121l0.678,0.675l1.355-0.227l3.617-5.618l0.678-2.025
	l1.576-1.806l2.939-2.7l0.906-1.569l1.127-3.376l0.906-1.579l2.253-2.698l17.848-13.501l4.743-2.252l3.159-0.675l5.201,2.48
	l2.711-1.131l10.613-13.047l4.295-3.602l14.678-7.872l25.75-21.153v-1.351l-4.295,1.578l-3.836,3.146l-6.777,7.427l-6.547,5.847
	l-4.295,2.253l-4.294,0.229v-1.132l10.842-4.497l1.812-2.024l0.449-2.701l0.907-1.578l8.352-6.969l3.388-2.024l8.132-2.481
	l5.878-4.27l3.836-1.35l7.226-1.131l-1.126,2.699l-1.584,1.807l-2.253,1.122l-2.939,0.675l-6.098,0.447l-2.939,0.902l-1.804,2.254
	l4.294-2.024l7.903-0.904l7.455,0.675l3.388,2.701l0.229,0.675l2.482,9.45l0.677,1.577l0.907,1.122l2.71,1.351l3.159,0.676H30.9
	l1.355-2.474l0.457-1.577l0.221-0.903l0,0v-0.219h0.229l0.677-0.457h1.127l0.906-0.675l0.907-1.122l1.126-0.902l2.94-0.448
	l1.575-0.675l2.032-1.35l5.202-4.496l0.449-0.229l2.482-0.675l0.457-0.228l0.449-0.447l0.229-1.122l0.22-0.675l0.457-0.676
	l0.898-0.455l0.906-0.22l2.261-0.228l0.678-0.228l0.678-0.676l0.678-1.121l0.678-2.254v-1.122l-0.458-0.447l-1.355,0.219h-0.678
	l-0.678-0.219l-0.677-0.229l-0.449-0.446l-0.228-0.455v-0.449l0.228-0.675l1.126-2.252l0.457-0.896l0.45-1.577l0.678-1.35
	l3.388-4.725l2.939-2.253l3.387-1.122l0.678-0.228h0.678l0.678,0.228l4.065,1.35l1.126,0.675l0.907,0.675l0.678,0.229l0.677,0.219
	h0.677h0.458l0.44-0.447l0.458-0.901l0.677-2.025l0.221-1.123v-0.903l-0.221-0.447v-0.675v-0.675l0.221-0.675l2.27-4.953
	l1.576-4.726l0.221-2.024v-1.122v-1.351l-0.678-3.821l-0.22-0.676l-0.229-1.351l-0.229-2.025l0.229-1.35l0.906-0.901l1.576-1.351
	l3.845-2.025l4.964-4.05l1.583-0.903l4.294-1.797l0.898-0.675l0.229-0.448l0.906-0.675l1.575-0.903l0.906-0.675l0.907-1.123
	l0.678-1.131l0.22-0.675l0.229-0.675v-0.675l-0.229-2.699v-1.122v-0.447v-0.228h0.457h0.449h0.678l0,0h0.229h0.678h0.448h0.229l0,0
	l0,0l0,0l0.221-0.228l0.228-0.448v-0.675v-0.675L109.962,259.479z M-259.345,537.133l-1.355,0.235h-0.457l-2.931-0.456l-1.812-1.349
	l-0.221-2.245l1.355-3.156l1.356-0.676l1.354,1.808l1.355,2.919l1.355,2.48V537.133z"/>
<polygon fill="#FFFFFF" stroke="#010101" stroke-width="2" stroke-linecap="round" stroke-linejoin="round" points="408.348,6.566 
	402.697,4.102 401.114,2.751 399.986,0.726 399.08,-1.535 397.725,-3.56 392.084,-7.83 386.206,-10.985 385.307,-13.686 
	384.629,-21.33 384.173,-22.681 382.598,-24.705 382.369,-26.274 382.817,-27.861 384.173,-31 384.629,-32.13 383.724,-34.831 
	382.14,-35.961 378.075,-37.075 376.27,-38.206 373.33,-41.125 371.526,-41.8 368.139,-42.476 364.75,-45.175 362.04,-49.006 
	360.685,-56.65 360.235,-60.025 360.457,-63.182 361.135,-66.337 362.718,-69.037 364.75,-70.151 368.588,-70.826 368.588,-71.062 
	369.044,-71.957 369.493,-72.632 370.171,-73.307 370.619,-73.087 371.755,-72.412 372.204,-72.412 373.11,-72.632 376.27,-72.412 
	378.98,-73.307 381.92,-74.876 384.629,-76.901 386.206,-80.057 387.113,-82.537 388.24,-84.782 389.593,-86.352 391.406,-87.263 
	390.5,-88.832 389.822,-90.639 388.916,-94.013 387.341,-97.827 386.884,-99.852 386.206,-100.308 377.625,-110.213 
	374.686,-111.328 373.56,-110.889 372.652,-109.978 371.526,-109.302 370.399,-109.539 369.266,-110.213 369.044,-110.889 
	369.493,-111.563 369.266,-113.133 369.493,-113.133 369.493,-115.158 369.266,-116.964 368.816,-116.728 369.493,-117.858 
	370.619,-118.989 371.526,-120.558 371.526,-121.909 369.493,-123.714 359.329,-126.178 358.203,-129.114 359.329,-135.628 
	361.591,-142.159 366.106,-151.154 363.165,-156.116 358.651,-161.06 356.171,-165.329 356.848,-167.354 360.235,-171.404 
	361.135,-174.56 361.135,-176.366 360.913,-177.935 359.779,-179.96 357.746,-180.854 338.552,-185.816 329.963,-186.035 
	321.611,-184.466 310.54,-176.805 306.246,-175.91 301.96,-175.691 298.114,-174.34 293.828,-170.729 290.212,-165.785 
	287.501,-162.19 286.823,-159.709 287.271,-157.685 288.407,-154.529 288.627,-153.854 289.762,-150.715 290.439,-150.04 
	291.795,-149.365 293.828,-150.259 294.726,-149.804 295.403,-145.534 292.016,-142.159 283.884,-136.54 277.107,-128.878 
	273.042,-126.853 268.527,-128.659 262.658,-128.439 256.778,-127.089 253.619,-125.284 255.424,-129.333 256.33,-131.139 
	256.778,-132.708 254.525,-135.628 253.171,-138.109 253.619,-140.353 256.778,-142.378 264.689,-146.208 264.689,-146.208 
	264.909,-146.208 265.367,-146.208 266.265,-145.99 266.942,-145.753 267.849,-145.99 270.56,-146.884 271.237,-148.015 
	271.009,-149.804 271.237,-151.828 272.144,-157.009 272.593,-158.579 274.396,-162.629 276.659,-167.809 276.43,-169.835 
	274.854,-172.754 273.042,-174.779 266.723,-178.61 261.303,-172.754 260.396,-171.404 259.49,-169.616 254.975,-165.11 
	254.525,-164.215 252.941,-161.06 252.493,-160.385 251.586,-159.929 250.681,-159.034 249.782,-158.14 249.104,-157.009 
	248.198,-156.116 243.684,-152.064 242.549,-151.389 241.193,-150.935 238.262,-150.715 224.252,-151.389 223.126,-151.828 
	222,-152.503 221.542,-154.09 221.771,-155.44 221.321,-157.009 219.966,-159.034 213.868,-164.435 213.411,-164.891 
	211.157,-162.865 210.7,-162.409 209.574,-160.839 209.124,-160.385 208.218,-159.709 207.769,-159.254 207.312,-158.815 
	207.091,-157.229 206.634,-156.79 206.187,-156.334 205.508,-156.116 204.153,-156.116 203.704,-155.879 203.247,-155.44 
	202.797,-154.984 201.67,-153.415 201.213,-152.959 200.535,-152.503 197.825,-151.389 197.147,-150.479 196.699,-150.04 
	196.25,-149.584 195.572,-149.365 192.185,-150.479 191.049,-151.154 190.371,-152.284 190.371,-154.09 190.601,-155.879 
	190.829,-157.229 191.049,-158.579 191.049,-159.49 190.371,-160.385 187.661,-160.839 186.535,-161.28 184.95,-163.979 
	183.146,-164.654 180.436,-165.329 179.309,-166.46 178.174,-168.029 177.496,-170.51 177.276,-172.079 176.819,-173.666 
	175.464,-175.235 174.337,-175.91 171.177,-176.805 169.822,-179.066 169.822,-185.58 160.784,-188.061 157.396,-190.305 
	154.914,-193.005 152.653,-195.03 151.069,-195.706 149.714,-196.16 145.876,-195.706 137.974,-192.566 135.035,-192.33 
	133.001,-192.786 128.03,-195.03 126.226,-195.706 124.421,-195.706 122.608,-195.267 121.931,-194.811 121.482,-194.355 
	121.482,-194.135 121.253,-192.33 121.033,-191.654 120.127,-189.63 119.898,-188.955 118.542,-185.58 118.322,-184.905 
	118.322,-184.01 117.417,-177.716 116.968,-176.13 116.509,-174.56 114.926,-170.729 113.808,-169.16 113.571,-168.484 
	113.35,-167.809 113.35,-167.134 113.35,-165.785 113.35,-165.11 113.35,-164.435 113.13,-163.76 106.117,-148.689 
	105.676,-147.559 103.864,-138.784 103.186,-136.758 102.966,-135.864 102.966,-134.734 103.186,-134.278 103.406,-132.928 
	95.953,-133.839 93.479,-136.084 92.564,-138.784 91.447,-141.485 91.209,-142.615 91.447,-145.314 91.209,-146.884 
	90.531,-147.779 87.82,-149.584 87.38,-150.479 87.38,-151.609 87.601,-152.959 87.38,-154.529 86.245,-155.204 82.857,-156.554 
	81.501,-156.116 80.824,-155.204 80.604,-154.09 80.604,-152.959 80.367,-151.609 79.689,-150.715 78.571,-149.804 76.759,-149.804 
	75.403,-150.259 74.268,-151.609 73.37,-152.959 72.015,-154.529 70.66,-154.529 69.762,-154.09 68.847,-152.959 67.272,-152.284 
	64.781,-152.064 59.817,-153.415 54.854,-155.659 53.719,-155.44 53.042,-154.765 52.584,-153.635 52.364,-152.74 51.466,-148.234 
	50.551,-144.184 49.874,-142.615 46.045,-137.434 42.658,-134.734 40.624,-133.839 39.031,-133.383 37.677,-133.164 
	36.321,-133.164 35.203,-133.164 31.137,-134.734 25.039,-136.303 23.446,-136.084 20.058,-134.734 18.702,-134.734 
	17.584,-134.734 12.164,-136.54 9.894,-136.979 8.318,-136.758 1.084,-133.839 -0.949,-133.603 -2.523,-134.059 -3.422,-134.734 
	-6.81,-137.654 -8.165,-138.328 -11.113,-139.239 -12.231,-139.678 -13.146,-140.59 -13.366,-141.703 -13.366,-142.833 
	-12.909,-147.339 -12.909,-147.559 -13.146,-147.779 -13.366,-149.804 -14.501,-152.284 -2.745,-159.034 -1.389,-160.385 
	0.187,-161.515 0.187,-162.19 0.407,-162.629 0.407,-163.304 0.187,-163.76 -0.034,-163.979 -0.491,-164.435 -0.949,-165.11 
	-1.389,-165.785 -1.626,-166.46 -1.626,-167.134 -1.626,-168.029 -1.626,-169.16 -1.389,-169.835 -1.626,-170.51 -1.846,-171.185 
	-2.303,-171.64 -2.523,-172.079 -2.523,-173.21 -2.523,-174.34 -1.389,-179.504 -1.169,-180.416 -1.169,-181.311 -1.626,-182.204 
	-1.846,-182.66 -2.067,-183.335 -2.303,-184.229 -2.303,-185.58 -2.523,-186.93 -2.745,-187.841 -3.201,-188.28 -3.422,-188.516 
	-5.235,-189.411 -6.81,-190.541 -7.945,-190.98 -12.01,-191.654 -15.619,-192.566 -16.077,-193.005 -16.534,-193.46 
	-17.211,-194.135 -17.432,-194.592 -19.245,-195.706 -20.6,-197.511 -21.278,-197.966 -21.955,-198.186 -22.632,-198.186 
	-24.428,-197.966 -25.106,-198.186 -25.563,-198.642 -25.784,-199.081 -26.241,-199.536 -26.919,-199.755 -28.274,-200.211 
	-28.731,-200.431 -30.087,-201.562 -30.307,-201.78 -32.34,-202.455 -33.475,-203.13 -33.695,-203.805 -33.695,-204.48 
	-33.018,-205.831 -33.018,-206.505 -32.797,-211.467 -33.018,-214.606 -33.475,-215.517 -33.915,-216.192 -35.507,-216.867 
	-37.76,-220.242 -38.438,-222.267 -38.896,-223.381 -39.573,-223.837 -40.251,-224.292 -40.691,-224.512 -42.047,-226.537 
	-42.504,-226.992 -44.08,-228.781 -44.317,-229.692 -44.758,-231.717 -45.215,-232.831 -48.383,-238.687 -51.99,-239.362 
	-52.211,-238.687 -52.448,-237.557 -52.448,-235.987 -53.126,-234.417 -54.244,-233.506 -55.836,-232.612 -56.277,-231.262 
	-56.277,-229.912 -56.734,-227.887 -58.089,-226.992 -59.902,-226.317 -65.323,-222.706 -66.678,-222.267 -68.474,-222.03 
	-69.609,-222.267 -70.067,-223.162 -70.067,-224.292 -70.067,-225.406 -70.067,-226.757 -70.745,-227.887 -71.642,-229.018 
	-72.54,-231.48 -73.217,-232.392 -76.605,-233.506 -77.961,-233.287 -78.876,-232.392 -80.231,-229.912 -81.586,-228.781 
	-82.941,-228.562 -84.06,-228.781 -86.77,-230.368 -88.803,-231.262 -92.428,-231.937 -94.461,-231.937 -96.256,-231.48 
	-101.457,-229.018 -102.813,-229.018 -104.168,-229.692 -105.303,-230.587 -108.691,-234.856 -110.267,-235.987 -112.52,-236.662 
	-114.112,-236.881 -115.231,-236.442 -116.145,-236.442 -116.585,-236.662 -117.72,-237.557 -120.211,-238.687 -122.684,-240.931 
	-124.497,-243.193 -124.954,-244.307 -125.175,-244.981 -125.395,-245.657 -125.632,-246.568 -125.395,-248.357 -129.02,-248.357 
	-132.408,-248.812 -138.27,-247.007 -146.4,-241.606 -147.316,-240.931 -148.214,-238.907 -148.891,-237.557 -150.246,-236.207 
	-151.602,-236.442 -152.957,-236.881 -154.533,-237.118 -155.668,-236.442 -157.701,-234.182 -158.836,-233.962 -163.122,-235.768 
	-163.799,-236.662 -164.256,-237.337 -165.375,-237.792 -166.052,-237.118 -168.085,-234.637 -171.931,-231.262 -174.184,-229.456 
	-177.572,-229.456 -178.25,-228.781 -178.25,-227.887 -177.809,-225.186 -178.487,-224.056 -179.842,-223.837 -182.773,-224.056 
	-183.671,-223.837 -184.128,-223.162 -184.128,-222.03 -183.671,-221.137 -182.315,-219.111 -181.875,-217.98 -182.095,-217.305 
	-182.993,-215.517 -183.23,-214.167 -182.993,-213.036 -182.315,-211.686 -180.283,-209.205 -179.605,-208.092 -179.165,-206.96 
	-178.927,-206.285 -178.708,-205.393 -178.708,-204.48 -178.927,-203.586 -179.385,-203.13 -190.227,-199.991 -196.325,-199.536 
	-199.934,-198.642 -201.068,-198.642 -202.424,-198.861 -204.457,-198.642 -206.947,-197.966 -214.842,-194.135 -216.654,-190.98 
	-218.01,-189.63 -219.145,-188.955 -220.042,-188.736 -220.941,-188.061 -221.618,-187.166 -222.533,-184.905 -225.921,-179.066 
	-221.398,-172.535 -217.789,-169.16 -217.111,-167.354 -216.874,-165.329 -215.756,-162.19 -214.842,-160.839 -213.486,-160.166 
	-211.013,-159.254 -207.388,-158.579 -206.27,-157.685 -205.592,-156.554 -204.914,-154.529 -204.677,-153.415 -203.779,-152.064 
	-202.882,-151.828 -201.746,-153.178 -200.611,-153.635 -198.816,-152.959 -197.461,-151.389 -192.259,-142.833 -191.361,-141.028 
	-190.448,-136.979 -190.007,-135.409 -189.092,-133.603 -186.381,-129.114 -185.484,-126.178 -186.161,-117.858 -186.161,-116.289 
	-185.703,-114.027 -185.026,-112.458 -182.993,-108.627 -181.875,-105.927 -181.417,-104.138 -181.417,-102.789 -181.875,-100.983 
	-181.875,-100.088 -181.875,-98.282 -181.638,-95.583 -182.315,-94.452 -184.348,-92.426 -185.263,-91.076 -185.94,-89.507 
	-186.838,-87.702 -187.736,-84.782 -188.652,-83.212 -189.77,-81.862 -190.684,-81.188 -191.582,-80.057 -193.395,-77.577 
	-193.835,-76.901 -194.293,-76.901 -194.971,-76.682 -197.461,-77.138 -198.816,-76.682 -199.934,-75.788 -201.526,-73.982 
	-202.882,-72.632 -205.592,-71.062 -206.947,-69.476 -207.167,-68.126 -206.947,-66.776 -204,-62.962 -203.322,-61.832 
	-202.882,-60.481 -202.424,-58.237 -201.967,-56.887 -201.29,-56.211 -200.171,-55.756 -199.256,-55.538 -198.139,-55.3 
	-197.901,-55.081 -197.223,-54.187 -196.105,-53.275 -192.039,-48.111 -190.904,-45.175 -190.684,-44.061 -190.684,-41.362 
	-190.904,-38.206 -191.125,-36.4 -191.361,-35.506 -191.582,-34.831 -192.259,-33.936 -192.937,-33.26 -195.427,-32.35 
	-196.545,-31.675 -197.223,-30.561 -198.579,-24.485 -198.358,-22.9 -197.681,-21.549 -195.427,-19.305 -194.75,-17.28 
	-194.513,-15.036 -194.513,-11.661 -194.513,-9.179 -194.073,-7.375 -193.835,-6.479 -191.582,-5.129 -194.293,6.127 -195.427,9.94 
	-196.325,10.852 -197.003,11.291 -197.901,11.526 -201.746,10.852 -204.677,9.502 -206.49,7.915 -207.625,7.24 -208.065,7.021 
	-208.98,6.801 -210.336,7.021 -212.368,7.477 -213.266,8.151 -213.486,8.827 -213.266,9.265 -212.809,9.721 -212.131,10.177 
	-211.911,10.616 -211.453,11.071 -211.233,11.526 -211.013,12.201 -211.013,13.096 -211.013,13.771 -211.013,14.446 
	-211.233,15.121 -212.809,18.041 -213.724,20.522 -214.401,20.977 -215.079,21.652 -215.977,21.872 -220.263,28.841 
	-221.177,29.752 -223.888,31.322 -226.361,31.777 -227.039,32.215 -227.276,32.891 -227.954,36.942 -228.631,37.616 
	-233.595,41.666 -233.816,42.797 -234.052,44.147 -233.816,45.717 -233.595,47.066 -232.697,48.417 -232.02,49.547 -231.562,51.353 
	-232.02,53.378 -234.729,59.217 -235.628,61.023 -236.085,62.828 -236.982,65.073 -237.881,66.643 -239.016,67.992 -243.979,71.823 
	-244.894,73.173 -244.894,74.523 -244.658,75.654 -241.947,80.378 -241.506,81.493 -241.506,81.948 -241.269,82.404 
	-241.506,82.842 -241.726,83.754 -242.625,84.43 -243.539,84.868 -248.283,85.543 -251.213,86.893 -249.638,90.268 
	-248.503,101.068 -247.825,104.224 -246.69,106.705 -241.269,115.479 -239.236,119.529 -238.559,121.555 -238.338,123.344 
	-240.371,133.031 -241.269,135.73 -241.726,137.081 -241.048,137.52 -239.016,138.431 -237.881,139.544 -237.441,140.676 
	-236.525,145.856 -236.085,147.645 -235.17,149.231 -233.595,150.581 -232.24,150.8 -231.105,146.294 -229.072,145.181 
	-227.716,145.181 -219.823,142.48 -218.467,142.48 -217.111,142.7 -216.434,143.595 -215.756,144.506 -214.842,145.4 
	-213.944,145.4 -213.046,145.181 -211.911,144.27 -211.233,144.051 -210.336,144.051 -208.98,144.27 -204,144.27 -199.934,143.831 
	-197.681,142.48 -196.325,141.131 -194.971,138.87 -190.904,134.6 -190.227,133.706 -189.549,132.575 -189.329,131.444 
	-188.872,127.85 -188.414,126.719 -187.059,123.799 -183.908,119.529 -183.23,118.18 -182.993,117.049 -182.553,114.805 
	-182.315,113.455 -181.875,112.324 -164.697,94.099 -163.799,94.318 -162.902,94.993 -162.444,96.124 -161.766,97.254 
	-159.954,99.28 -159.056,100.629 -158.599,101.743 -158.599,103.093 -158.599,104.224 -158.599,106.469 -158.378,107.144 
	-157.48,107.379 -153.635,106.705 -152.5,106.469 -151.822,106.705 -151.381,106.924 -149.79,109.844 -147.079,113.219 
	-146.638,114.349 -145.504,118.18 -145.046,119.075 -144.148,120.205 -143.013,120.88 -140.083,121.555 -139.625,121.994 
	-138.727,122.669 -138.507,123.581 -138.727,124.475 -140.083,124.931 -140.98,125.605 -141.438,126.499 -140.98,127.63 
	-140.303,128.745 -140.083,129.875 -139.862,131.225 -139.625,134.819 -139.405,135.949 -138.947,138.431 -137.829,140.895 
	-137.151,142.025 -136.237,143.156 -131.951,146.75 -130.138,140.895 -128.783,138.65 -126.529,135.495 -126.072,134.144 
	-125.395,127.85 -123.6,120.205 -122.464,116.594 -121.108,114.349 -119.076,113.219 -117.72,111.868 -116.823,108.055 
	-116.366,104.004 -115.467,102.655 -114.333,101.743 -113.197,101.304 -112.299,101.743 -110.267,104.898 -109.369,106.03 
	-107.557,105.574 -105.066,104.004 -97.611,96.58 -95.816,95.668 -94.902,96.124 -93.783,96.124 -92.428,95.668 -90.836,94.993 
	-85.652,91.398 -84.737,90.943 -83.162,90.504 -81.349,90.724 -80.231,90.268 -79.316,90.943 -78.639,91.854 -78.198,94.099 
	-77.063,97.93 -69.83,112.105 -67.355,114.805 -65.543,115.699 -63.73,114.569 -62.612,114.13 -61.258,113.894 -56.734,113.674 
	-55.6,113.455 -54.481,112.78 -53.803,111.649 -53.346,110.518 -53.126,108.055 -52.889,106.705 -52.211,105.794 -51.312,105.119 
	-49.958,104.898 -48.383,104.68 -46.112,105.119 -44.537,106.03 -43.639,107.379 -43.639,108.493 -43.859,109.625 -44.317,110.755 
	-44.758,111.649 -44.537,112.543 -43.639,113 -36.625,114.13 -35.05,114.805 -33.695,115.699 -30.307,119.529 -26.461,122.905 
	-24.666,124.019 -22.632,124.475 -21.955,124.931 -21.278,125.825 -20.362,126.499 -19.465,126.719 -16.297,127.63 -16.974,132.795 
	-16.534,135.056 -16.077,136.844 -15.619,137.52 -15.399,138.194 -13.824,143.375 -12.688,150.8 -11.333,155.746 -9.978,158.445 
	-7.268,160.251 -5.455,163.626 -4.337,166.545 -0.712,180.501 2.897,183.657 4.93,187.708 6.505,190.17 6.743,191.757 
	6.065,192.652 5.388,193.546 4.93,195.352 5.388,197.596 5.828,203.233 6.505,204.347 7.641,204.583 9.894,203.672 11.028,203.672 
	12.384,203.908 13.519,203.908 15.772,202.997 17.127,203.233 17.584,203.672 18.483,205.022 19.38,205.697 20.973,206.152 
	29.782,211.552 31.357,212.009 32.712,212.227 33.848,211.772 34.746,211.097 36.321,209.072 37.236,208.178 40.624,205.933 
	43.334,203.452 44.452,202.777 48.518,201.646 50.111,201.883 51.229,202.777 51.466,203.672 51.229,205.022 51.009,206.152 
	51.009,207.283 51.466,208.633 52.822,210.202 54.177,210.658 55.752,210.421 56.886,209.528 57.785,208.633 58.242,207.502 
	58.462,206.372 58.462,204.127 59.14,203.233 60.496,202.322 64.341,202.102 67.492,202.322 71.338,203.908 72.015,204.802 
	72.235,205.258 72.692,205.697 73.591,206.372 74.048,206.827 74.726,207.722 75.183,208.178 75.861,208.633 79.469,210.421 
	85.347,212.227 85.347,204.127 88.956,203.452 92.801,203.672 96.41,204.127 97.544,204.583 98.442,205.258 100.476,206.827 
	101.374,208.178 102.051,209.528 104.999,218.083 105.676,218.978 106.574,219.872 107.93,220.328 109.505,219.872 110.861,218.978 
	113.13,217.172 114.485,216.497 115.604,216.277 119,215.822 120.127,215.602 122.608,214.708 125.099,213.122 127.582,212.009 
	136.39,209.528 138.194,209.528 144.072,210.877 146.104,210.658 147.681,210.202 149.493,208.178 150.392,207.502 151.297,207.283 
	151.975,207.958 152.204,209.308 151.747,210.658 150.62,213.122 150.62,214.472 150.62,216.953 150.848,218.303 151.297,219.433 
	152.653,220.784 154.457,221.678 158.523,222.353 160.784,222.353 162.589,221.897 164.402,221.897 173.43,225.271 175.243,225.508 
	176.37,225.271 177.725,225.728 178.631,226.403 179.529,228.208 179.987,229.558 180.207,230.909 180.436,232.259 181.342,233.373 
	182.468,234.503 184.73,235.634 189.474,239.684 190.601,240.359 195.114,240.797 199.181,238.333 202.797,234.503 204.381,232.259 
	205.956,230.672 207.769,230.233 210.929,230.672 212.284,231.803 212.962,232.934 213.19,234.048 213.64,235.178 214.545,235.854 
	215.673,235.854 216.579,235.634 217.027,234.503 216.579,230.233 217.934,227.973 218.383,220.784 218.154,216.058 
	217.476,214.708 216.35,214.033 214.317,213.122 213.411,212.227 211.835,210.202 210.929,209.308 210.251,208.178 210.251,207.047 
	210.929,205.477 211.377,204.347 210.7,203.452 209.801,203.233 208.667,202.997 202.569,203.452 201.67,202.997 199.181,201.646 
	197.825,201.208 195.343,200.752 194.666,200.533 193.988,200.077 189.016,196.246 188.567,195.352 188.338,194.458 
	188.119,192.652 187.889,191.757 187.212,190.407 185.408,188.382 184.95,187.471 184.95,186.357 186.535,185.683 187.661,185.683 
	191.277,186.796 192.404,186.796 193.31,186.577 193.988,185.901 194.436,185.227 194.436,183.877 193.988,183.421 193.31,182.746 
	192.404,182.071 191.507,181.396 190.829,180.282 190.371,179.152 189.923,177.801 189.923,176.671 190.151,175.557 
	190.829,174.882 192.404,174.425 193.539,174.425 197.604,175.101 205.508,178.021 206.634,178.257 208.218,177.801 
	213.868,173.532 214.995,172.401 214.766,170.376 214.088,169.026 213.19,168.132 210.022,165.871 209.124,164.521 208.667,163.846 
	208.447,162.732 208.447,161.82 208.447,160.926 209.124,159.576 212.962,153.72 213.868,151.695 214.317,149.906 214.317,148.556 
	214.766,147.426 216.799,146.531 218.154,146.531 219.288,146.75 220.864,146.969 223.126,147.426 224.709,146.969 226.286,146.531 
	228.547,145.4 232.385,144.945 233.29,144.27 235.323,142.244 236.23,140.895 237.128,139.78 237.128,138.431 236.908,137.3 
	235.553,136.169 234.646,134.6 237.806,129.2 238.939,127.85 240.744,127.174 242.099,126.955 245.937,127.174 248.427,126.719 
	253.619,124.931 254.746,124.019 255.424,122.905 255.652,121.1 255.203,119.75 254.975,118.399 255.652,117.269 258.592,114.805 
	260.844,113.219 261.98,112.78 263.105,112.543 264.461,112.78 266.494,113.674 267.849,113.674 268.976,113.219 275.752,108.73 
	277.107,108.274 278.242,108.274 280.725,109.168 281.852,109.168 285.696,108.274 287.052,108.274 289.305,108.73 290.659,108.493 
	294.954,106.705 296.31,106.249 297.437,106.249 298.57,106.469 303.315,108.274 304.213,108.274 305.348,108.274 305.797,107.379 
	306.246,106.249 306.703,103.549 306.924,98.368 306.703,97.018 306.246,95.448 304.67,93.424 303.535,92.293 302.409,90.724 
	301.96,89.154 301.96,85.323 301.731,83.754 301.282,82.404 299.926,81.274 298.57,81.054 292.693,82.404 290.889,82.167 
	289.762,81.729 288.407,81.274 287.949,79.248 287.949,76.093 289.084,69.798 289.533,66.643 289.981,64.178 290.439,63.267 
	293.6,59.673 295.632,61.479 296.987,61.917 299.021,62.153 302.181,62.153 305.348,62.828 307.152,63.723 308.058,64.854 
	308.735,67.317 309.185,68.667 310.091,69.579 318.671,72.717 319.798,72.498 321.381,71.823 323.186,69.579 324.093,67.773 
	324.321,66.203 324.542,65.073 325.22,64.178 326.354,63.503 330.19,63.723 331.775,63.267 336.52,60.348 340.354,59.892 
	340.354,59.892 341.032,59.453 345.327,56.972 346.683,56.753 348.937,56.753 350.071,56.517 350.969,56.078 353.459,54.272 
	354.356,53.597 358.881,54.492 363.624,56.972 368.366,58.542 372.652,56.517 372.882,55.403 371.975,54.729 371.526,53.597 
	372.204,52.028 373.11,51.573 376.27,51.573 377.396,51.353 379.209,49.547 381.463,45.717 383.275,44.147 387.791,41.902 
	392.304,40.772 393.439,41.227 395.015,43.252 395.692,43.472 396.598,42.578 399.08,38.072 402.469,35.153 402.469,32.215 
	401.114,28.622 400.437,23.221 401.114,22.09 405.408,17.146 408.119,12.42 409.244,9.721 409.244,7.24 "/>
</svg>
