<?xml version="1.0" encoding="utf-8"?>
<!-- Generator: Adobe Illustrator 17.0.0, SVG Export Plug-In . SVG Version: 6.00 Build 0)  -->
<!DOCTYPE svg PUBLIC "-//W3C//DTD SVG 1.0//EN" "http://www.w3.org/TR/2001/REC-SVG-20010904/DTD/svg10.dtd">
<svg version="1.0" id="Calque_1" xmlns="http://www.w3.org/2000/svg" xmlns:xlink="http://www.w3.org/1999/xlink" x="0px" y="0px"
	 width="94px" height="144px" viewBox="0 0 94 144" enable-background="new 0 0 94 144" xml:space="preserve">
<path fill="#000045" d="M75.517,33C80.656,33,85,29.118,85,23.979v-0.433C85,18.407,80.656,14,75.517,14H23.15
	C18.011,14,14,18.407,14,23.546v0.433C14,29.118,18.011,33,23.15,33H28v10h-3.768C18.496,43,14,47.455,14,53.191v64.917
	c0,5.736,4.496,9.891,10.232,9.891h50.203C80.171,128,85,123.845,85,118.109V53.191C85,47.455,80.171,43,74.435,43H73V33H75.517z"/>
</svg>
