<?xml version="1.0" encoding="utf-8"?>
<!-- Generator: Adobe Illustrator 17.0.0, SVG Export Plug-In . SVG Version: 6.00 Build 0)  -->
<!DOCTYPE svg PUBLIC "-//W3C//DTD SVG 1.0//EN" "http://www.w3.org/TR/2001/REC-SVG-20010904/DTD/svg10.dtd">
<svg version="1.0" xmlns="http://www.w3.org/2000/svg" xmlns:xlink="http://www.w3.org/1999/xlink" x="0px" y="0px" width="1280px"
	 height="800px" viewBox="0 0 1280 800" enable-background="new 0 0 1280 800" xml:space="preserve">
<g id="Calque_2">
	
		<line fill="none" stroke="#000045" stroke-width="3" stroke-linecap="round" stroke-linejoin="round" stroke-miterlimit="10" x1="427.945" y1="236.439" x2="436.601" y2="236.439"/>
	
		<line fill="none" stroke="#000045" stroke-width="3" stroke-linecap="round" stroke-linejoin="round" stroke-miterlimit="10" x1="431.84" y1="231.679" x2="431.84" y2="240.334"/>
	<circle fill="#000045" cx="420.3" cy="228.072" r="2.597"/>
	<circle fill="none" stroke="#000045" stroke-width="2" stroke-miterlimit="10" cx="439.342" cy="220.282" r="5.193"/>
	<circle fill="none" stroke="#000045" stroke-width="2" stroke-miterlimit="10" cx="734.587" cy="281.062" r="5.193"/>
	<circle fill="none" stroke="#000045" stroke-width="2" stroke-miterlimit="10" cx="540.654" cy="514.058" r="5.193"/>
	<circle fill="#000045" cx="538.037" cy="500.483" r="2.617"/>
	
		<line fill="none" stroke="#000045" stroke-width="3" stroke-linecap="round" stroke-linejoin="round" stroke-miterlimit="10" x1="776.168" y1="150.938" x2="776.163" y2="156.403"/>
	
		<line fill="none" stroke="#000045" stroke-width="3" stroke-linecap="round" stroke-linejoin="round" stroke-miterlimit="10" x1="779.171" y1="153.946" x2="773.159" y2="153.941"/>
	<circle fill="#000045" cx="766.286" cy="151.282" r="1.093"/>
	<circle fill="none" stroke="#000045" stroke-width="2" stroke-miterlimit="10" cx="768.473" cy="143.084" r="4.065"/>
	
		<line fill="none" stroke="#000045" stroke-width="3" stroke-linecap="round" stroke-linejoin="round" stroke-miterlimit="10" x1="742.5" y1="291" x2="742.5" y2="299"/>
	
		<line fill="none" stroke="#000045" stroke-width="3" stroke-linecap="round" stroke-linejoin="round" stroke-miterlimit="10" x1="739" y1="294.5" x2="747" y2="294.5"/>
	
		<line fill="none" stroke="#000045" stroke-width="3" stroke-linecap="round" stroke-linejoin="round" stroke-miterlimit="10" x1="531.5" y1="503" x2="531.5" y2="511"/>
	
		<line fill="none" stroke="#000045" stroke-width="3" stroke-linecap="round" stroke-linejoin="round" stroke-miterlimit="10" x1="528" y1="506.5" x2="535" y2="506.5"/>
	<polygon fill="none" stroke="#000045" stroke-width="3" stroke-miterlimit="10" points="521.877,316.167 516.211,309.203 
		521.571,302.545 527.237,309.509 	"/>
	<polygon fill="none" stroke="#000045" stroke-width="3" stroke-miterlimit="10" points="724.418,467.641 718.752,460.676 
		724.112,454.018 729.778,460.983 	"/>
	
		<line fill="none" stroke="#000045" stroke-width="3" stroke-linecap="round" stroke-linejoin="round" stroke-miterlimit="10" x1="850.515" y1="218.432" x2="846.188" y2="218.432"/>
	
		<line fill="none" stroke="#000045" stroke-width="3" stroke-linecap="round" stroke-linejoin="round" stroke-miterlimit="10" x1="839.552" y1="218.432" x2="749.763" y2="218.432"/>
	
		<line fill="none" stroke="#000045" stroke-width="3" stroke-linecap="round" stroke-linejoin="round" stroke-miterlimit="10" x1="738.756" y1="197.185" x2="718.815" y2="197.185"/>
	
		<line fill="none" stroke="#000045" stroke-width="3" stroke-linecap="round" stroke-linejoin="round" stroke-miterlimit="10" x1="463.842" y1="269.515" x2="458.384" y2="269.515"/>
	
		<line fill="none" stroke="#000045" stroke-width="3" stroke-linecap="round" stroke-linejoin="round" stroke-miterlimit="10" x1="641.031" y1="269.515" x2="471.092" y2="269.515"/>
	
		<line fill="none" stroke="#000045" stroke-width="3" stroke-linecap="round" stroke-linejoin="round" stroke-miterlimit="10" x1="771.702" y1="519.368" x2="782.792" y2="519.368"/>
	
		<line fill="none" stroke="#000045" stroke-width="3" stroke-linecap="round" stroke-linejoin="round" stroke-miterlimit="10" x1="704.675" y1="519.368" x2="764.906" y2="519.368"/>
	
		<line fill="none" stroke="#000045" stroke-width="3" stroke-linecap="round" stroke-linejoin="round" stroke-miterlimit="10" x1="546.803" y1="466.323" x2="549.086" y2="466.323"/>
	
		<line fill="none" stroke="#000045" stroke-width="3" stroke-linecap="round" stroke-linejoin="round" stroke-miterlimit="10" x1="444.317" y1="466.323" x2="539.277" y2="466.323"/>
	
		<line fill="none" stroke="#002CE6" stroke-width="3" stroke-linecap="round" stroke-linejoin="round" stroke-miterlimit="10" x1="286.734" y1="252.045" x2="318.394" y2="252.045"/>
	<path fill="none" stroke="#002CE6" stroke-width="3" stroke-linecap="round" stroke-linejoin="round" stroke-miterlimit="10" d="
		M352.34,252.033c0-9.374-7.6-16.973-16.973-16.973s-16.973,7.598-16.973,16.973"/>
	<path fill="none" stroke="#002CE6" stroke-width="3" stroke-linecap="round" stroke-linejoin="round" stroke-miterlimit="10" d="
		M352.504,251.931c0-5.816,4.621-10.475,10.439-10.475c5.816,0,10.439,4.936,10.439,10.589h10.594"/>
	<path fill="none" stroke="#002CE6" stroke-width="3" stroke-linecap="round" stroke-linejoin="round" stroke-miterlimit="10" d="
		M433.182,410.857h7.218l-0.167-1.224c0-8.071,6.544-14.615,14.615-14.615s14.555,6.544,14.555,14.615"/>
	<path fill="none" stroke="#002CE6" stroke-width="3" stroke-linecap="round" stroke-linejoin="round" stroke-miterlimit="10" d="
		M496.701,409.414h-9.122c0-4.331-3.979-9.06-8.988-9.06c-5.009,0-8.988,4.068-8.988,9.078l-0.186-0.878"/>
	
		<line fill="none" stroke="#002CE6" stroke-width="3" stroke-linecap="round" stroke-linejoin="round" stroke-miterlimit="10" x1="281.08" y1="252.045" x2="276.557" y2="252.045"/>
	
		<line fill="none" stroke="#002CE6" stroke-width="3" stroke-linecap="round" stroke-linejoin="round" stroke-miterlimit="10" x1="724.112" y1="120.195" x2="737.961" y2="120.195"/>
	<path fill="none" stroke="#002CE6" stroke-width="3" stroke-linecap="round" stroke-linejoin="round" stroke-miterlimit="10" d="
		M753.463,120.188c0-4.166-3.377-7.543-7.543-7.543c-4.166,0-7.543,3.377-7.543,7.543"/>
	
		<line fill="none" stroke="#002CE6" stroke-width="3" stroke-linecap="round" stroke-linejoin="round" stroke-miterlimit="10" x1="753.542" y1="120.195" x2="757.869" y2="120.195"/>
	
		<line fill="none" stroke="#002CE6" stroke-width="3" stroke-linecap="round" stroke-linejoin="round" stroke-miterlimit="10" x1="721.516" y1="120.195" x2="718.919" y2="120.195"/>
	
		<line fill="none" stroke="#002CE6" stroke-width="2" stroke-linecap="round" stroke-linejoin="round" stroke-miterlimit="10" x1="763.063" y1="326.76" x2="776.912" y2="326.76"/>
	<path fill="none" stroke="#002CE6" stroke-width="2" stroke-linecap="round" stroke-linejoin="round" stroke-miterlimit="10" d="
		M792.413,326.754c0-4.166-3.377-7.543-7.543-7.543s-7.543,3.377-7.543,7.543"/>
	
		<line fill="none" stroke="#002CE6" stroke-width="2" stroke-linecap="round" stroke-linejoin="round" stroke-miterlimit="10" x1="792.492" y1="326.76" x2="796.82" y2="326.76"/>
	
		<line fill="none" stroke="#002CE6" stroke-width="2" stroke-linecap="round" stroke-linejoin="round" stroke-miterlimit="10" x1="760.466" y1="326.76" x2="757.869" y2="326.76"/>
	
		<line fill="none" stroke="#002CE6" stroke-width="3" stroke-linecap="round" stroke-linejoin="round" stroke-miterlimit="10" x1="485.9" y1="174.303" x2="516.554" y2="174.303"/>
	<path fill="none" stroke="#002CE6" stroke-width="3" stroke-linecap="round" stroke-linejoin="round" stroke-miterlimit="10" d="
		M550.867,174.289c0-9.221-7.476-16.697-16.697-16.697c-9.221,0-16.697,7.476-16.697,16.697"/>
	<path fill="none" stroke="#002CE6" stroke-width="3" stroke-linecap="round" stroke-linejoin="round" stroke-miterlimit="10" d="
		M568.867,174.289c0-4.669-3.784-8.453-8.453-8.453s-8.453,3.784-8.453,8.453"/>
	<path fill="none" stroke="#002CE6" stroke-width="3" stroke-linecap="round" stroke-linejoin="round" stroke-miterlimit="10" d="
		M579.948,174.289c0-2.968-2.404-5.372-5.372-5.372s-5.372,2.404-5.372,5.372"/>
	
		<line fill="none" stroke="#002CE6" stroke-width="3" stroke-linecap="round" stroke-linejoin="round" stroke-miterlimit="10" x1="580.418" y1="174.289" x2="587.443" y2="174.303"/>
	
		<line fill="none" stroke="#002CE6" stroke-width="3" stroke-linecap="round" stroke-linejoin="round" stroke-miterlimit="10" x1="480.152" y1="174.303" x2="474.404" y2="174.303"/>
	
		<line fill="none" stroke="#002CE6" stroke-width="3" stroke-linecap="round" stroke-linejoin="round" stroke-miterlimit="10" x1="428.851" y1="410.857" x2="427.407" y2="410.857"/>
	<path fill="none" stroke="#002CE6" stroke-width="3" stroke-linecap="round" stroke-linejoin="round" stroke-miterlimit="10" d="
		M757.205,417.553c0-8.071,6.544-14.615,14.615-14.615s14.555,6.544,14.555,14.615"/>
	<path fill="none" stroke="#002CE6" stroke-width="3" stroke-linecap="round" stroke-linejoin="round" stroke-miterlimit="10" d="
		M750.154,418.777"/>
	<path fill="none" stroke="#002CE6" stroke-width="3" stroke-linecap="round" stroke-linejoin="round" stroke-miterlimit="10" d="
		M814.539,418.199h-9.122c0-4.331-3.882-9.926-9.854-9.926c-5.009,0-8.988,4.068-8.988,9.078l-0.186-0.878"/>
	<path fill="none" stroke="#002CE6" stroke-width="3" stroke-linecap="round" stroke-linejoin="round" stroke-miterlimit="10" d="
		M757.205,417.894h-9.122c0-3.465-3.979-8.195-8.988-8.195c-5.009,0-8.988,4.068-8.988,9.078"/>
	
		<line fill="none" stroke="#002CE6" stroke-width="3" stroke-linecap="round" stroke-linejoin="round" stroke-miterlimit="10" x1="725.324" y1="418.777" x2="723.88" y2="418.777"/>
</g>
<g id="Poids_Bleu_fonce">
</g>
<g id="poids_bleu_clair">
</g>
<g id="Calque_6">
	<g>
		<path fill="#FFFFFF" d="M274,87v283h681V87H274z M622.167,309.464c-42.049,0-76.137-31.414-76.137-70.165
			c0-38.751,34.088-70.165,76.137-70.165s76.137,31.414,76.137,70.165C698.304,278.05,664.216,309.464,622.167,309.464z"/>
	</g>
</g>
<g id="Calque_1">
	<ellipse fill="#F2F2F2" cx="619.884" cy="654.55" rx="147.068" ry="18.746"/>
	<ellipse fill="#F2F2F2" cx="864.317" cy="654.55" rx="53.382" ry="6.804"/>
	<ellipse fill="#F2F2F2" cx="380.123" cy="654.55" rx="53.382" ry="6.804"/>
	<path fill="#FFDBC7" d="M556.725,433.905c-0.511,2.269-4.302,3.348-8.469,2.41l0,0c-4.166-0.938-7.053-3.88-6.542-6.149
		l15.086-67.021c0.511-2.269,4.302-3.348,8.469-2.41l0,0c4.166,0.938,7.13,3.537,6.619,5.806L556.725,433.905z"/>
	<path fill="#FFDBC7" d="M688.237,433.905c0.511,2.269,4.302,3.348,8.469,2.41l0,0c4.166-0.938,7.053-3.88,6.542-6.149
		l-15.086-67.021c-0.511-2.269-4.302-3.348-8.469-2.41l0,0c-4.166,0.938-7.13,3.537-6.619,5.806L688.237,433.905z"/>
	<path fill="#FFDBC7" d="M621.234,466.323h49.465V339.689c0,0-3.277-18.457-41.06-18.657v-0.009h-0.606c-5.874,0-5.874,0-5.874,0
		h-1.925c0,0,0,0-5.874,0h-0.889v0.014c-37.512,0.292-40.777,18.652-40.777,18.652v126.633H621.234"/>
	<path fill="#050505" d="M621.608,466.323l-47.915,0l12.87,185.217h11.66c0,0-6.073-161.607,23.385-161.607
		c29.459,0,23.385,161.607,23.385,161.607h11.66l14.045-185.217H621.608z"/>
	<path fill="#050505" d="M595.139,651.539h-37.267c0,0,5.473-13.761,19.806-15.249c14.333-1.488,17.461,0,17.461,0V651.539z"/>
	
		<rect x="558.018" y="651.539" fill="#FFFFFF" stroke="#050505" stroke-width="0.25" stroke-linecap="square" stroke-linejoin="bevel" stroke-miterlimit="10" width="40.045" height="2.674"/>
	<path fill="#050505" d="M647.938,651.539h37.267c0,0-5.473-13.761-19.806-15.249c-14.333-1.488-17.461,0-17.461,0V651.539z"/>
	
		<rect x="645.014" y="651.539" fill="#FFFFFF" stroke="#050505" stroke-width="0.25" stroke-linecap="square" stroke-linejoin="bevel" stroke-miterlimit="10" width="40.045" height="2.674"/>
	<path fill="#002CE6" d="M691.416,365.626c0,0-10.822-20.38-24.958-32.985c-1.724-1.88-4.067-3.89-7.496-5.701
		c-3.577-2.164-7.211-3.608-10.883-3.949c-0.005-0.001,0.013-0.002,0.008-0.004c-0.001,0.001-0.029,0.001-0.03,0.002
		c-0.01-0.001-0.057-0.003-0.057-0.003c0,0.01,0,0.02,0,0.03c-23,22.887-51.631,0.17-51.743-0.03
		c-3.758,0.339-7.501,1.835-11.156,4.077c-3.261,1.754-5.598,3.684-7.279,5.499c-14.179,12.599-25.064,33.064-25.064,33.064
		L574,375.339V467h47.233H670v-91.67L691.416,365.626z"/>
	<rect x="573.693" y="460.5" fill="#050505" width="97.006" height="6.543"/>
	<rect x="617.048" y="460.5" fill="#FFFFFF" width="10.509" height="5.823"/>
	<path fill="#FFDBC7" d="M621.608,169.134c-42.049,0-76.137,31.414-76.137,70.165c0,38.751,34.088,70.165,76.137,70.165
		s76.137-31.414,76.137-70.165C697.746,200.548,663.658,169.134,621.608,169.134z M590.068,255.431
		c-15.484,0-28.037-12.552-28.037-28.037s12.552-28.037,28.037-28.037s28.037,12.552,28.037,28.037S605.552,255.431,590.068,255.431
		z M652.888,255.431c-15.484,0-28.037-12.552-28.037-28.037s12.552-28.037,28.037-28.037c15.484,0,28.037,12.552,28.037,28.037
		S668.372,255.431,652.888,255.431z"/>
	<circle fill="none" stroke="#333333" stroke-width="3" stroke-miterlimit="10" cx="590.068" cy="228.072" r="28.037"/>
	<circle fill="none" stroke="#333333" stroke-width="3" stroke-miterlimit="10" cx="652.888" cy="228.072" r="28.037"/>
	<ellipse fill="#FFDBC7" cx="697.746" cy="231.067" rx="11.365" ry="19.798"/>
	<path fill="none" stroke="#D3A89C" stroke-linecap="round" stroke-linejoin="round" stroke-miterlimit="10" d="M607.774,254.802
		c7.439,7.439,19.479,7.439,26.919,0"/>
	<path fill="#FFDBC7" d="M636.816,321.847v-16.933c0-5.179-6.391-9.378-14.276-9.378h-2.614c-7.884,0-14.276,4.199-14.276,9.378
		v16.933H636.816z"/>
	<path fill="none" stroke="#333333" stroke-width="3" stroke-miterlimit="10" d="M615.36,215.282c0,0,5.733-4.711,12.236,0"/>
	<path fill="none" stroke="#333333" stroke-width="3" stroke-linecap="round" stroke-linejoin="round" stroke-miterlimit="10" d="
		M543.092,211.269c0,0,12.049-7.097,23.572,0.689"/>
	<path fill="none" stroke="#333333" stroke-width="3" stroke-linecap="round" stroke-linejoin="round" stroke-miterlimit="10" d="
		M677.053,211.269c0,0,14.697-7.787,26.22,0"/>
	<ellipse fill="#FFDBC7" cx="548.445" cy="231.067" rx="11.365" ry="19.798"/>
	<path fill="none" stroke="#D3A89C" stroke-linecap="round" stroke-linejoin="round" stroke-miterlimit="10" d="M543.092,239.299
		c0,0-5.948-19.108,5.353-21.784"/>
	<path fill="none" stroke="#D3A89C" stroke-linecap="round" stroke-linejoin="round" stroke-miterlimit="10" d="M703.844,239.299
		c0,0,5.948-19.108-5.353-21.784"/>
	<path fill="#8C8C8C" d="M624.851,161.007c-61.238,0-39.102,23.495-65.041,26.172c-14.339,1.784-14.339,24.78-14.339,24.78
		s8.625-3.624,7.435,19.108l-2.825,27.491l5.056-0.297c0,0-2.526-9.999,2.8-16.312c5.326-6.313-10.087-29.489,11.624-46.739
		c21.711-17.25,78.814,23.495,105.284,0c8.654,10.342,10.832,22.207,11.369,28.229c-0.707,7.662-2.537,13.979-0.121,16.842
		c5.326,6.313,2.8,16.312,2.8,16.312l5.056,0.297l-2.825-27.491c-0.46-8.796-0.516-14.066,1.961-16.277
		c2.053-1.613,5.633-3.163,9.402-0.048C707.858,217.515,686.09,161.007,624.851,161.007z"/>
	<path id="barre" fill="#000045" d="M894,371.127c0,2.928-3.293,5.873-7.145,5.873h-241.07H357.273
		c-3.851,0-7.273-2.945-7.273-5.873v-0.528c0-2.928,3.422-5.599,7.273-5.599h529.582c3.851,0,7.145,2.671,7.145,5.599V371.127z"/>
	<path fill="#FFDBC7" d="M594.744,374.463c1.329-2.142-0.537-5.704-4.166-7.954l0,0c-3.629-2.251-7.649-2.339-8.977-0.196
		l-39.448,63.609c-1.329,2.142,0.536,5.704,4.166,7.954l0,0c3.629,2.251,7.649,2.339,8.977,0.196L594.744,374.463z"/>
	<path fill="#FFDBC7" d="M650.167,373.597c-1.329-2.142,0.537-5.704,4.166-7.954l0,0c3.629-2.251,9.714,1.435,11.042,3.578
		l37.383,59.835c1.329,2.142-0.537,5.704-4.166,7.954l0,0c-3.629,2.251-7.649,2.339-8.977,0.196L650.167,373.597z"/>
	<path fill="#FFDBC7" d="M656.083,359.36"/>
	<path fill="#FFDBC7" d="M660.647,355.595c-0.992-0.467-3.021-0.575-4.64,0.729"/>
	<path fill="#FFDBC7" d="M655.952,356.305c0.017,0.006,0.039,0.012,0.055,0.018C656.085,356.164,656.014,356.228,655.952,356.305z"
		/>
	<g>
		<path fill="#FF7373" stroke="#FF9999" stroke-linecap="round" stroke-linejoin="round" stroke-miterlimit="10" d="
			M622.111,291.245c10.283,0,18.619-6.068,18.619-13.553h-37.237C603.492,285.177,611.828,291.245,622.111,291.245z"/>
		<path fill="#FFFFFF" d="M611.228,287.083c0,0,5.604,2.814,10.939,2.814c5.335,0,10.99-2.814,10.99-2.814s2.167-1.257,2.822-1.912
			c-4.272,0-27.623,0-27.623,0S610.309,286.661,611.228,287.083z"/>
		<polygon fill="#FFFFFF" points="604.853,278.796 639.369,278.796 638.894,280.708 605.396,280.708 		"/>
	</g>
	<path fill="#8C8C8C" d="M621.234,266.422c-5.234-11.111-30.516,4.722-40.83-6.041c0,0,20.26,31.118,40.83,12.124
		c20.57,18.995,40.83-12.124,40.83-12.124C651.749,271.144,626.468,255.312,621.234,266.422z"/>
	<path fill="#FFDBC7" d="M665,367.673v0.002c-1-11.331-4.757-12.196-4.757-12.196l0.073,0.005c-1.031-0.426-2.671-0.752-4.345,0.839
		c-0.185,0.176-0.108,0.07-0.037-0.018c-0.669-0.241-2.147-0.554-3.506,0.737c-0.779,0.74-1.034,1.536-1.071,2.226l-0.234-0.211
		c0,0-2.063-1.145-3.881,0.582c-0.919,0.873-1.117,1.825-1.075,2.588c-0.523-0.121-1.369-0.117-2.301,0.799
		c-0.707,0.696-1.15,1.228-1.171,1.974c1.27-0.009,2.447,0.781,3.226,1.85c1.455,1.997,2.922,10.15,2.922,10.15h-3.333
		c1.371,2.324,11.415,2.095,11.415,2.095l1.186-1.804l7.121-8.071C665.233,369.22,665,368.628,665,367.673z"/>
	<path fill="#FFDBC7" d="M597.688,376.938c0,0,1.728-8.091,3.183-10.088c0.743-1.019,1.968-1.827,3.189-1.85
		c0.174-0.809,0.126-1.711-1.204-2.84c-0.996-0.846-1.778-0.92-2.301-0.799c0.043-0.763-0.156-1.715-1.075-2.588
		c-1.818-1.727-3.882-0.582-3.882-0.582l-0.236,0.211c-0.036-0.69-0.296-1.486-1.075-2.226c-1.351-1.283-2.826-0.982-3.501-0.741
		c-1.903-2.119-5.132-0.821-5.132-0.821s-4.111,0.866-4.899,12.196l-0.162,2.613l1.014-0.568l0.08-0.126l6.927,7.697l1.186,1.804
		c0,0,7.593,0.249,10.546-1.23L597.688,376.938z"/>
</g>
<g id="Calque_5">
</g>
</svg>
