<?xml version="1.0" encoding="utf-8"?>
<!-- Generator: Adobe Illustrator 17.0.0, SVG Export Plug-In . SVG Version: 6.00 Build 0)  -->
<!DOCTYPE svg PUBLIC "-//W3C//DTD SVG 1.0//EN" "http://www.w3.org/TR/2001/REC-SVG-20010904/DTD/svg10.dtd">
<svg version="1.0" id="Calque_1" xmlns="http://www.w3.org/2000/svg" xmlns:xlink="http://www.w3.org/1999/xlink" x="0px" y="0px"
	 width="94px" height="144px" viewBox="0 0 94 144" enable-background="new 0 0 94 144" xml:space="preserve">
<path fill="#000045" d="M75.517,34C80.656,34,84,29.118,84,23.979v-0.433C84,18.407,80.656,15,75.517,15H23.15
	C18.011,15,13,18.407,13,23.546v0.433C13,29.118,18.011,34,23.15,34H27v10h-2.768C18.496,44,13,47.455,13,53.191v64.917
	C13,123.845,18.496,129,24.232,129h50.203c5.736,0,9.565-5.155,9.565-10.891V53.191C84,47.455,80.171,44,74.435,44H72V34H75.517z"/>
</svg>
