<?xml version="1.0" encoding="utf-8"?>
<!-- Generator: Adobe Illustrator 17.0.0, SVG Export Plug-In . SVG Version: 6.00 Build 0)  -->
<!DOCTYPE svg PUBLIC "-//W3C//DTD SVG 1.1//EN" "http://www.w3.org/Graphics/SVG/1.1/DTD/svg11.dtd">
<svg version="1.1" id="Capa_1" xmlns="http://www.w3.org/2000/svg" xmlns:xlink="http://www.w3.org/1999/xlink" x="0px" y="0px"
	 width="285px" height="262px" viewBox="121.507 124.507 285 262" enable-background="new 121.507 124.507 285 262"
	 xml:space="preserve">
<g>
	<polygon points="392.507,279.184 392.507,278.727 264.737,202.448 134.311,279.98 263.786,355.413 	"/>
	<g>
		<path fill="#FFFFFF" d="M342.617,236.905c0.144,1.167,0.26,2.34,0.344,3.514c2.409,34.643-22.701,65.54-57.584,69.845
			c-17.543,2.165-34.335-2.786-47.432-12.609c-10.636-7.903-18.849-18.981-23.16-32.051c-1.296-4.019-2.26-8.227-2.797-12.577
			c-1.088-8.816-0.374-17.438,1.835-25.476c2.721-9.878,7.792-18.26,14.516-25.729c10.12-11.413,24.298-18.756,40.558-20.763
			l0.525-0.065c8.086-0.998,15.947-1.176,23.405,0.66c10.995,2.643,20.959,7.736,29.119,15.265
			C333.012,207.111,340.628,220.791,342.617,236.905z"/>
		<polygon points="280.159,235.676 294.972,207.707 270.56,189.994 241.343,204.763 245.917,233.452 		"/>
		<polygon points="274.942,289.286 293.523,304.403 320.767,288.576 322.327,262.587 293.345,262.595 		"/>
		<path d="M342.617,236.905c0.144,1.167,0.26,2.34,0.344,3.514l-9.142-1.569l-13.856-27.747l1.893-14.164
			C332.923,207.13,340.628,220.791,342.617,236.905z"/>
		<path d="M249.295,284.682l-15.532-28.918l-19.22-4.074c-1.419,3.035-0.816,10.925-0.816,10.925s3.81,18.361,22.133,33.371
			L249.295,284.682z"/>
		<path d="M213.636,228.36l14.73-21.061l-0.499-4.655C227.867,202.644,217.506,212.694,213.636,228.36z"/>
		<path d="M295.485,182.395l-16.95,1.528l-12.275-2.387C266.261,181.536,281.266,178.03,295.485,182.395z"/>
	</g>
	<g>
		<path fill="none" stroke="#E8CFCF" stroke-width="4" stroke-linecap="round" stroke-linejoin="round" stroke-miterlimit="10" d="
			M270.262,233.441c0,0,0.804-22.438-15.772-29.357c-6.486-2.306-15.567-1.73-15.807,10.33"/>
		<polygon fill="#992716" points="214.564,200.831 204.578,265.507 204.641,265.507 204.583,265.777 286.128,311.492 
			296.114,246.175 		"/>
		<polygon fill="#992716" points="214.564,201.156 222.885,254.507 222.948,254.507 222.89,254.452 304.435,300.005 
			296.114,246.419 		"/>
		<polygon fill="#D8584E" points="286.128,311.521 304.435,299.871 288.983,291.214 		"/>
	</g>
	<polygon fill="#992716" points="162.564,191.938 174.218,266.507 174.307,266.507 174.225,266.584 288.435,330.46 276.78,255.371 	
		"/>
	<polygon fill="#D8584E" points="262.795,346.665 288.435,330.349 266.794,318.224 	"/>
	<path fill="none" stroke="#E8CFCF" stroke-width="4" stroke-linecap="round" stroke-linejoin="round" stroke-miterlimit="10" d="
		M240.574,237.308c0,0,1.126-31.426-22.09-41.116c-9.085-3.23-21.803-2.423-22.139,14.468"/>
	<polygon fill="#992716" points="162.564,191.78 148.578,282.507 148.667,282.507 148.584,282.742 262.795,346.697 276.78,255.252 	
		"/>
</g>
</svg>
