<?xml version="1.0" encoding="utf-8"?>
<!-- Generator: Adobe Illustrator 17.0.0, SVG Export Plug-In . SVG Version: 6.00 Build 0)  -->
<!DOCTYPE svg PUBLIC "-//W3C//DTD SVG 1.1//EN" "http://www.w3.org/Graphics/SVG/1.1/DTD/svg11.dtd">
<svg version="1.1" id="Calque_1" xmlns="http://www.w3.org/2000/svg" xmlns:xlink="http://www.w3.org/1999/xlink" x="0px" y="0px"
	 width="326px" height="314px" viewBox="-102.789 -131.982 326 314" enable-background="new -102.789 -131.982 326 314"
	 xml:space="preserve">
<g id="Bus">
	<g>
		<path fill="#E8CFCF" d="M-27.304,67.681l13.136-31.437L45.101,1.001l61.456,36.155l0.001,0.182l-2.862,1.695l0.026,0.016
			l2.848-1.685l16.143,12.858l0.872,0.513l70.068-36.654l13.464,8.539c0,0,5.544,2.677,1.519,5.003
			C186.283,40.821-14.942,157.776-16.207,158.35c-1.393,0.632-3.769,2.332-7.245,0.541c-12.945-7.697-61.298-36.444-62.921-37.332
			c-1.874-1.026-1.553-3.657,1.204-5.511c2.756-1.854,15.297-9.558,15.297-9.558L-27.304,67.681z"/>
		<g>
			<g>
				<polygon fill="#C23018" points="202.814,-73.742 203.015,-73.617 203.025,26.366 -20.632,154.66 -20.632,54.398 				"/>
				<polygon fill="#992716" points="-20.632,154.66 -84.588,118.251 -84.471,20.927 -20.632,54.398 				"/>
			</g>
			<polygon fill="#D8584E" points="141.402,-108.592 202.814,-73.742 -20.632,54.398 -84.471,20.927 			"/>
			<polygon fill="#100A0A" points="-81.413,88.202 -24.09,118.986 -24.09,55.412 -81.413,27.655 			"/>
			<g>
				<defs>
					<polygon id="SVGID_1_" points="-81.413,88.202 -24.09,118.986 -24.09,55.412 -81.413,27.655 					"/>
				</defs>
				<clipPath id="SVGID_2_">
					<use xlink:href="#SVGID_1_"  overflow="visible"/>
				</clipPath>
				<path clip-path="url(#SVGID_2_)" fill="#EFCCCB" d="M-20.207,48.48l0.001,0.205l-65.865,39.008l-69.789-40.239l59.408-35.325
					c0,0,7.65-3.885,13.835-0.366C-76.433,15.282-20.207,48.48-20.207,48.48z"/>
				<path clip-path="url(#SVGID_2_)" fill="#C59692" d="M71.004,23.975L6.242,70.4l-100.565,95.678l-30.538-20.213L48.89,21.194
					c0,0,16.633-2.078,23.122,1.443C78.501,26.157,71.004,23.975,71.004,23.975z"/>
			</g>
			<polygon fill="#FFFFFF" points="-84.753,87.588 -20.746,124.055 -20.746,120.768 -84.753,84.3 			"/>
			<path fill="#1E1D1D" d="M26.544,129.773c0,8.31,6.309,13.037,14.092,10.558c7.783-2.479,14.092-11.226,14.092-19.536
				s-6.309-13.037-14.092-10.558S26.544,121.463,26.544,129.773z"/>
			<path fill="#FFFFFF" d="M33.722,127.486c0,4.077,3.095,6.396,6.914,5.18c3.818-1.216,6.914-5.507,6.914-9.585
				s-3.095-6.396-6.914-5.18S33.722,123.409,33.722,127.486z"/>
			<path fill="#423C3C" d="M36.084,124.097c0,2.684,2.038,4.211,4.551,3.41c2.514-0.801,4.551-3.626,4.551-6.31
				s-2.038-4.211-4.551-3.41C38.122,118.587,36.084,121.413,36.084,124.097z"/>
			<path fill="#1E1D1D" d="M150.263,59.216c0,8.31,6.309,13.037,14.092,10.558c7.783-2.479,14.092-11.226,14.092-19.536
				s-6.309-13.037-14.092-10.558C156.572,42.159,150.263,50.906,150.263,59.216z"/>
			<path fill="#FFFFFF" d="M157.038,57.058c0,4.314,3.275,6.768,7.316,5.481c4.04-1.287,7.316-5.828,7.316-10.142
				s-3.275-6.768-7.316-5.481C160.314,48.202,157.038,52.743,157.038,57.058z"/>
			<path fill="#423C3C" d="M159.301,53.811c0,2.98,2.263,4.676,5.054,3.786c2.791-0.889,5.054-4.026,5.054-7.006
				s-2.263-4.676-5.054-3.786C161.563,47.694,159.301,50.831,159.301,53.811z"/>
			<polygon fill="#100A0A" points="-16.387,108.564 200.163,-13.755 200.163,-64.226 -16.387,58.094 			"/>
			<g>
				<defs>
					<polygon id="SVGID_3_" points="-16.387,108.564 200.163,-13.755 200.163,-64.226 -16.387,58.094 					"/>
				</defs>
				<clipPath id="SVGID_4_">
					<use xlink:href="#SVGID_3_"  overflow="visible"/>
				</clipPath>
				<path clip-path="url(#SVGID_4_)" fill="#7D5B5A" d="M78.739,1.256l0.147,0.168l-50.367,98.793l-17.82-8.26L59.358-3.815
					c0,0,2.364-3.187,9.028-0.313S78.739,1.256,78.739,1.256z"/>
				<path clip-path="url(#SVGID_4_)" fill="#7D5B5A" d="M192.218-59.26l0.147,0.168L141.998,39.7l-17.82-8.26l48.659-95.772
					c0,0,2.364-3.187,9.028-0.313C188.53-61.77,192.218-59.26,192.218-59.26z"/>
			</g>
			<polygon fill="#FFFFFF" points="200.286,-11.758 -17.044,108.983 -17.044,105.695 200.286,-15.045 			"/>
			<polygon fill="#C23018" points="89.752,-2.906 87.483,-2.921 87.483,61.132 89.752,61.147 			"/>
			<polygon fill="#C23018" points="-9.605,51.654 -11.875,51.638 -11.875,115.691 -9.605,115.706 			"/>
			<polygon fill="#C23018" points="16.117,38.713 13.847,38.698 13.847,102.751 16.117,102.766 			"/>
			<polygon fill="#C23018" points="115.285,-18.432 113.015,-18.447 113.015,45.605 115.285,45.621 			"/>
			<polygon fill="#100A0A" points="89.5,91.407 113.162,77.795 113.162,-15.105 89.5,-1.772 			"/>
			<polygon fill="#100A0A" points="-9.605,148.363 14.057,134.752 14.057,40.969 -9.605,54.302 			"/>
			<polygon fill="#100A0A" points="-84.753,26.15 -20.746,59.94 -20.746,54.685 -84.753,20.895 			"/>
		</g>
		<path fill="#F9F7D6" d="M-36.004,131.237c-0.856,1.351-0.032,3.414,1.839,4.607c1.872,1.193,4.082,1.065,4.938-0.286
			c0.856-1.351,0.032-3.414-1.839-4.607C-32.937,129.758-35.148,129.886-36.004,131.237z"/>
		<path fill="#F9F7D6" d="M-78.796,107.743c-0.856,1.351-0.032,3.414,1.839,4.607c1.872,1.193,4.082,1.065,4.938-0.286
			c0.856-1.351,0.032-3.414-1.839-4.607C-75.729,106.263-77.94,106.391-78.796,107.743z"/>
		<path fill="#FFFFFF" d="M-66.948,121.372c0,0,0-7.906,0-10.405s1.034-3.82,2.084-3.413c1.05,0.407,23.496,13.13,23.496,13.13
			s0,10.325,0,11.51s-0.256,3.671-2.234,2.743C-45.58,134.009-66.948,121.372-66.948,121.372z"/>
	</g>
	<g>
		<path fill="#E8CFCF" d="M-39.091,14.242c-2.745,1.599-3.545,3.643-1.787,4.565l13.793,7.237c1.758,0.922,5.408,0.374,8.153-1.225
			L2.605,12.276C5.35,10.677,6.15,8.633,4.392,7.711L-9.401,0.473c-1.758-0.922-5.408-0.374-8.153,1.225L-39.091,14.242z"/>
		<path fill="#E8CFCF" d="M34.986-27.746c-2.745,1.599-3.545,3.643-1.787,4.565l13.793,7.237c1.758,0.922,5.408,0.374,8.153-1.225
			l21.537-12.545c2.745-1.599,3.545-3.643,1.787-4.565l-13.793-7.237c-1.758-0.922-5.408-0.374-8.153,1.225L34.986-27.746z"/>
		<path fill="#E8CFCF" d="M109.064-69.734c-2.745,1.599-3.545,3.643-1.787,4.565l13.793,7.237c1.758,0.922,5.408,0.374,8.153-1.225
			l21.537-12.545c2.745-1.599,3.545-3.643,1.787-4.565l-13.793-7.237c-1.758-0.922-5.408-0.374-8.153,1.225L109.064-69.734z"/>
	</g>
	<g>
		<path fill="#C23018" d="M153.259,43.968l20.209-12.823c3.286-2.079,6.858-1.355,6.858,3.724v6.739
			c0,3.194-1.529,4.404-3.029,5.151c-1.5,0.747-2.019-1.393-2.019-3.292c0-1.434-0.948-2.627-2.118-1.884L153.92,53.796
			c-1.17,0.743-2.118,3.29-2.118,4.573c0,4.959-2.019,5.856-2.019,5.856c-1.673,1.062-3.029,0.477-3.029-1.306v-5.696
			C146.754,50.93,148.33,47.088,153.259,43.968z"/>
		<path fill="#992716" d="M153.921,53.796c-0.8,0.485-1.375,1.371-1.784,2.254c-0.208,0.451-0.389,0.918-0.511,1.417
			c-0.146,0.513-0.161,1.035-0.224,1.499c-0.066,0.477-0.072,1.001-0.205,1.428c-0.112,0.443-0.185,0.889-0.36,1.305
			c-0.129,0.437-0.344,0.812-0.556,1.173c-0.131,0.15-0.237,0.339-0.378,0.458c-0.119,0.127-0.311,0.265-0.361,0.285l-0.022,0.009
			l-0.056,0.033c-0.757,0.449-1.658,0.499-1.795,0.032c-0.258-0.364-0.075-1.652-0.08-2.684l0.056-3.197
			c0.026-0.978,0.072-2.136,0.173-3.127c0.099-0.987,0.257-1.96,0.527-2.911c0.288-0.928,0.607-1.85,1.124-2.641
			c0.22-0.422,0.475-0.819,0.792-1.172c0.302-0.363,0.559-0.766,0.933-1.068c0.664-0.683,1.426-1.269,2.227-1.814l5.063-3.359
			l5.039-3.444c3.363-2.29,6.681-4.66,9.944-7.127c-3.592,1.883-7.129,3.863-10.622,5.923l-5.244,3.08
			c-1.732,1.073-3.469,2.06-5.197,3.205c-0.89,0.589-1.752,1.233-2.539,2.018c-0.426,0.344-0.754,0.815-1.115,1.244
			c-0.377,0.419-0.693,0.888-0.954,1.404c-0.606,0.969-0.983,2.075-1.301,3.16c-0.297,1.097-0.468,2.221-0.564,3.359
			c-0.08,1.128-0.075,2.107-0.07,3.258l0.056,3.198l0.052,1.599c0.009,0.491,0.061,1.345,0.505,1.98
			c0.431,0.713,1.33,0.992,1.949,0.876c0.668-0.057,1.185-0.359,1.677-0.657l-0.077,0.041c0.362-0.202,0.52-0.387,0.722-0.608
			c0.2-0.209,0.323-0.454,0.484-0.681c0.247-0.483,0.472-0.974,0.588-1.485c0.302-1.007,0.338-2.094,0.32-3.043
			c0.009-0.51-0.031-0.982,0.048-1.422c0.057-0.461,0.178-0.926,0.326-1.375C152.833,55.333,153.189,54.425,153.921,53.796z"/>
	</g>
	<g>
		<path fill="#C23018" d="M30.512,115.582l20.209-12.823c3.286-2.079,6.858-1.355,6.858,3.724v6.739
			c0,3.194-1.529,4.404-3.029,5.151c-1.5,0.747-2.019-1.393-2.019-3.292c0-1.434-0.948-2.627-2.118-1.884l-19.239,12.213
			c-1.17,0.743-2.118,3.29-2.118,4.573c0,4.958-2.019,5.856-2.019,5.856c-1.673,1.062-3.029,0.477-3.029-1.306v-5.696
			C24.007,122.543,25.583,118.701,30.512,115.582z"/>
		<path fill="#992716" d="M31.174,125.409c-0.8,0.485-1.375,1.371-1.784,2.254c-0.208,0.451-0.389,0.918-0.511,1.417
			c-0.146,0.513-0.161,1.035-0.224,1.499c-0.066,0.477-0.072,1.001-0.205,1.428c-0.112,0.443-0.185,0.889-0.36,1.305
			c-0.129,0.437-0.344,0.812-0.556,1.173c-0.131,0.15-0.237,0.339-0.378,0.458c-0.119,0.127-0.311,0.265-0.361,0.285l-0.022,0.009
			l-0.056,0.033c-0.757,0.449-1.658,0.499-1.795,0.032c-0.258-0.364-0.075-1.652-0.08-2.684l0.056-3.197
			c0.026-0.978,0.072-2.136,0.173-3.127c0.099-0.987,0.257-1.96,0.527-2.911c0.288-0.928,0.607-1.85,1.124-2.641
			c0.22-0.422,0.475-0.819,0.792-1.172c0.302-0.363,0.559-0.766,0.933-1.068c0.664-0.683,1.426-1.269,2.227-1.814l5.063-3.359
			l5.039-3.444c3.363-2.29,6.681-4.66,9.944-7.127c-3.592,1.883-7.129,3.863-10.622,5.923l-5.244,3.08
			c-1.732,1.073-3.469,2.06-5.197,3.205c-0.89,0.589-1.752,1.233-2.539,2.018c-0.426,0.344-0.754,0.815-1.115,1.244
			c-0.377,0.419-0.693,0.888-0.954,1.404c-0.606,0.969-0.983,2.075-1.301,3.16c-0.297,1.097-0.468,2.221-0.564,3.359
			c-0.08,1.128-0.075,2.107-0.07,3.258l0.056,3.198l0.052,1.599c0.009,0.491,0.061,1.345,0.505,1.98
			c0.431,0.713,1.33,0.992,1.949,0.876c0.668-0.057,1.185-0.359,1.677-0.657l-0.077,0.041c0.362-0.202,0.52-0.387,0.722-0.608
			c0.2-0.209,0.323-0.454,0.484-0.681c0.247-0.483,0.472-0.974,0.588-1.485c0.302-1.007,0.338-2.094,0.32-3.043
			c0.009-0.51-0.031-0.982,0.048-1.422c0.057-0.461,0.178-0.926,0.326-1.375C30.086,126.946,30.442,126.038,31.174,125.409z"/>
	</g>
</g>
</svg>
