<?xml version="1.0" encoding="utf-8"?>
<!-- Generator: Adobe Illustrator 17.0.0, SVG Export Plug-In . SVG Version: 6.00 Build 0)  -->
<!DOCTYPE svg PUBLIC "-//W3C//DTD SVG 1.1//EN" "http://www.w3.org/Graphics/SVG/1.1/DTD/svg11.dtd">
<svg version="1.1" id="Calque_1" xmlns="http://www.w3.org/2000/svg" xmlns:xlink="http://www.w3.org/1999/xlink" x="0px" y="0px"
	 width="372px" height="378px" viewBox="0 55.5 372 378" enable-background="new 0 55.5 372 378" xml:space="preserve">
<g id="piéton_Incli_Gauche_1_">
	<path fill="#E2AB85" d="M2979.262,2615.621l11.139,18.838l5.078-2.129c0,0-0.491-15.398-6.716-19.494
		C2982.538,2608.74,2979.262,2615.621,2979.262,2615.621z"/>
	
		<ellipse transform="matrix(0.9305 -0.3663 0.3663 0.9305 -763.0417 1279.5579)" fill="#020304" cx="2990.309" cy="2650.51" rx="9.751" ry="3.87"/>
	<path fill="#020304" d="M2987.35,2647.543c4.362-2.027,3.379-6.266,3.379-6.266s0.369-0.676,3.256-1.72
		c2.887-1.044,3.624,0.062,3.624,0.062s1.843,5.16,1.843,7.74c0,2.58-5.651,3.071-5.651,3.071L2987.35,2647.543z"/>
	<path fill="#FFFFFF" d="M2989.439,2634.643l2.027,7.064c0,0,0.922,0.921,3.133,0.246c2.211-0.676,2.58-1.474,2.58-1.474
		l-1.044-8.805L2989.439,2634.643z"/>
	<g>
		<path fill="#E2AB85" d="M2949.638,2615.812l-2.866,21.697l5.31,1.459c0,0,9.119-12.418,6.75-19.482
			S2949.638,2615.812,2949.638,2615.812z"/>
		
			<ellipse transform="matrix(0.9582 0.2862 -0.2862 0.9582 881.4191 -729.7297)" fill="#020304" cx="2936.792" cy="2650.08" rx="9.751" ry="3.87"/>
		<path fill="#020304" d="M2936.295,2645.919c4.683,1.098,6.526-2.844,6.526-2.844s0.707-0.304,3.623,0.656s2.813,2.286,2.813,2.286
			s-1.736,5.197-3.328,7.227c-1.593,2.03-6.342-1.072-6.342-1.072L2936.295,2645.919z"/>
		<path fill="#FFFFFF" d="M2945.902,2637.06l-2.766,6.809c0,0,0.156,1.294,2.313,2.127c2.157,0.833,2.94,0.433,2.94,0.433
			l4.614-7.572L2945.902,2637.06z"/>
	</g>
	<path fill="#E2AB85" d="M2956.129,2551.259c3.382,0.755,3.557,6.716-3.843,19.069c-2.56,4.273-21.483,14.368-22.44,8.528
		c-0.8-4.88,6.282-4.918,6.282-4.918c-4.487-1.726-3.862-2.807-3.072-3.483c0.79-0.676,4.838,2.647,8.893,0.053
		c7.604-4.865,8.362-11.442,9.561-15.478C2952.709,2550.992,2956.129,2551.259,2956.129,2551.259z"/>
	<g>
		<polygon fill="#020304" points="2954.69,2584.988 2946.008,2616.112 2962.062,2620.863 2972.382,2590.394 2966.648,2576.469 		"/>
		<polygon fill="#020304" points="2983.95,2583.587 2992.039,2612.584 2977.083,2617.01 2967.468,2588.623 2972.809,2575.65 		"/>
		<path fill="#E21A1B" d="M2953.544,2550.631c0-10.229,3.255-16.583,13.483-16.583c10.229,0,17.358,5.424,18.288,15.188
			s0,36.73,0,36.73h-31.926L2953.544,2550.631z"/>
		<g>
			<path fill="#020304" d="M2958.232,2522.912c0,0-10.165-3.923-7.312-9.095c2.853-5.172,19.26-4.458,26.215,2.497
				c6.955,6.955-3.21,14.802-6.777,14.802S2958.232,2522.912,2958.232,2522.912z"/>
			<g>
				<circle fill="#E2AB85" cx="2967.505" cy="2525.409" r="9.63"/>
				<circle fill="#E2AB85" cx="2967.505" cy="2535.396" r="3.567"/>
			</g>
			<path fill="#020304" d="M2961.442,2517.919c9.452-4.993,10.809,18.36,14.98,12.305c5.528-8.025,2.318-11.77,2.318-11.77
				l-6.598-3.567l-7.133-1.783L2961.442,2517.919z"/>
			<ellipse fill="#E2AB85" cx="2972.32" cy="2524.517" rx="2.14" ry="3.032"/>
		</g>
		<path fill="#E2AB85" d="M2984.075,2550.166c3.41-0.62,5.889,4.804,3.875,19.062c-0.697,4.932-14.205,21.591-17.358,16.583
			c-2.635-4.185,3.875-6.974,3.875-6.974c-4.804,0.155-4.649-1.085-4.184-2.015c0.465-0.93,5.486,0.558,8.214-3.41
			c5.114-7.439,3.254-13.793,2.79-17.978C2980.821,2551.251,2984.075,2550.166,2984.075,2550.166z"/>
		<path fill="#E21A1B" d="M2978.496,2537.148c5.114,3.254,8.369,10.539,10.074,15.188l-9.144,4.184l-4.649-7.129L2978.496,2537.148z
			"/>
	</g>
	<path fill="#E21A1B" d="M2961.913,2534.823c-8.214,1.24-11.468,14.103-11.313,21.542l7.129-0.155L2961.913,2534.823z"/>
</g>
<g id="piéton_Incli_Droite_1_">
	<path fill="#E2AB85" d="M3704.963,1665.681l-11.139,18.838l-5.078-2.13c0,0,0.491-15.398,6.716-19.494
		C3701.687,1658.801,3704.963,1665.681,3704.963,1665.681z"/>
	
		<ellipse transform="matrix(-0.9305 -0.3663 0.3663 -0.9305 6508.1826 4636.0186)" fill="#020304" cx="3693.916" cy="1700.571" rx="9.751" ry="3.87"/>
	<path fill="#020304" d="M3696.875,1697.604c-4.361-2.027-3.379-6.266-3.379-6.266s-0.368-0.676-3.256-1.72
		s-3.625,0.061-3.625,0.061s-1.843,5.16-1.843,7.74c0,2.58,5.652,3.071,5.652,3.071L3696.875,1697.604z"/>
	<path fill="#FFFFFF" d="M3694.786,1684.704l-2.027,7.064c0,0-0.921,0.922-3.133,0.246c-2.212-0.676-2.58-1.474-2.58-1.474
		l1.044-8.805L3694.786,1684.704z"/>
	<g>
		<path fill="#E2AB85" d="M3734.587,1665.872l2.866,21.697l-5.31,1.459c0,0-9.119-12.417-6.75-19.482
			S3734.587,1665.872,3734.587,1665.872z"/>
		
			<ellipse transform="matrix(-0.9582 0.2862 -0.2862 -0.9582 7824.7114 2256.5032)" fill="#020304" cx="3747.434" cy="1700.14" rx="9.751" ry="3.87"/>
		<path fill="#020304" d="M3747.93,1695.979c-4.683,1.098-6.526-2.844-6.526-2.844s-0.707-0.304-3.623,0.657
			s-2.813,2.286-2.813,2.286s1.735,5.197,3.328,7.227c1.593,2.03,6.342-1.072,6.342-1.072L3747.93,1695.979z"/>
		<path fill="#FFFFFF" d="M3738.324,1687.12l2.766,6.809c0,0-0.156,1.294-2.313,2.127c-2.157,0.833-2.94,0.433-2.94,0.433
			l-4.614-7.572L3738.324,1687.12z"/>
	</g>
	<path fill="#E2AB85" d="M3728.096,1601.319c-3.382,0.755-3.557,6.716,3.843,19.069c2.56,4.273,21.483,14.367,22.44,8.528
		c0.8-4.88-6.281-4.918-6.281-4.918c4.487-1.726,3.862-2.807,3.072-3.483c-0.79-0.676-4.838,2.647-8.893,0.053
		c-7.604-4.865-8.362-11.442-9.561-15.478C3731.516,1601.053,3728.096,1601.319,3728.096,1601.319z"/>
	<g>
		<polygon fill="#020304" points="3729.535,1635.048 3738.217,1666.172 3722.164,1670.923 3711.844,1640.454 3717.577,1626.53 		"/>
		<polygon fill="#020304" points="3700.275,1633.647 3692.186,1662.645 3707.143,1667.071 3716.758,1638.684 3711.416,1625.711 		
			"/>
		<path fill="#E21A1B" d="M3730.681,1600.691c0-10.229-3.255-16.583-13.483-16.583c-10.229,0-17.358,5.424-18.288,15.188
			c-0.93,9.764,0,36.73,0,36.73h31.926L3730.681,1600.691z"/>
		<g>
			<path fill="#020304" d="M3725.993,1572.973c0,0,10.165-3.923,7.312-9.095s-19.26-4.458-26.215,2.497
				c-6.955,6.955,3.21,14.802,6.777,14.802S3725.993,1572.973,3725.993,1572.973z"/>
			<g>
				<circle fill="#E2AB85" cx="3716.72" cy="1575.469" r="9.63"/>
				<circle fill="#E2AB85" cx="3716.72" cy="1585.456" r="3.567"/>
			</g>
			<path fill="#020304" d="M3722.783,1567.979c-9.451-4.993-10.809,18.36-14.98,12.305c-5.528-8.025-2.318-11.77-2.318-11.77
				l6.598-3.567l7.133-1.783L3722.783,1567.979z"/>
			<ellipse fill="#E2AB85" cx="3711.905" cy="1574.578" rx="2.14" ry="3.032"/>
		</g>
		<path fill="#E2AB85" d="M3700.15,1600.226c-3.41-0.62-5.889,4.804-3.875,19.062c0.697,4.932,14.205,21.591,17.358,16.583
			c2.635-4.184-3.875-6.974-3.875-6.974c4.804,0.155,4.649-1.085,4.185-2.015c-0.465-0.93-5.487,0.558-8.214-3.41
			c-5.115-7.439-3.255-13.793-2.79-17.978C3703.405,1601.311,3700.15,1600.226,3700.15,1600.226z"/>
		<path fill="#E21A1B" d="M3705.729,1587.208c-5.115,3.255-8.369,10.539-10.074,15.188l9.144,4.184l4.649-7.129L3705.729,1587.208z"
			/>
	</g>
	<path fill="#E21A1B" d="M3722.312,1584.883c8.214,1.24,11.469,14.103,11.313,21.542l-7.129-0.155L3722.312,1584.883z"/>
</g>
<g id="Vélo_Incli_Droite_1_">
	<g>
		<path fill="#C6916D" d="M3430.09,1370.543c0.897,4.792-0.37,4.828-1.374,4.506c-1.004-0.323-0.288-5.586-4.687-7.708"/>
	</g>
	<path fill="#525251" d="M3413.204,1386.869c-0.485,0-0.963-0.236-1.256-0.671c-0.467-0.694-0.281-1.634,0.414-2.098l31.683-21.251
		c0.683-0.464,1.628-0.284,2.098,0.414c0.467,0.694,0.281,1.634-0.414,2.098l-31.683,21.251
		C3413.789,1386.786,3413.496,1386.869,3413.204,1386.869z"/>
	<g>
		<path fill="#C6916D" d="M3416.488,1346.717c-3.461,0.615-4.289,3.171,2.662,16.017c2.405,4.444,21.132,15.513,22.361,9.638
			c1.027-4.909-6.147-5.263-6.147-5.263s-1.753-0.926-5.747-3.735c-7.49-5.267-7.966-11.966-9.002-16.109
			C3419.58,1343.122,3416.488,1346.717,3416.488,1346.717z"/>
	</g>
	<g>
		<path fill="#020304" d="M3372.578,1357.481l25.983,12.63c0,0,9.828-7.009,6.754-13.358s-25.144-13.966-25.144-13.966
			l-13.167,2.809L3372.578,1357.481z"/>
		<path fill="#E2AB85" d="M3403.025,1363.201c-0.805,4.325-2.839,17.935-2.839,17.935l-5.283-0.121c0,0-4.962-13.927-0.838-19.768
			C3398.189,1355.406,3403.83,1358.876,3403.025,1363.201z"/>
		
			<ellipse transform="matrix(-1 -8.691866e-04 8.691866e-04 -1 6810.5811 2793.8438)" fill="#020304" cx="3405.898" cy="1395.442" rx="9.358" ry="3.714"/>
		<path fill="#020304" d="M3407.5,1391.754c-4.607-0.281-5.216-4.412-5.216-4.412s-0.566-0.474-3.511-0.394
			c-2.945,0.08-3.216,1.326-3.216,1.326s0.164,5.256,1.069,7.56c0.905,2.305,6.125,0.761,6.125,0.761L3407.5,1391.754z"/>
		<path fill="#E21A1B" d="M3401.11,1380.964l0.667,7.021c0,0-0.5,1.146-2.712,1.318c-2.212,0.172-2.822-0.412-2.822-0.412
			l-2.155-8.231L3401.11,1380.964z"/>
	</g>
	<path d="M3437.469,1448.13c-9.208,0-19.374-6.871-25.896-17.501c-8.904-14.513-8.05-31.29,1.903-37.398
		c2.447-1.501,5.242-2.264,8.307-2.264c9.208,0,19.374,6.871,25.896,17.501c8.904,14.513,8.05,31.29-1.903,37.398
		C3443.329,1447.367,3440.533,1448.13,3437.469,1448.13z M3421.783,1393.994c-2.497,0-4.761,0.612-6.723,1.814
		c-8.531,5.237-8.939,20.149-0.91,33.237c5.987,9.755,15.139,16.058,23.319,16.058c2.497,0,4.761-0.612,6.723-1.814
		c8.531-5.237,8.939-20.149,0.91-33.237C3439.115,1400.297,3429.963,1393.994,3421.783,1393.994z"/>
	
		<ellipse transform="matrix(0.8523 -0.523 0.523 0.8523 -235.9783 2003.3286)" fill="#020304" cx="3429.625" cy="1419.549" rx="5.437" ry="8.117"/>
	
		<ellipse transform="matrix(0.8523 -0.523 0.523 0.8523 -222.42 1956.2996)" fill="#020304" cx="3353.123" cy="1372.024" rx="5.437" ry="8.117"/>
	<path d="M3360.965,1400.604c-9.208,0-19.374-6.871-25.896-17.501c-4.259-6.939-6.451-14.599-6.173-21.564
		c0.287-7.19,3.156-12.814,8.076-15.831c2.447-1.504,5.243-2.264,8.31-2.264c9.208,0,19.371,6.871,25.893,17.501
		c4.259,6.939,6.451,14.596,6.173,21.561c-0.287,7.193-3.156,12.817-8.076,15.834
		C3366.825,1399.842,3364.03,1400.604,3360.965,1400.604z M3345.282,1346.471c-2.5,0-4.764,0.612-6.726,1.814
		c-4.034,2.476-6.392,7.225-6.637,13.375c-0.251,6.374,1.782,13.425,5.727,19.859c5.987,9.755,15.139,16.059,23.319,16.059
		c2.497,0,4.761-0.612,6.723-1.815c4.034-2.476,6.392-7.225,6.637-13.375c0.251-6.374-1.782-13.428-5.727-19.859
		C3362.611,1352.775,3353.462,1346.471,3345.282,1346.471z"/>
	<path fill="#525251" d="M3429.626,1421.063c-0.836,0-1.513-0.677-1.513-1.513v-42.215l-41.635,30.681
		c-0.428,0.313-0.975,0.378-1.472,0.183c-0.488-0.198-0.836-0.638-0.919-1.158l-9.273-57.378c-0.136-0.825,0.426-1.602,1.25-1.735
		c0.81-0.148,1.602,0.423,1.735,1.25l8.88,54.931l42.049-30.985c0.464-0.34,1.076-0.387,1.581-0.133
		c0.508,0.257,0.83,0.78,0.83,1.35v45.208C3431.139,1420.387,3430.462,1421.063,3429.626,1421.063z"/>
	<path fill="#525251" d="M3385.579,1408.312c-0.405,0-0.807-0.162-1.105-0.482l-32.457-34.774c-0.284-0.301-0.428-0.706-0.405-1.12
		c0.024-0.411,0.216-0.798,0.529-1.064l23.184-19.705c0.496-0.426,1.208-0.476,1.767-0.142l45.785,27.82
		c0.715,0.434,0.94,1.365,0.508,2.08c-0.437,0.715-1.371,0.937-2.08,0.508l-44.851-27.256l-21.145,17.973l31.375,33.615
		c0.57,0.609,0.538,1.566-0.074,2.137C3386.32,1408.176,3385.948,1408.312,3385.579,1408.312z"/>
	<path fill="#525251" d="M3442.129,1367.465c-0.488,0-0.966-0.236-1.256-0.671c-0.467-0.694-0.281-1.634,0.414-2.098l2.757-1.847
		c0.697-0.467,1.637-0.278,2.098,0.414c0.467,0.694,0.281,1.634-0.414,2.098l-2.757,1.847
		C3442.711,1367.382,3442.419,1367.465,3442.129,1367.465z"/>
	<path fill="#525251" d="M3413.204,1386.869c-0.485,0-0.963-0.236-1.256-0.671c-0.467-0.694-0.281-1.634,0.414-2.098l14.64-9.82
		c0.683-0.464,1.628-0.29,2.098,0.414c0.467,0.694,0.281,1.634-0.414,2.098l-14.64,9.82
		C3413.789,1386.786,3413.496,1386.869,3413.204,1386.869z"/>
	<path fill="#020304" d="M3366.453,1350.581c-0.568-16.295,23.762-24.921,28.399-19.126s2.753,21.154,2.753,21.154l-30.282,10.432
		L3366.453,1350.581z"/>
	<g>
		<path fill="#E2AB85" d="M3381.483,1380.684l-2.538,20.848l-5.284,0.083c0,0-5.497-13.724-1.602-19.721
			C3375.954,1375.898,3381.483,1380.684,3381.483,1380.684z"/>
		
			<ellipse transform="matrix(-0.9993 0.0378 -0.0378 -0.9993 6821.5483 2702.1172)" fill="#020304" cx="3385.206" cy="1415.606" rx="9.358" ry="3.714"/>
		<path fill="#020304" d="M3386.665,1411.859c-4.615-0.103-5.383-4.207-5.383-4.207s-0.584-0.452-3.524-0.258
			c-2.94,0.194-3.162,1.45-3.162,1.45s0.367,5.245,1.36,7.513c0.993,2.268,6.15,0.524,6.15,0.524L3386.665,1411.859z"/>
		<path fill="#E21A1B" d="M3379.862,1401.324l0.938,6.99c0,0-0.455,1.165-2.659,1.422c-2.204,0.257-2.835-0.302-2.835-0.302
			l-2.472-8.142L3379.862,1401.324z"/>
		<polygon fill="#020304" points="3384.177,1350.831 3384.784,1381.833 3368.728,1382.4 3366.441,1351.613 3375.107,1340.049 		"/>
	</g>
	<path fill="#E21A1B" d="M3429.625,1347.683c-1.275,9.948-11.387,11.14-25.683,10.929c-14.017-0.207-25.39-3.7-22.487-22.232
		c1.225-7.823,13.895-10.46,27.595-6.374C3424.028,1334.473,3430.227,1342.989,3429.625,1347.683z"/>
	<g>
		<path fill="#E2AB85" d="M3399.324,1358.86c-3.479,0.389-4.664,5.605,0.572,17.04c1.811,3.955,18.843,14.34,20.782,9.294
			c1.621-4.216-5.388-4.823-5.388-4.823c4.737-1.151,4.302-2.151,3.634-2.808c-0.668-0.657-5.241,1.932-8.819-0.672
			c-6.708-4.882-6.342-10.714-6.845-14.351C3402.757,1358.903,3399.324,1358.86,3399.324,1358.86z"/>
		<path fill="#E21A1B" d="M3401.027,1344.97c-4.67,4.492-6.334,12.149-6.997,16.927l10.86,1.178l3.199-7.922L3401.027,1344.97z"/>
	</g>
	<g>
		<path fill="#020304" d="M3437.499,1351.687c0,0,7.649-0.337,6.615-6.553c-1.034-6.216-14.296-11.651-23.288-6.798
			c-9.234,4.983-2.027,16.03,1.561,17.296S3437.499,1351.687,3437.499,1351.687z"/>
		<g>
			<circle fill="#E2AB85" cx="3427.476" cy="1351.368" r="10.273"/>
			<circle fill="#E2AB85" cx="3417.309" cy="1352.319" r="3.805"/>
		</g>
		<path fill="#020304" d="M3436.043,1345.524c-7.735-8.38-17.123,16.348-19.169,8.776c-2.711-10.036,1.578-14.381,1.578-14.381
			l7.904-1.245l7.809,0.739L3436.043,1345.524z"/>
		<ellipse fill="#E2AB85" cx="3422.477" cy="1349.904" rx="2.705" ry="3.477"/>
	</g>
</g>
<g id="Vélo_Incli_Gauche_1_">
	<g>
		<path fill="#C6916D" d="M3776.914-106.947c-0.897,4.792,0.37,4.829,1.374,4.506c1.004-0.323,0.288-5.586,4.687-7.708"/>
	</g>
	<path fill="#525251" d="M3793.799-90.621c-0.292,0-0.585-0.083-0.842-0.257l-31.682-21.251c-0.695-0.464-0.881-1.404-0.414-2.098
		c0.47-0.697,1.418-0.875,2.098-0.414l31.683,21.251c0.694,0.464,0.881,1.404,0.414,2.098
		C3794.763-90.858,3794.284-90.621,3793.799-90.621z"/>
	<g>
		<path fill="#C6916D" d="M3790.515-130.773c3.461,0.615,4.289,3.171-2.662,16.017c-2.405,4.444-21.132,15.513-22.362,9.638
			c-1.027-4.909,6.147-5.263,6.147-5.263s1.753-0.926,5.747-3.735c7.49-5.267,7.966-11.966,9.002-16.109
			C3787.423-134.368,3790.515-130.773,3790.515-130.773z"/>
	</g>
	<g>
		<path fill="#020304" d="M3834.425-120.009l-25.983,12.63c0,0-9.828-7.009-6.754-13.358c3.074-6.348,25.143-13.966,25.143-13.966
			l13.167,2.809L3834.425-120.009z"/>
		<path fill="#E2AB85" d="M3803.978-114.289c0.805,4.325,2.839,17.935,2.839,17.935l5.283-0.121c0,0,4.962-13.927,0.838-19.768
			C3808.814-122.084,3803.173-118.613,3803.978-114.289z"/>
		
			<ellipse transform="matrix(1 -8.692664e-04 8.692664e-04 1 0.0728 3.3041)" fill="#020304" cx="3801.105" cy="-82.048" rx="9.358" ry="3.714"/>
		<path fill="#020304" d="M3799.503-85.736c4.607-0.281,5.216-4.412,5.216-4.412s0.566-0.474,3.511-0.394
			c2.945,0.08,3.216,1.326,3.216,1.326s-0.164,5.256-1.069,7.56c-0.905,2.305-6.125,0.761-6.125,0.761L3799.503-85.736z"/>
		<path fill="#E21A1B" d="M3805.893-96.526l-0.667,7.021c0,0,0.5,1.146,2.712,1.318c2.212,0.172,2.822-0.412,2.822-0.412
			l2.156-8.231L3805.893-96.526z"/>
	</g>
	<path d="M3769.534-29.36L3769.534-29.36c-3.064,0-5.86-0.762-8.307-2.264c-9.953-6.108-10.807-22.885-1.903-37.395
		c6.522-10.633,16.688-17.504,25.896-17.504c3.064,0,5.86,0.762,8.307,2.264c9.953,6.108,10.807,22.885,1.903,37.398
		C3788.908-36.231,3778.743-29.36,3769.534-29.36z M3785.22-83.496c-8.18,0-17.332,6.303-23.319,16.061
		c-8.029,13.089-7.622,27.994,0.91,33.234c1.962,1.203,4.223,1.814,6.723,1.814c8.18,0,17.332-6.303,23.32-16.058
		c8.029-13.089,7.621-28-0.91-33.237C3789.981-82.885,3787.72-83.496,3785.22-83.496z"/>
	
		<ellipse transform="matrix(-0.8523 -0.523 0.523 -0.8523 7027.2563 1868.2549)" fill="#020304" cx="3777.378" cy="-57.941" rx="5.437" ry="8.117"/>
	
		<ellipse transform="matrix(-0.8523 -0.523 0.523 -0.8523 7193.8198 1820.2352)" fill="#020304" cx="3853.88" cy="-105.465" rx="5.437" ry="8.117"/>
	<path d="M3846.041-76.886L3846.041-76.886c-3.067,0-5.863-0.762-8.31-2.264c-4.92-3.017-7.79-8.641-8.077-15.834
		c-0.278-6.965,1.915-14.622,6.174-21.561c6.522-10.63,16.688-17.501,25.896-17.501c3.064,0,5.86,0.762,8.307,2.264
		c4.92,3.017,7.79,8.641,8.077,15.834c0.278,6.965-1.915,14.622-6.173,21.561C3865.412-83.756,3855.25-76.886,3846.041-76.886z
		 M3861.724-131.019c-8.18,0-17.332,6.303-23.319,16.058c-3.945,6.43-5.979,13.485-5.727,19.859
		c0.245,6.15,2.604,10.899,6.637,13.375c1.962,1.203,4.226,1.814,6.726,1.814c8.177,0,17.329-6.303,23.317-16.058
		c3.945-6.43,5.978-13.485,5.727-19.859c-0.245-6.15-2.604-10.899-6.637-13.375C3866.485-130.407,3864.221-131.019,3861.724-131.019
		z"/>
	<path fill="#525251" d="M3777.377-56.427c-0.836,0-1.513-0.677-1.513-1.513v-45.208c0-0.57,0.322-1.093,0.831-1.351
		c0.508-0.254,1.12-0.204,1.581,0.133l42.05,30.985l8.88-54.931c0.133-0.827,0.919-1.392,1.735-1.25
		c0.824,0.133,1.386,0.91,1.25,1.735l-9.273,57.378c-0.083,0.52-0.431,0.96-0.919,1.158c-0.497,0.195-1.046,0.127-1.472-0.183
		l-41.636-30.681v42.215C3778.89-57.104,3778.214-56.427,3777.377-56.427z"/>
	<path fill="#525251" d="M3821.424-69.178c-0.369,0-0.742-0.136-1.031-0.408c-0.612-0.57-0.644-1.528-0.074-2.137l31.375-33.615
		l-21.144-17.973l-44.851,27.256c-0.709,0.426-1.643,0.204-2.081-0.508c-0.431-0.715-0.207-1.646,0.508-2.08l45.785-27.82
		c0.556-0.331,1.271-0.281,1.767,0.142l23.183,19.705c0.313,0.266,0.505,0.653,0.529,1.064c0.024,0.414-0.121,0.819-0.405,1.12
		L3822.53-69.66C3822.231-69.341,3821.829-69.178,3821.424-69.178z"/>
	<path fill="#525251" d="M3764.874-110.025c-0.29,0-0.582-0.083-0.842-0.257l-2.757-1.847c-0.695-0.464-0.881-1.404-0.414-2.098
		c0.464-0.692,1.401-0.881,2.098-0.414l2.757,1.847c0.694,0.464,0.881,1.404,0.414,2.098
		C3765.84-110.261,3765.362-110.025,3764.874-110.025z"/>
	<path fill="#525251" d="M3793.799-90.621c-0.292,0-0.585-0.083-0.842-0.257l-14.64-9.82c-0.695-0.464-0.881-1.404-0.414-2.098
		c0.47-0.697,1.416-0.875,2.098-0.414l14.64,9.82c0.694,0.464,0.881,1.404,0.414,2.098
		C3794.763-90.858,3794.284-90.621,3793.799-90.621z"/>
	<path fill="#020304" d="M3840.55-126.909c0.569-16.295-23.762-24.921-28.399-19.126c-4.636,5.796-2.753,21.154-2.753,21.154
		l30.282,10.432L3840.55-126.909z"/>
	<g>
		<path fill="#E2AB85" d="M3825.52-96.806l2.538,20.848l5.284,0.083c0,0,5.497-13.724,1.602-19.721S3825.52-96.806,3825.52-96.806z"
			/>
		
			<ellipse transform="matrix(0.9993 0.0378 -0.0378 0.9993 0.3951 -144.6437)" fill="#020304" cx="3821.797" cy="-61.884" rx="9.358" ry="3.714"/>
		<path fill="#020304" d="M3820.338-65.631c4.614-0.103,5.382-4.207,5.382-4.207s0.584-0.452,3.524-0.258s3.162,1.45,3.162,1.45
			s-0.367,5.245-1.36,7.513s-6.15,0.524-6.15,0.524L3820.338-65.631z"/>
		<path fill="#E21A1B" d="M3827.141-76.166l-0.938,6.99c0,0,0.455,1.165,2.659,1.422c2.204,0.258,2.836-0.302,2.836-0.302
			l2.472-8.142L3827.141-76.166z"/>
		<polygon fill="#020304" points="3822.826,-126.659 3822.219,-95.656 3838.275,-95.09 3840.562,-125.876 3831.896,-137.441 		"/>
	</g>
	<path fill="#E21A1B" d="M3777.378-129.807c1.275,9.948,11.387,11.14,25.683,10.929c14.017-0.207,25.39-3.7,22.487-22.232
		c-1.225-7.823-13.895-10.46-27.595-6.374C3782.975-143.017,3776.776-134.5,3777.378-129.807z"/>
	<g>
		<path fill="#E2AB85" d="M3807.679-118.629c3.479,0.389,4.664,5.605-0.571,17.04c-1.811,3.955-18.843,14.34-20.782,9.294
			c-1.621-4.216,5.388-4.822,5.388-4.822c-4.737-1.151-4.302-2.151-3.634-2.808c0.668-0.657,5.242,1.932,8.819-0.672
			c6.708-4.882,6.342-10.714,6.845-14.351C3804.246-118.587,3807.679-118.629,3807.679-118.629z"/>
		<path fill="#E21A1B" d="M3805.976-132.52c4.67,4.492,6.334,12.149,6.997,16.927l-10.86,1.178l-3.199-7.922L3805.976-132.52z"/>
	</g>
	<g>
		<path fill="#020304" d="M3769.504-125.803c0,0-7.649-0.337-6.615-6.553c1.034-6.216,14.296-11.651,23.288-6.798
			c9.234,4.983,2.027,16.03-1.561,17.296C3781.028-120.591,3769.504-125.803,3769.504-125.803z"/>
		<g>
			<circle fill="#E2AB85" cx="3779.527" cy="-126.121" r="10.273"/>
			<circle fill="#E2AB85" cx="3789.694" cy="-125.17" r="3.805"/>
		</g>
		<path fill="#020304" d="M3770.959-131.966c7.735-8.38,17.123,16.348,19.169,8.776c2.711-10.036-1.577-14.381-1.577-14.381
			l-7.904-1.245l-7.809,0.739L3770.959-131.966z"/>
		<ellipse fill="#E2AB85" cx="3784.526" cy="-127.585" rx="2.705" ry="3.477"/>
	</g>
</g>
<g id="Bus_Incli_Gauche_1_">
	<g>
		<path fill="#E8CFCF" d="M3182.365,2344.254l13.135-31.437l59.269-35.243l61.456,36.155l0.001,0.182l-2.862,1.695l0.026,0.016
			l2.848-1.685l16.143,12.857l0.872,0.513l70.068-36.654l13.464,8.539c0,0,5.544,2.677,1.519,5.003
			c-22.353,13.199-223.578,130.155-224.843,130.729c-1.393,0.632-3.769,2.332-7.245,0.541
			c-12.945-7.697-61.298-36.444-62.921-37.332c-1.874-1.026-1.553-3.656,1.204-5.511c2.757-1.854,15.297-9.558,15.297-9.558
			L3182.365,2344.254z"/>
		<g>
			<g>
				<polygon fill="#C23018" points="3412.483,2202.832 3412.684,2202.956 3412.694,2302.94 3189.037,2431.234 3189.037,2330.972 
									"/>
				<polygon fill="#992716" points="3189.037,2431.234 3125.081,2394.825 3125.198,2297.5 3189.037,2330.972 				"/>
			</g>
			<polygon fill="#D8584E" points="3351.071,2167.981 3412.483,2202.832 3189.037,2330.972 3125.198,2297.5 			"/>
			<polygon fill="#100A0A" points="3128.256,2364.776 3185.579,2395.56 3185.579,2331.986 3128.256,2304.229 			"/>
			<g>
				<defs>
					<polygon id="SVGID_1_" points="3128.256,2364.776 3185.579,2395.56 3185.579,2331.986 3128.256,2304.229 					"/>
				</defs>
				<clipPath id="SVGID_2_">
					<use xlink:href="#SVGID_1_"  overflow="visible"/>
				</clipPath>
				<path clip-path="url(#SVGID_2_)" fill="#EFCCCB" d="M3189.462,2325.053l0.001,0.205l-65.865,39.009l-69.789-40.239
					l59.408-35.325c0,0,7.65-3.885,13.835-0.366S3189.462,2325.053,3189.462,2325.053z"/>
				<path clip-path="url(#SVGID_2_)" fill="#C59692" d="M3280.673,2300.548l-64.762,46.426l-100.565,95.678l-30.538-20.213
					l173.752-124.671c0,0,16.633-2.078,23.122,1.443C3288.17,2302.731,3280.673,2300.548,3280.673,2300.548z"/>
			</g>
			<polygon fill="#FFFFFF" points="3124.916,2364.162 3188.923,2400.629 3188.923,2397.341 3124.916,2360.874 			"/>
			<path fill="#1E1D1D" d="M3236.213,2406.347c0,8.31,6.309,13.037,14.091,10.558c7.783-2.479,14.092-11.226,14.092-19.536
				c0-8.31-6.309-13.037-14.092-10.558C3242.522,2389.29,3236.213,2398.036,3236.213,2406.347z"/>
			<path fill="#FFFFFF" d="M3243.391,2404.06c0,4.077,3.095,6.396,6.914,5.18c3.818-1.216,6.914-5.508,6.914-9.585
				c0-4.077-3.095-6.396-6.914-5.18C3246.487,2395.692,3243.391,2399.983,3243.391,2404.06z"/>
			<path fill="#423C3C" d="M3245.753,2400.67c0,2.684,2.038,4.211,4.551,3.41c2.514-0.801,4.552-3.626,4.552-6.31
				s-2.038-4.211-4.552-3.41C3247.791,2395.161,3245.753,2397.986,3245.753,2400.67z"/>
			<path fill="#1E1D1D" d="M3359.932,2335.79c0,8.31,6.309,13.037,14.092,10.558c7.782-2.479,14.091-11.226,14.091-19.536
				c0-8.31-6.309-13.037-14.091-10.558C3366.241,2318.733,3359.932,2327.479,3359.932,2335.79z"/>
			<path fill="#FFFFFF" d="M3366.708,2333.631c0,4.314,3.275,6.768,7.316,5.481c4.04-1.287,7.316-5.828,7.316-10.142
				c0-4.314-3.275-6.768-7.316-5.481C3369.983,2324.776,3366.708,2329.317,3366.708,2333.631z"/>
			<path fill="#423C3C" d="M3368.97,2330.385c0,2.98,2.263,4.676,5.054,3.786c2.791-0.889,5.053-4.026,5.053-7.006
				s-2.262-4.676-5.053-3.786S3368.97,2327.405,3368.97,2330.385z"/>
			<polygon fill="#100A0A" points="3193.282,2385.138 3409.832,2262.818 3409.832,2212.348 3193.282,2334.667 			"/>
			<g>
				<defs>
					<polygon id="SVGID_3_" points="3193.282,2385.138 3409.832,2262.818 3409.832,2212.348 3193.282,2334.667 					"/>
				</defs>
				<clipPath id="SVGID_4_">
					<use xlink:href="#SVGID_3_"  overflow="visible"/>
				</clipPath>
				<path clip-path="url(#SVGID_4_)" fill="#7D5B5A" d="M3288.408,2277.83l0.146,0.167l-50.367,98.793l-17.82-8.26l48.659-95.772
					c0,0,2.364-3.188,9.028-0.313S3288.408,2277.83,3288.408,2277.83z"/>
				<path clip-path="url(#SVGID_4_)" fill="#7D5B5A" d="M3401.887,2217.313l0.146,0.167l-50.367,98.793l-17.82-8.26l48.659-95.772
					c0,0,2.364-3.188,9.028-0.313C3398.198,2214.803,3401.887,2217.313,3401.887,2217.313z"/>
			</g>
			<polygon fill="#FFFFFF" points="3409.955,2264.816 3192.625,2385.557 3192.625,2382.269 3409.955,2261.528 			"/>
			<polygon fill="#C23018" points="3299.421,2273.668 3297.152,2273.653 3297.152,2337.706 3299.421,2337.721 			"/>
			<polygon fill="#C23018" points="3200.064,2328.227 3197.794,2328.212 3197.794,2392.265 3200.064,2392.28 			"/>
			<polygon fill="#C23018" points="3225.786,2315.287 3223.516,2315.271 3223.516,2379.324 3225.786,2379.34 			"/>
			<polygon fill="#C23018" points="3324.954,2258.142 3322.684,2258.126 3322.684,2322.179 3324.954,2322.194 			"/>
			<polygon fill="#100A0A" points="3299.169,2367.98 3322.831,2354.369 3322.831,2261.469 3299.169,2274.801 			"/>
			<polygon fill="#100A0A" points="3200.064,2424.937 3223.726,2411.325 3223.726,2317.542 3200.064,2330.875 			"/>
			<polygon fill="#100A0A" points="3124.916,2302.723 3188.923,2336.513 3188.923,2331.259 3124.916,2297.469 			"/>
		</g>
		<path fill="#F9F7D6" d="M3173.666,2407.811c-0.856,1.351-0.032,3.414,1.839,4.607c1.872,1.193,4.083,1.065,4.938-0.286
			c0.856-1.351,0.032-3.414-1.839-4.606C3176.732,2406.332,3174.521,2406.46,3173.666,2407.811z"/>
		<path fill="#F9F7D6" d="M3130.873,2384.316c-0.856,1.351-0.032,3.414,1.839,4.606c1.872,1.193,4.083,1.065,4.938-0.286
			c0.856-1.351,0.032-3.414-1.839-4.607C3133.94,2382.837,3131.729,2382.965,3130.873,2384.316z"/>
		<path fill="#FFFFFF" d="M3142.721,2397.945c0,0,0-7.906,0-10.405s1.034-3.82,2.084-3.413c1.05,0.407,23.496,13.13,23.496,13.13
			s0,10.325,0,11.51s-0.256,3.671-2.234,2.743C3164.089,2410.583,3142.721,2397.945,3142.721,2397.945z"/>
	</g>
	<g>
		<path fill="#E8CFCF" d="M3170.578,2290.816c-2.745,1.599-3.545,3.643-1.787,4.565l13.793,7.237
			c1.758,0.923,5.408,0.374,8.153-1.225l21.537-12.545c2.745-1.599,3.545-3.643,1.787-4.565l-13.793-7.238
			c-1.758-0.922-5.408-0.374-8.153,1.225L3170.578,2290.816z"/>
		<path fill="#E8CFCF" d="M3244.655,2248.828c-2.745,1.599-3.545,3.643-1.787,4.565l13.793,7.238
			c1.758,0.922,5.408,0.374,8.153-1.225l21.537-12.544c2.745-1.599,3.545-3.643,1.787-4.565l-13.793-7.238
			c-1.758-0.922-5.408-0.374-8.153,1.225L3244.655,2248.828z"/>
		<path fill="#E8CFCF" d="M3318.733,2206.84c-2.745,1.599-3.545,3.643-1.787,4.565l13.793,7.238
			c1.758,0.922,5.408,0.374,8.153-1.225l21.537-12.545c2.745-1.599,3.545-3.643,1.787-4.565l-13.793-7.237
			c-1.758-0.923-5.408-0.374-8.153,1.225L3318.733,2206.84z"/>
	</g>
	<g>
		<path fill="#C23018" d="M3362.928,2320.542l20.209-12.823c3.286-2.08,6.858-1.355,6.858,3.724v6.739
			c0,3.194-1.529,4.404-3.029,5.151c-1.5,0.747-2.019-1.393-2.019-3.292c0-1.434-0.948-2.627-2.118-1.884l-19.239,12.213
			c-1.17,0.743-2.118,3.29-2.118,4.573c0,4.959-2.019,5.856-2.019,5.856c-1.673,1.062-3.029,0.478-3.029-1.306v-5.696
			C3356.423,2327.503,3357.999,2323.661,3362.928,2320.542z"/>
		<path fill="#992716" d="M3363.59,2330.37c-0.8,0.485-1.375,1.371-1.784,2.254c-0.208,0.451-0.389,0.917-0.511,1.417
			c-0.146,0.513-0.161,1.035-0.224,1.499c-0.066,0.477-0.072,1.001-0.205,1.428c-0.112,0.443-0.185,0.889-0.36,1.305
			c-0.129,0.437-0.344,0.812-0.556,1.173c-0.131,0.15-0.237,0.339-0.378,0.458c-0.119,0.127-0.311,0.265-0.361,0.285l-0.022,0.009
			l-0.056,0.033c-0.757,0.449-1.658,0.499-1.795,0.032c-0.258-0.364-0.075-1.652-0.08-2.684l0.057-3.198
			c0.026-0.978,0.072-2.136,0.173-3.127c0.099-0.987,0.257-1.96,0.527-2.911c0.287-0.927,0.606-1.85,1.124-2.641
			c0.22-0.422,0.475-0.819,0.792-1.172c0.302-0.363,0.559-0.766,0.933-1.068c0.664-0.683,1.426-1.269,2.227-1.814l5.063-3.359
			l5.04-3.444c3.363-2.29,6.68-4.66,9.944-7.127c-3.592,1.883-7.129,3.863-10.622,5.923l-5.244,3.081
			c-1.732,1.073-3.469,2.059-5.197,3.205c-0.89,0.589-1.752,1.233-2.539,2.018c-0.426,0.344-0.754,0.815-1.115,1.244
			c-0.377,0.418-0.693,0.888-0.954,1.404c-0.606,0.969-0.983,2.075-1.301,3.16c-0.298,1.097-0.468,2.221-0.564,3.359
			c-0.08,1.128-0.075,2.107-0.07,3.258l0.056,3.198l0.052,1.599c0.009,0.491,0.061,1.345,0.505,1.979
			c0.431,0.713,1.33,0.992,1.949,0.876c0.668-0.057,1.186-0.36,1.677-0.657l-0.077,0.042c0.362-0.202,0.52-0.387,0.722-0.608
			c0.2-0.209,0.323-0.454,0.484-0.681c0.247-0.483,0.472-0.974,0.588-1.485c0.302-1.007,0.337-2.094,0.32-3.043
			c0.01-0.51-0.031-0.982,0.048-1.422c0.058-0.461,0.178-0.926,0.326-1.375C3362.502,2331.906,3362.858,2330.999,3363.59,2330.37z"
			/>
	</g>
	<g>
		<path fill="#C23018" d="M3240.181,2392.155l20.209-12.823c3.286-2.079,6.858-1.355,6.858,3.724v6.739
			c0,3.194-1.529,4.404-3.029,5.151c-1.5,0.747-2.019-1.393-2.019-3.292c0-1.434-0.948-2.627-2.118-1.884l-19.24,12.213
			c-1.17,0.743-2.118,3.29-2.118,4.573c0,4.958-2.019,5.856-2.019,5.856c-1.673,1.062-3.029,0.477-3.029-1.306v-5.696
			C3233.677,2399.116,3235.252,2395.274,3240.181,2392.155z"/>
		<path fill="#992716" d="M3240.843,2401.983c-0.8,0.485-1.375,1.371-1.784,2.254c-0.208,0.451-0.389,0.918-0.511,1.417
			c-0.146,0.513-0.161,1.035-0.224,1.499c-0.066,0.477-0.072,1.001-0.205,1.428c-0.112,0.443-0.185,0.889-0.36,1.305
			c-0.129,0.437-0.344,0.812-0.556,1.173c-0.131,0.15-0.237,0.339-0.378,0.458c-0.119,0.127-0.311,0.265-0.361,0.285l-0.022,0.009
			l-0.055,0.033c-0.757,0.449-1.658,0.499-1.795,0.032c-0.258-0.364-0.075-1.652-0.08-2.684l0.056-3.198
			c0.026-0.978,0.072-2.136,0.173-3.126c0.099-0.987,0.257-1.96,0.527-2.911c0.288-0.927,0.607-1.85,1.124-2.641
			c0.22-0.422,0.475-0.819,0.792-1.172c0.302-0.363,0.559-0.766,0.933-1.068c0.664-0.683,1.426-1.269,2.227-1.814l5.063-3.359
			l5.039-3.444c3.363-2.29,6.681-4.66,9.944-7.127c-3.592,1.883-7.129,3.863-10.622,5.923l-5.244,3.081
			c-1.732,1.073-3.469,2.06-5.198,3.205c-0.89,0.589-1.752,1.233-2.539,2.018c-0.426,0.344-0.754,0.815-1.115,1.244
			c-0.377,0.418-0.693,0.888-0.954,1.404c-0.606,0.969-0.983,2.075-1.301,3.16c-0.298,1.097-0.468,2.221-0.564,3.359
			c-0.08,1.128-0.075,2.106-0.07,3.258l0.056,3.198l0.052,1.599c0.009,0.491,0.061,1.345,0.505,1.979
			c0.431,0.713,1.33,0.992,1.949,0.876c0.668-0.057,1.185-0.36,1.677-0.657l-0.077,0.042c0.362-0.202,0.52-0.387,0.722-0.608
			c0.2-0.209,0.323-0.454,0.484-0.681c0.248-0.483,0.472-0.974,0.588-1.485c0.302-1.007,0.338-2.094,0.32-3.043
			c0.009-0.51-0.031-0.982,0.048-1.422c0.057-0.461,0.178-0.926,0.326-1.375C3239.755,2403.52,3240.111,2402.612,3240.843,2401.983z
			"/>
	</g>
</g>
<g id="Bus_Incli_Droite_1_">
	<g>
		<path fill="#E8CFCF" d="M102.15,290.953l13.136-31.437l59.269-35.243l61.456,36.155l0.001,0.182l-2.862,1.695l0.026,0.016
			l2.848-1.685l16.143,12.858l0.872,0.513l70.068-36.654l13.464,8.539c0,0,5.544,2.677,1.519,5.003
			c-22.353,13.199-223.578,130.155-224.843,130.729c-1.393,0.632-3.769,2.332-7.245,0.541
			c-12.945-7.697-61.298-36.444-62.921-37.332c-1.874-1.026-1.553-3.657,1.204-5.511s15.297-9.558,15.297-9.558L102.15,290.953z"/>
		<g>
			<g>
				<polygon fill="#C23018" points="332.267,149.53 332.468,149.655 332.478,249.639 108.822,377.932 108.822,277.671 				"/>
				<polygon fill="#992716" points="108.822,377.932 44.866,341.524 44.982,244.199 108.822,277.671 				"/>
			</g>
			<polygon fill="#D8584E" points="270.856,114.68 332.267,149.53 108.822,277.671 44.982,244.199 			"/>
			<polygon fill="#100A0A" points="48.041,311.475 105.364,342.258 105.364,278.685 48.041,250.927 			"/>
			<g>
				<defs>
					<polygon id="SVGID_5_" points="48.041,311.475 105.364,342.258 105.364,278.685 48.041,250.927 					"/>
				</defs>
				<clipPath id="SVGID_6_">
					<use xlink:href="#SVGID_5_"  overflow="visible"/>
				</clipPath>
				<path clip-path="url(#SVGID_6_)" fill="#EFCCCB" d="M109.247,271.752l0.001,0.205l-65.865,39.008l-69.789-40.239L33,235.402
					c0,0,7.65-3.885,13.835-0.366S109.247,271.752,109.247,271.752z"/>
				<path clip-path="url(#SVGID_6_)" fill="#C59692" d="M200.457,247.247l-64.762,46.425L35.13,389.35L4.592,369.137
					l173.752-124.671c0,0,16.633-2.078,23.122,1.443C207.954,249.43,200.457,247.247,200.457,247.247z"/>
			</g>
			<polygon fill="#FFFFFF" points="44.701,310.861 108.708,347.328 108.708,344.04 44.701,307.573 			"/>
			<path fill="#1E1D1D" d="M155.998,353.045c0,8.31,6.309,13.037,14.091,10.558c7.783-2.479,14.092-11.226,14.092-19.536
				c0-8.31-6.309-13.037-14.092-10.558C162.307,335.989,155.998,344.735,155.998,353.045z"/>
			<path fill="#FFFFFF" d="M163.176,350.759c0,4.077,3.095,6.396,6.914,5.18c3.818-1.216,6.914-5.508,6.914-9.585
				c0-4.077-3.095-6.396-6.914-5.18C166.271,342.391,163.176,346.682,163.176,350.759z"/>
			<path fill="#423C3C" d="M165.538,347.369c0,2.684,2.038,4.211,4.551,3.41s4.551-3.626,4.551-6.31s-2.038-4.211-4.551-3.41
				C167.576,341.86,165.538,344.685,165.538,347.369z"/>
			<path fill="#1E1D1D" d="M279.717,282.488c0,8.31,6.309,13.037,14.091,10.558s14.091-11.226,14.091-19.536
				s-6.309-13.037-14.091-10.558C286.026,265.432,279.717,274.178,279.717,282.488z"/>
			<path fill="#FFFFFF" d="M286.492,280.33c0,4.314,3.275,6.768,7.316,5.481s7.316-5.828,7.316-10.142
				c0-4.314-3.275-6.768-7.316-5.481C289.768,271.475,286.492,276.016,286.492,280.33z"/>
			<path fill="#423C3C" d="M288.754,277.084c0,2.98,2.263,4.676,5.054,3.786c2.791-0.889,5.054-4.026,5.054-7.006
				c0-2.98-2.263-4.676-5.054-3.786C291.017,270.967,288.754,274.103,288.754,277.084z"/>
			<polygon fill="#100A0A" points="113.067,331.837 329.617,209.517 329.617,159.047 113.067,281.366 			"/>
			<g>
				<defs>
					<polygon id="SVGID_7_" points="113.067,331.837 329.617,209.517 329.617,159.047 113.067,281.366 					"/>
				</defs>
				<clipPath id="SVGID_8_">
					<use xlink:href="#SVGID_7_"  overflow="visible"/>
				</clipPath>
				<path clip-path="url(#SVGID_8_)" fill="#7D5B5A" d="M208.193,224.528l0.147,0.168l-50.367,98.793l-17.82-8.26l48.659-95.772
					c0,0,2.364-3.187,9.028-0.313S208.193,224.528,208.193,224.528z"/>
				<path clip-path="url(#SVGID_8_)" fill="#7D5B5A" d="M321.672,164.012l0.147,0.168l-50.367,98.793l-17.82-8.26l48.659-95.772
					c0,0,2.364-3.187,9.028-0.313C317.983,161.502,321.672,164.012,321.672,164.012z"/>
			</g>
			<polygon fill="#FFFFFF" points="329.74,211.515 112.409,332.256 112.409,328.968 329.74,208.227 			"/>
			<polygon fill="#C23018" points="219.206,220.367 216.936,220.352 216.936,284.404 219.206,284.42 			"/>
			<polygon fill="#C23018" points="119.849,274.926 117.579,274.911 117.579,338.964 119.849,338.979 			"/>
			<polygon fill="#C23018" points="145.57,261.986 143.301,261.97 143.301,326.023 145.57,326.038 			"/>
			<polygon fill="#C23018" points="244.739,204.84 242.469,204.825 242.469,268.878 244.739,268.893 			"/>
			<polygon fill="#100A0A" points="218.954,314.679 242.616,301.068 242.616,208.167 218.954,221.5 			"/>
			<polygon fill="#100A0A" points="119.849,371.636 143.511,358.024 143.511,264.241 119.849,277.574 			"/>
			<polygon fill="#100A0A" points="44.701,249.422 108.708,283.212 108.708,277.958 44.701,244.168 			"/>
		</g>
		<path fill="#F9F7D6" d="M93.45,354.51c-0.856,1.351-0.032,3.414,1.839,4.607c1.872,1.193,4.082,1.065,4.938-0.286
			c0.856-1.351,0.032-3.414-1.839-4.607C96.517,353.03,94.306,353.159,93.45,354.51z"/>
		<path fill="#F9F7D6" d="M50.658,331.015c-0.856,1.351-0.032,3.414,1.839,4.607s4.082,1.065,4.938-0.286
			c0.856-1.351,0.032-3.414-1.839-4.607C53.725,329.536,51.514,329.664,50.658,331.015z"/>
		<path fill="#FFFFFF" d="M62.505,344.644c0,0,0-7.906,0-10.405c0-2.499,1.034-3.82,2.084-3.413
			c1.05,0.407,23.496,13.13,23.496,13.13s0,10.325,0,11.51c0,1.185-0.256,3.671-2.234,2.743
			C83.873,357.281,62.505,344.644,62.505,344.644z"/>
	</g>
	<g>
		<path fill="#E8CFCF" d="M90.362,237.515c-2.745,1.599-3.545,3.643-1.787,4.565l13.793,7.237c1.758,0.922,5.408,0.374,8.153-1.225
			l21.537-12.545c2.745-1.599,3.545-3.643,1.787-4.565l-13.793-7.237c-1.758-0.922-5.408-0.374-8.153,1.225L90.362,237.515z"/>
		<path fill="#E8CFCF" d="M164.44,195.527c-2.745,1.599-3.545,3.643-1.787,4.565l13.793,7.237c1.758,0.922,5.408,0.374,8.153-1.225
			l21.537-12.545c2.745-1.599,3.545-3.643,1.787-4.565l-13.793-7.237c-1.758-0.922-5.408-0.374-8.153,1.225L164.44,195.527z"/>
		<path fill="#E8CFCF" d="M238.518,153.538c-2.745,1.599-3.545,3.643-1.787,4.565l13.793,7.237c1.758,0.922,5.408,0.374,8.153-1.225
			l21.537-12.545c2.745-1.599,3.545-3.643,1.787-4.565l-13.793-7.237c-1.758-0.922-5.408-0.374-8.153,1.225L238.518,153.538z"/>
	</g>
	<g>
		<path fill="#C23018" d="M282.713,267.241l20.209-12.823c3.286-2.079,6.858-1.355,6.858,3.724v6.739
			c0,3.194-1.529,4.404-3.029,5.151s-2.019-1.393-2.019-3.292c0-1.434-0.948-2.627-2.118-1.884l-19.239,12.213
			c-1.17,0.743-2.118,3.29-2.118,4.573c0,4.958-2.019,5.856-2.019,5.856c-1.673,1.062-3.029,0.477-3.029-1.306v-5.696
			C276.208,274.202,277.783,270.36,282.713,267.241z"/>
		<path fill="#992716" d="M283.374,277.069c-0.8,0.485-1.375,1.371-1.784,2.254c-0.208,0.451-0.389,0.918-0.511,1.417
			c-0.146,0.513-0.161,1.035-0.224,1.499c-0.066,0.477-0.072,1.001-0.205,1.428c-0.112,0.443-0.185,0.889-0.36,1.305
			c-0.129,0.437-0.344,0.812-0.556,1.173c-0.131,0.15-0.237,0.339-0.378,0.458c-0.119,0.127-0.311,0.265-0.361,0.285l-0.022,0.009
			l-0.056,0.033c-0.757,0.449-1.658,0.499-1.795,0.032c-0.258-0.364-0.075-1.652-0.08-2.684l0.056-3.197
			c0.026-0.978,0.072-2.136,0.173-3.127c0.099-0.987,0.257-1.96,0.527-2.911c0.288-0.928,0.607-1.85,1.124-2.641
			c0.22-0.422,0.475-0.819,0.792-1.172c0.302-0.363,0.559-0.766,0.933-1.068c0.664-0.683,1.426-1.269,2.227-1.814l5.063-3.359
			l5.039-3.444c3.363-2.29,6.681-4.66,9.944-7.127c-3.592,1.883-7.129,3.863-10.622,5.923l-5.244,3.08
			c-1.732,1.073-3.469,2.06-5.197,3.205c-0.89,0.589-1.752,1.233-2.539,2.018c-0.426,0.344-0.754,0.815-1.115,1.244
			c-0.377,0.419-0.693,0.888-0.954,1.404c-0.606,0.969-0.983,2.075-1.301,3.16c-0.297,1.097-0.468,2.221-0.564,3.359
			c-0.08,1.128-0.075,2.107-0.07,3.258l0.056,3.198l0.052,1.599c0.009,0.491,0.061,1.345,0.505,1.98
			c0.431,0.713,1.329,0.992,1.949,0.876c0.668-0.057,1.185-0.359,1.677-0.657l-0.077,0.041c0.362-0.202,0.52-0.387,0.722-0.608
			c0.2-0.209,0.323-0.454,0.484-0.681c0.247-0.483,0.472-0.974,0.588-1.485c0.302-1.007,0.338-2.094,0.32-3.043
			c0.009-0.51-0.031-0.982,0.048-1.422c0.057-0.461,0.178-0.926,0.326-1.375C282.286,278.605,282.642,277.697,283.374,277.069z"/>
	</g>
	<g>
		<path fill="#C23018" d="M159.966,338.854l20.209-12.823c3.286-2.079,6.858-1.355,6.858,3.724v6.739
			c0,3.194-1.529,4.404-3.029,5.151s-2.019-1.393-2.019-3.292c0-1.434-0.948-2.627-2.118-1.884l-19.239,12.213
			c-1.17,0.743-2.118,3.29-2.118,4.573c0,4.958-2.019,5.856-2.019,5.856c-1.673,1.062-3.029,0.477-3.029-1.306v-5.696
			C153.461,345.815,155.037,341.973,159.966,338.854z"/>
		<path fill="#992716" d="M160.628,348.682c-0.8,0.485-1.375,1.371-1.784,2.254c-0.208,0.451-0.389,0.918-0.511,1.417
			c-0.146,0.513-0.161,1.035-0.224,1.499c-0.066,0.477-0.072,1.001-0.205,1.428c-0.112,0.443-0.185,0.889-0.36,1.305
			c-0.129,0.437-0.344,0.812-0.556,1.173c-0.131,0.15-0.237,0.339-0.378,0.458c-0.119,0.127-0.311,0.265-0.361,0.285l-0.022,0.009
			l-0.056,0.033c-0.757,0.449-1.658,0.499-1.795,0.032c-0.258-0.364-0.075-1.652-0.08-2.684l0.056-3.197
			c0.026-0.978,0.072-2.136,0.173-3.127c0.099-0.987,0.257-1.96,0.527-2.911c0.288-0.928,0.607-1.85,1.124-2.641
			c0.22-0.422,0.475-0.819,0.792-1.172c0.302-0.363,0.559-0.766,0.933-1.068c0.664-0.683,1.426-1.269,2.227-1.814l5.063-3.359
			l5.039-3.444c3.363-2.29,6.681-4.66,9.944-7.127c-3.592,1.883-7.129,3.863-10.622,5.923l-5.244,3.08
			c-1.732,1.073-3.469,2.06-5.197,3.205c-0.89,0.589-1.752,1.233-2.539,2.018c-0.426,0.344-0.754,0.815-1.115,1.244
			c-0.377,0.419-0.693,0.888-0.954,1.404c-0.606,0.969-0.983,2.075-1.301,3.16c-0.297,1.097-0.468,2.221-0.564,3.359
			c-0.08,1.128-0.075,2.107-0.07,3.258l0.056,3.198l0.052,1.599c0.009,0.491,0.061,1.345,0.505,1.98
			c0.431,0.713,1.33,0.992,1.949,0.876c0.668-0.057,1.185-0.359,1.677-0.657l-0.077,0.041c0.362-0.202,0.52-0.387,0.722-0.608
			c0.2-0.209,0.323-0.454,0.484-0.681c0.247-0.483,0.472-0.974,0.588-1.485c0.302-1.007,0.338-2.094,0.32-3.043
			c0.009-0.51-0.031-0.982,0.048-1.422c0.057-0.461,0.178-0.926,0.326-1.375C159.54,350.218,159.896,349.31,160.628,348.682z"/>
	</g>
</g>
<g id="voiture_Incli_Gauche_1_">
	<path fill="#E8CFCF" d="M3495.064,52.734l54.941-32.991l13.099-31.437l59.102-35.54l61.283,35.642l0.001,0.182l-2.854,1.71
		l0.026,0.015l2.84-1.699L3699.6,1.329l0.869,0.506l-9.157,8.323l13.426,8.424c0,0,5.529,2.633,1.514,4.979
		c-22.29,13.312-143.921,85.942-145.182,86.523c-1.389,0.64-3.758,2.351-7.225,0.588c-12.908-7.589-61.125-35.93-62.743-36.805
		c-1.869-1.01-1.548-3.636,1.2-5.504c2.749-1.868,15.254-9.634,15.254-9.634L3495.064,52.734z"/>
	<g>
		<path fill="#D2645A" d="M3500.803,44.023c5.042-2.801,138.383-83.095,138.383-83.095l61.353,60.279
			c0,0-135.722,81.478-139.54,83.654c-3.818,2.176-4.862,1.83-7.236,0.555c-2.374-1.275-58.818-33.518-58.818-33.518
			s0-14.747,0-18.829C3494.945,49.25,3495.761,46.824,3500.803,44.023z"/>
		<path fill="#D8584E" d="M3666.982,16.832c-40.639,24.367-104.096,62.415-106.613,63.91c-3.714,2.207-6.23,0.39-6.23,0.39
			s-54.216-30.828-55.532-31.749c-1.316-0.921-2.468-2.599,0.148-4.13c2.073-1.213,89.056-53.462,125.068-75.095
			c9.43-5.665,15.365-9.23,15.365-9.23L3666.982,16.832z"/>
		<path fill="#992716" d="M3494.945,71.898c0,0,0-17.384,0-19.882s1.034-3.827,2.084-3.427c1.05,0.4,59.969,34.174,59.969,34.174
			l0.446-0.267c0,0,0,19.802,0,20.988c0,1.185-0.256,3.673-2.234,2.758S3494.945,71.898,3494.945,71.898z"/>
		<g>
			<path fill="#D8584E" d="M3683.489-16.857l0.001,0.182l-58.452,35.01l-61.934-35.293l52.721-31.703c0,0,6.789-3.494,12.278-0.408
				C3633.592-45.983,3683.489-16.857,3683.489-16.857z"/>
			<g>
				<path fill="#D8584E" d="M3546.914,16.344c3.686-2.369,4.81-5.988,4.81-5.988l11.381-27.314l61.934,35.293l-13.048,32.474
					l-0.446,0.267C3611.544,51.076,3543.228,18.714,3546.914,16.344z"/>
				<path fill="#100A0A" d="M3554.85,11.457c0,0,7.728-18.562,8.83-20.873s3.677-1.139,3.677-1.139s48.009,27.072,50.705,28.894
					c2.697,1.822,1.544,4.113,1.544,4.113s-7.086,17.722-8.397,20.649c-1.311,2.926-3.66,1.903-3.66,1.903
					s-49.205-27.364-51.761-29.065C3553.232,14.238,3554.85,11.457,3554.85,11.457z"/>
			</g>
		</g>
		
			<ellipse transform="matrix(-0.8458 -0.5335 0.5335 -0.8458 6497.7607 2055.9502)" fill="#F9F7D6" cx="3545.992" cy="88.964" rx="4.006" ry="2.905"/>
		
			<ellipse transform="matrix(-0.8458 -0.5335 0.5335 -0.8458 6431.1558 1990.2852)" fill="#F9F7D6" cx="3503.2" cy="65.756" rx="4.006" ry="2.905"/>
		<path fill="#C23018" d="M3561.07,80.322c1.247-0.767,22.469-13.494,47.991-28.793c3.583-2.504,4.819-5.425,4.819-5.425
			l11.158-27.769l58.464-34.985l14.773,11.668c0,0,2.201,1.583,2.201,4.084s0.063,22.105,0.063,22.105L3560.4,105.22
			c0,0-2.956,1.772-2.956-1.737c0-5.166,0-14.35,0-15.664C3557.444,85.976,3557.444,82.495,3561.07,80.322z"/>
	</g>
	<g>
		<polygon fill="#5E150E" points="3681.963,-11.702 3695.429,-1.067 3679.597,8.517 3679.597,-10.286 		"/>
		<polygon fill="#100A0A" points="3628.671,20.188 3649.98,7.436 3649.98,26.445 3628.582,39.397 3628.582,20.409 		"/>
		<polygon fill="#100A0A" points="3676.833,-8.632 3676.833,10.19 3652.744,24.771 3652.744,5.782 		"/>
		<polygon fill="#100A0A" points="3618.5,45.5 3627.545,22.989 3627.545,40.025 		"/>
	</g>
	
		<ellipse transform="matrix(-0.7071 0.7071 -0.7071 -0.7071 6192.8579 -2381.9268)" fill="#100A0A" cx="3589.742" cy="91.619" rx="18.848" ry="12.122"/>
	
		<ellipse transform="matrix(-0.7071 0.7071 -0.7071 -0.7071 6311.3262 -2534.4595)" fill="#100A0A" cx="3680.567" cy="39.889" rx="18.848" ry="12.122"/>
	
		<ellipse transform="matrix(-0.6718 0.7408 -0.7408 -0.6718 6068.9087 -2506.7983)" fill="#FFFFFF" cx="3589.831" cy="91.157" rx="12.091" ry="7.255"/>
	
		<ellipse transform="matrix(-0.6718 0.7408 -0.7408 -0.6718 6066.1914 -2508.4109)" fill="#423C3C" cx="3588.83" cy="89.749" rx="7.157" ry="4.294"/>
	
		<ellipse transform="matrix(-0.6718 0.7408 -0.7408 -0.6718 6182.6523 -2661.8064)" fill="#FFFFFF" cx="3681.045" cy="38.853" rx="12.091" ry="7.255"/>
	
		<ellipse transform="matrix(-0.6718 0.7408 -0.7408 -0.6718 6180.6357 -2662.1538)" fill="#423C3C" cx="3680.114" cy="38.232" rx="7.157" ry="4.294"/>
	<path fill="#C23018" d="M3668.343,29.836l24.286-14.611c3.949-2.369,8.242-1.58,8.242,4.146v7.598c0,3.601-1.837,4.977-3.64,5.831
		c-1.803,0.854-2.427-1.555-2.427-3.696c0-1.617-1.139-2.954-2.545-2.108l-23.12,13.916c-1.406,0.846-2.545,3.725-2.545,5.172
		c0,5.591-2.427,6.617-2.427,6.617c-2.011,1.21-3.64,0.561-3.64-1.449V44.83C3660.526,37.734,3662.419,33.39,3668.343,29.836z"/>
	<path fill="#992716" d="M3669.138,40.912c-0.962,0.553-1.653,1.556-2.144,2.555c-0.25,0.51-0.468,1.038-0.614,1.602
		c-0.176,0.579-0.194,1.168-0.269,1.692c-0.08,0.539-0.086,1.13-0.246,1.611c-0.135,0.501-0.222,1.004-0.432,1.474
		c-0.155,0.494-0.414,0.918-0.668,1.326c-0.157,0.17-0.285,0.384-0.455,0.519c-0.144,0.144-0.374,0.302-0.434,0.324l-0.027,0.01
		l-0.067,0.038c-0.91,0.512-1.993,0.576-2.157,0.05c-0.31-0.408-0.09-1.862-0.096-3.026l0.068-3.605
		c0.032-1.103,0.086-2.409,0.208-3.527c0.119-1.113,0.309-2.212,0.634-3.286c0.346-1.048,0.729-2.09,1.351-2.986
		c0.265-0.477,0.571-0.927,0.952-1.328c0.363-0.412,0.671-0.868,1.121-1.211c0.798-0.776,1.713-1.441,2.677-2.062l6.084-3.826
		l6.056-3.921c4.041-2.607,8.028-5.305,11.95-8.111c-4.316,2.15-8.567,4.409-12.764,6.758l-6.301,3.513
		c-2.082,1.223-4.169,2.348-6.246,3.653c-1.069,0.67-2.105,1.403-3.051,2.295c-0.512,0.391-0.906,0.925-1.34,1.411
		c-0.453,0.475-0.833,1.007-1.147,1.59c-0.729,1.097-1.181,2.347-1.563,3.573c-0.357,1.239-0.563,2.508-0.677,3.792
		c-0.096,1.272-0.09,2.376-0.084,3.674l0.068,3.605l0.062,1.803c0.01,0.553,0.073,1.516,0.606,2.228
		c0.518,0.8,1.598,1.109,2.343,0.973c0.803-0.069,1.425-0.414,2.016-0.753l-0.093,0.047c0.435-0.231,0.625-0.44,0.868-0.691
		c0.241-0.237,0.389-0.515,0.581-0.771c0.297-0.546,0.567-1.101,0.707-1.678c0.363-1.138,0.406-2.363,0.385-3.433
		c0.011-0.575-0.037-1.107,0.058-1.603c0.069-0.52,0.214-1.045,0.392-1.552C3667.83,42.653,3668.258,41.626,3669.138,40.912z"/>
	<path fill="#992716" d="M3581.862,44.052c0,0-27.629,10.995-30.795,12.211s-5.586-0.184-5.586-0.184l-11.21-6.98
		c0,0-1.918-1.705,0.179-3.573s18.189-17.664,18.189-17.664s-21.491,15.785-23.876,17.863c-2.385,2.078-0.54,4.198-0.54,4.198
		l16.669,10.394c0,0,2.405,1.949,6.112,0.147C3554.713,58.663,3581.862,44.052,3581.862,44.052z"/>
	<polygon fill="#992716" points="3551.521,81.238 3554.36,81.357 3605.094,50.963 3603.551,50.057 	"/>
	<polygon fill="#992716" points="3495.841,49.515 3498.68,49.634 3549.415,19.24 3547.872,18.334 	"/>
	<polygon fill="#992716" points="3604.222,51.407 3605.094,50.963 3547.872,18.334 3547.704,18.878 	"/>
	<path fill="#FFFFFF" d="M3511.659,77.169c0,0,0-7.906,0-10.405s1.034-3.827,2.084-3.427c1.05,0.4,23.05,13.24,23.05,13.24
		l0.446-0.267c0,0,0,10.325,0,11.51c0,1.185-0.256,3.673-2.234,2.758C3533.027,89.662,3511.659,77.169,3511.659,77.169z"/>
	<g>
		<defs>
			<path id="SVGID_9_" d="M3554.85,11.457c0,0,7.728-18.562,8.83-20.873s3.677-1.139,3.677-1.139s48.009,27.072,50.705,28.894
				c2.697,1.822,1.544,4.113,1.544,4.113s-7.086,17.722-8.397,20.649c-1.311,2.926-3.66,1.903-3.66,1.903
				s-49.205-27.364-51.761-29.065C3553.232,14.238,3554.85,11.457,3554.85,11.457z"/>
		</defs>
		<clipPath id="SVGID_10_">
			<use xlink:href="#SVGID_9_"  overflow="visible"/>
		</clipPath>
		<path clip-path="url(#SVGID_10_)" fill="#EFCCCB" d="M3596.416-12.807l0.001,0.205l-65.865,39.451l-69.789-39.77l59.408-35.724
			c0,0,7.65-3.937,13.835-0.459S3596.416-12.807,3596.416-12.807z"/>
		<path clip-path="url(#SVGID_10_)" fill="#C59692" d="M3687.626-47.76l-64.762,46.86l-100.565,96.353l-30.538-20.008
			l173.752-125.838c0,0,16.633-2.19,23.122,1.288C3695.123-45.627,3687.626-47.76,3687.626-47.76z"/>
	</g>
	<g>
		<defs>
			<polygon id="SVGID_11_" points="3681.963,-11.702 3695.429,-1.067 3679.597,8.517 3679.597,-10.286 			"/>
		</defs>
		<use xlink:href="#SVGID_11_"  overflow="visible" fill="#100A0A"/>
		<clipPath id="SVGID_12_">
			<use xlink:href="#SVGID_11_"  overflow="visible"/>
		</clipPath>
		<path clip-path="url(#SVGID_12_)" fill="#C59692" d="M3709.604-36.554l0.126,0.143l-43.366,85.353l-15.343-7.009l41.896-82.742
			c0,0,2.036-2.758,7.774-0.322C3706.428-38.694,3709.604-36.554,3709.604-36.554z"/>
	</g>
	<g>
		<defs>
			<polygon id="SVGID_13_" points="3628.671,20.188 3649.98,7.436 3649.98,26.445 3628.582,39.397 3628.582,20.409 			"/>
		</defs>
		<clipPath id="SVGID_14_">
			<use xlink:href="#SVGID_13_"  overflow="visible"/>
		</clipPath>
		<path clip-path="url(#SVGID_14_)" fill="#C59692" d="M3683.257-31.947l0.147,0.167l-50.367,99.132l-17.82-8.14l48.659-96.099
			c0,0,2.364-3.203,9.028-0.374S3683.257-31.947,3683.257-31.947z"/>
	</g>
	<g>
		<defs>
			<polygon id="SVGID_15_" points="3676.833,-8.632 3676.833,10.19 3652.744,24.771 3652.744,5.782 			"/>
		</defs>
		<clipPath id="SVGID_16_">
			<use xlink:href="#SVGID_15_"  overflow="visible"/>
		</clipPath>
		<path clip-path="url(#SVGID_16_)" fill="#C59692" d="M3683.257-31.947l0.147,0.167l-50.367,99.132l-17.82-8.14l48.659-96.099
			c0,0,2.364-3.203,9.028-0.374S3683.257-31.947,3683.257-31.947z"/>
	</g>
	<g>
		<defs>
			<polygon id="SVGID_17_" points="3618.5,45.5 3627.545,22.989 3627.545,40.025 			"/>
		</defs>
		<clipPath id="SVGID_18_">
			<use xlink:href="#SVGID_17_"  overflow="visible"/>
		</clipPath>
		<path clip-path="url(#SVGID_18_)" fill="#C59692" d="M3683.257-31.947l0.147,0.167l-50.367,99.132l-17.82-8.14l48.659-96.099
			c0,0,2.364-3.203,9.028-0.374S3683.257-31.947,3683.257-31.947z"/>
	</g>
	<polygon fill="#992716" points="3649.98,51.687 3652.744,49.976 3652.744,5.782 3649.98,7.591 	"/>
	<polygon fill="#992716" points="3659.97,44.495 3604.304,79.066 3660.788,45.847 	"/>
</g>
<g id="voiture_Incli_Droite_1_">
	<path fill="#E8CFCF" d="M3775.2-540.066l-54.941-32.991l-13.098-31.437l-59.102-35.54l-61.283,35.642l-0.001,0.182l2.854,1.71
		l-0.026,0.015l-2.84-1.7l-16.098,12.713l-0.869,0.506l9.157,8.323l-13.426,8.424c0,0-5.529,2.633-1.515,4.979
		c22.29,13.312,143.921,85.942,145.182,86.523c1.389,0.64,3.758,2.351,7.225,0.588c12.908-7.589,61.125-35.93,62.743-36.805
		c1.869-1.01,1.548-3.636-1.2-5.504c-2.749-1.868-15.253-9.634-15.253-9.634L3775.2-540.066z"/>
	<g>
		<path fill="#D2645A" d="M3769.462-548.777c-5.042-2.801-138.383-83.095-138.383-83.095l-61.353,60.279
			c0,0,135.722,81.478,139.54,83.654c3.818,2.176,4.862,1.829,7.236,0.555c2.374-1.275,58.818-33.518,58.818-33.518
			s0-14.747,0-18.829C3775.32-543.55,3774.503-545.976,3769.462-548.777z"/>
		<path fill="#D8584E" d="M3603.283-575.969c40.639,24.367,104.096,62.415,106.613,63.91c3.714,2.207,6.23,0.39,6.23,0.39
			s54.216-30.828,55.532-31.749c1.316-0.921,2.468-2.599-0.148-4.13c-2.073-1.213-89.056-53.462-125.068-75.096
			c-9.43-5.665-15.365-9.23-15.365-9.23L3603.283-575.969z"/>
		<path fill="#992716" d="M3775.32-520.902c0,0,0-17.384,0-19.882s-1.034-3.827-2.084-3.427c-1.05,0.4-59.969,34.174-59.969,34.174
			l-0.446-0.267c0,0,0,19.802,0,20.988c0,1.185,0.256,3.673,2.234,2.758C3717.033-487.474,3775.32-520.902,3775.32-520.902z"/>
		<g>
			<path fill="#D8584E" d="M3586.776-609.657l-0.001,0.182l58.452,35.01l61.934-35.293l-52.721-31.703c0,0-6.789-3.494-12.278-0.408
				C3636.673-638.783,3586.776-609.657,3586.776-609.657z"/>
			<g>
				<path fill="#D8584E" d="M3723.351-576.456c-3.686-2.369-4.81-5.989-4.81-5.989l-11.381-27.314l-61.934,35.293l13.048,32.474
					l0.446,0.267C3658.721-541.724,3727.037-574.087,3723.351-576.456z"/>
				<path fill="#100A0A" d="M3715.415-581.343c0,0-7.727-18.562-8.83-20.873c-1.103-2.31-3.677-1.139-3.677-1.139
					s-48.008,27.072-50.705,28.894c-2.696,1.822-1.544,4.113-1.544,4.113s7.087,17.722,8.397,20.649
					c1.31,2.926,3.66,1.903,3.66,1.903s49.205-27.364,51.761-29.065S3715.415-581.343,3715.415-581.343z"/>
			</g>
		</g>
		
			<ellipse transform="matrix(0.8458 -0.5335 0.5335 0.8458 843.0423 1909.1636)" fill="#F9F7D6" cx="3724.272" cy="-503.837" rx="4.006" ry="2.905"/>
		
			<ellipse transform="matrix(0.8458 -0.5335 0.5335 0.8458 862.0212 1928.4141)" fill="#F9F7D6" cx="3767.064" cy="-527.044" rx="4.006" ry="2.905"/>
		<path fill="#C23018" d="M3709.195-512.478c-1.247-0.767-22.469-13.494-47.991-28.793c-3.583-2.504-4.819-5.425-4.819-5.425
			l-11.158-27.769l-58.464-34.985l-14.774,11.668c0,0-2.201,1.583-2.201,4.084c0,2.5-0.063,22.105-0.063,22.105l140.139,84.013
			c0,0,2.956,1.772,2.956-1.737c0-5.166,0-14.35,0-15.664C3712.821-506.824,3712.821-510.305,3709.195-512.478z"/>
	</g>
	<g>
		<polygon fill="#5E150E" points="3588.302,-604.503 3574.835,-593.867 3590.668,-584.283 3590.668,-603.086 		"/>
		<polygon fill="#100A0A" points="3641.594,-572.612 3620.285,-585.364 3620.285,-566.355 3641.683,-553.403 3641.683,-572.391 		
			"/>
		<polygon fill="#100A0A" points="3593.432,-601.432 3593.432,-582.61 3617.521,-568.029 3617.521,-587.018 		"/>
		<polygon fill="#100A0A" points="3651.765,-547.3 3642.719,-569.811 3642.719,-552.775 		"/>
	</g>
	
		<ellipse transform="matrix(0.7071 0.7071 -0.7071 0.7071 723.6118 -2749.3149)" fill="#100A0A" cx="3680.523" cy="-501.181" rx="18.848" ry="12.122"/>
	
		<ellipse transform="matrix(0.7071 0.7071 -0.7071 0.7071 660.4307 -2700.2434)" fill="#100A0A" cx="3589.698" cy="-552.911" rx="18.848" ry="12.122"/>
	
		<ellipse transform="matrix(0.6718 0.7408 -0.7408 0.6718 836.4218 -2890.9595)" fill="#FFFFFF" cx="3680.433" cy="-501.643" rx="12.091" ry="7.255"/>
	
		<ellipse transform="matrix(0.6718 0.7408 -0.7408 0.6718 835.7074 -2892.1636)" fill="#423C3C" cx="3681.435" cy="-503.051" rx="7.157" ry="4.294"/>
	
		<ellipse transform="matrix(0.6718 0.7408 -0.7408 0.6718 767.7383 -2840.5601)" fill="#FFFFFF" cx="3589.22" cy="-553.947" rx="12.091" ry="7.255"/>
	
		<ellipse transform="matrix(0.6718 0.7408 -0.7408 0.6718 767.5844 -2841.4536)" fill="#423C3C" cx="3590.151" cy="-554.568" rx="7.157" ry="4.294"/>
	<path fill="#C23018" d="M3601.922-562.964l-24.286-14.611c-3.949-2.369-8.241-1.58-8.241,4.146v7.598
		c0,3.601,1.837,4.977,3.64,5.831c1.803,0.854,2.427-1.555,2.427-3.696c0-1.617,1.139-2.954,2.545-2.108l23.12,13.916
		c1.406,0.846,2.545,3.725,2.545,5.172c0,5.591,2.427,6.617,2.427,6.617c2.01,1.21,3.64,0.561,3.64-1.449v-6.422
		C3609.739-555.066,3607.846-559.41,3601.922-562.964z"/>
	<path fill="#992716" d="M3601.127-551.888c0.962,0.553,1.653,1.556,2.144,2.555c0.25,0.51,0.468,1.038,0.614,1.602
		c0.176,0.579,0.194,1.168,0.269,1.692c0.079,0.539,0.086,1.13,0.246,1.611c0.135,0.501,0.222,1.004,0.432,1.474
		c0.155,0.494,0.414,0.918,0.668,1.326c0.157,0.17,0.284,0.384,0.455,0.519c0.144,0.144,0.373,0.302,0.434,0.324l0.027,0.01
		l0.067,0.038c0.91,0.512,1.993,0.576,2.157,0.05c0.31-0.408,0.09-1.862,0.096-3.026l-0.068-3.605
		c-0.031-1.103-0.086-2.409-0.208-3.527c-0.119-1.113-0.309-2.212-0.634-3.286c-0.345-1.048-0.729-2.09-1.351-2.986
		c-0.264-0.477-0.571-0.927-0.952-1.328c-0.363-0.412-0.671-0.868-1.121-1.211c-0.798-0.776-1.713-1.441-2.677-2.062l-6.084-3.826
		l-6.056-3.921c-4.041-2.607-8.028-5.305-11.95-8.111c4.316,2.15,8.567,4.409,12.764,6.758l6.301,3.513
		c2.082,1.223,4.169,2.348,6.246,3.653c1.069,0.67,2.105,1.403,3.051,2.295c0.512,0.391,0.907,0.925,1.34,1.411
		c0.453,0.475,0.833,1.007,1.147,1.59c0.729,1.097,1.181,2.347,1.563,3.573c0.357,1.239,0.562,2.508,0.677,3.792
		c0.096,1.272,0.09,2.376,0.084,3.674l-0.068,3.605l-0.062,1.803c-0.01,0.553-0.074,1.516-0.607,2.228
		c-0.518,0.8-1.598,1.109-2.342,0.973c-0.803-0.069-1.425-0.414-2.016-0.753l0.093,0.047c-0.435-0.231-0.625-0.44-0.868-0.691
		c-0.241-0.237-0.389-0.515-0.581-0.771c-0.297-0.546-0.567-1.101-0.706-1.678c-0.363-1.138-0.406-2.363-0.385-3.433
		c-0.011-0.575,0.037-1.107-0.057-1.604c-0.069-0.52-0.214-1.045-0.392-1.552C3602.434-550.148,3602.007-551.174,3601.127-551.888z"
		/>
	<path fill="#992716" d="M3688.403-548.748c0,0,27.629,10.995,30.794,12.211c3.166,1.216,5.586-0.184,5.586-0.184l11.21-6.98
		c0,0,1.918-1.705-0.179-3.573c-2.098-1.868-18.189-17.664-18.189-17.664s21.491,15.785,23.876,17.863s0.54,4.198,0.54,4.198
		l-16.67,10.394c0,0-2.405,1.949-6.112,0.147C3715.552-534.137,3688.403-548.748,3688.403-548.748z"/>
	<polygon fill="#992716" points="3718.744,-511.562 3715.905,-511.443 3665.171,-541.837 3666.713,-542.743 	"/>
	<polygon fill="#992716" points="3774.424,-543.285 3771.584,-543.166 3720.85,-573.56 3722.393,-574.466 	"/>
	<polygon fill="#992716" points="3666.043,-541.393 3665.171,-541.837 3722.393,-574.466 3722.561,-573.922 	"/>
	<path fill="#FFFFFF" d="M3758.606-515.632c0,0,0-7.906,0-10.405s-1.034-3.827-2.084-3.427c-1.05,0.4-23.05,13.24-23.05,13.24
		l-0.446-0.267c0,0,0,10.325,0,11.51s0.256,3.673,2.234,2.758C3737.238-503.138,3758.606-515.632,3758.606-515.632z"/>
	<g>
		<defs>
			<path id="SVGID_19_" d="M3715.415-581.343c0,0-7.727-18.562-8.83-20.873c-1.103-2.31-3.677-1.139-3.677-1.139
				s-48.008,27.072-50.705,28.894c-2.696,1.822-1.544,4.113-1.544,4.113s7.087,17.722,8.397,20.649
				c1.31,2.926,3.66,1.903,3.66,1.903s49.205-27.364,51.761-29.065S3715.415-581.343,3715.415-581.343z"/>
		</defs>
		<clipPath id="SVGID_20_">
			<use xlink:href="#SVGID_19_"  overflow="visible"/>
		</clipPath>
		<path clip-path="url(#SVGID_20_)" fill="#EFCCCB" d="M3673.849-605.607l-0.001,0.205l65.865,39.451l69.789-39.77l-59.407-35.724
			c0,0-7.65-3.937-13.835-0.459C3730.075-638.427,3673.849-605.607,3673.849-605.607z"/>
		<path clip-path="url(#SVGID_20_)" fill="#C59692" d="M3582.638-640.56l64.762,46.86l100.565,96.353l30.538-20.008
			l-173.752-125.838c0,0-16.633-2.19-23.122,1.288C3575.141-638.427,3582.638-640.56,3582.638-640.56z"/>
	</g>
	<g>
		<defs>
			<polygon id="SVGID_21_" points="3588.302,-604.503 3574.835,-593.867 3590.668,-584.283 3590.668,-603.086 			"/>
		</defs>
		<use xlink:href="#SVGID_21_"  overflow="visible" fill="#100A0A"/>
		<clipPath id="SVGID_22_">
			<use xlink:href="#SVGID_21_"  overflow="visible"/>
		</clipPath>
		<path clip-path="url(#SVGID_22_)" fill="#C59692" d="M3560.661-629.354l-0.126,0.143l43.366,85.353l15.343-7.009l-41.896-82.742
			c0,0-2.036-2.758-7.773-0.322S3560.661-629.354,3560.661-629.354z"/>
	</g>
	<g>
		<defs>
			<polygon id="SVGID_23_" points="3641.594,-572.612 3620.285,-585.364 3620.285,-566.355 3641.683,-553.403 3641.683,-572.391 			
				"/>
		</defs>
		<clipPath id="SVGID_24_">
			<use xlink:href="#SVGID_23_"  overflow="visible"/>
		</clipPath>
		<path clip-path="url(#SVGID_24_)" fill="#C59692" d="M3587.008-624.747l-0.146,0.167l50.367,99.132l17.82-8.14l-48.659-96.099
			c0,0-2.364-3.203-9.028-0.374C3590.696-627.233,3587.008-624.747,3587.008-624.747z"/>
	</g>
	<g>
		<defs>
			<polygon id="SVGID_25_" points="3593.432,-601.432 3593.432,-582.61 3617.521,-568.029 3617.521,-587.018 			"/>
		</defs>
		<clipPath id="SVGID_26_">
			<use xlink:href="#SVGID_25_"  overflow="visible"/>
		</clipPath>
		<path clip-path="url(#SVGID_26_)" fill="#C59692" d="M3587.008-624.747l-0.146,0.167l50.367,99.132l17.82-8.14l-48.659-96.099
			c0,0-2.364-3.203-9.028-0.374C3590.696-627.233,3587.008-624.747,3587.008-624.747z"/>
	</g>
	<g>
		<defs>
			<polygon id="SVGID_27_" points="3651.765,-547.3 3642.719,-569.811 3642.719,-552.775 			"/>
		</defs>
		<clipPath id="SVGID_28_">
			<use xlink:href="#SVGID_27_"  overflow="visible"/>
		</clipPath>
		<path clip-path="url(#SVGID_28_)" fill="#C59692" d="M3587.008-624.747l-0.146,0.167l50.367,99.132l17.82-8.14l-48.659-96.099
			c0,0-2.364-3.203-9.028-0.374C3590.696-627.233,3587.008-624.747,3587.008-624.747z"/>
	</g>
	<polygon fill="#992716" points="3620.285,-541.113 3617.521,-542.824 3617.521,-587.018 3620.285,-585.209 	"/>
	<polygon fill="#992716" points="3610.294,-548.305 3665.96,-513.734 3609.477,-546.953 	"/>
</g>
</svg>
