<?xml version="1.0" encoding="utf-8"?>
<!-- Generator: Adobe Illustrator 17.0.0, SVG Export Plug-In . SVG Version: 6.00 Build 0)  -->
<!DOCTYPE svg PUBLIC "-//W3C//DTD SVG 1.1//EN" "http://www.w3.org/Graphics/SVG/1.1/DTD/svg11.dtd">
<svg version="1.1" id="Calque_1" xmlns="http://www.w3.org/2000/svg" xmlns:xlink="http://www.w3.org/1999/xlink" x="0px" y="0px"
	 width="55.422px" height="59.036px" viewBox="0 0 55.422 59.036" enable-background="new 0 0 55.422 59.036" xml:space="preserve">
<g id="Picto_Destination">
	<g>
		<path fill="#0F4864" d="M36.662,21.892c-6.174,0.056-9.263,6.182-7.172,9.949s6.962,11.344,6.962,11.344s5.157-7.962,7.043-11.769
			C45.577,26.596,41.692,21.892,36.662,21.892z M36.416,33.215c-2.242,0-4.06-1.781-4.06-3.978s1.818-3.979,4.06-3.979
			c2.242,0,4.06,1.781,4.06,3.979S38.658,33.215,36.416,33.215z"/>
		<path fill="#0F4864" d="M17.68,16.928c-4.704,0.043-7.058,4.71-5.464,7.58c1.593,2.87,5.305,8.643,5.305,8.643
			s3.929-6.066,5.366-8.967C24.472,20.512,21.512,16.928,17.68,16.928z M17.492,25.555c-1.708,0-3.093-1.357-3.093-3.031
			s1.385-3.031,3.093-3.031c1.708,0,3.093,1.357,3.093,3.031S19.2,25.555,17.492,25.555z"/>
	</g>
	<g>
		<path fill="#0F4864" d="M32.221,41.798c-2.31-0.707-3.432-3.041-4.334-4.915c-0.496-1.03-1.008-2.096-1.506-2.415
			c-1.01-0.611-1.439-0.433-2.294-0.078c-1.171,0.486-2.777,1.151-5.564-0.603l1.228-1.952c1.779,1.121,2.481,0.827,3.454,0.424
			c0.996-0.414,2.362-0.98,4.397,0.252c1.073,0.688,1.701,1.992,2.364,3.372c0.78,1.621,1.586,3.298,2.931,3.71L32.221,41.798z"/>
	</g>
</g>
</svg>
