<?xml version="1.0" encoding="utf-8"?>
<!-- Generator: Adobe Illustrator 17.0.0, SVG Export Plug-In . SVG Version: 6.00 Build 0)  -->
<!DOCTYPE svg PUBLIC "-//W3C//DTD SVG 1.1//EN" "http://www.w3.org/Graphics/SVG/1.1/DTD/svg11.dtd">
<svg version="1.1" id="Calque_1" xmlns="http://www.w3.org/2000/svg" xmlns:xlink="http://www.w3.org/1999/xlink" x="0px" y="0px"
	 width="55.422px" height="59.036px" viewBox="0 0 55.422 59.036" enable-background="new 0 0 55.422 59.036" xml:space="preserve">
<g id="Picto_Volant">
	<g>
		<path fill="#FFFFFF" d="M36.075,21.758c-2.224-2.224-5.182-3.449-8.328-3.449s-6.103,1.225-8.328,3.449
			c-2.224,2.224-3.449,5.182-3.449,8.328s1.225,6.103,3.449,8.328c2.224,2.224,5.182,3.449,8.328,3.449s6.103-1.225,8.328-3.449
			c2.224-2.224,3.449-5.182,3.449-8.328S38.299,23.982,36.075,21.758z M27.747,20.943c4.636,0,8.477,3.469,9.065,7.948l-5.667-0.552
			c-0.635-1.231-1.919-2.075-3.397-2.075c-1.478,0-2.762,0.844-3.397,2.075l-5.667,0.552C19.269,24.412,23.11,20.943,27.747,20.943z
			 M18.679,31.253l5.6,0.436c0.354,0.761,0.951,1.388,1.691,1.778l0.367,5.652C22.342,38.498,19.195,35.281,18.679,31.253z
			 M27.747,31.273c-0.655,0-1.187-0.533-1.187-1.187c0-0.655,0.533-1.187,1.187-1.187c0.655,0,1.187,0.533,1.187,1.187
			C28.934,30.74,28.402,31.273,27.747,31.273z M29.157,39.119l0.367-5.652c0.74-0.39,1.337-1.017,1.691-1.778l5.6-0.436
			C36.299,35.281,33.152,38.498,29.157,39.119z"/>
	</g>
</g>
</svg>
