<?xml version="1.0" encoding="utf-8"?>
<!-- Generator: Adobe Illustrator 17.0.0, SVG Export Plug-In . SVG Version: 6.00 Build 0)  -->
<!DOCTYPE svg PUBLIC "-//W3C//DTD SVG 1.1//EN" "http://www.w3.org/Graphics/SVG/1.1/DTD/svg11.dtd">
<svg version="1.1" id="Calque_1" xmlns="http://www.w3.org/2000/svg" xmlns:xlink="http://www.w3.org/1999/xlink" x="0px" y="0px"
	 width="55.422px" height="59.036px" viewBox="0 0 55.422 59.036" enable-background="new 0 0 55.422 59.036" xml:space="preserve">
<g id="Picto_loupe">
	<g>
		
			<rect x="28.713" y="34.979" transform="matrix(0.7818 0.6235 -0.6235 0.7818 30.4648 -13.855)" fill="#FFFFFF" width="12.63" height="3.242"/>
	</g>
	<g>
		<path fill="#FFFFFF" d="M24.114,18.344c-5.304,0-9.603,4.299-9.603,9.603c0,5.303,4.299,9.603,9.603,9.603
			s9.603-4.299,9.603-9.603C33.717,22.643,29.418,18.344,24.114,18.344z M26.835,22.355l-0.027,0.081
			c-0.135,0.324-0.487,0.486-0.811,0.405c-2.567-0.675-5.268,0.432-6.538,2.675c-0.162,0.297-0.513,0.405-0.838,0.297l-0.081-0.027
			c-0.162-0.054-0.324-0.189-0.378-0.378c-0.054-0.189-0.027-0.378,0.054-0.54c1.594-2.81,4.971-4.214,8.159-3.35
			c0.189,0.054,0.378,0.189,0.432,0.351C26.889,22.031,26.916,22.22,26.835,22.355z"/>
	</g>
</g>
</svg>
