<?xml version="1.0" encoding="utf-8"?>
<!-- Generator: Adobe Illustrator 17.0.0, SVG Export Plug-In . SVG Version: 6.00 Build 0)  -->
<!DOCTYPE svg PUBLIC "-//W3C//DTD SVG 1.1//EN" "http://www.w3.org/Graphics/SVG/1.1/DTD/svg11.dtd">
<svg version="1.1" id="Calque_1" xmlns="http://www.w3.org/2000/svg" xmlns:xlink="http://www.w3.org/1999/xlink" x="0px" y="0px"
	 width="326px" height="314px" viewBox="-102.789 -131.982 326 314" enable-background="new -102.789 -131.982 326 314"
	 xml:space="preserve">
<g id="piéton">
	<path fill="#E2AB85" d="M78.975,76.34l17.683,29.906l8.062-3.381c0,0-0.78-24.445-10.662-30.946S78.975,76.34,78.975,76.34z"/>
	
		<ellipse transform="matrix(0.9305 -0.3663 0.3663 0.9305 -41.5436 44.5076)" fill="#020304" cx="96.513" cy="131.727" rx="15.48" ry="6.144"/>
	<path fill="#020304" d="M91.815,127.018c6.924-3.218,5.364-9.947,5.364-9.947s0.585-1.073,5.169-2.731
		c4.583-1.658,5.754,0.098,5.754,0.098s2.926,8.192,2.926,12.287c0,4.096-8.972,4.876-8.972,4.876L91.815,127.018z"/>
	<path fill="#FFFFFF" d="M95.13,106.539l3.218,11.215c0,0,1.463,1.463,4.973,0.39c3.511-1.073,4.096-2.34,4.096-2.34l-1.658-13.978
		L95.13,106.539z"/>
	<g>
		<path fill="#E2AB85" d="M31.947,76.644l-4.549,34.444l8.429,2.317c0,0,14.476-19.713,10.715-30.928S31.947,76.644,31.947,76.644z"
			/>
		
			<ellipse transform="matrix(0.9582 0.2862 -0.2862 0.9582 37.9927 2.1759)" fill="#020304" cx="11.553" cy="131.044" rx="15.48" ry="6.144"/>
		<path fill="#020304" d="M10.765,124.439c7.434,1.742,10.36-4.514,10.36-4.514s1.123-0.483,5.752,1.042
			c4.629,1.525,4.466,3.629,4.466,3.629s-2.755,8.25-5.284,11.473c-2.528,3.222-10.068-1.702-10.068-1.702L10.765,124.439z"/>
		<path fill="#FFFFFF" d="M26.015,110.375l-4.391,10.809c0,0,0.248,2.054,3.672,3.377c3.424,1.323,4.667,0.687,4.667,0.687
			l7.324-12.02L26.015,110.375z"/>
	</g>
	<path fill="#E2AB85" d="M42.252-25.834c5.369,1.198,5.647,10.662-6.101,30.272C32.087,11.221,2.047,27.246,0.527,17.975
		c-1.27-7.746,9.972-7.808,9.972-7.808c-7.122-2.739-6.13-4.457-4.876-5.53s7.68,4.203,14.118,0.084
		C31.813-3.002,33.016-13.443,34.919-19.85S42.252-25.834,42.252-25.834z"/>
	<g>
		<polygon fill="#020304" points="39.967,27.711 26.184,77.121 51.669,84.662 68.053,36.292 58.951,14.188 		"/>
		<polygon fill="#020304" points="86.418,25.487 99.259,71.521 75.515,78.547 60.251,33.482 68.731,12.888 		"/>
		<path fill="#E21A1B" d="M38.148-26.831c0-16.238,5.167-26.325,21.405-26.325s27.555,8.611,29.031,24.111
			c1.476,15.5,0,58.309,0,58.309H37.902L38.148-26.831z"/>
		<g>
			<path fill="#020304" d="M45.589-70.834c0,0-16.137-6.228-11.607-14.438s30.575-7.078,41.616,3.963S70.502-57.811,64.84-57.811
				S45.589-70.834,45.589-70.834z"/>
			<g>
				<circle fill="#E2AB85" cx="60.311" cy="-66.871" r="15.287"/>
				<circle fill="#E2AB85" cx="60.311" cy="-51.017" r="5.662"/>
			</g>
			<path fill="#020304" d="M50.685-78.761c15.004-7.927,17.159,29.146,23.781,19.534c8.776-12.74,3.68-18.685,3.68-18.685
				l-10.475-5.662l-11.324-2.831L50.685-78.761z"/>
			<ellipse fill="#E2AB85" cx="67.954" cy="-68.286" rx="3.397" ry="4.813"/>
		</g>
		<path fill="#E2AB85" d="M86.616-27.569c5.413-0.984,9.349,7.627,6.151,30.262c-1.106,7.83-22.55,34.275-27.555,26.325
			c-4.183-6.643,6.151-11.071,6.151-11.071c-7.627,0.246-7.381-1.722-6.643-3.198s8.71,0.885,13.04-5.413
			c8.119-11.809,5.167-21.897,4.429-28.539C81.449-25.847,86.616-27.569,86.616-27.569z"/>
		<path fill="#E21A1B" d="M77.759-48.235c8.119,5.167,13.286,16.73,15.992,24.111l-14.516,6.643l-7.381-11.317L77.759-48.235z"/>
	</g>
	<path fill="#E21A1B" d="M51.433-51.926c-13.04,1.968-18.206,22.389-17.96,34.198l11.317-0.246L51.433-51.926z"/>
</g>
</svg>
