<?xml version="1.0" encoding="utf-8"?>
<!-- Generator: Adobe Illustrator 17.0.0, SVG Export Plug-In . SVG Version: 6.00 Build 0)  -->
<!DOCTYPE svg PUBLIC "-//W3C//DTD SVG 1.1//EN" "http://www.w3.org/Graphics/SVG/1.1/DTD/svg11.dtd">
<svg version="1.1" id="Calque_1" xmlns="http://www.w3.org/2000/svg" xmlns:xlink="http://www.w3.org/1999/xlink" x="0px" y="0px"
	 width="165.5px" height="188px" viewBox="0 55.5 165.5 188" enable-background="new 0 55.5 165.5 188" xml:space="preserve">
<g id="piéton_Incli_Gauche_1_">
	<path fill="#E2AB85" d="M98.262,182.621l11.139,18.838l5.078-2.13c0,0-0.491-15.398-6.716-19.494
		C101.538,175.741,98.262,182.621,98.262,182.621z"/>
	
		<ellipse transform="matrix(0.9305 -0.3663 0.3663 0.9305 -72.0762 55.1571)" fill="#020304" cx="109.309" cy="217.51" rx="9.751" ry="3.87"/>
	<path fill="#020304" d="M106.35,214.544c4.362-2.027,3.379-6.266,3.379-6.266s0.369-0.676,3.256-1.72
		c2.887-1.044,3.624,0.061,3.624,0.061s1.843,5.16,1.843,7.74c0,2.58-5.652,3.071-5.652,3.071L106.35,214.544z"/>
	<path fill="#FFFFFF" d="M108.439,201.643l2.027,7.064c0,0,0.921,0.921,3.133,0.246c2.211-0.676,2.58-1.474,2.58-1.474l-1.044-8.805
		L108.439,201.643z"/>
	<g>
		<path fill="#E2AB85" d="M68.638,182.812l-2.866,21.697l5.31,1.459c0,0,9.119-12.418,6.75-19.482
			C75.463,179.422,68.638,182.812,68.638,182.812z"/>
		
			<ellipse transform="matrix(0.9582 0.2862 -0.2862 0.9582 64.47 -6.8868)" fill="#020304" cx="55.792" cy="217.08" rx="9.751" ry="3.87"/>
		<path fill="#020304" d="M55.295,212.919c4.683,1.098,6.526-2.844,6.526-2.844s0.707-0.304,3.623,0.657
			c2.916,0.961,2.813,2.286,2.813,2.286s-1.736,5.197-3.328,7.227c-1.593,2.03-6.342-1.072-6.342-1.072L55.295,212.919z"/>
		<path fill="#FFFFFF" d="M64.902,204.06l-2.766,6.809c0,0,0.156,1.294,2.313,2.127s2.94,0.433,2.94,0.433l4.614-7.572
			L64.902,204.06z"/>
	</g>
	<path fill="#E2AB85" d="M75.129,118.258c3.382,0.755,3.557,6.716-3.843,19.069c-2.56,4.273-21.483,14.367-22.44,8.528
		c-0.8-4.88,6.282-4.919,6.282-4.919c-4.486-1.725-3.862-2.807-3.072-3.483c0.79-0.676,4.838,2.647,8.893,0.053
		c7.605-4.865,8.362-11.442,9.561-15.478C71.709,117.992,75.129,118.258,75.129,118.258z"/>
	<g>
		<polygon fill="#020304" points="73.69,151.988 65.008,183.112 81.062,187.863 91.382,157.394 85.648,143.47 		"/>
		<polygon fill="#020304" points="102.95,150.587 111.039,179.585 96.082,184.01 86.467,155.623 91.809,142.65 		"/>
		<path fill="#E21A1B" d="M72.544,117.631c0-10.229,3.255-16.583,13.483-16.583s17.358,5.424,18.288,15.188s0,36.73,0,36.73H72.389
			L72.544,117.631z"/>
		<g>
			<path fill="#020304" d="M77.232,89.912c0,0-10.165-3.923-7.312-9.095s19.26-4.458,26.215,2.497
				c6.955,6.955-3.21,14.802-6.777,14.802C85.792,98.115,77.232,89.912,77.232,89.912z"/>
			<g>
				<circle fill="#E2AB85" cx="86.505" cy="92.409" r="9.63"/>
				<circle fill="#E2AB85" cx="86.505" cy="102.395" r="3.567"/>
			</g>
			<path fill="#020304" d="M80.442,84.919c9.452-4.993,10.809,18.36,14.98,12.305c5.528-8.025,2.318-11.77,2.318-11.77l-6.598-3.567
				l-7.133-1.783L80.442,84.919z"/>
			<ellipse fill="#E2AB85" cx="91.32" cy="91.517" rx="2.14" ry="3.032"/>
		</g>
		<path fill="#E2AB85" d="M103.075,117.166c3.41-0.62,5.889,4.804,3.874,19.062c-0.697,4.932-14.205,21.591-17.358,16.583
			c-2.635-4.184,3.874-6.974,3.874-6.974c-4.804,0.155-4.649-1.085-4.184-2.015c0.465-0.93,5.486,0.558,8.214-3.41
			c5.114-7.439,3.255-13.793,2.79-17.978C99.82,118.251,103.075,117.166,103.075,117.166z"/>
		<path fill="#E21A1B" d="M97.496,104.148c5.114,3.255,8.369,10.539,10.074,15.188l-9.144,4.184l-4.649-7.129L97.496,104.148z"/>
	</g>
	<path fill="#E21A1B" d="M80.913,101.823c-8.214,1.24-11.468,14.103-11.314,21.542l7.129-0.155L80.913,101.823z"/>
</g>
</svg>
