<?xml version="1.0" encoding="utf-8"?>
<!-- Generator: Adobe Illustrator 17.0.0, SVG Export Plug-In . SVG Version: 6.00 Build 0)  -->
<!DOCTYPE svg PUBLIC "-//W3C//DTD SVG 1.1//EN" "http://www.w3.org/Graphics/SVG/1.1/DTD/svg11.dtd">
<svg version="1.1" id="Calque_1" xmlns="http://www.w3.org/2000/svg" xmlns:xlink="http://www.w3.org/1999/xlink" x="0px" y="0px"
	 width="165.5px" height="188px" viewBox="0 55.5 165.5 188" enable-background="new 0 55.5 165.5 188" xml:space="preserve">
<g>
	<circle fill="#FFFFFF" cx="83.457" cy="151.497" r="72.195"/>
	<g>
		<path fill="#E21A1B" d="M99.895,127.615c-13.497,0-26.838,0-40.271,0c0,2.092,0,3.948,0,5.967c15.548,0,31.022,0,46.711,0
			c0-13.29,0-26.545,0-39.876c27.18,9.755,47.841,42.699,36.27,77.427c-11.769,35.321-48.854,49.13-76.683,39.993
			c0-11.795,0-23.607,0-35.631c13.429,0,26.762,0,40.281,0c0-2.167,0-4.128,0-6.227c-15.454,0-30.878,0-46.542,0
			c0,13.108,0,26.225,0,39.854c-2.161-1.029-3.971-1.812-5.709-2.73c-22.843-12.067-36.118-38.273-32.263-63.647
			c4.019-26.453,23.711-47.37,49.431-52.392c9.13-1.783,18.254-1.66,27.32,0.607c1.068,0.267,1.703,0.557,1.697,1.861
			c-0.05,11.208-0.034,22.417-0.046,33.625C100.089,126.713,100.004,126.978,99.895,127.615z"/>
	</g>
</g>
</svg>