<?xml version="1.0" encoding="utf-8"?>
<!-- Generator: Adobe Illustrator 17.0.0, SVG Export Plug-In . SVG Version: 6.00 Build 0)  -->
<!DOCTYPE svg PUBLIC "-//W3C//DTD SVG 1.1//EN" "http://www.w3.org/Graphics/SVG/1.1/DTD/svg11.dtd">
<svg version="1.1" id="Calque_1" xmlns="http://www.w3.org/2000/svg" xmlns:xlink="http://www.w3.org/1999/xlink" x="0px" y="0px"
	 width="372px" height="506px" viewBox="-131.789 -301.982 372 506" enable-background="new -131.789 -301.982 372 506"
	 xml:space="preserve">
<g id="Points_Ouest-INFOS_1_">
	<g id="Point_Info_02_2_">
		<g id="Point_Info_02_3_">
			<g>
				<polygon fill="#808283" points="196.636,21.409 196.635,20.953 68.643,-55.282 -61.855,22.205 -61.855,22.205 -62.154,22.382 
					-62.154,99.177 67.693,174.696 67.767,174.739 196.81,98.452 				"/>
				<polygon fill="#ADAEAE" points="196.636,21.409 196.635,20.953 68.643,-55.282 -61.855,22.205 67.767,97.593 				"/>
				<polygon fill="#5A5B5C" points="61.161,-24.387 -61.855,22.205 67.767,97.593 				"/>
				<g>
					<polygon fill="#1D1E1D" points="-61.855,22.205 -62.154,22.382 -62.154,99.177 67.693,174.696 67.693,97.551 					"/>
					<polygon fill="#2C2D2C" points="196.81,98.452 196.636,21.409 67.767,97.593 67.693,97.551 67.693,174.696 67.767,174.739 
											"/>
				</g>
				<polygon fill="#808283" points="61.161,-24.387 196.636,21.409 67.767,97.593 				"/>
				<polygon fill="#6A6E6E" points="-61.855,22.205 68.643,-55.282 61.161,-24.387 				"/>
				<polygon fill="#789AC1" points="72.708,101.824 72.708,164.053 138.006,125.537 138.006,63.309 				"/>
				<polygon fill="#789AC1" points="191.029,32.353 190.757,32.194 142.232,60.816 142.232,123.044 191.029,94.262 				"/>
				<polygon fill="#789AC1" points="61.93,101.088 -0.314,64.887 -0.314,128.268 61.93,164.47 				"/>
				<polygon fill="#789AC1" points="-56.119,32.431 -56.39,32.592 -56.39,95.654 -4.541,125.81 -4.541,62.429 				"/>
				<linearGradient id="SVGID_1_" gradientUnits="userSpaceOnUse" x1="-0.3144" y1="114.6782" x2="61.9296" y2="114.6782">
					<stop  offset="0.1295" style="stop-color:#0F4864"/>
					<stop  offset="0.2041" style="stop-color:#155778"/>
					<stop  offset="0.3653" style="stop-color:#21749D"/>
					<stop  offset="0.5265" style="stop-color:#298BBA"/>
					<stop  offset="0.6855" style="stop-color:#309BCF"/>
					<stop  offset="0.8416" style="stop-color:#34A5DC"/>
					<stop  offset="0.9911" style="stop-color:#35A8E0"/>
				</linearGradient>
				<polygon opacity="0.4" fill="url(#SVGID_1_)" points="61.93,101.088 -0.314,64.887 -0.314,128.268 61.93,164.47 				"/>
				<linearGradient id="SVGID_2_" gradientUnits="userSpaceOnUse" x1="-56.3904" y1="79.1205" x2="-4.5409" y2="79.1205">
					<stop  offset="0.1295" style="stop-color:#0F4864"/>
					<stop  offset="0.2041" style="stop-color:#155778"/>
					<stop  offset="0.3653" style="stop-color:#21749D"/>
					<stop  offset="0.5265" style="stop-color:#298BBA"/>
					<stop  offset="0.6855" style="stop-color:#309BCF"/>
					<stop  offset="0.8416" style="stop-color:#34A5DC"/>
					<stop  offset="0.9911" style="stop-color:#35A8E0"/>
				</linearGradient>
				<polygon opacity="0.4" fill="url(#SVGID_2_)" points="-56.119,32.431 -56.39,32.592 -56.39,95.654 -4.541,125.81 -4.541,62.429 
									"/>
				<path fill="#1D1E1D" d="M-72.356,45.01l-2.335-0.069v61.135l0.009,0c-0.001,0.015-0.009,0.028-0.009,0.043
					c0,0.645,0.523,1.183,1.167,1.202c0.645,0.019,1.167-0.488,1.167-1.133c0-0.015-0.008-0.028-0.009-0.043l0.009,0V45.01z"/>
				<path fill="#1D1E1D" d="M208.319,45.707l-2.335-0.069v61.135l0.009,0c-0.001,0.015-0.009,0.028-0.009,0.043
					c0,0.645,0.523,1.183,1.167,1.202c0.645,0.019,1.167-0.488,1.167-1.133c0-0.015-0.008-0.028-0.009-0.043l0.009,0V45.707z"/>
				<polygon fill="#FFFCFD" points="61.93,164.47 61.93,155.423 -0.314,119.103 -0.314,128.268 				"/>
				<polygon fill="#FFFCFD" points="-4.541,125.81 -4.541,116.637 -56.39,86.382 -56.39,95.654 				"/>
				<path fill="#1D1E1D" d="M46.177,114.964l-2.335-0.069v61.135l0.009,0c-0.001,0.015-0.009,0.028-0.009,0.043
					c0,0.645,0.523,1.183,1.167,1.202c0.645,0.019,1.167-0.488,1.167-1.133c0-0.015-0.008-0.028-0.009-0.043l0.009,0V114.964z"/>
				<polygon fill="#E21A1B" points="67.669,103.747 48.426,125.887 -80.206,49.432 -61.812,28.672 				"/>
				<g>
					<defs>
						<polygon id="SVGID_3_" points="67.669,103.747 48.426,125.887 -80.206,49.432 -61.812,28.672 						"/>
					</defs>
					<clipPath id="SVGID_4_">
						<use xlink:href="#SVGID_3_"  overflow="visible"/>
					</clipPath>
					<g clip-path="url(#SVGID_4_)">
						<polygon fill="#E1E1E1" points="-79.494,71.715 -85.207,66.615 -40.978,16.685 -35.266,21.785 						"/>
						<polygon fill="#E1E1E1" points="-66.289,79.843 -72.001,74.742 -27.773,24.812 -22.06,29.912 						"/>
						<polygon fill="#E1E1E1" points="-53.083,87.97 -58.796,82.869 -14.567,32.939 -8.855,38.039 						"/>
						<polygon fill="#E1E1E1" points="-39.878,96.097 -45.59,90.997 -1.362,41.066 4.351,46.166 						"/>
						<polygon fill="#E1E1E1" points="-26.672,104.224 -32.385,99.124 11.844,49.193 17.556,54.294 						"/>
						<polygon fill="#E1E1E1" points="-13.467,112.351 -19.179,107.251 25.049,57.32 30.762,62.421 						"/>
						<polygon fill="#E1E1E1" points="-0.261,120.478 -5.974,115.378 38.255,65.448 43.967,70.548 						"/>
						<polygon fill="#E1E1E1" points="12.945,128.605 7.232,123.505 51.46,73.575 57.173,78.675 						"/>
						<polygon fill="#E1E1E1" points="26.15,136.732 20.438,131.632 64.666,81.702 70.379,86.802 						"/>
					</g>
				</g>
				<polygon fill="#FFFCFD" points="138.006,125.537 138.006,117.247 72.708,155.659 72.708,164.053 				"/>
				<polygon fill="#FFFCFD" points="191.029,94.262 191.029,86.055 142.232,114.761 142.232,123.044 				"/>
				<path fill="#1D1E1D" d="M91.131,115.63l-2.335-0.069v61.135l0.009,0c-0.001,0.015-0.009,0.028-0.009,0.043
					c0,0.645,0.523,1.183,1.167,1.202c0.645,0.019,1.167-0.488,1.167-1.133c0-0.015-0.008-0.028-0.009-0.043l0.009,0V115.63z"/>
				<polygon fill="#E21A1B" points="67.335,104.511 86.578,126.475 215.21,48.845 196.817,28.253 				"/>
				<g>
					<defs>
						<polygon id="SVGID_5_" points="67.335,104.511 86.578,126.475 215.21,48.845 196.817,28.253 						"/>
					</defs>
					<clipPath id="SVGID_6_">
						<use xlink:href="#SVGID_5_"  overflow="visible"/>
					</clipPath>
					<g clip-path="url(#SVGID_6_)">
						<polygon fill="#E1E1E1" points="214.498,71.135 220.211,65.982 175.983,16.456 170.27,21.608 						"/>
						<polygon fill="#E1E1E1" points="201.293,79.382 207.005,74.23 162.777,24.704 157.064,29.856 						"/>
						<polygon fill="#E1E1E1" points="188.087,87.63 193.8,82.478 149.571,32.951 143.859,38.104 						"/>
						<polygon fill="#E1E1E1" points="174.882,95.878 180.594,90.725 136.366,41.199 130.653,46.352 						"/>
						<polygon fill="#E1E1E1" points="161.676,104.126 167.389,98.973 123.16,49.447 117.448,54.599 						"/>
						<polygon fill="#E1E1E1" points="148.471,112.373 154.183,107.221 109.955,57.695 104.242,62.847 						"/>
						<polygon fill="#E1E1E1" points="135.265,120.621 140.978,115.469 96.749,65.942 91.037,71.095 						"/>
						<polygon fill="#E1E1E1" points="122.06,128.869 127.772,123.716 83.544,74.19 77.831,79.342 						"/>
						<polygon fill="#E1E1E1" points="108.854,137.116 114.567,131.964 70.338,82.438 64.626,87.59 						"/>
					</g>
				</g>
			</g>
			<g>
				<path fill="#1D1E1D" d="M67.937-239.342c0-2.187-1.773-4.013-3.961-4.078c-2.188-0.065-3.961,1.656-3.961,3.843
					c0,0.052,0.028,0.096,0.03,0.147l-0.03-0.001v8.113v199.281v8.113l0.03,0.001c-0.002,0.052-0.03,0.094-0.03,0.146
					c0,2.187,1.773,4.013,3.961,4.078s3.961-1.655,3.961-3.843c0-0.052-0.027-0.096-0.03-0.147l0.03,0.001v-8.113v-199.281v-8.113
					l-0.03-0.001C67.908-239.248,67.937-239.29,67.937-239.342z"/>
				<g>
					<circle fill="#FFFFFF" cx="62.22" cy="-128.985" r="72.195"/>
					<g>
						<path fill="#E21A1B" d="M78.658-152.867c-13.497,0-26.838,0-40.271,0c0,2.092,0,3.948,0,5.967c15.548,0,31.022,0,46.711,0
							c0-13.29,0-26.545,0-39.876c27.18,9.755,47.841,42.699,36.27,77.427c-11.769,35.321-48.854,49.13-76.683,39.993
							c0-11.795,0-23.607,0-35.631c13.429,0,26.762,0,40.281,0c0-2.167,0-4.128,0-6.227c-15.454,0-30.878,0-46.542,0
							c0,13.108,0,26.225,0,39.854c-2.161-1.029-3.971-1.812-5.709-2.73C9.871-86.155-3.404-112.362,0.451-137.736
							c4.019-26.453,23.711-47.37,49.431-52.392c9.13-1.783,18.254-1.66,27.32,0.607c1.068,0.267,1.703,0.557,1.697,1.861
							c-0.05,11.208-0.034,22.417-0.046,33.625C78.853-153.769,78.768-153.504,78.658-152.867z"/>
					</g>
				</g>
				<circle fill="#1D1E1D" cx="63.976" cy="-246.446" r="11.327"/>
			</g>
		</g>
		<g id="arbre_11_">
			<path fill="#633635" d="M-73.89,117.055c-1.323,0-2.577-0.201-3.766-0.582v42.803c0,0-0.228,3.205,3.652,3.205
				c3.995,0,3.953-2.645,3.881-2.816v-43.192C-71.313,116.854-72.567,117.055-73.89,117.055z"/>
			<linearGradient id="SVGID_7_" gradientUnits="userSpaceOnUse" x1="-73.89" y1="-27.7441" x2="-73.89" y2="119.1711">
				<stop  offset="0.0044" style="stop-color:#177274"/>
				<stop  offset="0.3259" style="stop-color:#166F71"/>
				<stop  offset="0.5948" style="stop-color:#136566"/>
				<stop  offset="0.8439" style="stop-color:#0E5555"/>
				<stop  offset="1" style="stop-color:#094746"/>
			</linearGradient>
			<path fill="url(#SVGID_7_)" d="M-73.89-21.276c-10.272,0-21.914,41.597-21.914,76.014c0,31.526,5.173,57.58,18.147,61.735
				c1.19,0.381,2.443,0.582,3.766,0.582s2.577-0.201,3.766-0.582c12.974-4.155,18.147-30.209,18.147-61.735
				C-51.976,20.32-63.618-21.276-73.89-21.276z"/>
		</g>
	</g>
</g>
</svg>
