<?xml version="1.0" encoding="utf-8"?>
<!-- Generator: Adobe Illustrator 17.0.0, SVG Export Plug-In . SVG Version: 6.00 Build 0)  -->
<!DOCTYPE svg PUBLIC "-//W3C//DTD SVG 1.1//EN" "http://www.w3.org/Graphics/SVG/1.1/DTD/svg11.dtd">
<svg version="1.1" id="Calque_1" xmlns="http://www.w3.org/2000/svg" xmlns:xlink="http://www.w3.org/1999/xlink" x="0px" y="0px"
	 width="583.333px" height="444.667px" viewBox="0 0 583.333 444.667" enable-background="new 0 0 583.333 444.667"
	 xml:space="preserve">
<g>
	<polygon fill="#494949" points="551.124,137.777 455.003,84.787 44.667,320.005 44.667,318.333 29.667,318.333 29.667,328.333 
		29.712,328.333 29.589,328.622 200.209,424.054 551.747,220.283 	"/>
	<polygon fill="#525251" points="550.457,20.102 29.589,318.404 200.208,413.293 551.638,209.172 	"/>
	<linearGradient id="SVGID_1_" gradientUnits="userSpaceOnUse" x1="281.2964" y1="275.9998" x2="529.8055" y2="-49.7161">
		<stop  offset="0.0089" style="stop-color:#FFFFFF;stop-opacity:0"/>
		<stop  offset="0.7006" style="stop-color:#FFFFFF"/>
	</linearGradient>
	<polygon opacity="0.15" fill="url(#SVGID_1_)" points="550.457,20.102 29.589,318.404 197.6,411.988 551.638,209.172 	"/>
	<path fill="#FFFFFF" d="M116.167,359.84l-0.982-1.712l27.391-15.715l0.982,1.712L116.167,359.84z M170.948,328.411l-0.982-1.712
		l27.392-15.716l0.982,1.712L170.948,328.411z M225.73,296.98l-0.982-1.712l27.39-15.715l0.982,1.712L225.73,296.98z
		 M280.511,265.551l-0.982-1.712l27.39-15.715l0.982,1.712L280.511,265.551z M335.29,234.121l-0.982-1.712l27.392-15.716
		l0.982,1.712L335.29,234.121z M390.072,202.691l-0.982-1.712l27.39-15.715l0.982,1.712L390.072,202.691z M444.854,171.261
		l-0.982-1.712l27.39-15.715l0.982,1.712L444.854,171.261z M499.636,139.83l-0.982-1.712l27.39-15.715l0.982,1.712L499.636,139.83z"
		/>
</g>
</svg>
