<?xml version="1.0" encoding="utf-8"?>
<!-- Generator: Adobe Illustrator 17.0.0, SVG Export Plug-In . SVG Version: 6.00 Build 0)  -->
<!DOCTYPE svg PUBLIC "-//W3C//DTD SVG 1.1//EN" "http://www.w3.org/Graphics/SVG/1.1/DTD/svg11.dtd">
<svg version="1.1" id="Capa_1" xmlns="http://www.w3.org/2000/svg" xmlns:xlink="http://www.w3.org/1999/xlink" x="0px" y="0px"
	 width="285px" height="262px" viewBox="121.507 124.507 285 262" enable-background="new 121.507 124.507 285 262"
	 xml:space="preserve">
<polygon fill="#525251" points="264.25,168.294 363.261,217.762 267.933,165.485 219.859,193.507 224.876,193.507 "/>
<polygon fill="#525251" points="224.876,193.507 262.507,193.507 262.507,280.684 262.877,280.753 365.859,219.372 363.199,217.885 
	264.219,168.294 "/>
<polygon fill="#494949" points="173.507,225.507 173.507,227.105 224.876,193.507 219.859,193.507 165.075,225.507 "/>
<polygon fill="#494949" points="224.876,193.507 173.507,227.105 173.507,225.507 165.075,225.507 164.507,226.158 164.507,226.209 
	262.507,280.684 262.507,193.507 "/>
<polygon fill="#E8CFCF" points="366,219.25 363.261,217.885 364.821,218.738 332,204.333 295.333,223.333 259,244.666 261.086,291 
	262.507,290.379 262.507,365.159 262.878,365.228 365.922,304.049 "/>
<polygon fill="#992716" points="297.5,228.921 199.5,174.417 199.5,206.417 297.5,260.921 "/>
<polygon fill="#992716" points="332,208.255 234,153.75 234,185.75 332,240.255 "/>
<polygon fill="#D8584E" points="165,195.25 199,206.25 297,260.755 263,249.755 "/>
<polygon fill="#D8584E" points="199.5,174.417 233.5,185.417 331.5,239.921 297.5,228.921 "/>
<polygon fill="#D8584E" points="234,153.75 268,164.75 366,219.255 332,208.255 "/>
<rect x="204.507" y="147.507" fill="#992716" width="22" height="106"/>
<path fill="#D8584E" d="M226.479,147.548c0,3.91-4.924,7.213-10.997,7.378c-6.074,0.164-10.997-2.873-10.997-6.783
	s4.924-7.213,10.997-7.378C221.556,140.601,226.479,143.638,226.479,147.548z"/>
<g>
	<g>
		<polygon fill="#789AC1" points="290.165,314.119 277.844,321.272 277.844,288.853 290.165,281.7 		"/>
		<polygon fill="#789AC1" points="321.213,296.094 308.892,303.247 308.892,270.828 321.213,263.675 		"/>
		<polygon fill="#789AC1" points="352.261,278.069 339.94,285.222 339.94,252.803 352.261,245.65 		"/>
	</g>
	<g>
		<g>
			<g>
				<polygon fill="#789AC1" points="290.178,314.128 277.858,321.276 277.858,288.857 290.178,281.709 				"/>
				<polygon fill="#789AC1" points="321.226,296.117 308.906,303.264 308.906,270.845 321.226,263.698 				"/>
				<polygon fill="#789AC1" points="352.274,278.106 339.954,285.253 339.954,252.834 352.274,245.687 				"/>
			</g>
			<g>
				<polygon fill="#FFFCFD" points="284.823,313.863 283.259,314.77 283.259,288.368 284.823,287.461 				"/>
				<polygon fill="#FFFCFD" points="315.801,295.905 314.237,296.811 314.237,270.409 315.801,269.502 				"/>
				<polygon fill="#FFFCFD" points="346.778,277.946 345.215,278.852 345.215,252.45 346.778,251.544 				"/>
				<polygon fill="#B5B6B7" points="290.178,281.709 277.858,288.857 277.858,292.994 290.178,285.851 				"/>
				<polygon fill="#B5B6B7" points="321.226,263.698 308.906,270.845 308.906,274.994 321.226,267.852 				"/>
				<polygon fill="#B5B6B7" points="352.274,245.687 339.954,252.834 339.954,256.995 352.274,249.852 				"/>
				<polygon fill="#FFFCFD" points="290.178,314.128 290.178,307.77 277.858,314.913 277.858,321.276 				"/>
				<polygon fill="#FFFCFD" points="308.906,303.264 321.226,296.117 321.226,289.77 308.906,296.913 				"/>
				<polygon fill="#FFFCFD" points="339.954,285.253 352.274,278.106 352.274,271.771 339.954,278.913 				"/>
			</g>
		</g>
		<g>
			<path d="M276.887,322.985v-34.714l14.331-8.313v34.716L276.887,322.985z M278.873,289.416v30.122l10.359-6.008v-30.124
				L278.873,289.416z"/>
			<path d="M307.926,304.992v-34.714l14.331-8.313v34.716L307.926,304.992z M309.912,271.422v30.122l10.359-6.008v-30.124
				L309.912,271.422z"/>
			<path d="M338.963,286.998v-34.714l14.331-8.313v34.716L338.963,286.998z M340.949,253.428v30.122l10.359-6.008v-30.124
				L340.949,253.428z"/>
		</g>
	</g>
</g>
<polygon points="262.507,249.755 164.507,195.25 164.507,227.25 262.507,281.755 "/>
<polygon points="164.507,226.209 164.507,309.507 165.076,309.507 164.759,310.01 262.507,365.159 262.507,280.684 "/>
</svg>
