<?xml version="1.0" encoding="utf-8"?>
<!-- Generator: Adobe Illustrator 17.0.0, SVG Export Plug-In . SVG Version: 6.00 Build 0)  -->
<!DOCTYPE svg PUBLIC "-//W3C//DTD SVG 1.1//EN" "http://www.w3.org/Graphics/SVG/1.1/DTD/svg11.dtd">
<svg version="1.1" id="Calque_1" xmlns="http://www.w3.org/2000/svg" xmlns:xlink="http://www.w3.org/1999/xlink" x="0px" y="0px"
	 width="326px" height="314px" viewBox="-102.789 -131.982 326 314" enable-background="new -102.789 -131.982 326 314"
	 xml:space="preserve">
<g id="vélo_1_">
	<g>
		<path fill="#C6916D" d="M6.103,12.207c-1.329,7.098,0.547,7.152,2.034,6.674s0.427-8.274,6.941-11.416"/>
	</g>
	<path fill="#525251" d="M31.11,37.578c1.1,0,2.186-0.533,2.85-1.522c1.06-1.573,0.637-3.705-0.939-4.761L-13.903-0.182
		c-1.542-1.05-3.695-0.647-4.761,0.939c-1.06,1.573-0.637,3.705,0.939,4.761l46.924,31.476C29.782,37.39,30.446,37.578,31.11,37.578
		z"/>
	<g>
		<path fill="#C6916D" d="M26.248-23.083c5.126,0.91,6.353,4.696-3.943,23.723c-3.561,6.582-31.299,22.976-33.12,14.275
			C-12.336,7.643-1.71,7.12-1.71,7.12s2.596-1.371,8.512-5.531c11.094-7.801,11.799-17.723,13.333-23.859
			S26.248-23.083,26.248-23.083z"/>
	</g>
	<g>
		<path fill="#020304" d="M91.285-7.14L52.802,11.567c0,0-14.556-10.382-10.004-19.785s37.241-20.685,37.241-20.685l19.502,4.16
			L91.285-7.14z"/>
		<path fill="#E2AB85" d="M46.189,1.333c1.193,6.405,4.205,26.564,4.205,26.564l7.825-0.179c0,0,7.349-20.627,1.241-29.279
			S44.997-5.073,46.189,1.333z"/>
		
			<ellipse transform="matrix(1 -8.692664e-04 8.692664e-04 1 -0.0427 0.0365)" fill="#020304" cx="41.934" cy="49.085" rx="13.86" ry="5.501"/>
		<path fill="#020304" d="M39.56,43.623c6.823-0.416,7.725-6.535,7.725-6.535s0.839-0.703,5.201-0.584
			c4.362,0.118,4.763,1.964,4.763,1.964s-0.242,7.784-1.583,11.198c-1.34,3.413-9.073,1.128-9.073,1.128L39.56,43.623z"/>
		<path fill="#E21A1B" d="M49.025,27.641L48.037,38.04c0,0,0.74,1.698,4.017,1.953c3.277,0.255,4.179-0.61,4.179-0.61l3.192-12.191
			L49.025,27.641z"/>
	</g>
	<path d="M-17.752,124.786c-7.638-4.688-12.091-13.359-12.527-24.421c-0.422-10.552,2.884-22.131,9.315-32.606
		c9.872-16.095,25.323-26.493,39.373-26.493c4.761,0,9.114,1.187,12.93,3.528c7.638,4.688,12.085,13.362,12.527,24.421
		c0.422,10.552-2.89,22.134-9.322,32.606c-9.872,16.095-25.323,26.493-39.366,26.493C-9.584,128.314-13.936,127.127-17.752,124.786z
		 M-15.117,71.347c-5.72,9.332-8.671,19.539-8.302,28.746c0.349,8.698,3.635,15.388,9.261,18.838
		c2.716,1.67,5.861,2.515,9.335,2.515c11.528,0,24.994-9.328,33.518-23.217c5.72-9.325,8.671-19.535,8.309-28.743
		c-0.349-8.698-3.635-15.388-9.261-18.838c-2.716-1.67-5.861-2.515-9.335-2.515C6.873,48.134-6.593,57.462-15.117,71.347z"/>
	
		<ellipse transform="matrix(-0.8523 -0.523 0.523 -0.8523 -31.7663 160.6112)" fill="#020304" cx="6.791" cy="84.79" rx="8.053" ry="12.023"/>
	
		<ellipse transform="matrix(-0.8523 -0.523 0.523 -0.8523 214.9338 89.4884)" fill="#020304" cx="120.1" cy="14.401" rx="8.053" ry="12.023"/>
	<path d="M95.557,54.397C87.919,49.71,83.466,41.038,83.03,29.976C82.607,19.424,85.913,7.846,92.345-2.63
		c9.872-16.095,25.323-26.493,39.373-26.493c4.761,0,9.114,1.187,12.93,3.528c7.638,4.688,12.085,13.362,12.527,24.421
		c0.423,10.552-2.89,22.134-9.322,32.606c-9.872,16.095-25.323,26.493-39.366,26.493C103.725,57.925,99.373,56.738,95.557,54.397z
		 M98.193,0.958c-5.72,9.332-8.671,19.539-8.302,28.746c0.349,8.698,3.635,15.388,9.261,18.838c2.716,1.67,5.861,2.515,9.335,2.515
		c11.528,0,24.994-9.328,33.518-23.217c5.72-9.325,8.671-19.535,8.309-28.743c-0.349-8.698-3.635-15.388-9.261-18.838
		c-2.716-1.67-5.861-2.515-9.335-2.515C120.183-22.256,106.716-12.927,98.193,0.958z"/>
	<path fill="#525251" d="M6.793,88.224c1.898,0,3.434-1.536,3.434-3.434V24.628l59.766,44.04c0.966,0.704,2.22,0.872,3.34,0.416
		c1.107-0.453,1.898-1.449,2.086-2.632L89.153-18.53c0.308-1.871-0.966-3.635-2.837-3.937c-1.838-0.295-3.635,0.962-3.937,2.843
		L69.537,59.803L8.831,15.072C7.779,14.3,6.39,14.186,5.244,14.77c-1.153,0.583-1.884,1.77-1.884,3.065V84.79
		C3.359,86.688,4.895,88.224,6.793,88.224z"/>
	<path fill="#525251" d="M72.031,69.339c0.919,0,1.831-0.365,2.508-1.09l48.071-51.504c0.644-0.687,0.972-1.606,0.919-2.542
		c-0.054-0.936-0.49-1.811-1.2-2.418L87.992-17.4c-1.127-0.966-2.743-1.09-4.01-0.319L16.168,23.485
		c-1.623,0.986-2.133,3.095-1.153,4.718c0.999,1.626,3.118,2.129,4.721,1.15l65.695-39.916l29.709,25.249L69.523,63.561
		c-1.294,1.388-1.221,3.561,0.168,4.855C70.348,69.034,71.193,69.339,72.031,69.339z"/>
	<path fill="#525251" d="M-11.73,8.841c1.1,0,2.186-0.533,2.85-1.522c1.06-1.573,0.637-3.705-0.939-4.761l-4.084-2.74
		c-1.542-1.05-3.695-0.647-4.761,0.939c-1.06,1.573-0.637,3.705,0.939,4.761l4.084,2.74C-13.058,8.654-12.394,8.841-11.73,8.841z"/>
	<path fill="#525251" d="M31.11,37.578c1.1,0,2.186-0.533,2.85-1.522c1.06-1.573,0.637-3.705-0.939-4.761L11.34,16.752
		c-1.549-1.05-3.695-0.647-4.761,0.939c-1.06,1.573-0.637,3.705,0.939,4.761l21.681,14.543C29.782,37.39,30.446,37.578,31.11,37.578
		z"/>
	<path fill="#020304" d="M100.357-17.36c0.842-24.134-35.195-36.911-42.062-28.327s-4.077,31.332-4.077,31.332L99.069,1.096
		L100.357-17.36z"/>
	<g>
		<path fill="#E2AB85" d="M78.096,27.227l3.759,30.879l7.826,0.124c0,0,8.142-20.328,2.373-29.209
			C86.285,20.138,78.096,27.227,78.096,27.227z"/>
		
			<ellipse transform="matrix(0.9993 0.0378 -0.0378 0.9993 3.0391 -2.6896)" fill="#020304" cx="72.581" cy="78.95" rx="13.86" ry="5.501"/>
		<path fill="#020304" d="M70.42,73.4c6.834-0.152,7.972-6.231,7.972-6.231s0.865-0.67,5.22-0.383
			c4.354,0.287,4.684,2.147,4.684,2.147s-0.544,7.769-2.015,11.128c-1.471,3.359-9.109,0.776-9.109,0.776L70.42,73.4z"/>
		<path fill="#E21A1B" d="M80.496,57.797l-1.39,10.353c0,0,0.674,1.725,3.939,2.107c3.264,0.381,4.2-0.448,4.2-0.448l3.662-12.059
			L80.496,57.797z"/>
		<polygon fill="#020304" points="74.106,-16.989 73.206,28.929 96.987,29.768 100.374,-15.83 87.539,-32.958 		"/>
	</g>
	<path fill="#E21A1B" d="M6.791-21.652C8.68-6.918,23.657-5.153,44.831-5.465c20.761-0.306,37.606-5.481,33.306-32.928
		c-1.815-11.586-20.58-15.492-40.872-9.44C15.081-41.217,5.9-28.604,6.791-21.652z"/>
	<g>
		<path fill="#E2AB85" d="M51.671-5.097c5.152,0.576,6.908,8.302-0.846,25.238C48.143,26,22.916,41.381,20.044,33.907
			c-2.4-6.245,7.98-7.143,7.98-7.143c-7.016-1.705-6.371-3.186-5.382-4.159c0.989-0.973,7.763,2.861,13.062-0.995
			c9.935-7.231,9.393-15.868,10.138-21.256S51.671-5.097,51.671-5.097z"/>
		<path fill="#E21A1B" d="M49.149-25.67c6.917,6.653,9.382,17.994,10.363,25.071L43.427,1.146l-4.739-11.734L49.149-25.67z"/>
	</g>
	<g>
		<path fill="#020304" d="M-4.871-15.722c0,0-11.329-0.499-9.798-9.705S6.505-42.683,19.823-35.496
			c13.677,7.381,3.003,23.742-2.311,25.618S-4.871-15.722-4.871-15.722z"/>
		<g>
			<circle fill="#E2AB85" cx="9.974" cy="-16.193" r="15.216"/>
			<circle fill="#E2AB85" cx="25.032" cy="-14.785" r="5.635"/>
		</g>
		<path fill="#020304" d="M-2.715-24.85C8.741-37.261,22.646-0.636,25.676-11.852c4.016-14.864-2.336-21.3-2.336-21.3l-11.707-1.844
			L0.066-33.9L-2.715-24.85z"/>
		<ellipse fill="#E2AB85" cx="17.378" cy="-18.361" rx="4.006" ry="5.15"/>
	</g>
</g>
</svg>
