<?xml version="1.0" encoding="utf-8"?>
<!-- Generator: Adobe Illustrator 17.0.0, SVG Export Plug-In . SVG Version: 6.00 Build 0)  -->
<!DOCTYPE svg PUBLIC "-//W3C//DTD SVG 1.1//EN" "http://www.w3.org/Graphics/SVG/1.1/DTD/svg11.dtd">
<svg version="1.1" id="Calque_1" xmlns="http://www.w3.org/2000/svg" xmlns:xlink="http://www.w3.org/1999/xlink" x="0px" y="0px"
	 width="1428.143px" height="258.026px" viewBox="0 0 1428.143 258.026" enable-background="new 0 0 1428.143 258.026"
	 xml:space="preserve">
<g id="Maison_silhouètes_2_">
	<rect id="Sol_2_" x="23.104" y="182.462" fill="#0F4864" width="1380.679" height="57.49"/>
	<g id="Maison_04_2_">
		<rect x="1147.854" y="105.913" fill="#0F4864" width="143.25" height="115.888"/>
		<polygon fill="#0F4864" points="1135.257,112.352 1219.479,28.13 1303.7,112.352 		"/>
	</g>
	<g id="Arbre_3_">
		<g>
			<path fill="#0F4864" d="M1016.713,167.801c0.691,0,1.347-0.105,1.968-0.304v22.369c0,0,0.119,1.675-1.909,1.675
				c-2.088,0-2.066-1.382-2.028-1.472v-22.572C1015.366,167.695,1016.021,167.801,1016.713,167.801z"/>
			<path fill="#0F4864" d="M1016.713,95.508c5.368,0,11.452,21.739,11.452,39.725c0,16.476-2.703,30.091-9.484,32.263
				c-0.622,0.199-1.277,0.304-1.968,0.304c-0.691,0-1.347-0.105-1.968-0.304c-6.78-2.171-9.484-15.787-9.484-32.263
				C1005.26,117.247,1011.344,95.508,1016.713,95.508z"/>
		</g>
	</g>
	<g id="Maison_03_2_">
		<rect x="97.873" y="127.47" fill="#0F4864" width="105.382" height="85.253"/>
		<polygon fill="#0F4864" points="88.606,132.206 150.563,70.249 212.521,132.206 		"/>
	</g>
	<g id="Maison_02_2_">
		<rect x="258.919" y="149.608" fill="#0F4864" width="59.315" height="47.985"/>
		<polygon fill="#0F4864" points="253.703,152.273 288.576,117.4 323.449,152.273 		"/>
	</g>
	<g id="maison_01_2_">
		<rect x="910.012" y="159.306" fill="#0F4864" width="66.029" height="53.417"/>
		<polygon fill="#0F4864" points="904.206,162.273 943.026,123.453 981.847,162.273 		"/>
	</g>
</g>
</svg>
