<?xml version="1.0" encoding="utf-8"?>
<!-- Generator: Adobe Illustrator 17.0.0, SVG Export Plug-In . SVG Version: 6.00 Build 0)  -->
<!DOCTYPE svg PUBLIC "-//W3C//DTD SVG 1.1//EN" "http://www.w3.org/Graphics/SVG/1.1/DTD/svg11.dtd">
<svg version="1.1" id="Calque_1" xmlns="http://www.w3.org/2000/svg" xmlns:xlink="http://www.w3.org/1999/xlink" x="0px" y="0px"
	 width="334px" height="274px" viewBox="-124.789 -102.982 334 274" enable-background="new -124.789 -102.982 334 274"
	 xml:space="preserve">
<g id="voiture_2_">
	<path fill="#E8CFCF" d="M-86.052,58.566l68.983-41.423l16.446-39.471l74.207-44.624L150.531-22.2l0.001,0.228l-3.583,2.146
		l0.033,0.019l3.566-2.134l20.212,15.962l1.091,0.635l-11.497,10.45l16.858,10.577c0,0,6.941,3.305,1.902,6.251
		C151.125,38.65-1.591,129.844-3.175,130.573c-1.744,0.803-4.719,2.952-9.071,0.738c-16.207-9.528-76.748-45.113-78.779-46.212
		c-2.346-1.268-1.944-4.565,1.507-6.91s19.152-12.096,19.152-12.096L-86.052,58.566z"/>
	<g>
		<path fill="#D2645A" d="M-78.846,47.629c6.33-3.517,173.751-104.333,173.751-104.333l77.034,75.685
			c0,0-170.41,102.303-175.204,105.035c-4.794,2.732-6.105,2.297-9.086,0.697s-73.851-42.084-73.851-42.084s0-18.516,0-23.642
			C-86.201,54.192-85.176,51.146-78.846,47.629z"/>
		<path fill="#D8584E" d="M129.805,13.488C78.779,44.083-0.897,91.854-4.057,93.732c-4.663,2.771-7.823,0.49-7.823,0.49
			s-68.073-38.707-69.726-39.863c-1.653-1.157-3.098-3.263,0.186-5.185c2.603-1.523,111.817-67.126,157.033-94.288
			c11.84-7.113,19.292-11.59,19.292-11.59L129.805,13.488z"/>
		<path fill="#992716" d="M-86.201,82.628c0,0,0-21.826,0-24.964c0-3.137,1.298-4.806,2.617-4.303S-8.288,96.269-8.288,96.269
			l0.56-0.336c0,0,0,24.863,0,26.352c0,1.488-0.321,4.612-2.805,3.463C-13.017,124.6-86.201,82.628-86.201,82.628z"/>
		<g>
			<path fill="#D8584E" d="M150.531-28.811l0.001,0.228L77.141,15.375L-0.622-28.938l66.195-39.806c0,0,8.524-4.387,15.416-0.512
				S150.531-28.811,150.531-28.811z"/>
			<g>
				<path fill="#D8584E" d="M-20.95,12.876c4.628-2.975,6.039-7.519,6.039-7.519l14.289-34.295l77.763,44.314L60.758,56.149
					l-0.56,0.336C60.198,56.484-25.578,15.851-20.95,12.876z"/>
				<path fill="#100A0A" d="M-10.986,6.739c0,0,9.702-23.307,11.087-26.207s4.617-1.43,4.617-1.43s60.278,33.992,63.664,36.279
					s1.939,5.164,1.939,5.164S61.423,42.796,59.778,46.47s-4.595,2.39-4.595,2.39S-6.599,14.502-9.808,12.367
					S-10.986,6.739-10.986,6.739z"/>
			</g>
		</g>
		
			<ellipse transform="matrix(-0.8458 -0.5335 0.5335 -0.8458 -96.3181 180.2721)" fill="#F9F7D6" cx="-22.107" cy="104.055" rx="5.03" ry="3.647"/>
		
			<ellipse transform="matrix(-0.8458 -0.5335 0.5335 -0.8458 -179.9463 97.8241)" fill="#F9F7D6" cx="-75.836" cy="74.917" rx="5.03" ry="3.647"/>
		<path fill="#C23018" d="M-3.177,93.205c1.566-0.964,28.211-16.943,60.257-36.152c4.498-3.143,6.051-6.812,6.051-6.812
			l14.01-34.866l73.406-43.926l18.549,14.65c0,0,2.764,1.988,2.764,5.127s0.079,27.755,0.079,27.755L-4.017,124.467
			c0,0-3.712,2.225-3.712-2.181c0-6.486,0-18.018,0-19.668C-7.729,100.304-7.729,95.934-3.177,93.205z"/>
	</g>
	<g>
		<polygon fill="#5E150E" points="148.615,-22.339 165.523,-8.985 145.644,3.048 145.644,-20.561 		"/>
		<polygon fill="#100A0A" points="81.702,17.701 108.458,1.691 108.458,25.558 81.591,41.821 81.591,17.979 		"/>
		<polygon fill="#100A0A" points="142.173,-18.484 142.173,5.149 111.929,23.457 111.929,-0.386 		"/>
		<polygon fill="#100A0A" points="68.932,49.483 80.289,21.219 80.289,42.609 		"/>
	</g>
	
		<ellipse transform="matrix(-0.7071 0.7071 -0.7071 -0.7071 131.9704 160.1158)" fill="#100A0A" cx="32.824" cy="107.39" rx="23.665" ry="15.22"/>
	
		<ellipse transform="matrix(-0.7071 0.7071 -0.7071 -0.7071 280.7173 -31.4012)" fill="#100A0A" cx="146.862" cy="42.438" rx="23.665" ry="15.22"/>
	
		<ellipse transform="matrix(-0.6718 0.7408 -0.7408 -0.6718 134.1818 154.1638)" fill="#FFFFFF" cx="32.936" cy="106.81" rx="15.181" ry="9.109"/>
	
		<ellipse transform="matrix(-0.6718 0.7408 -0.7408 -0.6718 130.7696 152.1391)" fill="#423C3C" cx="31.679" cy="105.041" rx="8.986" ry="5.392"/>
	
		<ellipse transform="matrix(-0.6718 0.7408 -0.7408 -0.6718 276.9958 -40.4614)" fill="#FFFFFF" cx="147.462" cy="41.137" rx="15.181" ry="9.109"/>
	
		<ellipse transform="matrix(-0.6718 0.7408 -0.7408 -0.6718 274.4637 -40.8975)" fill="#423C3C" cx="146.293" cy="40.358" rx="8.986" ry="5.392"/>
	<path fill="#C23018" d="M131.513,29.816l30.493-18.345c4.958-2.975,10.348-1.983,10.348,5.206v9.54c0,4.522-2.307,6.249-4.57,7.321
		s-3.047-1.953-3.047-4.641c0-2.03-1.43-3.709-3.196-2.647l-29.029,17.473c-1.765,1.062-3.196,4.677-3.196,6.494
		c0,7.019-3.047,8.309-3.047,8.309c-2.525,1.52-4.57,0.705-4.57-1.82v-8.063C121.699,39.732,124.076,34.278,131.513,29.816z"/>
	<path fill="#992716" d="M132.512,43.722c-1.208,0.695-2.075,1.954-2.692,3.208c-0.314,0.64-0.587,1.303-0.771,2.011
		c-0.221,0.727-0.244,1.466-0.338,2.124c-0.1,0.676-0.108,1.418-0.309,2.023c-0.169,0.628-0.279,1.26-0.543,1.851
		c-0.194,0.62-0.52,1.153-0.839,1.666c-0.198,0.213-0.357,0.483-0.571,0.652c-0.18,0.181-0.469,0.379-0.544,0.407l-0.034,0.013
		l-0.084,0.047c-1.143,0.643-2.502,0.723-2.708,0.063c-0.389-0.513-0.113-2.338-0.121-3.799l0.085-4.527
		c0.04-1.384,0.108-3.025,0.26-4.428c0.15-1.398,0.388-2.777,0.796-4.126c0.434-1.316,0.915-2.624,1.696-3.75
		c0.332-0.599,0.717-1.164,1.195-1.667c0.455-0.517,0.843-1.089,1.408-1.521c1.002-0.974,2.151-1.81,3.361-2.589l7.639-4.803
		l7.604-4.924c5.074-3.274,10.08-6.661,15.004-10.184c-5.42,2.7-10.757,5.536-16.026,8.485l-7.912,4.411
		c-2.614,1.536-5.235,2.949-7.842,4.586c-1.343,0.842-2.643,1.762-3.83,2.881c-0.643,0.491-1.138,1.161-1.683,1.772
		c-0.568,0.596-1.046,1.264-1.44,1.996c-0.915,1.377-1.483,2.947-1.963,4.486c-0.449,1.556-0.706,3.149-0.851,4.761
		c-0.121,1.598-0.113,2.983-0.106,4.613l0.085,4.527l0.078,2.263c0.013,0.695,0.092,1.903,0.762,2.798
		c0.651,1.005,2.006,1.392,2.941,1.222c1.008-0.086,1.789-0.52,2.531-0.946l-0.117,0.059c0.546-0.29,0.784-0.553,1.09-0.868
		c0.302-0.298,0.488-0.646,0.73-0.969c0.373-0.686,0.712-1.383,0.887-2.107c0.456-1.429,0.509-2.967,0.483-4.311
		c0.014-0.722-0.047-1.39,0.072-2.013c0.087-0.653,0.269-1.312,0.492-1.949C130.87,45.908,131.407,44.619,132.512,43.722z"/>
	<path fill="#992716" d="M22.929,47.665c0,0-34.69,13.805-38.665,15.331s-7.014-0.231-7.014-0.231l-14.075-8.764
		c0,0-2.409-2.14,0.225-4.486c2.634-2.346,22.838-22.179,22.838-22.179s-26.984,19.819-29.978,22.429
		c-2.994,2.61-0.677,5.271-0.677,5.271l20.93,13.05c0,0,3.019,2.447,7.674,0.185C-11.158,66.011,22.929,47.665,22.929,47.665z"/>
	<polygon fill="#992716" points="-15.166,94.355 -11.601,94.504 52.1,56.342 50.163,55.204 	"/>
	<polygon fill="#992716" points="-85.076,54.524 -81.512,54.674 -17.81,16.512 -19.748,15.374 	"/>
	<polygon fill="#992716" points="51.005,56.9 52.1,56.342 -19.748,15.374 -19.959,16.057 	"/>
	<path fill="#FFFFFF" d="M-65.216,89.246c0,0,0-9.927,0-13.064s1.298-4.806,2.617-4.303s28.941,16.623,28.941,16.623l0.56-0.336
		c0,0,0,12.964,0,14.452s-0.321,4.612-2.805,3.463C-38.387,104.932-65.216,89.246-65.216,89.246z"/>
	<g>
		<defs>
			<path id="SVGID_1_" d="M-10.986,6.739c0,0,9.702-23.307,11.087-26.207s4.617-1.43,4.617-1.43s60.278,33.992,63.664,36.279
				s1.939,5.164,1.939,5.164S61.423,42.796,59.778,46.47s-4.595,2.39-4.595,2.39S-6.599,14.502-9.808,12.367
				S-10.986,6.739-10.986,6.739z"/>
		</defs>
		<clipPath id="SVGID_2_">
			<use xlink:href="#SVGID_1_"  overflow="visible"/>
		</clipPath>
		<path clip-path="url(#SVGID_2_)" fill="#EFCCCB" d="M41.203-23.726l0.001,0.257l-82.699,49.534l-87.626-49.934l74.591-44.854
			c0,0,9.605-4.943,17.371-0.577C-29.393-64.934,41.203-23.726,41.203-23.726z"/>
		<path clip-path="url(#SVGID_2_)" fill="#C59692" d="M155.726-67.612L74.412-8.775L-51.856,112.204L-90.2,87.083l218.16-158
			c0,0,20.884-2.75,29.032,1.617C165.139-64.934,155.726-67.612,155.726-67.612z"/>
	</g>
	<g>
		<defs>
			<polygon id="SVGID_3_" points="148.615,-22.339 165.523,-8.985 145.644,3.048 145.644,-20.561 			"/>
		</defs>
		<use xlink:href="#SVGID_3_"  overflow="visible" fill="#100A0A"/>
		<clipPath id="SVGID_4_">
			<use xlink:href="#SVGID_3_"  overflow="visible"/>
		</clipPath>
		<path clip-path="url(#SVGID_4_)" fill="#C59692" d="M183.32-53.542l0.159,0.18l-54.45,107.168l-19.264-8.8l52.604-103.889
			c0,0,2.556-3.463,9.76-0.404C179.332-56.229,183.32-53.542,183.32-53.542z"/>
	</g>
	<g>
		<defs>
			<polygon id="SVGID_5_" points="81.702,17.701 108.458,1.691 108.458,25.558 81.591,41.821 81.591,17.979 			"/>
		</defs>
		<clipPath id="SVGID_6_">
			<use xlink:href="#SVGID_5_"  overflow="visible"/>
		</clipPath>
		<path clip-path="url(#SVGID_6_)" fill="#C59692" d="M150.24-47.758l0.184,0.209L87.184,76.919L64.81,66.698l61.095-120.66
			c0,0,2.969-4.022,11.336-0.469C145.609-50.879,150.24-47.758,150.24-47.758z"/>
	</g>
	<g>
		<defs>
			<polygon id="SVGID_7_" points="142.173,-18.484 142.173,5.149 111.929,23.457 111.929,-0.386 			"/>
		</defs>
		<clipPath id="SVGID_8_">
			<use xlink:href="#SVGID_7_"  overflow="visible"/>
		</clipPath>
		<path clip-path="url(#SVGID_8_)" fill="#C59692" d="M150.24-47.758l0.184,0.209L87.184,76.919L64.81,66.698l61.095-120.66
			c0,0,2.969-4.022,11.336-0.469C145.609-50.879,150.24-47.758,150.24-47.758z"/>
	</g>
	<g>
		<defs>
			<polygon id="SVGID_9_" points="68.932,49.483 80.289,21.219 80.289,42.609 			"/>
		</defs>
		<clipPath id="SVGID_10_">
			<use xlink:href="#SVGID_9_"  overflow="visible"/>
		</clipPath>
		<path clip-path="url(#SVGID_10_)" fill="#C59692" d="M150.24-47.758l0.184,0.209L87.184,76.919L64.81,66.698l61.095-120.66
			c0,0,2.969-4.022,11.336-0.469C145.609-50.879,150.24-47.758,150.24-47.758z"/>
	</g>
	<polygon fill="#992716" points="108.458,57.251 111.929,55.103 111.929,-0.386 108.458,1.885 	"/>
	<polygon fill="#992716" points="121.001,48.222 51.108,91.628 122.027,49.919 	"/>
</g>
</svg>
