<?xml version="1.0" encoding="utf-8"?>
<!-- Generator: Adobe Illustrator 17.0.0, SVG Export Plug-In . SVG Version: 6.00 Build 0)  -->
<!DOCTYPE svg PUBLIC "-//W3C//DTD SVG 1.1//EN" "http://www.w3.org/Graphics/SVG/1.1/DTD/svg11.dtd">
<svg version="1.1" id="Calque_1" xmlns="http://www.w3.org/2000/svg" xmlns:xlink="http://www.w3.org/1999/xlink" x="0px" y="0px"
	 width="292px" height="293px" viewBox="61.717 68.151 292 293" enable-background="new 61.717 68.151 292 293"
	 xml:space="preserve">
<g id="EmissionCulturelle">
	<path id="BlocCulturelle" fill="#88C8CB" stroke="#88C8CB" stroke-width="3" stroke-miterlimit="10" d="M347.365,344.178
		c0,6.525-5.373,11.792-12,11.792h-256c-6.627,0-12-5.267-12-11.792V86.22c0-6.525,5.373-12.25,12-12.25h256
		c6.627,0,12,5.725,12,12.25V344.178z"/>
	<g>
		<g>
			<circle fill="#FFFFFF" stroke="#88C8CB" stroke-width="2.7706" stroke-miterlimit="10" cx="207.384" cy="274.396" r="56.017"/>
			<g>
				<g>
					<g>
						<defs>
							<path id="SVGID_2_" d="M258.418,274.17c0.127,28.533-22.9,51.764-51.431,51.889s-51.761-22.903-51.886-51.434
								c-0.126-28.529,22.902-51.76,51.433-51.886C235.064,222.614,258.294,245.642,258.418,274.17z"/>
						</defs>
						<clipPath id="SVGID_4_">
							<use xlink:href="#SVGID_2_"  overflow="visible"/>
						</clipPath>
						<g clip-path="url(#SVGID_4_)">
							
								<rect x="152.003" y="202.854" transform="matrix(-0.0044 -1 1 -0.0044 -66.457 482.483)" fill="#88C8CB" width="109.901" height="142.94"/>
							<polygon fill="#FFFFFF" points="135.43,256.336 165.62,256.204 135.328,233.072 135.271,219.715 152.544,219.64 
								194.915,251.782 194.773,219.453 218.557,219.349 218.696,251.68 260.787,219.164 278.205,219.087 278.264,232.444 
								248.028,255.841 278.367,255.709 278.528,292.358 248.189,292.492 278.63,315.625 278.688,328.984 261.268,329.061 
								218.896,296.912 219.036,329.248 195.257,329.352 195.111,297.018 153.026,329.536 135.751,329.613 135.693,316.253 
								165.781,292.855 135.589,292.987 							"/>
							<path fill="#E54F7F" d="M135.464,263.939l64.57-0.283l-0.193-44.223l13.972-0.063l0.194,44.226l64.389-0.284l0.097,21.462
								l-64.392,0.285l0.193,44.21l-13.969,0.061l-0.196-44.21l-64.571,0.282L135.464,263.939L135.464,263.939z M266.97,219.138
								l-47.548,36.855l11.42-0.05l47.361-36.854L266.97,219.138L266.97,219.138z M278.685,328.984l-0.039-8.731l-36.219-27.735
								l-11.475,0.049L278.685,328.984L278.685,328.984z M183.23,256.152l-47.959-36.436l0.037,8.751l36.404,27.737L183.23,256.152
								L183.23,256.152z M183.295,292.775l-47.544,36.839l11.416-0.051l47.548-36.836L183.295,292.775z"/>
						</g>
					</g>
				</g>
			</g>
		</g>
	</g>
	<rect x="193.608" y="126.734" fill="none" width="144.025" height="52.64"/>
	<text transform="matrix(1 0 0 1 227.1492 138.2855)" fill="#323B49" font-family="'BloggerSans-Bold'" font-size="16">émission</text>
	<text transform="matrix(1 0 0 1 215.0522 160.2855)" fill="#323B49" font-family="'BloggerSans-Bold'" font-size="16">CULTURElle</text>
	<rect x="177.628" y="176.628" fill="none" width="177.949" height="17.493"/>
	<text transform="matrix(1 0 0 1 221.2719 186.1178)" fill="#323B49" font-family="'MetaPro-Normal'" font-size="13">1h / semaine</text>
	<g>
		<g opacity="0.2" enable-background="new    ">
			<g>
				<path id="SVGID_3_" opacity="0.2" fill="#323B49" enable-background="new    " d="M164.431,152.143
					c0-15.667-12.7-28.367-28.367-28.367s-28.367,12.7-28.367,28.367c0,10.074,5.256,18.915,13.17,23.948
					c1.29,3.821,4.532,12.641,7.55,14.55c3.659,2.313,13.925,2.692,17.315,0c2.865-2.276,5.66-11.963,6.534-15.219
					C159.617,170.296,164.431,161.784,164.431,152.143z"/>
			</g>
			<g>
				<g>
					<defs>
						<path id="SVGID_5_" d="M164.431,152.143c0-15.667-12.7-28.367-28.367-28.367s-28.367,12.7-28.367,28.367
							c0,10.074,5.256,18.915,13.17,23.948c1.29,3.821,4.532,12.641,7.55,14.55c3.659,2.313,13.925,2.692,17.315,0
							c2.865-2.276,5.66-11.963,6.534-15.219C159.617,170.296,164.431,161.784,164.431,152.143z"/>
					</defs>
					<clipPath id="SVGID_6_">
						<use xlink:href="#SVGID_5_"  overflow="visible"/>
					</clipPath>
					<g clip-path="url(#SVGID_6_)">
						<g opacity="0.2">
							<line fill="none" x1="137.865" y1="194.47" x2="137.865" y2="142.47"/>
							<g>
								<path fill="#323B49" d="M139.013,194.451c0-17.402,0-34.804,0-52.206c0-1.129-1.751-1.129-1.751,0
									c0,17.402,0,34.804,0,52.206C137.262,195.58,139.013,195.58,139.013,194.451L139.013,194.451z"/>
							</g>
						</g>
						<g opacity="0.2">
							<line fill="none" x1="142.865" y1="194.47" x2="142.865" y2="142.47"/>
							<g>
								<path fill="#323B49" d="M143.486,194.155c0-17.204,0-34.409,0-51.613c0-1.129-1.751-1.129-1.751,0
									c0,17.204,0,34.409,0,51.613C141.735,195.284,143.486,195.284,143.486,194.155L143.486,194.155z"/>
							</g>
						</g>
						<g opacity="0.2">
							<line fill="none" x1="133.865" y1="194.47" x2="133.865" y2="142.47"/>
							<g>
								<path fill="#323B49" d="M134.876,194.748c0-17.303,0-34.607,0-51.91c0-1.129-1.751-1.129-1.751,0c0,17.303,0,34.606,0,51.91
									C133.126,195.877,134.876,195.877,134.876,194.748L134.876,194.748z"/>
							</g>
						</g>
					</g>
				</g>
			</g>
			<g>
				<g>
					<defs>
						<path id="SVGID_7_" d="M164.431,152.143c0-15.667-12.7-28.367-28.367-28.367s-28.367,12.7-28.367,28.367
							c0,10.074,5.256,18.915,13.17,23.948c1.29,3.821,4.532,12.641,7.55,14.55c3.659,2.313,13.925,2.692,17.315,0
							c2.865-2.276,5.66-11.963,6.534-15.219C159.617,170.296,164.431,161.784,164.431,152.143z"/>
					</defs>
					<clipPath id="SVGID_8_">
						<use xlink:href="#SVGID_7_"  overflow="visible"/>
					</clipPath>
					<g clip-path="url(#SVGID_8_)">
						<line fill="none" x1="136.865" y1="194.47" x2="136.865" y2="142.47"/>
						<g>
							<path fill="#323B49" d="M138.013,194.451c0-17.402,0-34.804,0-52.206c0-1.129-1.751-1.129-1.751,0
								c0,17.402,0,34.804,0,52.206C136.262,195.58,138.013,195.58,138.013,194.451L138.013,194.451z"/>
						</g>
					</g>
				</g>
			</g>
			<g>
				<g>
					<defs>
						<path id="SVGID_9_" d="M164.431,152.143c0-15.667-12.7-28.367-28.367-28.367s-28.367,12.7-28.367,28.367
							c0,10.074,5.256,18.915,13.17,23.948c1.29,3.821,4.532,12.641,7.55,14.55c3.659,2.313,13.925,2.692,17.315,0
							c2.865-2.276,5.66-11.963,6.534-15.219C159.617,170.296,164.431,161.784,164.431,152.143z"/>
					</defs>
					<clipPath id="SVGID_10_">
						<use xlink:href="#SVGID_9_"  overflow="visible"/>
					</clipPath>
					<g clip-path="url(#SVGID_10_)">
						<line fill="none" x1="141.865" y1="194.47" x2="141.865" y2="142.47"/>
						<g>
							<path fill="#323B49" d="M142.486,194.155c0-17.204,0-34.409,0-51.613c0-1.129-1.751-1.129-1.751,0
								c0,17.204,0,34.409,0,51.613C140.735,195.284,142.486,195.284,142.486,194.155L142.486,194.155z"/>
						</g>
					</g>
				</g>
			</g>
			<g>
				<g>
					<defs>
						<path id="SVGID_11_" d="M164.431,152.143c0-15.667-12.7-28.367-28.367-28.367s-28.367,12.7-28.367,28.367
							c0,10.074,5.256,18.915,13.17,23.948c1.29,3.821,4.532,12.641,7.55,14.55c3.659,2.313,13.925,2.692,17.315,0
							c2.865-2.276,5.66-11.963,6.534-15.219C159.617,170.296,164.431,161.784,164.431,152.143z"/>
					</defs>
					<clipPath id="SVGID_12_">
						<use xlink:href="#SVGID_11_"  overflow="visible"/>
					</clipPath>
					<g clip-path="url(#SVGID_12_)">
						<line fill="none" x1="132.865" y1="194.47" x2="132.865" y2="142.47"/>
						<g>
							<path fill="#323B49" d="M133.876,194.748c0-17.303,0-34.607,0-51.91c0-1.129-1.751-1.129-1.751,0c0,17.303,0,34.606,0,51.91
								C132.126,195.877,133.876,195.877,133.876,194.748L133.876,194.748z"/>
						</g>
					</g>
				</g>
			</g>
			<g>
				<g>
					<defs>
						<path id="SVGID_13_" d="M164.431,152.143c0-15.667-12.7-28.367-28.367-28.367s-28.367,12.7-28.367,28.367
							c0,10.074,5.256,18.915,13.17,23.948c1.29,3.821,4.532,12.641,7.55,14.55c3.659,2.313,13.925,2.692,17.315,0
							c2.865-2.276,5.66-11.963,6.534-15.219C159.617,170.296,164.431,161.784,164.431,152.143z"/>
					</defs>
					<clipPath id="SVGID_14_">
						<use xlink:href="#SVGID_13_"  overflow="visible"/>
					</clipPath>
					<g clip-path="url(#SVGID_14_)">
						<line fill="none" x1="136.865" y1="194.47" x2="136.865" y2="142.47"/>
						<g>
							<path fill="#323B49" d="M138.013,194.451c0-17.402,0-34.804,0-52.206c0-1.129-1.751-1.129-1.751,0
								c0,17.402,0,34.804,0,52.206C136.262,195.58,138.013,195.58,138.013,194.451L138.013,194.451z"/>
						</g>
					</g>
				</g>
			</g>
			<g>
				<g>
					<defs>
						<path id="SVGID_15_" d="M164.431,152.143c0-15.667-12.7-28.367-28.367-28.367s-28.367,12.7-28.367,28.367
							c0,10.074,5.256,18.915,13.17,23.948c1.29,3.821,4.532,12.641,7.55,14.55c3.659,2.313,13.925,2.692,17.315,0
							c2.865-2.276,5.66-11.963,6.534-15.219C159.617,170.296,164.431,161.784,164.431,152.143z"/>
					</defs>
					<clipPath id="SVGID_16_">
						<use xlink:href="#SVGID_15_"  overflow="visible"/>
					</clipPath>
					<g clip-path="url(#SVGID_16_)">
						<line fill="none" x1="141.865" y1="194.47" x2="141.865" y2="142.47"/>
						<g>
							<path fill="#323B49" d="M142.486,194.155c0-17.204,0-34.409,0-51.613c0-1.129-1.751-1.129-1.751,0
								c0,17.204,0,34.409,0,51.613C140.735,195.284,142.486,195.284,142.486,194.155L142.486,194.155z"/>
						</g>
					</g>
				</g>
			</g>
			<g>
				<g>
					<defs>
						<path id="SVGID_17_" d="M164.431,152.143c0-15.667-12.7-28.367-28.367-28.367s-28.367,12.7-28.367,28.367
							c0,10.074,5.256,18.915,13.17,23.948c1.29,3.821,4.532,12.641,7.55,14.55c3.659,2.313,13.925,2.692,17.315,0
							c2.865-2.276,5.66-11.963,6.534-15.219C159.617,170.296,164.431,161.784,164.431,152.143z"/>
					</defs>
					<clipPath id="SVGID_18_">
						<use xlink:href="#SVGID_17_"  overflow="visible"/>
					</clipPath>
					<g clip-path="url(#SVGID_18_)">
						<line fill="none" x1="132.865" y1="194.47" x2="132.865" y2="142.47"/>
						<g>
							<path fill="#323B49" d="M133.876,194.748c0-17.303,0-34.607,0-51.91c0-1.129-1.751-1.129-1.751,0c0,17.303,0,34.606,0,51.91
								C132.126,195.877,133.876,195.877,133.876,194.748L133.876,194.748z"/>
						</g>
					</g>
				</g>
			</g>
			<g>
				<path id="SVGID_1_" opacity="0.2" fill="none" stroke="#323B49" stroke-miterlimit="10" enable-background="new    " d="
					M164.431,152.143c0-15.667-12.7-28.367-28.367-28.367s-28.367,12.7-28.367,28.367c0,10.074,5.256,18.915,13.17,23.948
					c1.29,3.821,4.532,12.641,7.55,14.55c3.659,2.313,13.925,2.692,17.315,0c2.865-2.276,5.66-11.963,6.534-15.219
					C159.617,170.296,164.431,161.784,164.431,152.143z"/>
			</g>
		</g>
		<path fill="#D6E39E" stroke="#D6E39E" stroke-width="3.1947" stroke-miterlimit="10" d="M162.431,150.143
			c0-15.667-12.7-28.367-28.367-28.367s-28.367,12.7-28.367,28.367c0,10.074,5.256,18.915,13.17,23.948
			c1.29,3.821,4.532,12.641,7.55,14.55c3.659,2.313,13.925,2.692,17.315,0c2.865-2.276,5.66-11.963,6.534-15.219
			C157.617,168.296,162.431,159.784,162.431,150.143z"/>
		<line fill="none" stroke="#323B49" stroke-width="2" stroke-miterlimit="10" x1="125.865" y1="194.47" x2="144.865" y2="194.47"/>
		<line fill="none" stroke="#323B49" stroke-width="2" stroke-miterlimit="10" x1="125.865" y1="197.47" x2="144.865" y2="197.47"/>
		<line fill="none" stroke="#323B49" stroke-width="2" stroke-miterlimit="10" x1="125.865" y1="200.47" x2="144.865" y2="200.47"/>
		<path fill="#323B49" stroke="#323B49" stroke-miterlimit="10" d="M129.057,203.97c0.492,1,3.218,3.002,6.537,3.002
			s6.045-2.002,6.536-3.002H129.057z"/>
		
			<line opacity="0.2" fill="none" stroke="#323B49" stroke-width="2" stroke-miterlimit="10" enable-background="new    " x1="126.865" y1="195.47" x2="145.865" y2="195.47"/>
		
			<line opacity="0.2" fill="none" stroke="#323B49" stroke-width="2" stroke-miterlimit="10" enable-background="new    " x1="126.865" y1="198.47" x2="145.865" y2="198.47"/>
		
			<line opacity="0.2" fill="none" stroke="#323B49" stroke-width="2" stroke-miterlimit="10" enable-background="new    " x1="126.865" y1="201.47" x2="145.865" y2="201.47"/>
		<path opacity="0.2" fill="#323B49" stroke="#323B49" stroke-miterlimit="10" enable-background="new    " d="M130.057,204.97
			c0.492,1,3.218,3.002,6.537,3.002s6.045-2.002,6.536-3.002H130.057z"/>
		<g>
			<g>
				<g>
					<g>
						<defs>
							<circle id="SVGID_19_" cx="206.328" cy="182.688" r="5.569"/>
						</defs>
						<clipPath id="SVGID_20_">
							<use xlink:href="#SVGID_19_"  overflow="visible"/>
						</clipPath>
						<polygon clip-path="url(#SVGID_20_)" fill="#323B49" points="206.392,176.191 206.392,182.688 211.898,184.46 
							211.265,192.013 201.603,190.958 196.962,185.178 197.215,179.144 201.603,176.655 						"/>
					</g>
				</g>
			</g>
			
				<ellipse fill="none" stroke="#323B49" stroke-width="1.9439" stroke-miterlimit="10" cx="206.244" cy="182.815" rx="7.637" ry="7.51"/>
			<path fill="#323B49" d="M208.417,173.153c0,0.373-0.302,0.675-0.675,0.675h-2.7c-0.373,0-0.675-0.302-0.675-0.675v-0.548
				c0-0.373,0.302-0.675,0.675-0.675h2.7c0.373,0,0.675,0.302,0.675,0.675V173.153z"/>
			<rect x="205.527" y="173.28" fill="#323B49" width="1.73" height="1.434"/>
		</g>
		<g>
			<g>
				<g>
					<defs>
						<path id="SVGID_21_" d="M162.431,150.143c0-15.667-12.7-28.367-28.367-28.367s-28.367,12.7-28.367,28.367
							c0,10.074,5.256,18.915,13.17,23.948c1.29,3.821,4.532,12.641,7.55,14.55c3.659,2.313,13.925,2.692,17.315,0
							c2.865-2.276,5.66-11.963,6.534-15.219C157.617,168.296,162.431,159.784,162.431,150.143z"/>
					</defs>
					<clipPath id="SVGID_22_">
						<use xlink:href="#SVGID_21_"  overflow="visible"/>
					</clipPath>
					<g clip-path="url(#SVGID_22_)">
						<g opacity="0.2">
							<g>
								<path fill="#323B49" d="M137.013,192.451c0-17.402,0-34.804,0-52.206c0-1.129-1.751-1.129-1.751,0
									c0,17.402,0,34.804,0,52.206C135.262,193.58,137.013,193.58,137.013,192.451L137.013,192.451z"/>
							</g>
						</g>
						<g opacity="0.2">
							<g>
								<path fill="#323B49" d="M141.486,192.155c0-17.204,0-34.409,0-51.613c0-1.129-1.751-1.129-1.751,0
									c0,17.204,0,34.409,0,51.613C139.735,193.284,141.486,193.284,141.486,192.155L141.486,192.155z"/>
							</g>
						</g>
						<g opacity="0.2">
							<g>
								<path fill="#323B49" d="M132.876,192.748c0-17.303,0-34.607,0-51.91c0-1.129-1.751-1.129-1.751,0c0,17.303,0,34.606,0,51.91
									C131.126,193.877,132.876,193.877,132.876,192.748L132.876,192.748z"/>
							</g>
						</g>
					</g>
				</g>
			</g>
			<g>
				<g>
					<defs>
						<path id="SVGID_23_" d="M162.431,150.143c0-15.667-12.7-28.367-28.367-28.367s-28.367,12.7-28.367,28.367
							c0,10.074,5.256,18.915,13.17,23.948c1.29,3.821,4.532,12.641,7.55,14.55c3.659,2.313,13.925,2.692,17.315,0
							c2.865-2.276,5.66-11.963,6.534-15.219C157.617,168.296,162.431,159.784,162.431,150.143z"/>
					</defs>
					<clipPath id="SVGID_24_">
						<use xlink:href="#SVGID_23_"  overflow="visible"/>
					</clipPath>
					<g clip-path="url(#SVGID_24_)">
						<g>
							<path fill="#F2B694" d="M136.013,192.451c0-17.402,0-34.804,0-52.206c0-1.129-1.751-1.129-1.751,0
								c0,17.402,0,34.804,0,52.206C134.262,193.58,136.013,193.58,136.013,192.451L136.013,192.451z"/>
						</g>
					</g>
				</g>
			</g>
			<g>
				<g>
					<defs>
						<path id="SVGID_25_" d="M162.431,150.143c0-15.667-12.7-28.367-28.367-28.367s-28.367,12.7-28.367,28.367
							c0,10.074,5.256,18.915,13.17,23.948c1.29,3.821,4.532,12.641,7.55,14.55c3.659,2.313,13.925,2.692,17.315,0
							c2.865-2.276,5.66-11.963,6.534-15.219C157.617,168.296,162.431,159.784,162.431,150.143z"/>
					</defs>
					<clipPath id="SVGID_26_">
						<use xlink:href="#SVGID_25_"  overflow="visible"/>
					</clipPath>
					<g clip-path="url(#SVGID_26_)">
						<g>
							<path fill="#F2B694" d="M140.486,192.155c0-17.204,0-34.409,0-51.613c0-1.129-1.751-1.129-1.751,0
								c0,17.204,0,34.409,0,51.613C138.735,193.284,140.486,193.284,140.486,192.155L140.486,192.155z"/>
						</g>
					</g>
				</g>
			</g>
			<g>
				<g>
					<defs>
						<path id="SVGID_27_" d="M162.431,150.143c0-15.667-12.7-28.367-28.367-28.367s-28.367,12.7-28.367,28.367
							c0,10.074,5.256,18.915,13.17,23.948c1.29,3.821,4.532,12.641,7.55,14.55c3.659,2.313,13.925,2.692,17.315,0
							c2.865-2.276,5.66-11.963,6.534-15.219C157.617,168.296,162.431,159.784,162.431,150.143z"/>
					</defs>
					<clipPath id="SVGID_28_">
						<use xlink:href="#SVGID_27_"  overflow="visible"/>
					</clipPath>
					<g clip-path="url(#SVGID_28_)">
						<g>
							<path fill="#F2B694" d="M131.876,192.748c0-17.303,0-34.607,0-51.91c0-1.129-1.751-1.129-1.751,0c0,17.303,0,34.606,0,51.91
								C130.126,193.877,131.876,193.877,131.876,192.748L131.876,192.748z"/>
						</g>
					</g>
				</g>
			</g>
			<g>
				<g>
					<defs>
						<path id="SVGID_29_" d="M162.431,150.143c0-15.667-12.7-28.367-28.367-28.367s-28.367,12.7-28.367,28.367
							c0,10.074,5.256,18.915,13.17,23.948c1.29,3.821,4.532,12.641,7.55,14.55c3.659,2.313,13.925,2.692,17.315,0
							c2.865-2.276,5.66-11.963,6.534-15.219C157.617,168.296,162.431,159.784,162.431,150.143z"/>
					</defs>
					<clipPath id="SVGID_30_">
						<use xlink:href="#SVGID_29_"  overflow="visible"/>
					</clipPath>
					<g clip-path="url(#SVGID_30_)">
						<g>
							<path fill="#F2B694" d="M136.013,192.451c0-17.402,0-34.804,0-52.206c0-1.129-1.751-1.129-1.751,0
								c0,17.402,0,34.804,0,52.206C134.262,193.58,136.013,193.58,136.013,192.451L136.013,192.451z"/>
						</g>
					</g>
				</g>
			</g>
			<g>
				<g>
					<defs>
						<path id="SVGID_31_" d="M162.431,150.143c0-15.667-12.7-28.367-28.367-28.367s-28.367,12.7-28.367,28.367
							c0,10.074,5.256,18.915,13.17,23.948c1.29,3.821,4.532,12.641,7.55,14.55c3.659,2.313,13.925,2.692,17.315,0
							c2.865-2.276,5.66-11.963,6.534-15.219C157.617,168.296,162.431,159.784,162.431,150.143z"/>
					</defs>
					<clipPath id="SVGID_32_">
						<use xlink:href="#SVGID_31_"  overflow="visible"/>
					</clipPath>
					<g clip-path="url(#SVGID_32_)">
						<g>
							<path fill="#F2B694" d="M140.486,192.155c0-17.204,0-34.409,0-51.613c0-1.129-1.751-1.129-1.751,0
								c0,17.204,0,34.409,0,51.613C138.735,193.284,140.486,193.284,140.486,192.155L140.486,192.155z"/>
						</g>
					</g>
				</g>
			</g>
			<g>
				<g>
					<defs>
						<path id="SVGID_33_" d="M162.431,150.143c0-15.667-12.7-28.367-28.367-28.367s-28.367,12.7-28.367,28.367
							c0,10.074,5.256,18.915,13.17,23.948c1.29,3.821,4.532,12.641,7.55,14.55c3.659,2.313,13.925,2.692,17.315,0
							c2.865-2.276,5.66-11.963,6.534-15.219C157.617,168.296,162.431,159.784,162.431,150.143z"/>
					</defs>
					<clipPath id="SVGID_34_">
						<use xlink:href="#SVGID_33_"  overflow="visible"/>
					</clipPath>
					<g clip-path="url(#SVGID_34_)">
						<g>
							<path fill="#F2B694" d="M131.876,192.748c0-17.303,0-34.607,0-51.91c0-1.129-1.751-1.129-1.751,0c0,17.303,0,34.606,0,51.91
								C130.126,193.877,131.876,193.877,131.876,192.748L131.876,192.748z"/>
						</g>
					</g>
				</g>
			</g>
		</g>
		<path fill="none" stroke="#FFFFFF" stroke-width="4" stroke-linecap="round" stroke-linejoin="round" stroke-miterlimit="10" d="
			M110.865,151.22c0,0,0.75-18.25,15-22"/>
		
			<line fill="none" stroke="#FFFFFF" stroke-width="5" stroke-linecap="round" stroke-linejoin="round" stroke-miterlimit="10" x1="81.365" y1="103.97" x2="94.615" y2="118.22"/>
		
			<line fill="none" stroke="#FFFFFF" stroke-width="5" stroke-linecap="round" stroke-linejoin="round" stroke-miterlimit="10" x1="126.865" y1="107.72" x2="123.615" y2="94.97"/>
		
			<line fill="none" stroke="#FFFFFF" stroke-width="5" stroke-linecap="round" stroke-linejoin="round" stroke-miterlimit="10" x1="159.615" y1="114.22" x2="169.115" y2="94.97"/>
		
			<line fill="none" stroke="#FFFFFF" stroke-width="5" stroke-linecap="round" stroke-linejoin="round" stroke-miterlimit="10" x1="174.865" y1="140.22" x2="183.365" y2="135.734"/>
	</g>
</g>
</svg>
