<?xml version="1.0" encoding="utf-8"?>
<!-- Generator: Adobe Illustrator 17.0.0, SVG Export Plug-In . SVG Version: 6.00 Build 0)  -->
<!DOCTYPE svg PUBLIC "-//W3C//DTD SVG 1.1//EN" "http://www.w3.org/Graphics/SVG/1.1/DTD/svg11.dtd">
<svg version="1.1" id="Calque_1" xmlns="http://www.w3.org/2000/svg" xmlns:xlink="http://www.w3.org/1999/xlink" x="0px" y="0px"
	 width="289px" height="265px" viewBox="85.789 79.753 289 265" enable-background="new 85.789 79.753 289 265"
	 xml:space="preserve">
<g id="EmissionDebat">
	<g id="BlocDebat">
		<path fill="#323B49" stroke="#323B49" stroke-width="2.871" stroke-miterlimit="10" d="M370.023,332.473
			c-0.023,5.976-5.415,10.779-12.042,10.753l-255.998-0.997c-6.627-0.026-11.981-4.87-11.958-10.846l0.921-236.25
			c0.023-5.976,5.416-11.198,12.044-11.172l255.998,0.997c6.627,0.026,11.979,5.29,11.956,11.266L370.023,332.473z"/>
	</g>
	<rect x="221.338" y="136.138" fill="none" width="144.025" height="41.734"/>
	<text transform="matrix(1 0 0 1 254.8787 147.6904)" fill="#FFFFFF" font-family="'BloggerSans-Bold'" font-size="16">Emissions</text>
	<text transform="matrix(1 0 0 1 267.7337 169.6904)" fill="#FFFFFF" font-family="'BloggerSans-Bold'" font-size="16">débats</text>
	<rect x="225.395" y="185.031" fill="none" width="132.91" height="17.493"/>
	<text transform="matrix(1 0 0 1 242.704 194.5217)" fill="#FFFFFF" font-family="'MetaPro-Normal'" font-size="13">15h / semaine</text>
	<g id="DrapeauDebat">
		<g>
			<circle fill="#FFFFFF" stroke="#88C8CB" stroke-width="1.7224" stroke-miterlimit="10" cx="142.238" cy="276.792" r="34.823"/>
			<g>
				<g>
					<g>
						<defs>
							<circle id="SVGID_1_" cx="142.578" cy="277.091" r="31.794"/>
						</defs>
						<clipPath id="SVGID_2_">
							<use xlink:href="#SVGID_1_"  overflow="visible"/>
						</clipPath>
						
							<circle clip-path="url(#SVGID_2_)" fill="#FFFFFF" stroke="#88C8CB" stroke-width="1.5725" stroke-miterlimit="10" cx="142.578" cy="277.091" r="31.794"/>
					</g>
				</g>
				<g>
					<g>
						<defs>
							<circle id="SVGID_3_" cx="142.578" cy="277.091" r="31.794"/>
						</defs>
						<clipPath id="SVGID_4_">
							<use xlink:href="#SVGID_3_"  overflow="visible"/>
						</clipPath>
						<rect x="101.938" y="237.084" clip-path="url(#SVGID_4_)" fill="#88C8CB" width="28" height="76"/>
					</g>
				</g>
				<g>
					<g>
						<defs>
							<circle id="SVGID_5_" cx="142.578" cy="277.091" r="31.794"/>
						</defs>
						<clipPath id="SVGID_6_">
							<use xlink:href="#SVGID_5_"  overflow="visible"/>
						</clipPath>
						<rect x="129.938" y="237.084" clip-path="url(#SVGID_6_)" fill="#FFFFFF" width="28" height="76"/>
					</g>
				</g>
				<g>
					<g>
						<defs>
							<circle id="SVGID_7_" cx="142.578" cy="277.091" r="31.794"/>
						</defs>
						<clipPath id="SVGID_8_">
							<use xlink:href="#SVGID_7_"  overflow="visible"/>
						</clipPath>
						<rect x="157.938" y="237.084" clip-path="url(#SVGID_8_)" fill="#E54F7F" width="26" height="76"/>
					</g>
				</g>
			</g>
		</g>
		<g>
			<circle fill="#FFFFFF" stroke="#88C8CB" stroke-width="1.7224" stroke-miterlimit="10" cx="312.238" cy="276.792" r="34.823"/>
			<g>
				<g>
					<g>
						<defs>
							<circle id="SVGID_9_" cx="312.578" cy="277.091" r="31.794"/>
						</defs>
						<clipPath id="SVGID_10_">
							<use xlink:href="#SVGID_9_"  overflow="visible"/>
						</clipPath>
						
							<circle clip-path="url(#SVGID_10_)" fill="#FFFFFF" stroke="#88C8CB" stroke-width="1.5725" stroke-miterlimit="10" cx="312.578" cy="277.091" r="31.794"/>
					</g>
				</g>
				<g>
					<g>
						<defs>
							<circle id="SVGID_11_" cx="312.578" cy="277.091" r="31.794"/>
						</defs>
						<clipPath id="SVGID_12_">
							<use xlink:href="#SVGID_11_"  overflow="visible"/>
						</clipPath>
						<rect x="270.938" y="234.084" clip-path="url(#SVGID_12_)" fill="#323B49" width="85" height="30"/>
					</g>
				</g>
				<g>
					<g>
						<defs>
							<circle id="SVGID_13_" cx="312.578" cy="277.091" r="31.794"/>
						</defs>
						<clipPath id="SVGID_14_">
							<use xlink:href="#SVGID_13_"  overflow="visible"/>
						</clipPath>
						<rect x="270.938" y="263.084" clip-path="url(#SVGID_14_)" fill="#EFCE96" width="85" height="30"/>
					</g>
				</g>
				<g>
					<g>
						<defs>
							<circle id="SVGID_15_" cx="312.578" cy="277.091" r="31.794"/>
						</defs>
						<clipPath id="SVGID_16_">
							<use xlink:href="#SVGID_15_"  overflow="visible"/>
						</clipPath>
						<rect x="270.938" y="291.084" clip-path="url(#SVGID_16_)" fill="#E54F7F" width="85" height="30"/>
					</g>
				</g>
			</g>
		</g>
		<g>
			<circle fill="#FFFFFF" stroke="#88C8CB" stroke-width="1.7224" stroke-miterlimit="10" cx="226.762" cy="276.792" r="34.823"/>
			<g>
				<g>
					<g>
						<defs>
							<circle id="SVGID_17_" cx="227.269" cy="276.794" r="32.114"/>
						</defs>
						<clipPath id="SVGID_18_">
							<use xlink:href="#SVGID_17_"  overflow="visible"/>
						</clipPath>
						<g clip-path="url(#SVGID_18_)">
							
								<rect x="193.237" y="232.316" transform="matrix(-0.0044 -1 1 -0.0044 -48.3452 505.3598)" fill="#88C8CB" width="68.322" height="88.861"/>
							<polygon fill="#FFFFFF" points="182.926,265.565 201.694,265.483 182.862,251.103 182.827,242.8 193.565,242.753 
								219.905,262.735 219.817,242.637 234.602,242.572 234.689,262.671 260.855,242.457 271.683,242.409 271.72,250.713 
								252.924,265.257 271.784,265.176 271.884,287.959 253.024,288.042 271.948,302.423 271.983,310.728 261.154,310.776 
								234.813,290.79 234.9,310.891 220.118,310.956 220.027,290.856 193.865,311.071 183.126,311.119 183.09,302.813 
								201.794,288.267 183.025,288.35 							"/>
							<path fill="#E54F7F" d="M182.947,270.292l40.141-0.176l-0.12-27.492l8.686-0.039l0.121,27.493l40.028-0.176l0.06,13.342
								l-40.03,0.177l0.12,27.484l-8.684,0.038l-0.122-27.484l-40.141,0.176L182.947,270.292L182.947,270.292z M264.699,242.441
								l-29.559,22.911l7.1-0.031l29.442-22.911L264.699,242.441L264.699,242.441z M271.982,310.728l-0.024-5.428l-22.516-17.241
								l-7.134,0.031L271.982,310.728L271.982,310.728z M212.641,265.451L182.827,242.8l0.023,5.44l22.631,17.243L212.641,265.451
								L212.641,265.451z M212.682,288.218l-29.556,22.901l7.097-0.032l29.559-22.899L212.682,288.218z"/>
						</g>
					</g>
				</g>
			</g>
		</g>
	</g>
	<g id="VisuelDebat1">
		<g>
			
				<ellipse fill="#D3D3D3" stroke="#D3D3D3" stroke-width="0.8556" stroke-miterlimit="10" cx="152.762" cy="163.881" rx="41.507" ry="29.821"/>
			<path fill="#D3D3D3" stroke="#D3D3D3" stroke-width="0.8556" stroke-miterlimit="10" d="M122.062,177.753
				c2.654,7.431-4.969,16.363-8.684,22.202c7.431-1.592,18.768-6.433,21.422-13.864"/>
		</g>
		<g>
			
				<ellipse fill="#FFFFFF" stroke="#FFFFFF" stroke-width="1.0811" stroke-miterlimit="10" cx="152.762" cy="160.881" rx="41.507" ry="29.821"/>
			<path fill="#FFFFFF" stroke="#FFFFFF" stroke-width="1.0811" stroke-miterlimit="10" d="M122.062,174.753
				c2.654,7.431-4.969,16.363-8.684,22.202c7.431-1.592,18.768-6.433,21.422-13.864"/>
		</g>
		<g>
			<g>
				<g>
					<path fill="#323B49" d="M138.666,166.913c5.804,0,5.804-9,0-9S132.862,166.913,138.666,166.913L138.666,166.913z"/>
				</g>
			</g>
			<g>
				<g>
					<path fill="#323B49" d="M152.294,166.913c5.804,0,5.804-9,0-9C146.491,157.913,146.491,166.913,152.294,166.913
						L152.294,166.913z"/>
				</g>
			</g>
			<g>
				<g>
					<path fill="#323B49" d="M166.076,166.913c5.804,0,5.804-9,0-9S160.272,166.913,166.076,166.913L166.076,166.913z"/>
				</g>
			</g>
		</g>
		<g>
			
				<ellipse fill="#D3D3D3" stroke="#D3D3D3" stroke-width="0.8556" stroke-miterlimit="10" cx="182.074" cy="150.195" rx="32.848" ry="23.6"/>
			<path fill="#D3D3D3" stroke="#D3D3D3" stroke-width="0.8556" stroke-miterlimit="10" d="M206.369,161.173
				c-2.1,5.881,3.932,12.95,6.873,17.57c-5.881-1.26-14.853-5.091-16.953-10.972"/>
		</g>
		<g>
			
				<ellipse fill="#88C8CB" stroke="#88C8CB" stroke-width="0.8556" stroke-miterlimit="10" cx="183.155" cy="148.033" rx="32.848" ry="23.6"/>
			<path fill="#88C8CB" stroke="#88C8CB" stroke-width="0.8556" stroke-miterlimit="10" d="M207.451,159.011
				c-2.1,5.881,3.932,12.95,6.873,17.57c-5.881-1.26-14.853-5.091-16.953-10.972"/>
		</g>
		<g>
			<g>
				<g>
					<path fill="#FFFFFF" d="M177.061,150.603c2.091,0,2.091-3.243,0-3.243S174.97,150.603,177.061,150.603L177.061,150.603z"/>
				</g>
			</g>
			<g>
				<g>
					<path fill="#FFFFFF" d="M183.707,150.603c2.091,0,2.091-3.243,0-3.243S181.615,150.603,183.707,150.603L183.707,150.603z"/>
				</g>
			</g>
			<g>
				<g>
					<path fill="#FFFFFF" d="M190.427,150.603c2.091,0,2.091-3.243,0-3.243S188.335,150.603,190.427,150.603L190.427,150.603z"/>
				</g>
			</g>
		</g>
		
			<path opacity="0.2" fill="none" stroke="#323B49" stroke-width="4" stroke-linecap="round" stroke-linejoin="round" stroke-miterlimit="10" enable-background="new    " d="
			M192.938,131.061c0,0,12,1.023,18.667,14.69"/>
	</g>
	<g id="VisuelDebat2">
		<g>
			<g>
				<g>
					<defs>
						<circle id="SVGID_19_" cx="228.724" cy="190.415" r="5.569"/>
					</defs>
					<clipPath id="SVGID_20_">
						<use xlink:href="#SVGID_19_"  overflow="visible"/>
					</clipPath>
					<polygon clip-path="url(#SVGID_20_)" fill="#FFFFFF" points="228.787,183.918 228.787,190.415 234.293,192.187 
						233.661,199.739 223.999,198.684 219.358,192.904 219.611,186.871 223.999,184.382 					"/>
				</g>
			</g>
		</g>
		
			<ellipse fill="none" stroke="#FFFFFF" stroke-width="1.9439" stroke-miterlimit="10" cx="228.64" cy="190.542" rx="7.637" ry="7.51"/>
		<path fill="#FFFFFF" d="M230.813,180.88c0,0.373-0.302,0.675-0.675,0.675h-2.7c-0.373,0-0.675-0.302-0.675-0.675v-0.548
			c0-0.373,0.302-0.675,0.675-0.675h2.7c0.373,0,0.675,0.302,0.675,0.675V180.88z"/>
		<rect x="227.923" y="181.006" fill="#FFFFFF" width="1.73" height="1.434"/>
	</g>
</g>
</svg>
