<?xml version="1.0" encoding="utf-8"?>
<!-- Generator: Adobe Illustrator 17.0.0, SVG Export Plug-In . SVG Version: 6.00 Build 0)  -->
<!DOCTYPE svg PUBLIC "-//W3C//DTD SVG 1.1//EN" "http://www.w3.org/Graphics/SVG/1.1/DTD/svg11.dtd">
<svg version="1.1" id="Calque_1" xmlns="http://www.w3.org/2000/svg" xmlns:xlink="http://www.w3.org/1999/xlink" x="0px" y="0px"
	 width="1424.096px" height="242.988px" viewBox="0 0 1424.096 242.988" enable-background="new 0 0 1424.096 242.988"
	 xml:space="preserve">
<g id="Fleches">
	<path opacity="0.3" fill="#323B49" enable-background="new    " d="M114.605,118.382c2.015,1.97,2.173,4.712,0,7.12l-16.929,17.656
		l16.929,17.656c2.173,2.408,2.015,5.155,0,7.111c-2.01,1.97-5.408,1.843-7.296,0c-1.888-1.834-20.34-21.212-20.34-21.212
		c-1.008-0.98-1.514-2.268-1.514-3.556s0.506-2.575,1.514-3.565c0,0,18.451-19.368,20.34-21.212
		C109.197,116.534,112.595,116.412,114.605,118.382z"/>
	<path opacity="0.3" fill="#323B49" enable-background="new    " d="M1277.387,119.517c1.889,1.843,20.34,21.212,20.34,21.212
		c1.007,0.989,1.513,2.277,1.513,3.565s-0.506,2.575-1.513,3.556c0,0-18.451,19.377-20.34,21.212c-1.888,1.843-5.286,1.97-7.296,0
		c-2.015-1.956-2.173-4.703,0-7.111l16.929-17.656l-16.929-17.656c-2.173-2.408-2.015-5.15,0-7.12
		C1272.101,117.547,1275.499,117.669,1277.387,119.517z"/>
</g>
</svg>
