<?xml version="1.0" encoding="utf-8"?>
<!-- Generator: Adobe Illustrator 17.0.0, SVG Export Plug-In . SVG Version: 6.00 Build 0)  -->
<!DOCTYPE svg PUBLIC "-//W3C//DTD SVG 1.1//EN" "http://www.w3.org/Graphics/SVG/1.1/DTD/svg11.dtd">
<svg version="1.1" id="Calque_1" xmlns="http://www.w3.org/2000/svg" xmlns:xlink="http://www.w3.org/1999/xlink" x="0px" y="0px"
	 width="294.667px" height="296px" viewBox="0 0 294.667 296" enable-background="new 0 0 294.667 296" xml:space="preserve">
<path fill="#CCE0D9" stroke="#CCE0D9" stroke-width="3" stroke-miterlimit="10" d="M287.783,278.221
	c-0.024,6.525-5.416,11.772-12.043,11.748L19.741,289.03c-6.627-0.024-11.981-5.311-11.957-11.836L8.73,19.238
	c0.024-6.525,5.417-12.23,12.045-12.206L276.774,7.97c6.627,0.024,11.979,5.769,11.955,12.294L287.783,278.221z"/>
<rect x="133.738" y="59.349" fill="none" width="144.025" height="40.065"/>
<text transform="matrix(1 0 0 1 167.2789 70.9016)"><tspan x="0" y="0" fill="#333C4A" font-family="'BloggerSans-Bold'" font-size="16" letter-spacing="1">Emissions</tspan><tspan x="5.863" y="22" fill="#333C4A" font-family="'BloggerSans-Bold'" font-size="16" letter-spacing="1">société</tspan></text>
<rect x="131.758" y="109.243" fill="none" width="177.949" height="17.493"/>
<text transform="matrix(1 0 0 1 174.2904 118.7321)" fill="#333C4A" font-family="'MetaPro-Normal'" font-size="13" letter-spacing="1">4h / semaine</text>
<g>
	<g>
		<defs>
			<circle id="SVGID_1_" cx="157.677" cy="114.218" r="5.569"/>
		</defs>
		<clipPath id="SVGID_2_">
			<use xlink:href="#SVGID_1_"  overflow="visible"/>
		</clipPath>
		<polygon clip-path="url(#SVGID_2_)" fill="#333C4A" points="157.74,107.721 157.74,114.218 163.246,115.99 162.613,123.543 
			152.951,122.488 148.31,116.708 148.563,110.674 152.951,108.185 		"/>
	</g>
	
		<ellipse fill="none" stroke="#333C4A" stroke-width="1.9439" stroke-miterlimit="10" cx="157.592" cy="114.345" rx="7.637" ry="7.51"/>
	<path fill="#333C4A" d="M159.765,104.683c0,0.373-0.302,0.675-0.675,0.675h-2.7c-0.373,0-0.675-0.302-0.675-0.675v-0.548
		c0-0.373,0.302-0.675,0.675-0.675h2.7c0.373,0,0.675,0.302,0.675,0.675V104.683z"/>
	<rect x="156.875" y="104.81" fill="#333C4A" width="1.73" height="1.434"/>
</g>
<path fill="#333C4A" stroke="#333C4A" stroke-miterlimit="10" d="M85.283,79.738c0,2.549-2.066,4.762-4.615,4.762H44.902
	c-2.549,0-4.615-2.213-4.615-4.762c0,0-2.12-30.162,1.934-40.602c6.096-15.698,32.92-19.471,41.149-0.878
	C88.313,49.424,85.283,79.738,85.283,79.738z"/>
<path fill="#D6E39D" d="M63.105,75.793c-15.495,0-28.055,8.783-28.055,19.617h56.111C91.161,84.576,78.6,75.793,63.105,75.793z"/>
<path fill="#FCDCBA" stroke="#FCDCBA" stroke-width="0.3846" stroke-miterlimit="10" d="M68.702,78.397
	c-1.876,2.018-9.829,1.835-11.94,0c-1.627-1.414,0-8,0-8h11.94C68.702,70.396,70.149,76.841,68.702,78.397z"/>
<path opacity="0.2" fill="#333C4A" d="M55.83,71.987c0,0-0.192,1.17-0.233,1.555c-0.04,0.385,5.504,1.09,6.522-0.505
	s-2.724-1.707-2.724-1.707l-1.178-0.216L55.83,71.987z"/>
<circle fill="#FCDCBA" stroke="#FCDCBA" stroke-width="0.3846" stroke-miterlimit="10" cx="43.024" cy="51.351" r="5.096"/>
<circle fill="#FCDCBA" stroke="#FCDCBA" stroke-width="0.3846" stroke-miterlimit="10" cx="83.273" cy="51.455" r="5.096"/>
<path fill="#FCDCBA" d="M84.832,51.745c0,11.893-9.677,21.534-21.614,21.534s-21.614-9.641-21.614-21.534
	s9.875-23.793,21.812-23.793S84.832,39.852,84.832,51.745z"/>
<g>
	<g>
		<path fill="#333C4A" d="M85.582,50.399c0.562,0.034,0.965,1.109,0.545,1.507c-0.234,0.222,0.12,0.575,0.354,0.354
			c0.755-0.716,0.088-2.3-0.898-2.361C85.26,49.879,85.262,50.379,85.582,50.399L85.582,50.399z"/>
	</g>
</g>
<g>
	<g>
		<path fill="#333C4A" d="M57.948,45.901c-2.032-1.261-4.458-0.582-6.294,0.725c-0.26,0.185-0.011,0.619,0.252,0.432
			c1.687-1.201,3.9-1.897,5.789-0.725C57.971,46.504,58.221,46.071,57.948,45.901L57.948,45.901z"/>
	</g>
</g>
<g>
	<g>
		<path fill="#333C4A" d="M68.828,46.333c1.888-1.172,4.102-0.476,5.789,0.725c0.263,0.187,0.513-0.246,0.252-0.432
			c-1.836-1.307-4.262-1.986-6.294-0.725C68.303,46.071,68.554,46.504,68.828,46.333L68.828,46.333z"/>
	</g>
</g>
<g>
	<g>
		<path fill="#333C4A" d="M62.294,54.489c-0.582,0.505-0.772,1.586-0.093,2.097c0.638,0.48,1.483,0.191,2.091-0.198
			c0.271-0.173,0.02-0.606-0.252-0.432c-0.368,0.236-0.81,0.444-1.258,0.365c-0.75-0.131-0.554-1.115-0.134-1.479
			C62.891,54.631,62.536,54.279,62.294,54.489L62.294,54.489z"/>
	</g>
</g>
<g>
	<g>
		<path fill="#E44E7E" d="M66.779,62.212c-1.069-0.114-1.874-0.769-2.965-0.45c-0.915,0.268-0.354,0.647-1.233,0.162
			c-1.63-0.9-2.735,0.083-3.56,1.498c-0.074,0.127-0.013,0.342,0.149,0.367c1.845,0.289,3.489,0.983,5.368,0.538
			c1.526-0.361,2.673-1.706,3.649-2.83c-0.131-0.101-0.262-0.202-0.393-0.303c-0.812,1.219-1.213,3.207-2.407,4.109
			c-1.591,1.201-4.757,0.344-5.382-1.524c-0.102-0.304-0.585-0.174-0.482,0.133c0.655,1.955,2.869,2.551,4.741,2.314
			c2.426-0.307,2.812-3.053,3.962-4.78c0.157-0.236-0.206-0.517-0.393-0.303c-1.214,1.398-2.422,2.632-4.361,2.87
			c-1.011,0.124-2.074-0.259-3.039-0.518c-0.265-0.06-0.533-0.101-0.803-0.125c0.518-0.887,1.87-2.532,3.15-0.442
			c0.079,0.129,0.285,0.176,0.393,0.051c1.159-1.347,2.298-0.407,3.606-0.267C67.099,62.746,67.096,62.246,66.779,62.212
			L66.779,62.212z"/>
	</g>
</g>
<g>
	<g>
		<path fill="#333C4A" d="M55.541,52.478c2.48,0,2.48-3.846,0-3.846C53.061,48.632,53.061,52.478,55.541,52.478L55.541,52.478z"/>
	</g>
</g>
<g>
	<g>
		<path fill="#333C4A" d="M71.229,52.56c2.48,0,2.48-3.846,0-3.846S68.749,52.56,71.229,52.56L71.229,52.56z"/>
	</g>
</g>
<g>
	<g>
		<path fill="#86C7CA" d="M41.099,55.072c0.363,0.483,0.108,1.229-0.289,1.617c-0.241,0.236-0.682,0.316-0.984,0.177
			c-0.482-0.221-0.293-0.85-0.111-1.194c0.145-0.274-0.27-0.517-0.415-0.243c-0.254,0.48-0.368,1.002-0.091,1.496
			c0.259,0.462,0.818,0.541,1.286,0.445c1.004-0.205,1.646-1.706,1.019-2.541C41.33,54.584,40.913,54.824,41.099,55.072
			L41.099,55.072z"/>
	</g>
</g>
<g opacity="0.2">
	<path fill="#333C4A" d="M61.496,30.791c-1.981,1.829-6.72,3.78-8.853,5.304c-3.048,2.438-5.791,4.572-7.315,8.23
		c-0.762,1.676-1.981,3.353-2.438,5.029c-0.457,1.829-0.305,3.658-0.305,5.487c-1.219-3.048-1.224-4.898-1.072-8.099l1.37-6.313
		l6.975-9.487L57.314,28h10.47l5.627,2.941l4.308,4.489l4.102,8.139l0.541,3.499c-1.219-0.914-1.981-1.829-2.896-3.201
		c-0.61-1.067-1.24-2.052-1.676-3.201c-0.479-1.261-1.313-1.485-1.566-1.923c0.157,1.305,0.189,1.24,0.499,2.533
		c0.35,1.46,1.372,2.591,1.372,4.115c0,1.676-0.61,3.201-0.61,4.725c0,1.372,0.457,2.591,0.457,3.963
		c-0.457-0.61-0.914-1.067-1.372-1.829c-0.762-1.372-0.61-3.201-1.067-4.877c-0.762-3.201-2.134-4.877-5.029-6.553
		c-3.048-1.829-6.121-4.306-7.925-7.315c-0.832-1.388-0.243-0.283-0.906-2.566"/>
	<g>
		<path fill="#1A1944" d="M60.816,30.111c-4.643,3.72-9.881,5.413-13.988,9.966c-3.667,4.065-5.271,9.453-5.206,14.764
			c0.63-0.085,1.259-0.17,1.889-0.256c-1.585-4.433-0.953-8.135,0.003-12.537c0.548-2.524,2.757-4.615,4.265-6.667
			c0.89-1.211,1.78-2.421,2.67-3.632c-0.148,0.202,0.968-0.398,2.125-0.855c2.583-1.02,4.45-1.938,7.169-1.938
			c6.026,0,10.057-0.393,14.505,4.244c3.771,3.931,6.353,8.724,7.187,14.125c0.536-0.312,1.071-0.624,1.607-0.935
			c-2.796-2.391-3.637-5.816-6.138-8.324c-0.746-0.748-1.729,0.046-1.607,0.935c0.198,1.446,0.512,2.792,1.107,4.139
			c0.953,2.156,0.331,8.178,0.577,10.94c0.547-0.227,1.094-0.453,1.641-0.68c-2.897-3.621-1.841-8.385-5.338-11.787
			c-3.839-3.736-9.217-5.176-10.714-10.93c-0.312-1.199-2.167-0.69-1.854,0.511c0.964,3.707,3.546,6.532,6.684,8.732
			c3.21,2.251,6.002,3.595,7.176,7.703c0.815,2.854,0.812,4.789,2.686,7.13c0.514,0.643,1.713,0.122,1.641-0.68
			c-0.267-2.998-0.138-5.694,0.152-8.687c0.22-2.268-1.59-4.608-1.905-6.903c-0.536,0.312-1.071,0.624-1.607,0.935
			c2.496,2.503,3.358,5.948,6.138,8.324c0.768,0.657,1.754,0.018,1.607-0.935c-0.888-5.749-3.678-10.8-7.682-14.973
			c-4.928-5.136-10.01-4.807-16.657-4.807c-2.771,0-5.095,1.299-7.665,2.314c-2.64,1.043-3.449,2.727-5.167,5.064
			c-1.649,2.244-3.86,4.367-4.459,7.126c-1.033,4.761-1.705,8.797-0.003,13.56c0.353,0.987,1.903,0.879,1.889-0.256
			c-0.079-6.383,2.778-12.066,7.563-16.266c3.35-2.94,7.614-4.337,11.068-7.104C63.144,30.695,61.774,29.344,60.816,30.111
			L60.816,30.111z"/>
	</g>
</g>
<g>
	<g>
		<path fill="#333C4A" d="M73.544,44.744c-0.202,0.221-0.369,0.464-0.536,0.713c-0.173,0.258,0.244,0.499,0.415,0.243
			c0.143-0.214,0.286-0.425,0.461-0.616C74.093,44.856,73.754,44.515,73.544,44.744L73.544,44.744z"/>
	</g>
</g>
<g>
	<g>
		<path fill="#333C4A" d="M74.541,45.077c-0.3,0.302-0.534,0.601-0.643,1.02c-0.078,0.3,0.385,0.428,0.464,0.128
			c0.089-0.34,0.277-0.564,0.52-0.808C75.099,45.196,74.76,44.856,74.541,45.077L74.541,45.077z"/>
	</g>
</g>
<g>
	<g>
		<path fill="#333C4A" d="M75.586,45.786c-0.364,0.199-0.634,0.47-0.834,0.834c-0.149,0.272,0.266,0.514,0.415,0.243
			c0.164-0.3,0.362-0.497,0.661-0.661C76.101,46.053,75.858,45.637,75.586,45.786L75.586,45.786z"/>
	</g>
</g>
<g>
	<g>
		<path fill="#333C4A" d="M53.571,45.624c-0.135-0.28-0.252-0.566-0.415-0.831c-0.162-0.263-0.578-0.022-0.415,0.243
			c0.163,0.265,0.281,0.551,0.415,0.831C53.291,46.145,53.705,45.901,53.571,45.624L53.571,45.624z"/>
	</g>
</g>
<g>
	<g>
		<path fill="#333C4A" d="M52.657,46.122c-0.186-0.336-0.432-0.608-0.702-0.879c-0.219-0.22-0.559,0.12-0.34,0.34
			c0.24,0.242,0.461,0.482,0.627,0.782C52.392,46.636,52.807,46.393,52.657,46.122L52.657,46.122z"/>
	</g>
</g>
<g>
	<g>
		<path fill="#333C4A" d="M51.789,46.572c-0.323-0.275-0.697-0.377-1.103-0.477c-0.301-0.074-0.429,0.39-0.128,0.464
			c0.312,0.077,0.639,0.138,0.891,0.354C51.684,47.112,52.025,46.773,51.789,46.572L51.789,46.572z"/>
	</g>
</g>
<g>
	<path fill="#333C4A" d="M63.419,30.406c-1.981,1.829-6.72,3.78-8.853,5.304c-3.048,2.438-5.791,4.572-7.315,8.23
		c-0.762,1.676-1.981,3.353-2.438,5.029c-0.457,1.829-0.305,3.658-0.305,5.487c-1.219-3.048-2.331-5.269-2.179-8.469l-0.014-3.863
		l9.467-11.375L59.237,28h10.47l5.627,2.749l4.308,4.393l4.102,8.091l0.541,3.474c-1.219-0.914-1.981-1.841-2.896-3.213
		c-0.61-1.067-1.24-2.058-1.676-3.207c-0.479-1.261-1.313-1.488-1.566-1.926c0.157,1.305,0.189,1.239,0.499,2.531
		c0.35,1.46,1.372,2.59,1.372,4.114c0,1.676-0.61,3.2-0.61,4.724c0,1.372,0.457,2.591,0.457,3.962
		c-0.457-0.61-0.914-1.067-1.372-1.829c-0.762-1.372-0.61-3.201-1.067-4.877c-0.762-3.201-2.134-4.877-5.029-6.553
		c-3.048-1.829-6.121-4.306-7.925-7.315c-0.832-1.388-0.243-0.283-0.906-2.566"/>
	<g>
		<path fill="#333C4A" d="M62.739,29.726c-4.643,3.72-9.881,5.413-13.988,9.966c-3.667,4.065-5.271,9.453-5.206,14.764
			c0.63-0.085,1.259-0.17,1.889-0.256c-1.168-2.871-2.134-5.331-2.146-8.5c-0.004-1.053,0.058-3.328-0.092-3.144
			c2.017-2.465,4.033-4.93,6.05-7.395c2.992-3.657,6.223-6.591,11.627-6.591c6.309,0,10.663-0.587,15.297,4.244
			c3.771,3.931,6.353,8.724,7.187,14.125c0.536-0.312,1.071-0.624,1.607-0.935c-2.796-2.391-3.637-5.816-6.138-8.324
			c-0.746-0.748-1.729,0.046-1.607,0.935c0.198,1.446,0.512,2.792,1.107,4.139c0.953,2.156,0.331,8.178,0.577,10.94
			c0.547-0.227,1.094-0.453,1.641-0.68c-2.897-3.621-1.841-8.385-5.338-11.787c-3.839-3.736-9.217-5.176-10.714-10.93
			c-0.312-1.199-2.167-0.69-1.854,0.511c0.964,3.707,3.546,6.532,6.684,8.732c3.21,2.251,6.002,3.595,7.176,7.703
			c0.815,2.854,0.812,4.789,2.686,7.13c0.514,0.643,1.713,0.122,1.641-0.68c-0.267-2.998-0.138-5.694,0.152-8.687
			c0.22-2.268-1.59-4.608-1.905-6.903c-0.536,0.312-1.071,0.624-1.607,0.935c2.496,2.503,3.358,5.948,6.138,8.324
			c0.768,0.657,1.754,0.018,1.607-0.935c-0.947-6.131-4.028-11.165-8.268-15.584c-4.733-4.934-10.492-4.196-16.741-4.196
			c-5.797,0-9.596,3.829-12.915,7.886c-1.861,2.275-4.315,4.562-5.804,7.105c-0.572,0.977-0.122,2.984-0.118,4.062
			c0.012,3.274,0.989,5.998,2.214,9.011c0.386,0.948,1.903,0.908,1.889-0.256c-0.079-6.383,2.778-12.066,7.563-16.266
			c3.35-2.94,7.614-4.337,11.068-7.104C65.067,30.31,63.697,28.959,62.739,29.726L62.739,29.726z"/>
	</g>
</g>
<g>
	<defs>
		<path id="SVGID_3_" d="M63.105,75.793c-15.495,0-28.055,8.783-28.055,19.617h56.111C91.161,84.576,78.6,75.793,63.105,75.793z"/>
	</defs>
	<clipPath id="SVGID_4_">
		<use xlink:href="#SVGID_3_"  overflow="visible"/>
	</clipPath>
	<g clip-path="url(#SVGID_4_)">
		<g>
			<path fill="#86C7CA" d="M76.435,77.205c-1.893,1.455-2.838,3.095-5.226,4.092c-1.828,0.763-3.744,1.051-5.421,2.155
				c-1.214,0.799-2.123,2.145-0.782,3.183c0.615,0.476,2.028,0.502,2.71,0.369c2.642-0.515,4.764-0.07,7.308,0.177
				c2.316,0.225,4.084-0.353,6.255-1.124c1.869-0.663,3.385-0.684,4.777-2.184c0.421-0.454-0.257-1.135-0.68-0.68
				c-1.709,1.842-6.743,2.941-9.127,3.145c-0.142,0.012-2.608-0.811-3.549-1.072c-0.812-0.225-1.984,0.094-2.774,0.248
				c-1.565,0.305-5.997,0.31-2.966-1.685c1.541-1.014,3.905-1.356,5.631-2.076c1.858-0.776,2.781-2.528,4.329-3.719
				C77.404,77.663,76.927,76.827,76.435,77.205L76.435,77.205z"/>
		</g>
	</g>
	<g clip-path="url(#SVGID_4_)">
		<g>
			<path fill="#86C7CA" d="M37.51,87.023c3.28,2.717,7.772,0.995,11.634,1.349c1.19,0.109,2.412,0.33,3.477,0.893
				c2.008,1.062-3.913,2.605-4.261,2.702c-1.163,0.322-2,1.201-3.149,1.606c-0.942,0.332-1.338,0.558-1.785,1.446
				c-0.278,0.552,0.551,1.039,0.83,0.485c0.397-0.788,3.499-2.285,4.36-2.61c1.36-0.514,2.815-0.597,4.154-1.205
				c1.232-0.56,1.579-1.92,0.766-2.926c-1.07-1.324-3.882-1.328-5.415-1.435c-3.273-0.229-7.098,1.363-9.931-0.984
				C37.717,85.951,37.033,86.627,37.51,87.023L37.51,87.023z"/>
		</g>
	</g>
	<g clip-path="url(#SVGID_4_)">
		<g>
			<path fill="#8CBBD8" d="M91.161,91.284c-2.509,0.036-4.645,0.443-7.062,1.098c-1.618,0.438-3.328,1.607-3.434,3.406
				c-0.037,0.62,0.925,0.616,0.961,0c0.139-2.336,3.203-2.435,4.81-2.94c1.592-0.5,3.064-0.579,4.725-0.603
				C91.78,92.237,91.781,91.275,91.161,91.284L91.161,91.284z"/>
		</g>
	</g>
	<g clip-path="url(#SVGID_4_)">
		<g>
			<path fill="#86C7CA" d="M68.815,95.134c-0.489-2.19-1.366-4.56-4.072-3.423c-1.514,0.636-3.046,0.183-4.532,0.821
				c-1.08,0.464-1.633,1.94-1.855,2.988c-0.128,0.605,0.799,0.862,0.927,0.256c0.2-0.949,0.567-1.847,1.413-2.414
				c0.839-0.562,1.917-0.052,2.813-0.235c0.706-0.144,1.243-0.385,1.905-0.663c1.992-0.837,2.229,1.831,2.473,2.926
				C68.023,95.994,68.95,95.738,68.815,95.134L68.815,95.134z"/>
		</g>
	</g>
	<g clip-path="url(#SVGID_4_)">
		<g>
			<path fill="#86C7CA" d="M44.274,80.872c0.368,0.18,0.724,0.23,1.128,0.283c1.175,0.155,2.339,0.452,3.498,0.701
				c0.974,0.209,2.546,0.47,3.325-0.385c1.189-1.305,0.165-3.941-1.427-4.506c-0.586-0.208-0.836,0.721-0.256,0.927
				c0.643,0.229,0.998,1.24,1.194,1.811c0.442,1.285-1.046,1.412-1.846,1.364c-0.965-0.058-1.992-0.405-2.938-0.605
				c-0.603-0.128-1.641-0.15-2.193-0.42C44.205,79.77,43.718,80.599,44.274,80.872L44.274,80.872z"/>
		</g>
	</g>
	<g clip-path="url(#SVGID_4_)">
		<g>
			<path fill="#86C7CA" d="M46.723,79.797c1.081,0.115,2.392,1.034,3.388,0.243c0.937-0.744-0.781-2.155-1.428-2.338
				c-0.598-0.17-0.851,0.758-0.256,0.927c0.241,0.068,0.447,0.284,0.625,0.45c0.106,0.099,0.204,0.208,0.287,0.326
				c-0.038-0.054-0.475-0.053-0.576-0.078c-0.669-0.165-1.353-0.418-2.04-0.492C46.107,78.77,46.113,79.732,46.723,79.797
				L46.723,79.797z"/>
		</g>
	</g>
	<g clip-path="url(#SVGID_4_)">
		<g>
			<path fill="#86C7CA" d="M78.522,78.483c-1.02,1.785-2.6,2.531-4.106,3.802c-0.861,0.727-1.377,1.699-0.35,2.483
				c0.418,0.32,1.256,0.278,1.717,0.176c0.81-0.179,2.125-0.285,2.833-0.693c0.806-0.465,1.192-1.279,2.067-1.665
				c0.81-0.357,1.572-0.771,2.198-1.404c0.436-0.441-0.243-1.121-0.68-0.68c-0.792,0.801-1.985,0.91-2.752,1.646
				c-0.539,0.518-0.825,1.127-1.635,1.334c-0.836,0.214-1.785,0.483-2.641,0.561c-0.627-0.573-0.565-0.988,0.184-1.245
				c0.25-0.149,0.495-0.306,0.734-0.471c0.5-0.333,0.953-0.657,1.403-1.054c0.771-0.679,1.347-1.413,1.856-2.305
				C79.66,78.429,78.829,77.945,78.522,78.483L78.522,78.483z"/>
		</g>
	</g>
	<g clip-path="url(#SVGID_4_)">
		<g>
			<path fill="#8CBBD8" d="M66.49,95.067c-0.548-0.654-1.429-1.289-2.324-1.14c-0.943,0.157-1.94,0.672-2.586,1.381
				c-0.417,0.457,0.261,1.139,0.68,0.68c0.473-0.519,1.134-0.85,1.797-1.058c0.7-0.219,1.326,0.308,1.753,0.817
				C66.209,96.223,66.885,95.539,66.49,95.067L66.49,95.067z"/>
		</g>
	</g>
	<g clip-path="url(#SVGID_4_)">
		<g>
			<path fill="#8CBBD8" d="M91.452,93.276c-2.045,0.411-4.979,0.497-6.557,2.032c-0.445,0.433,0.235,1.112,0.68,0.68
				c0.778-0.757,2.123-0.966,3.141-1.201c0.99-0.229,1.995-0.383,2.991-0.583C92.316,94.081,92.058,93.154,91.452,93.276
				L91.452,93.276z"/>
		</g>
	</g>
	<g clip-path="url(#SVGID_4_)">
		<g>
			<path fill="#86C7CA" d="M41.856,96.016c0.219-1.591,0.781-3.742,2.679-3.978c0.63-0.078,1.753-0.037,2.196-0.597
				c0.629-0.796,0.609-1.668-0.546-1.825c-2.122-0.289-4.311,0.895-6.216,1.605c-0.695,0.26-2.222-0.772-3.209-0.529
				c-0.847,0.209-1.716,0.909-2.294,1.544c-0.416,0.457,0.262,1.139,0.68,0.68c0.642-0.705,1.885-1.696,2.957-1.209
				c0.485,0.221,0.862,0.619,1.455,0.535c1.91-0.271,3.604-1.313,5.554-1.607c1.435-0.216-0.529,0.434-1.044,0.498
				c-0.381,0.047-0.836,0.173-1.133,0.43c-1.212,1.05-1.792,2.637-2.007,4.195C40.845,96.366,41.772,96.628,41.856,96.016
				L41.856,96.016z"/>
		</g>
	</g>
	<path opacity="0.4" clip-path="url(#SVGID_4_)" fill="#333C4A" d="M103.411,104.775c0.676-2.366,1.69-4.393,2.535-6.59
		c-1.183,0-2.366,0.845-3.211,1.521c-1.183-1.014-0.845-4.224-1.521-5.576c-1.014-2.028-1.014-0.169-2.028,0.338
		c-1.183-1.014-0.676-3.211-0.507-4.393c0.338-1.521,0.845-3.042-1.352-2.028c-1.352,0.845-1.859,2.197-3.211,1.014
		c-1.352-1.352-3.717-4.224-5.914-3.886c0,0.338,0.338,0.845,0.338,1.183c-1.69-0.338-3.211-1.859-4.731-2.535
		c-0.507-0.169-1.859-0.845-2.535-0.507c-0.507,0.169-0.338,0.676-0.676,1.014c-2.366,2.873-7.773-0.845-10.645-1.014
		c-1.014-0.169-2.197-0.169-3.211,0.169c-0.676,0.169-2.704,0.338-3.379,0.845c-1.521,1.183-1.69,4.393-1.859,6.083
		c0,1.183,0,1.859,0.507,2.873c0.507,0.845,1.014,0.845,0.169,1.69c-0.845,0.845-2.028,1.014-2.535,2.028
		c0.507,0.676,1.859,0.338,2.704,0.676c-0.676,0.676-2.197,1.183-2.366,2.366c-0.169,1.014,0.676,1.521,0.338,2.366
		c-0.338,1.183-1.859,2.873-0.676,4.055c1.014-0.338,1.859-1.521,2.704-2.197c1.69-1.521,3.548-3.042,4.9-4.9
		c1.014-1.521,1.859-2.704,3.548-3.211c1.014-0.338,2.028-0.507,2.704-1.521c0.169,1.183,1.859,1.352,2.704,1.352
		c2.028-0.338,3.042-2.704,4.9-2.535c0.676,0,1.521,0.507,2.197,0.676c2.028,0.507,4.055,0.507,6.083,0.676
		c2.535,0,3.548,0,4.731,2.197c1.69,2.704,3.548,6.421,6.421,8.111c1.69,0.845,2.704,1.014,3.211-1.183"/>
</g>
<path opacity="0.2" fill="#333C4A" d="M68.938,79.014c0,0,0.929-0.734,0.961-2.643c0,0,11.576,1.49,18.287,10.239
	C88.186,86.611,81.653,80.618,68.938,79.014z"/>
<path opacity="0.2" fill="#333C4A" d="M84.315,57c0,0,0.403-1.555,0.46-3.127c0,0,0.133,1.127,0,3.127H84.315z"/>
<path fill="#E44E7E" d="M106.563,106.163c-15.495,0-28.055,8.783-28.055,19.617h56.111
	C134.618,114.946,122.058,106.163,106.563,106.163z"/>
<path fill="#FCDCBA" stroke="#FCDCBA" stroke-width="0.3846" stroke-miterlimit="10" d="M112.16,108.009
	c-1.876,2.018-9.829,1.835-11.94,0c-1.627-1.414,0-8,0-8h11.94C112.16,100.009,113.606,106.454,112.16,108.009z"/>
<circle fill="#FCDCBA" stroke="#FCDCBA" stroke-width="0.3846" stroke-miterlimit="10" cx="85.713" cy="80.963" r="5.096"/>
<circle fill="#FCDCBA" stroke="#FCDCBA" stroke-width="0.3846" stroke-miterlimit="10" cx="127.499" cy="81.067" r="5.096"/>
<path fill="#FCDCBA" d="M106.874,57.564c-11.937,0-21.812,11.901-21.812,23.793s9.677,21.534,21.614,21.534
	s21.614-9.641,21.614-21.534S118.811,57.564,106.874,57.564z"/>
<g>
	<g>
		<path fill="#333C4A" d="M84.107,79.781c-0.492-0.026-0.881,0.436-1.109,0.817c-0.307,0.513-0.306,1.139,0.123,1.574
			c0.227,0.23,0.58-0.124,0.354-0.354c-0.41-0.415-0.01-1.572,0.632-1.538C84.429,80.298,84.428,79.798,84.107,79.781L84.107,79.781
			z"/>
	</g>
</g>
<g>
	<g>
		<path fill="#333C4A" d="M129.039,80.012c0.562,0.034,0.964,1.109,0.545,1.507c-0.234,0.222,0.12,0.575,0.354,0.354
			c0.755-0.716,0.088-2.3-0.898-2.361C128.717,79.492,128.719,79.992,129.039,80.012L129.039,80.012z"/>
	</g>
</g>
<g>
	<g>
		<path fill="#333C4A" d="M101.406,75.514c-2.032-1.261-4.458-0.582-6.294,0.725c-0.26,0.185-0.011,0.619,0.252,0.432
			c1.687-1.201,3.9-1.897,5.789-0.725C101.428,76.116,101.679,75.684,101.406,75.514L101.406,75.514z"/>
	</g>
</g>
<g>
	<g>
		<path fill="#333C4A" d="M112.286,75.946c1.888-1.172,4.102-0.476,5.789,0.725c0.263,0.187,0.513-0.246,0.252-0.432
			c-1.836-1.307-4.262-1.986-6.294-0.725C111.76,75.684,112.011,76.116,112.286,75.946L112.286,75.946z"/>
	</g>
</g>
<g>
	<g>
		<path fill="#333C4A" d="M98.999,82.091c2.48,0,2.48-3.846,0-3.846S96.519,82.091,98.999,82.091L98.999,82.091z"/>
	</g>
</g>
<g>
	<g>
		<path fill="#333C4A" d="M114.687,82.172c2.48,0,2.48-3.846,0-3.846S112.207,82.172,114.687,82.172L114.687,82.172z"/>
	</g>
</g>
<g>
	<g>
		<path fill="#333C4A" d="M104.553,85.075c-0.716,0.123-0.734,0.952-0.467,1.483c0.109,0.215,0.43,0.441,0.677,0.399
			c0.333-0.057,0.922-0.408,1.195-0.035c0.165,0.225,0.31,0.271,0.559,0.375c0.354,0.149,0.769-0.257,0.994-0.463
			c0.299-0.273,0.916,0.323,1.351,0.151c0.965-0.381,0.926-1.333,0.005-1.73c-0.293-0.126-0.548,0.304-0.252,0.432
			c0.529,0.228,0.024,0.854-0.43,0.712c-0.202-0.063-0.419-0.167-0.636-0.167c-0.272,0-0.519,0.367-0.699,0.501
			c-0.319,0.236-0.748-0.568-1.066-0.574c-0.27-0.005-0.262-0.008-0.518,0.086c-0.091,0.037-0.18,0.08-0.266,0.128
			c-0.658-0.173-0.762-0.445-0.313-0.816C105.003,85.503,104.868,85.021,104.553,85.075L104.553,85.075z"/>
	</g>
</g>
<g>
	<g>
		<path fill="#333C4A" d="M104.981,94.777c1.009,0.641,2.36,0.406,3.455,0.142c0.313-0.076,0.18-0.558-0.133-0.482
			c-0.961,0.232-2.181,0.473-3.07-0.091C104.96,94.172,104.709,94.605,104.981,94.777L104.981,94.777z"/>
	</g>
</g>
<g>
	<g>
		<path fill="#333C4A" d="M101.901,92.174c2.475,2.099,6.248,1.41,8.809-0.194c0.273-0.171,0.022-0.603-0.252-0.432
			c-2.349,1.471-5.907,2.219-8.203,0.272C102.01,91.613,101.654,91.965,101.901,92.174L101.901,92.174z"/>
	</g>
</g>
<g>
	<g>
		<path fill="#333C4A" d="M90.336,68.518c0.024,0,0.049,0,0.073,0c0.31,0,0.31-0.481,0-0.481c-0.024,0-0.049,0-0.073,0
			C90.026,68.037,90.026,68.518,90.336,68.518L90.336,68.518z"/>
	</g>
</g>
<g>
	<g>
		<path fill="#333C4A" d="M91.263,68.642c0,0.024,0,0.049,0,0.073c0,0.31,0.481,0.31,0.481,0c0-0.024,0-0.049,0-0.073
			C91.744,68.332,91.263,68.332,91.263,68.642L91.263,68.642z"/>
	</g>
</g>
<g>
	<g>
		<path fill="#333C4A" d="M89.753,69.32c0.31,0,0.31-0.481,0-0.481S89.443,69.32,89.753,69.32L89.753,69.32z"/>
	</g>
</g>
<g>
	<g>
		<path fill="#333C4A" d="M90.482,69.466c0.31,0,0.31-0.481,0-0.481S90.172,69.466,90.482,69.466L90.482,69.466z"/>
	</g>
</g>
<g>
	<g>
		<path fill="#333C4A" d="M88.878,71.07c0.31,0,0.31-0.481,0-0.481S88.568,71.07,88.878,71.07L88.878,71.07z"/>
	</g>
</g>
<g>
	<g>
		<path fill="#333C4A" d="M89.534,70.195c0.31,0,0.31-0.481,0-0.481S89.224,70.195,89.534,70.195L89.534,70.195z"/>
	</g>
</g>
<g>
	<g>
		<path fill="#333C4A" d="M87.857,72.966c0.024,0,0.049,0,0.073,0c0.31,0,0.31-0.481,0-0.481c-0.024,0-0.049,0-0.073,0
			C87.547,72.486,87.547,72.966,87.857,72.966L87.857,72.966z"/>
	</g>
</g>
<g>
	<g>
		<path fill="#333C4A" d="M89.097,72.018c0.31,0,0.31-0.481,0-0.481S88.787,72.018,89.097,72.018L89.097,72.018z"/>
	</g>
</g>
<g>
	<g>
		<path fill="#333C4A" d="M88.294,72.018c0.31,0,0.31-0.481,0-0.481C87.984,71.538,87.984,72.018,88.294,72.018L88.294,72.018z"/>
	</g>
</g>
<g>
	<g>
		<path fill="#333C4A" d="M87.492,73.988c0.31,0,0.31-0.481,0-0.481S87.182,73.988,87.492,73.988L87.492,73.988z"/>
	</g>
</g>
<g>
	<g>
		<path fill="#333C4A" d="M86.836,75.738c0.31,0,0.31-0.481,0-0.481S86.526,75.738,86.836,75.738L86.836,75.738z"/>
	</g>
</g>
<g>
	<g>
		<path fill="#333C4A" d="M86.982,74.936c0.31,0,0.31-0.481,0-0.481S86.672,74.936,86.982,74.936L86.982,74.936z"/>
	</g>
</g>
<g>
	<g>
		<path fill="#333C4A" d="M88.44,74.206c0.31,0,0.31-0.481,0-0.481C88.13,73.726,88.13,74.206,88.44,74.206L88.44,74.206z"/>
	</g>
</g>
<g>
	<g>
		<path fill="#333C4A" d="M87.857,74.863c0.31,0,0.31-0.481,0-0.481S87.547,74.863,87.857,74.863L87.857,74.863z"/>
	</g>
</g>
<g>
	<g>
		<path fill="#333C4A" d="M88.659,73.112c0.31,0,0.31-0.481,0-0.481S88.349,73.112,88.659,73.112L88.659,73.112z"/>
	</g>
</g>
<g>
	<g>
		<path fill="#333C4A" d="M89.753,71.07c0.31,0,0.31-0.481,0-0.481S89.443,71.07,89.753,71.07L89.753,71.07z"/>
	</g>
</g>
<g>
	<g>
		<path fill="#333C4A" d="M90.774,70.341c0.31,0,0.31-0.481,0-0.481S90.464,70.341,90.774,70.341L90.774,70.341z"/>
	</g>
</g>
<g>
	<g>
		<path fill="#333C4A" d="M123.229,68.518c0.31,0,0.31-0.481,0-0.481S122.919,68.518,123.229,68.518L123.229,68.518z"/>
	</g>
</g>
<g>
	<g>
		<path fill="#333C4A" d="M122.281,69.028c0.31,0,0.31-0.481,0-0.481C121.971,68.547,121.971,69.028,122.281,69.028L122.281,69.028z
			"/>
	</g>
</g>
<g>
	<g>
		<path fill="#333C4A" d="M123.238,69.384c-0.012-0.01-0.024-0.02-0.036-0.029c0.165,0.141,0.392,0.044,0.41-0.17
			c0.001-0.011,0.002-0.022,0.003-0.032c0.026-0.309-0.455-0.307-0.481,0c-0.001,0.011-0.002,0.022-0.003,0.032
			c0.137-0.057,0.274-0.113,0.41-0.17c-0.056-0.048-0.107-0.072-0.176-0.094C123.07,68.827,122.944,69.291,123.238,69.384
			L123.238,69.384z"/>
	</g>
</g>
<g>
	<g>
		<path fill="#333C4A" d="M123.302,70.778c0.31,0,0.31-0.481,0-0.481S122.992,70.778,123.302,70.778L123.302,70.778z"/>
	</g>
</g>
<g>
	<g>
		<path fill="#333C4A" d="M122.573,70.268c0.024,0,0.049,0,0.073,0c0.31,0,0.31-0.481,0-0.481c-0.024,0-0.049,0-0.073,0
			C122.263,69.787,122.263,70.268,122.573,70.268L122.573,70.268z"/>
	</g>
</g>
<g>
	<g>
		<path fill="#333C4A" d="M123.74,70.195c0.31,0,0.31-0.481,0-0.481S123.43,70.195,123.74,70.195L123.74,70.195z"/>
	</g>
</g>
<g>
	<g>
		<path fill="#333C4A" d="M124.177,69.393c0.024,0,0.049,0,0.073,0c0.31,0,0.31-0.481,0-0.481c-0.024,0-0.049,0-0.073,0
			C123.867,68.912,123.867,69.393,124.177,69.393L124.177,69.393z"/>
	</g>
</g>
<g>
	<g>
		<path fill="#333C4A" d="M124.332,70.233c-0.021,0.003-0.043,0.006-0.064,0.009c-0.073,0.01-0.158,0.095-0.168,0.168
			c-0.003,0.021-0.006,0.043-0.009,0.064c-0.043,0.303,0.42,0.434,0.464,0.128c0.003-0.021,0.006-0.043,0.009-0.064
			c-0.056,0.056-0.112,0.112-0.168,0.168c0.021-0.003,0.043-0.006,0.064-0.009C124.766,70.653,124.635,70.19,124.332,70.233
			L124.332,70.233z"/>
	</g>
</g>
<g>
	<g>
		<path fill="#333C4A" d="M124.031,71.727c0.31,0,0.31-0.481,0-0.481S123.721,71.727,124.031,71.727L124.031,71.727z"/>
	</g>
</g>
<g>
	<g>
		<path fill="#333C4A" d="M125.053,72.164c0.31,0,0.31-0.481,0-0.481C124.743,71.683,124.743,72.164,125.053,72.164L125.053,72.164z
			"/>
	</g>
</g>
<g>
	<g>
		<path fill="#333C4A" d="M125.125,71.143c0.31,0,0.31-0.481,0-0.481S124.815,71.143,125.125,71.143L125.125,71.143z"/>
	</g>
</g>
<g>
	<g>
		<path fill="#333C4A" d="M125.709,73.039c0.31,0,0.31-0.481,0-0.481S125.399,73.039,125.709,73.039L125.709,73.039z"/>
	</g>
</g>
<g>
	<g>
		<path fill="#333C4A" d="M126.147,74.644c0.31,0,0.31-0.481,0-0.481S125.837,74.644,126.147,74.644L126.147,74.644z"/>
	</g>
</g>
<g>
	<g>
		<path fill="#333C4A" d="M125.949,73.674c0-0.024,0-0.049,0-0.073c0-0.31-0.481-0.31-0.481,0c0,0.024,0,0.049,0,0.073
			C125.469,73.984,125.949,73.984,125.949,73.674L125.949,73.674z"/>
	</g>
</g>
<g>
	<g>
		<path fill="#333C4A" d="M124.688,73.55c0.31,0,0.31-0.481,0-0.481S124.378,73.55,124.688,73.55L124.688,73.55z"/>
	</g>
</g>
<g>
	<g>
		<path fill="#333C4A" d="M126.365,75.738c0.31,0,0.31-0.481,0-0.481S126.055,75.738,126.365,75.738L126.365,75.738z"/>
	</g>
</g>
<g>
	<g>
		<path fill="#333C4A" d="M125.198,74.571c0.31,0,0.31-0.481,0-0.481C124.888,74.09,124.888,74.571,125.198,74.571L125.198,74.571z"
			/>
	</g>
</g>
<g>
	<g>
		<path fill="#D6E39D" d="M105.94,113.416c1.24,0,1.24-1.923,0-1.923C104.7,111.493,104.7,113.416,105.94,113.416L105.94,113.416z"
			/>
	</g>
</g>
<g>
	<defs>
		<path id="SVGID_5_" d="M128.29,81.357c0,11.893-9.677,21.534-21.614,21.534S85.062,93.25,85.062,81.357
			s9.875-23.793,21.812-23.793S128.29,69.465,128.29,81.357z"/>
	</defs>
	<clipPath id="SVGID_6_">
		<use xlink:href="#SVGID_5_"  overflow="visible"/>
	</clipPath>
	<path opacity="0.2" clip-path="url(#SVGID_6_)" fill="#333C4A" d="M124.59,68.203c-2.128-0.501-7.908,2.208-17.663,2.208
		s-16.792-2.918-18.077-2.299c-1.099,0.529,7.642-10.439,17.397-10.439S125.777,68.482,124.59,68.203z"/>
	<path clip-path="url(#SVGID_6_)" fill="#333C4A" d="M124.975,67.818c-2.128-0.501-7.908,2.208-17.663,2.208
		s-16.792-2.918-18.077-2.299c-1.099,0.529,7.642-10.439,17.397-10.439S126.161,68.098,124.975,67.818z"/>
</g>
<path fill="#9DD1BC" stroke="#9DD1BC" stroke-width="1.1537" stroke-miterlimit="10" d="M67.398,125.669
	c-16.055-0.216-28.055,8.783-28.055,19.617h56.111C95.453,134.452,82.891,125.877,67.398,125.669z"/>
<path fill="#FCDCBA" stroke="#FCDCBA" stroke-width="1.1537" stroke-miterlimit="10" d="M72.326,130.24
	c-5.599,19.488-10.606,2.672-11.271-0.044c-0.531-2.167,0-8,0-8h11.94C72.995,122.196,72.793,128.615,72.326,130.24z"/>
<path opacity="0.2" fill="#333C4A" d="M89.566,92.853c0.676-2.366,1.69-4.393,2.535-6.59c-1.183,0-2.366,0.845-3.211,1.521
	c-1.183-1.014-0.845-4.224-1.521-5.576c-1.014-2.028-1.014-0.169-2.028,0.338c-1.183-1.014-0.676-3.211-0.507-4.393
	c0.338-1.521,0.845-3.042-1.352-2.028c-1.352,0.845-1.859,2.197-3.211,1.014c-1.352-1.352-3.717-4.224-5.914-3.886
	c0,0.338,0.338,0.845,0.338,1.183c-1.69-0.338-3.211-1.859-4.731-2.535c-0.507-0.169-1.859-0.845-2.535-0.507
	c-0.507,0.169-0.338,0.676-0.676,1.014c-2.366,2.873-7.773-0.845-10.645-1.014c-1.014-0.169-2.197-0.169-3.211,0.169
	c-0.676,0.169-2.704,0.338-3.379,0.845c-1.521,1.183-1.69,4.393-1.859,6.083c0,1.183,0,1.859,0.507,2.873
	c0.507,0.845,1.014,0.845,0.169,1.69c-0.845,0.845-2.028,1.014-2.535,2.028c0.507,0.676,1.859,0.338,2.704,0.676
	c-0.676,0.676-2.197,1.183-2.366,2.366c-0.169,1.014,0.676,1.521,0.338,2.366c-0.338,1.183-1.859,2.873-0.676,4.055
	c1.014-0.338,1.859-1.521,2.704-2.197c1.69-1.521,3.548-3.042,4.9-4.9c1.014-1.521,1.859-2.704,3.548-3.211
	c1.014-0.338,2.028-0.507,2.704-1.521c0.169,1.183,1.859,1.352,2.704,1.352c2.028-0.338,3.042-2.704,4.9-2.535
	c0.676,0,1.521,0.507,2.197,0.676c2.028,0.507,4.055,0.507,6.083,0.676c2.535,0,3.548,0,4.731,2.197
	c1.69,2.704,3.548,6.421,6.421,8.111c1.69,0.845,2.704,1.014,3.211-1.183"/>
<circle fill="#FCDCBA" stroke="#FCDCBA" stroke-width="0.3846" stroke-miterlimit="10" cx="46.932" cy="101.227" r="5.096"/>
<circle fill="#FCDCBA" stroke="#FCDCBA" stroke-width="0.3846" stroke-miterlimit="10" cx="88.334" cy="101.331" r="5.096"/>
<path fill="#FCDCBA" stroke="#FCDCBA" stroke-width="0.3846" stroke-miterlimit="10" d="M89.124,101.621
	c0,11.893-9.677,21.534-21.614,21.534s-21.614-9.641-21.614-21.534s9.875-23.793,21.812-23.793S89.124,89.728,89.124,101.621z"/>
<g>
	<g>
		<path fill="#333C4A" d="M44.557,99.66c-0.492-0.026-0.881,0.436-1.109,0.817c-0.307,0.513-0.306,1.139,0.123,1.574
			c0.227,0.23,0.58-0.124,0.354-0.354c-0.41-0.415-0.01-1.572,0.632-1.538C44.879,100.177,44.877,99.677,44.557,99.66L44.557,99.66z
			"/>
	</g>
</g>
<g>
	<g>
		<path fill="#333C4A" d="M90.643,100.275c0.562,0.034,0.964,1.109,0.545,1.507c-0.234,0.222,0.12,0.575,0.354,0.354
			c0.755-0.716,0.088-2.3-0.898-2.361C90.321,99.756,90.323,100.256,90.643,100.275L90.643,100.275z"/>
	</g>
</g>
<g>
	<g>
		<path fill="#F0B593" d="M59.907,95.523c-1.347,0.017-2.646,0.327-3.584,1.351c-0.217,0.237,0.135,0.592,0.354,0.354
			c0.853-0.931,2.01-1.189,3.231-1.205C60.229,96.018,60.23,95.518,59.907,95.523L59.907,95.523z"/>
	</g>
</g>
<g>
	<g>
		<path fill="#F0B593" d="M75.185,96.207c1.22,0.015,2.378,0.273,3.231,1.205c0.218,0.238,0.571-0.116,0.354-0.354
			c-0.938-1.024-2.238-1.334-3.584-1.351C74.862,95.703,74.863,96.203,75.185,96.207L75.185,96.207z"/>
	</g>
</g>
<g>
	<g>
		<path fill="#333C4A" d="M78.621,100.487c-1.116-1.226-2.768-1.555-4.369-1.477c-0.966,0.047-2.592,0.582-3.065,1.524
			c-0.277,0.553,0.552,1.04,0.83,0.485c0.401-0.8,1.92-1.033,2.661-1.069c1.197-0.058,2.451,0.324,3.263,1.216
			C78.359,101.626,79.037,100.944,78.621,100.487L78.621,100.487z"/>
	</g>
</g>
<g>
	<g>
		<path fill="#333C4A" d="M63.453,100.371c-1.116-1.226-2.768-1.555-4.369-1.477c-0.966,0.047-2.592,0.582-3.065,1.524
			c-0.277,0.553,0.552,1.04,0.83,0.485c0.401-0.8,1.92-1.033,2.661-1.069c1.197-0.058,2.451,0.324,3.263,1.216
			C63.191,101.51,63.869,100.828,63.453,100.371L63.453,100.371z"/>
	</g>
</g>
<g>
	<g>
		<path fill="#333C4A" d="M71.733,113.601c-0.895-0.568-1.92-1.249-2.969-1.455c-0.739-0.146-1.423,1.391-1.849,0.697
			c-1.1-1.792-3.281,0.222-4.481,0.761c-0.565,0.254-0.075,1.082,0.485,0.83c0.776-0.349,1.527-0.81,2.254-1.255
			c0.611-0.374,1.367,0.844,1.95,1.025c0.47,0.145,0.887-0.39,1.126-0.688c0.642-0.797,2.329,0.491,2.998,0.916
			C71.773,114.764,72.255,113.932,71.733,113.601L71.733,113.601z"/>
	</g>
</g>
<g>
	<g>
		<path fill="#333C4A" d="M60.81,112.593c0.717,2.19,2.953,2.869,5.019,3.296c2.942,0.608,5.838-0.4,7.713-2.73
			c0.385-0.478-0.291-1.163-0.68-0.68c-1.429,1.775-3.272,2.587-5.536,2.625c-1.9,0.032-4.941-0.786-5.589-2.766
			C61.545,111.751,60.617,112.002,60.81,112.593L60.81,112.593z"/>
	</g>
</g>
<g>
	<g>
		<path fill="#333C4A" d="M64.921,117.874c1.342,0.779,3.069,0.908,4.423,0.09c0.53-0.32,0.047-1.152-0.485-0.83
			c-1.064,0.643-2.401,0.52-3.453-0.09C64.869,116.732,64.385,117.563,64.921,117.874L64.921,117.874z"/>
	</g>
</g>
<g>
	<g>
		<path fill="#333C4A" d="M65.577,106.118c-0.71,1.438,0.764,2.102,1.985,2.065c1.099-0.034,2.659-0.799,1.632-2.036
			c-0.385-0.464-1.043,0.201-0.661,0.661c0.125,0.151,0.118,0.122-0.095,0.243c-0.281,0.158-0.644,0.19-0.959,0.199
			c-0.42,0.013-1.394-0.053-1.094-0.661C66.65,106.051,65.844,105.577,65.577,106.118L65.577,106.118z"/>
	</g>
</g>
<g opacity="0.4">
	<g>
		<path fill="#333C4A" d="M45.466,109.444c3.72,0,3.72-5.769,0-5.769S41.745,109.444,45.466,109.444L45.466,109.444z"/>
	</g>
</g>
<g opacity="0.4">
	<g>
		<path fill="#333C4A" d="M89.308,109.444c3.72,0,3.72-5.769,0-5.769S85.588,109.444,89.308,109.444L89.308,109.444z"/>
	</g>
</g>
<g>
	<g>
		<path fill="#86C7CA" d="M44.696,109.444c3.72,0,3.72-5.769,0-5.769C40.976,103.675,40.976,109.444,44.696,109.444L44.696,109.444z
			"/>
	</g>
</g>
<g>
	<g>
		<path fill="#86C7CA" d="M89.848,109.618c3.72,0,3.72-5.769,0-5.769S86.128,109.618,89.848,109.618L89.848,109.618z"/>
	</g>
</g>
<line fill="none" stroke="#9DD1BC" stroke-linecap="round" stroke-miterlimit="10" x1="59.667" y1="132.5" x2="75.667" y2="132.5"/>
<line fill="none" stroke="#9DD1BC" stroke-linecap="round" stroke-miterlimit="10" x1="59.667" y1="134.5" x2="73.667" y2="134.5"/>
<line fill="none" stroke="#9DD1BC" stroke-linecap="round" stroke-miterlimit="10" x1="62.667" y1="137.5" x2="71.667" y2="137.5"/>
<path opacity="0.2" fill="#333C4A" stroke="#333C4A" stroke-width="0.3846" stroke-miterlimit="10" d="M89.566,95.929
	c0.676-2.366,1.69-4.393,2.535-6.59c-1.183,0-2.366,0.845-3.211,1.521c-1.183-1.014-0.845-4.224-1.521-5.576
	c-1.014-2.028-1.014-0.169-2.028,0.338c-1.183-1.014-0.676-3.211-0.507-4.393c0.338-1.521,0.845-3.042-1.352-2.028
	c-1.352,0.845-1.859,2.197-3.211,1.014c-1.352-1.352-3.717-4.224-5.914-3.886c0,0.338,0.338,0.845,0.338,1.183
	c-1.69-0.338-3.211-1.859-4.731-2.535c-0.507-0.169-1.859-0.845-2.535-0.507c-0.507,0.169-0.338,0.676-0.676,1.014
	c-2.366,2.873-7.773-0.845-10.645-1.014c-1.014-0.169-2.197-0.169-3.211,0.169c-0.676,0.169-2.704,0.338-3.379,0.845
	c-1.521,1.183-1.69,4.393-1.859,6.083c0,1.183,0,1.859,0.507,2.873c0.507,0.845,1.014,0.845,0.169,1.69
	c-0.845,0.845-2.028,1.014-2.535,2.028c0.507,0.676,1.859,0.338,2.704,0.676c-0.676,0.676-2.197,1.183-2.366,2.366
	c-0.169,1.014,0.676,1.521,0.338,2.366c-0.338,1.183-1.859,2.873-0.676,4.055c1.014-0.338,1.859-1.521,2.704-2.197
	c1.69-1.521,3.548-3.042,4.9-4.9c1.014-1.521,1.859-2.704,3.548-3.211c1.014-0.338,2.028-0.507,2.704-1.521
	c0.169,1.183,1.859,1.352,2.704,1.352c2.028-0.338,3.042-2.704,4.9-2.535c0.676,0,1.521,0.507,2.197,0.676
	c2.028,0.507,4.055,0.507,6.083,0.676c2.535,0,3.548,0,4.731,2.197c1.69,2.704,3.548,6.421,6.421,8.111
	c1.69,0.845,2.704,1.014,3.211-1.183"/>
<path fill="#F0B593" stroke="#F0B593" stroke-width="1.1537" stroke-miterlimit="10" d="M89.566,94.776
	c0.676-2.366,1.69-4.393,2.535-6.59c-1.183,0-2.366,0.845-3.211,1.521c-1.183-1.014-0.845-4.224-1.521-5.576
	c-1.014-2.028-1.014-0.169-2.028,0.338c-1.183-1.014-0.676-3.211-0.507-4.393c0.338-1.521,0.845-3.042-1.352-2.028
	c-1.352,0.845-1.859,2.197-3.211,1.014c-1.352-1.352-3.717-4.224-5.914-3.886c0,0.338,0.338,0.845,0.338,1.183
	c-1.69-0.338-3.211-1.859-4.731-2.535c-0.507-0.169-1.859-0.845-2.535-0.507c-0.507,0.169-0.338,0.676-0.676,1.014
	c-2.366,2.873-7.773-0.845-10.645-1.014c-1.014-0.169-2.197-0.169-3.211,0.169c-0.676,0.169-2.704,0.338-3.379,0.845
	c-1.521,1.183-1.69,4.393-1.859,6.083c0,1.183,0,1.859,0.507,2.873c0.507,0.845,1.014,0.845,0.169,1.69
	c-0.845,0.845-2.028,1.014-2.535,2.028c0.507,0.676,1.859,0.338,2.704,0.676c-0.676,0.676-2.197,1.183-2.366,2.366
	c-0.169,1.014,0.676,1.521,0.338,2.366c-0.338,1.183-1.859,2.873-0.676,4.055c1.014-0.338,1.859-1.521,2.704-2.197
	c1.69-1.521,3.548-3.042,4.9-4.9c1.014-1.521,1.859-2.704,3.548-3.211c1.014-0.338,2.028-0.507,2.704-1.521
	c0.169,1.183,1.859,1.352,2.704,1.352c2.028-0.338,3.042-2.704,4.9-2.535c0.676,0,1.521,0.507,2.197,0.676
	c2.028,0.507,4.055,0.507,6.083,0.676c2.535,0,3.548,0,4.731,2.197c1.69,2.704,3.548,6.421,6.421,8.111
	c1.69,0.845,2.704,1.014,3.211-1.183"/>
<path opacity="0.2" fill="#333C4A" d="M60.445,122.568c0,0,1.758,0.833,6.952,0.737c0,0-1.184,2.083-7.145,1.891
	C60.253,125.196,60.349,123.337,60.445,122.568z"/>
<path opacity="0.2" fill="#333C4A" d="M73.361,125.665c0,0,0.101,3.088-0.366,4.434c0,0,16.797-0.897,22.458,11.025
	C95.453,141.124,92.077,128.474,73.361,125.665z"/>
<path opacity="0.2" fill="#333C4A" d="M99.658,101.73c0,0,2.818,1.047,6.391,1.151c0,0-4.565,1.162-6.553,0.121
	C99.497,103.003,99.581,102.269,99.658,101.73z"/>
<path opacity="0.2" fill="#333C4A" d="M127.675,86.475c0,0,0.517-1.537,0.562-3.61c0,0,0.362,1.608,0,3.325
	C128.237,86.191,128.099,86.485,127.675,86.475z"/>
<path fill="none" stroke="#FFFFFF" stroke-width="1.1537" stroke-linecap="round" stroke-linejoin="round" stroke-miterlimit="10" d="
	M116.866,109.455c0,0,11.009,3.355,14.662,11.479"/>
<g>
	
		<circle fill-rule="evenodd" clip-rule="evenodd" fill="#FFFFFF" stroke="#86C7CA" stroke-width="2.7116" stroke-miterlimit="10" cx="149.057" cy="204.709" r="54.823"/>
	<g>
		<defs>
			<circle id="SVGID_7_" cx="149.592" cy="205.178" r="50.054"/>
		</defs>
		<clipPath id="SVGID_8_">
			<use xlink:href="#SVGID_7_"  overflow="visible"/>
		</clipPath>
		
			<circle clip-path="url(#SVGID_8_)" fill-rule="evenodd" clip-rule="evenodd" fill="#FFFFFF" stroke="#86C7CA" stroke-width="2.4757" stroke-miterlimit="10" cx="149.592" cy="205.178" r="50.054"/>
		<rect x="85.667" y="142" clip-path="url(#SVGID_8_)" fill="#86C7CA" width="44" height="120"/>
		<rect x="129.667" y="142" clip-path="url(#SVGID_8_)" fill="#FFFFFF" width="44" height="120"/>
		<rect x="173.667" y="142" clip-path="url(#SVGID_8_)" fill="#E44E7E" width="41" height="120"/>
	</g>
</g>
</svg>
