<?xml version="1.0" encoding="utf-8"?>
<!-- Generator: Adobe Illustrator 17.0.0, SVG Export Plug-In . SVG Version: 6.00 Build 0)  -->
<!DOCTYPE svg PUBLIC "-//W3C//DTD SVG 1.1//EN" "http://www.w3.org/Graphics/SVG/1.1/DTD/svg11.dtd">
<svg version="1.1" id="Calque_1" xmlns="http://www.w3.org/2000/svg" xmlns:xlink="http://www.w3.org/1999/xlink" x="0px" y="0px"
	 width="933.735px" height="489.157px" viewBox="0 0 933.735 489.157" enable-background="new 0 0 933.735 489.157"
	 xml:space="preserve">
<g id="Texte">
	<rect x="136.832" y="68.742" fill="none" width="638.478" height="39.739"/>
	
		<text transform="matrix(1 0 0 1 136.8324 94.7335)" fill="#010202" font-family="'BloggerSans-Bold'" font-size="36" letter-spacing="2">IL SE PASSE QUOI SUR EURADIO ? </text>
	<rect x="-45.854" y="289.113" fill="none" width="988.168" height="117.871"/>
	<text transform="matrix(1 0 0 1 448.23 298.602)" fill="#010202" font-family="'MetaPro-Normal'" font-size="13"> </text>
	<text transform="matrix(1 0 0 1 82.427 316.602)" fill="#010202" font-family="'MetaPro-Normal'" font-size="13">Grâce aux bénévoles qui animent émissions et chroniques, les langues parlées à l’antenne sont plurielles.</text>
	<text transform="matrix(1 0 0 1 448.23 337.002)" fill="#010202" font-family="'MetaPro-Normal'" font-size="17"> </text>
	<text transform="matrix(1 0 0 1 107.289 348.0477)" fill="#010202" font-family="'BloggerSans-Bold'" font-size="14">Que serait une radio sans musique ?L’éclectisme et la découverte sont également de mise </text>
	<text transform="matrix(1 0 0 1 139.139 364.8477)" fill="#010202" font-family="'BloggerSans-Bold'" font-size="14">avec une programmation alternative, qui met à l’honneur des artistes européens. </text>
	<rect x="152.552" y="117.998" fill="none" width="263.303" height="165"/>
	<text transform="matrix(1 0 0 1 152.552 127.4876)" fill="#010202" font-family="'MetaPro-Normal'" font-size="13"> </text>
	<text transform="matrix(1 0 0 1 152.552 145.4876)" fill="#010202" font-family="'MetaPro-Normal'" font-size="13">Avec</text>
	
		<text transform="matrix(1 0 0 1 184.35 145.4876)" fill="#010202" font-family="'MetaPro-Normal'" font-size="13" letter-spacing="2"> </text>
	<text transform="matrix(1 0 0 1 191.165 145.4876)" fill="#010202" font-family="'MetaPro-Normal'" font-size="13">une</text>
	
		<text transform="matrix(1 0 0 1 216.307 145.4876)" fill="#010202" font-family="'MetaPro-Normal'" font-size="13" letter-spacing="2"> </text>
	<text transform="matrix(1 0 0 1 223.123 145.4876)" fill="#010202" font-family="'MetaPro-Normal'" font-size="13">soixantaine</text>
	
		<text transform="matrix(1 0 0 1 303.0721 145.4876)" fill="#010202" font-family="'MetaPro-Normal'" font-size="13" letter-spacing="2"> </text>
	<text transform="matrix(1 0 0 1 309.8871 145.4876)" fill="#010202" font-family="'MetaPro-Normal'" font-size="13">de</text>
	
		<text transform="matrix(1 0 0 1 326.683 145.4876)" fill="#010202" font-family="'MetaPro-Normal'" font-size="13" letter-spacing="2"> </text>
	<text transform="matrix(1 0 0 1 333.4991 145.4876)" fill="#010202" font-family="'MetaPro-Normal'" font-size="13">programmes </text>
	<text transform="matrix(1 0 0 1 152.552 163.4876)" fill="#010202" font-family="'MetaPro-Normal'" font-size="13">originaux</text>
	
		<text transform="matrix(1 0 0 1 216.745 163.4876)" fill="#010202" font-family="'MetaPro-Normal'" font-size="13" letter-spacing="3"> </text>
	<text transform="matrix(1 0 0 1 224.421 163.4876)" fill="#010202" font-family="'MetaPro-Normal'" font-size="13">à</text>
	
		<text transform="matrix(1 0 0 1 232.598 163.4876)" fill="#010202" font-family="'MetaPro-Normal'" font-size="13" letter-spacing="3"> </text>
	<text transform="matrix(1 0 0 1 240.273 163.4876)" fill="#010202" font-family="'MetaPro-Normal'" font-size="13">écouter</text>
	
		<text transform="matrix(1 0 0 1 291.765 163.4876)" fill="#010202" font-family="'MetaPro-Normal'" font-size="13" letter-spacing="3"> </text>
	<text transform="matrix(1 0 0 1 299.441 163.4876)" fill="#010202" font-family="'MetaPro-Normal'" font-size="13">24h/24,</text>
	
		<text transform="matrix(1 0 0 1 354.118 163.4876)" fill="#010202" font-family="'MetaPro-Normal'" font-size="13" letter-spacing="3"> </text>
	<text transform="matrix(1 0 0 1 361.794 163.4876)" fill="#010202" font-family="'MetaPro-Normal'" font-size="13">dont</text>
	
		<text transform="matrix(1 0 0 1 392.941 163.4876)" fill="#010202" font-family="'MetaPro-Normal'" font-size="13" letter-spacing="3"> </text>
	<text transform="matrix(1 0 0 1 400.616 163.4876)" fill="#010202" font-family="'MetaPro-Normal'" font-size="13">7h </text>
	<text transform="matrix(1 0 0 1 152.552 181.4876)" fill="#010202" font-family="'MetaPro-Normal'" font-size="13">d’émissions</text>
	
		<text transform="matrix(1 0 0 1 235.283 181.4876)" fill="#010202" font-family="'MetaPro-Normal'" font-size="13" letter-spacing="13"> </text>
	<text transform="matrix(1 0 0 1 253.174 181.4876)" fill="#010202" font-family="'MetaPro-Normal'" font-size="13">en</text>
	
		<text transform="matrix(1 0 0 1 269.775 181.4876)" fill="#010202" font-family="'MetaPro-Normal'" font-size="13" letter-spacing="13"> </text>
	<text transform="matrix(1 0 0 1 287.666 181.4876)" fill="#010202" font-family="'MetaPro-Normal'" font-size="13">direct,</text>
	
		<text transform="matrix(1 0 0 1 332.724 181.4876)" fill="#010202" font-family="'MetaPro-Normal'" font-size="13" letter-spacing="13"> </text>
	<text transform="matrix(1 0 0 1 350.615 181.4876)" fill="#010202" font-family="'MetaPro-Normal'" font-size="13">la</text>
	
		<text transform="matrix(1 0 0 1 363.589 181.4876)" fill="#010202" font-family="'MetaPro-Normal'" font-size="13" letter-spacing="13"> </text>
	<text transform="matrix(1 0 0 1 381.48 181.4876)" fill="#010202" font-family="'MetaPro-Normal'" font-size="13">radio </text>
	<text transform="matrix(1 0 0 1 152.552 199.4876)" fill="#010202" font-family="'MetaPro-Normal'" font-size="13">s’inscrit</text>
	
		<text transform="matrix(1 0 0 1 209.01 199.4876)" fill="#010202" font-family="'MetaPro-Normal'" font-size="13" letter-spacing="7"> </text>
	<text transform="matrix(1 0 0 1 220.252 199.4876)" fill="#010202" font-family="'MetaPro-Normal'" font-size="13">dans</text>
	
		<text transform="matrix(1 0 0 1 253.233 199.4876)" fill="#010202" font-family="'MetaPro-Normal'" font-size="13" letter-spacing="7"> </text>
	<text transform="matrix(1 0 0 1 264.476 199.4876)" fill="#010202" font-family="'MetaPro-Normal'" font-size="13">le</text>
	
		<text transform="matrix(1 0 0 1 277.345 199.4876)" fill="#010202" font-family="'MetaPro-Normal'" font-size="13" letter-spacing="7"> </text>
	<text transform="matrix(1 0 0 1 288.588 199.4876)" fill="#010202" font-family="'MetaPro-Normal'" font-size="13">quotidien</text>
	
		<text transform="matrix(1 0 0 1 354.692 199.4876)" fill="#010202" font-family="'MetaPro-Normal'" font-size="13" letter-spacing="7"> </text>
	<text transform="matrix(1 0 0 1 365.9341 199.4876)" fill="#010202" font-family="'MetaPro-Normal'" font-size="13">de</text>
	
		<text transform="matrix(1 0 0 1 382.73 199.4876)" fill="#010202" font-family="'MetaPro-Normal'" font-size="13" letter-spacing="7"> </text>
	<text transform="matrix(1 0 0 1 393.9731 199.4876)" fill="#010202" font-family="'MetaPro-Normal'" font-size="13">ses </text>
	<text transform="matrix(1 0 0 1 152.552 217.4876)" fill="#010202" font-family="'MetaPro-Normal'" font-size="13">auditeurs.</text>
	<rect x="460.12" y="134.827" fill="none" width="262.112" height="89.236"/>
	<text transform="matrix(1 0 0 1 460.1191 145.8066)" fill="#010202" font-family="'MetaPro-Normal'" font-size="13">Depuis</text>
	
		<text transform="matrix(1 0 0 1 507.3331 145.8066)" fill="#010202" font-family="'MetaPro-Normal'" font-size="13" letter-spacing="3"> </text>
	<text transform="matrix(1 0 0 1 514.9261 145.8066)" fill="#010202" font-family="'MetaPro-Normal'" font-size="13">la</text>
	
		<text transform="matrix(1 0 0 1 527.9001 145.8066)" fill="#010202" font-family="'MetaPro-Normal'" font-size="13" letter-spacing="3"> </text>
	<text transform="matrix(1 0 0 1 535.4931 145.8066)" fill="#010202" font-family="'MetaPro-Normal'" font-size="13">fréquence</text>
	
		<text transform="matrix(1 0 0 1 603.6241 145.8066)" fill="#010202" font-family="'MetaPro-Normal'" font-size="13" letter-spacing="3"> </text>
	<text transform="matrix(1 0 0 1 611.2171 145.8066)" fill="#010202" font-family="'MetaPro-Black'" font-size="15">101.3</text>
	
		<text transform="matrix(1 0 0 1 652.9461 145.8066)" fill="#010202" font-family="'MetaPro-Black'" font-size="15" letter-spacing="4"> </text>
	<text transform="matrix(1 0 0 1 661.5742 145.8066)" fill="#010202" font-family="'MetaPro-Black'" font-size="15">fm</text>
	
		<text transform="matrix(1 0 0 1 681.9432 145.8066)" fill="#010202" font-family="'MetaPro-Normal'" font-size="13" letter-spacing="3"> </text>
	<text transform="matrix(1 0 0 1 689.5362 145.8066)" fill="#010202" font-family="'MetaPro-Normal'" font-size="13">et</text>
	
		<text transform="matrix(1 0 0 1 703.0682 145.8066)" fill="#010202" font-family="'MetaPro-Normal'" font-size="13" letter-spacing="3"> </text>
	<text transform="matrix(1 0 0 1 710.6612 145.8066)" fill="#010202" font-family="'MetaPro-Normal'" font-size="13">le </text>
	<text transform="matrix(1 0 0 1 460.1191 163.8066)" fill="#010202" font-family="'MetaPro-Normal'" font-size="13">web</text>
	
		<text transform="matrix(1 0 0 1 487.2631 163.8066)" fill="#010202" font-family="'MetaPro-Normal'" font-size="13" letter-spacing="21"> </text>
	<text transform="matrix(1 0 0 1 512.9981 163.8066)" fill="#010202" font-family="'MetaPro-Normal'" font-size="13">player,</text>
	
		<text transform="matrix(1 0 0 1 560.5901 163.8066)" fill="#010202" font-family="'MetaPro-Normal'" font-size="13" letter-spacing="21"> </text>
	<text transform="matrix(1 0 0 1 586.3251 163.8066)" fill="#010202" font-family="'MetaPro-Normal'" font-size="13">Euradio</text>
	
		<text transform="matrix(1 0 0 1 638.5981 163.8066)" fill="#010202" font-family="'MetaPro-Normal'" font-size="13" letter-spacing="21"> </text>
	<text transform="matrix(1 0 0 1 664.3351 163.8066)" fill="#010202" font-family="'MetaPro-Normal'" font-size="13">décrypte </text>
	<text transform="matrix(1 0 0 1 460.1191 181.8066)" fill="#010202" font-family="'MetaPro-Normal'" font-size="13">l’actualité</text>
	<text transform="matrix(1 0 0 1 530.6312 181.8066)" fill="#010202" font-family="'MetaPro-Black'" font-size="15"> </text>
	<text transform="matrix(1 0 0 1 535.1262 181.8066)" fill="#010202" font-family="'MetaPro-Black'" font-size="15">locale-européenne</text>
	<text transform="matrix(1 0 0 1 686.9561 181.8066)" fill="#010202" font-family="'MetaPro-Black'" font-size="15"> </text>
	<text transform="matrix(1 0 0 1 691.4511 181.8066)" fill="#010202" font-family="'MetaPro-Normal'" font-size="13">sous </text>
	<text transform="matrix(1 0 0 1 460.1191 199.8066)" fill="#010202" font-family="'MetaPro-Normal'" font-size="13">une variété d’angles et de formats. </text>
	<rect x="127.337" y="239.063" fill="none" width="618.86" height="67.889"/>
	
		<text transform="matrix(1 0 0 1 145.3153 255.6678)" fill="#010202" font-family="'BloggerSans-Bold'" font-size="23" letter-spacing="1">Culture, débats, politique, émissions musicales, </text>
	
		<text transform="matrix(1 0 0 1 242.9143 283.2678)" fill="#010202" font-family="'BloggerSans-Bold'" font-size="23" letter-spacing="1">sujets de société, tout y passe !  </text>
</g>
</svg>
