<?xml version="1.0" encoding="utf-8"?>
<!-- Generator: Adobe Illustrator 19.2.0, SVG Export Plug-In . SVG Version: 6.00 Build 0)  -->
<svg version="1.1" id="Calque_1" xmlns="http://www.w3.org/2000/svg" xmlns:xlink="http://www.w3.org/1999/xlink" x="0px" y="0px"
	 viewBox="0 0 400.3 269.7" style="enable-background:new 0 0 400.3 269.7;" xml:space="preserve">
<style type="text/css">
	.st0{fill:#FFFFFF;}
	.st1{fill:#EDC2A2;}
	.st2{fill:#343433;}
	.st3{fill:#4A484A;}
	.st4{fill:#D84E49;}
	.st5{fill:#E1B393;}
	.st6{fill:#000100;}
	.st7{fill-rule:evenodd;clip-rule:evenodd;fill:url(#SVGID_1_);}
	.st8{fill-rule:evenodd;clip-rule:evenodd;fill:#000100;}
	.st9{fill-rule:evenodd;clip-rule:evenodd;fill:#4A484A;}
	.st10{fill-rule:evenodd;clip-rule:evenodd;fill:#374345;}
	.st11{fill-rule:evenodd;clip-rule:evenodd;fill:url(#SVGID_2_);}
	.st12{fill-rule:evenodd;clip-rule:evenodd;fill:#808083;}
	.st13{fill-rule:evenodd;clip-rule:evenodd;fill:#343433;}
	.st14{fill-rule:evenodd;clip-rule:evenodd;fill:#34B7AA;}
	.st15{fill-rule:evenodd;clip-rule:evenodd;fill:#18857F;}
	.st16{fill-rule:evenodd;clip-rule:evenodd;fill:#4AD6CB;}
	.st17{fill:#272626;}
	.st18{fill:#EDC4A0;}
	.st19{fill:#0D5898;}
	.st20{fill:#2161A7;}
	.st21{fill:#F2F2F2;}
	.st22{fill:#808080;}
	.st23{fill:#E7857B;}
	.st24{fill:#BC3C35;}
	.st25{fill:#C9C9C9;}
	.st26{fill:none;stroke:#808080;stroke-width:0.2727;stroke-miterlimit:10;}
	.st27{fill:#62ED9D;}
	.st28{fill:#D35A54;}
	.st29{fill:#B0FFF7;}
	.st30{fill:#4AD6CB;}
	.st31{fill:#0BB7A6;}
	.st32{fill:#4BD188;}
	.st33{fill:#4F5A69;}
	.st34{fill:none;stroke:#F2F2F2;stroke-width:0.2791;stroke-miterlimit:10;}
	.st35{fill:#D3CCBE;}
	.st36{fill:#9A9087;}
	.st37{fill:#C2B8A9;}
	.st38{fill:#EFE7D7;}
	.st39{fill:#F4EDE1;}
	.st40{fill:#FFD44A;}
	.st41{fill:#E67673;}
	.st42{fill:#CF3134;}
	.st43{fill:#257781;}
	.st44{fill:#F0EDD3;}
	.st45{fill:#E2E1C3;}
	.st46{fill:#445254;}
	.st47{fill:#A29783;}
	.st48{fill:#C4BB94;}
	.st49{fill:#787979;}
	.st50{fill:#F4D5A2;}
	.st51{fill:#B89557;}
	.st52{fill:none;stroke:#808080;stroke-width:0.2958;stroke-miterlimit:10;}
	.st53{fill:none;stroke:#808080;stroke-width:0.4803;stroke-miterlimit:10;}
	.st54{fill:none;stroke:#F2F2F2;stroke-width:0.5443;stroke-miterlimit:10;}
	.st55{fill:#A0988D;}
	.st56{fill:#CEC8BC;}
	.st57{fill:#ACDBEC;}
</style>
<g>
	<g>
		<g>
			<path class="st0" d="M35.6,105.8c-0.2-0.2-0.8,0.2-1.6,1.2c-0.3,0-0.5,0-0.6,0.2c-0.9,0.2-1.2-0.2-1.9-0.4c0,0.1-0.5,0.7-0.5,0.9
				c0,0.6,0,1.6,0.4,1.8c0.8,0.3,2.5,1.3,3.4,1.4c1.1,0.1,2.1,0.5,3.2,0.5c0.7,0,2.3-1.5,2.5-2.4c0.1-0.3-0.6-0.6-0.8-0.8
				c-1.2-1-2.4-1.1-3.7-2C35.9,106.1,35.8,106,35.6,105.8z"/>
			<path class="st0" d="M26.1,99.3c-0.2-0.2-0.8,0.2-1.6,1.2c-0.2,0-0.5,0-0.6,0.2c-0.9,0.2-1.2-0.1-1.9-0.4c0,0.1-0.5,0.7-0.5,0.9
				c0,0.6,0,1.6,0.4,1.8c0.8,0.3,2.6,0.3,3.5,0.4c1.1,0.1,2.1,0.5,3.2,0.5c0.7,0,2,0,2.2-0.9c0.1-0.3-0.4-1.1-0.6-1.3
				c-1.2-1-2.4-1.1-3.7-2C26.4,99.6,26.3,99.4,26.1,99.3z"/>
			<path class="st1" d="M37.8,68.1l0.6,2.2c0,0,4.8,3.6,6.5,4.8c0,0,3.1,0.6,3.1,2.3c0,1.8-2.8,2.1-4.7-0.4c0,0-5.6-2.2-6.8-3.5
				c-1.2-1.3-3-4.2-3-4.2L37.8,68.1z"/>
			<path class="st0" d="M33.4,70.4c0,0,1.4,0.1,3-0.5c1.5-0.6,2-1.1,2-1.1s-2.1-8.3-5.7-7C29.1,63.1,33.4,70.4,33.4,70.4z"/>
			<path class="st2" d="M33.6,83.6c0,0-3,9.6-4,11c-1,1.5-3.5,6-3.5,6s-3.2,1.5-4.1-0.2c0,0,0.7-5.5,2.6-7.9c0,0,1.4-9.8,2.6-10.5
				C28.3,81.4,33.6,83.6,33.6,83.6z"/>
			<path class="st3" d="M24.5,83.3c0,0-0.2,2.4,0.9,4.5c1.1,2.1,3.8,7.6,3.8,7.6l2.5,12.1c0,0,2.4,0.6,4.5-0.7c0,0-1.1-9.6-1.5-11.4
				c-0.4-1.9-3-11.3-3-11.3L24.5,83.3z"/>
			<path class="st4" d="M33.6,61.4c0,0-5.7-1.7-10.1,2.6l0.4,20.2c0,0,6,2.1,10.8-0.2l0.7-19.8C35.4,64.1,35,62.2,33.6,61.4z"/>
			<path class="st5" d="M28.3,60.3L26.6,62c0,0,1.2,3.6,3.9,2.6c2.7-1.1,0.5-3.4,0.5-3.4l0-1.8L28.3,60.3z"/>
			<g>
				<path class="st1" d="M25.4,57.8c0.1-0.1,0.2-0.2,0.3-0.2c0,0,0.1,0,0.1,0c0.2,0.1,0.3,0.2,0.5,0.4c0.2,0.3,0.3,0.6,0.3,0.8
					c0,0,0.2-0.1,0.4-0.1c0.2,0,0.3-0.1,0.3-0.2c0-0.3-0.1-0.6-0.3-1.1c-0.1-0.3-0.2-0.6-0.2-0.8c0.3,0.3,0.8,0.4,1.4,0.5
					c0,0,0.1,0,0.2,0c0.6,0,1.3-0.2,2.1-0.7c0.1-0.1,0.2-0.2,0.3-0.3c0.1-0.2,0.2-0.4,0.3-0.5c0.2-0.2,0.4-0.4,0.6-0.4
					c0.1,0,0.2,0,0.2,0.1c0,0,0-0.5,0.1-0.4c0.3-0.4,0.7,0,0.8,0.1c0.1,0,0.2,0.1,0.3,0.3c0,0,0.1,0.1,0.1,0.2c0,0.2,0,0.4,0,0.5
					c0,0,0,0,0,0.1c0,0.6,0,1.1,0,1.6c-0.1,1.4-0.4,2.6-0.9,3.5c-0.2,0.4-0.4,0.7-0.7,1c-0.2,0.2-0.4,0.4-0.7,0.6
					c-0.2,0.1-0.5,0.2-0.7,0.2h0c-0.5,0-0.9-0.1-1.3-0.2c-0.1,0-0.2-0.1-0.3-0.1c-0.7-0.4-1.3-1.1-1.8-2.1c-0.1-0.2-0.2-0.5-0.3-0.8
					c-0.1,0.1-0.2,0.2-0.3,0.2c0,0,0,0,0,0c-0.2,0-0.4-0.2-0.6-0.6c-0.2-0.4-0.3-0.7-0.3-0.9c0,0,0-0.1,0-0.1
					C25.2,58.1,25.2,57.9,25.4,57.8z"/>
				<path class="st6" d="M28.5,51.3c-0.6,0-1.1,0.1-1.7,0.2c-0.7,0.1-1.4,0.6-1.7,1.2c-0.4,0.8-0.6,1.5-0.6,2.2c0,0.7,0,1.2,0.1,1.5
					c0.2,0.6,0.4,1.3,0.5,1.9l0,0v-0.1c0,0,0-0.1,0-0.1c0-0.2,0.1-0.3,0.2-0.5c0.1-0.1,0.2-0.2,0.3-0.2c0,0,0.1,0,0.1,0
					c0.2,0.1,0.3,0.2,0.5,0.4c0.2,0.3,0.3,0.6,0.3,0.8c0,0,0.2-0.1,0.4-0.1c0.2,0,0.3-0.1,0.3-0.2c0-0.3-0.1-0.6-0.3-1.1
					c-0.1-0.3-0.2-0.6-0.2-0.8c0,0.2,0.6,0.3,0.8,0.4c0.3,0.1,0.7,0.1,1,0.1c0.9-0.1,1.6-0.6,2.4-1c0.3-0.2,0.7-0.3,0.9-0.5
					c0.2-0.2,0.5-0.7,0.8-0.5c0.1,0,0.2,0.1,0.3,0.3c0,0,0.1,0.1,0.1,0.2c0,0.2,0,0.4,0,0.5c0,0,0,0,0,0.1c0,0.6,0,1.1,0,1.6
					c0,0,0.3-0.3,0.4-0.3c0.2-0.2,0.3-0.4,0.4-0.7c0.4-0.9,0.3-1.5,0-2.5c-0.2-0.8-0.8-1.3-1.5-1.8c-0.8-0.6-1.7-1.1-2.8-1.1
					C29.3,51.3,28.9,51.3,28.5,51.3z"/>
			</g>
			<g>
				
					<linearGradient id="SVGID_1_" gradientUnits="userSpaceOnUse" x1="44.0942" y1="106.9247" x2="41.8893" y2="108.3025" gradientTransform="matrix(0.9998 -1.840000e-02 1.840000e-02 0.9998 -5.3485 4.2854)">
					<stop  offset="0" style="stop-color:#374345"/>
					<stop  offset="1" style="stop-color:#101611"/>
				</linearGradient>
				<path class="st7" d="M40.3,110.8c-0.3-0.6-0.8-1.1-1.4-1.4c-0.5-0.3-1-0.3-1.3-0.1c-0.9,0.5-1,0.6-1.9,1.1
					c-0.3,0.2-0.5,0.6-0.5,1.2c0,0.6,0.2,1.3,0.6,1.8c0.4,0.6,0.8,1.1,1.4,1.4c0.5,0.3,1,0.3,1.3,0.1c0.9-0.5,1-0.6,1.9-1.1
					c0.3-0.2,0.5-0.6,0.5-1.2C40.8,112,40.6,111.4,40.3,110.8z"/>
				<path class="st8" d="M37.1,110.5c-1.1-0.6-1.9-0.1-1.9,1.1c0,1.2,0.9,2.6,1.9,3.2c1,0.6,1.9,0.1,1.9-1.1
					C39,112.5,38.1,111.1,37.1,110.5z"/>
				<polygon class="st8" points="37.2,102.2 37.4,112.6 40.4,114.3 40.2,103.8 				"/>
				<polygon class="st9" points="42.7,98.9 37.2,102.2 40.2,103.8 45.7,100.6 				"/>
				<g>
					<polygon class="st8" points="82.4,125.4 82.4,125.2 82.3,125 82.2,124.9 82,124.7 81.9,124.6 81.7,124.5 52,108.1 47.5,110.8 
						47.5,112.8 77.1,129.2 77.2,129.3 77.4,129.3 77.5,129.3 77.6,129.4 77.7,129.4 77.8,129.5 78,129.5 78.1,129.5 78.2,129.5 
						78.4,129.5 78.5,129.6 78.6,129.6 78.8,129.6 78.9,129.6 79.1,129.6 79.2,129.6 79.4,129.5 79.5,129.5 79.7,129.5 79.8,129.5 
						80,129.5 80.1,129.4 80.2,129.4 80.4,129.4 80.5,129.3 80.7,129.3 80.8,129.2 80.9,129.2 81.1,129.1 81.2,129.1 81.3,129 
						81.4,128.9 81.4,128.9 81.7,128.8 81.9,128.7 82,128.5 82.2,128.3 82.3,128.2 82.4,128 82.4,127.8 82.5,127.7 82.5,127.5 
						82.4,125.5 					"/>
					<path class="st9" d="M81.7,124.5L52,108.1l-4.6,2.8l29.6,16.4c1.1,0.6,3,0.4,4.3-0.3l0,0C82.7,126.3,82.8,125.1,81.7,124.5z"/>
				</g>
				<g>
					<polygon class="st8" points="70.4,132.6 70.3,132.4 70.2,132.3 70.1,132.1 70,132 69.8,131.9 69.6,131.7 40,115.3 35.4,118.1 
						35.4,120.1 65.1,136.5 65.2,136.5 65.3,136.6 65.4,136.6 65.5,136.6 65.7,136.7 65.8,136.7 65.9,136.7 66.1,136.8 66.2,136.8 
						66.3,136.8 66.5,136.8 66.6,136.8 66.7,136.8 66.9,136.8 67,136.8 67.2,136.8 67.3,136.8 67.5,136.8 67.6,136.8 67.8,136.7 
						67.9,136.7 68,136.7 68.2,136.6 68.3,136.6 68.5,136.6 68.6,136.5 68.7,136.5 68.9,136.4 69,136.4 69.1,136.3 69.3,136.3 
						69.4,136.2 69.4,136.2 69.6,136.1 69.8,135.9 70,135.8 70.1,135.6 70.3,135.4 70.3,135.3 70.4,135.1 70.4,134.9 70.4,134.8 
						70.4,132.8 					"/>
					<path class="st9" d="M69.6,131.7L40,115.3l-4.6,2.8l29.6,16.4c1.1,0.6,3,0.4,4.3-0.3l0,0C70.7,133.5,70.7,132.3,69.6,131.7z"/>
				</g>
				<g>
					<polygon class="st8" points="45.8,71.7 45.9,72.5 43.1,80.4 42.6,82.7 44.8,81.8 47.7,73.3 47.7,72.4 					"/>
					<polygon class="st8" points="39.7,83.8 40,103.8 41.4,104.6 41.1,84.6 					"/>
					<path class="st10" d="M43.1,82.3c-0.7-0.4-1.9-0.4-2.7,0c-0.7,0.4-0.7,1.1,0,1.5c0.7,0.4,1.9,0.4,2.7,0
						C43.9,83.4,43.9,82.7,43.1,82.3z"/>
					<polygon class="st8" points="37.8,80.5 35.9,79.7 39.2,84.6 40.6,85.4 					"/>
					
						<linearGradient id="SVGID_2_" gradientUnits="userSpaceOnUse" x1="45.7811" y1="77.7969" x2="45.2365" y2="76.0155" gradientTransform="matrix(0.9998 -1.840000e-02 1.840000e-02 0.9998 -5.3485 4.2854)">
						<stop  offset="0" style="stop-color:#374345"/>
						<stop  offset="1" style="stop-color:#101611"/>
					</linearGradient>
					<polygon class="st11" points="43.1,80.4 39.6,82.5 41,83.3 44.5,81.2 					"/>
					<polygon class="st8" points="40.8,76.3 40.9,81.8 42.3,82.5 42.6,75 					"/>
					<polygon class="st12" points="48,70.2 46.6,69.4 36.4,75.5 36.3,75.6 36.2,75.7 36.1,75.9 36,76 35.9,76.1 35.9,76.3 
						35.8,76.4 35.8,76.6 35.9,79.7 37.3,80.5 37.2,77.4 37.2,77.2 37.3,77.1 37.3,76.9 37.4,76.8 37.5,76.6 37.6,76.5 37.7,76.4 
						37.8,76.3 					"/>
					<polygon class="st9" points="47,69.5 47,69.5 46.9,69.4 46.8,69.4 46.7,69.4 46.7,69.4 46.6,69.4 46.5,69.5 46.4,69.5 
						41.6,72.4 36.4,75.5 36.3,75.6 36.2,75.7 36.1,75.9 36,76 35.9,76.1 35.9,76.3 35.8,76.4 35.8,76.6 35.9,79.7 37.7,80.9 
						37.7,77.8 37.7,77.6 37.7,77.4 37.8,77.3 37.8,77.1 37.9,77 38,76.9 38.1,76.8 38.3,76.7 43,73.2 47.8,70.3 47.9,70.3 48,70.2 
						48.1,70.2 48.1,70.2 48.2,70.2 48.3,70.2 48.4,70.2 48.4,70.3 					"/>
					<path class="st13" d="M48.4,70.3c-0.2-0.1-0.4-0.1-0.6,0L43,73.2l-5.1,3.1c-0.4,0.2-0.6,0.6-0.6,1.1l0.1,3.1l3.3,4.9l0.5-0.3
						l0.3,18.2l3.4-2.1L44.5,83l1.2-0.8l1.5-4.3l1.5-4.3l-0.1-2.8C48.8,70.6,48.6,70.4,48.4,70.3z M38.8,80l0-2.5l3.4-2l0.1,7
						L41,83.3L38.8,80z M47.3,73.3l-2.8,7.9L43.2,82l-0.1-7l4.1-2.5L47.3,73.3z"/>
				</g>
				<g>
					<polygon class="st14" points="51.1,101.2 43.6,105.7 39.3,118.2 39.3,120.2 55.9,110.2 55.9,108.2 					"/>
					<polygon class="st15" points="35.4,116.1 35.4,118.1 39.3,120.2 39.3,118.2 					"/>
					<polygon class="st15" points="39.8,103.6 35.4,116.1 39.3,118.2 43.6,105.7 					"/>
					<polygon class="st16" points="47.2,99.1 39.8,103.6 43.6,105.7 51.1,101.2 					"/>
				</g>
			</g>
			<path class="st1" d="M28.6,70.3l0.6,2.2c0,0,4.8,3.6,6.5,4.8c0,0,3.1,0.6,3.1,2.3c0,1.8-2.8,2.1-4.7-0.4c0,0-5.6-2.2-6.8-3.5
				c-1.2-1.3-3-4.2-3-4.2L28.6,70.3z"/>
			<path class="st0" d="M24.2,72.6c0,0,1.4,0.1,3-0.5c1.5-0.6,2-1.1,2-1.1s-2.1-8.3-5.7-7C19.9,65.3,24.2,72.6,24.2,72.6z"/>
		</g>
	</g>
	<g>
		<path class="st6" d="M107.9,88.5c-0.3-0.2-0.8,0.2-1.7,1.2c-0.3,0-0.5,0-0.7,0.2c-0.9,0.2-1.3-0.2-2-0.4c0,0.1-0.5,0.7-0.6,0.9
			c-0.1,0.6,0,1.7,0.4,1.9c0.8,0.4,2.7,0.3,3.6,0.4c1.1,0.2,2.2,0.5,3.4,0.6c0.7,0,2.4-0.5,2.6-1.4c0.1-0.3-0.6-0.7-0.8-0.9
			c-1.2-1.1-2.5-1.2-3.8-2.2C108.2,88.8,108.1,88.7,107.9,88.5z"/>
		<path class="st6" d="M98.2,81.6c-0.3-0.2-0.8,0.2-1.7,1.2c-0.3,0-0.5,0-0.7,0.1c-0.9,0.2-1.3-0.2-2-0.4c0,0.1-0.5,0.7-0.6,0.9
			c-0.1,0.6,0,1.7,0.4,1.9c0.8,0.4,2.7,0.3,3.6,0.4c1.1,0.2,2.2,0.5,3.4,0.6c0.7,0,2.1,0.1,2.3-0.8c0.1-0.3-0.4-1.2-0.6-1.4
			C101.2,83,100,83,98.7,82C98.5,81.9,98.4,81.7,98.2,81.6z"/>
		<path class="st1" d="M110.9,49.3l0.5,2.3c0,0,4.9,3.8,6.7,5.1c0,0,3.3,0.7,3.2,2.5c-0.1,1.8-2.9,2.1-4.9-0.5c0,0-5.8-2.4-7.1-3.8
			c-1.2-1.3-3-4.4-3-4.4L110.9,49.3z"/>
		<path class="st2" d="M106.4,51.7c0,0,1.4,0.1,3.1-0.5c1.6-0.6,2.1-1.2,2.1-1.2s-2.1-8.6-5.8-7.3C102,44,106.4,51.7,106.4,51.7z"/>
		<path class="st2" d="M106.3,65.4c0,0-3.3,9.9-4.3,11.4c-1,1.5-3.8,6.2-3.8,6.2s-3.3,1.4-4.2-0.3c0,0,0.8-5.7,2.8-8.2
			c0,0,1.7-10.1,2.9-10.9C100.8,63,106.3,65.4,106.3,65.4z"/>
		<path class="st3" d="M96.8,64.9c0,0-0.3,2.4,0.8,4.7c1.1,2.2,3.8,8,3.8,8l2.4,12.6c0,0,2.5,0.6,4.7-0.6c0,0-0.9-10-1.3-11.9
			c-0.4-2-2.9-11.8-2.9-11.8L96.8,64.9z"/>
		<path class="st4" d="M106.7,42.3c0,0-5.9-1.9-10.5,2.5v21.1c0,0,6.2,2.3,11.3,0l1.1-20.6C108.5,45.2,108.1,43.1,106.7,42.3z"/>
		<path class="st5" d="M101.2,41l-1.8,1.8c0,0,1.2,3.8,4,2.8c2.8-1,0.6-3.6,0.6-3.6v-1.9L101.2,41z"/>
		<g>
			<path class="st1" d="M98.2,38.4c0.1-0.1,0.2-0.2,0.3-0.2c0,0,0.1,0,0.1,0c0.2,0.1,0.3,0.2,0.5,0.5c0.2,0.3,0.3,0.6,0.3,0.8
				c0,0,0.2-0.1,0.4-0.1c0.2,0,0.3-0.1,0.3-0.2c0-0.3-0.1-0.7-0.2-1.2c-0.1-0.3-0.2-0.6-0.2-0.8c0.1,0.4-1.4-1.6-1.1-1.6
				c0.8,0,1.8-0.2,2.4-0.8c0.3-0.3,2.2-0.8,2.7-0.2c0-0.3,1.4,0.9,1.7,0.9c0.2,0,0.3,0.2,0.5,0.2c0.1,0,0.2,0.1,0.3,0.3
				c0,0,0.1,0.1,0.1,0.2c0,0.2,0,0.4,0,0.6c0,0,0,0,0,0.1c0,0.6,0,1.1-0.1,1.6c-0.1,1.5-0.5,2.7-1,3.7c-0.2,0.4-0.4,0.7-0.7,1
				c-0.2,0.2-0.5,0.4-0.7,0.6c-0.2,0.1-0.5,0.2-0.8,0.2c-0.5,0-0.9-0.1-1.3-0.3c-0.1,0-0.2-0.1-0.3-0.2c-0.7-0.4-1.3-1.2-1.8-2.2
				c-0.1-0.3-0.2-0.5-0.3-0.8c-0.1,0.1-0.2,0.2-0.3,0.2c0,0,0,0,0,0c-0.2,0-0.4-0.2-0.6-0.7c-0.2-0.4-0.3-0.7-0.3-1c0,0,0-0.1,0-0.1
				C98,38.7,98.1,38.5,98.2,38.4z"/>
			<path class="st17" d="M101.6,31.7c-1.9-0.1-1.9,0.7-2.2,0.8c-0.5,0.2-0.8-0.2-1.4,0.6c-0.5,0.7-0.6,1.5-0.6,2.2
				c0,0.7,0,1.2,0.1,1.6c0.2,0.7,0.3,1.3,0.5,2l0,0v-0.1c0,0,0-0.1,0-0.1c0-0.2,0.1-0.3,0.2-0.5c0.1-0.1,0.2-0.2,0.3-0.2
				c0,0,0.1,0,0.1,0c0.2,0.1,0.3,0.2,0.5,0.5c0.2,0.3,0.3,0.6,0.3,0.8c0,0,0.2-0.1,0.4-0.1c0.2,0,0.3-0.1,0.3-0.2
				c0-0.3-0.1-0.7-0.2-1.2c-0.1-0.3-0.2-0.6-0.2-0.8c2.2,1.3,6.6-1.1,6.6-1c0,0.2,0,0.4,0,0.6c0,0,0,0,0,0.1c0,0.6,0,1.1-0.1,1.6
				c0,0,0.4-0.3,0.4-0.3c0.2-0.2,0.3-0.5,0.4-0.7c0.5-0.9,0.3-1.6,0.1-2.6c-0.2-0.8-0.8-1.4-1.5-1.9c-0.9-0.6-1.8-1.2-2.8-1.2
				C102.4,31.7,102,31.8,101.6,31.7z"/>
		</g>
		<path class="st1" d="M101.3,51.4l0.5,2.3c0,0,4.9,3.8,6.7,5.1c0,0,3.3,0.7,3.2,2.5c-0.1,1.8-2.9,2.1-4.9-0.5c0,0-5.8-2.4-7.1-3.8
			c-1.2-1.3-3-4.4-3-4.4L101.3,51.4z"/>
		<path class="st2" d="M96.7,53.8c0,0,1.4,0.1,3.1-0.5c1.6-0.6,2.1-1.2,2.1-1.2s-2.1-8.6-5.8-7.3C92.4,46.1,96.7,53.8,96.7,53.8z"/>
	</g>
	<g>
		<g>
			<path class="st6" d="M348.6,99.9c-1.7,1-3.7,1.8-5.3,3c-0.2,0.2-0.5,0.4-0.5,0.8c0.2,1.1,1.9,1.3,2.8,1.3c1.5,0,2.8-0.7,4.2-0.8
				c1.1,0,2.3-0.3,3.3-0.6c0.6-0.2,1.9-0.6,1.9-1.3c0-0.3,0-0.5-0.1-0.6c-0.9,0.2-1.9,0.1-3-0.3c-0.2-0.2-0.5-0.3-0.8-0.3
				c-0.9-1.3-1.6-1.8-1.9-1.7C349,99.6,348.8,99.7,348.6,99.9z"/>
			<path class="st6" d="M361.9,106c-0.1,0.8,0,1.7,0,2.5c0,1.1,0.3,2.1,1.2,2.7c0.7,0.5,1.3,0.6,2.1,0.5c0.8-0.1,1.6-0.4,2.1-1.2
				c0.5-1,0.7-2.4,0.6-3.5c0-0.5-0.1-0.9-0.1-1.4c0-0.2-0.1-1.4,0-1.4c-0.1,0.1-0.4,0.1-0.9,0.1c-0.5,0-1.1,0-2,0.1
				c-0.1,0-0.2,0-0.3,0c-1,0.1-1.8-0.1-2.3-0.7c-0.1-0.1-0.1-0.2-0.2-0.2C362.5,103.9,362,105.5,361.9,106z"/>
			<path class="st18" d="M353.3,52.6c0,0-0.5,3.9-0.3,6.3c0.2,2.4,2.6,8.7,2.6,8.7s0.8,1.2,1.6,0c0.9-1.2-0.3-4.4-1.6-5.8v-8.3
				L353.3,52.6z"/>
			<path class="st19" d="M354.2,72.8l-2.1,14.3l-2.9,12.6c0,0,1.7,3.2,5.6,2.1l7.8-27.4l-1.9-4.1L354.2,72.8z"/>
			<path class="st20" d="M368.9,71.6l-0.7,32.6c0,0-3.9,1.9-6.2-0.2l-2.2-35.5L368.9,71.6z"/>
			<path class="st4" d="M357.8,46.5c0,0,5.9,0.3,12.1,5.6l4,6.4c0,0-2.6,2.1-5.6,1.4l0.7,12.8c0,0-3.7-1-7.3,0.4
				c-3.6,1.4-5.5,1.6-7.7,1.3l1.6-20.8l-2.3-1C353.3,52.6,354,48.7,357.8,46.5z"/>
			<path class="st1" d="M373.3,58.9c0,0,1.5,4.8,0.4,7.6c-1.1,2.8-6.4,9.3-6.4,9.3s-1.1-0.4-1.6-0.9c-0.8-0.9-0.8-1.5-0.8-1.5
				s4-6.5,4.9-8c0.9-1.4-0.8-5.3-0.8-5.3s1.1,0.1,2-0.1C371.6,59.7,373.3,58.9,373.3,58.9z"/>
			<path class="st5" d="M365,45.1v3.7c0,0-1.6,4.8-4.6,3.7c-2.9-1.1,0.3-5.4,0.3-5.4v-1.9H365z"/>
			<g>
				<path class="st6" d="M363.1,35.9c0.4-0.1,1-0.1,2-0.1c1,0.1,1.7,0.5,2.2,1.5c0.5,0.9,0.7,1.8,0.7,2.6c0,0.8,0,1.5-0.1,1.9
					c-0.2,0.8-0.4,1.6-0.6,2.3l0,0.1V44c0,0,0-0.1,0-0.1c0-0.2-0.1-0.4-0.2-0.6c-0.1-0.2-0.3-0.2-0.4-0.2c0,0-0.1,0-0.1,0
					c-0.2,0.1-0.4,0.2-0.6,0.5c-0.2,0.4-0.3,0.7-0.3,1c0,0-0.2-0.1-0.5-0.1c-0.2,0-0.4-0.1-0.4-0.3c0-0.3,0.1-0.8,0.3-1.3
					c0.1-0.4,0.2-0.7,0.3-1c-0.4,0.3-1,0.6-1.7,0.6c-0.1,0-0.1,0-0.2,0c-0.7,0-1.6-0.2-2.5-0.8c-0.1-0.1-0.2-0.2-0.4-0.3
					c-0.1-0.3-0.3-0.5-0.3-0.6c-0.2-0.3-0.5-0.4-0.8-0.4c-0.1,0-0.2,0-0.3,0.1c0,0-0.1,0.1-0.2,0.2c-0.4-0.5-0.7-0.7-0.9-0.6
					c-0.1,0.1-0.2,0.2-0.4,0.3c0,0.1-0.1,0.1-0.1,0.2c0,0.2,0,0.5,0,0.7c0,0,0,0,0,0.1c0,0.7,0,1.3,0.1,1.9
					c-0.4-0.2-0.9-0.9-1.4-2.2c0-0.2,0-0.3,0-0.3c0.2-0.5,0.3-0.9,0.3-1.2c0-0.1,0-0.5-0.1-1.1c0-0.1,0.1-0.2,0.2-0.2
					c0.1,0,0.2-0.1,0.3-0.1c0.1,0,0.2-0.1,0.5-0.4c0.5-0.5,1.3-1.1,2.3-1.7c1-0.6,1.7-0.9,2.1-0.9c0.3,0,0.5,0.1,0.8,0.4
					c0.1,0.1,0.2,0.1,0.2,0.2C362.9,35.9,363,35.9,363.1,35.9L363.1,35.9z"/>
				<path class="st1" d="M367.1,43.4c-0.1-0.2-0.3-0.2-0.4-0.2c0,0-0.1,0-0.1,0c-0.2,0.1-0.4,0.2-0.6,0.5c-0.2,0.4-0.3,0.7-0.3,1
					c0,0-0.2-0.1-0.5-0.1c-0.2,0-0.4-0.1-0.4-0.3c0-0.3,0.1-0.8,0.3-1.3c0.1-0.4,0.2-0.7,0.3-1c-0.4,0.3-1,0.6-1.7,0.6
					c-0.1,0-0.1,0-0.2,0c-0.7,0-1.6-0.2-2.5-0.8c-0.1-0.1-0.2-0.2-0.4-0.3c-0.1-0.3-0.3-0.5-0.3-0.6c-0.2-0.3-0.5-0.4-0.8-0.4
					c-0.1,0-0.2,0-0.3,0.1c0,0-0.1,0.1-0.2,0.2c-0.4-0.5-0.7-0.7-0.9-0.6c-0.1,0.1-0.2,0.2-0.4,0.3c0,0.1-0.1,0.1-0.1,0.2
					c0,0.2,0,0.5,0,0.7c0,0,0,0,0,0.1c0,0.7,0,1.3,0.1,1.9c0.2,1.7,0.5,3.1,1.2,4.3c0.3,0.5,0.5,0.9,0.8,1.2
					c0.3,0.3,0.5,0.5,0.8,0.7c0.3,0.1,0.6,0.2,0.9,0.2h0c0.5,0,1.1-0.1,1.5-0.3c0.1-0.1,0.2-0.1,0.3-0.2c0.8-0.5,1.5-1.4,2.1-2.6
					c0.2-0.3,0.3-0.6,0.4-0.9c0.1,0.1,0.2,0.2,0.3,0.2c0,0,0,0,0.1,0c0.2,0,0.5-0.3,0.7-0.8c0.2-0.4,0.3-0.8,0.4-1.1
					c0,0,0-0.1,0-0.1C367.3,43.8,367.2,43.6,367.1,43.4z"/>
			</g>
		</g>
	</g>
	<g>
		<path class="st6" d="M17.1,206.4c-0.3-0.2-1,0.2-2,1.4c-0.3,0-0.6,0-0.8,0.2c-1.1,0.3-1.5-0.2-2.3-0.5c-0.1,0.1-0.6,0.8-0.6,1
			c-0.1,0.7,0,2,0.5,2.2c1,0.4,3.1,0.4,4.2,0.5c1.3,0.2,2.5,0.6,3.9,0.7c0.8,0.1,2.8-0.5,3-1.6c0.1-0.3-0.7-0.8-1-1
			c-1.4-1.3-2.9-1.4-4.4-2.5C17.4,206.7,17.3,206.5,17.1,206.4z"/>
		<path class="st6" d="M5.7,198.3c-0.3-0.2-1,0.3-2,1.4c-0.3,0-0.6,0-0.8,0.2c-1.1,0.3-1.5-0.2-2.3-0.5c-0.1,0.1-0.6,0.8-0.7,1
			c-0.1,0.7,0,2,0.5,2.2c1,0.4,3.1,0.4,4.2,0.5c1.3,0.2,2.5,0.6,3.9,0.7c0.8,0.1,2.5,0.1,2.7-1c0.1-0.3-0.5-1.4-0.7-1.6
			c-1.4-1.3-2.9-1.4-4.4-2.5C6.1,198.6,5.9,198.4,5.7,198.3z"/>
		<path class="st1" d="M20.6,160.6l0.6,2.7c0,0,5.7,4.4,7.8,6c0,0,3.8,0.8,3.7,2.9c-0.1,2.1-3.4,2.5-5.7-0.6c0,0-6.8-2.8-8.2-4.4
			c-1.5-1.6-3.5-5.2-3.5-5.2L20.6,160.6z"/>
		<path class="st0" d="M15.3,163.3c0,0,1.7,0.1,3.6-0.6c1.9-0.7,2.5-1.3,2.5-1.3s-2.4-10.1-6.8-8.6
			C10.2,154.3,15.3,163.3,15.3,163.3z"/>
		<path class="st2" d="M15.2,179.4c0,0-3.9,11.5-5.1,13.3c-1.2,1.8-4.4,7.3-4.4,7.3s-3.9,1.7-4.9-0.3c0,0,0.9-6.7,3.3-9.6
			c0,0,2-11.9,3.3-12.7C8.8,176.5,15.2,179.4,15.2,179.4z"/>
		<path class="st3" d="M4.1,178.8c0,0-0.3,2.9,0.9,5.4c1.3,2.6,4.4,9.3,4.4,9.3l2.8,14.8c0,0,3,0.7,5.5-0.7c0,0-1.1-11.6-1.6-13.9
			c-0.5-2.3-3.4-13.9-3.4-13.9L4.1,178.8z"/>
		<path class="st4" d="M15.6,152.3c0,0-6.9-2.2-12.3,2.9v24.6c0,0,7.2,2.7,13.2,0l1.3-24.1C17.7,155.7,17.3,153.3,15.6,152.3z"/>
		<path class="st5" d="M9.2,150.9L7.1,153c0,0,1.4,4.4,4.7,3.2c3.3-1.2,0.7-4.2,0.7-4.2v-2.2L9.2,150.9z"/>
		<path class="st1" d="M9.3,163l0.6,2.7c0,0,5.7,4.4,7.8,6c0,0,3.8,0.8,3.7,2.9c-0.1,2.1-3.4,2.5-5.7-0.6c0,0-6.8-2.8-8.2-4.4
			c-1.5-1.6-3.5-5.2-3.5-5.2L9.3,163z"/>
		<path class="st0" d="M4,165.7c0,0,1.7,0.1,3.6-0.6c1.9-0.7,2.5-1.4,2.5-1.4s-2.4-10.1-6.8-8.6C-1.1,156.7,4,165.7,4,165.7z"/>
		<g>
			<path class="st1" d="M5.2,147.5C5.2,147.5,5.2,147.5,5.2,147.5c0.1-0.2,0.2-0.3,0.3-0.3c0.1,0,0.1-0.1,0.2-0.1c0,0,0.1,0,0.1,0
				c0.2,0,0.4,0.2,0.5,0.3c0.1,0.1,0.1,0.1,0.2,0.2c0.3,0.4,0.5,1,0.6,1.7c0.3,0.2,0.5,0.3,0.6,0.3c0-0.3,0.1-0.6,0.1-1
				c0-0.2,0-0.5,0-0.9c0-0.1,0-0.2,0-0.3c0-0.2,0-0.5,0-0.7l-0.5-1.2c0-0.5,0.1-0.9,0.4-1.4c0.3-0.4,0.6-0.6,0.9-0.7
				c0,0,0.1,0,0.1,0l0.3,0c0.4,0.3,1,0.6,1.8,1c0.8,0.4,1.6,0.6,2.5,0.6c0.8,0,1.4-0.2,1.7-0.5c0.3-0.3,0.5-0.5,0.5-0.7
				c0.2,0.6,0.2,0.9,0.2,1.2c0,0.4,0,0.9,0,1.5l0,0.8c-0.1,1.8-0.3,3.1-0.6,3.9c-0.3,0.8-0.6,1.4-0.9,1.8c0,0,0,0,0,0l0,0
				c-0.1,0.2-0.3,0.3-0.4,0.4c-0.1,0.1-0.2,0.2-0.3,0.3c-0.1,0-0.1,0.1-0.2,0.1c-0.1,0-0.2,0.1-0.3,0.1c-0.1,0-0.2,0.1-0.3,0.1
				c-0.2,0.1-0.5,0.1-0.8,0.1c-0.5,0-1-0.1-1.5-0.2c-0.7-0.3-1.4-0.7-2-1.4c-0.4-0.4-0.8-1-1.2-1.6c-0.2-0.3-0.4-0.7-0.6-1
				c-0.1,0.1-0.1,0.2-0.2,0.2c0,0,0,0,0,0c0,0-0.1,0-0.1,0c0,0,0,0-0.1,0c-0.3,0-0.6-0.3-0.9-0.8c-0.3-0.5-0.4-0.9-0.5-1.2
				c0,0,0,0,0-0.1c0,0,0-0.1,0-0.1C5,147.9,5.1,147.7,5.2,147.5z"/>
			<path class="st6" d="M7.8,144.1c0.3-0.4,0.6-0.6,0.9-0.7c0,0,0.1,0,0.1,0l0.3,0c0.4,0.3,1,0.6,1.8,1c0.8,0.4,1.6,0.6,2.5,0.6
				c0.8,0,1.4-0.2,1.7-0.5c0.3-0.3,0.5-0.5,0.5-0.7c-0.1-0.3-0.2-0.6-0.4-1c-0.1-0.2-0.2-0.4-0.3-0.6c-0.8-1.4-2.5-2.1-5-2.1
				c-2.4,0.2-3.9,1.6-4.4,4.3c-0.2,0.8-0.2,1.7-0.1,2.8c0.1,0,0.1-0.1,0.2-0.1c0,0,0.1,0,0.1,0c0.2,0,0.4,0.2,0.5,0.3
				c0.1,0.1,0.1,0.1,0.2,0.2c0.3,0.4,0.5,1,0.6,1.7c0.3,0.2,0.5,0.3,0.6,0.3c0-0.3,0.1-0.6,0.1-1c0-0.2,0-0.5,0-0.9
				c0-0.1,0-0.2,0-0.3c0-0.2,0-0.5,0-0.7l-0.5-1.2C7.4,145,7.5,144.6,7.8,144.1L7.8,144.1z"/>
		</g>
	</g>
	<g>
		<g>
			<g>
				<path class="st1" d="M304,21.8l0,2.3c0,0,3.8,4.8,5.2,6.5c0,0,3,1.4,2.5,3.1c-0.5,1.7-3.3,1.4-4.5-1.6c0,0-5-3.7-5.9-5.3
					c-0.9-1.6-1.9-4.9-1.9-4.9L304,21.8z"/>
				<path class="st0" d="M299,22.9c0,0,1.3,0.4,3.1,0.2c1.7-0.2,2.3-0.6,2.3-0.6s0.1-8.8-3.8-8.4C296.7,14.5,299,22.9,299,22.9z"/>
			</g>
			<path class="st0" d="M303.1,58.3c-0.2-0.2-0.8,0.1-1.9,0.8c-0.2-0.1-0.5-0.1-0.7,0c-0.9,0-1.2-0.4-1.8-0.8
				c-0.1,0.1-0.6,0.5-0.7,0.8c-0.2,0.6-0.4,1.6,0,1.9c0.7,0.5,2.5,0.8,3.4,1.1c1.1,0.4,2,0.9,3.1,1.2c0.6,0.2,2.4,0,2.7-0.8
				c0.1-0.3-0.5-0.8-0.6-1c-0.9-1.3-2.2-1.6-3.2-2.8C303.3,58.6,303.2,58.4,303.1,58.3z"/>
			<path class="st0" d="M293.5,51.5c-0.2-0.2-0.8,0-1.9,0.8c-0.2-0.1-0.5-0.1-0.7,0c-0.9,0-1.2-0.4-1.8-0.8
				c-0.1,0.1-0.7,0.5-0.7,0.7c-0.2,0.6-0.4,1.6,0,1.9c0.7,0.5,2.5,0.9,3.4,1.2c1.1,0.4,2,1,3.1,1.3c0.6,0.2,2,0.5,2.4-0.3
				c0.1-0.3-0.1-1.2-0.3-1.4c-0.9-1.3-2.1-1.7-3.2-2.9C293.8,51.8,293.7,51.6,293.5,51.5z"/>
			<path class="st19" d="M301,35.4c0,0-3.3,9.7-4.3,11.2c-1,1.5-3.7,6.1-3.7,6.1s-3.3,1.4-4.2-0.3c0,0,0.8-5.6,2.8-8.1
				c0,0,1.7-10,2.8-10.7C295.6,33,301,35.4,301,35.4z"/>
			<path class="st20" d="M291.6,35c0,0-0.3,2.4,0.8,4.6c1.1,2.2,3.7,7.9,3.7,7.9l2.3,12.5c0,0,2.5,0.6,4.7-0.6c0,0-0.9-9.8-1.3-11.8
				c-0.4-1.9-2.9-11.7-2.9-11.7L291.6,35z"/>
			<path class="st4" d="M301.6,14.2c0,0-6.1-3.5-10.6,0.9v20.7c0,0,6.1,2.3,11.1,0l1.1-18C303.2,17.8,303,15.1,301.6,14.2z"/>
			<path class="st5" d="M296,11.4l-0.6,1.9c0,0,0,3.7,2.8,2.8c1.8-0.6,0.9-2.9,0.9-2.9l-0.3-2.7L296,11.4z"/>
			<g>
				<path class="st1" d="M291.5,22.6l-1.4,1.9c0,0,0.2,6.1,0.3,8.3c0,0,1.5,2.9,0.1,4c-1.4,1.1-3.4-0.9-2.7-4c0,0-1.8-5.9-1.6-7.7
					c0.2-1.8,1.5-5.1,1.5-5.1L291.5,22.6z"/>
				<path class="st0" d="M286.9,20.6c0,0,0.8,1.2,2.3,2c1.5,0.8,2.2,0.9,2.2,0.9s5.3-7,1.9-9C290,12.5,286.9,20.6,286.9,20.6z"/>
			</g>
			<g>
				<path class="st17" d="M302.3,5.4c0,0,0.8-1.8-1.9-3c-2.7-1.2-7-0.9-7.8,2.4c-0.9,3.3,0.5,7.1,3.1,7.3
					C298.3,12.2,302.3,5.4,302.3,5.4z"/>
				<path class="st1" d="M295.1,10.4c-0.6-0.7-1.6-2.7-0.8-3.2c1.2-0.9,1.6,1.3,1.6,1.3c0.1-1.2,2.8-2.4,4.3-2.8
					C301.6,5.3,302,4,302,4c0.6,1.2-0.2,3.6-0.6,6.4c-0.2,1.5-0.7,2.3-1.2,2.8c-0.6,0.2-1.5,0.6-2.7-0.2c-0.8-0.5-1.5-1.3-2.1-1.9
					C295.3,10.8,295.2,10.6,295.1,10.4z"/>
				<path class="st17" d="M295.2,2c0,0-0.7-1.4-2.1-1.9c-1.4-0.5-3.4-0.1-3.5,2.3c-0.1,2.5-0.2,8.5-2.5,9.6c0,0,1.6-0.3,2.1-1.2
					c0,0,0,1.6-1.4,2.9c1.8-1.1,3.5-2.4,3.9-4.6c0.2-0.9,0.2-1.8,0.1-2.7c-0.1-1-0.2-2.1,0.3-3c0.3-0.4,0.9-0.9,1.2-0.3
					c0.7,1.1,1.8-0.5,1.8-0.5L295.2,2z"/>
			</g>
		</g>
	</g>
	<g>
		<polygon class="st21" points="245.4,184.6 236.7,179.5 236.7,173.5 245.4,178.5 		"/>
		<polygon class="st22" points="245.4,185.3 236.7,180.3 236.7,179.6 245.4,184.6 		"/>
		<polygon class="st23" points="248.9,176.5 245.4,178.5 236.7,173.5 240.2,171.4 		"/>
		<polygon class="st24" points="246,176.9 244.7,177.6 238.2,173.8 239.3,173.2 		"/>
		<polygon class="st24" points="247.5,176.1 246.2,176.8 239.7,173 240.8,172.3 		"/>
		<polygon class="st25" points="245.4,185.3 248.9,183.3 248.9,176.5 245.4,178.5 		"/>
		<line class="st26" x1="247.1" y1="183" x2="247.1" y2="178.8"/>
		<polygon class="st22" points="246.9,180.3 247.4,180 247.4,179.1 246.9,179.4 		"/>
		<path class="st27" d="M244.5,179.2c0,0.2-0.1,0.3-0.3,0.2c-0.2-0.1-0.3-0.3-0.3-0.4s0.1-0.3,0.3-0.2
			C244.3,178.8,244.5,179,244.5,179.2z"/>
		<path class="st27" d="M244.5,180.4c0,0.2-0.1,0.3-0.3,0.2c-0.2-0.1-0.3-0.3-0.3-0.4s0.1-0.3,0.3-0.2
			C244.3,180.1,244.5,180.3,244.5,180.4z"/>
		<polygon class="st28" points="239.3,173.2 239.3,174.4 238.2,173.8 		"/>
		<polygon class="st28" points="240.8,172.3 240.8,173.6 239.7,173 		"/>
	</g>
	<g>
		<polyline class="st25" points="387.5,130.1 384,127.2 384,132.1 387.4,130.1 		"/>
		<polygon class="st29" points="382.9,127.5 384,127.2 384,132.1 382.8,131.4 382.8,128.2 		"/>
		<polyline class="st25" points="365.7,117.3 362.2,114.4 362.2,119.3 365.7,117.3 		"/>
		<polygon class="st29" points="361.2,114.7 362.2,114.4 362.2,119.3 361,118.6 361,115.4 		"/>
		<polygon class="st0" points="389.4,133.8 358.4,115.5 358.4,85.1 389.5,103.5 		"/>
		<polygon class="st27" points="387.9,129.5 359,112.4 359,105.4 387.9,122.5 		"/>
		<polygon class="st25" points="390.1,133.5 399.2,128.4 399.2,98.1 390.1,103.1 		"/>
		<polygon class="st30" points="400.3,98.7 390.7,104.4 355.7,83.8 365.4,78.2 		"/>
		<polygon class="st29" points="390.7,104.4 390.7,105.2 355.7,84.5 355.7,83.8 		"/>
		<path class="st0" d="M367.2,113.8c0,0.3-0.2,0.4-0.5,0.3c-0.3-0.1-0.5-0.5-0.5-0.8s0.2-0.4,0.5-0.3
			C367,113.2,367.2,113.5,367.2,113.8z"/>
		<path class="st0" d="M380.6,121.2c0,0.3-0.2,0.4-0.5,0.3c-0.3-0.1-0.5-0.5-0.5-0.8s0.2-0.4,0.5-0.3
			C380.3,120.6,380.6,120.9,380.6,121.2z"/>
		<polygon class="st27" points="387.9,121.4 359,104.3 359,97.2 387.9,114.3 		"/>
		<path class="st0" d="M367.2,105.6c0,0.3-0.2,0.4-0.5,0.3c-0.3-0.1-0.5-0.5-0.5-0.8c0-0.3,0.2-0.4,0.5-0.3
			C367,105,367.2,105.3,367.2,105.6z"/>
		<path class="st0" d="M380.6,113c0,0.3-0.2,0.4-0.5,0.3c-0.3-0.1-0.5-0.5-0.5-0.8s0.2-0.4,0.5-0.3
			C380.3,112.4,380.6,112.7,380.6,113z"/>
		<polygon class="st27" points="387.9,113.3 359,96.2 359,89.1 387.9,106.2 		"/>
		<path class="st0" d="M367.2,97.5c0,0.3-0.2,0.4-0.5,0.3c-0.3-0.1-0.5-0.5-0.5-0.8s0.2-0.4,0.5-0.3C367,96.9,367.2,97.2,367.2,97.5
			z"/>
		<path class="st0" d="M380.6,104.9c0,0.3-0.2,0.4-0.5,0.3c-0.3-0.1-0.5-0.5-0.5-0.8s0.2-0.4,0.5-0.3
			C380.3,104.3,380.6,104.6,380.6,104.9z"/>
		<polygon class="st31" points="390.7,105.2 400.3,99.6 400.3,98.7 390.7,104.4 		"/>
	</g>
	<g>
		<polygon class="st25" points="113.2,63.2 120.5,59 120.5,50.3 113.2,54.4 		"/>
		<polygon class="st32" points="120.4,50.3 113.2,54.4 103,48.5 110.2,44.4 		"/>
		<polygon class="st21" points="113.2,63.2 103,57.2 103,48.5 113.2,54.4 		"/>
		<polygon class="st33" points="112.1,61.1 106,57.1 106,51.4 112.1,55.3 		"/>
		<polygon class="st27" points="105.4,57 104.5,56.2 104.5,50.5 105.4,51.2 		"/>
		<polygon class="st21" points="105.4,55.8 103.6,54.9 103.6,54.2 105.4,55.2 		"/>
		<polygon class="st21" points="105.4,54.6 103.6,53.7 103.6,53 105.4,53.9 		"/>
		<polygon class="st21" points="105.4,53.4 103.6,52.4 103.6,51.8 105.4,52.7 		"/>
		<line class="st34" x1="106.1" y1="54.4" x2="111.2" y2="57.3"/>
		<line class="st34" x1="106.1" y1="54.8" x2="111.2" y2="57.6"/>
		<line class="st34" x1="106.1" y1="55.2" x2="111.2" y2="58.1"/>
	</g>
	<g>
		<polygon class="st35" points="11.4,159.9 20.7,154.3 31.7,160.6 21.8,175.2 		"/>
		<polygon class="st36" points="31.7,170.5 20.7,164.2 11.4,169.7 22.3,176 		"/>
		<polygon class="st37" points="22.3,176 31.7,170.5 31.7,160.6 22.3,166.1 		"/>
		<polygon class="st37" points="11.4,169.7 20.7,164.2 20.7,154.3 11.4,159.9 		"/>
		<polygon class="st38" points="22.3,176 11.4,169.7 11.4,159.9 22.3,166.1 		"/>
		<polygon class="st39" points="25.9,157.3 16.6,162.8 11.4,159.9 20.7,154.3 		"/>
		<polygon class="st39" points="31.7,160.6 22.3,166.1 17.6,162.5 27,156.8 		"/>
	</g>
	<g>
		<polygon class="st35" points="129.6,100.1 143.2,92 159,101.1 144.8,122.3 		"/>
		<polygon class="st36" points="159,115.5 143.2,106.4 129.6,114.4 145.4,123.5 		"/>
		<polygon class="st37" points="145.4,123.5 159,115.5 159,101.1 145.4,109.2 		"/>
		<polygon class="st37" points="129.6,114.4 143.2,106.4 143.2,92 129.6,100.1 		"/>
		<polygon class="st38" points="145.4,123.5 129.6,114.4 129.6,100.1 145.4,109.2 		"/>
		<polygon class="st39" points="150.7,96.4 137.1,104.4 129.6,100.1 143.2,92 		"/>
		<polygon class="st39" points="159,101.1 145.4,109.2 138.7,103.8 152.2,95.7 		"/>
	</g>
	<g>
		<polygon class="st0" points="60.3,133.1 42.4,122.6 42.4,99.3 60.3,109.8 		"/>
		<polygon class="st23" points="60.3,133.1 42.4,122.6 42.4,118.2 60.3,128.8 		"/>
		<polygon class="st23" points="60.3,111.4 42.4,100.9 42.4,99.3 60.3,109.8 		"/>
		<polygon class="st40" points="59.9,113.3 56.8,111.4 56.8,109.8 59.9,111.7 		"/>
		<polygon class="st25" points="60.3,133.1 79.6,122.6 79.6,99.3 60.3,109.8 		"/>
		<path class="st23" d="M56.6,118.2c0,2.7-2.2,4.1-5,3c-2.7-1.1-5-4.2-5-7s2.2-4.1,5-3C54.4,112.4,56.6,115.5,56.6,118.2z"/>
		<path class="st40" d="M45.7,104.7c0,0.6-0.4,0.8-1,0.6s-1-0.9-1-1.4s0.4-0.8,1-0.6S45.7,104.1,45.7,104.7z"/>
		<path class="st40" d="M48.4,106.2c0,0.6-0.4,0.8-1,0.6c-0.6-0.2-1-0.9-1-1.4s0.4-0.8,1-0.6C48,105.1,48.4,105.7,48.4,106.2z"/>
		<path class="st40" d="M51.3,107.9c0,0.6-0.4,0.8-1,0.6c-0.6-0.2-1-0.9-1-1.4c0-0.6,0.4-0.8,1-0.6
			C50.8,106.8,51.3,107.4,51.3,107.9z"/>
		<path class="st0" d="M55.5,117.8c0,2.1-1.7,3.2-3.9,2.3c-2.1-0.9-3.9-3.3-3.9-5.4s1.7-3.2,3.9-2.3S55.5,115.7,55.5,117.8z"/>
		<g>
			<path class="st0" d="M55.2,116.2c-0.6-1.6-2-3.2-3.6-3.8c-2.1-0.9-3.9,0.2-3.9,2.3c0,2.1,1.7,4.6,3.9,5.4
				c0.8,0.3,1.6,0.4,2.2,0.2c-0.1-0.4-0.1-0.8-0.1-1.2C53.7,117.7,54.2,116.7,55.2,116.2z"/>
			<path class="st23" d="M55.6,117.9c0-0.5-0.1-1.1-0.3-1.6c-0.9,0.5-1.5,1.6-1.5,3c0,0.4,0,0.8,0.1,1.2
				C54.9,120.1,55.6,119.2,55.6,117.9z"/>
		</g>
		<polygon class="st24" points="60.3,133.1 79.6,122.6 79.6,118.2 60.3,128.8 		"/>
		<polygon class="st21" points="78.7,99.3 60.6,109.8 42.6,99.3 60.7,88.9 		"/>
		<polygon class="st24" points="60.3,111.4 79.6,100.9 79.6,99.3 60.3,109.8 		"/>
	</g>
	<g>
		<g>
			<polygon class="st41" points="210.5,67.9 266.7,35.5 309.5,59.8 253.1,95.8 			"/>
			<polygon class="st42" points="253.2,147.1 210.5,122.7 210.5,67.8 253.2,92.2 			"/>
			<polygon class="st4" points="253.2,147.1 309.6,114 309.5,59.9 253.2,92.2 			"/>
		</g>
		<polygon class="st43" points="286.8,94.3 311.1,88 310.7,66.2 286.8,79.9 		"/>
	</g>
	<polygon class="st44" points="65.8,103.5 215.2,16.1 271.7,47.7 122,141 	"/>
	<polygon class="st45" points="122.2,224.6 65.8,193 65.8,103.5 122.2,135.1 	"/>
	<g>
		<path class="st46" d="M302.3,119.9c2.5,5.3-0.1,13-5.9,17.2c-5.8,4.2-12.6,3.2-15.1-2.1c-2.5-5.4,0.1-13.1,5.9-17.2
			C293,113.5,299.7,114.5,302.3,119.9z"/>
	</g>
	<g>
		<polygon class="st47" points="213.5,71.1 213.5,27.7 251.2,48.8 		"/>
		<polygon class="st48" points="123.5,123.9 213.3,71.3 213.3,27.8 85.4,103.1 		"/>
	</g>
	<g>
		<polygon class="st35" points="217.6,217.8 209.2,212.8 199.2,218.4 208.1,231.7 		"/>
		<polygon class="st36" points="199.2,227.4 209.2,221.7 217.6,226.7 207.7,232.4 		"/>
		<polygon class="st37" points="207.7,232.4 199.2,227.4 199.2,218.4 207.7,223.5 		"/>
		<polygon class="st36" points="211.6,216.6 220.1,221.6 217.6,217.8 		"/>
		<polygon class="st37" points="217.6,226.7 209.2,221.7 209.2,212.8 217.6,217.8 		"/>
		<polygon class="st38" points="207.7,232.4 217.6,226.7 217.6,217.8 207.7,223.5 		"/>
		<polygon class="st39" points="199.2,218.4 207.7,223.5 212,220.1 203.5,215 		"/>
	</g>
	<g>
		<g>
			<g>
				<path class="st6" d="M189.2,264.9c0.2-0.4,1.1-0.8,1.4-0.7c0.7,0.2,2.3,0.4,2.3,0.3c0.1,0.1,1.3-0.1,1.4,0.1
					c0.2,0.1,0.5,0.2,1,0.3c0.4,0.1,0.6,0.4,0.6,0.8c-0.1,0.4-0.2,0.7-0.3,0.9c-0.2,0.1-0.5,0.3-1.1,0.5c0,0-0.1,0.1-0.1,0.1
					c-0.2,0.1-0.4,0.2-0.6,0.3c-0.3,0.2-0.4,0.5-0.7,0.8c-0.6,0.5-1.8,0.4-2.6,0.2C188.8,268.1,188.8,266.1,189.2,264.9z"/>
				<path class="st49" d="M194.5,265.5v0.3c0,0.1-0.1,0.5-0.2,1.1c0,0.1-0.1,0.3-0.1,0.4c-0.2,0.1-0.4,0.2-0.6,0.3c0,0,0-0.1,0-0.2
					c0.1-0.7,0.2-1.3,0.2-1.5l-0.1-0.4L194.5,265.5L194.5,265.5z"/>
			</g>
			<g>
				<path class="st6" d="M209.7,265.3c0,0.1,1.3,0.4,1.4,0.4c0.8,0.1,1.6,0.1,2.3,0.3c0.5,0.1,0.8,0.8,0.6,1.2
					c-0.2,0.3-1.1,0.8-2.9,1.4c-0.2,0.1-0.5,0.2-0.8,0.2c-0.2,0.1-0.5,0.1-0.7,0.2c-0.2,0-0.5,0.1-0.7,0.1c-0.2,0-0.5,0.2-0.7,0.2
					c-0.5,0.1-0.9,0.3-1.4,0.3c-0.7,0-2.1-0.3-2.1-1.2c0-0.6,0.1-1.2,0.2-1.8C205.8,266,207,265.3,209.7,265.3z"/>
				<path class="st49" d="M210.8,266.9c0.1,0,0.1,0,0.2,0c0,0.1-0.1,0.3-0.2,0.8c-0.1,0.4-0.2,0.8-0.3,1.2c-0.2,0.1-0.5,0.1-0.7,0.2
					c0.1-0.2,0.2-0.4,0.2-0.7c0.3-0.7,0.4-1.2,0.4-1.4c0,0,0.1,0,0.3,0C210.6,266.9,210.7,266.9,210.8,266.9L210.8,266.9z"/>
			</g>
			<path class="st2" d="M188.9,235.7c0,0-1.6,3.9,0.7,6.1c2,1.8,1.8,6.9,2,7.8c0,0-0.5,1.6-0.8,3.4c-0.4,1.8-0.5,10.6-1.1,11.9
				c0,0,1.4,1.3,4.9,0c0,0,1.8-11.3,3-12.9c1.2-1.5,0.4-11.5,0.4-11.5l-2.3-3.3L188.9,235.7z"/>
			<path class="st3" d="M202,238.2c0,0,4.2,6.9,5,9.2c0.8,2.3,0.5,5.8,1,9.5c0.5,3.7,1.1,9.1,1.1,9.1s-2.5,1.5-4.4,0.9
				c0,0,0.4-1.7-0.5-3.8c-0.8-2.1-3-9.8-2.7-13.1c0,0-3.8-5.6-5.5-6.5c-1.7-0.9-3.7-4-2.9-7.4C194,232.9,202,238.2,202,238.2z"/>
			<polygon class="st50" points="194,216.2 193.5,218.5 197,219.2 197.2,217 			"/>
			<path class="st4" d="M190.9,220.3c0.4-1,1.2-2.5,4.1-2.6c3-0.1,4.8,1,5.7,2.5c0.9,1.7,1.4,1.2,0,6.4c-1.4,5.2,0.2,8.9,1.7,10.9
				c1.4,2,0,1.8,0,1.8s-10.1,2.6-13.8-3.1c0,0,1.7-4.9,1.7-6.9C190.3,227.4,190.1,221.9,190.9,220.3z"/>
			<path class="st1" d="M197,219c3.3-1.3,5.7,4,6.3,5.4c0.3,0.6,0.4,1.1,0.6,1.4c0.1,0,0.3,0.1,0.4,0.1c1.4,0.3,4.1,1,5.9,1.2
				c1,0.1,2.2,0.2,2.4,0.2c3.1,0.2,3.9,0.1,3.5,1c-0.8,2-4.9,1.9-5.3,1.3c-0.3-0.4-2.9-0.1-5.2-0.3c-2.3-0.2-4.6-0.7-5-1.6
				c-0.5-1.3-1.7-2.6-3.6-4.9C195.2,220.4,197,219,197,219z"/>
			<path class="st51" d="M192.4,207.6c0,0-0.8-1.3-2.4-1.7c-1.5-0.4-3.6,0.1-3.5,2.5c0.1,2.4,0.3,8.4-1.9,9.6c0,0,1.7-0.4,2.1-1.3
				c0,0,0.1,1.6-1.3,2.9c1.8-1.2,3.4-2.6,3.7-4.8c0.1-0.9,0.1-1.8,0-2.6c-0.2-1-0.4-2,0.1-2.9c0.2-0.4,0.8-0.9,1.3-0.4
				c0.8,1,1.8-0.7,1.8-0.7L192.4,207.6z"/>
			<path class="st1" d="M200.5,211.2c0,0,0.6,5.3-3,6c-3.6,0.6-3.1-4.1-3.1-4.1l2.1-2.8L200.5,211.2z"/>
			<path class="st51" d="M200.7,210.7c0,0,0.2-4.3-3.6-5c-3.5-0.7-7,0.7-7.4,5.5c-0.4,4.8,4.1,6.8,7.8,6c0,0-0.5-2-0.4-3.5
				c0.1-1.4,0.9-2.4,1.3-0.3C198.3,213.4,200.2,212,200.7,210.7z"/>
		</g>
	</g>
	<polygon class="st35" points="246.9,164.4 256.3,158.8 267.2,165.1 257.4,179.7 	"/>
	<g>
		<polygon class="st35" points="196.9,64.3 214.9,53.7 235.9,65.7 217,93.7 		"/>
		<polygon class="st36" points="235.9,84.7 214.9,72.7 196.9,83.3 217.9,95.3 		"/>
		<polygon class="st37" points="217.9,95.3 235.9,84.7 235.9,65.8 217.9,76.4 		"/>
		<polygon class="st37" points="196.9,83.3 214.9,72.7 214.9,53.7 196.9,64.3 		"/>
		<polygon class="st38" points="217.9,95.3 196.9,83.3 196.9,64.3 217.9,76.4 		"/>
		<polygon class="st39" points="224.9,59.4 206.9,70 196.9,64.3 214.9,53.7 		"/>
		<polygon class="st39" points="235.9,65.8 217.9,76.4 208.9,69.3 226.9,58.5 		"/>
	</g>
	<polygon class="st36" points="267.2,175 256.3,168.7 246.9,174.2 257.9,180.5 	"/>
	<polygon class="st36" points="253.6,163.1 244.2,168.6 246.9,164.3 	"/>
	<g>
		<polygon class="st0" points="197,104 179.1,93.5 179.1,70.2 197,80.7 		"/>
		<polygon class="st23" points="197,104 179.1,93.5 179.1,89.1 197,99.6 		"/>
		<polygon class="st23" points="197,82.3 179.1,71.8 179.1,70.2 197,80.7 		"/>
		<polygon class="st40" points="196.7,84.2 193.6,82.3 193.6,80.7 196.7,82.6 		"/>
		<polygon class="st25" points="197,104 216.4,93.5 216.4,70.2 197,80.7 		"/>
		<path class="st23" d="M193.3,89.1c0,2.7-2.2,4.1-5,3c-2.7-1.1-5-4.2-5-7s2.2-4.1,5-3C191.1,83.2,193.3,86.4,193.3,89.1z"/>
		<path class="st40" d="M182.4,75.5c0,0.6-0.4,0.8-1,0.6s-1-0.9-1-1.4s0.4-0.8,1-0.6S182.4,75,182.4,75.5z"/>
		<path class="st40" d="M185.2,77.1c0,0.6-0.4,0.8-1,0.6s-1-0.9-1-1.4s0.4-0.8,1-0.6S185.2,76.6,185.2,77.1z"/>
		<path class="st40" d="M188,78.8c0,0.6-0.4,0.8-1,0.6s-1-0.9-1-1.4s0.4-0.8,1-0.6S188,78.3,188,78.8z"/>
		<path class="st0" d="M192.2,88.7c0,2.1-1.7,3.2-3.9,2.3s-3.9-3.3-3.9-5.4c0-2.1,1.7-3.2,3.9-2.3S192.2,86.5,192.2,88.7z"/>
		<g>
			<path class="st0" d="M191.9,87.1c-0.6-1.6-2-3.2-3.6-3.8c-2.1-0.9-3.9,0.2-3.9,2.3c0,2.1,1.7,4.6,3.9,5.4
				c0.8,0.3,1.6,0.4,2.2,0.2c-0.1-0.4-0.1-0.8-0.1-1.2C190.4,88.6,191,87.6,191.9,87.1z"/>
			<path class="st23" d="M192.3,88.7c0-0.5-0.1-1.1-0.3-1.6c-0.9,0.5-1.5,1.6-1.5,3c0,0.4,0,0.8,0.1,1.2
				C191.6,91,192.3,90.1,192.3,88.7z"/>
		</g>
		<polygon class="st24" points="197,104 216.4,93.5 216.4,89.1 197,99.6 		"/>
		<polygon class="st21" points="215.5,70.2 197.4,80.7 179.3,70.2 197.5,59.8 		"/>
		<polygon class="st24" points="197,82.3 216.4,71.8 216.4,70.2 197,80.7 		"/>
	</g>
	<polygon class="st37" points="246.9,174.2 256.3,168.7 256.3,158.8 246.9,164.4 	"/>
	<g>
		<polygon class="st21" points="262.7,175.2 253.2,169.7 253.2,163.2 262.7,168.6 		"/>
		<polygon class="st22" points="262.7,176 253.2,170.5 253.2,169.8 262.7,175.2 		"/>
		<polygon class="st23" points="266.5,166.4 262.7,168.6 253.3,163.1 257.1,160.9 		"/>
		<polygon class="st24" points="263.3,166.9 262,167.6 254.9,163.5 256,162.9 		"/>
		<polygon class="st24" points="265,166 263.6,166.7 256.5,162.6 257.7,161.9 		"/>
		<polygon class="st25" points="262.7,176 266.5,173.8 266.5,166.4 262.7,168.6 		"/>
		<line class="st52" x1="264.6" y1="173.5" x2="264.6" y2="169"/>
		<polygon class="st22" points="264.3,170.6 264.9,170.3 264.9,169.3 264.3,169.6 		"/>
		<path class="st27" d="M261.7,169.4c0,0.2-0.2,0.3-0.3,0.2c-0.2-0.1-0.3-0.3-0.3-0.5s0.2-0.3,0.3-0.2
			C261.5,169,261.7,169.2,261.7,169.4z"/>
		<path class="st27" d="M261.7,170.7c0,0.2-0.2,0.3-0.3,0.2c-0.2-0.1-0.3-0.3-0.3-0.5s0.2-0.3,0.3-0.2
			C261.5,170.3,261.7,170.5,261.7,170.7z"/>
		<polygon class="st28" points="256,162.9 256.1,164.2 254.9,163.5 		"/>
		<polygon class="st28" points="257.7,161.9 257.7,163.3 256.5,162.6 		"/>
	</g>
	<polygon class="st38" points="257.9,180.5 246.9,174.2 246.9,164.3 257.9,170.6 	"/>
	<polygon class="st37" points="257.9,180.5 267.2,175 267.2,165.1 257.9,170.6 	"/>
	<polygon class="st39" points="267.2,165.1 257.9,170.6 253.2,167 262.5,161.3 	"/>
	<polygon class="st35" points="140.4,92.6 155.6,83.6 173.3,93.8 157.4,117.4 	"/>
	<polygon class="st36" points="173.3,109.8 155.6,99.7 140.4,108.6 158.1,118.8 	"/>
	<polygon class="st36" points="151.2,90.5 136,99.5 140.4,92.6 	"/>
	<polygon class="st37" points="140.4,108.6 155.6,99.7 155.6,83.6 140.4,92.6 	"/>
	<g>
		<polygon class="st21" points="166,110.2 150.6,101.4 150.6,90.7 166,99.5 		"/>
		<polygon class="st22" points="165.9,111.5 150.6,102.6 150.6,101.4 165.9,110.3 		"/>
		<polygon class="st23" points="172.2,96 166,99.6 150.6,90.6 156.9,87.1 		"/>
		<polygon class="st24" points="167,96.7 164.8,97.9 153.2,91.2 155.2,90.2 		"/>
		<polygon class="st24" points="169.6,95.2 167.5,96.5 155.9,89.8 157.8,88.7 		"/>
		<polygon class="st25" points="165.9,111.5 172.2,107.9 172.2,96 165.9,99.5 		"/>
		<line class="st53" x1="169.1" y1="107.4" x2="169.1" y2="100.1"/>
		<polygon class="st22" points="168.6,102.7 169.5,102.2 169.5,100.6 168.6,101.1 		"/>
		<path class="st27" d="M164.3,100.8c0,0.3-0.3,0.5-0.6,0.3c-0.3-0.1-0.6-0.5-0.6-0.8s0.3-0.5,0.6-0.3
			C164.1,100.1,164.3,100.5,164.3,100.8z"/>
		<path class="st27" d="M164.3,102.9c0,0.3-0.3,0.5-0.6,0.3c-0.3-0.1-0.6-0.5-0.6-0.8s0.3-0.5,0.6-0.3
			C164.1,102.3,164.3,102.6,164.3,102.9z"/>
		<polygon class="st28" points="155.2,90.2 155.2,92.4 153.2,91.2 		"/>
		<polygon class="st28" points="157.8,88.7 157.8,90.9 155.9,89.8 		"/>
	</g>
	<polygon class="st38" points="158.1,118.8 140.4,108.6 140.4,92.6 158.1,102.8 	"/>
	<polygon class="st37" points="158.1,118.8 173.3,109.8 173.3,93.8 158.1,102.8 	"/>
	<polygon class="st39" points="173.3,93.8 158.1,102.8 150.5,96.8 165.7,87.7 	"/>
	<g>
		<polygon class="st25" points="143.8,139 158,130.9 158,113.8 143.8,122 		"/>
		<polygon class="st32" points="157.7,113.8 143.7,122 123.9,110.4 137.9,102.3 		"/>
		<polygon class="st21" points="143.8,139 123.9,127.4 123.9,110.4 143.8,122 		"/>
		<polygon class="st33" points="141.5,134.9 129.6,127.3 129.6,116 141.5,123.7 		"/>
		<polygon class="st27" points="128.5,126.9 126.8,125.5 126.8,114.3 128.5,115.7 		"/>
		<polygon class="st21" points="128.5,124.7 125,122.9 125,121.6 128.5,123.4 		"/>
		<polygon class="st21" points="128.5,122.3 125,120.5 125,119.2 128.5,121 		"/>
		<polygon class="st21" points="128.5,119.9 125,118.1 125,116.8 128.5,118.6 		"/>
		<line class="st54" x1="129.8" y1="121.9" x2="139.7" y2="127.5"/>
		<line class="st54" x1="129.8" y1="122.7" x2="139.7" y2="128.2"/>
		<line class="st54" x1="129.8" y1="123.5" x2="139.7" y2="129"/>
	</g>
	<polygon class="st55" points="37.3,203 55.3,192.3 76.4,204.4 57.5,227.7 	"/>
	<polygon class="st48" points="122.2,224.6 271.6,137.2 271.6,47.7 122.2,135.1 	"/>
	<polyline class="st55" points="51.5,198.2 33.5,208.9 37.3,203 	"/>
	<polygon class="st37" points="37.3,217.3 55.3,206.6 55.3,192.3 37.3,203 	"/>
	<g>
		<path class="st46" d="M163.2,202.3c2.5,5.4-0.2,13.1-6,17.3c-5.8,4.2-12.6,3.3-15.1-2.1c-2.5-5.4,0.2-13.2,6-17.4
			C154,195.9,160.7,196.9,163.2,202.3z"/>
		<path class="st46" d="M195.1,180.8c2.5,5.3-0.1,13-5.9,17.1c-5.8,4.2-12.6,3.2-15.1-2.1c-2.5-5.4,0.1-13.1,5.9-17.2
			C185.8,174.5,192.6,175.5,195.1,180.8z"/>
	</g>
	<polygon class="st56" points="76.4,218.7 55.3,206.6 55.3,192.3 76.4,204.4 	"/>
	<g>
		<polygon class="st25" points="59.8,219.4 67.1,215.3 67.1,206.5 59.8,210.7 		"/>
		<polygon class="st32" points="67,206.5 59.8,210.7 49.6,204.8 56.8,200.6 		"/>
		<polygon class="st21" points="59.8,219.4 49.6,213.5 49.6,204.8 59.8,210.7 		"/>
		<polygon class="st33" points="58.7,217.3 52.6,213.4 52.6,207.7 58.7,211.6 		"/>
		<polygon class="st27" points="52,213.2 51.1,212.5 51.1,206.7 52,207.5 		"/>
		<polygon class="st21" points="52,212.1 50.2,211.2 50.2,210.5 52,211.4 		"/>
		<polygon class="st21" points="52,210.9 50.2,209.9 50.2,209.3 52,210.2 		"/>
		<polygon class="st21" points="52,209.6 50.2,208.7 50.2,208 52,209 		"/>
		<line class="st34" x1="52.7" y1="210.7" x2="57.8" y2="213.5"/>
		<line class="st34" x1="52.7" y1="211.1" x2="57.8" y2="213.9"/>
		<line class="st34" x1="52.7" y1="211.5" x2="57.8" y2="214.3"/>
	</g>
	<polygon class="st37" points="58.4,229.3 76.4,218.7 76.4,204.4 58.4,215 	"/>
	<polygon class="st38" points="58.4,229.3 37.3,217.3 37.3,203 58.4,215 	"/>
	<polyline class="st38" points="76.4,204.4 81.4,211.1 63.4,221.7 58.4,215 	"/>
	<g>
		<g>
			<path class="st6" d="M229.3,193.1c-0.3-0.2-1,0.4-1.9,1.7c-0.3,0-0.6,0.1-0.8,0.3c-1.1,0.4-2.1,0.5-3,0.3c0,0.1-0.1,0.3-0.1,0.6
				c0,0.8,1.3,1.1,1.9,1.3c1.1,0.4,2.2,0.6,3.3,0.6c1.4,0.1,2.7,0.8,4.2,0.8c0.8,0,2.6-0.2,2.8-1.3c0-0.3-0.2-0.6-0.5-0.8
				c-1.6-1.2-3.6-2-5.3-3C229.7,193.4,229.5,193.2,229.3,193.1z"/>
			<path class="st6" d="M216.3,197.2c-0.1,0.1-0.1,0.2-0.2,0.2c-0.5,0.6-1.3,0.8-2.3,0.7c-0.1,0-0.2,0-0.3,0c-0.9-0.1-1.5-0.1-2-0.1
				c-0.5,0-0.8,0-0.9-0.1c0.1,0,0,1.3,0,1.4c0,0.5-0.1,0.9-0.1,1.4c0,1.1,0.1,2.5,0.6,3.5c0.4,0.8,1.2,1,2.1,1.2
				c0.8,0.1,1.4,0,2.1-0.5c0.9-0.6,1.2-1.7,1.2-2.7c0-0.8,0.2-1.7,0-2.5C216.5,199.2,216,197.6,216.3,197.2z"/>
			<path class="st18" d="M225.2,146.3c0,0,0.5,3.9,0.3,6.3c-0.2,2.4-2.6,8.7-2.6,8.7s-0.8,1.2-1.6,0c-0.9-1.2,0.3-4.4,1.6-5.8v-8.3
				L225.2,146.3z"/>
			<path class="st19" d="M224.3,166.5l2.1,14.3l2.9,12.6c0,0-1.7,3.2-5.6,2.1l-7.8-27.4l1.9-4.1L224.3,166.5z"/>
			<path class="st20" d="M209.6,165.2l0.7,32.6c0,0,3.9,1.9,6.2-0.2l2.2-35.5L209.6,165.2z"/>
			<path class="st4" d="M220.7,140.1c0,0-5.9,0.3-12.1,5.6l-4,6.4c0,0,2.6,2.1,5.6,1.4l-0.7,12.8c0,0,3.7-1,7.3,0.4
				c3.6,1.4,5.5,1.6,7.7,1.3l-1.6-20.8l2.3-1C225.2,146.3,224.6,142.3,220.7,140.1z"/>
			<path class="st1" d="M205.2,152.6c0,0-1.5,4.8-0.4,7.6c1.1,2.8,6.4,9.3,6.4,9.3s1.1-0.4,1.6-0.9c0.8-0.9,0.8-1.5,0.8-1.5
				s-4-6.5-4.9-8c-0.9-1.4,0.8-5.3,0.8-5.3s-1.1,0.1-2-0.1C207,153.4,205.2,152.6,205.2,152.6z"/>
			<path class="st5" d="M213.5,138.8v3.7c0,0,1.6,4.8,4.6,3.7c2.9-1.1-0.3-5.4-0.3-5.4v-1.9H213.5z"/>
			<g>
				<path class="st6" d="M215.4,129.5c-0.4-0.1-1-0.1-2-0.1c-1,0.1-1.7,0.5-2.2,1.5c-0.5,0.9-0.7,1.8-0.7,2.6c0,0.8,0,1.5,0.1,1.9
					c0.2,0.8,0.4,1.6,0.6,2.3l0,0.1v-0.1c0,0,0-0.1,0-0.1c0-0.2,0.1-0.4,0.2-0.6c0.1-0.2,0.3-0.2,0.4-0.2c0,0,0.1,0,0.1,0
					c0.2,0.1,0.4,0.2,0.6,0.5c0.2,0.4,0.3,0.7,0.3,1c0,0,0.2-0.1,0.5-0.1c0.2,0,0.4-0.1,0.4-0.3c0-0.3-0.1-0.8-0.3-1.3
					c-0.1-0.4-0.2-0.7-0.3-1c0.4,0.3,1,0.6,1.7,0.6c0.1,0,0.1,0,0.2,0c0.7,0,1.6-0.2,2.5-0.8c0.1-0.1,0.2-0.2,0.4-0.3
					c0.1-0.3,0.3-0.5,0.3-0.6c0.2-0.3,0.5-0.4,0.8-0.4c0.1,0,0.2,0,0.3,0.1c0,0,0.1,0.1,0.2,0.2c0.4-0.5,0.7-0.7,0.9-0.6
					c0.1,0.1,0.2,0.2,0.4,0.3c0,0.1,0.1,0.1,0.1,0.2c0,0.2,0,0.5,0,0.7c0,0,0,0,0,0.1c0,0.7,0,1.3-0.1,1.9c0.4-0.2,0.9-0.9,1.4-2.2
					c0-0.2,0-0.3,0-0.3c-0.2-0.5-0.3-0.9-0.3-1.2c0-0.1,0-0.5,0.1-1.1c0-0.1-0.1-0.2-0.2-0.2c-0.1,0-0.2-0.1-0.3-0.1
					c-0.1,0-0.2-0.1-0.5-0.4c-0.5-0.5-1.3-1.1-2.3-1.7c-1-0.6-1.7-0.9-2.1-0.9c-0.3,0-0.5,0.1-0.8,0.4c-0.1,0.1-0.2,0.1-0.2,0.2
					C215.6,129.6,215.5,129.6,215.4,129.5L215.4,129.5z"/>
				<path class="st1" d="M211.4,137.1c0.1-0.2,0.3-0.2,0.4-0.2c0,0,0.1,0,0.1,0c0.2,0.1,0.4,0.2,0.6,0.5c0.2,0.4,0.3,0.7,0.3,1
					c0,0,0.2-0.1,0.5-0.1c0.2,0,0.4-0.1,0.4-0.3c0-0.3-0.1-0.8-0.3-1.3c-0.1-0.4-0.2-0.7-0.3-1c0.4,0.3,1,0.6,1.7,0.6
					c0.1,0,0.1,0,0.2,0c0.7,0,1.6-0.2,2.5-0.8c0.1-0.1,0.2-0.2,0.4-0.3c0.1-0.3,0.3-0.5,0.3-0.6c0.2-0.3,0.5-0.4,0.8-0.4
					c0.1,0,0.2,0,0.3,0.1c0,0,0.1,0.1,0.2,0.2c0.4-0.5,0.7-0.7,0.9-0.6c0.1,0.1,0.2,0.2,0.4,0.3c0,0.1,0.1,0.1,0.1,0.2
					c0,0.2,0,0.5,0,0.7c0,0,0,0,0,0.1c0,0.7,0,1.3-0.1,1.9c-0.2,1.7-0.5,3.1-1.2,4.3c-0.3,0.5-0.5,0.9-0.8,1.2
					c-0.3,0.3-0.5,0.5-0.8,0.7c-0.3,0.1-0.6,0.2-0.9,0.2h0c-0.5,0-1.1-0.1-1.5-0.3c-0.1-0.1-0.2-0.1-0.3-0.2
					c-0.8-0.5-1.5-1.4-2.1-2.6c-0.2-0.3-0.3-0.6-0.4-0.9c-0.1,0.1-0.2,0.2-0.3,0.2c0,0,0,0-0.1,0c-0.2,0-0.5-0.3-0.7-0.8
					c-0.2-0.4-0.3-0.8-0.4-1.1c0,0,0-0.1,0-0.1C211.2,137.4,211.3,137.2,211.4,137.1z"/>
			</g>
		</g>
	</g>
	<g>
		<g>
			<g>
				<path class="st1" d="M289.3,145.8l0,2.2c0,0-3.5,4.5-4.8,6c0,0-2.8,1.3-2.3,2.9c0.5,1.6,3.1,1.3,4.2-1.5c0,0,4.6-3.4,5.4-4.9
					c0.8-1.5,1.7-4.6,1.7-4.6L289.3,145.8z"/>
				<path class="st57" d="M293.9,146.9c0,0-1.3,0.4-2.9,0.2c-1.6-0.2-2.2-0.6-2.2-0.6s-0.1-8.2,3.6-7.8
					C296.1,139.1,293.9,146.9,293.9,146.9z"/>
			</g>
			<path class="st0" d="M289.8,180.2c-1,1.1-2.1,1.4-3,2.6c-0.1,0.2-0.7,0.7-0.6,0.9c0.4,0.8,2,0.9,2.6,0.8c1-0.3,1.9-0.8,2.9-1.2
				c0.8-0.3,2.5-0.6,3.2-1c0.4-0.3,0.2-1.2,0-1.8c-0.1-0.2-0.6-0.6-0.7-0.7c-0.6,0.3-0.8,0.8-1.7,0.7c-0.2-0.1-0.4-0.1-0.6,0
				c-1-0.7-1.5-1-1.7-0.8C290,179.9,289.9,180.1,289.8,180.2z"/>
			<path class="st0" d="M298.7,173.9c-1,1.1-2.1,1.5-2.9,2.7c-0.1,0.2-0.4,1.1-0.3,1.3c0.4,0.8,1.7,0.5,2.3,0.3
				c1-0.3,1.9-0.9,2.9-1.2c0.8-0.3,2.5-0.6,3.1-1.1c0.3-0.3,0.2-1.2,0-1.8c-0.1-0.2-0.6-0.6-0.7-0.7c-0.6,0.3-0.8,0.8-1.7,0.8
				c-0.2-0.1-0.4-0.1-0.6,0c-1-0.7-1.5-0.9-1.7-0.7C298.9,173.6,298.8,173.7,298.7,173.9z"/>
			<path class="st19" d="M292.1,158.5c0,0,3,9.1,4,10.4c0.9,1.4,3.5,5.7,3.5,5.7s3.1,1.3,3.9-0.3c0,0-0.7-5.2-2.6-7.5
				c0,0-1.5-9.3-2.6-10C297.1,156.3,292.1,158.5,292.1,158.5z"/>
			<path class="st20" d="M300.8,158.1c0,0,0.3,2.2-0.7,4.3c-1,2-3.5,7.3-3.5,7.3l-2.2,11.6c0,0-2.3,0.6-4.3-0.6
				c0,0,0.9-9.1,1.2-10.9c0.4-1.8,2.7-10.9,2.7-10.9L300.8,158.1z"/>
			<path class="st4" d="M291.5,138.8c0,0,5.6-3.2,9.9,0.8v19.3c0,0-5.7,2.1-10.3,0l-1-16.8C290.1,142.1,290.2,139.6,291.5,138.8z"/>
			<path class="st5" d="M296.8,136.2l0.6,1.8c0,0,0,3.5-2.6,2.6c-1.7-0.6-0.8-2.7-0.8-2.7l0.2-2.5L296.8,136.2z"/>
			<g>
				<path class="st1" d="M300.9,146.6l1.3,1.7c0,0-0.2,5.7-0.3,7.7c0,0-1.4,2.7-0.1,3.7c1.3,1,3.2-0.8,2.5-3.7c0,0,1.7-5.5,1.5-7.2
					c-0.2-1.7-1.4-4.7-1.4-4.7L300.9,146.6z"/>
				<path class="st57" d="M305.2,144.7c0,0-0.8,1.1-2.2,1.9c-1.4,0.8-2.1,0.8-2.1,0.8s-4.9-6.5-1.8-8.4
					C302.3,137.2,305.2,144.7,305.2,144.7z"/>
			</g>
			<g>
				<path class="st17" d="M290.9,130.6c0,0-0.8-1.7,1.7-2.8c2.5-1.1,6.5-0.8,7.3,2.3c0.8,3.1-0.5,6.6-2.9,6.8
					C294.6,136.9,290.9,130.6,290.9,130.6z"/>
				<path class="st1" d="M297.6,135.2c0.6-0.6,1.5-2.5,0.8-3c-1.2-0.9-1.5,1.2-1.5,1.2c-0.1-1.1-2.6-2.2-4-2.6
					c-1.4-0.4-1.7-1.6-1.7-1.6c-0.6,1.2,0.2,3.4,0.5,5.9c0.2,1.4,0.7,2.1,1.1,2.6c0.5,0.2,1.4,0.6,2.5-0.2c0.8-0.5,1.4-1.2,1.9-1.7
					C297.4,135.6,297.5,135.4,297.6,135.2z"/>
				<path class="st17" d="M297.5,127.5c0,0,0.6-1.3,2-1.7c1.3-0.4,3.2-0.1,3.3,2.2c0.1,2.3,0.2,7.9,2.3,8.9c0,0-1.5-0.3-2-1.1
					c0,0,0,1.5,1.3,2.7c-1.7-1-3.2-2.2-3.6-4.3c-0.2-0.8-0.2-1.7-0.1-2.5c0.1-0.9,0.2-1.9-0.3-2.8c-0.2-0.4-0.8-0.8-1.1-0.3
					c-0.6,1-1.7-0.5-1.7-0.5L297.5,127.5z"/>
			</g>
		</g>
	</g>
	<polygon class="st44" points="251.2,48.8 123.5,123.9 122.2,135.1 271.6,47.7 	"/>
</g>
</svg>
