<?xml version="1.0" encoding="utf-8"?>
<!-- Generator: Adobe Illustrator 19.2.0, SVG Export Plug-In . SVG Version: 6.00 Build 0)  -->
<svg version="1.1" id="Calque_1" xmlns="http://www.w3.org/2000/svg" xmlns:xlink="http://www.w3.org/1999/xlink" x="0px" y="0px"
	 viewBox="0 0 248.8 128.5" style="enable-background:new 0 0 248.8 128.5;" xml:space="preserve">
<style type="text/css">
	.st0{fill:#D6DDCC;}
	.st1{fill:#FFFFFF;}
	.st2{fill:#8E8E8E;}
	.st3{fill:#B2B2B2;}
	.st4{fill:#666666;}
	.st5{fill:#999999;}
	.st6{fill:#CCCCCC;}
	.st7{fill:#4AD6CB;}
	.st8{fill:#BC3C35;}
	.st9{fill:#62ED9D;}
</style>
<g>
	<ellipse class="st0" cx="124.4" cy="88.9" rx="124.4" ry="39.6"/>
	<rect y="78.9" class="st0" width="248.8" height="10.8"/>
	<ellipse class="st1" cx="124.4" cy="78.9" rx="124.4" ry="39.6"/>
	<polygon class="st2" points="196,42 124,0 52,42 124,84.1 	"/>
	<polygon class="st3" points="124,109.6 52,67.7 52,42 124,84.1 	"/>
	<polygon class="st4" points="124,109.6 196,67.7 196,42 124,84.1 	"/>
	<g>
		<polygon class="st5" points="99.5,96.1 68.1,77.9 68.1,64.4 99.5,82.6 		"/>
		<polygon class="st6" points="68.1,77.9 72.4,75.4 99.5,91.7 99.5,96.1 		"/>
		<polygon class="st7" points="99.5,93.3 77.5,80.5 77.5,69.8 99.5,82.6 		"/>
		<polygon class="st5" points="78.5,81.1 73.4,78.2 73.4,67.4 78.5,70.4 		"/>
		<polygon class="st7" points="75.6,79.4 70.5,76.5 70.5,65.7 75.6,68.7 		"/>
	</g>
	<g>
		<path class="st8" d="M204.4,80.3c0,1-0.8,1.9-1.9,1.9l0,0c-1,0-1.9-0.8-1.9-1.9V63.8c0-1,0.8-1.9,1.9-1.9l0,0c1,0,1.9,0.8,1.9,1.9
			V80.3z"/>
		<circle class="st9" cx="202.6" cy="57.4" r="13.9"/>
	</g>
	<g>
		<path class="st8" d="M179.2,96.8c0,1-0.8,1.9-1.9,1.9l0,0c-1,0-1.9-0.8-1.9-1.9V80.4c0-1,0.8-1.9,1.9-1.9l0,0c1,0,1.9,0.8,1.9,1.9
			V96.8z"/>
		<circle class="st9" cx="177.4" cy="74" r="13.9"/>
	</g>
</g>
</svg>
