<?xml version="1.0" encoding="utf-8"?>
<!-- Generator: Adobe Illustrator 19.2.0, SVG Export Plug-In . SVG Version: 6.00 Build 0)  -->
<svg version="1.1" id="Calque_1" xmlns="http://www.w3.org/2000/svg" xmlns:xlink="http://www.w3.org/1999/xlink" x="0px" y="0px"
	 viewBox="0 0 144 109.6" style="enable-background:new 0 0 144 109.6;" xml:space="preserve">
<style type="text/css">
	.st0{fill:#FFFFFF;}
	.st1{fill:#D6DDCC;}
	.st2{fill:#808080;}
	.st3{fill:#EBF3E1;}
	.st4{fill:#999999;}
	.st5{fill:#CCCCCC;}
	.st6{fill:#4AD6CB;}
	.st7{fill:#666666;}
	.st8{fill:#18857F;}
</style>
<polygon class="st0" points="144,42 72,0 0,42 72,84.1 "/>
<polygon class="st1" points="135.1,41.9 71.3,4.9 7.3,42 71.2,78.6 "/>
<g>
	<g>
		<polygon class="st2" points="52.2,4.7 59.3,0.5 67.6,5.2 60.1,26.5 		"/>
		<polygon class="st3" points="60.5,27.1 52.2,22.4 52.2,4.7 60.5,9.4 		"/>
		<polygon class="st4" points="60.5,27.1 67.6,23 67.6,5.2 60.5,9.4 		"/>
	</g>
	<g>
		<polygon class="st2" points="63.9,12.6 71,8.4 79.3,13.1 71.9,34.4 		"/>
		<polygon class="st3" points="72.2,35.1 63.9,30.3 63.9,12.6 72.2,17.3 		"/>
		<polygon class="st4" points="72.2,35.1 79.3,30.9 79.3,13.1 72.2,17.3 		"/>
	</g>
</g>
<polygon class="st3" points="72,109.6 0,67.7 0,42 72,84.1 "/>
<polygon class="st4" points="72,109.6 144,67.7 144,42 72,84.1 "/>
<g>
	<polygon class="st4" points="67.7,102.2 36.3,84 36.3,70.5 67.7,88.7 	"/>
	<polygon class="st5" points="36.3,84 39,82.3 67.7,97.8 67.7,102.2 	"/>
	<polygon class="st6" points="67.7,99.4 38.7,82.6 38.7,71.8 67.7,88.7 	"/>
</g>
<g>
	<polygon class="st4" points="32.9,82.1 1.5,63.9 1.5,50.4 32.9,68.6 	"/>
	<polygon class="st5" points="1.4,63.9 4.2,62.3 32.9,77.8 32.9,82.1 	"/>
	<polygon class="st6" points="32.9,79.4 3.9,62.5 3.9,51.8 32.9,68.7 	"/>
</g>
<g>
	<polygon class="st5" points="74.3,101.7 105.8,83.5 105.8,70 74.3,88.2 	"/>
	<polygon class="st7" points="105.8,83.5 103,81.8 74.3,97.3 74.3,101.7 	"/>
	<polygon class="st8" points="74.3,98.9 103.3,82.1 103.3,71.3 74.3,88.2 	"/>
</g>
<g>
	<polygon class="st5" points="109.2,81.6 140.6,63.4 140.6,49.9 109.2,68.1 	"/>
	<polygon class="st7" points="140.6,63.4 137.9,61.8 109.2,77.3 109.2,81.6 	"/>
	<polygon class="st8" points="109.2,78.9 138.2,62 138.2,51.3 109.2,68.2 	"/>
</g>
</svg>
