<?xml version="1.0" encoding="utf-8"?>
<!-- Generator: Adobe Illustrator 19.2.0, SVG Export Plug-In . SVG Version: 6.00 Build 0)  -->
<svg version="1.1" id="Capa_1" xmlns="http://www.w3.org/2000/svg" xmlns:xlink="http://www.w3.org/1999/xlink" x="0px" y="0px"
	 viewBox="0 0 1080 1080" style="enable-background:new 0 0 1080 1080;" xml:space="preserve">
<g>
	<path d="M540,0C241.8,0,0,241.8,0,540s241.8,540,540,540s540-241.8,540-540S838.2,0,540,0z M578.2,710.7
		c-55.2,71-157.1,91.9-240,64c-86.7-28.5-150-114.8-150.2-206.1c0-1.4,0-2.9,0-4.4c-0.1-1.8-0.1-3.6-0.1-5.4
		c-1.1-112.7,98.1-215.6,211.3-216.9c58.6-5,115.6,17.8,159.9,54.8l0,0c0,0,0,0,0,0c-18.2,20-36.7,39.8-56.4,58.3
		c-39-23.7-86-41.8-131.6-25.7c-73.6,20.9-118.1,107.8-90.9,179.8c6.3,21.1,18.1,39.6,33.4,54.5c39,38.1,100.7,53,152.2,30.3
		c37.1-13.3,61.6-47.5,72.3-84.3c-42.5-0.9-85-0.3-127.6-1.5c0,0,0,0,0,0c0,0,0,0,0,0c-0.1-25.3-0.2-50.5-0.1-75.8
		c70.9-0.1,141.9-0.3,212.9,0.3c0,0,0,0,0,0c0,0,0,0,0,0C627.6,594.6,618.4,660.9,578.2,710.7z M888.7,532.5c0,21.2,0,42.2,0,63.3
		c0,0,0,0,0,0c-21.2,0.1-42.4,0.2-63.6,0.3c0,0.6,0,1.2,0,1.8c-0.2,20.3-0.3,40.6-0.4,60.9c0,0.3,0,0.7,0,1c-21.1-0.1-42.3,0-63.4,0
		c-0.2-21.3-0.2-42.4-0.4-63.6c-21.1-0.2-42.4-0.3-63.6-0.4c0,0,0,0,0,0c0-21.2,0-42.2,0-63.3c0,0,0,0,0,0
		c21.2-0.1,42.3-0.2,63.6-0.4c0.1-21.1,0.3-42.4,0.5-63.6c21.1,0,42.1,0,63.2,0c0.1,21.2,0.3,42.4,0.4,63.6
		C846.3,532.3,867.5,532.4,888.7,532.5C888.7,532.5,888.7,532.5,888.7,532.5z"/>
	<path d="M502.6,455c-39-23.7-86-41.8-131.6-25.7c-73.6,20.9-118.1,107.8-90.9,179.8c6.3,21.1,18.1,39.6,33.4,54.5
		c-15.3-14.9-27-33.4-33.4-54.5c-27.2-72,17.3-158.8,90.9-179.8C416.6,413.2,463.6,431.3,502.6,455c19.8-18.5,38.3-38.3,56.5-58.2
		c0,0,0,0,0,0C540.8,416.7,522.3,436.5,502.6,455z"/>
	<path d="M623.2,532.6c4.4,62-4.8,128.3-45.1,178.1c-55.2,71-157.1,91.9-240,64c-86.6-28.5-150-114.8-150.1-206.1
		c0.1,91.3,63.5,177.7,150.1,206.1c82.9,27.9,184.9,7,240-64C618.4,660.9,627.6,594.6,623.2,532.6
		C623.2,532.6,623.2,532.6,623.2,532.6z"/>
	<path d="M410.4,608.1C410.4,608.1,410.4,608.1,410.4,608.1c42.5,1.2,85,0.6,127.6,1.5c0,0,0,0,0,0
		C495.5,608.7,452.9,609.2,410.4,608.1z"/>
	<path d="M825.1,597.9c0-0.6,0-1.2,0-1.8c21.1-0.1,42.4-0.2,63.6-0.3c0,0,0,0,0,0c-21.1,0.1-42.4,0.2-63.6,0.3
		C825.1,596.7,825.1,597.3,825.1,597.9z"/>
	<path d="M761.3,659.8c-0.2-21.3-0.2-42.4-0.4-63.6c-21.1-0.2-42.4-0.3-63.6-0.4c0,0,0,0,0,0c21.2,0.1,42.4,0.2,63.6,0.4
		C761.1,617.4,761.1,638.6,761.3,659.8c21.1,0,42.2-0.1,63.4,0c0-0.3,0-0.7,0-1c0,0.3,0,0.7,0,1
		C803.5,659.7,782.4,659.8,761.3,659.8z"/>
	<path d="M399.1,341.9c58.6-5,115.5,17.7,159.9,54.8l0,0C514.7,359.6,457.7,336.9,399.1,341.9C286,343.2,186.8,446.1,187.9,558.8
		C186.8,446.1,286,343.2,399.1,341.9z"/>
	<path d="M465.7,693.9c37.1-13.3,61.6-47.5,72.3-84.3c0,0,0,0,0,0C527.2,646.3,502.8,680.6,465.7,693.9
		c-51.5,22.7-113.2,7.8-152.2-30.3C352.5,701.6,414.2,716.6,465.7,693.9z"/>
	<path d="M410.3,532.3c70.9-0.1,141.9-0.3,212.9,0.3c0,0,0,0,0,0C552.2,532,481.2,532.2,410.3,532.3c-0.1,25.3,0,50.5,0.1,75.8
		c0,0,0,0,0,0C410.3,582.8,410.2,557.6,410.3,532.3z"/>
	<path d="M825.1,597.9c-0.2,20.3-0.3,40.6-0.4,60.9C824.8,638.5,824.9,618.2,825.1,597.9z"/>
	<path d="M761.4,468.5c-0.2,21.2-0.4,42.4-0.5,63.6c-21.3,0.2-42.4,0.3-63.6,0.4c0,0,0,0,0,0c21.2-0.1,42.3-0.2,63.6-0.4
		C761,510.9,761.2,489.6,761.4,468.5z"/>
	<path d="M824.7,468.5c-21.1,0-42.2,0-63.2,0C782.5,468.5,803.5,468.5,824.7,468.5c0.1,21.2,0.3,42.4,0.4,63.6
		c21.2,0.2,42.4,0.3,63.6,0.4c0,0,0,0,0,0c-21.2-0.1-42.4-0.2-63.6-0.4C825,510.9,824.8,489.6,824.7,468.5z"/>
</g>
</svg>
