<?xml version="1.0" encoding="utf-8"?>
<!-- Generator: Adobe Illustrator 19.2.0, SVG Export Plug-In . SVG Version: 6.00 Build 0)  -->
<svg version="1.1" id="Calque_1" xmlns="http://www.w3.org/2000/svg" xmlns:xlink="http://www.w3.org/1999/xlink" x="0px" y="0px"
	 viewBox="0 0 458.8 12.7" style="enable-background:new 0 0 458.8 12.7;" xml:space="preserve">
<style type="text/css">
	.st0{fill:#FFFFFF;}
</style>
<g>
	<g>
		<path class="st0" d="M444.7,12.7c-0.5,0-0.8,0-1-0.1H18.9c-0.6,0-1-0.4-1-1s0.4-1,1-1h424.9c0.1,0,0.1,0,0.2,0
			c0.3,0.1,6.9,1.2,12.9-10.1c0.3-0.5,0.9-0.7,1.4-0.4c0.5,0.3,0.7,0.9,0.4,1.4C453.3,11.6,447.2,12.7,444.7,12.7z"/>
	</g>
	<g>
		<path class="st0" d="M14.1,12.7c-2.4,0-8.6-1.1-13.9-11.2C-0.1,1,0,0.4,0.5,0.1C1-0.1,1.6,0,1.9,0.5c6,11.2,12.6,10.2,12.8,10.1
			c0.1,0,0.1,0,0.2,0h430c0.6,0,1,0.4,1,1s-0.4,1-1,1H15C14.8,12.6,14.5,12.7,14.1,12.7z"/>
	</g>
</g>
</svg>
