<?xml version="1.0" encoding="utf-8"?>
<!-- Generator: Adobe Illustrator 19.2.0, SVG Export Plug-In . SVG Version: 6.00 Build 0)  -->
<svg version="1.1" id="Calque_1" xmlns="http://www.w3.org/2000/svg" xmlns:xlink="http://www.w3.org/1999/xlink" x="0px" y="0px"
	 viewBox="0 0 87 182.6" style="enable-background:new 0 0 87 182.6;" xml:space="preserve">
<style type="text/css">
	.st0{fill:#FFFFFF;}
	.st1{fill:#E7857B;}
	.st2{fill:#FFD44A;}
	.st3{fill:#C9C9C9;}
	.st4{fill:#BC3C35;}
	.st5{fill:#F2F2F2;}
</style>
<g>
	<polygon class="st0" points="28,163.6 0,148.4 0,114.7 28,129.9 	"/>
	<polygon class="st1" points="28,163.6 0,148.4 0,142.1 28,157.4 	"/>
	<polygon class="st1" points="28,132.2 0,117 0,114.7 28,129.9 	"/>
	<polygon class="st2" points="25.7,135 21.3,132.2 21.3,129.9 25.7,132.7 	"/>
	<polygon class="st3" points="28,163.6 54,148.4 54,114.7 28,129.9 	"/>
	<path class="st1" d="M20.9,142.1c0,4-3.2,5.9-7.2,4.3c-4-1.6-7.2-6.1-7.2-10.1c0-4,3.2-5.9,7.2-4.3
		C17.7,133.6,20.9,138.1,20.9,142.1z"/>
	<path class="st2" d="M5.1,122.4c0,0.8-0.6,1.2-1.5,0.9c-0.8-0.3-1.5-1.2-1.5-2s0.6-1.2,1.5-0.9C4.5,120.7,5.1,121.6,5.1,122.4z"/>
	<path class="st2" d="M9.1,124.7c0,0.8-0.6,1.2-1.5,0.9c-0.8-0.3-1.5-1.2-1.5-2s0.6-1.2,1.5-0.9C8.5,123,9.1,123.9,9.1,124.7z"/>
	<path class="st2" d="M13.2,127.2c0,0.8-0.6,1.2-1.5,0.9c-0.8-0.3-1.5-1.2-1.5-2s0.6-1.2,1.5-0.9C12.6,125.5,13.2,126.4,13.2,127.2z
		"/>
	<path class="st0" d="M19.3,141.5c0,3.1-2.5,4.6-5.6,3.4s-5.6-4.8-5.6-7.9c0-3.1,2.5-4.6,5.6-3.4C16.8,134.8,19.3,138.4,19.3,141.5z
		"/>
	<g>
		<path class="st0" d="M18.9,139.1c-0.8-2.4-2.9-4.6-5.2-5.6c-3.1-1.3-5.6,0.3-5.6,3.4c0,3.1,2.5,6.6,5.6,7.9
			c1.2,0.5,2.3,0.6,3.2,0.3c-0.1-0.6-0.2-1.1-0.2-1.7C16.7,141.4,17.5,139.9,18.9,139.1z"/>
		<path class="st1" d="M19.4,141.6c0-0.8-0.2-1.6-0.4-2.3c-1.4,0.8-2.2,2.3-2.2,4.3c0,0.6,0.1,1.1,0.2,1.7
			C18.5,144.8,19.4,143.5,19.4,141.6z"/>
	</g>
	<polygon class="st4" points="28,163.6 54,148.4 54,142.1 28,157.4 	"/>
	<polygon class="st5" points="53,114.6 26.8,129.9 0.6,114.7 27,99.6 	"/>
	<polygon class="st4" points="28,132.2 54,117 54,114.7 28,129.9 	"/>
</g>
<g>
	<polygon class="st0" points="28,123.7 0,108.5 0,74.8 28,90 	"/>
	<polygon class="st1" points="28,123.7 0,108.5 0,102.2 28,117.5 	"/>
	<polygon class="st1" points="28,92.3 0,77.1 0,74.8 28,90 	"/>
	<polygon class="st2" points="25.7,95.1 21.3,92.3 21.3,90 25.7,92.8 	"/>
	<polygon class="st3" points="28,123.7 54,108.5 54,74.8 28,90 	"/>
	<path class="st1" d="M20.9,102.2c0,4-3.2,5.9-7.2,4.3c-4-1.6-7.2-6.1-7.2-10.1c0-4,3.2-5.9,7.2-4.3S20.9,98.2,20.9,102.2z"/>
	<path class="st2" d="M5.1,82.5c0,0.8-0.6,1.2-1.5,0.9c-0.8-0.3-1.5-1.2-1.5-2s0.6-1.2,1.5-0.9C4.5,80.8,5.1,81.7,5.1,82.5z"/>
	<path class="st2" d="M9.1,84.8c0,0.8-0.6,1.2-1.5,0.9c-0.8-0.3-1.5-1.2-1.5-2s0.6-1.2,1.5-0.9C8.5,83.1,9.1,84,9.1,84.8z"/>
	<path class="st2" d="M13.2,87.3c0,0.8-0.6,1.2-1.5,0.9s-1.5-1.2-1.5-2c0-0.8,0.6-1.2,1.5-0.9C12.6,85.6,13.2,86.5,13.2,87.3z"/>
	<path class="st0" d="M19.3,101.6c0,3.1-2.5,4.6-5.6,3.4s-5.6-4.8-5.6-7.9c0-3.1,2.5-4.6,5.6-3.4C16.8,94.9,19.3,98.5,19.3,101.6z"
		/>
	<g>
		<path class="st0" d="M18.9,99.2c-0.8-2.4-2.9-4.6-5.2-5.6c-3.1-1.3-5.6,0.3-5.6,3.4c0,3.1,2.5,6.6,5.6,7.9
			c1.2,0.5,2.3,0.6,3.2,0.3c-0.1-0.6-0.2-1.1-0.2-1.7C16.7,101.5,17.5,100,18.9,99.2z"/>
		<path class="st1" d="M19.4,101.7c0-0.8-0.2-1.6-0.4-2.3c-1.4,0.8-2.2,2.3-2.2,4.3c0,0.6,0.1,1.1,0.2,1.7
			C18.5,104.9,19.4,103.6,19.4,101.7z"/>
	</g>
	<polygon class="st4" points="28,123.7 54,108.5 54,102.2 28,117.5 	"/>
	<polygon class="st5" points="53,74.8 26.8,90 0.6,74.8 27,59.7 	"/>
	<polygon class="st4" points="28,92.3 54,77.1 54,74.8 28,90 	"/>
</g>
<g>
	<polygon class="st0" points="28,84.5 0,69.3 0,35.6 28,50.8 	"/>
	<polygon class="st1" points="28,84.5 0,69.3 0,63 28,78.2 	"/>
	<polygon class="st1" points="28,53.1 0,37.9 0,35.6 28,50.8 	"/>
	<polygon class="st2" points="25.7,55.8 21.3,53.1 21.3,50.8 25.7,53.6 	"/>
	<polygon class="st3" points="28,84.5 54,69.3 54,35.6 28,50.8 	"/>
	<path class="st1" d="M20.9,63c0,4-3.2,5.9-7.2,4.3s-7.2-6.1-7.2-10.1c0-4,3.2-5.9,7.2-4.3S20.9,59,20.9,63z"/>
	<path class="st2" d="M5.1,43.3c0,0.8-0.6,1.2-1.5,0.9c-0.8-0.3-1.5-1.2-1.5-2s0.6-1.2,1.5-0.9S5.1,42.5,5.1,43.3z"/>
	<path class="st2" d="M9.1,45.6c0,0.8-0.6,1.2-1.5,0.9c-0.8-0.3-1.5-1.2-1.5-2c0-0.8,0.6-1.2,1.5-0.9S9.1,44.8,9.1,45.6z"/>
	<path class="st2" d="M13.2,48.1c0,0.8-0.6,1.2-1.5,0.9c-0.8-0.3-1.5-1.2-1.5-2c0-0.8,0.6-1.2,1.5-0.9S13.2,47.3,13.2,48.1z"/>
	<path class="st0" d="M19.3,62.3c0,3.1-2.5,4.6-5.6,3.4s-5.6-4.8-5.6-7.9c0-3.1,2.5-4.6,5.6-3.4C16.8,55.7,19.3,59.2,19.3,62.3z"/>
	<g>
		<path class="st0" d="M18.9,60c-0.8-2.4-2.9-4.6-5.2-5.6c-3.1-1.3-5.6,0.3-5.6,3.4s2.5,6.6,5.6,7.9c1.2,0.5,2.3,0.6,3.2,0.3
			c-0.1-0.6-0.2-1.1-0.2-1.7C16.7,62.3,17.5,60.8,18.9,60z"/>
		<path class="st1" d="M19.4,62.4c0-0.8-0.2-1.6-0.4-2.3c-1.4,0.8-2.2,2.3-2.2,4.3c0,0.6,0.1,1.1,0.2,1.7
			C18.5,65.7,19.4,64.4,19.4,62.4z"/>
	</g>
	<polygon class="st4" points="28,84.5 54,69.3 54,63 28,78.2 	"/>
	<polygon class="st5" points="53,35.5 26.8,50.8 0.6,35.6 27,20.4 	"/>
	<polygon class="st4" points="28,53.1 54,37.9 54,35.6 28,50.8 	"/>
</g>
<g>
	<polygon class="st0" points="59,182.6 33,167.4 33,133.7 59,148.9 	"/>
	<polygon class="st1" points="59,182.6 33,167.4 33,161.1 59,176.3 	"/>
	<polygon class="st1" points="59,151.2 33,135.9 33,133.7 59,148.9 	"/>
	<polygon class="st2" points="58.4,153.9 54,151.2 54,148.9 58.4,151.7 	"/>
	<polygon class="st3" points="59,182.6 87,167.4 87,133.7 59,148.9 	"/>
	<path class="st1" d="M53.6,161.1c0,4-3.2,5.9-7.2,4.3c-4-1.6-7.2-6.1-7.2-10.1s3.2-5.9,7.2-4.3C50.4,152.6,53.6,157.1,53.6,161.1z"
		/>
	<path class="st2" d="M37.8,141.4c0,0.8-0.6,1.2-1.5,0.9c-0.8-0.3-1.5-1.2-1.5-2s0.6-1.2,1.5-0.9C37.2,139.7,37.8,140.6,37.8,141.4z
		"/>
	<path class="st2" d="M41.8,143.7c0,0.8-0.6,1.2-1.5,0.9c-0.8-0.3-1.5-1.2-1.5-2s0.6-1.2,1.5-0.9C41.2,142,41.8,142.9,41.8,143.7z"
		/>
	<path class="st2" d="M45.9,146.2c0,0.8-0.6,1.2-1.5,0.9c-0.8-0.3-1.5-1.2-1.5-2s0.6-1.2,1.5-0.9C45.2,144.4,45.9,145.4,45.9,146.2z
		"/>
	<path class="st0" d="M52,160.4c0,3.1-2.5,4.6-5.6,3.4c-3.1-1.3-5.6-4.8-5.6-7.9c0-3.1,2.5-4.6,5.6-3.4
		C49.5,153.8,52,157.3,52,160.4z"/>
	<g>
		<path class="st0" d="M51.6,158.1c-0.8-2.4-2.9-4.6-5.2-5.6c-3.1-1.3-5.6,0.3-5.6,3.4c0,3.1,2.5,6.6,5.6,7.9
			c1.2,0.5,2.3,0.6,3.2,0.3c-0.1-0.6-0.2-1.1-0.2-1.7C49.4,160.4,50.2,158.9,51.6,158.1z"/>
		<path class="st1" d="M52.1,160.5c0-0.8-0.2-1.6-0.4-2.3c-1.4,0.8-2.2,2.3-2.2,4.3c0,0.6,0.1,1.1,0.2,1.7
			C51.1,163.8,52.1,162.5,52.1,160.5z"/>
	</g>
	<polygon class="st4" points="59,182.6 87,167.4 87,161.1 59,176.3 	"/>
	<polygon class="st5" points="85.7,133.6 59.5,148.9 33.3,133.7 59.6,118.5 	"/>
	<polygon class="st4" points="59,151.2 87,135.9 87,133.7 59,148.9 	"/>
</g>
<g>
	<polygon class="st0" points="59,142.7 33,127.5 33,93.8 59,109 	"/>
	<polygon class="st1" points="59,142.7 33,127.5 33,121.2 59,136.4 	"/>
	<polygon class="st1" points="59,111.3 33,96.1 33,93.8 59,109 	"/>
	<polygon class="st2" points="58.4,114 54,111.3 54,109 58.4,111.8 	"/>
	<polygon class="st3" points="59,142.7 87,127.5 87,93.8 59,109 	"/>
	<path class="st1" d="M53.6,121.2c0,4-3.2,5.9-7.2,4.3s-7.2-6.1-7.2-10.1c0-4,3.2-5.9,7.2-4.3S53.6,117.2,53.6,121.2z"/>
	<path class="st2" d="M37.8,101.5c0,0.8-0.6,1.2-1.5,0.9c-0.8-0.3-1.5-1.2-1.5-2s0.6-1.2,1.5-0.9C37.2,99.8,37.8,100.7,37.8,101.5z"
		/>
	<path class="st2" d="M41.8,103.8c0,0.8-0.6,1.2-1.5,0.9c-0.8-0.3-1.5-1.2-1.5-2s0.6-1.2,1.5-0.9C41.2,102.1,41.8,103,41.8,103.8z"
		/>
	<path class="st2" d="M45.9,106.3c0,0.8-0.6,1.2-1.5,0.9c-0.8-0.3-1.5-1.2-1.5-2s0.6-1.2,1.5-0.9C45.2,104.6,45.9,105.5,45.9,106.3z
		"/>
	<path class="st0" d="M52,120.5c0,3.1-2.5,4.6-5.6,3.4c-3.1-1.3-5.6-4.8-5.6-7.9c0-3.1,2.5-4.6,5.6-3.4S52,117.4,52,120.5z"/>
	<g>
		<path class="st0" d="M51.6,118.2c-0.8-2.4-2.9-4.6-5.2-5.6c-3.1-1.3-5.6,0.3-5.6,3.4c0,3.1,2.5,6.6,5.6,7.9
			c1.2,0.5,2.3,0.6,3.2,0.3c-0.1-0.6-0.2-1.1-0.2-1.7C49.4,120.5,50.2,119,51.6,118.2z"/>
		<path class="st1" d="M52.1,120.6c0-0.8-0.2-1.6-0.4-2.3c-1.4,0.8-2.2,2.3-2.2,4.3c0,0.6,0.1,1.1,0.2,1.7
			C51.1,123.9,52.1,122.6,52.1,120.6z"/>
	</g>
	<polygon class="st4" points="59,142.7 87,127.5 87,121.2 59,136.4 	"/>
	<polygon class="st5" points="85.7,93.7 59.5,109 33.3,93.8 59.6,78.6 	"/>
	<polygon class="st4" points="59,111.3 87,96.1 87,93.8 59,109 	"/>
</g>
<g>
	<polygon class="st0" points="59,103.5 33,88.2 33,54.5 59,69.8 	"/>
	<polygon class="st1" points="59,103.5 33,88.2 33,81.9 59,97.2 	"/>
	<polygon class="st1" points="59,72 33,56.8 33,54.5 59,69.8 	"/>
	<polygon class="st2" points="58.4,74.8 54,72 54,69.8 58.4,72.5 	"/>
	<polygon class="st3" points="59,103.5 87,88.2 87,54.5 59,69.8 	"/>
	<path class="st1" d="M53.6,81.9c0,4-3.2,5.9-7.2,4.3s-7.2-6.1-7.2-10.1s3.2-5.9,7.2-4.3C50.4,73.4,53.6,78,53.6,81.9z"/>
	<path class="st2" d="M37.8,62.3c0,0.8-0.6,1.2-1.5,0.9c-0.8-0.3-1.5-1.2-1.5-2s0.6-1.2,1.5-0.9C37.2,60.6,37.8,61.5,37.8,62.3z"/>
	<path class="st2" d="M41.8,64.6c0,0.8-0.6,1.2-1.5,0.9c-0.8-0.3-1.5-1.2-1.5-2c0-0.8,0.6-1.2,1.5-0.9
		C41.2,62.8,41.8,63.8,41.8,64.6z"/>
	<path class="st2" d="M45.9,67c0,0.8-0.6,1.2-1.5,0.9c-0.8-0.3-1.5-1.2-1.5-2s0.6-1.2,1.5-0.9C45.2,65.3,45.9,66.2,45.9,67z"/>
	<path class="st0" d="M52,81.3c0,3.1-2.5,4.6-5.6,3.4c-3.1-1.3-5.6-4.8-5.6-7.9c0-3.1,2.5-4.6,5.6-3.4S52,78.2,52,81.3z"/>
	<g>
		<path class="st0" d="M51.6,79c-0.8-2.4-2.9-4.6-5.2-5.6c-3.1-1.3-5.6,0.3-5.6,3.4c0,3.1,2.5,6.6,5.6,7.9c1.2,0.5,2.3,0.6,3.2,0.3
			c-0.1-0.6-0.2-1.1-0.2-1.7C49.4,81.2,50.2,79.7,51.6,79z"/>
		<path class="st1" d="M52.1,81.4c0-0.8-0.2-1.6-0.4-2.3c-1.4,0.8-2.2,2.3-2.2,4.3c0,0.6,0.1,1.1,0.2,1.7
			C51.1,84.6,52.1,83.3,52.1,81.4z"/>
	</g>
	<polygon class="st4" points="59,103.5 87,88.2 87,81.9 59,97.2 	"/>
	<polygon class="st5" points="85.7,54.5 59.5,69.8 33.3,54.5 59.6,39.4 	"/>
	<polygon class="st4" points="59,72 87,56.8 87,54.5 59,69.8 	"/>
</g>
<polygon class="st0" points="59,64.1 33,48.8 33,15.1 59,30.4 "/>
<polygon class="st1" points="59,64.1 33,48.8 33,42.5 59,57.8 "/>
<polygon class="st1" points="59,32.6 33,17.4 33,15.1 59,30.4 "/>
<polygon class="st2" points="58.4,35.4 54,32.6 54,30.4 58.4,33.1 "/>
<polygon class="st3" points="59,64.1 87,48.8 87,15.1 59,30.4 "/>
<path class="st1" d="M53.6,42.5c0,4-3.2,5.9-7.2,4.3c-4-1.6-7.2-6.1-7.2-10.1s3.2-5.9,7.2-4.3C50.4,34,53.6,38.6,53.6,42.5z"/>
<path class="st2" d="M37.8,22.9c0,0.8-0.6,1.2-1.5,0.9c-0.8-0.3-1.5-1.2-1.5-2s0.6-1.2,1.5-0.9C37.2,21.2,37.8,22.1,37.8,22.9z"/>
<path class="st2" d="M41.8,25.2c0,0.8-0.6,1.2-1.5,0.9c-0.8-0.3-1.5-1.2-1.5-2c0-0.8,0.6-1.2,1.5-0.9C41.2,23.4,41.8,24.3,41.8,25.2
	z"/>
<path class="st2" d="M45.9,27.6c0,0.8-0.6,1.2-1.5,0.9c-0.8-0.3-1.5-1.2-1.5-2c0-0.8,0.6-1.2,1.5-0.9C45.2,25.9,45.9,26.8,45.9,27.6
	z"/>
<path class="st0" d="M52,41.9c0,3.1-2.5,4.6-5.6,3.4c-3.1-1.3-5.6-4.8-5.6-7.9s2.5-4.6,5.6-3.4S52,38.8,52,41.9z"/>
<g>
	<path class="st0" d="M51.6,39.6c-0.8-2.4-2.9-4.6-5.2-5.6c-3.1-1.3-5.6,0.3-5.6,3.4c0,3.1,2.5,6.6,5.6,7.9c1.2,0.5,2.3,0.6,3.2,0.3
		c-0.1-0.6-0.2-1.1-0.2-1.7C49.4,41.8,50.2,40.3,51.6,39.6z"/>
	<path class="st1" d="M52.1,42c0-0.8-0.2-1.6-0.4-2.3c-1.4,0.8-2.2,2.3-2.2,4.3c0,0.6,0.1,1.1,0.2,1.7C51.1,45.2,52.1,43.9,52.1,42z
		"/>
</g>
<polygon class="st4" points="59,64.1 87,48.8 87,42.5 59,57.8 "/>
<polygon class="st5" points="85.7,15.1 59.5,30.4 33.3,15.1 59.6,0 "/>
<polygon class="st4" points="59,32.6 87,17.4 87,15.1 59,30.4 "/>
</svg>
