<?xml version="1.0" encoding="utf-8"?>
<!-- Generator: Adobe Illustrator 19.2.0, SVG Export Plug-In . SVG Version: 6.00 Build 0)  -->
<svg version="1.1" id="Calque_1" xmlns="http://www.w3.org/2000/svg" xmlns:xlink="http://www.w3.org/1999/xlink" x="0px" y="0px"
	 viewBox="0 0 92.3 191.8" style="enable-background:new 0 0 92.3 191.8;" xml:space="preserve">
<style type="text/css">
	.st0{fill:#C9C9C9;}
	.st1{fill:#4BD188;}
	.st2{fill:#F2F2F2;}
	.st3{fill:#4F5A69;}
	.st4{fill:#62ED9D;}
	.st5{fill:none;stroke:#F2F2F2;stroke-width:0.9584;stroke-miterlimit:10;}
	.st6{fill:#4AD6CB;}
</style>
<g>
	<polygon class="st0" points="67.1,172.9 92.1,158.6 92.1,128.6 67.1,143 	"/>
	<polygon class="st1" points="92.3,128.6 67.7,143 32.7,122.5 57.5,108.3 	"/>
	<polygon class="st2" points="67.1,172.9 33.1,152.5 33.1,122.6 67.1,143 	"/>
	<polygon class="st3" points="66.1,165.8 43.1,152.3 43.1,132.5 66.1,146 	"/>
	<polygon class="st4" points="41.1,151.6 35.1,149.1 35.1,129.4 41.1,131.9 	"/>
	<polygon class="st2" points="43.1,147.7 35.1,144.5 35.1,142.3 43.1,145.5 	"/>
	<polygon class="st2" points="41.1,143.5 35.1,140.3 35.1,138 41.1,141.2 	"/>
	<polygon class="st2" points="41.1,139.2 35.1,136 35.1,133.8 41.1,137 	"/>
	<line class="st5" x1="43.1" y1="142.9" x2="60.6" y2="152.7"/>
	<line class="st5" x1="43.1" y1="144.2" x2="60.6" y2="154"/>
	<line class="st5" x1="43.1" y1="145.6" x2="60.6" y2="155.4"/>
</g>
<g>
	<polygon class="st0" points="67.1,137 92.1,122.7 92.1,92.7 67.1,107 	"/>
	<polygon class="st1" points="92.3,92.7 67.7,107 32.7,86.6 57.5,72.4 	"/>
	<polygon class="st2" points="67.1,137 33.1,116.6 33.1,86.7 67.1,107.1 	"/>
	<polygon class="st3" points="66.1,129.8 43.1,116.3 43.1,96.6 66.1,110.1 	"/>
	<polygon class="st4" points="41.1,115.7 35.1,113.2 35.1,93.4 41.1,95.9 	"/>
	<polygon class="st2" points="43.1,111.8 35.1,108.6 35.1,106.4 43.1,109.6 	"/>
	<polygon class="st2" points="41.1,107.6 35.1,104.4 35.1,102.1 41.1,105.3 	"/>
	<polygon class="st2" points="41.1,103.3 35.1,100.1 35.1,97.9 41.1,101.1 	"/>
	<line class="st5" x1="43.1" y1="107" x2="60.6" y2="116.8"/>
	<line class="st5" x1="43.1" y1="108.3" x2="60.6" y2="118.1"/>
	<line class="st5" x1="43.1" y1="109.7" x2="60.6" y2="119.5"/>
</g>
<g>
	<polygon class="st0" points="67.1,101.1 92.1,86.8 92.1,56.8 67.1,71.1 	"/>
	<polygon class="st1" points="92.3,56.8 67.7,71.1 32.7,50.7 57.5,36.5 	"/>
	<polygon class="st2" points="67.1,101 33.1,80.6 33.1,50.7 67.1,71.1 	"/>
	<polygon class="st3" points="66.1,93.9 43.1,80.4 43.1,60.7 66.1,74.2 	"/>
	<polygon class="st4" points="41.1,79.8 35.1,77.3 35.1,57.5 41.1,60 	"/>
	<polygon class="st2" points="43.1,75.9 35.1,72.7 35.1,70.5 43.1,73.7 	"/>
	<polygon class="st2" points="41.1,71.6 35.1,68.4 35.1,66.2 41.1,69.4 	"/>
	<polygon class="st2" points="41.1,67.4 35.1,64.2 35.1,62 41.1,65.2 	"/>
	<line class="st5" x1="43.1" y1="71.1" x2="60.6" y2="80.9"/>
	<line class="st5" x1="43.1" y1="72.3" x2="60.6" y2="82.1"/>
	<line class="st5" x1="43.1" y1="73.8" x2="60.6" y2="83.6"/>
</g>
<g>
	<polygon class="st0" points="67.1,64.6 92.1,50.3 92.1,20.3 67.1,34.6 	"/>
	<polygon class="st1" points="92.3,20.3 67.7,34.6 32.7,14.2 57.5,0 	"/>
	<polygon class="st2" points="67.1,64.6 33.1,44.2 33.1,14.2 67.1,34.7 	"/>
	<polygon class="st3" points="66.1,57.4 43.1,43.9 43.1,24.2 66.1,37.7 	"/>
	<polygon class="st4" points="41.1,43.3 35.1,40.8 35.1,21 41.1,23.5 	"/>
	<polygon class="st2" points="43.1,39.4 35.1,36.2 35.1,34 43.1,37.2 	"/>
	<polygon class="st2" points="41.1,35.1 35.1,31.9 35.1,29.7 41.1,32.9 	"/>
	<polygon class="st2" points="41.1,30.9 35.1,27.7 35.1,25.5 41.1,28.7 	"/>
	<line class="st5" x1="43.1" y1="34.6" x2="60.6" y2="44.4"/>
	<line class="st5" x1="43.1" y1="35.8" x2="60.6" y2="45.6"/>
	<line class="st5" x1="43.1" y1="37.3" x2="60.6" y2="47.1"/>
</g>
<g>
	<polygon class="st0" points="35.1,191.8 60.1,177.4 60.1,147.5 35.1,161.8 	"/>
	<polygon class="st1" points="59.6,147.4 34.9,161.8 0,141.4 24.8,127.2 	"/>
	<polygon class="st2" points="35.1,191.7 0.1,171.3 0.1,141.4 35.1,161.8 	"/>
	<polygon class="st3" points="31.1,184.6 10.1,171.1 10.1,151.3 31.1,164.8 	"/>
	<polygon class="st4" points="8.1,170.5 5.1,168 5.1,148.2 8.1,150.7 	"/>
	<polygon class="st2" points="8.1,166.6 2.1,163.4 2.1,161.1 8.1,164.3 	"/>
	<polygon class="st2" points="8.1,162.3 2.1,159.1 2.1,156.9 8.1,160.1 	"/>
	<polygon class="st2" points="8.1,158.1 2.1,154.9 2.1,152.6 8.1,155.8 	"/>
	<line class="st5" x1="10.4" y1="161.7" x2="27.9" y2="171.5"/>
	<line class="st5" x1="10.4" y1="163" x2="27.9" y2="172.8"/>
	<line class="st5" x1="10.4" y1="164.4" x2="27.9" y2="174.2"/>
</g>
<g>
	<polygon class="st0" points="35.1,155.8 60.1,141.5 60.1,111.6 35.1,125.9 	"/>
	<polygon class="st1" points="59.6,111.5 34.9,125.9 0,105.5 24.8,91.2 	"/>
	<polygon class="st2" points="35.1,155.8 0.1,135.4 0.1,105.5 35.1,125.9 	"/>
	<polygon class="st3" points="31.1,148.7 10.1,135.2 10.1,115.4 31.1,128.9 	"/>
	<polygon class="st4" points="8.1,134.5 5.1,132 5.1,112.3 8.1,114.8 	"/>
	<polygon class="st2" points="8.1,130.7 2.1,127.5 2.1,125.2 8.1,128.4 	"/>
	<polygon class="st2" points="8.1,126.4 2.1,123.2 2.1,121 8.1,124.2 	"/>
	<polygon class="st2" points="8.1,122.2 2.1,119 2.1,116.7 8.1,119.9 	"/>
	<line class="st5" x1="10.4" y1="125.8" x2="27.9" y2="135.6"/>
	<line class="st5" x1="10.4" y1="127.1" x2="27.9" y2="136.9"/>
	<line class="st5" x1="10.4" y1="128.5" x2="27.9" y2="138.3"/>
</g>
<g>
	<polygon class="st0" points="35.1,119.9 60.1,105.6 60.1,75.6 35.1,90 	"/>
	<polygon class="st1" points="59.6,75.6 34.9,90 0,69.5 24.8,55.3 	"/>
	<polygon class="st2" points="35.1,119.9 0.1,99.5 0.1,69.6 35.1,90 	"/>
	<polygon class="st3" points="31.1,112.8 10.1,99.3 10.1,79.5 31.1,93 	"/>
	<polygon class="st4" points="8.1,98.6 5.1,96.1 5.1,76.4 8.1,78.9 	"/>
	<polygon class="st2" points="8.1,94.8 2.1,91.6 2.1,89.3 8.1,92.5 	"/>
	<polygon class="st2" points="8.1,90.5 2.1,87.3 2.1,85 8.1,88.2 	"/>
	<polygon class="st2" points="8.1,86.3 2.1,83.1 2.1,80.8 8.1,84 	"/>
	<line class="st5" x1="10.4" y1="89.9" x2="27.9" y2="99.7"/>
	<line class="st5" x1="10.4" y1="91.2" x2="27.9" y2="101"/>
	<line class="st5" x1="10.4" y1="92.6" x2="27.9" y2="102.4"/>
</g>
<g>
	<polygon class="st0" points="35.1,83.4 60.1,69.1 60.1,39.2 35.1,53.5 	"/>
	<polygon class="st1" points="59.6,39.1 34.9,53.5 0,33.1 24.8,18.8 	"/>
	<polygon class="st2" points="35.1,83.4 0.1,63 0.1,33.1 35.1,53.5 	"/>
	<polygon class="st3" points="31.1,76.3 10.1,62.8 10.1,43 31.1,56.5 	"/>
	<polygon class="st4" points="8.1,62.1 5.1,59.6 5.1,39.9 8.1,42.4 	"/>
	<polygon class="st2" points="8.1,58.3 2.1,55.1 2.1,52.8 8.1,56 	"/>
	<polygon class="st2" points="8.1,54 2.1,50.8 2.1,48.5 8.1,51.7 	"/>
	<polygon class="st2" points="8.1,49.8 2.1,46.6 2.1,44.3 8.1,47.5 	"/>
	<line class="st5" x1="10.4" y1="53.4" x2="27.9" y2="63.2"/>
	<line class="st5" x1="10.4" y1="54.7" x2="27.9" y2="64.5"/>
	<line class="st5" x1="10.4" y1="56.1" x2="27.9" y2="65.9"/>
</g>
<path class="st6" d="M46.2,163.9"/>
</svg>
