<?xml version="1.0" encoding="utf-8"?>
<!-- Generator: Adobe Illustrator 19.2.0, SVG Export Plug-In . SVG Version: 6.00 Build 0)  -->
<svg version="1.1" id="Calque_1" xmlns="http://www.w3.org/2000/svg" xmlns:xlink="http://www.w3.org/1999/xlink" x="0px" y="0px"
	 viewBox="0 0 106 233.7" style="enable-background:new 0 0 106 233.7;" xml:space="preserve">
<style type="text/css">
	.st0{fill:#C9C9C9;}
	.st1{fill:#B0FFF7;}
	.st2{fill:#FFFFFF;}
	.st3{fill:#62ED9D;}
	.st4{fill:#4AD6CB;}
	.st5{fill:#0BB7A6;}
</style>
<g>
	<polyline class="st0" points="43.5,189.8 37.2,184.5 37.3,193.4 43.4,189.8 	"/>
	<polyline class="st0" points="82.2,212.2 75.9,207 76,215.9 82.1,212.3 	"/>
	<polygon class="st1" points="39,193.4 36,191.8 36,182.8 39,184.5 	"/>
	<polygon class="st1" points="75,215.9 73,214.2 73,205.2 75,207 	"/>
	<polygon class="st2" points="85.6,219 30,186.1 30,131.5 85.9,164.5 	"/>
	<polygon class="st3" points="82.9,211.3 31,180.6 31,167.9 83,198.6 	"/>
	<polygon class="st0" points="86,219 104,208.9 104,154.4 86,164.5 	"/>
	<polygon class="st4" points="105.4,156 88,166.1 25.2,129.1 42.6,119.1 	"/>
	<polygon class="st1" points="87.9,166.1 88,167.6 25,130.5 25,129.1 	"/>
	<path class="st2" d="M45.8,183c0,0.5-0.4,0.8-1,0.6c-0.5-0.2-1-0.8-1-1.3s0.4-0.8,1-0.6C45.4,181.9,45.8,182.5,45.8,183z"/>
	<path class="st2" d="M69.9,196.3c0,0.5-0.4,0.8-1,0.6c-0.5-0.2-1-0.8-1-1.3s0.4-0.8,1-0.6C69.4,195.2,69.9,195.8,69.9,196.3z"/>
	<polygon class="st3" points="82.9,196.6 31,165.9 31,153.2 83,184 	"/>
	<path class="st2" d="M45.8,168.3c0,0.5-0.4,0.8-1,0.6c-0.5-0.2-1-0.8-1-1.3s0.4-0.8,1-0.6C45.4,167.2,45.8,167.8,45.8,168.3z"/>
	<path class="st2" d="M69.9,181.7c0,0.5-0.4,0.8-1,0.6c-0.5-0.2-1-0.8-1-1.3c0-0.5,0.4-0.8,1-0.6C69.4,180.5,69.9,181.1,69.9,181.7z
		"/>
	<polygon class="st3" points="82.9,182.1 31,151.3 31,138.6 83,169.4 	"/>
	<path class="st2" d="M45.8,153.7c0,0.5-0.4,0.8-1,0.6c-0.5-0.2-1-0.8-1-1.3s0.4-0.8,1-0.6C45.4,152.6,45.8,153.2,45.8,153.7z"/>
	<path class="st2" d="M69.9,167.1c0,0.5-0.4,0.8-1,0.6c-0.5-0.2-1-0.8-1-1.3c0-0.5,0.4-0.8,1-0.6C69.4,165.9,69.9,166.6,69.9,167.1z
		"/>
	<polygon class="st5" points="88.5,167.6 106,157.6 106,156 88.5,166.1 	"/>
</g>
<g>
	<polyline class="st0" points="18.3,204.4 12,199.2 12.1,208.1 18.2,204.5 	"/>
	<polyline class="st0" points="57,226.9 50.7,221.7 50.8,230.6 56.9,227 	"/>
	<polygon class="st1" points="13,208.1 11,206.5 11,197.5 13,199.2 	"/>
	<polygon class="st1" points="50,230.6 49,228.9 49,219.9 50,221.7 	"/>
	<polygon class="st2" points="59.5,233.7 3,200.8 3,146.2 59.3,179.2 	"/>
	<polygon class="st3" points="58.3,226 7,195.3 7,182.6 58.7,213.3 	"/>
	<polygon class="st0" points="61,233.7 78,223.6 78,169.1 61,179.2 	"/>
	<polygon class="st4" points="80.2,170.7 62.8,180.8 0,143.8 17.4,133.8 	"/>
	<polygon class="st1" points="62.8,180.8 62.9,182.3 0,145.2 0,143.8 	"/>
	<path class="st2" d="M20.6,197.7c0,0.5-0.4,0.8-1,0.6s-1-0.8-1-1.3s0.4-0.8,1-0.6C20.2,196.6,20.6,197.2,20.6,197.7z"/>
	<path class="st2" d="M44.7,211c0,0.5-0.4,0.8-1,0.6c-0.5-0.2-1-0.8-1-1.3s0.4-0.8,1-0.6S44.7,210.5,44.7,211z"/>
	<polygon class="st3" points="58.3,211.3 7,180.6 7,167.9 58.7,198.7 	"/>
	<path class="st2" d="M20.6,183c0,0.5-0.4,0.8-1,0.6s-1-0.8-1-1.3c0-0.5,0.4-0.8,1-0.6C20.2,181.9,20.6,182.5,20.6,183z"/>
	<path class="st2" d="M44.7,196.4c0,0.5-0.4,0.8-1,0.6c-0.5-0.2-1-0.8-1-1.3s0.4-0.8,1-0.6S44.7,195.8,44.7,196.4z"/>
	<polygon class="st3" points="58.3,196.8 7,166 7,153.3 58.7,184.1 	"/>
	<path class="st2" d="M20.6,168.4c0,0.5-0.4,0.8-1,0.6s-1-0.8-1-1.3s0.4-0.8,1-0.6C20.2,167.3,20.6,167.9,20.6,168.4z"/>
	<path class="st2" d="M44.7,181.8c0,0.5-0.4,0.8-1,0.6c-0.5-0.2-1-0.8-1-1.3s0.4-0.8,1-0.6S44.7,181.2,44.7,181.8z"/>
	<polygon class="st5" points="63.4,182.3 81,172.3 81,170.7 63.5,180.8 	"/>
</g>
<g>
	<polyline class="st0" points="43.5,129.9 37.2,124.7 37.3,133.6 43.4,130 	"/>
	<polyline class="st0" points="82.2,152.4 75.9,147.2 76,156.1 82.1,152.5 	"/>
	<polygon class="st1" points="39,133.6 36,132 36,123 39,124.7 	"/>
	<polygon class="st1" points="75,156.1 73,154.4 73,145.4 75,147.2 	"/>
	<polygon class="st2" points="85.6,159.2 30,126.3 30,71.7 85.9,104.7 	"/>
	<polygon class="st3" points="82.9,151.5 31,120.8 31,108.1 83,138.8 	"/>
	<polygon class="st0" points="86,159.2 104,149.1 104,94.6 86,104.7 	"/>
	<polygon class="st4" points="105.4,96.2 88,106.3 25.2,69.3 42.6,59.3 	"/>
	<polygon class="st1" points="87.9,106.3 88,107.8 25,70.7 25,69.3 	"/>
	<path class="st2" d="M45.8,123.2c0,0.5-0.4,0.8-1,0.6c-0.5-0.2-1-0.8-1-1.3s0.4-0.8,1-0.6C45.4,122.1,45.8,122.7,45.8,123.2z"/>
	<path class="st2" d="M69.9,136.5c0,0.5-0.4,0.8-1,0.6c-0.5-0.2-1-0.8-1-1.3s0.4-0.8,1-0.6C69.4,135.4,69.9,136,69.9,136.5z"/>
	<polygon class="st3" points="82.9,136.8 31,106.1 31,93.4 83,124.2 	"/>
	<path class="st2" d="M45.8,108.5c0,0.5-0.4,0.8-1,0.6c-0.5-0.2-1-0.8-1-1.3c0-0.5,0.4-0.8,1-0.6C45.4,107.4,45.8,108,45.8,108.5z"
		/>
	<path class="st2" d="M69.9,121.9c0,0.5-0.4,0.8-1,0.6c-0.5-0.2-1-0.8-1-1.3c0-0.5,0.4-0.8,1-0.6C69.4,120.7,69.9,121.3,69.9,121.9z
		"/>
	<polygon class="st3" points="82.9,122.3 31,91.5 31,78.8 83,109.6 	"/>
	<path class="st2" d="M45.8,93.9c0,0.5-0.4,0.8-1,0.6c-0.5-0.2-1-0.8-1-1.3c0-0.5,0.4-0.8,1-0.6C45.4,92.8,45.8,93.4,45.8,93.9z"/>
	<path class="st2" d="M69.9,107.3c0,0.5-0.4,0.8-1,0.6c-0.5-0.2-1-0.8-1-1.3s0.4-0.8,1-0.6C69.4,106.1,69.9,106.7,69.9,107.3z"/>
	<polygon class="st5" points="88.5,107.8 106,97.8 106,96.2 88.5,106.3 	"/>
</g>
<g>
	<polyline class="st0" points="18.3,144.6 12,139.4 12.1,148.3 18.2,144.7 	"/>
	<polyline class="st0" points="57,167.1 50.7,161.9 50.8,170.8 56.9,167.2 	"/>
	<polygon class="st1" points="13,148.3 11,146.7 11,137.7 13,139.4 	"/>
	<polygon class="st1" points="50,170.8 49,169.1 49,160.1 50,161.9 	"/>
	<polygon class="st2" points="59.5,173.9 3,141 3,86.4 59.3,119.4 	"/>
	<polygon class="st3" points="58.3,166.2 7,135.5 7,122.8 58.7,153.5 	"/>
	<polygon class="st0" points="61,173.9 78,163.8 78,109.3 61,119.3 	"/>
	<polygon class="st4" points="80.2,110.9 62.8,121 0,84 17.4,74 	"/>
	<polygon class="st1" points="62.8,121 62.9,122.5 0,85.4 0,84 	"/>
	<path class="st2" d="M20.6,137.9c0,0.5-0.4,0.8-1,0.6c-0.5-0.2-1-0.8-1-1.3s0.4-0.8,1-0.6S20.6,137.4,20.6,137.9z"/>
	<path class="st2" d="M44.7,151.2c0,0.5-0.4,0.8-1,0.6s-1-0.8-1-1.3s0.4-0.8,1-0.6C44.2,150.1,44.7,150.7,44.7,151.2z"/>
	<polygon class="st3" points="58.3,151.5 7,120.8 7,108.1 58.7,138.9 	"/>
	<path class="st2" d="M20.6,123.2c0,0.5-0.4,0.8-1,0.6c-0.5-0.2-1-0.8-1-1.3s0.4-0.8,1-0.6C20.2,122.1,20.6,122.7,20.6,123.2z"/>
	<path class="st2" d="M44.7,136.6c0,0.5-0.4,0.8-1,0.6s-1-0.8-1-1.3c0-0.5,0.4-0.8,1-0.6S44.7,136,44.7,136.6z"/>
	<polygon class="st3" points="58.3,136.9 7,106.2 7,93.5 58.7,124.3 	"/>
	<path class="st2" d="M20.6,108.6c0,0.5-0.4,0.8-1,0.6c-0.5-0.2-1-0.8-1-1.3s0.4-0.8,1-0.6C20.2,107.5,20.6,108.1,20.6,108.6z"/>
	<path class="st2" d="M44.7,122c0,0.5-0.4,0.8-1,0.6c-0.5-0.2-1-0.8-1-1.3s0.4-0.8,1-0.6C44.2,120.8,44.7,121.4,44.7,122z"/>
	<polygon class="st5" points="63.4,122.5 81,112.5 81,110.9 63.5,121 	"/>
</g>
<g>
	<polyline class="st0" points="43.5,70.6 37.2,65.4 37.3,74.3 43.4,70.7 	"/>
	<polyline class="st0" points="82.2,93.1 75.9,87.9 76,96.8 82.1,93.2 	"/>
	<polygon class="st1" points="39,74.3 36,72.6 36,63.7 39,65.4 	"/>
	<polygon class="st1" points="75,96.7 73,95.1 73,86.1 75,87.8 	"/>
	<polygon class="st2" points="85.6,99.9 30,67 30,12.3 85.9,45.4 	"/>
	<polygon class="st3" points="82.9,92.2 31,61.5 31,48.8 83,79.5 	"/>
	<polygon class="st0" points="86,99.9 104,89.8 104,35.2 86,45.3 	"/>
	<polygon class="st4" points="105.4,36.9 88,47 25.2,10 42.6,0 	"/>
	<polygon class="st1" points="87.9,47 88,48.4 25,11.3 25,10 	"/>
	<path class="st2" d="M45.8,63.9c0,0.5-0.4,0.8-1,0.6c-0.5-0.2-1-0.8-1-1.3c0-0.5,0.4-0.8,1-0.6C45.4,62.7,45.8,63.3,45.8,63.9z"/>
	<path class="st2" d="M69.9,77.2c0,0.5-0.4,0.8-1,0.6c-0.5-0.2-1-0.8-1-1.3c0-0.5,0.4-0.8,1-0.6C69.4,76.1,69.9,76.7,69.9,77.2z"/>
	<polygon class="st3" points="82.9,77.5 31,46.8 31,34.1 83,64.8 	"/>
	<path class="st2" d="M45.8,49.2c0,0.5-0.4,0.8-1,0.6c-0.5-0.2-1-0.8-1-1.3c0-0.5,0.4-0.8,1-0.6C45.4,48.1,45.8,48.7,45.8,49.2z"/>
	<path class="st2" d="M69.9,62.5c0,0.5-0.4,0.8-1,0.6c-0.5-0.2-1-0.8-1-1.3c0-0.5,0.4-0.8,1-0.6C69.4,61.4,69.9,62,69.9,62.5z"/>
	<polygon class="st3" points="82.9,62.9 31,32.2 31,19.5 83,50.2 	"/>
	<path class="st2" d="M45.8,34.6c0,0.5-0.4,0.8-1,0.6c-0.5-0.2-1-0.8-1-1.3c0-0.5,0.4-0.8,1-0.6C45.4,33.5,45.8,34.1,45.8,34.6z"/>
	<path class="st2" d="M69.9,47.9c0,0.5-0.4,0.8-1,0.6c-0.5-0.2-1-0.8-1-1.3c0-0.5,0.4-0.8,1-0.6C69.4,46.8,69.9,47.4,69.9,47.9z"/>
	<polygon class="st5" points="88.5,48.4 106,38.4 106,36.9 88.5,47 	"/>
</g>
<g>
	<polyline class="st0" points="18.3,85.3 12,80.1 12.1,89 18.2,85.4 	"/>
	<polyline class="st0" points="57,107.8 50.7,102.6 50.8,111.5 56.9,107.9 	"/>
	<polygon class="st1" points="13,89 11,87.3 11,78.4 13,80.1 	"/>
	<polygon class="st1" points="50,111.4 49,109.8 49,100.8 50,102.5 	"/>
	<polygon class="st2" points="59.5,114.6 3,81.6 3,27 59.3,60 	"/>
	<polygon class="st3" points="58.3,106.9 7,76.2 7,63.5 58.7,94.2 	"/>
	<polygon class="st0" points="61,114.6 78,104.5 78,49.9 61,60 	"/>
	<polygon class="st4" points="80.2,51.6 62.8,61.7 0,24.7 17.4,14.7 	"/>
	<polygon class="st1" points="62.8,61.7 62.9,63.1 0,26 0,24.7 	"/>
	<path class="st2" d="M20.6,78.6c0,0.5-0.4,0.8-1,0.6c-0.5-0.2-1-0.8-1-1.3c0-0.5,0.4-0.8,1-0.6C20.2,77.4,20.6,78,20.6,78.6z"/>
	<path class="st2" d="M44.7,91.9c0,0.5-0.4,0.8-1,0.6c-0.5-0.2-1-0.8-1-1.3s0.4-0.8,1-0.6C44.2,90.8,44.7,91.4,44.7,91.9z"/>
	<polygon class="st3" points="58.3,92.2 7,61.5 7,48.8 58.7,79.5 	"/>
	<path class="st2" d="M20.6,63.9c0,0.5-0.4,0.8-1,0.6c-0.5-0.2-1-0.8-1-1.3c0-0.5,0.4-0.8,1-0.6S20.6,63.4,20.6,63.9z"/>
	<path class="st2" d="M44.7,77.2c0,0.5-0.4,0.8-1,0.6c-0.5-0.2-1-0.8-1-1.3c0-0.5,0.4-0.8,1-0.6C44.2,76.1,44.7,76.7,44.7,77.2z"/>
	<polygon class="st3" points="58.3,77.6 7,46.9 7,34.2 58.7,64.9 	"/>
	<path class="st2" d="M20.6,49.3c0,0.5-0.4,0.8-1,0.6c-0.5-0.2-1-0.8-1-1.3s0.4-0.8,1-0.6S20.6,48.8,20.6,49.3z"/>
	<path class="st2" d="M44.7,62.6c0,0.5-0.4,0.8-1,0.6s-1-0.8-1-1.3c0-0.5,0.4-0.8,1-0.6C44.2,61.5,44.7,62.1,44.7,62.6z"/>
	<polygon class="st5" points="63.4,63.1 81,53.1 81,51.6 63.5,61.7 	"/>
</g>
</svg>
