<?xml version="1.0" encoding="utf-8"?>
<!-- Generator: Adobe Illustrator 19.2.0, SVG Export Plug-In . SVG Version: 6.00 Build 0)  -->
<svg version="1.1" id="Calque_1" xmlns="http://www.w3.org/2000/svg" xmlns:xlink="http://www.w3.org/1999/xlink" x="0px" y="0px"
	 viewBox="0 0 57.4 143.3" style="enable-background:new 0 0 57.4 143.3;" xml:space="preserve">
<style type="text/css">
	.st0{fill:#F2F2F2;}
	.st1{fill:#808080;}
	.st2{fill:#E7857B;}
	.st3{fill:#BC3C35;}
	.st4{fill:#C9C9C9;}
	.st5{fill:none;stroke:#808080;stroke-width:1.2778;stroke-miterlimit:10;}
	.st6{fill:#62ED9D;}
	.st7{fill:#D35A54;}
</style>
<g>
	<polygon class="st0" points="41,139.9 0,116.3 0,87.8 41,111.4 	"/>
	<polygon class="st1" points="40.7,143.3 0,119.6 0,116.3 40.7,140 	"/>
	<polygon class="st2" points="57.4,101.9 40.9,111.5 0.1,87.7 16.7,78.2 	"/>
	<polygon class="st3" points="43.6,103.9 37.8,107.2 7,89.4 12.2,86.5 	"/>
	<polygon class="st3" points="50.6,99.9 44.8,103.2 14,85.4 19.2,82.5 	"/>
	<polygon class="st4" points="40.7,143.3 57.4,133.8 57.4,101.9 40.7,111.4 	"/>
	<line class="st5" x1="49.1" y1="132.3" x2="49.1" y2="112.9"/>
	<polygon class="st1" points="47.9,119.8 50.2,118.5 50.2,114.2 47.9,115.5 	"/>
	<path class="st6" d="M36.6,114.8c0,0.8-0.7,1.2-1.5,0.9c-0.8-0.3-1.5-1.3-1.5-2.1c0-0.8,0.7-1.2,1.5-0.9S36.6,113.9,36.6,114.8z"/>
	<path class="st6" d="M36.6,120.4c0,0.8-0.7,1.2-1.5,0.9c-0.8-0.3-1.5-1.3-1.5-2.1c0-0.8,0.7-1.2,1.5-0.9
		C35.9,118.7,36.6,119.6,36.6,120.4z"/>
	<polygon class="st7" points="12.2,86.5 12.2,92.4 7,89.4 	"/>
	<polygon class="st7" points="19.2,82.5 19.2,88.4 14,85.4 	"/>
</g>
<g>
	<polygon class="st0" points="41,100.9 0,77.3 0,48.8 41,72.4 	"/>
	<polygon class="st1" points="40.7,104.3 0,80.6 0,77.4 40.7,101 	"/>
	<polygon class="st2" points="57.4,62.9 40.9,72.5 0.1,48.7 16.7,39.2 	"/>
	<polygon class="st3" points="43.6,64.9 37.8,68.2 7,50.4 12.2,47.5 	"/>
	<polygon class="st3" points="50.6,60.9 44.8,64.2 14,46.4 19.2,43.5 	"/>
	<polygon class="st4" points="40.7,104.3 57.4,94.8 57.4,62.9 40.7,72.4 	"/>
	<line class="st5" x1="49.1" y1="93.3" x2="49.1" y2="73.9"/>
	<polygon class="st1" points="47.9,80.8 50.2,79.5 50.2,75.2 47.9,76.5 	"/>
	<path class="st6" d="M36.6,75.8c0,0.8-0.7,1.2-1.5,0.9c-0.8-0.3-1.5-1.3-1.5-2.1s0.7-1.2,1.5-0.9S36.6,74.9,36.6,75.8z"/>
	<path class="st6" d="M36.6,81.4c0,0.8-0.7,1.2-1.5,0.9c-0.8-0.3-1.5-1.3-1.5-2.1c0-0.8,0.7-1.2,1.5-0.9S36.6,80.6,36.6,81.4z"/>
	<polygon class="st7" points="12.2,47.5 12.2,53.4 7,50.4 	"/>
	<polygon class="st7" points="19.2,43.5 19.2,49.4 14,46.4 	"/>
</g>
<g>
	<polygon class="st0" points="41,61.7 0,38 0,9.5 41,33.2 	"/>
	<polygon class="st1" points="40.7,65 0,41.4 0,38.1 40.7,61.8 	"/>
	<polygon class="st2" points="57.4,23.7 40.9,33.2 0.1,9.5 16.7,0 	"/>
	<polygon class="st3" points="43.6,25.7 37.8,28.9 7,11.1 12.2,8.2 	"/>
	<polygon class="st3" points="50.6,21.7 44.8,25 14,7.2 19.2,4.3 	"/>
	<polygon class="st4" points="40.7,65 57.4,55.5 57.4,23.7 40.7,33.2 	"/>
	<line class="st5" x1="49.1" y1="54" x2="49.1" y2="34.7"/>
	<polygon class="st1" points="47.9,41.6 50.2,40.3 50.2,35.9 47.9,37.2 	"/>
	<path class="st6" d="M36.6,36.5c0,0.8-0.7,1.2-1.5,0.9s-1.5-1.3-1.5-2.1c0-0.8,0.7-1.2,1.5-0.9S36.6,35.7,36.6,36.5z"/>
	<path class="st6" d="M36.6,42.2c0,0.8-0.7,1.2-1.5,0.9c-0.8-0.3-1.5-1.3-1.5-2.1s0.7-1.2,1.5-0.9C35.9,40.4,36.6,41.4,36.6,42.2z"
		/>
	<polygon class="st7" points="12.2,8.2 12.2,14.1 7,11.1 	"/>
	<polygon class="st7" points="19.2,4.3 19.2,10.2 14,7.2 	"/>
</g>
</svg>
