<?xml version="1.0" encoding="utf-8"?>
<!-- Generator: Adobe Illustrator 19.2.0, SVG Export Plug-In . SVG Version: 6.00 Build 0)  -->
<svg version="1.1" id="Calque_1" xmlns="http://www.w3.org/2000/svg" xmlns:xlink="http://www.w3.org/1999/xlink" x="0px" y="0px"
	 viewBox="0 0 315.7 409.2" style="enable-background:new 0 0 315.7 409.2;" xml:space="preserve">
<style type="text/css">
	.st0{fill:#BBBCB7;}
	.st1{fill:#E6E6E6;}
	.st2{fill:#191919;}
	.st3{fill:#2C2C2C;}
	.st4{fill:#DEE3D5;}
	.st5{fill:#FFFFFF;}
	.st6{fill:#4AD6CB;}
	.st7{opacity:0.17;fill:#FFFFFF;}
	.st8{fill:#999999;}
	.st9{fill:#D6DDCC;}
	.st10{fill:none;stroke:#C3C6BD;stroke-linecap:round;stroke-miterlimit:10;}
	.st11{fill:none;stroke:#C3C6BD;stroke-linecap:round;stroke-linejoin:round;stroke-miterlimit:10;}
	.st12{fill:#EE998D;}
	.st13{fill:#37995F;}
	.st14{fill:#43D67F;}
	.st15{fill:#EBF3E1;}
	.st16{fill:#3CBC73;}
	.st17{fill:#62ED9D;}
	.st18{fill:none;stroke:#C3C6BD;stroke-width:0.2429;stroke-linecap:round;stroke-miterlimit:10;}
	.st19{fill:#E7857B;}
	.st20{fill:#BC3C35;}
	.st21{fill:none;stroke:#E7857B;stroke-linecap:round;stroke-miterlimit:10;}
	.st22{fill:none;stroke:#43D67F;stroke-linecap:round;stroke-miterlimit:10;}
	.st23{fill:#18857F;}
	.st24{fill:none;stroke:#4AD6CB;stroke-linecap:round;stroke-miterlimit:10;}
	.st25{fill:#CDC4B7;}
	.st26{fill:#46C486;}
	.st27{fill:none;stroke:#EE998D;stroke-width:3.2424;stroke-miterlimit:10;}
	.st28{fill:#B1A795;}
	.st29{fill:#34B7AA;}
</style>
<g>
	<g>
		<g>
			<path class="st0" d="M97.6,239.3V260c0,4.3,2.3,8.2,5.9,10.3l17.3,9.9c1.4,0.8,3.1,0.8,4.5,0l25.6-14.9c1.1-0.6,1.1-2.3,0-2.9
				l-17.3-10c-2.9-1.7-4.6-4.7-4.6-8v-18.4"/>
			<path class="st1" d="M98.8,238.6v20.8c0,4.3,2.3,8.2,5.9,10.3l16.2,9.4c1.4,0.8,3.1,0.8,4.5,0l25.6-14.9c1.1-0.6,1.1-2.3,0-2.9
				l-17.3-10c-2.9-1.7-4.6-4.7-4.6-8v-18.4"/>
		</g>
		<g>
			<path class="st2" d="M198.6,6.8l-10.2-6l-6.6,8.4c0,0,13.4,5,13.5,4.9C195.4,13.9,198.6,6.8,198.6,6.8z"/>
			<g>
				<polygon class="st3" points="13.7,296.3 3.2,290.1 4.6,285.4 16.1,284.6 15.5,293.5 				"/>
				<path class="st2" d="M183.1,0.7L9.6,103.6c-6,3.5-9.6,10-9.6,16.9v164c0,5.1,5.5,8.2,9.9,5.6l173.1-102.6c5-2.9,8-8.3,8-14V5.2
					C190.9,1.2,186.5-1.3,183.1,0.7z"/>
				<path class="st3" d="M193.6,6.9L20.1,109.8c-6,3.5-9.6,10-9.6,16.9v164c0,5.1,5.5,8.2,9.9,5.6l173.1-102.6c5-2.9,8-8.3,8-14
					V11.4C201.4,7.4,197,4.9,193.6,6.9z"/>
				<g>
					<path class="st4" d="M3.3,290.1C3.3,290.1,3.2,290.1,3.3,290.1L3.3,290.1L3.3,290.1z"/>
					<g>
						<path class="st4" d="M3.3,290.2l10.4,6.1l1.8-2.8l0.5-7l-6.1,3.6C7.7,291.4,5.2,291.2,3.3,290.2z"/>
						<path class="st4" d="M0,284.5c0,2.5,1.4,4.5,3.2,5.6l1.4-4.7l11.5-0.8l-0.1,1.8l12.8-7.6L0,262V284.5z"/>
					</g>
					<path class="st4" d="M3.3,290.2L3.3,290.2C3.3,290.1,3.3,290.1,3.3,290.2z"/>
					<path class="st4" d="M3.3,290.2c1.9,1.1,4.4,1.2,6.5-0.1l6.1-3.6l0.1-1.8l-11.5,0.8L3.3,290.2C3.2,290.1,3.3,290.1,3.3,290.2
						L3.3,290.2z"/>
				</g>
				<path class="st5" d="M20.4,296.3l173.1-102.6c5-2.9,8-8.3,8-14v-24.5L10.5,268.4v22.3C10.5,295.7,16,298.9,20.4,296.3z"/>
				<polygon class="st6" points="19.7,252.8 194.2,149.4 194.2,22 19.7,125.5 				"/>
			</g>
		</g>
		<polygon class="st7" points="19.7,252.8 153.8,46 19.7,125.5 		"/>
	</g>
	<g>
		<g>
			<polygon class="st8" points="211.3,369.4 277.1,330.2 277.1,327.8 211.3,366.9 			"/>
			<polygon class="st5" points="211.3,369.4 111.1,310.6 111.1,308.1 211.3,366.9 			"/>
			<path class="st5" d="M150.7,294.6c0-0.6,0.4-1.2,1-1.7c1.8-1.4,5.2-1.7,7.6-0.7c1.5,0.6,2.3,1.6,2.2,2.5h3.2l0.5-4.9l-9-1.3
				l-6.4,1.5l-1.7,3.8L150.7,294.6z"/>
			<path class="st9" d="M176.8,269.2l-65.7,39l100.2,58.8l65.8-39.2L176.8,269.2z M160.5,294.8c-1.8,1.4-5.2,1.7-7.6,0.7
				s-2.9-2.8-1.2-4.2c1.8-1.4,5.2-1.7,7.6-0.7S162.3,293.4,160.5,294.8z"/>
		</g>
		<polygon class="st5" points="184.8,288.5 256,330.1 209.2,357.9 138.2,316.2 		"/>
		<g>
			<line class="st10" x1="148.8" y1="317.7" x2="186.6" y2="295.2"/>
			<line class="st10" x1="154" y1="320.8" x2="191.8" y2="298.2"/>
			<line class="st10" x1="159.3" y1="323.8" x2="197.1" y2="301.3"/>
			<line class="st10" x1="164.5" y1="326.9" x2="202.3" y2="304.4"/>
			<line class="st10" x1="169.8" y1="329.9" x2="207.6" y2="307.4"/>
			<line class="st10" x1="175" y1="333" x2="212.8" y2="310.5"/>
			<line class="st10" x1="180.2" y1="336.1" x2="195" y2="327.3"/>
		</g>
		<polygon class="st11" points="185.6,339 193.8,334.1 201.5,338.6 193.3,343.4 		"/>
		<g>
			<g>
				<path class="st12" d="M185.9,339.6c4.4,0,8.8-0.4,13.1-0.9c0.8-0.1,0.8-1.4,0-1.2c-4.4,0.6-8.7,0.9-13.1,0.9
					C185.1,338.3,185.1,339.6,185.9,339.6L185.9,339.6z"/>
			</g>
		</g>
		<g>
			<g>
				<path class="st12" d="M193.9,342.6c0.6-3.1,1.2-6.2,1.9-9.3c0.2-0.8-1-1.1-1.2-0.3c-0.6,3.1-1.2,6.2-1.9,9.3
					C192.5,343.1,193.8,343.4,193.9,342.6L193.9,342.6z"/>
			</g>
		</g>
	</g>
	<g>
		<g>
			<path class="st13" d="M144.5,362.7l1.4-0.9c0,0,2.3-6.9-0.5-9s-7.2-4.6-7.2-4.6L144.5,362.7z"/>
			<polygon class="st14" points="91,330.2 145.4,362 104.9,386 50.5,354.2 			"/>
			<g>
				<polygon class="st9" points="90.1,330 144.5,361.8 105.3,385 50.9,353.2 				"/>
				<polygon class="st5" points="90.1,329.2 144.5,361 105.3,384.2 50.9,352.4 				"/>
				<polygon class="st15" points="90.1,328.4 144.5,360.2 105.3,383.4 50.9,351.6 				"/>
				<polygon class="st9" points="90.1,327.6 144.5,359.4 105.3,382.6 50.9,350.8 				"/>
				<polygon class="st5" points="90.1,326.8 144.5,358.6 105.3,381.8 50.9,350 				"/>
				<polygon class="st15" points="90.1,326 144.5,357.8 105.3,381 50.9,349.2 				"/>
				<polygon class="st9" points="90.1,325.2 144.5,357 105.3,380.2 50.9,348.3 				"/>
				<polygon class="st5" points="90.1,324.3 144.5,356.2 105.3,379.3 50.9,347.5 				"/>
				<polygon class="st15" points="90.1,323.5 144.5,355.4 105.3,378.5 50.9,346.7 				"/>
			</g>
			<polygon class="st14" points="91,320.1 145.4,351.9 104.9,375.9 50.5,344.1 			"/>
			<polygon class="st9" points="88.3,327.7 101.5,335.4 78.7,348.9 65.5,341.2 			"/>
			<polygon class="st16" points="104.9,377.4 145.4,353.4 145.4,351.9 104.9,375.9 			"/>
			<polygon class="st16" points="104.9,387.5 145.4,363.5 145.4,362 104.9,386 			"/>
			<polygon class="st17" points="104.9,377.4 50.5,345.6 50.5,344.1 104.9,375.9 			"/>
			<polygon class="st17" points="104.9,387.5 50.5,355.7 50.5,354.1 104.9,386 			"/>
			<path class="st16" d="M145.4,362c0,0,2.4-5,0-8.5v-1.5c0,0,4.5,3.8,0,11.6"/>
			<line class="st18" x1="76.5" y1="345.1" x2="95.1" y2="334.1"/>
			<line class="st18" x1="73.8" y1="343.5" x2="92.4" y2="332.5"/>
			<line class="st18" x1="71.1" y1="342" x2="89.7" y2="331"/>
		</g>
		<g>
			<g>
				<polygon class="st16" points="82.7,374.5 82.7,362.9 92,357.4 82.7,351.8 73.3,357.4 73.3,369 				"/>
				<polyline class="st16" points="82.7,374.5 81.2,375.4 79.9,373 81.9,371.4 				"/>
			</g>
			<polygon class="st16" points="92,355.6 92,357.4 88.3,357.7 90.3,355.1 			"/>
		</g>
		<polygon class="st17" points="81.2,375.4 81.2,362.1 92,355.6 82.7,350.1 71.9,356.6 71.9,369.9 		"/>
		<path class="st5" d="M84,356.2c-0.7,0.5-1.9,0.6-2.8,0.2c-0.9-0.4-1.1-1.1-0.4-1.6c0.7-0.5,1.9-0.6,2.8-0.2
			C84.5,355,84.7,355.7,84,356.2z"/>
	</g>
	<g>
		<path class="st19" d="M202.7,288.5c0,0-6.4-3.6-8.6-7.3c-0.3-0.6,0-1.3,0.7-1.3c5-0.2,11.3,4.1,11.3,4.1"/>
		<path class="st20" d="M206.7,285.1c0,1.2-1,2.7-2.1,3.4c-1.2,0.7-2.1,0.3-2.1-0.9c0-1.2,1-2.7,2.1-3.4
			C205.7,283.5,206.7,283.9,206.7,285.1z"/>
		<polyline class="st5" points="206.3,284.6 244,306.6 241.1,310.5 203.6,288.5 		"/>
		<path class="st20" d="M244.4,307.5c0,1-0.8,2.3-1.8,2.8c-1,0.6-1.8,0.3-1.8-0.7c0-1,0.8-2.3,1.8-2.8
			C243.6,306.2,244.4,306.5,244.4,307.5z"/>
		<path class="st5" d="M206.7,285.5c0,1-0.8,2.3-1.8,2.8c-1,0.6-1.8,0.3-1.8-0.7c0-1,0.8-2.3,1.8-2.8
			C205.9,284.2,206.7,284.5,206.7,285.5z"/>
		<line class="st21" x1="208.9" y1="289.5" x2="201.9" y2="285.5"/>
	</g>
	<g>
		<path class="st14" d="M203.6,267.3c0,0-6.4-3.6-8.6-7.3c-0.3-0.6,0-1.3,0.7-1.3c5-0.2,11.3,4.1,11.3,4.1"/>
		<path class="st16" d="M207.5,263.8c0,1.2-1,2.7-2.1,3.4c-1.2,0.7-2.1,0.3-2.1-0.9s1-2.7,2.1-3.4
			C206.6,262.3,207.5,262.7,207.5,263.8z"/>
		<polyline class="st5" points="207.1,263.4 244.9,285.4 242,289.2 204.5,267.3 		"/>
		<path class="st16" d="M245.3,286.3c0,1-0.8,2.3-1.8,2.8c-1,0.6-1.8,0.3-1.8-0.7c0-1,0.8-2.3,1.8-2.8
			C244.5,285,245.3,285.3,245.3,286.3z"/>
		<path class="st5" d="M207.5,264.2c0,1-0.8,2.3-1.8,2.8c-1,0.6-1.8,0.3-1.8-0.7c0-1,0.8-2.3,1.8-2.8
			C206.7,262.9,207.5,263.3,207.5,264.2z"/>
		<line class="st22" x1="209.7" y1="268.3" x2="202.7" y2="264.2"/>
	</g>
	<g>
		<path class="st6" d="M215.2,259.6c0,0-6.4-3.6-8.6-7.3c-0.3-0.6,0-1.3,0.7-1.3c5-0.2,11.3,4.1,11.3,4.1"/>
		<path class="st23" d="M219.2,256.2c0,1.2-1,2.7-2.1,3.4c-1.2,0.7-2.1,0.3-2.1-0.9s1-2.7,2.1-3.4S219.2,255,219.2,256.2z"/>
		<polyline class="st5" points="218.8,255.7 256.5,277.7 253.7,281.6 216.1,259.6 		"/>
		<path class="st23" d="M256.9,278.6c0,1-0.8,2.3-1.8,2.8c-1,0.6-1.8,0.3-1.8-0.7c0-1,0.8-2.3,1.8-2.8
			C256.1,277.3,256.9,277.6,256.9,278.6z"/>
		<path class="st5" d="M219.2,256.6c0,1-0.8,2.3-1.8,2.8c-1,0.6-1.8,0.3-1.8-0.7c0-1,0.8-2.3,1.8-2.8
			C218.4,255.2,219.2,255.6,219.2,256.6z"/>
		<line class="st24" x1="221.4" y1="260.6" x2="214.4" y2="256.5"/>
	</g>
	<g>
		<path class="st25" d="M181.9,385.8l3.3-3.7c0.1-0.1,0-0.3-0.2-0.3l-5.1,1.3L181.9,385.8z"/>
		<polyline class="st26" points="179.9,383 140.5,406.4 142.5,409.1 181.9,385.8 		"/>
		<path class="st25" d="M142.7,408.5c0,0.7-0.6,0.9-1.3,0.5c-0.7-0.4-1.3-1.3-1.3-2s0.6-0.9,1.3-0.5
			C142.2,406.9,142.7,407.8,142.7,408.5z"/>
		<path class="st26" d="M141.9,408c0,0.2-0.2,0.3-0.4,0.2c-0.2-0.1-0.4-0.4-0.4-0.6c0-0.2,0.2-0.3,0.4-0.2
			C141.7,407.5,141.9,407.8,141.9,408z"/>
		<path class="st26" d="M182.1,385.1c0,0.7-0.6,0.9-1.3,0.5c-0.7-0.4-1.3-1.3-1.3-2c0-0.7,0.6-0.9,1.3-0.5
			C181.6,383.6,182.1,384.4,182.1,385.1z"/>
		<path class="st26" d="M185.1,381.8l-1.7,0.4c0.8,0.2,0.8,0.7,0.8,1l1-1.2C185.3,381.9,185.2,381.7,185.1,381.8z"/>
	</g>
	<g>
		<path class="st25" d="M173.6,380.6l3.3-3.7c0.1-0.1,0-0.3-0.2-0.3l-5.1,1.3L173.6,380.6z"/>
		<polyline class="st19" points="171.7,377.9 132.3,401.3 134.2,404 173.6,380.6 		"/>
		<path class="st25" d="M134.5,403.4c0,0.7-0.6,0.9-1.3,0.5c-0.7-0.4-1.3-1.3-1.3-2c0-0.7,0.6-0.9,1.3-0.5
			C133.9,401.8,134.5,402.7,134.5,403.4z"/>
		<path class="st19" d="M133.6,402.9c0,0.2-0.2,0.3-0.4,0.2c-0.2-0.1-0.4-0.4-0.4-0.6s0.2-0.3,0.4-0.2
			C133.5,402.4,133.6,402.7,133.6,402.9z"/>
		<path class="st19" d="M173.9,380c0,0.7-0.6,0.9-1.3,0.5c-0.7-0.4-1.3-1.3-1.3-2c0-0.7,0.6-0.9,1.3-0.5
			C173.3,378.4,173.9,379.3,173.9,380z"/>
		<path class="st19" d="M176.8,376.7l-1.7,0.4c0.8,0.2,0.8,0.7,0.8,1l1-1.2C177.1,376.8,177,376.6,176.8,376.7z"/>
	</g>
	<g>
		<path class="st25" d="M165,375.9l3.3-3.7c0.1-0.1,0-0.3-0.2-0.3l-5.1,1.3L165,375.9z"/>
		<polyline class="st6" points="163.1,373.2 123.7,396.6 125.6,399.3 165,375.9 		"/>
		<path class="st25" d="M125.9,398.7c0,0.7-0.6,0.9-1.3,0.5c-0.7-0.4-1.3-1.3-1.3-2c0-0.7,0.6-0.9,1.3-0.5
			C125.3,397.1,125.9,398,125.9,398.7z"/>
		<path class="st6" d="M125,398.2c0,0.2-0.2,0.3-0.4,0.2c-0.2-0.1-0.4-0.4-0.4-0.6s0.2-0.3,0.4-0.2C124.8,397.7,125,397.9,125,398.2
			z"/>
		<path class="st6" d="M165.3,375.3c0,0.7-0.6,0.9-1.3,0.5c-0.7-0.4-1.3-1.3-1.3-2c0-0.7,0.6-0.9,1.3-0.5
			C164.7,373.7,165.3,374.6,165.3,375.3z"/>
		<path class="st6" d="M168.2,372l-1.7,0.4c0.8,0.2,0.8,0.7,0.8,1l1-1.2C168.4,372.1,168.3,371.9,168.2,372z"/>
	</g>
	<g>
		<path class="st27" d="M268.4,219.3c6.8-4,12.3-1.7,12.3,5.1c0,6.8-5.5,15.5-12.3,19.4"/>
		<path class="st12" d="M270.1,254.9c-6.4,4.9-18.7,6.2-27.5,2.7c-8.8-3.5-10.7-10.3-4.3-15.2c6.4-4.9,18.7-6.2,27.5-2.7
			S276.6,249.9,270.1,254.9z"/>
		<polyline class="st12" points="234.5,211.3 234.5,249.4 273.9,248.6 273.9,211.3 		"/>
		<path class="st5" d="M270.1,217.8c-6.4,4.9-18.7,6.2-27.5,2.7c-8.8-3.5-10.7-10.3-4.3-15.2c6.4-4.9,18.7-6.2,27.5-2.7
			C274.6,206,276.6,212.8,270.1,217.8z"/>
		<path class="st12" d="M268.7,217.2c-5.9,4.5-17.1,5.6-25.1,2.5c-8-3.2-9.8-9.4-3.9-13.9c5.9-4.5,17.1-5.6,25.1-2.5
			C272.8,206.5,274.6,212.7,268.7,217.2z"/>
		<path class="st28" d="M268.5,217.4c-1-0.7-2.2-1.4-3.7-1.9c-7.9-3.1-18.9-2.1-24.9,2.3c1,0.7,2.2,1.4,3.7,1.9
			C251.5,222.8,262.6,221.8,268.5,217.4z"/>
	</g>
	<g>
		<polygon class="st29" points="286.5,288.1 315.7,305.2 294,318.1 264.8,301 		"/>
		<polygon class="st5" points="287.5,291.3 295.4,295.9 277.9,306.3 270,301.7 		"/>
		<polygon class="st15" points="283.3,305.7 286.2,307.4 283,309.3 280.1,307.6 		"/>
		<polygon class="st15" points="292.3,300.2 295.2,302 292,303.8 289.1,302.1 		"/>
		<polygon class="st15" points="288,302.8 290.9,304.5 287.7,306.4 284.8,304.7 		"/>
		<polygon class="st15" points="291,310.2 293.9,311.9 290.7,313.8 287.8,312.1 		"/>
		<polygon class="st15" points="300,304.8 302.9,306.5 299.7,308.4 296.8,306.7 		"/>
		<polygon class="st15" points="295.7,307.4 298.6,309.1 295.4,311 292.5,309.3 		"/>
		<polygon class="st15" points="287.1,308 290.1,309.7 286.9,311.6 283.9,309.9 		"/>
		<polygon class="st15" points="296.2,302.5 299.1,304.2 295.9,306.1 293,304.4 		"/>
		<polygon class="st15" points="297.6,297.2 299.7,298.4 297.4,299.8 295.2,298.6 		"/>
		<polygon class="st15" points="300.4,298.8 302.5,300.1 300.2,301.5 298,300.2 		"/>
		<polygon class="st15" points="306,302.1 308.1,303.4 305.8,304.8 303.6,303.5 		"/>
		<polygon class="st15" points="303.2,300.5 305.4,301.8 303,303.2 300.9,301.9 		"/>
		<polygon class="st15" points="291.8,305.1 294.7,306.8 291.5,308.7 288.6,307 		"/>
		<polygon class="st23" points="294,319.9 315.7,307 315.7,305.2 294,318.1 		"/>
		<polygon class="st6" points="294,319.9 264.8,302.8 264.8,301 294,318.1 		"/>
	</g>
</g>
</svg>
