<?xml version="1.0" encoding="utf-8"?>
<!-- Generator: Adobe Illustrator 16.0.0, SVG Export Plug-In . SVG Version: 6.00 Build 0)  -->
<!DOCTYPE svg PUBLIC "-//W3C//DTD SVG 1.1//EN" "http://www.w3.org/Graphics/SVG/1.1/DTD/svg11.dtd">
<svg version="1.1" id="Capa_1" xmlns="http://www.w3.org/2000/svg" xmlns:xlink="http://www.w3.org/1999/xlink" x="0px" y="0px"
	 width="126.667px" height="125px" viewBox="251.167 236.5 126.667 125" enable-background="new 251.167 236.5 126.667 125"
	 xml:space="preserve">
<g>
	<polyline points="283.279,264.867 283.283,264.865 283.285,264.865 	"/>
	<path d="M350.535,353.217c-8.222,2.061-20.763,3.361-34.804,3.361c-13.908,0-26.342-1.277-34.564-3.295l0.425-15.594
		c9.498,0.756,20.536,1.195,32.333,1.232c0.638,0.016,1.275,0.016,1.925,0.016c0.638,0,1.275,0,1.913-0.016
		c11.757-0.037,22.742-0.477,32.213-1.221L350.535,353.217z"/>
	<path d="M317.763,289.654v45.613c-0.638,0.012-1.275,0.012-1.913,0.012c-0.65,0-1.288,0-1.925-0.012v-45.613
		c0.691-0.012,1.382-0.012,2.072-0.012C316.595,289.643,317.179,289.643,317.763,289.654z"/>
	<g>
		<g>
			<g>
				<g>
					<path d="M306.084,311.426c0,1.623-1.54,3.068-3.943,4.016c-2.405-0.947-3.944-2.393-3.944-4.016
						c0-1.625,1.539-3.072,3.944-4.016C304.544,308.354,306.084,309.801,306.084,311.426z"/>
				</g>
			</g>
			<path d="M299.56,315.955c-1.495,0.395-3.204,0.615-5.021,0.615c-3.98,0-7.444-1.074-9.24-2.662l-5.094,5.09v-15.145l5.094,5.09
				c1.337-1.184,3.6-2.08,6.311-2.467v-22.266h2.067v22.082c0.284-0.01,0.573-0.016,0.862-0.016c1.816,0,3.526,0.223,5.021,0.619
				c-2.233,1.154-3.484,2.766-3.484,4.529S297.327,314.799,299.56,315.955z"/>
		</g>
		<g>
			<g>
				<g>
					<path d="M352.492,311.426c0,1.623-1.54,3.068-3.944,4.016c-2.404-0.947-3.944-2.393-3.944-4.016
						c0-1.625,1.54-3.072,3.944-4.016C350.952,308.354,352.492,309.801,352.492,311.426z"/>
				</g>
			</g>
			<path d="M345.967,315.955c-1.494,0.395-3.203,0.615-5.02,0.615c-3.981,0-7.444-1.074-9.24-2.662l-5.095,5.09v-15.145l5.095,5.09
				c1.338-1.184,3.6-2.08,6.311-2.467v-22.266h2.067v22.082c0.283-0.01,0.573-0.016,0.862-0.016c1.816,0,3.525,0.223,5.02,0.619
				c-2.232,1.154-3.484,2.766-3.484,4.529S343.735,314.799,345.967,315.955z"/>
		</g>
	</g>
	<path d="M325.787,248.093l-2.763,13.245c-0.013,0-0.026,0.013-0.04,0.013l-7.08-3.613l-7.12,3.64
		c-0.041-0.013-0.08-0.026-0.12-0.039l-2.763-13.245c2.299-1.222,5.3-2.019,8.621-2.178v-4.623c0-0.73,0.584-1.329,1.328-1.329
		c0.731,0,1.329,0.598,1.329,1.329v4.623C320.5,246.075,323.489,246.872,325.787,248.093z"/>
	<path d="M365.081,270.212l-3.919,22.381c-8.169-3.412-24.455-5.789-43.398-5.924c-0.584-0.012-1.168-0.012-1.766-0.012
		c-0.69,0-1.381,0-2.072,0.012c-18.837,0.16-35.017,2.525-43.12,5.953l-4.185-22.438l10.88,3.096l5.287-8.409v-0.013l15.861,5.327
		l10.136-5.167l7.12-3.64l7.08,3.614l10.176,5.194l15.861-5.327l5.3,8.422L365.081,270.212z"/>
</g>
</svg>
