<?xml version="1.0" encoding="utf-8"?>
<!-- Generator: Adobe Illustrator 16.0.0, SVG Export Plug-In . SVG Version: 6.00 Build 0)  -->
<!DOCTYPE svg PUBLIC "-//W3C//DTD SVG 1.1//EN" "http://www.w3.org/Graphics/SVG/1.1/DTD/svg11.dtd">
<svg version="1.1" id="Capa_1" xmlns="http://www.w3.org/2000/svg" xmlns:xlink="http://www.w3.org/1999/xlink" x="0px" y="0px"
	 width="160px" height="139.5px" viewBox="235.5 230 160 139.5" enable-background="new 235.5 230 160 139.5" xml:space="preserve">
<path d="M380.752,344.003c-2.312,0-4.194-1.882-4.194-4.194v-62.846c0-8.354-6.653-15.18-14.939-15.468
	c0.441,2.19,0.675,4.454,0.675,6.772c0,1.238-1.003,2.241-2.241,2.241c-1.235,0-2.238-1.003-2.238-2.241
	c0-8.106-3.259-15.465-8.53-20.841c-1.266-1.605-7.153-5.528-8.829-6.169c0.04,0,0.079,0,0.119,0.003
	c-3.813-1.778-8.063-2.772-12.542-2.772c-16.42,0-29.779,13.359-29.779,29.78c0,4.007,0.797,7.828,2.238,11.318
	c1.408,3.952,3.7,7.336,6.574,9.804c0,0.003,0.003,0.006,0.003,0.009c5.387,5.344,12.797,8.65,20.964,8.65
	c1.238,0,2.241,1.001,2.241,2.239c0,1.237-1.003,2.237-2.241,2.237c-18.283,0-33.267-14.396-34.211-32.447h-17.132
	c-9.784,0-18.251,5.743-22.206,14.035c-7.551,1.95-12.983,8.781-12.983,16.799v21.94c0,2.014,1.639,3.653,3.651,3.653
	c2.016,0,3.658-1.64,3.658-3.653v-21.94c0-2.908,1.26-5.596,3.32-7.456c-0.02,0.398-0.028,0.804-0.028,1.207v66.351h25.326V338.56
	c0-0.706,0.336-1.374,0.901-1.795c0.565-0.423,1.3-0.554,1.979-0.353c6.537,1.944,13.498,2.931,20.688,2.931
	c5.907,0,11.706-0.673,17.234-2.004c0.667-0.158,1.371-0.005,1.908,0.421c0.54,0.424,0.854,1.072,0.854,1.758v21.496h25.326v-40.539
	c-6.636-2.933-11.28-9.575-11.28-17.285v-2.258c0-1.237,1.001-2.238,2.239-2.238s2.238,1.001,2.238,2.238v2.258
	c0,7.948,6.467,14.414,14.417,14.414c3.795,0,7.365,1.478,10.05,4.163s4.163,6.254,4.163,10.05v11.824
	c0,4.839,3.937,8.779,8.775,8.779h11.842v-8.417H380.752z M364.968,295.757h-6.447c-1.235,0-2.238-1.003-2.238-2.238
	c0-1.237,1.003-2.241,2.238-2.241h6.447c1.238,0,2.241,1.004,2.241,2.241C367.209,294.754,366.206,295.757,364.968,295.757z"/>
</svg>
