<?xml version="1.0" encoding="utf-8"?>
<!-- Generator: Adobe Illustrator 16.0.0, SVG Export Plug-In . SVG Version: 6.00 Build 0)  -->
<!DOCTYPE svg PUBLIC "-//W3C//DTD SVG 1.1//EN" "http://www.w3.org/Graphics/SVG/1.1/DTD/svg11.dtd">
<svg version="1.1" id="Capa_1" xmlns="http://www.w3.org/2000/svg" xmlns:xlink="http://www.w3.org/1999/xlink" x="0px" y="0px"
	 width="126.667px" height="125px" viewBox="251.167 236.5 126.667 125" enable-background="new 251.167 236.5 126.667 125"
	 xml:space="preserve">
<path d="M327.679,269.162l-8.396,27.485c0.562,0.867,1.148,1.71,1.71,2.502l12.352-22.817
	C331.583,273.831,329.72,271.355,327.679,269.162z"/>
<path d="M315.148,290.418v0.052c0.818,1.174,1.607,2.323,2.297,3.396l8.218-26.771c-2.271-2.119-4.722-3.957-7.478-5.207
	L315.148,290.418z"/>
<path d="M293.712,267.349l12.327,27.718c0.229-0.539,0.409-1.072,0.56-1.61c0.026-0.127,0.078-0.206,0.128-0.356v-0.054
	l-5.104-31.796h-0.027C298.331,262.551,295.779,264.72,293.712,267.349z"/>
<path d="M287.025,280.492l14.956,21.641c1.021-1.251,1.914-2.576,2.653-3.957L292.002,269.8
	C289.909,273.09,288.353,276.867,287.025,280.492z"/>
<path d="M253.862,301.652c0,6.911,5.605,13.546,12.55,13.546c15.339,0,19.722-1.859,28.116-7.135l-21.306-17.854
	c-5.021,1.029-3.101,0-6.81,0C259.467,290.21,253.862,294.764,253.862,301.652z"/>
<g>
	<g>
		<path d="M304.098,260.51l4.313,27.001c0.051-0.129,0.077-0.23,0.128-0.333c0.434-1.25,0.867-2.398,1.276-3.317
			c0.024-0.05,0.051-0.127,0.076-0.178c0.384,0.331,0.767,0.766,1.201,1.249c0.587,0.665,1.199,1.48,1.836,2.349l2.808-26.337
			c-1.454-0.46-3.01-0.765-4.644-0.893c-0.409-0.051-0.843-0.077-1.276-0.103c-0.256-0.025-0.511-0.025-0.791-0.025
			c-0.179,0-0.332,0-0.485,0.025C306.932,259.948,305.452,260.152,304.098,260.51z"/>
	</g>
</g>
<g>
	<g>
		<path d="M322.626,301.47c0.153,0.205,0.332,0.435,0.485,0.639c0.255,0.357,0.511,0.688,0.816,1.02
			c0.255,0.356,0.536,0.715,0.842,1.047l15.746-16.511l0.281-0.308c-0.688-0.944-1.429-2.016-2.247-3.24
			c-0.229-0.358-0.484-0.741-0.74-1.123c-0.203-0.307-0.407-0.612-0.612-0.92c-0.051-0.074-0.077-0.127-0.127-0.203
			c-0.689-1.046-1.378-2.094-2.093-3.165l-10.769,19.879l-0.971,1.791L322.626,301.47z"/>
	</g>
</g>
<g>
	<g>
		<path d="M275.388,289.193l2.68,2.248l18.629,15.694c0.052-0.028,0.128-0.078,0.18-0.128c0.356-0.254,0.688-0.538,1.02-0.793
			c0.332-0.278,0.664-0.56,0.97-0.842c0.484-0.408,0.944-0.843,1.377-1.276l-14.316-20.67l-1.429-2.066l-3.649,3.139l-1.939,1.658
			L275.388,289.193z"/>
		<path d="M296.697,307.136l1.047,0.865l-0.867-0.993C296.826,307.058,296.749,307.107,296.697,307.136z"/>
	</g>
</g>
<path d="M326.479,306.063c5.667,5.895,13.093,9.493,27.894,10.286l1.48,2.498l1.199-2.399l0.715-1.399l-0.05-0.104l0.102-0.025
	l-0.052,0.13l0.868,1.452l1.404,2.347l1.174-2.322l0.765-1.505l-0.051-0.076h0.076l-0.025,0.076l0.791,1.354l1.455,2.473
	l1.761-3.521c3.829-1.839,6.458-5.767,6.458-10.286c0-6.352-5.13-11.484-11.484-11.484c-0.46,0-0.918,0-1.354,0.029l-4.235-7.837
	l-2.807,8.04c-4.772,0.178-6.84-0.232-10.208-4.365L326.479,306.063z"/>
</svg>
