<?xml version="1.0" encoding="utf-8"?>
<!-- Generator: Adobe Illustrator 17.0.0, SVG Export Plug-In . SVG Version: 6.00 Build 0)  -->
<!DOCTYPE svg PUBLIC "-//W3C//DTD SVG 1.1//EN" "http://www.w3.org/Graphics/SVG/1.1/DTD/svg11.dtd">
<svg version="1.1" id="Calque_1" xmlns="http://www.w3.org/2000/svg" xmlns:xlink="http://www.w3.org/1999/xlink" x="0px" y="0px"
	 width="293.976px" height="339.759px" viewBox="0 0 293.976 339.759" enable-background="new 0 0 293.976 339.759"
	 xml:space="preserve">
<rect x="113.687" y="253.422" fill="none" width="265.06" height="54.217"/>
<text transform="matrix(1 0 0 1 113.6868 269.3284)" font-family="'BloggerSans-Medium'" font-size="22">ALEXIS</text>
<g>
	<path fill="#D6E39E" stroke="#D6E39E" stroke-width="2.5751" stroke-miterlimit="10" d="M147.44,184.348
		c-34.583,0-62.618,19.603-62.618,43.784h125.236C210.058,203.95,182.023,184.348,147.44,184.348z"/>
	<path fill="#FDDCBA" stroke="#FDDCBA" stroke-miterlimit="10" d="M159.932,190.159c-4.187,4.504-21.938,4.095-26.649,0
		c-3.631-3.156,0-17.856,0-17.856h26.649C159.932,172.303,163.16,186.687,159.932,190.159z"/>
	<circle fill="#FDDCBA" stroke="#FDDCBA" stroke-miterlimit="10" cx="106.329" cy="133.795" r="11.374"/>
	<circle fill="#FDDCBA" stroke="#FDDCBA" stroke-miterlimit="10" cx="185.743" cy="134.027" r="11.374"/>
	<g>
		<g>
			<path fill="#323B49" d="M103.015,129.424c-1.87,0.204-3.372,1.737-3.503,3.654c-0.124,1.815,0.919,3.356,2.472,4.217
				c1.211,0.671,2.294-1.182,1.083-1.853c-0.722-0.4-1.197-0.909-1.409-1.718c-0.215-0.819,0.49-2.06,1.357-2.155
				C104.375,131.421,104.39,129.274,103.015,129.424L103.015,129.424z"/>
		</g>
	</g>
	<g>
		<g>
			<path fill="#323B49" d="M189.164,131.587c1.028,0.791,1.674,2.024,1.718,3.322c0.028,0.808-0.64,1.269-1.229,1.675
				c-1.131,0.78-0.059,2.641,1.083,1.853c1.315-0.907,2.177-1.869,2.292-3.528c0.141-2.055-1.243-3.992-2.781-5.175
				C189.15,128.89,188.083,130.755,189.164,131.587L189.164,131.587z"/>
		</g>
	</g>
	<path fill="#FDDCBA" stroke="#FDDCBA" stroke-miterlimit="10" d="M187.569,109.879c0-19.292-18.249-34.932-40.76-34.932
		s-40.76,16.054-40.76,35.347c0,0.556,0.019,1.073,0.049,2.073h-0.007c0,0-4.039,35.432,7.112,50.57c0,0,14.143,18.446,26.017,19.09
		c2.506,0.136,7.537,0.421,10.036,0.221c9.026-0.721,16.489-2.98,27.826-21.19c10.176-16.344,10.128-43.462,10.39-48.86
		C187.53,111.44,187.569,110.651,187.569,109.879z"/>
	<g>
		<g>
			<path fill="#323B49" d="M123.497,121.915c1.7-0.853,3.373-1.707,5.237-2.137c2.795-0.644,5.626,0.813,7.973,2.137
				c1.16,0.654,2.2-1.128,1.041-1.781c-2.531-1.427-5.127-2.589-8.082-2.535c-2.562,0.047-4.985,1.418-7.21,2.535
				C121.267,120.731,122.312,122.51,123.497,121.915L123.497,121.915z"/>
		</g>
	</g>
	<g>
		<g>
			<path fill="#323B49" d="M154.251,122.019c4.862-2.003,8.546-2.361,13.457-0.104c1.2,0.551,2.249-1.226,1.041-1.781
				c-5.431-2.496-9.598-2.349-15.046-0.104C152.491,120.53,153.021,122.526,154.251,122.019L154.251,122.019z"/>
		</g>
	</g>
	<g>
		<g>
			<path fill="#323B49" d="M136.886,148.219c-0.941,1.973-0.389,3.376,1.588,4.333c1.062,0.514,2.257,0.666,3.418,0.716
				c1.658,0.071,2.428,1.712,3.969,1.712c1.256,0,2.277-0.847,3.267-1.504c1.374-0.912,3.034-0.282,4.459-1.064
				c1.6-0.877,1.857-3.03,0.564-4.161c-0.929-0.813-2.295,0.542-1.36,1.36c1.218,1.066-3.316,1.62-3.647,1.711
				c-1.222,0.333-2.519,2.318-3.96,1.264c-1.31-0.958-7.552-1.476-6.636-3.395C139.078,148.077,137.419,147.1,136.886,148.219
				L136.886,148.219z"/>
		</g>
	</g>
	<path opacity="0.2" fill="#323B49" d="M189.147,124.139l-0.932-1.836l-8.797,4.564h-4.395v-3h-25v5.591c-2-1.045-6-0.835-8,0.237
		v-5.828h-25v3h-3.564l-7.663-3.887l-0.917,1.81l8.101,4.189l0.043-0.044v-0.069h4v8h25v-5.903c0,0.033,0.29,0.032,0.449-0.048
		c2.118-1.059,5.551-1.167,7.551,0.013v5.938h25v-8h5v0.026l0.013,0.047L189.147,124.139z"/>
	<path fill="#88C8CB" d="M188.147,123.139l-0.932-1.836l-8.797,4.564h-4.395v-3h-25v5.591c-2-1.045-6-0.835-8,0.237v-5.828h-25v3
		h-3.564l-7.663-3.887l-0.917,1.81l8.101,4.189l0.043-0.044v-0.069h4v8h25v-5.903c0,0.033,0.29,0.032,0.449-0.048
		c2.118-1.059,5.551-1.167,7.551,0.013v5.938h25v-8h5v0.026l0.013,0.047L188.147,123.139z"/>
	<g>
		<g>
			<path fill="#323B49" d="M134.768,161.64c2.899,2.175,5.87,2.612,9.424,2.657c4.299,0.055,7.483-1.67,11.331-3.143
				c-0.362-0.471-0.724-0.942-1.086-1.413c-1.221,2.526-2.591,4.474-5.255,5.582c-1.128,0.469-0.634,2.331,0.511,1.855
				c3.146-1.309,4.93-3.416,6.404-6.466c0.327-0.677-0.222-1.744-1.086-1.413c-6.256,2.395-13.126,5.29-19.273,0.68
				C134.746,159.234,133.789,160.905,134.768,161.64L134.768,161.64z"/>
		</g>
	</g>
	<rect x="119.024" y="124.867" fill="#FFFAEF" width="19" height="9"/>
	<rect x="152.024" y="124.867" fill="#FFFAEF" width="19" height="9"/>
	<g>
		<g>
			<path d="M129.492,133.527c4.837,0,4.837-7.5,0-7.5C124.655,126.027,124.655,133.527,129.492,133.527L129.492,133.527z"/>
		</g>
	</g>
	<g>
		<g>
			<path d="M161.492,133.527c4.837,0,4.837-7.5,0-7.5C156.655,126.027,156.655,133.527,161.492,133.527L161.492,133.527z"/>
		</g>
	</g>
	<g>
		<g>
			<path fill="#323B49" d="M149.965,146.368c-0.771-3.874-0.351-8.243-0.134-12.166c0.069-1.24-1.855-1.233-1.923,0
				c-0.229,4.122-0.608,8.606,0.202,12.677C148.352,148.095,150.206,147.579,149.965,146.368L149.965,146.368z"/>
		</g>
	</g>
	<g>
		<g>
			<path fill="#323B49" d="M145.453,178.714c0.068,0,0.137,0,0.205,0c0.806,0,0.806-1.25,0-1.25c-0.068,0-0.137,0-0.205,0
				C144.647,177.464,144.647,178.714,145.453,178.714L145.453,178.714z"/>
		</g>
	</g>
	<g>
		<g>
			<path fill="#323B49" d="M153.441,178.305c0.068,0,0.137,0,0.205,0c0.806,0,0.806-1.25,0-1.25c-0.068,0-0.137,0-0.205,0
				C152.635,177.055,152.635,178.305,153.441,178.305L153.441,178.305z"/>
		</g>
	</g>
	<g>
		<g>
			<path fill="#323B49" d="M156.104,171.545c0.806,0,0.806-1.25,0-1.25C155.298,170.295,155.298,171.545,156.104,171.545
				L156.104,171.545z"/>
		</g>
	</g>
	<g>
		<g>
			<path fill="#323B49" d="M163.671,171.906c-0.133,0.085-0.265,0.169-0.398,0.254c0.798-0.061,0.804-1.312,0-1.25
				c-0.401,0.031-0.721,0.257-0.807,0.664C162.298,172.36,163.503,172.694,163.671,171.906L163.671,171.906z"/>
		</g>
	</g>
	<g>
		<g>
			<path fill="#323B49" d="M164.502,164.172c0.806,0,0.806-1.25,0-1.25C163.696,162.922,163.696,164.172,164.502,164.172
				L164.502,164.172z"/>
		</g>
	</g>
	<g>
		<g>
			<path fill="#323B49" d="M160.211,175.222c0-0.068,0-0.137,0-0.205c0-0.806-1.25-0.806-1.25,0c0,0.068,0,0.137,0,0.205
				C158.961,176.028,160.211,176.028,160.211,175.222L160.211,175.222z"/>
		</g>
	</g>
	<g>
		<g>
			<path fill="#323B49" d="M160.405,169.088c0.068,0,0.137,0,0.205,0c0.806,0,0.806-1.25,0-1.25c-0.068,0-0.137,0-0.205,0
				C159.599,167.838,159.599,169.088,160.405,169.088L160.405,169.088z"/>
		</g>
	</g>
	<g>
		<g>
			<path fill="#323B49" d="M167.165,168.268c0.068,0,0.137,0,0.205,0c0.806,0,0.806-1.25,0-1.25c-0.068,0-0.137,0-0.205,0
				C166.358,167.018,166.358,168.268,167.165,168.268L167.165,168.268z"/>
		</g>
	</g>
	<g>
		<g>
			<path fill="#323B49" d="M172.9,159.461c0.026,0,0.051,0,0.077,0c0.806,0,0.806-1.25,0-1.25c-0.026,0-0.051,0-0.077,0
				C172.094,158.211,172.094,159.461,172.9,159.461c0.026,0,0.051,0,0.077,0c0.806,0,0.806-1.25,0-1.25c-0.026,0-0.051,0-0.077,0
				C172.094,158.211,172.094,159.461,172.9,159.461L172.9,159.461z"/>
		</g>
	</g>
	<g>
		<g>
			<path fill="#323B49" d="M146.682,172.57c0.806,0,0.806-1.25,0-1.25C145.876,171.32,145.876,172.57,146.682,172.57L146.682,172.57
				z"/>
		</g>
	</g>
	<g>
		<g>
			<path fill="#323B49" d="M150.984,174.208c0.806,0,0.806-1.25,0-1.25C150.178,172.958,150.178,174.208,150.984,174.208
				L150.984,174.208z"/>
		</g>
	</g>
	<g>
		<g>
			<path fill="#323B49" d="M138.285,176.871c0.068,0,0.137,0,0.205,0c0.806,0,0.806-1.25,0-1.25c-0.068,0-0.137,0-0.205,0
				C137.479,175.621,137.479,176.871,138.285,176.871L138.285,176.871z"/>
		</g>
	</g>
	<g>
		<g>
			<path fill="#323B49" d="M140.128,171.545c0.806,0,0.806-1.25,0-1.25S139.322,171.545,140.128,171.545L140.128,171.545z"/>
		</g>
	</g>
	<g>
		<g>
			<path fill="#323B49" d="M142.381,174.003c0.806,0,0.806-1.25,0-1.25C141.575,172.753,141.575,174.003,142.381,174.003
				L142.381,174.003z"/>
		</g>
	</g>
	<g>
		<g>
			<path fill="#323B49" d="M131.73,175.642c0.806,0,0.806-1.25,0-1.25C130.924,174.392,130.924,175.642,131.73,175.642
				L131.73,175.642z"/>
		</g>
	</g>
	<g>
		<g>
			<path fill="#323B49" d="M134.803,170.931c0.806,0,0.806-1.25,0-1.25C133.997,169.681,133.997,170.931,134.803,170.931
				L134.803,170.931z"/>
		</g>
	</g>
	<g>
		<g>
			<path fill="#323B49" d="M125.176,167.449c0.806,0,0.806-1.25,0-1.25C124.37,166.199,124.37,167.449,125.176,167.449
				L125.176,167.449z"/>
		</g>
	</g>
	<g>
		<g>
			<path fill="#323B49" d="M127.429,172.16c0.137,0,0.273,0,0.41,0c0.806,0,0.806-1.25,0-1.25c-0.137,0-0.273,0-0.41,0
				C126.623,170.91,126.623,172.16,127.429,172.16L127.429,172.16z"/>
		</g>
	</g>
	<g>
		<g>
			<path fill="#323B49" d="M130.706,169.702c0.806,0,0.806-1.25,0-1.25C129.9,168.452,129.9,169.702,130.706,169.702
				L130.706,169.702z"/>
		</g>
	</g>
	<g>
		<g>
			<path fill="#323B49" d="M127.839,162.738c0.806,0,0.806-1.25,0-1.25S127.033,162.738,127.839,162.738L127.839,162.738z"/>
		</g>
	</g>
	<g>
		<g>
			<path fill="#323B49" d="M118.826,163.762c0.806,0,0.806-1.25,0-1.25C118.02,162.512,118.02,163.762,118.826,163.762
				L118.826,163.762z"/>
		</g>
	</g>
	<g>
		<g>
			<path fill="#323B49" d="M121.888,159.655c0,0.068,0,0.137,0,0.205c0,0.806,1.25,0.806,1.25,0c0-0.068,0-0.137,0-0.205
				C123.138,158.849,121.888,158.849,121.888,159.655L121.888,159.655z"/>
		</g>
	</g>
	<g>
		<g>
			<path fill="#323B49" d="M114.116,157.618c0.806,0,0.806-1.25,0-1.25C113.309,156.368,113.309,157.618,114.116,157.618
				L114.116,157.618z"/>
		</g>
	</g>
	<g>
		<g>
			<path fill="#323B49" d="M114.116,154.34c0.806,0,0.806-1.25,0-1.25C113.309,153.09,113.309,154.34,114.116,154.34L114.116,154.34
				z"/>
		</g>
	</g>
	<path opacity="0.2" fill="#323B49" d="M131.669,180.125c0,0,7.109,3.291,18.337,2.074c0,0-8.257,3.621-18.757,2.149
		C131.25,184.348,131.089,181.25,131.669,180.125z"/>
	
		<path fill="#323B49" stroke="#323B49" stroke-width="3" stroke-linecap="round" stroke-linejoin="round" stroke-miterlimit="10" d="
		M104.433,123.77c2.471-1.318,3.383-2.917,9.408-17.195c1.825,7.052,7.301-1.174,8.396-4.308c3.285,5.877,9.126-3.133,11.317-5.484
		c4.016,3.526,8.159,5.972,11.08,0.487c1.46,0.784,2.605,0.873,4.065,1.656c1.825,1.175,4.203,0.208,6.393,0.208
		c-0.365-1.175,1.76-2.739,2.49-1.563c1.095,2.351,0.796,1.563,3.716,2.739c1.46,0.784,3.286,0.784,4.746-0.392
		c1.46,2.351,0.365,5.485,2.555,7.052c1.46-1.175,1.46-3.526,2.92-4.31c0.73,1.175,0.365,2.742,0.73,4.31
		c0.73,1.959,2.555,3.918,4.016,5.093c0.365,0.392,1.825,1.175,2.19,1.175c0.73,1.175,0.73,3.134,2.19,4.31
		c2.555,2.351,2.558,4.169,5.843,6.128c0.365-2.742,3.514-4.44,4.244-7.182c1.891,0.697,2.887,0.996,5.376,0.996
		c-0.365-2.351-2.686-6.209-3.051-9.343c1.095,0,1.825,0.392,2.555,0c0-1.567-2.555-2.351-3.286-3.526
		c-1.46-3.134,0.365-4.31,0.365-6.66c-5.111,0-3.096-6.227-5.652-9.361c1.825,0,1.163-2.183,0.433-3.75
		c-0.365-1.175-1.352-2.168-2.812-2.168c-1.095-0.392-4.381-0.784-5.476-1.567c-0.73-0.784-0.365-2.742-1.095-3.526
		c-1.095-1.175-2.19-1.567-3.285-1.567c-1.825,0-2.555,0.784-4.381,0c-1.825-0.392-2.92-1.567-4.746-1.959
		c-1.095,0-2.555,0.392-3.651,0.392c-1.46-0.392-2.19-2.742-3.651-3.918c-2.555-1.175-4.016,0.392-6.571,0.784
		c-2.92,1.175-5.841-0.392-9.126,0.392c-2.555,0.784-3.651,0.784-6.571,0c-3.286-0.784-7.301-1.175-10.587,0.784
		c-1.46,0.784-2.19,2.351-3.651,3.134c-2.555,1.567-7.086,3.151-7.086,3.151s1.245,2.726-0.58,3.901
		c-1.46,0.784-5.841,5.485-5.841,5.485s0.73,0.784,0.73,1.959c-0.365,0.784-2.344,2.591-2.713,2.978
		c-1.353,1.42-4.776,2.2-4.776,2.2s2.013,2.657,1.283,3.833c-0.73,1.959-1.46,0.784-1.46,3.134
		c-0.365,2.351,0.034,0.827-2.156,2.394c-1.095,1.175-0.565,3.497-0.2,5.848c0,1.567,2.32,4.592-0.678,6.06
		C98.968,118.031,104.433,123.77,104.433,123.77z"/>
	
		<path opacity="0.2" fill="#323B49" stroke="#323B49" stroke-width="3" stroke-linecap="round" stroke-linejoin="round" stroke-miterlimit="10" d="
		M106.433,125.77c2.471-1.318,3.383-2.917,9.408-17.195c1.825,7.052,7.301-1.174,8.396-4.308c3.285,5.877,9.126-3.133,11.317-5.484
		c4.016,3.526,8.159,5.972,11.08,0.487c1.46,0.784,2.605,0.873,4.065,1.656c1.825,1.175,4.203,0.208,6.393,0.208
		c-0.365-1.175,1.76-2.739,2.49-1.563c1.095,2.351,0.796,1.563,3.716,2.739c1.46,0.784,3.286,0.784,4.746-0.392
		c1.46,2.351,0.365,5.485,2.555,7.052c1.46-1.175,1.46-3.526,2.92-4.31c0.73,1.175,0.365,2.742,0.73,4.31
		c0.73,1.959,2.555,3.918,4.016,5.093c0.365,0.392,1.825,1.175,2.19,1.175c0.73,1.175,0.73,3.134,2.19,4.31
		c2.555,2.351,2.558,4.169,5.843,6.128c0.365-2.742,3.514-4.44,4.244-7.182c1.891,0.697,2.887,0.996,5.376,0.996
		c-0.365-2.351-2.686-6.209-3.051-9.343c1.095,0,1.825,0.392,2.555,0c0-1.567-2.555-2.351-3.286-3.526
		c-1.46-3.134,0.365-4.31,0.365-6.66c-5.111,0-3.096-6.227-5.652-9.361c1.825,0,1.163-2.183,0.433-3.75
		c-0.365-1.175-1.352-2.168-2.812-2.168c-1.095-0.392-4.381-0.784-5.476-1.567c-0.73-0.784-0.365-2.742-1.095-3.526
		c-1.095-1.175-2.19-1.567-3.285-1.567c-1.825,0-2.555,0.784-4.381,0c-1.825-0.392-2.92-1.567-4.746-1.959
		c-1.095,0-2.555,0.392-3.651,0.392c-1.46-0.392-2.19-2.742-3.651-3.918c-2.555-1.175-4.016,0.392-6.571,0.784
		c-2.92,1.175-5.841-0.392-9.126,0.392c-2.555,0.784-3.651,0.784-6.571,0c-3.286-0.784-7.301-1.175-10.587,0.784
		c-1.46,0.784-2.19,2.351-3.651,3.134c-2.555,1.567-7.086,3.151-7.086,3.151s1.245,2.726-0.58,3.901
		c-1.46,0.784-5.841,5.485-5.841,5.485s0.73,0.784,0.73,1.959c-0.365,0.784-2.344,2.591-2.713,2.978
		c-1.353,1.42-4.776,2.2-4.776,2.2s2.013,2.657,1.283,3.833c-0.73,1.959-1.46,0.784-1.46,3.134
		c-0.365,2.351,0.034,0.827-2.156,2.394c-1.095,1.175-0.565,3.497-0.2,5.848c0,1.567,2.32,4.592-0.678,6.06
		C100.968,120.031,106.433,125.77,106.433,125.77z"/>
	<path opacity="0.2" fill="#323B49" d="M106.329,145.875c0,0-1.671-8,0-10.875c0,0-4.549,4.962-3.314,10.168
		C103.015,145.168,104.408,145.918,106.329,145.875z"/>
	<g>
		<defs>
			<path id="SVGID_1_" d="M147.44,184.348c-34.583,0-62.618,19.603-62.618,43.784h125.236
				C210.058,203.95,182.023,184.348,147.44,184.348z"/>
		</defs>
		<clipPath id="SVGID_2_">
			<use xlink:href="#SVGID_1_"  overflow="visible"/>
		</clipPath>
		<path opacity="0.2" clip-path="url(#SVGID_2_)" fill="#323B49" d="M94.955,236.896c0,0-7.955-34.396,14.045-49.146
			c0,0-29,6.796-28.25,7.023S74.5,226.75,74.5,226.75s10.75,16.531,12,16.141S94.955,236.896,94.955,236.896z"/>
	</g>
</g>
</svg>
