<?xml version="1.0" encoding="utf-8"?>
<!-- Generator: Adobe Illustrator 17.0.0, SVG Export Plug-In . SVG Version: 6.00 Build 0)  -->
<!DOCTYPE svg PUBLIC "-//W3C//DTD SVG 1.1//EN" "http://www.w3.org/Graphics/SVG/1.1/DTD/svg11.dtd">
<svg version="1.1" id="Calque_1" xmlns="http://www.w3.org/2000/svg" xmlns:xlink="http://www.w3.org/1999/xlink" x="0px" y="0px"
	 width="293.976px" height="339.759px" viewBox="0 0 293.976 339.759" enable-background="new 0 0 293.976 339.759"
	 xml:space="preserve">
<g>
	<path fill="#E54F7F" stroke="#E54F7F" stroke-width="2.5751" stroke-miterlimit="10" d="M148.515,194.215
		c-34.583,0-62.618,19.603-62.618,43.784h125.236C211.133,213.818,183.098,194.215,148.515,194.215z"/>
	<path fill="#FDDCBA" stroke="#FDDCBA" stroke-miterlimit="10" d="M161.007,200.027c-4.187,4.504-21.938,4.095-26.649,0
		c-3.631-3.156,0-17.856,0-17.856h26.649C161.007,182.171,164.235,196.554,161.007,200.027z"/>
	<circle fill="#FDDCBA" stroke="#FDDCBA" stroke-miterlimit="10" cx="115.405" cy="142.662" r="11.374"/>
	<circle fill="#FDDCBA" stroke="#FDDCBA" stroke-miterlimit="10" cx="180.818" cy="142.894" r="11.374"/>
	<g>
		<g>
			<path fill="#323B49" d="M111.09,139.291c-1.87,0.204-3.372,1.737-3.503,3.654c-0.124,1.815,0.919,3.356,2.472,4.217
				c1.211,0.671,2.294-1.182,1.083-1.853c-0.722-0.4-1.197-0.909-1.409-1.718c-0.215-0.819,0.49-2.06,1.357-2.155
				C112.45,141.289,112.465,139.141,111.09,139.291L111.09,139.291z"/>
		</g>
	</g>
	<g>
		<g>
			<path fill="#323B49" d="M184.238,141.454c1.028,0.791,1.674,2.024,1.718,3.322c0.028,0.808-0.64,1.269-1.229,1.675
				c-1.131,0.78-0.059,2.641,1.083,1.853c1.315-0.907,2.177-1.869,2.292-3.528c0.141-2.055-1.243-3.992-2.781-5.175
				C184.224,138.757,183.158,140.623,184.238,141.454L184.238,141.454z"/>
		</g>
	</g>
	<path fill="#FDDCBA" d="M182.387,119.747c0-19.292-15.025-34.932-33.56-34.932s-33.56,15.871-33.56,35.163
		c0,0.556,0.016,0.89,0.04,1.89h-0.006c0,0-1.934,34.27,7.247,49.407c0,0,10.253,19.884,20.029,20.528
		c2.063,0.136,6.205,0.467,8.263,0.267c7.432-0.721,12.055-2.886,21.39-21.096c8.378-16.344,9.86-43.522,10.076-48.92
		C182.354,121.296,182.387,120.518,182.387,119.747z"/>
	<g>
		<g>
			<path fill="#323B49" d="M134.516,138.395c4.837,0,4.837-7.5,0-7.5C129.679,130.895,129.679,138.395,134.516,138.395
				L134.516,138.395z"/>
		</g>
	</g>
	<g>
		<g>
			<path fill="#323B49" d="M162.516,138.395c4.837,0,4.837-7.5,0-7.5C157.679,130.895,157.679,138.395,162.516,138.395
				L162.516,138.395z"/>
		</g>
	</g>
	<g>
		<g>
			<path fill="#F2B694" d="M126.522,128.783c1.7-0.853,3.373-1.707,5.237-2.137c2.795-0.644,5.626,0.813,7.973,2.137
				c1.16,0.654,2.2-1.128,1.041-1.781c-2.531-1.427-5.127-2.589-8.082-2.535c-2.562,0.047-4.985,1.418-7.21,2.535
				C124.291,127.598,125.336,129.378,126.522,128.783L126.522,128.783z"/>
		</g>
	</g>
	<g>
		<g>
			<path fill="#F2B694" d="M156.275,128.887c4.862-2.003,8.546-2.361,13.457-0.104c1.2,0.551,2.249-1.226,1.041-1.781
				c-5.431-2.496-9.598-2.349-15.046-0.104C154.515,127.397,155.045,129.394,156.275,128.887L156.275,128.887z"/>
		</g>
	</g>
	<g>
		<g>
			<path fill="#323B49" d="M141.728,152.294c-0.671,1.407-0.277,2.408,1.133,3.09c0.757,0.366,1.61,0.475,2.438,0.511
				c1.183,0.051,1.731,1.221,2.831,1.221c0.896,0,1.624-0.604,2.33-1.073c0.98-0.65,2.164-0.201,3.18-0.759
				c1.141-0.625,1.324-2.161,0.402-2.968c-0.663-0.58-1.637,0.387-0.97,0.97c0.869,0.76-2.365,1.156-2.601,1.22
				c-0.871,0.238-1.796,1.653-2.824,0.902c-0.934-0.683-5.386-1.053-4.733-2.421C143.291,152.192,142.108,151.496,141.728,152.294
				L141.728,152.294z"/>
		</g>
	</g>
	<g>
		<g>
			<path fill="#323B49" d="M137.991,165.295c7.424,1.719,15.528,0.524,22.887-1.016c-0.258-0.336-0.516-0.672-0.775-1.008
				c-2.556,4.019-7.828,8.508-12.851,8.17c-0.884-0.06-0.878,1.313,0,1.372c5.542,0.373,11.223-4.427,14.036-8.849
				c0.344-0.54-0.218-1.124-0.775-1.008c-7.056,1.476-15.027,2.667-22.158,1.016C137.495,163.773,137.13,165.095,137.991,165.295
				L137.991,165.295z"/>
		</g>
	</g>
	<g>
		<g>
			<path fill="#F2B694" d="M133.193,153.1c0.885,0,0.885-1.372,0-1.372S132.309,153.1,133.193,153.1L133.193,153.1z"/>
		</g>
	</g>
	<g>
		<g>
			<path fill="#F2B694" d="M136.665,147.7c0.096,0,0.193,0,0.289,0c0.885,0,0.885-1.372,0-1.372c-0.096,0-0.193,0-0.289,0
				C135.78,146.328,135.78,147.7,136.665,147.7c0.096,0,0.193,0,0.289,0c0.885,0,0.885-1.372,0-1.372c-0.096,0-0.193,0-0.289,0
				C135.78,146.328,135.78,147.7,136.665,147.7L136.665,147.7z"/>
		</g>
	</g>
	<g>
		<g>
			<path fill="#F2B694" d="M127.322,149.328c0-0.129,0-0.257,0-0.386c0-0.885-1.372-0.885-1.372,0c0,0.129,0,0.257,0,0.386
				C125.95,150.213,127.322,150.213,127.322,149.328L127.322,149.328z"/>
		</g>
	</g>
	<g>
		<g>
			<path fill="#F2B694" d="M132.422,145.771c0.885,0,0.885-1.372,0-1.372C131.537,144.399,131.537,145.771,132.422,145.771
				L132.422,145.771z"/>
		</g>
	</g>
	<g>
		<g>
			<path fill="#F2B694" d="M131.265,149.628c0.885,0,0.885-1.372,0-1.372S130.38,149.628,131.265,149.628L131.265,149.628z"/>
		</g>
	</g>
	<g>
		<g>
			<path fill="#F2B694" d="M125.865,145.385c0.885,0,0.885-1.372,0-1.372C124.98,144.013,124.98,145.385,125.865,145.385
				L125.865,145.385z"/>
		</g>
	</g>
	<g>
		<g>
			<path fill="#F2B694" d="M164.436,151.557c0.885,0,0.885-1.372,0-1.372S163.552,151.557,164.436,151.557L164.436,151.557z"/>
		</g>
	</g>
	<g>
		<g>
			<path fill="#F2B694" d="M166.75,147.7c0.885,0,0.885-1.372,0-1.372S165.866,147.7,166.75,147.7L166.75,147.7z"/>
		</g>
	</g>
	<g>
		<g>
			<path fill="#F2B694" d="M158.65,146.157c0.129,0,0.257,0,0.386,0c0.885,0,0.885-1.372,0-1.372c-0.129,0-0.257,0-0.386,0
				C157.766,144.785,157.766,146.157,158.65,146.157L158.65,146.157z"/>
		</g>
	</g>
	<g>
		<g>
			<path fill="#F2B694" d="M161.35,149.242c0.885,0,0.885-1.372,0-1.372S160.466,149.242,161.35,149.242L161.35,149.242z"/>
		</g>
	</g>
	<g>
		<g>
			<path fill="#F2B694" d="M168.293,154.642c0.885,0,0.885-1.372,0-1.372S167.409,154.642,168.293,154.642L168.293,154.642z"/>
		</g>
	</g>
	<g>
		<g>
			<path fill="#F2B694" d="M171.379,149.628c0.885,0,0.885-1.372,0-1.372C170.494,148.256,170.494,149.628,171.379,149.628
				L171.379,149.628z"/>
		</g>
	</g>
	<g>
		<g>
			<path fill="#F2B694" d="M127.408,155.414c0.885,0,0.885-1.372,0-1.372S126.523,155.414,127.408,155.414L127.408,155.414z"/>
		</g>
	</g>
	<g>
		<g>
			<path fill="#F2B694" d="M160.965,155.414c0.885,0,0.885-1.372,0-1.372S160.08,155.414,160.965,155.414L160.965,155.414z"/>
		</g>
	</g>
	<g>
		<g>
			<path fill="#323B49" d="M151.959,177.874c-2.446-0.23-4.698,0.651-6.686,2.023c-0.723,0.499-0.038,1.688,0.692,1.185
				c1.811-1.25,3.763-2.046,5.994-1.836C152.84,179.329,152.832,177.957,151.959,177.874L151.959,177.874z"/>
		</g>
	</g>
	<g>
		<defs>
			<path id="SVGID_1_" d="M182.387,119.747c0-19.292-15.025-34.932-33.56-34.932s-33.56,15.871-33.56,35.163
				c0,0.556,0.016,0.89,0.04,1.89h-0.006c0,0-1.934,34.27,7.247,49.407c0,0,10.253,19.884,20.029,20.528
				c2.063,0.136,6.205,0.467,8.263,0.267c7.432-0.721,12.055-2.886,21.39-21.096c8.378-16.344,9.86-43.522,10.076-48.92
				C182.354,121.296,182.387,120.518,182.387,119.747z"/>
		</defs>
		<clipPath id="SVGID_2_">
			<use xlink:href="#SVGID_1_"  overflow="visible"/>
		</clipPath>
		<g opacity="0.2" clip-path="url(#SVGID_2_)">
			<path fill="#323B49" d="M180.933,134.413c-0.784-1.02-1.99-4.797-2.469-6.048c-1.6-3.394-1.619-7.433-2.739-11.185
				c-0.8-2.501-0.48-7.86-3.199-9.111c-1.6-0.715-3.839,0.179-5.438,0.357c-2.239,0.357-4.639,0.715-6.878,0.715
				c-3.039-0.179-6.078-1.072-8.958-1.965c-2.719-0.893-5.438-1.429-8.158-2.144c-2.559-0.715-5.279-2.322-7.998-2.144
				c-1.6,0-3.519,0.536-4.959,1.25c-3.679,1.965-6.078,6.967-7.838,10.897c-1.12,2.68-1.919,5.716-3.199,8.396
				c-0.96,2.144-2.279,6.71-3.879,8.318l-16.198-2.573l33.72-62.31c0,0,12.435-7.333,16.691-6.333c4.256,1,49.589,27.667,48.589,28
				C197.024,88.867,180.933,134.413,180.933,134.413z"/>
		</g>
		<g clip-path="url(#SVGID_2_)">
			<path fill="#F2B694" d="M180.933,132.413c-0.784-1.02-1.99-4.797-2.469-6.048c-1.6-3.394-1.619-7.433-2.739-11.185
				c-0.8-2.501-0.48-7.86-3.199-9.111c-1.6-0.715-3.839,0.179-5.438,0.357c-2.239,0.357-4.639,0.715-6.878,0.715
				c-3.039-0.179-6.078-1.072-8.958-1.965c-2.719-0.893-5.438-1.429-8.158-2.144c-2.559-0.715-5.279-2.322-7.998-2.144
				c-1.6,0-3.519,0.536-4.959,1.25c-3.679,1.965-6.078,6.967-7.838,10.897c-1.12,2.68-1.919,5.716-3.199,8.396
				c-0.96,2.144-2.279,6.71-3.879,8.318l-16.198-2.573l33.72-62.31c0,0,12.435-7.333,16.691-6.333c4.256,1,49.589,27.667,48.589,28
				C197.024,86.867,180.933,132.413,180.933,132.413z"/>
		</g>
	</g>
	<path opacity="0.2" fill="#323B49" d="M117.009,154.356c0,0-0.982-6.247-1.252-9.827c0,0-0.767,4.424,0,10.007
		C115.757,154.535,116.452,154.594,117.009,154.356z"/>
	<path opacity="0.2" fill="#323B49" d="M132.974,186.125c0,0,3.48,3.637,6.369,4.815c0,0-3.837-0.823-6.599-3.448L132.974,186.125z"
		/>
	<g>
		<defs>
			<path id="SVGID_3_" d="M148.515,194.215c-34.583,0-62.618,19.603-62.618,43.784h125.236
				C211.133,213.818,183.098,194.215,148.515,194.215z"/>
		</defs>
		<clipPath id="SVGID_4_">
			<use xlink:href="#SVGID_3_"  overflow="visible"/>
		</clipPath>
		<path opacity="0.2" clip-path="url(#SVGID_4_)" fill="#323B49" d="M98.357,243.034c0,0,1.342-34.978,28.421-50.322
			c0,0-17.087-7.347-19.921-4.179c-2.833,3.168-25,29.501-25,29.501s-16.667,7.5-14.833,13.667
			c1.833,6.167,6.833,12.333,8.167,12.833C76.524,245.034,98.357,243.034,98.357,243.034z"/>
	</g>
	<path opacity="0.2" fill="#323B49" d="M155.172,191.301c0,0,4.326-1.216,7.1-4.647c0,0,0.169,1.184,0.377,2.324
		C162.649,188.978,161.153,190.471,155.172,191.301z"/>
</g>
<rect x="110.687" y="255.422" fill="none" width="265.06" height="54.217"/>
<text transform="matrix(1 0 0 1 110.6868 271.3284)" font-family="'BloggerSans-Medium'" font-size="22">Arnaud</text>
</svg>
