<?xml version="1.0" encoding="utf-8"?>
<!-- Generator: Adobe Illustrator 17.0.0, SVG Export Plug-In . SVG Version: 6.00 Build 0)  -->
<!DOCTYPE svg PUBLIC "-//W3C//DTD SVG 1.1//EN" "http://www.w3.org/Graphics/SVG/1.1/DTD/svg11.dtd">
<svg version="1.1" id="Calque_1" xmlns="http://www.w3.org/2000/svg" xmlns:xlink="http://www.w3.org/1999/xlink" x="0px" y="0px"
	 width="293.976px" height="339.759px" viewBox="0 0 293.976 339.759" enable-background="new 0 0 293.976 339.759"
	 xml:space="preserve">
<polygon fill="none" points="352.052,307.639 86.992,307.639 84.992,253.422 350.052,253.422 "/>
<text transform="matrix(1 0 0 1 85.5783 269.3284)" font-family="'BloggerSans-Medium'" font-size="22">Charlotte</text>
<path fill="#323B49" stroke="#323B49" stroke-width="3.5585" stroke-miterlimit="10" d="M181.913,140.133
	c4.604,76.081-4.483,78.39-42.243,62.712c-22.85-9.487-59.666,45.225-45.539-61.666c4.459-33.736,18.544-55.919,43.253-55.919
	S179.857,106.162,181.913,140.133z"/>
<path fill="#CDE1DA" stroke="#CDE1DA" stroke-width="2.8649" stroke-miterlimit="10" d="M139.256,181.272
	c-30.152,0-54.594,20.505-54.594,45.799H193.85C193.85,201.777,169.408,181.272,139.256,181.272z"/>
<path fill="#FDDCBA" stroke="#FDDCBA" stroke-miterlimit="10" d="M149.674,184.966c0.376,17.39-24.728,16.131-24.475,0
	c0.071-4.541,0-19.761,0-19.761h24.475C149.674,165.205,149.569,180.097,149.674,184.966z"/>
<path fill="#FDDCBA" stroke="#FDDCBA" stroke-miterlimit="10" d="M170.575,110.806c-8.345-10.174-10.587-17.334-32.125-17.982
	c-21.824-0.656-22.699,3.265-30.307,16.164c-0.386,0.655-10.241,32.529,0.575,47.734c0,0,8.718,15.579,21.931,20.393
	c3.419,1.246,10.71,0.982,11.729,0.517c0.73-0.333,14.554-3.196,24.982-22.332C176.526,138.479,171.067,111.405,170.575,110.806z"/>
<g>
	<g>
		<path fill="#323B49" d="M129.271,129.182c-3.568-2.215-7.855-1.06-11.085,1.24c-0.775,0.552-0.033,1.845,0.752,1.286
			c2.793-1.989,6.447-3.186,9.582-1.24C129.338,130.976,130.085,129.687,129.271,129.182L129.271,129.182z"/>
	</g>
</g>
<g>
	<g>
		<path fill="#323B49" d="M147.882,130.468c3.134-1.946,6.789-0.749,9.582,1.24c0.784,0.558,1.527-0.734,0.752-1.286
			c-3.23-2.3-7.517-3.455-11.085-1.24C146.316,129.687,147.063,130.976,147.882,130.468L147.882,130.468z"/>
	</g>
</g>
<g>
	<g>
		<path fill="#323B49" d="M124.994,136.246c4.639,0,4.639-7.193,0-7.193C120.355,129.053,120.355,136.246,124.994,136.246
			L124.994,136.246z"/>
	</g>
</g>
<g>
	<g>
		<path fill="#323B49" d="M151.829,136.386c4.639,0,4.639-7.193,0-7.193S147.19,136.386,151.829,136.386L151.829,136.386z"/>
	</g>
</g>
<g>
	<g>
		<path fill="#323B49" d="M123.364,128.617c-0.162-0.701-0.383-1.382-0.632-2.056c-0.331-0.892-1.771-0.507-1.436,0.396
			c0.25,0.674,0.47,1.355,0.632,2.055C122.144,129.949,123.58,129.552,123.364,128.617L123.364,128.617z"/>
	</g>
</g>
<g>
	<g>
		<path fill="#323B49" d="M121.312,128.993c-0.378-0.563-0.578-1.211-0.87-1.818c-0.416-0.865-1.7-0.11-1.286,0.752
			c0.292,0.608,0.491,1.255,0.87,1.818C120.559,130.537,121.85,129.792,121.312,128.993L121.312,128.993z"/>
	</g>
</g>
<g>
	<g>
		<path fill="#323B49" d="M119.648,130.277c-0.305-0.845-0.801-1.545-1.377-2.226c-0.622-0.734-1.67,0.325-1.053,1.053
			c0.401,0.473,0.782,0.98,0.994,1.569C118.536,131.569,119.975,131.183,119.648,130.277L119.648,130.277z"/>
	</g>
</g>
<g>
	<g>
		<path fill="#323B49" d="M158.824,128.46c-0.562,0.61-1.304,1.012-1.934,1.544c-0.735,0.62,0.324,1.668,1.053,1.053
			c0.633-0.533,1.369-0.93,1.934-1.544C160.527,128.809,159.476,127.753,158.824,128.46L158.824,128.46z"/>
	</g>
</g>
<g>
	<g>
		<path fill="#323B49" d="M156.829,127.102c-0.619,0.587-1.14,1.264-1.624,1.965c-0.547,0.793,0.745,1.537,1.286,0.752
			c0.413-0.599,0.862-1.162,1.391-1.663C158.581,127.493,157.526,126.441,156.829,127.102L156.829,127.102z"/>
	</g>
</g>
<g>
	<g>
		<path fill="#323B49" d="M154.258,126.226c-0.415,0.846-0.749,1.727-1.024,2.629c-0.281,0.921,1.157,1.312,1.436,0.396
			c0.237-0.779,0.515-1.541,0.874-2.273C155.965,126.118,154.681,125.363,154.258,126.226L154.258,126.226z"/>
	</g>
</g>
<g>
	<g>
		<path fill="#323B49" d="M130.162,123.121c-4.976-1.442-8.991-1.154-13.68,1.003c-1.457,0.67-0.191,2.816,1.257,2.15
			c4.063-1.869,7.463-1.997,11.761-0.752C131.046,125.97,131.701,123.567,130.162,123.121L130.162,123.121z"/>
	</g>
</g>
<g>
	<g>
		<path fill="#323B49" d="M146.215,125.522c4.298-1.245,7.698-1.117,11.761,0.752c1.448,0.666,2.714-1.48,1.257-2.15
			c-4.689-2.157-8.704-2.445-13.68-1.003C144.014,123.567,144.669,125.97,146.215,125.522L146.215,125.522z"/>
	</g>
</g>
<g>
	<g>
		<path fill="#323B49" d="M154.889,150.805c-1.905,2.089-2.423,5.637-1.425,8.249c0.239,0.625,1.253,0.354,1.011-0.279
			c-0.862-2.256-0.51-5.403,1.155-7.229C156.085,151.048,155.346,150.304,154.889,150.805L154.889,150.805z"/>
	</g>
</g>
<g>
	<g>
		<path fill="#E54F7F" d="M146.645,156.53c-1.853-0.155-3.309-1.469-5.237-1.591c-1.047-0.066-3.123,1.801-3.986,1.168
			c-3.006-2.202-6.24-0.197-8.625,1.825c-0.389,0.33-0.032,0.85,0.371,0.895c4.261,0.483,16.601,2.582,19.109-2.826
			c0.28-0.604-0.587-1.135-0.906-0.529c-1.441,2.74-3.781,4.661-6.634,5.815c-3.771,1.525-6.896-0.502-9.534-2.939
			c-0.496-0.458-1.239,0.282-0.742,0.742c2.776,2.564,5.814,4.424,9.665,3.464c3.478-0.868,6.499-3.412,8.15-6.552
			c-0.302-0.176-0.604-0.353-0.906-0.529c-2.201,4.745-14.301,2.748-18.203,2.306c0.124,0.298,0.247,0.597,0.371,0.895
			c2.722-2.309,5.177-3.256,8.367-0.919c0.18,0.132,0.492,0.08,0.635-0.082c2.888-3.264,5.012-0.352,8.104-0.094
			C147.319,157.635,147.314,156.586,146.645,156.53L146.645,156.53z"/>
	</g>
</g>
<path fill="#323B49" stroke="#323B49" stroke-width="3" stroke-miterlimit="10" d="M138.557,85.475
	c-3.843,0.105-0.385,13.648,5.441,14.609c6.764,1.117,20.532,8.032,23.069,17.958c3.232,12.642,2.908,24.715,0.969,37.315
	c-2.908,17.931-5.248,41.95-6.218,60.365c4.399-8.211,8.798-21.701,9.854-30.138l5.369-44.27
	C177.041,141.315,180.607,84.323,138.557,85.475z"/>
<path fill="#323B49" stroke="#323B49" stroke-width="3" stroke-miterlimit="10" d="M136.139,85.979c0,0,2.217,12.997-11.385,15.617
	c-8.852,1.705-14.387,9.662-16.81,18.385c-2.423,11.146-0.969,23.262,0.485,34.408c0.969,8.723,1.938,17.446,3.392,26.169
	c0.969,8.723,4.352,27.615,4.837,36.338c-5.815-3.392-10.85-21.114-12.106-26.161c-0.74-2.974-2.792-8.373-2.908-10.662
	c0,0-5.338-40.988-1.785-59.367C105.718,90.399,136.139,85.979,136.139,85.979z"/>
<g>
	<g>
		<path fill="#323B49" d="M133.743,144.378c-3.088,0.412-1.284,4.733,0.798,3.852c0.565-0.239,0.968-0.633,1.396-1.064
			c0.183-0.184,1.782,1.027,2.158,1.21c1.477,0.72,2.634-0.375,2.993-1.728c-0.279,0.074-0.557,0.147-0.836,0.221
			c1.876,2.394,5.574-1.026,2.705-2.382c-0.58-0.274-1.087,0.588-0.505,0.863c1.175,0.555-0.441,2.155-1.493,0.812
			c-0.239-0.305-0.748-0.111-0.836,0.221c-0.92,1.062-1.8,1.24-2.639,0.536c-0.268-0.223-0.43-0.531-0.71-0.752
			c-0.199-0.157-0.56-0.292-0.812-0.205c-0.302,0.104-0.504,0.279-0.733,0.498c-0.152,0.156-0.307,0.309-0.465,0.458
			c-1.329,1.281-1.913-1.419-1.022-1.538C134.373,145.294,134.381,144.293,133.743,144.378L133.743,144.378z"/>
	</g>
</g>
<path fill="none" stroke="#FFFAEF" stroke-linecap="round" stroke-linejoin="round" stroke-miterlimit="10" d="M102.749,184.772
	c0,0-4.202-10.53-4.11-31.522"/>
<path fill="none" stroke="#FFFAEF" stroke-linecap="round" stroke-linejoin="round" stroke-miterlimit="10" d="M160.765,99.28
	c0.485,0.72,8.609,3.278,14.173,16.22"/>
<path opacity="0.2" fill="#323B49" d="M124.024,174.75c0,0,7.671,4.237,13.697,3.266c0,0-2.697,2.21-13.697,0.859V174.75z"/>
<g>
	<defs>
		<path id="SVGID_1_" d="M139.256,181.272c-30.152,0-54.594,20.505-54.594,45.799H193.85
			C193.85,201.777,169.408,181.272,139.256,181.272z"/>
	</defs>
	<clipPath id="SVGID_2_">
		<use xlink:href="#SVGID_1_"  overflow="visible"/>
	</clipPath>
	<path opacity="0.2" clip-path="url(#SVGID_2_)" fill="#323B49" stroke="#323B49" stroke-width="3.5585" stroke-miterlimit="10" d="
		M95.5,232.25c0.375,0.25-0.625-37.125,10.75-48.25S83,195.5,83,195.5l-6.875,26.875l10.25,17.345L95.5,232.25z"/>
</g>
</svg>
