<?xml version="1.0" encoding="utf-8"?>
<!-- Generator: Adobe Illustrator 17.0.0, SVG Export Plug-In . SVG Version: 6.00 Build 0)  -->
<!DOCTYPE svg PUBLIC "-//W3C//DTD SVG 1.1//EN" "http://www.w3.org/Graphics/SVG/1.1/DTD/svg11.dtd">
<svg version="1.1" id="Calque_1" xmlns="http://www.w3.org/2000/svg" xmlns:xlink="http://www.w3.org/1999/xlink" x="0px" y="0px"
	 width="293.976px" height="339.759px" viewBox="0 0 293.976 339.759" enable-background="new 0 0 293.976 339.759"
	 xml:space="preserve">
<polygon fill="none" points="366.124,307.639 101.064,307.639 99.064,253.422 364.124,253.422 "/>
<text transform="matrix(1 0 0 1 99.6506 269.3284)" font-family="'BloggerSans-Medium'" font-size="22">Chloé</text>
<path fill="#E54F7F" stroke="#E54F7F" stroke-width="2.9044" stroke-miterlimit="10" d="M133.882,181.017
	c-31.292,0-56.659,20.306-56.659,45.354h113.317C190.541,201.322,165.174,181.017,133.882,181.017z"/>
<path fill="#FDDCBA" stroke="#FDDCBA" stroke-miterlimit="10" d="M145.432,184.675c0.368,17.221-24.22,15.974-23.972,0
	c0.07-4.497,0-19.569,0-19.569h23.972C145.432,165.107,145.329,179.853,145.432,184.675z"/>
<path fill="#FDDCBA" stroke="#FDDCBA" stroke-miterlimit="10" d="M165.904,111.236c-4.887-15.062-10.37-17.166-31.465-17.807
	c-21.376-0.65-25.575,3.359-29.684,16.007c-0.232,0.715-7.203,30.75,1.077,46.521c0,0,6.81,14.507,20.966,20.943
	c3.251,1.478,10.49,0.972,11.488,0.512c0.715-0.33,14.359-3.506,24.357-21.749C171.736,139.07,166.141,111.965,165.904,111.236z"/>
<g>
	<g>
		<path fill="#323B49" d="M127.507,132.136c-3.697-2.931-9.759-2.143-12.624,1.577c-0.577,0.749,0.698,1.478,1.267,0.74
			c2.244-2.912,7.43-3.572,10.321-1.28C127.203,133.754,128.248,132.724,127.507,132.136L127.507,132.136z"/>
	</g>
</g>
<g>
	<g>
		<path fill="#323B49" d="M143.893,133.226c2.377-1.91,8.023-2.059,9.843,0.782c0.498,0.777,1.741,0.058,1.24-0.725
			c-2.365-3.693-8.971-3.585-12.098-1.073C142.156,132.79,143.179,133.8,143.893,133.226L143.893,133.226z"/>
	</g>
</g>
<g>
	<g>
		<path fill="#323B49" d="M122.239,138.39c4.569,0,4.569-7.084,0-7.084S117.67,138.39,122.239,138.39L122.239,138.39z"/>
	</g>
</g>
<g>
	<g>
		<path fill="#323B49" d="M148.522,138.528c4.569,0,4.569-7.084,0-7.084S143.954,138.528,148.522,138.528L148.522,138.528z"/>
	</g>
</g>
<g>
	<g>
		<path fill="#323B49" d="M121.74,131.004c-0.093-0.773-0.239-1.531-0.429-2.285c-0.231-0.917-1.645-0.528-1.414,0.39
			c0.157,0.625,0.299,1.255,0.376,1.895c0.048,0.397,0.297,0.733,0.733,0.733C121.37,131.738,121.788,131.402,121.74,131.004
			L121.74,131.004z"/>
	</g>
</g>
<g>
	<g>
		<path fill="#323B49" d="M119.658,130.972c-0.278-0.535-0.386-1.14-0.584-1.707c-0.311-0.887-1.728-0.505-1.414,0.39
			c0.242,0.691,0.392,1.402,0.732,2.057C118.827,132.552,120.093,131.81,119.658,130.972L119.658,130.972z"/>
	</g>
</g>
<g>
	<g>
		<path fill="#323B49" d="M117.923,132.054c-0.192-0.79-0.582-1.498-1.032-2.168c-0.524-0.781-1.796-0.047-1.267,0.74
			c0.383,0.57,0.721,1.145,0.884,1.818C116.731,133.363,118.146,132.973,117.923,132.054L117.923,132.054z"/>
	</g>
</g>
<g>
	<g>
		<path fill="#323B49" d="M154.197,130.175c-0.437,0.608-1.085,1.046-1.592,1.592c-0.643,0.692,0.392,1.731,1.037,1.037
			c0.601-0.646,1.303-1.166,1.822-1.888C156.017,130.146,154.744,129.415,154.197,130.175L154.197,130.175z"/>
	</g>
</g>
<g>
	<g>
		<path fill="#323B49" d="M152.016,128.991c-0.527,0.638-0.962,1.329-1.347,2.061c-0.43,0.819,0.809,1.545,1.24,0.725
			c0.325-0.618,0.676-1.23,1.122-1.771C153.616,129.298,152.606,128.276,152.016,128.991L152.016,128.991z"/>
	</g>
</g>
<g>
	<g>
		<path fill="#323B49" d="M149.379,128.594c-0.281,0.804-0.481,1.629-0.632,2.466c-0.163,0.905,1.221,1.292,1.385,0.382
			c0.151-0.838,0.351-1.662,0.632-2.466C151.07,128.099,149.682,127.726,149.379,128.594L149.379,128.594z"/>
	</g>
</g>
<g>
	<g>
		<path fill="#323B49" d="M141.661,156.742c-1.109-0.588-2.161-1.172-3.326-1.658c-1.846-0.77-3.283,0.505-5.108-0.075
			c-2.68-0.851-4.474,0.517-7.049,1.248c-0.826,0.235-0.475,1.522,0.355,1.287c2.524-0.717,4.197-1.929,6.833-1.092
			c0.879,0.279,1.852-0.066,2.678-0.325c1.535-0.481,3.657,1.084,4.944,1.766C141.747,158.297,142.421,157.145,141.661,156.742
			L141.661,156.742z"/>
	</g>
</g>
<g>
	<g>
		<path fill="#323B49" d="M124.288,156.381c2.03,2.568,5.771,3.283,8.871,3.681c4.114,0.528,7.453-0.467,10.612-3.146
			c0.663-0.562-0.294-1.51-0.952-0.952c-2.545,2.158-5.142,3.053-8.478,2.904c-2.857-0.128-7.298-1.159-9.101-3.438
			C124.702,154.748,123.756,155.707,124.288,156.381L124.288,156.381z"/>
	</g>
</g>
<g>
	<g>
		<path fill="#323B49" d="M126.434,125.421c-3.534-1.726-9.461-1.368-12.613,1.077c-1.248,0.968,0.501,2.691,1.734,1.734
			c2.17-1.683,7.259-1.857,9.641-0.693C126.611,128.229,127.855,126.115,126.434,125.421L126.434,125.421z"/>
	</g>
</g>
<g>
	<g>
		<path fill="#323B49" d="M145.67,127.538c2.382-1.164,7.471-0.99,9.641,0.693c1.233,0.957,2.982-0.766,1.734-1.734
			c-3.152-2.445-9.079-2.803-12.613-1.077C143.011,126.115,144.255,128.229,145.67,127.538L145.67,127.538z"/>
	</g>
</g>
<g>
	<g>
		<path d="M132.071,143.867c-0.72,1.449-1.421,4.165,0.388,5.139c1.473,0.793,3.787,0.009,5.001-0.939
			c0.692-0.54-0.28-1.497-0.963-0.963c-0.809,0.632-2.192,0.968-3.196,0.765c-1.244-0.251-0.402-2.612-0.053-3.315
			C133.637,143.771,132.462,143.08,132.071,143.867L132.071,143.867z"/>
	</g>
</g>
<path fill="#323B49" stroke="#323B49" stroke-width="3.0511" stroke-miterlimit="10" d="M147.431,102.959
	c-5.478-3.421-20.343-1.491-23.235,0.38c-4.628,1.871-5.113,3.797-6.848,8.163c-3.471,8.732-6.122,17.382-10.182,25.836
	c-2.277,4.742-2,6.835-0.614,12.664c1.363,5.731,2.562,10.68,4.298,16.293c2.892,8.108,4.993,15.325,9.621,22.186
	s6.034,14.355,5.456,22.463c-6.942-7.484-15.868-9.989-24.545-15.603c-2.892-2.495-8.098-5.613-9.834-9.355
	c-1.735-4.366-1.735-11.85-1.735-16.216c-0.578-25.571-2.892-61.122,19.089-77.962c15.04-11.85,35.864-9.355,50.904,0
	c20.825,13.098,25.452,42.411,24.295,66.111c-0.578,5.613-1.157,11.85-2.314,16.84c-0.578,5.613-4.628,8.732-7.52,13.098
	c-4.628,5.613-9.532,9.55-13.582,16.41c0-4.99,0.856-7.679,1.434-12.668c0.578-6.237,1.231-13.231,2.892-19.334
	c2.908-10.684,1.824-13.057,2.494-24.821c0.645-11.336-3.776-24.839-8.947-35.713C153.715,101.548,147.431,102.959,147.431,102.959z
	"/>
<path opacity="0.2" fill="#323B49" stroke="#323B49" stroke-width="3.0511" stroke-miterlimit="10" d="M147.431,105.959
	c-5.478-3.421-20.343-1.491-23.235,0.38c-4.628,1.871-5.113,3.797-6.848,8.163c-3.471,8.732-6.122,17.382-10.182,25.836
	c-2.277,4.742-2,6.835-0.614,12.664c1.363,5.731,2.562,10.68,4.298,16.293c2.892,8.108,4.993,15.325,9.621,22.186
	s6.034,14.355,5.456,22.463c-6.942-7.484-15.868-9.989-24.545-15.603c-2.892-2.495-8.098-5.613-9.834-9.355
	c-1.735-4.366-1.735-11.85-1.735-16.216c-0.578-25.571-2.892-61.122,19.089-77.962c15.04-11.85,35.864-9.355,50.904,0
	c20.825,13.098,25.452,42.411,24.295,66.111c-0.578,5.613-1.157,11.85-2.314,16.84c-0.578,5.613-4.628,8.732-7.52,13.098
	c-4.628,5.613-9.532,9.55-13.582,16.41c0-4.99,0.856-7.679,1.434-12.668c0.578-6.237,1.231-13.231,2.892-19.334
	c2.908-10.684,1.824-13.057,2.494-24.821c0.645-11.336-3.776-24.839-8.947-35.713C153.715,104.548,147.431,105.959,147.431,105.959z
	"/>
<g>
	<g>
		<path fill="#323B49" d="M125.645,157.553c0.453,4.377,3.54,6.32,7.647,6.68c2.127,0.186,4.072-0.3,5.879-1.407
			c2.023-1.24,2.104-3.037,3.097-4.907c-0.351-0.046-0.702-0.092-1.053-0.138c1.04,4.047-2.882,7.77-6.647,7.911
			c-4.281,0.16-9.291-3.067-7.807-7.942c0.217-0.713-0.895-1.015-1.111-0.306c-1.679,5.516,3.371,8.946,8.12,9.377
			c4.884,0.443,9.84-4.352,8.557-9.346c-0.121-0.472-0.818-0.58-1.053-0.138c-0.295,0.556-0.388,1.084-0.554,1.7
			c-0.536,1.992-2.464,3.192-4.281,3.798c-4.044,1.35-9.169-0.731-9.64-5.283C126.721,156.822,125.568,156.814,125.645,157.553
			L125.645,157.553z"/>
	</g>
</g>
<g>
	<defs>
		<path id="SVGID_1_" d="M133.882,181.017c-31.292,0-56.659,20.306-56.659,45.354h113.317
			C190.541,201.322,165.174,181.017,133.882,181.017z"/>
	</defs>
	<clipPath id="SVGID_2_">
		<use xlink:href="#SVGID_1_"  overflow="visible"/>
	</clipPath>
	<path opacity="0.2" clip-path="url(#SVGID_2_)" fill="#323B49" d="M93.25,228.37c0,0-6.36-29.837,7.82-47.354
		c0,0-26.07,8.733-27.32,11.483s-5.5,38.5-5.5,38.5l12,3.958L93.25,228.37z"/>
</g>
<path opacity="0.2" fill="#323B49" d="M121.024,174.25c0,0,6.461,4.335,11.989,3.632c0,0-6.989,1.368-11.989-1.049V174.25z"/>
<path fill="#323B49" d="M121.489,174.25"/>
</svg>
