<?xml version="1.0" encoding="utf-8"?>
<!-- Generator: Adobe Illustrator 17.0.0, SVG Export Plug-In . SVG Version: 6.00 Build 0)  -->
<!DOCTYPE svg PUBLIC "-//W3C//DTD SVG 1.1//EN" "http://www.w3.org/Graphics/SVG/1.1/DTD/svg11.dtd">
<svg version="1.1" id="Calque_1" xmlns="http://www.w3.org/2000/svg" xmlns:xlink="http://www.w3.org/1999/xlink" x="0px" y="0px"
	 width="293.976px" height="339.759px" viewBox="0 0 293.976 339.759" enable-background="new 0 0 293.976 339.759"
	 xml:space="preserve">
<polygon fill="none" points="368.747,307.639 103.687,307.639 101.687,253.422 366.747,253.422 "/>
<text transform="matrix(1 0 0 1 102.2732 269.3284)" font-family="'BloggerSans-Medium'" font-size="22">CORENTIN</text>
<g>
	<path fill="#9ED1BC" stroke="#9ED1BC" stroke-width="2.4759" stroke-miterlimit="10" d="M147.349,184.083
		c-33.251,0-60.207,18.848-60.207,42.099h120.414C207.556,202.931,180.6,184.083,147.349,184.083z"/>
	<path fill="#FDDCBA" stroke="#FDDCBA" stroke-miterlimit="10" d="M159.36,189.671c-4.026,4.331-21.094,3.937-25.623,0
		c-3.492-3.035,0-17.168,0-17.168l25.551-1.486C159.287,171.017,162.463,186.332,159.36,189.671z"/>
	<circle fill="#FDDCBA" stroke="#FDDCBA" stroke-miterlimit="10" cx="111.666" cy="131.63" r="10.936"/>
	<circle fill="#FDDCBA" stroke="#FDDCBA" stroke-miterlimit="10" cx="181.292" cy="131.853" r="10.936"/>
	<g>
		<g>
			<path fill="#323B49" d="M108.48,127.428c-1.798,0.196-3.242,1.67-3.368,3.514c-0.119,1.745,0.883,3.227,2.377,4.054
				c1.165,0.645,2.205-1.137,1.041-1.782c-0.694-0.385-1.15-0.874-1.355-1.651c-0.207-0.787,0.471-1.981,1.305-2.072
				C109.788,129.348,109.802,127.283,108.48,127.428L108.48,127.428z"/>
		</g>
	</g>
	<g>
		<g>
			<path fill="#323B49" d="M184.581,129.507c0.989,0.761,1.609,1.946,1.652,3.194c0.027,0.777-0.616,1.221-1.181,1.611
				c-1.087,0.75-0.057,2.539,1.041,1.782c1.265-0.872,2.094-1.797,2.203-3.392c0.136-1.976-1.195-3.838-2.674-4.976
				C184.568,126.914,183.542,128.708,184.581,129.507L184.581,129.507z"/>
		</g>
	</g>
	<path fill="#FDDCBA" stroke="#FDDCBA" stroke-miterlimit="10" d="M181.488,105.751c0-18.55-15.389-33.587-34.371-33.587
		s-34.371,15.548-34.371,34.098c0,0.535,0.016,1.105,0.041,2.105h-0.006c0,0-5.219,28.008,4.184,42.563
		c0,0,13.739,23.628,23.752,24.247c2.113,0.131,6.356,0.377,8.463,0.185c7.612-0.693,17.837-8.491,27.397-26
		c8.581-15.715,4.608-36.184,4.829-41.374C181.454,107.258,181.488,106.493,181.488,105.751z"/>
	<g>
		<g>
			<path fill="#323B49" d="M125.926,117.505c1.619-0.813,3.21-1.624,4.986-2.033c2.627-0.605,5.302,0.792,7.504,2.033
				c1.352,0.762,2.563-1.314,1.213-2.076c-2.465-1.39-4.999-2.518-7.877-2.466c-2.503,0.045-4.864,1.374-7.039,2.466
				C123.327,116.125,124.545,118.198,125.926,117.505L125.926,117.505z"/>
		</g>
	</g>
	<g>
		<g>
			<path fill="#323B49" d="M155.445,117.626c4.621-1.904,8.105-2.268,12.777-0.121c1.398,0.643,2.62-1.429,1.213-2.076
				c-5.271-2.422-9.338-2.302-14.629-0.121C153.394,115.89,154.012,118.217,155.445,117.626L155.445,117.626z"/>
		</g>
	</g>
	<g>
		<path fill="#323B49" d="M113.894,119.948c-0.128-4.373,2.625-17.147,3.877-20.903c0.835-2.087,9.677-10.95,13.714-12.008
			c2.455-0.643,8.216,4.625,9.885,5.877c4.59,2.921,10.501,4.443,15.509,4.86c5.842,0,9.542-0.203,11.309-0.91
			c2.758-1.103,3.846-5.258,5.515-3.171c1.669,2.087,3.977,10.961,4.688,13.236c0-0.835,1.554,7.435,2.806,11.608
			c0.835,2.087,0.181,2.166,0.823-0.181c0.884-3.232,1.035-7.573,1.453-10.912c1.252-6.677-2.075-16.201-5.831-22.043
			c-4.173-6.677-8.141-11.28-15.653-13.784c-15.858-5.425-35.054-1.252-44.652,12.937c-4.59,7.094-5.425,15.44-5.008,23.369
			c0,3.756-0.082,8.663,1.588,12.002"/>
		<g>
			<path fill="#323B49" d="M115.697,119.948c0.01-3.853,0.853-7.7,1.61-11.462c0.664-3.298,1.019-7.574,3.211-10.249
				c2.499-3.05,5.593-5.811,8.808-8.073c4.049-2.849,7.606,1.544,10.769,4.025c7.201,5.649,18.474,6.175,27.105,4.814
				c1.134-0.179,2.348-0.648,3.222-1.402c1.116-0.963,1.83-2.946,2.471-1.727c1.852,3.521,2.616,7.746,3.758,11.535
				c0.48,1.591,2.4,1.67,3.295,0.431c0.009-0.012,0.018-0.025,0.027-0.037c-1.098-0.144-2.197-0.287-3.295-0.431
				c1.314,4.278,2.222,8.863,3.263,13.217c0.514,2.148,3.299,1.39,3.541-0.479c0.844-6.516,2.6-12.93,1.751-19.559
				c-0.795-6.206-3.491-12.058-6.817-17.286c-6.67-10.484-16.484-15.074-28.745-15.712c-12.022-0.625-24.122,4.268-31.923,13.455
				c-4.077,4.801-6.312,11.097-6.962,17.308c-0.72,6.875-1.31,15.576,1.392,22.089c0.877,2.116,4.367,1.189,3.477-0.959
				c-2.075-5.004-1.65-10.978-1.603-16.317c0.062-7.013,1.905-13.984,6.246-19.573c6.928-8.917,18.443-12.615,29.374-12.399
				c5.632,0.111,11.51,1.544,16.435,4.288c4.766,2.655,7.9,7.482,10.676,12.003c3.148,5.127,5.087,11.357,5.149,17.372
				c0.053,5.124-1.403,10.256-2.055,15.289c1.18-0.16,2.361-0.32,3.541-0.479c-1.041-4.354-1.949-8.939-3.263-13.217
				c-0.487-1.585-2.396-1.675-3.295-0.431c-0.009,0.012-0.018,0.025-0.027,0.037c1.098,0.144,2.197,0.287,3.295,0.431
				c-0.708-2.349-4.182-19.471-9.453-14.236c-1.935,1.922-3.156,3.206-6.009,3.518c-3.991,0.436-8.061,0.354-12.001-0.378
				c-6.55-1.217-10.778-4.736-16.017-8.317c-7.274-4.972-14.86,3.986-19.21,9.295c-2.229,2.72-2.622,6.621-3.35,9.954
				c-0.968,4.437-1.987,9.098-1.999,13.661C112.085,122.273,115.691,122.272,115.697,119.948L115.697,119.948z"/>
		</g>
	</g>
	<g opacity="0.2">
		<path fill="#323B49" d="M113.894,122.948c-0.128-4.373,2.625-17.147,3.877-20.903c0.835-2.087,9.677-10.95,13.714-12.008
			c2.455-0.643,8.216,4.625,9.885,5.877c4.59,2.921,10.501,4.443,15.509,4.86c5.842,0,9.542-0.203,11.309-0.91
			c2.758-1.103,3.846-5.258,5.515-3.171c1.669,2.087,3.977,10.961,4.688,13.236c0-0.835,1.554,7.435,2.806,11.608
			c0.835,2.087,0.181,2.166,0.823-0.181c0.884-3.232,1.035-7.573,1.453-10.912c1.252-6.677-2.075-16.201-5.831-22.043
			c-4.173-6.677-8.141-11.28-15.653-13.784c-15.858-5.425-35.054-1.252-44.652,12.937c-4.59,7.094-5.425,15.44-5.008,23.369
			c0,3.756-0.082,8.663,1.588,12.002"/>
		<g>
			<path fill="#323B49" d="M115.697,122.948c0.01-3.853,0.853-7.7,1.61-11.462c0.664-3.298,1.019-7.574,3.211-10.249
				c2.499-3.05,5.593-5.811,8.808-8.073c4.049-2.849,7.606,1.544,10.769,4.025c7.201,5.649,18.474,6.175,27.105,4.814
				c1.134-0.179,2.348-0.648,3.222-1.402c1.116-0.963,1.83-2.946,2.471-1.727c1.852,3.521,2.616,7.746,3.758,11.535
				c0.48,1.591,2.4,1.67,3.295,0.431c0.009-0.012,0.018-0.025,0.027-0.037c-1.098-0.144-2.197-0.287-3.295-0.431
				c1.314,4.278,2.222,8.863,3.263,13.217c0.514,2.148,3.299,1.39,3.541-0.479c0.844-6.516,2.6-12.93,1.751-19.559
				c-0.795-6.206-3.491-12.058-6.817-17.286c-6.67-10.484-16.484-15.074-28.745-15.712c-12.022-0.625-24.122,4.268-31.923,13.455
				c-4.077,4.801-6.312,11.097-6.962,17.308c-0.72,6.875-1.31,15.576,1.392,22.089c0.877,2.116,4.367,1.189,3.477-0.959
				c-2.075-5.004-1.65-10.978-1.603-16.317c0.062-7.013,1.905-13.984,6.246-19.573c6.928-8.917,18.443-12.615,29.374-12.399
				c5.632,0.111,11.51,1.544,16.435,4.288c4.766,2.655,7.9,7.482,10.676,12.003c3.148,5.127,5.087,11.357,5.149,17.372
				c0.053,5.124-1.403,10.256-2.055,15.289c1.18-0.16,2.361-0.32,3.541-0.479c-1.041-4.354-1.949-8.939-3.263-13.217
				c-0.487-1.585-2.396-1.675-3.295-0.431c-0.009,0.012-0.018,0.025-0.027,0.037c1.098,0.144,2.197,0.287,3.295,0.431
				c-0.708-2.349-4.182-19.471-9.453-14.236c-1.935,1.922-3.156,3.206-6.009,3.518c-3.991,0.436-8.061,0.354-12.001-0.378
				c-6.55-1.217-10.778-4.736-16.017-8.317c-7.274-4.972-14.86,3.986-19.21,9.295c-2.229,2.72-2.622,6.621-3.35,9.954
				c-0.968,4.437-1.987,9.098-1.999,13.661C112.085,125.273,115.691,125.272,115.697,122.948L115.697,122.948z"/>
		</g>
	</g>
	<g>
		<g>
			<path fill="#323B49" d="M139.165,136.582c-0.478,1.766-0.119,3.82,2.09,3.969c0.394,0.027,0.773,0.035,1.164-0.037
				c1.358-0.25,1.737,0.644,2.412,1.469c0.69,0.844,1.596,1.131,2.637,1.227c0.957,0.088,1.791-0.805,2.382-1.411
				c0.965-0.99,1.938-0.653,3.104-0.899c2.268-0.478,2.299-2.442,1.66-4.318c-0.418-1.226-2.369-0.699-1.948,0.537
				c0.668,1.959-0.291,1.762-1.729,1.95c-1.011,0.132-1.78,0.63-2.516,1.302c-1.861,1.698-2.487-0.857-3.754-1.526
				c-1.01-0.534-4.056,0.124-3.556-1.725C141.454,135.86,139.505,135.326,139.165,136.582L139.165,136.582z"/>
		</g>
	</g>
	<g>
		<g>
			<path fill="#323B49" d="M134.553,151.302c6.732,4.024,15.971,2.941,23.153,0.752c-0.38-0.495-0.76-0.989-1.14-1.483
				c-2.045,3.889-4.061,6.872-8.598,7.977c-4.952,1.206-11.3-2.5-11.808-7.801c-0.123-1.285-2.144-1.297-2.02,0
				c0.469,4.887,5.251,9.712,10.308,9.968c7.021,0.356,10.77-3.244,13.862-9.124c0.396-0.754-0.254-1.754-1.14-1.483
				c-6.636,2.023-15.356,3.182-21.597-0.548C134.452,148.888,133.437,150.634,134.553,151.302L134.553,151.302z"/>
		</g>
	</g>
	<g>
		<g>
			<path fill="#323B49" d="M137.694,146.27c0.775,0,0.775-1.202,0-1.202S136.919,146.27,137.694,146.27L137.694,146.27z"/>
		</g>
	</g>
	<g>
		<g>
			<path fill="#323B49" d="M142.2,148.973c0.775,0,0.775-1.202,0-1.202C141.425,147.772,141.425,148.973,142.2,148.973
				L142.2,148.973z"/>
		</g>
	</g>
	<g>
		<g>
			<path fill="#323B49" d="M142.2,144.467c0.775,0,0.775-1.202,0-1.202C141.425,143.266,141.425,144.467,142.2,144.467
				L142.2,144.467z"/>
		</g>
	</g>
	<g>
		<g>
			<path fill="#323B49" d="M147.156,147.622c0.775,0,0.775-1.202,0-1.202C146.381,146.42,146.381,147.622,147.156,147.622
				L147.156,147.622z"/>
		</g>
	</g>
	<g>
		<g>
			<path fill="#323B49" d="M150.761,145.819c0.775,0,0.775-1.202,0-1.202S149.986,145.819,150.761,145.819L150.761,145.819z"/>
		</g>
	</g>
	<g>
		<g>
			<path fill="#323B49" d="M152.564,148.973c0.775,0,0.775-1.202,0-1.202S151.788,148.973,152.564,148.973L152.564,148.973z"/>
		</g>
	</g>
	<g>
		<g>
			<path fill="#323B49" d="M158.421,146.27c0.775,0,0.775-1.202,0-1.202S157.646,146.27,158.421,146.27L158.421,146.27z"/>
		</g>
	</g>
	<g>
		<g>
			<path fill="#323B49" d="M155.267,145.369c0.775,0,0.775-1.202,0-1.202C154.492,144.167,154.492,145.369,155.267,145.369
				L155.267,145.369z"/>
		</g>
	</g>
	<g>
		<g>
			<path fill="#323B49" d="M161.125,152.578c0.775,0,0.775-1.202,0-1.202C160.35,151.376,160.35,152.578,161.125,152.578
				L161.125,152.578z"/>
		</g>
	</g>
	<g>
		<g>
			<path fill="#323B49" d="M160.224,160.689c0.775,0,0.775-1.202,0-1.202C159.449,159.487,159.449,160.689,160.224,160.689
				L160.224,160.689z"/>
		</g>
	</g>
	<g>
		<g>
			<path fill="#323B49" d="M167.433,152.578c0.775,0,0.775-1.202,0-1.202S166.658,152.578,167.433,152.578L167.433,152.578z"/>
		</g>
	</g>
	<g>
		<g>
			<path fill="#323B49" d="M163.378,156.634c0.775,0,0.775-1.202,0-1.202S162.603,156.634,163.378,156.634L163.378,156.634z"/>
		</g>
	</g>
	<g>
		<g>
			<path fill="#323B49" d="M166.082,147.622c0.775,0,0.775-1.202,0-1.202C165.306,146.42,165.306,147.622,166.082,147.622
				L166.082,147.622z"/>
		</g>
	</g>
	<g>
		<g>
			<path fill="#323B49" d="M170.588,148.072c0.775,0,0.775-1.202,0-1.202S169.812,148.072,170.588,148.072L170.588,148.072z"/>
		</g>
	</g>
	<g>
		<g>
			<path fill="#323B49" d="M173.742,141.313c0.775,0,0.775-1.202,0-1.202S172.967,141.313,173.742,141.313L173.742,141.313z"/>
		</g>
	</g>
	<g>
		<g>
			<path fill="#323B49" d="M153.014,170.152c0.775,0,0.775-1.202,0-1.202C152.239,168.95,152.239,170.152,153.014,170.152
				L153.014,170.152z"/>
		</g>
	</g>
	<g>
		<g>
			<path fill="#323B49" d="M164.73,161.59c0.775,0,0.775-1.202,0-1.202S163.955,161.59,164.73,161.59L164.73,161.59z"/>
		</g>
	</g>
	<g>
		<g>
			<path fill="#323B49" d="M155.267,162.942c0.775,0,0.775-1.202,0-1.202C154.492,161.74,154.492,162.942,155.267,162.942
				L155.267,162.942z"/>
		</g>
	</g>
	<g>
		<g>
			<path fill="#323B49" d="M144.903,168.86c0.775,0,0.775-1.202,0-1.202C144.128,167.658,144.128,168.86,144.903,168.86
				L144.903,168.86z"/>
		</g>
	</g>
	<g>
		<g>
			<path fill="#323B49" d="M150.761,167.448c0.775,0,0.775-1.202,0-1.202S149.986,167.448,150.761,167.448L150.761,167.448z"/>
		</g>
	</g>
	<g>
		<g>
			<path fill="#323B49" d="M145.805,171.954c0.775,0,0.775-1.202,0-1.202C145.03,170.752,145.03,171.954,145.805,171.954
				L145.805,171.954z"/>
		</g>
	</g>
	<g>
		<g>
			<path fill="#323B49" d="M140.397,173.756c0.775,0,0.775-1.202,0-1.202S139.622,173.756,140.397,173.756L140.397,173.756z"/>
		</g>
	</g>
	<g>
		<g>
			<path fill="#323B49" d="M134.089,170.602c0.775,0,0.775-1.202,0-1.202C133.314,169.4,133.314,170.602,134.089,170.602
				L134.089,170.602z"/>
		</g>
	</g>
	<g>
		<g>
			<path fill="#323B49" d="M148.959,173.306c0.775,0,0.775-1.202,0-1.202C148.184,172.104,148.184,173.306,148.959,173.306
				L148.959,173.306z"/>
		</g>
	</g>
	<g>
		<g>
			<path fill="#323B49" d="M136.342,167.448c0.775,0,0.775-1.202,0-1.202S135.567,167.448,136.342,167.448L136.342,167.448z"/>
		</g>
	</g>
	<g>
		<g>
			<path fill="#323B49" d="M141.749,163.843c0.775,0,0.775-1.202,0-1.202C140.974,162.641,140.974,163.843,141.749,163.843
				L141.749,163.843z"/>
		</g>
	</g>
	<g>
		<g>
			<path fill="#323B49" d="M131.776,168.289c0.775,0,0.775-1.202,0-1.202C131.001,167.087,131.001,168.289,131.776,168.289
				L131.776,168.289z"/>
		</g>
	</g>
	<g>
		<g>
			<path fill="#323B49" d="M134.54,160.689c0.775,0,0.775-1.202,0-1.202S133.765,160.689,134.54,160.689L134.54,160.689z"/>
		</g>
	</g>
	<g>
		<g>
			<path fill="#323B49" d="M129.583,165.195c0.775,0,0.775-1.202,0-1.202S128.808,165.195,129.583,165.195L129.583,165.195z"/>
		</g>
	</g>
	<g>
		<g>
			<path fill="#323B49" d="M128.231,162.491c0.775,0,0.775-1.202,0-1.202S127.456,162.491,128.231,162.491L128.231,162.491z"/>
		</g>
	</g>
	<g>
		<g>
			<path fill="#323B49" d="M131.385,157.535c0.775,0,0.775-1.202,0-1.202S130.61,157.535,131.385,157.535L131.385,157.535z"/>
		</g>
	</g>
	<g>
		<g>
			<path fill="#323B49" d="M124.626,157.535c0.775,0,0.775-1.202,0-1.202C123.851,156.333,123.851,157.535,124.626,157.535
				L124.626,157.535z"/>
		</g>
	</g>
	<g>
		<g>
			<path fill="#323B49" d="M130.034,151.677c0.775,0,0.775-1.202,0-1.202C129.259,150.475,129.259,151.677,130.034,151.677
				L130.034,151.677z"/>
		</g>
	</g>
	<g>
		<g>
			<path fill="#323B49" d="M124.176,153.029c0.775,0,0.775-1.202,0-1.202C123.401,151.827,123.401,153.029,124.176,153.029
				L124.176,153.029z"/>
		</g>
	</g>
	<g>
		<g>
			<path fill="#323B49" d="M127.33,155.732c0.775,0,0.775-1.202,0-1.202S126.555,155.732,127.33,155.732L127.33,155.732z"/>
		</g>
	</g>
	<g>
		<g>
			<path fill="#323B49" d="M131.385,148.973c0.775,0,0.775-1.202,0-1.202S130.61,148.973,131.385,148.973L131.385,148.973z"/>
		</g>
	</g>
	<g>
		<g>
			<path fill="#323B49" d="M132.737,146.27c0.775,0,0.775-1.202,0-1.202C131.962,145.068,131.962,146.27,132.737,146.27
				L132.737,146.27z"/>
		</g>
	</g>
	<g>
		<g>
			<path fill="#323B49" d="M122.824,147.171c0.775,0,0.775-1.202,0-1.202C122.049,145.969,122.049,147.171,122.824,147.171
				L122.824,147.171z"/>
		</g>
	</g>
	<g>
		<g>
			<path fill="#323B49" d="M125.978,149.875c0.775,0,0.775-1.202,0-1.202C125.203,148.673,125.203,149.875,125.978,149.875
				L125.978,149.875z"/>
		</g>
	</g>
	<g>
		<g>
			<path fill="#323B49" d="M119.67,143.687c0.775,0,0.775-1.202,0-1.202C118.895,142.485,118.895,143.687,119.67,143.687
				L119.67,143.687z"/>
		</g>
	</g>
	<g>
		<g>
			<path fill="#323B49" d="M119.219,147.622c0.775,0,0.775-1.202,0-1.202C118.444,146.42,118.444,147.622,119.219,147.622
				L119.219,147.622z"/>
		</g>
	</g>
	<g>
		<g>
			<path fill="#323B49" d="M159.773,148.523c0.775,0,0.775-1.202,0-1.202S158.998,148.523,159.773,148.523L159.773,148.523z"/>
		</g>
	</g>
	<g>
		<g>
			<path fill="#323B49" d="M166.532,143.116c0.775,0,0.775-1.202,0-1.202S165.757,143.116,166.532,143.116L166.532,143.116z"/>
		</g>
	</g>
	<g>
		<g>
			<path fill="#323B49" d="M171.489,145.819c0.775,0,0.775-1.202,0-1.202S170.714,145.819,171.489,145.819L171.489,145.819z"/>
		</g>
	</g>
	<g>
		<g>
			<path fill="#323B49" d="M163.829,150.776c0.775,0,0.775-1.202,0-1.202S163.053,150.776,163.829,150.776L163.829,150.776z"/>
		</g>
	</g>
	<g>
		<g>
			<path fill="#323B49" d="M134.425,148.546c0.775,0,0.775-1.202,0-1.202C133.65,147.344,133.65,148.546,134.425,148.546
				L134.425,148.546z"/>
		</g>
	</g>
	<g>
		<g>
			<path fill="#323B49" d="M138.243,161.659c0.775,0,0.775-1.202,0-1.202C137.467,160.457,137.467,161.659,138.243,161.659
				L138.243,161.659z"/>
		</g>
	</g>
	<g>
		<g>
			<path fill="#323B49" d="M137.745,171.618c0.775,0,0.775-1.202,0-1.202C136.97,170.416,136.97,171.618,137.745,171.618
				L137.745,171.618z"/>
		</g>
	</g>
	<g>
		<g>
			<path fill="#323B49" d="M142.427,171.251c0.775,0,0.775-1.202,0-1.202S141.651,171.251,142.427,171.251L142.427,171.251z"/>
		</g>
	</g>
	<g>
		<g>
			<path fill="#323B49" d="M146.21,163.65c0.775,0,0.775-1.202,0-1.202S145.435,163.65,146.21,163.65L146.21,163.65z"/>
		</g>
	</g>
	<g>
		<g>
			<path fill="#323B49" d="M158.161,157.137c-0.476,0.013-0.754,0.291-0.767,0.767c-0.021,0.776,1.181,0.773,1.202,0
				c0,0.005,0,0.01-0.001,0.015c-0.14,0.14-0.28,0.28-0.42,0.42c-0.005,0-0.01,0-0.015,0.001
				C158.934,158.318,158.936,157.116,158.161,157.137L158.161,157.137z"/>
		</g>
	</g>
	<g>
		<g>
			<path fill="#323B49" d="M167.456,155.849c0.775,0,0.775-1.202,0-1.202C166.681,154.647,166.681,155.849,167.456,155.849
				L167.456,155.849z"/>
		</g>
	</g>
	<g>
		<g>
			<path fill="#323B49" d="M150.519,163.345c0.775,0,0.775-1.202,0-1.202C149.744,162.143,149.744,163.345,150.519,163.345
				L150.519,163.345z"/>
		</g>
	</g>
	<g>
		<g>
			<path fill="#323B49" d="M154.28,166.569c0.775,0,0.775-1.202,0-1.202S153.505,166.569,154.28,166.569L154.28,166.569z"/>
		</g>
	</g>
	<g>
		<g>
			<path fill="#323B49" d="M157.773,169.882c0.775,0,0.775-1.202,0-1.202S156.998,169.882,157.773,169.882L157.773,169.882z"/>
		</g>
	</g>
	<g>
		<g>
			<path fill="#323B49" d="M127.951,146.867c0.775,0,0.775-1.202,0-1.202C127.176,145.665,127.176,146.867,127.951,146.867
				L127.951,146.867z"/>
		</g>
	</g>
	<g>
		<g>
			<path fill="#323B49" d="M146.131,150.897c0.775,0,0.775-1.202,0-1.202S145.356,150.897,146.131,150.897L146.131,150.897z"/>
		</g>
	</g>
	<g>
		<g>
			<path fill="#323B49" d="M132.16,154.032c0.775,0,0.775-1.202,0-1.202C131.385,152.83,131.385,154.032,132.16,154.032
				L132.16,154.032z"/>
		</g>
	</g>
	<g>
		<g>
			<path fill="#323B49" d="M131.892,162.181c0.775,0,0.775-1.202,0-1.202C131.117,160.979,131.117,162.181,131.892,162.181
				L131.892,162.181z"/>
		</g>
	</g>
	<g>
		<g>
			<path fill="#323B49" d="M133.414,166.3c0.03,0,0.06,0,0.09,0c0.775,0,0.775-1.202,0-1.202c-0.03,0-0.06,0-0.09,0
				C132.639,165.098,132.639,166.3,133.414,166.3L133.414,166.3z"/>
		</g>
	</g>
	<g>
		<g>
			<path fill="#323B49" d="M138.877,165.136c0.03,0,0.06,0,0.09,0c0.775,0,0.775-1.202,0-1.202c-0.03,0-0.06,0-0.09,0
				C138.102,163.934,138.102,165.136,138.877,165.136L138.877,165.136z"/>
		</g>
	</g>
	<g>
		<g>
			<path fill="#323B49" d="M135.832,164.42c0.775,0,0.775-1.202,0-1.202C135.057,163.218,135.057,164.42,135.832,164.42
				L135.832,164.42z"/>
		</g>
	</g>
	<g>
		<g>
			<path fill="#323B49" d="M139.706,168.473c0.775,0,0.775-1.202,0-1.202C138.931,167.271,138.931,168.473,139.706,168.473
				L139.706,168.473z"/>
		</g>
	</g>
	<g>
		<g>
			<path fill="#323B49" d="M148.907,169.882c0.775,0,0.775-1.202,0-1.202C148.132,168.681,148.132,169.882,148.907,169.882
				L148.907,169.882z"/>
		</g>
	</g>
	<g>
		<g>
			<path fill="#323B49" d="M148.907,169.882c0.775,0,0.775-1.202,0-1.202C148.132,168.681,148.132,169.882,148.907,169.882
				L148.907,169.882z"/>
		</g>
	</g>
	<g>
		<g>
			<path fill="#323B49" d="M158.131,166.39c0.775,0,0.775-1.202,0-1.202S157.356,166.39,158.131,166.39L158.131,166.39z"/>
		</g>
	</g>
	<g>
		<g>
			<path fill="#323B49" d="M160.459,164.42c0.775,0,0.775-1.202,0-1.202C159.684,163.218,159.684,164.42,160.459,164.42
				L160.459,164.42z"/>
		</g>
	</g>
	<g>
		<g>
			<path fill="#323B49" d="M163.056,165.226c0.775,0,0.775-1.202,0-1.202S162.281,165.226,163.056,165.226L163.056,165.226z"/>
		</g>
	</g>
	<g>
		<g>
			<path fill="#323B49" d="M171.116,152.509c0.775,0,0.775-1.202,0-1.202S170.341,152.509,171.116,152.509L171.116,152.509z"/>
		</g>
	</g>
	<g>
		<g>
			<path fill="#323B49" d="M156.558,148.486c0.775,0,0.775-1.202,0-1.202C155.783,147.285,155.783,148.486,156.558,148.486
				L156.558,148.486z"/>
		</g>
	</g>
	<g>
		<g>
			<path fill="#323B49" d="M160.22,143.68c0.775,0,0.775-1.202,0-1.202C159.445,142.478,159.445,143.68,160.22,143.68L160.22,143.68
				z"/>
		</g>
	</g>
	<g>
		<g>
			<path fill="#323B49" d="M120.621,151.233c0.775,0,0.775-1.202,0-1.202C119.845,150.031,119.845,151.233,120.621,151.233
				L120.621,151.233z"/>
		</g>
	</g>
	<g>
		<g>
			<path fill="#323B49" d="M128.775,159.102c0-0.076,0-0.153,0-0.229c0-0.775-1.202-0.775-1.202,0c0,0.076,0,0.153,0,0.229
				C127.573,159.877,128.775,159.877,128.775,159.102L128.775,159.102z"/>
		</g>
	</g>
	<g>
		<g>
			<path fill="#323B49" d="M153.559,172.848c0.775,0,0.775-1.202,0-1.202C152.784,171.646,152.784,172.848,153.559,172.848
				L153.559,172.848z"/>
		</g>
	</g>
	<g>
		<g>
			<path fill="#323B49" d="M144.478,173.386c0-0.038,0-0.076,0-0.114c0-0.775-1.202-0.775-1.202,0c0,0.038,0,0.076,0,0.114
				C143.276,174.161,144.478,174.161,144.478,173.386L144.478,173.386z"/>
		</g>
	</g>
	<g>
		<g>
			<path fill="#323B49" d="M143.13,166.697c0.775,0,0.775-1.202,0-1.202S142.355,166.697,143.13,166.697L143.13,166.697z"/>
		</g>
	</g>
	<g>
		<g>
			<path fill="#323B49" d="M147.522,166.014c0.775,0,0.775-1.202,0-1.202S146.747,166.014,147.522,166.014L147.522,166.014z"/>
		</g>
	</g>
	<g>
		<g>
			<path fill="#323B49" d="M154.698,160.204c0.775,0,0.775-1.202,0-1.202S153.923,160.204,154.698,160.204L154.698,160.204z"/>
		</g>
	</g>
	<g>
		<g>
			<path fill="#323B49" d="M160.28,155.42c0.775,0,0.775-1.202,0-1.202C159.505,154.218,159.505,155.42,160.28,155.42L160.28,155.42
				z"/>
		</g>
	</g>
	<g>
		<g>
			<path fill="#323B49" d="M163.779,153.111c0,0.038,0,0.076,0,0.114c0,0.775,1.202,0.775,1.202,0c0-0.038,0-0.076,0-0.114
				C164.981,152.336,163.779,152.336,163.779,153.111L163.779,153.111z"/>
		</g>
	</g>
	<g>
		<g>
			<path fill="#323B49" d="M165.405,158.724c0.775,0,0.775-1.202,0-1.202C164.63,157.522,164.63,158.724,165.405,158.724
				L165.405,158.724z"/>
		</g>
	</g>
	<g>
		<g>
			<path fill="#323B49" d="M138.464,149.48c0.775,0,0.775-1.202,0-1.202S137.689,149.48,138.464,149.48L138.464,149.48z"/>
		</g>
	</g>
	<g>
		<g>
			<path fill="#323B49" d="M149.787,150.151c0.775,0,0.775-1.202,0-1.202S149.012,150.151,149.787,150.151L149.787,150.151z"/>
		</g>
	</g>
	<g>
		<g>
			<path fill="#323B49" d="M135.109,157.197c0.775,0,0.775-1.202,0-1.202S134.334,157.197,135.109,157.197L135.109,157.197z"/>
		</g>
	</g>
	<g>
		<g>
			<path fill="#323B49" d="M162.575,146.35c0.775,0,0.775-1.202,0-1.202C161.8,145.148,161.8,146.35,162.575,146.35L162.575,146.35z
				"/>
		</g>
	</g>
	<g>
		<g>
			<path fill="#323B49" d="M168.664,145.389c0.775,0,0.775-1.202,0-1.202S167.889,145.389,168.664,145.389L168.664,145.389z"/>
		</g>
	</g>
	<g>
		<g>
			<path fill="#323B49" d="M174.752,144.748c0.775,0,0.775-1.202,0-1.202S173.977,144.748,174.752,144.748L174.752,144.748z"/>
		</g>
	</g>
	<g>
		<g>
			<path fill="#323B49" d="M167.863,150.036c0.775,0,0.775-1.202,0-1.202S167.087,150.036,167.863,150.036L167.863,150.036z"/>
		</g>
	</g>
	<g>
		<g>
			<path fill="#323B49" d="M173.31,148.754c0.775,0,0.775-1.202,0-1.202S172.535,148.754,173.31,148.754L173.31,148.754z"/>
		</g>
	</g>
	<g>
		<g>
			<path fill="#323B49" d="M127.004,152.759c0.775,0,0.775-1.202,0-1.202C126.229,151.558,126.229,152.759,127.004,152.759
				L127.004,152.759z"/>
		</g>
	</g>
	<g>
		<g>
			<path fill="#323B49" d="M124.601,144.748c0.775,0,0.775-1.202,0-1.202C123.826,143.546,123.826,144.748,124.601,144.748
				L124.601,144.748z"/>
		</g>
	</g>
	<g opacity="0.2">
		<rect x="123.024" y="120.867" fill="#FFFFFF" stroke="#323B49" stroke-width="2" stroke-miterlimit="10" width="22" height="10"/>
		<rect x="152.024" y="120.867" fill="#FFFFFF" stroke="#323B49" stroke-width="2" stroke-miterlimit="10" width="21" height="10"/>
		<path fill="none" stroke="#323B49" stroke-width="2" stroke-miterlimit="10" d="M123,124"/>
		<polyline fill="none" stroke="#323B49" stroke-width="2" stroke-miterlimit="10" points="112.632,120.457 120.374,123.867 
			123.024,123.867 		"/>
		
			<line fill="none" stroke="#323B49" stroke-width="2" stroke-miterlimit="10" x1="174.024" y1="123.867" x2="179.024" y2="123.867"/>
		
			<line fill="none" stroke="#323B49" stroke-width="1.7353" stroke-miterlimit="10" x1="178.451" y1="124.289" x2="184.289" y2="120.834"/>
		<g>
			<g>
				<path fill="#323B49" d="M152.287,125.633c-2.068-1.387-5.56-0.982-7.688,0.07c-0.658,0.325-0.081,1.307,0.575,0.983
					c1.733-0.857,4.861-1.195,6.539-0.07C152.324,127.027,152.893,126.04,152.287,125.633L152.287,125.633z"/>
			</g>
		</g>
	</g>
	<g>
		<rect x="122.024" y="119.867" fill="#FFFFFF" stroke="#E54F7F" stroke-width="2" stroke-miterlimit="10" width="22" height="10"/>
		<rect x="151.024" y="119.867" fill="#FFFFFF" stroke="#E54F7F" stroke-width="2" stroke-miterlimit="10" width="21" height="10"/>
		<path fill="none" stroke="#E54F7F" stroke-width="2" stroke-miterlimit="10" d="M122,123"/>
		<polyline fill="none" stroke="#E54F7F" stroke-width="2" stroke-miterlimit="10" points="111.632,119.457 119.374,122.867 
			122.024,122.867 		"/>
		
			<line fill="none" stroke="#E54F7F" stroke-width="2" stroke-miterlimit="10" x1="173.024" y1="122.867" x2="178.024" y2="122.867"/>
		
			<line fill="none" stroke="#E54F7F" stroke-width="1.7353" stroke-miterlimit="10" x1="177.451" y1="123.289" x2="183.289" y2="119.834"/>
		<g>
			<g>
				<path fill="#E54F7F" d="M151.287,124.633c-2.068-1.387-5.56-0.982-7.688,0.07c-0.658,0.325-0.081,1.307,0.575,0.983
					c1.733-0.857,4.861-1.195,6.539-0.07C151.324,126.027,151.893,125.04,151.287,124.633L151.287,124.633z"/>
			</g>
		</g>
	</g>
	<g>
		<g>
			<path fill="#323B49" d="M133.506,128.489c4.65,0,4.65-7.211,0-7.211C128.856,121.277,128.856,128.489,133.506,128.489
				L133.506,128.489z"/>
		</g>
	</g>
	<g>
		<g>
			<path fill="#323B49" d="M161.39,128.489c4.65,0,4.65-7.211,0-7.211C156.739,121.277,156.739,128.489,161.39,128.489
				L161.39,128.489z"/>
		</g>
	</g>
	<path opacity="0.2" fill="#323B49" stroke="#323B49" stroke-width="0.7211" stroke-miterlimit="10" d="M113.078,142.467
		c0,0-1.671-3.562-0.458-7.265c0,0-2.876,3.66-1.998,7.312C110.622,142.515,110.323,143.268,113.078,142.467z"/>
	<g>
		<defs>
			<path id="SVGID_1_" d="M147.349,184.083c-33.251,0-60.207,18.848-60.207,42.099h120.414
				C207.556,202.931,180.6,184.083,147.349,184.083z"/>
		</defs>
		<clipPath id="SVGID_2_">
			<use xlink:href="#SVGID_1_"  overflow="visible"/>
		</clipPath>
		
			<path opacity="0.2" clip-path="url(#SVGID_2_)" fill="#323B49" stroke="#323B49" stroke-width="0.7211" stroke-miterlimit="10" d="
			M103.5,230.75c0,0-1.205-35.336,26.534-48.402c0,0-17.574-1.924-21.554-2.011C104.5,180.25,73.5,207.25,73.5,207.25L76.75,223
			L83,234.874L103.5,230.75z"/>
	</g>
	<path opacity="0.2" fill="#323B49" d="M133.414,172.247c0,0,3.09,3.586,10.463,3.503c0,0-5.819,1.75-11.14-0.917L133.414,172.247z"
		/>
</g>
</svg>
