<?xml version="1.0" encoding="utf-8"?>
<!-- Generator: Adobe Illustrator 17.0.0, SVG Export Plug-In . SVG Version: 6.00 Build 0)  -->
<!DOCTYPE svg PUBLIC "-//W3C//DTD SVG 1.1//EN" "http://www.w3.org/Graphics/SVG/1.1/DTD/svg11.dtd">
<svg version="1.1" id="Calque_1" xmlns="http://www.w3.org/2000/svg" xmlns:xlink="http://www.w3.org/1999/xlink" x="0px" y="0px"
	 width="293.976px" height="339.759px" viewBox="0 0 293.976 339.759" enable-background="new 0 0 293.976 339.759"
	 xml:space="preserve">
<polygon fill="none" points="367.247,307.639 102.186,307.639 100.186,253.422 365.247,253.422 "/>
<text transform="matrix(1 0 0 1 100.7729 269.3284)" font-family="'BloggerSans-Medium'" font-size="22">MANON</text>
<path fill="#F0CF96" stroke="#F0CF96" stroke-width="3.3674" stroke-miterlimit="10" d="M181.485,135.429
	c4.283,73.231-17.705,60.589-40.694,60.589s-46.569,25.776-42.369-59.356c1.614-32.716,17.694-55.351,40.682-55.351
	S179.573,102.73,181.485,135.429z"/>
<path fill="#E54F7F" stroke="#E54F7F" stroke-width="2.7352" stroke-miterlimit="10" d="M139.298,180.272
	c-27.483,0-49.762,20.505-49.762,45.799h99.525C189.06,200.777,166.781,180.272,139.298,180.272z"/>
<path fill="#FDDCBA" stroke="#FDDCBA" stroke-miterlimit="10" d="M150.674,183.966c0.376,17.39-24.728,16.131-24.475,0
	c0.071-4.541,0-19.761,0-19.761h24.475C150.674,164.205,150.569,179.097,150.674,183.966z"/>
<path fill="#FDDCBA" stroke="#FDDCBA" stroke-miterlimit="10" d="M173.455,106.846c-5.535-13.699-10.872-18.038-32.411-18.686
	c-21.824-0.656-25.213,2.771-32.821,15.67c-0.386,0.655-9.322,36.686,1.494,51.891c0,0,8.61,16.203,21.931,20.393
	c3.471,1.092,10.591,0.746,11.729,0.517c0.786-0.159,16.028-3.746,24.982-22.332C176.674,137.042,173.745,107.565,173.455,106.846z"
	/>
<g>
	<g>
		<path fill="#323B49" d="M142.342,142.08c0.99,1.109,0.244,2.031-0.964,2.428c-0.512,0.168-1.049,0.128-1.561,0.001
			c-0.498-0.124-0.774-0.651-1.257-0.748c-0.684-0.138-1.376,0.025-2.066-0.068c-2.458-0.331,0.059-3.431,0.666-4.263
			c0.527-0.722-0.674-1.411-1.194-0.698c-1.03,1.412-2.968,3.83-1.215,5.536c0.519,0.505,1.132,0.787,1.865,0.824
			c0.389,0.02,0.772,0.009,1.161-0.009c0.447-0.021,0.811,0.379,1.197,0.576c2.944,1.501,6.908-1.688,4.346-4.557
			C142.724,140.435,141.75,141.417,142.342,142.08L142.342,142.08z"/>
	</g>
</g>
<g>
	<g>
		<path fill="#323B49" d="M130.271,126.182c-3.568-2.215-7.855-1.06-11.085,1.24c-0.775,0.552-0.033,1.845,0.752,1.286
			c2.793-1.989,6.447-3.186,9.582-1.24C130.338,127.976,131.085,126.687,130.271,126.182L130.271,126.182z"/>
	</g>
</g>
<g>
	<g>
		<path fill="#323B49" d="M148.882,127.468c3.134-1.946,6.789-0.749,9.582,1.24c0.784,0.558,1.527-0.734,0.752-1.286
			c-3.23-2.3-7.517-3.455-11.085-1.24C147.316,126.687,148.063,127.976,148.882,127.468L148.882,127.468z"/>
	</g>
</g>
<g>
	<g>
		<path fill="#323B49" d="M125.994,133.246c4.639,0,4.639-7.193,0-7.193C121.355,126.053,121.355,133.246,125.994,133.246
			L125.994,133.246z"/>
	</g>
</g>
<g>
	<g>
		<path fill="#323B49" d="M152.829,133.386c4.639,0,4.639-7.193,0-7.193S148.19,133.386,152.829,133.386L152.829,133.386z"/>
	</g>
</g>
<g>
	<g>
		<path fill="#323B49" d="M124.364,125.617c-0.162-0.701-0.383-1.382-0.632-2.055c-0.331-0.892-1.771-0.507-1.436,0.396
			c0.25,0.674,0.47,1.355,0.632,2.055C123.144,126.949,124.58,126.552,124.364,125.617L124.364,125.617z"/>
	</g>
</g>
<g>
	<g>
		<path fill="#323B49" d="M122.312,125.993c-0.378-0.563-0.578-1.211-0.87-1.818c-0.416-0.865-1.7-0.11-1.286,0.752
			c0.292,0.608,0.491,1.255,0.87,1.818C121.559,127.537,122.85,126.792,122.312,125.993L122.312,125.993z"/>
	</g>
</g>
<g>
	<g>
		<path fill="#323B49" d="M120.648,127.277c-0.305-0.845-0.801-1.545-1.377-2.226c-0.622-0.734-1.67,0.325-1.053,1.053
			c0.401,0.474,0.782,0.98,0.994,1.569C119.536,128.569,120.975,128.183,120.648,127.277L120.648,127.277z"/>
	</g>
</g>
<g>
	<g>
		<path fill="#323B49" d="M159.824,125.46c-0.562,0.61-1.304,1.012-1.934,1.544c-0.735,0.62,0.324,1.668,1.053,1.053
			c0.633-0.533,1.369-0.93,1.934-1.544C161.527,125.809,160.476,124.753,159.824,125.46L159.824,125.46z"/>
	</g>
</g>
<g>
	<g>
		<path fill="#323B49" d="M157.829,124.102c-0.619,0.587-1.14,1.264-1.624,1.965c-0.547,0.793,0.745,1.537,1.286,0.752
			c0.413-0.599,0.862-1.162,1.391-1.663C159.581,124.493,158.526,123.441,157.829,124.102L157.829,124.102z"/>
	</g>
</g>
<g>
	<g>
		<path fill="#323B49" d="M155.258,123.226c-0.415,0.846-0.749,1.727-1.024,2.629c-0.281,0.921,1.157,1.312,1.436,0.396
			c0.237-0.779,0.515-1.541,0.874-2.273C156.965,123.118,155.681,122.363,155.258,123.226L155.258,123.226z"/>
	</g>
</g>
<g>
	<g>
		<path fill="#F0CF96" d="M131.163,120.117c-4.977-1.442-8.994-1.154-13.684,1.003c-1.463,0.673-0.192,2.827,1.262,2.159
			c4.062-1.868,7.46-1.996,11.757-0.751C132.051,122.977,132.709,120.564,131.163,120.117L131.163,120.117z"/>
	</g>
</g>
<g>
	<g>
		<path fill="#F0CF96" d="M147.217,122.527c4.297-1.245,7.696-1.117,11.757,0.751c1.454,0.669,2.725-1.486,1.262-2.159
			c-4.69-2.157-8.706-2.445-13.684-1.003C145.007,120.564,145.665,122.977,147.217,122.527L147.217,122.527z"/>
	</g>
</g>
<g>
	<g>
		<path fill="#E54F7F" d="M145.714,155.662c-3.319-3.426-11.934-3.278-15.269,0.102c-0.627,0.635,0.351,1.614,0.978,0.978
			c2.798-2.835,10.549-2.954,13.312-0.102C145.357,157.282,146.335,156.303,145.714,155.662L145.714,155.662z"/>
	</g>
</g>
<g>
	<g>
		<path fill="#E54F7F" d="M130.128,157.231c0.056,8.987,17.798,7.626,16.252-0.802c-0.161-0.877-1.494-0.504-1.334,0.368
			c1.142,6.221-13.49,7.517-13.534,0.434C131.506,156.34,130.122,156.339,130.128,157.231L130.128,157.231z"/>
	</g>
</g>
<g>
	<g>
		<path fill="#E54F7F" d="M128.258,156.976c6.976,1.97,14.926,3.085,21.243-1.076c0.579-0.381,0.038-1.316-0.545-0.932
			c-6.033,3.974-13.765,2.844-20.411,0.967C127.874,155.745,127.589,156.787,128.258,156.976L128.258,156.976z"/>
	</g>
</g>
<g>
	<g>
		<path fill="#323B49" d="M153.073,154.486c0.445,0.995,0.198,2.013-0.053,3.022c-0.163,0.656,0.848,0.935,1.011,0.279
			c0.329-1.323,0.522-2.547-0.053-3.831C153.702,153.34,152.799,153.874,153.073,154.486L153.073,154.486z"/>
	</g>
</g>
<path opacity="0.2" fill="#323B49" stroke="#323B49" stroke-width="3.339" stroke-miterlimit="10" d="M130.668,93.564
	c5.748,1.938,11.308,2.44,15.209,4.412c6.826,3.452,11.79,8.145,14.14,15.288c9.982,30.341,1.218,74.117,3.407,81.038
	c4.42-6.993,9.641-59.078,9.667-62.536c0.055-7.414,0-13.564-1.86-20.968c-2.404-9.571-5.595-17.202-13.683-22.711
	c-3.483-2.372-7.594-3.762-11.817-5.066c-2.221-0.686-13.937-1.53-18.674,0.951C127.057,83.971,127.042,92.341,130.668,93.564z"/>
<g opacity="0.2">
	<path fill="#323B49" d="M131.057,83.971c0.324,2.322,0.589,4.514,1.137,6.759c0.274,1.684,0.547,1.684-1.095,2.526
		c-1.095,0.842-1.916,1.403-3.011,2.245c-6.295,5.052-10.127,10.665-11.495,19.085c-2.463,13.752-1.264,28.216-1.264,42.249
		c0,7.297,3.876,31.981,4.698,39.278c-4.653-8.981-9.455-37.463-10.276-47.286c-0.821-9.262-1.095-19.085-0.547-28.346
		c0.274-8.42,2.737-16.839,7.39-24.137c3.284-5.332,9.071-11.211,14.302-12.98L131.057,83.971z"/>
	<g>
		<path fill="#323B49" d="M129.706,84.343c0.165,1.193,1.843,7.045,0.686,7.703c-1.975,1.123-3.849,2.889-5.539,4.389
			c-3.231,2.867-6.024,6.606-7.606,10.638c-4.47,11.394-3.739,24.854-3.515,36.861c0.173,9.294,0.422,18.308,1.582,27.53
			c1.034,8.224,2.355,16.414,3.312,24.648c0.87-0.236,1.74-0.471,2.61-0.707c-3.3-6.677-4.68-14.467-6.174-21.702
			c-1.597-7.736-2.937-15.569-3.775-23.425c-1.255-11.771-1.867-24.404-0.048-36.14c1.747-11.272,8.841-25.015,20.027-29.424
			c-0.574-0.326-1.149-0.652-1.723-0.978C129.598,83.938,129.652,84.14,129.706,84.343c0.464,1.744,3.167,1.003,2.702-0.745
			c-0.054-0.203-0.108-0.405-0.162-0.608c-0.181-0.679-1.016-1.257-1.723-0.978c-9.837,3.878-16.184,13.691-19.813,23.182
			c-4.909,12.838-3.531,28.371-2.517,41.772c0.633,8.361,2.074,16.673,3.654,24.899c1.6,8.33,3.179,17.286,6.97,24.954
			c0.596,1.205,2.772,0.681,2.61-0.707c-1.962-16.889-4.502-33.3-4.856-50.328c-0.267-12.86-1.653-28.344,4.442-40.119
			c2.458-4.75,7.076-9.087,11.695-11.713c2.71-1.541-0.01-8.246-0.301-10.354C132.162,81.815,129.463,82.577,129.706,84.343z"/>
	</g>
</g>
<g>
	<path fill="#F0CF96" d="M127.057,83.971c0.324,2.322,0.589,4.514,1.137,6.759c0.274,1.684,0.547,1.684-1.095,2.526
		c-1.095,0.842-1.916,1.403-3.011,2.245c-6.295,5.052-10.127,10.665-11.495,19.085c-2.463,13.752-1.264,28.216-1.264,42.249
		c0,7.297,3.876,31.981,4.698,39.278c-4.653-8.981-9.455-37.463-10.276-47.286c-0.821-9.262-1.095-19.085-0.547-28.346
		c0.274-8.42,2.737-16.839,7.39-24.137c3.284-5.332,9.071-11.211,14.302-12.98L127.057,83.971z"/>
	<g>
		<path fill="#F0CF96" d="M125.706,84.343c0.165,1.193,1.843,7.045,0.686,7.703c-1.975,1.123-3.849,2.889-5.539,4.389
			c-3.231,2.867-6.024,6.606-7.606,10.638c-4.47,11.394-3.739,24.854-3.515,36.861c0.173,9.294,0.422,18.308,1.582,27.53
			c1.034,8.224,2.355,16.414,3.312,24.648c0.87-0.236,1.74-0.471,2.61-0.707c-3.3-6.677-4.68-14.467-6.174-21.702
			c-1.597-7.736-2.937-15.569-3.775-23.425c-1.255-11.771-1.867-24.404-0.048-36.14c1.747-11.272,8.841-25.015,20.027-29.424
			c-0.574-0.326-1.149-0.652-1.723-0.978C125.599,83.938,125.652,84.14,125.706,84.343c0.464,1.744,3.167,1.003,2.702-0.745
			c-0.054-0.203-0.108-0.405-0.162-0.608c-0.181-0.679-1.016-1.257-1.723-0.978c-9.837,3.878-16.184,13.691-19.813,23.182
			c-4.909,12.838-3.531,28.371-2.517,41.772c0.633,8.361,2.074,16.673,3.654,24.899c1.6,8.33,3.179,17.286,6.97,24.954
			c0.596,1.205,2.772,0.681,2.61-0.707c-1.962-16.889-4.502-33.3-4.856-50.328c-0.267-12.86-1.653-28.344,4.442-40.119
			c2.458-4.75,7.076-9.087,11.695-11.713c2.71-1.541-0.01-8.246-0.301-10.354C128.162,81.815,125.463,82.577,125.706,84.343z"/>
	</g>
</g>
<path fill="#F0CF96" stroke="#F0CF96" stroke-width="3.339" stroke-miterlimit="10" d="M133.668,93.564
	c5.748,1.938,11.308,2.44,15.209,4.412c6.826,3.452,11.79,8.145,14.14,15.288c9.982,30.341,1.218,74.117,3.407,81.038
	c4.42-6.993,9.641-59.078,9.667-62.536c0.055-7.414,0-13.564-1.86-20.968c-2.404-9.571-5.595-17.202-13.683-22.711
	c-3.483-2.372-7.594-3.762-11.817-5.066c-2.221-0.686-14.979-2.733-19.716-0.252C129.015,82.768,130.042,92.341,133.668,93.564z"/>
<path opacity="0.2" fill="#323B49" d="M125.75,173.979c0,0,3.576,2.878,14.228,2.878c0,0-4.588,2.913-14.249,1.58L125.75,173.979z"
	/>
<g>
	<defs>
		<path id="SVGID_1_" d="M139.298,180.272c-27.483,0-49.762,20.505-49.762,45.799h99.525
			C189.06,200.777,166.781,180.272,139.298,180.272z"/>
	</defs>
	<clipPath id="SVGID_2_">
		<use xlink:href="#SVGID_1_"  overflow="visible"/>
	</clipPath>
	<path opacity="0.2" clip-path="url(#SVGID_2_)" fill="#323B49" stroke="#323B49" stroke-miterlimit="10" d="M100.333,231.167
		c0,0-7.667-23.333-1-38l-17.667,20l3,18l11.667,4.922L100.333,231.167z"/>
</g>
</svg>
