<?xml version="1.0" encoding="utf-8"?>
<!-- Generator: Adobe Illustrator 17.0.0, SVG Export Plug-In . SVG Version: 6.00 Build 0)  -->
<!DOCTYPE svg PUBLIC "-//W3C//DTD SVG 1.1//EN" "http://www.w3.org/Graphics/SVG/1.1/DTD/svg11.dtd">
<svg version="1.1" id="Calque_1" xmlns="http://www.w3.org/2000/svg" xmlns:xlink="http://www.w3.org/1999/xlink" x="0px" y="0px"
	 width="293.976px" height="339.759px" viewBox="0 0 293.976 339.759" enable-background="new 0 0 293.976 339.759"
	 xml:space="preserve">
<polygon fill="none" points="371.124,307.639 106.064,307.639 104.064,253.422 369.124,253.422 "/>
<text transform="matrix(1 0 0 1 104.6506 269.3284)" font-family="'BloggerSans-Medium'" font-size="22">MANON</text>
<path fill="#F2B694" stroke="#F2B694" stroke-width="3" stroke-miterlimit="10" d="M100.612,169.666
	c0,3.548,3.802,6.702,8.492,6.702h65.81c4.69,0,8.492-3.154,8.492-6.702c0,0-0.171-40.428-6.694-55.513
	c-12.577-29.085-55.639-33.611-70.775-1.904C98.115,128.634,100.612,169.666,100.612,169.666z"/>
<circle fill="#FDDCBA" stroke="#FDDCBA" stroke-miterlimit="10" cx="172.786" cy="140.96" r="6.865"/>
<g>
	<g>
		<path fill="#323B49" d="M174.85,139.487c0.621,0.477,1.01,1.222,1.037,2.005c0.017,0.488-0.386,0.766-0.742,1.011
			c-0.683,0.471-0.036,1.594,0.654,1.118c0.794-0.547,1.314-1.128,1.383-2.129c0.085-1.24-0.75-2.409-1.678-3.123
			C174.842,137.859,174.198,138.985,174.85,139.487L174.85,139.487z"/>
	</g>
</g>
<circle fill="#FDDCBA" stroke="#FDDCBA" stroke-miterlimit="10" cx="108.246" cy="140.96" r="6.865"/>
<g>
	<g>
		<path fill="#323B49" d="M105.528,138.369c-1.003,0.772-1.634,1.836-1.678,3.123c-0.033,0.974,0.649,1.623,1.383,2.129
			c0.69,0.476,1.336-0.648,0.654-1.118c-0.384-0.265-0.707-0.51-0.742-1.011c-0.052-0.751,0.462-1.563,1.037-2.005
			C106.834,138.985,106.19,137.859,105.528,138.369L105.528,138.369z"/>
	</g>
</g>
<path fill="#88C8CB" stroke="#88C8CB" stroke-width="2.88" stroke-miterlimit="10" d="M139.448,183.017
	c-30.769,0-55.712,20.306-55.712,45.354h111.423C195.159,203.322,170.216,183.017,139.448,183.017z"/>
<path fill="#FDDCBA" stroke="#FDDCBA" stroke-miterlimit="10" d="M151.433,186.675c0.368,17.221-24.22,15.974-23.972,0
	c0.07-4.497,0-19.569,0-19.569h23.972C151.433,167.107,151.329,181.853,151.433,186.675z"/>
<path fill="#FDDCBA" stroke="#FDDCBA" stroke-miterlimit="10" d="M171.904,113.236c-8.496-10.847-10.454-17.456-31.55-18.098
	c-21.376-0.65-26.196,10.035-30.305,22.683c-0.232,0.715-4.734,21.579,0.936,39.836c0,0,4.147,15.563,21.812,21.243
	c3.4,1.093,10.49,0.972,11.488,0.512c0.715-0.33,14.015-0.269,23.366-18.971C176.455,142.833,172.377,113.84,171.904,113.236z"/>
<g>
	<g>
		<path fill="#323B49" d="M133.507,134.136c-3.697-2.931-9.759-2.143-12.624,1.577c-0.577,0.749,0.698,1.478,1.267,0.74
			c2.244-2.912,7.43-3.572,10.321-1.28C133.203,135.754,134.248,134.724,133.507,134.136L133.507,134.136z"/>
	</g>
</g>
<g>
	<g>
		<path fill="#323B49" d="M149.893,135.226c2.377-1.91,8.023-2.059,9.843,0.782c0.498,0.777,1.741,0.058,1.24-0.725
			c-2.365-3.693-8.971-3.585-12.098-1.073C148.156,134.79,149.179,135.8,149.893,135.226L149.893,135.226z"/>
	</g>
</g>
<g>
	<g>
		<path fill="#323B49" d="M128.239,140.39c4.569,0,4.569-7.084,0-7.084C123.67,133.306,123.67,140.39,128.239,140.39L128.239,140.39
			z"/>
	</g>
</g>
<g>
	<g>
		<path fill="#323B49" d="M154.522,140.528c4.569,0,4.569-7.084,0-7.084S149.954,140.528,154.522,140.528L154.522,140.528z"/>
	</g>
</g>
<g>
	<g>
		<path fill="#323B49" d="M127.74,133.004c-0.093-0.773-0.239-1.531-0.429-2.285c-0.231-0.917-1.645-0.528-1.414,0.39
			c0.157,0.625,0.299,1.255,0.376,1.895c0.048,0.397,0.297,0.733,0.733,0.733C127.37,133.738,127.788,133.402,127.74,133.004
			L127.74,133.004z"/>
	</g>
</g>
<g>
	<g>
		<path fill="#323B49" d="M125.658,132.972c-0.278-0.535-0.386-1.14-0.584-1.707c-0.311-0.887-1.728-0.505-1.414,0.39
			c0.242,0.691,0.392,1.402,0.732,2.057C124.827,134.552,126.093,133.81,125.658,132.972L125.658,132.972z"/>
	</g>
</g>
<g>
	<g>
		<path fill="#323B49" d="M123.923,134.054c-0.192-0.79-0.582-1.498-1.032-2.168c-0.524-0.781-1.796-0.047-1.267,0.74
			c0.383,0.57,0.721,1.145,0.884,1.818C122.731,135.363,124.146,134.973,123.923,134.054L123.923,134.054z"/>
	</g>
</g>
<g>
	<g>
		<path fill="#323B49" d="M160.197,132.175c-0.437,0.608-1.085,1.046-1.592,1.592c-0.643,0.692,0.392,1.731,1.037,1.037
			c0.601-0.646,1.303-1.166,1.822-1.888C162.017,132.146,160.744,131.415,160.197,132.175L160.197,132.175z"/>
	</g>
</g>
<g>
	<g>
		<path fill="#323B49" d="M158.016,130.991c-0.527,0.638-0.962,1.329-1.347,2.061c-0.43,0.819,0.809,1.545,1.24,0.725
			c0.325-0.618,0.676-1.23,1.122-1.771C159.616,131.298,158.606,130.276,158.016,130.991L158.016,130.991z"/>
	</g>
</g>
<g>
	<g>
		<path fill="#323B49" d="M155.379,130.594c-0.281,0.804-0.481,1.629-0.632,2.466c-0.163,0.905,1.221,1.292,1.385,0.382
			c0.151-0.838,0.351-1.662,0.632-2.466C157.07,130.099,155.682,129.726,155.379,130.594L155.379,130.594z"/>
	</g>
</g>
<g>
	<g>
		<path fill="#323B49" d="M147.275,161.417c-2.217-1.064-3.942-2.091-6.407-1.318c-1.235,0.387-2.882-0.599-4.223-0.425
			c-1.266,0.164-2.563,0.89-3.824,1.194c-0.836,0.202-0.481,1.489,0.355,1.287c0.989-0.239,2.059-0.458,2.984-0.896
			c1.346-0.637,2.129,0.097,3.383,0.218c1.331,0.128,2.495-0.575,3.824-0.361c0.963,0.155,2.366,1.036,3.235,1.453
			C147.374,162.939,148.051,161.789,147.275,161.417L147.275,161.417z"/>
	</g>
</g>
<g>
	<g>
		<path fill="#323B49" d="M130.288,160.381c2.03,2.568,5.771,3.283,8.871,3.681c4.114,0.528,7.453-0.467,10.612-3.146
			c0.663-0.562-0.294-1.51-0.952-0.952c-2.545,2.158-5.142,3.053-8.478,2.904c-2.857-0.128-7.298-1.159-9.101-3.438
			C130.702,158.748,129.756,159.707,130.288,160.381L130.288,160.381z"/>
	</g>
</g>
<g>
	<g>
		<path fill="#323B49" d="M132.13,127.94c-3.263-1.594-8.962-1.285-11.884,0.983c-0.636,0.494,0.255,1.371,0.884,0.884
			c2.401-1.863,7.714-2.085,10.37-0.787C132.221,129.371,132.855,128.294,132.13,127.94L132.13,127.94z"/>
	</g>
</g>
<g>
	<g>
		<path fill="#323B49" d="M151.367,129.019c2.656-1.298,7.969-1.075,10.37,0.787c0.629,0.488,1.52-0.39,0.884-0.884
			c-2.923-2.267-8.621-2.577-11.884-0.983C150.011,128.294,150.645,129.371,151.367,129.019L151.367,129.019z"/>
	</g>
</g>
<g>
	<g>
		<path fill="#323B49" d="M135.552,149.305c-0.495,1.098-0.493,2.077,0.673,2.684c0.647,0.337,1.564,0.344,2.269,0.351
			c0.548,0.005,0.777,0.43,1.179,0.666c0.366,0.214,0.797,0.227,1.205,0.234c0.525,0.008,1.007-0.371,1.392-0.674
			c0.655-0.516,1.395-0.532,2.139-0.839c1.179-0.486,1.288-1.527,0.765-2.56c-0.397-0.784-1.573-0.094-1.176,0.688
			c0.398,0.786-1.033,0.877-1.393,0.938c-0.52,0.087-1.039,0.613-1.443,0.917c-0.704,0.53-1.35-0.479-1.933-0.64
			c-0.477-0.131-3.059,0.163-2.5-1.076C137.087,149.199,135.913,148.506,135.552,149.305L135.552,149.305z"/>
	</g>
</g>
<g>
	<g>
		<path fill="#F2B694" d="M124.096,152.351c0.806,0,0.806-1.25,0-1.25C123.289,151.101,123.289,152.351,124.096,152.351
			L124.096,152.351z"/>
	</g>
</g>
<g>
	<g>
		<path fill="#F2B694" d="M128.11,148.89c0.046,0,0.092,0,0.138,0c0.806,0,0.806-1.25,0-1.25c-0.046,0-0.092,0-0.138,0
			C127.304,147.64,127.304,148.89,128.11,148.89L128.11,148.89z"/>
	</g>
</g>
<g>
	<g>
		<path fill="#F2B694" d="M122.296,147.228c0.806,0,0.806-1.25,0-1.25S121.49,147.228,122.296,147.228L122.296,147.228z"/>
	</g>
</g>
<g>
	<g>
		<path fill="#F2B694" d="M124.511,149.444c0.806,0,0.806-1.25,0-1.25S123.705,149.444,124.511,149.444L124.511,149.444z"/>
	</g>
</g>
<g>
	<g>
		<path fill="#F2B694" d="M126.172,146.675c0.806,0,0.806-1.25,0-1.25C125.366,145.425,125.366,146.675,126.172,146.675
			L126.172,146.675z"/>
	</g>
</g>
<g>
	<g>
		<path fill="#F2B694" d="M118.696,152.074c0.806,0,0.806-1.25,0-1.25S117.89,152.074,118.696,152.074L118.696,152.074z"/>
	</g>
</g>
<g>
	<g>
		<path fill="#F2B694" d="M121.188,150.413c0.806,0,0.806-1.25,0-1.25S120.382,150.413,121.188,150.413L121.188,150.413z"/>
	</g>
</g>
<g>
	<g>
		<path fill="#F2B694" d="M152.339,149.444c0.806,0,0.806-1.25,0-1.25S151.532,149.444,152.339,149.444L152.339,149.444z"/>
	</g>
</g>
<g>
	<g>
		<path fill="#F2B694" d="M155.107,147.782c0.806,0,0.806-1.25,0-1.25C154.301,146.532,154.301,147.782,155.107,147.782
			L155.107,147.782z"/>
	</g>
</g>
<g>
	<g>
		<path fill="#F2B694" d="M153.134,152.283c0.038,0,0.076,0,0.113,0c0.806,0,0.806-1.25,0-1.25c-0.038,0-0.076,0-0.113,0
			C152.328,151.033,152.328,152.283,153.134,152.283L153.134,152.283z"/>
	</g>
</g>
<g>
	<g>
		<path fill="#F2B694" d="M155.628,150.81c0.038,0,0.076,0,0.113,0c0.806,0,0.806-1.25,0-1.25c-0.038,0-0.076,0-0.113,0
			C154.821,149.56,154.821,150.81,155.628,150.81L155.628,150.81z"/>
	</g>
</g>
<g>
	<g>
		<path fill="#F2B694" d="M157.101,153.643c0.806,0,0.806-1.25,0-1.25C156.295,152.393,156.295,153.643,157.101,153.643
			L157.101,153.643z"/>
	</g>
</g>
<g>
	<g>
		<path fill="#F2B694" d="M159.254,150.244c0.038,0,0.076,0,0.113,0c0.806,0,0.806-1.25,0-1.25c-0.038,0-0.076,0-0.113,0
			C158.448,148.994,158.448,150.244,159.254,150.244L159.254,150.244z"/>
	</g>
</g>
<g>
	<g>
		<path fill="#F2B694" d="M161.294,153.19c0.806,0,0.806-1.25,0-1.25C160.488,151.94,160.488,153.19,161.294,153.19L161.294,153.19z
			"/>
	</g>
</g>
<g>
	<g>
		<path fill="#323B49" d="M137.435,166.414c1.503,0.647,3,0.119,4.535-0.123c0.856-0.135,0.491-1.432-0.358-1.298
			c-1.081,0.171-2.431,0.718-3.498,0.259C137.326,164.913,136.64,166.072,137.435,166.414L137.435,166.414z"/>
	</g>
</g>
<path opacity="0.2" fill="#323B49" stroke="#323B49" stroke-width="2" stroke-miterlimit="10" d="M134.988,96.811
	c-1.926,8.805,11.565,15.556,18.444,19.133c4.953,2.751,10.456,5.228,15.958,7.429c3.852,1.926,7.333,12.044,11.185,13.97
	c0.55-5.778-2.656-20.023-5.132-25.251c-2.476-4.402-6.053-9.08-9.905-12.382c-3.852-3.577-9.032-5.747-14.032-6.603
	C134.058,90.118,134.988,96.811,134.988,96.811z"/>
<path opacity="0.2" fill="#323B49" stroke="#323B49" stroke-width="2" stroke-miterlimit="10" d="M133.244,98.997
	c0.944,3.261-5.265,5.728-7.549,8.24c-3.426,4.111-6.623,8.45-9.364,13.246c-2.284,4.111-4.568,8.678-5.709,13.246
	c-0.457,2.284-0.457,5.253-1.37,7.537c-0.685-1.37-0.685-2.969-0.914-4.339c0-2.969-0.228-5.938,0-8.907
	c0.685-5.481,2.544-11.172,5.253-15.987C124.691,92.304,131.604,93.334,133.244,98.997z"/>
<path fill="#F2B694" stroke="#F2B694" stroke-width="2" stroke-miterlimit="10" d="M131.244,96.997
	c0.944,3.261-5.265,5.728-7.549,8.24c-3.426,4.111-6.623,8.45-9.364,13.246c-2.284,4.111-4.568,8.678-5.709,13.246
	c-0.457,2.284-0.457,5.253-1.37,7.537c-0.685-1.37-0.685-2.969-0.914-4.339c0-2.969-0.228-5.938,0-8.907
	c0.685-5.481,2.544-11.172,5.253-15.987C122.691,90.304,129.604,91.334,131.244,96.997z"/>
<path fill="#F2B694" stroke="#F2B694" stroke-width="2" stroke-miterlimit="10" d="M131.988,96.811
	c-1.926,8.805,11.565,15.556,18.444,19.133c4.953,2.751,10.456,5.228,15.958,7.429c3.852,1.926,7.333,12.044,11.185,13.97
	c0.55-5.778-2.656-20.023-5.132-25.251c-2.476-4.402-6.053-9.08-9.905-12.382c-3.852-3.577-9.032-5.747-14.032-6.603
	C131.058,90.118,131.988,96.811,131.988,96.811z"/>
<path opacity="0.2" fill="#323B49" d="M108.246,148.265c0,0-0.256-2.652-0.111-4.515c0,0-1.449,2.491-1.074,4.292
	C107.061,148.042,107.118,148.464,108.246,148.265z"/>
<path opacity="0.2" fill="#323B49" d="M127.024,177.167c0,0,7.518,3.242,13.358,2.58c0,0-8.358,1.342-13.358,0.089V177.167z"/>
<g>
	<defs>
		<path id="SVGID_1_" d="M139.448,183.017c-30.769,0-55.712,20.306-55.712,45.354h111.423
			C195.159,203.322,170.216,183.017,139.448,183.017z"/>
	</defs>
	<clipPath id="SVGID_2_">
		<use xlink:href="#SVGID_1_"  overflow="visible"/>
	</clipPath>
	<path opacity="0.2" clip-path="url(#SVGID_2_)" fill="#323B49" d="M100.233,233.5c0.017-0.5,2.642-40.625,19.767-51.875L76.875,200
		l-3.625,25.375c0,0,4.375,11.127,6.375,11.564S100.233,233.5,100.233,233.5z"/>
</g>
</svg>
