<?xml version="1.0" encoding="utf-8"?>
<!-- Generator: Adobe Illustrator 17.0.0, SVG Export Plug-In . SVG Version: 6.00 Build 0)  -->
<!DOCTYPE svg PUBLIC "-//W3C//DTD SVG 1.1//EN" "http://www.w3.org/Graphics/SVG/1.1/DTD/svg11.dtd">
<svg version="1.1" id="Calque_1" xmlns="http://www.w3.org/2000/svg" xmlns:xlink="http://www.w3.org/1999/xlink" x="0px" y="0px"
	 width="293.976px" height="339.759px" viewBox="0 0 293.976 339.759" enable-background="new 0 0 293.976 339.759"
	 xml:space="preserve">
<polygon fill="none" points="374.124,307.639 109.064,307.639 107.064,253.422 372.124,253.422 "/>
<text transform="matrix(1 0 0 1 107.6506 269.3284)" font-family="'BloggerSans-Medium'" font-size="22">Marie</text>
<g>
	<path fill="#F0CF96" d="M137.388,85.21c-10.066,0-23.806,2.844-30.58,13.38c-3.717,5.783-5.77,11.79-7.822,16.819
		c-1.471,3.604-1.491,7.084-1.491,10.812c0,5.22-1.118,8.948-2.983,13.795c-1.864,5.22,0.41,12.403,1.529,17.623
		s-1.447,7.443-2.939,12.289c-1.118,2.61,2.817,9.819,2.057,12.051c-1.797,5.277,2.335,17.316,5.691,18.062
		c2.237,0.373,4.474,0.373,6.711,1.118c2.237,0.746,4.101,2.983,6.711,4.101c2.983,1.118,6.711,1.491,9.694,1.118
		c3.355-0.373,5.965-2.61,9.321-2.61c5.965-0.373,10.439,4.101,16.777,1.864c2.237-0.746,4.474-1.491,6.711-1.118
		c2.61,0,4.847,0.746,7.084,1.118c5.592,0,7.457-4.474,11.93-5.965c2.983-1.118,6.711-1.118,6.711-5.22
		c0-0.894,6.401-7.699,1.765-18.689c-0.739-1.752,3.382-13.055,0.618-17.25c-1.196-1.815-0.589-9.412-0.217-12.022
		c0-2.237-1.463-10.606-1.048-13.182c0.796-4.943-0.093-9.922-1.877-14.112c-0.745-1.749-2.846-8.916-3.754-10.994
		c-2.444-5.595-5.927-11.804-11.147-15.532c-8.202-5.965-16.032-7.829-26.098-7.829c-1.118,0-3.355-0.373-4.474,0.373"/>
	<g>
		<path fill="#F0CF96" d="M137.388,76.791c-12.042,0.132-23.875,3.301-32.95,11.511c-5.075,4.591-8.048,11.326-10.614,17.517
			c-2.838,6.849-4.721,12.908-4.747,20.401c-0.022,6.285-3.29,11.756-3.687,18.016c-0.207,3.259,0.587,6.737,1.227,9.911
			c0.491,2.433,1.884,5.081,0.891,7.351c-2.556,5.842-3.639,10.031-1.799,16.279c0.319,1.085,0.67,2.159,0.986,3.245
			c0.91,3.125,0.884-3.274,0.122-0.441c-0.843,3.135-0.518,6.576,0.029,9.724c0.873,5.029,2.725,10.065,6,14.031
			c1.581,1.914,3.482,2.95,5.768,3.823c1.484,0.567,3.454,0.435,5.033,0.682c1.55,0.242,2.718,1.379,3.975,2.295
			c5.586,4.068,13.457,4.323,19.98,3.1c2.54-0.476,4.505-2.048,7.148-2.046c2.973,0.002,6.439,1.914,9.474,2.291
			c3.375,0.419,6.544-0.233,9.757-1.271c2.547-0.823,5.087,0.049,7.641,0.542c3.462,0.668,7.254-0.019,10.359-1.696
			c2.107-1.138,3.892-3.387,6.047-4.27c5.819-2.383,9.961-3.409,12.459-9.877c0.1-0.746,0.2-1.492,0.301-2.238
			c-1.049,2.638-1.264,3.382-0.644,2.231c0.294-0.52,0.597-1.034,0.884-1.559c1.241-2.267,2.175-4.759,2.738-7.277
			c0.831-3.718,0.534-7.165,0.019-10.888c-0.223-1.612-0.826-3.148-1.4-4.657c0.619,1.629-0.113,3.172,0.384,0.484
			c1.019-5.513,2.464-11.517,0.615-17.015c0.335,0.994-1.504-4.7-0.838-2.059c0.031,0.123,0.078-2.645,0.101-3.364
			c0.07-2.176,0.53-4.335,0.349-6.505c-0.226-2.7-0.65-5.383-0.903-8.082c-0.346-3.695,0.383-7.298-0.024-11.014
			c-0.662-6.056-3.171-11.897-5.096-17.657c-2.302-6.889-5.989-13.252-10.832-18.656c-4.938-5.511-12.458-9.12-19.409-11.256
			c-6.234-1.916-16.386-3.626-22.698-1.305c-10.101,3.715-5.737,19.992,4.476,16.236c4.312-1.586,13.028,0.64,17.28,2.538
			c6.67,2.977,10.514,7.568,13.727,13.967c1.953,3.89,3.051,8.879,4.735,13.205c2.246,5.767,0.798,12.688,1.539,18.825
			c0.585,4.841-0.278,9.518,0.085,14.369c0.096,1.288,0.309,2.68,0.629,3.947c0.065,0.256,1.116,3.895,0.902,1.769
			c0.222,2.205-0.276,4.432-0.682,6.581c-0.424,2.243-0.988,4.591-0.954,6.877c0.048,3.172,1.783,5.853,1.741,9.068
			c-0.028,2.136-0.684,2.756-1.351,3.974c-0.289,0.528-0.619,1.031-0.882,1.574c-0.408,0.693-0.707,1.422-0.894,2.189
			c-0.3,2.681-0.376,2.986-0.228,0.916c1.007-1.007,2.013-2.013,3.02-3.02c-2.014,1.548-6.144,2.196-8.841,4.027
			c-1.272,0.864-2.534,2.416-3.994,2.983c0.857,0.273,0.54,0.221-0.951-0.156c-1.629-0.353-3.433-0.696-5.089-0.784
			c-2.461-0.13-4.671,0.029-7.118,0.36c-2.226,0.301-3.808,1.603-6.074,1.116c-5.199-1.118-10.005-3.215-15.456-1.876
			c-4.26,1.047-7.08,2.896-11.595,1.863c-1.858-0.425-3.557-2.27-5.154-3.265c-2.567-1.599-5.765-1.997-8.697-2.333
			c-1.89-0.338-1.537-0.001,1.058,1.009c1.046,0.997-0.627-1.345-0.665-1.418c-0.706-1.385-0.987-3.135-1.316-4.64
			c-0.602-2.754,0.548-5.818-0.109-9.475c-0.257-1.428-0.801-2.835-1.23-4.217c-0.224-0.719-0.426-1.444-0.604-2.175
			c0.173,0.664-0.733,2.806,0.411-0.487c1.946-5.598,3.315-9.133,2.408-15.239c-0.567-3.82-2.551-7.861-1.912-11.803
			c0.402-2.478,1.712-4.943,2.394-7.372c0.754-2.687,1.022-5.543,1.232-8.316c0.371-4.917,0.516-8.429,2.361-13.095
			c1.848-4.674,3.776-9.805,7.134-13.619c5.319-6.041,14.402-7.483,22.02-7.567C148.239,93.509,148.25,76.672,137.388,76.791
			L137.388,76.791z"/>
	</g>
</g>
<path fill="#D6E39E" stroke="#D6E39E" stroke-width="2.9243" stroke-miterlimit="10" d="M139.911,180.272
	c-31.414,0-56.88,20.505-56.88,45.799h113.76C196.791,200.777,171.324,180.272,139.911,180.272z"/>
<path fill="#FDDCBA" stroke="#FDDCBA" stroke-miterlimit="10" d="M151.674,183.966c0.376,17.39-24.728,16.131-24.475,0
	c0.071-4.541,0-19.761,0-19.761h24.475C151.674,164.205,151.569,179.097,151.674,183.966z"/>
<path fill="#FDDCBA" stroke="#FDDCBA" stroke-miterlimit="10" d="M172.575,109.806c-8.345-10.174-10.587-17.334-32.125-17.982
	c-21.824-0.656-22.699,3.265-30.307,16.164c-0.386,0.655-10.241,32.529,0.575,47.734c0,0,7.046,15.387,21.931,20.393
	c3.449,1.16,10.71,0.982,11.729,0.517c0.73-0.333,16.106-3.252,24.982-22.332C177.44,136.931,173.067,110.405,172.575,109.806z"/>
<g>
	<g>
		<path fill="#323B49" d="M133.37,130.908c-3.653-2.865-9.876-2.268-12.766,1.443c-0.583,0.748,0.464,1.81,1.053,1.053
			c2.342-3.007,7.593-3.848,10.66-1.443C133.064,132.547,134.126,131.501,133.37,130.908L133.37,130.908z"/>
	</g>
</g>
<g>
	<g>
		<path fill="#323B49" d="M150.1,132.014c2.423-1.925,8.192-2.088,10.055,0.789c0.509,0.786,1.772,0.056,1.259-0.736
			c-2.424-3.743-9.154-3.62-12.346-1.084C148.333,131.568,149.372,132.593,150.1,132.014L150.1,132.014z"/>
	</g>
</g>
<g>
	<g>
		<path fill="#323B49" d="M127.994,137.246c4.639,0,4.639-7.193,0-7.193C123.355,130.053,123.355,137.246,127.994,137.246
			L127.994,137.246z"/>
	</g>
</g>
<g>
	<g>
		<path fill="#323B49" d="M154.829,137.386c4.639,0,4.639-7.193,0-7.193S150.19,137.386,154.829,137.386L154.829,137.386z"/>
	</g>
</g>
<g>
	<g>
		<path fill="#323B49" d="M127.481,129.768c-0.095-0.781-0.244-1.547-0.438-2.309c-0.237-0.93-1.673-0.535-1.436,0.396
			c0.16,0.63,0.306,1.267,0.384,1.913c0.049,0.403,0.302,0.745,0.745,0.745C127.105,130.513,127.53,130.172,127.481,129.768
			L127.481,129.768z"/>
	</g>
</g>
<g>
	<g>
		<path fill="#323B49" d="M125.355,129.733c-0.285-0.539-0.393-1.151-0.597-1.722c-0.32-0.898-1.759-0.511-1.436,0.396
			c0.248,0.698,0.399,1.418,0.747,2.078C124.518,131.335,125.803,130.582,125.355,129.733L125.355,129.733z"/>
	</g>
</g>
<g>
	<g>
		<path fill="#323B49" d="M123.583,130.827c-0.196-0.799-0.594-1.514-1.053-2.19c-0.536-0.79-1.827-0.045-1.286,0.752
			c0.39,0.575,0.736,1.155,0.903,1.834C122.376,132.156,123.812,131.76,123.583,130.827L123.583,130.827z"/>
	</g>
</g>
<g>
	<g>
		<path fill="#323B49" d="M160.626,128.929c-0.447,0.615-1.109,1.055-1.627,1.606c-0.657,0.699,0.394,1.754,1.053,1.053
			c0.614-0.653,1.329-1.177,1.859-1.908C162.478,128.902,161.185,128.16,160.626,128.929L160.626,128.929z"/>
	</g>
</g>
<g>
	<g>
		<path fill="#323B49" d="M158.399,127.732c-0.537,0.644-0.982,1.343-1.374,2.082c-0.441,0.83,0.818,1.567,1.259,0.736
			c0.332-0.625,0.691-1.242,1.146-1.787C160.028,128.047,159.002,127.01,158.399,127.732L158.399,127.732z"/>
	</g>
</g>
<g>
	<g>
		<path fill="#323B49" d="M155.708,127.333c-0.287,0.812-0.491,1.644-0.645,2.491c-0.167,0.919,1.238,1.312,1.406,0.388
			c0.154-0.846,0.359-1.679,0.645-2.491C157.427,126.832,156.018,126.453,155.708,127.333L155.708,127.333z"/>
	</g>
</g>
<g>
	<g>
		<path fill="#323B49" d="M134.459,124.247c-4.524-3.346-9.772-2.369-13.977,0.877c-1.252,0.966-0.014,3.131,1.257,2.15
			c3.553-2.743,7.601-3.734,11.464-0.877C134.495,127.353,135.735,125.19,134.459,124.247L134.459,124.247z"/>
	</g>
</g>
<g>
	<g>
		<path fill="#323B49" d="M148.513,126.397c3.704-2.699,7.892-2.389,11.212,0.683c1.176,1.089,2.942-0.668,1.761-1.761
			c-4.081-3.777-9.592-4.451-14.229-1.072C145.972,125.182,147.213,127.344,148.513,126.397L148.513,126.397z"/>
	</g>
</g>
<path opacity="0.2" fill="#323B49" stroke="#323B49" stroke-width="3.3674" stroke-miterlimit="10" d="M143.004,85.759
	c-3.825-0.393-1.588,11.723,3.415,12.929c6.664,1.607,14.101,12.27,22.79,20.406c9.525,8.919,0.231,23.924,2.827,36.263
	c3.739,17.776-6.971,41.694-6.218,60.365c9.554-8.842,5.873-22.69,9.854-30.138c5.792-10.838,7.988-31.832,6.791-44.401
	C180.806,123.789,184.067,89.978,143.004,85.759z"/>
<path opacity="0.2" fill="#323B49" d="M140.849,85.759c3.825-0.393,1.588,11.723-3.415,12.929
	c-6.664,1.607-14.101,12.27-22.79,20.406c-9.525,8.919-0.231,23.924-2.827,36.263c-3.739,17.776,6.971,41.694,6.218,60.365
	c-9.554-8.842-5.873-22.69-9.854-30.138c-5.792-10.838-7.988-31.832-6.791-44.401C103.047,123.789,99.785,89.978,140.849,85.759z"/>
<g>
	<g>
		<path fill="#323B49" d="M138.02,143.149c-0.813,1.553-0.135,3.17,1.478,3.815c1.737,0.694,3.593,0.059,4.605-1.487
			c0.49-0.749-0.708-1.441-1.194-0.698c-0.614,0.939-1.636,1.264-2.702,0.976c-0.908-0.245-1.452-1.031-0.992-1.908
			C139.627,143.058,138.434,142.358,138.02,143.149L138.02,143.149z"/>
	</g>
</g>
<g>
	<g>
		<path fill="#323B49" d="M147.821,157.756c-1.133-0.594-2.207-1.184-3.395-1.674c-1.882-0.776-3.354,0.509-5.215-0.075
			c-2.731-0.858-4.569,0.523-7.195,1.261c-0.84,0.236-0.483,1.543,0.36,1.307c2.576-0.724,4.291-1.947,6.979-1.102
			c0.897,0.282,1.888-0.066,2.732-0.328c1.569-0.487,3.73,1.091,5.051,1.783C147.91,159.331,148.595,158.161,147.821,157.756
			L147.821,157.756z"/>
	</g>
</g>
<g>
	<g>
		<path fill="#323B49" d="M130.089,157.396c2.081,2.603,5.898,3.317,9.054,3.718c4.19,0.532,7.6-0.467,10.832-3.178
			c0.676-0.567-0.296-1.529-0.967-0.967c-2.604,2.184-5.262,3.082-8.659,2.931c-2.908-0.129-7.447-1.16-9.294-3.471
			C130.505,155.741,129.544,156.715,130.089,157.396L130.089,157.396z"/>
	</g>
</g>
<g>
	<g>
		<path fill="#323B49" d="M136.313,162.873c2.323,1.347,5.307,1.576,7.651,0.16c0.689-0.416,0.061-1.498-0.631-1.079
			c-1.968,1.189-4.444,0.969-6.389-0.16C136.245,161.389,135.616,162.469,136.313,162.873L136.313,162.873z"/>
	</g>
</g>
<path fill="#F0CF96" stroke="#F0CF96" stroke-width="3.3674" stroke-miterlimit="10" d="M136.849,84.759
	c3.825-0.393,1.588,11.723-3.415,12.929c-6.664,1.607-14.101,12.27-22.79,20.406c-9.525,8.919-0.231,23.924-2.827,36.263
	c-3.739,17.776,6.971,41.694,6.218,60.365c-9.554-8.842-5.873-22.69-9.854-30.138c-5.792-10.838-7.988-31.832-6.791-44.401
	C99.047,122.789,95.785,88.978,136.849,84.759z"/>
<path fill="#F0CF96" stroke="#F0CF96" stroke-width="3.3674" stroke-miterlimit="10" d="M141.004,84.759
	c-3.825-0.393-1.588,11.723,3.415,12.929c6.664,1.607,14.101,12.27,22.79,20.406c9.525,8.919,0.231,23.924,2.827,36.263
	c3.739,17.776-6.971,41.694-6.218,60.365c9.554-8.842,5.873-22.69,9.854-30.138c5.792-10.838,7.988-31.832,6.791-44.401
	C178.806,122.789,182.067,88.978,141.004,84.759z"/>
<g>
	<defs>
		<path id="SVGID_1_" d="M139.911,180.272c-31.414,0-56.88,20.505-56.88,45.799h113.76
			C196.791,200.777,171.324,180.272,139.911,180.272z"/>
	</defs>
	<clipPath id="SVGID_2_">
		<use xlink:href="#SVGID_1_"  overflow="visible"/>
	</clipPath>
	<path opacity="0.2" clip-path="url(#SVGID_2_)" fill="#323B49" stroke="#323B49" stroke-width="2.9243" stroke-miterlimit="10" d="
		M99.25,228.37c0,0-13.25-27.37,3.75-42.12c0,0-31.5,6.831-32,10.291c-0.5,3.459-2.25,42.694-2.25,42.694s6-1.83,9.75-4.532
		S99.25,228.37,99.25,228.37z"/>
</g>
<g>
	<defs>
		<path id="SVGID_3_" d="M151.674,183.966c0.376,17.39-24.728,16.131-24.475,0c0.071-4.541,0-19.761,0-19.761h24.475
			C151.674,164.205,151.569,179.097,151.674,183.966z"/>
	</defs>
	<clipPath id="SVGID_4_">
		<use xlink:href="#SVGID_3_"  overflow="visible"/>
	</clipPath>
	<path opacity="0.2" clip-path="url(#SVGID_4_)" fill="#323B49" d="M126.024,173.5c0,0,7.193,4.072,14.383,2.481
		c0,0-3.383,2.894-14.383,0.369V173.5z"/>
</g>
</svg>
