<?xml version="1.0" encoding="utf-8"?>
<!-- Generator: Adobe Illustrator 17.0.0, SVG Export Plug-In . SVG Version: 6.00 Build 0)  -->
<!DOCTYPE svg PUBLIC "-//W3C//DTD SVG 1.1//EN" "http://www.w3.org/Graphics/SVG/1.1/DTD/svg11.dtd">
<svg version="1.1" id="Calque_1" xmlns="http://www.w3.org/2000/svg" xmlns:xlink="http://www.w3.org/1999/xlink" x="0px" y="0px"
	 width="293.976px" height="339.759px" viewBox="0 0 293.976 339.759" enable-background="new 0 0 293.976 339.759"
	 xml:space="preserve">
<polygon fill="none" points="370.124,307.639 105.064,307.639 103.064,253.422 368.124,253.422 "/>
<text transform="matrix(1 0 0 1 103.6506 269.3284)" font-family="'BloggerSans-Medium'" font-size="22">ORLANE</text>
<path fill="#323B49" stroke="#323B49" stroke-width="3.2711" stroke-miterlimit="10" d="M184.711,128.015
	c8.482,58.849-2.295,53.942-42.976,52.089c-42.645-1.942-57.834,16.763-46.33-51.22c4.736-27.984,18.865-46.447,44.003-46.447
	S180.675,100.01,184.711,128.015z"/>
<path fill="#F2B694" stroke="#F2B694" stroke-width="2.9153" stroke-miterlimit="10" d="M139.59,183.109
	c-32.483,0-58.816,19.708-58.816,44.019h117.632C198.406,202.817,172.073,183.109,139.59,183.109z"/>
<path fill="#FDDCBA" stroke="#FDDCBA" stroke-miterlimit="10" d="M151.913,184.21c0.382,17.692-25.157,16.411-24.899,0
	c0.073-4.62,0-20.104,0-20.104h24.899C151.913,164.106,151.806,179.256,151.913,184.21z"/>
<path fill="#FDDCBA" stroke="#FDDCBA" stroke-miterlimit="10" d="M172.001,109.834c-6.419-11.747-9.595-18.706-31.507-19.365
	c-22.203-0.668-23.093,3.321-30.833,16.444c-0.393,0.666-4.498,34.408,3.657,51.032c0,0,4.809,11.989,17.722,18.318
	c7.375,3.614,11.145,2.974,16.13,0.928c0.792-0.325,7.995-1.66,19.45-20.398C176.786,140.167,172.348,110.47,172.001,109.834z"/>
<g>
	<g>
		<path fill="#323B49" d="M131.156,127.458c-3.63-2.254-7.991-1.079-11.278,1.262c-0.789,0.562-0.033,1.877,0.765,1.308
			c2.841-2.023,6.559-3.241,9.748-1.262C131.224,129.283,131.984,127.972,131.156,127.458L131.156,127.458z"/>
	</g>
</g>
<g>
	<g>
		<path fill="#323B49" d="M150.09,128.766c3.189-1.98,6.907-0.762,9.748,1.262c0.798,0.568,1.553-0.747,0.765-1.308
			c-3.286-2.34-7.647-3.515-11.278-1.262C148.497,127.972,149.257,129.283,150.09,128.766L150.09,128.766z"/>
	</g>
</g>
<g>
	<g>
		<path fill="#323B49" d="M126.805,134.645c4.719,0,4.719-7.318,0-7.318S122.085,134.645,126.805,134.645L126.805,134.645z"/>
	</g>
</g>
<g>
	<g>
		<path fill="#323B49" d="M154.105,134.786c4.719,0,4.719-7.318,0-7.318S149.386,134.786,154.105,134.786L154.105,134.786z"/>
	</g>
</g>
<g>
	<g>
		<path fill="#323B49" d="M125.146,126.883c-0.165-0.713-0.389-1.406-0.643-2.091c-0.337-0.908-1.802-0.515-1.461,0.403
			c0.254,0.685,0.479,1.378,0.643,2.091C123.905,128.238,125.366,127.834,125.146,126.883L125.146,126.883z"/>
	</g>
</g>
<g>
	<g>
		<path fill="#323B49" d="M123.059,127.265c-0.385-0.573-0.588-1.232-0.885-1.85c-0.423-0.88-1.73-0.111-1.308,0.765
			c0.297,0.618,0.499,1.277,0.885,1.85C122.293,128.836,123.606,128.079,123.059,127.265L123.059,127.265z"/>
	</g>
</g>
<g>
	<g>
		<path fill="#323B49" d="M121.366,128.572c-0.309-0.859-0.815-1.573-1.401-2.265c-0.633-0.746-1.699,0.331-1.071,1.071
			c0.408,0.481,0.796,0.997,1.012,1.596C120.233,129.887,121.697,129.494,121.366,128.572L121.366,128.572z"/>
	</g>
</g>
<g>
	<g>
		<path fill="#323B49" d="M161.222,126.724c-0.57,0.621-1.327,1.029-1.968,1.571c-0.747,0.631,0.33,1.698,1.071,1.071
			c0.643-0.543,1.394-0.945,1.968-1.571C162.953,127.077,161.884,126.003,161.222,126.724L161.222,126.724z"/>
	</g>
</g>
<g>
	<g>
		<path fill="#323B49" d="M159.193,125.342c-0.63,0.596-1.16,1.286-1.652,1.999c-0.556,0.807,0.758,1.564,1.308,0.765
			c0.42-0.609,0.876-1.182,1.415-1.692C160.975,125.74,159.901,124.67,159.193,125.342L159.193,125.342z"/>
	</g>
</g>
<g>
	<g>
		<path fill="#323B49" d="M156.576,124.45c-0.422,0.861-0.762,1.757-1.042,2.674c-0.286,0.937,1.177,1.335,1.461,0.403
			c0.242-0.793,0.524-1.568,0.889-2.312C158.313,124.341,157.007,123.573,156.576,124.45L156.576,124.45z"/>
	</g>
</g>
<g>
	<g>
		<path fill="#323B49" d="M132.062,121.292c-5.062-1.467-9.147-1.174-13.917,1.02c-1.483,0.682-0.195,2.865,1.279,2.187
			c4.133-1.901,7.592-2.032,11.965-0.765C132.962,124.191,133.628,121.746,132.062,121.292L132.062,121.292z"/>
	</g>
</g>
<g>
	<g>
		<path fill="#323B49" d="M148.394,123.735c4.373-1.267,7.832-1.136,11.965,0.765c1.473,0.678,2.761-1.505,1.279-2.187
			c-4.77-2.194-8.855-2.487-13.917-1.02C146.155,121.746,146.822,124.191,148.394,123.735L148.394,123.735z"/>
	</g>
</g>
<g>
	<g>
		<path fill="#323B49" d="M150.579,156.356c-2.005,4.026-5.543,7.63-10.278,7.905c-3.662,0.212-7.573-3.221-9.745-5.817
			c-0.537-0.641-1.448,0.28-0.916,0.916c2.844,3.399,7.077,6.404,11.683,6.137c4.631-0.268,8.479-4.681,10.375-8.487
			C152.069,156.264,150.951,155.608,150.579,156.356L150.579,156.356z"/>
	</g>
</g>
<g>
	<g>
		<path fill="#323B49" d="M149.888,157.501c-1.908-0.29-3.07-1.91-4.979-2.159c-1.225-0.16-2.001-0.076-3.141,0.317
			c-0.534,0.184-1.537,1.403-2.305,0.733c-3.339-2.908-7.112-0.786-10.004,1.504c-0.616,0.488,0.253,1.344,0.862,0.862
			c3.211-2.543,5.898-3.579,9.378-0.548c0.245,0.213,0.622,0.254,0.862,0c3.621-3.836,5.581-0.053,9.004,0.467
			C150.332,158.793,150.663,157.619,149.888,157.501L149.888,157.501z"/>
	</g>
</g>
<path fill="#444A52" stroke="#444A52" stroke-width="2.1191" stroke-miterlimit="10" d="M138.765,94.415
	c0,10.302,11.432,15.057,18.044,19.526c7.373,4.983,12.846,16.593,14.143,27.277c0.649,6.105,0,12.592-0.649,18.697
	c-0.324,3.053-0.973,6.105-1.297,9.158c-0.324,2.289,0.814,6.455,1.614,8.281c2.542,5.799,2.15,1.281,2.277-1.413
	c0.134-2.843,0.345-5.584,1.642-8.637c4.865-14.499,5.883-33.761,0.694-47.116c-4.865-12.973-9.847-24.49-23.308-28.783
	c-1.825-0.582-11.285-3.317-13.231-1.791L138.765,94.415z"/>
<path fill="#444A52" stroke="#444A52" stroke-width="2.1191" stroke-miterlimit="10" d="M135.516,92.774
	c0,5.942-3.497,10.363-7.51,13.105c-5.159,3.885-10.231,6.031-14.976,11.142c-6.26,6.744-7.486,15.173-8.25,23.4
	c-0.573,5.942,0.156,11.109-0.608,17.051c-0.573,6.171,0.052,14.169-3.196,19.426c-2.675,4.799-0.927-2.474-1.118-4.988
	c-0.573-7.313-4.193-14.895-4.384-22.436c0-5.028-0.185-9.827,0.771-14.626c0.955-4.799,2.105-9.37,3.825-13.712
	c4.968-12.341,8.208-25.945,19.672-30.516c2.675-1.143,8.141-3.361,11.169-2.517c1.116,0.311,3.483,0.124,4.439,1.266
	C135.349,89.597,135.516,92.774,135.516,92.774z"/>
<g>
	<g>
		<path fill="#323B49" d="M135.477,146.388c-1.196,1.807,0.939,3.14,2.594,2.897c0.346-0.051,1.085-0.334,1.36-0.045
			c0.362,0.38,0.768,0.473,1.264,0.602c0.916,0.238,1.512-0.516,2.055-1.059c-0.228,0.06-0.456,0.121-0.685,0.181
			c1.566,0.369,4.376-0.277,3.193-2.404c-0.441-0.793-1.657-0.084-1.215,0.71c0.297,0.533-1.367,0.393-1.604,0.337
			c-0.753-0.177-0.962,0.984-1.649,0.806c-0.512-0.133-0.728-0.717-1.305-0.717c-0.408,0-3.585,0.598-2.794-0.597
			C137.194,146.339,135.975,145.635,135.477,146.388L135.477,146.388z"/>
	</g>
</g>
<g>
	<g>
		<path fill="#323B49" d="M129.964,159.556c3.716-0.098,6.874,1.732,10.57,1.587c3.053-0.119,6.889-0.858,9.686-2.205
			c0.752-0.362,0.095-1.479-0.654-1.118c-2.827,1.362-7.077,1.952-10.235,2.076c-3.168,0.124-6.079-1.721-9.367-1.634
			C129.13,158.283,129.128,159.578,129.964,159.556L129.964,159.556z"/>
	</g>
</g>
<path fill="#323B49" stroke="#323B49" stroke-width="2.1191" stroke-miterlimit="10" d="M138.516,92.774
	c0,5.942-3.497,10.363-7.51,13.105c-5.159,3.885-10.231,6.031-14.976,11.142c-6.26,6.744-7.486,15.173-8.25,23.4
	c-0.573,5.942,0.156,11.109-0.608,17.051c-0.573,6.171,0.052,14.169-3.196,19.426c-2.675,4.799-0.927-2.474-1.118-4.988
	c-0.573-7.313-4.193-14.895-4.384-22.436c0-5.028-0.185-9.827,0.771-14.626c0.955-4.799,2.105-9.37,3.825-13.712
	c4.968-12.341,8.208-25.945,19.672-30.516c2.675-1.143,8.141-3.361,11.169-2.517c1.116,0.311,3.483,0.124,4.439,1.266
	C138.349,89.597,138.516,92.774,138.516,92.774z"/>
<path fill="#323B49" stroke="#323B49" stroke-width="2.1463" stroke-miterlimit="10" d="M140.765,93.415
	c0,10.302,11.432,15.057,18.044,19.526c7.373,4.983,12.846,16.593,14.143,27.277c0.649,6.105,0,12.592-0.649,18.697
	c-0.324,3.053-0.973,6.105-1.297,9.158c-0.324,2.289,0.814,6.455,1.614,8.281c2.542,5.799,2.15,1.281,2.277-1.413
	c0.134-2.843,0.345-5.584,1.642-8.637c4.865-14.499,5.883-33.761,0.694-47.116c-4.865-12.973-9.847-24.49-23.308-28.783
	c-1.825-0.582-11.285-3.317-13.231-1.791L140.765,93.415z"/>
<g>
	<g>
		<defs>
			<path id="SVGID_1_" d="M139.59,183.109c-32.483,0-58.816,19.708-58.816,44.019h117.632
				C198.406,202.817,172.073,183.109,139.59,183.109z"/>
		</defs>
		<clipPath id="SVGID_2_">
			<use xlink:href="#SVGID_1_"  overflow="visible"/>
		</clipPath>
		
			<path opacity="0.2" clip-path="url(#SVGID_2_)" fill="#323B49" stroke="#323B49" stroke-width="2.9153" stroke-miterlimit="10" enable-background="new    " d="
			M94.25,230.375c0,0-2.25-32.282,19.25-47.266c0,0-32.25,17.141-33.625,18.266s-5.5,12.875-5,15.125s2.25,17.5,3,17.5
			S94.25,230.375,94.25,230.375z"/>
	</g>
</g>
<path opacity="0.2" fill="#323B49" enable-background="new    " d="M126.024,173.81c0,0,6.847,4.767,11.901,5.041
	c0,0-3.901,1.024-11.901-0.851V173.81z"/>
</svg>
