<?xml version="1.0" encoding="utf-8"?>
<!-- Generator: Adobe Illustrator 17.0.0, SVG Export Plug-In . SVG Version: 6.00 Build 0)  -->
<!DOCTYPE svg PUBLIC "-//W3C//DTD SVG 1.1//EN" "http://www.w3.org/Graphics/SVG/1.1/DTD/svg11.dtd">
<svg version="1.1" id="Calque_1" xmlns="http://www.w3.org/2000/svg" xmlns:xlink="http://www.w3.org/1999/xlink" x="0px" y="0px"
	 width="293.976px" height="339.759px" viewBox="0 0 293.976 339.759" enable-background="new 0 0 293.976 339.759"
	 xml:space="preserve">
<polygon fill="none" points="367.247,307.639 102.186,307.639 100.186,253.422 365.247,253.422 "/>
<text transform="matrix(1 0 0 1 100.7729 269.3284)" font-family="'BloggerSans-Medium'" font-size="22">SIYUAN LI</text>
<path fill="#F2B694" stroke="#F2B694" stroke-width="2.5751" stroke-miterlimit="10" d="M146.671,183.348
	c-34.583,0-62.618,19.603-62.618,43.784h125.236C209.289,202.95,181.254,183.348,146.671,183.348z"/>
<path fill="#FDDCBA" stroke="#FDDCBA" stroke-miterlimit="10" d="M159.163,189.159c-4.187,4.504-21.938,4.095-26.649,0
	c-3.631-3.156,0-17.856,0-17.856h26.649C159.163,171.303,162.391,185.687,159.163,189.159z"/>
<circle fill="#FDDCBA" stroke="#FDDCBA" stroke-miterlimit="10" cx="109.56" cy="136.795" r="11.374"/>
<circle fill="#FDDCBA" stroke="#FDDCBA" stroke-miterlimit="10" cx="185.974" cy="137.027" r="11.374"/>
<g>
	<g>
		<path fill="#323B49" d="M105.246,132.424c-1.87,0.204-3.372,1.737-3.503,3.654c-0.124,1.815,0.919,3.356,2.472,4.217
			c1.211,0.671,2.294-1.182,1.083-1.853c-0.722-0.4-1.197-0.909-1.409-1.718c-0.215-0.819,0.49-2.06,1.357-2.155
			C106.606,134.421,106.621,132.274,105.246,132.424L105.246,132.424z"/>
	</g>
</g>
<g>
	<g>
		<path fill="#323B49" d="M189.395,134.587c1.028,0.791,1.674,2.024,1.718,3.322c0.028,0.808-0.64,1.269-1.229,1.675
			c-1.131,0.78-0.059,2.641,1.083,1.853c1.315-0.907,2.177-1.869,2.292-3.528c0.141-2.055-1.243-3.992-2.781-5.175
			C189.381,131.89,188.314,133.755,189.395,134.587L189.395,134.587z"/>
	</g>
</g>
<path fill="#FDDCBA" stroke="#FDDCBA" stroke-miterlimit="10" d="M189.569,108.694c0-18.557-18.249-33.6-40.76-33.6
	s-40.76,15.582-40.76,34.139c0,0.535,0.019,1.134,0.049,2.134h-0.007c0,0-4.039,33.941,7.112,48.501
	c0,0,12.056,17.663,23.929,18.283c2.506,0.131,9.624,0.379,12.124,0.187c9.026-0.694,16.489-2.883,27.826-20.399
	c10.176-15.721,10.128-41.814,10.39-47.006C189.53,110.204,189.569,109.436,189.569,108.694z"/>
<g opacity="0.2">
	<rect x="119.024" y="127.867" fill="#FFFFFF" stroke="#323B49" stroke-width="2" stroke-miterlimit="10" width="25" height="12"/>
	<rect x="153.024" y="127.867" fill="#FFFFFF" stroke="#323B49" stroke-width="2" stroke-miterlimit="10" width="25" height="12"/>
	
		<line fill="none" stroke="#323B49" stroke-width="2" stroke-miterlimit="10" x1="119.024" y1="131.867" x2="114.024" y2="131.867"/>
	
		<line fill="none" stroke="#323B49" stroke-width="2.0637" stroke-miterlimit="10" x1="115.003" y1="131.868" x2="105.781" y2="127.812"/>
	
		<line fill="none" stroke="#323B49" stroke-width="2" stroke-miterlimit="10" x1="179.024" y1="131.867" x2="185.024" y2="131.867"/>
	
		<line fill="none" stroke="#323B49" stroke-width="2.0637" stroke-miterlimit="10" x1="184.068" y1="131.868" x2="191.011" y2="127.759"/>
	<g>
		<g>
			<path fill="#323B49" d="M153.657,133.893c-2.695-1.857-7.012-1.728-9.846-0.344c-0.784,0.383-0.098,1.551,0.683,1.169
				c2.407-1.177,6.197-1.228,8.479,0.344C153.695,135.559,154.371,134.385,153.657,133.893L153.657,133.893z"/>
		</g>
	</g>
</g>
<g>
	<rect x="118.024" y="125.867" fill="#FFFFFF" stroke="#9ED1BC" stroke-width="2" stroke-miterlimit="10" width="25" height="12"/>
	<rect x="152.024" y="125.867" fill="#FFFFFF" stroke="#9ED1BC" stroke-width="2" stroke-miterlimit="10" width="25" height="12"/>
	
		<line fill="none" stroke="#9ED1BC" stroke-width="2" stroke-miterlimit="10" x1="118.024" y1="129.867" x2="113.024" y2="129.867"/>
	
		<line fill="none" stroke="#9ED1BC" stroke-width="2.0637" stroke-miterlimit="10" x1="114.003" y1="129.868" x2="104.781" y2="125.812"/>
	
		<line fill="none" stroke="#9ED1BC" stroke-width="2" stroke-miterlimit="10" x1="178.024" y1="129.867" x2="184.024" y2="129.867"/>
	
		<line fill="none" stroke="#9ED1BC" stroke-width="2.0637" stroke-miterlimit="10" x1="183.068" y1="129.868" x2="190.011" y2="125.759"/>
	<g>
		<g>
			<path fill="#9ED1BC" d="M152.657,131.893c-2.695-1.857-7.012-1.728-9.846-0.344c-0.784,0.383-0.098,1.551,0.683,1.169
				c2.407-1.177,6.197-1.228,8.479,0.344C152.695,133.559,153.371,132.385,152.657,131.893L152.657,131.893z"/>
		</g>
	</g>
</g>
<g>
	<g>
		<path fill="#323B49" d="M132.492,134.276c3.224,0,3.224-5,0-5C129.267,129.276,129.267,134.276,132.492,134.276L132.492,134.276z"
			/>
	</g>
</g>
<g>
	<path fill="#323B49" d="M107.088,119.187c-0.767-0.767-3.18,3.688-4.43,5.125c-0.074-5.675-0.603-15.623,0.842-20.558
		c2.04-6.968,6.35-13.668,11.716-18.65c10.348-9.199,26.726-13.532,40.524-10.466c12.265,2.3,24.275,8.765,31.94,18.73
		c3.066,4.599,4.647,9.056,6.564,14.422c1.15,3.066,0.77,9.294,0.832,11.279c-0.383,1.15-1.379,5.3-1.762,6.45
		c-1.15-0.383-1.929-5.654-3.462-4.887c-1.533,0.383-1.533,3.833-1.916,4.983c-1.15-2.683-2.683-4.599-4.216-6.899
		c-0.767-1.533-2.683-5.366-2.683-5.366s-4.07,3.1-4.298-0.189c-0.128-1.841-0.71-17.379-1.476-18.913
		c-0.767,0.767-4.152,13.654-5.341,16.036c-0.679,1.359-3.099,3.449-3.099,3.449l-2.156-5.367l-4.115,4.283
		c0,0-0.768-1.82-2.511-3.515c-2.3,0.383-4.972,2.885-4.972,2.885l-4.891-5.806l-5.157,5.42l-6.157-4.473l-3.735,5.806
		c0,0-1.533-2.3-1.916-3.066c-1.15-2.3-1.15-2.3-3.449-0.767c-1.533,0.767-5.598,4.919-5.598,4.919s-3.217-5.302-3.217-6.452
		c-1.916,1.916-3.449,4.599-4.216,6.899c-1.533,3.449-3.934,9.152-6.234,12.218c-0.575-2.63-0.431-4.313-1.964-6.23
		C106.532,120.486,108.238,119.571,107.088,119.187z"/>
	<g>
		<path fill="#323B49" d="M107.753,116.777c-3.571-0.585-5.028,3.415-6.862,5.768c1.423,0.589,2.845,1.179,4.268,1.768
			c-0.089-5.358-0.312-10.712,0.09-16.062c0.5-6.657,4.279-12.926,8.443-17.953c8.284-10.003,22.088-14.405,34.726-14.098
			c24.733,0.6,50.312,22.634,42.486,48.654c1.393-0.368,2.786-0.735,4.178-1.103c-1.69-1.338-1.542-5.976-4.746-5.666
			c-3.839,0.372-4.102,3.741-4.812,6.865c1.523-0.199,3.046-0.398,4.569-0.597c-2.03-4.229-4.79-8.047-6.899-12.265
			c-0.568-1.135-2.366-1.66-3.42-0.897c-0.419,0.303-0.85,0.552-1.3,0.807c0.631-0.358,0.782,1.665,0.664-0.772
			c-0.106-2.188-0.214-4.376-0.335-6.563c-0.193-3.472,0.069-7.761-1.13-11.081c-0.743-2.058-3.331-2.474-4.569-0.597
			c-3.873,5.868-2.495,14.049-8.049,18.979c1.393,0.368,2.786,0.735,4.178,1.103c-0.719-1.789-1.437-3.578-2.156-5.367
			c-0.667-1.66-2.756-2.584-4.178-1.103c-1.372,1.428-2.743,2.855-4.115,4.283c1.309,0.169,2.618,0.337,3.926,0.506
			c-0.727-1.534-1.783-2.765-2.902-4.021c-0.575-0.645-1.62-0.885-2.432-0.643c-2.321,0.69-4.276,1.915-6.075,3.528
			c1.178,0,2.357,0,3.536,0c-1.63-1.935-3.261-3.87-4.891-5.806c-0.864-1.025-2.655-0.925-3.536,0
			c-1.719,1.807-3.438,3.614-5.157,5.42c1.01-0.13,2.02-0.261,3.03-0.391c-2.052-1.491-4.105-2.982-6.157-4.473
			c-1.137-0.826-2.74-0.16-3.42,0.897c-1.245,1.935-2.49,3.871-3.735,5.806c1.439,0,2.878,0,4.317,0
			c-1.394-2.103-2.961-6.958-6.313-6.036c-3.314,0.912-6.259,4.266-8.577,6.617c1.309,0.169,2.618,0.337,3.926,0.506
			c-1.072-1.781-2.563-3.797-2.965-5.855c-0.355-1.812-2.974-2.452-4.178-1.103c-5.064,5.67-6.525,13.423-10.841,19.623
			c1.523,0.199,3.046,0.398,4.569,0.597c-0.47-2.492-0.815-4.679-2.216-6.827c-0.299,1.14-0.598,2.28-0.897,3.42
			c0.551-0.347,0.974-0.713,1.429-1.182c0.726-0.749,1.049-2.12,0.391-3.03c-0.122-0.169-0.245-0.338-0.367-0.507
			c-1.871-2.585-6.211-0.094-4.317,2.524c0.122,0.169,0.245,0.338,0.367,0.507c0.13-1.01,0.261-2.02,0.391-3.03
			c-0.139,0.134-0.278,0.267-0.417,0.401c-1.109,0.698-1.659,2.251-0.897,3.42c1.172,1.797,1.324,3.577,1.712,5.633
			c0.437,2.317,3.452,2.203,4.569,0.597c4.016-5.77,5.384-13.376,10.059-18.611c-1.393-0.368-2.786-0.735-4.178-1.103
			c0.488,2.494,2.176,4.901,3.469,7.049c0.826,1.371,2.782,1.666,3.926,0.506c1.427-1.446,2.882-2.919,4.496-4.157
			c0.582-0.357,1.157-0.724,1.727-1.1c-1.147,0.148-1.399,0.552-0.756,1.213c0.476,0.843,1.036,1.646,1.57,2.453
			c1.055,1.592,3.27,1.628,4.317,0c1.245-1.935,2.49-3.871,3.735-5.806c-1.14,0.299-2.28,0.598-3.42,0.897
			c2.052,1.491,4.105,2.982,6.157,4.473c0.882,0.641,2.314,0.361,3.03-0.391c1.719-1.807,3.438-3.614,5.157-5.42
			c-1.179,0-2.357,0-3.536,0c1.63,1.935,3.261,3.87,4.891,5.806c0.912,1.083,2.589,0.849,3.536,0
			c1.161-1.041,2.354-1.792,3.869-2.242c-0.811-0.214-1.622-0.429-2.432-0.643c0.921,1.032,1.562,1.83,2.121,3.009
			c0.69,1.456,2.878,1.597,3.926,0.506c1.372-1.428,2.743-2.855,4.115-4.283c-1.393-0.368-2.786-0.735-4.178-1.103
			c0.719,1.789,1.437,3.578,2.156,5.367c0.712,1.772,2.67,2.442,4.178,1.103c2.961-2.628,4.115-5.242,5.276-8.921
			c1.066-3.379,1.591-8.092,3.556-11.069c-1.523-0.199-3.046-0.398-4.569-0.597c1.726,4.78,1.044,11.279,1.286,16.314
			c0.246,5.116,3.49,7.659,8.16,4.282c-1.14-0.299-2.28-0.598-3.42-0.897c2.109,4.217,4.869,8.036,6.899,12.265
			c0.936,1.951,4.108,1.431,4.569-0.597c0.145-0.566,0.254-1.138,0.326-1.718c0.237-1.464-2.133-3.092-1.181-0.826
			c0.531,1.264,0.943,2.671,2.055,3.551c1.454,1.151,3.592,0.845,4.178-1.103c3.653-12.145,0.909-23.413-5.885-34.076
			c-7.898-12.395-24.567-18.912-38.454-20.685c-14.307-1.826-30.209,3.789-40.168,14.152c-4.872,5.07-8.65,11.677-10.376,18.499
			c-1.632,6.45-0.793,13.666-0.683,20.241c0.033,1.97,2.848,3.59,4.268,1.768c0.624-0.801,3.788-4.189,1.997-4.482
			C109.576,122.115,110.928,117.297,107.753,116.777z"/>
	</g>
</g>
<g opacity="0.2">
	<path fill="#323B49" d="M108.088,123.187c-0.767-0.767-3.18,3.688-4.43,5.125c-0.074-5.675-0.603-15.623,0.842-20.558
		c2.04-6.968,6.35-13.668,11.716-18.65c10.348-9.199,26.726-13.532,40.524-10.466c12.265,2.3,24.275,8.765,31.94,18.73
		c3.066,4.599,4.647,9.056,6.564,14.422c1.15,3.066,0.77,9.294,0.832,11.279c-0.383,1.15-1.379,5.3-1.762,6.45
		c-1.15-0.383-1.929-5.654-3.462-4.887c-1.533,0.383-1.533,3.833-1.916,4.983c-1.15-2.683-2.683-4.599-4.216-6.899
		c-0.767-1.533-2.683-5.366-2.683-5.366s-4.07,3.1-4.298-0.189c-0.128-1.841-0.71-17.379-1.476-18.913
		c-0.767,0.767-4.152,13.654-5.341,16.036c-0.679,1.359-3.099,3.449-3.099,3.449l-2.156-5.367l-4.115,4.283
		c0,0-0.768-1.82-2.511-3.515c-2.3,0.383-4.972,2.885-4.972,2.885l-4.891-5.806l-5.157,5.42l-6.157-4.473l-3.735,5.806
		c0,0-1.533-2.3-1.916-3.066c-1.15-2.3-1.15-2.3-3.449-0.767c-1.533,0.767-5.598,4.919-5.598,4.919s-3.217-5.302-3.217-6.452
		c-1.916,1.916-3.449,4.599-4.216,6.899c-1.533,3.449-3.934,9.152-6.234,12.218c-0.575-2.63-0.431-4.313-1.964-6.23
		C107.532,124.486,109.238,123.571,108.088,123.187z"/>
	<g>
		<path fill="#323B49" d="M108.753,120.777c-3.571-0.585-5.028,3.415-6.862,5.768c1.423,0.589,2.845,1.179,4.268,1.768
			c-0.089-5.358-0.312-10.712,0.09-16.062c0.5-6.657,4.279-12.926,8.443-17.953c8.284-10.003,22.088-14.405,34.726-14.098
			c24.733,0.6,50.312,22.634,42.486,48.654c1.393-0.368,2.786-0.735,4.178-1.103c-1.69-1.338-1.542-5.976-4.746-5.666
			c-3.839,0.372-4.102,3.741-4.812,6.865c1.523-0.199,3.046-0.398,4.569-0.597c-2.03-4.229-4.79-8.047-6.899-12.265
			c-0.568-1.135-2.366-1.66-3.42-0.897c-0.419,0.303-0.85,0.552-1.3,0.807c0.631-0.358,0.782,1.665,0.664-0.772
			c-0.106-2.188-0.214-4.376-0.335-6.563c-0.193-3.472,0.069-7.761-1.13-11.081c-0.743-2.058-3.331-2.474-4.569-0.597
			c-3.873,5.868-2.495,14.049-8.049,18.979c1.393,0.368,2.786,0.735,4.178,1.103c-0.719-1.789-1.437-3.578-2.156-5.367
			c-0.667-1.66-2.756-2.584-4.178-1.103c-1.372,1.428-2.743,2.855-4.115,4.283c1.309,0.169,2.618,0.337,3.926,0.506
			c-0.727-1.534-1.783-2.765-2.902-4.021c-0.575-0.645-1.62-0.885-2.432-0.643c-2.321,0.69-4.276,1.915-6.075,3.528
			c1.178,0,2.357,0,3.536,0c-1.63-1.935-3.261-3.87-4.891-5.806c-0.864-1.025-2.655-0.925-3.536,0
			c-1.719,1.807-3.438,3.614-5.157,5.42c1.01-0.13,2.02-0.261,3.03-0.391c-2.052-1.491-4.105-2.982-6.157-4.473
			c-1.137-0.826-2.74-0.16-3.42,0.897c-1.245,1.935-2.49,3.871-3.735,5.806c1.439,0,2.878,0,4.317,0
			c-1.394-2.103-2.961-6.958-6.313-6.036c-3.314,0.912-6.259,4.266-8.577,6.617c1.309,0.169,2.618,0.337,3.926,0.506
			c-1.072-1.781-2.563-3.797-2.965-5.855c-0.355-1.812-2.974-2.452-4.178-1.103c-5.064,5.67-6.525,13.423-10.841,19.623
			c1.523,0.199,3.046,0.398,4.569,0.597c-0.47-2.492-0.815-4.679-2.216-6.827c-0.299,1.14-0.598,2.28-0.897,3.42
			c0.551-0.347,0.974-0.713,1.429-1.182c0.726-0.749,1.049-2.12,0.391-3.03c-0.122-0.169-0.245-0.338-0.367-0.507
			c-1.871-2.585-6.211-0.094-4.317,2.524c0.122,0.169,0.245,0.338,0.367,0.507c0.13-1.01,0.261-2.02,0.391-3.03
			c-0.139,0.134-0.278,0.267-0.417,0.401c-1.109,0.698-1.659,2.251-0.897,3.42c1.172,1.797,1.324,3.577,1.712,5.633
			c0.437,2.317,3.452,2.203,4.569,0.597c4.016-5.77,5.384-13.376,10.059-18.611c-1.393-0.368-2.786-0.735-4.178-1.103
			c0.488,2.494,2.176,4.901,3.469,7.049c0.826,1.371,2.782,1.666,3.926,0.506c1.427-1.446,2.882-2.919,4.496-4.157
			c0.582-0.357,1.157-0.724,1.727-1.1c-1.147,0.148-1.399,0.552-0.756,1.213c0.476,0.843,1.036,1.646,1.57,2.453
			c1.055,1.592,3.27,1.628,4.317,0c1.245-1.935,2.49-3.871,3.735-5.806c-1.14,0.299-2.28,0.598-3.42,0.897
			c2.052,1.491,4.105,2.982,6.157,4.473c0.882,0.641,2.314,0.361,3.03-0.391c1.719-1.807,3.438-3.614,5.157-5.42
			c-1.179,0-2.357,0-3.536,0c1.63,1.935,3.261,3.87,4.891,5.806c0.912,1.083,2.589,0.849,3.536,0
			c1.161-1.041,2.354-1.792,3.869-2.242c-0.811-0.214-1.622-0.429-2.432-0.643c0.921,1.032,1.562,1.83,2.121,3.009
			c0.69,1.456,2.878,1.597,3.926,0.506c1.372-1.428,2.743-2.855,4.115-4.283c-1.393-0.368-2.786-0.735-4.178-1.103
			c0.719,1.789,1.437,3.578,2.156,5.367c0.712,1.772,2.67,2.442,4.178,1.103c2.961-2.628,4.115-5.242,5.276-8.921
			c1.066-3.379,1.591-8.092,3.556-11.069c-1.523-0.199-3.046-0.398-4.569-0.597c1.726,4.78,1.044,11.279,1.286,16.314
			c0.246,5.116,3.49,7.659,8.16,4.282c-1.14-0.299-2.28-0.598-3.42-0.897c2.109,4.217,4.869,8.036,6.899,12.265
			c0.936,1.951,4.108,1.431,4.569-0.597c0.145-0.566,0.254-1.138,0.326-1.718c0.237-1.464-2.133-3.092-1.181-0.826
			c0.531,1.264,0.943,2.671,2.055,3.551c1.454,1.151,3.592,0.845,4.178-1.103c3.653-12.145,0.909-23.413-5.885-34.076
			c-7.898-12.395-24.567-18.912-38.454-20.685c-14.307-1.826-30.209,3.789-40.168,14.152c-4.872,5.07-8.65,11.677-10.376,18.499
			c-1.632,6.45-0.793,13.666-0.683,20.241c0.033,1.97,2.848,3.59,4.268,1.768c0.624-0.801,3.788-4.189,1.997-4.482
			C110.576,126.115,111.928,121.297,108.753,120.777z"/>
	</g>
</g>
<g>
	<g>
		<path fill="#323B49" d="M139.087,143.782c-1.248,1.676,0.215,3.091,1.856,3.543c1.344,0.37,3.631-0.436,4.711,0.589
			c0.671,0.637,1.187,1.249,2.246,0.958c1.351-0.372,1.792-2.184,3.525-1.889c1.381,0.235,2.905,0.449,4.181-0.299
			c1.804-1.057,0.795-2.818-0.472-3.756c-0.649-0.48-1.271,0.606-0.631,1.079c-0.207,1.9-1.122,2.49-2.746,1.77
			c-0.134-0.021-0.963-0.255-1.316-0.167c-0.942,0.235-1.263,0.217-1.808,1.026c-0.939,1.396-2.63-0.156-3.634-0.48
			c-0.504-0.163-1.385,0.03-1.909,0.071c-0.582,0.045-4.197-0.105-2.924-1.814C140.648,143.765,139.562,143.143,139.087,143.782
			L139.087,143.782z"/>
	</g>
</g>
<g>
	<g>
		<path fill="#323B49" d="M156.017,159.272c-4.66-5.162-14.851-4.406-20.232-0.819c-0.459,0.306-0.376,0.966,0.149,1.142
			c8.219,2.756,16.751,2.525,24.645-1.145c0.73-0.34,0.095-1.417-0.631-1.079c-7.596,3.531-15.791,3.665-23.682,1.019
			c0.05,0.381,0.1,0.762,0.149,1.142c4.907-3.271,14.444-4.11,18.717,0.624C155.674,160.755,156.555,159.868,156.017,159.272
			L156.017,159.272z"/>
	</g>
</g>
<g>
	<g>
		<path fill="#323B49" d="M153.808,159.908c-1.025,4.863-10.42,4.534-13.381,1.888c-0.599-0.535-1.486,0.346-0.884,0.884
			c3.629,3.242,14.222,3.482,15.47-2.44C155.179,159.454,153.974,159.12,153.808,159.908L153.808,159.908z"/>
	</g>
</g>
<g>
	<g>
		<path fill="#323B49" d="M126.537,132.431c1.571-0.762,3.121-1.522,4.834-1.904c2.618-0.583,5.255,0.691,7.482,1.904
			c0.72,0.392,1.362-0.706,0.642-1.098c-2.266-1.234-4.574-2.235-7.196-2.189c-2.265,0.04-4.418,1.227-6.404,2.189
			C125.158,131.691,125.803,132.787,126.537,132.431L126.537,132.431z"/>
	</g>
</g>
<g>
	<g>
		<path fill="#323B49" d="M162.492,134.276c3.224,0,3.224-5,0-5C159.267,129.276,159.267,134.276,162.492,134.276L162.492,134.276z"
			/>
	</g>
</g>
<g>
	<g>
		<path fill="#323B49" d="M156.537,132.431c1.571-0.762,3.121-1.522,4.834-1.904c2.618-0.583,5.255,0.691,7.482,1.904
			c0.72,0.392,1.362-0.706,0.642-1.098c-2.266-1.234-4.574-2.235-7.196-2.189c-2.265,0.04-4.418,1.227-6.404,2.189
			C155.158,131.691,155.803,132.787,156.537,132.431L156.537,132.431z"/>
	</g>
</g>
<g>
	<g>
		<path fill="#323B49" d="M125.608,125.104c1.684-0.845,3.338-1.689,5.185-2.115c2.732-0.63,5.515,0.824,7.804,2.115
			c1.406,0.793,2.666-1.367,1.262-2.159c-2.563-1.445-5.199-2.619-8.192-2.565c-2.603,0.047-5.059,1.429-7.321,2.565
			C122.905,123.669,124.171,125.825,125.608,125.104L125.608,125.104z"/>
	</g>
</g>
<g>
	<g>
		<path fill="#323B49" d="M156.309,125.23c4.806-1.981,8.43-2.359,13.288-0.126c1.454,0.668,2.725-1.486,1.262-2.159
			c-5.482-2.519-9.712-2.394-15.214-0.126C154.176,123.425,154.818,125.844,156.309,125.23L156.309,125.23z"/>
	</g>
</g>
<path opacity="0.2" fill="#323B49" d="M130.9,176.25c0,0,6.692,1.857,18.896,2.178c0,0-10.812,3.962-19.296,1.962L130.9,176.25z"/>
<path opacity="0.2" fill="#323B49" d="M109.56,148.75c0,0-1.526-7.583-0.168-10.333S109.195,138,109.195,138
	s-3.278,6.029-2.195,10.306C107,148.306,108.62,148.917,109.56,148.75z"/>
<g>
	<defs>
		<path id="SVGID_1_" d="M146.671,183.348c-34.583,0-62.618,19.603-62.618,43.784h125.236
			C209.289,202.95,181.254,183.348,146.671,183.348z"/>
	</defs>
	<clipPath id="SVGID_2_">
		<use xlink:href="#SVGID_1_"  overflow="visible"/>
	</clipPath>
	<path opacity="0.2" clip-path="url(#SVGID_2_)" fill="#323B49" d="M102,230.417c0,0-2.75-33.561,21.75-48.572L108.417,186
		l-31.333,18.667c0,0-1.417,17.833-1,18.917s4,8.25,4,8.25L102,230.417z"/>
</g>
</svg>
