<?xml version="1.0" encoding="utf-8"?>
<!-- Generator: Adobe Illustrator 17.0.0, SVG Export Plug-In . SVG Version: 6.00 Build 0)  -->
<!DOCTYPE svg PUBLIC "-//W3C//DTD SVG 1.1//EN" "http://www.w3.org/Graphics/SVG/1.1/DTD/svg11.dtd">
<svg version="1.1" id="Calque_1" xmlns="http://www.w3.org/2000/svg" xmlns:xlink="http://www.w3.org/1999/xlink" x="0px" y="0px"
	 width="1279.988px" height="800px" viewBox="0 0 1279.988 800" enable-background="new 0 0 1279.988 800" xml:space="preserve">
<rect x="0" y="-1052" fill="#AEDBDF" width="1279.988" height="800.002"/>
<rect x="-7680.14" y="679" fill="#8CC63F" width="1280" height="17"/>
<rect x="-8960.14" y="679" fill="#8CC63F" width="1280" height="17"/>
<path fill="none" stroke="#8CC63F" stroke-width="21" stroke-miterlimit="10" d="M-6400.14,687.628
	c0,0,304.778,47.206,689.761-76.257c384.983-123.463,425.086-79.888,697.782-108.938c272.696-29.05,352.901,25.709,465.188,36.458
	c112.287,10.748,401.024-43.43,521.331-10.894c0,0,328.84,87.005,457.167,65.217c128.328-21.788,216.553-79.888,56.143-108.938
	c-160.41-29.05-20.051,136.172,168.43,0c0,0,275.919-269.384,428.308-280.277s309.929,39.898,426.226,179.702
	c116.297,139.804,393.819,280.94,602.352,213.761s259.743-242.581,632.695-220.966c0,0,198.561,20.631-5.962,73.284
	c-204.522,52.653-16.397,165.134,98.343,84.014c0,0,168.2-144.752,172.325-70.49c4.989,89.83,181.572-126.557,277.54-178.304
	c46.491-25.069,257.155-113.213,441.626-16.984s376.929,59.44,497.236,21.312s-7.701-108.88-119.988-27.177
	C-5.921,343.854,288.202,476.04,423.85,455.275c165.808-25.382,380.988-32.218,701.807-97.581
	c320.819-65.363,574.956,71.132,603.028,143.757c28.072,72.625,74.844,156.208-69.524,107.186
	c-144.369-49.022,235.68-117.035,376.039-73.46c140.358,43.575,549.917,175.823,626.166,162.315"/>
<line fill="#8CC63F" stroke="#8CC63F" stroke-width="20" stroke-miterlimit="10" x1="3892.86" y1="698" x2="2612.86" y2="698"/>
</svg>
