<?xml version="1.0" encoding="utf-8"?>
<!-- Generator: Adobe Illustrator 17.0.0, SVG Export Plug-In . SVG Version: 6.00 Build 0)  -->
<!DOCTYPE svg PUBLIC "-//W3C//DTD SVG 1.1//EN" "http://www.w3.org/Graphics/SVG/1.1/DTD/svg11.dtd">
<svg version="1.1" id="Calque_1" xmlns="http://www.w3.org/2000/svg" xmlns:xlink="http://www.w3.org/1999/xlink" x="0px" y="0px"
	 width="1280.128px" height="800px" viewBox="0 0 1280.128 800" enable-background="new 0 0 1280.128 800" xml:space="preserve">
<rect x="0.14" y="852" fill="#AEDBDF" width="1279.988" height="800.002"/>
<rect x="1280" y="679" fill="#8CC63F" width="1280" height="17"/>
<rect y="679" fill="#8CC63F" width="1280" height="17"/>
<path fill="none" stroke="#8CC63F" stroke-width="21" stroke-miterlimit="10" d="M2520.743,687.628
	c0,0,304.778,47.206,689.761-76.257S3547.365,320.871,3796,404.39c0,0-160.41,127.094,112.287,98.044
	c272.697-29.05,336.86-137.988,417.065-54.469c0,0-64.164,80.178,48.123,90.927c112.287,10.748,401.024-43.43,521.332-10.894
	c0,0,328.84,87.005,457.167,65.217s216.553-79.888,56.143-108.938c-160.409-29.05-20.051,136.172,168.43,0
	c0,0,275.919-269.384,428.309-280.277s309.929,39.898,426.226,179.702s393.819,280.94,602.352,213.761
	s259.743-242.581,632.695-220.966c0,0,198.561,20.631-5.962,73.284c-204.522,52.653-16.396,165.134,98.343,84.014
	c0,0,168.201-144.752,172.325-70.49c4.989,89.83,181.572-126.557,277.54-178.304c46.491-25.069,257.155-113.213,441.626-16.984
	s376.929,59.44,497.236,21.312s-7.701-108.88-119.988-27.177c-112.286,81.703,181.837,213.89,317.485,193.124
	c165.809-25.382,380.988-32.218,701.808-97.581c320.819-65.363,574.956,71.132,603.027,143.757
	c28.072,72.625,74.845,156.208-69.523,107.186c-144.369-49.022,235.68-117.035,376.038-73.46
	C11096.441,578.752,11506,711,11582.248,697.493"/>
<line fill="#8CC63F" stroke="#8CC63F" stroke-width="20" stroke-miterlimit="10" x1="12853" y1="698" x2="11573" y2="698"/>
</svg>
