<?xml version="1.0" encoding="utf-8"?>
<!-- Generator: Adobe Illustrator 17.0.0, SVG Export Plug-In . SVG Version: 6.00 Build 0)  -->
<!DOCTYPE svg PUBLIC "-//W3C//DTD SVG 1.1//EN" "http://www.w3.org/Graphics/SVG/1.1/DTD/svg11.dtd">
<svg version="1.1" id="Calque_1" xmlns="http://www.w3.org/2000/svg" xmlns:xlink="http://www.w3.org/1999/xlink" x="0px" y="0px"
	 width="175px" height="218.833px" viewBox="90.167 0 175 218.833" enable-background="new 90.167 0 175 218.833"
	 xml:space="preserve">
<line fill="none" stroke="#000000" stroke-miterlimit="10" x1="-331.526" y1="262.051" x2="-114.526" y2="382.051"/>
<g>
	<path fill="#020304" d="M186.359,165.837c4.603-2.14,3.566-6.613,3.566-6.613s0.389-0.713,3.436-1.815s3.825,0.065,3.825,0.065
		s1.945,5.446,1.945,8.169s-5.965,3.242-5.965,3.242L186.359,165.837z"/>
	<g>
		<path fill="#9E6751" d="M177.822,132.144l11.757,19.883l5.36-2.248c0,0-0.519-16.252-7.089-20.574
			C181.28,124.883,177.822,132.144,177.822,132.144z"/>
		
			<ellipse transform="matrix(0.9305 -0.3663 0.3663 0.9305 -48.7231 81.1504)" fill="#020304" cx="189.482" cy="168.968" rx="10.292" ry="4.085"/>
		<path fill="#FFFFFF" d="M188.563,152.221l2.14,7.456c0,0,0.973,0.973,3.307,0.259s2.723-1.556,2.723-1.556l-1.102-9.293
			L188.563,152.221z"/>
		<g>
			<path fill="#9E6751" d="M146.556,132.346l-3.025,22.9l5.604,1.54c0,0,9.624-13.106,7.124-20.562
				C153.759,128.768,146.556,132.346,146.556,132.346z"/>
			
				<ellipse transform="matrix(0.9582 0.2862 -0.2862 0.9582 53.799 -31.0179)" fill="#020304" cx="132.998" cy="168.514" rx="10.292" ry="4.085"/>
			<path fill="#020304" d="M132.474,164.122c4.942,1.158,6.888-3.001,6.888-3.001s0.746-0.321,3.824,0.693
				c3.078,1.014,2.969,2.412,2.969,2.412s-1.832,5.485-3.513,7.628c-1.681,2.142-6.694-1.132-6.694-1.132L132.474,164.122z"/>
			<path fill="#FFFFFF" d="M142.613,154.772l-2.919,7.187c0,0,0.165,1.365,2.441,2.245s3.103,0.457,3.103,0.457l4.87-7.991
				L142.613,154.772z"/>
		</g>
		<path fill="#9E6751" d="M152.006,61.786c3.773,0.842,3.969,7.493-4.287,21.273c-2.856,4.767-23.966,16.028-25.034,9.513
			c-0.893-5.444,7.008-5.487,7.008-5.487c-5.005-1.925-4.308-3.132-3.427-3.886c0.881-0.754,5.397,2.953,9.921,0.059
			c8.484-5.427,9.329-12.764,10.666-17.267C148.191,61.489,152.006,61.786,152.006,61.786z"/>
		<g>
			<polygon fill="#083448" points="151.888,99.813 142.725,132.663 159.669,137.677 170.561,105.519 164.51,90.823 			"/>
			<polygon fill="#083448" points="182.771,98.335 191.308,128.94 175.522,133.611 165.374,103.65 171.012,89.959 			"/>
			<path fill="#E7AF04" d="M149.122,61.086c0-11.411,3.631-18.499,15.042-18.499s19.364,6.051,20.401,16.943s0,40.975,0,40.975
				h-35.616L149.122,61.086z"/>
			<g>
				<path fill="#513426" d="M155.346,31.867c0,0-9.855-3.804-7.089-8.818s18.672-4.322,25.415,2.42s-3.112,14.35-6.57,14.35
					C163.645,39.82,155.346,31.867,155.346,31.867z"/>
				<g>
					<circle fill="#9E6751" cx="164.337" cy="34.287" r="9.336"/>
					<circle fill="#9E6751" cx="164.337" cy="43.969" r="3.458"/>
				</g>
				<path fill="#513426" d="M158.458,27.026c9.163-4.841,10.479,17.8,14.523,11.93c5.36-7.78,2.248-11.411,2.248-11.411
					l-6.397-3.458l-6.916-1.729L158.458,27.026z"/>
				<ellipse fill="#9E6751" cx="169.005" cy="33.423" rx="2.075" ry="2.939"/>
			</g>
			<path fill="#9E6751" d="M183.182,60.567c3.804-0.692,6.57,5.36,4.322,21.266c-0.777,5.502-15.846,24.086-19.364,18.499
				c-2.939-4.668,4.322-7.78,4.322-7.78c-5.36,0.173-5.187-1.21-4.668-2.248c0.519-1.037,6.121,0.622,9.163-3.804
				c5.705-8.299,3.631-15.387,3.112-20.056S183.182,60.567,183.182,60.567z"/>
			<path fill="#E7AF04" d="M176.958,46.044c5.705,3.631,9.336,11.757,11.238,16.943l-10.201,4.668l-5.187-7.953L176.958,46.044z"/>
		</g>
		<path fill="#E7AF04" d="M158.458,43.451c-9.163,1.383-12.794,15.733-12.621,24.032l7.953-0.173L158.458,43.451z"/>
	</g>
</g>
<g id="Personnage_26_">
	<path fill="#F7CAB1" d="M195.038,148.862l-10.192,17.236l-4.646-1.948c0,0,0.45-14.089,6.145-17.836
		C192.04,142.567,195.038,148.862,195.038,148.862z"/>
	
		<ellipse transform="matrix(-0.9305 -0.3663 0.3663 -0.9305 290.7867 416.7427)" fill="#020304" cx="184.93" cy="180.784" rx="8.922" ry="3.541"/>
	<path fill="#020304" d="M187.638,178.07c-3.991-1.855-3.091-5.733-3.091-5.733s-0.337-0.618-2.979-1.574s-3.316,0.056-3.316,0.056
		s-1.686,4.721-1.686,7.082c0,2.361,5.171,2.81,5.171,2.81L187.638,178.07z"/>
	<path fill="#FFFFFF" d="M185.727,166.267l-1.855,6.464c0,0-0.843,0.843-2.866,0.225c-2.023-0.618-2.361-1.349-2.361-1.349
		l0.955-8.056L185.727,166.267z"/>
	<g>
		<path fill="#F7CAB1" d="M222.142,149.037l2.622,19.851l-4.858,1.335c0,0-8.343-11.361-6.176-17.825
			C215.898,145.935,222.142,149.037,222.142,149.037z"/>
		
			<ellipse transform="matrix(-0.9582 0.2862 -0.2862 -0.9582 509.6393 286.2841)" fill="#020304" cx="233.896" cy="180.39" rx="8.922" ry="3.541"/>
		<path fill="#020304" d="M234.35,176.583c-4.284,1.004-5.971-2.602-5.971-2.602s-0.647-0.278-3.315,0.601
			c-2.668,0.879-2.574,2.091-2.574,2.091s1.588,4.755,3.045,6.612c1.457,1.857,5.803-0.981,5.803-0.981L234.35,176.583z"/>
		<path fill="#FFFFFF" d="M225.561,168.478l2.531,6.23c0,0-0.143,1.184-2.116,1.946c-1.973,0.763-2.69,0.396-2.69,0.396
			l-4.221-6.928L225.561,168.478z"/>
	</g>
	<path fill="#F7CAB1" d="M217.418,87.869c-3.271,0.73-3.44,6.495,3.717,18.441c2.476,4.132,20.776,13.895,21.702,8.247
		c0.774-4.719-6.075-4.757-6.075-4.757c4.339-1.669,3.734-2.715,2.971-3.369c-0.764-0.654-4.679,2.56-8.601,0.051
		c-7.354-4.705-8.087-11.065-9.246-14.968C220.725,87.611,217.418,87.869,217.418,87.869z"/>
	<g>
		<polygon fill="#010202" points="217.52,120.835 225.463,149.312 210.775,153.658 201.333,125.781 206.579,113.041 		"/>
		<polygon fill="#010202" points="190.748,119.553 183.347,146.084 197.032,150.134 205.829,124.161 200.942,112.292 		"/>
		<path fill="#177274" d="M219.918,87.262c0-9.892-3.147-16.037-13.039-16.037c-9.892,0-16.786,5.246-17.686,14.688
			s0,35.521,0,35.521h30.875L219.918,87.262z"/>
		<g>
			<path fill="#E7AF04" d="M214.522,61.932c0,0,8.543-3.297,6.145-7.644c-2.398-4.346-16.187-3.747-22.032,2.098
				s2.698,12.44,5.695,12.44C207.328,68.827,214.522,61.932,214.522,61.932z"/>
			<g>
				<circle fill="#F7CAB1" cx="206.729" cy="64.031" r="8.093"/>
				<circle fill="#F7CAB1" cx="206.729" cy="72.424" r="2.998"/>
			</g>
			<path fill="#E7AF04" d="M211.824,57.736c-7.944-4.197-9.084,15.431-12.59,10.342c-4.646-6.745-1.948-9.892-1.948-9.892
				l5.546-2.998l5.995-1.499L211.824,57.736z"/>
			<ellipse fill="#F7CAB1" cx="202.682" cy="63.281" rx="1.799" ry="2.548"/>
		</g>
		<path fill="#F7CAB1" d="M190.392,86.812c-3.297-0.6-5.695,4.646-3.747,18.435c0.674,4.77,13.737,20.88,16.786,16.037
			c2.548-4.047-3.747-6.745-3.747-6.745c4.646,0.15,4.496-1.049,4.047-1.948c-0.45-0.899-5.306,0.539-7.944-3.297
			c-4.946-7.194-3.147-13.339-2.698-17.386C193.539,87.861,190.392,86.812,190.392,86.812z"/>
		<path fill="#177274" d="M195.787,74.222c-4.946,3.147-8.093,10.192-9.742,14.688l8.843,4.047l4.496-6.894L195.787,74.222z"/>
	</g>
	<path fill="#177274" d="M211.824,71.974c7.944,1.199,11.091,13.639,10.941,20.833l-6.894-0.15L211.824,71.974z"/>
</g>
</svg>
