<?xml version="1.0" encoding="utf-8"?>
<!-- Generator: Adobe Illustrator 17.0.0, SVG Export Plug-In . SVG Version: 6.00 Build 0)  -->
<!DOCTYPE svg PUBLIC "-//W3C//DTD SVG 1.1//EN" "http://www.w3.org/Graphics/SVG/1.1/DTD/svg11.dtd">
<svg version="1.1" id="Calque_1" xmlns="http://www.w3.org/2000/svg" xmlns:xlink="http://www.w3.org/1999/xlink" x="0px" y="0px"
	 width="274px" height="258px" viewBox="-8.833 -10.167 274 258" enable-background="new -8.833 -10.167 274 258"
	 xml:space="preserve">
<g display="none">
	<polygon display="inline" fill="#494949" points="261.697,182.324 91.167,88.5 -66.333,190.338 -66.333,188.666 -81.333,188.666 
		-81.333,198.666 -81.288,198.666 -81.411,198.955 89.209,294.387 261.776,192.778 	"/>
	<polygon display="inline" fill="#525251" points="91.167,88.5 -81.411,188.737 89.208,283.626 261.667,181.667 	"/>
	
		<linearGradient id="SVGID_1_" gradientUnits="userSpaceOnUse" x1="142.8495" y1="-76.3124" x2="308.3052" y2="140.5469" gradientTransform="matrix(1 0 0 -1 -101 172.167)">
		<stop  offset="0.0089" style="stop-color:#FFFFFF;stop-opacity:0"/>
		<stop  offset="0.7006" style="stop-color:#FFFFFF"/>
	</linearGradient>
	<polygon display="inline" opacity="0.15" fill="url(#SVGID_1_)" enable-background="new    " points="91.167,88.5 -81.411,188.737 
		86.6,282.321 261.667,181.667 	"/>
</g>
<g id="Personnage_1_">
	<path fill="#E2AB85" d="M127.452,107.355l11.26,19.042l5.133-2.153c0,0-0.497-15.565-6.789-19.705S127.452,107.355,127.452,107.355
		z"/>
	
		<ellipse transform="matrix(0.9305 -0.3663 0.3663 0.9305 -42.6077 60.6882)" fill="#020304" cx="138.619" cy="142.622" rx="9.857" ry="3.912"/>
	<path fill="#020304" d="M135.628,139.623c4.409-2.049,3.415-6.334,3.415-6.334s0.373-0.683,3.291-1.739
		c2.918-1.056,3.664,0.062,3.664,0.062s1.863,5.216,1.863,7.824s-5.713,3.105-5.713,3.105L135.628,139.623z"/>
	<path fill="#FFFFFF" d="M137.739,126.583l2.049,7.141c0,0,0.931,0.931,3.167,0.248c2.235-0.683,2.608-1.49,2.608-1.49l-1.056-8.9
		L137.739,126.583z"/>
	<g>
		<path fill="#E2AB85" d="M97.508,107.548l-2.897,21.932l5.367,1.475c0,0,9.218-12.552,6.823-19.693S97.508,107.548,97.508,107.548z
			"/>
		
			<ellipse transform="matrix(0.9582 0.2862 -0.2862 0.9582 44.2352 -18.244)" fill="#020304" cx="84.522" cy="142.187" rx="9.857" ry="3.912"/>
		<path fill="#020304" d="M84.02,137.981c4.733,1.109,6.597-2.875,6.597-2.875s0.715-0.307,3.662,0.664
			c2.948,0.971,2.844,2.31,2.844,2.31s-1.754,5.253-3.364,7.305c-1.61,2.052-6.411-1.084-6.411-1.084L84.02,137.981z"/>
		<path fill="#FFFFFF" d="M93.731,129.026l-2.796,6.883c0,0,0.158,1.308,2.338,2.15c2.18,0.843,2.972,0.438,2.972,0.438l4.664-7.654
			L93.731,129.026z"/>
	</g>
	<path fill="#E2AB85" d="M102.727,39.97c3.614,0.806,3.801,7.176-4.106,20.374c-2.735,4.565-22.953,15.351-23.976,9.111
		c-0.855-5.214,6.711-5.255,6.711-5.255c-4.794-1.844-4.126-3-3.282-3.722s5.169,2.828,9.502,0.057
		c8.125-5.198,8.934-12.225,10.215-16.537S102.727,39.97,102.727,39.97z"/>
	<g>
		<polygon fill="#475768" points="102.614,76.39 93.838,107.852 110.066,112.654 120.497,81.855 114.702,67.78 		"/>
		<polygon fill="#475768" points="132.191,74.974 140.368,104.286 125.249,108.76 115.53,80.065 120.929,66.952 		"/>
		<path fill="#E21A1B" d="M99.965,39.3c0-10.929,3.477-17.718,14.406-17.718s18.545,5.795,19.539,16.227
			c0.994,10.432,0,39.244,0,39.244h-34.11L99.965,39.3z"/>
		<g>
			<path fill="#020304" d="M105.926,11.316c0,0-9.438-3.643-6.789-8.445c2.649-4.802,17.883-4.14,24.341,2.318
				s-2.981,13.744-6.292,13.744C113.874,18.933,105.926,11.316,105.926,11.316z"/>
			<g>
				<circle fill="#E2AB85" cx="114.536" cy="13.634" r="8.942"/>
				<circle fill="#E2AB85" cx="114.536" cy="22.907" r="3.312"/>
			</g>
			<path fill="#020304" d="M108.906,6.679c8.776-4.636,10.036,17.048,13.909,11.425c5.133-7.451,2.153-10.929,2.153-10.929
				l-6.127-3.312l-6.623-1.656L108.906,6.679z"/>
			<ellipse fill="#E2AB85" cx="119.007" cy="12.806" rx="1.987" ry="2.815"/>
		</g>
		<path fill="#E2AB85" d="M132.585,38.803c3.643-0.662,6.292,5.133,4.14,20.367c-0.745,5.27-15.177,23.068-18.545,17.718
			c-2.815-4.471,4.14-7.451,4.14-7.451c-5.133,0.166-4.968-1.159-4.471-2.153c0.497-0.994,5.862,0.596,8.776-3.643
			c5.464-7.948,3.477-14.737,2.981-19.208C129.108,39.962,132.585,38.803,132.585,38.803z"/>
		<path fill="#E21A1B" d="M126.624,24.894c5.464,3.477,8.942,11.26,10.763,16.227l-9.769,4.471l-4.968-7.617L126.624,24.894z"/>
	</g>
	<path fill="#E21A1B" d="M108.906,22.41c-8.776,1.325-12.253,15.068-12.088,23.016l7.617-0.166L108.906,22.41z"/>
	<g>
		<path fill="#020304" d="M48.667,29l32-0.5c0,0,6.833-30.5-11.5-31.5C50.167-3.5,49.167,16.5,48.667,29z"/>
		<g id="Personnage_25_">
			<g>
				<path fill="#664533" d="M54.02,106.103L42.799,125.08l-5.115-2.145c0,0,0.495-15.511,6.765-19.636S54.02,106.103,54.02,106.103z
					"/>
				
					<ellipse transform="matrix(-0.9305 -0.3663 0.3663 -0.9305 31.0629 288.3903)" fill="#020304" cx="42.891" cy="141.248" rx="9.823" ry="3.898"/>
				<path fill="#020304" d="M45.872,138.26c-4.393-2.042-3.403-6.312-3.403-6.312s-0.371-0.681-3.28-1.733
					c-2.908-1.052-3.651,0.062-3.651,0.062s-1.856,5.198-1.856,7.797c0,2.599,5.693,3.094,5.693,3.094L45.872,138.26z"/>
				<path fill="#FFFFFF" d="M43.768,125.265l-2.042,7.116c0,0-0.928,0.928-3.156,0.248c-2.228-0.681-2.599-1.485-2.599-1.485
					l1.052-8.869L43.768,125.265z"/>
				<g>
					<path fill="#664533" d="M83.167,104l3.58,24.152l-5.349,1.47c0,0-9.879-14.804-7.493-21.921
						C76.292,100.585,83.167,104,83.167,104z"/>
					
						<ellipse transform="matrix(-0.9582 0.2862 -0.2862 -0.9582 229.8569 248.03)" fill="#020304" cx="96.801" cy="140.815" rx="9.823" ry="3.898"/>
					<path fill="#020304" d="M97.301,136.624c-4.717,1.106-6.574-2.865-6.574-2.865s-0.712-0.306-3.65,0.661
						c-2.937,0.968-2.834,2.302-2.834,2.302s1.748,5.235,3.353,7.28c1.604,2.045,6.389-1.08,6.389-1.08L97.301,136.624z"/>
					<path fill="#FFFFFF" d="M87.624,127.699l2.786,6.859c0,0-0.157,1.303-2.33,2.143c-2.173,0.84-2.961,0.436-2.961,0.436
						l-4.648-7.627L87.624,127.699z"/>
				</g>
				<path fill="#664533" d="M78.659,38.952c-3.601,0.804-3.788,7.151,4.092,20.303c2.726,4.549,22.873,15.297,23.893,9.08
					c0.852-5.195-6.688-5.237-6.688-5.237c4.777-1.837,4.112-2.989,3.27-3.709c-0.841-0.72-5.151,2.819-9.469,0.056
					c-8.097-5.18-8.903-12.183-10.18-16.48S78.659,38.952,78.659,38.952z"/>
				<g>
					<path fill="#D4D5D5" d="M86.712,103.712l-7.94-28.466l-12.046-8.581l-2.933,7.123l-3.273-7.948l-11.223,7.994l-8.148,29.21
						C41.149,103.045,64.562,111.31,86.712,103.712z"/>
					<path fill="#86A52B" d="M81.411,38.284c0-10.891-3.465-17.656-14.356-17.656s-18.481,5.775-19.471,16.171s0,39.108,0,39.108
						h33.992L81.411,38.284z"/>
					<g>
						<circle fill="#664533" cx="66.89" cy="12.707" r="8.911"/>
						<circle fill="#664533" cx="66.89" cy="21.948" r="3.3"/>
					</g>
					<path fill="#020304" d="M72.501,5.777C63.755,1.157,62.5,22.765,58.64,17.163c-5.115-7.425-2.145-10.891-2.145-10.891
						l6.105-3.3l6.6-1.65L72.501,5.777z"/>
					<ellipse fill="#664533" cx="62.435" cy="11.882" rx="1.98" ry="2.805"/>
					<path fill="#664533" d="M48.904,37.789c-3.63-0.66-6.27,5.115-4.125,20.296c0.742,5.251,15.124,22.988,18.481,17.656
						c2.805-4.455-4.125-7.425-4.125-7.425c5.115,0.165,4.95-1.155,4.455-2.145c-0.495-0.99-5.842,0.594-8.746-3.63
						c-5.445-7.921-3.465-14.686-2.97-19.141S48.904,37.789,48.904,37.789z"/>
					<path fill="#86A52B" d="M54.845,23.928c-5.445,3.465-8.911,11.221-10.726,16.171l9.736,4.455l4.95-7.59L54.845,23.928z"/>
				</g>
				<path fill="#86A52B" d="M72.501,21.453c8.746,1.32,12.211,15.016,12.046,22.936l-7.59-0.165L72.501,21.453z"/>
			</g>
		</g>
	</g>
</g>
<line fill="none" stroke="#000000" stroke-miterlimit="10" x1="-331.526" y1="262.051" x2="-114.526" y2="382.051"/>
<g>
	<path fill="#020304" d="M186.359,165.837c4.603-2.14,3.566-6.613,3.566-6.613s0.389-0.713,3.436-1.815s3.825,0.065,3.825,0.065
		s1.945,5.446,1.945,8.169s-5.965,3.242-5.965,3.242L186.359,165.837z"/>
	<g>
		<path fill="#9E6751" d="M177.822,132.144l11.757,19.883l5.36-2.248c0,0-0.519-16.252-7.089-20.574
			C181.28,124.883,177.822,132.144,177.822,132.144z"/>
		
			<ellipse transform="matrix(0.9305 -0.3663 0.3663 0.9305 -48.7231 81.1504)" fill="#020304" cx="189.482" cy="168.968" rx="10.292" ry="4.085"/>
		<path fill="#FFFFFF" d="M188.563,152.221l2.14,7.456c0,0,0.973,0.973,3.307,0.259s2.723-1.556,2.723-1.556l-1.102-9.293
			L188.563,152.221z"/>
		<g>
			<path fill="#9E6751" d="M146.556,132.346l-3.025,22.9l5.604,1.54c0,0,9.624-13.106,7.124-20.562
				C153.759,128.768,146.556,132.346,146.556,132.346z"/>
			
				<ellipse transform="matrix(0.9582 0.2862 -0.2862 0.9582 53.799 -31.0179)" fill="#020304" cx="132.998" cy="168.514" rx="10.292" ry="4.085"/>
			<path fill="#020304" d="M132.474,164.122c4.942,1.158,6.888-3.001,6.888-3.001s0.746-0.321,3.824,0.693
				c3.078,1.014,2.969,2.412,2.969,2.412s-1.832,5.485-3.513,7.628c-1.681,2.142-6.694-1.132-6.694-1.132L132.474,164.122z"/>
			<path fill="#FFFFFF" d="M142.613,154.772l-2.919,7.187c0,0,0.165,1.365,2.441,2.245s3.103,0.457,3.103,0.457l4.87-7.991
				L142.613,154.772z"/>
		</g>
		<path fill="#9E6751" d="M152.006,61.786c3.773,0.842,3.969,7.493-4.287,21.273c-2.856,4.767-23.966,16.028-25.034,9.513
			c-0.893-5.444,7.008-5.487,7.008-5.487c-5.005-1.925-4.308-3.132-3.427-3.886c0.881-0.754,5.397,2.953,9.921,0.059
			c8.484-5.427,9.329-12.764,10.666-17.267C148.191,61.489,152.006,61.786,152.006,61.786z"/>
		<g>
			<polygon fill="#083448" points="151.888,99.813 142.725,132.663 159.669,137.677 170.561,105.519 164.51,90.823 			"/>
			<polygon fill="#083448" points="182.771,98.335 191.308,128.94 175.522,133.611 165.374,103.65 171.012,89.959 			"/>
			<path fill="#E7AF04" d="M149.122,61.086c0-11.411,3.631-18.499,15.042-18.499s19.364,6.051,20.401,16.943s0,40.975,0,40.975
				h-35.616L149.122,61.086z"/>
			<g>
				<path fill="#513426" d="M155.346,31.867c0,0-9.855-3.804-7.089-8.818s18.672-4.322,25.415,2.42s-3.112,14.35-6.57,14.35
					C163.645,39.82,155.346,31.867,155.346,31.867z"/>
				<g>
					<circle fill="#9E6751" cx="164.337" cy="34.287" r="9.336"/>
					<circle fill="#9E6751" cx="164.337" cy="43.969" r="3.458"/>
				</g>
				<path fill="#513426" d="M158.458,27.026c9.163-4.841,10.479,17.8,14.523,11.93c5.36-7.78,2.248-11.411,2.248-11.411
					l-6.397-3.458l-6.916-1.729L158.458,27.026z"/>
				<ellipse fill="#9E6751" cx="169.005" cy="33.423" rx="2.075" ry="2.939"/>
			</g>
			<path fill="#9E6751" d="M183.182,60.567c3.804-0.692,6.57,5.36,4.322,21.266c-0.777,5.502-15.846,24.086-19.364,18.499
				c-2.939-4.668,4.322-7.78,4.322-7.78c-5.36,0.173-5.187-1.21-4.668-2.248c0.519-1.037,6.121,0.622,9.163-3.804
				c5.705-8.299,3.631-15.387,3.112-20.056S183.182,60.567,183.182,60.567z"/>
			<path fill="#E7AF04" d="M176.958,46.044c5.705,3.631,9.336,11.757,11.238,16.943l-10.201,4.668l-5.187-7.953L176.958,46.044z"/>
		</g>
		<path fill="#E7AF04" d="M158.458,43.451c-9.163,1.383-12.794,15.733-12.621,24.032l7.953-0.173L158.458,43.451z"/>
	</g>
</g>
<g id="Personnage_26_">
	<path fill="#F7CAB1" d="M195.038,148.862l-10.192,17.236l-4.646-1.948c0,0,0.45-14.089,6.145-17.836
		C192.04,142.567,195.038,148.862,195.038,148.862z"/>
	
		<ellipse transform="matrix(-0.9305 -0.3663 0.3663 -0.9305 290.7867 416.7427)" fill="#020304" cx="184.93" cy="180.784" rx="8.922" ry="3.541"/>
	<path fill="#020304" d="M187.638,178.07c-3.991-1.855-3.091-5.733-3.091-5.733s-0.337-0.618-2.979-1.574s-3.316,0.056-3.316,0.056
		s-1.686,4.721-1.686,7.082c0,2.361,5.171,2.81,5.171,2.81L187.638,178.07z"/>
	<path fill="#FFFFFF" d="M185.727,166.267l-1.855,6.464c0,0-0.843,0.843-2.866,0.225c-2.023-0.618-2.361-1.349-2.361-1.349
		l0.955-8.056L185.727,166.267z"/>
	<g>
		<path fill="#F7CAB1" d="M222.142,149.037l2.622,19.851l-4.858,1.335c0,0-8.343-11.361-6.176-17.825
			C215.898,145.935,222.142,149.037,222.142,149.037z"/>
		
			<ellipse transform="matrix(-0.9582 0.2862 -0.2862 -0.9582 509.6393 286.2841)" fill="#020304" cx="233.896" cy="180.39" rx="8.922" ry="3.541"/>
		<path fill="#020304" d="M234.35,176.583c-4.284,1.004-5.971-2.602-5.971-2.602s-0.647-0.278-3.315,0.601
			c-2.668,0.879-2.574,2.091-2.574,2.091s1.588,4.755,3.045,6.612c1.457,1.857,5.803-0.981,5.803-0.981L234.35,176.583z"/>
		<path fill="#FFFFFF" d="M225.561,168.478l2.531,6.23c0,0-0.143,1.184-2.116,1.946c-1.973,0.763-2.69,0.396-2.69,0.396
			l-4.221-6.928L225.561,168.478z"/>
	</g>
	<path fill="#F7CAB1" d="M217.418,87.869c-3.271,0.73-3.44,6.495,3.717,18.441c2.476,4.132,20.776,13.895,21.702,8.247
		c0.774-4.719-6.075-4.757-6.075-4.757c4.339-1.669,3.734-2.715,2.971-3.369c-0.764-0.654-4.679,2.56-8.601,0.051
		c-7.354-4.705-8.087-11.065-9.246-14.968C220.725,87.611,217.418,87.869,217.418,87.869z"/>
	<g>
		<polygon fill="#010202" points="217.52,120.835 225.463,149.312 210.775,153.658 201.333,125.781 206.579,113.041 		"/>
		<polygon fill="#010202" points="190.748,119.553 183.347,146.084 197.032,150.134 205.829,124.161 200.942,112.292 		"/>
		<path fill="#177274" d="M219.918,87.262c0-9.892-3.147-16.037-13.039-16.037c-9.892,0-16.786,5.246-17.686,14.688
			s0,35.521,0,35.521h30.875L219.918,87.262z"/>
		<g>
			<path fill="#E7AF04" d="M214.522,61.932c0,0,8.543-3.297,6.145-7.644c-2.398-4.346-16.187-3.747-22.032,2.098
				s2.698,12.44,5.695,12.44C207.328,68.827,214.522,61.932,214.522,61.932z"/>
			<g>
				<circle fill="#F7CAB1" cx="206.729" cy="64.031" r="8.093"/>
				<circle fill="#F7CAB1" cx="206.729" cy="72.424" r="2.998"/>
			</g>
			<path fill="#E7AF04" d="M211.824,57.736c-7.944-4.197-9.084,15.431-12.59,10.342c-4.646-6.745-1.948-9.892-1.948-9.892
				l5.546-2.998l5.995-1.499L211.824,57.736z"/>
			<ellipse fill="#F7CAB1" cx="202.682" cy="63.281" rx="1.799" ry="2.548"/>
		</g>
		<path fill="#F7CAB1" d="M190.392,86.812c-3.297-0.6-5.695,4.646-3.747,18.435c0.674,4.77,13.737,20.88,16.786,16.037
			c2.548-4.047-3.747-6.745-3.747-6.745c4.646,0.15,4.496-1.049,4.047-1.948c-0.45-0.899-5.306,0.539-7.944-3.297
			c-4.946-7.194-3.147-13.339-2.698-17.386C193.539,87.861,190.392,86.812,190.392,86.812z"/>
		<path fill="#177274" d="M195.787,74.222c-4.946,3.147-8.093,10.192-9.742,14.688l8.843,4.047l4.496-6.894L195.787,74.222z"/>
	</g>
	<path fill="#177274" d="M211.824,71.974c7.944,1.199,11.091,13.639,10.941,20.833l-6.894-0.15L211.824,71.974z"/>
</g>
<g id="Personnage_22_">
	<g>
		<path fill="#9E6751" d="M122.744,138.499l11.878,20.087l5.415-2.271c0,0-0.524-16.419-7.162-20.786
			C126.237,131.162,122.744,138.499,122.744,138.499z"/>
		
			<ellipse transform="matrix(0.9305 -0.3663 0.3663 0.9305 -55.0092 61.4872)" fill="#020304" cx="134.523" cy="175.701" rx="10.398" ry="4.127"/>
		<path fill="#020304" d="M131.368,172.538c4.651-2.162,3.603-6.681,3.603-6.681s0.393-0.721,3.472-1.834
			c3.079-1.114,3.865,0.066,3.865,0.066s1.965,5.502,1.965,8.253s-6.026,3.275-6.026,3.275L131.368,172.538z"/>
		<g>
			<path fill="#9E6751" d="M91.156,138.702L88.1,161.838l5.662,1.556c0,0,9.723-13.241,7.197-20.774S91.156,138.702,91.156,138.702z
				"/>
			
				<ellipse transform="matrix(0.9582 0.2862 -0.2862 0.9582 53.4012 -14.8389)" fill="#020304" cx="77.458" cy="175.242" rx="10.398" ry="4.127"/>
			<path fill="#020304" d="M76.928,170.806c4.993,1.17,6.959-3.032,6.959-3.032s0.754-0.324,3.863,0.7s3,2.437,3,2.437
				s-1.851,5.542-3.549,7.706c-1.698,2.164-6.763-1.143-6.763-1.143L76.928,170.806z"/>
			<path fill="#FFFFFF" d="M87.172,161.359l-2.949,7.26c0,0,0.166,1.38,2.466,2.268c2.3,0.889,3.135,0.462,3.135,0.462l4.92-8.074
				L87.172,161.359z"/>
		</g>
		<path fill="#9E6751" d="M128.158,66.184c3.843-0.699,6.638,5.415,4.367,21.485c-0.785,5.559-16.01,24.334-19.563,18.69
			c-2.969-4.716,4.367-7.86,4.367-7.86c-5.415,0.175-5.24-1.223-4.716-2.271c0.524-1.048,6.184,0.629,9.258-3.843
			c5.764-8.384,3.668-15.546,3.144-20.262C124.49,67.407,128.158,66.184,128.158,66.184z"/>
		<path fill="#E7AF04" d="M121.87,51.512c5.764,3.668,9.432,11.878,11.354,17.118l-10.306,4.716l-5.24-8.035L121.87,51.512z"/>
		<polygon fill="#083448" points="96.543,105.835 87.285,139.023 104.403,144.088 115.407,111.599 109.294,96.752 		"/>
		<polygon fill="#083448" points="127.743,104.341 136.368,135.261 120.42,139.981 110.167,109.711 115.863,95.879 		"/>
		<path fill="#E7AF04" d="M93.748,66.708c0-11.528,3.668-18.69,15.196-18.69s19.563,6.114,20.611,17.118
			c1.048,11.004,0,41.397,0,41.397H93.573L93.748,66.708z"/>
		<g>
			<g>
				<circle fill="#9E6751" cx="112.263" cy="39.634" r="9.432"/>
				<circle fill="#9E6751" cx="112.263" cy="49.416" r="3.493"/>
			</g>
			<path fill="#664533" d="M106.324,32.298c9.258-4.891,10.587,17.983,14.672,12.052c5.415-7.86,2.271-11.528,2.271-11.528
				l-6.463-3.493l-6.987-1.747L106.324,32.298z"/>
			<ellipse fill="#E2AB85" cx="116.979" cy="38.761" rx="2.096" ry="2.969"/>
			<path fill="#513426" d="M103.18,37.189c0,0-9.956-3.843-7.162-8.908c2.795-5.065,18.865-4.367,25.677,2.445
				s-3.144,14.498-6.638,14.498S103.18,37.189,103.18,37.189z"/>
		</g>
		<path fill="#9E6751" d="M96.662,67.416c3.812,0.851,4.009,7.57-4.332,21.492c-2.885,4.816-24.212,16.193-25.291,9.611
			c-0.902-5.5,7.08-5.543,7.08-5.543c-5.057-1.945-4.352-3.164-3.462-3.926c0.89-0.762,5.452,2.984,10.023,0.06
			c8.571-5.483,9.425-12.896,10.776-17.445C92.807,67.116,96.662,67.416,96.662,67.416z"/>
		<path fill="#E7AF04" d="M103.18,48.892c-9.258,1.397-12.926,15.895-12.751,24.279l10.131-0.175L103.18,48.892z"/>
	</g>
	<path fill="#FFFFFF" d="M133.672,158.258l2.162,7.533c0,0,0.983,0.983,3.341,0.262c2.358-0.721,2.751-1.572,2.751-1.572
		l-1.114-9.389L133.672,158.258z"/>
</g>
<g id="Personnage_21_">
	<path fill="#E2AB85" d="M161.351,185.419l11.26,19.042l5.133-2.153c0,0-0.497-15.565-6.789-19.705S161.351,185.419,161.351,185.419
		z"/>
	
		<ellipse transform="matrix(0.9305 -0.3663 0.3663 0.9305 -68.8462 78.5311)" fill="#020304" cx="172.518" cy="220.686" rx="9.857" ry="3.912"/>
	<path fill="#020304" d="M169.527,217.687c4.409-2.049,3.415-6.334,3.415-6.334s0.373-0.683,3.291-1.739
		c2.918-1.056,3.664,0.062,3.664,0.062s1.863,5.216,1.863,7.824c0,2.608-5.713,3.105-5.713,3.105L169.527,217.687z"/>
	<path fill="#FFFFFF" d="M171.638,204.647l2.049,7.141c0,0,0.931,0.931,3.167,0.248c2.235-0.683,2.608-1.49,2.608-1.49l-1.056-8.9
		L171.638,204.647z"/>
	<g>
		<path fill="#E2AB85" d="M131.407,185.612l-2.897,21.932l5.367,1.475c0,0,9.218-12.552,6.823-19.693
			S131.407,185.612,131.407,185.612z"/>
		
			<ellipse transform="matrix(0.9582 0.2862 -0.2862 0.9582 67.9981 -24.6809)" fill="#020304" cx="118.422" cy="220.251" rx="9.857" ry="3.912"/>
		<path fill="#020304" d="M117.92,216.045c4.733,1.109,6.597-2.875,6.597-2.875s0.715-0.307,3.662,0.664
			c2.948,0.971,2.844,2.31,2.844,2.31s-1.754,5.253-3.364,7.305s-6.411-1.084-6.411-1.084L117.92,216.045z"/>
		<path fill="#FFFFFF" d="M127.63,207.09l-2.796,6.883c0,0,0.158,1.308,2.338,2.15c2.18,0.843,2.972,0.438,2.972,0.438l4.664-7.654
			L127.63,207.09z"/>
	</g>
	<path fill="#E2AB85" d="M136.627,118.034c3.614,0.806,3.801,7.176-4.106,20.374c-2.735,4.565-22.953,15.351-23.976,9.111
		c-0.855-5.214,6.711-5.255,6.711-5.255c-4.794-1.844-4.126-3-3.282-3.722s5.169,2.828,9.502,0.057
		c8.125-5.198,8.934-12.225,10.215-16.537C132.972,117.75,136.627,118.034,136.627,118.034z"/>
	<g>
		<polygon fill="#475768" points="136.514,154.454 127.738,185.916 143.965,190.718 154.397,159.919 148.601,145.844 		"/>
		<polygon fill="#475768" points="166.091,153.038 174.267,182.35 159.148,186.824 149.429,158.129 154.829,145.016 		"/>
		<path fill="#E21A1B" d="M133.864,117.364c0-10.929,3.477-17.718,14.406-17.718s18.545,5.795,19.539,16.227
			c0.994,10.432,0,39.244,0,39.244h-34.11L133.864,117.364z"/>
		<g>
			<path fill="#020304" d="M139.825,89.38c0,0-9.438-3.643-6.789-8.445s17.883-4.14,24.341,2.318
				c6.458,6.458-2.981,13.744-6.292,13.744S139.825,89.38,139.825,89.38z"/>
			<g>
				<circle fill="#E2AB85" cx="148.436" cy="91.698" r="8.942"/>
				<circle fill="#E2AB85" cx="148.436" cy="100.971" r="3.312"/>
			</g>
			<path fill="#020304" d="M142.806,84.743c8.776-4.636,10.036,17.048,13.909,11.425c5.133-7.451,2.153-10.929,2.153-10.929
				l-6.127-3.312l-6.623-1.656L142.806,84.743z"/>
			<ellipse fill="#E2AB85" cx="152.907" cy="90.87" rx="1.987" ry="2.815"/>
		</g>
		<path fill="#E2AB85" d="M166.484,116.867c3.643-0.662,6.292,5.133,4.14,20.367c-0.745,5.27-15.177,23.068-18.545,17.718
			c-2.815-4.471,4.14-7.451,4.14-7.451c-5.133,0.166-4.968-1.159-4.471-2.153c0.497-0.993,5.862,0.596,8.776-3.643
			c5.464-7.948,3.477-14.737,2.981-19.208C163.007,118.026,166.484,116.867,166.484,116.867z"/>
		<path fill="#E21A1B" d="M160.523,102.958c5.464,3.477,8.942,11.26,10.763,16.227l-9.769,4.471l-4.968-7.617L160.523,102.958z"/>
	</g>
	<path fill="#E21A1B" d="M142.806,100.474c-8.776,1.325-12.253,15.068-12.088,23.016l7.617-0.166L142.806,100.474z"/>
</g>
</svg>
