<?xml version="1.0" encoding="utf-8"?>
<!-- Generator: Adobe Illustrator 17.0.0, SVG Export Plug-In . SVG Version: 6.00 Build 0)  -->
<!DOCTYPE svg PUBLIC "-//W3C//DTD SVG 1.1//EN" "http://www.w3.org/Graphics/SVG/1.1/DTD/svg11.dtd">
<svg version="1.1" id="Calque_1" xmlns="http://www.w3.org/2000/svg" xmlns:xlink="http://www.w3.org/1999/xlink" x="0px" y="0px"
	 width="274px" height="258px" viewBox="-8.833 -10.167 274 258" enable-background="new -8.833 -10.167 274 258"
	 xml:space="preserve">
<g display="none">
	<polygon display="inline" fill="#494949" points="261.697,182.324 91.167,88.5 -66.333,190.338 -66.333,188.666 -81.333,188.666 
		-81.333,198.666 -81.288,198.666 -81.411,198.955 89.209,294.387 261.776,192.778 	"/>
	<polygon display="inline" fill="#525251" points="91.167,88.5 -81.411,188.737 89.208,283.626 261.667,181.667 	"/>
	
		<linearGradient id="SVGID_1_" gradientUnits="userSpaceOnUse" x1="142.8495" y1="-76.3124" x2="308.3052" y2="140.5469" gradientTransform="matrix(1 0 0 -1 -101 172.167)">
		<stop  offset="0.0089" style="stop-color:#FFFFFF;stop-opacity:0"/>
		<stop  offset="0.7006" style="stop-color:#FFFFFF"/>
	</linearGradient>
	<polygon display="inline" opacity="0.15" fill="url(#SVGID_1_)" enable-background="new    " points="91.167,88.5 -81.411,188.737 
		86.6,282.321 261.667,181.667 	"/>
</g>
<path fill="#E2AB85" d="M127.452,107.355l11.26,19.042l5.133-2.153c0,0-0.497-15.565-6.789-19.705S127.452,107.355,127.452,107.355z
	"/>
<ellipse transform="matrix(0.9305 -0.3663 0.3663 0.9305 -42.6077 60.6882)" fill="#020304" cx="138.619" cy="142.622" rx="9.857" ry="3.912"/>
<path fill="#020304" d="M135.628,139.623c4.409-2.049,3.415-6.334,3.415-6.334s0.373-0.683,3.291-1.739
	c2.918-1.056,3.664,0.062,3.664,0.062s1.863,5.216,1.863,7.824s-5.713,3.105-5.713,3.105L135.628,139.623z"/>
<path fill="#FFFFFF" d="M137.739,126.583l2.049,7.141c0,0,0.931,0.931,3.167,0.248c2.235-0.683,2.608-1.49,2.608-1.49l-1.056-8.9
	L137.739,126.583z"/>
<g>
	<path fill="#E2AB85" d="M97.508,107.548l-2.897,21.932l5.367,1.475c0,0,9.218-12.552,6.823-19.693S97.508,107.548,97.508,107.548z"
		/>
	
		<ellipse transform="matrix(0.9582 0.2862 -0.2862 0.9582 44.2352 -18.244)" fill="#020304" cx="84.522" cy="142.187" rx="9.857" ry="3.912"/>
	<path fill="#020304" d="M84.02,137.981c4.733,1.109,6.597-2.875,6.597-2.875s0.715-0.307,3.662,0.664
		c2.948,0.971,2.844,2.31,2.844,2.31s-1.754,5.253-3.364,7.305c-1.61,2.052-6.411-1.084-6.411-1.084L84.02,137.981z"/>
	<path fill="#FFFFFF" d="M93.731,129.026l-2.796,6.883c0,0,0.158,1.308,2.338,2.15c2.18,0.843,2.972,0.438,2.972,0.438l4.664-7.654
		L93.731,129.026z"/>
</g>
<path fill="#E2AB85" d="M102.727,39.97c3.614,0.806,3.801,7.176-4.106,20.374c-2.735,4.565-22.953,15.351-23.976,9.111
	c-0.855-5.214,6.711-5.255,6.711-5.255c-4.794-1.844-4.126-3-3.282-3.722s5.169,2.828,9.502,0.057
	c8.125-5.198,8.934-12.225,10.215-16.537S102.727,39.97,102.727,39.97z"/>
<g>
	<polygon fill="#475768" points="102.614,76.39 93.838,107.852 110.066,112.654 120.497,81.855 114.702,67.78 	"/>
	<polygon fill="#475768" points="132.191,74.974 140.368,104.286 125.249,108.76 115.53,80.065 120.929,66.952 	"/>
	<path fill="#E21A1B" d="M99.965,39.3c0-10.929,3.477-17.718,14.406-17.718s18.545,5.795,19.539,16.227
		c0.994,10.432,0,39.244,0,39.244h-34.11L99.965,39.3z"/>
	<g>
		<path fill="#020304" d="M105.926,11.316c0,0-9.438-3.643-6.789-8.445c2.649-4.802,17.883-4.14,24.341,2.318
			s-2.981,13.744-6.292,13.744C113.874,18.933,105.926,11.316,105.926,11.316z"/>
		<g>
			<circle fill="#E2AB85" cx="114.536" cy="13.634" r="8.942"/>
			<circle fill="#E2AB85" cx="114.536" cy="22.907" r="3.312"/>
		</g>
		<path fill="#020304" d="M108.906,6.679c8.776-4.636,10.036,17.048,13.909,11.425c5.133-7.451,2.153-10.929,2.153-10.929
			l-6.127-3.312l-6.623-1.656L108.906,6.679z"/>
		<ellipse fill="#E2AB85" cx="119.007" cy="12.806" rx="1.987" ry="2.815"/>
	</g>
	<path fill="#E2AB85" d="M132.585,38.803c3.643-0.662,6.292,5.133,4.14,20.367c-0.745,5.27-15.177,23.068-18.545,17.718
		c-2.815-4.471,4.14-7.451,4.14-7.451c-5.133,0.166-4.968-1.159-4.471-2.153c0.497-0.994,5.862,0.596,8.776-3.643
		c5.464-7.948,3.477-14.737,2.981-19.208C129.108,39.962,132.585,38.803,132.585,38.803z"/>
	<path fill="#E21A1B" d="M126.624,24.894c5.464,3.477,8.942,11.26,10.763,16.227l-9.769,4.471l-4.968-7.617L126.624,24.894z"/>
</g>
<path fill="#E21A1B" d="M108.906,22.41c-8.776,1.325-12.253,15.068-12.088,23.016l7.617-0.166L108.906,22.41z"/>
<g>
	<path fill="#020304" d="M48.667,29l32-0.5c0,0,6.833-30.5-11.5-31.5C50.167-3.5,49.167,16.5,48.667,29z"/>
	<g id="Personnage_25_">
		<g>
			<path fill="#664533" d="M54.02,106.103L42.799,125.08l-5.115-2.145c0,0,0.495-15.511,6.765-19.636S54.02,106.103,54.02,106.103z"
				/>
			
				<ellipse transform="matrix(-0.9305 -0.3663 0.3663 -0.9305 31.0629 288.3903)" fill="#020304" cx="42.891" cy="141.248" rx="9.823" ry="3.898"/>
			<path fill="#020304" d="M45.872,138.26c-4.393-2.042-3.403-6.312-3.403-6.312s-0.371-0.681-3.28-1.733
				c-2.908-1.052-3.651,0.062-3.651,0.062s-1.856,5.198-1.856,7.797c0,2.599,5.693,3.094,5.693,3.094L45.872,138.26z"/>
			<path fill="#FFFFFF" d="M43.768,125.265l-2.042,7.116c0,0-0.928,0.928-3.156,0.248c-2.228-0.681-2.599-1.485-2.599-1.485
				l1.052-8.869L43.768,125.265z"/>
			<g>
				<path fill="#664533" d="M83.167,104l3.58,24.152l-5.349,1.47c0,0-9.879-14.804-7.493-21.921
					C76.292,100.585,83.167,104,83.167,104z"/>
				
					<ellipse transform="matrix(-0.9582 0.2862 -0.2862 -0.9582 229.8569 248.03)" fill="#020304" cx="96.801" cy="140.815" rx="9.823" ry="3.898"/>
				<path fill="#020304" d="M97.301,136.624c-4.717,1.106-6.574-2.865-6.574-2.865s-0.712-0.306-3.65,0.661
					c-2.937,0.968-2.834,2.302-2.834,2.302s1.748,5.235,3.353,7.28c1.604,2.045,6.389-1.08,6.389-1.08L97.301,136.624z"/>
				<path fill="#FFFFFF" d="M87.624,127.699l2.786,6.859c0,0-0.157,1.303-2.33,2.143c-2.173,0.84-2.961,0.436-2.961,0.436
					l-4.648-7.627L87.624,127.699z"/>
			</g>
			<path fill="#664533" d="M78.659,38.952c-3.601,0.804-3.788,7.151,4.092,20.303c2.726,4.549,22.873,15.297,23.893,9.08
				c0.852-5.195-6.688-5.237-6.688-5.237c4.777-1.837,4.112-2.989,3.27-3.709c-0.841-0.72-5.151,2.819-9.469,0.056
				c-8.097-5.18-8.903-12.183-10.18-16.48S78.659,38.952,78.659,38.952z"/>
			<g>
				<path fill="#D4D5D5" d="M86.712,103.712l-7.94-28.466l-12.046-8.581l-2.933,7.123l-3.273-7.948l-11.223,7.994l-8.148,29.21
					C41.149,103.045,64.562,111.31,86.712,103.712z"/>
				<path fill="#86A52B" d="M81.411,38.284c0-10.891-3.465-17.656-14.356-17.656s-18.481,5.775-19.471,16.171s0,39.108,0,39.108
					h33.992L81.411,38.284z"/>
				<g>
					<circle fill="#664533" cx="66.89" cy="12.707" r="8.911"/>
					<circle fill="#664533" cx="66.89" cy="21.948" r="3.3"/>
				</g>
				<path fill="#020304" d="M72.501,5.777C63.755,1.157,62.5,22.765,58.64,17.163c-5.115-7.425-2.145-10.891-2.145-10.891l6.105-3.3
					l6.6-1.65L72.501,5.777z"/>
				<ellipse fill="#664533" cx="62.435" cy="11.882" rx="1.98" ry="2.805"/>
				<path fill="#664533" d="M48.904,37.789c-3.63-0.66-6.27,5.115-4.125,20.296c0.742,5.251,15.124,22.988,18.481,17.656
					c2.805-4.455-4.125-7.425-4.125-7.425c5.115,0.165,4.95-1.155,4.455-2.145c-0.495-0.99-5.842,0.594-8.746-3.63
					c-5.445-7.921-3.465-14.686-2.97-19.141S48.904,37.789,48.904,37.789z"/>
				<path fill="#86A52B" d="M54.845,23.928c-5.445,3.465-8.911,11.221-10.726,16.171l9.736,4.455l4.95-7.59L54.845,23.928z"/>
			</g>
			<path fill="#86A52B" d="M72.501,21.453c8.746,1.32,12.211,15.016,12.046,22.936l-7.59-0.165L72.501,21.453z"/>
		</g>
	</g>
</g>
<g>
	<path fill="#513426" d="M236.766,75.992c1.14,7.122,2.564-2.564,4.843-8.262c2.279-5.698-2.279-5.983-5.698-13.105
		s-0.57-9.116-8.831-12.535s-10.613-1.029-13.675,1.994c-4.273,5.698-4.273,12.535-8.547,17.663s0.57,5.413-0.57,10.826
		c-1.14,5.413,12.25,2.849,18.518,1.709C229.074,73.143,236.766,75.992,236.766,75.992z"/>
	<path fill="#020304" d="M242.197,176.467c4.243-1.972,3.286-6.095,3.286-6.095s0.359-0.657,3.167-1.673s3.525,0.06,3.525,0.06
		s1.793,5.019,1.793,7.529s-5.497,2.988-5.497,2.988L242.197,176.467z"/>
	<g>
		<path fill="#9E6751" d="M234.329,145.13l10.835,18.325l4.94-2.071c0,0-0.478-14.978-6.533-18.962
			C237.516,138.437,234.329,145.13,234.329,145.13z"/>
		
			<ellipse transform="matrix(0.9305 -0.3663 0.3663 0.9305 -48.5588 102.2159)" fill="#020304" cx="245.075" cy="179.068" rx="9.485" ry="3.765"/>
		<path fill="#FFFFFF" d="M244.228,163.634l1.972,6.872c0,0,0.896,0.896,3.047,0.239c2.151-0.657,2.51-1.434,2.51-1.434
			l-1.016-8.565L244.228,163.634z"/>
		<g>
			<path fill="#9E6751" d="M205.887,143.355l-3.161,23.066l5.165,1.42c0,0,9.244-14.04,6.939-20.912
				S205.887,143.355,205.887,143.355z"/>
			
				<ellipse transform="matrix(0.9582 0.2862 -0.2862 0.9582 59.2113 -47.7733)" fill="#020304" cx="193.017" cy="178.649" rx="9.485" ry="3.765"/>
			<path fill="#020304" d="M192.534,174.602c4.555,1.068,6.348-2.766,6.348-2.766s0.688-0.296,3.524,0.639
				c2.837,0.935,2.737,2.223,2.737,2.223s-1.688,5.055-3.237,7.03c-1.549,1.974-6.169-1.043-6.169-1.043L192.534,174.602z"/>
			<path fill="#FFFFFF" d="M201.879,165.984l-2.691,6.623c0,0,0.152,1.258,2.25,2.069c2.098,0.811,2.86,0.421,2.86,0.421
				l4.488-7.365L201.879,165.984z"/>
		</g>
		<path fill="#9E6751" d="M210.536,80.285c3.478,0.776,3.658,6.906-3.952,19.606c-2.632,4.393-22.088,14.772-23.072,8.768
			c-0.823-5.017,6.458-5.057,6.458-5.057c-4.613-1.774-3.97-2.887-3.158-3.581c0.812-0.695,4.974,2.722,9.144,0.054
			c7.819-5.002,8.598-11.764,9.83-15.914C207.019,80.011,210.536,80.285,210.536,80.285z"/>
		<g>
			<path fill="#083448" d="M246.758,142.176l-7.868-28.207l-10.837-7.72l-3.16,7.675l-2.832-6.878l-11.632,8.286l-7.986,28.629
				C202.441,143.962,233.674,150.244,246.758,142.176z"/>
			<path fill="#E7AF04" d="M207.878,79.639c0-10.517,3.346-17.05,13.863-17.05s17.847,5.577,18.803,15.616
				c0.956,10.039,0,37.765,0,37.765h-32.825L207.878,79.639z"/>
			<g>
				<g>
					<circle fill="#9E6751" cx="221.9" cy="54.941" r="8.605"/>
					<circle fill="#9E6751" cx="221.9" cy="63.864" r="3.187"/>
				</g>
				<path fill="#513426" d="M216.482,48.248c8.445-4.462,9.658,16.405,13.385,10.995c4.94-7.17,2.071-10.517,2.071-10.517
					l-5.896-3.187l-6.374-1.593L216.482,48.248z"/>
				<ellipse fill="#9E6751" cx="226.202" cy="54.144" rx="1.912" ry="2.709"/>
			</g>
			<path fill="#9E6751" d="M239.269,79.161c3.506-0.637,6.055,4.94,3.984,19.599c-0.717,5.071-14.605,22.199-17.847,17.05
				c-2.709-4.302,3.984-7.17,3.984-7.17c-4.94,0.159-4.78-1.115-4.302-2.071c0.478-0.956,5.641,0.573,8.445-3.506
				c5.258-7.649,3.346-14.182,2.868-18.484C235.922,80.277,239.269,79.161,239.269,79.161z"/>
			<path fill="#E7AF04" d="M233.532,65.776c5.258,3.346,8.605,10.835,10.357,15.616l-9.401,4.302l-4.78-7.33L233.532,65.776z"/>
		</g>
		<path fill="#E7AF04" d="M216.482,63.386c-8.445,1.275-11.791,14.5-11.632,22.149l7.33-0.159L216.482,63.386z"/>
	</g>
</g>
<line fill="none" stroke="#000000" stroke-miterlimit="10" x1="-331.526" y1="262.051" x2="-114.526" y2="382.051"/>
<g>
	<path fill="#020304" d="M186.359,165.837c4.603-2.14,3.566-6.613,3.566-6.613s0.389-0.713,3.436-1.815s3.825,0.065,3.825,0.065
		s1.945,5.446,1.945,8.169s-5.965,3.242-5.965,3.242L186.359,165.837z"/>
	<g>
		<path fill="#9E6751" d="M177.822,132.144l11.757,19.883l5.36-2.248c0,0-0.519-16.252-7.089-20.574
			C181.28,124.883,177.822,132.144,177.822,132.144z"/>
		
			<ellipse transform="matrix(0.9305 -0.3663 0.3663 0.9305 -48.7231 81.1504)" fill="#020304" cx="189.482" cy="168.968" rx="10.292" ry="4.085"/>
		<path fill="#FFFFFF" d="M188.563,152.221l2.14,7.456c0,0,0.973,0.973,3.307,0.259s2.723-1.556,2.723-1.556l-1.102-9.293
			L188.563,152.221z"/>
		<g>
			<path fill="#9E6751" d="M146.556,132.346l-3.025,22.9l5.604,1.54c0,0,9.624-13.106,7.124-20.562
				C153.759,128.768,146.556,132.346,146.556,132.346z"/>
			
				<ellipse transform="matrix(0.9582 0.2862 -0.2862 0.9582 53.799 -31.0179)" fill="#020304" cx="132.998" cy="168.514" rx="10.292" ry="4.085"/>
			<path fill="#020304" d="M132.474,164.122c4.942,1.158,6.888-3.001,6.888-3.001s0.746-0.321,3.824,0.693
				c3.078,1.014,2.969,2.412,2.969,2.412s-1.832,5.485-3.513,7.628c-1.681,2.142-6.694-1.132-6.694-1.132L132.474,164.122z"/>
			<path fill="#FFFFFF" d="M142.613,154.772l-2.919,7.187c0,0,0.165,1.365,2.441,2.245s3.103,0.457,3.103,0.457l4.87-7.991
				L142.613,154.772z"/>
		</g>
		<path fill="#9E6751" d="M152.006,61.786c3.773,0.842,3.969,7.493-4.287,21.273c-2.856,4.767-23.966,16.028-25.034,9.513
			c-0.893-5.444,7.008-5.487,7.008-5.487c-5.005-1.925-4.308-3.132-3.427-3.886c0.881-0.754,5.397,2.953,9.921,0.059
			c8.484-5.427,9.329-12.764,10.666-17.267C148.191,61.489,152.006,61.786,152.006,61.786z"/>
		<g>
			<polygon fill="#083448" points="151.888,99.813 142.725,132.663 159.669,137.677 170.561,105.519 164.51,90.823 			"/>
			<polygon fill="#083448" points="182.771,98.335 191.308,128.94 175.522,133.611 165.374,103.65 171.012,89.959 			"/>
			<path fill="#E7AF04" d="M149.122,61.086c0-11.411,3.631-18.499,15.042-18.499s19.364,6.051,20.401,16.943s0,40.975,0,40.975
				h-35.616L149.122,61.086z"/>
			<g>
				<path fill="#513426" d="M155.346,31.867c0,0-9.855-3.804-7.089-8.818s18.672-4.322,25.415,2.42s-3.112,14.35-6.57,14.35
					C163.645,39.82,155.346,31.867,155.346,31.867z"/>
				<g>
					<circle fill="#9E6751" cx="164.337" cy="34.287" r="9.336"/>
					<circle fill="#9E6751" cx="164.337" cy="43.969" r="3.458"/>
				</g>
				<path fill="#513426" d="M158.458,27.026c9.163-4.841,10.479,17.8,14.523,11.93c5.36-7.78,2.248-11.411,2.248-11.411
					l-6.397-3.458l-6.916-1.729L158.458,27.026z"/>
				<ellipse fill="#9E6751" cx="169.005" cy="33.423" rx="2.075" ry="2.939"/>
			</g>
			<path fill="#9E6751" d="M183.182,60.567c3.804-0.692,6.57,5.36,4.322,21.266c-0.777,5.502-15.846,24.086-19.364,18.499
				c-2.939-4.668,4.322-7.78,4.322-7.78c-5.36,0.173-5.187-1.21-4.668-2.248c0.519-1.037,6.121,0.622,9.163-3.804
				c5.705-8.299,3.631-15.387,3.112-20.056S183.182,60.567,183.182,60.567z"/>
			<path fill="#E7AF04" d="M176.958,46.044c5.705,3.631,9.336,11.757,11.238,16.943l-10.201,4.668l-5.187-7.953L176.958,46.044z"/>
		</g>
		<path fill="#E7AF04" d="M158.458,43.451c-9.163,1.383-12.794,15.733-12.621,24.032l7.953-0.173L158.458,43.451z"/>
	</g>
</g>
<g id="Personnage_26_">
	<path fill="#F7CAB1" d="M187.038,152.862l-10.192,17.236l-4.646-1.948c0,0,0.45-14.089,6.145-17.836
		C184.04,146.567,187.038,152.862,187.038,152.862z"/>
	
		<ellipse transform="matrix(-0.9305 -0.3663 0.3663 -0.9305 273.8775 421.5343)" fill="#020304" cx="176.93" cy="184.784" rx="8.922" ry="3.541"/>
	<path fill="#020304" d="M179.638,182.07c-3.991-1.855-3.091-5.733-3.091-5.733s-0.337-0.618-2.979-1.574s-3.316,0.056-3.316,0.056
		s-1.686,4.721-1.686,7.082c0,2.361,5.171,2.81,5.171,2.81L179.638,182.07z"/>
	<path fill="#FFFFFF" d="M177.727,170.267l-1.855,6.464c0,0-0.843,0.843-2.866,0.225c-2.023-0.618-2.361-1.349-2.361-1.349
		l0.955-8.056L177.727,170.267z"/>
	<g>
		<path fill="#F7CAB1" d="M214.142,153.037l2.622,19.851l-4.858,1.335c0,0-8.343-11.361-6.176-17.825
			C207.898,149.935,214.142,153.037,214.142,153.037z"/>
		
			<ellipse transform="matrix(-0.9582 0.2862 -0.2862 -0.9582 495.1189 296.4066)" fill="#020304" cx="225.896" cy="184.39" rx="8.922" ry="3.541"/>
		<path fill="#020304" d="M226.35,180.583c-4.284,1.004-5.971-2.602-5.971-2.602s-0.647-0.278-3.315,0.601
			c-2.668,0.879-2.574,2.091-2.574,2.091s1.588,4.755,3.045,6.612c1.457,1.857,5.803-0.981,5.803-0.981L226.35,180.583z"/>
		<path fill="#FFFFFF" d="M217.561,172.478l2.531,6.23c0,0-0.143,1.184-2.116,1.946c-1.973,0.763-2.69,0.396-2.69,0.396
			l-4.221-6.928L217.561,172.478z"/>
	</g>
	<path fill="#F7CAB1" d="M209.418,91.869c-3.271,0.73-3.44,6.495,3.717,18.441c2.476,4.132,20.776,13.895,21.702,8.247
		c0.774-4.719-6.075-4.757-6.075-4.757c4.339-1.669,3.734-2.715,2.971-3.369c-0.764-0.654-4.679,2.56-8.601,0.051
		c-7.354-4.705-8.087-11.065-9.246-14.968C212.725,91.611,209.418,91.869,209.418,91.869z"/>
	<g>
		<polygon fill="#010202" points="209.52,124.835 217.463,153.312 202.775,157.658 193.333,129.781 198.579,117.041 		"/>
		<polygon fill="#010202" points="182.748,123.553 175.347,150.084 189.032,154.134 197.829,128.161 192.942,116.292 		"/>
		<path fill="#177274" d="M211.918,91.262c0-9.892-3.147-16.037-13.039-16.037c-9.892,0-16.786,5.246-17.686,14.688
			s0,35.521,0,35.521h30.875L211.918,91.262z"/>
		<g>
			<path fill="#E7AF04" d="M206.522,65.932c0,0,8.543-3.297,6.145-7.644c-2.398-4.346-16.187-3.747-22.032,2.098
				s2.698,12.44,5.695,12.44C199.328,72.827,206.522,65.932,206.522,65.932z"/>
			<g>
				<circle fill="#F7CAB1" cx="198.729" cy="68.031" r="8.093"/>
				<circle fill="#F7CAB1" cx="198.729" cy="76.424" r="2.998"/>
			</g>
			<path fill="#E7AF04" d="M203.824,61.736c-7.944-4.197-9.084,15.431-12.59,10.342c-4.646-6.745-1.948-9.892-1.948-9.892
				l5.546-2.998l5.995-1.499L203.824,61.736z"/>
			<ellipse fill="#F7CAB1" cx="194.682" cy="67.281" rx="1.799" ry="2.548"/>
		</g>
		<path fill="#F7CAB1" d="M182.392,90.812c-3.297-0.6-5.695,4.646-3.747,18.435c0.674,4.77,13.737,20.88,16.786,16.037
			c2.548-4.047-3.747-6.745-3.747-6.745c4.646,0.15,4.496-1.049,4.047-1.948c-0.45-0.899-5.306,0.539-7.944-3.297
			c-4.946-7.194-3.147-13.339-2.698-17.386C185.539,91.861,182.392,90.812,182.392,90.812z"/>
		<path fill="#177274" d="M187.787,78.222c-4.946,3.147-8.093,10.192-9.742,14.688l8.843,4.047l4.496-6.894L187.787,78.222z"/>
	</g>
	<path fill="#177274" d="M203.824,75.974c7.944,1.199,11.091,13.639,10.941,20.833l-6.894-0.15L203.824,75.974z"/>
</g>
<g id="Personnage_22_">
	<g>
		<path fill="#9E6751" d="M122.744,138.499l11.878,20.087l5.415-2.271c0,0-0.524-16.419-7.162-20.786
			C126.237,131.162,122.744,138.499,122.744,138.499z"/>
		
			<ellipse transform="matrix(0.9305 -0.3663 0.3663 0.9305 -55.0092 61.4872)" fill="#020304" cx="134.523" cy="175.701" rx="10.398" ry="4.127"/>
		<path fill="#020304" d="M131.368,172.538c4.651-2.162,3.603-6.681,3.603-6.681s0.393-0.721,3.472-1.834
			c3.079-1.114,3.865,0.066,3.865,0.066s1.965,5.502,1.965,8.253s-6.026,3.275-6.026,3.275L131.368,172.538z"/>
		<g>
			<path fill="#9E6751" d="M91.156,138.702L88.1,161.838l5.662,1.556c0,0,9.723-13.241,7.197-20.774S91.156,138.702,91.156,138.702z
				"/>
			
				<ellipse transform="matrix(0.9582 0.2862 -0.2862 0.9582 53.4012 -14.8389)" fill="#020304" cx="77.458" cy="175.242" rx="10.398" ry="4.127"/>
			<path fill="#020304" d="M76.928,170.806c4.993,1.17,6.959-3.032,6.959-3.032s0.754-0.324,3.863,0.7s3,2.437,3,2.437
				s-1.851,5.542-3.549,7.706c-1.698,2.164-6.763-1.143-6.763-1.143L76.928,170.806z"/>
			<path fill="#FFFFFF" d="M87.172,161.359l-2.949,7.26c0,0,0.166,1.38,2.466,2.268c2.3,0.889,3.135,0.462,3.135,0.462l4.92-8.074
				L87.172,161.359z"/>
		</g>
		<path fill="#9E6751" d="M128.158,66.184c3.843-0.699,6.638,5.415,4.367,21.485c-0.785,5.559-16.01,24.334-19.563,18.69
			c-2.969-4.716,4.367-7.86,4.367-7.86c-5.415,0.175-5.24-1.223-4.716-2.271c0.524-1.048,6.184,0.629,9.258-3.843
			c5.764-8.384,3.668-15.546,3.144-20.262C124.49,67.407,128.158,66.184,128.158,66.184z"/>
		<path fill="#E7AF04" d="M121.87,51.512c5.764,3.668,9.432,11.878,11.354,17.118l-10.306,4.716l-5.24-8.035L121.87,51.512z"/>
		<polygon fill="#083448" points="96.543,105.835 87.285,139.023 104.403,144.088 115.407,111.599 109.294,96.752 		"/>
		<polygon fill="#083448" points="127.743,104.341 136.368,135.261 120.42,139.981 110.167,109.711 115.863,95.879 		"/>
		<path fill="#E7AF04" d="M93.748,66.708c0-11.528,3.668-18.69,15.196-18.69s19.563,6.114,20.611,17.118
			c1.048,11.004,0,41.397,0,41.397H93.573L93.748,66.708z"/>
		<g>
			<g>
				<circle fill="#9E6751" cx="112.263" cy="39.634" r="9.432"/>
				<circle fill="#9E6751" cx="112.263" cy="49.416" r="3.493"/>
			</g>
			<path fill="#664533" d="M106.324,32.298c9.258-4.891,10.587,17.983,14.672,12.052c5.415-7.86,2.271-11.528,2.271-11.528
				l-6.463-3.493l-6.987-1.747L106.324,32.298z"/>
			<ellipse fill="#E2AB85" cx="116.979" cy="38.761" rx="2.096" ry="2.969"/>
			<path fill="#513426" d="M103.18,37.189c0,0-9.956-3.843-7.162-8.908c2.795-5.065,18.865-4.367,25.677,2.445
				s-3.144,14.498-6.638,14.498S103.18,37.189,103.18,37.189z"/>
		</g>
		<path fill="#9E6751" d="M96.662,67.416c3.812,0.851,4.009,7.57-4.332,21.492c-2.885,4.816-24.212,16.193-25.291,9.611
			c-0.902-5.5,7.08-5.543,7.08-5.543c-5.057-1.945-4.352-3.164-3.462-3.926c0.89-0.762,5.452,2.984,10.023,0.06
			c8.571-5.483,9.425-12.896,10.776-17.445C92.807,67.116,96.662,67.416,96.662,67.416z"/>
		<path fill="#E7AF04" d="M103.18,48.892c-9.258,1.397-12.926,15.895-12.751,24.279l10.131-0.175L103.18,48.892z"/>
	</g>
	<path fill="#FFFFFF" d="M133.672,158.258l2.162,7.533c0,0,0.983,0.983,3.341,0.262c2.358-0.721,2.751-1.572,2.751-1.572
		l-1.114-9.389L133.672,158.258z"/>
</g>
<g id="Personnage_21_">
	<path fill="#E2AB85" d="M185.351,170.419l11.26,19.042l5.133-2.153c0,0-0.497-15.565-6.789-19.705S185.351,170.419,185.351,170.419
		z"/>
	
		<ellipse transform="matrix(0.9305 -0.3663 0.3663 0.9305 -61.6837 86.2797)" fill="#020304" cx="196.518" cy="205.686" rx="9.857" ry="3.912"/>
	<path fill="#020304" d="M193.527,202.687c4.409-2.049,3.415-6.334,3.415-6.334s0.373-0.683,3.291-1.739
		c2.918-1.056,3.664,0.062,3.664,0.062s1.863,5.216,1.863,7.824c0,2.608-5.713,3.105-5.713,3.105L193.527,202.687z"/>
	<path fill="#FFFFFF" d="M195.638,189.647l2.049,7.141c0,0,0.931,0.931,3.167,0.248c2.235-0.683,2.608-1.49,2.608-1.49l-1.056-8.9
		L195.638,189.647z"/>
	<g>
		<path fill="#E2AB85" d="M155.407,170.612l-2.897,21.932l5.367,1.475c0,0,9.218-12.552,6.823-19.693
			S155.407,170.612,155.407,170.612z"/>
		
			<ellipse transform="matrix(0.9582 0.2862 -0.2862 0.9582 64.7087 -32.1782)" fill="#020304" cx="142.422" cy="205.251" rx="9.857" ry="3.912"/>
		<path fill="#020304" d="M141.92,201.045c4.733,1.109,6.597-2.875,6.597-2.875s0.715-0.307,3.662,0.664s2.844,2.31,2.844,2.31
			s-1.754,5.253-3.364,7.305s-6.411-1.084-6.411-1.084L141.92,201.045z"/>
		<path fill="#FFFFFF" d="M151.63,192.09l-2.796,6.883c0,0,0.158,1.308,2.338,2.15c2.18,0.843,2.972,0.438,2.972,0.438l4.664-7.654
			L151.63,192.09z"/>
	</g>
	<path fill="#E2AB85" d="M160.627,103.034c3.614,0.806,3.801,7.176-4.106,20.374c-2.735,4.565-22.953,15.351-23.976,9.111
		c-0.855-5.214,6.711-5.255,6.711-5.255c-4.794-1.844-4.126-3-3.282-3.722s5.169,2.828,9.502,0.057
		c8.125-5.198,8.934-12.225,10.215-16.537C156.972,102.75,160.627,103.034,160.627,103.034z"/>
	<g>
		<polygon fill="#475768" points="160.514,139.454 151.738,170.916 167.965,175.718 178.397,144.919 172.601,130.844 		"/>
		<polygon fill="#475768" points="190.091,138.038 198.267,167.35 183.148,171.824 173.429,143.129 178.829,130.016 		"/>
		<path fill="#E21A1B" d="M157.864,102.364c0-10.929,3.477-17.718,14.406-17.718s18.545,5.795,19.539,16.227
			c0.994,10.432,0,39.244,0,39.244h-34.11L157.864,102.364z"/>
		<g>
			<path fill="#020304" d="M163.825,74.38c0,0-9.438-3.643-6.789-8.445s17.883-4.14,24.341,2.318
				c6.458,6.458-2.981,13.744-6.292,13.744S163.825,74.38,163.825,74.38z"/>
			<g>
				<circle fill="#E2AB85" cx="172.436" cy="76.698" r="8.942"/>
				<circle fill="#E2AB85" cx="172.436" cy="85.971" r="3.312"/>
			</g>
			<path fill="#020304" d="M166.806,69.743c8.776-4.636,10.036,17.048,13.909,11.425c5.133-7.451,2.153-10.929,2.153-10.929
				l-6.127-3.312l-6.623-1.656L166.806,69.743z"/>
			<ellipse fill="#E2AB85" cx="176.907" cy="75.87" rx="1.987" ry="2.815"/>
		</g>
		<path fill="#E2AB85" d="M190.484,101.867c3.643-0.662,6.292,5.133,4.14,20.367c-0.745,5.27-15.177,23.068-18.545,17.718
			c-2.815-4.471,4.14-7.451,4.14-7.451c-5.133,0.166-4.968-1.159-4.471-2.153c0.497-0.993,5.862,0.596,8.776-3.643
			c5.464-7.948,3.477-14.737,2.981-19.208C187.007,103.026,190.484,101.867,190.484,101.867z"/>
		<path fill="#E21A1B" d="M184.523,87.958c5.464,3.477,8.942,11.26,10.763,16.227l-9.769,4.471l-4.968-7.617L184.523,87.958z"/>
	</g>
	<path fill="#E21A1B" d="M166.806,85.474c-8.776,1.325-12.253,15.068-12.088,23.016l7.617-0.166L166.806,85.474z"/>
</g>
<g>
	<path fill="#E7AF04" d="M21.167,41.167c-0.679,8.144-0.333,11.667-2.667,15.667h32.667c0,0-4.667-6.333-4-12.333
		s1.333-25-9.355-24.984C25.145,19.85,22.385,30.029,21.167,41.167z"/>
	<g id="Personnage_28_">
		<path fill="#F7CAB1" d="M23.534,124.777l-10.889,18.415l-4.964-2.082c0,0,0.48-15.053,6.565-19.056S23.534,124.777,23.534,124.777
			z"/>
		
			<ellipse transform="matrix(-0.9305 -0.3663 0.3663 -0.9305 -33.6148 311.389)" fill="#020304" cx="12.734" cy="158.884" rx="9.532" ry="3.783"/>
		<path fill="#020304" d="M15.627,155.984c-4.264-1.982-3.303-6.125-3.303-6.125s-0.36-0.661-3.183-1.681
			c-2.822-1.021-3.543,0.06-3.543,0.06s-1.802,5.044-1.802,7.566c0,2.522,5.525,3.003,5.525,3.003L15.627,155.984z"/>
		<path fill="#FFFFFF" d="M13.586,143.373l-1.982,6.906c0,0-0.901,0.901-3.063,0.24s-2.522-1.441-2.522-1.441l1.021-8.607
			L13.586,143.373z"/>
		<g>
			<path fill="#F7CAB1" d="M52.492,124.964l2.801,21.21l-5.19,1.427c0,0-8.914-12.139-6.598-19.045
				C45.821,121.65,52.492,124.964,52.492,124.964z"/>
			
				<ellipse transform="matrix(-0.9582 0.2862 -0.2862 -0.9582 172.7366 291.6759)" fill="#020304" cx="65.05" cy="158.463" rx="9.532" ry="3.783"/>
			<path fill="#020304" d="M65.536,154.396c-4.578,1.073-6.379-2.78-6.379-2.78s-0.691-0.297-3.542,0.642
				c-2.851,0.939-2.75,2.234-2.75,2.234s1.697,5.08,3.254,7.065c1.557,1.984,6.2-1.048,6.2-1.048L65.536,154.396z"/>
			<path fill="#FFFFFF" d="M56.145,145.735l2.704,6.656c0,0-0.153,1.265-2.261,2.08s-2.874,0.423-2.874,0.423l-4.51-7.402
				L56.145,145.735z"/>
		</g>
		<path fill="#F7CAB1" d="M47.445,59.611c-3.495,0.78-3.676,6.94,3.971,19.703c2.645,4.415,22.197,14.845,23.186,8.811
			c0.827-5.042-6.49-5.082-6.49-5.082c4.636-1.783,3.99-2.901,3.174-3.599c-0.816-0.698-4.999,2.735-9.189,0.055
			c-7.858-5.027-8.64-11.823-9.879-15.993S47.445,59.611,47.445,59.611z"/>
		<g>
			<polygon fill="#010202" points="47.554,94.832 56.041,125.258 40.348,129.902 30.259,100.117 35.864,86.505 			"/>
			<polygon fill="#010202" points="18.951,93.463 11.043,121.809 25.664,126.136 35.063,98.386 29.842,85.705 			"/>
			<path fill="#177274" d="M50.116,58.962c0-10.569-3.363-17.134-13.932-17.134s-17.935,5.605-18.896,15.693s0,37.952,0,37.952
				h32.988L50.116,58.962z"/>
			<g>
				<g>
					<circle fill="#F7CAB1" cx="36.024" cy="34.142" r="8.647"/>
					<circle fill="#F7CAB1" cx="36.024" cy="43.109" r="3.203"/>
				</g>
				<path fill="#E7AF04" d="M41.469,27.416c-8.487-4.484-9.706,16.486-13.451,11.049c-4.964-7.206-2.082-10.569-2.082-10.569
					l5.925-3.203l6.405-1.601L41.469,27.416z"/>
				<ellipse fill="#F7CAB1" cx="31.701" cy="33.341" rx="1.922" ry="2.722"/>
			</g>
			<path fill="#F7CAB1" d="M18.57,58.482c-3.523-0.641-6.085,4.964-4.003,19.696c0.72,5.096,14.677,22.309,17.935,17.134
				c2.722-4.324-4.003-7.206-4.003-7.206c4.964,0.16,4.804-1.121,4.324-2.082c-0.48-0.961-5.669,0.576-8.487-3.523
				c-5.284-7.686-3.363-14.252-2.882-18.576S18.57,58.482,18.57,58.482z"/>
			<path fill="#177274" d="M24.335,45.031c-5.284,3.363-8.647,10.889-10.409,15.693l9.448,4.324l4.804-7.366L24.335,45.031z"/>
		</g>
		<path fill="#177274" d="M41.469,42.629c8.487,1.281,11.85,14.572,11.69,22.259l-7.366-0.16L41.469,42.629z"/>
	</g>
</g>
</svg>
