<?xml version="1.0" encoding="utf-8"?>
<!-- Generator: Adobe Illustrator 17.0.0, SVG Export Plug-In . SVG Version: 6.00 Build 0)  -->
<!DOCTYPE svg PUBLIC "-//W3C//DTD SVG 1.1//EN" "http://www.w3.org/Graphics/SVG/1.1/DTD/svg11.dtd">
<svg version="1.1" id="Calque_1" xmlns="http://www.w3.org/2000/svg" xmlns:xlink="http://www.w3.org/1999/xlink" x="0px" y="0px"
	 width="404px" height="363px" viewBox="0 0 404 363" enable-background="new 0 0 404 363" xml:space="preserve">
<path fill="#E2AB85" d="M230.452,142.355l11.26,19.042l5.133-2.153c0,0-0.497-15.565-6.789-19.705
	C233.764,135.399,230.452,142.355,230.452,142.355z"/>
<ellipse transform="matrix(-0.3663 -0.9305 0.9305 -0.3663 164.8481 467.511)" fill="#020304" cx="241.62" cy="177.622" rx="3.912" ry="9.857"/>
<path fill="#020304" d="M238.628,174.623c4.409-2.049,3.415-6.334,3.415-6.334s0.373-0.683,3.291-1.739s3.664,0.062,3.664,0.062
	s1.863,5.216,1.863,7.824s-5.713,3.105-5.713,3.105L238.628,174.623z"/>
<path fill="#FFFFFF" d="M240.739,161.583l2.049,7.141c0,0,0.931,0.931,3.167,0.248c2.235-0.683,2.608-1.49,2.608-1.49l-1.056-8.9
	L240.739,161.583z"/>
<g>
	<path fill="#E2AB85" d="M200.508,142.548l-2.897,21.932l5.367,1.475c0,0,9.218-12.552,6.823-19.693
		C207.406,139.121,200.508,142.548,200.508,142.548z"/>
	
		<ellipse transform="matrix(0.2862 -0.9582 0.9582 0.2862 -35.9177 306.1658)" fill="#020304" cx="187.53" cy="177.19" rx="3.912" ry="9.857"/>
	<path fill="#020304" d="M187.02,172.981c4.733,1.109,6.597-2.875,6.597-2.875s0.715-0.307,3.662,0.664
		c2.948,0.971,2.844,2.31,2.844,2.31s-1.754,5.253-3.364,7.305c-1.61,2.052-6.411-1.084-6.411-1.084L187.02,172.981z"/>
	<path fill="#FFFFFF" d="M196.731,164.026l-2.796,6.883c0,0,0.158,1.308,2.338,2.15c2.18,0.843,2.972,0.438,2.972,0.438l4.664-7.654
		L196.731,164.026z"/>
</g>
<path fill="#E2AB85" d="M205.727,74.97c3.614,0.806,3.801,7.176-4.106,20.374c-2.735,4.565-22.953,15.351-23.976,9.111
	c-0.855-5.214,6.711-5.255,6.711-5.255c-4.794-1.844-4.126-3-3.282-3.722s5.169,2.828,9.502,0.057
	c8.125-5.198,8.934-12.225,10.215-16.537S205.727,74.97,205.727,74.97z"/>
<g>
	<polygon fill="#475768" points="205.614,111.39 196.838,142.852 213.066,147.654 223.497,116.855 217.702,102.78 	"/>
	<polygon fill="#475768" points="235.191,109.974 243.368,139.286 228.249,143.76 218.53,115.065 223.929,101.952 	"/>
	<path fill="#E21A1B" d="M202.965,74.3c0-10.929,3.477-17.718,14.406-17.718s18.545,5.795,19.539,16.227
		c0.994,10.432,0,39.244,0,39.244H202.8L202.965,74.3z"/>
	<g>
		<path fill="#020304" d="M208.926,46.316c0,0-9.438-3.643-6.789-8.445c2.649-4.802,17.883-4.14,24.341,2.318
			c6.458,6.458-2.981,13.744-6.292,13.744C216.874,53.933,208.926,46.316,208.926,46.316z"/>
		<g>
			<circle fill="#E2AB85" cx="217.536" cy="48.634" r="8.942"/>
			<circle fill="#E2AB85" cx="217.536" cy="57.907" r="3.312"/>
		</g>
		<path fill="#020304" d="M211.906,41.679c8.776-4.636,10.036,17.048,13.909,11.425c5.133-7.451,2.153-10.929,2.153-10.929
			l-6.127-3.312l-6.623-1.656L211.906,41.679z"/>
		<ellipse fill="#E2AB85" cx="222.007" cy="47.806" rx="1.987" ry="2.815"/>
	</g>
	<path fill="#E2AB85" d="M235.585,73.803c3.643-0.662,6.292,5.133,4.14,20.367c-0.745,5.27-15.177,23.068-18.545,17.718
		c-2.815-4.471,4.14-7.451,4.14-7.451c-5.133,0.166-4.968-1.159-4.471-2.153s5.862,0.596,8.776-3.643
		c5.464-7.948,3.477-14.737,2.981-19.208C232.108,74.962,235.585,73.803,235.585,73.803z"/>
	<path fill="#E21A1B" d="M229.624,59.894c5.464,3.477,8.942,11.26,10.763,16.227l-9.769,4.471l-4.968-7.617L229.624,59.894z"/>
</g>
<path fill="#E21A1B" d="M211.906,57.41c-8.776,1.325-12.253,15.068-12.088,23.016l7.617-0.166L211.906,57.41z"/>
<g>
	<path fill="#020304" d="M151.667,64l32-0.5c0,0,6.833-30.5-11.5-31.5C153.167,31.5,152.167,51.5,151.667,64z"/>
	<g id="Personnage_25_">
		<g>
			<path fill="#664533" d="M157.02,141.103l-11.221,18.977l-5.115-2.145c0,0,0.495-15.511,6.765-19.636
				S157.02,141.103,157.02,141.103z"/>
			
				<ellipse transform="matrix(-0.3663 0.9305 -0.9305 -0.3663 363.3304 105.0555)" fill="#020304" cx="145.892" cy="176.248" rx="3.898" ry="9.823"/>
			<path fill="#020304" d="M148.872,173.26c-4.393-2.042-3.403-6.312-3.403-6.312s-0.371-0.681-3.28-1.733
				c-2.908-1.052-3.651,0.062-3.651,0.062s-1.856,5.198-1.856,7.797s5.693,3.094,5.693,3.094L148.872,173.26z"/>
			<path fill="#FFFFFF" d="M146.768,160.265l-2.042,7.116c0,0-0.928,0.928-3.156,0.248c-2.228-0.681-2.599-1.485-2.599-1.485
				l1.052-8.869L146.768,160.265z"/>
			<g>
				<path fill="#664533" d="M186.167,139l3.58,24.152l-5.349,1.47c0,0-9.879-14.804-7.493-21.921
					C179.292,135.585,186.167,139,186.167,139z"/>
				
					<ellipse transform="matrix(0.2862 0.9582 -0.9582 0.2862 311.0715 -65.9523)" fill="#020304" cx="199.801" cy="175.806" rx="3.898" ry="9.823"/>
				<path fill="#020304" d="M200.301,171.624c-4.717,1.106-6.574-2.865-6.574-2.865s-0.712-0.306-3.65,0.661
					c-2.937,0.968-2.834,2.302-2.834,2.302s1.748,5.235,3.353,7.28c1.604,2.045,6.389-1.08,6.389-1.08L200.301,171.624z"/>
				<path fill="#FFFFFF" d="M190.624,162.699l2.786,6.859c0,0-0.157,1.303-2.33,2.143c-2.173,0.84-2.961,0.436-2.961,0.436
					l-4.648-7.627L190.624,162.699z"/>
			</g>
			<path fill="#664533" d="M181.659,73.952c-3.601,0.804-3.788,7.151,4.092,20.303c2.726,4.549,22.873,15.297,23.893,9.08
				c0.852-5.195-6.688-5.237-6.688-5.237c4.777-1.837,4.112-2.989,3.27-3.709c-0.841-0.72-5.151,2.819-9.469,0.056
				c-8.097-5.18-8.903-12.183-10.18-16.48C185.3,73.668,181.659,73.952,181.659,73.952z"/>
			<g>
				<path fill="#D4D5D5" d="M189.712,138.712l-7.94-28.466l-12.046-8.581l-2.933,7.123l-3.273-7.948l-11.223,7.994l-8.148,29.21
					C144.149,138.045,167.562,146.31,189.712,138.712z"/>
				<path fill="#86A52B" d="M184.411,73.284c0-10.891-3.465-17.656-14.356-17.656s-18.481,5.775-19.471,16.171
					c-0.99,10.396,0,39.108,0,39.108h33.992L184.411,73.284z"/>
				<g>
					<circle fill="#664533" cx="169.89" cy="47.707" r="8.911"/>
					<circle fill="#664533" cx="169.89" cy="56.948" r="3.3"/>
				</g>
				<path fill="#020304" d="M175.501,40.777c-8.746-4.62-10.001,16.988-13.861,11.386c-5.115-7.425-2.145-10.891-2.145-10.891
					l6.105-3.3l6.6-1.65L175.501,40.777z"/>
				<ellipse fill="#664533" cx="165.435" cy="46.882" rx="1.98" ry="2.805"/>
				<path fill="#664533" d="M151.904,72.789c-3.63-0.66-6.27,5.115-4.125,20.296c0.742,5.251,15.124,22.988,18.481,17.656
					c2.805-4.455-4.125-7.425-4.125-7.425c5.115,0.165,4.95-1.155,4.455-2.145s-5.842,0.594-8.746-3.63
					c-5.445-7.921-3.465-14.686-2.97-19.141S151.904,72.789,151.904,72.789z"/>
				<path fill="#86A52B" d="M157.845,58.928c-5.445,3.465-8.911,11.221-10.726,16.171l9.736,4.455l4.95-7.59L157.845,58.928z"/>
			</g>
			<path fill="#86A52B" d="M175.501,56.453c8.746,1.32,12.211,15.016,12.046,22.936l-7.59-0.165L175.501,56.453z"/>
		</g>
	</g>
</g>
<g>
	<path fill="#513426" d="M339.766,110.992c1.14,7.122,2.564-2.564,4.843-8.262c2.279-5.698-2.279-5.983-5.698-13.105
		c-3.419-7.122-0.57-9.116-8.831-12.535s-10.613-1.029-13.675,1.994c-4.273,5.698-4.273,12.535-8.547,17.663
		c-4.274,5.128,0.57,5.413-0.57,10.826c-1.14,5.413,12.25,2.849,18.518,1.709C332.074,108.143,339.766,110.992,339.766,110.992z"/>
	<path fill="#020304" d="M345.197,211.467c4.243-1.972,3.286-6.095,3.286-6.095s0.359-0.657,3.167-1.673
		c2.808-1.016,3.525,0.06,3.525,0.06s1.793,5.019,1.793,7.529s-5.497,2.988-5.497,2.988L345.197,211.467z"/>
	<g>
		<path fill="#9E6751" d="M337.329,180.13l10.835,18.325l4.94-2.071c0,0-0.478-14.978-6.533-18.962
			C340.516,173.437,337.329,180.13,337.329,180.13z"/>
		
			<ellipse transform="matrix(-0.3663 -0.9305 0.9305 -0.3663 276.3865 616.3643)" fill="#020304" cx="348.076" cy="214.068" rx="3.765" ry="9.485"/>
		<path fill="#FFFFFF" d="M347.228,198.634l1.972,6.872c0,0,0.896,0.896,3.047,0.239c2.151-0.657,2.51-1.434,2.51-1.434
			l-1.016-8.565L347.228,198.634z"/>
		<g>
			<path fill="#9E6751" d="M308.887,178.355l-3.161,23.066l5.165,1.42c0,0,9.244-14.04,6.939-20.912
				C315.525,175.057,308.887,178.355,308.887,178.355z"/>
			
				<ellipse transform="matrix(0.2862 -0.9582 0.9582 0.2862 6.596 436.1534)" fill="#020304" cx="296.031" cy="213.65" rx="3.765" ry="9.485"/>
			<path fill="#020304" d="M295.534,209.602c4.555,1.068,6.348-2.766,6.348-2.766s0.688-0.296,3.524,0.639
				c2.837,0.935,2.737,2.223,2.737,2.223s-1.688,5.055-3.237,7.03c-1.549,1.974-6.169-1.043-6.169-1.043L295.534,209.602z"/>
			<path fill="#FFFFFF" d="M304.879,200.984l-2.691,6.623c0,0,0.152,1.258,2.25,2.069c2.098,0.811,2.86,0.421,2.86,0.421
				l4.488-7.365L304.879,200.984z"/>
		</g>
		<path fill="#9E6751" d="M313.536,115.285c3.478,0.776,3.658,6.906-3.952,19.606c-2.632,4.393-22.088,14.772-23.072,8.768
			c-0.823-5.017,6.458-5.057,6.458-5.057c-4.613-1.774-3.97-2.887-3.158-3.581c0.812-0.695,4.974,2.722,9.144,0.054
			c7.819-5.002,8.598-11.764,9.83-15.914C310.019,115.011,313.536,115.285,313.536,115.285z"/>
		<g>
			<path fill="#083448" d="M349.758,177.176l-7.868-28.207l-10.837-7.72l-3.16,7.675l-2.832-6.878l-11.632,8.286l-7.986,28.629
				C305.441,178.962,336.674,185.244,349.758,177.176z"/>
			<path fill="#E7AF04" d="M310.878,114.639c0-10.517,3.346-17.05,13.863-17.05c10.517,0,17.847,5.577,18.803,15.616
				s0,37.765,0,37.765h-32.825L310.878,114.639z"/>
			<g>
				<g>
					<circle fill="#9E6751" cx="324.9" cy="89.941" r="8.605"/>
					<circle fill="#9E6751" cx="324.9" cy="98.864" r="3.187"/>
				</g>
				<path fill="#513426" d="M319.482,83.248c8.445-4.462,9.658,16.405,13.385,10.995c4.94-7.17,2.071-10.517,2.071-10.517
					l-5.896-3.187l-6.374-1.593L319.482,83.248z"/>
				<ellipse fill="#9E6751" cx="329.202" cy="89.144" rx="1.912" ry="2.709"/>
			</g>
			<path fill="#9E6751" d="M342.269,114.161c3.506-0.637,6.055,4.94,3.984,19.599c-0.717,5.071-14.605,22.199-17.847,17.05
				c-2.709-4.302,3.984-7.17,3.984-7.17c-4.94,0.159-4.78-1.115-4.302-2.071c0.478-0.956,5.641,0.573,8.445-3.506
				c5.258-7.649,3.346-14.182,2.868-18.484C338.922,115.277,342.269,114.161,342.269,114.161z"/>
			<path fill="#E7AF04" d="M336.532,100.776c5.258,3.346,8.605,10.835,10.357,15.616l-9.401,4.302l-4.78-7.33L336.532,100.776z"/>
		</g>
		<path fill="#E7AF04" d="M319.482,98.386c-8.445,1.275-11.791,14.5-11.632,22.149l7.33-0.159L319.482,98.386z"/>
	</g>
</g>
<line fill="none" stroke="#000000" stroke-miterlimit="10" x1="-331.526" y1="262.051" x2="-114.526" y2="382.051"/>
<g>
	<path fill="#020304" d="M286.359,197.837c4.603-2.14,3.566-6.613,3.566-6.613s0.389-0.713,3.436-1.815
		c3.047-1.102,3.825,0.065,3.825,0.065s1.945,5.446,1.945,8.169c0,2.723-5.965,3.242-5.965,3.242L286.359,197.837z"/>
	<g>
		<path fill="#9E6751" d="M277.822,164.144l11.757,19.883l5.36-2.248c0,0-0.519-16.252-7.089-20.574
			C281.28,156.883,277.822,164.144,277.822,164.144z"/>
		
			<ellipse transform="matrix(-0.3663 -0.9305 0.9305 -0.3663 208.5201 543.945)" fill="#020304" cx="289.483" cy="200.968" rx="4.085" ry="10.292"/>
		<path fill="#FFFFFF" d="M288.563,184.221l2.14,7.456c0,0,0.973,0.973,3.307,0.259c2.334-0.714,2.723-1.556,2.723-1.556
			l-1.102-9.293L288.563,184.221z"/>
		<g>
			<path fill="#9E6751" d="M246.556,164.346l-3.025,22.9l5.604,1.54c0,0,9.624-13.106,7.124-20.562S246.556,164.346,246.556,164.346
				z"/>
			
				<ellipse transform="matrix(0.2862 -0.9582 0.9582 0.2862 -25.8056 366.3927)" fill="#020304" cx="233.009" cy="200.516" rx="4.085" ry="10.292"/>
			<path fill="#020304" d="M232.474,196.122c4.942,1.158,6.888-3.001,6.888-3.001s0.746-0.321,3.824,0.693s2.969,2.412,2.969,2.412
				s-1.832,5.485-3.513,7.628c-1.681,2.142-6.694-1.132-6.694-1.132L232.474,196.122z"/>
			<path fill="#FFFFFF" d="M242.613,186.772l-2.919,7.187c0,0,0.165,1.365,2.441,2.245c2.276,0.88,3.103,0.457,3.103,0.457
				l4.87-7.991L242.613,186.772z"/>
		</g>
		<path fill="#9E6751" d="M252.006,93.786c3.773,0.842,3.969,7.493-4.287,21.273c-2.856,4.767-23.966,16.028-25.034,9.513
			c-0.893-5.444,7.008-5.487,7.008-5.487c-5.005-1.925-4.308-3.132-3.427-3.886c0.881-0.754,5.397,2.953,9.921,0.059
			c8.484-5.427,9.329-12.764,10.666-17.267C248.191,93.489,252.006,93.786,252.006,93.786z"/>
		<g>
			<polygon fill="#083448" points="251.888,131.813 242.725,164.663 259.669,169.677 270.561,137.519 264.51,122.823 			"/>
			<polygon fill="#083448" points="282.771,130.335 291.308,160.94 275.522,165.611 265.374,135.65 271.012,121.959 			"/>
			<path fill="#E7AF04" d="M249.122,93.086c0-11.411,3.631-18.499,15.042-18.499s19.364,6.051,20.401,16.943
				c1.037,10.892,0,40.975,0,40.975h-35.616L249.122,93.086z"/>
			<g>
				<path fill="#513426" d="M255.346,63.867c0,0-9.855-3.804-7.089-8.818s18.672-4.322,25.415,2.42
					c6.743,6.742-3.112,14.35-6.57,14.35C263.645,71.82,255.346,63.867,255.346,63.867z"/>
				<g>
					<circle fill="#9E6751" cx="264.337" cy="66.287" r="9.336"/>
					<circle fill="#9E6751" cx="264.337" cy="75.969" r="3.458"/>
				</g>
				<path fill="#513426" d="M258.458,59.026c9.163-4.841,10.479,17.8,14.523,11.93c5.36-7.78,2.248-11.411,2.248-11.411
					l-6.397-3.458l-6.916-1.729L258.458,59.026z"/>
				<ellipse fill="#9E6751" cx="269.005" cy="65.423" rx="2.075" ry="2.939"/>
			</g>
			<path fill="#9E6751" d="M283.182,92.567c3.804-0.692,6.57,5.36,4.322,21.266c-0.777,5.502-15.846,24.086-19.364,18.499
				c-2.939-4.668,4.322-7.78,4.322-7.78c-5.36,0.173-5.187-1.21-4.668-2.248c0.519-1.037,6.121,0.622,9.163-3.804
				c5.705-8.299,3.631-15.387,3.112-20.056C279.55,93.775,283.182,92.567,283.182,92.567z"/>
			<path fill="#E7AF04" d="M276.958,78.044c5.705,3.631,9.336,11.757,11.238,16.943l-10.201,4.668l-5.187-7.953L276.958,78.044z"/>
		</g>
		<path fill="#E7AF04" d="M258.458,75.451c-9.163,1.383-12.794,15.733-12.621,24.032l7.953-0.173L258.458,75.451z"/>
	</g>
</g>
<g id="Personnage_26_">
	<path fill="#F7CAB1" d="M287.724,177.414l-10.192,17.236l-4.646-1.948c0,0,0.45-14.089,6.145-17.836
		C284.727,171.119,287.724,177.414,287.724,177.414z"/>
	
		<ellipse transform="matrix(-0.3663 0.9305 -0.9305 -0.3663 574.0939 27.6939)" fill="#020304" cx="277.617" cy="209.336" rx="3.541" ry="8.922"/>
	<path fill="#020304" d="M280.324,206.622c-3.991-1.855-3.091-5.733-3.091-5.733s-0.337-0.618-2.979-1.574
		c-2.642-0.955-3.316,0.056-3.316,0.056s-1.686,4.721-1.686,7.082c0,2.361,5.171,2.81,5.171,2.81L280.324,206.622z"/>
	<path fill="#FFFFFF" d="M278.413,194.819l-1.855,6.464c0,0-0.843,0.843-2.866,0.225c-2.023-0.618-2.361-1.349-2.361-1.349
		l0.955-8.056L278.413,194.819z"/>
	<g>
		<path fill="#F7CAB1" d="M314.828,177.589l2.622,19.851l-4.858,1.335c0,0-8.343-11.361-6.176-17.825
			C308.584,174.487,314.828,177.589,314.828,177.589z"/>
		
			<ellipse transform="matrix(0.2862 0.9582 -0.9582 0.2862 433.3031 -163.7845)" fill="#020304" cx="326.579" cy="208.928" rx="3.541" ry="8.922"/>
		<path fill="#020304" d="M327.036,205.136c-4.284,1.004-5.971-2.602-5.971-2.602s-0.647-0.278-3.315,0.601
			s-2.574,2.091-2.574,2.091s1.588,4.755,3.045,6.612s5.803-0.981,5.803-0.981L327.036,205.136z"/>
		<path fill="#FFFFFF" d="M318.247,197.03l2.531,6.23c0,0-0.143,1.184-2.116,1.946c-1.973,0.763-2.69,0.396-2.69,0.396l-4.221-6.928
			L318.247,197.03z"/>
	</g>
	<path fill="#F7CAB1" d="M310.104,116.421c-3.271,0.73-3.44,6.495,3.717,18.441c2.476,4.132,20.776,13.895,21.702,8.247
		c0.774-4.719-6.075-4.757-6.075-4.757c4.339-1.669,3.734-2.715,2.971-3.369c-0.764-0.654-4.679,2.56-8.601,0.051
		c-7.354-4.705-8.087-11.065-9.246-14.968C313.412,116.164,310.104,116.421,310.104,116.421z"/>
	<g>
		<polygon fill="#010202" points="310.206,149.387 318.15,177.864 303.461,182.21 294.019,154.333 299.265,141.593 		"/>
		<polygon fill="#010202" points="283.434,148.105 276.034,174.636 289.718,178.686 298.515,152.713 293.628,140.844 		"/>
		<path fill="#177274" d="M312.604,115.814c0-9.892-3.147-16.037-13.039-16.037s-16.786,5.246-17.686,14.688
			c-0.9,9.442,0,35.521,0,35.521h30.875L312.604,115.814z"/>
		<g>
			<path fill="#E7AF04" d="M307.208,90.485c0,0,8.543-3.297,6.145-7.644c-2.398-4.346-16.187-3.747-22.032,2.098
				s2.698,12.44,5.695,12.44C300.014,97.379,307.208,90.485,307.208,90.485z"/>
			<g>
				<circle fill="#F7CAB1" cx="299.415" cy="92.583" r="8.093"/>
				<circle fill="#F7CAB1" cx="299.415" cy="100.976" r="2.998"/>
			</g>
			<path fill="#E7AF04" d="M304.511,86.288c-7.944-4.197-9.084,15.431-12.59,10.342c-4.646-6.745-1.948-9.892-1.948-9.892
				l5.546-2.998l5.995-1.499L304.511,86.288z"/>
			<ellipse fill="#F7CAB1" cx="295.368" cy="91.833" rx="1.799" ry="2.548"/>
		</g>
		<path fill="#F7CAB1" d="M283.078,115.364c-3.297-0.6-5.695,4.646-3.747,18.435c0.674,4.77,13.737,20.88,16.786,16.037
			c2.548-4.047-3.747-6.745-3.747-6.745c4.646,0.15,4.496-1.049,4.047-1.948c-0.45-0.899-5.306,0.539-7.944-3.297
			c-4.946-7.194-3.147-13.339-2.698-17.386S283.078,115.364,283.078,115.364z"/>
		<path fill="#177274" d="M288.474,102.775c-4.946,3.147-8.093,10.192-9.742,14.688l8.843,4.047l4.496-6.894L288.474,102.775z"/>
	</g>
	<path fill="#177274" d="M304.511,100.526c7.944,1.199,11.091,13.639,10.941,20.833l-6.894-0.15L304.511,100.526z"/>
</g>
<g id="Personnage_22_">
	<g>
		<path fill="#9E6751" d="M225.744,173.499l11.878,20.087l5.415-2.271c0,0-0.524-16.419-7.162-20.786
			C229.237,166.162,225.744,173.499,225.744,173.499z"/>
		
			<ellipse transform="matrix(-0.3663 -0.9305 0.9305 -0.3663 128.4715 508.896)" fill="#020304" cx="237.524" cy="210.701" rx="4.127" ry="10.398"/>
		<path fill="#020304" d="M234.368,207.538c4.651-2.162,3.603-6.681,3.603-6.681s0.393-0.721,3.472-1.834
			c3.079-1.114,3.865,0.066,3.865,0.066s1.965,5.502,1.965,8.253s-6.026,3.275-6.026,3.275L234.368,207.538z"/>
		<g>
			<path fill="#9E6751" d="M194.156,173.702l-3.056,23.136l5.662,1.556c0,0,9.723-13.241,7.197-20.774
				C201.433,170.087,194.156,173.702,194.156,173.702z"/>
			
				<ellipse transform="matrix(0.2862 -0.9582 0.9582 0.2862 -72.6334 322.9943)" fill="#020304" cx="180.467" cy="210.246" rx="4.127" ry="10.398"/>
			<path fill="#020304" d="M179.928,205.806c4.993,1.17,6.959-3.032,6.959-3.032s0.754-0.324,3.863,0.7c3.109,1.024,3,2.437,3,2.437
				s-1.851,5.542-3.549,7.706s-6.763-1.143-6.763-1.143L179.928,205.806z"/>
			<path fill="#FFFFFF" d="M190.172,196.359l-2.949,7.26c0,0,0.166,1.38,2.466,2.268c2.3,0.889,3.135,0.462,3.135,0.462l4.92-8.074
				L190.172,196.359z"/>
		</g>
		<path fill="#9E6751" d="M231.158,101.184c3.843-0.699,6.638,5.415,4.367,21.485c-0.785,5.559-16.01,24.334-19.563,18.69
			c-2.969-4.716,4.367-7.86,4.367-7.86c-5.415,0.175-5.24-1.223-4.716-2.271c0.524-1.048,6.184,0.629,9.258-3.843
			c5.764-8.384,3.668-15.546,3.144-20.262C227.49,102.407,231.158,101.184,231.158,101.184z"/>
		<path fill="#E7AF04" d="M224.87,86.512c5.764,3.668,9.432,11.878,11.354,17.118l-10.306,4.716l-5.24-8.035L224.87,86.512z"/>
		<polygon fill="#083448" points="199.543,140.835 190.285,174.023 207.403,179.088 218.407,146.599 212.294,131.752 		"/>
		<polygon fill="#083448" points="230.743,139.341 239.368,170.261 223.42,174.981 213.167,144.711 218.863,130.879 		"/>
		<path fill="#E7AF04" d="M196.748,101.708c0-11.528,3.668-18.69,15.196-18.69c11.528,0,19.563,6.114,20.611,17.118
			s0,41.397,0,41.397h-35.982L196.748,101.708z"/>
		<g>
			<g>
				<circle fill="#9E6751" cx="215.263" cy="74.634" r="9.432"/>
				<circle fill="#9E6751" cx="215.263" cy="84.416" r="3.493"/>
			</g>
			<path fill="#664533" d="M209.324,67.298c9.258-4.891,10.587,17.983,14.672,12.052c5.415-7.86,2.271-11.528,2.271-11.528
				l-6.463-3.493l-6.987-1.747L209.324,67.298z"/>
			<ellipse fill="#E2AB85" cx="219.979" cy="73.761" rx="2.096" ry="2.969"/>
			<path fill="#513426" d="M206.18,72.189c0,0-9.956-3.843-7.162-8.908c2.795-5.065,18.865-4.367,25.677,2.445
				s-3.144,14.498-6.638,14.498S206.18,72.189,206.18,72.189z"/>
		</g>
		<path fill="#9E6751" d="M199.662,102.416c3.812,0.851,4.009,7.57-4.332,21.492c-2.885,4.816-24.212,16.193-25.291,9.611
			c-0.902-5.5,7.08-5.543,7.08-5.543c-5.057-1.945-4.352-3.164-3.462-3.926s5.452,2.984,10.023,0.06
			c8.571-5.483,9.425-12.896,10.776-17.445C195.807,102.116,199.662,102.416,199.662,102.416z"/>
		<path fill="#E7AF04" d="M206.18,83.892c-9.258,1.397-12.926,15.895-12.751,24.279l10.131-0.175L206.18,83.892z"/>
	</g>
	<path fill="#FFFFFF" d="M236.672,193.258l2.162,7.533c0,0,0.983,0.983,3.341,0.262s2.751-1.572,2.751-1.572l-1.114-9.389
		L236.672,193.258z"/>
</g>
<g id="Personnage_21_">
	<path fill="#E2AB85" d="M263.351,192.419l11.26,19.042l5.133-2.153c0,0-0.497-15.565-6.789-19.705
		C266.663,185.463,263.351,192.419,263.351,192.419z"/>
	
		<ellipse transform="matrix(-0.3663 -0.9305 0.9305 -0.3663 163.2137 566.5264)" fill="#020304" cx="274.519" cy="227.686" rx="3.912" ry="9.857"/>
	<path fill="#020304" d="M271.527,224.687c4.409-2.049,3.415-6.334,3.415-6.334s0.373-0.683,3.291-1.739s3.664,0.062,3.664,0.062
		s1.863,5.216,1.863,7.824s-5.713,3.105-5.713,3.105L271.527,224.687z"/>
	<path fill="#FFFFFF" d="M273.638,211.647l2.049,7.141c0,0,0.931,0.931,3.167,0.248c2.235-0.683,2.608-1.49,2.608-1.49l-1.056-8.9
		L273.638,211.647z"/>
	<g>
		<path fill="#E2AB85" d="M233.407,192.612l-2.897,21.932l5.367,1.475c0,0,9.218-12.552,6.823-19.693
			C240.305,189.185,233.407,192.612,233.407,192.612z"/>
		
			<ellipse transform="matrix(0.2862 -0.9582 0.9582 0.2862 -60.4023 373.4294)" fill="#020304" cx="220.433" cy="227.255" rx="3.912" ry="9.857"/>
		<path fill="#020304" d="M219.92,223.045c4.733,1.109,6.597-2.875,6.597-2.875s0.715-0.307,3.662,0.664
			c2.948,0.971,2.844,2.31,2.844,2.31s-1.754,5.253-3.364,7.305c-1.61,2.052-6.411-1.084-6.411-1.084L219.92,223.045z"/>
		<path fill="#FFFFFF" d="M229.63,214.09l-2.796,6.883c0,0,0.158,1.308,2.338,2.15c2.18,0.843,2.972,0.438,2.972,0.438l4.664-7.654
			L229.63,214.09z"/>
	</g>
	<path fill="#E2AB85" d="M238.627,125.034c3.614,0.806,3.801,7.176-4.106,20.374c-2.735,4.565-22.953,15.351-23.976,9.111
		c-0.855-5.214,6.711-5.255,6.711-5.255c-4.794-1.844-4.126-3-3.282-3.722c0.844-0.722,5.169,2.828,9.502,0.057
		c8.125-5.198,8.934-12.225,10.215-16.537C234.972,124.75,238.627,125.034,238.627,125.034z"/>
	<g>
		<polygon fill="#475768" points="238.514,161.454 229.738,192.916 245.965,197.718 256.397,166.919 250.601,152.844 		"/>
		<polygon fill="#475768" points="268.091,160.038 276.267,189.35 261.148,193.824 251.429,165.129 256.829,152.016 		"/>
		<path fill="#E21A1B" d="M235.864,124.364c0-10.929,3.477-17.718,14.406-17.718c10.929,0,18.545,5.795,19.539,16.227
			c0.994,10.432,0,39.244,0,39.244h-34.11L235.864,124.364z"/>
		<g>
			<path fill="#020304" d="M241.825,96.38c0,0-9.438-3.643-6.789-8.445c2.649-4.802,17.883-4.14,24.341,2.318
				c6.458,6.458-2.981,13.744-6.292,13.744S241.825,96.38,241.825,96.38z"/>
			<g>
				<circle fill="#E2AB85" cx="250.436" cy="98.698" r="8.942"/>
				<circle fill="#E2AB85" cx="250.436" cy="107.971" r="3.312"/>
			</g>
			<path fill="#020304" d="M244.806,91.743c8.776-4.636,10.036,17.048,13.909,11.425c5.133-7.451,2.153-10.929,2.153-10.929
				l-6.127-3.312l-6.623-1.656L244.806,91.743z"/>
			<ellipse fill="#E2AB85" cx="254.907" cy="97.87" rx="1.987" ry="2.815"/>
		</g>
		<path fill="#E2AB85" d="M268.484,123.867c3.643-0.662,6.292,5.133,4.14,20.367c-0.745,5.27-15.177,23.068-18.545,17.718
			c-2.815-4.471,4.14-7.451,4.14-7.451c-5.133,0.166-4.968-1.159-4.471-2.153c0.497-0.994,5.862,0.596,8.776-3.643
			c5.464-7.948,3.477-14.737,2.981-19.208C265.007,125.026,268.484,123.867,268.484,123.867z"/>
		<path fill="#E21A1B" d="M262.523,109.958c5.464,3.477,8.942,11.26,10.763,16.227l-9.769,4.471l-4.968-7.617L262.523,109.958z"/>
	</g>
	<path fill="#E21A1B" d="M244.806,107.474c-8.776,1.325-12.253,15.068-12.088,23.016l7.617-0.166L244.806,107.474z"/>
</g>
<g>
	<path fill="#E7AF04" d="M121.167,71.167c-0.679,8.144-0.333,11.667-2.667,15.667h32.667c0,0-4.667-6.333-4-12.333
		s1.333-25-9.355-24.984C125.145,49.85,122.385,60.029,121.167,71.167z"/>
	<g id="Personnage_28_">
		<path fill="#F7CAB1" d="M123.534,154.777l-10.889,18.416l-4.964-2.082c0,0,0.48-15.053,6.565-19.056
			C120.331,148.052,123.534,154.777,123.534,154.777z"/>
		
			<ellipse transform="matrix(-0.3663 0.9305 -0.9305 -0.3663 329.7854 153.1706)" fill="#020304" cx="112.735" cy="188.883" rx="3.783" ry="9.532"/>
		<path fill="#020304" d="M115.627,185.984c-4.264-1.982-3.303-6.125-3.303-6.125s-0.36-0.661-3.183-1.681
			c-2.822-1.021-3.543,0.06-3.543,0.06s-1.802,5.044-1.802,7.566c0,2.522,5.525,3.003,5.525,3.003L115.627,185.984z"/>
		<path fill="#FFFFFF" d="M113.586,173.373l-1.982,6.906c0,0-0.901,0.901-3.063,0.24c-2.162-0.661-2.522-1.441-2.522-1.441
			l1.021-8.607L113.586,173.373z"/>
		<g>
			<path fill="#F7CAB1" d="M152.492,154.964l2.801,21.21l-5.19,1.427c0,0-8.914-12.139-6.598-19.045
				C145.821,151.65,152.492,154.964,152.492,154.964z"/>
			
				<ellipse transform="matrix(0.2862 0.9582 -0.9582 0.2862 298.3883 -23.6296)" fill="#020304" cx="165.054" cy="188.454" rx="3.783" ry="9.532"/>
			<path fill="#020304" d="M165.536,184.396c-4.578,1.073-6.379-2.78-6.379-2.78s-0.691-0.297-3.542,0.642s-2.75,2.234-2.75,2.234
				s1.697,5.08,3.254,7.065c1.557,1.984,6.2-1.048,6.2-1.048L165.536,184.396z"/>
			<path fill="#FFFFFF" d="M156.145,175.735l2.704,6.656c0,0-0.153,1.265-2.261,2.08s-2.874,0.423-2.874,0.423l-4.51-7.402
				L156.145,175.735z"/>
		</g>
		<path fill="#F7CAB1" d="M147.445,89.611c-3.495,0.78-3.676,6.94,3.971,19.703c2.645,4.415,22.197,14.845,23.186,8.811
			c0.827-5.042-6.49-5.082-6.49-5.082c4.636-1.783,3.99-2.901,3.174-3.599c-0.816-0.698-4.999,2.735-9.189,0.055
			c-7.858-5.027-8.64-11.823-9.879-15.993C150.979,89.336,147.445,89.611,147.445,89.611z"/>
		<g>
			<polygon fill="#010202" points="147.554,124.832 156.041,155.258 140.348,159.902 130.259,130.117 135.864,116.505 			"/>
			<polygon fill="#010202" points="118.951,123.463 111.043,151.809 125.664,156.136 135.063,128.386 129.842,115.705 			"/>
			<path fill="#177274" d="M150.116,88.962c0-10.569-3.363-17.134-13.932-17.134s-17.935,5.605-18.896,15.693s0,37.952,0,37.952
				h32.988L150.116,88.962z"/>
			<g>
				<g>
					<circle fill="#F7CAB1" cx="136.024" cy="64.142" r="8.647"/>
					<circle fill="#F7CAB1" cx="136.024" cy="73.109" r="3.203"/>
				</g>
				<path fill="#E7AF04" d="M141.469,57.416c-8.487-4.484-9.706,16.486-13.451,11.049c-4.964-7.206-2.082-10.569-2.082-10.569
					l5.925-3.203l6.405-1.601L141.469,57.416z"/>
				<ellipse fill="#F7CAB1" cx="131.701" cy="63.341" rx="1.922" ry="2.722"/>
			</g>
			<path fill="#F7CAB1" d="M118.57,88.482c-3.523-0.641-6.085,4.964-4.003,19.696c0.72,5.096,14.677,22.309,17.935,17.134
				c2.722-4.324-4.003-7.206-4.003-7.206c4.964,0.16,4.804-1.121,4.324-2.082c-0.48-0.961-5.669,0.576-8.487-3.523
				c-5.284-7.686-3.363-14.252-2.882-18.576C121.935,89.601,118.57,88.482,118.57,88.482z"/>
			<path fill="#177274" d="M124.335,75.031c-5.284,3.363-8.647,10.889-10.409,15.693l9.448,4.324l4.804-7.366L124.335,75.031z"/>
		</g>
		<path fill="#177274" d="M141.469,72.629c8.487,1.281,11.85,14.572,11.69,22.259l-7.366-0.16L141.469,72.629z"/>
	</g>
</g>
<g id="Personnage_24_">
	<circle fill="#020304" cx="185.436" cy="80.098" r="16.008"/>
	<g>
		<path fill="#664533" d="M174.397,176.47l-10.467,17.702l-4.772-2.001c0,0,0.462-14.469,6.311-18.317
			C171.318,170.006,174.397,176.47,174.397,176.47z"/>
		
			<ellipse transform="matrix(-0.3663 0.9305 -0.9305 -0.3663 418.8059 133.2872)" fill="#020304" cx="164.016" cy="209.254" rx="3.637" ry="9.163"/>
		<path fill="#020304" d="M166.797,206.467c-4.098-1.905-3.175-5.888-3.175-5.888s-0.346-0.635-3.059-1.616
			c-2.713-0.981-3.406,0.058-3.406,0.058s-1.732,4.849-1.732,7.273c0,2.424,5.31,2.886,5.31,2.886L166.797,206.467z"/>
		<path fill="#FFFFFF" d="M164.834,194.345l-1.905,6.638c0,0-0.866,0.866-2.944,0.231c-2.078-0.635-2.424-1.385-2.424-1.385
			l0.981-8.274L164.834,194.345z"/>
		<g>
			<path fill="#664533" d="M202.233,176.65l2.693,20.388l-4.989,1.371c0,0-8.569-11.668-6.342-18.306
				C195.82,173.464,202.233,176.65,202.233,176.65z"/>
			
				<ellipse transform="matrix(0.2862 0.9582 -0.9582 0.2862 353.0773 -56.2708)" fill="#020304" cx="214.306" cy="208.839" rx="3.637" ry="9.163"/>
			<path fill="#020304" d="M214.771,204.94c-4.4,1.031-6.132-2.672-6.132-2.672s-0.664-0.286-3.405,0.617
				c-2.74,0.903-2.644,2.148-2.644,2.148s1.631,4.884,3.127,6.791c1.497,1.907,5.96-1.008,5.96-1.008L214.771,204.94z"/>
			<path fill="#FFFFFF" d="M205.744,196.616l2.599,6.398c0,0-0.147,1.216-2.173,1.999c-2.027,0.783-2.762,0.407-2.762,0.407
				l-4.335-7.115L205.744,196.616z"/>
		</g>
		<path fill="#664533" d="M197.381,113.83c-3.359,0.75-3.533,6.671,3.817,18.939c2.543,4.244,21.337,14.27,22.288,8.47
			c0.795-4.847-6.239-4.885-6.239-4.885c4.456-1.714,3.835-2.788,3.051-3.46c-0.785-0.671-4.805,2.629-8.833,0.053
			c-7.553-4.832-8.305-11.364-9.496-15.373C200.778,113.565,197.381,113.83,197.381,113.83z"/>
		<g>
			<polygon fill="#D4D5D5" points="197.486,147.686 205.644,176.932 190.559,181.396 180.862,152.765 186.249,139.682 			"/>
			<polygon fill="#D4D5D5" points="169.991,146.369 162.391,173.617 176.445,177.776 185.48,151.102 180.46,138.912 			"/>
			<path fill="#86A52B" d="M199.949,113.206c0-10.159-3.232-16.47-13.392-16.47s-17.24,5.387-18.163,15.085
				c-0.924,9.697,0,36.481,0,36.481h31.709L199.949,113.206z"/>
			<g>
				<path fill="#020304" d="M194.407,87.193c0,0,8.774-3.386,6.311-7.85c-2.463-4.464-16.624-3.848-22.627,2.155
					s2.771,12.776,5.849,12.776C187.019,94.273,194.407,87.193,194.407,87.193z"/>
				<g>
					<circle fill="#664533" cx="186.403" cy="89.348" r="8.312"/>
					<circle fill="#664533" cx="186.403" cy="97.967" r="3.079"/>
				</g>
				<path fill="#020304" d="M191.637,82.883c-8.158-4.31-9.329,15.847-12.93,10.621c-4.772-6.927-2.001-10.159-2.001-10.159
					l5.695-3.079l6.157-1.539L191.637,82.883z"/>
				<ellipse fill="#664533" cx="182.247" cy="88.578" rx="1.847" ry="2.617"/>
			</g>
			<path fill="#664533" d="M169.625,112.744c-3.386-0.616-5.849,4.772-3.848,18.933c0.692,4.899,14.108,21.444,17.24,16.47
				c2.617-4.156-3.848-6.927-3.848-6.927c4.772,0.154,4.618-1.077,4.156-2.001s-5.449,0.554-8.158-3.386
				c-5.08-7.388-3.232-13.7-2.771-17.856C172.858,113.822,169.625,112.744,169.625,112.744z"/>
			<path fill="#86A52B" d="M175.167,99.815c-5.08,3.232-8.312,10.467-10.005,15.085l9.082,4.156l4.618-7.081L175.167,99.815z"/>
		</g>
		<path fill="#86A52B" d="M191.637,97.506c8.158,1.231,11.391,14.007,11.237,21.396l-7.081-0.154L191.637,97.506z"/>
	</g>
</g>
<g>
	<path fill="#020304" d="M279.667,136.833l32-0.5c0,0,6.833-30.5-11.5-31.5C281.167,104.333,280.167,124.333,279.667,136.833z"/>
	<g id="Personnage_1_">
		<g>
			<path fill="#664533" d="M285.02,213.937l-11.221,18.976l-5.115-2.145c0,0,0.495-15.511,6.765-19.636
				C281.719,207.006,285.02,213.937,285.02,213.937z"/>
			
				<ellipse transform="matrix(-0.3663 0.9305 -0.9305 -0.3663 605.9872 85.4626)" fill="#020304" cx="273.892" cy="249.081" rx="3.898" ry="9.823"/>
			<path fill="#020304" d="M276.872,246.093c-4.393-2.042-3.403-6.312-3.403-6.312s-0.371-0.681-3.28-1.733
				s-3.651,0.062-3.651,0.062s-1.856,5.198-1.856,7.797s5.693,3.094,5.693,3.094L276.872,246.093z"/>
			<path fill="#FFFFFF" d="M274.768,233.099l-2.042,7.116c0,0-0.928,0.928-3.156,0.248c-2.228-0.68-2.599-1.485-2.599-1.485
				l1.052-8.869L274.768,233.099z"/>
			<g>
				<path fill="#664533" d="M314.167,211.833l3.58,24.152l-5.349,1.47c0,0-9.879-14.804-7.493-21.921
					C307.292,208.418,314.167,211.833,314.167,211.833z"/>
				
					<ellipse transform="matrix(0.2862 0.9582 -0.9582 0.2862 472.2176 -136.6117)" fill="#020304" cx="327.798" cy="248.632" rx="3.898" ry="9.823"/>
				<path fill="#020304" d="M328.301,244.457c-4.717,1.106-6.574-2.865-6.574-2.865s-0.712-0.306-3.65,0.661
					c-2.937,0.968-2.834,2.302-2.834,2.302s1.748,5.235,3.353,7.28c1.605,2.045,6.389-1.08,6.389-1.08L328.301,244.457z"/>
				<path fill="#FFFFFF" d="M318.624,235.533l2.786,6.859c0,0-0.157,1.303-2.33,2.143s-2.961,0.436-2.961,0.436l-4.648-7.627
					L318.624,235.533z"/>
			</g>
			<path fill="#664533" d="M309.659,146.786c-3.601,0.804-3.788,7.151,4.092,20.303c2.726,4.549,22.873,15.297,23.893,9.08
				c0.852-5.195-6.688-5.237-6.688-5.237c4.777-1.837,4.112-2.989,3.27-3.709c-0.842-0.72-5.151,2.819-9.469,0.056
				c-8.097-5.18-8.903-12.183-10.18-16.48S309.659,146.786,309.659,146.786z"/>
			<g>
				<path fill="#D4D5D5" d="M317.712,211.546l-7.94-28.466l-12.046-8.581l-2.933,7.123l-3.273-7.948l-11.223,7.994l-8.148,29.21
					C272.149,210.878,295.562,219.144,317.712,211.546z"/>
				<path fill="#86A52B" d="M312.411,146.117c0-10.891-3.465-17.656-14.356-17.656c-10.891,0-18.481,5.775-19.471,16.171
					c-0.99,10.396,0,39.108,0,39.108h33.992L312.411,146.117z"/>
				<g>
					<circle fill="#664533" cx="297.89" cy="120.541" r="8.911"/>
					<circle fill="#664533" cx="297.89" cy="129.781" r="3.3"/>
				</g>
				<path fill="#020304" d="M303.501,113.61c-8.746-4.62-10.001,16.989-13.861,11.386c-5.115-7.425-2.145-10.891-2.145-10.891
					l6.105-3.3l6.6-1.65L303.501,113.61z"/>
				<ellipse fill="#664533" cx="293.435" cy="119.716" rx="1.98" ry="2.805"/>
				<path fill="#664533" d="M279.904,145.622c-3.63-0.66-6.27,5.115-4.125,20.296c0.742,5.251,15.124,22.988,18.481,17.656
					c2.805-4.455-4.125-7.425-4.125-7.425c5.115,0.165,4.95-1.155,4.455-2.145c-0.495-0.99-5.842,0.594-8.746-3.63
					c-5.445-7.921-3.465-14.686-2.97-19.141C283.37,146.778,279.904,145.622,279.904,145.622z"/>
				<path fill="#86A52B" d="M285.845,131.762c-5.445,3.465-8.911,11.221-10.726,16.171l9.736,4.455l4.95-7.59L285.845,131.762z"/>
			</g>
			<path fill="#86A52B" d="M303.501,129.286c8.746,1.32,12.211,15.016,12.046,22.936l-7.59-0.165L303.501,129.286z"/>
		</g>
	</g>
</g>
<g id="Personnage_2_">
	<path fill="#E2AB85" d="M78.929,167.252l-11.26,19.042l-5.133-2.153c0,0,0.497-15.565,6.789-19.705
		C75.617,160.298,78.929,167.252,78.929,167.252z"/>
	
		<ellipse transform="matrix(-0.3663 0.9305 -0.9305 -0.3663 281.0263 213.6502)" fill="#020304" cx="67.762" cy="202.519" rx="3.912" ry="9.857"/>
	<path fill="#020304" d="M70.753,199.521c-4.409-2.049-3.415-6.334-3.415-6.334s-0.373-0.683-3.291-1.739s-3.664,0.062-3.664,0.062
		s-1.863,5.216-1.863,7.824s5.713,3.105,5.713,3.105L70.753,199.521z"/>
	<path fill="#FFFFFF" d="M68.642,186.481l-2.049,7.141c0,0-0.931,0.931-3.167,0.248c-2.235-0.683-2.608-1.49-2.608-1.49l1.056-8.9
		L68.642,186.481z"/>
	<g>
		<path fill="#E2AB85" d="M108.873,167.446l2.897,21.932l-5.367,1.475c0,0-9.218-12.552-6.823-19.693
			C101.975,164.019,108.873,167.446,108.873,167.446z"/>
		
			<ellipse transform="matrix(0.2862 0.9582 -0.9582 0.2862 280.6122 27.4781)" fill="#020304" cx="121.864" cy="202.077" rx="3.912" ry="9.857"/>
		<path fill="#020304" d="M122.36,197.879c-4.733,1.109-6.597-2.875-6.597-2.875s-0.715-0.307-3.662,0.664s-2.844,2.31-2.844,2.31
			s1.754,5.253,3.364,7.305c1.61,2.052,6.411-1.084,6.411-1.084L122.36,197.879z"/>
		<path fill="#FFFFFF" d="M112.65,188.923l2.796,6.883c0,0-0.158,1.308-2.338,2.15c-2.18,0.843-2.972,0.438-2.972,0.438
			l-4.664-7.654L112.65,188.923z"/>
	</g>
	<path fill="#E2AB85" d="M103.653,99.868c-3.614,0.806-3.801,7.176,4.106,20.374c2.735,4.565,22.953,15.351,23.976,9.111
		c0.855-5.214-6.711-5.255-6.711-5.255c4.794-1.844,4.126-3,3.282-3.722c-0.844-0.722-5.169,2.828-9.502,0.057
		c-8.125-5.198-8.935-12.226-10.215-16.538C107.308,99.583,103.653,99.868,103.653,99.868z"/>
	<g>
		<polygon fill="#475768" points="103.766,136.288 112.542,167.749 96.315,172.551 85.883,141.752 91.679,127.678 		"/>
		<polygon fill="#475768" points="74.189,134.872 66.013,164.183 81.132,168.657 90.851,139.963 85.451,126.85 		"/>
		<path fill="#E21A1B" d="M106.416,99.197c0-10.929-3.477-17.718-14.406-17.718s-18.545,5.795-19.539,16.227s0,39.244,0,39.244
			h34.11L106.416,99.197z"/>
		<g>
			<path fill="#020304" d="M100.455,71.213c0,0,9.438-3.643,6.789-8.445c-2.649-4.802-17.883-4.14-24.341,2.318
				c-6.458,6.458,2.981,13.744,6.292,13.744S100.455,71.213,100.455,71.213z"/>
			<g>
				<circle fill="#E2AB85" cx="91.844" cy="73.531" r="8.942"/>
				<circle fill="#E2AB85" cx="91.844" cy="82.804" r="3.312"/>
			</g>
			<path fill="#020304" d="M97.474,66.577c-8.776-4.636-10.036,17.048-13.909,11.425c-5.133-7.451-2.153-10.929-2.153-10.929
				l6.127-3.312l6.623-1.656L97.474,66.577z"/>
			<ellipse fill="#E2AB85" cx="87.373" cy="72.703" rx="1.987" ry="2.815"/>
		</g>
		<path fill="#E2AB85" d="M73.795,98.7c-3.643-0.662-6.292,5.133-4.14,20.367c0.745,5.27,15.177,23.068,18.545,17.718
			c2.815-4.471-4.14-7.451-4.14-7.451c5.133,0.166,4.968-1.159,4.471-2.153c-0.497-0.994-5.862,0.596-8.776-3.643
			c-5.464-7.948-3.477-14.737-2.981-19.208S73.795,98.7,73.795,98.7z"/>
		<path fill="#E21A1B" d="M79.756,84.791c-5.464,3.477-8.942,11.26-10.763,16.227l9.769,4.471l4.968-7.617L79.756,84.791z"/>
	</g>
	<path fill="#E21A1B" d="M97.474,82.307c8.776,1.325,12.253,15.069,12.088,23.017l-7.617-0.166L97.474,82.307z"/>
</g>
<g id="Personnage_3_">
	<g>
		<path fill="#9E6751" d="M196.541,211.332l-11.878,20.087l-5.415-2.271c0,0,0.524-16.419,7.162-20.786
			C193.048,203.996,196.541,211.332,196.541,211.332z"/>
		
			<ellipse transform="matrix(-0.3663 0.9305 -0.9305 -0.3663 483.6996 167.6506)" fill="#020304" cx="184.762" cy="248.533" rx="4.127" ry="10.398"/>
		<path fill="#020304" d="M187.917,245.371c-4.651-2.162-3.603-6.681-3.603-6.681s-0.393-0.721-3.472-1.834
			c-3.079-1.114-3.865,0.066-3.865,0.066s-1.965,5.502-1.965,8.253s6.026,3.275,6.026,3.275L187.917,245.371z"/>
		<g>
			<path fill="#9E6751" d="M228.129,211.536l3.056,23.135l-5.662,1.556c0,0-9.723-13.241-7.197-20.774
				C220.852,207.92,228.129,211.536,228.129,211.536z"/>
			
				<ellipse transform="matrix(0.2862 0.9582 -0.9582 0.2862 410.3058 -54.645)" fill="#020304" cx="241.829" cy="248.062" rx="4.127" ry="10.398"/>
			<path fill="#020304" d="M242.357,243.639c-4.993,1.17-6.959-3.032-6.959-3.032s-0.754-0.324-3.863,0.7
				c-3.109,1.024-3,2.437-3,2.437s1.851,5.542,3.549,7.706s6.763-1.143,6.763-1.143L242.357,243.639z"/>
			<path fill="#FFFFFF" d="M232.113,234.192l2.949,7.26c0,0-0.166,1.38-2.466,2.268c-2.3,0.889-3.135,0.462-3.135,0.462l-4.92-8.074
				L232.113,234.192z"/>
		</g>
		<path fill="#9E6751" d="M191.127,139.018c-3.843-0.699-6.638,5.415-4.367,21.485c0.785,5.559,16.01,24.334,19.563,18.69
			c2.969-4.716-4.367-7.86-4.367-7.86c5.415,0.175,5.24-1.223,4.716-2.271c-0.524-1.048-6.184,0.629-9.258-3.843
			c-5.764-8.384-3.668-15.546-3.144-20.262C194.795,140.241,191.127,139.018,191.127,139.018z"/>
		<path fill="#E7AF04" d="M197.415,124.345c-5.764,3.668-9.432,11.878-11.354,17.118l10.306,4.716l5.24-8.035L197.415,124.345z"/>
		<polygon fill="#083448" points="222.742,178.668 232,211.856 214.882,216.922 203.878,184.433 209.991,169.586 		"/>
		<polygon fill="#083448" points="191.542,177.175 182.917,208.095 198.865,212.814 209.118,182.545 203.422,168.712 		"/>
		<path fill="#E7AF04" d="M225.537,139.542c0-11.528-3.668-18.69-15.196-18.69c-11.528,0-19.563,6.114-20.611,17.118
			s0,41.397,0,41.397h35.982L225.537,139.542z"/>
		<g>
			<g>
				<circle fill="#9E6751" cx="207.022" cy="112.468" r="9.432"/>
				<circle fill="#9E6751" cx="207.022" cy="122.249" r="3.493"/>
			</g>
			<path fill="#664533" d="M212.961,105.132c-9.258-4.891-10.587,17.983-14.672,12.052c-5.415-7.86-2.271-11.528-2.271-11.528
				l6.463-3.493l6.987-1.747L212.961,105.132z"/>
			<ellipse fill="#E2AB85" cx="202.306" cy="111.594" rx="2.096" ry="2.969"/>
			<path fill="#513426" d="M216.105,110.022c0,0,9.956-3.843,7.162-8.908s-18.865-4.367-25.677,2.445
				c-6.812,6.812,3.144,14.498,6.638,14.498S216.105,110.022,216.105,110.022z"/>
		</g>
		<path fill="#9E6751" d="M222.623,140.249c-3.812,0.851-4.009,7.57,4.332,21.492c2.885,4.816,24.212,16.193,25.291,9.611
			c0.902-5.5-7.08-5.543-7.08-5.543c5.057-1.945,4.352-3.164,3.462-3.926c-0.89-0.762-5.452,2.984-10.023,0.06
			c-8.571-5.483-9.425-12.896-10.776-17.445C226.478,139.949,222.623,140.249,222.623,140.249z"/>
		<path fill="#E7AF04" d="M216.105,121.725c9.258,1.397,12.926,15.895,12.751,24.279l-10.131-0.175L216.105,121.725z"/>
	</g>
	<path fill="#FFFFFF" d="M185.613,231.092l-2.162,7.533c0,0-0.983,0.983-3.341,0.262c-2.358-0.721-2.751-1.572-2.751-1.572
		l1.114-9.389L185.613,231.092z"/>
</g>
</svg>
