<?xml version="1.0" encoding="utf-8"?>
<!-- Generator: Adobe Illustrator 19.0.0, SVG Export Plug-In . SVG Version: 6.00 Build 0)  -->
<svg version="1.1" id="Calque_1" xmlns="http://www.w3.org/2000/svg" xmlns:xlink="http://www.w3.org/1999/xlink" x="0px" y="0px"
	 viewBox="0 0 180 80" style="enable-background:new 0 0 180 80;" xml:space="preserve">
<style type="text/css">
	.st0{fill:#7F7F7F;stroke:#7F7F7F;stroke-width:3;stroke-linecap:round;stroke-linejoin:round;stroke-miterlimit:10;}
	.st1{fill:none;stroke:#FFFFFF;stroke-linecap:round;stroke-linejoin:round;stroke-miterlimit:10;}
</style>
<g id="XMLID_20_">
	<path id="XMLID_301_" class="st0" d="M177.7,26.3v27.6c0,14.5-12.5,25.7-26.9,24.2c-19.6-2.1-45.1-7-57.5-7
		c-13,0-42.3,5.2-64.4,7.4C14.6,79.8,2.3,68.5,2.3,54.1v-28C2.3,11.6,15,0.3,29.5,2C50.5,4.6,78,9.5,90,9.5
		c13.2,0,39.9-4.9,60.4-7.4C164.9,0.4,177.7,11.7,177.7,26.3z"/>
	<g id="XMLID_22_">
		<line id="XMLID_173_" class="st1" x1="156.5" y1="8" x2="156.5" y2="72"/>
		<line id="XMLID_172_" class="st1" x1="144.5" y1="13" x2="144.5" y2="71"/>
		<line id="XMLID_165_" class="st1" x1="132.5" y1="17" x2="132.5" y2="67"/>
		<line id="XMLID_154_" class="st1" x1="120.5" y1="20" x2="120.5" y2="64"/>
		<line id="XMLID_153_" class="st1" x1="108.5" y1="24" x2="108.5" y2="61"/>
		<line id="XMLID_151_" class="st1" x1="96.5" y1="25" x2="96.5" y2="59"/>
		<line id="XMLID_149_" class="st1" x1="84.5" y1="24" x2="84.5" y2="61"/>
		<line id="XMLID_147_" class="st1" x1="72.5" y1="23" x2="72.5" y2="63"/>
		<line id="XMLID_145_" class="st1" x1="60.5" y1="20" x2="60.5" y2="64"/>
		<line id="XMLID_143_" class="st1" x1="48.5" y1="17" x2="48.5" y2="67"/>
		<line id="XMLID_29_" class="st1" x1="36.5" y1="13" x2="36.5" y2="71"/>
		<line id="XMLID_23_" class="st1" x1="24.5" y1="8" x2="24.5" y2="72"/>
	</g>
</g>
</svg>
