<?xml version="1.0" encoding="utf-8"?>
<!-- Generator: Adobe Illustrator 19.0.0, SVG Export Plug-In . SVG Version: 6.00 Build 0)  -->
<svg version="1.1" id="Calque_1" xmlns="http://www.w3.org/2000/svg" xmlns:xlink="http://www.w3.org/1999/xlink" x="0px" y="0px"
	 viewBox="0 0 100 100" style="enable-background:new 0 0 100 100;" xml:space="preserve">
<style type="text/css">
	.st0{fill:none;stroke:#727272;stroke-width:2;stroke-miterlimit:10;}
	.st1{fill:#727272;}
	.st2{fill:url(#XMLID_2_);}
	.st3{fill:url(#XMLID_3_);}
</style>
<polygon id="XMLID_837_" class="st0" points="27.5,89 4.9,50 27.5,11 72.9,11 95.6,50 72.9,89 "/>
<circle id="XMLID_836_" class="st1" cx="49.4" cy="49.2" r="31.1"/>
<linearGradient id="XMLID_2_" gradientUnits="userSpaceOnUse" x1="-225.7575" y1="360.6837" x2="-185.8869" y2="360.0392" gradientTransform="matrix(-0.9677 -0.2523 0.2523 -0.9677 -234.2403 360.9669)">
	<stop  offset="0" style="stop-color:#A3A3A3"/>
	<stop  offset="0.9009" style="stop-color:#7F7F7F"/>
</linearGradient>
<path id="XMLID_835_" class="st2" d="M39.2,54.5c-1.1-2.6,0.5-8.3,6-10.6s12.8-0.5,13.9,2.1l16.3,23.9L48,83L39.2,54.5z"/>
<linearGradient id="XMLID_3_" gradientUnits="userSpaceOnUse" x1="-233.7717" y1="349.9469" x2="-197.9704" y2="349.9469" gradientTransform="matrix(-0.9677 -0.2523 0.2523 -0.9677 -234.2403 360.9669)">
	<stop  offset="0" style="stop-color:#A3A3A3"/>
	<stop  offset="0.9009" style="stop-color:#7F7F7F"/>
</linearGradient>
<path id="XMLID_834_" class="st3" d="M47,72.7c2.1-8.1,10.4-13,18.6-10.9c4.5,1.2,8,4.2,9.8,8.1c1.5,3.2,2,6.9,1.1,10.5
	c-2.1,8.1-10.4,13-18.6,10.9c-4.1-1.1-7.3-3.7-9.3-7C46.7,80.8,46,76.7,47,72.7z"/>
</svg>
