<?xml version="1.0" encoding="utf-8"?>
<!-- Generator: Adobe Illustrator 19.0.0, SVG Export Plug-In . SVG Version: 6.00 Build 0)  -->
<svg version="1.1" id="Calque_1" xmlns="http://www.w3.org/2000/svg" xmlns:xlink="http://www.w3.org/1999/xlink" x="0px" y="0px"
	 viewBox="0 0 100 100" style="enable-background:new 0 0 100 100;" xml:space="preserve">
<style type="text/css">
	.st0{fill:none;stroke:#727272;stroke-width:2;stroke-miterlimit:10;}
	.st1{fill:#727272;}
	.st2{fill:url(#XMLID_2_);}
	.st3{fill:url(#XMLID_3_);}
</style>
<polygon id="XMLID_837_" class="st0" points="27.5,89 4.9,50 27.5,11 72.9,11 95.6,50 72.9,89 "/>
<circle id="XMLID_836_" class="st1" cx="49.4" cy="49.2" r="31.1"/>
<linearGradient id="XMLID_2_" gradientUnits="userSpaceOnUse" x1="-201.7997" y1="389.3842" x2="-161.9291" y2="388.7398" gradientTransform="matrix(0.9677 0.2523 -0.2523 0.9677 315.1802 -294.0856)">
	<stop  offset="0" style="stop-color:#A3A3A3"/>
	<stop  offset="0.9009" style="stop-color:#7F7F7F"/>
</linearGradient>
<path id="XMLID_835_" class="st2" d="M57.6,46.2c1.1,2.6-0.5,8.3-6,10.6s-12.8,0.5-13.9-2.1L21.4,30.9l27.5-13.1L57.6,46.2z"/>
<linearGradient id="XMLID_3_" gradientUnits="userSpaceOnUse" x1="-209.8139" y1="378.6474" x2="-174.0126" y2="378.6474" gradientTransform="matrix(0.9677 0.2523 -0.2523 0.9677 315.1802 -294.0856)">
	<stop  offset="0" style="stop-color:#A3A3A3"/>
	<stop  offset="0.9009" style="stop-color:#7F7F7F"/>
</linearGradient>
<path id="XMLID_834_" class="st3" d="M49.8,28c-2.1,8.1-10.4,13-18.6,10.9c-4.5-1.2-8-4.2-9.8-8.1c-1.5-3.2-2-6.9-1.1-10.5
	c2.1-8.1,10.4-13,18.6-10.9c4.1,1.1,7.3,3.7,9.3,7C50.2,19.9,50.9,24,49.8,28z"/>
</svg>
