<?xml version="1.0" encoding="utf-8"?>
<!-- Generator: Adobe Illustrator 19.0.0, SVG Export Plug-In . SVG Version: 6.00 Build 0)  -->
<svg version="1.1" id="Calque_1" xmlns="http://www.w3.org/2000/svg" xmlns:xlink="http://www.w3.org/1999/xlink" x="0px" y="0px"
	 viewBox="0 0 95 95" style="enable-background:new 0 0 95 95;" xml:space="preserve">
<style type="text/css">
	.st0{fill:#727272;}
	.st1{fill:#7F7F7F;}
	.st2{fill:#A3A3A3;}
	.st3{fill:none;stroke:#004266;stroke-width:4;stroke-linecap:round;stroke-linejoin:round;stroke-miterlimit:10;}
</style>
<circle id="XMLID_663_" class="st0" cx="47.5" cy="47.9" r="47"/>
<circle id="XMLID_661_" class="st1" cx="47.5" cy="47.9" r="35.2"/>
<g id="XMLID_654_">
	<g id="XMLID_657_">
		<path id="XMLID_13_" class="st2" d="M68.4,28.9c1.4,1.5,0.2,4.9,1.1,6.6c1,1.8,4.5,2.5,5.1,4.4c0.6,1.9-2,4.4-1.9,6.4
			c0.1,2,3,4.2,2.7,6.1c-0.3,2-3.7,3.1-4.5,5c-0.7,1.8,0.9,5-0.3,6.7c-1.1,1.6-4.7,1.2-6.2,2.6c-1.5,1.4-1.4,4.9-3.1,5.9
			c-1.8,1-4.8-0.9-6.7-0.4c-1.9,0.6-3.4,3.8-5.4,4c-2,0.1-3.9-2.9-5.9-3.2c-2-0.3-4.7,2-6.6,1.2c-1.8-0.7-2.2-4.3-3.9-5.5
			c-1.6-1.1-5.1-0.2-6.5-1.7c-1.4-1.5-0.2-4.9-1.1-6.6c-1-1.8-4.5-2.5-5.1-4.4c-0.6-1.9,2-4.4,1.9-6.4c-0.1-2-3-4.2-2.7-6.1
			c0.3-2,3.7-3.1,4.5-5c0.7-1.8-0.9-5,0.3-6.7c1.1-1.6,4.7-1.2,6.2-2.6c1.5-1.4,1.4-4.9,3.1-5.9c1.8-1,4.8,0.9,6.7,0.4
			c1.9-0.6,3.4-3.8,5.4-4c2-0.1,3.9,2.9,5.9,3.2c2,0.3,4.7-2,6.6-1.2c1.8,0.7,2.2,4.3,3.9,5.5C63.6,28.3,67.1,27.4,68.4,28.9z"/>
	</g>
	<line id="XMLID_655_" class="st3" x1="50.4" y1="45.2" x2="62" y2="34.7"/>
</g>
</svg>
