<?xml version="1.0" encoding="utf-8"?>
<!-- Generator: Adobe Illustrator 21.0.0, SVG Export Plug-In . SVG Version: 6.00 Build 0)  -->
<svg version="1.1" id="Calque_1" xmlns="http://www.w3.org/2000/svg" xmlns:xlink="http://www.w3.org/1999/xlink" x="0px" y="0px"
	 viewBox="0 0 511.4 584.2" style="enable-background:new 0 0 511.4 584.2;" xml:space="preserve">
<style type="text/css">
	.st0{fill:#004266;}
</style>
<g id="XMLID_3_">
	<g id="XMLID_1_">
		<path id="XMLID_2_" class="st0" d="M268.3,198.3c2.3,0,4-1.7,4-4.1c0-2.4-1.8-4.1-4-4.1s-4,1.7-4,4.1
			C264.2,196.7,266,198.3,268.3,198.3z"/>
		<path id="XMLID_34_" class="st0" d="M259.9,385.1c-2.2,0-4,1.7-4,4.1c0,2.4,1.8,4.1,4,4.1c0.5,0,1-0.1,1.4-0.2l-1.4-1.6l1.8-1.5
			l1.5,1.7c0.5-0.7,0.7-1.5,0.7-2.4C264,386.7,262.2,385.1,259.9,385.1z"/>
		<path id="XMLID_37_" class="st0" d="M459.1,287.5L260.3,88.7c-2.5-2.5-6.6-2.5-9.2,0L52.2,287.5c-2.5,2.5-2.5,6.6,0,9.2
			l198.9,198.9c1.2,1.2,2.9,1.9,4.6,1.9c1.7,0,3.4-0.7,4.6-1.9l198.9-198.9c1.2-1.2,1.9-2.9,1.9-4.6S460.3,288.7,459.1,287.5z
			 M278.3,188h1.9l4.9,7.7V188h2.4v12.5h-1.9l-4.8-7.7v7.7h-2.5V188z M268.3,187.8c3.6,0,6.5,2.8,6.5,6.5c0,3.6-2.9,6.5-6.5,6.5
			c-3.6,0-6.5-2.9-6.5-6.5C261.8,190.6,264.7,187.8,268.3,187.8z M254.4,195.4c-1.8-0.6-4-1.4-4-4c0-2.4,2-3.6,4-3.6
			c2.2,0,4.2,1.3,4.2,4h-2.4c0-1.1-0.6-1.6-1.8-1.6c-1,0-1.6,0.5-1.6,1.2c0,0.9,0.9,1.3,2,1.7c1.8,0.6,4.2,1.3,4.2,3.9
			c0,2.4-2,3.7-4.3,3.7c-2.5,0-4.6-1.3-4.6-4.1h2.5c0,1.1,0.7,1.7,2.1,1.7c1.2,0,1.8-0.5,1.8-1.2
			C256.6,196.2,255.6,195.8,254.4,195.4z M233.8,188h2.5h4.8v2.4h-4.8v2.7h4.4v2.3h-4.4v2.8h4.9v2.4h-6.6h-0.8V188z M223.6,188h2.5
			v10.1h4.6v2.4h-7.1V188z M181.6,332.1c-15.3,0-28.3-8.3-28.3-25.2h12.9c0,8.4,5.8,12.7,15.4,12.7c8.5,0,13.6-4,13.6-9.9
			c0-6.5-7-9.4-15-12.3c-11.6-4.2-25.1-8.4-25.1-24.7c0-14.4,12.1-22,24.9-22c13.6,0,25.9,8,25.9,24.3H193c0-7.9-5.2-11.8-13-11.8
			c-7.1,0-12,3.7-12,9.4c0,6.8,6.3,9.8,14.3,12.7c11.6,4.3,25.9,8.5,25.9,24.3C208.1,324.1,195.8,332.1,181.6,332.1z M230.3,391.6
			c0,2.6-2,4.1-4.5,4.1s-4.5-1.4-4.5-4.1v-8.7h2.5v8.5c0,1.2,0.6,1.9,2.1,1.9c1.5,0,2.1-0.7,2.1-1.9v-8.5h2.4V391.6z M243.4,395.4
			h-1.9l-4.8-7.7v7.7h-2.5v-12.5h1.9l4.9,7.7v-7.7h2.4V395.4z M250,395.4h-2.5v-12.5h2.5V395.4z M227.6,326.7v-94.4h12.9v93.6
			c0,8.6,5.3,13.5,15.1,13.5c9.9,0,15.1-4.8,15.1-13.5v-93.6h12.9v94.4c0,16.4-12.5,25.2-28.1,25.2
			C240.2,351.9,227.6,343,227.6,326.7z M266.2,394.9l-1.8,1.5l-1.4-1.6c-0.9,0.5-2,0.8-3.1,0.8c-3.6,0-6.5-2.9-6.5-6.5
			c0-3.7,2.9-6.5,6.5-6.5c3.6,0,6.5,2.8,6.5,6.5c0,1.6-0.6,3.1-1.6,4.2L266.2,394.9z M278.9,391.6c0,2.6-2,4.1-4.5,4.1
			s-4.5-1.4-4.5-4.1v-8.7h2.5v8.5c0,1.2,0.6,1.9,2.1,1.9c1.5,0,2.1-0.7,2.1-1.9v-8.5h2.4V391.6z M290.2,395.4h-6.6h-0.8v-12.5h2.5
			h4.8v2.4h-4.8v2.7h4.4v2.3h-4.4v2.8h4.9V395.4z M358,330.7h-10.1l-27.3-48.3v48.3h-12.9v-78.5h10.1l27.3,48.3v-48.3H358V330.7z"/>
	</g>
	<g id="XMLID_1338_">
		<g id="XMLID_1340_">
			<path id="XMLID_1492_" class="st0" d="M255.7,533.9c-1.7,0-3.3-0.6-4.6-1.9c-2.5-2.5-2.5-6.6,0-9.2l144.2-143.3
				c2.5-2.5,6.6-2.5,9.2,0c2.5,2.5,2.5,6.6,0,9.2L260.3,532C259,533.2,257.3,533.9,255.7,533.9z"/>
		</g>
		<g id="XMLID_1339_">
			<path id="XMLID_1491_" class="st0" d="M111.5,206.4c-1.7,0-3.3-0.6-4.6-1.9c-2.5-2.5-2.5-6.6,0-9.2l144-143
				c2.5-2.5,6.6-2.5,9.2,0c2.5,2.5,2.5,6.6,0,9.2l-144,143C114.8,205.7,113.1,206.4,111.5,206.4z"/>
		</g>
	</g>
</g>
</svg>
