<?xml version="1.0" encoding="utf-8"?>
<!-- Generator: Adobe Illustrator 17.0.0, SVG Export Plug-In . SVG Version: 6.00 Build 0)  -->
<!DOCTYPE svg PUBLIC "-//W3C//DTD SVG 1.1//EN" "http://www.w3.org/Graphics/SVG/1.1/DTD/svg11.dtd">
<svg version="1.1" id="Calque_1" xmlns="http://www.w3.org/2000/svg" xmlns:xlink="http://www.w3.org/1999/xlink" x="0px" y="0px"
	 width="728.571px" height="258.026px" viewBox="0 0 728.571 258.026" enable-background="new 0 0 728.571 258.026"
	 xml:space="preserve">
<g>
	<path fill="#0F4864" d="M603.104,182.462v-70.11H615.7L531.479,28.13l-84.222,84.222h12.597v70.11H330.681v-14.965
		c-0.621,0.199-1.277,0.304-1.968,0.304c-0.692,0-1.347-0.106-1.969-0.304v14.965h-38.703v-20.189h5.806l-38.821-38.82l-38.82,38.82
		h5.806v20.189H18.571v57.49h697.211v-57.49H603.104z"/>
	<path fill="#0F4864" d="M326.745,167.496c0.621,0.199,1.277,0.304,1.968,0.304c0.691,0,1.346-0.105,1.968-0.304
		c6.781-2.172,9.484-15.787,9.484-32.263c0-17.986-6.084-39.725-11.452-39.725c-5.369,0-11.453,21.739-11.452,39.725
		C317.261,151.709,319.965,165.325,326.745,167.496z"/>
</g>
</svg>
