<?xml version="1.0" encoding="utf-8"?>
<!-- Generator: Adobe Illustrator 17.0.0, SVG Export Plug-In . SVG Version: 6.00 Build 0)  -->
<!DOCTYPE svg PUBLIC "-//W3C//DTD SVG 1.1//EN" "http://www.w3.org/Graphics/SVG/1.1/DTD/svg11.dtd">
<svg version="1.1" id="Calque_1" xmlns="http://www.w3.org/2000/svg" xmlns:xlink="http://www.w3.org/1999/xlink" x="0px" y="0px"
	 width="1280px" height="308.881px" viewBox="0 0 1280 308.881" enable-background="new 0 0 1280 308.881" xml:space="preserve">
<path opacity="0.75" fill="#FFFFFF" d="M1064.961,61.514h133.104c0,0,4.932-19.464-29.576-10.222c0,0-36.975-36.73-61.623-2.099
	C1106.865,49.193,1069.891,35.514,1064.961,61.514"/>
<path opacity="0.75" fill="#FFFFFF" d="M1093.487,308.881h136.803c0,0-13.557-14.574-39.439-7.18c0,0-27.113-28.898-54.227-2.178
	C1136.624,299.523,1103.347,292.881,1093.487,308.881"/>
<path opacity="0.75" fill="#FFFFFF" d="M883.505,234.84h166.379c0,0-40.67-47.89-66.553-18.311c0,0-43.135-33.125-65.318,4.345
	C918.013,220.873,889.665,207.84,883.505,234.84"/>
<path opacity="0.75" fill="#FFFFFF" d="M1106.827,180.082h118.314c0,0-14.789-16.469-35.125-5.377c0,0-27.73-24.232-48.064,0.781
	C1141.952,175.486,1121.616,164.082,1106.827,180.082"/>
<path opacity="0.75" fill="#FFFFFF" d="M300.753,130.84H167.649c0,0-4.93-19.465,29.578-10.223c0,0,36.975-36.73,61.623-2.099
	C258.851,118.519,295.823,104.84,300.753,130.84"/>
<path opacity="0.75" fill="#FFFFFF" d="M123.28,74.84H-13.521c0,0,13.557-14.574,39.438-7.18c0,0,27.112-28.899,54.228-2.178
	C80.146,65.482,113.421,58.84,123.28,74.84"/>
<path opacity="0.75" fill="#FFFFFF" d="M182.439,185.84H16.059c0,0,40.67-47.89,66.552-18.311c0,0,43.135-33.125,65.319,4.345
	C147.93,171.873,176.276,158.84,182.439,185.84"/>
<path opacity="0.75" fill="#FFFFFF" d="M426.464,63.84H308.147c0,0,14.789-16.469,35.125-5.377c0,0,27.73-24.232,48.066,0.781
	C391.339,59.244,411.675,47.84,426.464,63.84"/>
<path opacity="0.75" fill="#FFFFFF" d="M1379.28,74.84h-136.801c0,0,13.557-14.574,39.438-7.18c0,0,27.112-28.899,54.228-2.178
	C1336.146,65.482,1369.421,58.84,1379.28,74.84"/>
</svg>
