<?xml version="1.0" encoding="utf-8"?>
<!-- Generator: Adobe Illustrator 17.0.0, SVG Export Plug-In . SVG Version: 6.00 Build 0)  -->
<!DOCTYPE svg PUBLIC "-//W3C//DTD SVG 1.1//EN" "http://www.w3.org/Graphics/SVG/1.1/DTD/svg11.dtd">
<svg version="1.1" id="Calque_1" xmlns="http://www.w3.org/2000/svg" xmlns:xlink="http://www.w3.org/1999/xlink" x="0px" y="0px"
	 width="1280px" height="235.84px" viewBox="0 0 1280 235.84" enable-background="new 0 0 1280 235.84" xml:space="preserve">
<path opacity="0.75" fill="#FFFFFF" d="M770.188,180.84h133.104c0,0,4.932-19.465-29.576-10.223c0,0-36.975-36.73-61.623-2.099
	C812.093,168.519,775.118,154.84,770.188,180.84"/>
<path opacity="0.75" fill="#FFFFFF" d="M679.5,48.921h136.803c0,0-13.557-14.574-39.439-7.18c0,0-27.113-28.898-54.227-2.178
	C722.637,39.563,689.359,32.921,679.5,48.921"/>
<path opacity="0.75" fill="#FFFFFF" d="M888.505,235.84h166.379c0,0-40.67-47.89-66.553-18.311c0,0-43.135-33.125-65.318,4.345
	C923.013,221.873,894.665,208.84,888.505,235.84"/>
<path opacity="0.75" fill="#FFFFFF" d="M305.753,131.84H172.649c0,0-4.93-19.465,29.578-10.223c0,0,36.975-36.73,61.623-2.099
	C263.851,119.519,300.823,105.84,305.753,131.84"/>
<path opacity="0.75" fill="#FFFFFF" d="M128.28,75.84H-8.521c0,0,13.557-14.574,39.438-7.18c0,0,27.112-28.899,54.228-2.178
	C85.146,66.482,118.421,59.84,128.28,75.84"/>
<path opacity="0.75" fill="#FFFFFF" d="M187.439,186.84H21.059c0,0,40.67-47.89,66.552-18.311c0,0,43.135-33.125,65.319,4.345
	C152.93,172.873,181.276,159.84,187.439,186.84"/>
<path opacity="0.75" fill="#FFFFFF" d="M431.464,64.84H313.147c0,0,14.789-16.469,35.125-5.377c0,0,27.73-24.232,48.066,0.781
	C396.339,60.244,416.675,48.84,431.464,64.84"/>
<path opacity="0.75" fill="#FFFFFF" d="M1401.28,75.84h-136.801c0,0,13.557-14.574,39.438-7.18c0,0,27.112-28.899,54.228-2.178
	C1358.146,66.482,1391.421,59.84,1401.28,75.84"/>
<path opacity="0.75" fill="#FFFFFF" d="M344.472,210.269h118.314c0,0-14.789-16.469-35.125-5.377c0,0-27.73-24.232-48.064,0.781
	C379.597,205.673,359.261,194.269,344.472,210.269"/>
</svg>
