<?xml version="1.0" encoding="utf-8"?>
<!-- Generator: Adobe Illustrator 17.0.0, SVG Export Plug-In . SVG Version: 6.00 Build 0)  -->
<!DOCTYPE svg PUBLIC "-//W3C//DTD SVG 1.1//EN" "http://www.w3.org/Graphics/SVG/1.1/DTD/svg11.dtd">
<svg version="1.1" id="Calque_1" xmlns="http://www.w3.org/2000/svg" xmlns:xlink="http://www.w3.org/1999/xlink" x="0px" y="0px"
	 width="1280px" height="263.027px" viewBox="0 0 1280 263.027" enable-background="new 0 0 1280 263.027" xml:space="preserve">
<path opacity="0.75" fill="#FFFFFF" d="M145.069,263.027h133.104c0,0,4.932-19.465-29.576-10.223c0,0-36.975-36.73-61.623-2.099
	C186.974,250.706,149.999,237.027,145.069,263.027"/>
<path opacity="0.75" fill="#FFFFFF" d="M926.661,124.84h136.803c0,0-13.557-14.574-39.439-7.18c0,0-27.113-28.898-54.227-2.178
	C969.798,115.482,936.521,108.84,926.661,124.84"/>
<path opacity="0.75" fill="#FFFFFF" d="M857.505,235.84h166.379c0,0-40.67-47.89-66.553-18.311c0,0-43.135-33.125-65.318,4.345
	C892.013,221.873,863.665,208.84,857.505,235.84"/>
<path opacity="0.75" fill="#FFFFFF" d="M1005.95,40.967h118.314c0,0-14.789-16.469-35.125-5.377c0,0-27.73-24.232-48.064,0.781
	C1041.075,36.371,1020.739,24.967,1005.95,40.967"/>
<path opacity="0.75" fill="#FFFFFF" d="M274.753,131.84H141.649c0,0-4.93-19.465,29.578-10.223c0,0,36.975-36.73,61.623-2.099
	C232.851,119.519,269.823,105.84,274.753,131.84"/>
<path opacity="0.75" fill="#FFFFFF" d="M97.28,75.84H-39.521c0,0,13.557-14.574,39.439-7.18c0,0,27.112-28.899,54.227-2.178
	C54.145,66.482,87.421,59.84,97.28,75.84"/>
<path opacity="0.75" fill="#FFFFFF" d="M156.438,186.84H-9.941c0,0,40.67-47.89,66.552-18.311c0,0,43.135-33.125,65.319,4.345
	C121.93,172.873,150.276,159.84,156.438,186.84"/>
<path opacity="0.75" fill="#FFFFFF" d="M400.464,64.84H282.147c0,0,14.789-16.469,35.125-5.377c0,0,27.73-24.232,48.066,0.781
	C365.339,60.244,385.675,48.84,400.464,64.84"/>
<path opacity="0.75" fill="#FFFFFF" d="M1376.28,75.84h-136.801c0,0,13.557-14.574,39.438-7.18c0,0,27.112-28.899,54.228-2.178
	C1333.146,66.482,1366.421,59.84,1376.28,75.84"/>
<path opacity="0.75" fill="#FFFFFF" d="M1435.438,186.84h-166.38c0,0,40.67-47.89,66.552-18.311c0,0,43.135-33.125,65.319,4.345
	C1400.93,172.873,1429.276,159.84,1435.438,186.84"/>
</svg>
