<?xml version="1.0" encoding="utf-8"?>
<!-- Generator: Adobe Illustrator 17.0.0, SVG Export Plug-In . SVG Version: 6.00 Build 0)  -->
<!DOCTYPE svg PUBLIC "-//W3C//DTD SVG 1.1//EN" "http://www.w3.org/Graphics/SVG/1.1/DTD/svg11.dtd">
<svg version="1.1" id="Calque_1" xmlns="http://www.w3.org/2000/svg" xmlns:xlink="http://www.w3.org/1999/xlink" x="0px" y="0px"
	 width="1280px" height="235.84px" viewBox="0 0 1280 235.84" enable-background="new 0 0 1280 235.84" xml:space="preserve">
<path opacity="0.75" fill="#FFFFFF" d="M849.505,235.84h166.379c0,0-40.671-47.89-66.553-18.311c0,0-43.135-33.125-65.318,4.345
	C884.013,221.873,855.665,208.84,849.505,235.84"/>
<path opacity="0.75" fill="#FFFFFF" d="M605.479,113.84h118.314c0,0-14.789-16.469-35.125-5.377c0,0-27.73-24.232-48.064,0.781
	C640.604,109.244,620.269,97.84,605.479,113.84"/>
<path opacity="0.75" fill="#FFFFFF" d="M266.753,131.84H133.649c0,0-4.93-19.465,29.578-10.223c0,0,36.975-36.73,61.623-2.099
	C224.851,119.519,261.823,105.84,266.753,131.84"/>
<path opacity="0.75" fill="#FFFFFF" d="M89.28,75.84H-47.521c0,0,13.557-14.574,39.438-7.18c0,0,27.112-28.899,54.228-2.178
	C46.146,66.482,79.421,59.84,89.28,75.84"/>
<path opacity="0.75" fill="#FFFFFF" d="M148.439,186.84h-166.38c0,0,40.67-47.89,66.552-18.311c0,0,43.135-33.125,65.319,4.345
	C113.93,172.873,142.276,159.84,148.439,186.84"/>
<path opacity="0.75" fill="#FFFFFF" d="M1379.279,76.84h-136.8c0,0,13.556-14.574,39.438-7.18c0,0,27.112-28.899,54.228-2.178
	C1336.146,67.482,1369.421,60.84,1379.279,76.84"/>
<path opacity="0.75" fill="#FFFFFF" d="M1438.438,187.84h-166.38c0,0,40.67-47.89,66.552-18.311c0,0,43.135-33.125,65.319,4.345
	C1403.93,173.873,1432.276,160.84,1438.438,187.84"/>
</svg>
