<?xml version="1.0" encoding="utf-8"?>
<!-- Generator: Adobe Illustrator 16.0.0, SVG Export Plug-In . SVG Version: 6.00 Build 0)  -->
<!DOCTYPE svg PUBLIC "-//W3C//DTD SVG 1.1//EN" "http://www.w3.org/Graphics/SVG/1.1/DTD/svg11.dtd">
<svg version="1.1" id="Calque_1" xmlns="http://www.w3.org/2000/svg" xmlns:xlink="http://www.w3.org/1999/xlink" x="0px" y="0px"
	 width="1280px" height="216.223px" viewBox="0 0 1280 216.223" enable-background="new 0 0 1280 216.223" xml:space="preserve">
<path opacity="0.75" fill="#FFFFFF" enable-background="new    " d="M1019.756,216.222h166.379c0,0-40.67-47.889-66.553-18.312
	c0,0-43.135-33.125-65.318,4.344C1054.264,202.255,1025.916,189.222,1019.756,216.222"/>
<path opacity="0.75" fill="#FFFFFF" enable-background="new    " d="M652.128,94.222h118.314c0,0-14.789-16.47-35.125-5.377
	c0,0-27.73-24.232-48.064,0.781C687.253,89.627,666.917,78.222,652.128,94.222"/>
<path opacity="0.75" fill="#FFFFFF" enable-background="new    " d="M313.402,138.222H180.298c0,0-4.93-19.466,29.578-10.224
	c0,0,36.975-36.729,61.623-2.098C271.499,125.901,308.473,112.222,313.402,138.222"/>
<g>
	<path fill="#5D88A0" d="M777.837,190.222H910.94c0,0,4.932-19.466-29.576-10.224c0,0-36.976-36.729-61.623-2.098
		C819.741,177.901,782.767,164.222,777.837,190.222"/>
	<path fill="#5D88A0" d="M955.31,134.222h136.804c0,0-13.558-14.574-39.439-7.18c0,0-27.112-28.898-54.227-2.179
		C998.446,124.864,965.169,118.222,955.31,134.222"/>
	<path fill="#5D88A0" d="M135.93,85.222H-0.872c0,0,13.557-14.574,39.438-7.18c0,0,27.113-28.898,54.228-2.179
		C92.794,75.864,126.069,69.222,135.93,85.222"/>
	<path fill="#5D88A0" d="M195.087,196.222H28.707c0,0,40.67-47.889,66.552-18.312c0,0,43.136-33.125,65.319,4.344
		C160.578,182.255,188.925,169.222,195.087,196.222"/>
	<path fill="#5D88A0" d="M439.112,74.222H320.797c0,0,14.789-16.47,35.125-5.377c0,0,27.73-24.232,48.065,0.781
		C403.987,69.627,424.323,58.222,439.112,74.222"/>
</g>
</svg>
