<?xml version="1.0" encoding="utf-8"?>
<!-- Generator: Adobe Illustrator 17.0.0, SVG Export Plug-In . SVG Version: 6.00 Build 0)  -->
<!DOCTYPE svg PUBLIC "-//W3C//DTD SVG 1.1//EN" "http://www.w3.org/Graphics/SVG/1.1/DTD/svg11.dtd">
<svg version="1.1" id="Calque_1" xmlns="http://www.w3.org/2000/svg" xmlns:xlink="http://www.w3.org/1999/xlink" x="0px" y="0px"
	 width="1280px" height="235.84px" viewBox="0 0 1280 235.84" enable-background="new 0 0 1280 235.84" xml:space="preserve">
<path opacity="0.75" fill="#FFFFFF" d="M126.279,75.84h-136.8c0,0,13.556-14.574,39.438-7.18c0,0,27.112-28.899,54.228-2.178
	C83.146,66.482,116.421,59.84,126.279,75.84"/>
<path opacity="0.75" fill="#FFFFFF" d="M185.439,186.84H19.059c0,0,40.67-47.89,66.552-18.311c0,0,43.135-33.125,65.319,4.345
	C150.93,172.873,179.276,159.84,185.439,186.84"/>
<path opacity="0.75" fill="#FFFFFF" d="M429.464,64.84H311.147c0,0,14.789-16.469,35.126-5.377c0,0,27.73-24.232,48.066,0.781
	C394.339,60.244,414.675,48.84,429.464,64.84"/>
<path opacity="0.75" fill="#FFFFFF" d="M768.188,180.84h133.105c0,0,4.931-19.465-29.577-10.223c0,0-36.975-36.73-61.623-2.099
	C810.093,168.519,773.117,154.84,768.188,180.84"/>
<path opacity="0.75" fill="#FFFFFF" d="M945.661,124.84h136.803c0,0-13.557-14.574-39.439-7.18c0,0-27.113-28.898-54.228-2.178
	C988.797,115.482,955.519,108.84,945.661,124.84"/>
<path opacity="0.75" fill="#FFFFFF" d="M886.505,235.84h166.379c0,0-40.671-47.89-66.553-18.311c0,0-43.135-33.125-65.318,4.345
	C921.013,221.873,892.665,208.84,886.505,235.84"/>
<path opacity="0.75" fill="#FFFFFF" d="M642.479,113.84h118.314c0,0-14.789-16.469-35.126-5.377c0,0-27.73-24.232-48.064,0.781
	C677.604,109.244,657.268,97.84,642.479,113.84"/>
<path opacity="0.75" fill="#FFFFFF" d="M303.752,131.84H170.649c0,0-4.931-19.465,29.578-10.223c0,0,36.974-36.73,61.622-2.099
	C261.85,119.519,298.823,105.84,303.752,131.84"/>
</svg>
