<?xml version="1.0" encoding="utf-8"?>
<!-- Generator: Adobe Illustrator 17.0.0, SVG Export Plug-In . SVG Version: 6.00 Build 0)  -->
<!DOCTYPE svg PUBLIC "-//W3C//DTD SVG 1.1//EN" "http://www.w3.org/Graphics/SVG/1.1/DTD/svg11.dtd">
<svg version="1.1" id="Calque_1" xmlns="http://www.w3.org/2000/svg" xmlns:xlink="http://www.w3.org/1999/xlink" x="0px" y="0px"
	 width="1280px" height="236.84px" viewBox="0 0 1280 236.84" enable-background="new 0 0 1280 236.84" xml:space="preserve">
<path opacity="0.75" fill="#FFFFFF" d="M303.752,132.84H170.649c0,0-4.931-19.465,29.578-10.223c0,0,36.974-36.73,61.622-2.099
	C261.85,120.519,298.823,106.84,303.752,132.84"/>
<path opacity="0.75" fill="#FFFFFF" d="M126.279,76.84h-136.8c0,0,13.556-14.574,39.438-7.18c0,0,27.112-28.899,54.228-2.178
	C83.146,67.482,116.42,60.84,126.279,76.84"/>
<path opacity="0.75" fill="#FFFFFF" d="M185.439,187.84H19.059c0,0,40.67-47.89,66.552-18.311c0,0,43.135-33.125,65.319,4.345
	C150.93,173.873,179.276,160.84,185.439,187.84"/>
<path opacity="0.75" fill="#FFFFFF" d="M429.464,65.84H311.147c0,0,14.789-16.469,35.126-5.377c0,0,27.73-24.232,48.066,0.781
	C394.339,61.244,414.675,49.84,429.464,65.84"/>
<path opacity="0.75" fill="#FFFFFF" d="M768.188,181.84h133.106c0,0,4.931-19.465-29.577-10.223c0,0-36.976-36.73-61.623-2.099
	C810.093,169.519,773.117,155.84,768.188,181.84"/>
<path opacity="0.75" fill="#FFFFFF" d="M945.66,125.84h136.804c0,0-13.557-14.574-39.44-7.18c0,0-27.112-28.898-54.227-2.178
	C988.797,116.482,955.521,109.84,945.66,125.84"/>
<path opacity="0.75" fill="#FFFFFF" d="M886.504,236.84h166.38c0,0-40.671-47.89-66.552-18.311c0,0-43.137-33.125-65.319,4.345
	C921.013,222.873,892.666,209.84,886.504,236.84"/>
<path opacity="0.75" fill="#FFFFFF" d="M641.97,114.84h118.314c0,0-14.79-16.469-35.126-5.377c0,0-27.729-24.232-48.064,0.781
	C677.094,110.244,656.758,98.84,641.97,114.84"/>
</svg>
