<?xml version="1.0" encoding="utf-8"?>
<!-- Generator: Adobe Illustrator 17.0.0, SVG Export Plug-In . SVG Version: 6.00 Build 0)  -->
<!DOCTYPE svg PUBLIC "-//W3C//DTD SVG 1.1//EN" "http://www.w3.org/Graphics/SVG/1.1/DTD/svg11.dtd">
<svg version="1.1" id="Calque_1" xmlns="http://www.w3.org/2000/svg" xmlns:xlink="http://www.w3.org/1999/xlink" x="0px" y="0px"
	 width="1280px" height="224.222px" viewBox="0 0 1280 224.222" enable-background="new 0 0 1280 224.222" xml:space="preserve">
<path opacity="0.75" fill="#FFFFFF" d="M1021.756,224.222h166.379c0,0-40.67-47.888-66.553-18.311c0,0-43.135-33.125-65.318,4.344
	C1056.264,210.255,1027.916,197.222,1021.756,224.222"/>
<path opacity="0.75" fill="#FFFFFF" d="M653.128,96.222h118.314c0,0-14.789-16.469-35.125-5.377c0,0-27.73-24.232-48.064,0.782
	C688.253,91.627,667.917,80.222,653.128,96.222"/>
<path opacity="0.75" fill="#FFFFFF" d="M314.402,140.222H181.298c0,0-4.93-19.465,29.578-10.223c0,0,36.975-36.73,61.622-2.098
	C272.499,127.901,309.473,114.222,314.402,140.222"/>
<g>
	<path fill="#5D88A0" d="M778.837,192.222H911.94c0,0,4.931-19.465-29.576-10.223c0,0-36.975-36.73-61.623-2.098
		C820.741,179.901,783.767,166.222,778.837,192.222"/>
	<path fill="#5D88A0" d="M956.31,136.222h136.803c0,0-13.557-14.574-39.439-7.179c0,0-27.113-28.899-54.227-2.179
		C999.446,126.864,966.169,120.222,956.31,136.222"/>
	<path fill="#5D88A0" d="M136.93,87.222H0.128c0,0,13.557-14.574,39.438-7.179c0,0,27.113-28.899,54.228-2.179
		C93.794,77.864,127.069,71.222,136.93,87.222"/>
	<path fill="#5D88A0" d="M196.087,198.222H29.706c0,0,40.671-47.888,66.552-18.311c0,0,43.136-33.125,65.319,4.344
		C161.578,184.255,189.925,171.222,196.087,198.222"/>
	<path fill="#5D88A0" d="M440.112,76.222H321.797c0,0,14.789-16.469,35.125-5.377c0,0,27.73-24.232,48.065,0.782
		C404.987,71.627,425.323,60.222,440.112,76.222"/>
</g>
</svg>
