<?xml version="1.0" encoding="utf-8"?>
<!-- Generator: Adobe Illustrator 17.0.0, SVG Export Plug-In . SVG Version: 6.00 Build 0)  -->
<!DOCTYPE svg PUBLIC "-//W3C//DTD SVG 1.1//EN" "http://www.w3.org/Graphics/SVG/1.1/DTD/svg11.dtd">
<svg version="1.1" id="Calque_1" xmlns="http://www.w3.org/2000/svg" xmlns:xlink="http://www.w3.org/1999/xlink" x="0px" y="0px"
	 width="1280px" height="235.84px" viewBox="0 0 1280 235.84" enable-background="new 0 0 1280 235.84" xml:space="preserve">
<path opacity="0.75" fill="#FFFFFF" d="M740.188,190.84h133.104c0,0,4.932-19.465-29.576-10.223c0,0-36.975-36.73-61.623-2.099
	C782.093,178.519,745.118,164.84,740.188,190.84"/>
<path opacity="0.75" fill="#FFFFFF" d="M917.661,124.84h136.803c0,0-13.557-14.574-39.439-7.18c0,0-27.113-28.898-54.227-2.178
	C960.798,115.482,927.521,108.84,917.661,124.84"/>
<path opacity="0.75" fill="#FFFFFF" d="M858.505,235.84h166.379c0,0-40.67-47.89-66.553-18.311c0,0-43.135-33.125-65.318,4.345
	C893.013,221.873,864.665,208.84,858.505,235.84"/>
<path opacity="0.75" fill="#FFFFFF" d="M882.537,33.008h118.315c0,0-14.789-16.469-35.125-5.377c0,0-27.731-24.233-48.065,0.781
	C917.662,28.412,897.326,17.008,882.537,33.008"/>
<path opacity="0.75" fill="#FFFFFF" d="M275.753,131.84H142.649c0,0-4.93-19.465,29.578-10.223c0,0,36.975-36.73,61.623-2.099
	C233.851,119.519,270.823,105.84,275.753,131.84"/>
<path opacity="0.75" fill="#FFFFFF" d="M98.28,75.84H-38.521c0,0,13.557-14.574,39.438-7.18c0,0,27.112-28.899,54.228-2.178
	C55.146,66.482,88.421,59.84,98.28,75.84"/>
<path opacity="0.75" fill="#FFFFFF" d="M157.439,186.84H-8.941c0,0,40.67-47.89,66.552-18.311c0,0,43.135-33.125,65.319,4.345
	C122.93,172.873,151.276,159.84,157.439,186.84"/>
<path opacity="0.75" fill="#FFFFFF" d="M401.464,64.84H283.147c0,0,14.789-16.469,35.125-5.377c0,0,27.73-24.232,48.066,0.781
	C366.339,60.244,386.675,48.84,401.464,64.84"/>
<path opacity="0.75" fill="#FFFFFF" d="M1367.28,75.84h-136.801c0,0,13.557-14.574,39.438-7.18c0,0,27.112-28.899,54.228-2.178
	C1324.146,66.482,1357.421,59.84,1367.28,75.84"/>
<path opacity="0.75" fill="#FFFFFF" d="M1426.438,186.84h-166.38c0,0,40.67-47.89,66.552-18.311c0,0,43.135-33.125,65.319,4.345
	C1391.93,172.873,1420.276,159.84,1426.438,186.84"/>
</svg>
